<svg version="1.1" xmlns="http://www.w3.org/2000/svg" xmlns:xlink="http://www.w3.org/1999/xlink" width="58.96814" height="93.75625" viewBox="0,0,58.96814,93.75625"><g transform="translate(-213.8034,-125.71719)"><g data-paper-data="{&quot;isPaintingLayer&quot;:true}" fill="#ffffff" fill-rule="nonzero" stroke="none" stroke-linecap="butt" stroke-linejoin="miter" stroke-miterlimit="10" stroke-dasharray="" stroke-dashoffset="0" style="mix-blend-mode: normal"><text transform="translate(229.99001,169.90469) scale(0.875,0.875)" font-size="40" xml:space="preserve" fill="#ffffff" fill-rule="nonzero" stroke="none" stroke-width="1" stroke-linecap="butt" stroke-linejoin="miter" stroke-miterlimit="10" stroke-dasharray="" stroke-dashoffset="0" font-family="Pixel" font-weight="normal" text-anchor="start" style="mix-blend-mode: normal"><tspan x="0" dy="0">6</tspan><tspan x="0" dy="46.150000000000006px">5</tspan></text><path d="M225.39964,141.60383v-1.97383h37.74948v1.97383z" stroke-width="0"/><path d="M229.84076,153.69353v-2.22056h34.29528v2.22056z" stroke-width="0"/><path d="M215.77723,165.04304v-2.22056h33.55509v2.22056z" stroke-width="0"/><path d="M223.17908,149.00568v-4.19439h41.69714v4.19439z" stroke-width="0"/><path d="M222.68563,181.57386v-5.92149h50.08591v5.92149z" stroke-width="0"/><path d="M217.50433,198.59814v-4.93457h44.41115v4.93457z" stroke-width="0"/><path d="M219.23143,209.20747v-5.42803h44.90461v5.42803z" stroke-width="0"/><path d="M220.46507,150.97951v-1.97383h50.82609v1.97383z" stroke-width="0"/><path d="M216.27068,160.10847v-3.20747h48.60554v3.20747z" stroke-width="0"/><path d="M218.24451,187.24862v-4.68784h45.15134v4.68784z" stroke-width="0"/><path d="M214.54358,135.68234v-1.7271h43.67096v1.7271z" stroke-width="0"/><path d="M213.8034,169.48416v-2.22056h45.15134v2.22056z" stroke-width="0"/><path d="M227.12674,203.03925v-2.96074h32.81491v2.96074z" stroke-width="0"/></g></g></svg>