<svg version="1.1" xmlns="http://www.w3.org/2000/svg" xmlns:xlink="http://www.w3.org/1999/xlink" width="629" height="292.70817" viewBox="0,0,629,292.70817"><defs><linearGradient x1="282.94435" y1="109.66483" x2="282.94435" y2="205.96595" gradientUnits="userSpaceOnUse" id="color-1"><stop offset="0" stop-color="#000000"/><stop offset="1" stop-color="#bbbbbb"/></linearGradient><linearGradient x1="104.31434" y1="255.43253" x2="120.18601" y2="297.04061" gradientUnits="userSpaceOnUse" id="color-2"><stop offset="0" stop-color="#000000"/><stop offset="1" stop-color="#000000" stop-opacity="0"/></linearGradient><linearGradient x1="366.1471" y1="254.36252" x2="350.27543" y2="295.9706" gradientUnits="userSpaceOnUse" id="color-3"><stop offset="0" stop-color="#000000"/><stop offset="1" stop-color="#000000" stop-opacity="0"/></linearGradient><linearGradient x1="194.94435" y1="110.19984" x2="194.94435" y2="204.36093" gradientUnits="userSpaceOnUse" id="color-4"><stop offset="0" stop-color="#000000"/><stop offset="1" stop-color="#bbbbbb"/></linearGradient><linearGradient x1="241.02279" y1="245.11907" x2="241.02279" y2="272.40439" gradientUnits="userSpaceOnUse" id="color-5"><stop offset="0" stop-color="#000000"/><stop offset="1" stop-color="#000000" stop-opacity="0"/></linearGradient><linearGradient x1="374.14135" y1="152.93896" x2="405.64135" y2="152.93896" gradientUnits="userSpaceOnUse" id="color-6"><stop offset="0" stop-color="#000000"/><stop offset="1" stop-color="#000000" stop-opacity="0"/></linearGradient><linearGradient x1="338.29334" y1="152.94843" x2="373.29334" y2="152.94843" gradientUnits="userSpaceOnUse" id="color-7"><stop offset="0" stop-color="#000000" stop-opacity="0"/><stop offset="1" stop-color="#000000"/></linearGradient><linearGradient x1="95.88577" y1="144.38834" x2="140.38577" y2="144.38834" gradientUnits="userSpaceOnUse" id="color-8"><stop offset="0" stop-color="#000000"/><stop offset="1" stop-color="#000000" stop-opacity="0"/></linearGradient><linearGradient x1="59.88577" y1="150.00591" x2="97.38577" y2="150.00591" gradientUnits="userSpaceOnUse" id="color-9"><stop offset="0" stop-color="#000000" stop-opacity="0"/><stop offset="1" stop-color="#000000"/></linearGradient><linearGradient x1="250" y1="31.30989" x2="250" y2="175.76158" gradientUnits="userSpaceOnUse" id="color-10"><stop offset="0" stop-color="#000000"/><stop offset="1" stop-color="#000000" stop-opacity="0"/></linearGradient><radialGradient cx="240.54519" cy="176.79373" r="69.08298" gradientUnits="userSpaceOnUse" id="color-11"><stop offset="0" stop-color="#000000" stop-opacity="0"/><stop offset="1" stop-color="#000000"/></radialGradient></defs><g transform="translate(64.5,-31.3099)"><g data-paper-data="{&quot;isPaintingLayer&quot;:true}" fill-rule="nonzero" stroke-linejoin="miter" stroke-miterlimit="10" stroke-dasharray="" stroke-dashoffset="0" style="mix-blend-mode: normal"><path d="M-7.34161,321.1241l9.58803,-21.8775l57.71758,-38.84872l-5.66461,-53.28823l-53.66411,26.95282l-8.97689,-175.17268h496l-7.11869,176.34883l-52.63724,-26.24473l-6.16773,50.90253l58.86415,40.33621l8.05951,19.82149l-115.00519,-74.20675l-65.08666,0.08893l-1.32889,-137.31894l-133.67226,-0.61155l0.00137,138.11223l-75.00096,0.10522z" fill="#69421e" stroke="#000000" stroke-width="2" stroke-linecap="butt"/><g data-paper-data="{&quot;index&quot;:null}"><path d="M-0.61423,302.97096l2.5,-69.0158l53,-27.28532l6.5,53.50062z" fill="#8c8c8c" stroke="none" stroke-width="0" stroke-linecap="butt"/><path d="M60.78856,260.62099h-58.5" fill="none" stroke="#000000" stroke-width="2" stroke-linecap="round"/><path d="M26.78856,221.65001v39.59046l-26,16.58519" fill="none" stroke="#000000" stroke-width="2" stroke-linecap="round"/></g><path d="M261.19435,202.22091l0.5,-57.24566l44.5,-35.84542l0.5,135.89159z" fill="url(#color-1)" stroke="none" stroke-width="0" stroke-linecap="butt"/><path d="M174.88229,245.82086l42.5,-42.26549l44.5,-0.53501l44.5,42.8005z" fill="#d6c2be" stroke="none" stroke-width="0" stroke-linecap="butt"/><path d="M96.93726,246.50072v-187.54245h277v187.54246h-67.78701l0.17749,-136.49551l-131.17749,0.31091v136.18461z" fill="#aca65e" stroke="#000000" stroke-width="2" stroke-linecap="butt"/><path d="M-9.89807,321.69011l107.37027,-75.76817h276.36377l117.16596,74.70019z" fill="#d6c2be" stroke="#000000" stroke-width="2" stroke-linecap="butt"/><path d="M312.76631,179.4836v-42.73429h38.33001v42.7343z" fill="#ffffff" stroke="#000000" stroke-width="2" stroke-linecap="butt"/><path d="M326.96413,236.54029v-42.17071h34.75844v42.17072z" fill="#ffffff" stroke="#000000" stroke-width="2" stroke-linecap="butt"/><path d="M103.98312,157.36028v-32.05072h19.165v32.05072z" fill="#ffffff" stroke="#000000" stroke-width="2" stroke-linecap="butt"/><path d="M104.13719,238.07269v-42.73429h22.75844v42.7343z" fill="#ffffff" stroke="#000000" stroke-width="2" stroke-linecap="butt"/><path d="M125.65408,121.27651v-42.73429h20.36282v42.7343z" fill="#ffffff" stroke="#000000" stroke-width="2" stroke-linecap="butt"/><path d="M172.38261,102.65558l-19.38598,-22.37644l7.81955,-4.52856l19.38598,22.37644z" fill="#000000" stroke="#000000" stroke-width="2" stroke-linecap="butt"/><path d="M304.09662,97.23802l19.38599,-20.15734l7.81956,4.07945l-19.38598,20.15734z" data-paper-data="{&quot;index&quot;:null}" fill="#000000" stroke="#000000" stroke-width="2" stroke-linecap="butt"/><path d="M331.8538,150.13375v-49.41154h27.54969v49.41154z" fill="#ffffff" stroke="#000000" stroke-width="2" stroke-linecap="butt"/><path d="M128.0497,194.34148v-25.37349h16.76937v25.37349z" fill="#ffffff" stroke="#000000" stroke-width="2" stroke-linecap="butt"/><path d="M385.99284,178.2366l2.77066,-95.06614l65.69695,13.90794l-2.83609,102.96843z" fill="#00fbff" stroke="#000000" stroke-width="2" stroke-linecap="butt"/><g stroke-linecap="butt"><path d="M223.78128,103.05495l17.5,-24.99083l17.10188,24.99083z" fill="#ff0000" stroke="#000000" stroke-width="2"/><text transform="translate(237.62176,100.90229) scale(0.68248,0.54084)" font-size="40" xml:space="preserve" fill="#000000" fill-rule="nonzero" stroke="none" stroke-width="1" stroke-linecap="butt" stroke-linejoin="miter" stroke-miterlimit="10" stroke-dasharray="" stroke-dashoffset="0" font-family="Sans Serif" font-weight="normal" text-anchor="start" style="mix-blend-mode: normal"><tspan x="0" dy="0">!</tspan></text></g><path d="M147.15025,247.45241l-81,73.83086" fill="none" stroke="#000000" stroke-width="2" stroke-linecap="round"/><g stroke="none" stroke-width="0" stroke-linecap="butt"><path d="M234.21103,76.84738v-44.32185h13.54279v44.32185z" fill="#ab6115"/><path d="M258.37953,83.65944c0,6.45955 -33.24139,6.45955 -33.24139,0c0,-6.45955 7.44134,-11.69604 16.62069,-11.69604c9.17935,0 16.6207,5.2365 16.6207,11.69604z" fill="#844a10"/></g><g stroke-linecap="butt"><g data-paper-data="{&quot;index&quot;:null}" fill="#663f3f" stroke="#000000" stroke-width="0.5"><path d="M437.08511,130.94756l0.99416,-1.1488l2.30065,2.27949l-0.99416,1.14881z"/><path d="M437.59634,132.82583l0.99416,-1.14881l2.30065,2.27949l-0.99416,1.14881z"/><path d="M436.51852,128.55718l0.99416,-1.1488l2.30065,2.27949l-0.99416,1.14881z"/><path d="M435.06277,130.23936l0.99417,-1.14881l2.30065,2.27949l-0.99416,1.14881z"/><path d="M439.08759,131.10262l0.99417,-1.14881l2.30065,2.2795l-0.99416,1.14881z"/><path d="M435.88215,133.48986l4.11868,-4.75934l1.22701,1.21573l-4.11868,4.75934z"/></g><g fill="#663f3f" stroke="#000000" stroke-width="0.5"><path d="M409.27476,124.30738l-0.30048,-1.53231l3.06868,-0.68896l0.30048,1.53231z"/><path d="M407.93358,125.63693l-0.30048,-1.53231l3.06868,-0.68896l0.30049,1.53231z"/><path d="M410.90956,122.56912l-0.30049,-1.53231l3.06868,-0.68895l0.30048,1.53231z"/><path d="M411.34955,124.81287l-0.30049,-1.53231l3.06868,-0.68896l0.30049,1.53231z"/><path d="M407.48285,123.33847l-0.30048,-1.53231l3.06868,-0.68897l0.30049,1.53231z"/><path d="M410.51662,126.82818l-1.24484,-6.34815l1.63663,-0.36744l1.24484,6.34815z"/></g><path d="M441.60755,149.56781c-2.98168,11.52432 -14.69154,18.45426 -26.11454,15.07047c-11.423,-3.38379 -17.02739,-15.95325 -14.04571,-27.47756c1.0261,-3.9659 1.62935,-7.77661 4.2426,-10.62207c4.98045,-5.42302 13.6541,-7.96065 21.14606,-5.74133c11.423,3.3838 17.75327,17.24619 14.77159,28.77049z" fill="#00c3c5" stroke="#929292" stroke-width="1"/><path d="M414.95523,137.64871c-0.76887,2.20696 -2.74265,3.45739 -4.40856,2.7929c-1.66592,-0.66449 -2.39311,-2.99225 -1.62425,-5.19923c0.76887,-2.20696 2.74265,-3.4574 4.40856,-2.79291c1.66592,0.66449 2.39311,2.99227 1.62425,5.19924z" fill="#000000" stroke="none" stroke-width="0"/><path d="M433.44069,145.50734c-0.76887,2.20696 -2.74265,3.45739 -4.40856,2.7929c-1.66592,-0.66449 -2.39311,-2.99226 -1.62425,-5.19924c0.76887,-2.20696 2.74265,-3.45739 4.40856,-2.7929c1.66592,0.66449 2.39311,2.99227 1.62425,5.19924z" fill="#000000" stroke="none" stroke-width="0"/><path d="M409.27955,135.65781c0.40659,-1.57149 1.92679,-2.49276 3.39547,-2.05771c1.46867,0.43506 2.32966,2.06169 1.92307,3.6332c-0.40659,1.57149 -1.92679,2.49276 -3.39547,2.05771c-1.46867,-0.43506 -2.32966,-2.06169 -1.92307,-3.6332z" fill="#fff1f1" stroke="none" stroke-width="0"/><path d="M427.91276,143.56019c0.40659,-1.57149 1.92679,-2.49277 3.39547,-2.05771c1.46867,0.43506 2.32966,2.06169 1.92307,3.6332c-0.40659,1.57149 -1.92679,2.49277 -3.39547,2.05771c-1.46867,-0.43506 -2.32966,-2.06169 -1.92307,-3.6332z" fill="#fff1f1" stroke="none" stroke-width="0"/><path d="M411.0115,136.34105c0.11294,-0.43653 0.53522,-0.69243 0.94319,-0.57159c0.40797,0.12085 0.64713,0.57269 0.53419,1.00922c-0.11294,0.43653 -0.53522,0.69244 -0.94319,0.57159c-0.40797,-0.12085 -0.64713,-0.57269 -0.53419,-1.00923z" fill="#000000" stroke="none" stroke-width="0.5"/><path d="M429.45606,144.35775c0.11294,-0.43653 0.53522,-0.69243 0.94319,-0.57159c0.40797,0.12085 0.64713,0.57269 0.53419,1.00922c-0.11294,0.43653 -0.53522,0.69244 -0.94319,0.57159c-0.40797,-0.12085 -0.64713,-0.57269 -0.53419,-1.00923z" fill="#000000" stroke="none" stroke-width="0.5"/><path d="M429.47698,153.17398c0.14744,0.80481 -0.60472,0.96257 -0.60472,0.96257l-0.54058,0.09991c-2.77017,1.15211 -5.81343,1.59884 -8.54415,2.77048c-4.00584,1.07987 -6.47704,-3.21149 -8.72284,-5.98786c-1.22577,-1.51536 -2.57064,-3.08798 -2.49207,-5.19202c0,0 0.05566,-0.81798 0.82011,-0.75841c0.76445,0.05955 0.70878,0.87753 0.70878,0.87753c-0.18293,1.48117 1.27712,2.95165 2.12695,4.00527c1.58383,1.96364 4.08475,6.52956 7.07412,5.49946c2.74614,-1.1284 5.71371,-1.57819 8.46988,-2.74168l0.80492,-0.18231c0,0 0.75215,-0.15776 0.89959,0.64706z" fill="#000000" stroke="none" stroke-width="0.5"/><path d="M406.05159,119.75723c0,0 -2.63472,-6.28933 -0.29393,-7.57001c2.34079,-1.28069 5.79756,5.17734 5.79756,5.17734c0,0 1.11185,3.10248 -1.22894,4.38318c-2.34079,1.28069 -4.27469,-1.99051 -4.27469,-1.99051z" fill="#00c3c5" stroke="#000000" stroke-width="0"/><path d="M439.67693,130.10178c-1.39199,-2.38643 1.05267,-4.43538 1.05267,-4.43538c0,0 6.0685,-3.63641 7.46049,-1.24996c1.39199,2.38643 -3.8904,6.33049 -3.8904,6.33049c0,0 -3.23077,1.74129 -4.62277,-0.64515z" data-paper-data="{&quot;index&quot;:null}" fill="#00c3c5" stroke="#000000" stroke-width="0"/><path d="M407.3435,119.54413c0,0 -1.54992,-3.6998 -0.17291,-4.45319c1.37701,-0.75339 3.41051,3.04566 3.41051,3.04566c0,0 0.65407,1.82509 -0.72295,2.57848c-1.37701,0.75339 -2.51466,-1.17096 -2.51466,-1.17096z" fill="#00a5a8" stroke="#000000" stroke-width="0"/><path d="M440.72246,129.5175c-0.81887,-1.40386 0.61926,-2.60919 0.61926,-2.60919c0,0 3.5699,-2.13918 4.38876,-0.73531c0.81887,1.40386 -2.2886,3.72403 -2.2886,3.72403c0,0 -1.90055,1.02434 -2.71942,-0.37953z" data-paper-data="{&quot;index&quot;:null}" fill="#00a5a8" stroke="#000000" stroke-width="0"/><path d="M422.4728,145.96771c-0.41254,0.94364 -1.83364,1.16466 -3.17412,0.4937c-1.34047,-0.67096 -2.09271,-1.97985 -1.68016,-2.9235c0.41254,-0.94364 1.83364,-1.16467 3.17412,-0.49371c1.34047,0.67096 2.09271,1.97986 1.68016,2.9235z" fill="#00b1b4" stroke="none" stroke-width="0"/><path d="M419.10878,144.39018c0.11294,-0.43653 0.53522,-0.69243 0.94319,-0.57159c0.40797,0.12085 0.64713,0.57269 0.53419,1.00922c-0.11294,0.43653 -0.53522,0.69244 -0.94319,0.57159c-0.40797,-0.12085 -0.64713,-0.57269 -0.53419,-1.00923z" fill="#000000" stroke="none" stroke-width="0.5"/></g><path d="M323.15025,247.45241l81,73.83086" data-paper-data="{&quot;index&quot;:null}" fill="none" stroke="#000000" stroke-width="2" stroke-linecap="round"/><path d="M251.69887,200.99357l28.45138,44.31883l36,74.90088" data-paper-data="{&quot;index&quot;:null}" fill="none" stroke="#000000" stroke-width="2" stroke-linecap="round"/><path d="M45.15025,285.97286h390" fill="none" stroke="#000000" stroke-width="2" stroke-linecap="round"/><path d="M82.15025,258.15254h311" fill="none" stroke="#000000" stroke-width="2" stroke-linecap="round"/><path d="M171.61608,320.61142l-181.87167,0.65742l106.13985,-74.42695l78.37167,-2.26243z" fill="url(#color-2)" stroke="none" stroke-width="0" stroke-linecap="butt"/><path d="M307.2055,246.18448l67.37167,-0.41259l118.63985,75.49696l-194.87167,-1.72743z" data-paper-data="{&quot;index&quot;:null}" fill="url(#color-3)" stroke="none" stroke-width="0" stroke-linecap="butt"/><path d="M359.30381,202.48527c-0.44721,0.95705 -1.34164,0.47852 -1.34164,0.47852l-1,-0.53501c-2.17917,-1.18318 -3.11691,-0.78629 -5.31025,-0.18648c-1.3118,0.34124 -2.77173,-0.08095 -4.01279,0.27083c-1.44066,0.40835 -1.95954,1.10213 -3.57669,0.49717c-1.40161,-0.52433 -3.73816,-3.20081 -4.92685,-3.14388c-1.15035,0.0551 -2.04945,1.03008 -3.06655,1.51141c-1.41376,0.66905 -2.90232,0.93619 -4.38494,1.39025c0,0 -0.96152,0.29396 -1.23625,-0.73489c-0.27472,-1.02884 0.68681,-1.3228 0.68681,-1.3228c2.2558,-0.68849 5.82975,-3.03123 8.04851,-2.9834c1.91174,0.0412 3.74688,2.4652 5.57316,3.2762c1.07542,0.47757 1.38082,-0.30569 2.4233,-0.57286c1.30134,-0.3335 2.66253,0.10263 3.98722,-0.26417c2.63155,-0.6846 4.10668,-1.01667 6.68975,0.34852l1,0.53501c0,0 0.89442,0.47853 0.44721,1.43557z" fill="#000000" stroke="none" stroke-width="0.5" stroke-linecap="butt"/><path d="M356.8038,212.38289c-0.44721,0.95704 -1.34164,0.47852 -1.34164,0.47852l-0.65278,-0.36855c-1.03544,-1.05576 -3.09829,-0.23158 -4.65,-1.39101c-2.43122,1.78628 -6.17836,3.18444 -9.06972,3.7275c-1.11331,0.2091 -1.90137,0.61355 -2.98343,-0.16107c-1.14614,-0.82048 -1.36273,-3.44492 -2.76308,-3.88885c-1.36852,-0.43383 -3.73722,0.05491 -5.18377,0.05491c0,0 -1,0 -1,-1.07001c0,-1.07001 1,-1.07001 1,-1.07001c1.61013,0 4.30888,-0.51391 5.81623,0.0549c1.3732,0.51819 2.61895,4.34107 3.70756,4.22545c3.63043,-0.38558 7.14996,-2.52987 10.47621,-4.01284c2.06064,0.91934 4.1454,0.60889 5.85,1.81902l0.34722,0.16646c0,0 0.89443,0.47853 0.44721,1.43558z" fill="#000000" stroke="none" stroke-width="0.5" stroke-linecap="butt"/><path d="M359.40938,225.54702c0,1.07001 -1,1.07001 -1,1.07001l-0.50747,-0.03194c-1.26301,0.33785 -2.87141,1.15797 -4.03074,-0.11208c-0.52447,-0.57456 -0.49003,-2.83581 -1.05044,-3.66424c-2.1183,0.45564 -4.21594,0.66827 -6.16084,1.79207c-1.46296,0.84533 -2.74804,3.7619 -4.52647,3.88836c-0.17906,0.01273 -2.96719,-2.27432 -3.0367,-2.32511c-2.52639,-1.84592 -5.74203,-4.23038 -8.74014,-2.60257c0,0 -0.89443,0.47853 -1.34164,-0.47852c-0.44722,-0.95705 0.44721,-1.43557 0.44721,-1.43557c3.29186,-1.73979 6.23914,-0.22772 9.17463,1.70235c1.06104,0.69762 2.34046,1.4742 3.25532,2.38515c0.15744,0.15677 0.08236,0.66025 0.29321,0.61495c0.89374,-0.19203 2.50319,-3.0309 3.47354,-3.60173c2.43617,-1.43313 5.11408,-1.82964 7.83915,-1.95298c1.38144,1.38203 1.85201,2.48867 1.94957,4.36085c0.03823,0.73361 1.30309,-0.46886 1.96926,-0.64707l0.99254,-0.03195c0,0 1,0.00001 1,1.07002z" fill="#000000" stroke="none" stroke-width="0.5" stroke-linecap="butt"/><path d="M358.3038,232.71313c-0.44721,0.95704 -1.34164,0.47852 -1.34164,0.47852l-0.29532,-0.18648c-1.13986,-0.30596 -2.20268,-0.50613 -3.37965,-0.51107c-2.31991,-0.60348 -3.70054,0.74622 -5.91619,0.54223c-0.85455,-0.07868 -1.60408,-0.8196 -2.46163,-0.80173c-1.95535,0.04075 -3.64009,0.29573 -5.56771,-0.00246c-1.69436,-0.2621 -4.1063,1.32692 -5.93229,1.33998c0,0 -1,0 -1,-1.07001c0,-1.07001 1,-1.07002 1,-1.07002c2.01545,0.01841 4.10087,-1.51869 6.06771,-1.33506c2.65899,0.24827 5.29923,0.45402 7.97067,0.80084c2.10576,0.27337 3.72534,-1.18083 6.0838,-0.52778c1.25132,-0.00569 2.40945,0.23604 3.62036,0.55894l0.70468,0.34852c0,0 0.89443,0.47852 0.44721,1.43557z" fill="#000000" stroke="none" stroke-width="0.5" stroke-linecap="butt"/><path d="M348.19903,167.15618c-0.7071,0.75661 -1.41422,0 -1.41422,0l-0.03543,-0.25356c-3.36471,-0.93168 -7.03551,0.52151 -10.25,-0.2675c-1.08115,-0.29566 -1.95553,-1.02406 -2.98721,-1.33419c-2.31974,-0.69735 -5.46119,1.11207 -8,0.53501c-2.58751,-0.58812 -5.84991,-0.47729 -8.52771,0.26417c0,0 -0.97015,0.25952 -1.21268,-0.77854c-0.24254,-1.03807 0.7276,-1.29758 0.7276,-1.29758c2.95624,-0.76899 6.61193,-0.98779 9.47229,-0.27083c2.59827,0.65126 5.4828,-1.16195 8,-0.535c1.05393,0.26251 1.934,1.0602 3.01278,1.34085c1.2048,0.36372 1.80348,-0.29017 3.00746,-0.29945c2.21536,-0.01708 5.06058,-0.00064 7.24254,0.56695l0.96457,0.81646c0,0 0.7071,0.75662 0,1.51323z" fill="#000000" stroke="none" stroke-width="0.5" stroke-linecap="butt"/><path d="M347.49192,172.81964c0,1.07001 -1,1.07001 -1,1.07001l-0.87782,-0.00802c-2.50293,0.66954 -4.51491,0.77697 -7.01088,-0.00233c-2.76829,0.00651 -6.04368,2.29072 -8.72042,1.87647c-1.4401,-0.22286 -1.64511,-1.62391 -2.87063,-1.89476c-0.9296,-0.20546 -2.06513,0.29286 -3.02025,0.29613c-2.05465,0.00703 -4.08767,-0.27106 -6.12403,-0.54327c0,0 -0.99228,-0.13272 -0.86825,-1.19447c0.12404,-1.06175 1.11631,-0.92903 1.11631,-0.92903c2.13345,0.28551 4.58102,0.835 6.75378,0.53476c0.86354,-0.11933 1.75345,-0.45607 2.60194,-0.24689c0.98861,0.24373 1.76255,1.77823 2.62936,1.85028c2.71762,0.22588 5.92378,-1.87297 8.77959,-1.86857c2.40976,0.72304 4.05115,0.64983 6.48911,-0.00233l1.12218,-0.00802c0,0 1,0 1,1.07001z" fill="#000000" stroke="none" stroke-width="0.5" stroke-linecap="butt"/><path d="M356.99192,129.3661c0,1.07001 -1,1.07002 -1,1.07002l-0.50746,-0.03196c-2.3361,0.563 -3.54638,-0.76672 -5.68165,-1.32487c-1.3705,-0.35824 -2.68277,1.0652 -4.0371,1.08901c-1.63347,0.02872 -4.17871,-0.09334 -5.57428,-0.97892c-0.51912,-0.32942 -0.84636,-1.02193 -1.42926,-1.18943c-0.79802,-0.22931 -1.99637,0.58832 -2.77771,0.7992c0,0 -0.97015,0.25952 -1.21268,-0.77856c-0.24253,-1.03808 0.72761,-1.29758 0.72761,-1.29758c1.24415,-0.32945 2.38523,-1.15178 3.72229,-0.80584c0.80776,0.209 1.3812,0.98928 2.07074,1.48561c0.93988,0.67653 3.29614,0.59749 4.42572,0.6261c1.56321,0.03959 2.7357,-1.43651 4.4629,-1.05101c1.7058,0.38073 3.01899,1.90972 4.81835,1.35017l0.99254,-0.03194c0,0 1,0 1,1.07001z" fill="#000000" stroke="none" stroke-width="0.5" stroke-linecap="butt"/><path d="M355.94903,136.81029c-0.70711,0.75662 -1.41422,0 -1.41422,0l-0.42557,-0.57056c-3.08176,0.30603 -5.51615,-0.72048 -8.34707,-1.55219c-1.18126,-0.34705 -2.99441,0.68596 -4.17171,0.82592c-1.79655,0.21357 -3.85224,-0.10942 -5.59108,-0.56175c0,0 -0.97014,-0.25952 -0.7276,-1.29758c0.24253,-1.03807 1.21268,-0.77854 1.21268,-0.77854c1.49947,0.4152 3.35162,0.69343 4.90892,0.50826c1.57424,-0.18717 3.21415,-1.18664 4.82829,-0.7791c1.04588,0.26407 1.79387,1.1833 2.89243,1.3169c1.87763,0.22835 3.87373,0.23103 5.7605,0.34094l1.07443,1.03446c0,0 0.7071,0.75662 0,1.51323z" fill="#000000" stroke="none" stroke-width="0.5" stroke-linecap="butt"/><path d="M355.19061,140.67209c-0.31623,1.01511 -1.26491,0.67674 -1.26491,0.67674l-0.43377,-0.21259c-1.9225,-0.00647 -4.68994,-1.59468 -6.52025,-1.09864c-2.83633,0.76869 -6.26198,2.10425 -9.22229,1.33419c0,0 -0.97014,-0.25952 -0.72761,-1.29758c0.24253,-1.03807 1.21268,-0.77854 1.21268,-0.77854c2.63989,0.73098 5.73314,-0.79747 8.27771,-1.34083c2.26879,-0.48448 4.68356,1.05051 6.97975,1.04139l1.06623,0.32241c0,0 0.94869,0.33837 0.63245,1.35347z" fill="#000000" stroke="none" stroke-width="0.5" stroke-linecap="butt"/><path d="M356.49192,144.88128c0,1.07001 -1,1.07001 -1,1.07001h-0.25c-1.67823,-0.0098 -2.86932,-0.83121 -4.38273,-1.07948c-1.11187,-0.1824 -2.27218,1.36957 -3.40882,1.34606c-0.87323,-0.01808 -1.46584,-1.03888 -2.27467,-1.3915c-1.71328,-0.7469 -4.99627,0.6421 -6.56238,1.3159c0,0 -0.92848,0.39739 -1.29987,-0.59609c-0.37139,-0.99347 0.55709,-1.39087 0.55709,-1.39087c2.12459,-0.90506 5.62733,-2.23937 7.93762,-1.35913c0.65987,0.25141 1.02565,1.3186 1.72533,1.28352c1.3144,-0.06589 2.00482,-1.47887 3.59118,-1.32897c1.42455,0.13461 2.55787,1.07163 4.11727,1.06055h0.25c0,0 1,0 1,1.07001z" fill="#000000" stroke="none" stroke-width="0.5" stroke-linecap="butt"/><path d="M121.35287,147.54551c0,1.07001 -1,1.07002 -1,1.07002h-0.5c-1.66846,-0.01523 -3.04444,0.99044 -4.72185,0.14088c-0.57858,-0.29304 -0.68129,-1.32278 -1.29507,-1.51723c-0.5419,-0.17167 -1.05008,0.49093 -1.61088,0.56582c-2.0333,0.27151 -4.14945,-0.03382 -6.11472,-0.55893c0,0 -0.97014,-0.25952 -0.7276,-1.29758c0.24253,-1.03807 1.21267,-0.77854 1.21267,-0.77854c1.73005,0.46335 3.59425,0.75113 5.38529,0.51107c0.65267,-0.08748 1.79287,-0.68452 2.38912,-0.5042c0.74606,0.22564 1.02773,1.28891 1.70493,1.69281c0.89171,0.53183 2.78605,-0.38703 3.77814,-0.39411h0.5c0,0 1,0 1,1.07001z" fill="#000000" stroke="none" stroke-width="0.5" stroke-linecap="butt"/><path d="M120.85287,153.69807c0,1.07001 -1,1.07002 -1,1.07002h-0.5c-4.29463,0 -8.53145,-0.8359 -12.86043,-1.34405c0,0 -0.99388,-0.11816 -0.88345,-1.18162c0.11043,-1.06348 1.10431,-0.9453 1.10431,-0.9453c4.26052,0.51251 8.41398,1.33096 12.63957,1.33096h0.5c0,0 1,0.00001 1,1.07002z" fill="#000000" stroke="none" stroke-width="0.5" stroke-linecap="butt"/><path d="M141.60287,182.77803c0,1.07001 -1,1.07002 -1,1.07002l-0.00747,-0.03195c-0.85345,0.22201 -2.65188,1.47662 -3.40271,1.35564c-0.76672,-0.12354 -1.03028,-1.2989 -1.7225,-1.67266c-0.48404,-0.26135 -1.05139,0.3544 -1.59353,0.34866c-0.94401,-0.01 -2.2259,-0.55013 -3.09001,-0.85712c0,0 -0.94868,-0.33836 -0.63245,-1.35347c0.31623,-1.0151 1.26491,-0.67673 1.26491,-0.67673c1.58663,0.56831 3.44424,-0.02786 4.81646,0.56154c0.59474,0.25546 0.64015,1.46562 1.2775,1.53738c0.18622,0.02096 2.14517,-1.19575 2.59728,-1.31939l0.49253,-0.03194c0,0 1,0 1,1.07001z" fill="#000000" stroke="none" stroke-width="0.5" stroke-linecap="butt"/><path d="M141.49729,189.67663c-0.44721,0.95705 -1.34164,0.47852 -1.34164,0.47852l-0.05279,-0.15453c-2.16621,-0.01547 -2.38168,-0.95411 -3.9927,-2.01141c-1.05707,-0.69375 -3.53661,0.13889 -4.7573,0.13889c0,0 -1,-0.00001 -1,-1.07002c0,-1.07001 1,-1.07001 1,-1.07001c1.77991,0 4.10116,-0.82807 5.7427,0.13889c1.52612,0.89897 1.1418,1.75068 3.0073,1.73363l0.94721,0.38046c0,0 0.89443,0.47852 0.44721,1.43557z" fill="#000000" stroke="none" stroke-width="0.5" stroke-linecap="butt"/><path d="M139.99029,176.10397c0.27407,0.04451 0.86258,0.23566 0.86258,1.05651c0,1.07001 -1,1.07002 -1,1.07002l-0.95711,-0.31341c-1.66256,-1.94941 -5.95037,-2.03645 -8.28543,-2.66108c0,0 -0.97014,-0.25952 -0.7276,-1.29758c0.24254,-1.03807 1.21267,-0.77854 1.21267,-0.77854c2.79063,0.7465 6.59107,0.92104 8.89489,2.9241z" fill="#000000" stroke="none" stroke-width="0.5" stroke-linecap="butt"/><path d="M122.57301,218.36394c0.24253,1.03807 -0.72761,1.29758 -0.72761,1.29758l-1.12035,0.29144c-1.94848,0.01138 -3.17609,0.1645 -4.75486,-0.87595c-0.3957,-0.26077 -0.85069,0.40521 -1.29278,0.55855c-1.20579,0.41823 -4.80942,1.3269 -6.07454,1.12793c-0.65886,-0.10362 -1.47924,-0.20053 -1.85749,-0.787c-0.33368,-0.51736 0.09156,-1.25337 0.13735,-1.88004c0,0 0.24253,-1.03806 1.21267,-0.77855c0.97015,0.25952 0.72761,1.29758 0.72761,1.29758c-0.34859,0.2499 2.99476,-0.67723 4.18132,-0.78932c0.74391,-0.07027 1.38336,-0.64014 2.11879,-0.77909c0.81867,-0.15467 1.61674,0.4621 2.36244,0.85533c0.54328,0.28651 2.33865,-0.0781 2.99514,-0.07343l0.87964,-0.24358c0,0 0.97015,-0.25952 1.21268,0.77855z" fill="#000000" stroke="none" stroke-width="0.5" stroke-linecap="butt"/><path d="M122.10287,223.97351c0,1.07001 -1,1.07001 -1,1.07001h-0.75c-1.10652,-0.01831 -2.37743,-0.7179 -3.37781,-0.54302c-2.57785,0.45065 -5.26616,0.91952 -7.86472,0.24356c0,0 -0.97014,-0.25951 -0.7276,-1.29758c0.24253,-1.03807 1.21267,-0.77855 1.21267,-0.77855c2.39154,0.66221 4.76611,-0.04272 7.13529,-0.29143c1.41858,-0.14891 2.21038,0.55881 3.62218,0.52699h0.75c0,0 1,0 1,1.07001z" fill="#000000" stroke="none" stroke-width="0.5" stroke-linecap="butt"/><path d="M123.57301,231.45562c-0.24254,1.03807 -1.21268,0.77856 -1.21268,0.77856l-0.87964,-0.24357c-1.0833,0 -2.63299,-0.8716 -3.64806,-0.55561c-2.88782,0.89897 -5.31455,1.13892 -8.40864,0.54638c0,0 -0.98387,-0.19141 -0.80498,-1.24417c0.17888,-1.05275 1.16275,-0.86134 1.16275,-0.86134c2.92322,0.57861 4.90135,0.1229 7.59136,-0.52364c1.44212,-0.34661 2.9045,0.5144 4.35194,0.5144l1.12035,0.29143c0,0 0.97015,0.25951 0.72761,1.29758z" fill="#000000" stroke="none" stroke-width="0.5" stroke-linecap="butt"/><path d="M143.57301,108.80984c0.24254,1.03808 -0.72761,1.29757 -0.72761,1.29757l-1.12035,0.29143c-1.87436,0.01338 -4.40413,0.37183 -6.11488,-0.66588c-0.58169,-0.35283 -0.77757,-1.26036 -1.38998,-1.54758c-1.18456,-0.55555 -3.58387,0.60729 -4.86732,0.61646c0,0 -1,0 -1,-1.07001c0,-1.07001 1,-1.07001 1,-1.07001c1.72792,0.01578 3.93258,-1.22566 5.63269,-0.45355c0.68653,0.31179 0.96472,1.26233 1.61001,1.66245c1.26632,0.78518 3.49647,0.39144 4.88512,0.40413l0.87964,-0.24357c0,0 0.97015,-0.25951 1.21268,0.77855z" fill="#000000" stroke="none" stroke-width="0.5" stroke-linecap="butt"/><path d="M142.4973,116.23544c-0.44721,0.95705 -1.34164,0.47853 -1.34164,0.47853l-0.5,-0.2675c-1.45302,-0.83679 -3.07425,-0.48382 -4.67497,-0.69756c-1.56103,-0.20845 -2.68009,-1.16362 -4.10757,-1.62562c-0.75346,-0.24385 -2.31986,0.64636 -3.07413,0.81035c0,0 -0.98059,0.20985 -1.1767,-0.83939c-0.19612,-1.04923 0.78446,-1.25907 0.78446,-1.25907c1.31186,-0.27557 2.55101,-1.12251 3.92587,-0.79466c1.36959,0.3266 2.42996,1.38839 3.89243,1.58441c1.90431,0.25523 3.54036,-0.00045 5.32503,0.90745l0.5,0.2675c0,0 0.89443,0.47853 0.44721,1.43557z" fill="#000000" stroke="none" stroke-width="0.5" stroke-linecap="butt"/><path d="M167.45052,103.47851l15.21457,-10.35438l-2.76885,13.31708z" fill="#000000" stroke="#000000" stroke-width="2" stroke-linecap="butt"/><path d="M303.46938,107.51122l-2.76885,-13.31708l15.21456,10.35437z" data-paper-data="{&quot;index&quot;:null}" fill="#000000" stroke="#000000" stroke-width="2" stroke-linecap="butt"/><path d="M216.78936,202.68159v-57.78067h45.5v57.78068z" fill="#000000" stroke="none" stroke-width="0" stroke-linecap="butt"/><path d="M174.69435,245.55642l-0.5,-135.35658l42.5,35.31041l-0.5,58.31568z" fill="url(#color-4)" stroke="none" stroke-width="0" stroke-linecap="butt"/><path d="M216.69435,146.58026l-43,-36.91544l133,0.53501l-46,37.45044z" fill="#0b0b0b" stroke="none" stroke-width="0" stroke-linecap="butt"/><path d="M263.69435,204.89594v-27.28531l9.5,-6.42008l-0.5,42.26549z" fill="#0b0b0b" stroke="none" stroke-width="0" stroke-linecap="butt"/><path d="M277.19435,218.27111v-48.68557l19,-10.16511l0.5,78.11091z" fill="#0b0b0b" stroke="none" stroke-width="0" stroke-linecap="butt"/><path d="M185.19435,235.92631l0.5,-78.11091l19,10.16512v48.68557z" data-paper-data="{&quot;index&quot;:null}" fill="#0b0b0b" stroke="none" stroke-width="0" stroke-linecap="butt"/><path d="M208.19435,211.85103v-40.66048l7,5.35007v28.35533z" data-paper-data="{&quot;index&quot;:null}" fill="#0b0b0b" stroke="none" stroke-width="0" stroke-linecap="butt"/><path d="M185.69435,204.36093l-10.5,-12.84015l41,-6.95508" fill="none" stroke="#000000" stroke-width="2" stroke-linecap="round"/><path d="M296.69435,189.38077l10.5,17.1202l-45.5,-14.44517" fill="none" stroke="#000000" stroke-width="2" stroke-linecap="round"/><path d="M261.69435,183.49569l45.5,8.5601l-10.5,10.70012" fill="none" stroke="#000000" stroke-width="2" stroke-linecap="round"/><path d="M216.19435,195.26584l-41.5,12.30514l10.5,-18.19021" fill="none" stroke="#000000" stroke-width="2" stroke-linecap="round"/><path d="M308.19435,192.0558v15.51518" fill="none" stroke="#000000" stroke-width="2" stroke-linecap="round"/><path d="M173.69435,207.57098v-16.58519" fill="none" stroke="#000000" stroke-width="2" stroke-linecap="round"/><path d="M205.19435,187.77575l3,8.5601" fill="none" stroke="#000000" stroke-width="2" stroke-linecap="round"/><path d="M208.19435,186.70573l-3.5,11.77014" fill="none" stroke="#000000" stroke-width="2" stroke-linecap="round"/><path d="M276.19435,196.33585l-2,-10.16512" fill="none" stroke="#000000" stroke-width="2" stroke-linecap="round"/><path d="M277.19435,186.17073l-4.5,10.16512" fill="none" stroke="#000000" stroke-width="2" stroke-linecap="round"/><path d="M177.65782,198.16954c-0.01182,0.05616 -0.0237,0.11139 -0.03567,0.16571c0.01334,-0.01713 0.02668,-0.03431 0.03999,-0.05151c0.01988,-0.02566 0.01729,-0.06448 -0.00432,-0.11421zM174.57367,202.36304c-0.05568,0.03324 -0.11245,0.06682 -0.17034,0.10079l-0.26853,-0.98856h-0.34879v-1.28402c0,-1.82318 0.04529,-3.45713 0.25683,-5.14821l-0.03741,0.008l-0.19595,-1.04835c-0.01537,-0.07455 -0.02347,-0.15202 -0.02347,-0.2315c0,-0.59095 0.44772,-1.07002 1,-1.07002c0.37065,0 0.6942,0.21576 0.86693,0.53631l0.51355,0.91585c0.97782,0.73758 2.93174,1.8494 3.3434,3.06042c0.82479,2.42639 -2.98906,5.22554 -3.7954,7.44094c0,0 -0.3714,0.99348 -1.29987,0.59609c-0.92847,-0.39739 -0.55708,-1.39086 -0.55708,-1.39086c0.20582,-0.53937 0.44781,-1.03309 0.71613,-1.49687z" fill="#ff0000" stroke="none" stroke-width="0.5" stroke-linecap="butt"/><path d="M184.20544,192.48299c0,0 -0.19612,-1.04923 0.78447,-1.25907c0.98058,-0.20984 1.1767,0.83938 1.1767,0.83938c0.42569,2.33014 0.41941,4.68154 0.41941,7.05793c0,0.5921 0.05637,2.61626 -0.29289,2.89663c-2.01682,1.6191 -4.2272,-2.06704 -4.49244,-3.78404c-0.22565,-1.46073 0.91333,-2.84735 1.55548,-3.98971l0.04497,-0.03282l-0.01512,-0.01214l0.59302,-0.84605c0.08593,-0.12539 0.19676,-0.23003 0.32471,-0.30554c-0.02959,-0.18865 -0.06226,-0.37686 -0.09831,-0.56459z" fill="#ff0000" stroke="none" stroke-width="0.5" stroke-linecap="butt"/><path d="M177.61604,193.18102c-0.22134,0.10342 -0.44071,0.20635 -0.65864,0.29961c0,0 -0.92848,0.39739 -1.29987,-0.59608c-0.37139,-0.99347 0.55708,-1.39088 0.55708,-1.39088c1.17892,-0.50457 6.18743,-2.50842 7.19946,-0.6764c1.2513,2.26515 -2.94341,6.174 -4.8978,4.3905c-0.85746,-0.78248 -1.07121,-1.48297 -0.90024,-2.02675z" fill="#ff0000" stroke="none" stroke-width="0.5" stroke-linecap="butt"/><path d="M181.76866,203.20842c0.09506,0.01381 0.18586,0.03369 0.27131,0.06004c-0.18464,-0.11225 -0.3363,-0.19164 -0.27199,-0.09285zM181.61059,200.79462c1.51559,0.17523 3.3396,2.24063 2.65471,3.75831c-0.48411,1.07279 -3.41304,1.47826 -5.51829,1.70484l-0.63241,0.406c-0.15336,0.10238 -0.33452,0.16153 -0.52859,0.16153c-0.55229,0 -1,-0.47906 -1,-1.07002c0,-0.24478 0.07682,-0.47036 0.20607,-0.65065l0.59393,-0.84736l0.05056,0.04056l0.04233,-0.15518c1.3447,-1.01084 1.51614,-3.15695 2.50711,-4.59345c0,0 0.6,-0.85601 1.4,-0.21401c0.69921,0.56113 0.32896,1.28573 0.22457,1.4594z" fill="#ff0000" stroke="none" stroke-width="0.5" stroke-linecap="butt"/><path d="M305.85357,194.20582c0.08862,-0.26449 0.29128,-0.53264 0.73633,-0.62788c0.98058,-0.20985 1.1767,0.83938 1.1767,0.83938c0.43077,2.30614 -0.44082,4.75831 0.01455,6.73849l-0.02984,0.10544h0.0347v1.07001c0,0.59095 -0.44772,1.07002 -1,1.07002c-0.27614,0 -0.52614,-0.11977 -0.7071,-0.3134l-0.8,-0.85601l0.16622,-0.17786c-1.52136,-1.32062 -3.12616,-3.30459 -2.37826,-5.06629c0.13108,-0.30879 1.0579,-0.8276 1.92201,-1.15016l-0.00287,-0.56836c0,0 0,-0.97332 0.86756,-1.06336z" fill="#ff0000" stroke="none" stroke-width="0.5" stroke-linecap="butt"/><path d="M300.15413,199.28445c0.44703,-0.3238 0.97012,-0.49337 1.65309,-0.35073c0.87327,0.18239 2.14049,1.84975 2.64576,3.4343c0.84792,0.72206 1.41099,1.65519 0.7611,2.70315c-0.40162,0.64762 -1.42033,0.47842 -2.1443,0.41522c-0.94693,-0.08267 -2.40103,-0.74068 -3.6441,-1.44135l-0.03579,0.19146l-0.98183,-0.21012c-0.15678,-0.03013 -0.30086,-0.09935 -0.42314,-0.19791c-0.22499,-0.03854 -0.46455,-0.17656 -0.6564,-0.5187c-0.5145,-0.91753 0.343,-1.46804 0.343,-1.46804c0.53194,-0.32928 0.95006,-0.85987 1.36596,-1.38145c-0.37097,0.33217 -0.76294,0.64342 -1.14901,0.93227l-0.71582,0.95741c-0.18309,0.24922 -0.4674,0.4093 -0.78664,0.4093c-0.55228,0 -1,-0.47906 -1,-1.07001v-0.99088c-0.39374,-2.15179 0.39472,-3.52254 0.60419,-5.52702c0.10873,-1.04045 -0.40173,-2.4175 -0.40419,-3.54021c0,0 0,-1.07001 1,-1.07001c1,0 1,1.07001 1,1.07001c-0.00092,0.36221 0.04321,0.73802 0.1028,1.11807c0.09389,-0.03124 0.19371,-0.04806 0.2972,-0.04806c0.22876,0 0.43959,0.08219 0.60808,0.22048l0.79192,0.63553l-0.06088,0.08685l0.14559,0.06765c-0.14216,-0.51931 -0.29481,-0.9708 -0.48471,-1.2245c0,0 -0.6,-0.85601 0.2,-1.49802c0.8,-0.64201 1.4,0.214 1.4,0.214c0.05514,0.0821 0.13539,0.20971 0.22968,0.36965c1.46665,-1.04513 4.30415,-0.66286 4.56781,1.26652c0.09962,0.72902 -0.62029,1.78549 -1.55599,2.63961c-0.14315,0.35372 -0.41912,0.5492 -0.76077,0.61429c-0.7003,0.49626 -1.42927,0.82823 -1.98383,0.81775c0.00491,0.8553 -0.36829,1.64997 -0.92878,2.37351z" fill="#ff0000" stroke="none" stroke-width="0.5" stroke-linecap="butt"/><path d="M204.98602,194.62718c-1,0 -1,-1.07002 -1,-1.07002v-1.07001c0.00326,-0.6466 -0.05894,-1.29681 -0.18058,-1.93018c0,0 -0.19611,-1.04923 0.78447,-1.25907c0.98058,-0.20984 1.1767,0.83938 1.1767,0.83938c0.14114,0.77257 0.21615,1.56271 0.21941,2.34988v1.07001c0,0 0,1.07002 -1,1.07002z" fill="#ff0000" stroke="none" stroke-width="0.5" stroke-linecap="butt"/><path d="M205.58602,195.91118c0,-0.59095 0.44771,-1.07001 1,-1.07001c0.55229,0 1,0.47906 1,1.07001c0,0.59095 -0.44771,1.07002 -1,1.07002c-0.55229,0 -1,-0.47907 -1,-1.07002z" fill="#ff0000" stroke="none" stroke-width="0.5" stroke-linecap="butt"/><path d="M208.18602,193.77116c-1,0 -1,-1.07001 -1,-1.07001v-1.07001c0,0 0,-1.07001 1,-1.07001c1,0 1,1.07001 1,1.07001v1.07001c0,0 0,1.07001 -1,1.07001z" fill="#ff0000" stroke="none" stroke-width="0.5" stroke-linecap="butt"/><path d="M205.58602,187.35108c0,-0.59095 0.44771,-1.07001 1,-1.07001c0.55229,0 1,0.47906 1,1.07001c0,0.59095 -0.44771,1.07002 -1,1.07002c-0.55229,0 -1,-0.47907 -1,-1.07002z" fill="#ff0000" stroke="none" stroke-width="0.5" stroke-linecap="butt"/><path d="M273.98602,195.69719c0,-0.59095 0.44772,-1.07001 1,-1.07001c0.55228,0 1,0.47906 1,1.07001c0,0.59095 -0.44772,1.07001 -1,1.07001c-0.55228,0 -1,-0.47907 -1,-1.07001z" fill="#ff0000" stroke="none" stroke-width="0.5" stroke-linecap="butt"/><path d="M277.18602,195.26919c-1,0 -1,-1.07001 -1,-1.07001v-0.428c0,-1.45404 -0.19402,-2.83625 -0.2,-4.28005c0,0 0,-1.07001 1,-1.07001c1,0 1,1.07001 1,1.07001c-0.00724,1.4335 0.2,2.83049 0.2,4.28005v0.428c0,0 0,1.07001 -1,1.07001z" fill="#ff0000" stroke="none" stroke-width="0.5" stroke-linecap="butt"/><path d="M272.98602,194.19916c-1,0 -1,-1.07001 -1,-1.07001l0.01942,-0.00417c-0.3488,-1.90926 -0.14688,-3.87096 0.2,-5.76975c0,0 0.19612,-1.04923 1.1767,-0.83938c0.98058,0.20985 0.78446,1.25907 0.78446,1.25907c-0.3072,1.59955 -0.50887,3.32214 -0.2,4.93037l0.01942,0.42386c0,0 0,1.07001 -1,1.07001z" fill="#ff0000" stroke="none" stroke-width="0.5" stroke-linecap="butt"/><path d="M238.50742,321.11396v-75.61422v-43.15717" fill="none" stroke="#000000" stroke-width="2" stroke-linecap="round"/><path d="M165.03221,321.5428l26.33333,-75.97089l32.66667,-42.795" fill="none" stroke="#000000" stroke-width="2" stroke-linecap="round"/><path d="M286.69887,227.38722h-92.33333" fill="none" stroke="#000000" stroke-width="2" stroke-linecap="round"/><path d="M273.03221,213.12039h-65.66667" fill="none" stroke="#000000" stroke-width="2" stroke-linecap="round"/><path d="M263.36554,204.56029h-48" fill="none" stroke="#000000" stroke-width="2" stroke-linecap="round"/><path d="M351.23099,114.81637c-0.03947,-0.02788 -0.07874,-0.05555 -0.11746,-0.08296c0.02253,0.08965 0.04407,0.17336 0.06615,0.24271c0.01662,0.05221 0.03341,0.10392 0.0503,0.15517c0.00067,-0.05715 0.00101,-0.11496 0.00101,-0.17347zM349.56502,116.04533c0.00162,0.4941 0.00499,0.94355 -0.00238,1.35968c0.0018,0.22065 0.00169,0.46368 0.00168,0.73652c0.18679,-0.26637 0.34155,-0.51653 0.33333,-0.68702c-0.01853,-0.38449 -0.16005,-0.87761 -0.33264,-1.40918zM347.40904,116.68517c0.0102,-0.52339 0.05781,-0.90972 0.15529,-1.01401v-1.00399c-0.29705,0.17311 -0.55565,0.39744 -0.74279,0.70012c-0.09678,0.15653 0.22954,0.74962 0.5875,1.31788zM345.3485,113.93797c1.46859,-1.8498 5.73398,-3.53217 7.25626,-2.23346c0.92004,0.78492 1.58568,3.60021 2.24999,4.72659c0.04511,1.45081 0.49859,4.18908 -0.58332,5.34673c-0.95648,1.02344 -5.37963,1.52211 -6.70711,1.38341c-0.57462,-0.06004 -1.28346,0.10631 -1.70711,-0.31339c-0.38451,-0.38093 -0.15747,-1.11006 -0.27998,-1.65522c-0.4814,-2.14217 -1.30488,-4.2423 -1.9616,-6.2531c0,0 -0.31623,-1.0151 0.63246,-1.35347c0.57714,-0.20585 0.92021,0.08922 1.1004,0.35192zM350.35042,120.62216c0.15202,-0.0044 0.31229,-0.00884 0.47545,-0.01443l-0.12378,-0.39733c-0.10972,0.14221 -0.22719,0.28134 -0.35167,0.41177zM351.0336,119.73987c-0.01232,0.01905 -0.02479,0.03816 -0.03742,0.05731l0.04475,-0.01596c-0.00251,-0.01381 -0.00495,-0.0276 -0.00733,-0.04136z" fill="#9966ff" stroke="none" stroke-width="0.5" stroke-linecap="butt"/><path d="M354.56432,116.3845c0,1.07001 -1,1.07001 -1,1.07001l-0.35044,-0.05491c-0.56694,0.20221 -1.13972,0.46088 -1.71687,0.74035c0.37448,1.00191 0.73788,2.01329 1.0544,3.06654l0.01291,1.24141c0,0 0,1.07001 -1,1.07001c-1,0 -1,-1.07001 -1,-1.07001l0.01291,-0.89862c-0.27949,-0.85577 -0.5829,-1.68672 -0.89261,-2.51053c-1.36418,0.66294 -2.74383,1.23708 -4.1203,1.26911c0,0 -1,0 -1,-1.07001c0,-1.07001 1,-1.07001 1,-1.07001c1.03405,0.03843 2.21722,-0.43946 3.40144,-1.02811c-0.35779,-0.95337 -0.70584,-1.91541 -1.01679,-2.91357c0,0 -0.31623,-1.0151 0.63246,-1.35347c0.94868,-0.33837 1.26491,0.67674 1.26491,0.67674c0.2825,0.90682 0.59722,1.78402 0.92095,2.65263c0.6362,-0.33056 1.24935,-0.63122 1.81414,-0.83267l0.98289,-0.05492c0,0 1,0.00001 1,1.07001z" fill="#000000" stroke="none" stroke-width="0.5" stroke-linecap="butt"/><path d="M341.79208,109.01627c-0.44721,0.95705 -1.34164,0.47852 -1.34164,0.47852l-0.77048,-0.4214c-0.19997,0.72459 -0.36047,1.54061 -0.46133,2.38397c0.18918,-0.06625 0.34569,-0.06625 0.34569,-0.06625c1.94822,0 3.78744,0.74426 5.66667,0.71335h1c0,0 1,0.00001 1,1.07001c0,1.07001 -1,1.07001 -1,1.07001h-1c-1.92208,-0.02289 -3.7013,-0.71334 -5.66667,-0.71334c0,0 -0.22618,0 -0.46341,-0.1151c0.00067,0.23327 0.00703,0.46488 0.01949,0.69351c2.09313,1.00332 3.81884,2.43766 5.58244,3.82826c0.49429,0.38974 3.77146,-0.12662 4.52814,-0.12662h0.66667c0,0 1,0.00001 1,1.07002c0,1.07001 -1,1.07001 -1,1.07001h-0.66667c-1.34985,0 -4.29235,0.56079 -5.47186,-0.12662c-0.4335,-0.25264 -0.55455,-0.88151 -0.90192,-1.2568c-0.68425,-0.73927 -2.02465,-1.46734 -3.31675,-2.04488c0.00556,0.03116 0.01097,0.06744 0.01517,0.10765c0.88423,0.62461 1.38054,4.3521 1.66245,5.28928l0.01291,1.24141c0,0 0,1.07001 -1,1.07001c-1,0 -1,-1.07001 -1,-1.07001l0.01291,-0.89862c-0.04717,-0.14506 -0.25206,-0.81127 -0.44822,-1.56347c-0.09666,0.89517 -0.23136,1.76695 -0.23136,2.10542c0,0 0,1.07001 -1,1.07001c-1,0 -1,-1.07001 -1,-1.07001c0,-1.41621 -0.17504,-4.87427 0.95287,-6.07679c-0.09227,-0.35492 -0.16686,-0.72143 -0.22511,-1.0963c-0.01479,-0.00513 -0.02945,-0.01022 -0.04399,-0.01524c0,0 -0.94868,-0.33837 -0.63246,-1.35347c0.11386,-0.3655 0.30972,-0.55553 0.51377,-0.64907c-0.02714,-1.99165 0.30346,-4.05362 0.81957,-5.77101l-0.05132,-0.01831c0,0 0,-0.02468 0.0035,-0.06654c-0.32214,-0.26825 -0.56924,-0.51059 -0.61604,-0.65621c-0.66424,-2.06696 2.37446,-5.0941 4.23566,-4.22473c0.47604,0.22236 0.83151,0.55842 1.07613,0.94296c0.14277,0.13358 0.25964,0.33192 0.2919,0.62642c0.20234,0.63684 0.15811,1.30802 -0.09818,1.78162c0.30233,0.53697 -0.06091,1.12 -0.06091,1.12l-0.65806,1.0562c-0.04536,0.07515 -0.09928,0.14383 -0.16028,0.20446c-0.01344,0.12457 -0.05049,0.26046 -0.11928,0.40769z" fill="#757575" stroke="none" stroke-width="0.5" stroke-linecap="butt"/><path d="M338.56432,104.97104c0,-0.59095 0.44772,-1.07001 1,-1.07001c0.55228,0 1,0.47906 1,1.07001c0,0.59095 -0.44772,1.07001 -1,1.07001c-0.55228,0 -1,-0.47907 -1,-1.07001z" fill="#000000" stroke="none" stroke-width="0.5" stroke-linecap="butt"/><path d="M340.89766,106.04105c0,-0.59095 0.44772,-1.07001 1,-1.07001c0.55228,0 1,0.47907 1,1.07001c0,0.59095 -0.44772,1.07001 -1,1.07001c-0.55228,0 -1,-0.47906 -1,-1.07001z" fill="#000000" stroke="none" stroke-width="0.5" stroke-linecap="butt"/><path d="M341.84634,108.51945c-0.31623,1.0151 -1.26491,0.67674 -1.26491,0.67674c-0.33333,-0.11889 -1.66667,-0.59446 -2,-0.71335c0,0 -0.94868,-0.33837 -0.63246,-1.35347c0.31623,-1.0151 1.26491,-0.67674 1.26491,-0.67674c0.33333,0.11889 0.66667,0.23778 1,0.35667l1,0.35667c0,0 0.94868,0.33837 0.63246,1.35347z" fill="#000000" stroke="none" stroke-width="0.5" stroke-linecap="butt"/><path d="M314.74199,146.95145c0,-1.07001 1,-1.07001 1,-1.07001l-0.22137,0.1797c1.33333,-0.95112 2.66667,-1.90224 4,-2.85337c0,0 0.07638,-0.05449 0.19827,-0.10568c-0.00729,-0.37273 0.03918,-0.71923 0.1008,-1.05997c-0.23508,0.00665 -0.47103,-0.03368 -0.70083,-0.12999c-2.79325,-1.17064 -1.66577,-3.02301 0.0968,-3.69359c-0.1586,-0.27853 -0.32345,-0.78785 0.15255,-1.29717c0.70711,-0.75662 1.41421,0 1.41421,0l0.18093,0.22298c0.46372,0.41879 1.19385,0.64237 1.39117,1.25638c0.21128,0.65745 0.06358,1.40434 -0.29372,2.04988c-0.06642,0.73147 -0.33697,1.50581 -0.36479,2.22614c3.0847,0.10142 6.42287,1.60857 8.21135,4.39448l0.16795,0.9502c0,0 0,1.07002 -1,1.07002c-1,0 -1,-1.07002 -1,-1.07002l0.16795,0.23687c-1.24144,-2.07839 -3.86073,-3.23329 -6.14667,-3.42003c0.38151,1.48194 0.75871,2.74354 0.48044,4.37689c0.81527,0.39928 1.20726,1.9741 1.44697,2.74795c0.6332,2.04413 0.71798,4.6047 0.71798,6.75844l0.22776,0.23481c0,0 0.44721,0.95705 -0.44721,1.43558c-0.89443,0.47852 -1.34164,-0.47852 -1.34164,-0.47852l-0.43891,-1.19187c0,-1.6911 -0.0613,-3.52325 -0.32042,-5.17866c-0.05659,-0.36153 -0.18303,-0.70375 -0.31114,-1.04596c-0.04353,1.99713 -1.0351,5.08318 -1.0351,6.58129c0,0 0,1.07001 -1,1.07001c-1,0 -1,-1.07001 -1,-1.07001c0,-2.63768 0.51362,-5.11758 1.01291,-7.66148c0.09833,-0.50101 -0.17684,-1.17833 0.17585,-1.52427c0.04721,-0.04631 0.09665,-0.0915 0.14804,-0.13531c0.01054,-0.17097 0.04785,-0.29075 0.04785,-0.29075c0.53706,-1.64443 0.11226,-2.81165 -0.29059,-4.14946c-1.17979,0.84159 -2.35957,1.68318 -3.53936,2.52477l-0.88803,0.17971c0,0 -1,0 -1,-1.07001z" fill="#00fff3" stroke="none" stroke-width="0.5" stroke-linecap="butt"/><path d="M348.96975,155.99007c-0.44721,0.95705 -1.34164,0.47852 -1.34164,0.47852l-0.21945,-0.24371c-1.22745,0 -2.13616,-0.00555 -3.31623,-0.41158c0,0 -0.12716,-0.04536 -0.27285,-0.15267c-0.13119,0.51226 -0.27834,1.02159 -0.43518,1.52877c0.48275,0.57076 0.92483,1.4258 1.30627,2.62048l0.33333,1.07002c0,0 0.31623,1.0151 -0.63246,1.35347c-0.94868,0.33837 -1.26491,-0.67674 -1.26491,-0.67674l-0.33333,-1.07002c-1.1518,-3.81918 -2.28568,-2.06725 -3.88593,0.61185c0,0 -0.5547,0.89031 -1.38675,0.29677c-0.83205,-0.59354 -0.27735,-1.48384 -0.27735,-1.48384c1.32136,-2.05828 2.88043,-3.60433 4.32018,-3.64697c0.07735,-0.2535 0.15315,-0.50913 0.22566,-0.76648c-0.98405,0.2589 -1.90515,0.37027 -3.04712,0.37027h-1c0,0 -1,0 -1,-1.07001c0,-1.07001 1,-1.07002 1,-1.07002h1c1.38229,0 2.27767,-0.16574 3.56769,-0.6174c0.06911,-0.50672 0.10626,-1.01522 0.09897,-1.52262v-0.35666c0,0 0,-1.07001 1,-1.07001c1,0 1,1.07001 1,1.07001v0.35666c-0.00755,0.72556 -0.07502,1.44191 -0.18655,2.15101c0.27192,-0.03841 0.50278,0.04392 0.50278,0.04392c0.95925,0.35869 1.66978,0.30177 2.68377,0.30177l1.11388,0.46964c0,0 0.89443,0.47852 0.44721,1.43557z" fill="#cebc97" stroke="none" stroke-width="0.5" stroke-linecap="butt"/><path d="M112.16271,196.37642l0.3674,0.39579c-0.06292,0.56522 0.14175,1.24964 -0.18876,1.69566c-0.15785,0.21303 -0.44828,0.40001 -0.81124,0.54518v0.61253c0,1.08365 0.04625,2.15085 0.10429,3.21132c1.69944,0.0298 3.45144,0.48829 5.05589,1.08254l0.83982,-0.01381c0,0 1,0 1,1.07001c0,1.07001 -1,1.07001 -1,1.07001l-1.16018,-0.01382c-1.46329,-0.50539 -3.06561,-1.02039 -4.61252,-1.05468c0.0492,0.89139 0.09024,1.78266 0.10238,2.67963c0.68823,1.29196 1.00101,3.20013 1.28567,4.11391l0.33333,1.07001c0,0 0.31623,1.0151 -0.63246,1.35347c-0.94868,0.33837 -1.26491,-0.67674 -1.26491,-0.67674l-0.33333,-1.07002c-0.05472,-0.17567 -0.35034,-1.21813 -0.60079,-2.19727c-0.0961,1.20051 -0.40876,2.60087 -0.50184,2.91062c0,0 -0.31623,1.0151 -1.26491,0.67674c-0.94868,-0.33837 -0.63246,-1.35346 -0.63246,-1.35346c0.43407,-1.32908 -0.31778,-5.33141 1.16814,-5.96874c0.14211,-0.06096 0.27828,-0.10471 0.40881,-0.13268c-0.02364,-0.60352 -0.05598,-1.20646 -0.09061,-1.81015c-0.74161,0.22907 -1.48591,0.44198 -2.22142,0.70495l-0.27579,0.45485c0,0 -0.70711,0.75662 -1.41421,0c-0.70711,-0.75662 0,-1.51323 0,-1.51323l1.05755,-0.97182c0.90429,-0.32181 1.82133,-0.5691 2.72984,-0.86469c-0.04628,-0.91213 -0.08028,-1.82961 -0.08028,-2.75693v-0.2985c-0.9154,-0.04909 -1.74052,-0.38188 -1.94587,-1.1376c-0.61403,-2.25974 2.34185,-3.15539 3.61254,-3.20062c0,0 1,0 1,1.07001c0,0.11848 -0.01226,0.22385 -0.03407,0.31754z" fill="#cc0000" stroke="none" stroke-width="0.5" stroke-linecap="butt"/><path d="M105.93691,209.13379c-1,0 -1,-1.07001 -1,-1.07001v-0.35667c0.00875,-0.60885 -0.09428,-1.22684 -0.28202,-1.80166c0,0 -0.31623,-1.0151 0.63246,-1.35347c0.94868,-0.33837 1.26491,0.67674 1.26491,0.67674c0.23959,0.79725 0.37594,1.641 0.38465,2.47839v0.35667c0,0 0,1.07001 -1,1.07001z" fill="#272727" stroke="none" stroke-width="0.5" stroke-linecap="butt"/><path d="M107.89727,197.00697c0,-0.59095 0.44772,-1.07001 1,-1.07001c0.55228,0 1,0.47906 1,1.07001c0,0.59095 -0.44772,1.07002 -1,1.07002c-0.55228,0 -1,-0.47907 -1,-1.07002z" fill="#000000" stroke="none" stroke-width="0.5" stroke-linecap="butt"/><path d="M110.56394,197.00697c0,-0.59095 0.44772,-1.07001 1,-1.07001c0.55228,0 1,0.47906 1,1.07001c0,0.59095 -0.44772,1.07002 -1,1.07002c-0.55228,0 -1,-0.47907 -1,-1.07002z" fill="#000000" stroke="none" stroke-width="0.5" stroke-linecap="butt"/><path d="M317.44644,139.59738c0,-0.59095 0.44772,-1.07001 1,-1.07001c0.55228,0 1,0.47907 1,1.07001c0,0.59095 -0.44772,1.07001 -1,1.07001c-0.55228,0 -1,-0.47907 -1,-1.07001z" fill="#000000" stroke="none" stroke-width="0.5" stroke-linecap="butt"/><path d="M320.11311,138.17069c0,-0.59095 0.44772,-1.07001 1,-1.07001c0.55228,0 1,0.47906 1,1.07001c0,0.59095 -0.44772,1.07002 -1,1.07002c-0.55228,0 -1,-0.47907 -1,-1.07002z" fill="#000000" stroke="none" stroke-width="0.5" stroke-linecap="butt"/><path d="M132.20258,79.71883c0.94868,-0.33837 1.26491,0.67674 1.26491,0.67674c0.11797,0.39257 0.37423,1.65127 0.45996,2.87568c0.82129,0.96026 1.72244,2.15029 2.09862,3.18672c0.0955,-0.01728 0.1594,-0.01728 0.1594,-0.01728c2.38847,0.02844 4.063,1.41884 5.70711,3.16676l0.66667,0.71335c0,0 0.70711,0.75662 0,1.51322c-0.70711,0.75661 -1.41421,0 -1.41421,0l-0.66667,-0.71335c-1.18291,-1.27513 -2.44804,-2.51232 -4.17282,-2.54c0.04044,1.5692 -0.0885,3.46968 -0.11529,4.88618c1.90522,0.78808 2.32174,5.23705 2.32856,6.88399v0.71334c0,0 0,1.07001 -1,1.07001c-1,0 -1,-1.07001 -1,-1.07001v-0.71334c0.00448,-0.88825 -0.16141,-1.77038 -0.31391,-2.64352c-0.88647,-5.07528 -2.60154,2.35112 -3.45833,4.19205c0,0 -0.44721,0.95705 -1.34164,0.47852c-0.89443,-0.47852 -0.44721,-1.43557 -0.44721,-1.43557c0.91334,-1.94594 1.67916,-3.79429 2.66278,-5.69832c0.22829,-0.44191 0.211,-1.10498 0.56516,-1.4086c0.00463,-1.24014 0.09672,-2.81117 0.10804,-4.24293c-1.32137,0.50527 -2.65824,0.91206 -4.00221,1.37612l-0.88465,0.64243c0,0 -0.83205,0.59354 -1.38675,-0.29676c-0.5547,-0.8903 0.27735,-1.48384 0.27735,-1.48384l1.11535,-0.78424c1.60094,-0.58523 3.21373,-1.04685 4.78816,-1.69773c-0.00216,-0.01757 -0.00437,-0.03504 -0.00662,-0.05241c-0.0476,-0.36708 -0.3489,-0.87611 -0.74128,-1.40543c-0.04013,0.02783 -0.08309,0.05024 -0.12904,0.06678c-1.05647,0.38035 -1.65362,0.01246 -2.03971,-0.58502c-0.37015,0.02723 -0.84518,-0.15717 -1.47259,-0.67178c-1.2805,-1.05029 0.34625,-3.69913 0.87506,-4.56019c0,0 0.52834,-0.84799 1.32721,-0.33705c0.05651,-0.03135 0.11917,-0.05975 0.18862,-0.08452z" fill="#008a1f" stroke="none" stroke-width="0.5" stroke-linecap="butt"/><path d="M120.51881,136.01791c0,1.07001 -1,1.07001 -1,1.07001h-0.33333c-1.56512,-0.02575 -2.65024,0.18058 -4.00942,-0.05997c0.00222,0.08766 0.00404,0.176 0.00546,0.26508c0.27341,0.24577 0.55758,0.57935 0.85461,1.0157c0.25201,0.37022 0.28758,0.8628 0.43137,1.29418l0.42509,0.2951c0,0 0.70711,0.75661 0,1.51322c-0.70711,0.75662 -1.41421,0 -1.41421,0l-0.90824,-1.13159c-0.90549,-3.25499 -2.53592,1.16498 -4.16328,2.33529c0,0 -0.83205,0.59354 -1.38675,-0.29676c-0.5547,-0.89031 0.27735,-1.48384 0.27735,-1.48384c1.38803,-0.9807 2.54581,-3.23271 3.87268,-3.91115c-0.00733,-0.20125 -0.0173,-0.39772 -0.02997,-0.59046c-1.08442,0.54359 -2.13811,0.99728 -3.30511,1.41361l0.05755,0.09819c0,0 -0.70711,0.75662 -1.41421,0c-0.70711,-0.75662 0,-1.51322 0,-1.51322l0.72421,-0.61516c1.29548,-0.46194 2.42841,-0.96494 3.64884,-1.60824c-0.07487,-0.38276 -0.16279,-0.7681 -0.2642,-1.16626c-0.21666,0.13164 -0.42259,0.21303 -0.60234,0.21343c-2.13748,0.00466 -2.76974,-1.4345 -1.50651,-3.24384c0.3614,-0.51763 1.07625,-0.64103 1.74364,-0.66692c0.04806,-0.13145 0.12942,-0.26727 0.25636,-0.4031c0.70711,-0.75662 1.41421,0 1.41421,0l0.66667,2.22657c-0.08473,0.09008 -0.19351,0.21135 -0.31959,0.35036c0.38077,1.19949 0.62665,2.27924 0.772,3.39333c1.56954,0.45424 2.40766,0.15745 4.17381,0.13641h0.33333c0,0 1,0 1,1.07001z" fill="#d2c900" stroke="none" stroke-width="0.5" stroke-linecap="butt"/><path d="M109.51881,131.38119c0,-0.59095 0.44772,-1.07001 1,-1.07001c0.55228,0 1,0.47906 1,1.07001c0,0.59095 -0.44772,1.07001 -1,1.07001c-0.55228,0 -1,-0.47907 -1,-1.07001z" fill="#000000" stroke="none" stroke-width="0.5" stroke-linecap="butt"/><path d="M112.51881,129.59784c0,-0.59095 0.44772,-1.07002 1,-1.07002c0.55228,0 1,0.47907 1,1.07002c0,0.59095 -0.44772,1.07001 -1,1.07001c-0.55228,0 -1,-0.47906 -1,-1.07001z" fill="#000000" stroke="none" stroke-width="0.5" stroke-linecap="butt"/><path d="M129.18547,83.23063c0,-0.59095 0.44772,-1.07001 1,-1.07001c0.55228,0 1,0.47907 1,1.07001c0,0.59095 -0.44772,1.07001 -1,1.07001c-0.55228,0 -1,-0.47906 -1,-1.07001z" fill="#000000" stroke="none" stroke-width="0.5" stroke-linecap="butt"/><path d="M131.85214,81.44727c0,-0.59095 0.44772,-1.07001 1,-1.07001c0.55228,0 1,0.47906 1,1.07001c0,0.59095 -0.44772,1.07001 -1,1.07001c-0.55228,0 -1,-0.47907 -1,-1.07001z" fill="#000000" stroke="none" stroke-width="0.5" stroke-linecap="butt"/><path d="M173.27279,272.40439l-0.5,-27.28532l135,-1.07001l-2,27.28531z" fill="url(#color-5)" stroke="none" stroke-width="0" stroke-linecap="butt"/><path d="M1.11136,300.82559v-65.06264l53.62636,-27.66603l6.15442,52.71418z" data-paper-data="{&quot;index&quot;:null}" fill="#000000" stroke="#000000" stroke-width="2" stroke-linecap="butt"/><g><path d="M421.38577,260.17046l6.5,-53.50062l53,27.28532l2.5,69.01581z" fill="#8c8c8c" stroke="none" stroke-width="0" stroke-linecap="butt"/><path d="M421.98298,260.62099h58.5" fill="none" stroke="#000000" stroke-width="2" stroke-linecap="round"/><path d="M481.98298,277.82567l-26,-16.58519v-39.59046" fill="none" stroke="#000000" stroke-width="2" stroke-linecap="round"/></g><path d="M422.4447,260.50779l6.09956,-52.24421l53.14825,27.41937v64.48258z" fill="#000000" stroke="#000000" stroke-width="2" stroke-linecap="butt"/><path d="M374.14135,246.83255v-187.78719h31.5l-5,204.37239z" fill="url(#color-6)" stroke="none" stroke-width="0" stroke-linecap="butt"/><path d="M338.29334,247.10955v-188.32219h35v188.3222z" fill="url(#color-7)" stroke="none" stroke-width="0" stroke-linecap="butt"/><path d="M95.88577,246.03954v-203.30237h44.5v203.30237z" fill="url(#color-8)" stroke="none" stroke-width="0" stroke-linecap="butt"/><path d="M66.38577,267.97479l-6.5,-215.07251h37.5v194.20727z" fill="url(#color-9)" stroke="none" stroke-width="0" stroke-linecap="butt"/><path d="M-64.5,175.76158v-144.45168h629v144.45169z" fill="url(#color-10)" stroke="none" stroke-width="0" stroke-linecap="butt"/><path d="M217.02911,180.98198l-0.84982,-2.47557h9.1633c0,0 0.24608,0.8616 0.13336,1.27934c-0.05852,0.21687 -0.76149,1.04843 -0.76149,1.04843z" fill="#000000" stroke="none" stroke-width="0" stroke-linecap="butt"/><path d="M223.32697,178.90126c0,0.36854 -0.05727,1.82762 -0.67122,2.5963c-0.44796,0.56086 -1.43731,0.53427 -1.70694,0.53427c-0.26323,0 -1.20337,0.02095 -1.73572,-0.57553c-0.62514,-0.70044 -0.83054,-2.0588 -0.83054,-2.43412c0,-1.18727 1.18606,-1.28985 2.56626,-1.28985c1.38021,0 2.37816,-0.01835 2.37816,1.16893z" fill="#980002" stroke="none" stroke-width="0" stroke-linecap="butt"/><path d="M221.80723,179.8876c-0.00974,0.2526 0.05855,0.44053 -0.36659,0.48152c-0.07404,0.00714 -0.40734,0.02647 -0.48653,0.02342c-0.19412,-0.00749 -0.61583,-0.04213 -0.76516,-0.10269c-0.26138,-0.10599 -0.15039,-0.21418 -0.14311,-0.40294c0.01144,-0.2966 0.37653,-0.26784 0.91041,-0.24726c0.53388,0.02059 0.86241,-0.04865 0.85098,0.24795z" fill="#300001" stroke="none" stroke-width="0" stroke-linecap="butt"/><g data-paper-data="{&quot;index&quot;:null}" fill="#663f3f" stroke="#000000" stroke-width="0" stroke-linecap="butt"><path d="M215.31598,193.54298l0.12253,-0.32479l0.69598,0.26256l-0.12253,0.32479z"/><path d="M214.88922,193.6205l0.12253,-0.32479l0.69598,0.26256l-0.12253,0.32479z"/><path d="M215.8502,193.4265l0.12253,-0.32479l0.69599,0.26256l-0.12253,0.32479z"/><path d="M215.67077,193.90209l0.12253,-0.32479l0.69599,0.26256l-0.12253,0.32479z"/><path d="M215.073,193.1333l0.12253,-0.32479l0.69599,0.26256l-0.12253,0.32479z"/><path d="M215.26395,194.17263l0.50762,-1.34557l0.37119,0.14003l-0.50761,1.34557z"/></g><g data-paper-data="{&quot;index&quot;:null}" fill="#663f3f" stroke="#000000" stroke-width="0" stroke-linecap="butt"><path d="M223.37691,194.82073l0.0146,-0.34683l0.74321,0.03129l-0.0146,0.34683z"/><path d="M222.99593,195.02805l0.0146,-0.34683l0.7432,0.03129l-0.0146,0.34683z"/><path d="M223.84774,194.54274l0.0146,-0.34683l0.74321,0.03129l-0.0146,0.34683z"/><path d="M223.82636,195.0506l0.0146,-0.34683l0.74321,0.03129l-0.0146,0.34683z"/><path d="M223.01782,194.5078l0.0146,-0.34683l0.74321,0.03129l-0.0146,0.34683z"/><path d="M223.52478,195.43498l0.06049,-1.43687l0.39638,0.01669l-0.06049,1.43686z"/></g><g data-paper-data="{&quot;index&quot;:null}" fill="#663f3f" stroke="#000000" stroke-width="0" stroke-linecap="butt"><path d="M223.37691,205.70733l0.0146,-0.34683l0.74321,0.03129l-0.0146,0.34683z"/><path d="M222.99593,205.91465l0.0146,-0.34683l0.7432,0.03129l-0.0146,0.34683z"/><path d="M223.84774,205.42933l0.0146,-0.34683l0.74321,0.03129l-0.0146,0.34683z"/><path d="M223.82636,205.9372l0.0146,-0.34683l0.74321,0.03129l-0.0146,0.34683z"/><path d="M223.01782,205.3944l0.0146,-0.34683l0.74321,0.03129l-0.0146,0.34683z"/><path d="M223.52478,206.32158l0.06049,-1.43687l0.39638,0.01668l-0.06049,1.43687z"/></g><g data-paper-data="{&quot;index&quot;:null}" fill="#663f3f" stroke="#000000" stroke-width="0" stroke-linecap="butt"><path d="M217.2929,205.99398l-0.00259,-0.34713l0.74384,-0.00555l0.00259,0.34713z"/><path d="M216.92265,206.21991l-0.00259,-0.34713l0.74384,-0.00555l0.00259,0.34713z"/><path d="M217.74939,205.69302l-0.00259,-0.34713l0.74384,-0.00555l0.00259,0.34713z"/><path d="M217.75318,206.20132l-0.00259,-0.34713l0.74384,-0.00555l0.00259,0.34713z"/><path d="M216.91876,205.69921l-0.00259,-0.34713l0.74384,-0.00555l0.00259,0.34713z"/><path d="M217.47099,206.60016l-0.01072,-1.4381l0.39672,-0.00296l0.01073,1.4381z"/></g><g data-paper-data="{&quot;index&quot;:null}" fill="#663f3f" stroke="#000000" stroke-width="0" stroke-linecap="butt"><path d="M218.15198,196.24612l0.19257,-0.45755l0.98047,0.41265l-0.19257,0.45755z"/><path d="M217.53795,196.33394l0.19257,-0.45755l0.98047,0.41265l-0.19257,0.45755z"/><path d="M218.92167,196.10839l0.19257,-0.45755l0.98047,0.41265l-0.19257,0.45755z"/><path d="M218.63969,196.77839l0.19257,-0.45755l0.98047,0.41265l-0.19257,0.45755z"/><path d="M217.8268,195.64761l0.19257,-0.45755l0.98048,0.41265l-0.19257,0.45755z"/><path d="M218.04376,197.14312l0.79779,-1.89558l0.52292,0.22008l-0.79778,1.89558z"/></g><g data-paper-data="{&quot;index&quot;:null}" fill="#663f3f" stroke="#000000" stroke-width="0" stroke-linecap="butt"><path d="M220.80581,196.777l-0.19257,-0.45755l0.98047,-0.41265l0.19257,0.45755z"/><path d="M221.41984,196.86482l-0.19257,-0.45755l0.98047,-0.41265l0.19257,0.45755z"/><path d="M220.03613,196.63928l-0.19257,-0.45755l0.98047,-0.41265l0.19257,0.45755z"/><path d="M220.3181,197.30927l-0.19257,-0.45755l0.98047,-0.41265l0.19257,0.45756z"/><path d="M221.13099,196.17849l-0.19257,-0.45755l0.98048,-0.41265l0.19257,0.45755z"/><path d="M221.37158,197.48144l-0.79778,-1.89558l0.52292,-0.22008l0.79779,1.89558z"/></g><g data-paper-data="{&quot;index&quot;:null}" fill="#663f3f" stroke="#000000" stroke-width="0" stroke-linecap="butt"><path d="M222.42112,186.88908l-0.30538,-0.39138l0.83868,-0.65439l0.30538,0.39138z"/><path d="M222.1981,187.46788l-0.30538,-0.39138l0.83868,-0.65439l0.30538,0.39138z"/><path d="M222.67654,186.15007l-0.30538,-0.39138l0.83868,-0.65439l0.30538,0.39138z"/><path d="M223.12371,186.72317l-0.30538,-0.39139l0.83868,-0.65439l0.30538,0.39138z"/><path d="M221.74002,186.88081l-0.30538,-0.39138l0.83868,-0.65439l0.30538,0.39139z"/><path d="M223.15123,187.42131l-1.26515,-1.62145l0.44729,-0.34901l1.26515,1.62144z"/></g><g data-paper-data="{&quot;index&quot;:null}" fill="#663f3f" stroke="#000000" stroke-width="0" stroke-linecap="butt"><path d="M216.43072,185.32394l0.31924,-0.38016l0.81463,0.68409l-0.31924,0.38016z"/><path d="M216.63281,185.91037l0.31924,-0.38016l0.81463,0.68409l-0.31924,0.38016z"/><path d="M216.202,184.57623l0.31924,-0.38016l0.81463,0.68409l-0.31924,0.38016z"/><path d="M215.73454,185.1329l0.31924,-0.38016l0.81463,0.68409l-0.31924,0.38016z"/><path d="M217.11167,185.34013l0.31924,-0.38016l0.81463,0.68409l-0.31924,0.38016z"/><path d="M216.06213,186.14884l1.32258,-1.57496l0.43447,0.36485l-1.32257,1.57496z"/></g><g data-paper-data="{&quot;index&quot;:null}" fill="#663f3f" stroke="#000000" stroke-width="0" stroke-linecap="butt"><path d="M225.44807,170.02183l0.09496,-0.30094l0.64487,0.20348l-0.09496,0.30094z"/><path d="M225.70947,170.31703l0.09496,-0.30094l0.64487,0.20348l-0.09496,0.30094z"/><path d="M225.1318,169.6384l0.09496,-0.30094l0.64487,0.20348l-0.09496,0.30094z"/><path d="M224.99275,170.07907l0.09496,-0.30094l0.64487,0.20348l-0.09496,0.30094z"/><path d="M225.8519,169.86562l0.09496,-0.30094l0.64487,0.20348l-0.09496,0.30094z"/><path d="M225.43237,170.59596l0.3934,-1.24675l0.34393,0.10852l-0.3934,1.24676z"/></g><g data-paper-data="{&quot;index&quot;:null}" fill="#663f3f" stroke="#000000" stroke-width="0" stroke-linecap="butt"><path d="M224.2855,173.81687l0.1682,-0.267l0.57215,0.36043l-0.1682,0.267z"/><path d="M224.46345,174.16873l0.1682,-0.267l0.57215,0.36043l-0.1682,0.267z"/><path d="M224.07685,173.36575l0.1682,-0.267l0.57215,0.36043l-0.1682,0.267z"/><path d="M223.83055,173.75672l0.1682,-0.267l0.57215,0.36043l-0.1682,0.267z"/><path d="M224.71575,173.76823l0.1682,-0.267l0.57215,0.36043l-0.1682,0.267z"/><path d="M224.12465,174.36823l0.69683,-1.10616l0.30515,0.19223l-0.69683,1.10616z"/></g><path d="M226.17565,172.2395c-0.23293,1.09941 -0.82687,1.90484 -1.3266,1.79896c-0.49973,-0.10588 -0.71602,-1.08296 -0.4831,-2.18237c0.23293,-1.09941 0.82687,-1.90484 1.3266,-1.79896c0.49973,0.10588 0.71602,1.08296 0.4831,2.18237z" fill="#a9a600" stroke="#000000" stroke-width="0" stroke-linecap="butt"/><g fill="#663f3f" stroke="#000000" stroke-width="0" stroke-linecap="butt"><path d="M216.89145,174.32509l-0.1682,-0.267l0.57215,-0.36043l0.1682,0.267z"/><path d="M216.7135,174.67695l-0.1682,-0.267l0.57215,-0.36043l0.1682,0.267z"/><path d="M217.1001,173.87397l-0.1682,-0.267l0.57215,-0.36043l0.1682,0.267z"/><path d="M217.34639,174.26494l-0.1682,-0.267l0.57215,-0.36043l0.1682,0.267z"/><path d="M216.4612,174.27645l-0.1682,-0.267l0.57215,-0.36043l0.1682,0.267z"/><path d="M217.3193,174.70825l-0.69683,-1.10616l0.30515,-0.19223l0.69683,1.10616z"/></g><g fill="#663f3f" stroke="#000000" stroke-width="0" stroke-linecap="butt"><path d="M219.20025,183.52604l0.06103,-0.71713l1.53671,0.13079l-0.06103,0.71713z"/><path d="M218.39265,183.92166l0.06103,-0.71713l1.53671,0.13079l-0.06103,0.71713z"/><path d="M220.2002,182.99201l0.06103,-0.71713l1.53671,0.13079l-0.06103,0.71713z"/><path d="M220.11083,184.0421l0.06103,-0.71713l1.53671,0.13079l-0.06103,0.71713z"/><path d="M218.4842,182.84596l0.06103,-0.71713l1.53671,0.13079l-0.06103,0.71713z"/><path d="M219.452,184.81154l0.25285,-2.97098l0.81958,0.06975l-0.25285,2.97098z"/></g><path d="M220.48882,179.65763c-1.86023,0 -4.43386,-0.78226 -4.43386,-1.40898c0,-1.16881 -0.13369,-2.26076 0.5619,-3.28981c0.90746,-1.3425 2.84591,-2.4742 4.46314,-2.4742c2.21523,0 4.34852,1.70705 4.96268,4.09479c0.1779,0.69162 -0.24555,2.18502 -0.24555,2.79001c0,0 -2.45143,0.2882 -5.30831,0.2882z" fill="#a9a600" stroke="#929292" stroke-width="0" stroke-linecap="butt"/><path d="M222.36084,187.65224c0.02251,3.76829 -0.3606,8.58704 -2.42245,8.66179c-2.10771,0.07642 -2.28439,-4.61539 -2.3069,-8.38368c-0.02251,-3.76829 0.75616,-4.46548 2.22539,-4.47426c1.46923,-0.00878 2.48146,0.42786 2.50397,4.19615z" fill="#a9a600" stroke="#929292" stroke-width="0" stroke-linecap="butt"/><path d="M217.18112,190.3205c0.01844,2.26194 -0.44041,3.14424 -1.17407,3.13487c-0.73366,-0.00938 -1.39272,-0.82314 -1.41117,-3.08507c-0.00976,-1.19708 0.22249,-3.1333 0.49499,-4.14973c0.2424,-0.90416 0.50401,-0.96081 0.84939,-0.95639c0.4119,0.00526 0.81973,-0.04644 1.03735,1.12487c0.16999,0.91496 0.19542,2.93945 0.20351,3.93146z" fill="#a9a600" stroke="#929292" stroke-width="0" stroke-linecap="butt"/><path d="M222.56654,187.62016c0.17168,-1.17892 0.58122,-1.14319 0.9926,-1.16455c0.34495,-0.01791 0.60856,0.02848 0.88611,0.92247c0.31201,1.005 0.61974,2.93067 0.65677,4.12721c0.06996,2.26093 -0.5568,3.09982 -1.28953,3.13786c-0.73273,0.03804 -1.22571,-0.82567 -1.29567,-3.08659c-0.03068,-0.99156 -0.08439,-3.0155 0.04972,-3.9364z" data-paper-data="{&quot;index&quot;:null}" fill="#a9a600" stroke="#929292" stroke-width="0" stroke-linecap="butt"/><path d="M219.29979,202.15763c-0.13248,2.59098 -0.71774,3.56999 -1.55708,3.50944c-0.83934,-0.06055 -1.53866,-1.037 -1.40618,-3.62798c0.07011,-1.37122 0.46749,-3.57226 0.8485,-4.71748c0.33893,-1.01872 0.64229,-1.06582 1.03742,-1.03731c0.47123,0.034 0.94168,0.0025 1.1113,1.35832c0.1325,1.0591 0.02414,3.3787 -0.03396,4.51501z" fill="#a9a600" stroke="#929292" stroke-width="0" stroke-linecap="butt"/><path d="M220.77652,197.8523c-0.07594,-1.36428 0.39254,-1.41754 0.85006,-1.53539c0.38364,-0.09881 0.69053,-0.10681 1.20643,0.83475c0.57995,1.05847 1.3651,3.15275 1.67965,4.48925c0.59436,2.52536 0.08122,3.61126 -0.7337,3.82116c-0.81492,0.20989 -1.56606,-0.64847 -2.16042,-3.17384c-0.26067,-1.10753 -0.7827,-3.37022 -0.84202,-4.43593z" data-paper-data="{&quot;index&quot;:null}" fill="#a9a600" stroke="#929292" stroke-width="0" stroke-linecap="butt"/><path d="M216.41814,171.65993c0.65085,0.91617 0.84088,1.89869 0.42444,2.19453c-0.41644,0.29584 -1.28165,-0.20703 -1.9325,-1.1232c-0.65085,-0.91617 -0.84088,-1.89869 -0.42444,-2.19453c0.41644,-0.29584 1.28165,0.20703 1.9325,1.1232z" fill="#a9a600" stroke="#000000" stroke-width="0" stroke-linecap="butt"/><path d="M216.25502,171.8093c0.46752,0.65811 0.60402,1.36389 0.30488,1.5764c-0.29914,0.21251 -0.92064,-0.14872 -1.38817,-0.80683c-0.46752,-0.65811 -0.60402,-1.36389 -0.30488,-1.5764c0.29914,-0.21251 0.92064,0.14872 1.38817,0.80683z" fill="#cbc700" stroke="#000000" stroke-width="0" stroke-linecap="butt"/><path d="M225.56972,170.51696c0.35919,0.07504 0.51653,0.77646 0.35144,1.56667c-0.16509,0.79021 -0.5901,1.36997 -0.94928,1.29493c-0.35919,-0.07504 -0.51653,-0.77647 -0.35144,-1.56668c0.16509,-0.79021 0.5901,-1.36997 0.94929,-1.29493z" data-paper-data="{&quot;index&quot;:null}" fill="#cbc700" stroke="#000000" stroke-width="0" stroke-linecap="butt"/><path d="M227.03314,167.87343c-0.01599,1.1237 -0.44302,2.02875 -0.95379,2.02149c-0.51077,-0.00727 -0.91188,-0.9241 -0.89589,-2.0478c0.01599,-1.1237 0.44302,-2.02875 0.95379,-2.02148c0.51077,0.00727 0.91188,0.9241 0.89589,2.0478z" fill="#a9a600" stroke="#000000" stroke-width="0" stroke-linecap="butt"/><path d="M226.05143,166.39709c0.36694,-0.00191 0.6678,0.65096 0.672,1.45821c0.0042,0.80726 -0.28985,1.46322 -0.65679,1.46513c-0.36694,0.00191 -0.6678,-0.65096 -0.672,-1.45822c-0.0042,-0.80726 0.28986,-1.46322 0.65679,-1.46513z" data-paper-data="{&quot;index&quot;:null}" fill="#cbc700" stroke="#000000" stroke-width="0" stroke-linecap="butt"/><path d="M219.38362,176.91216c0,0.46934 -0.35291,0.84982 -0.78824,0.84982c-0.43533,0 -0.78824,-0.38048 -0.78824,-0.84982c0,-0.46934 0.35291,-0.84982 0.78824,-0.84982c0.43533,0 0.78824,0.38048 0.78824,0.84982z" fill="#ffffff" stroke="#ffffff" stroke-width="0" stroke-linecap="butt"/><path d="M224.16233,177.30628c0,0.46934 -0.35291,0.84982 -0.78824,0.84982c-0.43533,0 -0.78824,-0.38048 -0.78824,-0.84982c0,-0.46934 0.35291,-0.84982 0.78824,-0.84982c0.43533,0 0.78824,0.38048 0.78824,0.84982z" fill="#ffffff" stroke="#ffffff" stroke-width="0" stroke-linecap="butt"/><path d="M219.06449,207.0529c0,0.55505 -0.44421,0.6503 -1.13802,0.6503c-0.69381,0 -1.19714,-0.09525 -1.19714,-0.6503c0,-0.55505 0.47377,-0.76854 1.16758,-0.76854c0.69381,0 1.16758,0.21348 1.16758,0.76854z" fill="#a9a600" stroke="#929292" stroke-width="0" stroke-linecap="butt"/><path d="M225.06498,206.55039c0,0.55505 -0.2373,0.41383 -0.93111,0.41383c-0.69381,0 -1.08502,0.13929 -1.07891,-0.47294c0.00733,-0.73438 0.29642,-0.53206 0.99023,-0.53206c0.69381,0 1.01979,0.03613 1.01979,0.59118z" fill="#a9a600" stroke="#929292" stroke-width="0" stroke-linecap="butt"/><path d="M221.36634,189.03398c0.01454,2.43431 -0.23295,5.54722 -1.5649,5.59551c-1.36158,0.04936 -1.47572,-2.98154 -1.49026,-5.41585c-0.01454,-2.43431 0.48848,-2.8847 1.4376,-2.89037c0.94912,-0.00567 1.60302,0.2764 1.61756,2.71071z" fill="#cbc700" stroke="#929292" stroke-width="0" stroke-linecap="butt"/><path d="M220.75269,184.13318c0.38847,-0.00989 0.67379,0.42902 0.56977,0.79994c-0.07021,0.35218 -0.07333,0.76118 -0.56702,0.66166c-0.22079,-0.07554 -0.44738,-0.13171 -0.58666,-0.27141c-0.05997,0.04203 -0.13301,0.06669 -0.2118,0.06669c-0.12867,0 -0.24198,-0.06577 -0.30814,-0.16553c-0.07509,0.02655 -0.14911,0.00344 -0.21971,0.04364c-0.20306,0.11561 -0.45524,0.2791 -0.70926,0.31756c-0.26829,-0.23466 -0.21596,-0.62069 -0.09443,-0.9234c0.05625,-0.34686 0.22772,-0.786 0.59055,-0.49574c0.15171,0.15663 0.39966,0.35382 0.52275,0.5558c0.06115,-0.04483 0.13661,-0.07131 0.21824,-0.07131c0.07363,0 0.14224,0.02154 0.19985,0.05866c0.20601,-0.18406 0.37268,-0.40837 0.59587,-0.57656z" fill="#cbc700" stroke="none" stroke-width="0" stroke-linecap="butt"/><path d="M218.83484,184.79395c0.02613,-0.02613 0.05225,0 0.05225,0l0.00035,0.00243c0.24677,0.13854 0.47752,0.06506 0.74466,0.10896c0,0 0.03645,0.00607 0.03037,0.04252c-0.00607,0.03645 -0.04252,0.03037 -0.04252,0.03037c-0.27749,-0.04697 -0.50853,0.0229 -0.76807,-0.11708l-0.01704,-0.01496c0,0 -0.02613,-0.02613 0,-0.05225z" fill="#063800" stroke="none" stroke-width="0" stroke-linecap="butt"/><path d="M221.00183,184.88094c0,0.03695 -0.03695,0.03695 -0.03695,0.03695l-0.03276,-0.00159c-0.15471,0.10977 -0.3106,0.03588 -0.46116,0.12673c0,0 -0.03168,0.01901 -0.05069,-0.01267c-0.01901,-0.03168 0.01267,-0.05069 0.01267,-0.05069c0.15868,-0.09474 0.31716,-0.0312 0.47777,-0.13409l0.05418,-0.00158c0,0 0.03695,0 0.03695,0.03695z" fill="#063800" stroke="none" stroke-width="0" stroke-linecap="butt"/><path d="M220.17519,184.5752c0.03623,-0.00725 0.04348,0.02898 0.04348,0.02898l0.00788,0.04019c0.00222,0.00583 0.00484,0.01152 0.00781,0.01705c0.00008,0 0.00016,0 0.00025,0c0.03695,0 0.03695,0.03695 0.03695,0.03695c0,0.00375 0.00001,0.00746 0.00004,0.01114c0.00538,0.00675 0.01775,0.02623 0.00093,0.04638c0.00358,0.10672 0.01602,0.18593 0.01878,0.26697c0.05909,-0.0176 0.12798,-0.01831 0.18818,-0.03035c0,0 0.03623,-0.00725 0.04348,0.02898c0.00725,0.03623 -0.02899,0.04348 -0.02899,0.04348c-0.05648,0.0113 -0.15167,0.00816 -0.20345,0.03477c-0.00385,0.06507 -0.01673,0.13654 -0.04695,0.22758l-0.01762,0.02314c0,0 -0.02613,0.02613 -0.05225,0c-0.02613,-0.02613 0,-0.05225 0,-0.05225l-0.00023,0.00575c0.02641,-0.07888 0.03939,-0.14057 0.04455,-0.19513c-0.00649,-0.00541 -0.01168,-0.01407 -0.01168,-0.02791c0,-0.01579 0.00675,-0.02483 0.01448,-0.03001c0.0003,-0.09444 -0.01936,-0.17712 -0.02269,-0.31327c-0.01742,-0.02192 -0.03182,-0.04648 -0.04242,-0.07219l-0.00951,-0.04675c0,0 -0.00725,-0.03623 0.02898,-0.04348z" fill="#063800" stroke="none" stroke-width="0" stroke-linecap="butt"/><path d="M219.65216,185.27221c-0.02613,0.02613 -0.05225,0 -0.05225,0l-0.02749,-0.03627c-0.04784,-0.24397 0.0237,-0.34741 0.1162,-0.53671c0,0 0.01652,-0.03305 0.04957,-0.01652c0.03305,0.01652 0.01652,0.04957 0.01652,0.04957c-0.09041,0.17751 -0.15802,0.25367 -0.10984,0.48917l0.00728,-0.00149c0,0 0.02613,0.02613 0,0.05225z" fill="#063800" stroke="none" stroke-width="0" stroke-linecap="butt"/><path d="M223.70565,194.96459c0.46253,-0.02485 0.79259,0.18612 0.84798,0.92543c0.04635,0.61862 -0.28328,0.64025 -0.74581,0.6651c-0.46253,0.02485 -0.9273,0.04524 -0.92915,-0.57511c-0.00193,-0.64711 0.36445,-0.99057 0.82698,-1.01542z" data-paper-data="{&quot;index&quot;:null}" fill="#a9a600" stroke="#000000" stroke-width="0" stroke-linecap="butt"/><path d="M224.78673,196.65002v-0.05912c0.00326,-0.43412 -0.12141,-0.66004 -0.43603,-0.9222c0,0 -0.14192,-0.11827 -0.02365,-0.26019c0.11827,-0.14192 0.26019,-0.02365 0.26019,-0.02365c0.40084,0.33406 0.56574,0.66973 0.56898,1.20605v0.05912c0,0 0,0.18474 -0.18474,0.18474c-0.18474,0 -0.18474,-0.18474 -0.18474,-0.18474z" data-paper-data="{&quot;index&quot;:null}" fill="#a9a600" stroke="none" stroke-width="0" stroke-linecap="butt"/><path d="M224.22073,197.50723l0.00948,-0.11893c-0.11046,-0.33546 -0.03504,-0.68309 -0.1478,-1.00501c0,0 -0.05842,-0.17526 0.11684,-0.23368c0.17526,-0.05842 0.23368,0.11684 0.23368,0.11684c0.10721,0.33385 0.03452,0.67009 0.1478,1.00501l0.00948,0.23577c0,0 0,0.18474 -0.18474,0.18474c-0.18474,0 -0.18474,-0.18474 -0.18474,-0.18474z" data-paper-data="{&quot;index&quot;:null}" fill="#a9a600" stroke="none" stroke-width="0" stroke-linecap="butt"/><path d="M223.48727,197.66933l0.02404,-0.07343c0,-0.38246 -0.00732,-0.76076 0.03048,-1.14163c0,0 0.01838,-0.18383 0.20221,-0.16544c0.18383,0.01838 0.16544,0.20221 0.16544,0.20221c-0.03713,0.36834 -0.02864,0.73487 -0.02864,1.10486l-0.03507,0.16304c0,0 -0.04481,0.17923 -0.22404,0.13442c-0.17923,-0.04481 -0.13442,-0.22404 -0.13442,-0.22404z" data-paper-data="{&quot;index&quot;:null}" fill="#a9a600" stroke="none" stroke-width="0" stroke-linecap="butt"/><path d="M222.77423,197.37374l0.05912,-0.23647c0.08877,-0.34586 0.06677,-0.57294 0.301,-0.8687c0,0 0.11541,-0.14426 0.25967,-0.02885c0.14426,0.11541 0.02885,0.25967 0.02885,0.25967c-0.1955,0.24136 -0.15819,0.42944 -0.23106,0.72749l-0.05912,0.23647c0,0 -0.04481,0.17923 -0.22404,0.13442c-0.17923,-0.04481 -0.13442,-0.22404 -0.13442,-0.22404z" data-paper-data="{&quot;index&quot;:null}" fill="#a9a600" stroke="none" stroke-width="0" stroke-linecap="butt"/><path d="M224.28737,195.82592c0,0.34086 -0.2713,0.61718 -0.60596,0.61718c-0.33466,0 -0.60596,-0.27632 -0.60596,-0.61718c0,-0.34086 0.2713,-0.61718 0.60596,-0.61718c0.33466,0 0.60596,0.27632 0.60596,0.61718z" fill="#cbc700" stroke="#000000" stroke-width="0" stroke-linecap="butt"/><path d="M218.38081,176.93747c0,-0.08162 0.06617,-0.1478 0.1478,-0.1478c0.08163,0 0.1478,0.06617 0.1478,0.1478c0,0.08162 -0.06617,0.1478 -0.1478,0.1478c-0.08163,0 -0.1478,-0.06617 -0.1478,-0.1478z" fill="#000000" stroke="none" stroke-width="0" stroke-linecap="butt"/><path d="M223.17609,177.44602c0,-0.1076 0.08722,-0.19482 0.19482,-0.19482c0.1076,0 0.19482,0.08722 0.19482,0.19482c0,0.1076 -0.08722,0.19482 -0.19482,0.19482c-0.1076,0 -0.19482,-0.08722 -0.19482,-0.19482z" fill="#000000" stroke="none" stroke-width="0" stroke-linecap="butt"/><path d="M224.51639,181.33574c-0.06229,0.57618 -2.20409,1.22302 -4.20043,1.0072c-1.99634,-0.21582 -3.712,-1.15346 -3.64971,-1.72964c0.01884,-0.17429 -0.84566,-1.97789 -0.56822,-2.094c0.29243,-0.12238 0.8471,1.25878 1.66123,1.55718c0.96694,0.35441 2.0263,0.83718 2.78227,0.91891c0.71177,0.07695 2.18346,-0.03857 3.31364,-0.36908c0.94987,-0.27778 1.5431,-1.47805 1.81776,-1.38119c0.31513,0.11113 -1.13512,1.89253 -1.15654,2.09063z" fill="#a9a600" stroke="#929292" stroke-width="0" stroke-linecap="butt"/><path d="M217.35149,179.9875l0.10022,-0.24643l0.35596,0.14476l-0.10022,0.24643z" fill="#ffffff" stroke="none" stroke-width="0" stroke-linecap="butt"/><path d="M217.96383,180.28456l0.08041,-0.25359l0.3663,0.11614l-0.08041,0.25359z" fill="#ffffff" stroke="none" stroke-width="0" stroke-linecap="butt"/><path d="M219.606,180.8429l0.08041,-0.25359l0.3663,0.11614l-0.08041,0.25359z" fill="#ffffff" stroke="none" stroke-width="0" stroke-linecap="butt"/><path d="M220.43988,181.00278l0.00405,-0.266l0.38422,0.00586l-0.00405,0.266z" fill="#ffffff" stroke="none" stroke-width="0" stroke-linecap="butt"/><path d="M218.70281,180.51446l0.08041,-0.25359l0.3663,0.11614l-0.08041,0.25359z" fill="#ffffff" stroke="none" stroke-width="0" stroke-linecap="butt"/><path d="M221.35949,181.05204l0.00405,-0.266l0.38422,0.00586l-0.00405,0.266z" fill="#ffffff" stroke="none" stroke-width="0" stroke-linecap="butt"/><path d="M222.27169,180.96871l-0.04201,-0.26269l0.37945,-0.06068l0.04201,0.26269z" fill="#ffffff" stroke="none" stroke-width="0" stroke-linecap="butt"/><path d="M223.00046,180.85805l-0.07608,-0.25492l0.36822,-0.1099l0.07608,0.25492z" fill="#ffffff" stroke="none" stroke-width="0" stroke-linecap="butt"/><path d="M223.72302,180.69384l-0.07608,-0.25492l0.36822,-0.1099l0.07608,0.25492z" fill="#ffffff" stroke="none" stroke-width="0" stroke-linecap="butt"/><path d="M220.32173,179.88121l0.0107,-0.26582l0.38396,0.01546l-0.0107,0.26582z" fill="#ffffff" stroke="none" stroke-width="0" stroke-linecap="butt"/><path d="M221.37272,179.89763l0.0107,-0.26582l0.38396,0.01546l-0.0107,0.26582z" fill="#ffffff" stroke="none" stroke-width="0" stroke-linecap="butt"/><path d="M222.49174,179.85775l0.0107,-0.26582l0.38396,0.01546l-0.0107,0.26582z" fill="#ffffff" stroke="none" stroke-width="0" stroke-linecap="butt"/><path d="M219.29813,179.79005l0.02271,-0.26506l0.38287,0.0328l-0.02271,0.26506z" fill="#ffffff" stroke="none" stroke-width="0" stroke-linecap="butt"/><path d="M218.12866,179.53111l0.07819,-0.25428l0.3673,0.11294l-0.07819,0.25428z" fill="#ffffff" stroke="none" stroke-width="0" stroke-linecap="butt"/><path d="M223.76568,179.84694l-0.04139,-0.26279l0.37959,-0.05979l0.04139,0.26279z" fill="#ffffff" stroke="none" stroke-width="0" stroke-linecap="butt"/><path d="M222.51817,178.88663c0,0.70495 -0.70023,0.51728 -1.48587,0.51728c-0.78564,0 -1.54921,0.01328 -1.54921,-0.51728c0,-0.31687 0.10344,-1.03052 0.49019,-1.3329c0.26082,-0.20392 0.72148,-0.11338 1.03791,-0.11338c0.29458,0 0.7883,-0.0495 1.02645,0.11053c0.39699,0.26677 0.48053,0.89513 0.48053,1.33575z" fill="#817f00" stroke="#000000" stroke-width="0" stroke-linecap="butt"/><path d="M221.39187,177.6555c0,0.18074 -0.1641,0.32726 -0.36653,0.32726c-0.20243,0 -0.36653,-0.14652 -0.36653,-0.32726c0,-0.18074 0.1641,-0.32726 0.36653,-0.32726c0.20243,0 0.36653,0.14652 0.36653,0.32726z" fill="#3d3c00" stroke="none" stroke-width="0" stroke-linecap="butt"/><path d="M222.33734,196.8504l0.08124,-0.1967c0.12082,-0.28739 0.1308,-0.48633 0.37086,-0.71188c0,0 0.11809,-0.10987 0.22796,0.00822c0.10987,0.11809 -0.00823,0.22796 -0.00823,0.22796c-0.19966,0.18351 -0.19145,0.35072 -0.29243,0.59885l-0.08125,0.1967c0,0 -0.06158,0.14908 -0.21066,0.0875c-0.14908,-0.06158 -0.0875,-0.21066 -0.0875,-0.21066z" data-paper-data="{&quot;index&quot;:null}" fill="#a9a600" stroke="none" stroke-width="0" stroke-linecap="butt"/><g stroke-width="0" stroke-linecap="butt"><path d="M216.21987,194.82625c-0.13911,0.60455 -0.58784,0.4818 -1.0334,0.3552c-0.44556,-0.1266 -0.76222,-0.22066 -0.58011,-0.81367c0.21765,-0.70872 0.58621,-0.8414 1.03177,-0.7148c0.44556,0.1266 0.72684,0.54264 0.58174,1.17327z" fill="#a9a600" stroke="#000000"/><path d="M214.47073,196.27843c-0.18237,-0.02955 -0.15282,-0.21191 -0.15282,-0.21191l0.04707,-0.23122c0.16538,-0.31249 0.1474,-0.65602 0.30663,-0.96843c0,0 0.0857,-0.16366 0.24936,-0.07796c0.16366,0.0857 0.07796,0.24936 0.07796,0.24936c-0.16279,0.29974 -0.14394,0.65495 -0.30663,0.96843l-0.00966,0.11892c0,0 -0.02955,0.18237 -0.21191,0.15282z" fill="#a9a600" stroke="none"/><path d="M215.12396,196.52568c-0.18409,0.01557 -0.19965,-0.16852 -0.19965,-0.16852l-0.00855,-0.16655c0.05917,-0.36523 0.12617,-0.72569 0.14843,-1.09522c0,0 0.01125,-0.1844 0.19566,-0.17315c0.1844,0.01125 0.17315,0.19566 0.17315,0.19566c-0.0236,0.38201 -0.09133,0.75427 -0.1525,1.13181l0.01199,0.07633c0,0 0.01557,0.18409 -0.16852,0.19965z" fill="#a9a600" stroke="none"/><path d="M215.85726,196.41854c-0.18409,0.01557 -0.19965,-0.16852 -0.19965,-0.16852l-0.02054,-0.24288c-0.02426,-0.30587 0.04264,-0.48556 -0.11174,-0.75508c0,0 -0.09085,-0.16086 0.07001,-0.25171c0.16086,-0.09085 0.25171,0.07001 0.25171,0.07001c0.18391,0.32941 0.12588,0.55005 0.15819,0.90565l0.02054,0.24288c0,0 0.01557,0.18409 -0.16852,0.19965z" fill="#a9a600" stroke="none"/><path d="M213.97617,195.44969c-0.18237,-0.02955 -0.15282,-0.21191 -0.15282,-0.21191l0.00945,-0.05836c0.08897,-0.5289 0.30544,-0.83388 0.75454,-1.09953c0,0 0.15901,-0.09405 0.25306,0.06496c0.09405,0.15901 -0.06496,0.25306 -0.06496,0.25306c-0.3525,0.20847 -0.5117,0.41154 -0.57791,0.84059l-0.00945,0.05836c0,0 -0.02955,0.18237 -0.21191,0.15282z" fill="#a9a600" stroke="none"/><path d="M216.03331,194.58132c-0.05452,0.33647 -0.36651,0.56585 -0.69687,0.51232c-0.33036,-0.05352 -0.55397,-0.36968 -0.49945,-0.70615c0.05452,-0.33647 0.36651,-0.56585 0.69687,-0.51232c0.33036,0.05352 0.55397,0.36968 0.49945,0.70615z" fill="#cbc700" stroke="#000000"/><path d="M216.57934,195.89697c0,0 0.03211,0.15807 -0.12596,0.19018c-0.15807,0.03211 -0.19018,-0.12596 -0.19018,-0.12596l-0.04237,-0.20856c-0.05196,-0.2628 -0.01211,-0.42539 -0.17324,-0.64352c0,0 -0.09505,-0.13032 0.03527,-0.22537c0.13032,-0.09505 0.22537,0.03527 0.22537,0.03527c0.19279,0.26708 0.16477,0.46429 0.22875,0.7694l0.04237,0.20856z" data-paper-data="{&quot;index&quot;:null}" fill="#a9a600" stroke="none"/></g><path d="M171.46221,244.84881v-136.11017h138.16596v136.11017z" fill="url(#color-11)" stroke="#000000" stroke-width="2" stroke-linecap="butt"/></g></g></svg>