<svg version="1.1" xmlns="http://www.w3.org/2000/svg" xmlns:xlink="http://www.w3.org/1999/xlink" width="978.5456" height="804.06008" viewBox="0,0,978.5456,804.06008"><g transform="translate(258.65943,222.53004)"><g data-paper-data="{&quot;isPaintingLayer&quot;:true}" fill-rule="nonzero" stroke-linejoin="miter" stroke-miterlimit="10" stroke-dasharray="" stroke-dashoffset="0" style="mix-blend-mode: normal"><path d="M674.54182,581.53004l-761.7984,-78.52433l-44.97027,-13.80948l-5.64118,-91.58006l95.19987,2.01972l274.19072,-189.54666l450.82869,127.52908z" fill="#5c5c5c" stroke="none" stroke-width="0" stroke-linecap="butt"/><path d="M-32.08852,400.38202l-224.47364,-0.93554c0,0 -2.17409,-439.04941 -2.09517,-475.99726c0.01184,-5.54057 0.02042,-9.55711 0.02042,-9.55711l499.10412,-3.06652l-2.64309,299.12056z" fill="#393939" stroke="none" stroke-width="0" stroke-linecap="butt"/><path d="M234.63198,212.25508l-0.28417,-306.60687l405.50221,1.00415l-5.70104,425.43072z" fill="#181818" stroke="none" stroke-width="0" stroke-linecap="butt"/><g fill="#191919" stroke-width="2" stroke-linecap="butt"><path d="M534.76352,88.43525v-41.21001l38.83252,10.3025v42.00252z" stroke="#060606"/><path d="M569.77629,63.9786c-0.28859,1.55851 -1.84709,1.26992 -1.84709,1.26992l-1.23672,-0.2345c-5.83807,-0.6444 -11.38742,0.82611 -17.33955,-0.53981c-4.20144,-0.96417 -6.37144,-4.22226 -10.51751,-5.31947c0,0 -1.53198,-0.40648 -1.12551,-1.93846c0.40648,-1.532 1.93848,-1.12552 1.93848,-1.12552c4.14095,1.10137 6.40975,4.38498 10.40988,5.29292c3.72658,0.84585 14.89324,0.28392 16.95229,0.47635l1.49581,0.27148c0,0 1.55851,0.28859 1.26992,1.84709z" stroke="none"/><path d="M535.71452,49.60273c0,-0.43768 0.35482,-0.7925 0.7925,-0.7925c0.43768,0 0.7925,0.35482 0.7925,0.7925c0,0.43768 -0.35482,0.7925 -0.7925,0.7925c-0.43768,0 -0.7925,-0.35482 -0.7925,-0.7925z" stroke="none"/><path d="M570.58452,59.64107c0,-0.43768 0.35482,-0.7925 0.7925,-0.7925c0.43768,0 0.7925,0.35482 0.7925,0.7925c0,0.43768 -0.35482,0.7925 -0.7925,0.7925c-0.43768,0 -0.7925,-0.35482 -0.7925,-0.7925z" stroke="none"/><path d="M569.45928,71.58661c-0.28859,1.55851 -1.84709,1.26991 -1.84709,1.26991l-1.23672,-0.2345c-5.83807,-0.64439 -11.38742,0.82611 -17.33955,-0.53981c-4.20144,-0.96418 -6.37144,-4.22226 -10.51751,-5.31947c0,0 -1.53198,-0.40648 -1.12551,-1.93847c0.40648,-1.532 1.93848,-1.12552 1.93848,-1.12552c4.14094,1.10137 6.40976,4.38498 10.40988,5.29292c3.72658,0.84585 14.89325,0.28392 16.9523,0.47635l1.49581,0.27149c0,0 1.5585,0.28859 1.26991,1.8471z" stroke="none"/><path d="M568.82528,78.87761c-0.28859,1.55851 -1.84709,1.26992 -1.84709,1.26992l-1.23672,-0.2345c-5.83807,-0.64439 -11.38742,0.82612 -17.33955,-0.5398c-4.20144,-0.96418 -6.37143,-4.22226 -10.5175,-5.31948c0,0 -1.53199,-0.40648 -1.12551,-1.93847c0.40648,-1.532 1.93848,-1.12552 1.93848,-1.12552c4.14094,1.10137 6.40976,4.38497 10.40988,5.29292c3.72658,0.84585 14.89325,0.28391 16.9523,0.47635l1.4958,0.27149c0,0 1.55851,0.28859 1.26992,1.84709z" stroke="none"/><path d="M568.19128,85.85162c-0.28859,1.55851 -1.84709,1.26992 -1.84709,1.26992l-1.23672,-0.2345c-5.83807,-0.64439 -11.38742,0.82612 -17.33955,-0.5398c-4.20144,-0.96418 -6.37143,-4.22226 -10.5175,-5.31948c0,0 -1.53199,-0.40648 -1.12551,-1.93847c0.40648,-1.53201 1.93848,-1.12552 1.93848,-1.12552c4.14094,1.10137 6.40976,4.38497 10.40988,5.29292c3.72658,0.84585 14.89324,0.28392 16.95229,0.47635l1.49581,0.27149c0,0 1.55851,0.28859 1.26992,1.8471z" stroke="none"/></g><path d="M-35.22138,-85.49558v486.15475" fill="none" stroke="#000000" stroke-width="2" stroke-linecap="round"/><path d="M233.04288,213.63513v-435.16517" fill="none" stroke="#000000" stroke-width="2" stroke-linecap="round"/><g stroke-width="2" stroke-linecap="butt"><path d="M507.21745,307.12137l12.0129,-39.42024l34.14278,21.17491l-12.24392,40.17833z" fill="#373737" stroke="#060606"/><path d="M547.83881,293.93327c-0.73037,1.4067 -2.13706,0.67633 -2.13706,0.67633l-1.11465,-0.58482c-5.39667,-2.31824 -11.13367,-2.52925 -16.42913,-5.57092c-3.73791,-2.14703 -4.86392,-5.89619 -8.51008,-8.15434c0,0 -1.34695,-0.83541 -0.51156,-2.18236c0.83541,-1.34697 2.18238,-0.51156 2.18238,-0.51156c3.64005,2.26064 4.85313,6.06301 8.41486,8.09757c3.31816,1.89543 14.16365,4.61304 16.07718,5.39733l1.35171,0.69572c0,0 1.4067,0.73037 0.67633,2.13706z" fill="#000000" stroke="none"/><path d="M519.447,270.25261c0.12759,-0.41867 0.57043,-0.65465 0.9891,-0.52706c0.41867,0.12759 0.65465,0.57043 0.52706,0.9891c-0.12759,0.41867 -0.57043,0.65465 -0.9891,0.52706c-0.41867,-0.12759 -0.65465,-0.57043 -0.52706,-0.9891z" fill="#000000" stroke="none"/><path d="M549.87636,290.01972c0.12759,-0.41867 0.57043,-0.65465 0.9891,-0.52706c0.41867,0.12759 0.65465,0.57043 0.52706,0.9891c-0.12759,0.41867 -0.57043,0.65465 -0.9891,0.52706c-0.41867,-0.12759 -0.65465,-0.57043 -0.52706,-0.9891z" fill="#000000" stroke="none"/><path d="M545.31781,301.11847c-0.73037,1.4067 -2.13705,0.67632 -2.13705,0.67632l-1.11465,-0.58482c-5.39668,-2.31823 -11.13367,-2.52925 -16.42913,-5.57092c-3.73791,-2.14704 -4.86392,-5.89619 -8.51008,-8.15434c0,0 -1.34695,-0.83541 -0.51156,-2.18237c0.83541,-1.34697 2.18238,-0.51156 2.18238,-0.51156c3.64004,2.26064 4.85314,6.06301 8.41486,8.09757c3.31816,1.89543 14.16366,4.61304 16.07719,5.39733l1.35171,0.69573c0,0 1.40669,0.73037 0.67632,2.13706z" fill="#000000" stroke="none"/><path d="M542.58597,307.908c-0.73037,1.4067 -2.13706,0.67633 -2.13706,0.67633l-1.11465,-0.58482c-5.39668,-2.31823 -11.13368,-2.52924 -16.42913,-5.57091c-3.73791,-2.14704 -4.86391,-5.89619 -8.51007,-8.15435c0,0 -1.34696,-0.83541 -0.51156,-2.18237c0.83541,-1.34697 2.18238,-0.51156 2.18238,-0.51156c3.64004,2.26064 4.85314,6.063 8.41486,8.09757c3.31816,1.89543 14.16367,4.61303 16.07719,5.39733l1.3517,0.69573c0,0 1.4067,0.73037 0.67633,2.13706z" fill="#000000" stroke="none"/><path d="M539.94656,314.39431c-0.73037,1.4067 -2.13706,0.67633 -2.13706,0.67633l-1.11465,-0.58482c-5.39668,-2.31823 -11.13368,-2.52924 -16.42913,-5.57091c-3.73791,-2.14704 -4.86391,-5.89619 -8.51007,-8.15435c0,0 -1.34696,-0.83541 -0.51156,-2.18237c0.83541,-1.34698 2.18238,-0.51156 2.18238,-0.51156c3.64004,2.26064 4.85314,6.063 8.41486,8.09757c3.31816,1.89543 14.16365,4.61304 16.07718,5.39733l1.35171,0.69573c0,0 1.4067,0.73037 0.67633,2.13707z" fill="#000000" stroke="none"/></g><path d="M536.02225,87.72383l37.33333,-12" fill="none" stroke="#000000" stroke-width="0.5" stroke-linecap="round"/><path d="M572.68891,86.05716l-17,-4v-27.33333" fill="none" stroke="#000000" stroke-width="0.5" stroke-linecap="round"/><path d="M227.12201,196.9806l-5.16667,62.16667l-101.25,-4.91667l-6,-57.41667z" fill="#1a0a3a" stroke="none" stroke-width="0" stroke-linecap="butt"/><path d="M114.62201,196.48059l6.08333,42.91667l-27.75,25.33333v-58.66667z" fill="#2c1162" stroke="none" stroke-width="0" stroke-linecap="butt"/><path d="M221.12201,136.7306l6.33333,60.66667l-113,-0.66667l-2.25,-58.66667z" fill="#2c1162" stroke="none" stroke-width="0" stroke-linecap="butt"/><g stroke="none" stroke-width="0" stroke-linecap="butt"><path d="M208.62556,322.69381v-116.04635l19.66667,-10.12032l1,102.55258z" fill="#461b9d"/><path d="M209.33332,273.12341v-14.16845l19.33334,-11.13235l0.66667,13.15642z" fill="#000000"/><path d="M214.58332,204.30523l7,-3.79512l1,106.68505l-7.25,8.09626z" fill="#000000"/></g><g stroke="none" stroke-width="0" stroke-linecap="butt"><path d="M92.95892,322.19379v-116h116v116z" fill="#5821c5"/><path d="M92.66667,272.54609v-14h116.66667v14z" fill="#000000"/><path d="M140.66667,205.87941h14v116.66667h-14z" fill="#000000"/></g><path d="M-239.88617,539.59833v-719.19668h959.77234v719.1967z" data-paper-data="{&quot;index&quot;:null}" fill-opacity="0.62745" fill="#000000" stroke="none" stroke-width="0" stroke-linecap="butt"/></g></g></svg>