<svg version="1.1" xmlns="http://www.w3.org/2000/svg" xmlns:xlink="http://www.w3.org/1999/xlink" width="87.05404" height="52.33221" viewBox="0,0,87.05404,52.33221"><g transform="translate(-196.46682,-153.8339)"><g data-paper-data="{&quot;isPaintingLayer&quot;:true}" fill="#ffffff" fill-rule="nonzero" stroke="none" stroke-width="0" stroke-linecap="butt" stroke-linejoin="miter" stroke-miterlimit="10" stroke-dasharray="" stroke-dashoffset="0" style="mix-blend-mode: normal"><path d="M268.39637,153.91249c3.12777,0 5.66333,2.53556 5.66333,5.66333c0,3.12777 -0.04369,11.10012 -3.17146,11.10012c-1.57985,0 -1.4936,-6.15675 -4.60883,-9.40251c-3.05227,-3.18017 -9.32295,-3.43442 -9.32295,-4.98234c0,-3.12777 8.31215,-2.3786 11.43992,-2.3786z"/><path d="M196.54541,159.57805c0,-3.12777 2.53556,-5.66333 5.66333,-5.66333c3.12777,0 11.10012,0.04369 11.10012,3.17146c0,1.57985 -6.15674,1.4936 -9.40251,4.60883c-3.18017,3.05227 -3.43442,9.32295 -4.98234,9.32295c-3.12777,0 -2.3786,-8.31215 -2.3786,-11.43992z"/><path d="M201.07607,161.3148v-7.24906h66.60071v7.24906z"/><path d="M202.27138,205.93649c-3.12777,0 -5.66333,-2.53556 -5.66333,-5.66333c0,-3.12777 0.04369,-11.10012 3.17146,-11.10012c1.57985,0 1.4936,6.15674 4.60883,9.40251c3.05227,3.18017 9.32295,3.43442 9.32295,4.98234c0,3.12777 -8.31215,2.3786 -11.43992,2.3786z"/><path d="M196.65867,158.48314h7.24906v41.22901h-7.24906z"/><path d="M274.43417,200.50278c0,3.12777 -2.53556,5.66333 -5.66333,5.66333c-3.12777,0 -11.10012,-0.04369 -11.10012,-3.17146c0,-1.57985 6.15674,-1.4936 9.40251,-4.60883c3.18017,-3.05227 3.43442,-9.32295 4.98234,-9.32295c3.12777,0 2.3786,8.31215 2.3786,11.43992z"/><path d="M269.90351,198.76602v7.24906h-66.60071v-7.24906z"/><path d="M274.3209,201.59768h-7.24906v-41.22901h7.24906z"/><path d="M207.967,196.00383v-31.48809h11.32665v31.48809z"/><path d="M221.78551,196.00383v-31.48809h11.32665v31.48809z"/><path d="M236.28362,196.00383v-31.48809h11.32665v31.48809z"/><path d="M272.34774,189.70167v-19.65983h9.3182v19.65983z"/><path d="M283.0678,187.60632c0,2.11809 -1.71705,3.83514 -3.83514,3.83514c-2.11809,0 -7.51688,-0.02959 -7.51688,-2.14768c0,-1.06986 4.16928,-1.01145 6.36728,-3.12105c2.15358,-2.06697 5.1968,-12.16732 5.1968,-12.16732c0,0 -0.21206,11.4828 -0.21206,13.60089z"/><path d="M278.53613,173.57487c-2.198,-2.1096 -6.36728,-2.05119 -6.36728,-3.12105c0,-2.11809 5.39879,-2.14768 7.51688,-2.14768c2.11809,0 3.83514,1.71705 3.83514,3.83514c0,2.11809 -0.16055,16.76807 -0.16055,16.76807c0,0 -2.67061,-13.26752 -4.82419,-15.33448z" data-paper-data="{&quot;index&quot;:null}"/></g></g></svg>