<svg version="1.1" xmlns="http://www.w3.org/2000/svg" xmlns:xlink="http://www.w3.org/1999/xlink" width="764" height="519.37955" viewBox="0,0,764,519.37955"><g transform="translate(148.30557,79.68977)"><g data-paper-data="{&quot;isPaintingLayer&quot;:true}" fill-rule="nonzero" stroke-linecap="butt" stroke-linejoin="miter" stroke-miterlimit="10" stroke-dasharray="" stroke-dashoffset="0" style="mix-blend-mode: normal"><path d="M100.5,361v-362h279v362z" fill="#424242" stroke="none" stroke-width="NaN"/><path d="M-147.30557,359.65625v-362h253v362z" fill="#232323" stroke="#000000" stroke-width="2"/><path d="M361.69443,361.65625v-362h253v362z" fill="#232323" stroke="#000000" stroke-width="2"/><g fill="#663f3f" stroke="#000000" stroke-width="0.5"><path d="M110.43757,-52.27939l0.14918,-5.5034l11.05602,-0.01166l-0.14918,5.5034z"/><path d="M104.81363,-48.73564l0.14918,-5.5034l11.05601,-0.01166l-0.14918,5.50343z"/><path d="M117.38331,-57.00375l0.14918,-5.5034l11.05601,-0.01166l-0.14918,5.5034z"/><path d="M117.16486,-48.94519l0.14917,-5.5034l11.05599,-0.01166l-0.14918,5.5034z"/><path d="M105.03739,-56.99076l0.14918,-5.5034l11.05601,-0.01164l-0.14918,5.5034z"/><path d="M112.75621,-42.65112l0.61804,-22.79983l5.89654,-0.00624l-0.61805,22.79984z"/></g><g fill="#663f3f" stroke="#000000" stroke-width="0.5"><path d="M178.29279,-53.70738l-1.48461,-5.30146l10.55827,-3.27998l1.48464,5.30147z"/><path d="M173.96807,-48.6593l-1.48464,-5.30149l10.55827,-3.27998l1.48464,5.30149z"/><path d="M183.53119,-60.27416l-1.48464,-5.30147l10.55827,-3.27997l1.48464,5.30149z"/><path d="M185.70511,-52.51129l-1.48464,-5.30145l10.55827,-3.27998l1.48464,5.30147z"/><path d="M171.7411,-56.61149l-1.48462,-5.30147l10.55827,-3.27998l1.48464,5.30146z"/><path d="M183.35448,-45.19512l-6.15061,-21.96325l5.63108,-1.74931l6.15061,21.96325z"/></g><path d="M129.13604,-41.34877c0.32986,4.0057 -3.19703,6.75406 -12.7662,7.54206c-9.56917,0.788 -11.95274,-2.28499 -12.2826,-6.29069c-0.32986,-4.0057 1.5189,-7.42722 11.08807,-8.21523c9.56917,-0.788 13.63087,2.95815 13.96073,6.96386z" fill="#c50000" stroke="#000000" stroke-width="2"/><path d="M201.0589,-44.83742c0.32986,4.0057 -2.88097,4.02354 -12.45016,4.81156c-9.56917,0.788 -9.06736,-0.08855 -9.39722,-4.09425c-0.32986,-4.0057 -1.68254,-6.89316 7.88665,-7.68116c9.56917,-0.788 13.63087,2.95815 13.96073,6.96386z" fill="#c50000" stroke="#000000" stroke-width="2"/><path d="M113.87845,-35.07167c-0.40049,-0.05544 -0.34503,-0.45594 -0.34503,-0.45594l0.10379,-0.55186c2.15625,-3.69032 -1.18726,-6.92194 -3.29226,-9.40889c0,0 -0.26121,-0.30861 0.04739,-0.56982c0.30861,-0.26121 0.5698,0.04741 0.5698,0.04741c2.42045,2.85963 5.58666,6.17555 3.38242,10.32311l-0.01017,0.27095c0,0 -0.05544,0.40049 -0.45593,0.34502z" fill="#000000" stroke="none" stroke-width="0.5"/><path d="M120.68276,-35.62226c-0.40294,0.03319 -0.43613,-0.36976 -0.43613,-0.36976l0.00414,-0.44873c0.07529,-0.19222 0.15059,-0.38442 0.22587,-0.57664c1.24597,-5.09699 -2.66664,-5.901 -3.06164,-10.3708c0,0 -0.03318,-0.40294 0.36976,-0.43613c0.40294,-0.03319 0.43613,0.36976 0.43613,0.36976c0.15259,2.02679 2.25637,2.92391 2.79743,4.54453c0.83936,2.51407 0.86254,3.5424 0.22944,6.13602c-0.08122,0.20902 -0.16245,0.41806 -0.24367,0.6271l0.0484,0.08853c0,0 0.03318,0.40294 -0.36976,0.43613z" fill="#000000" stroke="none" stroke-width="0.5"/><path d="M189.99567,-42.9736c-0.39276,-0.09593 -0.29683,-0.4887 -0.29683,-0.4887l0.01039,-0.0425c0.49811,-2.02841 4.17598,-5.44829 3.22247,-6.94573c0,0 -0.20988,-0.34555 0.13568,-0.55544c0.34556,-0.2099 0.55544,0.13569 0.55544,0.13569c1.3431,2.29092 -2.51032,5.01409 -3.12808,7.55737l-0.01039,0.04248c0,0 -0.09595,0.39276 -0.4887,0.29683z" fill="#000000" stroke="none" stroke-width="0.5"/><path d="M-31.65113,369.58079v-443.07355h273.84156c0,0 0,67.06434 0,115.32051c0,13.48761 -62.19402,-29.18315 -62.19402,-8.4973c0,13.76926 1.08842,29.77998 2.9773,47.19817c1.97613,18.22285 -60.01221,-8.14199 -56.6136,12.20686c2.77911,16.63971 6.05102,33.5678 9.59586,52.34512c3.06814,16.25223 -65.11623,-13.1171 -61.78172,3.57654c3.61493,18.09758 6.24672,38.05575 8.14651,58.35185c7.37055,78.74245 3.723,162.57178 3.723,162.57178z" fill="#8c0000" stroke="none" stroke-width="0"/><path d="M396.44131,369.58079c0,0 -3.70836,-83.82933 3.78506,-162.57177c1.93145,-20.29612 4.60712,-40.25428 8.28231,-58.35185c3.39009,-16.69364 -65.93095,12.67569 -62.81167,-3.57655c3.60393,-18.77732 6.93038,-35.70542 9.75583,-52.34512c3.45526,-20.34884 -59.56647,6.01599 -57.5574,-12.20686c1.92036,-17.41819 3.02693,-33.42893 3.02693,-47.19817c0,-20.68585 -63.23084,21.98491 -63.23084,8.4973c0,-48.25617 0,-115.32051 0,-115.32051h278.40669v443.07355z" data-paper-data="{&quot;index&quot;:null}" fill="#8c0000" stroke="none" stroke-width="0"/><path d="M-38.52853,439.68977v-519.37955h557.05706v519.37955z" fill-opacity="0.62745" fill="#000000" stroke="none" stroke-width="0"/></g></g></svg>