<svg version="1.1" xmlns="http://www.w3.org/2000/svg" xmlns:xlink="http://www.w3.org/1999/xlink" width="63.52568" height="191.74897" viewBox="0,0,63.52568,191.74897"><g transform="translate(-208.38966,-84.26541)"><g data-paper-data="{&quot;isPaintingLayer&quot;:true}" fill-rule="nonzero" stroke-linecap="butt" stroke-linejoin="miter" stroke-miterlimit="10" stroke-dasharray="" stroke-dashoffset="0" style="mix-blend-mode: normal"><g><g data-paper-data="{&quot;index&quot;:null}" fill="#663f3f" stroke="#000000" stroke-width="0.5"><path d="M242.12542,223.52212l-1.65547,-1.94508l4.16802,-3.54745l1.65547,1.94508z"/><path d="M245.27365,222.99881l-1.65546,-1.94508l4.16802,-3.54744l1.65547,1.94508z"/><path d="M238.13616,224.04249l-1.65547,-1.94507l4.16802,-3.54745l1.65547,1.94508z"/><path d="M240.56025,226.89065l-1.65547,-1.94509l4.16802,-3.54744l1.65548,1.94508z"/><path d="M242.79046,220.08118l-1.65547,-1.94508l4.16803,-3.54744l1.65547,1.94508z"/><path d="M245.99503,226.09826l-6.8584,-8.05819l2.22295,-1.89196l6.8584,8.05818z"/></g><g fill="#663f3f" stroke="#000000" stroke-width="0.5"><path d="M228.2956,219.14135l1.65548,-1.94508l4.16802,3.54745l-1.65547,1.94508z"/><path d="M225.14736,218.61803l1.65547,-1.94508l4.16802,3.54744l-1.65546,1.94508z"/><path d="M232.28486,219.66172l1.65547,-1.94508l4.16802,3.54745l-1.65547,1.94507z"/><path d="M229.86077,222.50987l1.65548,-1.94508l4.16802,3.54744l-1.65547,1.94509z"/><path d="M227.63056,215.70041l1.65547,-1.94508l4.16803,3.54744l-1.65547,1.94508z"/><path d="M226.37106,223.37296l6.8584,-8.05818l2.22295,1.89196l-6.8584,8.05819z"/></g><path d="M233.32483,235.51979c0.09551,15.7194 -0.09584,36.70098 -6.27519,37.02138c-6.16861,0.31984 -6.62436,-20.44851 -6.71986,-36.16791c-0.09551,-15.7194 1.88964,-16.46999 6.39988,-16.49739c4.51024,-0.0274 6.49966,-0.07548 6.59517,15.64392z" fill="#00c3c5" stroke="none" stroke-width="0"/><path d="M255.33914,234.31857c1.50632,15.64736 3.19936,36.56139 -2.92628,37.43524c-6.11499,0.87233 -8.43336,-19.77123 -9.93968,-35.41859c-1.50632,-15.64736 0.40344,-16.57313 4.89301,-17.00533c4.48957,-0.4322 6.46664,-0.65868 7.97296,14.98868z" fill="#00c3c5" stroke="none" stroke-width="0"/><path d="M224.96379,272.65429l-0.03445,-0.02329l-0.00456,0.01369l-0.4231,-0.14103c-0.10215,-0.03142 -0.17642,-0.12653 -0.17642,-0.23899c0,-0.03795 0.00846,-0.07393 0.02359,-0.10614c-0.73435,-0.87694 -0.95909,-2.50871 -1.37385,-3.28787c-0.92089,-1.92649 -0.605,-4.82346 -1.58821,-6.67049l-0.02934,-0.28312c0,0 0,-0.01755 0.00441,-0.04384c-0.06691,0.00916 -0.25843,0.01488 -0.31375,-0.2064c-0.06741,-0.26964 0.20222,-0.33704 0.20222,-0.33704c0.95356,-0.22438 1.91859,-1.38371 2.89691,-1.43615c0.4712,-0.02525 0.29203,1.61183 0.62005,1.27262c1.13893,-1.17781 1.45143,0.61832 2.32246,-0.33066c0.2415,-0.17238 0.93905,-0.76042 1.28921,-0.55886c0.4263,0.24538 -0.03548,1.73986 0.18451,1.857c0.30032,0.15992 0.45272,-0.60351 0.7903,-0.64599c0.39673,-0.04993 0.68552,1.12614 0.90249,0.79026c0.91868,-1.4222 1.98899,1.0707 1.97301,1.95753c0.88618,1.77236 -1.76047,6.85533 -3.00817,8.11804c-0.525,0.51911 -0.8559,0.60317 -1.20178,0.53318c-0.01565,0.01282 -0.03288,0.02378 -0.05136,0.03254l-0.28087,0.14044l-0.0473,-0.0946c-0.66965,0.25377 -1.42935,0.05533 -2.14356,-0.17755l-0.09181,-0.07756c-0.12851,0.00615 -0.25569,-0.00732 -0.38131,-0.05397c-0.00101,-0.00037 -0.00202,-0.00075 -0.00303,-0.00113c-0.0186,-0.00027 -0.03735,-0.00047 -0.05626,-0.0006z" fill="#000000" stroke="none" stroke-width="0.5"/><path d="M254.39651,271.65292c0.08456,0.04009 0.14304,0.12623 0.14304,0.22603c0,0.0998 -0.05848,0.18595 -0.14304,0.22603l-0.28087,0.14043c-0.87059,0.41615 -1.80603,0.01058 -2.68323,0.02639c0,0 -0.25,0 -0.25,-0.25c0,-0.02783 0.00309,-0.05255 0.0086,-0.07452c-0.16701,0.0488 -0.33584,0.07076 -0.51061,0.03401c-1.3635,-0.28673 -1.92542,-2.55063 -2.58497,-3.44115c-1.19547,-1.76926 -1.31114,-4.6811 -2.5565,-6.36256l-0.07086,-0.27567c0,0 -0.00259,-0.01736 -0.00212,-0.044c-0.06482,0.01896 -0.25339,0.05291 -0.3408,-0.15777c-0.10652,-0.25672 0.1502,-0.36323 0.1502,-0.36323c0.90994,-0.36283 1.69305,-1.65204 2.65288,-1.84847c0.46229,-0.09461 0.527,1.55098 0.80129,1.16702c0.95238,-1.33318 1.52686,0.39705 2.2481,-0.67023c0.21337,-0.20618 0.81637,-0.89084 1.19248,-0.74324c0.45788,0.1797 0.22202,1.72601 0.4569,1.80936c0.32065,0.11379 0.35856,-0.66379 0.68616,-0.75569c0.385,-0.10801 0.84441,1.01248 1.00936,0.64822c0.69844,-1.54235 2.12537,0.76503 2.24062,1.64448c1.13836,1.62195 -0.7281,7.04022 -1.77551,8.47344c-0.18952,0.25311 -0.35562,0.42203 -0.51129,0.53104zM253.2284,271.96334c-0.02395,-0.00464 -0.04805,-0.00954 -0.07227,-0.01465c-0.00853,0.0057 -0.01754,0.01131 -0.02706,0.01681c0.03328,-0.00006 0.0664,-0.00075 0.09933,-0.00216z" fill="#000000" stroke="none" stroke-width="0.5"/><path d="M212.82094,195.08287l-0.03445,-0.02329l-0.00457,0.0137l-0.4231,-0.14104c-0.10215,-0.03142 -0.17642,-0.12653 -0.17642,-0.23899c0,-0.03795 0.00846,-0.07393 0.02359,-0.10614c-0.73435,-0.87694 -0.95909,-2.50871 -1.37385,-3.28787c-0.92089,-1.92649 -0.605,-4.82346 -1.58821,-6.67049l-0.02934,-0.28312c0,0 0,-0.01755 0.00441,-0.04384c-0.06691,0.00916 -0.25843,0.01488 -0.31375,-0.2064c-0.06741,-0.26964 0.20222,-0.33704 0.20222,-0.33704c0.95356,-0.22438 1.91859,-1.38371 2.89691,-1.43615c0.4712,-0.02525 0.29203,1.61183 0.62005,1.27262c1.13893,-1.17781 1.45143,0.61832 2.32246,-0.33066c0.2415,-0.17238 0.93905,-0.76042 1.28921,-0.55886c0.4263,0.24538 -0.03548,1.73987 0.18451,1.85701c0.30032,0.15992 0.45272,-0.60351 0.7903,-0.64599c0.39673,-0.04993 0.68552,1.12614 0.90249,0.79026c0.91868,-1.4222 1.98899,1.0707 1.97301,1.95753c0.88618,1.77236 -1.76047,6.85533 -3.00817,8.11804c-0.525,0.51911 -0.8559,0.60317 -1.20178,0.53318c-0.01565,0.01282 -0.03288,0.02378 -0.05136,0.03254l-0.28087,0.14043l-0.0473,-0.0946c-0.66965,0.25377 -1.42934,0.05533 -2.14356,-0.17755l-0.09181,-0.07756c-0.12851,0.00615 -0.25569,-0.00732 -0.38131,-0.05397c-0.00101,-0.00037 -0.00202,-0.00075 -0.00303,-0.00113c-0.0186,-0.00027 -0.03735,-0.00047 -0.05626,-0.0006z" fill="#000000" stroke="none" stroke-width="0.5"/><path d="M259.67808,197.94001l-0.03445,-0.02329l-0.00457,0.01369l-0.4231,-0.14103c-0.10215,-0.03142 -0.17642,-0.12653 -0.17642,-0.23899c0,-0.03795 0.00846,-0.07393 0.02359,-0.10614c-0.73435,-0.87694 -0.95909,-2.50871 -1.37385,-3.28787c-0.92089,-1.92649 -0.605,-4.82346 -1.58821,-6.67049l-0.02934,-0.28312c0,0 0,-0.01755 0.00441,-0.04384c-0.06691,0.00916 -0.25843,0.01488 -0.31375,-0.2064c-0.06741,-0.26964 0.20222,-0.33704 0.20222,-0.33704c0.95356,-0.22438 1.91859,-1.38371 2.89691,-1.43615c0.4712,-0.02525 0.29203,1.61183 0.62005,1.27262c1.13893,-1.17781 1.45143,0.61832 2.32246,-0.33066c0.2415,-0.17238 0.93905,-0.76042 1.28921,-0.55886c0.4263,0.24538 -0.03548,1.73986 0.18451,1.857c0.30032,0.15992 0.45272,-0.60351 0.7903,-0.64599c0.39673,-0.04993 0.68552,1.12614 0.90249,0.79026c0.91868,-1.4222 1.98899,1.0707 1.97301,1.95753c0.88618,1.77236 -1.76047,6.85533 -3.00817,8.11804c-0.525,0.51911 -0.8559,0.60317 -1.20178,0.53318c-0.01565,0.01282 -0.03288,0.02378 -0.05136,0.03254l-0.28087,0.14044l-0.0473,-0.0946c-0.66965,0.25377 -1.42934,0.05533 -2.14356,-0.17755l-0.09181,-0.07756c-0.12851,0.00615 -0.25569,-0.00732 -0.38131,-0.05397c-0.00101,-0.00037 -0.00202,-0.00075 -0.00303,-0.00112c-0.0186,-0.00027 -0.03735,-0.00047 -0.05626,-0.0006z" fill="#000000" stroke="none" stroke-width="0.5"/><g fill="#663f3f" stroke="#000000" stroke-width="0.5"><path d="M223.36009,271.60432l-0.12134,-1.49505l6.33671,-0.13145l0.12135,1.49504z"/><path d="M223.63954,273.97556l-0.1106,-1.49505l5.77603,-0.13146l0.11061,1.49505z"/><path d="M223.21723,268.89003l-0.12134,-1.49505l6.33671,-0.13145l0.12135,1.49505z"/><path d="M223.36009,266.3186l-0.12134,-1.49505l6.33671,-0.13145l0.12135,1.49505z"/><path d="M223.07438,264.3186l-0.12134,-1.49505l6.33671,-0.13145l0.12135,1.49505z"/><path d="M225.75024,275.73458l-0.21357,-14.52801l1.43586,-0.16446l0.21357,14.52802z"/></g><g fill="#663f3f" stroke="#000000" stroke-width="0.5"><path d="M248.64581,270.46146l-0.12135,-1.49505l6.33672,-0.13146l0.12135,1.49505z"/><path d="M248.92525,272.83271l-0.1106,-1.49505l5.77603,-0.13146l0.11061,1.49505z"/><path d="M248.50295,267.74718l-0.12135,-1.49505l6.33671,-0.13145l0.12136,1.49505z"/><path d="M248.64581,265.17575l-0.12135,-1.49505l6.33672,-0.13145l0.12135,1.49505z"/><path d="M248.36009,263.17575l-0.12134,-1.49505l6.33671,-0.13145l0.12135,1.49505z"/><path d="M251.03596,274.59173l-0.21357,-14.52801l1.43586,-0.16446l0.21357,14.52802z"/></g><g fill="#663f3f" stroke="#000000" stroke-width="0.5"><path d="M210.93152,193.87575l-0.12135,-1.49504l6.33672,-0.13146l0.12135,1.49505z"/><path d="M211.21096,196.24699l-0.1106,-1.49505l5.77603,-0.13146l0.11061,1.49505z"/><path d="M210.78866,191.16146l-0.12135,-1.49505l6.33671,-0.13145l0.12136,1.49505z"/><path d="M210.93152,188.59003l-0.12135,-1.49505l6.33672,-0.13145l0.12135,1.49504z"/><path d="M210.6458,186.59003l-0.12135,-1.49505l6.33671,-0.13145l0.12136,1.49504z"/><path d="M213.32167,198.00601l-0.21357,-14.52801l1.43586,-0.16446l0.21357,14.52802z"/></g><g fill="#663f3f" stroke="#000000" stroke-width="0.5"><path d="M258.5549,194.10952l-0.12135,-1.49505l6.33672,-0.13145l0.12135,1.49505z"/><path d="M258.69776,191.53809l-0.12134,-1.49505l6.33671,-0.13145l0.12135,1.49505z"/><path d="M258.41204,189.53809l-0.12135,-1.49505l6.33672,-0.13145l0.12135,1.49505z"/><path d="M261.08791,194.49952l-0.21357,-8.14571l1.43586,-0.09221l0.21357,8.14571z"/></g><path d="M261.0959,198.48201l-1.08106,-1.0398l4.66073,-4.29521l1.08107,1.03979z" fill="#663f3f" stroke="#000000" stroke-width="0.5"/><path d="M262.87572,200.07359l-1.07302,-1.04692l4.24063,-3.92387l1.07303,1.04691z" fill="#663f3f" stroke="#000000" stroke-width="0.5"/><path d="M266.55688,200.50207l-5.55481,-5.96174l1.01475,-1.02004l5.55481,5.96174z" fill="#663f3f" stroke="#000000" stroke-width="0.5"/><path d="M270.10691,203.18201l-4.19259,-1.13254l1.41567,-5.24073l4.19259,1.13254z" fill="#663f3f" stroke="#000000" stroke-width="0.5"/><path d="M267.41615,203.64941c0,0 -0.41852,-0.96614 -0.10641,-1.85513c0.51417,-1.46451 2.0418,-5.81563 2.0418,-5.81563l1.52631,0.53587c0,0 -1.514,4.3123 -2.02864,5.77816c-0.31615,0.90047 -1.28221,1.49389 -1.28221,1.49389z" fill="#565656" stroke="none" stroke-width="0"/><path d="M271.51793,196.24175c-0.2398,0.68302 -0.99875,1.0385 -1.69516,0.794c-0.69641,-0.2445 -1.06657,-0.99641 -0.82677,-1.67943c0.2398,-0.68302 0.99875,-1.0385 1.69516,-0.794c0.69641,0.2445 1.06657,0.99641 0.82677,1.67943z" fill="#2b2b2b" stroke="none" stroke-width="0"/><path d="M270.76285,201.30791l-3.27973,-0.92369l0.30268,-1.11546l3.27973,0.9237z" fill="#663f3f" stroke="#000000" stroke-width="0.5"/><path d="M271.31481,199.84381l-3.28559,-0.90266l0.29554,-1.11738l3.28558,0.90266z" fill="#663f3f" stroke="#000000" stroke-width="0.5"/><path d="M270.33675,202.99236l-3.30472,-0.82987l0.27078,-1.12363l3.30473,0.82987z" fill="#663f3f" stroke="#000000" stroke-width="0.5"/><path d="M270.87654,198.73183l-3.49113,-0.1787l0.06785,-1.42695l3.49113,0.1787z" fill="#663f3f" stroke="#000000" stroke-width="0.5"/><path d="M210.57356,200.9594l0.89612,-4.24941l5.31175,1.12014l-0.89611,4.2494z" data-paper-data="{&quot;index&quot;:null}" fill="#663f3f" stroke="#000000" stroke-width="0.5"/><path d="M212.7866,201.57512l0.66738,-3.34133l1.13119,0.2372l-0.66738,3.34133z" data-paper-data="{&quot;index&quot;:null}" fill="#663f3f" stroke="#000000" stroke-width="0.5"/><path d="M211.23311,201.39432l0.68878,-3.33698l1.12965,0.24444l-0.68878,3.33699z" data-paper-data="{&quot;index&quot;:null}" fill="#663f3f" stroke="#000000" stroke-width="0.5"/><path d="M214.48795,201.92878l0.76231,-3.32096l1.12398,0.26933l-0.76231,3.32095z" data-paper-data="{&quot;index&quot;:null}" fill="#663f3f" stroke="#000000" stroke-width="0.5"/><path d="M210.26936,200.15517l1.42709,-3.19114l1.30197,0.58792l-1.42709,3.19114z" data-paper-data="{&quot;index&quot;:null}" fill="#663f3f" stroke="#000000" stroke-width="0.5"/><path d="M233.21217,140.54666l0.28699,-3.37211l7.22597,0.61499l-0.28699,3.37211z" fill="#663f3f" stroke="#000000" stroke-width="0.5"/><path d="M229.41469,142.40695l0.28699,-3.37211l7.22597,0.61499l-0.28699,3.37211z" fill="#663f3f" stroke="#000000" stroke-width="0.5"/><path d="M237.91417,138.03551l0.28699,-3.37211l7.22597,0.61499l-0.28699,3.37211z" fill="#663f3f" stroke="#000000" stroke-width="0.5"/><path d="M237.49393,142.97325l0.28699,-3.37212l7.22597,0.61499l-0.28699,3.37212z" fill="#663f3f" stroke="#000000" stroke-width="0.5"/><path d="M229.84517,137.34878l0.28699,-3.37211l7.22597,0.61498l-0.28699,3.37212z" fill="#663f3f" stroke="#000000" stroke-width="0.5"/><path d="M234.39599,146.59135l1.18898,-13.97021l3.85385,0.32799l-1.18898,13.97021z" fill="#663f3f" stroke="#000000" stroke-width="0.5"/><path d="M255.18834,94.73157l0.76126,-1.47337l3.15722,1.63127l-0.76126,1.47337z" fill="#663f3f" stroke="#000000" stroke-width="0.5"/><path d="M256.27757,96.49437l0.76126,-1.47337l3.15722,1.63127l-0.76126,1.47337z" fill="#663f3f" stroke="#000000" stroke-width="0.5"/><path d="M253.8939,92.46273l0.76126,-1.47337l3.15722,1.63127l-0.76126,1.47337z" fill="#663f3f" stroke="#000000" stroke-width="0.5"/><path d="M252.77919,94.62017l0.76127,-1.47337l3.15722,1.63127l-0.76126,1.47337z" fill="#663f3f" stroke="#000000" stroke-width="0.5"/><path d="M257.41947,94.28432l0.76127,-1.47337l3.15722,1.63128l-0.76126,1.47337z" fill="#663f3f" stroke="#000000" stroke-width="0.5"/><path d="M254.59282,97.6906l3.15381,-6.10396l1.68385,0.87002l-3.1538,6.10396z" fill="#663f3f" stroke="#000000" stroke-width="0.5"/><path d="M222.93443,96.36284l-0.76126,-1.47337l3.15722,-1.63127l0.76126,1.47337z" fill="#663f3f" stroke="#000000" stroke-width="0.5"/><path d="M221.8452,98.12564l-0.76126,-1.47337l3.15722,-1.63127l0.76127,1.47337z" fill="#663f3f" stroke="#000000" stroke-width="0.5"/><path d="M224.22887,94.094l-0.76127,-1.47337l3.15722,-1.63127l0.76126,1.47337z" fill="#663f3f" stroke="#000000" stroke-width="0.5"/><path d="M225.34358,96.25144l-0.76127,-1.47337l3.15722,-1.63127l0.76127,1.47337z" fill="#663f3f" stroke="#000000" stroke-width="0.5"/><path d="M220.7033,95.9156l-0.76126,-1.47337l3.15722,-1.63128l0.76127,1.47337z" fill="#663f3f" stroke="#000000" stroke-width="0.5"/><path d="M225.00332,98.56061l-3.1538,-6.10396l1.68385,-0.87001l3.1538,6.10396z" fill="#663f3f" stroke="#000000" stroke-width="0.5"/><path d="M265.39049,112.37214c0,12.66604 -10.83223,23.28137 -24.2659,23.28137c-13.43367,0 -23.10762,-11.13655 -23.10762,-23.80259c0,-4.35881 -0.41801,-8.43132 1.63229,-12.12629c3.90756,-7.04206 12.66464,-12.25544 21.47534,-12.25544c13.43367,0 24.2659,12.23692 24.2659,24.90295z" fill="#00c3c5" stroke="#929292" stroke-width="1"/><path d="M232.90963,108.26432c-0.21613,2.48545 -2.01871,4.35879 -4.02618,4.18422c-2.00748,-0.17456 -3.45965,-2.33092 -3.24353,-4.81637c0.21613,-2.48545 2.01871,-4.35879 4.02618,-4.18422c2.00748,0.17456 3.45965,2.33093 3.24353,4.81637z" fill="#000000" stroke="none" stroke-width="0"/><path d="M255.32228,110.69671c-0.21613,2.48545 -2.01871,4.35879 -4.02618,4.18422c-2.00748,-0.17456 -3.45965,-2.33092 -3.24353,-4.81637c0.21613,-2.48545 2.01871,-4.35879 4.02618,-4.18422c2.00748,0.17456 3.45965,2.33093 3.24353,4.81637z" fill="#000000" stroke="none" stroke-width="0"/><path d="M226.14742,107.94826c0,-1.72719 1.40016,-3.12735 3.12735,-3.12735c1.72719,0 3.12735,1.40016 3.12735,3.12735c0,1.72719 -1.40016,3.12735 -3.12735,3.12735c-1.72719,0 -3.12735,-1.40016 -3.12735,-3.12735z" fill="#fff1f1" stroke="none" stroke-width="0"/><path d="M248.73382,110.38064c0,-1.72719 1.40016,-3.12735 3.12735,-3.12735c1.72719,0 3.12735,1.40016 3.12735,3.12735c0,1.72719 -1.40016,3.12735 -3.12735,3.12735c-1.72719,0 -3.12735,-1.40016 -3.12735,-3.12735z" fill="#fff1f1" stroke="none" stroke-width="0"/><path d="M228.23232,108.122c0,-0.47978 0.38893,-0.86871 0.86871,-0.86871c0.47978,0 0.86871,0.38893 0.86871,0.86871c0,0.47978 -0.38893,0.86871 -0.86871,0.86871c-0.47978,0 -0.86871,-0.38893 -0.86871,-0.86871z" fill="#000000" stroke="none" stroke-width="0.5"/><path d="M250.64497,110.72812c0,-0.47978 0.38893,-0.86871 0.86871,-0.86871c0.47978,0 0.86871,0.38893 0.86871,0.86871c0,0.47978 -0.38893,0.86871 -0.86871,0.86871c-0.47978,0 -0.86871,-0.38893 -0.86871,-0.86871z" fill="#000000" stroke="none" stroke-width="0.5"/><path d="M253.15938,119.72167c0.3885,0.77699 -0.3885,1.16549 -0.3885,1.16549l-0.56224,0.26546c-2.70027,2.0138 -5.89818,3.3901 -8.54983,5.41192c-4.07041,2.31372 -7.98249,-1.31974 -11.22021,-3.47483c-1.76717,-1.17626 -3.68061,-2.37496 -4.18942,-4.54659c0,0 -0.17037,-0.85184 0.68147,-1.0222c0.85184,-0.17037 1.0222,0.68147 1.0222,0.68147c0.21878,1.56734 2.22917,2.62694 3.4552,3.44552c2.28497,1.52559 6.30711,5.43036 9.28129,3.47483c2.68072,-1.98234 5.79509,-3.33888 8.47684,-5.36006l0.82769,-0.42951c0,0 0.77699,-0.3885 1.16549,0.3885z" fill="#000000" stroke="none" stroke-width="0.5"/><path d="M218.12783,92.69257c0,0 -4.65534,-5.6236 -2.46043,-7.63882c2.19492,-2.01521 7.79586,3.53203 7.79586,3.53203c0,0 2.09127,2.83089 -0.10364,4.84611c-2.19492,2.01521 -5.23179,-0.73932 -5.23179,-0.73932z" fill="#00c3c5" stroke="#000000" stroke-width="0"/><path d="M257.78036,93.08441c-2.19491,-2.01521 -0.10365,-4.84611 -0.10365,-4.84611c0,0 5.60095,-5.54725 7.79586,-3.53203c2.19491,2.01521 -2.46043,7.63882 -2.46043,7.63882c0,0 -3.03687,2.75453 -5.23179,0.73932z" data-paper-data="{&quot;index&quot;:null}" fill="#00c3c5" stroke="#000000" stroke-width="0"/><path d="M219.47876,92.08436c0,0 -2.73859,-3.30818 -1.44739,-4.49367c1.2912,-1.18549 4.58605,2.07778 4.58605,2.07778c0,0 1.23023,1.66532 -0.06097,2.85081c-1.2912,1.18549 -3.07769,-0.43492 -3.07769,-0.43492z" fill="#00a5a8" stroke="#000000" stroke-width="0"/><path d="M258.75727,92.17179c-1.2912,-1.18549 -0.06097,-2.85081 -0.06097,-2.85081c0,0 3.29485,-3.26327 4.58605,-2.07778c1.2912,1.18549 -1.44739,4.49367 -1.44739,4.49367c0,0 -1.78649,1.6204 -3.07769,0.43492z" data-paper-data="{&quot;index&quot;:null}" fill="#00a5a8" stroke="#000000" stroke-width="0"/><path d="M243.47213,114.48333c-0.18394,1.08804 -1.67374,1.74342 -3.32757,1.46383c-1.65382,-0.27959 -2.8454,-1.38827 -2.66146,-2.47632c0.18394,-1.08804 1.67374,-1.74342 3.32757,-1.46383c1.65382,0.27959 2.8454,1.38827 2.66146,2.47632z" fill="#00b1b4" stroke="none" stroke-width="0"/><path d="M239.35177,113.89021c0,-0.47978 0.38893,-0.86871 0.86871,-0.86871c0.47978,0 0.86871,0.38893 0.86871,0.86871c0,0.47978 -0.38893,0.86871 -0.86871,0.86871c-0.47978,0 -0.86871,-0.38893 -0.86871,-0.86871z" fill="#000000" stroke="none" stroke-width="0.5"/><path d="M252.62295,158.39946l-2.4857,-2.92054l6.25831,-5.32651l2.4857,2.92055z" fill="#663f3f" stroke="#000000" stroke-width="0.5"/><path d="M257.35004,157.6137l-2.48569,-2.92055l6.2583,-5.3265l2.4857,2.92054z" fill="#663f3f" stroke="#000000" stroke-width="0.5"/><path d="M246.63306,159.1808l-2.4857,-2.92054l6.25831,-5.3265l2.48569,2.92055z" fill="#663f3f" stroke="#000000" stroke-width="0.5"/><path d="M250.27283,163.45731l-2.4857,-2.92055l6.25831,-5.3265l2.4857,2.92054z" fill="#663f3f" stroke="#000000" stroke-width="0.5"/><path d="M253.62151,153.23287l-2.4857,-2.92055l6.25831,-5.3265l2.4857,2.92054z" fill="#663f3f" stroke="#000000" stroke-width="0.5"/><path d="M258.43319,162.26755l-10.29791,-12.0994l3.33777,-2.8408l10.29792,12.0994z" fill="#663f3f" stroke="#000000" stroke-width="0.5"/><path d="M220.3091,150.20157l2.83393,-2.584l5.53715,6.07272l-2.83393,2.584z" fill="#663f3f" stroke="#000000" stroke-width="0.5"/><path d="M215.71871,148.82636l2.83393,-2.584l5.53715,6.07272l-2.83392,2.58401z" fill="#663f3f" stroke="#000000" stroke-width="0.5"/><path d="M226.15277,151.73155l2.83393,-2.58401l5.53715,6.07272l-2.83393,2.58401z" fill="#663f3f" stroke="#000000" stroke-width="0.5"/><path d="M222.00307,155.51528l2.83394,-2.58401l5.53716,6.07272l-2.83393,2.58402z" fill="#663f3f" stroke="#000000" stroke-width="0.5"/><path d="M219.9696,144.95034l2.83393,-2.58401l5.53716,6.07272l-2.83394,2.58401z" fill="#663f3f" stroke="#000000" stroke-width="0.5"/><path d="M216.64171,156.14055l11.7406,-10.70518l2.95315,3.23878l-11.7406,10.70518z" fill="#663f3f" stroke="#000000" stroke-width="0.5"/><path d="M253.50543,167.99311c0,24.02439 -8.87994,56.75 -16.75,56.75c-7.87006,0 -14.5,-35.72561 -14.5,-59.75c0,-24.02439 7.62994,-26 15.5,-26c7.87006,0 15.75,4.97561 15.75,29z" fill="#00c3c5" stroke="none" stroke-width="0"/><path d="M248.75543,178.46913c0,17.26114 -6.38009,40.77397 -12.03461,40.77397c-5.65451,0 -10.41802,-25.66828 -10.41802,-42.92942c0,-17.26114 5.48199,-18.68058 11.1365,-18.68058c5.65451,0 11.31612,3.5749 11.31612,20.83603z" data-paper-data="{&quot;index&quot;:null}" fill="#00a5a8" stroke="none" stroke-width="0"/><path d="M235.75541,149.63477c0,-0.69036 0.55964,-1.25 1.25,-1.25c0.69036,0 1.25,0.55964 1.25,1.25c0,0.69036 -0.55964,1.25 -1.25,1.25c-0.69036,0 -1.25,-0.55964 -1.25,-1.25z" fill="#000000" stroke="none" stroke-width="0.5"/><path d="M221.38966,162.70871c0,13.53098 -0.31881,31.58987 -6.5,31.83333c-6.17044,0.24304 -6.5,-17.63569 -6.5,-31.16666c0,-13.53098 1.98967,-14.16667 6.5,-14.16667c4.51033,0 6.5,-0.03098 6.5,13.5z" fill="#00c3c5" stroke="none" stroke-width="0"/><path d="M268.05633,165.37538c0,13.53098 -0.31881,31.58987 -6.5,31.83333c-6.17044,0.24304 -6.5,-17.63569 -6.5,-31.16666c0,-13.53098 1.98967,-14.16667 6.5,-14.16667c4.51033,0 6.5,-0.03098 6.5,13.5z" fill="#00c3c5" stroke="none" stroke-width="0"/></g></g></g></svg>