<svg version="1.1" xmlns="http://www.w3.org/2000/svg" xmlns:xlink="http://www.w3.org/1999/xlink" width="486.15046" height="203.50265" viewBox="0,0,486.15046,203.50265"><g transform="translate(7.48405,-157.65358)"><g data-paper-data="{&quot;isPaintingLayer&quot;:true}" fill-rule="nonzero" stroke-linecap="butt" stroke-linejoin="miter" stroke-miterlimit="10" stroke-dasharray="" stroke-dashoffset="0" style="mix-blend-mode: normal"><path d="M-4.30557,358.65623l48,-198l397.5,-0.5l34.5,198.5z" fill="#9c9c9c" stroke="#000000" stroke-width="5"/><path d="M232.05436,351.933c-0.28406,0.36019 -0.86238,0.68525 -0.59216,0.95546c0.33785,0.33785 0.82149,-0.48816 1.23223,-0.73223zM232.19229,351.66758c0.55828,-0.41102 1.91409,-1.13493 3.26991,0.22088c1.76777,1.76777 0,3.53553 0,3.53553l-2.76777,1.73223c-1.58926,-0.24408 -3.63082,0.40472 -4.76777,-0.73223c-0.88403,-0.88403 -0.73223,-6.19003 -0.73223,-7.76777c0.33509,-3.5979 -4.09617,-5.54835 -5.74579,-8.90162c-0.57305,-1.16487 -0.99202,-2.42025 -1.22193,-3.69792c-0.15803,-0.87824 0.35748,-1.82954 0.07499,-2.676c-0.33325,-0.99853 -1.34374,-1.64057 -1.82759,-2.57546c-1.29989,-2.51166 -2.02301,-5.37106 -3.7502,-7.61047c-0.91849,-1.19089 -2.32432,-1.97122 -3.15611,-3.2242c-1.22093,-1.83918 -1.78789,-4.05285 -2.9535,-5.92758c-0.46002,-0.73988 -0.50065,-1.87747 -1.27144,-2.28359c-1.3385,-0.70524 -3.27805,0.17724 -4.47717,-0.74528c-1.68757,-1.2983 -2.4926,-3.47182 -3.46589,-5.36555c-0.46502,-0.9048 -0.3028,-2.05906 -0.80476,-2.9439c-0.87714,-1.54623 -2.53813,-2.59625 -3.25969,-4.22091c-0.44902,-1.011 0.15472,-2.23832 -0.08835,-3.31751c-0.23102,-1.02565 -0.9467,-1.88293 -1.30556,-2.87113c-0.48949,-1.3479 -0.42095,-2.93996 -1.23378,-4.12139c-0.6445,-0.93678 -1.91342,-1.22905 -2.87013,-1.84358c-2.59896,-4.69531 -5.21893,-9.7621 -8.17121,-14.21213c-1.44328,-2.17548 -3.49297,-3.89509 -5.01274,-6.01784c-1.36493,-1.90647 -2.39049,-4.05851 -3.89251,-5.85896c-1.50991,-1.8099 -3.5234,-3.16283 -5,-5c-6.94112,-8.63609 -13.31587,-17.49866 -18.30271,-27.46694c0,0 -0.39978,-0.79956 -0.24311,-1.6815c-1.24094,0.25156 -2.70523,-0.29612 -3.85369,0.26952c-1.20556,0.59376 -1.79751,1.99901 -2.65811,3.03115c-1.89077,2.26764 -3.15169,4.29353 -5.37102,6.15143c-2.23396,1.87015 -4.78764,3.3244 -7.1069,5.08766c-5.28425,4.01743 -10.1848,9.14285 -17.05833,10.4786c-5.59965,1.0882 -12.79181,0.04511 -18.47277,0.04511c-7.33333,0 -14.66667,0 -22,0c-3.31699,0 -7.0321,0.38277 -10.30546,-0.01873c-1.36415,-0.16732 -2.64016,-0.80068 -4,-1c-3.08796,-0.45263 -6.56586,0.01873 -9.69454,0.01873c-8.33333,0 -16.66667,0 -25,0c0,0 -2.5,0 -2.5,-2.5c0,-2.5 2.5,-2.5 2.5,-2.5c23.805,0 47.20946,1 71,1c5.38202,0 12.21472,1.05673 17.52723,0.04511c5.96145,-1.1352 10.38981,-6.0565 14.94167,-9.5214c2.91592,-2.21961 6.23386,-3.8665 8.66828,-6.69101c1.63915,-1.90182 5.18625,-6.95471 7.31674,-8.11013c1.3174,-0.71446 3.11047,0.1505 4.47038,-0.47931c1.20463,-0.55789 1.65627,-2.13428 2.76137,-2.86989c2.19598,-1.46174 4.97998,-1.91352 7.11842,-3.45822c3.99968,-2.88915 7.24944,-5.42312 11.82163,-7.53451c3.98048,-1.94745 6.17257,-5.24238 9.74244,-7.62688c0.69514,-0.46432 1.76035,-0.01387 2.46447,-0.46447c1.10974,-0.71018 1.91384,-1.82418 2.72913,-2.85916c3.11011,-3.94818 5.96678,-7.49755 9.81339,-10.83008c1.83334,-1.58833 3.14972,-3.77527 5.16308,-5.12815c3.21873,-2.16283 7.96647,-2.95407 10.74374,-5.78803c2.49624,-2.54719 2.42263,-4.27636 5.25626,-6.21197c1.23094,-0.84084 2.79578,-1.12132 4,-2c1.23855,-0.90374 2.15303,-2.18346 3.22954,-3.2752l0.46447,-0.46447c0,0 1.76777,-1.76777 3.53553,0c1.76777,1.76777 0,3.53553 0,3.53553l-0.46447,0.46447c-1.28051,1.26529 -2.39386,2.72586 -3.84153,3.79587c-1.1988,0.88606 -2.74883,1.18958 -4,2c-2.09369,1.35615 -2.96521,4.03887 -4.74374,5.78803c-3.12067,3.06914 -7.71042,3.87137 -11.25626,6.21197c-1.90983,1.26067 -3.10864,3.37192 -4.83692,4.87185c-3.58994,3.11562 -6.06218,6.588 -9.11555,10.09885c-1.32323,1.52148 -2.68,3.07006 -4.34194,4.2119c-0.689,0.47338 -1.76843,0.00149 -2.46447,0.46447c-1.23249,0.8198 -1.94981,2.23997 -3.06491,3.21346c-3.39252,2.96171 -3.59983,2.87703 -6.85847,4.50433c-4.33654,1.98694 -7.20941,4.35978 -11.0087,7.04692c-1.49936,1.06045 -3.07995,2.01744 -4.72619,2.8314c-0.85493,0.4227 -1.93715,0.32575 -2.73031,0.85534c-0.51609,0.34459 -0.92654,0.83035 -1.32653,1.32664c1.49884,-0.07015 2.24827,1.4287 2.24827,1.4287c10.56775,21.14733 29.26931,36.24181 39.62083,57.44413c1.04329,0.71881 2.42287,1.10509 3.12987,2.15642c1.06056,1.57706 1.24691,3.59137 1.9285,5.36544c0.47235,1.22945 1.23903,2.358 1.53216,3.64203c0.19911,0.87221 -0.46379,1.87043 -0.08835,2.68249c0.65305,1.41254 2.21075,2.23915 2.98726,3.58778c0.88594,1.53868 0.85465,5.31853 2.62736,6.45679c1.24266,0.79791 3.12198,-0.09714 4.37787,0.67979c3.26519,2.01992 3.8867,6.9701 5.77507,9.78883c0.73728,1.10053 2.04339,1.72036 2.84389,2.7758c1.89438,2.49771 2.83798,5.5906 4.2498,8.38953c0.60881,1.20697 1.74529,2.14197 2.17241,3.42454c0.59931,1.79963 -0.01141,3.93773 0.85306,5.62608c1.37729,2.68991 4.99079,4.48354 6.06391,7.14167c0.49431,1.22441 0.12687,2.63781 0.1903,3.95671c0,1 0.17048,2.01464 0,3c-0.00066,0.00379 -0.00137,0.00757 -0.00214,0.01135z" fill="#ffffff" stroke="none" stroke-width="0.5"/><path d="M454.6228,221.15623c0.71442,-1 2.07163,-1 2.07163,-1l4.40046,0.03228c0.11216,0.08562 0.22433,0.17125 0.33649,0.25687l0.05362,-0.16086l2.94531,0.98177c1.02156,0.31417 1.76412,1.26534 1.76412,2.38994c0,1.38071 -1.11929,2.5 -2.5,2.5c-5,0 -13,0 -18,0c-8.35792,0 -17.00543,0.62638 -25.31735,-0.3072c-3.97355,-0.4463 -7.29162,-2.2005 -11.08311,-2.72508c-1.37823,-0.19069 -2.82377,0.30148 -4.17393,-0.0346c-1.44657,-0.36007 -2.56748,-1.58754 -4,-2c-0.90532,-0.26066 -1.89787,0.19576 -2.82607,0.0346c-3.66261,-0.63594 -6.57494,-3.11337 -10.10221,-4.01877c-0.93562,-0.24016 -1.94954,0.20285 -2.89779,0.01877c-1.35381,-0.26281 -2.71408,-0.66111 -3.91387,-1.34109c-0.72942,-0.4134 -0.94473,-1.50065 -1.7089,-1.84562c-0.70583,-0.31863 -1.55332,0.10997 -2.32311,0.02545c-2.84795,-0.31269 -5.67488,-0.8589 -8.53621,-1.00523c-4.77882,-1.89982 -9.49992,-1.92154 -14.19342,-4.04461c-1.23192,-0.55725 -2.2141,-1.57094 -3.42344,-2.17563c-2.7093,-1.35469 -5.74694,-2.22247 -8.08558,-4.14764c-1.0522,-0.86617 -1.76728,-2.11383 -2.8768,-2.90525c-2.13026,-1.51952 -4.81058,-2.42124 -6.47158,-4.44313c-3.94597,-4.80332 -7.09908,-9.96423 -10.23654,-15.34338c-1.00663,-1.72586 -2.814,-6.25375 -3.23039,-7.54256c-0.20649,-0.63913 0.10388,-1.44146 -0.27489,-1.99613c-0.80149,-1.17368 -2.06173,-1.95676 -3.09259,-2.93514c0,0 -1.76777,-1.76777 0,-3.53553c1.76777,-1.76777 3.53553,0 3.53553,0c1.32616,1.37864 2.92993,2.53595 3.97848,4.13592c0.54902,0.83774 0.34011,1.98166 0.65404,2.9328c0.25213,0.76391 1.96975,5.10257 2.76961,6.45744c3.05275,5.17099 6.1041,9.93065 9.76346,14.65662c1.34156,1.73259 3.74612,2.2821 5.52842,3.55687c1.19207,0.85261 2.00348,2.14912 3.1232,3.09475c2.04602,1.72791 4.80387,2.36864 7.19919,3.56627c1.16582,0.58289 2.11141,1.55767 3.2918,2.11047c2.62945,1.23141 5.7036,1.10852 8.51659,1.82786c1.59257,0.40725 3.04984,1.22763 4.57475,1.84144c2.69722,0.08792 5.36949,0.55711 8.04297,0.92485c1.26541,0.17406 2.63337,-0.10859 3.81296,0.38146c1.60173,0.66541 2.65739,2.58865 4.37723,2.81329c1.02538,0.13393 2.10177,-0.24288 3.10221,0.01877c3.27167,0.85569 6.4836,3.4386 9.89779,3.98123c1.04492,0.16607 2.15603,-0.25409 3.17393,0.0346c1.43415,0.40674 2.55418,1.6369 4,2c1.237,0.31065 2.56424,-0.2202 3.82607,-0.0346c3.77712,0.55557 6.88937,2.25808 10.81639,2.68913c8.13789,0.89327 16.60195,0.27858 24.78316,0.27858c2.97612,0 5.95225,0 8.92837,0z" fill="#ffffff" stroke="none" stroke-width="0.5"/><path d="M345.96147,344.80787c0.44452,-0.46445 1.14374,-0.81899 2.22324,-0.60309c2.45145,0.49029 1.96116,2.94174 1.96116,2.94174l-0.01942,0.0971c-0.40928,1.86409 -0.12163,4.03707 -1.22785,5.59226c-0.14229,0.20004 -0.30068,0.38311 -0.47217,0.55237l0.03575,0.03575l-2,2c-0.45241,0.45241 -1.07741,0.73223 -1.76777,0.73223c-1.28702,0 -2.3469,-0.97254 -2.48481,-2.22282l-0.37571,-3.00571c-0.58125,-4.68568 -0.86186,-7.40834 -3.45092,-11.31897c-1.39937,-6.68166 -4.34621,-13.17872 -5.16413,-19.94896c-0.39405,-3.26173 0.55218,-6.63885 -0.11584,-9.85567c-0.69878,-3.36489 -3.12969,-8.91329 -4.63366,-12.00812c-0.58935,-1.21275 -1.74191,-2.1359 -2.16766,-3.4153c-0.34994,-1.05159 0.11074,-2.23139 -0.07499,-3.324c-0.17665,-1.03919 -0.83216,-1.95936 -1,-3c-0.28905,-1.79219 0.86058,-3.76986 0.15802,-5.44375c-0.2742,-0.6533 -1.17219,-0.82569 -1.62366,-1.37174c-1.102,-1.33285 -2.0706,-2.76765 -3.04198,-4.20086c-0.92873,0.8491 -1.58503,2.02729 -2.64843,2.70299c-2.71085,1.72251 -6.01736,2.52453 -8.46293,4.60659c-6.90952,5.88248 -14.47067,11.47824 -19.89525,18.78194c-1.03367,1.39174 -2.10844,2.75551 -3.24844,4.06158c-0.7832,0.8973 -2.03997,1.44674 -2.51341,2.53963c-0.60644,1.39991 -0.17995,3.06426 -0.55481,4.54311c-0.91752,3.61967 -2.37873,4.41603 -4.27836,7.73415c-0.55277,0.96554 -0.70129,2.14998 -1.35483,3.05038c-2.76008,3.80264 -6.02942,5.30915 -7.86705,9.78082c-0.60281,0.84639 -1.48592,1.55136 -1.80842,2.53916c-0.31036,0.95062 0.31623,2.05132 0,3c-0.38006,1.14018 -1.59414,1.86875 -2,3c-0.25643,0.71475 0.07151,1.51703 0.10727,2.27554v4c0,1.38071 -1.11929,2.5 -2.5,2.5c-1.32366,0 -2.40705,-1.0287 -2.49433,-2.33024l-0.38179,-4.96329c-1.01604,-3.7174 -0.62251,-9.40146 -0.62388,-13.20647v-2c0,0 0,-2.5 2.5,-2.5c2.5,0 2.5,2.5 2.5,2.5v2c-0.00016,0.41886 0.00037,0.83784 0.00219,1.25687c0.10252,-0.14566 0.20204,-0.29274 0.29666,-0.44217c0.53066,-1.2252 0.81428,-2.59029 1.59198,-3.67559c1.79637,-2.50689 4.73696,-4.04219 6.54098,-6.54358c0.55555,-0.77032 0.62767,-1.8041 1.09817,-2.62912c1.286,-2.25501 3.21536,-4.09345 3.85443,-6.68686c0.43266,-1.75577 0.11045,-3.71048 0.8594,-5.35638c1.33608,-2.93618 4.3169,-4.80744 6.23815,-7.39879c5.64766,-7.6175 13.44856,-13.5927 20.70955,-19.65429c2.61405,-2.18225 6.0585,-3.13046 8.93227,-4.95718c1.13908,-0.72406 1.76363,-2.07724 2.84089,-2.88707c-0.04024,-0.63382 0.16977,-1.37665 1.03534,-2.02583c1.30069,-0.97552 2.3899,-0.47072 2.99258,0.00156c0.01526,-0.00982 0.03047,-0.0197 0.04564,-0.02967c1.46454,-0.96187 2.45504,-2.50069 3.69401,-3.73966c0.19406,-0.19406 6.05868,-6.06313 6.16445,-6.15041c0.7634,-0.6299 2.06017,-0.68036 2.53236,-1.55018c0.76182,-1.40334 0.22969,-3.2471 0.86677,-4.71129c0.87536,-2.01185 3.18749,-3.27973 3.77106,-5.39474c0.72671,-2.63378 -0.48748,-6.10043 -0.0346,-8.82607c0.34555,-2.07967 1.71434,-3.91126 2,-6c0.18067,-1.32104 -0.18856,-2.68007 0,-4c0.14907,-1.0435 0.82049,-1.9613 1,-3c0.54542,-3.15599 -0.31073,-6.28426 0.4788,-9.5111c0.78503,-3.2084 1.89281,-6.33921 2.53746,-9.57873c0,0 0.49029,-2.45145 2.94174,-1.96116c2.45145,0.49029 1.96116,2.94174 1.96116,2.94174c-0.6602,3.28546 -1.74067,6.47249 -2.56783,9.71994c-0.78275,3.07311 0.07838,6.12551 -0.4159,9.19023c-0.16784,1.04064 -0.85093,1.9565 -1,3c-0.18856,1.31993 0.1956,2.68109 0,4c-0.30928,2.08538 -1.65207,3.92072 -2,6c-0.48522,2.89974 0.79536,6.33282 -0.0346,9.17393c-0.50913,1.74285 -1.426,3.35825 -2.40502,4.88739c-0.45033,0.70337 -1.49505,0.95016 -1.82392,1.71787c-0.68395,1.59658 -0.20676,3.60154 -1.09439,5.09451c-0.7481,1.25828 -2.40001,1.68556 -3.50648,2.64402c-2.08179,1.80329 -3.88802,3.90207 -5.83555,5.84959c-0.30308,0.30308 -3.93931,3.95199 -4.28618,4.24473c0.79385,1.15162 1.59326,2.299 2.45177,3.40253c0.72523,0.93221 1.94742,1.52781 2.37634,2.62826c0.90715,2.32739 -0.23644,4.27376 0.15802,6.55625c0.17951,1.0387 0.83045,1.95963 1,3c0.14353,0.88073 -0.35772,1.82962 -0.07499,2.676c0.33462,1.00169 1.36614,1.63707 1.83234,2.5847c1.63486,3.32308 4.33903,9.66897 5.08024,13.27665c0.82015,3.99189 -0.30544,6.23468 0.16615,10.14075c0.77149,6.39012 3.70067,12.42462 4.83997,18.76985c1.62467,2.4196 2.43677,4.66691 2.95561,7.10414z" fill="#ffffff" stroke="none" stroke-width="0.5"/></g></g></svg>