<svg version="1.1" xmlns="http://www.w3.org/2000/svg" xmlns:xlink="http://www.w3.org/1999/xlink" width="629" height="292.70817" viewBox="0,0,629,292.70817"><defs><linearGradient x1="282.94435" y1="109.66483" x2="282.94435" y2="205.96595" gradientUnits="userSpaceOnUse" id="color-1"><stop offset="0" stop-color="#000000"/><stop offset="1" stop-color="#bbbbbb"/></linearGradient><linearGradient x1="104.31434" y1="255.43253" x2="120.18601" y2="297.04061" gradientUnits="userSpaceOnUse" id="color-2"><stop offset="0" stop-color="#000000"/><stop offset="1" stop-color="#000000" stop-opacity="0"/></linearGradient><linearGradient x1="366.1471" y1="254.36252" x2="350.27543" y2="295.9706" gradientUnits="userSpaceOnUse" id="color-3"><stop offset="0" stop-color="#000000"/><stop offset="1" stop-color="#000000" stop-opacity="0"/></linearGradient><linearGradient x1="194.94435" y1="110.19984" x2="194.94435" y2="204.36093" gradientUnits="userSpaceOnUse" id="color-4"><stop offset="0" stop-color="#000000"/><stop offset="1" stop-color="#bbbbbb"/></linearGradient><linearGradient x1="241.02279" y1="245.11907" x2="241.02279" y2="272.40439" gradientUnits="userSpaceOnUse" id="color-5"><stop offset="0" stop-color="#000000"/><stop offset="1" stop-color="#000000" stop-opacity="0"/></linearGradient><linearGradient x1="374.14135" y1="152.93896" x2="405.64135" y2="152.93896" gradientUnits="userSpaceOnUse" id="color-6"><stop offset="0" stop-color="#000000"/><stop offset="1" stop-color="#000000" stop-opacity="0"/></linearGradient><linearGradient x1="338.29334" y1="152.94843" x2="373.29334" y2="152.94843" gradientUnits="userSpaceOnUse" id="color-7"><stop offset="0" stop-color="#000000" stop-opacity="0"/><stop offset="1" stop-color="#000000"/></linearGradient><linearGradient x1="95.88577" y1="144.38834" x2="140.38577" y2="144.38834" gradientUnits="userSpaceOnUse" id="color-8"><stop offset="0" stop-color="#000000"/><stop offset="1" stop-color="#000000" stop-opacity="0"/></linearGradient><linearGradient x1="59.88577" y1="150.00591" x2="97.38577" y2="150.00591" gradientUnits="userSpaceOnUse" id="color-9"><stop offset="0" stop-color="#000000" stop-opacity="0"/><stop offset="1" stop-color="#000000"/></linearGradient><linearGradient x1="250" y1="31.30989" x2="250" y2="175.76158" gradientUnits="userSpaceOnUse" id="color-10"><stop offset="0" stop-color="#000000"/><stop offset="1" stop-color="#000000" stop-opacity="0"/></linearGradient><radialGradient cx="240.54519" cy="176.79373" r="69.08298" gradientUnits="userSpaceOnUse" id="color-11"><stop offset="0" stop-color="#000000" stop-opacity="0"/><stop offset="1" stop-color="#000000"/></radialGradient></defs><g transform="translate(64.5,-31.3099)"><g data-paper-data="{&quot;isPaintingLayer&quot;:true}" fill-rule="nonzero" stroke-linejoin="miter" stroke-miterlimit="10" stroke-dasharray="" stroke-dashoffset="0" style="mix-blend-mode: normal"><path d="M-7.34161,321.1241l9.58803,-21.8775l57.71758,-38.84872l-5.66461,-53.28823l-53.66411,26.95282l-8.97689,-175.17268h496l-7.11869,176.34883l-52.63724,-26.24473l-6.16773,50.90253l58.86415,40.33621l8.05951,19.82149l-115.00519,-74.20675l-65.08666,0.08893l-1.32889,-137.31894l-133.67226,-0.61155l0.00137,138.11223l-75.00096,0.10522z" fill="#69421e" stroke="#000000" stroke-width="2" stroke-linecap="butt"/><g data-paper-data="{&quot;index&quot;:null}"><path d="M-0.61423,302.97096l2.5,-69.0158l53,-27.28532l6.5,53.50062z" fill="#8c8c8c" stroke="none" stroke-width="0" stroke-linecap="butt"/><path d="M60.78856,260.62099h-58.5" fill="none" stroke="#000000" stroke-width="2" stroke-linecap="round"/><path d="M26.78856,221.65001v39.59046l-26,16.58519" fill="none" stroke="#000000" stroke-width="2" stroke-linecap="round"/></g><path d="M261.19435,202.22091l0.5,-57.24566l44.5,-35.84542l0.5,135.89159z" fill="url(#color-1)" stroke="none" stroke-width="0" stroke-linecap="butt"/><path d="M174.88229,245.82086l42.5,-42.26549l44.5,-0.53501l44.5,42.8005z" fill="#d6c2be" stroke="none" stroke-width="0" stroke-linecap="butt"/><path d="M96.93726,246.50072v-187.54245h277v187.54246h-67.78701l0.17749,-136.49551l-131.17749,0.31091v136.18461z" fill="#aca65e" stroke="#000000" stroke-width="2" stroke-linecap="butt"/><path d="M-9.89807,321.69011l107.37027,-75.76817h276.36377l117.16596,74.70019z" fill="#d6c2be" stroke="#000000" stroke-width="2" stroke-linecap="butt"/><path d="M312.76631,179.4836v-42.73429h38.33001v42.7343z" fill="#ffffff" stroke="#000000" stroke-width="2" stroke-linecap="butt"/><path d="M326.96413,236.54029v-42.17071h34.75844v42.17072z" fill="#ffffff" stroke="#000000" stroke-width="2" stroke-linecap="butt"/><path d="M103.98312,157.36028v-32.05072h19.165v32.05072z" fill="#ffffff" stroke="#000000" stroke-width="2" stroke-linecap="butt"/><path d="M104.13719,238.07269v-42.73429h22.75844v42.7343z" fill="#ffffff" stroke="#000000" stroke-width="2" stroke-linecap="butt"/><path d="M125.65408,121.27651v-42.73429h20.36282v42.7343z" fill="#ffffff" stroke="#000000" stroke-width="2" stroke-linecap="butt"/><path d="M172.38261,102.65558l-19.38598,-22.37644l7.81955,-4.52856l19.38598,22.37644z" fill="#000000" stroke="#000000" stroke-width="2" stroke-linecap="butt"/><path d="M304.09662,97.23802l19.38599,-20.15734l7.81956,4.07945l-19.38598,20.15734z" data-paper-data="{&quot;index&quot;:null}" fill="#000000" stroke="#000000" stroke-width="2" stroke-linecap="butt"/><path d="M331.8538,150.13375v-49.41154h27.54969v49.41154z" fill="#ffffff" stroke="#000000" stroke-width="2" stroke-linecap="butt"/><path d="M128.0497,194.34148v-25.37349h16.76937v25.37349z" fill="#ffffff" stroke="#000000" stroke-width="2" stroke-linecap="butt"/><path d="M385.99284,178.2366l2.77066,-95.06614l65.69695,13.90794l-2.83609,102.96843z" fill="#00fbff" stroke="#000000" stroke-width="2" stroke-linecap="butt"/><g stroke-linecap="butt"><path d="M223.78128,103.05495l17.5,-24.99083l17.10188,24.99083z" fill="#ff0000" stroke="#000000" stroke-width="2"/><text transform="translate(237.62176,100.90229) scale(0.68248,0.54084)" font-size="40" xml:space="preserve" fill="#000000" fill-rule="nonzero" stroke="none" stroke-width="1" stroke-linecap="butt" stroke-linejoin="miter" stroke-miterlimit="10" stroke-dasharray="" stroke-dashoffset="0" font-family="Sans Serif" font-weight="normal" text-anchor="start" style="mix-blend-mode: normal"><tspan x="0" dy="0">!</tspan></text></g><path d="M147.15025,247.45241l-81,73.83086" fill="none" stroke="#000000" stroke-width="2" stroke-linecap="round"/><g stroke="none" stroke-width="0" stroke-linecap="butt"><path d="M234.21103,76.84738v-44.32185h13.54279v44.32185z" fill="#ab6115"/><path d="M258.37953,83.65944c0,6.45955 -33.24139,6.45955 -33.24139,0c0,-6.45955 7.44134,-11.69604 16.62069,-11.69604c9.17935,0 16.6207,5.2365 16.6207,11.69604z" fill="#844a10"/></g><g stroke-linecap="butt"><g data-paper-data="{&quot;index&quot;:null}" fill="#663f3f" stroke="#000000" stroke-width="0.5"><path d="M437.08511,130.94756l0.99416,-1.1488l2.30065,2.27949l-0.99416,1.14881z"/><path d="M437.59634,132.82583l0.99416,-1.14881l2.30065,2.27949l-0.99416,1.14881z"/><path d="M436.51852,128.55718l0.99416,-1.1488l2.30065,2.27949l-0.99416,1.14881z"/><path d="M435.06277,130.23936l0.99417,-1.14881l2.30065,2.27949l-0.99416,1.14881z"/><path d="M439.08759,131.10262l0.99417,-1.14881l2.30065,2.2795l-0.99416,1.14881z"/><path d="M435.88215,133.48986l4.11868,-4.75934l1.22701,1.21573l-4.11868,4.75934z"/></g><g fill="#663f3f" stroke="#000000" stroke-width="0.5"><path d="M409.27476,124.30738l-0.30048,-1.53231l3.06868,-0.68896l0.30048,1.53231z"/><path d="M407.93358,125.63693l-0.30048,-1.53231l3.06868,-0.68896l0.30049,1.53231z"/><path d="M410.90956,122.56912l-0.30049,-1.53231l3.06868,-0.68895l0.30048,1.53231z"/><path d="M411.34955,124.81287l-0.30049,-1.53231l3.06868,-0.68896l0.30049,1.53231z"/><path d="M407.48285,123.33847l-0.30048,-1.53231l3.06868,-0.68897l0.30049,1.53231z"/><path d="M410.51662,126.82818l-1.24484,-6.34815l1.63663,-0.36744l1.24484,6.34815z"/></g><path d="M441.60755,149.56781c-2.98168,11.52432 -14.69154,18.45426 -26.11454,15.07047c-11.423,-3.38379 -17.02739,-15.95325 -14.04571,-27.47756c1.0261,-3.9659 1.62935,-7.77661 4.2426,-10.62207c4.98045,-5.42302 13.6541,-7.96065 21.14606,-5.74133c11.423,3.3838 17.75327,17.24619 14.77159,28.77049z" fill="#00c3c5" stroke="#929292" stroke-width="1"/><path d="M414.95523,137.64871c-0.76887,2.20696 -2.74265,3.45739 -4.40856,2.7929c-1.66592,-0.66449 -2.39311,-2.99225 -1.62425,-5.19923c0.76887,-2.20696 2.74265,-3.4574 4.40856,-2.79291c1.66592,0.66449 2.39311,2.99227 1.62425,5.19924z" fill="#000000" stroke="none" stroke-width="0"/><path d="M433.44069,145.50734c-0.76887,2.20696 -2.74265,3.45739 -4.40856,2.7929c-1.66592,-0.66449 -2.39311,-2.99226 -1.62425,-5.19924c0.76887,-2.20696 2.74265,-3.45739 4.40856,-2.7929c1.66592,0.66449 2.39311,2.99227 1.62425,5.19924z" fill="#000000" stroke="none" stroke-width="0"/><path d="M409.27955,135.65781c0.40659,-1.57149 1.92679,-2.49276 3.39547,-2.05771c1.46867,0.43506 2.32966,2.06169 1.92307,3.6332c-0.40659,1.57149 -1.92679,2.49276 -3.39547,2.05771c-1.46867,-0.43506 -2.32966,-2.06169 -1.92307,-3.6332z" fill="#fff1f1" stroke="none" stroke-width="0"/><path d="M427.91276,143.56019c0.40659,-1.57149 1.92679,-2.49277 3.39547,-2.05771c1.46867,0.43506 2.32966,2.06169 1.92307,3.6332c-0.40659,1.57149 -1.92679,2.49277 -3.39547,2.05771c-1.46867,-0.43506 -2.32966,-2.06169 -1.92307,-3.6332z" fill="#fff1f1" stroke="none" stroke-width="0"/><path d="M411.0115,136.34105c0.11294,-0.43653 0.53522,-0.69243 0.94319,-0.57159c0.40797,0.12085 0.64713,0.57269 0.53419,1.00922c-0.11294,0.43653 -0.53522,0.69244 -0.94319,0.57159c-0.40797,-0.12085 -0.64713,-0.57269 -0.53419,-1.00923z" fill="#000000" stroke="none" stroke-width="0.5"/><path d="M429.45606,144.35775c0.11294,-0.43653 0.53522,-0.69243 0.94319,-0.57159c0.40797,0.12085 0.64713,0.57269 0.53419,1.00922c-0.11294,0.43653 -0.53522,0.69244 -0.94319,0.57159c-0.40797,-0.12085 -0.64713,-0.57269 -0.53419,-1.00923z" fill="#000000" stroke="none" stroke-width="0.5"/><path d="M429.47698,153.17398c0.14744,0.80481 -0.60472,0.96257 -0.60472,0.96257l-0.54058,0.09991c-2.77017,1.15211 -5.81343,1.59884 -8.54415,2.77048c-4.00584,1.07987 -6.47704,-3.21149 -8.72284,-5.98786c-1.22577,-1.51536 -2.57064,-3.08798 -2.49207,-5.19202c0,0 0.05566,-0.81798 0.82011,-0.75841c0.76445,0.05955 0.70878,0.87753 0.70878,0.87753c-0.18293,1.48117 1.27712,2.95165 2.12695,4.00527c1.58383,1.96364 4.08475,6.52956 7.07412,5.49946c2.74614,-1.1284 5.71371,-1.57819 8.46988,-2.74168l0.80492,-0.18231c0,0 0.75215,-0.15776 0.89959,0.64706z" fill="#000000" stroke="none" stroke-width="0.5"/><path d="M406.05159,119.75723c0,0 -2.63472,-6.28933 -0.29393,-7.57001c2.34079,-1.28069 5.79756,5.17734 5.79756,5.17734c0,0 1.11185,3.10248 -1.22894,4.38318c-2.34079,1.28069 -4.27469,-1.99051 -4.27469,-1.99051z" fill="#00c3c5" stroke="#000000" stroke-width="0"/><path d="M439.67693,130.10178c-1.39199,-2.38643 1.05267,-4.43538 1.05267,-4.43538c0,0 6.0685,-3.63641 7.46049,-1.24996c1.39199,2.38643 -3.8904,6.33049 -3.8904,6.33049c0,0 -3.23077,1.74129 -4.62277,-0.64515z" data-paper-data="{&quot;index&quot;:null}" fill="#00c3c5" stroke="#000000" stroke-width="0"/><path d="M407.3435,119.54413c0,0 -1.54992,-3.6998 -0.17291,-4.45319c1.37701,-0.75339 3.41051,3.04566 3.41051,3.04566c0,0 0.65407,1.82509 -0.72295,2.57848c-1.37701,0.75339 -2.51466,-1.17096 -2.51466,-1.17096z" fill="#00a5a8" stroke="#000000" stroke-width="0"/><path d="M440.72246,129.5175c-0.81887,-1.40386 0.61926,-2.60919 0.61926,-2.60919c0,0 3.5699,-2.13918 4.38876,-0.73531c0.81887,1.40386 -2.2886,3.72403 -2.2886,3.72403c0,0 -1.90055,1.02434 -2.71942,-0.37953z" data-paper-data="{&quot;index&quot;:null}" fill="#00a5a8" stroke="#000000" stroke-width="0"/><path d="M422.4728,145.96771c-0.41254,0.94364 -1.83364,1.16466 -3.17412,0.4937c-1.34047,-0.67096 -2.09271,-1.97985 -1.68016,-2.9235c0.41254,-0.94364 1.83364,-1.16467 3.17412,-0.49371c1.34047,0.67096 2.09271,1.97986 1.68016,2.9235z" fill="#00b1b4" stroke="none" stroke-width="0"/><path d="M419.10878,144.39018c0.11294,-0.43653 0.53522,-0.69243 0.94319,-0.57159c0.40797,0.12085 0.64713,0.57269 0.53419,1.00922c-0.11294,0.43653 -0.53522,0.69244 -0.94319,0.57159c-0.40797,-0.12085 -0.64713,-0.57269 -0.53419,-1.00923z" fill="#000000" stroke="none" stroke-width="0.5"/></g><path d="M323.15025,247.45241l81,73.83086" data-paper-data="{&quot;index&quot;:null}" fill="none" stroke="#000000" stroke-width="2" stroke-linecap="round"/><path d="M251.69887,200.99357l28.45138,44.31883l36,74.90088" data-paper-data="{&quot;index&quot;:null}" fill="none" stroke="#000000" stroke-width="2" stroke-linecap="round"/><path d="M45.15025,285.97286h390" fill="none" stroke="#000000" stroke-width="2" stroke-linecap="round"/><path d="M82.15025,258.15254h311" fill="none" stroke="#000000" stroke-width="2" stroke-linecap="round"/><path d="M171.61608,320.61142l-181.87167,0.65742l106.13985,-74.42695l78.37167,-2.26243z" fill="url(#color-2)" stroke="none" stroke-width="0" stroke-linecap="butt"/><path d="M307.2055,246.18448l67.37167,-0.41259l118.63985,75.49696l-194.87167,-1.72743z" data-paper-data="{&quot;index&quot;:null}" fill="url(#color-3)" stroke="none" stroke-width="0" stroke-linecap="butt"/><path d="M359.30381,202.48527c-0.44721,0.95705 -1.34164,0.47852 -1.34164,0.47852l-1,-0.53501c-2.17917,-1.18318 -3.11691,-0.78629 -5.31025,-0.18648c-1.3118,0.34124 -2.77173,-0.08095 -4.01279,0.27083c-1.44066,0.40835 -1.95954,1.10213 -3.57669,0.49717c-1.40161,-0.52433 -3.73816,-3.20081 -4.92685,-3.14388c-1.15035,0.0551 -2.04945,1.03008 -3.06655,1.51141c-1.41376,0.66905 -2.90232,0.93619 -4.38494,1.39025c0,0 -0.96152,0.29396 -1.23625,-0.73489c-0.27472,-1.02884 0.68681,-1.3228 0.68681,-1.3228c2.2558,-0.68849 5.82975,-3.03123 8.04851,-2.9834c1.91174,0.0412 3.74688,2.4652 5.57316,3.2762c1.07542,0.47757 1.38082,-0.30569 2.4233,-0.57286c1.30134,-0.3335 2.66253,0.10263 3.98722,-0.26417c2.63155,-0.6846 4.10668,-1.01667 6.68975,0.34852l1,0.53501c0,0 0.89442,0.47853 0.44721,1.43557z" fill="#000000" stroke="none" stroke-width="0.5" stroke-linecap="butt"/><path d="M356.8038,212.38289c-0.44721,0.95704 -1.34164,0.47852 -1.34164,0.47852l-0.65278,-0.36855c-1.03544,-1.05576 -3.09829,-0.23158 -4.65,-1.39101c-2.43122,1.78628 -6.17836,3.18444 -9.06972,3.7275c-1.11331,0.2091 -1.90137,0.61355 -2.98343,-0.16107c-1.14614,-0.82048 -1.36273,-3.44492 -2.76308,-3.88885c-1.36852,-0.43383 -3.73722,0.05491 -5.18377,0.05491c0,0 -1,0 -1,-1.07001c0,-1.07001 1,-1.07001 1,-1.07001c1.61013,0 4.30888,-0.51391 5.81623,0.0549c1.3732,0.51819 2.61895,4.34107 3.70756,4.22545c3.63043,-0.38558 7.14996,-2.52987 10.47621,-4.01284c2.06064,0.91934 4.1454,0.60889 5.85,1.81902l0.34722,0.16646c0,0 0.89443,0.47853 0.44721,1.43558z" fill="#000000" stroke="none" stroke-width="0.5" stroke-linecap="butt"/><path d="M359.40938,225.54702c0,1.07001 -1,1.07001 -1,1.07001l-0.50747,-0.03194c-1.26301,0.33785 -2.87141,1.15797 -4.03074,-0.11208c-0.52447,-0.57456 -0.49003,-2.83581 -1.05044,-3.66424c-2.1183,0.45564 -4.21594,0.66827 -6.16084,1.79207c-1.46296,0.84533 -2.74804,3.7619 -4.52647,3.88836c-0.17906,0.01273 -2.96719,-2.27432 -3.0367,-2.32511c-2.52639,-1.84592 -5.74203,-4.23038 -8.74014,-2.60257c0,0 -0.89443,0.47853 -1.34164,-0.47852c-0.44722,-0.95705 0.44721,-1.43557 0.44721,-1.43557c3.29186,-1.73979 6.23914,-0.22772 9.17463,1.70235c1.06104,0.69762 2.34046,1.4742 3.25532,2.38515c0.15744,0.15677 0.08236,0.66025 0.29321,0.61495c0.89374,-0.19203 2.50319,-3.0309 3.47354,-3.60173c2.43617,-1.43313 5.11408,-1.82964 7.83915,-1.95298c1.38144,1.38203 1.85201,2.48867 1.94957,4.36085c0.03823,0.73361 1.30309,-0.46886 1.96926,-0.64707l0.99254,-0.03195c0,0 1,0.00001 1,1.07002z" fill="#000000" stroke="none" stroke-width="0.5" stroke-linecap="butt"/><path d="M358.3038,232.71313c-0.44721,0.95704 -1.34164,0.47852 -1.34164,0.47852l-0.29532,-0.18648c-1.13986,-0.30596 -2.20268,-0.50613 -3.37965,-0.51107c-2.31991,-0.60348 -3.70054,0.74622 -5.91619,0.54223c-0.85455,-0.07868 -1.60408,-0.8196 -2.46163,-0.80173c-1.95535,0.04075 -3.64009,0.29573 -5.56771,-0.00246c-1.69436,-0.2621 -4.1063,1.32692 -5.93229,1.33998c0,0 -1,0 -1,-1.07001c0,-1.07001 1,-1.07002 1,-1.07002c2.01545,0.01841 4.10087,-1.51869 6.06771,-1.33506c2.65899,0.24827 5.29923,0.45402 7.97067,0.80084c2.10576,0.27337 3.72534,-1.18083 6.0838,-0.52778c1.25132,-0.00569 2.40945,0.23604 3.62036,0.55894l0.70468,0.34852c0,0 0.89443,0.47852 0.44721,1.43557z" fill="#000000" stroke="none" stroke-width="0.5" stroke-linecap="butt"/><path d="M348.19903,167.15618c-0.7071,0.75661 -1.41422,0 -1.41422,0l-0.03543,-0.25356c-3.36471,-0.93168 -7.03551,0.52151 -10.25,-0.2675c-1.08115,-0.29566 -1.95553,-1.02406 -2.98721,-1.33419c-2.31974,-0.69735 -5.46119,1.11207 -8,0.53501c-2.58751,-0.58812 -5.84991,-0.47729 -8.52771,0.26417c0,0 -0.97015,0.25952 -1.21268,-0.77854c-0.24254,-1.03807 0.7276,-1.29758 0.7276,-1.29758c2.95624,-0.76899 6.61193,-0.98779 9.47229,-0.27083c2.59827,0.65126 5.4828,-1.16195 8,-0.535c1.05393,0.26251 1.934,1.0602 3.01278,1.34085c1.2048,0.36372 1.80348,-0.29017 3.00746,-0.29945c2.21536,-0.01708 5.06058,-0.00064 7.24254,0.56695l0.96457,0.81646c0,0 0.7071,0.75662 0,1.51323z" fill="#000000" stroke="none" stroke-width="0.5" stroke-linecap="butt"/><path d="M347.49192,172.81964c0,1.07001 -1,1.07001 -1,1.07001l-0.87782,-0.00802c-2.50293,0.66954 -4.51491,0.77697 -7.01088,-0.00233c-2.76829,0.00651 -6.04368,2.29072 -8.72042,1.87647c-1.4401,-0.22286 -1.64511,-1.62391 -2.87063,-1.89476c-0.9296,-0.20546 -2.06513,0.29286 -3.02025,0.29613c-2.05465,0.00703 -4.08767,-0.27106 -6.12403,-0.54327c0,0 -0.99228,-0.13272 -0.86825,-1.19447c0.12404,-1.06175 1.11631,-0.92903 1.11631,-0.92903c2.13345,0.28551 4.58102,0.835 6.75378,0.53476c0.86354,-0.11933 1.75345,-0.45607 2.60194,-0.24689c0.98861,0.24373 1.76255,1.77823 2.62936,1.85028c2.71762,0.22588 5.92378,-1.87297 8.77959,-1.86857c2.40976,0.72304 4.05115,0.64983 6.48911,-0.00233l1.12218,-0.00802c0,0 1,0 1,1.07001z" fill="#000000" stroke="none" stroke-width="0.5" stroke-linecap="butt"/><path d="M356.99192,129.3661c0,1.07001 -1,1.07002 -1,1.07002l-0.50746,-0.03196c-2.3361,0.563 -3.54638,-0.76672 -5.68165,-1.32487c-1.3705,-0.35824 -2.68277,1.0652 -4.0371,1.08901c-1.63347,0.02872 -4.17871,-0.09334 -5.57428,-0.97892c-0.51912,-0.32942 -0.84636,-1.02193 -1.42926,-1.18943c-0.79802,-0.22931 -1.99637,0.58832 -2.77771,0.7992c0,0 -0.97015,0.25952 -1.21268,-0.77856c-0.24253,-1.03808 0.72761,-1.29758 0.72761,-1.29758c1.24415,-0.32945 2.38523,-1.15178 3.72229,-0.80584c0.80776,0.209 1.3812,0.98928 2.07074,1.48561c0.93988,0.67653 3.29614,0.59749 4.42572,0.6261c1.56321,0.03959 2.7357,-1.43651 4.4629,-1.05101c1.7058,0.38073 3.01899,1.90972 4.81835,1.35017l0.99254,-0.03194c0,0 1,0 1,1.07001z" fill="#000000" stroke="none" stroke-width="0.5" stroke-linecap="butt"/><path d="M355.94903,136.81029c-0.70711,0.75662 -1.41422,0 -1.41422,0l-0.42557,-0.57056c-3.08176,0.30603 -5.51615,-0.72048 -8.34707,-1.55219c-1.18126,-0.34705 -2.99441,0.68596 -4.17171,0.82592c-1.79655,0.21357 -3.85224,-0.10942 -5.59108,-0.56175c0,0 -0.97014,-0.25952 -0.7276,-1.29758c0.24253,-1.03807 1.21268,-0.77854 1.21268,-0.77854c1.49947,0.4152 3.35162,0.69343 4.90892,0.50826c1.57424,-0.18717 3.21415,-1.18664 4.82829,-0.7791c1.04588,0.26407 1.79387,1.1833 2.89243,1.3169c1.87763,0.22835 3.87373,0.23103 5.7605,0.34094l1.07443,1.03446c0,0 0.7071,0.75662 0,1.51323z" fill="#000000" stroke="none" stroke-width="0.5" stroke-linecap="butt"/><path d="M355.19061,140.67209c-0.31623,1.01511 -1.26491,0.67674 -1.26491,0.67674l-0.43377,-0.21259c-1.9225,-0.00647 -4.68994,-1.59468 -6.52025,-1.09864c-2.83633,0.76869 -6.26198,2.10425 -9.22229,1.33419c0,0 -0.97014,-0.25952 -0.72761,-1.29758c0.24253,-1.03807 1.21268,-0.77854 1.21268,-0.77854c2.63989,0.73098 5.73314,-0.79747 8.27771,-1.34083c2.26879,-0.48448 4.68356,1.05051 6.97975,1.04139l1.06623,0.32241c0,0 0.94869,0.33837 0.63245,1.35347z" fill="#000000" stroke="none" stroke-width="0.5" stroke-linecap="butt"/><path d="M356.49192,144.88128c0,1.07001 -1,1.07001 -1,1.07001h-0.25c-1.67823,-0.0098 -2.86932,-0.83121 -4.38273,-1.07948c-1.11187,-0.1824 -2.27218,1.36957 -3.40882,1.34606c-0.87323,-0.01808 -1.46584,-1.03888 -2.27467,-1.3915c-1.71328,-0.7469 -4.99627,0.6421 -6.56238,1.3159c0,0 -0.92848,0.39739 -1.29987,-0.59609c-0.37139,-0.99347 0.55709,-1.39087 0.55709,-1.39087c2.12459,-0.90506 5.62733,-2.23937 7.93762,-1.35913c0.65987,0.25141 1.02565,1.3186 1.72533,1.28352c1.3144,-0.06589 2.00482,-1.47887 3.59118,-1.32897c1.42455,0.13461 2.55787,1.07163 4.11727,1.06055h0.25c0,0 1,0 1,1.07001z" fill="#000000" stroke="none" stroke-width="0.5" stroke-linecap="butt"/><path d="M121.35287,147.54551c0,1.07001 -1,1.07002 -1,1.07002h-0.5c-1.66846,-0.01523 -3.04444,0.99044 -4.72185,0.14088c-0.57858,-0.29304 -0.68129,-1.32278 -1.29507,-1.51723c-0.5419,-0.17167 -1.05008,0.49093 -1.61088,0.56582c-2.0333,0.27151 -4.14945,-0.03382 -6.11472,-0.55893c0,0 -0.97014,-0.25952 -0.7276,-1.29758c0.24253,-1.03807 1.21267,-0.77854 1.21267,-0.77854c1.73005,0.46335 3.59425,0.75113 5.38529,0.51107c0.65267,-0.08748 1.79287,-0.68452 2.38912,-0.5042c0.74606,0.22564 1.02773,1.28891 1.70493,1.69281c0.89171,0.53183 2.78605,-0.38703 3.77814,-0.39411h0.5c0,0 1,0 1,1.07001z" fill="#000000" stroke="none" stroke-width="0.5" stroke-linecap="butt"/><path d="M120.85287,153.69807c0,1.07001 -1,1.07002 -1,1.07002h-0.5c-4.29463,0 -8.53145,-0.8359 -12.86043,-1.34405c0,0 -0.99388,-0.11816 -0.88345,-1.18162c0.11043,-1.06348 1.10431,-0.9453 1.10431,-0.9453c4.26052,0.51251 8.41398,1.33096 12.63957,1.33096h0.5c0,0 1,0.00001 1,1.07002z" fill="#000000" stroke="none" stroke-width="0.5" stroke-linecap="butt"/><path d="M141.60287,182.77803c0,1.07001 -1,1.07002 -1,1.07002l-0.00747,-0.03195c-0.85345,0.22201 -2.65188,1.47662 -3.40271,1.35564c-0.76672,-0.12354 -1.03028,-1.2989 -1.7225,-1.67266c-0.48404,-0.26135 -1.05139,0.3544 -1.59353,0.34866c-0.94401,-0.01 -2.2259,-0.55013 -3.09001,-0.85712c0,0 -0.94868,-0.33836 -0.63245,-1.35347c0.31623,-1.0151 1.26491,-0.67673 1.26491,-0.67673c1.58663,0.56831 3.44424,-0.02786 4.81646,0.56154c0.59474,0.25546 0.64015,1.46562 1.2775,1.53738c0.18622,0.02096 2.14517,-1.19575 2.59728,-1.31939l0.49253,-0.03194c0,0 1,0 1,1.07001z" fill="#000000" stroke="none" stroke-width="0.5" stroke-linecap="butt"/><path d="M141.49729,189.67663c-0.44721,0.95705 -1.34164,0.47852 -1.34164,0.47852l-0.05279,-0.15453c-2.16621,-0.01547 -2.38168,-0.95411 -3.9927,-2.01141c-1.05707,-0.69375 -3.53661,0.13889 -4.7573,0.13889c0,0 -1,-0.00001 -1,-1.07002c0,-1.07001 1,-1.07001 1,-1.07001c1.77991,0 4.10116,-0.82807 5.7427,0.13889c1.52612,0.89897 1.1418,1.75068 3.0073,1.73363l0.94721,0.38046c0,0 0.89443,0.47852 0.44721,1.43557z" fill="#000000" stroke="none" stroke-width="0.5" stroke-linecap="butt"/><path d="M139.99029,176.10397c0.27407,0.04451 0.86258,0.23566 0.86258,1.05651c0,1.07001 -1,1.07002 -1,1.07002l-0.95711,-0.31341c-1.66256,-1.94941 -5.95037,-2.03645 -8.28543,-2.66108c0,0 -0.97014,-0.25952 -0.7276,-1.29758c0.24254,-1.03807 1.21267,-0.77854 1.21267,-0.77854c2.79063,0.7465 6.59107,0.92104 8.89489,2.9241z" fill="#000000" stroke="none" stroke-width="0.5" stroke-linecap="butt"/><path d="M122.57301,218.36394c0.24253,1.03807 -0.72761,1.29758 -0.72761,1.29758l-1.12035,0.29144c-1.94848,0.01138 -3.17609,0.1645 -4.75486,-0.87595c-0.3957,-0.26077 -0.85069,0.40521 -1.29278,0.55855c-1.20579,0.41823 -4.80942,1.3269 -6.07454,1.12793c-0.65886,-0.10362 -1.47924,-0.20053 -1.85749,-0.787c-0.33368,-0.51736 0.09156,-1.25337 0.13735,-1.88004c0,0 0.24253,-1.03806 1.21267,-0.77855c0.97015,0.25952 0.72761,1.29758 0.72761,1.29758c-0.34859,0.2499 2.99476,-0.67723 4.18132,-0.78932c0.74391,-0.07027 1.38336,-0.64014 2.11879,-0.77909c0.81867,-0.15467 1.61674,0.4621 2.36244,0.85533c0.54328,0.28651 2.33865,-0.0781 2.99514,-0.07343l0.87964,-0.24358c0,0 0.97015,-0.25952 1.21268,0.77855z" fill="#000000" stroke="none" stroke-width="0.5" stroke-linecap="butt"/><path d="M122.10287,223.97351c0,1.07001 -1,1.07001 -1,1.07001h-0.75c-1.10652,-0.01831 -2.37743,-0.7179 -3.37781,-0.54302c-2.57785,0.45065 -5.26616,0.91952 -7.86472,0.24356c0,0 -0.97014,-0.25951 -0.7276,-1.29758c0.24253,-1.03807 1.21267,-0.77855 1.21267,-0.77855c2.39154,0.66221 4.76611,-0.04272 7.13529,-0.29143c1.41858,-0.14891 2.21038,0.55881 3.62218,0.52699h0.75c0,0 1,0 1,1.07001z" fill="#000000" stroke="none" stroke-width="0.5" stroke-linecap="butt"/><path d="M123.57301,231.45562c-0.24254,1.03807 -1.21268,0.77856 -1.21268,0.77856l-0.87964,-0.24357c-1.0833,0 -2.63299,-0.8716 -3.64806,-0.55561c-2.88782,0.89897 -5.31455,1.13892 -8.40864,0.54638c0,0 -0.98387,-0.19141 -0.80498,-1.24417c0.17888,-1.05275 1.16275,-0.86134 1.16275,-0.86134c2.92322,0.57861 4.90135,0.1229 7.59136,-0.52364c1.44212,-0.34661 2.9045,0.5144 4.35194,0.5144l1.12035,0.29143c0,0 0.97015,0.25951 0.72761,1.29758z" fill="#000000" stroke="none" stroke-width="0.5" stroke-linecap="butt"/><path d="M143.57301,108.80984c0.24254,1.03808 -0.72761,1.29757 -0.72761,1.29757l-1.12035,0.29143c-1.87436,0.01338 -4.40413,0.37183 -6.11488,-0.66588c-0.58169,-0.35283 -0.77757,-1.26036 -1.38998,-1.54758c-1.18456,-0.55555 -3.58387,0.60729 -4.86732,0.61646c0,0 -1,0 -1,-1.07001c0,-1.07001 1,-1.07001 1,-1.07001c1.72792,0.01578 3.93258,-1.22566 5.63269,-0.45355c0.68653,0.31179 0.96472,1.26233 1.61001,1.66245c1.26632,0.78518 3.49647,0.39144 4.88512,0.40413l0.87964,-0.24357c0,0 0.97015,-0.25951 1.21268,0.77855z" fill="#000000" stroke="none" stroke-width="0.5" stroke-linecap="butt"/><path d="M142.4973,116.23544c-0.44721,0.95705 -1.34164,0.47853 -1.34164,0.47853l-0.5,-0.2675c-1.45302,-0.83679 -3.07425,-0.48382 -4.67497,-0.69756c-1.56103,-0.20845 -2.68009,-1.16362 -4.10757,-1.62562c-0.75346,-0.24385 -2.31986,0.64636 -3.07413,0.81035c0,0 -0.98059,0.20985 -1.1767,-0.83939c-0.19612,-1.04923 0.78446,-1.25907 0.78446,-1.25907c1.31186,-0.27557 2.55101,-1.12251 3.92587,-0.79466c1.36959,0.3266 2.42996,1.38839 3.89243,1.58441c1.90431,0.25523 3.54036,-0.00045 5.32503,0.90745l0.5,0.2675c0,0 0.89443,0.47853 0.44721,1.43557z" fill="#000000" stroke="none" stroke-width="0.5" stroke-linecap="butt"/><path d="M167.45052,103.47851l15.21457,-10.35438l-2.76885,13.31708z" fill="#000000" stroke="#000000" stroke-width="2" stroke-linecap="butt"/><path d="M303.46938,107.51122l-2.76885,-13.31708l15.21456,10.35437z" data-paper-data="{&quot;index&quot;:null}" fill="#000000" stroke="#000000" stroke-width="2" stroke-linecap="butt"/><path d="M216.78936,202.68159v-57.78067h45.5v57.78068z" fill="#000000" stroke="none" stroke-width="0" stroke-linecap="butt"/><path d="M174.69435,245.55642l-0.5,-135.35658l42.5,35.31041l-0.5,58.31568z" fill="url(#color-4)" stroke="none" stroke-width="0" stroke-linecap="butt"/><path d="M216.69435,146.58026l-43,-36.91544l133,0.53501l-46,37.45044z" fill="#0b0b0b" stroke="none" stroke-width="0" stroke-linecap="butt"/><path d="M263.69435,204.89594v-27.28531l9.5,-6.42008l-0.5,42.26549z" fill="#0b0b0b" stroke="none" stroke-width="0" stroke-linecap="butt"/><path d="M277.19435,218.27111v-48.68557l19,-10.16511l0.5,78.11091z" fill="#0b0b0b" stroke="none" stroke-width="0" stroke-linecap="butt"/><path d="M185.19435,235.92631l0.5,-78.11091l19,10.16512v48.68557z" data-paper-data="{&quot;index&quot;:null}" fill="#0b0b0b" stroke="none" stroke-width="0" stroke-linecap="butt"/><path d="M208.19435,211.85103v-40.66048l7,5.35007v28.35533z" data-paper-data="{&quot;index&quot;:null}" fill="#0b0b0b" stroke="none" stroke-width="0" stroke-linecap="butt"/><path d="M185.69435,204.36093l-10.5,-12.84015l41,-6.95508" fill="none" stroke="#000000" stroke-width="2" stroke-linecap="round"/><path d="M296.69435,189.38077l10.5,17.1202l-45.5,-14.44517" fill="none" stroke="#000000" stroke-width="2" stroke-linecap="round"/><path d="M261.69435,183.49569l45.5,8.5601l-10.5,10.70012" fill="none" stroke="#000000" stroke-width="2" stroke-linecap="round"/><path d="M216.19435,195.26584l-41.5,12.30514l10.5,-18.19021" fill="none" stroke="#000000" stroke-width="2" stroke-linecap="round"/><path d="M308.19435,192.0558v15.51518" fill="none" stroke="#000000" stroke-width="2" stroke-linecap="round"/><path d="M173.69435,207.57098v-16.58519" fill="none" stroke="#000000" stroke-width="2" stroke-linecap="round"/><path d="M205.19435,187.77575l3,8.5601" fill="none" stroke="#000000" stroke-width="2" stroke-linecap="round"/><path d="M208.19435,186.70573l-3.5,11.77014" fill="none" stroke="#000000" stroke-width="2" stroke-linecap="round"/><path d="M276.19435,196.33585l-2,-10.16512" fill="none" stroke="#000000" stroke-width="2" stroke-linecap="round"/><path d="M277.19435,186.17073l-4.5,10.16512" fill="none" stroke="#000000" stroke-width="2" stroke-linecap="round"/><path d="M177.65782,198.16954c-0.01182,0.05616 -0.0237,0.11139 -0.03567,0.16571c0.01334,-0.01713 0.02668,-0.03431 0.03999,-0.05151c0.01988,-0.02566 0.01729,-0.06448 -0.00432,-0.11421zM174.57367,202.36304c-0.05568,0.03324 -0.11245,0.06682 -0.17034,0.10079l-0.26853,-0.98856h-0.34879v-1.28402c0,-1.82318 0.04529,-3.45713 0.25683,-5.14821l-0.03741,0.008l-0.19595,-1.04835c-0.01537,-0.07455 -0.02347,-0.15202 -0.02347,-0.2315c0,-0.59095 0.44772,-1.07002 1,-1.07002c0.37065,0 0.6942,0.21576 0.86693,0.53631l0.51355,0.91585c0.97782,0.73758 2.93174,1.8494 3.3434,3.06042c0.82479,2.42639 -2.98906,5.22554 -3.7954,7.44094c0,0 -0.3714,0.99348 -1.29987,0.59609c-0.92847,-0.39739 -0.55708,-1.39086 -0.55708,-1.39086c0.20582,-0.53937 0.44781,-1.03309 0.71613,-1.49687z" fill="#ff0000" stroke="none" stroke-width="0.5" stroke-linecap="butt"/><path d="M184.20544,192.48299c0,0 -0.19612,-1.04923 0.78447,-1.25907c0.98058,-0.20984 1.1767,0.83938 1.1767,0.83938c0.42569,2.33014 0.41941,4.68154 0.41941,7.05793c0,0.5921 0.05637,2.61626 -0.29289,2.89663c-2.01682,1.6191 -4.2272,-2.06704 -4.49244,-3.78404c-0.22565,-1.46073 0.91333,-2.84735 1.55548,-3.98971l0.04497,-0.03282l-0.01512,-0.01214l0.59302,-0.84605c0.08593,-0.12539 0.19676,-0.23003 0.32471,-0.30554c-0.02959,-0.18865 -0.06226,-0.37686 -0.09831,-0.56459z" fill="#ff0000" stroke="none" stroke-width="0.5" stroke-linecap="butt"/><path d="M177.61604,193.18102c-0.22134,0.10342 -0.44071,0.20635 -0.65864,0.29961c0,0 -0.92848,0.39739 -1.29987,-0.59608c-0.37139,-0.99347 0.55708,-1.39088 0.55708,-1.39088c1.17892,-0.50457 6.18743,-2.50842 7.19946,-0.6764c1.2513,2.26515 -2.94341,6.174 -4.8978,4.3905c-0.85746,-0.78248 -1.07121,-1.48297 -0.90024,-2.02675z" fill="#ff0000" stroke="none" stroke-width="0.5" stroke-linecap="butt"/><path d="M181.76866,203.20842c0.09506,0.01381 0.18586,0.03369 0.27131,0.06004c-0.18464,-0.11225 -0.3363,-0.19164 -0.27199,-0.09285zM181.61059,200.79462c1.51559,0.17523 3.3396,2.24063 2.65471,3.75831c-0.48411,1.07279 -3.41304,1.47826 -5.51829,1.70484l-0.63241,0.406c-0.15336,0.10238 -0.33452,0.16153 -0.52859,0.16153c-0.55229,0 -1,-0.47906 -1,-1.07002c0,-0.24478 0.07682,-0.47036 0.20607,-0.65065l0.59393,-0.84736l0.05056,0.04056l0.04233,-0.15518c1.3447,-1.01084 1.51614,-3.15695 2.50711,-4.59345c0,0 0.6,-0.85601 1.4,-0.21401c0.69921,0.56113 0.32896,1.28573 0.22457,1.4594z" fill="#ff0000" stroke="none" stroke-width="0.5" stroke-linecap="butt"/><path d="M305.85357,194.20582c0.08862,-0.26449 0.29128,-0.53264 0.73633,-0.62788c0.98058,-0.20985 1.1767,0.83938 1.1767,0.83938c0.43077,2.30614 -0.44082,4.75831 0.01455,6.73849l-0.02984,0.10544h0.0347v1.07001c0,0.59095 -0.44772,1.07002 -1,1.07002c-0.27614,0 -0.52614,-0.11977 -0.7071,-0.3134l-0.8,-0.85601l0.16622,-0.17786c-1.52136,-1.32062 -3.12616,-3.30459 -2.37826,-5.06629c0.13108,-0.30879 1.0579,-0.8276 1.92201,-1.15016l-0.00287,-0.56836c0,0 0,-0.97332 0.86756,-1.06336z" fill="#ff0000" stroke="none" stroke-width="0.5" stroke-linecap="butt"/><path d="M300.15413,199.28445c0.44703,-0.3238 0.97012,-0.49337 1.65309,-0.35073c0.87327,0.18239 2.14049,1.84975 2.64576,3.4343c0.84792,0.72206 1.41099,1.65519 0.7611,2.70315c-0.40162,0.64762 -1.42033,0.47842 -2.1443,0.41522c-0.94693,-0.08267 -2.40103,-0.74068 -3.6441,-1.44135l-0.03579,0.19146l-0.98183,-0.21012c-0.15678,-0.03013 -0.30086,-0.09935 -0.42314,-0.19791c-0.22499,-0.03854 -0.46455,-0.17656 -0.6564,-0.5187c-0.5145,-0.91753 0.343,-1.46804 0.343,-1.46804c0.53194,-0.32928 0.95006,-0.85987 1.36596,-1.38145c-0.37097,0.33217 -0.76294,0.64342 -1.14901,0.93227l-0.71582,0.95741c-0.18309,0.24922 -0.4674,0.4093 -0.78664,0.4093c-0.55228,0 -1,-0.47906 -1,-1.07001v-0.99088c-0.39374,-2.15179 0.39472,-3.52254 0.60419,-5.52702c0.10873,-1.04045 -0.40173,-2.4175 -0.40419,-3.54021c0,0 0,-1.07001 1,-1.07001c1,0 1,1.07001 1,1.07001c-0.00092,0.36221 0.04321,0.73802 0.1028,1.11807c0.09389,-0.03124 0.19371,-0.04806 0.2972,-0.04806c0.22876,0 0.43959,0.08219 0.60808,0.22048l0.79192,0.63553l-0.06088,0.08685l0.14559,0.06765c-0.14216,-0.51931 -0.29481,-0.9708 -0.48471,-1.2245c0,0 -0.6,-0.85601 0.2,-1.49802c0.8,-0.64201 1.4,0.214 1.4,0.214c0.05514,0.0821 0.13539,0.20971 0.22968,0.36965c1.46665,-1.04513 4.30415,-0.66286 4.56781,1.26652c0.09962,0.72902 -0.62029,1.78549 -1.55599,2.63961c-0.14315,0.35372 -0.41912,0.5492 -0.76077,0.61429c-0.7003,0.49626 -1.42927,0.82823 -1.98383,0.81775c0.00491,0.8553 -0.36829,1.64997 -0.92878,2.37351z" fill="#ff0000" stroke="none" stroke-width="0.5" stroke-linecap="butt"/><path d="M204.98602,194.62718c-1,0 -1,-1.07002 -1,-1.07002v-1.07001c0.00326,-0.6466 -0.05894,-1.29681 -0.18058,-1.93018c0,0 -0.19611,-1.04923 0.78447,-1.25907c0.98058,-0.20984 1.1767,0.83938 1.1767,0.83938c0.14114,0.77257 0.21615,1.56271 0.21941,2.34988v1.07001c0,0 0,1.07002 -1,1.07002z" fill="#ff0000" stroke="none" stroke-width="0.5" stroke-linecap="butt"/><path d="M205.58602,195.91118c0,-0.59095 0.44771,-1.07001 1,-1.07001c0.55229,0 1,0.47906 1,1.07001c0,0.59095 -0.44771,1.07002 -1,1.07002c-0.55229,0 -1,-0.47907 -1,-1.07002z" fill="#ff0000" stroke="none" stroke-width="0.5" stroke-linecap="butt"/><path d="M208.18602,193.77116c-1,0 -1,-1.07001 -1,-1.07001v-1.07001c0,0 0,-1.07001 1,-1.07001c1,0 1,1.07001 1,1.07001v1.07001c0,0 0,1.07001 -1,1.07001z" fill="#ff0000" stroke="none" stroke-width="0.5" stroke-linecap="butt"/><path d="M205.58602,187.35108c0,-0.59095 0.44771,-1.07001 1,-1.07001c0.55229,0 1,0.47906 1,1.07001c0,0.59095 -0.44771,1.07002 -1,1.07002c-0.55229,0 -1,-0.47907 -1,-1.07002z" fill="#ff0000" stroke="none" stroke-width="0.5" stroke-linecap="butt"/><path d="M273.98602,195.69719c0,-0.59095 0.44772,-1.07001 1,-1.07001c0.55228,0 1,0.47906 1,1.07001c0,0.59095 -0.44772,1.07001 -1,1.07001c-0.55228,0 -1,-0.47907 -1,-1.07001z" fill="#ff0000" stroke="none" stroke-width="0.5" stroke-linecap="butt"/><path d="M277.18602,195.26919c-1,0 -1,-1.07001 -1,-1.07001v-0.428c0,-1.45404 -0.19402,-2.83625 -0.2,-4.28005c0,0 0,-1.07001 1,-1.07001c1,0 1,1.07001 1,1.07001c-0.00724,1.4335 0.2,2.83049 0.2,4.28005v0.428c0,0 0,1.07001 -1,1.07001z" fill="#ff0000" stroke="none" stroke-width="0.5" stroke-linecap="butt"/><path d="M272.98602,194.19916c-1,0 -1,-1.07001 -1,-1.07001l0.01942,-0.00417c-0.3488,-1.90926 -0.14688,-3.87096 0.2,-5.76975c0,0 0.19612,-1.04923 1.1767,-0.83938c0.98058,0.20985 0.78446,1.25907 0.78446,1.25907c-0.3072,1.59955 -0.50887,3.32214 -0.2,4.93037l0.01942,0.42386c0,0 0,1.07001 -1,1.07001z" fill="#ff0000" stroke="none" stroke-width="0.5" stroke-linecap="butt"/><path d="M238.50742,321.11396v-75.61422v-43.15717" fill="none" stroke="#000000" stroke-width="2" stroke-linecap="round"/><path d="M165.03221,321.5428l26.33333,-75.97089l32.66667,-42.795" fill="none" stroke="#000000" stroke-width="2" stroke-linecap="round"/><path d="M194.36554,227.38722h92.33333" fill="none" stroke="#000000" stroke-width="2" stroke-linecap="round"/><path d="M273.03221,213.12039h-65.66667" fill="none" stroke="#000000" stroke-width="2" stroke-linecap="round"/><path d="M215.36554,204.56029h48" fill="none" stroke="#000000" stroke-width="2" stroke-linecap="round"/><path d="M351.23099,114.81637c-0.03947,-0.02788 -0.07874,-0.05555 -0.11746,-0.08296c0.02253,0.08965 0.04407,0.17336 0.06615,0.24271c0.01662,0.05221 0.03341,0.10392 0.0503,0.15517c0.00067,-0.05715 0.00101,-0.11496 0.00101,-0.17347zM349.56502,116.04533c0.00162,0.4941 0.00499,0.94355 -0.00238,1.35968c0.0018,0.22065 0.00169,0.46368 0.00168,0.73652c0.18679,-0.26637 0.34155,-0.51653 0.33333,-0.68702c-0.01853,-0.38449 -0.16005,-0.87761 -0.33264,-1.40918zM347.40904,116.68517c0.0102,-0.52339 0.05781,-0.90972 0.15529,-1.01401v-1.00399c-0.29705,0.17311 -0.55565,0.39744 -0.74279,0.70012c-0.09678,0.15653 0.22954,0.74962 0.5875,1.31788zM345.3485,113.93797c1.46859,-1.8498 5.73398,-3.53217 7.25626,-2.23346c0.92004,0.78492 1.58568,3.60021 2.24999,4.72659c0.04511,1.45081 0.49859,4.18908 -0.58332,5.34673c-0.95648,1.02344 -5.37963,1.52211 -6.70711,1.38341c-0.57462,-0.06004 -1.28346,0.10631 -1.70711,-0.31339c-0.38451,-0.38093 -0.15747,-1.11006 -0.27998,-1.65522c-0.4814,-2.14217 -1.30488,-4.2423 -1.9616,-6.2531c0,0 -0.31623,-1.0151 0.63246,-1.35347c0.57714,-0.20585 0.92021,0.08922 1.1004,0.35192zM350.35042,120.62216c0.15202,-0.0044 0.31229,-0.00884 0.47545,-0.01443l-0.12378,-0.39733c-0.10972,0.14221 -0.22719,0.28134 -0.35167,0.41177zM351.0336,119.73987c-0.01232,0.01905 -0.02479,0.03816 -0.03742,0.05731l0.04475,-0.01596c-0.00251,-0.01381 -0.00495,-0.0276 -0.00733,-0.04136z" fill="#9966ff" stroke="none" stroke-width="0.5" stroke-linecap="butt"/><path d="M354.56432,116.3845c0,1.07001 -1,1.07001 -1,1.07001l-0.35044,-0.05491c-0.56694,0.20221 -1.13972,0.46088 -1.71687,0.74035c0.37448,1.00191 0.73788,2.01329 1.0544,3.06654l0.01291,1.24141c0,0 0,1.07001 -1,1.07001c-1,0 -1,-1.07001 -1,-1.07001l0.01291,-0.89862c-0.27949,-0.85577 -0.5829,-1.68672 -0.89261,-2.51053c-1.36418,0.66294 -2.74383,1.23708 -4.1203,1.26911c0,0 -1,0 -1,-1.07001c0,-1.07001 1,-1.07001 1,-1.07001c1.03405,0.03843 2.21722,-0.43946 3.40144,-1.02811c-0.35779,-0.95337 -0.70584,-1.91541 -1.01679,-2.91357c0,0 -0.31623,-1.0151 0.63246,-1.35347c0.94868,-0.33837 1.26491,0.67674 1.26491,0.67674c0.2825,0.90682 0.59722,1.78402 0.92095,2.65263c0.6362,-0.33056 1.24935,-0.63122 1.81414,-0.83267l0.98289,-0.05492c0,0 1,0.00001 1,1.07001z" fill="#000000" stroke="none" stroke-width="0.5" stroke-linecap="butt"/><path d="M341.79208,109.01627c-0.44721,0.95705 -1.34164,0.47852 -1.34164,0.47852l-0.77048,-0.4214c-0.19997,0.72459 -0.36047,1.54061 -0.46133,2.38397c0.18918,-0.06625 0.34569,-0.06625 0.34569,-0.06625c1.94822,0 3.78744,0.74426 5.66667,0.71335h1c0,0 1,0.00001 1,1.07001c0,1.07001 -1,1.07001 -1,1.07001h-1c-1.92208,-0.02289 -3.7013,-0.71334 -5.66667,-0.71334c0,0 -0.22618,0 -0.46341,-0.1151c0.00067,0.23327 0.00703,0.46488 0.01949,0.69351c2.09313,1.00332 3.81884,2.43766 5.58244,3.82826c0.49429,0.38974 3.77146,-0.12662 4.52814,-0.12662h0.66667c0,0 1,0.00001 1,1.07002c0,1.07001 -1,1.07001 -1,1.07001h-0.66667c-1.34985,0 -4.29235,0.56079 -5.47186,-0.12662c-0.4335,-0.25264 -0.55455,-0.88151 -0.90192,-1.2568c-0.68425,-0.73927 -2.02465,-1.46734 -3.31675,-2.04488c0.00556,0.03116 0.01097,0.06744 0.01517,0.10765c0.88423,0.62461 1.38054,4.3521 1.66245,5.28928l0.01291,1.24141c0,0 0,1.07001 -1,1.07001c-1,0 -1,-1.07001 -1,-1.07001l0.01291,-0.89862c-0.04717,-0.14506 -0.25206,-0.81127 -0.44822,-1.56347c-0.09666,0.89517 -0.23136,1.76695 -0.23136,2.10542c0,0 0,1.07001 -1,1.07001c-1,0 -1,-1.07001 -1,-1.07001c0,-1.41621 -0.17504,-4.87427 0.95287,-6.07679c-0.09227,-0.35492 -0.16686,-0.72143 -0.22511,-1.0963c-0.01479,-0.00513 -0.02945,-0.01022 -0.04399,-0.01524c0,0 -0.94868,-0.33837 -0.63246,-1.35347c0.11386,-0.3655 0.30972,-0.55553 0.51377,-0.64907c-0.02714,-1.99165 0.30346,-4.05362 0.81957,-5.77101l-0.05132,-0.01831c0,0 0,-0.02468 0.0035,-0.06654c-0.32214,-0.26825 -0.56924,-0.51059 -0.61604,-0.65621c-0.66424,-2.06696 2.37446,-5.0941 4.23566,-4.22473c0.47604,0.22236 0.83151,0.55842 1.07613,0.94296c0.14277,0.13358 0.25964,0.33192 0.2919,0.62642c0.20234,0.63684 0.15811,1.30802 -0.09818,1.78162c0.30233,0.53697 -0.06091,1.12 -0.06091,1.12l-0.65806,1.0562c-0.04536,0.07515 -0.09928,0.14383 -0.16028,0.20446c-0.01344,0.12457 -0.05049,0.26046 -0.11928,0.40769z" fill="#757575" stroke="none" stroke-width="0.5" stroke-linecap="butt"/><path d="M338.56432,104.97104c0,-0.59095 0.44772,-1.07001 1,-1.07001c0.55228,0 1,0.47906 1,1.07001c0,0.59095 -0.44772,1.07001 -1,1.07001c-0.55228,0 -1,-0.47907 -1,-1.07001z" fill="#000000" stroke="none" stroke-width="0.5" stroke-linecap="butt"/><path d="M340.89766,106.04105c0,-0.59095 0.44772,-1.07001 1,-1.07001c0.55228,0 1,0.47907 1,1.07001c0,0.59095 -0.44772,1.07001 -1,1.07001c-0.55228,0 -1,-0.47906 -1,-1.07001z" fill="#000000" stroke="none" stroke-width="0.5" stroke-linecap="butt"/><path d="M341.84634,108.51945c-0.31623,1.0151 -1.26491,0.67674 -1.26491,0.67674c-0.33333,-0.11889 -1.66667,-0.59446 -2,-0.71335c0,0 -0.94868,-0.33837 -0.63246,-1.35347c0.31623,-1.0151 1.26491,-0.67674 1.26491,-0.67674c0.33333,0.11889 0.66667,0.23778 1,0.35667l1,0.35667c0,0 0.94868,0.33837 0.63246,1.35347z" fill="#000000" stroke="none" stroke-width="0.5" stroke-linecap="butt"/><path d="M314.74199,146.95145c0,-1.07001 1,-1.07001 1,-1.07001l-0.22137,0.1797c1.33333,-0.95112 2.66667,-1.90224 4,-2.85337c0,0 0.07638,-0.05449 0.19827,-0.10568c-0.00729,-0.37273 0.03918,-0.71923 0.1008,-1.05997c-0.23508,0.00665 -0.47103,-0.03368 -0.70083,-0.12999c-2.79325,-1.17064 -1.66577,-3.02301 0.0968,-3.69359c-0.1586,-0.27853 -0.32345,-0.78785 0.15255,-1.29717c0.70711,-0.75662 1.41421,0 1.41421,0l0.18093,0.22298c0.46372,0.41879 1.19385,0.64237 1.39117,1.25638c0.21128,0.65745 0.06358,1.40434 -0.29372,2.04988c-0.06642,0.73147 -0.33697,1.50581 -0.36479,2.22614c3.0847,0.10142 6.42287,1.60857 8.21135,4.39448l0.16795,0.9502c0,0 0,1.07002 -1,1.07002c-1,0 -1,-1.07002 -1,-1.07002l0.16795,0.23687c-1.24144,-2.07839 -3.86073,-3.23329 -6.14667,-3.42003c0.38151,1.48194 0.75871,2.74354 0.48044,4.37689c0.81527,0.39928 1.20726,1.9741 1.44697,2.74795c0.6332,2.04413 0.71798,4.6047 0.71798,6.75844l0.22776,0.23481c0,0 0.44721,0.95705 -0.44721,1.43558c-0.89443,0.47852 -1.34164,-0.47852 -1.34164,-0.47852l-0.43891,-1.19187c0,-1.6911 -0.0613,-3.52325 -0.32042,-5.17866c-0.05659,-0.36153 -0.18303,-0.70375 -0.31114,-1.04596c-0.04353,1.99713 -1.0351,5.08318 -1.0351,6.58129c0,0 0,1.07001 -1,1.07001c-1,0 -1,-1.07001 -1,-1.07001c0,-2.63768 0.51362,-5.11758 1.01291,-7.66148c0.09833,-0.50101 -0.17684,-1.17833 0.17585,-1.52427c0.04721,-0.04631 0.09665,-0.0915 0.14804,-0.13531c0.01054,-0.17097 0.04785,-0.29075 0.04785,-0.29075c0.53706,-1.64443 0.11226,-2.81165 -0.29059,-4.14946c-1.17979,0.84159 -2.35957,1.68318 -3.53936,2.52477l-0.88803,0.17971c0,0 -1,0 -1,-1.07001z" fill="#00fff3" stroke="none" stroke-width="0.5" stroke-linecap="butt"/><path d="M348.96975,155.99007c-0.44721,0.95705 -1.34164,0.47852 -1.34164,0.47852l-0.21945,-0.24371c-1.22745,0 -2.13616,-0.00555 -3.31623,-0.41158c0,0 -0.12716,-0.04536 -0.27285,-0.15267c-0.13119,0.51226 -0.27834,1.02159 -0.43518,1.52877c0.48275,0.57076 0.92483,1.4258 1.30627,2.62048l0.33333,1.07002c0,0 0.31623,1.0151 -0.63246,1.35347c-0.94868,0.33837 -1.26491,-0.67674 -1.26491,-0.67674l-0.33333,-1.07002c-1.1518,-3.81918 -2.28568,-2.06725 -3.88593,0.61185c0,0 -0.5547,0.89031 -1.38675,0.29677c-0.83205,-0.59354 -0.27735,-1.48384 -0.27735,-1.48384c1.32136,-2.05828 2.88043,-3.60433 4.32018,-3.64697c0.07735,-0.2535 0.15315,-0.50913 0.22566,-0.76648c-0.98405,0.2589 -1.90515,0.37027 -3.04712,0.37027h-1c0,0 -1,0 -1,-1.07001c0,-1.07001 1,-1.07002 1,-1.07002h1c1.38229,0 2.27767,-0.16574 3.56769,-0.6174c0.06911,-0.50672 0.10626,-1.01522 0.09897,-1.52262v-0.35666c0,0 0,-1.07001 1,-1.07001c1,0 1,1.07001 1,1.07001v0.35666c-0.00755,0.72556 -0.07502,1.44191 -0.18655,2.15101c0.27192,-0.03841 0.50278,0.04392 0.50278,0.04392c0.95925,0.35869 1.66978,0.30177 2.68377,0.30177l1.11388,0.46964c0,0 0.89443,0.47852 0.44721,1.43557z" fill="#cebc97" stroke="none" stroke-width="0.5" stroke-linecap="butt"/><path d="M112.16271,196.37642l0.3674,0.39579c-0.06292,0.56522 0.14175,1.24964 -0.18876,1.69566c-0.15785,0.21303 -0.44828,0.40001 -0.81124,0.54518v0.61253c0,1.08365 0.04625,2.15085 0.10429,3.21132c1.69944,0.0298 3.45144,0.48829 5.05589,1.08254l0.83982,-0.01381c0,0 1,0 1,1.07001c0,1.07001 -1,1.07001 -1,1.07001l-1.16018,-0.01382c-1.46329,-0.50539 -3.06561,-1.02039 -4.61252,-1.05468c0.0492,0.89139 0.09024,1.78266 0.10238,2.67963c0.68823,1.29196 1.00101,3.20013 1.28567,4.11391l0.33333,1.07001c0,0 0.31623,1.0151 -0.63246,1.35347c-0.94868,0.33837 -1.26491,-0.67674 -1.26491,-0.67674l-0.33333,-1.07002c-0.05472,-0.17567 -0.35034,-1.21813 -0.60079,-2.19727c-0.0961,1.20051 -0.40876,2.60087 -0.50184,2.91062c0,0 -0.31623,1.0151 -1.26491,0.67674c-0.94868,-0.33837 -0.63246,-1.35346 -0.63246,-1.35346c0.43407,-1.32908 -0.31778,-5.33141 1.16814,-5.96874c0.14211,-0.06096 0.27828,-0.10471 0.40881,-0.13268c-0.02364,-0.60352 -0.05598,-1.20646 -0.09061,-1.81015c-0.74161,0.22907 -1.48591,0.44198 -2.22142,0.70495l-0.27579,0.45485c0,0 -0.70711,0.75662 -1.41421,0c-0.70711,-0.75662 0,-1.51323 0,-1.51323l1.05755,-0.97182c0.90429,-0.32181 1.82133,-0.5691 2.72984,-0.86469c-0.04628,-0.91213 -0.08028,-1.82961 -0.08028,-2.75693v-0.2985c-0.9154,-0.04909 -1.74052,-0.38188 -1.94587,-1.1376c-0.61403,-2.25974 2.34185,-3.15539 3.61254,-3.20062c0,0 1,0 1,1.07001c0,0.11848 -0.01226,0.22385 -0.03407,0.31754z" fill="#cc0000" stroke="none" stroke-width="0.5" stroke-linecap="butt"/><path d="M105.93691,209.13379c-1,0 -1,-1.07001 -1,-1.07001v-0.35667c0.00875,-0.60885 -0.09428,-1.22684 -0.28202,-1.80166c0,0 -0.31623,-1.0151 0.63246,-1.35347c0.94868,-0.33837 1.26491,0.67674 1.26491,0.67674c0.23959,0.79725 0.37594,1.641 0.38465,2.47839v0.35667c0,0 0,1.07001 -1,1.07001z" fill="#272727" stroke="none" stroke-width="0.5" stroke-linecap="butt"/><path d="M107.89727,197.00697c0,-0.59095 0.44772,-1.07001 1,-1.07001c0.55228,0 1,0.47906 1,1.07001c0,0.59095 -0.44772,1.07002 -1,1.07002c-0.55228,0 -1,-0.47907 -1,-1.07002z" fill="#000000" stroke="none" stroke-width="0.5" stroke-linecap="butt"/><path d="M110.56394,197.00697c0,-0.59095 0.44772,-1.07001 1,-1.07001c0.55228,0 1,0.47906 1,1.07001c0,0.59095 -0.44772,1.07002 -1,1.07002c-0.55228,0 -1,-0.47907 -1,-1.07002z" fill="#000000" stroke="none" stroke-width="0.5" stroke-linecap="butt"/><path d="M317.44644,139.59738c0,-0.59095 0.44772,-1.07001 1,-1.07001c0.55228,0 1,0.47907 1,1.07001c0,0.59095 -0.44772,1.07001 -1,1.07001c-0.55228,0 -1,-0.47907 -1,-1.07001z" fill="#000000" stroke="none" stroke-width="0.5" stroke-linecap="butt"/><path d="M320.11311,138.17069c0,-0.59095 0.44772,-1.07001 1,-1.07001c0.55228,0 1,0.47906 1,1.07001c0,0.59095 -0.44772,1.07002 -1,1.07002c-0.55228,0 -1,-0.47907 -1,-1.07002z" fill="#000000" stroke="none" stroke-width="0.5" stroke-linecap="butt"/><path d="M132.20258,79.71883c0.94868,-0.33837 1.26491,0.67674 1.26491,0.67674c0.11797,0.39257 0.37423,1.65127 0.45996,2.87568c0.82129,0.96026 1.72244,2.15029 2.09862,3.18672c0.0955,-0.01728 0.1594,-0.01728 0.1594,-0.01728c2.38847,0.02844 4.063,1.41884 5.70711,3.16676l0.66667,0.71335c0,0 0.70711,0.75662 0,1.51322c-0.70711,0.75661 -1.41421,0 -1.41421,0l-0.66667,-0.71335c-1.18291,-1.27513 -2.44804,-2.51232 -4.17282,-2.54c0.04044,1.5692 -0.0885,3.46968 -0.11529,4.88618c1.90522,0.78808 2.32174,5.23705 2.32856,6.88399v0.71334c0,0 0,1.07001 -1,1.07001c-1,0 -1,-1.07001 -1,-1.07001v-0.71334c0.00448,-0.88825 -0.16141,-1.77038 -0.31391,-2.64352c-0.88647,-5.07528 -2.60154,2.35112 -3.45833,4.19205c0,0 -0.44721,0.95705 -1.34164,0.47852c-0.89443,-0.47852 -0.44721,-1.43557 -0.44721,-1.43557c0.91334,-1.94594 1.67916,-3.79429 2.66278,-5.69832c0.22829,-0.44191 0.211,-1.10498 0.56516,-1.4086c0.00463,-1.24014 0.09672,-2.81117 0.10804,-4.24293c-1.32137,0.50527 -2.65824,0.91206 -4.00221,1.37612l-0.88465,0.64243c0,0 -0.83205,0.59354 -1.38675,-0.29676c-0.5547,-0.8903 0.27735,-1.48384 0.27735,-1.48384l1.11535,-0.78424c1.60094,-0.58523 3.21373,-1.04685 4.78816,-1.69773c-0.00216,-0.01757 -0.00437,-0.03504 -0.00662,-0.05241c-0.0476,-0.36708 -0.3489,-0.87611 -0.74128,-1.40543c-0.04013,0.02783 -0.08309,0.05024 -0.12904,0.06678c-1.05647,0.38035 -1.65362,0.01246 -2.03971,-0.58502c-0.37015,0.02723 -0.84518,-0.15717 -1.47259,-0.67178c-1.2805,-1.05029 0.34625,-3.69913 0.87506,-4.56019c0,0 0.52834,-0.84799 1.32721,-0.33705c0.05651,-0.03135 0.11917,-0.05975 0.18862,-0.08452z" fill="#008a1f" stroke="none" stroke-width="0.5" stroke-linecap="butt"/><path d="M120.51881,136.01791c0,1.07001 -1,1.07001 -1,1.07001h-0.33333c-1.56512,-0.02575 -2.65024,0.18058 -4.00942,-0.05997c0.00222,0.08766 0.00404,0.176 0.00546,0.26508c0.27341,0.24577 0.55758,0.57935 0.85461,1.0157c0.25201,0.37022 0.28758,0.8628 0.43137,1.29418l0.42509,0.2951c0,0 0.70711,0.75661 0,1.51322c-0.70711,0.75662 -1.41421,0 -1.41421,0l-0.90824,-1.13159c-0.90549,-3.25499 -2.53592,1.16498 -4.16328,2.33529c0,0 -0.83205,0.59354 -1.38675,-0.29676c-0.5547,-0.89031 0.27735,-1.48384 0.27735,-1.48384c1.38803,-0.9807 2.54581,-3.23271 3.87268,-3.91115c-0.00733,-0.20125 -0.0173,-0.39772 -0.02997,-0.59046c-1.08442,0.54359 -2.13811,0.99728 -3.30511,1.41361l0.05755,0.09819c0,0 -0.70711,0.75662 -1.41421,0c-0.70711,-0.75662 0,-1.51322 0,-1.51322l0.72421,-0.61516c1.29548,-0.46194 2.42841,-0.96494 3.64884,-1.60824c-0.07487,-0.38276 -0.16279,-0.7681 -0.2642,-1.16626c-0.21666,0.13164 -0.42259,0.21303 -0.60234,0.21343c-2.13748,0.00466 -2.76974,-1.4345 -1.50651,-3.24384c0.3614,-0.51763 1.07625,-0.64103 1.74364,-0.66692c0.04806,-0.13145 0.12942,-0.26727 0.25636,-0.4031c0.70711,-0.75662 1.41421,0 1.41421,0l0.66667,2.22657c-0.08473,0.09008 -0.19351,0.21135 -0.31959,0.35036c0.38077,1.19949 0.62665,2.27924 0.772,3.39333c1.56954,0.45424 2.40766,0.15745 4.17381,0.13641h0.33333c0,0 1,0 1,1.07001z" fill="#d2c900" stroke="none" stroke-width="0.5" stroke-linecap="butt"/><path d="M109.51881,131.38119c0,-0.59095 0.44772,-1.07001 1,-1.07001c0.55228,0 1,0.47906 1,1.07001c0,0.59095 -0.44772,1.07001 -1,1.07001c-0.55228,0 -1,-0.47907 -1,-1.07001z" fill="#000000" stroke="none" stroke-width="0.5" stroke-linecap="butt"/><path d="M112.51881,129.59784c0,-0.59095 0.44772,-1.07002 1,-1.07002c0.55228,0 1,0.47907 1,1.07002c0,0.59095 -0.44772,1.07001 -1,1.07001c-0.55228,0 -1,-0.47906 -1,-1.07001z" fill="#000000" stroke="none" stroke-width="0.5" stroke-linecap="butt"/><path d="M129.18547,83.23063c0,-0.59095 0.44772,-1.07001 1,-1.07001c0.55228,0 1,0.47907 1,1.07001c0,0.59095 -0.44772,1.07001 -1,1.07001c-0.55228,0 -1,-0.47906 -1,-1.07001z" fill="#000000" stroke="none" stroke-width="0.5" stroke-linecap="butt"/><path d="M131.85214,81.44727c0,-0.59095 0.44772,-1.07001 1,-1.07001c0.55228,0 1,0.47906 1,1.07001c0,0.59095 -0.44772,1.07001 -1,1.07001c-0.55228,0 -1,-0.47907 -1,-1.07001z" fill="#000000" stroke="none" stroke-width="0.5" stroke-linecap="butt"/><path d="M173.27279,272.40439l-0.5,-27.28532l135,-1.07001l-2,27.28531z" fill="url(#color-5)" stroke="none" stroke-width="0" stroke-linecap="butt"/><path d="M1.11136,300.82559v-65.06264l53.62636,-27.66603l6.15442,52.71418z" data-paper-data="{&quot;index&quot;:null}" fill="#000000" stroke="#000000" stroke-width="2" stroke-linecap="butt"/><g><path d="M421.38577,260.17046l6.5,-53.50062l53,27.28532l2.5,69.01581z" fill="#8c8c8c" stroke="none" stroke-width="0" stroke-linecap="butt"/><path d="M480.48298,260.62099h-58.5" fill="none" stroke="#000000" stroke-width="2" stroke-linecap="round"/><path d="M481.98298,277.82567l-26,-16.58519v-39.59046" fill="none" stroke="#000000" stroke-width="2" stroke-linecap="round"/></g><path d="M422.4447,260.50779l6.09956,-52.24421l53.14825,27.41937v64.48258z" fill="#000000" stroke="#000000" stroke-width="2" stroke-linecap="butt"/><path d="M374.14135,246.83255v-187.78719h31.5l-5,204.37239z" fill="url(#color-6)" stroke="none" stroke-width="0" stroke-linecap="butt"/><path d="M338.29334,247.10955v-188.32219h35v188.3222z" fill="url(#color-7)" stroke="none" stroke-width="0" stroke-linecap="butt"/><path d="M95.88577,246.03954v-203.30237h44.5v203.30237z" fill="url(#color-8)" stroke="none" stroke-width="0" stroke-linecap="butt"/><path d="M66.38577,267.97479l-6.5,-215.07251h37.5v194.20727z" fill="url(#color-9)" stroke="none" stroke-width="0" stroke-linecap="butt"/><path d="M-64.5,175.76158v-144.45168h629v144.45169z" fill="url(#color-10)" stroke="none" stroke-width="0" stroke-linecap="butt"/><g fill="#663f3f" stroke="#000000" stroke-width="0.5" stroke-linecap="butt"><path d="M285.91593,233.92411l-0.16924,-1.3985l2.7978,-0.41879l0.16924,1.3985z"/><path d="M284.62582,235.03255l-0.16924,-1.3985l2.7978,-0.41879l0.16924,1.39851z"/><path d="M287.49618,232.46715l-0.16924,-1.3985l2.7978,-0.41879l0.16924,1.3985z"/><path d="M287.74399,234.51496l-0.16924,-1.3985l2.7978,-0.41879l0.16924,1.3985z"/><path d="M284.37196,232.93479l-0.16924,-1.3985l2.7978,-0.41878l0.16924,1.3985z"/><path d="M286.86491,236.27378l-0.70112,-5.7938l1.49216,-0.22336l0.70112,5.79381z"/></g><g fill="#663f3f" stroke="#000000" stroke-width="0.5" stroke-linecap="butt"><path d="M303.03614,231.01052l-0.57515,-1.28594l2.5489,-1.22727l0.57516,1.28594z"/><path d="M302.13144,232.45084l-0.57516,-1.28595l2.5489,-1.22727l0.57516,1.28595z"/><path d="M304.11497,229.15147l-0.57516,-1.28594l2.5489,-1.22727l0.57516,1.28595z"/><path d="M304.95716,231.03446l-0.57515,-1.28594l2.5489,-1.22727l0.57516,1.28594z"/><path d="M301.2687,230.52193l-0.57515,-1.28595l2.5489,-1.22727l0.57515,1.28594z"/><path d="M304.6374,232.97457l-2.38278,-5.32749l1.35941,-0.65454l2.38278,5.32749z"/></g><g fill="#663f3f" stroke="#000000" stroke-width="0.5" stroke-linecap="butt"><path d="M277.74537,179.73202l1.15903,-1.79022l3.83619,2.48364l-1.15903,1.79022z"/><path d="M275.08219,179.64106l1.15903,-1.79022l3.83619,2.48364l-1.15903,1.79022z"/><path d="M281.10448,179.72913l1.15903,-1.79022l3.83619,2.48364l-1.15903,1.79022z"/><path d="M279.40733,182.35051l1.15903,-1.79022l3.83619,2.48364l-1.15903,1.79022z"/><path d="M276.82073,176.95572l1.15903,-1.79022l3.83619,2.48364l-1.15903,1.79022z"/><path d="M276.61217,183.44443l4.80171,-7.41663l2.04596,1.32461l-4.80171,7.41663z"/></g><g fill="#663f3f" stroke="#000000" stroke-width="0.5" stroke-linecap="butt"><path d="M295.15447,179.5512l-1.33467,-1.6634l3.56444,-2.86l1.33466,1.6634z"/><path d="M294.23025,182.05052l-1.33466,-1.6634l3.56444,-2.86l1.33467,1.6634z"/><path d="M296.20854,176.36175l-1.33467,-1.6634l3.56444,-2.86l1.33466,1.6634z"/><path d="M298.16287,178.79745l-1.33467,-1.6634l3.56444,-2.86l1.33467,1.6634z"/><path d="M292.22825,179.55543l-1.33467,-1.6634l3.56444,-2.86001l1.33466,1.66341z"/><path d="M298.32184,181.79482l-5.52934,-6.89124l1.90104,-1.52533l5.52934,6.89125z"/></g><g fill="#663f3f" stroke="#000000" stroke-width="0.5" stroke-linecap="butt"><path d="M294.33127,206.14125l-0.88139,-1.245l2.66786,-1.88871l0.8814,1.245z"/><path d="M293.56396,207.88597l-0.8814,-1.245l2.66786,-1.88871l0.88139,1.245z"/><path d="M295.22097,203.9094l-0.8814,-1.245l2.66786,-1.88871l0.8814,1.245z"/><path d="M296.51159,205.73244l-0.88139,-1.245l2.66786,-1.88871l0.8814,1.245z"/><path d="M292.24187,206.01847l-0.8814,-1.245l2.66786,-1.88871l0.8814,1.245z"/><path d="M296.49622,207.87931l-3.6515,-5.15786l1.42286,-1.00731l3.6515,5.15786z"/></g><g fill="#663f3f" stroke="#000000" stroke-width="0.5" stroke-linecap="butt"><path d="M285.43061,204.99313l0.27284,-1.50081l3.21604,0.58465l-0.27284,1.50081z"/><path d="M283.6472,205.66562l0.27284,-1.50081l3.21603,0.58465l-0.27284,1.50082z"/><path d="M287.6477,204.06725l0.27284,-1.50081l3.21604,0.58465l-0.27284,1.50081z"/><path d="M287.24819,206.26487l0.27284,-1.50081l3.21603,0.58465l-0.27284,1.50081z"/><path d="M284.05646,203.41439l0.27284,-1.50081l3.21603,0.58465l-0.27284,1.50081z"/><path d="M285.70356,207.75598l1.13033,-6.21767l1.71522,0.31182l-1.13032,6.21767z"/></g><g fill="#663f3f" stroke="#000000" stroke-width="0.5" stroke-linecap="butt"><path d="M288.44749,143.80228l0.63308,-0.59276l1.2702,1.3566l-0.63308,0.59276z"/><path d="M287.40541,143.50505l0.63308,-0.59276l1.2702,1.3566l-0.63308,0.59276z"/><path d="M289.77342,144.13077l0.63308,-0.59276l1.2702,1.3566l-0.63308,0.59276z"/><path d="M288.84641,144.99874l0.63308,-0.59276l1.2702,1.3566l-0.63308,0.59276z"/><path d="M288.35502,142.61591l0.63308,-0.59276l1.2702,1.3566l-0.63308,0.59276z"/><path d="M287.63598,145.15615l2.62275,-2.45572l0.67744,0.72352l-2.62275,2.45572z"/></g><g fill="#663f3f" stroke="#000000" stroke-width="0.5" stroke-linecap="butt"><path d="M271.67054,144.97652l-0.66201,-0.56026l1.20056,-1.41859l0.66201,0.56026z"/><path d="M271.49583,146.04598l-0.66201,-0.56026l1.20057,-1.41859l0.66201,0.56026z"/><path d="M271.84345,143.62149l-0.66201,-0.56026l1.20057,-1.41859l0.66201,0.56026z"/><path d="M272.81282,144.44188l-0.66201,-0.56026l1.20057,-1.41859l0.66201,0.56026z"/><path d="M270.50282,145.20559l-0.66201,-0.56026l1.20057,-1.41859l0.66201,0.56026z"/><path d="M273.10919,145.62598l-2.74261,-2.3211l0.6403,-0.75658l2.74262,2.32109z"/></g><g fill="#663f3f" stroke="#000000" stroke-width="0.5" stroke-linecap="butt"><path d="M283.6389,169.61533l-0.41794,-2.86635l6.14219,-0.89557l0.41793,2.86635z"/><path d="M280.83648,171.90578l-0.41794,-2.86635l6.14219,-0.89557l0.41794,2.86635z"/><path d="M287.06835,166.60619l-0.41794,-2.86635l6.14219,-0.89557l0.41793,2.86635z"/><path d="M287.68033,170.80335l-0.41793,-2.86636l6.14219,-0.89557l0.41794,2.86636z"/><path d="M280.20957,167.60625l-0.41794,-2.86635l6.14219,-0.89558l0.41794,2.86636z"/><path d="M285.80346,174.42248l-1.73145,-11.8749l3.27584,-0.47764l1.73144,11.8749z"/></g><path d="M299.84573,148.38866c1.79694,7.68526 -3.11192,15.40377 -10.96425,17.23977c-7.85233,1.83601 -15.6746,-2.90575 -17.47155,-10.59101c-1.79694,-7.68526 3.11192,-15.40377 10.96425,-17.23977c3.38917,-0.79244 6.33316,8.67657 9.22908,10.04266c3.8136,1.79898 7.22111,-3.81985 8.24247,0.54835z" fill="#c50000" stroke="#000000" stroke-width="0.5" stroke-linecap="butt"/><path d="M277.74099,149.56203c1.00142,-0.23415 2.04523,0.56825 2.33141,1.79221c0.28618,1.22396 -0.29364,2.40599 -1.29506,2.64014c-1.00142,0.23415 -2.04523,-0.56825 -2.33141,-1.79221c-0.28618,-1.22396 0.29364,-2.40599 1.29506,-2.64014z" fill="#000000" stroke="#000000" stroke-width="0.5" stroke-linecap="butt"/><path d="M278.21822,157.67409c-0.10292,0.01051 -0.11343,-0.09241 -0.11343,-0.09241l-0.0139,-0.15519c0.03328,-0.23775 -0.11742,-0.43685 -0.31684,-0.56321c-0.10414,-0.393 -0.43717,-0.71386 -0.44437,-1.15108c-0.00763,-0.46323 0.32651,-0.70274 0.43083,-1.10127c0.06349,-0.24258 -0.21327,-0.86417 -0.27332,-1.12099c0,0 -0.02355,-0.10073 0.07718,-0.12429c0.10073,-0.02356 0.12429,0.07718 0.12429,0.07718c0.07204,0.30812 0.34128,0.91046 0.27312,1.21607c-0.08647,0.38773 -0.42722,0.61901 -0.42519,1.05374c0.00182,0.3893 0.33625,0.67647 0.40558,1.03002c0.25368,0.15421 0.37229,0.4117 0.35476,0.70285l0.01371,0.11515c0,0 0.01051,0.10292 -0.09241,0.11343z" fill="#420000" stroke="none" stroke-width="0.5" stroke-linecap="butt"/><path d="M280.27845,157.70321c-0.10073,0.02356 -0.12429,-0.07718 -0.12429,-0.07718l-0.02827,-0.12088c-0.13162,-0.56293 0.28546,-0.93909 0.45363,-1.49159c0.78776,-1.0151 -0.92377,-1.97315 -1.15821,-2.97585c0,0 -0.02355,-0.10073 0.07718,-0.12429c0.10073,-0.02356 0.12429,0.07718 0.12429,0.07718c0.26496,1.13322 1.96617,1.89889 1.14227,3.11453c-0.14968,0.50158 -0.55086,0.8689 -0.43769,1.3529l0.02826,0.12088c0,0 0.02355,0.10073 -0.07718,0.12429z" fill="#000000" stroke="none" stroke-width="0.5" stroke-linecap="butt"/><path d="M279.09694,157.20692c-0.08478,0.05928 -0.14406,-0.0255 -0.14406,-0.0255l-0.00913,-0.01306c-0.04275,-0.06222 -0.0855,-0.12445 -0.12825,-0.18667c-0.13305,-0.54861 -0.40864,-1.29488 -0.24755,-1.84543c0.12345,-0.42195 0.52248,-0.87544 0.10112,-1.36518c0,0 -0.06612,-0.07956 0.01345,-0.14568c0.07957,-0.06612 0.14568,0.01345 0.14568,0.01345c0.46554,0.57559 0.08612,1.07138 -0.06411,1.56326c-0.14843,0.48599 0.12979,1.20026 0.24034,1.69523c0.03629,0.05082 0.07259,0.10165 0.10888,0.15246l0.00913,0.01306c0,0 0.05928,0.08478 -0.0255,0.14406z" fill="#04ff00" stroke="none" stroke-width="0.5" stroke-linecap="butt"/><path d="M279.73758,157.29846c-0.02356,-0.10073 0.07718,-0.12429 0.07718,-0.12429l0.0841,0.03907c0.1113,-0.45437 0.39689,-0.80372 0.48034,-1.21723c0.21536,-0.89552 -0.02995,-1.12063 -0.64783,-1.70002c-0.28823,-0.27028 -0.82815,-0.32464 -0.71813,-0.87039c0,0 0.02398,-0.10063 0.12462,-0.07665c0.10064,0.02399 0.07665,0.12462 0.07665,0.12462c-0.12129,0.40937 0.92592,0.89849 1.19296,1.14132c0.45332,0.41223 0.29475,0.91303 0.17299,1.42909c-0.10786,0.40819 -0.37495,0.75992 -0.48034,1.21723l-0.23825,0.11444c0,0 -0.10073,0.02355 -0.12429,-0.07718z" fill="#1c00ff" stroke="none" stroke-width="0.5" stroke-linecap="butt"/><path d="M277.9233,159.37066c-0.49405,-0.92796 -0.20772,-2.04591 0.63955,-2.497c0.84727,-0.4511 1.93463,-0.06452 2.42868,0.86345c0.49405,0.92797 0.20772,2.04591 -0.63955,2.497c-0.84727,0.4511 -1.93463,0.06452 -2.42868,-0.86344z" fill="#ffffff" stroke="#000000" stroke-width="0" stroke-linecap="butt"/><path d="M280.11894,159.9291c0.03122,0.13352 -0.08779,0.27551 -0.26582,0.31714c-0.17803,0.04163 -0.34766,-0.03287 -0.37888,-0.16639c-0.03122,-0.13352 0.08779,-0.27551 0.26582,-0.31714c0.17803,-0.04163 0.34766,0.03287 0.37888,0.16639z" fill="#000000" stroke="none" stroke-width="0" stroke-linecap="butt"/><path d="M289.90658,150.27922c-0.49405,-0.92796 -0.20772,-2.04591 0.63955,-2.497c0.42714,-0.22742 0.7437,0.47815 1.1861,0.63857c0.43513,0.15779 0.9976,-0.23527 1.24258,0.22487c0.49405,0.92797 0.20772,2.04591 -0.63955,2.497c-0.84727,0.4511 -1.93463,0.06452 -2.42868,-0.86345z" fill="#ffffff" stroke="#000000" stroke-width="0.5" stroke-linecap="butt"/><path d="M291.72539,149.7293c0.03122,0.13352 -0.08779,0.27551 -0.26582,0.31714c-0.17803,0.04163 -0.34766,-0.03287 -0.37888,-0.16639c-0.03122,-0.13352 0.08779,-0.27551 0.26582,-0.31714c0.17803,-0.04163 0.34766,0.03287 0.37888,0.16639z" fill="#000000" stroke="none" stroke-width="0" stroke-linecap="butt"/><path d="M288.83739,158.31002l-3.08221,1.35813l-3.19346,0.42795l-1.36718,-0.849z" fill="#000000" stroke="#3e0000" stroke-width="0.5" stroke-linecap="round"/><path d="M271.08999,141.00244c1.94848,1.29352 1.28494,1.35136 0.54863,2.4605c-0.73632,1.10914 -1.15293,1.61868 -3.10141,0.32516c-1.94848,-1.29352 -3.19312,-2.64476 -2.4568,-3.7539c0.73632,-1.10914 3.0611,-0.32528 5.00958,0.96824z" fill="#ff0000" stroke="#000000" stroke-width="0.5" stroke-linecap="butt"/><path d="M271.14342,141.63154c1.27558,0.84681 0.84119,0.88468 0.35916,1.61078c-0.48203,0.7261 -0.75477,1.05968 -2.03036,0.21287c-1.27558,-0.84681 -2.09039,-1.73141 -1.60836,-2.45751c0.48203,-0.7261 2.00397,-0.21295 3.27956,0.63386z" fill="#d00000" stroke="#000000" stroke-width="0.5" stroke-linecap="butt"/><path d="M294.69883,144.69956c-0.09703,0.03587 -0.13291,-0.06116 -0.13291,-0.06116l-0.00614,-0.01661c-0.09031,-0.30664 -0.59016,-0.7403 -0.89191,-0.98141c-0.57509,-0.66939 -1.10114,-0.65199 -1.91204,-0.36676c-0.415,0.14598 -1.06722,0.8575 -1.26761,0.28642c0,0 -0.02355,-0.10073 0.07718,-0.12429c0.10073,-0.02356 0.12429,0.07718 0.12429,0.07718c0.00144,0.20886 0.7419,-0.34396 0.99725,-0.43441c0.86934,-0.30796 1.50431,-0.31563 2.12474,0.41311c0.3602,0.2876 0.78689,0.68818 0.94216,1.05842l0.00614,0.01661c0,0 0.03587,0.09704 -0.06116,0.13291z" fill="#04ff00" stroke="none" stroke-width="0.5" stroke-linecap="butt"/><path d="M294.83177,145.49617c-0.06422,0.08111 -0.14533,0.01689 -0.14533,0.01689l-0.1696,-0.14808c-0.16074,-0.39016 -0.73716,-0.56845 -0.89305,-1.04358c-0.37473,-0.29438 -0.93827,-1.31361 -1.40977,-1.38546c-0.40935,-0.06238 -1.15954,0.27921 -1.57142,0.37551c0,0 -0.10073,0.02355 -0.12429,-0.07718c-0.02356,-0.10073 0.07718,-0.12429 0.07718,-0.12429c0.43612,-0.10197 1.21468,-0.45348 1.65211,-0.3782c0.55207,0.09501 1.1291,1.12003 1.54598,1.47136c0.17467,0.48947 0.69898,0.66015 0.91048,1.07377l0.11081,0.07395c0,0 0.08111,0.06422 0.01689,0.14532z" fill="#1c00ff" stroke="none" stroke-width="0.5" stroke-linecap="butt"/><path d="M295.12354,145.66354c0.02352,0.10074 -0.07723,0.12426 -0.07723,0.12426l-0.11331,0.02645c-1.15473,0.26578 -1.54545,-0.6217 -2.02453,-1.45033c-0.19274,-0.80529 -0.9761,-2.07154 -2.02303,-1.41502c-0.17067,0.10703 -0.25056,0.35447 -0.4443,0.40966c0,0 -0.10073,0.02355 -0.12429,-0.07718c-0.02356,-0.10073 0.07718,-0.12429 0.07718,-0.12429c0.2644,-0.04061 0.27829,-0.36269 0.60408,-0.45762c1.16436,-0.33928 1.8732,0.57998 2.10261,1.58794c0.43527,0.74043 0.74049,1.56622 1.78584,1.32521l0.11272,-0.02631c0,0 0.10074,-0.02352 0.12426,0.07723z" fill="#000000" stroke="none" stroke-width="0.5" stroke-linecap="butt"/><path d="M292.77037,146.30966c-0.08089,0.0645 -0.14538,-0.01639 -0.14538,-0.01639l-0.05128,-0.06432c-0.73544,-0.92311 1.36172,-2.43489 0.2929,-3.35974c-0.4141,-0.75454 -1.17273,-0.65843 -1.95758,-0.24941c-0.24609,0.12825 -0.80568,0.35564 -0.48906,0.69618c0,0 0.06612,0.07957 -0.01345,0.14568c-0.07957,0.06612 -0.14568,-0.01345 -0.14568,-0.01345c-0.38974,-0.50567 0.14954,-0.80812 0.55375,-1.01251c0.8412,-0.42538 1.76234,-0.54874 2.2144,0.30528c1.12369,1.0322 -0.96975,2.51158 -0.29351,3.35897l0.05128,0.06432c0,0 0.0645,0.08089 -0.01639,0.14538z" fill="#420000" stroke="none" stroke-width="0.5" stroke-linecap="butt"/><path d="M295.1539,182.56347c1.56362,13.88094 0.72844,22.93328 -4.1543,23.4833c-4.88274,0.55002 -7.49567,-10.10718 -9.05929,-23.98811c-1.56362,-13.88094 0.50773,-13.62187 5.39048,-14.17189c4.88274,-0.55002 6.2595,0.79577 7.82311,14.67671z" fill="#c50000" stroke="#000000" stroke-width="2" stroke-linecap="butt"/><path d="M293.81345,192.3743c0.8256,6.86388 -1.88902,8.46115 -2.79664,8.57032c-0.90762,0.10917 -4.56797,-2.28946 -5.39357,-9.15333c-0.8256,-6.86388 1.7477,-9.06556 2.65532,-9.17473c0.90762,-0.10917 4.70929,2.89386 5.53489,9.75774z" fill="#8b0000" stroke="none" stroke-width="0" stroke-linecap="butt"/><path d="M286.60527,177.4055c-0.09106,-0.38944 0.15083,-0.77896 0.54027,-0.87002c0.38944,-0.09106 0.77896,0.15083 0.87002,0.54027c0.09106,0.38944 -0.15083,0.77896 -0.54027,0.87002c-0.38944,0.09106 -0.77896,-0.15083 -0.87002,-0.54027z" fill="#000000" stroke="none" stroke-width="0.5" stroke-linecap="butt"/><path d="M286.36175,173.63771c-0.09106,-0.38944 0.15083,-0.77897 0.54027,-0.87002c0.38944,-0.09106 0.77896,0.15083 0.87002,0.54027c0.09106,0.38944 -0.15083,0.77896 -0.54027,0.87002c-0.38944,0.09106 -0.77896,-0.15083 -0.87002,-0.54027z" fill="#000000" stroke="none" stroke-width="0.5" stroke-linecap="butt"/><path d="M279.70116,191.70005c-1.31293,7.03722 -4.22747,12.39682 -6.50981,11.97101c-2.28234,-0.42581 -3.0682,-6.4758 -1.75528,-13.51302c1.31293,-7.03722 4.22747,-12.39682 6.50981,-11.97101c2.28234,0.42581 3.06821,6.4758 1.75528,13.51302z" fill="#c50000" stroke="#000000" stroke-width="2" stroke-linecap="butt"/><path d="M307.15336,187.65279c2.19499,6.81383 2.18291,12.91463 -0.02698,13.62652c-2.20989,0.71189 -5.78075,-4.23471 -7.97575,-11.04854c-2.19499,-6.81383 -2.18291,-12.91462 0.02698,-13.62651c2.20989,-0.71189 5.78075,4.23471 7.97574,11.04854z" fill="#c50000" stroke="#000000" stroke-width="2" stroke-linecap="butt"/><path d="M303.31101,215.74928c2.19499,6.81383 2.18292,12.91463 -0.02697,13.62652c-2.20989,0.71189 -5.78075,-4.23471 -7.97575,-11.04854c-2.19499,-6.81383 -2.18291,-12.91462 0.02698,-13.62652c2.20989,-0.71189 5.78075,4.23471 7.97575,11.04854z" fill="#c50000" stroke="#000000" stroke-width="2" stroke-linecap="butt"/><path d="M290.36493,218.64742c0.67836,7.12644 -0.64538,13.0819 -2.95665,13.30191c-2.31128,0.22001 -4.73486,-5.37875 -5.41322,-12.50519c-0.67836,-7.12644 0.64538,-13.08191 2.95665,-13.30191c2.31128,-0.22001 4.73486,5.37875 5.41322,12.50519z" fill="#c50000" stroke="#000000" stroke-width="2" stroke-linecap="butt"/><path d="M291.05957,235.98733c0.23415,1.00142 -0.55512,1.82968 -2.94741,2.38903c-2.39229,0.55936 -3.11114,-0.12876 -3.34529,-1.13018c-0.23415,-1.00142 0.10508,-1.93693 2.49736,-2.49629c2.39229,-0.55936 3.56119,0.23602 3.79534,1.23744z" fill="#c50000" stroke="#000000" stroke-width="2" stroke-linecap="butt"/><path d="M309.13178,232.3992c0.23415,1.00142 -0.57783,1.1267 -2.97012,1.68606c-2.39229,0.55936 -2.29825,0.31863 -2.5324,-0.68279c-0.23415,-1.00142 -0.68511,-1.68135 1.70718,-2.24071c2.39229,-0.55936 3.56119,0.23602 3.79534,1.23744z" fill="#c50000" stroke="#000000" stroke-width="2" stroke-linecap="butt"/><path d="M287.43402,238.14991c-0.10345,0.00103 -0.10448,-0.10242 -0.10448,-0.10242l0.00551,-0.14358c0.40694,-1.01511 -0.56084,-1.70726 -1.18715,-2.25753c0,0 -0.07772,-0.06828 -0.00944,-0.146c0.06828,-0.07772 0.146,-0.00943 0.146,-0.00943c0.72016,0.63273 1.64624,1.35289 1.24435,2.48553l0.00762,0.06896c0,0 0.00103,0.10345 -0.10242,0.10447z" fill="#000000" stroke="none" stroke-width="0.5" stroke-linecap="butt"/><path d="M289.13546,237.75463c-0.10073,0.02356 -0.12429,-0.07718 -0.12429,-0.07718l-0.01583,-0.11373c0.01183,-0.05148 0.02365,-0.10296 0.03548,-0.15444c0.12364,-1.3369 -0.89687,-1.39323 -1.16496,-2.50966c0,0 -0.02355,-0.10073 0.07718,-0.12429c0.10073,-0.02356 0.12429,0.07718 0.12429,0.07718c0.11485,0.50723 0.68105,0.65516 0.87895,1.04499c0.307,0.60473 0.35154,0.86413 0.28886,1.54438c-0.01269,0.05596 -0.02539,0.11192 -0.03808,0.16788l0.01558,0.02059c0,0 0.02355,0.10073 -0.07718,0.12429z" fill="#000000" stroke="none" stroke-width="0.5" stroke-linecap="butt"/><path d="M306.40182,233.28704c-0.10301,-0.00951 -0.09351,-0.11252 -0.09351,-0.11252l0.00103,-0.01115c0.04978,-0.53212 0.85201,-1.53601 0.55435,-1.87914c0,0 -0.06612,-0.07956 0.01345,-0.14568c0.07957,-0.06612 0.14568,0.01345 0.14568,0.01345c0.4261,0.52931 -0.44676,1.36347 -0.50746,2.0304l-0.00103,0.01114c0,0 -0.00951,0.10301 -0.11252,0.09351z" fill="#000000" stroke="none" stroke-width="0.5" stroke-linecap="butt"/><path d="M284.84535,212.30613c0.05458,-0.08788 0.14246,-0.03331 0.14246,-0.03331l0.10785,0.07322c0.27131,0.33703 0.63156,0.60544 0.88745,1.02708c0.2786,1.16019 2.00312,1.3003 1.57336,2.90714c-0.28546,0.41288 -1.09979,0.81049 -1.55192,0.42509c-0.23532,-0.20059 -0.28693,-0.62904 -0.58988,-0.78929c-0.42327,-0.22388 -0.83116,-0.19905 -1.22908,-0.57759c-0.32423,-0.69048 -0.45058,-2.90654 0.7371,-2.86362c0,0 0.00417,0.00039 0.01077,0.00184l-0.05481,-0.02812c0,0 -0.08789,-0.05458 -0.03331,-0.14246z" fill="#000000" stroke="none" stroke-width="0.5" stroke-linecap="butt"/><path d="M289.63946,220.04557l0.05037,-0.01178c0.4374,-0.09229 0.55074,0.3107 0.62996,0.64952c0.18734,0.80125 0.02878,1.48626 0.21597,2.28684c0.19219,0.82198 0.45158,1.58876 0.16811,2.32882c0.09531,0.46355 -0.83819,2.55467 -1.41771,2.04809c0,0 -0.01751,-0.02107 -0.02366,-0.05052l-0.08526,-0.02289c-0.14303,-0.17213 -0.35094,-0.19716 -0.5178,-0.3326c-0.45141,-0.36642 -0.36915,-1.20719 -0.48523,-1.70367c-0.09247,-0.44371 -0.47898,-0.59813 -0.70465,-0.92784c-0.39884,-0.5827 0.16586,-0.95776 0.30589,-1.43722c0.09239,-0.31631 -0.37408,-0.56559 -0.40785,-0.87223c0.01827,-0.60509 1.00177,-1.79646 1.61356,-1.94479c0.15396,-0.03733 0.37249,0.02862 0.57757,0.08327c0.0015,-0.07446 0.08073,-0.09299 0.08073,-0.09299z" fill="#000000" stroke="none" stroke-width="0.5" stroke-linecap="butt"/><path d="M294.59997,183.32874c-0.07659,-0.02868 -0.06996,-0.09524 -0.06382,-0.12186c-0.26907,-0.05123 -0.54097,-0.13182 -0.60497,-0.04316c-0.06154,0.08525 0.18279,0.23058 -0.02334,0.40454c0.29493,0.97304 0.19956,2.30861 -0.14548,3.30729c0.03723,0.0332 0.07516,0.07578 0.1149,0.12962l-0.0384,0.04736l0.02308,0.01433l-0.10291,0.16571c-0.01397,0.02249 -0.03651,0.03966 -0.06433,0.04616c-0.05563,0.01301 -0.11128,-0.02154 -0.12429,-0.07718l-0.04711,-0.20147l0.05326,-0.01245c-0.00043,-0.00424 -0.00084,-0.00848 -0.00122,-0.01271c-0.13655,-0.03108 -0.29481,0.04651 -0.42926,0.07794c-0.47392,0.11081 -1.46223,0.63443 -1.92117,0.50416c-0.50311,-0.14281 -1.2796,-1.02004 -1.40057,-1.53361c-0.21011,-0.8986 -0.13579,-1.60434 0.49218,-2.32642c0.33682,-0.3873 1.14633,-0.44255 1.27895,-1.01607c-0.17416,-0.69708 -1.72376,-3.13137 0.1358,-2.72984c0.03703,-0.02317 0.08222,-0.01241 0.08222,-0.01241c0.25912,0.06759 0.51662,-0.16796 0.76337,-0.10301c0.27521,0.07245 0.42645,0.7217 0.65809,0.75912c0.49894,0.08058 0.48967,-1.00703 1.02303,-0.40105c0.23395,0.29061 0.26509,0.58178 0.58208,0.75706l0.06186,0.13149c0,0 0.01898,0.08117 -0.05,0.11482c0.25954,0.473 0.4398,0.98666 0.1366,1.52394c-0.05308,0.14366 -0.13987,0.25578 -0.19556,0.38865c0.05811,0.00608 0.09499,-0.00169 0.09948,-0.03329l0.03061,-0.1342c0,0 0.02399,-0.10064 0.12462,-0.07665c0.10064,0.02399 0.07665,0.12462 0.07665,0.12462l-0.04089,0.16583c-0.06661,0.07978 -0.19303,0.0943 -0.33888,0.08165l-0.01142,0.0305c0,0 -0.03628,0.09688 -0.13317,0.0606z" fill="#000000" stroke="none" stroke-width="0.5" stroke-linecap="butt"/><path d="M273.99662,183.05786c0.06009,0.01432 0.07575,0.05596 0.07861,0.0872c0.38663,-0.11293 0.86123,-0.26437 1.19559,-0.10836c0.49175,0.22944 0.3655,0.7342 0.58486,1.1224c0.10937,0.19355 0.46029,0.32565 0.62553,0.47684c0.77086,0.52444 0.49808,1.09735 -0.31471,1.28739c-0.13973,0.03267 -0.62599,0.21608 -0.72653,0.01766c-0.02464,-0.04863 0.00268,-0.12827 0.05819,-0.22126c-0.45337,0.25447 -0.98411,0.43359 -1.2039,0.33799c-0.20101,-0.08743 -0.3394,-0.58965 -0.41994,-0.60657c-0.12613,-0.0265 -0.35818,0.24136 -0.43413,0.3036c-0.05547,0.02021 -0.11094,0.04042 -0.16641,0.06063c-0.01187,0.04378 -0.05528,0.06608 -0.05528,0.06608c-0.02107,0.01069 -0.04121,0.02031 -0.06047,0.0289c-0.00874,0.0059 -0.02595,0.01584 -0.04716,0.01965c-0.81733,0.31527 0.18956,-1.48967 0.34103,-1.89418c0.09887,-0.25752 0.15417,-0.49216 0.30097,-0.71305c-0.01279,-0.09023 0.07953,-0.11182 0.07953,-0.11182c0.00174,-0.00041 0.00348,-0.00082 0.00523,-0.00123c0.01325,-0.01573 0.02711,-0.03139 0.04163,-0.04699l-0.00728,-0.02824c0,0 0.02398,-0.10063 0.12462,-0.07665z" fill="#000000" stroke="none" stroke-width="0.5" stroke-linecap="butt"/><path d="M278.25001,178.58154c0.05487,-0.01283 0.08684,0.01121 0.10458,0.03577c0.01346,-0.00245 0.02909,-0.00217 0.04722,0.00215c0.07646,0.01822 0.08098,0.0807 0.07874,0.10966c0.60714,0.47491 0.62218,1.18955 1.00559,1.81289c0.12509,0.50937 0.63947,1.2253 0.39412,1.7263c0.01062,0.0543 -0.02352,0.1077 -0.0778,0.12049c-0.00916,0.01114 -0.01881,0.02213 -0.02897,0.03298c0,0 -0.07075,0.07548 -0.14623,0.00473c-0.00025,-0.00024 -0.0005,-0.00047 -0.00075,-0.0007c-0.01204,0.00642 -0.02126,0.00901 -0.02126,0.00901l-0.05049,0.01009c-0.74824,0.45409 -1.94896,0.24585 -1.85964,-0.77654c0.05214,-0.52453 -0.31989,-1.02514 -0.29547,-1.53988c0.02146,-0.45231 0.6521,-0.85012 0.84068,-1.31634c-0.00447,-0.00281 -0.00896,-0.00561 -0.01348,-0.0084l-0.05401,-0.09791c0,0 -0.02355,-0.10073 0.07718,-0.12429z" fill="#000000" stroke="none" stroke-width="0.5" stroke-linecap="butt"/><path d="M303.18317,185.96357l0.09045,0.04924c0.60107,0.24217 1.3177,0.23805 1.72127,0.91044c0.30594,0.61133 0.07898,2.28396 -0.30096,2.86213c-0.2046,0.31134 -1.01256,0.31988 -1.34461,0.3633c-0.68562,0.07838 -0.98797,-0.88251 -1.57407,-1.17529c-0.42831,-0.21396 -1.3231,-0.15883 -1.83012,-0.30369c-0.66609,-0.51624 -1.85218,-1.86452 -1.12788,-2.84488c0.13092,-0.1772 0.8172,-0.17503 1.02239,-0.20549c0.78246,-0.11617 2.73467,-0.38734 3.34352,0.34424z" fill="#000000" stroke="none" stroke-width="0.5" stroke-linecap="butt"/><path d="M307.93287,199.81863c0.10301,0.00951 0.09351,0.11252 0.09351,0.11252l-0.00246,0.02389c0.03162,0.00174 0.07721,0.01582 0.09206,0.07938c0.02356,0.10073 -0.07718,0.12429 -0.07718,0.12429l-0.06633,-0.00737c-0.01087,0.02524 -0.02175,0.05047 -0.03263,0.07571c-0.4166,1.10065 -1.19988,1.27026 -2.23088,0.87442c-0.99447,-0.10743 -1.73999,-1.26912 -2.29427,-2.0058c-0.27343,-0.64158 -0.9551,-1.16267 -0.88816,-1.98297c0,0 0.00951,-0.10301 0.11252,-0.09351c0.0128,0.00119 0.02386,0.00381 0.03343,0.0075c0.01512,-0.00815 0.02756,-0.01106 0.02756,-0.01106c0.16287,-0.03808 0.7411,-0.2605 0.88401,-0.17558c0.22738,0.13512 0.27121,0.82211 0.61683,0.90295c0.20768,0.04858 0.50337,-0.23665 0.67569,-0.24426c0.33198,-0.01465 0.49673,0.31444 0.63693,0.54255c0.55017,1.05856 1.58814,1.05602 2.35135,1.79214c0.01619,-0.01088 0.03818,-0.01757 0.068,-0.01481zM308.02766,200.00756l-0.008,-0.01119l-0.00016,0.00156c0.00273,0.0032 0.00544,0.00641 0.00816,0.00963z" fill="#000000" stroke="none" stroke-width="0.5" stroke-linecap="butt"/><path d="M274.34955,192.693c0.00171,-0.00231 0.00354,-0.00464 0.0055,-0.00697c0.06646,-0.07928 0.14574,-0.01283 0.14574,-0.01283c0.90982,0.76262 1.16676,1.74043 2.20544,2.41047c0.12437,0.46468 -0.00894,2.09172 -0.98065,1.40523c-0.30082,-0.21252 -0.65987,-1.29549 -0.74709,-1.57273c-0.3155,-0.40041 -0.71219,-0.95099 -1.08357,-1.3481c-0.08137,-0.08701 -0.40607,-0.27527 -0.38954,-0.41949c0.02948,-0.25731 0.52223,-0.22709 0.67706,-0.36139l0.02968,-0.05787c0,0 0.05249,-0.08453 0.13742,-0.03631z" fill="#000000" stroke="none" stroke-width="0.5" stroke-linecap="butt"/><path d="M269.18291,144.24609c-0.07075,0.07548 -0.14623,0.00472 -0.14623,0.00472l-0.09071,-0.08504c-0.21549,-0.20379 -0.49574,-0.3433 -0.72573,-0.53616c-0.51636,-0.4879 -1.72989,-0.92698 -1.9235,-1.63022c0,0 -0.01799,-0.07695 0.04473,-0.11207c0.00005,-0.00021 0.0001,-0.0004 0.00015,-0.00061c0.02399,-0.10063 0.12462,-0.07665 0.12462,-0.07665c0.90994,0.23736 2.49413,-0.24293 2.77542,1.02872c-0.10668,0.46271 -0.14302,0.57324 -0.03309,1.07016l-0.03857,0.17378c0,0 -0.00067,0.00279 -0.00224,0.00735l0.01044,0.00979c0,0 0.07548,0.07075 0.00472,0.14623z" fill="#000000" stroke="none" stroke-width="0.5" stroke-linecap="butt"/><path d="M295.16827,149.63876c0.08789,0.05458 0.03331,0.14246 0.03331,0.14246l-0.0386,0.00473c0.00022,0.00901 0.06914,0.0145 0.18526,0.01749c-0.25138,-0.20429 -0.3721,-0.4515 -0.02334,-0.78784c0,0 0.07957,-0.06611 0.14568,0.01345c0.06612,0.07957 -0.01345,0.14568 -0.01345,0.14568c-0.10689,0.06405 -0.02712,0.43682 0.07262,0.6313c0.67488,0.00422 2.07293,-0.0309 2.38261,-0.01962c0.25388,0.08824 0.92627,0.2205 0.99149,0.55188c0.04214,0.21408 -0.37291,1.3978 -0.58596,1.50624c-0.27384,0.13937 -1.25287,-0.15031 -1.56703,-0.21028c-0.16284,-0.03174 -0.5321,-0.10818 -0.63793,-0.2537c-0.23277,-0.32009 0.21329,-0.56676 0.13038,-0.91485c-0.03244,-0.13619 -0.25656,-0.26238 -0.49718,-0.40247c-0.41325,-0.01621 -0.73203,-0.07721 -0.78463,-0.23018l0.0643,-0.16099c0,0 0.05458,-0.08789 0.14246,-0.03331z" fill="#000000" stroke="none" stroke-width="0.5" stroke-linecap="butt"/><path d="M276.21413,162.6226c-0.32987,-0.20485 -0.70778,-0.3832 -0.9863,-0.64777c-0.51499,-0.82344 -1.23781,-1.37693 -1.84338,-2.10064c-0.15825,-0.25734 -1.02043,-1.18186 -0.97538,-1.67606c-0.0131,-0.04054 0.00643,-0.07416 0.0215,-0.09255c0.02875,-0.07188 0.08555,-0.12982 0.17784,-0.1688c0,0 0.02299,-0.00538 0.04958,-0.00001c0.16247,-0.08589 0.30655,-0.121 0.4992,-0.16078c0.82827,0.29628 3.76867,0.24937 2.84108,1.91128c-0.05918,0.69275 0.43348,0.54468 0.49531,0.93403c0.09778,0.61572 0.2737,1.50512 -0.08258,2.09539c0,0 -0.05458,0.08789 -0.14246,0.03331c-0.06282,-0.03901 -0.05286,-0.09503 -0.04206,-0.12382z" fill="#000000" stroke="none" stroke-width="0.5" stroke-linecap="butt"/><path d="M286.49277,200.94206c-0.05458,0.08788 -0.14246,0.03331 -0.14246,0.03331l-0.02313,-0.01673c-0.00126,-0.00047 -0.00251,-0.00094 -0.00375,-0.00141c-0.04579,0.0054 -0.07342,-0.01662 -0.08938,-0.0389c-0.56139,-0.27924 -0.41722,-0.93143 -0.83503,-1.32309c-0.23303,-0.86569 -0.57903,-1.69966 -0.79143,-2.60804c-0.07959,-0.34039 -0.43673,-1.35143 -0.35298,-1.86614c-0.00311,0.00263 -0.00624,0.0053 -0.00938,0.00802c0,0 -0.07957,0.06612 -0.14568,-0.01345c-0.06612,-0.07956 0.01345,-0.14568 0.01345,-0.14568c1.00878,-0.81209 0.98406,1.07124 1.22288,1.5554c0.19325,0.39178 0.46886,0.4785 0.57942,0.95135c0.11449,0.57136 -0.56092,1.08218 -0.17301,1.70674c0.27358,0.44048 1.39534,1.02841 0.63974,1.56892l0.00299,0.00684c0.00485,0.00193 0.00976,0.00382 0.01473,0.00568l0.05973,0.03472c0,0 0.08789,0.05458 0.03331,0.14246z" fill="#000000" stroke="none" stroke-width="0.5" stroke-linecap="butt"/><path d="M284.46,180.9505l0.10795,-0.08971c0.08771,-0.07288 0.17418,-0.14726 0.25998,-0.22239c0.7459,-0.79512 3.29825,-0.93362 2.88299,0.72008c-1.11531,0.92677 0.93976,1.94606 -0.2964,2.97326c-0.3875,1.62597 -2.24736,1.3649 -2.61327,-0.10155c-0.06106,-0.26114 -0.32697,-0.87582 -0.24935,-1.12859c0.08238,-0.26824 0.35922,-0.5026 0.35992,-0.83404c0.00097,-0.45352 -0.45591,-0.72942 -0.56426,-1.18939c0,0 -0.02355,-0.10073 0.07718,-0.12429c0.013,-0.00304 0.02472,-0.00401 0.03526,-0.00339z" fill="#000000" stroke="none" stroke-width="0.5" stroke-linecap="butt"/><path d="M285.06568,215.47883l0.19349,-2.80755" fill="none" stroke="#663f3f" stroke-width="2" stroke-linecap="round"/><path d="M285.90889,216.13162l0.49443,-1.97485" fill="none" stroke="#663f3f" stroke-width="2" stroke-linecap="round"/><path d="M285.15717,213.5982c-0.06504,-0.27818 0.10774,-0.5564 0.38591,-0.62144c0.27818,-0.06504 0.5564,0.10774 0.62145,0.38591c0.02303,0.09852 0.01624,0.19704 -0.0145,0.2861c0.0936,0.1528 0.08272,0.32868 0.08272,0.32868c-0.03334,0.53901 -0.06667,1.07801 -0.1,1.61702l-0.01624,0.1785c0,0 -0.04755,0.51507 -0.56262,0.46752c-0.51507,-0.04755 -0.46752,-0.56262 -0.46752,-0.56262l0.01383,-0.14726c0.03334,-0.53901 0.06667,-1.07801 0.1,-1.61702c0,0 0.00392,-0.06345 0.03126,-0.14449c-0.03401,-0.05057 -0.05959,-0.10805 -0.07429,-0.17091z" fill="#663f3f" stroke="none" stroke-width="0.5" stroke-linecap="butt"/><path d="M284.51039,181.5116c0.11992,-0.50317 0.62308,-0.38325 0.62308,-0.38325l0.34636,0.1526c0.0287,0.03345 0.06214,0.06447 0.09896,0.09224c0.04666,-0.37275 0.12509,-0.75257 0.23633,-1.14325c0,0 0.14166,-0.49749 0.63915,-0.35583c0.49749,0.14166 0.35583,0.63915 0.35583,0.63915c-0.13681,0.48047 -0.21744,0.93933 -0.2431,1.38786c0.00629,0.03261 0.01026,0.06791 0.0115,0.10614c0.00229,0.07078 -0.00543,0.13217 -0.02045,0.18544c-0.00355,0.88532 0.20984,1.73931 0.6305,2.65084l0.04465,0.14686c0,0 0.11777,0.50368 -0.38591,0.62144c-0.50368,0.11777 -0.62145,-0.38591 -0.62145,-0.38591l0.0211,0.04613c-0.11273,-0.25058 -0.21267,-0.49818 -0.29952,-0.74399c-0.29305,0.06234 -0.60189,0.06451 -0.88636,0.00029l-0.21145,-0.02795c0,0 -0.51139,-0.07772 -0.43367,-0.5891c0.07772,-0.51139 0.5891,-0.43368 0.5891,-0.43368l0.33934,0.05576c0.09859,0.04163 0.21661,0.05044 0.32894,0.03071c-0.07899,-0.37082 -0.12649,-0.74104 -0.14133,-1.11482c-0.25635,-0.07967 -0.50029,-0.20764 -0.70682,-0.37044l0.06848,0.05586c0,0 -0.50317,-0.11992 -0.38325,-0.62308z" fill="#663f3f" stroke="none" stroke-width="0.5" stroke-linecap="butt"/><path d="M293.04168,187.15669c-0.22268,0.46688 -0.68955,0.24419 -0.68955,0.24419l-0.40854,-0.21304c-0.24267,-0.20378 -0.49507,-0.3961 -0.75264,-0.58083c-0.01188,0.0129 -0.02378,0.02573 -0.03569,0.03848l-0.58291,0.3191c0,0 -0.46613,0.22423 -0.69036,-0.24191c-0.22423,-0.46613 0.24191,-0.69036 0.24191,-0.69036l0.27661,-0.09435c0.85646,-0.9098 1.68771,-2.33379 1.62883,-3.64327c-0.03016,-0.67079 -0.45388,-1.25187 -0.60938,-1.8902c0,0 -0.11777,-0.50368 0.38591,-0.62144c0.50368,-0.11777 0.62144,0.38591 0.62144,0.38591c0.08963,0.40598 0.27553,0.77735 0.4234,1.16324c0.04562,0.02632 0.07249,0.04885 0.07249,0.04885c0.37805,0.3235 0.59657,0.46682 1.09551,0.49318l0.42929,-0.106c0,0 0.50368,-0.11777 0.62144,0.38591c0.11777,0.50368 -0.38591,0.62144 -0.38591,0.62144l-0.57807,0.12953c-0.42875,-0.02853 -0.74998,-0.0896 -1.05063,-0.21823c-0.03524,0.50099 -0.1579,1.00426 -0.34228,1.49043c0.00523,0.00984 0.00782,0.01552 0.00782,0.01552c0.21992,0.51432 0.33134,0.60353 0.86127,0.78883l0.253,-0.02627c0,0 0.5172,0.00791 0.50929,0.52511c-0.00791,0.5172 -0.52511,0.50929 -0.52511,0.50929l-0.59999,-0.03931c-0.48529,-0.19019 -0.79168,-0.37366 -1.04077,-0.67161c-0.10636,0.17941 -0.21941,0.35362 -0.33749,0.5214c0.26225,0.18983 0.51935,0.38702 0.76756,0.59471l0.18935,0.07213c0,0 0.46688,0.22268 0.24419,0.68955z" fill="#663f3f" stroke="none" stroke-width="0.5" stroke-linecap="butt"/><path d="M279.94771,182.00323c0.06504,0.27818 -0.10773,0.5564 -0.38591,0.62144c-0.09857,0.02305 -0.19714,0.01623 -0.28624,-0.01455c-0.26101,0.21495 -0.59524,0.32666 -0.99281,0.24024c-0.20624,-0.04483 -0.33156,-0.24543 -0.47225,-0.41641c-0.07015,-0.00859 -0.14691,-0.03472 -0.22955,-0.08604c-0.43942,-0.27288 -0.16655,-0.71231 -0.16655,-0.71231l0.21437,-0.34303c0.26271,-0.48892 0.60354,-0.87509 0.82022,-1.3825c0,0 0.20799,-0.4736 0.68159,-0.26561c0.4736,0.20799 0.26561,0.68159 0.26561,0.68159c-0.01957,0.04363 -0.03983,0.08638 -0.06066,0.12837c0.57787,-0.08216 0.71096,0.63795 0.48748,1.31439c0.05939,0.06379 0.10344,0.14346 0.1247,0.23441z" fill="#663f3f" stroke="none" stroke-width="0.5" stroke-linecap="butt"/><path d="M276.42343,186.01454c-0.04625,0.01081 -0.0925,0.01505 -0.13778,0.01333l-0.03032,0.05705c0,0 -0.24304,0.4566 -0.69965,0.21356c-0.06131,-0.03263 -0.11001,-0.06912 -0.14838,-0.10784c-0.02158,0.00007 -0.0441,-0.00093 -0.06759,-0.0031c-0.12281,-0.01134 -0.21363,-0.04925 -0.28074,-0.10043c-0.09533,0.07685 -0.23381,0.12583 -0.43137,0.07874c-0.50317,-0.11992 -0.38325,-0.62308 -0.38325,-0.62308l0.04557,-0.174c0.19813,-0.5261 0.45498,-1.00708 0.65079,-1.53332c0,0 0.1814,-0.48441 0.66581,-0.30301c0.30379,0.11377 0.34572,0.3467 0.33475,0.5046c0.02221,0.00398 0.04521,0.0093 0.06903,0.01608c0.21719,0.06185 0.31256,0.19151 0.35108,0.31799c0.03544,0.00853 0.07266,0.02104 0.11167,0.03817c0.22724,0.0998 0.29757,0.26074 0.30924,0.40118c0.11293,0.06979 0.19915,0.18277 0.23177,0.32226c0.0509,0.21771 -0.04387,0.43546 -0.22083,0.55102c-0.05701,0.1603 -0.19184,0.28917 -0.36981,0.33078z" fill="#663f3f" stroke="none" stroke-width="0.5" stroke-linecap="butt"/><path d="M274.90095,195.28664c-0.50317,-0.11992 -0.38325,-0.62308 -0.38325,-0.62308l0.05638,-0.20059c0.06933,-0.15787 0.13866,-0.31573 0.20799,-0.4736c0,0 0.20799,-0.4736 0.68159,-0.26561c0.4736,0.20799 0.26561,0.68159 0.26561,0.68159c-0.06933,0.15787 -0.13866,0.31573 -0.20799,0.4736l0.00275,0.02444c0,0 -0.11992,0.50317 -0.62308,0.38325z" fill="#663f3f" stroke="none" stroke-width="0.5" stroke-linecap="butt"/><path d="M302.34946,185.2252c0.39783,-0.33059 0.72842,0.06725 0.72842,0.06725l0.0669,0.11231c0.37939,-0.0818 0.55359,0.30097 0.55359,0.30097c0.50937,1.13231 0.69763,2.62142 0.74302,3.85936l-0.10438,0.61407c0,0 -0.09695,0.50809 -0.60504,0.41115c-0.19446,-0.0371 -0.3003,-0.13443 -0.35686,-0.24046c-0.0581,0.04626 -0.12712,0.08067 -0.20423,0.09871c-0.19297,0.04512 -0.38597,-0.02421 -0.50781,-0.16377l-0.35089,-0.38677l0.00252,-0.00229l-0.00998,-0.00612c-0.16762,-0.20984 -0.30314,-0.43937 -0.41023,-0.68273c-0.04565,0.01504 -0.09766,0.02523 -0.15691,0.02906c-0.51618,0.03336 -0.54954,-0.48282 -0.54954,-0.48282l-0.00778,-0.22958c-0.23687,-1.01305 -0.4824,-1.57864 -1.02617,-2.46063c0,0 -0.271,-0.44059 0.16959,-0.71159c0.44059,-0.271 0.71159,0.16959 0.71159,0.16959c0.00508,0.00828 0.01014,0.01654 0.01518,0.02479c0.2304,-0.25467 0.5784,-0.10183 0.5784,-0.10183c0.023,0.01017 0.04601,0.02034 0.06901,0.03051c0.06879,-0.07887 0.1621,-0.13767 0.27179,-0.16332c0.09719,-0.02272 0.1944,-0.01642 0.28251,0.01327c0.02605,-0.0334 0.05815,-0.06659 0.09731,-0.09912zM301.62997,186.57316c-0.00762,-0.00333 -0.01524,-0.00666 -0.02287,-0.00999c0.00622,0.01325 0.01239,0.02649 0.01852,0.03973c0.00143,-0.00992 0.00287,-0.01984 0.00434,-0.02975z" fill="#663f3f" stroke="none" stroke-width="0.5" stroke-linecap="butt"/><path d="M308.64297,207.65909c-0.05569,0.08719 -0.14287,0.0315 -0.14287,0.0315l-0.07542,-0.04817c-1.41201,-0.96478 0.54666,-2.81415 0.3193,-3.77451c-0.27967,-1.14382 -1.39017,-1.54966 -1.84091,-2.58382c-0.07343,-0.00368 -0.15234,-0.01481 -0.23707,-0.03425c-0.05004,0.08154 -0.13404,0.1565 -0.27095,0.20711c-0.48518,0.17933 -0.66451,-0.30584 -0.66451,-0.30584l-0.15156,-0.41131c-0.26203,-0.81406 -0.44065,-2.24791 -1.02404,-2.84021c0,0 -0.34755,-0.3831 0.03554,-0.73065c0.3831,-0.34755 0.73066,0.03554 0.73066,0.03554c0.33665,0.39023 0.55839,0.90624 0.73507,1.45198c0.08516,-0.13349 0.26432,-0.30929 0.58708,-0.20564v0c0.40221,0.12916 0.37045,0.48133 0.3453,0.60609c0.04213,-0.02189 0.09113,-0.04014 0.14807,-0.05346c0.50368,-0.11777 0.62144,0.38591 0.62144,0.38591c0.12033,0.58124 0.13518,1.74034 -0.63735,1.88185c0.4586,0.99524 1.54316,1.39843 1.82441,2.54831c0.18846,0.79603 -1.64587,2.93543 -0.40909,3.64855l0.07542,0.04817c0,0 0.08719,0.05569 0.0315,0.14287z" fill="#663f3f" stroke="none" stroke-width="0.5" stroke-linecap="butt"/><path d="M272.8379,159.32015c-0.11777,-0.50368 0.38591,-0.62144 0.38591,-0.62144l0.50401,-0.10753c0.70878,-0.0229 1.42405,0.07974 2.11608,-0.02482c0,0 0.51227,-0.07169 0.58395,0.44059c0.07169,0.51227 -0.44059,0.58395 -0.44059,0.58395c-0.74316,0.09764 -1.47242,0.00992 -2.22605,0.03426l-0.30187,0.0809c0,0 -0.50368,0.11777 -0.62144,-0.38591z" fill="#663f3f" stroke="none" stroke-width="0.5" stroke-linecap="butt"/><path d="M274.25842,160.92444c0.1814,-0.48441 0.66581,-0.30301 0.66581,-0.30301l0.30957,0.11774c0.26136,0.08153 0.54845,0.10551 0.81892,0.06304c0,0 0.5129,-0.06707 0.57996,0.44583c0.06707,0.5129 -0.44583,0.57996 -0.44583,0.57996c-0.41068,0.04656 -0.83702,0.01265 -1.23637,-0.09385l-0.38905,-0.14389c0,0 -0.48441,-0.1814 -0.30301,-0.66581z" fill="#663f3f" stroke="none" stroke-width="0.5" stroke-linecap="butt"/><path d="M299.26891,150.59946c-0.11992,0.50317 -0.62308,0.38325 -0.62308,0.38325l0.07447,-0.01709c-0.82055,0.10621 -1.43181,0.31098 -2.2555,0.09131c0,0 -0.49749,-0.14166 -0.35583,-0.63915c0.14166,-0.49749 0.63915,-0.35583 0.63915,-0.35583c0.63431,0.19789 1.18806,-0.03636 1.83805,-0.12213l0.29949,0.03654c0,0 0.50317,0.11992 0.38325,0.62308z" fill="#663f3f" stroke="none" stroke-width="0.5" stroke-linecap="butt"/><path d="M267.45973,142.45267c-0.06504,-0.27818 0.10773,-0.5564 0.38591,-0.62144c0.14642,-0.03423 0.29286,-0.00258 0.40821,0.07565c0.13545,0.00811 0.23977,0.06363 0.23977,0.06363c0.16179,0.08612 0.32359,0.17224 0.48538,0.25836l0.21627,0.13295c0,0 0.43942,0.27288 0.16655,0.71231c-0.27288,0.43942 -0.71231,0.16655 -0.71231,0.16655l-0.1566,-0.09859c-0.16179,-0.08612 -0.32359,-0.17224 -0.48538,-0.25836c0,0 -0.01987,-0.01058 -0.04912,-0.03147c-0.23306,-0.00207 -0.44326,-0.16257 -0.49868,-0.39959z" fill="#663f3f" stroke="none" stroke-width="0.5" stroke-linecap="butt"/><path d="M277.78895,152.09605c-0.06504,-0.27818 0.10773,-0.5564 0.38591,-0.62144c0.27818,-0.06504 0.5564,0.10773 0.62144,0.38591c0.06504,0.27818 -0.10773,0.5564 -0.38591,0.62144c-0.27818,0.06504 -0.5564,-0.10773 -0.62144,-0.38591z" fill="#590000" stroke="none" stroke-width="0.5" stroke-linecap="butt"/><path d="M278.30922,151.14287c0.00173,-0.0011 0.00348,-0.00219 0.00525,-0.00327c0.26435,-0.1626 0.42695,0.10175 0.42695,0.10175c0.03905,0.06349 0.36534,0.58922 0.37419,0.62582c0.2663,1.10069 -1.41967,1.37362 -1.66746,0.36169c-0.08111,-0.33124 0.15993,-0.6325 0.31195,-0.88265l0.24038,-0.18632c0,0 0.16082,-0.09891 0.30874,-0.01702zM278.28987,151.67463l-0.00245,-0.00096c-0.27324,0.42781 0.07886,0.82617 0.26767,0.47886c0.03011,-0.05539 -0.1548,-0.32343 -0.26521,-0.47791z" fill="#7a0000" stroke="none" stroke-width="0.5" stroke-linecap="butt"/><path d="M276.39041,150.02884c0.25435,-0.17784 0.43219,0.0765 0.43219,0.0765l0.09711,0.16216c0.47329,0.38184 0.80467,0.70116 0.90312,1.30239c0,0 0.03263,0.30864 -0.27601,0.34127c-0.30864,0.03263 -0.34127,-0.27601 -0.34127,-0.27601c0.00229,-0.34466 -0.37292,-0.65474 -0.66952,-0.87972l-0.22213,-0.29441c0,0 -0.17784,-0.25435 0.0765,-0.43219z" fill="#663f3f" stroke="none" stroke-width="0.5" stroke-linecap="butt"/><path d="M279.58138,149.93763c0.26366,0.16373 0.09993,0.42738 0.09993,0.42738l-0.09688,0.1524c-0.21631,0.27508 -0.374,0.45633 -0.49359,0.78702c0,0 -0.10884,0.29065 -0.39948,0.18181c-0.29065,-0.10884 -0.18181,-0.39948 -0.18181,-0.39948c0.14949,-0.38882 0.33226,-0.62913 0.58696,-0.95303l0.05749,-0.09617c0,0 0.16373,-0.26366 0.42738,-0.09993z" fill="#663f3f" stroke="none" stroke-width="0.5" stroke-linecap="butt"/><path d="M280.10783,152.49992c0.09481,0.00555 0.23042,0.04832 0.27478,0.23804c0.07066,0.30221 -0.23155,0.37287 -0.23155,0.37287l-0.31287,-0.04647c-0.25939,-0.22684 -0.55039,-0.21867 -0.86872,-0.40807c0,0 -0.26366,-0.16373 -0.09993,-0.42738c0.16373,-0.26366 0.42738,-0.09993 0.42738,-0.09993c0.29676,0.19609 0.52597,0.19855 0.8109,0.37094z" fill="#663f3f" stroke="none" stroke-width="0.5" stroke-linecap="butt"/><path d="M277.35319,154.14975c-0.26366,-0.16373 -0.09993,-0.42738 -0.09993,-0.42738l0.1379,-0.21846c0.09729,-0.20349 0.18395,-0.4122 0.26287,-0.62349c0,0 0.10884,-0.29065 0.39948,-0.18181c0.29065,0.10884 0.18181,0.39948 0.18181,0.39948c-0.08556,0.22796 -0.17928,0.45317 -0.28392,0.67303l-0.17083,0.2787c0,0 -0.16373,0.26366 -0.42738,0.09993z" fill="#663f3f" stroke="none" stroke-width="0.5" stroke-linecap="butt"/><path d="M278.74867,157.10942c-0.10073,0.02356 -0.12429,-0.07718 -0.12429,-0.07718l-0.01178,-0.05037c-0.06085,-0.26025 -0.01205,-0.49274 -0.06686,-0.75248c0.17508,-0.73463 0.12623,-1.66146 -0.02628,-2.38431c0.14701,-0.67608 -0.02207,-1.21818 -0.18119,-1.89871c0,0 -0.02355,-0.10074 0.07718,-0.12429c0.10073,-0.02356 0.12429,0.07718 0.12429,0.07718c0.15748,0.67351 0.36736,1.27777 0.18662,1.94626c0.18447,0.68134 0.19239,1.6873 0.02628,2.38432c0.06561,0.24234 0.00472,0.46241 0.06142,0.70492l0.01178,0.05037c0,0 0.02355,0.10073 -0.07718,0.12429z" fill="#663f3f" stroke="none" stroke-width="0.5" stroke-linecap="butt"/><path d="M276.13026,204.0115c-0.22878,0.69953 -1.82694,0.66587 -3.56958,-0.07518c-1.74264,-0.74105 -2.96987,-1.90888 -2.74109,-2.60841c0.22878,-0.69953 1.82694,-0.66587 3.56958,0.07518c1.74264,0.74105 2.96987,1.90888 2.74109,2.60841z" fill="#000000" stroke="none" stroke-width="0" stroke-linecap="butt"/><path d="M270.50692,211.31765c0.02691,0.09989 -0.07298,0.1268 -0.07298,0.1268l-0.11271,0.03036c-0.1285,0.03459 -0.25612,0.07267 -0.38241,0.11464c-1.30078,0.66719 -2.95514,0.11502 -3.31285,-1.42307c-0.22508,-0.96784 -0.35448,-2.44786 0.14147,-3.15592c0.08076,-0.1153 -0.10637,-0.31199 -0.01843,-0.42192c0.07338,-0.09171 0.47758,-0.15065 0.60227,-0.20481c0.93409,-1.35183 2.60684,-1.1151 3.89825,-0.87154c1.01304,-0.35309 0.80983,-0.81693 1.4022,-1.57932c0.21101,-0.27157 0.70219,-0.51502 0.59252,-0.90118c0,0 -0.02355,-0.10074 0.07718,-0.12429c0.10073,-0.02356 0.12429,0.07718 0.12429,0.07718c0.10138,0.50597 -0.34244,0.73041 -0.63259,1.07775c-0.64937,0.77737 -0.41742,1.29981 -1.54821,1.65619c-1.32875,-0.20946 -2.80297,-0.49385 -3.78237,0.82513c-0.08488,0.04001 -0.52627,0.12458 -0.57465,0.1774c-0.08935,0.09756 0.09913,0.27812 0.03738,0.39512c-0.39216,0.74312 -0.35166,1.99777 -0.1178,3.00333c0.3276,1.40864 1.83636,1.91634 3.03024,1.27957c0.13528,-0.04537 0.27191,-0.08692 0.40967,-0.12406l0.11271,-0.03036c0,0 0.09989,-0.02691 0.1268,0.07298z" fill="#929292" stroke="#929292" stroke-width="1" stroke-linecap="butt"/><path d="M309.83527,207.62297c-0.10073,0.02356 -0.12429,-0.07717 -0.12429,-0.07717l-0.028,-0.11974c-0.29252,-1.25015 -1.42796,-1.71951 -1.50631,-3.05451c0.30289,-1.19016 0.63121,-2.43132 -0.55493,-3.1679c0,0 -0.08789,-0.05458 -0.03331,-0.14246c0.05458,-0.08789 0.14246,-0.03331 0.14246,-0.03331c1.25986,0.78235 0.99002,2.09973 0.65174,3.36342c0.08923,1.27563 1.21387,1.75705 1.50181,2.98762l0.02801,0.11977c0,0 0.02356,0.10073 -0.07718,0.12429z" fill="#1c00ff" stroke="none" stroke-width="0.5" stroke-linecap="butt"/><path d="M307.65361,207.37876c-0.10067,0.02384 -0.12451,-0.07683 -0.12451,-0.07683l0.00195,-0.05348c-0.60501,-0.65081 -0.54843,-1.59521 -0.46894,-2.40817c-0.13971,-0.68483 0.52361,-1.30582 0.49497,-1.96751c-0.0194,-0.44843 -0.41833,-1.0662 -0.65284,-1.44726c0,0 -0.0542,-0.08812 0.03391,-0.14232c0.08812,-0.0542 0.14232,0.03391 0.14232,0.03391c0.25263,0.41092 0.66214,1.06057 0.68332,1.54668c0.02856,0.65562 -0.66002,1.30499 -0.49521,1.96306c-0.06472,0.74447 -0.17321,1.68859 0.412,2.2786l0.04986,0.14881c0,0 0.02384,0.10067 -0.07683,0.1245z" fill="#000000" stroke="none" stroke-width="0.5" stroke-linecap="butt"/><path d="M307.55989,206.91376c-0.07225,-0.07405 0.00181,-0.14629 0.00181,-0.14629l0.07524,-0.07341c0.74284,-0.72001 1.54368,-2.02109 0.28301,-2.60437c-0.59128,-0.27477 -2.00773,-0.73933 -1.68436,-1.68556c0.12307,-0.36013 0.4576,-0.6319 0.55307,-1.04334c0,0 0.02398,-0.10063 0.12462,-0.07665c0.10063,0.02398 0.07665,0.12462 0.07665,0.12462c-0.14623,0.5999 -0.75793,0.9434 -0.46679,1.5993c0.20005,0.45067 1.06351,0.70011 1.48374,0.89388c1.42011,0.65788 0.60985,2.12049 -0.22544,2.94022l-0.07524,0.07341c0,0 -0.07405,0.07224 -0.14629,-0.00181z" fill="#420000" stroke="none" stroke-width="0.5" stroke-linecap="butt"/><path d="M308.22145,206.67848c-0.02524,0.10032 -0.12557,0.07508 -0.12557,0.07508l-0.03265,-0.00822c-1.64013,-0.42207 -0.91162,-1.44996 -0.4649,-2.43197c0.1855,-0.38531 0.55389,-0.53264 0.65244,-0.99132c0.15359,-0.71478 -0.86378,-1.39448 -1.38545,-1.71844c0,0 -0.08789,-0.05458 -0.03331,-0.14246c0.05458,-0.08789 0.14246,-0.03331 0.14246,-0.03331c0.61318,0.38078 1.64219,1.111 1.47898,1.93583c-0.0956,0.48318 -0.4896,0.64309 -0.66773,1.03742c-0.40975,0.85531 -1.16152,1.77863 0.328,2.14359l0.03265,0.00822c0,0 0.10032,0.02524 0.07508,0.12557z" fill="#04ff00" stroke="none" stroke-width="0.5" stroke-linecap="butt"/><path d="M289.86937,148.58426c-0.16233,-1.25653 2.16784,-0.60039 2.00337,0.07229c-0.11812,0.48313 -1.92172,0.45905 -2.11489,0.26533c0,0 -0.13224,-0.15913 0.0269,-0.29137c0.02934,-0.02438 0.05776,-0.03885 0.08461,-0.04625z" fill="#8b0000" stroke="none" stroke-width="0.5" stroke-linecap="butt"/><path d="M287.28595,153.02921c0.0548,0.9812 -0.68286,1.24005 -1.7097,1.2974c-1.02683,0.05735 -1.954,-0.10854 -2.0088,-1.08973c-0.0548,-0.9812 0.73319,-1.8231 1.76003,-1.88044c1.02683,-0.05735 1.90367,0.69158 1.95846,1.67278z" fill="#8b0000" stroke="none" stroke-width="0" stroke-linecap="butt"/><path d="M286.44798,153.24734c0.02965,0.5309 -0.36948,0.67096 -0.92508,0.70199c-0.55559,0.03103 -1.05726,-0.05873 -1.08691,-0.58963c-0.02965,-0.5309 0.39671,-0.98644 0.95231,-1.01746c0.55559,-0.03103 1.03003,0.3742 1.05968,0.9051z" fill="#000000" stroke="none" stroke-width="0" stroke-linecap="butt"/><path d="M171.46221,244.84881v-136.11017h138.16596v136.11017z" fill="url(#color-11)" stroke="#000000" stroke-width="2" stroke-linecap="butt"/></g></g></svg>