<svg version="1.1" xmlns="http://www.w3.org/2000/svg" xmlns:xlink="http://www.w3.org/1999/xlink" width="553.33333" height="431.22073" viewBox="0,0,553.33333,431.22073"><g transform="translate(36.66666,35.61036)"><g data-paper-data="{&quot;isPaintingLayer&quot;:true}" fill-rule="nonzero" stroke-linejoin="miter" stroke-miterlimit="10" stroke-dasharray="" stroke-dashoffset="0" style="mix-blend-mode: normal"><path d="M-1.30557,359.65626l241,-181h3l237,181z" fill="#8c8c8c" stroke="#000000" stroke-width="2" stroke-linecap="butt"/><path d="M240.69443,179.65626l-241,-182h480l-237,182z" fill="#6f6f6f" stroke="#000000" stroke-width="2" stroke-linecap="butt"/><path d="M-2.30558,358.65626v-360l241,180h-1z" fill="#949494" stroke="#000000" stroke-width="0" stroke-linecap="butt"/><path d="M244.69443,179.65626v0l236,-182l3,364z" fill="#888888" stroke="#000000" stroke-width="0" stroke-linecap="butt"/><path d="M405.69443,54.65626v248h-332v-248z" fill="none" stroke="#000000" stroke-width="2" stroke-linecap="round"/><path d="M126.69443,234.65626h44v-109h144v109h-150" fill="none" stroke="#000000" stroke-width="2" stroke-linecap="round"/><path d="M107.69443,277.65625l-1,-200l63,49l1,108z" fill="#5a5a5a" stroke="#000000" stroke-width="0" stroke-linecap="butt"/><path d="M171.69443,128.65625h-64" fill="none" stroke="#000000" stroke-width="2" stroke-linecap="round"/><path d="M108.69443,235.65625h62" fill="none" stroke="#000000" stroke-width="2" stroke-linecap="round"/><path d="M-36.66666,395.61037v-431.22073h553.33333v431.22073z" fill-opacity="0.62745" fill="#000000" stroke="none" stroke-width="0" stroke-linecap="butt"/></g></g></svg>