<svg version="1.1" xmlns="http://www.w3.org/2000/svg" xmlns:xlink="http://www.w3.org/1999/xlink" width="895.11288" height="565.12337" viewBox="0,0,895.11288,565.12337"><g transform="translate(209.05794,101.5323)"><g data-paper-data="{&quot;isPaintingLayer&quot;:true}" fill-rule="nonzero" stroke-linecap="butt" stroke-linejoin="miter" stroke-miterlimit="10" stroke-dasharray="" stroke-dashoffset="0" style="mix-blend-mode: normal"><path d="M686.05494,463.59108l-895.11288,-1.42026l263.76443,-316.09167l544.06246,-2.08152z" fill="#5c5c5c" stroke="none" stroke-width="0"/><path d="M-175.87181,421.41875l56.73068,-159.43509l113.67199,-123.4385l4.08546,-210.84219l62.88212,-17.77761l-5.39171,238.3616z" fill="#393939" stroke="none" stroke-width="0"/><path d="M-121.29794,265.33033l3.9905,-65.84329l59.31326,-56.86466l55.86703,-5.98575z" fill="#463b5b" stroke="none" stroke-width="NaN"/><path d="M56.03968,147.61297l-1.66667,-237.03311l546.61638,-1.94792l-1.66667,236.6477z" fill="#181818" stroke="none" stroke-width="0"/><path d="M-56.80557,144.53273l-64.19443,-204.65623l119.19443,-3l-4,202.65623z" fill="#7f7396" stroke="none" stroke-width="0"/><path d="M284.19443,147.35643v-158h79v158z" fill="#999999" stroke="none" stroke-width="0"/><path d="M342.69443,80.35643c1.933,0 3.5,1.567 3.5,3.5c0,1.933 -1.567,3.5 -3.5,3.5c-1.933,0 -3.5,-1.567 -3.5,-3.5c0,-1.933 1.567,-3.5 3.5,-3.5z" fill="#000000" stroke="none" stroke-width="0"/><path d="M289.43433,30.15623v-22h67v22z" fill="#737373" stroke="#000000" stroke-width="0.5"/><text transform="translate(290.43433,26.86512) scale(0.42903,0.42903)" font-size="40" xml:space="preserve" fill="#000000" fill-rule="nonzero" stroke="none" stroke-width="1" stroke-linecap="butt" stroke-linejoin="miter" stroke-miterlimit="10" stroke-dasharray="" stroke-dashoffset="0" font-family="Pixel" font-weight="normal" text-anchor="start" style="mix-blend-mode: normal"><tspan x="0" dy="0">kitchen</tspan></text><g><g><g fill="#663f3f" stroke="#000000" stroke-width="0.5"><path d="M49.29324,99.69315l0.72111,-4.31567l9.24789,1.54525l-0.72111,4.31567z"/><path d="M44.20572,101.69489l0.72111,-4.31567l9.24789,1.54525l-0.72111,4.31567z"/><path d="M55.61419,96.94689l0.72111,-4.31567l9.24789,1.54525l-0.72111,4.31567z"/><path d="M54.55828,103.26627l0.72111,-4.31568l9.24789,1.54525l-0.72111,4.31568z"/><path d="M45.28738,95.22137l0.72111,-4.31567l9.24789,1.54524l-0.72111,4.31568z"/><path d="M50.18913,107.60613l2.98748,-17.87926l4.93221,0.82413l-2.98748,17.87926z"/></g><g><g data-paper-data="{&quot;index&quot;:null}" fill="#663f3f" stroke="#000000" stroke-width="0.5"><path d="M82.386,42.94145l1.1345,-1.8194l3.89871,2.43107l-1.1345,1.8194z"/><path d="M83.60604,45.3266l1.1345,-1.8194l3.89871,2.43107l-1.1345,1.8194z"/><path d="M80.95423,39.88281l1.1345,-1.8194l3.89871,2.43107l-1.1345,1.8194z"/><path d="M79.29299,42.54693l1.13451,-1.8194l3.89871,2.43107l-1.1345,1.8194z"/><path d="M85.3078,42.59751l1.13451,-1.8194l3.89871,2.43108l-1.1345,1.8194z"/><path d="M81.31033,46.69266l4.7001,-7.53751l2.07931,1.29658l-4.70008,7.53752z"/></g><g fill="#663f3f" stroke="#000000" stroke-width="0.5"><path d="M40.65114,41.68376l-0.82754,-1.978l4.23857,-1.7733l0.82754,1.978z"/><path d="M39.06384,43.84198l-0.82754,-1.978l4.23857,-1.7733l0.82755,1.978z"/><path d="M42.5556,38.8948l-0.82755,-1.978l4.23857,-1.7733l0.82754,1.978z"/><path d="M43.76736,41.79116l-0.82755,-1.978l4.23857,-1.7733l0.82755,1.978z"/><path d="M37.82252,40.875l-0.82754,-1.978l4.23857,-1.77331l0.82755,1.978z"/><path d="M43.08833,44.7315l-3.42839,-8.19457l2.26057,-0.94576l3.42839,8.19457z"/></g><path d="M93.69569,66.73724c-1.31942,16.32246 -16.38448,28.87382 -33.69617,27.47445c-17.31169,-1.39938 -28.61822,-16.75855 -27.2988,-33.08101c0.45406,-5.61711 0.33961,-10.90881 3.36669,-15.45686c5.76916,-8.66791 17.5973,-14.47406 28.95146,-13.55625c17.31169,1.39938 29.99624,18.29723 28.67683,34.61968z" fill="#00c3c5" stroke="#929292" stroke-width="1"/><path d="M52.2662,58.06006c-0.53743,3.18043 -3.05552,5.40679 -5.62432,4.97271c-2.56881,-0.43407 -4.21557,-3.3642 -3.67815,-6.54463c0.53743,-3.18043 3.05552,-5.40679 5.62432,-4.97271c2.56881,0.43407 4.21557,3.36421 3.67815,6.54463z" fill="#000000" stroke="none" stroke-width="0"/><path d="M80.89553,63.52935c-0.53743,3.18043 -3.05552,5.40679 -5.62432,4.97271c-2.56881,-0.43407 -4.21557,-3.3642 -3.67815,-6.54463c0.53743,-3.18043 3.05552,-5.40679 5.62432,-4.97271c2.56881,0.43407 4.21557,3.36421 3.67815,6.54463z" fill="#000000" stroke="none" stroke-width="0"/><path d="M43.5848,56.94834c0.17992,-2.22579 2.13013,-3.8843 4.35592,-3.70438c2.22579,0.17992 3.8843,2.13013 3.70438,4.35592c-0.17992,2.22579 -2.13013,3.8843 -4.35592,3.70438c-2.22579,-0.17992 -3.8843,-2.13013 -3.70438,-4.35592z" fill="#fff1f1" stroke="none" stroke-width="0"/><path d="M72.43804,62.43572c0.17992,-2.22579 2.13013,-3.8843 4.35592,-3.70438c2.22579,0.17992 3.8843,2.13013 3.70438,4.35592c-0.17992,2.22579 -2.13013,3.8843 -4.35592,3.70438c-2.22579,-0.17992 -3.8843,-2.13013 -3.70438,-4.35592z" fill="#fff1f1" stroke="none" stroke-width="0"/><path d="M46.25347,57.38942c0.04998,-0.61828 0.5917,-1.07897 1.20998,-1.029c0.61828,0.04998 1.07897,0.5917 1.029,1.20998c-0.04998,0.61828 -0.5917,1.07897 -1.20998,1.029c-0.61828,-0.04998 -1.07897,-0.5917 -1.029,-1.20998z" fill="#000000" stroke="none" stroke-width="0.5"/><path d="M74.86471,63.08259c0.04998,-0.61828 0.5917,-1.07897 1.20998,-1.029c0.61828,0.04998 1.07897,0.5917 1.029,1.20998c-0.04998,0.61828 -0.5917,1.07897 -1.20998,1.029c-0.61828,-0.04998 -1.07897,-0.5917 -1.029,-1.20998z" fill="#000000" stroke="none" stroke-width="0.5"/><path d="M77.16812,74.93431c0.41971,1.04176 -0.62206,1.46147 -0.62206,1.46147l-0.7522,0.28352c-3.68956,2.31386 -7.95401,3.75434 -11.58174,6.0836c-5.48647,2.55763 -10.14939,-2.53225 -14.09728,-5.64674c-2.15478,-1.69991 -4.49573,-3.44397 -4.9252,-6.2955c0,0 -0.13082,-1.1155 0.98468,-1.2463c1.1155,-0.13082 1.2463,0.98468 1.2463,0.98468c0.11867,2.04259 2.59904,3.61749 4.09373,4.8001c2.78567,2.20402 7.56216,7.655 11.59863,5.44477c3.66109,-2.27535 7.81582,-3.69907 11.48228,-6.02437l1.11137,-0.46728c0,0 1.04176,-0.41971 1.46147,0.62206z" fill="#000000" stroke="none" stroke-width="0.5"/><path d="M34.8393,36.45326c0,0 -5.41343,-7.73196 -2.37497,-10.10029c3.03847,-2.36832 9.67843,5.36374 9.67843,5.36374c0,0 2.40008,3.86596 -0.63838,6.23428c-3.03847,2.36832 -6.66508,-1.49774 -6.66508,-1.49774z" fill="#00c3c5" stroke="#000000" stroke-width="0"/><path d="M85.89787,41.0888c-2.61861,-2.8256 0.37125,-6.25588 0.37125,-6.25588c0,0 7.79568,-6.56518 10.41429,-3.73956c2.61861,2.8256 -3.96644,9.58769 -3.96644,9.58769c0,0 -4.20049,3.23336 -6.81911,0.40775z" data-paper-data="{&quot;index&quot;:null}" fill="#00c3c5" stroke="#000000" stroke-width="0"/><path d="M36.64358,35.8102c0,0 -3.18455,-4.54846 -1.39712,-5.94167c1.78743,-1.39321 5.6935,3.15532 5.6935,3.15532c0,0 1.4119,2.27422 -0.37554,3.66743c-1.78743,1.39321 -3.92085,-0.88107 -3.92085,-0.88107z" fill="#00a5a8" stroke="#000000" stroke-width="0"/><path d="M87.25186,40.01449c-1.54045,-1.66222 0.2184,-3.68013 0.2184,-3.68013c0,0 4.58594,-3.86208 6.12639,-2.19986c1.54045,1.66222 -2.33332,5.64012 -2.33332,5.64012c0,0 -2.47101,1.90208 -4.01146,0.23987z" data-paper-data="{&quot;index&quot;:null}" fill="#00a5a8" stroke="#000000" stroke-width="0"/><path d="M65.23004,67.17466c-0.35038,1.38297 -2.33852,2.07236 -4.44066,1.53978c-2.10212,-0.53258 -3.52219,-2.08544 -3.17181,-3.46842c0.35038,-1.38297 2.33852,-2.07236 4.44066,-1.53978c2.10212,0.53258 3.52219,2.08544 3.17181,3.46842z" fill="#00b1b4" stroke="none" stroke-width="0"/><path d="M59.982,65.9811c0.04998,-0.61828 0.5917,-1.07897 1.20998,-1.029c0.61828,0.04998 1.07897,0.5917 1.029,1.20998c-0.04998,0.61828 -0.5917,1.07897 -1.20998,1.029c-0.61828,-0.04998 -1.07897,-0.5917 -1.029,-1.20998z" fill="#000000" stroke="none" stroke-width="0.5"/></g></g><g data-paper-data="{&quot;index&quot;:null}" fill="#663f3f" stroke="#000000" stroke-width="0.5"><path d="M52.13604,207.55037l-1.93075,-2.67903l5.74078,-4.13734l1.93075,2.67903z"/><path d="M56.24761,207.20394l-1.93074,-2.67903l5.74078,-4.13733l1.93075,2.67903z"/><path d="M46.94096,207.8054l-1.93075,-2.67902l5.74078,-4.13734l1.93075,2.67903z"/><path d="M49.76814,211.72828l-1.93075,-2.67905l5.74078,-4.13733l1.93076,2.67903z"/><path d="M53.35151,203.18538l-1.93075,-2.67903l5.74079,-4.13733l1.93075,2.67903z"/><path d="M56.85437,211.27329l-7.99886,-11.09886l3.06175,-2.20657l7.99886,11.09884z"/></g><g fill="#663f3f" stroke="#000000" stroke-width="0.5"><path d="M34.77019,200.46432l2.336,-2.33413l5.0017,5.00571l-2.33599,2.33413z"/><path d="M30.76763,199.46198l2.33599,-2.33413l5.0017,5.00569l-2.33597,2.33414z"/><path d="M39.85686,201.55047l2.33599,-2.33413l5.0017,5.00571l-2.33599,2.33412z"/><path d="M36.43629,204.9683l2.336,-2.33413l5.0017,5.00569l-2.33599,2.33415z"/><path d="M34.2716,195.96078l2.33599,-2.33413l5.00172,5.00569l-2.33599,2.33413z"/><path d="M31.84927,205.71703l9.67769,-9.66997l2.66758,2.66969l-9.67769,9.66998z"/></g><g data-paper-data="{&quot;index&quot;:null}" fill="#663f3f" stroke="#000000" stroke-width="0.5"><path d="M72.44779,124.72169l-2.89904,-4.02257l8.61981,-6.21224l2.89904,4.02259z"/><path d="M78.62134,124.20152l-2.89902,-4.02258l8.6198,-6.21222l2.89904,4.02257z"/><path d="M64.64735,125.10462l-2.89904,-4.02257l8.61981,-6.21222l2.89902,4.02258z"/><path d="M68.89236,130.99482l-2.89904,-4.02259l8.61981,-6.21222l2.89904,4.02257z"/><path d="M74.27281,118.16763l-2.89904,-4.02259l8.61981,-6.21222l2.89904,4.02257z"/><path d="M79.53238,130.31167l-12.01031,-16.66497l4.59724,-3.31319l12.01032,16.66497z"/></g><g fill="#663f3f" stroke="#000000" stroke-width="0.5"><path d="M31.65958,110.79112l3.9212,-3.03474l6.50302,8.40259l-3.9212,3.03474z"/><path d="M25.88729,108.54074l3.9212,-3.03474l6.50302,8.40259l-3.92119,3.03475z"/><path d="M39.03081,113.37151l3.9212,-3.03475l6.50302,8.40259l-3.9212,3.03475z"/><path d="M33.28903,117.81525l3.92121,-3.03475l6.50303,8.40259l-3.9212,3.03476z"/><path d="M31.76909,103.98861l3.9212,-3.03475l6.50303,8.40259l-3.92121,3.03475z"/><path d="M26.31483,118.06253l16.24502,-12.57253l3.46828,4.48138l-16.24502,12.57253z"/></g><path d="M72.58565,137.17675c-2.50261,30.95973 -17.35501,72.20751 -27.49699,71.38769c-10.14198,-0.81982 -14.96433,-47.5493 -12.46172,-78.50903c2.50261,-30.95973 12.54095,-32.71085 22.68293,-31.89103c10.14198,0.81982 19.77839,8.05263 17.27578,39.01236z" fill="#00c3c5" stroke="none" stroke-width="0"/><path d="M65.37315,150.18218c-1.79808,22.24407 -12.46929,51.87995 -19.75615,51.29092c-7.28685,-0.58903 -10.75163,-34.16341 -8.95355,-56.40748c1.79808,-22.24407 9.01047,-23.50221 16.29732,-22.91319c7.28685,0.58903 14.21045,5.78569 12.41237,28.02975z" data-paper-data="{&quot;index&quot;:null}" fill="#00a5a8" stroke="none" stroke-width="0"/><path d="M51.62395,111.66973c0.07191,-0.88965 0.85141,-1.55255 1.74106,-1.48064c0.88965,0.07191 1.55255,0.85141 1.48064,1.74106c-0.07191,0.88965 -0.85141,1.55255 -1.74106,1.48064c-0.88965,-0.07191 -1.55255,-0.85141 -1.48064,-1.74106z" fill="#000000" stroke="none" stroke-width="0.5"/><path d="M31.74921,127.02137c-1.40952,17.43709 -3.70155,40.67599 -11.69248,40.34584c-7.97703,-0.32957 -6.53931,-23.40385 -5.1298,-40.84092c1.40952,-17.43709 4.03978,-18.04903 9.85215,-17.57919c5.81237,0.46984 8.37964,0.63718 6.97012,18.07427z" fill="#00c3c5" stroke="none" stroke-width="0"/><path d="M91.60978,135.3191c-1.40952,17.43709 -3.70155,40.67599 -11.69248,40.34584c-7.97703,-0.32957 -6.53931,-23.40385 -5.1298,-40.84092c1.40952,-17.43709 4.03978,-18.04903 9.85215,-17.57919c5.81237,0.46984 8.37964,0.63718 6.97012,18.07427z" fill="#00c3c5" stroke="none" stroke-width="0"/><path d="M39.54512,222.09476c-1.5144,20.26721 -3.94663,47.2858 -11.94321,47.05499c-7.98268,-0.23041 -6.40656,-27.04162 -4.89215,-47.30883c1.5144,-20.26721 4.15081,-21.02769 9.96592,-20.59317c5.81511,0.43452 8.38384,0.5798 6.86944,20.84701z" fill="#00c3c5" stroke="none" stroke-width="0"/><path d="M68.03962,222.84c0.31118,20.32134 0.31437,47.44917 -7.67065,47.93718c-7.97113,0.48716 -8.80833,-26.35727 -9.11952,-46.67861c-0.31118,-20.32134 2.24632,-21.31542 8.07696,-21.40471c5.83064,-0.08929 8.40204,-0.1752 8.71322,20.14614z" fill="#00c3c5" stroke="none" stroke-width="0"/><path d="M24.90214,269.07825l-0.04197,-0.0336l-0.0073,0.01717l-0.53055,-0.22582c-0.12837,-0.05113 -0.21417,-0.18143 -0.20245,-0.32636c0.00395,-0.04891 0.0186,-0.09439 0.04146,-0.13432c-0.85499,-1.20659 -0.97463,-3.33283 -1.42796,-4.38012c-0.98605,-2.57856 -0.27719,-6.27891 -1.35183,-8.76156l-0.00832,-0.36791c0,0 0.00183,-0.02262 0.01025,-0.05604c-0.08718,0.00483 -0.33458,-0.00774 -0.38282,-0.29867c-0.05878,-0.3545 0.29571,-0.41327 0.29571,-0.41327c1.25221,-0.18982 2.61659,-1.5833 3.88279,-1.54897c0.60986,0.01655 0.20843,2.10755 0.66648,1.70459c1.59041,-1.39918 1.80602,0.94801 3.02735,-0.18419c0.32917,-0.19699 1.28935,-0.88212 1.71959,-0.58589c0.5238,0.36062 -0.22696,2.23843 0.04433,2.4123c0.37036,0.23737 0.64628,-0.73057 1.08574,-0.75015c0.51646,-0.02302 0.76611,1.52264 1.0807,1.1124c1.33203,-1.73706 2.45164,1.58698 2.33866,2.72816c0.95738,2.37632 -2.9828,8.65093 -4.72222,10.14819c-0.73063,0.61428 -1.16581,0.68813 -1.60425,0.56191c-0.0215,0.01489 -0.04485,0.02722 -0.06958,0.03658l-0.37658,0.15172l-0.0511,-0.12684c-0.8894,0.25727 -1.84774,-0.07759 -2.74387,-0.4521l-0.11023,-0.10951c-0.16625,-0.00546 -0.32874,-0.03607 -0.48576,-0.10927c-0.00126,-0.00058 -0.00253,-0.00118 -0.00379,-0.00177c-0.02394,-0.00229 -0.04808,-0.0045 -0.07244,-0.00663z" fill="#000000" stroke="none" stroke-width="0.5"/><path d="M62.93578,270.8538c0.10479,0.06047 0.17118,0.17757 0.16079,0.30618c-0.0104,0.12861 -0.09473,0.23354 -0.20788,0.27638l-0.37658,0.15171c-1.16526,0.44559 -2.3285,-0.1745 -3.46057,-0.2455c0,0 -0.32217,-0.02604 -0.29613,-0.34821c0.0029,-0.03586 0.00946,-0.0674 0.01885,-0.09514c-0.22031,0.04549 -0.44016,0.0562 -0.66156,-0.00936c-1.72725,-0.51154 -2.21555,-3.48751 -2.97273,-4.70381c-1.35627,-2.40454 -1.20201,-6.16902 -2.63172,-8.46561l-0.0626,-0.36263c0,0 -0.00153,-0.02264 0.00185,-0.05692c-0.08551,0.01768 -0.33205,0.04179 -0.42275,-0.23882c-0.11053,-0.34193 0.2314,-0.45244 0.2314,-0.45244c1.21042,-0.37278 2.35389,-1.95259 3.61127,-2.10574c0.6056,-0.07377 0.51757,2.05361 0.91104,1.58738c1.36619,-1.61883 1.92627,0.67072 2.9669,-0.62953c0.29644,-0.24347 1.14484,-1.06297 1.61415,-0.83358c0.57134,0.27927 0.10631,2.2474 0.40032,2.37928c0.40136,0.18004 0.53122,-0.81806 0.96296,-0.90236c0.50739,-0.09908 0.9827,1.39272 1.23322,0.94049c1.06073,-1.91484 2.65923,1.20728 2.71614,2.35261c1.29802,2.20876 -1.67166,8.99674 -3.17074,10.73459c-0.2706,0.30644 -0.50224,0.50682 -0.71421,0.63108zM61.39812,271.13215c-0.03038,-0.00847 -0.06093,-0.0173 -0.09161,-0.02641c-0.01159,0.00646 -0.02378,0.01275 -0.03662,0.01884c0.04289,0.00339 0.08565,0.00595 0.12823,0.00756z" fill="#000000" stroke="none" stroke-width="0.5"/><path d="M17.33448,167.84867l-0.04197,-0.0336l-0.00732,0.01718l-0.53055,-0.22583c-0.12837,-0.05113 -0.21417,-0.18143 -0.20245,-0.32636c0.00395,-0.04891 0.0186,-0.09439 0.04146,-0.13432c-0.85499,-1.20659 -0.97463,-3.33283 -1.42796,-4.38012c-0.98605,-2.57856 -0.27719,-6.27891 -1.35183,-8.76156l-0.00832,-0.36791c0,0 0.00183,-0.02262 0.01025,-0.05604c-0.08718,0.00483 -0.33458,-0.00774 -0.38282,-0.29867c-0.05878,-0.3545 0.29571,-0.41327 0.29571,-0.41327c1.25221,-0.18982 2.61659,-1.5833 3.88279,-1.54897c0.60986,0.01655 0.20843,2.10755 0.66648,1.70459c1.59041,-1.39918 1.80602,0.94801 3.02735,-0.18419c0.32917,-0.19699 1.28935,-0.88212 1.71959,-0.58589c0.5238,0.36062 -0.22696,2.23844 0.04433,2.41231c0.37036,0.23737 0.64628,-0.73057 1.08574,-0.75015c0.51646,-0.02302 0.76611,1.52264 1.0807,1.1124c1.33203,-1.73706 2.45164,1.58698 2.33866,2.72816c0.95738,2.37632 -2.9828,8.65093 -4.72222,10.14819c-0.73063,0.61428 -1.16581,0.68813 -1.60425,0.56191c-0.0215,0.01489 -0.04485,0.02722 -0.06958,0.03658l-0.37658,0.15171l-0.0511,-0.12684c-0.8894,0.25727 -1.84772,-0.07759 -2.74387,-0.4521l-0.11023,-0.10951c-0.16625,-0.00546 -0.32874,-0.03607 -0.48576,-0.10927c-0.00126,-0.00058 -0.00253,-0.00118 -0.00379,-0.00177c-0.02394,-0.00229 -0.04808,-0.0045 -0.07244,-0.00663z" fill="#000000" stroke="none" stroke-width="0.5"/><path d="M77.42066,176.4117l-0.04197,-0.0336l-0.00732,0.01717l-0.53055,-0.22582c-0.12837,-0.05113 -0.21417,-0.18143 -0.20245,-0.32636c0.00395,-0.04891 0.0186,-0.09439 0.04146,-0.13432c-0.85499,-1.20659 -0.97463,-3.33283 -1.42796,-4.38012c-0.98605,-2.57856 -0.27719,-6.27891 -1.35183,-8.76156l-0.00832,-0.36791c0,0 0.00183,-0.02262 0.01025,-0.05604c-0.08718,0.00483 -0.33458,-0.00774 -0.38282,-0.29867c-0.05878,-0.3545 0.29571,-0.41327 0.29571,-0.41327c1.25221,-0.18982 2.61659,-1.5833 3.88279,-1.54897c0.60986,0.01655 0.20843,2.10755 0.66648,1.70459c1.59041,-1.39918 1.80602,0.94801 3.02735,-0.18419c0.32917,-0.19699 1.28935,-0.88212 1.71959,-0.58589c0.5238,0.36062 -0.22696,2.23843 0.04433,2.4123c0.37036,0.23737 0.64628,-0.73057 1.08574,-0.75015c0.51646,-0.02302 0.76611,1.52264 1.0807,1.1124c1.33203,-1.73706 2.45164,1.58698 2.33866,2.72816c0.95738,2.37632 -2.9828,8.65093 -4.72222,10.14819c-0.73063,0.61428 -1.16581,0.68813 -1.60425,0.56191c-0.0215,0.01489 -0.04485,0.02722 -0.06958,0.03658l-0.37658,0.15172l-0.0511,-0.12684c-0.8894,0.25727 -1.84772,-0.07759 -2.74387,-0.4521l-0.11023,-0.10951c-0.16625,-0.00546 -0.32874,-0.03607 -0.48576,-0.10927c-0.00126,-0.00058 -0.00253,-0.00118 -0.00379,-0.00176c-0.02394,-0.00229 -0.04808,-0.0045 -0.07244,-0.00663z" fill="#000000" stroke="none" stroke-width="0.5"/><g fill="#663f3f" stroke="#000000" stroke-width="0.5"><path d="M22.94486,267.55812l-0.00063,-1.93928l8.17968,0.4907l0.00064,1.93927z"/><path d="M23.05797,270.643l0.01321,-1.93816l7.45714,0.43228l-0.0132,1.93816z"/><path d="M23.0435,264.04539l-0.00063,-1.93928l8.17968,0.4907l0.00064,1.93928z"/><path d="M23.49547,260.74652l-0.00063,-1.93928l8.17968,0.4907l0.00064,1.93928z"/><path d="M23.33562,258.1394l-0.00063,-1.93928l8.17968,0.4907l0.00064,1.93928z"/><path d="M25.59474,273.12968l1.23815,-18.74419l1.86749,-0.06236l-1.23815,18.7442z"/></g><g fill="#663f3f" stroke="#000000" stroke-width="0.5"><path d="M55.64908,268.71934l-0.00064,-1.93928l8.17969,0.49068l0.00064,1.93928z"/><path d="M55.76218,271.80423l0.01321,-1.93816l7.45714,0.43228l-0.0132,1.93816z"/><path d="M55.74773,265.20662l-0.00064,-1.93928l8.17968,0.4907l0.00066,1.93928z"/><path d="M56.19969,261.90776l-0.00064,-1.93928l8.17969,0.4907l0.00064,1.93928z"/><path d="M56.03983,259.30064l-0.00063,-1.93928l8.17968,0.4907l0.00064,1.93928z"/><path d="M58.29897,274.29091l1.23815,-18.74419l1.86749,-0.06236l-1.23815,18.7442z"/></g><g fill="#663f3f" stroke="#000000" stroke-width="0.5"><path d="M15.02537,166.09626l-0.00064,-1.93927l8.17969,0.49068l0.00064,1.93928z"/><path d="M15.13846,169.18114l0.01321,-1.93816l7.45714,0.43228l-0.0132,1.93816z"/><path d="M15.12401,162.58353l-0.00064,-1.93928l8.17968,0.4907l0.00066,1.93928z"/><path d="M15.57598,159.28467l-0.00064,-1.93928l8.17969,0.4907l0.00064,1.93927z"/><path d="M15.41612,156.67755l-0.00064,-1.93928l8.17968,0.4907l0.00066,1.93927z"/><path d="M17.67526,171.66782l1.23815,-18.74419l1.86749,-0.06236l-1.23815,18.7442z"/></g><g fill="#663f3f" stroke="#000000" stroke-width="0.5"><path d="M76.37226,171.35842l-0.00064,-1.93928l8.17969,0.4907l0.00064,1.93928z"/><path d="M76.82423,168.05956l-0.00063,-1.93928l8.17968,0.4907l0.00064,1.93928z"/><path d="M76.66437,165.45244l-0.00064,-1.93928l8.17969,0.4907l0.00064,1.93928z"/><path d="M79.59588,172.12487l0.57331,-10.51945l1.85997,0.03074l-0.57331,10.51945z"/></g><path d="M79.19132,177.25785l-1.28482,-1.45258l6.45361,-5.04964l1.28484,1.45257z" fill="#663f3f" stroke="#000000" stroke-width="0.5"/><path d="M81.31914,179.49429l-1.27372,-1.46092l5.87356,-4.61486l1.27374,1.46091z" fill="#663f3f" stroke="#000000" stroke-width="0.5"/><path d="M86.01834,180.42993l-6.53734,-8.26141l1.41394,-1.2088l6.53734,8.26141z" fill="#663f3f" stroke="#000000" stroke-width="0.5"/><path d="M90.31402,184.25332l-5.28493,-1.89622l2.37027,-6.60615l5.28493,1.89622z" fill="#663f3f" stroke="#000000" stroke-width="0.5"/><path d="M86.79781,184.57535c0,0 -0.4387,-1.28864 0.05612,-2.40175c0.81516,-1.83372 3.23704,-7.28179 3.23704,-7.28179l1.9111,0.84956c0,0 -2.40027,5.39946 -3.21617,7.23487c-0.50122,1.12748 -1.80797,1.79158 -1.80797,1.79158z" fill="#565656" stroke="none" stroke-width="0"/><path d="M92.85534,175.45654c-0.38018,0.85521 -1.39525,1.23425 -2.26723,0.84663c-0.87198,-0.38763 -1.27067,-1.39516 -0.8905,-2.25037c0.38018,-0.85521 1.39525,-1.23425 2.26723,-0.84663c0.87198,0.38763 1.27067,1.39516 0.8905,2.25037z" fill="#2b2b2b" stroke="none" stroke-width="0"/><path d="M91.35454,181.90653l-4.1303,-1.53199l0.50625,-1.40594l4.1303,1.532z" fill="#663f3f" stroke="#000000" stroke-width="0.5"/><path d="M92.21835,180.07728l-4.14004,-1.5055l0.49725,-1.40916l4.14003,1.5055z" fill="#663f3f" stroke="#000000" stroke-width="0.5"/><path d="M90.62997,184.03286l-4.17228,-1.41369l0.466,-1.41979l4.17229,1.41369z" fill="#663f3f" stroke="#000000" stroke-width="0.5"/><path d="M91.7694,178.59864l-4.48033,-0.59396l0.23608,-1.83181l4.48033,0.59396z" fill="#663f3f" stroke="#000000" stroke-width="0.5"/><path d="M13.82617,175.18753l1.59747,-5.38278l6.72846,1.99682l-1.59746,5.38277z" data-paper-data="{&quot;index&quot;:null}" fill="#663f3f" stroke="#000000" stroke-width="0.5"/><path d="M16.61393,176.21152l1.2081,-4.23638l1.43303,0.42351l-1.2081,4.23638z" data-paper-data="{&quot;index&quot;:null}" fill="#663f3f" stroke="#000000" stroke-width="0.5"/><path d="M14.63081,175.8167l1.23523,-4.22855l1.43029,0.43268l-1.23523,4.22856z" data-paper-data="{&quot;index&quot;:null}" fill="#663f3f" stroke="#000000" stroke-width="0.5"/><path d="M18.76958,176.84451l1.32832,-4.20024l1.42039,0.46416l-1.32831,4.20023z" data-paper-data="{&quot;index&quot;:null}" fill="#663f3f" stroke="#000000" stroke-width="0.5"/><path d="M13.51793,174.11944l2.17148,-3.9637l1.61658,0.89327l-2.17148,3.9637z" data-paper-data="{&quot;index&quot;:null}" fill="#663f3f" stroke="#000000" stroke-width="0.5"/></g><g fill="#3c966d" stroke="none"><path d="M159.01147,242.17053c0,8.28427 -9.84974,15 -22,15c-12.15027,0 -22,-6.71573 -22,-15c0,-8.28427 9.84973,-15 22,-15c12.15026,0 22,6.71573 22,15z" stroke-width="NaN"/><path d="M198.01148,153.17053c0,14.35941 -25.96749,26 -58,26c-32.03251,0 -58,-11.64059 -58,-26c0,-14.35941 25.96748,-26 58,-26c32.03251,0 58,11.64059 58,26z" stroke-width="0"/><path d="M124.01148,236.17053v-65h27v65z" stroke-width="0"/><g><path d="M390.01148,269.17053c0,8.28427 -9.84974,15 -22,15c-12.15026,0 -22,-6.71573 -22,-15c0,-8.28427 9.84974,-15 22,-15c12.15026,0 22,6.71573 22,15z" stroke-width="NaN"/><path d="M429.01148,180.17053c0,14.35941 -25.96749,26 -58,26c-32.03251,0 -58,-11.64059 -58,-26c0,-14.35941 25.96749,-26 58,-26c32.03251,0 58,11.64059 58,26z" stroke-width="0"/><path d="M355.01148,263.17053v-65h27v65z" stroke-width="0"/></g><g><path d="M160.01147,383.17053c0,8.28427 -9.84974,15 -22,15c-12.15027,0 -22,-6.71573 -22,-15c0,-8.28427 9.84973,-15 22,-15c12.15026,0 22,6.71573 22,15z" stroke-width="NaN"/><path d="M199.01148,294.17053c0,14.3594 -25.96749,26 -58,26c-32.03251,0 -58,-11.6406 -58,-26c0,-14.3594 25.96748,-26 58,-26c32.03251,0 58,11.6406 58,26z" stroke-width="0"/><path d="M125.01148,377.17053v-65h27v65z" stroke-width="0"/></g><g><path d="M410.01148,408.17053c0,8.28427 -9.84974,15 -22,15c-12.15026,0 -22,-6.71573 -22,-15c0,-8.28427 9.84974,-15 22,-15c12.15026,0 22,6.71573 22,15z" stroke-width="NaN"/><path d="M449.01148,319.17053c0,14.3594 -25.96749,26 -58,26c-32.03251,0 -58,-11.6406 -58,-26c0,-14.3594 25.96749,-26 58,-26c32.03251,0 58,11.6406 58,26z" stroke-width="0"/><path d="M375.01148,402.17053v-65h27v65z" stroke-width="0"/></g><g><path d="M602.01148,278.17053c0,8.28427 -9.84974,15 -22,15c-12.15026,0 -22,-6.71573 -22,-15c0,-8.28427 9.84974,-15 22,-15c12.15026,0 22,6.71573 22,15z" stroke-width="NaN"/><path d="M641.01148,189.17053c0,14.35941 -25.96749,26 -58,26c-32.03251,0 -58,-11.64059 -58,-26c0,-14.35941 25.96749,-26 58,-26c32.03251,0 58,11.64059 58,26z" stroke-width="0"/><path d="M567.01148,272.17053v-65h27v65z" stroke-width="0"/></g><g><path d="M585.01148,424.17053c0,8.28427 -9.84974,15 -22,15c-12.15026,0 -22,-6.71573 -22,-15c0,-8.28427 9.84974,-15 22,-15c12.15026,0 22,6.71573 22,15z" stroke-width="NaN"/><path d="M624.01148,335.17053c0,14.3594 -25.96749,26 -58,26c-32.03251,0 -58,-11.6406 -58,-26c0,-14.3594 25.96749,-26 58,-26c32.03251,0 58,11.6406 58,26z" stroke-width="0"/><path d="M550.01148,418.17053v-65h27v65z" stroke-width="0"/></g></g><path d="M-120.98814,461.32332v-562.85562h722.24443v562.85562z" data-paper-data="{&quot;index&quot;:null}" fill-opacity="0.62745" fill="#000000" stroke="none" stroke-width="0"/></g></g></svg>