<svg version="1.1" xmlns="http://www.w3.org/2000/svg" xmlns:xlink="http://www.w3.org/1999/xlink" width="563.69443" height="596.85324" viewBox="0,0,563.69443,596.85324"><defs><linearGradient x1="240.00002" y1="-10.59287" x2="240.00002" y2="370.5929" gradientUnits="userSpaceOnUse" id="color-1"><stop offset="0" stop-color="#000000"/><stop offset="1" stop-color="#000000"/></linearGradient><linearGradient x1="333.69444" y1="224.65625" x2="484.69445" y2="224.65625" gradientUnits="userSpaceOnUse" id="color-2"><stop offset="0" stop-color="#000000" stop-opacity="0"/><stop offset="1" stop-color="#000000"/></linearGradient><linearGradient x1="349.19444" y1="264.15623" x2="349.19444" y2="422.15623" gradientUnits="userSpaceOnUse" id="color-3"><stop offset="0" stop-color="#000000" stop-opacity="0"/><stop offset="1" stop-color="#000000"/></linearGradient><radialGradient cx="240" cy="180" r="264" gradientUnits="userSpaceOnUse" id="color-4"><stop offset="0" stop-color="#000000" stop-opacity="0"/><stop offset="1" stop-color="#000000"/></radialGradient></defs><g transform="translate(25,14.5)"><g data-paper-data="{&quot;isPaintingLayer&quot;:true}" fill-rule="nonzero" stroke-linejoin="miter" stroke-miterlimit="10" stroke-dasharray="" stroke-dashoffset="0" style="mix-blend-mode: normal"><path d="M-12.46071,370.5929v-381.18577h504.92147v381.18577z" data-paper-data="{&quot;index&quot;:null}" fill="url(#color-1)" stroke="#000000" stroke-width="2" stroke-linecap="butt"/><g><g fill="#663f3f" stroke="#000000" stroke-width="0.5" stroke-linecap="butt"><path d="M315.75243,551.83519l0.76237,-6.94958l13.99375,1.1375l-0.76237,6.94958z"/><path d="M308.26544,555.73403l0.76237,-6.94958l13.99373,1.1375l-0.76237,6.9496z"/><path d="M325.03534,546.5799l0.76237,-6.94958l13.99373,1.1375l-0.76237,6.94958z"/><path d="M323.91903,556.75609l0.76235,-6.94958l13.99373,1.1375l-0.76237,6.94958z"/><path d="M309.40898,545.30963l0.76237,-6.94958l13.99373,1.13752l-0.76237,6.94958z"/><path d="M317.68345,564.26239l3.1584,-28.79113l7.46333,0.60666l-3.1584,28.79115z"/></g><g fill="#663f3f" stroke="#000000" stroke-width="0.5" stroke-linecap="butt"><path d="M401.77906,557.09978l-1.32642,-6.86427l13.70443,-3.05076l1.32644,6.86429z"/><path d="M395.77957,563.03793l-1.32644,-6.86431l13.70443,-3.05076l1.32644,6.86431z"/><path d="M409.09319,549.3348l-1.32644,-6.86429l13.70443,-3.05076l1.32644,6.86431z"/><path d="M411.03548,559.38609l-1.32644,-6.86427l13.70443,-3.05076l1.32644,6.86429z"/><path d="M393.78988,552.7415l-1.32642,-6.86429l13.70443,-3.05076l1.32644,6.86429z"/><path d="M407.29802,568.40046l-5.49521,-28.4378l7.30904,-1.62706l5.49521,28.4378z"/></g><g fill="#663f3f" stroke="#000000" stroke-width="0.5" stroke-linecap="butt"><path d="M337.50118,280.7164l7.62391,-7.34171l15.73229,16.337l-7.62393,7.34171z"/><path d="M324.73393,277.2676l7.62393,-7.34173l15.73227,16.337l-7.62393,7.34173z"/><path d="M353.7375,284.49801l7.62393,-7.34173l15.73227,16.33698l-7.62393,7.34173z"/><path d="M342.57393,295.24834l7.62393,-7.34173l15.73227,16.337l-7.62393,7.34173z"/><path d="M336.16981,266.25498l7.62391,-7.34171l15.73229,16.337l-7.62393,7.34171z"/><path d="M327.83014,297.3764l31.58486,-30.41573l8.39053,8.71307l-31.58484,30.41573z"/></g><g fill="#663f3f" stroke="#000000" stroke-width="0.5" stroke-linecap="butt"><path d="M421.836,299.51368l-4.57033,-9.54658l20.45699,-9.79356l4.57031,9.54658z"/><path d="M414.54557,310.54751l-4.57031,-9.54658l20.45695,-9.79356l4.57033,9.54658z"/><path d="M430.5337,285.29151l-4.57033,-9.54658l20.45697,-9.79356l4.57031,9.54658z"/><path d="M437.22598,299.27044l-4.57033,-9.54658l20.45697,-9.79356l4.57033,9.54658z"/><path d="M407.69009,296.22767l-4.57033,-9.54658l20.45697,-9.79358l4.57031,9.5466z"/><path d="M434.60737,313.93508l-18.93422,-39.55015l10.9104,-5.22322l18.93422,39.55015z"/></g><g fill="#663f3f" stroke="#000000" stroke-width="0.5" stroke-linecap="butt"><path d="M387.81285,427.08159l-2.85262,-7.01246l15.0267,-6.11278l2.85264,7.01246z"/><path d="M382.13338,434.64602l-2.85264,-7.01248l15.0267,-6.11278l2.85262,7.01246z"/><path d="M394.63426,417.30136l-2.85264,-7.01246l15.0267,-6.11278l2.85264,7.01246z"/><path d="M398.81133,427.56961l-2.85262,-7.01246l15.0267,-6.11278l2.85264,7.01246z"/><path d="M377.85443,424.12733l-2.85264,-7.01246l15.0267,-6.11278l2.85264,7.01246z"/><path d="M396.31123,437.92711l-11.81805,-29.05164l8.01426,-3.26014l11.81805,29.05162z"/></g><g fill="#663f3f" stroke="#000000" stroke-width="0.5" stroke-linecap="butt"><path d="M346.09718,411.47606l3.01433,-6.94449l14.88107,6.45926l-3.01433,6.94449z"/><path d="M336.71888,412.71076l3.01433,-6.94449l14.88105,6.45926l-3.01433,6.94451z"/><path d="M357.85756,409.50687l3.01431,-6.94449l14.88107,6.45926l-3.01433,6.94449z"/><path d="M353.44374,419.67556l3.01433,-6.94449l14.88105,6.45926l-3.01431,6.94449z"/><path d="M341.24038,402.29401l3.01433,-6.94449l14.88105,6.45926l-3.01433,6.94449z"/><path d="M344.29439,425.1361l12.48792,-28.77006l7.93656,3.44495l-12.4879,28.77006z"/></g><g fill="#663f3f" stroke="#000000" stroke-width="0.5" stroke-linecap="butt"><path d="M429.81797,119.17643l3.72916,-2.14921l4.60545,7.99109l-3.72916,2.14923z"/><path d="M425.11791,116.56252l3.72916,-2.14921l4.60545,7.99109l-3.72916,2.14921z"/><path d="M435.85444,122.26208l3.72916,-2.14921l4.60545,7.99107l-3.72916,2.14921z"/><path d="M430.39387,125.40914l3.72918,-2.14921l4.60545,7.99109l-3.72918,2.14921z"/><path d="M430.71166,113.33872l3.72916,-2.14921l4.60545,7.99109l-3.72916,2.14921z"/><path d="M424.36654,124.80213l15.44941,-8.90387l2.45624,4.26189l-15.44941,8.90387z"/></g><g fill="#663f3f" stroke="#000000" stroke-width="0.5" stroke-linecap="butt"><path d="M347.41551,105.89418l-2.56615,-3.45553l7.40472,-5.49887l2.56615,3.45553z"/><path d="M345.36284,110.86502l-2.56615,-3.45553l7.40472,-5.49887l2.56615,3.45553z"/><path d="M349.78221,99.5413l-2.56615,-3.45553l7.40472,-5.49887l2.56615,3.45553z"/><path d="M353.53979,104.60119l-2.56613,-3.45553l7.40472,-5.49887l2.56615,3.45553z"/><path d="M341.51362,105.68172l-2.56615,-3.45553l7.40472,-5.49887l2.56615,3.45553z"/><path d="M353.63406,110.65828l-10.63116,-14.31579l3.94917,-2.93274l10.63118,14.31579z"/></g><g fill="#663f3f" stroke="#000000" stroke-width="0.5" stroke-linecap="butt"><path d="M377.41315,238.48618l1.21909,-14.32407l30.69446,2.61234l-1.21909,14.32407z"/><path d="M361.28222,246.38834l1.21909,-14.32407l30.69444,2.61234l-1.21907,14.32407z"/><path d="M397.38633,227.81935l1.21907,-14.32407l30.69446,2.61234l-1.21909,14.32407z"/><path d="M395.60122,248.7939l1.21909,-14.32409l30.69446,2.61234l-1.21907,14.32409z"/><path d="M363.11085,224.90224l1.21909,-14.32407l30.69446,2.61232l-1.21909,14.32409z"/><path d="M382.44178,264.16283l5.05053,-59.34261l16.37037,1.39325l-5.05053,59.34261z"/></g><path d="M479.7184,154.21962c0,39.16991 -32.44377,70.92338 -72.46519,70.92338c-40.02143,0 -72.46519,-31.75349 -72.46519,-70.92338c0,-39.16991 32.44377,-70.9234 72.46519,-70.9234c17.27379,0 20.80142,49.08611 33.25256,58.96001c16.39674,13.0028 39.21265,-10.30026 39.21265,11.96337z" fill="#c50000" stroke="#000000" stroke-width="0.5" stroke-linecap="butt"/><path d="M371.57002,134.91316c5.10401,0 9.24163,5.05708 9.24163,11.29532c0,6.23824 -4.13762,11.29532 -9.24163,11.29532c-5.10401,0 -9.24163,-5.05708 -9.24163,-11.29532c0,-6.23824 4.13762,-11.29532 9.24163,-11.29532z" fill="#000000" stroke="#000000" stroke-width="0.5" stroke-linecap="butt"/><path d="M364.71023,174.6544c-0.50921,-0.06549 -0.44374,-0.57473 -0.44374,-0.57473l0.10817,-0.76566c0.42947,-1.11132 -0.07383,-2.24378 -0.89475,-3.07974c-0.05923,-2.01687 -1.30605,-3.94377 -0.84682,-6.06479c0.48656,-2.24721 2.37191,-3.02706 3.32639,-4.83516c0.58093,-1.10051 -0.0542,-4.41713 -0.0542,-5.72611c0,0 0,-0.51342 0.51342,-0.51342c0.51342,0 0.51342,0.51342 0.51342,0.51342c0,1.5704 0.6205,4.78546 -0.0542,6.18532c-0.856,1.77604 -2.76403,2.50865 -3.24543,4.61184c-0.43111,1.88336 0.86056,3.649 0.79611,5.43592c1.05168,1.03184 1.33392,2.41022 0.92024,3.79742l-0.06385,0.57193c0,0 -0.06551,0.50923 -0.57473,0.44374z" fill="#420000" stroke="none" stroke-width="0.5" stroke-linecap="butt"/><path d="M374.63345,177.12304c-0.51342,0 -0.51342,-0.51342 -0.51342,-0.51342v-0.61611c0,-2.86909 2.44059,-4.21564 3.87758,-6.69562c4.9539,-4.0154 -2.23463,-10.57916 -2.23463,-15.68965c0,0 0,-0.51342 0.51342,-0.51342c0.51342,0 0.51342,0.51342 0.51342,0.51342c0,5.77575 7.35601,11.39815 2.00089,16.34186c-1.29007,2.25479 -3.64385,3.57657 -3.64385,6.04343v0.61611c0,0 0,0.51342 -0.51342,0.51342z" fill="#000000" stroke="none" stroke-width="0.5" stroke-linecap="butt"/><path d="M369.48452,173.38967c-0.4767,0.19069 -0.66739,-0.28602 -0.66739,-0.28602l-0.02937,-0.07344c-0.13626,-0.34898 -0.27255,-0.69801 -0.40883,-1.04699c-0.02308,-2.80155 -0.51164,-6.7193 0.8889,-9.1979c1.07336,-1.89961 3.51412,-3.64026 2.03123,-6.48304c0,0 -0.22962,-0.45921 0.2296,-0.68883c0.45923,-0.22962 0.68883,0.22962 0.68883,0.22962c1.59938,3.30762 -0.79441,5.27483 -2.07616,7.48208c-1.26643,2.18088 -0.72898,5.94701 -0.75406,8.46387c0.11796,0.28661 0.23595,0.57323 0.35391,0.85982l0.02937,0.07344c0,0 0.19069,0.4767 -0.28602,0.66739z" fill="#04ff00" stroke="none" stroke-width="0.5" stroke-linecap="butt"/><path d="M372.47705,174.55592c0,-0.51342 0.51342,-0.51342 0.51342,-0.51342l0.36227,0.28382c1.05127,-2.07002 2.82617,-3.43558 3.69665,-5.33961c2.05261,-4.08433 1.1215,-5.44936 -1.20975,-8.94745c-1.08747,-1.6318 -3.63524,-2.50456 -2.4869,-5.01767c0,0 0.2296,-0.45923 0.68883,-0.22962c0.45923,0.22962 0.2296,0.68883 0.2296,0.68883c-1.04868,1.84124 3.45933,5.38822 4.47543,6.86349c1.7249,2.50436 0.39275,4.74533 -0.77878,7.10163c-0.98245,1.85071 -2.67062,3.2487 -3.69665,5.33961l-1.28068,0.28382c0,0 -0.51342,0 -0.51342,-0.51342z" fill="#1c00ff" stroke="none" stroke-width="0.5" stroke-linecap="butt"/><path d="M361.36798,182.51992c-1.33901,-5.04268 1.30794,-10.12167 5.91211,-11.34426c4.60418,-1.22258 9.4221,1.87422 10.76111,6.9169c1.33901,5.0427 -1.30794,10.12167 -5.91211,11.34426c-4.60418,1.22258 -9.4221,-1.8742 -10.76111,-6.91688z" fill="#ffffff" stroke="#000000" stroke-width="0" stroke-linecap="butt"/><path d="M371.34754,187.69957c0,0.68053 -0.73557,1.23222 -1.64296,1.23222c-0.90738,0 -1.64296,-0.55168 -1.64296,-1.23222c0,-0.68053 0.73557,-1.23222 1.64296,-1.23222c0.90738,0 1.64296,0.55168 1.64296,1.23222z" fill="#000000" stroke="none" stroke-width="0" stroke-linecap="butt"/><path d="M429.55062,152.12528c-1.33901,-5.04268 1.30794,-10.12167 5.91211,-11.34426c2.32117,-0.61638 3.0537,3.151 5.01036,4.42614c1.92452,1.25419 5.08682,-0.00971 5.75078,2.49074c1.33901,5.0427 -1.30794,10.12167 -5.91211,11.34426c-4.60418,1.22258 -9.4221,-1.87422 -10.76111,-6.9169z" fill="#ffffff" stroke="#000000" stroke-width="0.5" stroke-linecap="butt"/><path d="M438.96149,151.52293c0,0.68053 -0.73557,1.23222 -1.64296,1.23222c-0.90738,0 -1.64296,-0.55168 -1.64296,-1.23222c0,-0.68053 0.73557,-1.23222 1.64296,-1.23222c0.90738,0 1.64296,0.55168 1.64296,1.23222z" fill="#000000" stroke="none" stroke-width="0" stroke-linecap="butt"/><path d="M415.30944,189.72652l-16.42956,3.08054l-15.91613,-1.54027l-5.64766,-5.64766z" fill="#000000" stroke="#3e0000" stroke-width="0.5" stroke-linecap="round"/><path d="M349.10044,86.0332c7.95458,8.45268 4.68261,7.98242 -0.12893,12.51041c-4.81154,4.52799 -7.40061,6.51966 -15.35517,-1.93302c-7.95458,-8.45268 -12.44251,-16.38898 -7.63097,-20.91696c4.81154,-4.52799 15.16052,1.88689 23.11507,10.33957z" fill="#ff0000" stroke="#000000" stroke-width="0.5" stroke-linecap="butt"/><path d="M348.64781,89.13375c5.20751,5.5336 3.06549,5.22575 -0.08441,8.19001c-3.1499,2.96426 -4.84485,4.26813 -10.05236,-1.26547c-5.20751,-5.5336 -8.14557,-10.72914 -4.99565,-13.69342c3.1499,-2.96426 9.92493,1.23528 15.13244,6.76887z" fill="#d00000" stroke="#000000" stroke-width="0.5" stroke-linecap="butt"/><path d="M459.01413,130.57616c-0.50946,0.06371 -0.57317,-0.44575 -0.57317,-0.44575l-0.01091,-0.08722c-0.08997,-1.58391 -2.0155,-4.24437 -3.20128,-5.75053c-2.02281,-3.88467 -4.58461,-4.39501 -8.82563,-3.93285c-2.17045,0.23652 -6.12631,2.93804 -6.44942,-0.04818c0,0 0,-0.51342 0.51342,-0.51342c0.51342,0 0.51342,0.51342 0.51342,0.51342c-0.22903,1.01097 3.9739,-0.82388 5.31014,-0.97249c4.5491,-0.50593 7.62631,0.17446 9.80115,4.39719c1.41569,1.79684 3.02511,4.21484 3.35709,6.17944l0.01091,0.0872c0,0 0.06371,0.50946 -0.44575,0.57317z" fill="#04ff00" stroke="none" stroke-width="0.5" stroke-linecap="butt"/><path d="M458.75642,134.57607c-0.40199,0.31939 -0.72138,-0.0826 -0.72138,-0.0826l-0.65225,-0.90726c-0.33592,-2.06708 -2.92009,-3.58002 -3.13653,-6.05228c-1.47827,-1.84602 -3.04994,-7.40825 -5.24733,-8.28824c-1.90772,-0.76399 -5.91906,0.03908 -8.0183,0.03908c0,0 -0.51342,0 -0.51342,-0.51342c0,-0.51342 0.51342,-0.51342 0.51342,-0.51342c2.2228,0 6.38243,-0.81899 8.41126,0.03908c2.56053,1.08295 4.19089,6.68841 5.80848,8.85728c0.29103,2.56274 2.63195,3.98002 3.1867,6.21783l0.45196,0.48256c0,0 0.31939,0.40197 -0.0826,0.72136z" fill="#1c00ff" stroke="none" stroke-width="0.5" stroke-linecap="butt"/><path d="M459.9773,135.71454c-0.00018,0.51342 -0.51361,0.51324 -0.51361,0.51324l-0.57746,-0.00021c-5.88065,-0.02035 -6.766,-4.75067 -8.14487,-9.2964c-0.02152,-4.1094 -2.37635,-11.11375 -8.17757,-9.12405c-0.94569,0.32436 -1.61139,1.42988 -2.61002,1.47769c0,0 -0.51342,0 -0.51342,-0.51342c0,-0.51342 0.51342,-0.51342 0.51342,-0.51342c1.32361,0.1025 1.75468,-1.43824 3.4363,-1.52889c6.01022,-0.32395 8.397,4.9194 8.36675,10.04963c1.26684,4.07001 1.80875,8.40553 7.13277,8.42204l0.57446,0.00021c0,0 0.51342,0.00018 0.51324,0.51361z" fill="#000000" stroke="none" stroke-width="0.5" stroke-linecap="butt"/><path d="M447.87541,136.17806c-0.46377,0.22028 -0.68404,-0.24349 -0.68404,-0.24349l-0.17516,-0.36878c-2.51103,-5.292 9.33186,-10.2281 5.21172,-15.90519c-1.14859,-4.11425 -4.92328,-4.50702 -9.17831,-3.41722c-1.33418,0.34171 -4.29536,0.80829 -3.15004,2.81175c0,0 0.2296,0.45923 -0.22962,0.68883c-0.45923,0.2296 -0.68883,-0.2296 -0.68883,-0.2296c-1.31204,-2.88409 1.63579,-3.73631 3.82012,-4.26733c4.54581,-1.10515 9.13668,-0.66049 10.35627,3.97741c4.264,6.25783 -7.52428,11.04163 -5.2138,15.90079l0.17516,0.36878c0,0 0.22028,0.46377 -0.24349,0.68404z" fill="#420000" stroke="none" stroke-width="0.5" stroke-linecap="butt"/><path d="M418.42956,314.07003c-8.12826,68.84725 -22.39283,111.64958 -46.61045,108.7904c-24.21762,-2.85917 -24.80286,-57.31315 -16.6746,-126.16041c8.12826,-68.84725 17.84546,-65.25483 42.06309,-62.39566c24.21762,2.85917 29.35023,10.91841 21.22198,79.76566z" fill="#c50000" stroke="#000000" stroke-width="2" stroke-linecap="butt"/><path d="M400.86618,359.96683c-3.76596,34.10297 -18.68934,38.75457 -23.19882,38.25659c-4.50948,-0.49798 -19.48808,-16.22544 -15.72212,-50.32841c3.76596,-34.10297 18.68934,-41.83511 23.19882,-41.33713c4.50948,0.49798 19.48808,19.30596 15.7221,53.40893z" fill="#8b0000" stroke="none" stroke-width="0" stroke-linecap="butt"/><path d="M382.94597,279.48445c0,-1.9849 1.60907,-3.59397 3.59397,-3.59397c1.9849,0 3.59397,1.60907 3.59397,3.59397c0,1.9849 -1.60907,3.59397 -3.59397,3.59397c-1.9849,0 -3.59397,-1.60907 -3.59397,-3.59397z" fill="#000000" stroke="none" stroke-width="0.5" stroke-linecap="butt"/><path d="M386.02651,261.0012c0,-1.9849 1.60907,-3.59397 3.59397,-3.59397c1.9849,0 3.59397,1.60907 3.59397,3.59397c0,1.9849 -1.60907,3.59397 -3.59397,3.59397c-1.9849,0 -3.59397,-1.60907 -3.59397,-3.59397z" fill="#000000" stroke="none" stroke-width="0.5" stroke-linecap="butt"/><path d="M333.42954,340.76255c-14.29638,32.52428 -34.43709,55.13166 -44.9855,50.49499c-10.54841,-4.63667 -7.51007,-34.76155 6.78631,-67.28585c14.29638,-32.52428 34.43709,-55.13166 44.9855,-50.49499c10.54841,4.63667 7.51007,34.76157 -6.78631,67.28585z" fill="#c50000" stroke="#000000" stroke-width="2" stroke-linecap="butt"/><path d="M470.66708,352.22305c2.90826,35.40843 -4.0436,64.87728 -15.52741,65.8205c-11.48383,0.94322 -23.15091,-26.99637 -26.05917,-62.40479c-2.90826,-35.40843 4.0436,-64.87726 15.52741,-65.82048c11.48383,-0.94322 23.15091,26.99635 26.05917,62.40479z" fill="#c50000" stroke="#000000" stroke-width="2" stroke-linecap="butt"/><path d="M420.35157,483.6595c2.90826,35.40843 -4.0436,64.87728 -15.52741,65.8205c-11.48383,0.94322 -23.15091,-26.99635 -26.05917,-62.40479c-2.90826,-35.40843 4.0436,-64.87726 15.52741,-65.82048c11.48383,-0.94322 23.15091,26.99635 26.05917,62.40479z" fill="#c50000" stroke="#000000" stroke-width="2" stroke-linecap="butt"/><path d="M354.51413,483.03669c-4.77418,35.20544 -17.90051,62.48986 -29.31848,60.94148c-11.41799,-1.54838 -16.80384,-31.34322 -12.02968,-66.54866c4.77418,-35.20544 17.90051,-62.48988 29.31848,-60.9415c11.41799,1.54838 16.80384,31.34322 12.02968,66.54866z" fill="#c50000" stroke="#000000" stroke-width="2" stroke-linecap="butt"/><path d="M338.27811,567.6178c0,5.10401 -4.75007,8.21478 -16.94298,8.21478c-12.19291,0 -14.88929,-4.13762 -14.88929,-9.24163c0,-5.10401 2.69638,-9.24163 14.88929,-9.24163c12.19291,0 16.94298,5.16447 16.94298,10.26847z" fill="#c50000" stroke="#000000" stroke-width="2" stroke-linecap="butt"/><path d="M429.66752,570.69832c0,5.10401 -4.06551,4.79197 -16.25842,4.79197c-12.19291,0 -11.46645,-1.05708 -11.46645,-6.16108c0,-5.10401 -1.41101,-8.89936 10.7819,-8.89936c12.19291,0 16.94298,5.16447 16.94298,10.26847z" fill="#c50000" stroke="#000000" stroke-width="2" stroke-linecap="butt"/><path d="M318.31381,573.97192c-0.50108,-0.11191 -0.38915,-0.61301 -0.38915,-0.61301l0.18886,-0.68762c3.11357,-4.44576 -0.78118,-8.88416 -3.1861,-12.25105c0,0 -0.29842,-0.4178 0.11936,-0.71623c0.4178,-0.29842 0.71621,0.11938 0.71621,0.11938c2.7653,3.87142 6.42687,8.39803 3.20491,13.41748l-0.04109,0.34186c0,0 -0.11191,0.50108 -0.61299,0.38915z" fill="#000000" stroke="none" stroke-width="0.5" stroke-linecap="butt"/><path d="M326.98279,573.98425c-0.51342,0 -0.51342,-0.51342 -0.51342,-0.51342l0.05202,-0.56748c0.11531,-0.23544 0.23065,-0.47083 0.34597,-0.70627c2.10812,-6.32092 -2.75992,-7.74625 -2.79397,-13.44441c0,0 0,-0.51342 0.51342,-0.51342c0.51342,0 0.51342,0.51342 0.51342,0.51342c-0.01811,2.58102 2.55094,3.93566 3.0668,6.04312c0.80028,3.2693 0.72245,4.57317 -0.34913,7.78968c-0.12458,0.25608 -0.24915,0.51217 -0.37373,0.76827l0.05202,0.11708c0,0 0,0.51342 -0.51342,0.51342z" fill="#000000" stroke="none" stroke-width="0.5" stroke-linecap="butt"/><path d="M415.4716,571.90418c-0.48707,-0.16234 -0.32473,-0.64944 -0.32473,-0.64944l0.01758,-0.0527c0.84181,-2.51524 5.85297,-6.46014 4.80226,-8.45469c0,0 -0.22962,-0.45921 0.2296,-0.68883c0.45923,-0.22962 0.68883,0.22962 0.68883,0.22962c1.46108,3.03939 -3.69965,6.08423 -4.74654,9.23863l-0.01758,0.05268c0,0 -0.16237,0.48707 -0.64944,0.32473z" fill="#000000" stroke="none" stroke-width="0.5" stroke-linecap="butt"/><path d="M335.00565,446.15527c0.36305,-0.36303 0.7261,0 0.7261,0l0.43846,0.47572c0.9303,1.93528 2.36795,3.63943 3.12811,5.96617c0.03541,5.92148 8.21092,8.54719 4.31849,15.82671c-1.846,1.67269 -6.23062,2.67407 -7.98006,0.30072c-0.91053,-1.23526 -0.67583,-3.3641 -1.95879,-4.48079c-1.79251,-1.56019 -3.79172,-1.90106 -5.28697,-4.18001c-0.78669,-3.70314 1.10676,-14.55513 6.79779,-13.00572c0,0 0.01974,0.00659 0.04997,0.02107l-0.23309,-0.19781c0,0 -0.36305,-0.36305 0,-0.72608z" fill="#000000" stroke="none" stroke-width="0.5" stroke-linecap="butt"/><path d="M349.42844,488.97362h0.25671c2.21805,0.04824 2.31041,2.12377 2.31041,3.85068c0,4.08375 -1.54027,7.21496 -1.54027,11.29532c0,4.18941 0.3871,8.18802 -1.81902,11.44411c-0.06317,2.34785 -6.9372,11.39852 -9.16539,8.29561c0,0 -0.06079,-0.12158 -0.05726,-0.27088l-0.38614,-0.20697c-0.49673,-0.99345 -1.47318,-1.34936 -2.12648,-2.1924c-1.76745,-2.28081 -0.41988,-6.25093 -0.41988,-8.78137c0.05451,-2.24875 -1.63885,-3.43172 -2.35688,-5.28005c-1.269,-3.26659 1.88371,-4.44103 3.10221,-6.59981c0.80386,-1.4242 -1.1687,-3.15595 -0.98538,-4.67595c0.77198,-2.90349 6.87103,-7.54959 9.99511,-7.57509c0.7862,-0.00643 1.76774,0.55922 2.69706,1.05502c0.09137,-0.35816 0.49521,-0.35816 0.49521,-0.35816z" fill="#000000" stroke="none" stroke-width="0.5" stroke-linecap="butt"/><path d="M414.888,317.14237c-0.33773,-0.22515 -0.23045,-0.53932 -0.1707,-0.66102c-1.2424,-0.55162 -2.46534,-1.24828 -2.87478,-0.89215c-0.39371,0.34243 0.6228,1.32085 -0.56988,1.92858c0.32582,5.03552 -1.64417,11.38199 -4.44007,15.81829c0.14242,0.20249 0.2776,0.45116 0.40883,0.75623l-0.23909,0.18547l0.09533,0.09533l-0.68456,0.68456c-0.09291,0.09291 -0.22127,0.15039 -0.36305,0.15039c-0.28355,0 -0.51342,-0.22987 -0.51342,-0.51342v-1.02685h0.27146c0.00269,-0.02097 0.0055,-0.04192 0.00846,-0.06278c-0.62477,-0.3045 -1.47724,-0.10835 -2.16248,-0.10835c-2.41547,0 -7.78319,1.41372 -9.85383,0.2656c-2.26997,-1.25863 -5.03118,-6.37528 -5.03545,-8.99381c0,-4.57994 1.1566,-7.9065 5.00719,-10.68642c2.06534,-1.49106 6.03979,-0.84339 7.32871,-3.46512c-0.05401,-3.56546 -4.79193,-17.08027 3.74078,-13.03866c0.20514,-0.07013 0.41133,0.03294 0.41133,0.03294c1.17582,0.61944 2.68638,-0.22794 3.80541,0.36476c1.24809,0.66106 1.24538,3.96955 2.32252,4.41208c2.3201,0.9532 3.50426,-4.31325 5.39699,-0.78213c0.80219,1.66875 0.62371,3.11104 1.95752,4.31625l0.15037,0.70534c0,0 0,0.41372 -0.37137,0.49839c0.71978,2.57907 1.01048,5.26504 -1.06184,7.51886c-0.41883,0.63428 -0.96495,1.07807 -1.38423,1.65719c0.27396,0.09502 0.46097,0.09917 0.51837,-0.04847l0.29957,-0.61397c0,0 0.22962,-0.45923 0.68883,-0.22962c0.45923,0.22962 0.2296,0.68883 0.2296,0.68883l-0.38499,0.75516c-0.41201,0.31027 -1.0394,0.23759 -1.72993,0.01164l-0.08964,0.13448c0,0 -0.28481,0.42719 -0.712,0.14238z" fill="#000000" stroke="none" stroke-width="0.5" stroke-linecap="butt"/><path d="M315.62711,292.55287c0.27419,0.13708 0.30282,0.35603 0.28136,0.51022c1.99601,-0.10887 4.46069,-0.30446 5.90022,0.82729c2.11713,1.66442 0.93671,3.96108 1.55812,6.08493c0.30984,1.05895 1.85644,2.09382 2.48409,3.01117c3.13264,3.40542 1.16707,5.8658 -2.9755,5.8658c-0.7122,0 -3.26932,0.33689 -3.53094,-0.73559c-0.06412,-0.26285 0.15789,-0.61685 0.53121,-1.0035c-2.47848,0.71746 -5.24571,0.98337 -6.19982,0.27306c-0.87259,-0.64965 -0.9739,-3.23303 -1.344,-3.40581c-0.57959,-0.27057 -2.00367,0.76167 -2.44102,0.97665c-0.29089,0.03497 -0.58179,0.06997 -0.8727,0.10496c-0.10681,0.19816 -0.3418,0.2569 -0.3418,0.2569c-0.11388,0.02785 -0.22211,0.05159 -0.32489,0.07132c-0.04892,0.01861 -0.14333,0.04723 -0.2501,0.04171c-4.30606,0.60005 2.59926,-6.98474 3.78837,-8.76841c0.7688,-1.13278 1.30112,-2.20417 2.26017,-3.10578c0.04013,-0.4505 0.51069,-0.4505 0.51069,-0.4505c0.00887,0 0.01774,0 0.02666,-0.00002c0.08182,-0.06104 0.16649,-0.12107 0.25427,-0.18007l-0.00329,-0.1447c0,0 0.2296,-0.45923 0.68883,-0.22962z" fill="#000000" stroke="none" stroke-width="0.5" stroke-linecap="butt"/><path d="M341.23983,275.72685c0.27965,0 0.40698,0.1523 0.46496,0.29103c0.06781,0.00337 0.14306,0.02239 0.22578,0.06373c0.34892,0.17446 0.30017,0.48149 0.25661,0.6189c2.39742,2.98106 1.66261,6.4516 2.81112,9.89714c0.02896,2.60289 1.70576,6.64387 -0.046,8.78776c-0.01002,0.27441 -0.23537,0.49387 -0.51211,0.49437c-0.05683,0.0435 -0.11591,0.08572 -0.1773,0.12665c0,0 -0.42719,0.28481 -0.712,-0.14238c-0.00094,-0.00142 -0.00189,-0.00283 -0.00281,-0.00425c-0.06543,0.01739 -0.11291,0.01951 -0.11291,0.01951l-0.25542,-0.00828c-4.12901,1.34897 -9.69625,-1.01411 -8.10938,-5.85393c0.84466,-2.47589 -0.38753,-5.31554 0.3121,-7.77541c0.61479,-2.1616 4.11191,-3.37143 5.55001,-5.41138c-0.0184,-0.01863 -0.03695,-0.03725 -0.05568,-0.05584l-0.15037,-0.53419c0,0 0,-0.51342 0.51342,-0.51342z" fill="#000000" stroke="none" stroke-width="0.5" stroke-linecap="butt"/><path d="M453.38964,339.57373l0.38145,0.34013c2.63109,1.84945 6.09886,2.63933 7.28942,6.34468c0.78772,3.29998 -2.19903,11.12665 -4.68842,13.49136c-1.34053,1.27339 -5.25471,0.40172 -6.9084,0.23634c-3.40184,-0.39591 -3.77728,-5.38113 -6.2788,-7.45824c-1.82806,-1.51791 -6.2145,-2.26258 -8.501,-3.5355c-2.63559,-3.2474 -6.844,-11.10326 -2.236,-15.02249c0.8329,-0.7084 4.14696,0.07753 5.17295,0.16216c3.91256,0.32274 13.65313,1.21815 15.76878,5.44153z" fill="#000000" stroke="none" stroke-width="0.5" stroke-linecap="butt"/><path d="M460.68757,411.89604c0.48707,0.16237 0.32473,0.64944 0.32473,0.64944l-0.0389,0.11267c0.15086,0.04413 0.35523,0.1637 0.35523,0.48761c0,0.51342 -0.51342,0.51342 -0.51342,0.51342l-0.3122,-0.11057c-0.08106,0.10967 -0.16214,0.21936 -0.24322,0.32902c-3.25689,4.84826 -7.23381,4.78283 -11.76888,1.70496c-4.68444,-1.64285 -6.97461,-8.09916 -8.82078,-12.28555c-0.59641,-3.40942 -3.30185,-6.6979 -2.05148,-10.58638c0,0 0.16237,-0.48707 0.64944,-0.32473c0.06052,0.02019 0.11102,0.04539 0.15306,0.07404c0.08227,-0.02228 0.14571,-0.0223 0.14571,-0.0223c0.83012,0 3.87575,-0.4215 4.47044,0.15037c0.94614,0.90989 0.3817,4.27934 1.96058,5.06055c0.94875,0.46943 2.69995,-0.57487 3.54131,-0.4169c1.62086,0.30434 2.04517,2.0808 2.46499,3.34159c1.46264,5.73718 6.48156,6.89778 9.33805,11.3175c0.09053,-0.0343 0.20434,-0.04175 0.34537,0.00526zM460.93216,412.91617l-0.02602,-0.06313l-0.00253,0.00735c0.00955,0.01854 0.01906,0.03713 0.02855,0.05578z" fill="#000000" stroke="none" stroke-width="0.5" stroke-linecap="butt"/><path d="M306.4456,339.51409c0.01088,-0.00924 0.02234,-0.0184 0.03446,-0.02748c0.41074,-0.30805 0.71879,0.10268 0.71879,0.10268c3.53507,4.71343 3.67188,9.72911 7.93426,14.14075c0.07595,2.38613 -2.4067,10.09826 -6.32684,5.68276c-1.21359,-1.36694 -1.72504,-7.00612 -1.83327,-8.44446c-1.07221,-2.29149 -2.36713,-5.40046 -3.71312,-7.73916c-0.29491,-0.5124 -1.65129,-1.7891 -1.40849,-2.46737c0.43323,-1.21014 2.78031,-0.50732 3.68028,-0.98142l0.20884,-0.24611c0,0 0.34919,-0.34917 0.70509,-0.02021z" fill="#000000" stroke="none" stroke-width="0.5" stroke-linecap="butt"/><path d="M336.21924,99.55346c-0.42719,0.28479 -0.712,-0.1424 -0.712,-0.1424l-0.34227,-0.51342c-0.81111,-1.22834 -2.00781,-2.21916 -2.90134,-3.41108c-1.94407,-2.94126 -7.31234,-6.43437 -7.45337,-10.05158c0,0 0,-0.39221 0.3428,-0.49104c0.00047,-0.00094 0.00092,-0.00185 0.0014,-0.00279c0.22962,-0.45921 0.68883,-0.2296 0.68883,-0.2296c4.12914,2.17523 12.32751,1.64423 12.24998,8.10739c-1.03837,2.11553 -1.33884,2.6086 -1.36914,5.13424l-0.38275,0.79622c0,0 -0.00639,0.01275 -0.01914,0.03296l0.03941,0.05913c0,0 0.28481,0.42721 -0.1424,0.712z" fill="#000000" stroke="none" stroke-width="0.5" stroke-linecap="butt"/><path d="M455.70174,154.97559c0.36305,0.36305 0,0.7261 0,0.7261l-0.1919,-0.02076c-0.00912,0.04378 0.31773,0.14819 0.87553,0.29386c-0.98395,-1.27128 -1.28806,-2.60234 0.77741,-3.83363c0,0 0.45923,-0.2296 0.68883,0.22962c0.22962,0.45923 -0.2296,0.68883 -0.2296,0.68883c-0.58894,0.18871 -0.62463,2.08033 -0.36237,3.13285c3.25665,0.78299 10.05244,2.19298 11.53626,2.59739c1.12717,0.71329 4.22712,2.11218 4.16785,3.7873c-0.03828,1.08217 -3.38155,6.33359 -4.53365,6.6169c-1.48082,0.36412 -5.88472,-2.14204 -7.33516,-2.78684c-0.75106,-0.33736 -2.4492,-1.12401 -2.79617,-1.94682c-0.76321,-1.80988 1.67113,-2.49793 1.6638,-4.27376c-0.00288,-0.69479 -0.94336,-1.55785 -1.94791,-2.50674c-1.97876,-0.54528 -3.45035,-1.2003 -3.53168,-1.99894l0.49266,-0.70534c0,0 0.36305,-0.36305 0.72608,0z" fill="#000000" stroke="none" stroke-width="0.5" stroke-linecap="butt"/><path d="M349.43384,196.30389c-1.36267,-1.36267 -2.98743,-2.65159 -4.03442,-4.24486c-1.55828,-4.56121 -4.42596,-8.05272 -6.53469,-12.23435c-0.47397,-1.42245 -3.59588,-6.86443 -2.81976,-9.20178c-0.0175,-0.21069 0.11486,-0.3511 0.20845,-0.42298c0.22014,-0.31487 0.56015,-0.53072 1.05018,-0.61479c0,0 0.11718,-0.00002 0.2396,0.05598c0.88221,-0.23151 1.61815,-0.23837 2.59406,-0.21293c3.6679,2.36766 17.93056,5.46342 11.57006,12.4466c-1.06872,3.28088 1.47936,3.12203 1.33823,5.07343c-0.2232,3.08603 -0.37802,7.58286 -2.76674,10.03277c0,0 -0.36305,0.36305 -0.72608,0c-0.25948,-0.25948 -0.14805,-0.51895 -0.06336,-0.64589z" fill="#000000" stroke="none" stroke-width="0.5" stroke-linecap="butt"/><path d="M355.80756,393.09919c-0.36305,0.36303 -0.72608,0 -0.72608,0l-0.09289,-0.107c-0.00554,-0.00368 -0.01105,-0.00737 -0.01655,-0.01107c-0.22736,-0.02563 -0.33605,-0.16329 -0.38798,-0.289c-2.39742,-1.98377 -0.96378,-4.97259 -2.54034,-7.33742c-0.14795,-4.4468 -0.87773,-8.86796 -0.87773,-13.49778c0,-1.7349 -0.58348,-7.02435 0.40283,-9.41709c-0.01799,0.0092 -0.03615,0.01857 -0.05438,0.02818c0,0 -0.45923,0.22962 -0.68883,-0.2296c-0.22962,-0.45921 0.22962,-0.68883 0.22962,-0.68883c5.79261,-2.7846 3.54509,6.28874 4.15212,8.89833c0.49122,2.11169 1.72514,2.84215 1.72514,5.25218c-0.09233,2.89049 -3.93348,4.59592 -2.7646,8.05241c0.82437,2.43776 5.58104,6.54652 1.3188,8.30477l0.00674,0.03645c0.02128,0.01479 0.04286,0.02947 0.06475,0.04407l0.2494,0.23529c0,0 0.36305,0.36305 0,0.72608z" fill="#000000" stroke="none" stroke-width="0.5" stroke-linecap="butt"/><path d="M368.57319,294.19183l0.62305,-0.31152c0.50622,-0.25308 1.00814,-0.51482 1.50764,-0.78094c4.50303,-2.99965 16.99391,-0.785 13.11859,6.73743c-6.43698,3.21847 2.34251,10.46635 -4.79195,14.03357c-3.70988,7.41975 -12.40273,4.05658 -12.51406,-3.44357c0,-1.33098 -0.59052,-4.60192 0.07024,-5.73572c0.70119,-1.20322 2.30383,-2.02293 2.68176,-3.62387c0.51712,-2.19057 -1.37904,-4.04011 -1.38288,-6.38541c0,0 0,-0.51342 0.51342,-0.51342c0.06625,0 0.12396,0.00856 0.17421,0.02343z" fill="#000000" stroke="none" stroke-width="0.5" stroke-linecap="butt"/><path d="M336.59285,448.3875l-4.10739,13.34901" fill="none" stroke="#663f3f" stroke-width="2" stroke-linecap="round"/><path d="M335.82271,465.8439l4.62081,-8.98491" fill="none" stroke="#663f3f" stroke-width="2" stroke-linecap="round"/><path d="M335.05258,452.7516c0,-1.41779 1.14933,-2.56712 2.56712,-2.56712c1.41779,0 2.56712,1.14933 2.56712,2.56712c0,0.50213 -0.14417,0.97058 -0.39336,1.36622c0.27967,0.84417 0.02838,1.68183 0.02838,1.68183c-0.77014,2.56712 -1.54027,5.13424 -2.31041,7.70135l-0.28019,0.84427c0,0 -0.81178,2.43537 -3.24718,1.62359c-2.43537,-0.81178 -1.62359,-3.24718 -1.62359,-3.24718l0.23324,-0.696c0.77014,-2.56712 1.54027,-5.13424 2.31041,-7.70135c0,0 0.09065,-0.30218 0.31434,-0.66291c-0.1072,-0.28279 -0.1659,-0.58947 -0.1659,-0.90985z" fill="#663f3f" stroke="none" stroke-width="0.5" stroke-linecap="butt"/><path d="M368.1827,296.96032c1.14806,-2.29609 3.44415,-1.14806 3.44415,-1.14806l1.50135,1.12883c0.10092,0.19407 0.22745,0.38178 0.374,0.55756c0.64669,-1.74862 1.45484,-3.49549 2.4339,-5.25781c0,0 1.2467,-2.24407 3.49077,-0.99736c2.24407,1.2467 0.99736,3.49077 0.99736,3.49077c-1.20406,2.16728 -2.11218,4.29368 -2.74298,6.43221c-0.00643,0.16471 -0.02715,0.33978 -0.06436,0.52589c-0.06892,0.34461 -0.17559,0.6326 -0.30836,0.87303c-1.0175,4.27433 -0.95125,8.64244 0.05165,13.52278l0.04984,0.76018c0,0 0,2.56712 -2.56712,2.56712c-2.56712,0 -2.56712,-2.56712 -2.56712,-2.56712l0.04984,0.24675c-0.26162,-1.33831 -0.46485,-2.64781 -0.60678,-3.93379c-1.48663,-0.02986 -2.98157,-0.36837 -4.28372,-1.00011l-0.99025,-0.37398c0,0 -2.38352,-0.95341 -1.43011,-3.3369c0.95341,-2.38352 3.3369,-1.43011 3.3369,-1.43011l1.57687,0.65287c0.42939,0.31257 0.9898,0.48851 1.55495,0.52008c0.03727,-1.88127 0.22605,-3.72405 0.57666,-5.54713c-1.1488,-0.67468 -2.18306,-1.56871 -2.99718,-2.58883l0.2678,0.34732c0,0 -2.29609,-1.14806 -1.14806,-3.44415z" fill="#663f3f" stroke="none" stroke-width="0.5" stroke-linecap="butt"/><path d="M403.03211,333.88039c-1.60367,2.00459 -3.60824,0.40092 -3.60824,0.40092l-1.73359,-1.49117c-0.94244,-1.25896 -1.94489,-2.47357 -2.9809,-3.65734c-0.07198,0.04892 -0.14396,0.09747 -0.21595,0.14565l-3.1775,0.88344c0,0 -2.50598,0.55688 -3.06288,-1.9491c-0.55688,-2.50598 1.9491,-3.06288 1.9491,-3.06288l1.44332,-0.14341c5.16689,-3.42891 10.79299,-9.37115 11.98809,-15.76584c0.61221,-3.27572 -0.77888,-6.56256 -0.80907,-9.82307c0,0 0,-2.56712 2.56712,-2.56712c2.56712,0 2.56712,2.56712 2.56712,2.56712c-0.02559,2.06322 0.45317,4.06794 0.73173,6.09982c0.19071,0.17875 0.29512,0.31797 0.29512,0.31797c1.46139,1.99052 2.35548,2.93003 4.73689,3.62118l2.19433,-0.02721c0,0 2.56712,0 2.56712,2.56712c0,2.56712 -2.56712,2.56712 -2.56712,2.56712l-2.9399,-0.02721c-2.03973,-0.62233 -3.52307,-1.28042 -4.83064,-2.24173c-0.73637,2.38124 -1.8978,4.67474 -3.33818,6.81586c0.01417,0.05346 0.02025,0.08385 0.02025,0.08385c0.48163,2.73396 0.9193,3.291 3.27082,4.78527l1.25232,0.15891c0,0 2.49047,0.62262 1.86786,3.11309c-0.62262,2.49047 -3.11309,1.86786 -3.11309,1.86786l-2.85507,-0.86793c-2.1303,-1.46745 -3.40361,-2.70026 -4.27072,-4.42162c-0.71672,0.74681 -1.45991,1.46098 -2.22011,2.13835c1.05285,1.21367 2.07251,2.45714 3.03729,3.74128l0.83353,0.56253c0,0 2.00459,1.60367 0.40092,3.60824z" fill="#663f3f" stroke="none" stroke-width="0.5" stroke-linecap="butt"/><path d="M345.57776,294.18066c0,1.41779 -1.14933,2.56712 -2.56712,2.56712c-0.50237,0 -0.97105,-0.14431 -1.36684,-0.39373c-1.50421,0.74385 -3.24564,0.90601 -5.06926,0.03914c-0.94603,-0.4497 -1.32496,-1.56068 -1.81167,-2.54597c-0.32931,-0.1208 -0.67072,-0.33377 -1.0121,-0.67517c-1.81522,-1.81522 0,-3.63046 0,-3.63046l1.42354,-1.41551c1.82202,-2.06587 3.90541,-3.54696 5.52592,-5.75419c0,0 1.54027,-2.05369 3.59397,-0.51342c2.05369,1.54027 0.51342,3.59397 0.51342,3.59397c-0.14388,0.18876 -0.29006,0.37244 -0.43822,0.55183c2.88542,0.25593 2.71494,3.88625 0.87058,6.90267c0.21492,0.37535 0.33777,0.81018 0.33777,1.2737z" fill="#663f3f" stroke="none" stroke-width="0.5" stroke-linecap="butt"/><path d="M324.01397,309.58338c-0.23572,0 -0.46403,-0.03177 -0.68088,-0.09127l-0.211,0.24145c0,0 -1.69046,1.93195 -3.62241,0.24149c-0.25942,-0.22699 -0.45354,-0.45834 -0.59518,-0.68879c-0.10439,-0.02405 -0.21206,-0.05432 -0.32313,-0.09135c-0.58066,-0.19356 -0.97672,-0.47939 -1.2432,-0.80252c-0.54756,0.26367 -1.27208,0.34387 -2.17359,-0.10689c-2.29609,-1.14806 -1.14806,-3.44415 -1.14806,-3.44415l0.41684,-0.78936c1.55194,-2.31852 3.33668,-4.35268 4.87752,-6.67451c0,0 1.42399,-2.13597 3.55996,-0.712c1.33956,0.89305 1.27896,2.06612 1.04753,2.81674c0.10285,0.04432 0.208,0.09601 0.31545,0.15569c0.97971,0.54429 1.29407,1.27867 1.33732,1.93341c0.16165,0.08126 0.32734,0.18376 0.49652,0.31064c0.9854,0.73904 1.14337,1.5963 1.0411,2.28816c0.46691,0.46487 0.75588,1.1083 0.75588,1.81922c0,1.10963 -0.70403,2.05484 -1.68978,2.4133c-0.45662,0.71023 -1.25382,1.18067 -2.1609,1.18067z" fill="#663f3f" stroke="none" stroke-width="0.5" stroke-linecap="butt"/><path d="M306.17965,352.67102c-2.29609,-1.14806 -1.14806,-3.44415 -1.14806,-3.44415l0.49911,-0.90564c0.51342,-0.68456 1.02685,-1.36914 1.54027,-2.05369c0,0 1.54027,-2.05369 3.59397,-0.51342c2.05369,1.54027 0.51342,3.59397 0.51342,3.59397c-0.51342,0.68456 -1.02685,1.36914 -1.54027,2.05369l-0.01431,0.12121c0,0 -1.14806,2.29609 -3.44415,1.14806z" fill="#663f3f" stroke="none" stroke-width="0.5" stroke-linecap="butt"/><path d="M450.19499,335.0635c2.29609,-1.14806 3.44415,1.14806 3.44415,1.14806l0.19639,0.61833c1.92585,0.03337 2.33517,2.07998 2.33517,2.07998c1.18215,6.04749 0.40932,13.45646 -0.77014,19.49016l-1.19825,2.84956c0,0 -1.0426,2.34585 -3.38847,1.30325c-0.89783,-0.39903 -1.29931,-0.98898 -1.45287,-1.56524c-0.33303,0.15791 -0.70544,0.24624 -1.0985,0.24624c-0.98353,0 -1.83789,-0.5531 -2.26896,-1.36523l-1.25865,-2.26557l0.01477,-0.00819l-0.04132,-0.04085c-0.5729,-1.20349 -0.96848,-2.46581 -1.211,-3.76284c-0.23759,0.02111 -0.50044,0.01158 -0.79108,-0.03686c-2.53218,-0.42203 -2.11015,-2.95422 -2.11015,-2.95422l0.22178,-1.11824c0,-5.16328 -0.54745,-8.17395 -2.17866,-13.05065c0,0 -0.81178,-2.43537 1.62359,-3.24718c2.43537,-0.81178 3.24718,1.62359 3.24718,1.62359c0.0152,0.04576 0.03031,0.09141 0.04535,0.13694c1.40115,-0.97037 2.91023,0.16144 2.91023,0.16144c0.09967,0.07514 0.19933,0.15029 0.299,0.22541c0.42158,-0.30341 0.93891,-0.48213 1.49799,-0.48213c0.49537,0 0.95799,0.14031 1.35024,0.38336c0.16364,-0.13195 0.35625,-0.25608 0.58224,-0.36907zM445.19491,340.76462c-0.03309,-0.02471 -0.06615,-0.04939 -0.09923,-0.0741c0.01509,0.07104 0.02996,0.14201 0.04463,0.21295c0.01811,-0.04635 0.03631,-0.09264 0.05461,-0.13885z" fill="#663f3f" stroke="none" stroke-width="0.5" stroke-linecap="butt"/><path d="M455.25994,450.58791c-0.36763,0.35841 -0.72602,-0.00922 -0.72602,-0.00922l-0.31003,-0.31801c-5.73348,-6.25783 5.82157,-12.9819 5.80799,-17.87977c-0.05908,-5.8436 -4.96709,-9.05965 -5.97679,-14.56657c-0.35071,-0.10073 -0.71943,-0.24371 -1.10692,-0.43339c-0.33397,0.3375 -0.8246,0.60485 -1.54341,0.6947c-2.5473,0.3184 -2.8657,-2.22887 -2.8657,-2.22887l-0.26766,-2.15893c-0.34646,-4.23008 0.41053,-11.36108 -1.7395,-14.88261c0,0 -1.2467,-2.24407 0.99736,-3.49077c2.24407,-1.2467 3.49077,0.99736 3.49077,0.99736c1.18597,2.26621 1.6745,5.0104 1.91162,7.84733c0.56236,-0.54887 1.62681,-1.19601 3.06945,-0.33042h-0.00002c1.79778,1.07866 1.24637,2.74464 0.98382,3.31914c0.22831,-0.0582 0.48572,-0.09102 0.77595,-0.09102c2.56712,0 2.56712,2.56712 2.56712,2.56712c-0.07527,2.94485 -1.31319,8.56304 -5.2064,8.374c1.09168,5.32776 5.87726,8.50168 5.93715,14.37631c0.01127,4.0598 -11.27061,12.32593 -6.09955,17.16958l0.31003,0.31801c0,0 0.35841,0.36763 -0.00922,0.72602z" fill="#663f3f" stroke="none" stroke-width="0.5" stroke-linecap="butt"/><path d="M336.84956,176.52967c0,-2.56712 2.56712,-2.56712 2.56712,-2.56712l2.55716,0.04984c3.45111,0.69023 6.79169,1.9944 10.25414,2.2711c0,0 2.55658,0.23242 2.32417,2.789c-0.23242,2.55658 -2.789,2.32417 -2.789,2.32417c-3.7017,-0.36788 -7.12679,-1.61583 -10.79623,-2.34971l-1.55023,0.04984c0,0 -2.56712,0 -2.56712,-2.56712z" fill="#663f3f" stroke="none" stroke-width="0.5" stroke-linecap="butt"/><path d="M341.90153,185.88759c1.42399,-2.13597 3.55996,-0.712 3.55996,-0.712l1.363,0.91876c1.17089,0.68934 2.53122,1.12961 3.88627,1.22996c0,0 2.55439,0.25544 2.29895,2.80982c-0.25544,2.55439 -2.80982,2.29895 -2.80982,2.29895c-2.03724,-0.23903 -4.05923,-0.88467 -5.86878,-1.85058l-1.71755,-1.13493c0,0 -2.13597,-1.42399 -0.712,-3.55996z" fill="#663f3f" stroke="none" stroke-width="0.5" stroke-linecap="butt"/><path d="M474.4328,164.25169c-1.14806,2.29609 -3.44415,1.14806 -3.44415,1.14806l0.37919,0.00156c-4.08539,-0.4139 -7.27072,-0.11503 -11.00302,-2.1073c0,0 -2.24407,-1.2467 -0.99736,-3.49077c1.2467,-2.24407 3.49077,-0.99736 3.49077,-0.99736c2.84174,1.67302 5.78246,1.16672 9.0205,1.48667l1.40604,0.51498c0,0 2.29609,1.14806 1.14806,3.44415z" fill="#663f3f" stroke="none" stroke-width="0.5" stroke-linecap="butt"/><path d="M329.91834,88.93959c0,-1.41779 1.14933,-2.56712 2.56712,-2.56712c0.74627,0 1.41818,0.31845 1.88722,0.82684c0.64541,0.19225 1.08679,0.57844 1.08679,0.57844c0.68456,0.599 1.36914,1.19798 2.05369,1.79698l0.8949,0.88687c0,0 1.81522,1.81522 0,3.63046c-1.81522,1.81522 -3.63046,0 -3.63046,0l-0.64537,-0.6534c-0.68456,-0.599 -1.36914,-1.19798 -2.05369,-1.79698c0,0 -0.08408,-0.07358 -0.20184,-0.20757c-1.12395,-0.27333 -1.95838,-1.28648 -1.95838,-2.49452z" fill="#663f3f" stroke="none" stroke-width="0.5" stroke-linecap="butt"/><path d="M368.93854,147.21318c0,-1.41779 1.14933,-2.56712 2.56712,-2.56712c1.41779,0 2.56712,1.14933 2.56712,2.56712c0,1.41779 -1.14933,2.56712 -2.56712,2.56712c-1.41779,0 -2.56712,-1.14933 -2.56712,-2.56712z" fill="#590000" stroke="none" stroke-width="0.5" stroke-linecap="butt"/><path d="M372.52981,143.19471c0.00959,-0.00335 0.01928,-0.00665 0.02906,-0.0099c1.46122,-0.48707 1.9483,0.97415 1.9483,0.97415c0.11698,0.35096 1.09973,3.26024 1.10117,3.44715c0.04321,5.62008 -8.41275,5.03397 -8.46677,-0.13622c-0.01768,-1.69239 1.48755,-2.87589 2.50483,-3.91297l1.3722,-0.6288c0,0 0.88892,-0.29631 1.51121,0.26661zM371.83546,145.74261l-0.01078,-0.00741c-1.80382,1.75866 -0.5524,4.08164 0.75243,2.61659c0.2081,-0.23365 -0.38262,-1.73794 -0.74165,-2.6092z" fill="#7a0000" stroke="none" stroke-width="0.5" stroke-linecap="butt"/><path d="M364.51582,135.64295c1.43011,-0.57204 2.00215,0.85805 2.00215,0.85805l0.28606,0.8934c1.85574,2.38005 3.09636,4.29762 2.89275,7.31434c0,0 -0.19106,1.52838 -1.71941,1.33732c-1.52838,-0.19106 -1.33732,-1.71941 -1.33732,-1.71941c0.40049,-1.66298 -1.06236,-3.58544 -2.24148,-5.00783l-0.74079,-1.67372c0,0 -0.57204,-1.43011 0.85805,-2.00215z" fill="#663f3f" stroke="none" stroke-width="0.5" stroke-linecap="butt"/><path d="M380.03943,138.80775c1.08914,1.08914 0,2.17827 0,2.17827l-0.64036,0.62703c-1.35616,1.08493 -2.32297,1.78267 -3.27457,3.2456c0,0 -0.8544,1.28159 -2.13597,0.42719c-1.28159,-0.8544 -0.42719,-2.13597 -0.42719,-2.13597c1.16175,-1.71007 2.31653,-2.66487 3.91336,-3.94233l0.38648,-0.39981c0,0 1.08914,-1.08914 2.17827,0z" fill="#663f3f" stroke="none" stroke-width="0.5" stroke-linecap="butt"/><path d="M379.68833,151.78507c0.45189,0.13396 1.05893,0.49389 1.05893,1.46083c0,1.54027 -1.54027,1.54027 -1.54027,1.54027l-1.45946,-0.57807c-0.99721,-1.3893 -2.4127,-1.67861 -3.73707,-2.9536c0,0 -1.08914,-1.08914 0,-2.17827c1.08914,-1.08914 2.17827,0 2.17827,0c1.21254,1.28292 2.31741,1.55383 3.4996,2.70884z" fill="#663f3f" stroke="none" stroke-width="0.5" stroke-linecap="butt"/><path d="M364.51215,156.6454c-1.08914,-1.08914 0,-2.17827 0,-2.17827l0.91324,-0.89991c0.70006,-0.87344 1.3547,-1.78415 1.97485,-2.71601c0,0 0.8544,-1.28159 2.13597,-0.42719c1.28159,0.8544 0.42719,2.13597 0.42719,2.13597c-0.67107,1.00495 -1.37844,1.9874 -2.13254,2.93165l-1.14046,1.15379c0,0 -1.08914,1.08914 -2.17827,0z" fill="#663f3f" stroke="none" stroke-width="0.5" stroke-linecap="butt"/><path d="M367.91169,172.52496c-0.51342,0 -0.51342,-0.51342 -0.51342,-0.51342v-0.25671c0,-1.32642 0.49851,-2.39479 0.52716,-3.71193c1.67616,-3.35233 2.48737,-7.88645 2.56712,-11.55203c1.47437,-3.1011 1.26982,-5.91189 1.26982,-9.38037c0,0 0,-0.51342 0.51342,-0.51342c0.51342,0 0.51342,0.51342 0.51342,0.51342c0,3.43273 0.33151,6.59 -1.2973,9.6163c0.1216,3.50104 -0.97678,8.37135 -2.56712,11.55203c0.04325,1.24526 -0.49968,2.23996 -0.49968,3.476v0.25671c0,0 0,0.51342 -0.51342,0.51342z" fill="#663f3f" stroke="none" stroke-width="0.5" stroke-linecap="butt"/><path d="M302.26187,396.22351c-1.89603,3.12203 -9.58116,1.15354 -17.16527,-4.39671c-7.58409,-5.55025 -12.19519,-12.58052 -10.29915,-15.70253c1.89603,-3.12203 9.58116,-1.15354 17.16527,4.39671c7.58409,5.55025 12.19519,12.58052 10.29915,15.70253z" fill="#000000" stroke="none" stroke-width="0" stroke-linecap="butt"/><path d="M266.83124,425.17693c0.01717,0.51314 -0.49597,0.53031 -0.49597,0.53031l-0.57898,0.01937c-0.66006,0.02193 -1.31985,0.0618 -1.97752,0.12189c-7.03998,1.75445 -14.41088,-2.78325 -14.40155,-10.62035c0.00587,-4.9315 1.05283,-12.22996 4.24965,-15.09131c0.52057,-0.46594 -0.1615,-1.62792 0.3877,-2.05977c0.45822,-0.3603 2.47815,-0.18843 3.14191,-0.30922c6.04152,-5.47737 13.85771,-2.44324 19.82329,0.19301c5.29455,-0.56166 4.83664,-3.03283 8.56076,-6.04776c1.32656,-1.07396 3.97532,-1.69545 3.88165,-3.6855c0,0 0,-0.51342 0.51342,-0.51342c0.51342,0 0.51342,0.51342 0.51342,0.51342c-0.08178,2.55966 -2.48021,3.14283 -4.27481,4.4935c-4.01651,3.02294 -3.48592,5.80974 -9.35318,6.25426c-6.18458,-2.5136 -12.98752,-5.55372 -19.21085,-0.28635c-0.45543,0.09745 -2.68399,0.00737 -2.97747,0.20798c-0.54203,0.37053 0.16479,1.45603 -0.26581,1.95169c-2.7348,3.14807 -3.95675,9.25699 -3.96285,14.38065c-0.00854,7.17752 6.70899,11.33578 13.19799,9.60759c0.70499,-0.0664 1.41222,-0.11281 2.11993,-0.13663l0.57898,-0.01937c0,0 0.51314,-0.01717 0.53031,0.49597z" fill="#929292" stroke="#929292" stroke-width="1" stroke-linecap="butt"/><path d="M461.06263,451.76057c-0.51342,0.00002 -0.51344,-0.5134 -0.51344,-0.5134l-0.00002,-0.6103c-0.00105,-6.37196 -4.95778,-9.92312 -3.82792,-16.46313c2.80855,-5.40927 5.7976,-11.03627 0.89777,-15.93609c0,0 -0.36305,-0.36305 0,-0.72608c0.36305,-0.36305 0.72608,0 0.72608,0c5.20433,5.20433 2.41176,11.26575 -0.65088,16.99034c-1.01017,6.26539 3.88074,9.86262 3.88177,16.13481l0.00002,0.61042c0,0 0.00002,0.51342 -0.5134,0.51344z" fill="#1c00ff" stroke="none" stroke-width="0.5" stroke-linecap="butt"/><path d="M450.79558,448.11524c-0.51342,0.00144 -0.51486,-0.51199 -0.51486,-0.51199l0.06987,-0.25626c-2.18838,-3.82872 -0.84785,-8.32861 0.45489,-12.16752c0.09864,-3.46736 4.00585,-5.71882 4.61514,-8.94883c0.41292,-2.18897 -0.8169,-5.62515 -1.51959,-7.73163c0,0 -0.16237,-0.48707 0.32471,-0.64944c0.48707,-0.16237 0.64944,0.32471 0.64944,0.32471c0.75652,2.27122 2.00147,5.87344 1.55452,8.24653c-0.6028,3.20058 -4.66415,5.56064 -4.61128,8.92706c-1.15395,3.52455 -2.74501,7.96447 -0.58364,11.47699l0.07278,0.7755c0,0 0.00144,0.51342 -0.51199,0.51486z" fill="#000000" stroke="none" stroke-width="0.5" stroke-linecap="butt"/><path d="M450.86809,445.76224c-0.26546,-0.43947 0.17403,-0.70493 0.17403,-0.70493l0.44653,-0.26973c4.40341,-2.64015 9.74365,-8.02276 4.3104,-12.26598c-2.54691,-1.99592 -8.86709,-5.84147 -6.23522,-10.04881c1.00169,-1.60131 2.92539,-2.53662 3.85164,-4.41709c0,0 0.2296,-0.45923 0.68883,-0.2296c0.45923,0.2296 0.2296,0.68883 0.2296,0.68883c-1.3845,2.73382 -4.72873,3.70263 -4.06286,7.20126c0.45752,2.40395 4.34839,4.58502 6.16024,5.99627c6.11939,4.7839 0.55113,10.9365 -4.41171,13.95405l-0.44653,0.26973c0,0 -0.43947,0.26546 -0.70493,-0.17403z" fill="#420000" stroke="none" stroke-width="0.5" stroke-linecap="butt"/><path d="M454.33099,445.37276c-0.23535,0.45629 -0.69166,0.22094 -0.69166,0.22094l-0.1485,-0.0766c-7.44912,-3.89292 -2.76711,-8.03709 0.50129,-12.27793c1.33182,-1.65242 3.27856,-1.94818 4.2731,-4.05342c1.54986,-3.28069 -2.59858,-7.71493 -4.75358,-9.86993c0,0 -0.36305,-0.36305 0,-0.72608c0.36305,-0.36305 0.72608,0 0.72608,0c2.53299,2.53299 6.68063,7.22453 4.9599,11.02618c-1.00797,2.22694 -3.09266,2.55457 -4.39905,4.25891c-2.9466,3.67034 -7.62286,7.28291 -0.83702,10.72967l0.1485,0.0766c0,0 0.45629,0.23535 0.22094,0.69166z" fill="#04ff00" stroke="none" stroke-width="0.5" stroke-linecap="butt"/><path d="M254.0967,421.79504c0.8544,-0.56959 1.42399,0.28481 1.42399,0.28481c0.87459,1.32003 1.50634,2.26535 2.26305,2.82441c0.1836,-0.71454 0.98994,-0.71454 0.98994,-0.71454h1.02685c1.41097,0 2.48737,0.12135 3.26751,0.31943c1.12039,-0.70284 2.37105,-1.51374 3.43343,-0.67949c0.38706,0.30393 0.65398,0.61126 0.81893,0.91564c0.69491,0.19319 0.69491,0.98471 0.69491,0.98471c-0.06046,3.90937 -2.36179,6.96628 -4.18555,10.148c-1.35527,2.36442 -1.63821,6.03733 -2.9955,9.05839c-0.00439,0.273 -0.00688,0.54544 -0.00688,0.8171v0.51342c0,0 0,1.02685 -1.02685,1.02685c-0.0826,0 -0.15857,-0.00665 -0.22841,-0.01887l-0.79844,0.5323c0,0 -1.02685,0 -1.02685,-1.02685c0,-0.58208 0.32997,-0.83421 0.6158,-0.94341c0.09108,-0.47284 0.23905,-0.93708 0.43105,-1.37581c0.15152,-5.31139 1.02048,-11.17255 -2.46665,-15.21535c-6.3706,0.37129 -10.80905,-11.8666 -8.74026,-16.81062c0,0 0.45923,-0.91843 1.37766,-0.45923c0.91843,0.45923 0.45923,1.37766 0.45923,1.37766c-0.98456,1.37986 0.45978,5.01321 1.0571,6.33575c0.51854,1.14812 0.86997,2.31981 1.27031,3.39063c0.01306,-0.01756 0.02703,-0.03495 0.04194,-0.05214c-0.46563,-1.23388 -0.40848,-2.70038 0.41458,-4.43161c0,0 0.45923,-0.91843 1.37766,-0.45923c0.91843,0.45923 0.45923,1.37766 0.45923,1.37766c-0.59346,1.10261 -0.67332,2.04725 -0.39014,2.85418c0.05128,-0.19611 0.17935,-0.39846 0.44239,-0.57382z" fill="#8b0000" stroke="none" stroke-width="0.5" stroke-linecap="butt"/><path d="M259.2871,458.43508c0,0.09104 -0.01185,0.17933 -0.03409,0.26339c0.03409,0.14396 0.03409,0.25004 0.03409,0.25004v1.02685c0,2.90694 -4.0168,4.36219 -5.08154,1.35156c-0.39618,-1.12023 2.0753,-3.79625 2.62283,-4.89133c0,0 0.45923,-0.91843 1.37766,-0.45923c0.91843,0.45923 0.45923,1.37766 0.45923,1.37766c-0.01366,0.02731 -0.03214,0.06633 -0.055,0.1154c0.39478,0.14312 0.67682,0.52145 0.67682,0.96565zM257.30375,460.49141c-0.03785,-0.17204 -0.06344,-0.34122 -0.06911,-0.46652c-0.00084,0.00117 -0.0017,0.00234 -0.00255,0.00351c-0.00865,0.1697 -0.05847,0.32851 -0.13969,0.46664c0.07235,-0.00476 0.14355,-0.00637 0.21137,-0.00366z" fill="#8b0000" stroke="none" stroke-width="0.5" stroke-linecap="butt"/><path d="M248.69789,566.71357c4.46093,-2.54968 12.18784,-1.24382 16.98034,-2.27471c4.06726,-0.87489 5.24951,-7.46465 9.7377,-5.38004c1.59178,2.91783 5.87515,10.45388 4.35545,13.8864c-2.56755,5.79928 -8.71196,7.08619 -13.57383,9.40286c-4.96468,0.108 -9.12645,-1.51279 -14.09837,-1.51279c-2.0447,0 -4.39712,1.32223 -6.27096,-0.21081c-1.6302,-1.33371 -1.90108,-4.49854 -1.94382,-6.4637c0,-3.54909 0.30736,-4.84007 2.86788,-7.40059l1.23951,-0.30076c0,0 0.4048,0 0.70608,0.25417z" fill="#8b0000" stroke="none" stroke-width="0.5" stroke-linecap="butt"/><path d="M431.28599,143.89227c0.63531,-6.2557 11.15462,-0.45194 9.59975,2.61304c-1.11674,2.20131 -9.80555,0.04699 -10.52013,-1.10748c0,0 -0.45923,-0.91843 0.45923,-1.37766c0.16933,-0.08467 0.32305,-0.1225 0.46116,-0.1279z" fill="#8b0000" stroke="none" stroke-width="0.5" stroke-linecap="butt"/><path d="M413.77894,162.45366c-0.84388,4.80361 -4.70115,5.22105 -9.72819,4.33792c-5.02703,-0.88313 -9.32016,-2.7324 -8.4763,-7.53599c0.84388,-4.80361 5.60318,-7.98179 10.63021,-7.09866c5.02703,0.88313 8.41813,5.49314 7.57427,10.29673z" fill="#8b0000" stroke="none" stroke-width="0" stroke-linecap="butt"/><path d="M409.48297,162.56095c-0.4566,2.59911 -2.54369,2.82498 -5.26368,2.34713c-2.72,-0.47783 -5.04291,-1.47843 -4.58631,-4.07755c0.4566,-2.59911 3.03175,-4.31876 5.75174,-3.8409c2.72,0.47783 4.55485,2.97221 4.09825,5.57132z" fill="#000000" stroke="none" stroke-width="0" stroke-linecap="butt"/></g><path d="M333.69444,405.65625v-362h151v362z" fill="url(#color-2)" stroke="#000000" stroke-width="0" stroke-linecap="butt"/><path d="M159.69444,422.15623v-158h379v158z" fill="url(#color-3)" stroke="#000000" stroke-width="0" stroke-linecap="butt"/><path d="M-24,373.5v-387h528v387z" fill="url(#color-4)" stroke="#000000" stroke-width="2" stroke-linecap="butt"/></g></g></svg>