<svg version="1.1" xmlns="http://www.w3.org/2000/svg" xmlns:xlink="http://www.w3.org/1999/xlink" width="503.7718" height="102.01559" viewBox="0,0,503.7718,102.01559"><g transform="translate(14.57652,-260.15623)"><g data-paper-data="{&quot;isPaintingLayer&quot;:true}" fill-rule="nonzero" stroke-linecap="butt" stroke-linejoin="miter" stroke-miterlimit="10" stroke-dasharray="" stroke-dashoffset="0" style="mix-blend-mode: normal"><path d="M-1.30557,356.65623l64,-25l363.5,-1.5l52.5,26.5z" fill="#9c9c9c" stroke="#000000" stroke-width="5"/><path d="M93.46219,356.424c-1.76777,1.76777 -3.53553,0 -3.53553,0l-1.31236,-1.38102c-0.65875,-0.98813 -4.27869,-6.30112 -4.39775,-7.05492c-0.01103,-0.06981 -0.01914,-0.13946 -0.02455,-0.20898c-0.33415,0.13445 -0.67425,0.24993 -1.0248,0.33203c-2.11531,0.49545 -4.46636,-0.86543 -6.51606,-0.14519c-0.7991,0.28079 -0.96043,1.50124 -1.72496,1.8658c-5.24614,2.50156 -12.5998,1.3245 -18.23175,1.3245c-1.47752,0 -7.252,0.03836 -7.95671,-0.1903c-1.01875,-0.33057 -1.43683,-1.63601 -2.35762,-2.18307c-0.90622,-0.5384 -2.12649,-0.41 -3,-1c-1.33072,-0.89881 -2.30229,-2.23924 -3.45344,-3.35886c0,0 -1.76777,-1.76777 0,-3.53553c1.76777,-1.76777 3.53553,0 3.53553,0c0.84885,0.88038 1.52421,1.97 2.54656,2.64114c0.88118,0.57847 2.09883,0.45318 3,1c0.69796,0.42351 0.87113,1.54919 1.64238,1.81693c0.9602,0.33333 2.02738,-0.15831 3.04329,-0.1903c3.32236,-0.10462 6.67692,0 10,0c2.60945,0 6.34372,0.6066 8.76825,-0.6755c0.91919,-0.48607 1.28512,-1.81601 2.27504,-2.1342c2.37542,-0.76353 5.06504,0.4668 7.48394,-0.14519c1.60272,-0.40549 2.98651,-1.49846 4.60217,-1.84887c1.26269,-0.27386 2.64846,0.41283 3.87612,0.01007c0.78753,-0.25837 0.97036,-1.40497 1.68015,-1.83294c1.8212,-1.09809 3.96378,-1.62127 5.72936,-2.80673c0.87609,-0.79211 1.51647,-1.97775 2.62826,-2.37634c1.25511,-0.44998 2.72369,0.38577 4,0c0.67821,-0.205 0.91449,-1.08244 1.37174,-1.62366l3.19822,-2.14677c0,0 2.08013,-1.38675 3.46688,0.69338c1.38675,2.08013 -0.69338,3.46688 -0.69338,3.46688l-2.80178,1.85323c-0.87609,0.79211 -1.51647,1.97775 -2.62826,2.37634c-1.25511,0.44998 -2.72369,-0.38577 -4,0c-0.67821,0.205 -0.91449,1.08244 -1.37174,1.62366c-1.95478,1.29648 -4.25677,1.99065 -6.27064,3.19327c-0.90852,0.54254 -1.31924,1.82278 -2.31985,2.16706c-0.91663,0.31539 -1.90769,0.23027 -2.89422,0.18884c-0.7438,2.45437 1.35698,3.69639 2.97987,6.13071l0.68764,0.61898c0,0 1.76777,1.76777 0,3.53553z" fill="#ffffff" stroke="none" stroke-width="0.5"/><path d="M357.5463,357.80751c0,2.41625 -2.41625,2.41625 -2.41625,2.41625l-3.82364,-0.18371c-3.06482,-2.7656 -6.08213,-5.23883 -9.47798,-7.54829c-5.23113,0 -10.46226,0 -15.69339,0c-2.49897,-0.01267 -4.95704,0.63868 -7.43678,0.9484c-3.7819,0.47235 -7.71503,0.45715 -11.49871,0.95218c-1.68731,0.22076 -2.68375,2.22279 -4.30236,2.748c-2.14507,0.69604 -4.69977,-0.90473 -6.7655,0c-0.7019,0.30741 -0.86018,1.34131 -1.52754,1.71786c-4.41275,2.48985 -4.69788,2.10811 -8.95928,2.32988l-0.95527,0.7136c0,0 -2.16116,1.08058 -3.24174,-1.08058c-1.08058,-2.16116 1.08058,-3.24174 1.08058,-3.24174l2.91073,-1.2194c2.97944,-0.09081 3.58758,0.21229 6.50473,-1.53613c0.90787,-0.54414 1.34852,-1.77352 2.33847,-2.14814c2.1092,-0.79816 4.63506,0.73958 6.7655,0c0.74542,-0.25877 0.90153,-1.36587 1.58736,-1.75606c1.15635,-0.65789 2.46894,-1.04309 3.77528,-1.29494c3.77321,-0.72743 7.89003,-0.50452 11.69729,-0.98082c2.67494,-0.33465 5.33146,-0.97288 8.02723,-0.9846c5.20798,0 10.43799,0.07842 15.65516,0.06884c0.48077,-0.15728 0.95269,-0.1078 1.3284,-0.00444c6.82749,-0.03367 13.62789,-0.24241 20.32291,-0.9997c1.7314,-0.19584 5.59486,-2.5777 6.5974,-2.86606c0.92884,-0.26717 1.96966,0.26367 2.8995,0c2.18835,-0.62055 4.22025,-1.70986 6.25906,-2.71844c0.42422,-0.20986 0.80805,-0.50374 1.18592,-0.80695c-0.73803,-0.2265 -1.54596,-0.2958 -2.21223,-0.68123c-1.55545,-0.89981 -2.95597,-2.05366 -4.32773,-3.2144c-0.50594,-0.42811 -0.66222,-1.27243 -1.27453,-1.52604c-1.58242,-0.65543 -3.42294,0.13452 -5.13422,0.20643c-5.01091,0.21056 -9.03978,2.19216 -13.91691,2.85562c-2.42422,0.32978 -4.97683,0.06314 -7.28863,0.86389c0,0 -2.29226,0.76409 -3.05634,-1.52817c-0.76409,-2.29226 1.52817,-3.05634 1.52817,-3.05634c2.61506,-0.84544 5.45057,-0.71029 8.17537,-1.06911c3.16681,-0.41703 6.09239,-2.00059 9.24227,-2.53058c1.82943,-0.30782 6.27619,-0.43853 8.46644,-0.39028c1.27888,0.02818 2.64255,-0.28381 3.83317,0.18391c2.40721,0.94565 3.74239,3.65518 5.99574,4.92456c0.88763,0.50003 2.01765,0.45635 2.8995,0.9665c1.27959,0.74023 2.44324,1.6657 3.58858,2.60595c0.36427,0.0154 0.72768,0.02434 1.08903,0.01756c0,0 2.41625,0 2.41625,2.41625c0,0.20514 -0.01742,0.39286 -0.04929,0.56464c1.3618,1.19645 2.79477,2.33945 4.40954,3.02467c1.29426,0.54921 2.82653,0.43475 4.07898,1.07357c1.31005,0.6682 2.70563,3.24612 4.34221,3.65605c1.20321,0.30138 2.48063,-0.02603 3.72095,-0.03904c1.28867,0.64433 2.46934,1.5792 3.866,1.933c1.36915,0.34684 2.89535,-0.32659 4.23552,0.11929c0.86463,0.28766 1.07532,1.62524 1.933,1.933c0.92464,0.33179 1.95934,-0.15739 2.94134,-0.18393c3.06733,-0.08288 7.53692,0.86511 10.40752,-0.65287c0.8884,-0.46979 1.25723,-1.71148 2.19883,-2.0627c2.11296,-0.78815 4.64285,0.76168 6.7655,0c0.85768,-0.30776 1.08536,-1.59859 1.933,-1.933c1.01432,-0.40017 2.21804,0.17123 3.26902,-0.11929c1.16226,-0.32128 2.13891,-1.11415 3.20836,-1.67123l2.77199,-1.8536c0,0 2.01044,-1.34029 3.35074,0.67015c1.34029,2.01044 -0.67015,3.35074 -0.67015,3.35074l-3.02701,2.0124c-1.50788,0.73159 -2.91581,1.72168 -4.52364,2.19477c-0.80993,0.23832 -1.74784,-0.43714 -2.52998,-0.11929c-0.84418,0.34307 -1.06384,1.65935 -1.933,1.933c-2.15107,0.67726 -4.70485,-0.91624 -6.7655,0c-0.74802,0.3326 -0.92826,1.45095 -1.66718,1.8033c-3.91272,1.86573 -8.60892,1.36893 -12.78849,1.28013c-1.5977,-0.03395 -3.26636,0.29599 -4.79066,-0.18393c-0.86916,-0.27365 -1.06872,-1.64429 -1.933,-1.933c-1.10609,-0.36949 -2.36416,0.39823 -3.49648,0.11929c-1.39895,-0.34462 -2.57733,-1.28867 -3.866,-1.933c-1.33702,-0.01301 -2.73467,0.35926 -4.01105,-0.03904c-2.13326,-0.6657 -3.31431,-3.09619 -5.32279,-4.07595c-1.12428,-0.54844 -2.50493,-0.36274 -3.65302,-0.85943c-3.0592,-1.32346 -5.34604,-3.68641 -7.78114,-5.8294c-0.39581,0.00039 -0.7877,0.0359 -1.17267,0.13328c-1.00384,0.25393 -1.61409,1.32367 -2.53811,1.79098c-2.34917,1.18807 -4.74201,2.35286 -7.27194,3.08056c-0.92884,0.26717 -1.96966,-0.26367 -2.8995,0c-2.41428,0.68462 -4.4468,2.59637 -6.9336,2.93294c-1.59628,0.21604 -3.23411,-0.1998 -4.8325,0c-1.01091,0.12636 -1.89372,0.80429 -2.8995,0.9665c-1.95899,0.31595 -4.18093,0.20959 -6.31625,0.11408c1.06118,0.90472 2.06493,1.88733 2.98734,3.00033l1.97536,-0.18371c0,0 2.41625,0 2.41625,2.41625z" fill="#ffffff" stroke="none" stroke-width="0.5"/><path d="M199.19443,262.65623c0,-1.38071 1.11929,-2.5 2.5,-2.5c1.38071,0 2.5,1.11929 2.5,2.5c0,1.38071 -1.11929,2.5 -2.5,2.5c-1.38071,0 -2.5,-1.11929 -2.5,-2.5z" fill="#ffffff" stroke="none" stroke-width="0.5"/></g></g></svg>