<svg version="1.1" xmlns="http://www.w3.org/2000/svg" xmlns:xlink="http://www.w3.org/1999/xlink" width="895.11288" height="565.12337" viewBox="0,0,895.11288,565.12337"><g transform="translate(209.05794,101.5323)"><g data-paper-data="{&quot;isPaintingLayer&quot;:true}" fill-rule="nonzero" stroke-linejoin="miter" stroke-miterlimit="10" stroke-dasharray="" stroke-dashoffset="0" style="mix-blend-mode: normal"><path d="M686.05494,463.59108l-895.11288,-1.42026l263.76443,-316.09167l544.06246,-2.08152z" fill="#5c5c5c" stroke="none" stroke-width="0" stroke-linecap="butt"/><path d="M-175.87181,421.41875l56.73068,-159.43509l113.67199,-123.4385l4.08546,-210.84219l62.88212,-17.77761l-5.39171,238.3616z" fill="#393939" stroke="none" stroke-width="0" stroke-linecap="butt"/><path d="M-121.29794,265.33033l3.9905,-65.84329l59.31326,-56.86466l55.86703,-5.98575z" fill="#463b5b" stroke="none" stroke-width="NaN" stroke-linecap="butt"/><path d="M56.03968,147.61297l-1.66667,-237.03311l546.61638,-1.94792l-1.66667,236.6477z" fill="#181818" stroke="none" stroke-width="0" stroke-linecap="butt"/><path d="M-56.80557,144.53273l-64.19443,-204.65623l119.19443,-3l-4,202.65623z" fill="#7f7396" stroke="none" stroke-width="0" stroke-linecap="butt"/><path d="M284.19443,147.35643v-158h79v158z" fill="#999999" stroke="none" stroke-width="0" stroke-linecap="butt"/><path d="M342.69443,80.35643c1.933,0 3.5,1.567 3.5,3.5c0,1.933 -1.567,3.5 -3.5,3.5c-1.933,0 -3.5,-1.567 -3.5,-3.5c0,-1.933 1.567,-3.5 3.5,-3.5z" fill="#000000" stroke="none" stroke-width="0" stroke-linecap="butt"/><path d="M289.43433,30.15623v-22h67v22z" fill="#737373" stroke="#000000" stroke-width="0.5" stroke-linecap="butt"/><text transform="translate(290.43433,26.86512) scale(0.42903,0.42903)" font-size="40" xml:space="preserve" fill="#000000" fill-rule="nonzero" stroke="none" stroke-width="1" stroke-linecap="butt" stroke-linejoin="miter" stroke-miterlimit="10" stroke-dasharray="" stroke-dashoffset="0" font-family="Pixel" font-weight="normal" text-anchor="start" style="mix-blend-mode: normal"><tspan x="0" dy="0">kitchen</tspan></text><g stroke-linecap="butt"><g><g fill="#663f3f" stroke="#000000" stroke-width="0.5"><path d="M49.29324,99.69315l0.72111,-4.31567l9.24789,1.54525l-0.72111,4.31567z"/><path d="M44.20572,101.69489l0.72111,-4.31567l9.24789,1.54525l-0.72111,4.31567z"/><path d="M55.61419,96.94689l0.72111,-4.31567l9.24789,1.54525l-0.72111,4.31567z"/><path d="M54.55828,103.26627l0.72111,-4.31568l9.24789,1.54525l-0.72111,4.31568z"/><path d="M45.28738,95.22137l0.72111,-4.31567l9.24789,1.54524l-0.72111,4.31568z"/><path d="M50.18913,107.60613l2.98748,-17.87926l4.93221,0.82413l-2.98748,17.87926z"/></g><g><g data-paper-data="{&quot;index&quot;:null}" fill="#663f3f" stroke="#000000" stroke-width="0.5"><path d="M82.386,42.94145l1.1345,-1.8194l3.89871,2.43107l-1.1345,1.8194z"/><path d="M83.60604,45.3266l1.1345,-1.8194l3.89871,2.43107l-1.1345,1.8194z"/><path d="M80.95423,39.88281l1.1345,-1.8194l3.89871,2.43107l-1.1345,1.8194z"/><path d="M79.29299,42.54693l1.13451,-1.8194l3.89871,2.43107l-1.1345,1.8194z"/><path d="M85.3078,42.59751l1.13451,-1.8194l3.89871,2.43108l-1.1345,1.8194z"/><path d="M81.31033,46.69266l4.7001,-7.53751l2.07931,1.29658l-4.70008,7.53752z"/></g><g fill="#663f3f" stroke="#000000" stroke-width="0.5"><path d="M40.65114,41.68376l-0.82754,-1.978l4.23857,-1.7733l0.82754,1.978z"/><path d="M39.06384,43.84198l-0.82754,-1.978l4.23857,-1.7733l0.82755,1.978z"/><path d="M42.5556,38.8948l-0.82755,-1.978l4.23857,-1.7733l0.82754,1.978z"/><path d="M43.76736,41.79116l-0.82755,-1.978l4.23857,-1.7733l0.82755,1.978z"/><path d="M37.82252,40.875l-0.82754,-1.978l4.23857,-1.77331l0.82755,1.978z"/><path d="M43.08833,44.7315l-3.42839,-8.19457l2.26057,-0.94576l3.42839,8.19457z"/></g><path d="M93.69569,66.73724c-1.31942,16.32246 -16.38448,28.87382 -33.69617,27.47445c-17.31169,-1.39938 -28.61822,-16.75855 -27.2988,-33.08101c0.45406,-5.61711 0.33961,-10.90881 3.36669,-15.45686c5.76916,-8.66791 17.5973,-14.47406 28.95146,-13.55625c17.31169,1.39938 29.99624,18.29723 28.67683,34.61968z" fill="#00c3c5" stroke="#929292" stroke-width="1"/><path d="M52.2662,58.06006c-0.53743,3.18043 -3.05552,5.40679 -5.62432,4.97271c-2.56881,-0.43407 -4.21557,-3.3642 -3.67815,-6.54463c0.53743,-3.18043 3.05552,-5.40679 5.62432,-4.97271c2.56881,0.43407 4.21557,3.36421 3.67815,6.54463z" fill="#000000" stroke="none" stroke-width="0"/><path d="M80.89553,63.52935c-0.53743,3.18043 -3.05552,5.40679 -5.62432,4.97271c-2.56881,-0.43407 -4.21557,-3.3642 -3.67815,-6.54463c0.53743,-3.18043 3.05552,-5.40679 5.62432,-4.97271c2.56881,0.43407 4.21557,3.36421 3.67815,6.54463z" fill="#000000" stroke="none" stroke-width="0"/><path d="M43.5848,56.94834c0.17992,-2.22579 2.13013,-3.8843 4.35592,-3.70438c2.22579,0.17992 3.8843,2.13013 3.70438,4.35592c-0.17992,2.22579 -2.13013,3.8843 -4.35592,3.70438c-2.22579,-0.17992 -3.8843,-2.13013 -3.70438,-4.35592z" fill="#fff1f1" stroke="none" stroke-width="0"/><path d="M72.43804,62.43572c0.17992,-2.22579 2.13013,-3.8843 4.35592,-3.70438c2.22579,0.17992 3.8843,2.13013 3.70438,4.35592c-0.17992,2.22579 -2.13013,3.8843 -4.35592,3.70438c-2.22579,-0.17992 -3.8843,-2.13013 -3.70438,-4.35592z" fill="#fff1f1" stroke="none" stroke-width="0"/><path d="M46.25347,57.38942c0.04998,-0.61828 0.5917,-1.07897 1.20998,-1.029c0.61828,0.04998 1.07897,0.5917 1.029,1.20998c-0.04998,0.61828 -0.5917,1.07897 -1.20998,1.029c-0.61828,-0.04998 -1.07897,-0.5917 -1.029,-1.20998z" fill="#000000" stroke="none" stroke-width="0.5"/><path d="M74.86471,63.08259c0.04998,-0.61828 0.5917,-1.07897 1.20998,-1.029c0.61828,0.04998 1.07897,0.5917 1.029,1.20998c-0.04998,0.61828 -0.5917,1.07897 -1.20998,1.029c-0.61828,-0.04998 -1.07897,-0.5917 -1.029,-1.20998z" fill="#000000" stroke="none" stroke-width="0.5"/><path d="M77.16812,74.93431c0.41971,1.04176 -0.62206,1.46147 -0.62206,1.46147l-0.7522,0.28352c-3.68956,2.31386 -7.95401,3.75434 -11.58174,6.0836c-5.48647,2.55763 -10.14939,-2.53225 -14.09728,-5.64674c-2.15478,-1.69991 -4.49573,-3.44397 -4.9252,-6.2955c0,0 -0.13082,-1.1155 0.98468,-1.2463c1.1155,-0.13082 1.2463,0.98468 1.2463,0.98468c0.11867,2.04259 2.59904,3.61749 4.09373,4.8001c2.78567,2.20402 7.56216,7.655 11.59863,5.44477c3.66109,-2.27535 7.81582,-3.69907 11.48228,-6.02437l1.11137,-0.46728c0,0 1.04176,-0.41971 1.46147,0.62206z" fill="#000000" stroke="none" stroke-width="0.5"/><path d="M34.8393,36.45326c0,0 -5.41343,-7.73196 -2.37497,-10.10029c3.03847,-2.36832 9.67843,5.36374 9.67843,5.36374c0,0 2.40008,3.86596 -0.63838,6.23428c-3.03847,2.36832 -6.66508,-1.49774 -6.66508,-1.49774z" fill="#00c3c5" stroke="#000000" stroke-width="0"/><path d="M85.89787,41.0888c-2.61861,-2.8256 0.37125,-6.25588 0.37125,-6.25588c0,0 7.79568,-6.56518 10.41429,-3.73956c2.61861,2.8256 -3.96644,9.58769 -3.96644,9.58769c0,0 -4.20049,3.23336 -6.81911,0.40775z" data-paper-data="{&quot;index&quot;:null}" fill="#00c3c5" stroke="#000000" stroke-width="0"/><path d="M36.64358,35.8102c0,0 -3.18455,-4.54846 -1.39712,-5.94167c1.78743,-1.39321 5.6935,3.15532 5.6935,3.15532c0,0 1.4119,2.27422 -0.37554,3.66743c-1.78743,1.39321 -3.92085,-0.88107 -3.92085,-0.88107z" fill="#00a5a8" stroke="#000000" stroke-width="0"/><path d="M87.25186,40.01449c-1.54045,-1.66222 0.2184,-3.68013 0.2184,-3.68013c0,0 4.58594,-3.86208 6.12639,-2.19986c1.54045,1.66222 -2.33332,5.64012 -2.33332,5.64012c0,0 -2.47101,1.90208 -4.01146,0.23987z" data-paper-data="{&quot;index&quot;:null}" fill="#00a5a8" stroke="#000000" stroke-width="0"/><path d="M65.23004,67.17466c-0.35038,1.38297 -2.33852,2.07236 -4.44066,1.53978c-2.10212,-0.53258 -3.52219,-2.08544 -3.17181,-3.46842c0.35038,-1.38297 2.33852,-2.07236 4.44066,-1.53978c2.10212,0.53258 3.52219,2.08544 3.17181,3.46842z" fill="#00b1b4" stroke="none" stroke-width="0"/><path d="M59.982,65.9811c0.04998,-0.61828 0.5917,-1.07897 1.20998,-1.029c0.61828,0.04998 1.07897,0.5917 1.029,1.20998c-0.04998,0.61828 -0.5917,1.07897 -1.20998,1.029c-0.61828,-0.04998 -1.07897,-0.5917 -1.029,-1.20998z" fill="#000000" stroke="none" stroke-width="0.5"/></g></g><g data-paper-data="{&quot;index&quot;:null}" fill="#663f3f" stroke="#000000" stroke-width="0.5"><path d="M52.13604,207.55037l-1.93075,-2.67903l5.74078,-4.13734l1.93075,2.67903z"/><path d="M56.24761,207.20394l-1.93074,-2.67903l5.74078,-4.13733l1.93075,2.67903z"/><path d="M46.94096,207.8054l-1.93075,-2.67902l5.74078,-4.13734l1.93075,2.67903z"/><path d="M49.76814,211.72828l-1.93075,-2.67905l5.74078,-4.13733l1.93076,2.67903z"/><path d="M53.35151,203.18538l-1.93075,-2.67903l5.74079,-4.13733l1.93075,2.67903z"/><path d="M56.85437,211.27329l-7.99886,-11.09886l3.06175,-2.20657l7.99886,11.09884z"/></g><g fill="#663f3f" stroke="#000000" stroke-width="0.5"><path d="M34.77019,200.46432l2.336,-2.33413l5.0017,5.00571l-2.33599,2.33413z"/><path d="M30.76763,199.46198l2.33599,-2.33413l5.0017,5.00569l-2.33597,2.33414z"/><path d="M39.85686,201.55047l2.33599,-2.33413l5.0017,5.00571l-2.33599,2.33412z"/><path d="M36.43629,204.9683l2.336,-2.33413l5.0017,5.00569l-2.33599,2.33415z"/><path d="M34.2716,195.96078l2.33599,-2.33413l5.00172,5.00569l-2.33599,2.33413z"/><path d="M31.84927,205.71703l9.67769,-9.66997l2.66758,2.66969l-9.67769,9.66998z"/></g><g data-paper-data="{&quot;index&quot;:null}" fill="#663f3f" stroke="#000000" stroke-width="0.5"><path d="M72.44779,124.72169l-2.89904,-4.02257l8.61981,-6.21224l2.89904,4.02259z"/><path d="M78.62134,124.20152l-2.89902,-4.02258l8.6198,-6.21222l2.89904,4.02257z"/><path d="M64.64735,125.10462l-2.89904,-4.02257l8.61981,-6.21222l2.89902,4.02258z"/><path d="M68.89236,130.99482l-2.89904,-4.02259l8.61981,-6.21222l2.89904,4.02257z"/><path d="M74.27281,118.16763l-2.89904,-4.02259l8.61981,-6.21222l2.89904,4.02257z"/><path d="M79.53238,130.31167l-12.01031,-16.66497l4.59724,-3.31319l12.01032,16.66497z"/></g><g fill="#663f3f" stroke="#000000" stroke-width="0.5"><path d="M31.65958,110.79112l3.9212,-3.03474l6.50302,8.40259l-3.9212,3.03474z"/><path d="M25.88729,108.54074l3.9212,-3.03474l6.50302,8.40259l-3.92119,3.03475z"/><path d="M39.03081,113.37151l3.9212,-3.03475l6.50302,8.40259l-3.9212,3.03475z"/><path d="M33.28903,117.81525l3.92121,-3.03475l6.50303,8.40259l-3.9212,3.03476z"/><path d="M31.76909,103.98861l3.9212,-3.03475l6.50303,8.40259l-3.92121,3.03475z"/><path d="M26.31483,118.06253l16.24502,-12.57253l3.46828,4.48138l-16.24502,12.57253z"/></g><path d="M72.58565,137.17675c-2.50261,30.95973 -17.35501,72.20751 -27.49699,71.38769c-10.14198,-0.81982 -14.96433,-47.5493 -12.46172,-78.50903c2.50261,-30.95973 12.54095,-32.71085 22.68293,-31.89103c10.14198,0.81982 19.77839,8.05263 17.27578,39.01236z" fill="#00c3c5" stroke="none" stroke-width="0"/><path d="M65.37315,150.18218c-1.79808,22.24407 -12.46929,51.87995 -19.75615,51.29092c-7.28685,-0.58903 -10.75163,-34.16341 -8.95355,-56.40748c1.79808,-22.24407 9.01047,-23.50221 16.29732,-22.91319c7.28685,0.58903 14.21045,5.78569 12.41237,28.02975z" data-paper-data="{&quot;index&quot;:null}" fill="#00a5a8" stroke="none" stroke-width="0"/><path d="M51.62395,111.66973c0.07191,-0.88965 0.85141,-1.55255 1.74106,-1.48064c0.88965,0.07191 1.55255,0.85141 1.48064,1.74106c-0.07191,0.88965 -0.85141,1.55255 -1.74106,1.48064c-0.88965,-0.07191 -1.55255,-0.85141 -1.48064,-1.74106z" fill="#000000" stroke="none" stroke-width="0.5"/><path d="M31.74921,127.02137c-1.40952,17.43709 -3.70155,40.67599 -11.69248,40.34584c-7.97703,-0.32957 -6.53931,-23.40385 -5.1298,-40.84092c1.40952,-17.43709 4.03978,-18.04903 9.85215,-17.57919c5.81237,0.46984 8.37964,0.63718 6.97012,18.07427z" fill="#00c3c5" stroke="none" stroke-width="0"/><path d="M91.60978,135.3191c-1.40952,17.43709 -3.70155,40.67599 -11.69248,40.34584c-7.97703,-0.32957 -6.53931,-23.40385 -5.1298,-40.84092c1.40952,-17.43709 4.03978,-18.04903 9.85215,-17.57919c5.81237,0.46984 8.37964,0.63718 6.97012,18.07427z" fill="#00c3c5" stroke="none" stroke-width="0"/><path d="M39.54512,222.09476c-1.5144,20.26721 -3.94663,47.2858 -11.94321,47.05499c-7.98268,-0.23041 -6.40656,-27.04162 -4.89215,-47.30883c1.5144,-20.26721 4.15081,-21.02769 9.96592,-20.59317c5.81511,0.43452 8.38384,0.5798 6.86944,20.84701z" fill="#00c3c5" stroke="none" stroke-width="0"/><path d="M68.03962,222.84c0.31118,20.32134 0.31437,47.44917 -7.67065,47.93718c-7.97113,0.48716 -8.80833,-26.35727 -9.11952,-46.67861c-0.31118,-20.32134 2.24632,-21.31542 8.07696,-21.40471c5.83064,-0.08929 8.40204,-0.1752 8.71322,20.14614z" fill="#00c3c5" stroke="none" stroke-width="0"/><path d="M24.90214,269.07825l-0.04197,-0.0336l-0.0073,0.01717l-0.53055,-0.22582c-0.12837,-0.05113 -0.21417,-0.18143 -0.20245,-0.32636c0.00395,-0.04891 0.0186,-0.09439 0.04146,-0.13432c-0.85499,-1.20659 -0.97463,-3.33283 -1.42796,-4.38012c-0.98605,-2.57856 -0.27719,-6.27891 -1.35183,-8.76156l-0.00832,-0.36791c0,0 0.00183,-0.02262 0.01025,-0.05604c-0.08718,0.00483 -0.33458,-0.00774 -0.38282,-0.29867c-0.05878,-0.3545 0.29571,-0.41327 0.29571,-0.41327c1.25221,-0.18982 2.61659,-1.5833 3.88279,-1.54897c0.60986,0.01655 0.20843,2.10755 0.66648,1.70459c1.59041,-1.39918 1.80602,0.94801 3.02735,-0.18419c0.32917,-0.19699 1.28935,-0.88212 1.71959,-0.58589c0.5238,0.36062 -0.22696,2.23843 0.04433,2.4123c0.37036,0.23737 0.64628,-0.73057 1.08574,-0.75015c0.51646,-0.02302 0.76611,1.52264 1.0807,1.1124c1.33203,-1.73706 2.45164,1.58698 2.33866,2.72816c0.95738,2.37632 -2.9828,8.65093 -4.72222,10.14819c-0.73063,0.61428 -1.16581,0.68813 -1.60425,0.56191c-0.0215,0.01489 -0.04485,0.02722 -0.06958,0.03658l-0.37658,0.15172l-0.0511,-0.12684c-0.8894,0.25727 -1.84774,-0.07759 -2.74387,-0.4521l-0.11023,-0.10951c-0.16625,-0.00546 -0.32874,-0.03607 -0.48576,-0.10927c-0.00126,-0.00058 -0.00253,-0.00118 -0.00379,-0.00177c-0.02394,-0.00229 -0.04808,-0.0045 -0.07244,-0.00663z" fill="#000000" stroke="none" stroke-width="0.5"/><path d="M62.93578,270.8538c0.10479,0.06047 0.17118,0.17757 0.16079,0.30618c-0.0104,0.12861 -0.09473,0.23354 -0.20788,0.27638l-0.37658,0.15171c-1.16526,0.44559 -2.3285,-0.1745 -3.46057,-0.2455c0,0 -0.32217,-0.02604 -0.29613,-0.34821c0.0029,-0.03586 0.00946,-0.0674 0.01885,-0.09514c-0.22031,0.04549 -0.44016,0.0562 -0.66156,-0.00936c-1.72725,-0.51154 -2.21555,-3.48751 -2.97273,-4.70381c-1.35627,-2.40454 -1.20201,-6.16902 -2.63172,-8.46561l-0.0626,-0.36263c0,0 -0.00153,-0.02264 0.00185,-0.05692c-0.08551,0.01768 -0.33205,0.04179 -0.42275,-0.23882c-0.11053,-0.34193 0.2314,-0.45244 0.2314,-0.45244c1.21042,-0.37278 2.35389,-1.95259 3.61127,-2.10574c0.6056,-0.07377 0.51757,2.05361 0.91104,1.58738c1.36619,-1.61883 1.92627,0.67072 2.9669,-0.62953c0.29644,-0.24347 1.14484,-1.06297 1.61415,-0.83358c0.57134,0.27927 0.10631,2.2474 0.40032,2.37928c0.40136,0.18004 0.53122,-0.81806 0.96296,-0.90236c0.50739,-0.09908 0.9827,1.39272 1.23322,0.94049c1.06073,-1.91484 2.65923,1.20728 2.71614,2.35261c1.29802,2.20876 -1.67166,8.99674 -3.17074,10.73459c-0.2706,0.30644 -0.50224,0.50682 -0.71421,0.63108zM61.39812,271.13215c-0.03038,-0.00847 -0.06093,-0.0173 -0.09161,-0.02641c-0.01159,0.00646 -0.02378,0.01275 -0.03662,0.01884c0.04289,0.00339 0.08565,0.00595 0.12823,0.00756z" fill="#000000" stroke="none" stroke-width="0.5"/><path d="M17.33448,167.84867l-0.04197,-0.0336l-0.00732,0.01718l-0.53055,-0.22583c-0.12837,-0.05113 -0.21417,-0.18143 -0.20245,-0.32636c0.00395,-0.04891 0.0186,-0.09439 0.04146,-0.13432c-0.85499,-1.20659 -0.97463,-3.33283 -1.42796,-4.38012c-0.98605,-2.57856 -0.27719,-6.27891 -1.35183,-8.76156l-0.00832,-0.36791c0,0 0.00183,-0.02262 0.01025,-0.05604c-0.08718,0.00483 -0.33458,-0.00774 -0.38282,-0.29867c-0.05878,-0.3545 0.29571,-0.41327 0.29571,-0.41327c1.25221,-0.18982 2.61659,-1.5833 3.88279,-1.54897c0.60986,0.01655 0.20843,2.10755 0.66648,1.70459c1.59041,-1.39918 1.80602,0.94801 3.02735,-0.18419c0.32917,-0.19699 1.28935,-0.88212 1.71959,-0.58589c0.5238,0.36062 -0.22696,2.23844 0.04433,2.41231c0.37036,0.23737 0.64628,-0.73057 1.08574,-0.75015c0.51646,-0.02302 0.76611,1.52264 1.0807,1.1124c1.33203,-1.73706 2.45164,1.58698 2.33866,2.72816c0.95738,2.37632 -2.9828,8.65093 -4.72222,10.14819c-0.73063,0.61428 -1.16581,0.68813 -1.60425,0.56191c-0.0215,0.01489 -0.04485,0.02722 -0.06958,0.03658l-0.37658,0.15171l-0.0511,-0.12684c-0.8894,0.25727 -1.84772,-0.07759 -2.74387,-0.4521l-0.11023,-0.10951c-0.16625,-0.00546 -0.32874,-0.03607 -0.48576,-0.10927c-0.00126,-0.00058 -0.00253,-0.00118 -0.00379,-0.00177c-0.02394,-0.00229 -0.04808,-0.0045 -0.07244,-0.00663z" fill="#000000" stroke="none" stroke-width="0.5"/><path d="M77.42066,176.4117l-0.04197,-0.0336l-0.00732,0.01717l-0.53055,-0.22582c-0.12837,-0.05113 -0.21417,-0.18143 -0.20245,-0.32636c0.00395,-0.04891 0.0186,-0.09439 0.04146,-0.13432c-0.85499,-1.20659 -0.97463,-3.33283 -1.42796,-4.38012c-0.98605,-2.57856 -0.27719,-6.27891 -1.35183,-8.76156l-0.00832,-0.36791c0,0 0.00183,-0.02262 0.01025,-0.05604c-0.08718,0.00483 -0.33458,-0.00774 -0.38282,-0.29867c-0.05878,-0.3545 0.29571,-0.41327 0.29571,-0.41327c1.25221,-0.18982 2.61659,-1.5833 3.88279,-1.54897c0.60986,0.01655 0.20843,2.10755 0.66648,1.70459c1.59041,-1.39918 1.80602,0.94801 3.02735,-0.18419c0.32917,-0.19699 1.28935,-0.88212 1.71959,-0.58589c0.5238,0.36062 -0.22696,2.23843 0.04433,2.4123c0.37036,0.23737 0.64628,-0.73057 1.08574,-0.75015c0.51646,-0.02302 0.76611,1.52264 1.0807,1.1124c1.33203,-1.73706 2.45164,1.58698 2.33866,2.72816c0.95738,2.37632 -2.9828,8.65093 -4.72222,10.14819c-0.73063,0.61428 -1.16581,0.68813 -1.60425,0.56191c-0.0215,0.01489 -0.04485,0.02722 -0.06958,0.03658l-0.37658,0.15172l-0.0511,-0.12684c-0.8894,0.25727 -1.84772,-0.07759 -2.74387,-0.4521l-0.11023,-0.10951c-0.16625,-0.00546 -0.32874,-0.03607 -0.48576,-0.10927c-0.00126,-0.00058 -0.00253,-0.00118 -0.00379,-0.00176c-0.02394,-0.00229 -0.04808,-0.0045 -0.07244,-0.00663z" fill="#000000" stroke="none" stroke-width="0.5"/><g fill="#663f3f" stroke="#000000" stroke-width="0.5"><path d="M22.94486,267.55812l-0.00063,-1.93928l8.17968,0.4907l0.00064,1.93927z"/><path d="M23.05797,270.643l0.01321,-1.93816l7.45714,0.43228l-0.0132,1.93816z"/><path d="M23.0435,264.04539l-0.00063,-1.93928l8.17968,0.4907l0.00064,1.93928z"/><path d="M23.49547,260.74652l-0.00063,-1.93928l8.17968,0.4907l0.00064,1.93928z"/><path d="M23.33562,258.1394l-0.00063,-1.93928l8.17968,0.4907l0.00064,1.93928z"/><path d="M25.59474,273.12968l1.23815,-18.74419l1.86749,-0.06236l-1.23815,18.7442z"/></g><g fill="#663f3f" stroke="#000000" stroke-width="0.5"><path d="M55.64908,268.71934l-0.00064,-1.93928l8.17969,0.49068l0.00064,1.93928z"/><path d="M55.76218,271.80423l0.01321,-1.93816l7.45714,0.43228l-0.0132,1.93816z"/><path d="M55.74773,265.20662l-0.00064,-1.93928l8.17968,0.4907l0.00066,1.93928z"/><path d="M56.19969,261.90776l-0.00064,-1.93928l8.17969,0.4907l0.00064,1.93928z"/><path d="M56.03983,259.30064l-0.00063,-1.93928l8.17968,0.4907l0.00064,1.93928z"/><path d="M58.29897,274.29091l1.23815,-18.74419l1.86749,-0.06236l-1.23815,18.7442z"/></g><g fill="#663f3f" stroke="#000000" stroke-width="0.5"><path d="M15.02537,166.09626l-0.00064,-1.93927l8.17969,0.49068l0.00064,1.93928z"/><path d="M15.13846,169.18114l0.01321,-1.93816l7.45714,0.43228l-0.0132,1.93816z"/><path d="M15.12401,162.58353l-0.00064,-1.93928l8.17968,0.4907l0.00066,1.93928z"/><path d="M15.57598,159.28467l-0.00064,-1.93928l8.17969,0.4907l0.00064,1.93927z"/><path d="M15.41612,156.67755l-0.00064,-1.93928l8.17968,0.4907l0.00066,1.93927z"/><path d="M17.67526,171.66782l1.23815,-18.74419l1.86749,-0.06236l-1.23815,18.7442z"/></g><g fill="#663f3f" stroke="#000000" stroke-width="0.5"><path d="M76.37226,171.35842l-0.00064,-1.93928l8.17969,0.4907l0.00064,1.93928z"/><path d="M76.82423,168.05956l-0.00063,-1.93928l8.17968,0.4907l0.00064,1.93928z"/><path d="M76.66437,165.45244l-0.00064,-1.93928l8.17969,0.4907l0.00064,1.93928z"/><path d="M79.59588,172.12487l0.57331,-10.51945l1.85997,0.03074l-0.57331,10.51945z"/></g><path d="M79.19132,177.25785l-1.28482,-1.45258l6.45361,-5.04964l1.28484,1.45257z" fill="#663f3f" stroke="#000000" stroke-width="0.5"/><path d="M81.31914,179.49429l-1.27372,-1.46092l5.87356,-4.61486l1.27374,1.46091z" fill="#663f3f" stroke="#000000" stroke-width="0.5"/><path d="M86.01834,180.42993l-6.53734,-8.26141l1.41394,-1.2088l6.53734,8.26141z" fill="#663f3f" stroke="#000000" stroke-width="0.5"/><path d="M90.31402,184.25332l-5.28493,-1.89622l2.37027,-6.60615l5.28493,1.89622z" fill="#663f3f" stroke="#000000" stroke-width="0.5"/><path d="M86.79781,184.57535c0,0 -0.4387,-1.28864 0.05612,-2.40175c0.81516,-1.83372 3.23704,-7.28179 3.23704,-7.28179l1.9111,0.84956c0,0 -2.40027,5.39946 -3.21617,7.23487c-0.50122,1.12748 -1.80797,1.79158 -1.80797,1.79158z" fill="#565656" stroke="none" stroke-width="0"/><path d="M92.85534,175.45654c-0.38018,0.85521 -1.39525,1.23425 -2.26723,0.84663c-0.87198,-0.38763 -1.27067,-1.39516 -0.8905,-2.25037c0.38018,-0.85521 1.39525,-1.23425 2.26723,-0.84663c0.87198,0.38763 1.27067,1.39516 0.8905,2.25037z" fill="#2b2b2b" stroke="none" stroke-width="0"/><path d="M91.35454,181.90653l-4.1303,-1.53199l0.50625,-1.40594l4.1303,1.532z" fill="#663f3f" stroke="#000000" stroke-width="0.5"/><path d="M92.21835,180.07728l-4.14004,-1.5055l0.49725,-1.40916l4.14003,1.5055z" fill="#663f3f" stroke="#000000" stroke-width="0.5"/><path d="M90.62997,184.03286l-4.17228,-1.41369l0.466,-1.41979l4.17229,1.41369z" fill="#663f3f" stroke="#000000" stroke-width="0.5"/><path d="M91.7694,178.59864l-4.48033,-0.59396l0.23608,-1.83181l4.48033,0.59396z" fill="#663f3f" stroke="#000000" stroke-width="0.5"/><path d="M13.82617,175.18753l1.59747,-5.38278l6.72846,1.99682l-1.59746,5.38277z" data-paper-data="{&quot;index&quot;:null}" fill="#663f3f" stroke="#000000" stroke-width="0.5"/><path d="M16.61393,176.21152l1.2081,-4.23638l1.43303,0.42351l-1.2081,4.23638z" data-paper-data="{&quot;index&quot;:null}" fill="#663f3f" stroke="#000000" stroke-width="0.5"/><path d="M14.63081,175.8167l1.23523,-4.22855l1.43029,0.43268l-1.23523,4.22856z" data-paper-data="{&quot;index&quot;:null}" fill="#663f3f" stroke="#000000" stroke-width="0.5"/><path d="M18.76958,176.84451l1.32832,-4.20024l1.42039,0.46416l-1.32831,4.20023z" data-paper-data="{&quot;index&quot;:null}" fill="#663f3f" stroke="#000000" stroke-width="0.5"/><path d="M13.51793,174.11944l2.17148,-3.9637l1.61658,0.89327l-2.17148,3.9637z" data-paper-data="{&quot;index&quot;:null}" fill="#663f3f" stroke="#000000" stroke-width="0.5"/></g><g fill="#3c966d" stroke="none" stroke-linecap="butt"><path d="M159.01147,242.17053c0,8.28427 -9.84974,15 -22,15c-12.15027,0 -22,-6.71573 -22,-15c0,-8.28427 9.84973,-15 22,-15c12.15026,0 22,6.71573 22,15z" stroke-width="NaN"/><path d="M198.01148,153.17053c0,14.35941 -25.96749,26 -58,26c-32.03251,0 -58,-11.64059 -58,-26c0,-14.35941 25.96748,-26 58,-26c32.03251,0 58,11.64059 58,26z" stroke-width="0"/><path d="M124.01148,236.17053v-65h27v65z" stroke-width="0"/><g><path d="M390.01148,269.17053c0,8.28427 -9.84974,15 -22,15c-12.15026,0 -22,-6.71573 -22,-15c0,-8.28427 9.84974,-15 22,-15c12.15026,0 22,6.71573 22,15z" stroke-width="NaN"/><path d="M429.01148,180.17053c0,14.35941 -25.96749,26 -58,26c-32.03251,0 -58,-11.64059 -58,-26c0,-14.35941 25.96749,-26 58,-26c32.03251,0 58,11.64059 58,26z" stroke-width="0"/><path d="M355.01148,263.17053v-65h27v65z" stroke-width="0"/></g><g><path d="M160.01147,383.17053c0,8.28427 -9.84974,15 -22,15c-12.15027,0 -22,-6.71573 -22,-15c0,-8.28427 9.84973,-15 22,-15c12.15026,0 22,6.71573 22,15z" stroke-width="NaN"/><path d="M199.01148,294.17053c0,14.3594 -25.96749,26 -58,26c-32.03251,0 -58,-11.6406 -58,-26c0,-14.3594 25.96748,-26 58,-26c32.03251,0 58,11.6406 58,26z" stroke-width="0"/><path d="M125.01148,377.17053v-65h27v65z" stroke-width="0"/></g><g><path d="M410.01148,408.17053c0,8.28427 -9.84974,15 -22,15c-12.15026,0 -22,-6.71573 -22,-15c0,-8.28427 9.84974,-15 22,-15c12.15026,0 22,6.71573 22,15z" stroke-width="NaN"/><path d="M449.01148,319.17053c0,14.3594 -25.96749,26 -58,26c-32.03251,0 -58,-11.6406 -58,-26c0,-14.3594 25.96749,-26 58,-26c32.03251,0 58,11.6406 58,26z" stroke-width="0"/><path d="M375.01148,402.17053v-65h27v65z" stroke-width="0"/></g><g><path d="M602.01148,278.17053c0,8.28427 -9.84974,15 -22,15c-12.15026,0 -22,-6.71573 -22,-15c0,-8.28427 9.84974,-15 22,-15c12.15026,0 22,6.71573 22,15z" stroke-width="NaN"/><path d="M641.01148,189.17053c0,14.35941 -25.96749,26 -58,26c-32.03251,0 -58,-11.64059 -58,-26c0,-14.35941 25.96749,-26 58,-26c32.03251,0 58,11.64059 58,26z" stroke-width="0"/><path d="M567.01148,272.17053v-65h27v65z" stroke-width="0"/></g><g><path d="M585.01148,424.17053c0,8.28427 -9.84974,15 -22,15c-12.15026,0 -22,-6.71573 -22,-15c0,-8.28427 9.84974,-15 22,-15c12.15026,0 22,6.71573 22,15z" stroke-width="NaN"/><path d="M624.01148,335.17053c0,14.3594 -25.96749,26 -58,26c-32.03251,0 -58,-11.6406 -58,-26c0,-14.3594 25.96749,-26 58,-26c32.03251,0 58,11.6406 58,26z" stroke-width="0"/><path d="M550.01148,418.17053v-65h27v65z" stroke-width="0"/></g></g><g><g fill="#663f3f" stroke="#000000" stroke-width="0.5" stroke-linecap="butt"><path d="M339.84075,275.17234l0.46158,-3.45797l6.96765,0.73109l-0.46158,3.45797z"/><path d="M336.06017,277.02978l0.46158,-3.45797l6.96765,0.73109l-0.46159,3.45798z"/><path d="M344.5331,272.65923l0.46158,-3.45797l6.96765,0.73109l-0.46158,3.45797z"/><path d="M343.85721,277.72269l0.46158,-3.45797l6.96764,0.73109l-0.46158,3.45797z"/><path d="M336.75254,271.84282l0.46158,-3.45797l6.96764,0.73111l-0.46158,3.45797z"/><path d="M340.65875,281.39439l1.91227,-14.32588l3.71608,0.38991l-1.91228,14.32588z"/></g><g fill="#663f3f" stroke="#000000" stroke-width="0.5" stroke-linecap="butt"><path d="M382.69462,278.8046l-0.58143,-3.43984l6.87229,-1.36166l0.58144,3.43985z"/><path d="M379.63227,281.69676l-0.58144,-3.43986l6.87229,-1.36166l0.58144,3.43986z"/><path d="M386.43417,275.01647l-0.58144,-3.43985l6.87229,-1.36165l0.58144,3.43986z"/><path d="M387.28556,280.05339l-0.58145,-3.43983l6.87229,-1.36166l0.58144,3.43985z"/><path d="M378.76009,276.537l-0.58144,-3.43985l6.87229,-1.36166l0.58144,3.43984z"/><path d="M385.31568,284.50662l-2.40882,-14.2508l3.66523,-0.72621l2.40882,14.2508z"/></g><g fill="#663f3f" stroke="#000000" stroke-width="0.5" stroke-linecap="butt"><path d="M353.86068,140.17576l3.88913,-3.57335l7.6572,8.33388l-3.88914,3.57335z"/><path d="M347.53192,138.30599l3.88914,-3.57336l7.6572,8.33387l-3.88914,3.57336z"/><path d="M361.91615,142.25212l3.88914,-3.57337l7.6572,8.33387l-3.88914,3.57336z"/><path d="M356.22137,147.48451l3.88913,-3.57336l7.6572,8.33387l-3.88914,3.57336z"/><path d="M353.36561,132.94594l3.88913,-3.57335l7.6572,8.33388l-3.88914,3.57335z"/><path d="M348.84135,148.37373l16.11216,-14.80391l4.08383,4.44473l-16.11214,14.80392z"/></g><g fill="#663f3f" stroke="#000000" stroke-width="0.5" stroke-linecap="butt"><path d="M395.71233,150.53917l-2.16834,-4.81587l10.31974,-4.64642l2.16832,4.81587z"/><path d="M391.94639,155.95829l-2.16832,-4.81586l10.31972,-4.64642l2.16834,4.81587z"/><path d="M400.2176,143.54598l-2.16834,-4.81587l10.31973,-4.64642l2.16832,4.81587z"/><path d="M403.39266,150.59779l-2.16834,-4.81587l10.31973,-4.64642l2.16834,4.81587z"/><path d="M388.6939,148.73451l-2.16834,-4.81587l10.31973,-4.64644l2.16832,4.81589z"/><path d="M401.91484,157.8828l-8.98309,-19.95147l5.50386,-2.47809l8.98309,19.95148z"/></g><g fill="#663f3f" stroke="#000000" stroke-width="0.5" stroke-linecap="butt"><path d="M377.24777,213.78012l-1.34107,-3.53161l7.56773,-2.87372l1.34107,3.53161z"/><path d="M374.32604,217.48733l-1.34108,-3.53162l7.56773,-2.87372l1.34107,3.53161z"/><path d="M380.76506,208.9809l-1.34107,-3.53161l7.56773,-2.87372l1.34107,3.53161z"/><path d="M382.72877,214.15219l-1.34107,-3.53161l7.56773,-2.87372l1.34107,3.53161z"/><path d="M372.31443,212.18992l-1.34108,-3.53161l7.56773,-2.87372l1.34107,3.53161z"/><path d="M381.36046,219.28993l-5.55586,-14.63096l4.03613,-1.53264l5.55586,14.63095z"/></g><g fill="#663f3f" stroke="#000000" stroke-width="0.5" stroke-linecap="butt"><path d="M356.61988,205.50732l1.58494,-3.42909l7.34807,3.39629l-1.58494,3.42909z"/><path d="M351.92696,206.0136l1.58494,-3.42909l7.34807,3.39629l-1.58494,3.4291z"/><path d="M362.50971,204.66249l1.58493,-3.42909l7.34807,3.39629l-1.58494,3.42909z"/><path d="M360.18892,209.68365l1.58494,-3.42909l7.34806,3.39629l-1.58493,3.42909z"/><path d="M354.30437,200.86996l1.58494,-3.42909l7.34806,3.39629l-1.58494,3.42909z"/><path d="M355.5608,212.30072l6.56617,-14.20627l3.91897,1.81136l-6.56616,14.20627z"/></g><g fill="#663f3f" stroke="#000000" stroke-width="0.5" stroke-linecap="butt"><path d="M401.803,60.66908l1.88547,-1.02855l2.20404,4.04031l-1.88547,1.02856z"/><path d="M399.48888,59.31014l1.88547,-1.02855l2.20404,4.0403l-1.88547,1.02855z"/><path d="M404.77829,62.27898l1.88547,-1.02855l2.20404,4.04029l-1.88547,1.02855z"/><path d="M402.01741,63.78508l1.88548,-1.02856l2.20404,4.0403l-1.88548,1.02855z"/><path d="M402.31708,57.76732l1.88547,-1.02855l2.20404,4.0403l-1.88547,1.02855z"/><path d="M399.01771,63.41178l7.81124,-4.26115l1.17549,2.15482l-7.81124,4.26115z"/></g><g fill="#663f3f" stroke="#000000" stroke-width="0.5" stroke-linecap="butt"><path d="M360.85085,53.0795l-1.23975,-1.75384l3.75823,-2.65659l1.23975,1.75384z"/><path d="M359.76872,55.53526l-1.23975,-1.75384l3.75824,-2.65659l1.23975,1.75384z"/><path d="M362.10579,49.93796l-1.23975,-1.75384l3.75824,-2.65659l1.23974,1.75384z"/><path d="M363.92114,52.50609l-1.23974,-1.75384l3.75824,-2.65659l1.23975,1.75384z"/><path d="M357.9091,52.9045l-1.23975,-1.75384l3.75824,-2.65659l1.23975,1.75384z"/><path d="M363.89733,55.52885l-5.13608,-7.26593l2.00439,-1.41685l5.1361,7.26592z"/></g><g fill="#663f3f" stroke="#000000" stroke-width="0.5" stroke-linecap="butt"><path d="M374.26508,119.5754l0.77565,-7.13148l15.28176,1.66212l-0.77566,7.13148z"/><path d="M366.12557,123.32887l0.77565,-7.13148l15.28175,1.66212l-0.77565,7.13148z"/><path d="M384.35367,114.48769l0.77564,-7.13148l15.28176,1.66212l-0.77566,7.13148z"/><path d="M383.21789,124.93022l0.77566,-7.13149l15.28176,1.66212l-0.77564,7.13149z"/><path d="M367.28904,112.63165l0.77565,-7.13148l15.28176,1.66211l-0.77565,7.13149z"/><path d="M376.47342,132.44332l3.21344,-29.54473l8.15027,0.88646l-3.21344,29.54472z"/></g><path d="M426.28666,78.73431c-0.45803,19.54039 -17.01431,35.00161 -36.97948,34.53362c-19.96518,-0.46799 -35.77883,-16.68798 -35.3208,-36.22836c0.45803,-19.54039 17.01431,-35.00162 36.97948,-34.53363c8.61724,0.20199 9.80306,24.73044 15.899,29.80176c8.02767,6.67834 19.68215,-4.67988 19.42181,6.4266z" fill="#c50000" stroke="#000000" stroke-width="0.5" stroke-linecap="butt"/><path d="M372.56129,67.83841c2.54619,0.05968 4.55116,2.63085 4.47822,5.74287c-0.07295,3.11202 -2.19619,5.58643 -4.74238,5.52674c-2.54619,-0.05968 -4.55116,-2.63085 -4.47822,-5.74287c0.07295,-3.11202 2.19619,-5.58643 4.74238,-5.52674z" fill="#000000" stroke="#000000" stroke-width="0.5" stroke-linecap="butt"/><path d="M368.67447,87.5836c-0.25327,-0.03863 -0.21464,-0.2919 -0.21464,-0.2919l0.06291,-0.3807c0.22724,-0.54937 -0.0106,-1.1202 -0.41034,-1.54683c-0.00596,-1.00683 -0.60542,-1.98267 -0.35152,-3.03539c0.269,-1.11536 1.21865,-1.48236 1.71595,-2.37318c0.30267,-0.54221 0.02461,-2.20417 0.03992,-2.85717c0,0 0.00601,-0.25612 0.26213,-0.25013c0.25613,0.006 0.25013,0.26213 0.25013,0.26213c-0.01836,0.78341 0.25358,2.39454 -0.09936,3.08499c-0.44779,0.87599 -1.4082,1.21915 -1.67295,2.26272c-0.23709,0.9345 0.38664,1.83041 0.33359,2.72109c0.51258,0.52705 0.63726,1.21796 0.41467,1.90515l-0.03854,0.28457c0,0 -0.03864,0.25327 -0.2919,0.21464z" fill="#420000" stroke="none" stroke-width="0.5" stroke-linecap="butt"/><path d="M373.59594,88.93115c-0.25613,-0.006 -0.25013,-0.26212 -0.25013,-0.26212l0.0072,-0.30736c0.03355,-1.43129 1.26682,-2.07449 2.01267,-3.29485c2.51827,-1.94521 -0.99107,-5.30367 -0.9313,-7.85311c0,0 0.00601,-0.25612 0.26213,-0.25013c0.25613,0.006 0.25013,0.26213 0.25013,0.26213c-0.06754,2.8813 3.53635,5.77212 0.80708,8.17574c-0.66994,1.10975 -1.8596,1.74161 -1.88844,2.97223l-0.00721,0.30735c0,0 -0.00601,0.25612 -0.26213,0.25013z" fill="#000000" stroke="none" stroke-width="0.5" stroke-linecap="butt"/><path d="M371.07099,87.00851c-0.24004,0.08955 -0.32959,-0.15049 -0.32959,-0.15049l-0.0138,-0.03699c-0.0639,-0.17569 -0.1278,-0.3514 -0.19171,-0.52708c0.02125,-1.39785 -0.17666,-3.35799 0.55099,-4.57809c0.55767,-0.93509 1.79562,-1.77489 1.08911,-3.21039c0,0 -0.10918,-0.23176 0.1226,-0.34094c0.23177,-0.10918 0.34095,0.12261 0.34095,0.12261c0.75919,1.66875 -0.45798,2.62213 -1.12321,3.70826c-0.65728,1.07315 -0.4332,2.95821 -0.47514,4.21348c0.05549,0.14436 0.111,0.28872 0.1665,0.43307l0.0138,0.03699c0,0 0.08955,0.24004 -0.15049,0.32959z" fill="#04ff00" stroke="none" stroke-width="0.5" stroke-linecap="butt"/><path d="M372.5502,87.6253c0.006,-0.25613 0.26213,-0.25013 0.26213,-0.25013l0.1774,0.14582c0.54864,-1.02036 1.45004,-1.68084 1.90656,-2.6205c1.07173,-2.01351 0.6232,-2.70537 -0.49887,-4.47769c-0.52342,-0.82677 -1.7842,-1.29195 -1.18195,-2.5322c0,0 0.11991,-0.2264 0.34632,-0.1065c0.22641,0.11992 0.10649,0.34632 0.10649,0.34632c-0.54467,0.90626 1.66272,2.72843 2.15237,3.47627c0.8312,1.2695 0.14044,2.37185 -0.47155,3.53363c-0.51175,0.91176 -1.37026,1.58942 -1.90656,2.6205l-0.6422,0.12661c0,0 -0.25612,-0.00601 -0.25013,-0.26213z" fill="#1c00ff" stroke="none" stroke-width="0.5" stroke-linecap="butt"/><path d="M366.91519,91.46834c-0.60901,-2.53126 0.77084,-5.03402 3.08198,-5.59009c2.31114,-0.55607 4.67842,1.04515 5.28743,3.57641c0.60901,2.53127 -0.77084,5.03402 -3.08198,5.59009c-2.31114,0.55607 -4.67842,-1.04514 -5.28743,-3.57641z" fill="#ffffff" stroke="#000000" stroke-width="0" stroke-linecap="butt"/><path d="M371.83304,94.16896c-0.00796,0.33949 -0.38135,0.6061 -0.83402,0.59549c-0.45266,-0.01061 -0.81315,-0.29443 -0.8052,-0.63392c0.00796,-0.33949 0.38135,-0.6061 0.83402,-0.59549c0.45266,0.01061 0.81315,0.29443 0.8052,0.63392z" fill="#000000" stroke="none" stroke-width="0" stroke-linecap="butt"/><path d="M401.28435,77.10289c-0.60901,-2.53126 0.77084,-5.03403 3.08198,-5.59009c1.16515,-0.28034 1.48653,1.60763 2.44772,2.26663c0.9454,0.64817 2.53774,0.05464 2.83972,1.30978c0.60901,2.53127 -0.77084,5.03402 -3.08198,5.59009c-2.31114,0.55607 -4.67842,-1.04515 -5.28743,-3.57641z" fill="#ffffff" stroke="#000000" stroke-width="0.5" stroke-linecap="butt"/><path d="M405.98611,76.91243c-0.00796,0.33949 -0.38135,0.6061 -0.83402,0.59549c-0.45266,-0.01061 -0.81315,-0.29443 -0.8052,-0.63392c0.00796,-0.33949 0.38135,-0.6061 0.83402,-0.59549c0.45266,0.01061 0.81315,0.29443 0.8052,0.63392z" fill="#000000" stroke="none" stroke-width="0" stroke-linecap="butt"/><path d="M393.74027,95.6942l-8.23211,1.34465l-7.92195,-0.9545l-2.75137,-2.88345z" fill="#000000" stroke="#3e0000" stroke-width="0.5" stroke-linecap="round"/><path d="M361.92364,43.19131c3.86939,4.30974 2.24264,4.03689 -0.2106,6.23946c-2.45324,2.20258 -3.76812,3.16587 -7.63751,-1.14387c-3.86939,-4.30974 -6.01546,-8.32134 -3.56222,-10.52392c2.45324,-2.20258 7.54095,1.11858 11.41033,5.42831z" fill="#ff0000" stroke="#000000" stroke-width="0.5" stroke-linecap="butt"/><path d="M361.66159,44.73276c2.53312,2.82139 1.46815,2.64277 -0.13788,4.0847c-1.60602,1.44193 -2.46683,2.07256 -4.99995,-0.74884c-2.53312,-2.82139 -3.93805,-5.44761 -2.33202,-6.88954c1.60602,-1.44193 4.93673,0.73229 7.46986,3.55368z" fill="#d00000" stroke="#000000" stroke-width="0.5" stroke-linecap="butt"/><path d="M416.23455,66.69738c-0.25489,0.02583 -0.28072,-0.22907 -0.28072,-0.22907l-0.00442,-0.04364c-0.02636,-0.79121 -0.95583,-2.14092 -1.52975,-2.90616c-0.96368,-1.96157 -2.23569,-2.24611 -4.35678,-2.06515c-1.08552,0.09262 -3.09054,1.39404 -3.21681,-0.09945c0,0 0.00601,-0.25612 0.26213,-0.25013c0.25613,0.006 0.25013,0.26213 0.25013,0.26213c-0.12607,0.50165 1.99207,-0.36454 2.6604,-0.42305c2.27529,-0.19919 3.80244,0.17621 4.83801,2.3082c0.68523,0.91293 1.45983,2.13799 1.60247,3.12195l0.00442,0.04363c0,0 0.02582,0.2549 -0.22907,0.28072z" fill="#04ff00" stroke="none" stroke-width="0.5" stroke-linecap="butt"/><path d="M416.05922,68.68977c-0.20427,0.15463 -0.3589,-0.04964 -0.3589,-0.04964l-0.31478,-0.46023c-0.14341,-1.03512 -1.41485,-1.82008 -1.49392,-3.05592c-0.71587,-0.9382 -1.43487,-3.73136 -2.52078,-4.19605c-0.94275,-0.40344 -2.95325,-0.04972 -4.00049,-0.07427c0,0 -0.25612,-0.00601 -0.25013,-0.26213c0.006,-0.25613 0.26213,-0.25013 0.26213,-0.25013c1.10887,0.02599 3.19353,-0.33393 4.1956,0.11786c1.26469,0.57019 2.01247,3.3856 2.79406,4.48648c0.11522,1.28186 1.26644,2.01626 1.51701,3.1391l0.21982,0.24601c0,0 0.15463,0.20426 -0.04964,0.3589z" fill="#1c00ff" stroke="none" stroke-width="0.5" stroke-linecap="butt"/><path d="M416.65496,69.27198c-0.00609,0.25612 -0.26222,0.25003 -0.26222,0.25003l-0.28807,-0.00685c-2.93339,-0.07892 -3.31975,-2.44905 -3.95446,-4.73286c0.03732,-2.05028 -1.05551,-5.57202 -3.97278,-4.64727c-0.47556,0.15075 -0.82058,0.69447 -1.31932,0.70665c0,0 -0.25612,-0.00601 -0.25013,-0.26213c0.006,-0.25613 0.26213,-0.25013 0.26213,-0.25013c0.6591,0.06661 0.89216,-0.69697 1.73212,-0.72252c3.00206,-0.09133 4.13142,2.55229 4.05634,5.11122c0.58439,2.04519 0.80403,4.21435 3.45979,4.28485l0.28658,0.00682c0,0 0.25612,0.00609 0.25002,0.26222z" fill="#000000" stroke="none" stroke-width="0.5" stroke-linecap="butt"/><path d="M410.61236,69.36169c-0.23393,0.10447 -0.33839,-0.12946 -0.33839,-0.12946l-0.08307,-0.18602c-1.19077,-2.66934 4.77491,-4.99329 2.78592,-7.87355c-0.52488,-2.06587 -2.40334,-2.30595 -4.53875,-1.81205c-0.66957,0.15487 -2.15224,0.353 -1.60432,1.36584c0,0 0.10917,0.23178 -0.12261,0.34095c-0.23178,0.10917 -0.34095,-0.1226 -0.34095,-0.1226c-0.62081,-1.4541 0.85972,-1.84478 1.95561,-2.08414c2.28066,-0.49816 4.56567,-0.22266 5.11984,2.10528c2.05397,3.17166 -3.88269,5.42026 -2.7869,7.87134l0.08307,0.18602c0,0 0.10447,0.23393 -0.12946,0.3384z" fill="#420000" stroke="none" stroke-width="0.5" stroke-linecap="butt"/><path d="M393.84278,157.76095c-4.85994,34.25024 -12.4765,55.43591 -24.52432,53.72638c-12.04782,-1.70952 -11.70302,-28.8814 -6.84308,-63.13164c4.85994,-34.25024 9.66548,-32.34449 21.71331,-30.63497c12.04782,1.70952 14.51404,5.78999 9.6541,40.04023z" fill="#c50000" stroke="#000000" stroke-width="2" stroke-linecap="butt"/><path d="M384.54438,180.45175c-2.27748,16.96864 -9.77657,19.11465 -12.02036,18.81349c-2.24379,-0.30115 -9.53214,-8.32214 -7.25466,-25.29079c2.27748,-16.96864 9.8126,-20.65141 12.05639,-20.35026c2.24379,0.30115 9.49611,9.8589 7.21863,26.82754z" fill="#8b0000" stroke="none" stroke-width="0" stroke-linecap="butt"/><path d="M376.54577,140.09259c0.02321,-0.99019 0.84473,-1.77407 1.83492,-1.75086c0.99019,0.02321 1.77407,0.84473 1.75086,1.83492c-0.02321,0.99019 -0.84473,1.77407 -1.83492,1.75086c-0.99019,-0.02321 -1.77407,-0.84473 -1.75086,-1.83492z" fill="#000000" stroke="none" stroke-width="0.5" stroke-linecap="butt"/><path d="M378.29867,130.90802c0.02321,-0.99019 0.84474,-1.77408 1.83492,-1.75087c0.99019,0.02321 1.77407,0.84473 1.75086,1.83492c-0.02321,0.99019 -0.84473,1.77407 -1.83492,1.75086c-0.99019,-0.02321 -1.77407,-0.84473 -1.75086,-1.83492z" fill="#000000" stroke="none" stroke-width="0.5" stroke-linecap="butt"/><path d="M351.12736,170.0829c-7.51225,16.05796 -17.82404,27.10041 -23.03203,24.664c-5.20799,-2.4364 -3.34001,-17.42904 4.17224,-33.48701c7.51225,-16.05796 17.82404,-27.10041 23.03203,-24.664c5.20799,2.4364 3.34001,17.42905 -4.17224,33.48701z" fill="#c50000" stroke="#000000" stroke-width="2" stroke-linecap="butt"/><path d="M419.45596,177.40488c1.03677,17.69793 -2.77584,32.31753 -8.51571,32.65379c-5.73988,0.33626 -11.23343,-13.73818 -12.27021,-31.43612c-1.03677,-17.69793 2.77584,-32.31753 8.51571,-32.65377c5.73988,-0.33626 11.23343,13.73817 12.2702,31.43611z" fill="#c50000" stroke="#000000" stroke-width="2" stroke-linecap="butt"/><path d="M392.81851,242.3852c1.03677,17.69793 -2.77583,32.31753 -8.5157,32.65379c-5.73988,0.33626 -11.23343,-13.73817 -12.27021,-31.43611c-1.03677,-17.69793 2.77584,-32.31753 8.51571,-32.65378c5.73988,-0.33626 11.23343,13.73817 12.27021,31.43612z" fill="#c50000" stroke="#000000" stroke-width="2" stroke-linecap="butt"/><path d="M359.98199,241.30464c-2.79333,17.50684 -9.66061,30.96451 -15.33849,30.05856c-5.6779,-0.90595 -8.01629,-15.83244 -5.22298,-33.33927c2.79333,-17.50684 9.66061,-30.96452 15.33849,-30.05857c5.6779,0.90595 8.01629,15.83244 5.22298,33.33927z" fill="#c50000" stroke="#000000" stroke-width="2" stroke-linecap="butt"/><path d="M350.8934,283.30908c-0.05968,2.54619 -2.46569,4.04249 -8.54827,3.89992c-6.08258,-0.14258 -7.37932,-2.2382 -7.31964,-4.7844c0.05968,-2.54619 1.45319,-4.57876 7.53577,-4.43619c6.08258,0.14258 8.39182,2.77448 8.33214,5.32068z" fill="#c50000" stroke="#000000" stroke-width="2" stroke-linecap="butt"/><path d="M396.4481,285.91451c-0.05968,2.54619 -2.08416,2.34298 -8.16675,2.20042c-6.08258,-0.14258 -5.70782,-0.66142 -5.64813,-3.20761c0.05968,-2.54619 -0.59984,-4.45605 5.48275,-4.31348c6.08258,0.14258 8.39182,2.77448 8.33214,5.32068z" fill="#c50000" stroke="#000000" stroke-width="2" stroke-linecap="butt"/><path d="M340.85968,286.24548c-0.24866,-0.06169 -0.18697,-0.31036 -0.18697,-0.31036l0.10226,-0.34082c1.60522,-2.18141 -0.28582,-4.44111 -1.44617,-6.14884c0,0 -0.14399,-0.21192 0.06792,-0.3559c0.21192,-0.14399 0.35589,0.06793 0.35589,0.06793c1.33423,1.96364 3.10792,4.26462 1.44192,6.73095l-0.0245,0.17006c0,0 -0.06169,0.24866 -0.31035,0.18696z" fill="#000000" stroke="none" stroke-width="0.5" stroke-linecap="butt"/><path d="M345.18414,286.353c-0.25613,-0.006 -0.25013,-0.26213 -0.25013,-0.26213l0.03258,-0.28249c0.06028,-0.1161 0.12057,-0.23218 0.18085,-0.34828c1.12557,-3.12862 -1.28623,-3.89658 -1.2366,-6.73958c0,0 0.00601,-0.25612 0.26213,-0.25013c0.25613,0.006 0.25013,0.26213 0.25013,0.26213c-0.03922,1.28736 1.22655,1.99318 1.45925,3.05054c0.361,1.64029 0.30692,2.28983 -0.26525,3.8819c-0.06514,0.12629 -0.13029,0.25259 -0.19543,0.37889l0.02459,0.05902c0,0 -0.00601,0.25612 -0.26213,0.25013z" fill="#000000" stroke="none" stroke-width="0.5" stroke-linecap="butt"/><path d="M389.3522,286.35007c-0.24109,-0.08668 -0.15441,-0.32777 -0.15441,-0.32777l0.00939,-0.02608c0.44936,-1.24492 2.99536,-3.15428 2.49453,-4.16157c0,0 -0.10918,-0.23176 0.1226,-0.34095c0.23177,-0.10918 0.34095,0.12261 0.34095,0.12261c0.69334,1.53332 -1.91676,2.99193 -2.4759,4.5533l-0.00939,0.02608c0,0 -0.0867,0.24108 -0.32777,0.15441z" fill="#000000" stroke="none" stroke-width="0.5" stroke-linecap="butt"/><path d="M350.68122,222.67778c0.18535,-0.17686 0.36222,0.00849 0.36222,0.00849l0.21317,0.24244c0.44146,0.97632 1.13873,1.84327 1.49073,3.01288c-0.05158,2.95442 3.99617,4.35988 1.96926,7.94585c-0.94046,0.81286 -3.13949,1.26113 -3.98446,0.0567c-0.43978,-0.62687 -0.29781,-1.68612 -0.92477,-2.25821c-0.87597,-0.79928 -1.86931,-0.9927 -2.58859,-2.14707c-0.34914,-1.85655 0.72232,-7.24806 3.54324,-6.40857c0,0 0.00977,0.00352 0.02468,0.01109l-0.11397,-0.10141c0,0 -0.17687,-0.18535 0.0085,-0.36221z" fill="#000000" stroke="none" stroke-width="0.5" stroke-linecap="butt"/><path d="M357.37551,244.20688l0.12807,0.003c1.10593,0.05 1.12774,1.08648 1.10754,1.94797c-0.04776,2.03723 -0.85275,3.58126 -0.90047,5.6168c-0.04899,2.08994 0.09737,4.08923 -1.04126,5.68776c-0.05897,1.17051 -3.59399,5.60516 -4.66927,4.03119c0,0 -0.02891,-0.06136 -0.0254,-0.1358l-0.19021,-0.10777c-0.23618,-0.5014 -0.71914,-0.69037 -1.03518,-1.11857c-0.85505,-1.15848 -0.13637,-3.12327 -0.10678,-4.3856c0.05348,-1.12118 -0.77743,-1.73112 -1.11402,-2.66158c-0.59486,-1.64441 0.99165,-2.19344 1.62475,-3.25612c0.41767,-0.70108 -0.54612,-1.58805 -0.43689,-2.34418c0.41906,-1.43942 3.51597,-3.68586 5.07476,-3.66205c0.39228,0.00599 0.87532,0.29964 1.33313,0.55785c0.04977,-0.17761 0.25123,-0.17288 0.25123,-0.17288z" fill="#000000" stroke="none" stroke-width="0.5" stroke-linecap="butt"/><path d="M392.04009,159.25221c-0.16585,-0.11626 -0.10866,-0.27174 -0.07743,-0.33175c-0.61333,-0.28971 -1.21527,-0.65154 -1.42369,-0.47867c-0.20041,0.16623 0.29525,0.66621 -0.30684,0.95543c0.10365,2.51584 -0.95331,5.65882 -2.39995,7.83923c0.06868,0.10268 0.1332,0.22831 0.1951,0.38204l-0.12145,0.08972l0.04644,0.04867l-0.34951,0.33349c-0.04743,0.04527 -0.11214,0.07244 -0.18287,0.07078c-0.14145,-0.00332 -0.25344,-0.12067 -0.25013,-0.26212l0.01201,-0.51226l0.13542,0.00318c0.00159,-0.01043 0.00324,-0.02085 0.00495,-0.03122c-0.30811,-0.15921 -0.73568,-0.07133 -1.07752,-0.07934c-1.20499,-0.02825 -3.89927,0.61424 -4.91881,0.01728c-1.11768,-0.65443 -2.43532,-3.23922 -2.40683,-4.54555c0.05355,-2.28476 0.66943,-3.93073 2.62286,-5.27251c1.04775,-0.71969 3.02288,-0.35011 3.69653,-1.64291c0.01475,-1.77931 -2.19079,-8.57673 2.0186,-6.46075c0.10316,-0.03259 0.20481,0.02124 0.20481,0.02124c0.57933,0.32276 1.3428,-0.08229 1.89411,0.22647c0.6149,0.34438 0.57486,1.99482 1.10703,2.22817c1.14626,0.50264 1.79857,-2.11074 2.7015,-0.32707c0.38067,0.84185 0.27477,1.55927 0.92606,2.1761l0.06677,0.35363c0,0 -0.00484,0.20639 -0.19109,0.24428c0.32891,1.29502 0.44253,2.63834 -0.61763,3.73846c-0.21636,0.31152 -0.49398,0.52652 -0.70992,0.81052c0.13556,0.05061 0.2288,0.05486 0.25916,-0.01812l0.15663,-0.30278c0,0 0.11992,-0.22641 0.34632,-0.1065c0.22641,0.11992 0.10648,0.34632 0.10648,0.34632l-0.20088,0.37222c-0.20917,0.14996 -0.5213,0.10637 -0.86314,-0.01442l-0.04629,0.06604c0,0 -0.14708,0.20978 -0.35686,0.06271z" fill="#000000" stroke="none" stroke-width="0.5" stroke-linecap="butt"/><path d="M342.81013,145.82474c0.13518,0.07159 0.1469,0.18115 0.1344,0.25782c0.99701,-0.03097 2.22883,-0.09972 2.93372,0.4817c1.0367,0.85507 0.42098,1.98699 0.70613,3.05376c0.14219,0.53189 0.90162,1.06623 1.20401,1.5312c1.52293,1.73547 0.51362,2.93987 -1.55296,2.89143c-0.35529,-0.00833 -1.63487,0.12984 -1.75285,-0.40824c-0.02891,-0.13188 0.08598,-0.30588 0.27674,-0.4944c-1.24481,0.32893 -2.62839,0.42922 -3.09605,0.06372c-0.4277,-0.33429 -0.44804,-1.62422 -0.63064,-1.71474c-0.28597,-0.14176 -1.00846,0.35654 -1.22915,0.45867c-0.14552,0.01404 -0.29105,0.0281 -0.43659,0.04216c-0.0556,0.09761 -0.17352,0.12416 -0.17352,0.12416c-0.05713,0.01256 -0.1114,0.02314 -0.16291,0.03179c-0.02462,0.00871 -0.07205,0.02189 -0.12525,0.01788c-2.15515,0.24899 1.37835,-3.45403 1.99241,-4.32993c0.39677,-0.55611 0.67485,-1.08436 1.16383,-1.52293c0.02529,-0.22427 0.26003,-0.21876 0.26003,-0.21876c0.00443,0.00011 0.00885,0.0002 0.0133,0.0003c0.04153,-0.02949 0.08447,-0.05845 0.12895,-0.08685l0.00005,-0.07222c0,0 0.11991,-0.2264 0.34632,-0.1065z" fill="#000000" stroke="none" stroke-width="0.5" stroke-linecap="butt"/><path d="M355.7841,137.73038c0.13951,0.00327 0.20125,0.08074 0.22855,0.15062c0.03378,0.00248 0.0711,0.01284 0.11189,0.03443c0.17203,0.09111 0.14412,0.2437 0.12078,0.31174c1.16113,1.51517 0.75397,3.2379 1.28663,4.97018c-0.01599,1.29882 0.77325,3.33432 -0.12571,4.38334c-0.00821,0.13678 -0.12319,0.24362 -0.26125,0.24064c-0.02886,0.02103 -0.05882,0.0414 -0.08992,0.06111c0,0 -0.21643,0.13709 -0.35352,-0.07935c-0.00045,-0.00072 -0.00091,-0.00144 -0.00136,-0.00215c-0.03284,0.00792 -0.05655,0.00841 -0.05655,0.00841l-0.12732,-0.00712c-2.07558,0.62467 -4.82523,-0.61928 -3.97701,-3.01513c0.45032,-1.22525 -0.13117,-2.65625 0.24662,-3.87521c0.33198,-1.07115 2.0907,-1.63379 2.83197,-2.63464c-0.00896,-0.0095 -0.01799,-0.01902 -0.02712,-0.02851l-0.06877,-0.26824c0,0 0.00601,-0.25612 0.26213,-0.25013z" fill="#000000" stroke="none" stroke-width="0.5" stroke-linecap="butt"/><path d="M410.9848,170.89259l0.18631,0.17414c1.29093,0.95339 3.01163,1.38797 3.56222,3.25036c0.35437,1.65544 -1.22712,5.52495 -2.49663,6.6755c-0.68363,0.61957 -2.62607,0.13896 -3.44911,0.03712c-1.69243,-0.23728 -1.82141,-2.72861 -3.04505,-3.79405c-0.8942,-0.7786 -3.07372,-1.20138 -4.19948,-1.86314c-1.27682,-1.65083 -3.28438,-5.61903 -0.9398,-7.52029c0.42378,-0.34366 2.06785,0.08717 2.57869,0.14139c1.94805,0.20676 6.79678,0.76734 7.80282,2.89897z" fill="#000000" stroke="none" stroke-width="0.5" stroke-linecap="butt"/><path d="M413.77977,207.05679c0.24108,0.0867 0.15441,0.32777 0.15441,0.32777l-0.02072,0.05575c0.07474,0.02378 0.17529,0.08581 0.1715,0.2474c-0.006,0.25613 -0.26213,0.25013 -0.26213,0.25013l-0.15445,-0.05881c-0.04172,0.05376 -0.08345,0.10753 -0.12518,0.16129c-1.68143,2.38053 -3.66461,2.30138 -5.89098,0.71292c-2.31768,-0.87433 -3.38466,-4.12192 -4.2567,-6.23194c-0.25766,-1.7078 -1.56885,-3.37994 -0.89961,-5.30514c0,0 0.0867,-0.24108 0.32777,-0.15441c0.02996,0.01078 0.05485,0.02394 0.07549,0.03872c0.04131,-0.01016 0.07295,-0.00943 0.07295,-0.00943c0.41412,0.0097 1.9384,-0.16494 2.22837,0.12729c0.46135,0.46497 0.14038,2.13926 0.91888,2.54745c0.4678,0.24528 1.35363,-0.25521 1.7715,-0.16656c0.80502,0.17077 0.99593,1.06195 1.19061,1.69582c0.66257,2.87917 3.15275,3.51684 4.52606,5.75507c0.04556,-0.01605 0.10243,-0.01844 0.17223,0.00666zM413.88987,207.56855l-0.01224,-0.03179l-0.00135,0.00364c0.00455,0.00937 0.00907,0.01874 0.01359,0.02816z" fill="#000000" stroke="none" stroke-width="0.5" stroke-linecap="butt"/><path d="M337.68068,169.14456c0.00554,-0.00448 0.01136,-0.00893 0.01751,-0.01331c0.2085,-0.14887 0.35738,0.05964 0.35738,0.05964c1.7084,2.39269 1.71799,4.89642 3.79274,7.14706c0.00998,1.19123 -1.31869,5.0095 -3.22267,2.76094c-0.58943,-0.69611 -0.77863,-3.51526 -0.8158,-4.23406c-0.50809,-1.15567 -1.11772,-2.72176 -1.76184,-3.90419c-0.14112,-0.25907 -0.80285,-0.91182 -0.67379,-1.24735c0.23027,-0.59863 1.39293,-0.22057 1.84743,-0.44656l0.10706,-0.12034c0,0 0.17828,-0.1701 0.35199,-0.00183z" fill="#000000" stroke="none" stroke-width="0.5" stroke-linecap="butt"/><path d="M355.33959,49.78543c-0.21644,0.13708 -0.35352,-0.07936 -0.35352,-0.07936l-0.16474,-0.26013c-0.39026,-0.62226 -0.97566,-1.13053 -1.40748,-1.73558c-0.93543,-1.49002 -3.57261,-3.29537 -3.60067,-5.10151c0,0 0.00458,-0.19566 0.17675,-0.24095c0.00024,-0.00047 0.00048,-0.00091 0.00073,-0.00137c0.11992,-0.22639 0.34632,-0.10649 0.34632,-0.10649c2.03443,1.13343 6.1305,0.9644 6.01625,4.18772c-0.54274,1.04321 -0.69841,1.28568 -0.74305,2.54526l-0.20025,0.39273c0,0 -0.00333,0.00629 -0.00994,0.01622l0.01897,0.02996c0,0 0.13709,0.21645 -0.07936,0.35352z" fill="#000000" stroke="none" stroke-width="0.5" stroke-linecap="butt"/><path d="M414.29682,78.83059c0.17687,0.18535 -0.00849,0.36223 -0.00849,0.36223l-0.09549,-0.0126c-0.00506,0.02173 0.15677,0.07765 0.43333,0.15684c-0.47599,-0.6457 -0.61213,-1.31327 0.43265,-1.90337c0,0 0.23177,-0.10917 0.34095,0.12261c0.10918,0.23177 -0.1226,0.34094 -0.1226,0.34094c-0.29601,0.08726 -0.33593,1.0305 -0.21741,1.55862c1.61546,0.42868 4.98914,1.21153 5.72463,1.43064c0.55396,0.36901 2.08405,1.10312 2.0349,1.93808c-0.03175,0.5394 -1.76099,3.12005 -2.33904,3.24791c-0.74298,0.16433 -2.91061,-1.13739 -3.62665,-1.47602c-0.37073,-0.17708 -1.20867,-0.58936 -1.37214,-1.00389c-0.35957,-0.9118 0.86287,-1.22658 0.87998,-2.11256c0.00669,-0.34664 -0.45239,-0.78818 -0.94242,-1.2733c-0.98075,-0.29516 -1.70721,-0.63913 -1.73844,-1.03849l0.25402,-0.34611c0,0 0.18535,-0.17687 0.36222,0.00849z" fill="#000000" stroke="none" stroke-width="0.5" stroke-linecap="butt"/><path d="M360.80052,98.20508c-0.66384,-0.69572 -1.4593,-1.35771 -1.96299,-2.16478c-0.72403,-2.29364 -2.11378,-4.06895 -3.11685,-6.17967c-0.21982,-0.71515 -1.71358,-3.46645 -1.29907,-4.62339c-0.00627,-0.10531 0.06141,-0.17381 0.10894,-0.20857c0.1135,-0.1545 0.28564,-0.2582 0.53108,-0.29442c0,0 0.05846,0.00136 0.11888,0.03073c0.44281,-0.10517 0.81002,-0.09999 1.29657,-0.07589c1.80209,1.22403 8.881,2.93516 5.62633,6.34444c-0.57152,1.62421 0.70149,1.57476 0.60827,2.54659c-0.14743,1.53689 -0.27725,3.77838 -1.49754,4.97261c0,0 -0.18535,0.17687 -0.36221,-0.0085c-0.12641,-0.13248 -0.06779,-0.26061 -0.02405,-0.32295z" fill="#000000" stroke="none" stroke-width="0.5" stroke-linecap="butt"/><path d="M361.67891,196.45334c-0.18535,0.17686 -0.36221,-0.0085 -0.36221,-0.0085l-0.04509,-0.05447c-0.00273,-0.0019 -0.00543,-0.00381 -0.00813,-0.00571c-0.11312,-0.01545 -0.16573,-0.08538 -0.19017,-0.1487c-1.17279,-1.01766 -0.42264,-2.49191 -1.18148,-3.69007c-0.0218,-2.22007 -0.33416,-4.43415 -0.28003,-6.7438c0.02028,-0.86547 -0.20893,-3.51101 0.31107,-4.69312c-0.00909,0.00438 -0.01825,0.00884 -0.02746,0.01342c0,0 -0.23177,0.10918 -0.34095,-0.1226c-0.10918,-0.23176 0.12261,-0.34095 0.12261,-0.34095c2.92228,-1.3214 1.69497,3.17867 1.96728,4.4876c0.22036,1.05918 0.82738,1.43801 0.79919,2.64028c-0.07986,1.44088 -2.016,2.24674 -1.47331,3.98471c0.38274,1.22574 2.70762,3.33107 0.56079,4.15836l0.00293,0.01826c0.01044,0.00763 0.02104,0.0152 0.03179,0.02275l0.12167,0.12029c0,0 0.17687,0.18535 -0.00849,0.36222z" fill="#000000" stroke="none" stroke-width="0.5" stroke-linecap="butt"/><path d="M369.20376,147.26148l0.31445,-0.14812c0.25549,-0.12033 0.50894,-0.24504 0.76124,-0.37196c2.28147,-1.44375 8.4868,-0.19289 6.46558,3.51445c-3.2488,1.5303 1.0462,5.24865 -2.55463,6.94478c-1.93748,3.65805 -6.23469,1.87864 -6.20252,-1.8642c0.01556,-0.66397 -0.24077,-2.30263 0.10211,-2.86051c0.36387,-0.59204 1.17295,-0.98223 1.3802,-1.77645c0.28359,-1.08674 -0.64071,-2.03158 -0.6152,-3.2016c0,0 0.00601,-0.25612 0.26213,-0.25013c0.03305,0.00078 0.06174,0.00573 0.08663,0.01373z" fill="#000000" stroke="none" stroke-width="0.5" stroke-linecap="butt"/><path d="M349.24179,230.4212l2.20512,-6.61129" fill="none" stroke="#663f3f" stroke-width="2" stroke-linecap="round"/><path d="M350.85859,232.50924l2.41021,-4.4282" fill="none" stroke="#663f3f" stroke-width="2" stroke-linecap="round"/><path d="M350.62749,225.96898c0.01658,-0.70728 0.60338,-1.2672 1.31065,-1.25062c0.70728,0.01658 1.2672,0.60338 1.25062,1.31066c-0.00587,0.25049 -0.08327,0.48249 -0.21221,0.67696c0.12965,0.4244 -0.00551,0.83934 -0.00551,0.83934c-0.41421,1.27163 -0.82842,2.54327 -1.24263,3.8149l-0.14965,0.4179c0,0 -0.43345,1.20542 -1.63887,0.77197c-1.20543,-0.43345 -0.77198,-1.63888 -0.77198,-1.63888l0.12449,-0.34448c0.41421,-1.27163 0.82842,-2.54327 1.24263,-3.8149c0,0 0.04876,-0.14968 0.16457,-0.32703c-0.05017,-0.14233 -0.07586,-0.29601 -0.07211,-0.45583z" fill="#663f3f" stroke="none" stroke-width="0.5" stroke-linecap="butt"/><path d="M368.97659,148.63801c0.59957,-1.13201 1.73158,-0.53245 1.73158,-0.53245l0.73577,0.58069c0.04807,0.09799 0.109,0.19312 0.18006,0.28252c0.34305,-0.86475 0.76664,-1.72676 1.27566,-2.59446c0,0 0.64817,-1.10491 1.75308,-0.45673c1.10491,0.64817 0.45673,1.75308 0.45673,1.75308c-0.626,1.0671 -1.1039,2.11726 -1.44358,3.17671c-0.00513,0.08209 -0.01752,0.16919 -0.03826,0.2616c-0.03842,0.17111 -0.09499,0.31353 -0.16404,0.43191c-0.55758,2.12041 -0.5756,4.30026 -0.13236,6.74661l0.01598,0.3798c0,0 -0.03002,1.28064 -1.31065,1.25062c-1.28064,-0.03002 -1.25062,-1.31066 -1.25062,-1.31066l0.02198,0.12368c-0.11486,-0.67069 -0.20093,-1.32633 -0.2567,-1.96951c-0.74128,-0.03228 -1.48309,-0.21863 -2.1253,-0.54901l-0.48963,-0.19814c0,0 -1.17789,-0.50349 -0.6744,-1.68137c0.50349,-1.17789 1.68138,-0.67441 1.68138,-0.67441l0.77901,0.34413c0.21055,0.16095 0.48806,0.25527 0.76962,0.27763c0.0406,-0.93805 0.15632,-1.85515 0.35254,-2.76051c-0.5652,-0.35001 -1.0707,-0.8081 -1.4649,-1.32652l0.12954,0.1764c0,0 -1.13201,-0.59957 -0.53245,-1.73158z" fill="#663f3f" stroke="none" stroke-width="0.5" stroke-linecap="butt"/><path d="M385.92991,167.46354c-0.82345,0.98126 -1.8047,0.15781 -1.8047,0.15781l-0.84738,-0.76416c-0.45543,-0.63907 -0.94131,-1.25671 -1.44429,-1.85936c-0.03648,0.02356 -0.07296,0.04694 -0.10943,0.07013l-1.59546,0.40356c0,0 -1.25665,0.24851 -1.50516,-1.00815c-0.24851,-1.25665 1.00815,-1.50516 1.00815,-1.50516l0.7217,-0.05466c2.61766,-1.65013 5.49379,-4.54871 6.16476,-7.7248c0.34371,-1.62698 -0.31182,-3.28293 -0.28875,-4.90982c0,0 0.03002,-1.28064 1.31065,-1.25062c1.28064,0.03002 1.25062,1.31065 1.25062,1.31065c-0.03689,1.02896 0.1785,2.03464 0.29371,3.05153c0.09304,0.0914 0.14351,0.16207 0.14351,0.16207c0.70575,1.01008 1.1408,1.48922 2.32071,1.86186l1.09499,0.01209c0,0 1.28064,0.03002 1.25062,1.31065c-0.03002,1.28064 -1.31065,1.25062 -1.31065,1.25062l-1.46629,-0.04795c-1.01027,-0.33431 -1.74255,-0.67995 -2.38361,-1.1748c-0.3952,1.1793 -1.0014,2.30986 -1.74499,3.36114c0.00644,0.02683 0.00912,0.04207 0.00912,0.04207c0.2083,1.3695 0.42011,1.65251 1.57573,2.42544l0.62288,0.09392c0,0 1.23513,0.33973 0.8954,1.57484c-0.33973,1.23513 -1.57484,0.8954 -1.57484,0.8954l-1.41413,-0.46637c-1.04556,-0.75696 -1.66636,-1.38686 -2.0788,-2.25572c-0.36628,0.36417 -0.74537,0.71175 -1.13253,1.04078c0.51103,0.61776 1.00516,1.25001 1.47144,1.9019l0.40924,0.29037c0,0 0.98127,0.82345 0.15781,1.8047z" fill="#663f3f" stroke="none" stroke-width="0.5" stroke-linecap="butt"/><path d="M357.73235,146.98701c-0.01658,0.70728 -0.60337,1.26719 -1.31065,1.25062c-0.25061,-0.00587 -0.48273,-0.08335 -0.67726,-0.2124c-0.75909,0.35349 -1.62973,0.41402 -2.52932,-0.03975c-0.46668,-0.2354 -0.64272,-0.79406 -0.874,-1.29127c-0.16287,-0.06411 -0.33069,-0.17434 -0.49701,-0.34865c-0.88431,-0.92677 0.04245,-1.8111 0.04245,-1.8111l0.72671,-0.6895c0.93309,-1.00928 1.98974,-1.72377 2.82396,-2.80593c0,0 0.7924,-1.0065 1.7989,-0.2141c1.0065,0.7924 0.21411,1.7989 0.21411,1.7989c-0.07398,0.09248 -0.14906,0.18241 -0.22506,0.27016c1.43643,0.16141 1.30894,1.97045 0.35359,3.45367c0.10282,0.18976 0.15903,0.40812 0.15361,0.63935z" fill="#663f3f" stroke="none" stroke-width="0.5" stroke-linecap="butt"/><path d="M346.79487,154.41869c-0.11759,-0.00275 -0.23111,-0.02127 -0.3386,-0.05349l-0.10808,0.11798c0,0 -0.8659,0.94401 -1.80991,0.07812c-0.12677,-0.11627 -0.2209,-0.23395 -0.28886,-0.35057c-0.0518,-0.01322 -0.10516,-0.02958 -0.16013,-0.04935c-0.28741,-0.10335 -0.48164,-0.25057 -0.61081,-0.41489c-0.27623,0.12513 -0.63861,0.15667 -1.08307,-0.07874c-1.13201,-0.59957 -0.53245,-1.73158 -0.53245,-1.73158l0.21718,-0.38891c0.80131,-1.13847 1.71544,-2.13238 2.51125,-3.27263c0,0 0.73535,-1.0489 1.78425,-0.31356c0.65781,0.46117 0.61387,1.04566 0.48964,1.41741c0.05079,0.02331 0.10264,0.05033 0.15554,0.08136c0.48238,0.28299 0.63061,0.65301 0.64453,0.98014c0.07969,0.04243 0.16115,0.0955 0.24406,0.16077c0.48293,0.3802 0.55172,0.8097 0.49261,1.15365c0.22748,0.23737 0.36412,0.56173 0.35581,0.91638c-0.01298,0.55355 -0.37524,1.01685 -0.87119,1.18414c-0.2361,0.34897 -0.63929,0.57433 -1.09179,0.56372z" fill="#663f3f" stroke="none" stroke-width="0.5" stroke-linecap="butt"/><path d="M337.39415,175.70494c-1.13201,-0.59957 -0.53245,-1.73158 -0.53245,-1.73158l0.25958,-0.44596c0.26414,-0.33549 0.52827,-0.671 0.7924,-1.00649c0,0 0.7924,-1.0065 1.7989,-0.21411c1.0065,0.7924 0.2141,1.7989 0.2141,1.7989c-0.26414,0.33549 -0.52826,0.671 -0.7924,1.0065l-0.00856,0.0603c0,0 -0.59957,1.13201 -1.73158,0.53245z" fill="#663f3f" stroke="none" stroke-width="0.5" stroke-linecap="butt"/><path d="M409.44387,168.60525c1.15886,-0.54587 1.70473,0.613 1.70473,0.613l0.09074,0.31076c0.96034,0.03917 1.14061,1.06493 1.14061,1.06493c0.51901,3.03069 0.04684,6.71771 -0.6121,9.71389l-0.63108,1.40753c0,0 -0.54755,1.15806 -1.70562,0.61052c-0.44323,-0.20956 -0.63661,-0.50855 -0.70648,-0.79783c-0.16798,0.07488 -0.3548,0.11458 -0.55088,0.10999c-0.49065,-0.0115 -0.91039,-0.29741 -1.11594,-0.7076l-0.6014,-1.14493l0.00746,-0.00392l-0.02014,-0.02086c-0.27173,-0.60707 -0.4543,-1.24143 -0.56013,-1.8913c-0.11877,0.00775 -0.24978,-0.00008 -0.39421,-0.02765c-1.25828,-0.24015 -1.01813,-1.49842 -1.01813,-1.49842l0.12372,-0.55525c0.06038,-2.57576 -0.17752,-4.08407 -0.93424,-6.53595c0,0 -0.37649,-1.22441 0.84792,-1.60091c1.22441,-0.37649 1.60091,0.84792 1.60091,0.84792c0.00704,0.023 0.01405,0.04595 0.02102,0.06885c0.71033,-0.4677 1.44992,0.11457 1.44992,0.11457c0.04884,0.03865 0.09768,0.07731 0.14652,0.11595c0.21386,-0.14644 0.47403,-0.22954 0.75292,-0.223c0.24712,0.0058 0.47626,0.0812 0.6691,0.20703c0.08318,-0.06391 0.18072,-0.12358 0.29477,-0.17731zM406.88284,171.39085c-0.01622,-0.01271 -0.03242,-0.02541 -0.04863,-0.03812c0.0067,0.03562 0.01328,0.07119 0.01977,0.10675c0.00958,-0.02291 0.01919,-0.04579 0.02886,-0.06863z" fill="#663f3f" stroke="none" stroke-width="0.5" stroke-linecap="butt"/><path d="M410.6197,226.29523c-0.18759,0.17449 -0.36208,-0.01309 -0.36208,-0.01309l-0.15094,-0.16228c-2.78705,-3.18884 3.05596,-6.4081 3.10646,-8.85163c0.03885,-2.91584 -2.37195,-4.5776 -2.81126,-7.3366c-0.17378,-0.05436 -0.35605,-0.12999 -0.54714,-0.22915c-0.17055,0.16447 -0.41843,0.29209 -0.77808,0.32851c-1.27447,0.12906 -1.40353,-1.14541 -1.40353,-1.14541l-0.10828,-1.08014c-0.12337,-2.11428 0.33765,-5.66281 -0.69374,-7.44471c0,0 -0.59569,-1.13406 0.53836,-1.72975c1.13406,-0.59569 1.72975,0.53836 1.72975,0.53836c0.56513,1.14439 0.77675,2.51908 0.86187,3.93709c0.28696,-0.26723 0.82554,-0.57762 1.5351,-0.12894h-0.00001c0.88423,0.55913 0.58967,1.38377 0.45198,1.6673c0.11458,-0.02637 0.24337,-0.03973 0.38815,-0.03633c1.28064,0.03002 1.25062,1.31065 1.25062,1.31065c-0.07199,1.4682 -0.75523,4.25643 -2.6952,4.1166c0.48229,2.67059 2.83253,4.30989 2.79371,7.24123c-0.04185,2.02542 -5.76661,6.01714 -3.24361,8.49393l0.15094,0.16227c0,0 0.17449,0.18759 -0.0131,0.36208z" fill="#663f3f" stroke="none" stroke-width="0.5" stroke-linecap="butt"/><path d="M354.75392,88.19332c0.03002,-1.28064 1.31065,-1.25062 1.31065,-1.25062l1.27509,0.05477c1.71356,0.38468 3.3648,1.07436 5.08884,1.25288c0,0 1.27266,0.14583 1.12682,1.4185c-0.14584,1.27267 -1.4185,1.12682 -1.4185,1.12682c-1.84234,-0.22681 -3.53639,-0.88941 -5.35836,-1.29842l-0.77393,0.00674c0,0 -1.28064,-0.03002 -1.25062,-1.31065z" fill="#663f3f" stroke="none" stroke-width="0.5" stroke-linecap="butt"/><path d="M357.16473,92.92071c0.73535,-1.0489 1.78425,-0.31356 1.78425,-0.31356l0.6692,0.47427c0.57606,0.35758 1.24952,0.59312 1.92433,0.65903c0,0 1.2713,0.1573 1.114,1.4286c-0.1573,1.2713 -1.4286,1.114 -1.4286,1.114c-1.01351,-0.14307 -2.01465,-0.48879 -2.90608,-0.99181l-0.84355,-0.58626c0,0 -1.0489,-0.73535 -0.31356,-1.78425z" fill="#663f3f" stroke="none" stroke-width="0.5" stroke-linecap="butt"/><path d="M423.53257,83.67712c-0.59957,1.13201 -1.73158,0.53245 -1.73158,0.53245l0.18914,0.00521c-2.03321,-0.25425 -3.62574,-0.14241 -5.46435,-1.17991c0,0 -1.10491,-0.64817 -0.45673,-1.75308c0.64817,-1.10491 1.75308,-0.45673 1.75308,-0.45673c1.39808,0.86784 2.87101,0.64965 4.4826,0.84713l0.69539,0.27335c0,0 1.13201,0.59957 0.53245,1.73158z" fill="#663f3f" stroke="none" stroke-width="0.5" stroke-linecap="butt"/><path d="M352.32043,44.4169c0.01658,-0.70728 0.60337,-1.26719 1.31065,-1.25062c0.37228,0.00873 0.70376,0.17544 0.9318,0.43455c0.31973,0.10345 0.53539,0.30127 0.53539,0.30127c0.3345,0.30683 0.669,0.61364 1.0035,0.92046l0.43606,0.45289c0,0 0.88431,0.92677 -0.04246,1.8111c-0.92677,0.88431 -1.8111,-0.04246 -1.8111,-0.04246l-0.31431,-0.3335c-0.3345,-0.30683 -0.669,-0.61364 -1.0035,-0.92046c0,0 -0.04109,-0.03769 -0.09826,-0.10591c-0.5575,-0.1495 -0.96192,-0.66468 -0.9478,-1.26732z" fill="#663f3f" stroke="none" stroke-width="0.5" stroke-linecap="butt"/><path d="M371.10471,73.94365c0.01658,-0.70728 0.60337,-1.26719 1.31065,-1.25062c0.70728,0.01658 1.26719,0.60337 1.25062,1.31065c-0.01658,0.70728 -0.60337,1.26719 -1.31065,1.25062c-0.70728,-0.01658 -1.26719,-0.60337 -1.25062,-1.31065z" fill="#590000" stroke="none" stroke-width="0.5" stroke-linecap="butt"/><path d="M372.94325,71.98099c0.00482,-0.00156 0.0097,-0.00309 0.01461,-0.00459c0.73464,-0.2259 0.96054,0.50875 0.96054,0.50875c0.05425,0.17645 0.5105,1.63927 0.50902,1.73252c-0.04416,2.80414 -4.25567,2.41289 -4.22216,-0.16696c0.01097,-0.84448 0.77571,-1.41727 1.29533,-1.92274l0.69189,-0.29764c0,0 0.44692,-0.13742 0.75077,0.15067zM372.56706,73.24392l-0.00529,-0.00383c-0.92043,0.85624 -0.3233,2.02972 0.34476,1.31411c0.10654,-0.11412 -0.17056,-0.87146 -0.33947,-1.31031z" fill="#7a0000" stroke="none" stroke-width="0.5" stroke-linecap="butt"/><path d="M369.03368,68.12c0.72012,-0.26865 0.98876,0.45146 0.98876,0.45146l0.13226,0.44903c0.89793,1.20901 1.49439,2.18012 1.35756,3.68267c0,0 -0.11318,0.76022 -0.87339,0.64704c-0.76022,-0.11318 -0.64704,-0.87339 -0.64704,-0.87339c0.21924,-0.82492 -0.48804,-1.80107 -1.05964,-2.52443l-0.34998,-0.84362c0,0 -0.26865,-0.72012 0.45146,-0.98876z" fill="#663f3f" stroke="none" stroke-width="0.5" stroke-linecap="butt"/><path d="M376.74081,69.88032c0.5306,0.55606 -0.02547,1.08666 -0.02547,1.08666l-0.32679,0.30531c-0.68922,0.52537 -1.1797,0.86215 -1.67151,1.58081c0,0 -0.44121,0.62934 -1.07055,0.18814c-0.62934,-0.44121 -0.18814,-1.07055 -0.18814,-1.07055c0.59955,-0.83951 1.18679,-1.30231 1.99833,-1.92092l0.19748,-0.19493c0,0 0.55606,-0.5306 1.08665,0.02547z" fill="#663f3f" stroke="none" stroke-width="0.5" stroke-linecap="butt"/><path d="M376.41391,76.35009c0.22387,0.07212 0.52248,0.25877 0.51118,0.74114c-0.01801,0.76838 -0.7864,0.75038 -0.7864,0.75038l-0.72131,-0.30545c-0.48122,-0.70473 -1.18398,-0.86561 -1.82974,-1.51714c0,0 -0.53059,-0.55606 0.02547,-1.08666c0.55606,-0.5306 1.08665,0.02547 1.08665,0.02547c0.58989,0.65418 1.1379,0.80224 1.71414,1.39226z" fill="#663f3f" stroke="none" stroke-width="0.5" stroke-linecap="butt"/><path d="M368.78625,78.59727c-0.5306,-0.55606 0.02547,-1.08665 0.02547,-1.08665l0.4661,-0.43825c0.35945,-0.42754 0.69667,-0.8742 1.01694,-1.33183c0,0 0.44121,-0.62934 1.07055,-0.18814c0.62934,0.44121 0.18814,1.07055 0.18814,1.07055c-0.34652,0.49349 -0.71089,0.97532 -1.09813,1.43755l-0.58242,0.56225c0,0 -0.55606,0.53059 -1.08666,-0.02547z" fill="#663f3f" stroke="none" stroke-width="0.5" stroke-linecap="butt"/><path d="M370.29647,86.55875c-0.25613,-0.006 -0.25013,-0.26213 -0.25013,-0.26213l0.003,-0.12806c0.01551,-0.6617 0.27669,-1.18885 0.30638,-1.84558c0.87538,-1.65275 1.33307,-3.90517 1.41572,-5.73285c0.77177,-1.52978 0.7026,-2.93437 0.74315,-4.66466c0,0 0.00601,-0.25613 0.26213,-0.25013c0.25613,0.006 0.25013,0.26213 0.25013,0.26213c-0.04014,1.71246 0.08832,3.29138 -0.75962,4.78204c0.01972,1.74796 -0.58517,4.16473 -1.41572,5.73286c0.00701,0.62171 -0.27547,1.11159 -0.28992,1.7282l-0.003,0.12807c0,0 -0.00601,0.25612 -0.26213,0.25013z" fill="#663f3f" stroke="none" stroke-width="0.5" stroke-linecap="butt"/><path d="M334.93045,197.38582c-0.98236,1.53529 -4.79317,0.46342 -8.51169,-2.39407c-3.71852,-2.8575 -5.93661,-6.41855 -4.95424,-7.95383c0.98236,-1.53529 4.79317,-0.46342 8.51169,2.39407c3.71852,2.8575 5.93661,6.41855 4.95424,7.95383z" fill="#000000" stroke="none" stroke-width="0" stroke-linecap="butt"/><path d="M316.91689,211.41528c0.00257,0.25618 -0.25362,0.25875 -0.25362,0.25875l-0.28906,0.00289c-0.32953,0.00323 -0.65915,0.0154 -0.98794,0.03768c-3.5325,0.79291 -7.1565,-1.55697 -7.06021,-5.4665c0.06059,-2.46007 0.66824,-6.08876 2.29646,-7.47879c0.26515,-0.22635 -0.06153,-0.814 0.21749,-1.02301c0.2328,-0.17438 1.23845,-0.06502 1.57099,-0.11752c3.07793,-2.66181 6.94166,-1.05679 9.88683,0.32808c2.64782,-0.21828 2.44828,-1.4564 4.34136,-2.91689c0.67433,-0.52025 2.00296,-0.79931 1.9795,-1.79316c0,0 0.00601,-0.25613 0.26213,-0.25013c0.25613,0.006 0.25013,0.26213 0.25013,0.26213c-0.07073,1.27596 -1.27403,1.53884 -2.18508,2.19165c-2.03904,1.46106 -1.80693,2.8575 -4.73908,3.01065c-3.05586,-1.32626 -6.41404,-2.92241 -9.58022,-0.36749c-0.22833,0.04329 -1.33903,-0.02771 -1.48778,0.06893c-0.27473,0.1785 0.06518,0.72829 -0.15542,0.97052c-1.4011,1.53847 -2.08212,4.57169 -2.14508,7.12762c-0.08819,3.58049 3.21431,5.73344 6.47163,4.94719c0.35247,-0.02488 0.70582,-0.03976 1.05915,-0.04337l0.28906,-0.00289c0,0 0.25618,-0.00256 0.25875,0.25362z" fill="#929292" stroke="#929292" stroke-width="1" stroke-linecap="butt"/><path d="M413.50073,226.94808c-0.25613,-0.00599 -0.25014,-0.26212 -0.25014,-0.26212l0.00712,-0.30445c0.07399,-3.17874 -2.35722,-5.00824 -1.7171,-8.2576c1.46433,-2.66564 3.02125,-5.43778 0.63421,-7.93942c0,0 -0.17687,-0.18535 0.0085,-0.36221c0.18535,-0.17687 0.36222,0.00849 0.36222,0.00849c2.53539,2.6571 1.0714,5.64825 -0.52338,8.46822c-0.5772,3.11375 1.82062,4.96547 1.7478,8.09444l-0.00713,0.30452c0,0 -0.00599,0.25613 -0.26213,0.25013z" fill="#1c00ff" stroke="none" stroke-width="0.5" stroke-linecap="butt"/><path d="M408.42151,225.00951c-0.25614,-0.00528 -0.25086,-0.26143 -0.25086,-0.26143l0.03785,-0.12702c-1.04693,-1.93559 -0.32557,-4.16475 0.36921,-6.0646c0.08976,-1.72858 2.06524,-2.80606 2.40696,-4.41027c0.23159,-1.08717 -0.34174,-2.81572 -0.66765,-3.87478c0,0 -0.07531,-0.24489 0.16958,-0.32018c0.24488,-0.0753 0.32018,0.16958 0.32018,0.16958c0.35084,1.14187 0.92978,2.95344 0.67906,4.13206c-0.33814,1.5896 -2.39178,2.71946 -2.40478,4.39945c-0.61687,1.74477 -1.46252,3.94108 -0.42536,5.71861l0.02724,0.38771c0,0 -0.00528,0.25615 -0.26143,0.25086z" fill="#000000" stroke="none" stroke-width="0.5" stroke-linecap="butt"/><path d="M408.4852,223.83654c-0.12729,-0.22234 0.09506,-0.34963 0.09506,-0.34963l0.22591,-0.12933c2.22757,-1.26558 4.95455,-3.88832 2.29373,-6.06863c-1.24722,-1.02547 -4.35515,-3.01777 -2.99301,-5.08588c0.51843,-0.78711 1.48902,-1.23122 1.97308,-2.15848c0,0 0.11991,-0.2264 0.34632,-0.10649c0.2264,0.11991 0.10649,0.34632 0.10649,0.34632c-0.72264,1.34761 -2.40228,1.7918 -2.11102,3.54493c0.20013,1.20459 2.11563,2.33814 3.00299,3.06335c2.9968,2.45806 0.14705,5.46225 -2.36401,6.90956l-0.22591,0.12933c0,0 -0.22235,0.12728 -0.34963,-0.09506z" fill="#420000" stroke="none" stroke-width="0.5" stroke-linecap="butt"/><path d="M410.21726,223.68272c-0.12274,0.22487 -0.34762,0.10213 -0.34762,0.10213l-0.07319,-0.03995c-3.67057,-2.02914 -1.28642,-4.04176 0.39365,-6.11914c0.68372,-0.80875 1.65833,-0.93353 2.17908,-1.97213c0.81153,-1.61849 -1.20612,-3.87907 -2.25596,-4.97932c0,0 -0.17687,-0.18535 0.00849,-0.36222c0.18535,-0.17687 0.36221,0.0085 0.36221,0.0085c1.23399,1.29323 3.24824,3.68217 2.34538,5.55855c-0.52888,1.09915 -1.57268,1.23821 -2.24432,2.07317c-1.51286,1.79654 -3.88792,3.54403 -0.54303,5.34284l0.07319,0.03995c0,0 0.22487,0.12274 0.10213,0.34762z" fill="#04ff00" stroke="none" stroke-width="0.5" stroke-linecap="butt"/><path d="M402.24633,73.01605c0.39008,-3.1133 5.5699,-0.09501 4.7584,1.4158c-0.58284,1.08509 -4.89216,-0.09122 -5.23514,-0.6755c0,0 -0.21835,-0.46354 0.2452,-0.68189c0.08546,-0.04027 0.16259,-0.05733 0.23155,-0.05842z" fill="#8b0000" stroke="none" stroke-width="0.5" stroke-linecap="butt"/><path d="M393.29568,82.0709c-0.47715,2.38647 -2.40628,2.54961 -4.90375,2.05027c-2.49747,-0.49934 -4.61752,-1.47208 -4.14039,-3.85854c0.47715,-2.38647 2.88855,-3.91629 5.38602,-3.41694c2.49747,0.49934 4.13526,2.83876 3.65811,5.22521z" fill="#8b0000" stroke="none" stroke-width="0" stroke-linecap="butt"/><path d="M391.15132,82.07418c-0.25817,1.29126 -1.30199,1.37953 -2.6533,1.10935c-1.35132,-0.27018 -2.49843,-0.79651 -2.24025,-2.08776c0.25817,-1.29126 1.56293,-2.11901 2.91424,-1.84883c1.35132,0.27018 2.23748,1.53599 1.97931,2.82724z" fill="#000000" stroke="none" stroke-width="0" stroke-linecap="butt"/></g><path d="M-120.98814,461.32332v-562.85562h722.24443v562.85562z" data-paper-data="{&quot;index&quot;:null}" fill-opacity="0.62745" fill="#000000" stroke="none" stroke-width="0" stroke-linecap="butt"/></g></g></svg>