<svg version="1.1" xmlns="http://www.w3.org/2000/svg" xmlns:xlink="http://www.w3.org/1999/xlink" width="610.1051" height="566.02318" viewBox="0,0,610.1051,566.02318"><g transform="translate(83.28164,64.76541)"><g data-paper-data="{&quot;isPaintingLayer&quot;:true}" fill-rule="nonzero" stroke-linecap="butt" stroke-linejoin="miter" stroke-miterlimit="10" stroke-dasharray="" stroke-dashoffset="0" style="mix-blend-mode: normal"><path d="M-43.03303,439.00901v-466.96697h566.06607v466.96697z" fill="#736196" stroke="none" stroke-width="NaN"/><path d="M363.1598,469.76912v-534.53453h163.66366v534.53453z" fill="#7f7396" stroke="none" stroke-width="0"/><g data-paper-data="{&quot;index&quot;:null}" fill="#663f3f" stroke="#000000" stroke-width="0.5"><path d="M250.20613,385.84325l-3.15545,-3.70747l7.94456,-6.76172l3.15545,3.70747z"/><path d="M256.2069,384.84578l-3.15543,-3.70747l7.94456,-6.7617l3.15545,3.70747z"/><path d="M242.60229,386.83511l-3.15545,-3.70746l7.94456,-6.76172l3.15545,3.70747z"/><path d="M247.2228,392.26393l-3.15545,-3.70749l7.94456,-6.7617l3.15547,3.70747z"/><path d="M251.47376,379.28456l-3.15545,-3.70747l7.94459,-6.7617l3.15545,3.70747z"/><path d="M257.58191,390.75358l-13.07264,-15.35953l4.23712,-3.60622l13.07264,15.35951z"/></g><g fill="#663f3f" stroke="#000000" stroke-width="0.5"><path d="M223.84543,377.49316l3.15547,-3.70747l7.94456,6.76172l-3.15545,3.70747z"/><path d="M217.84465,376.49568l3.15545,-3.70747l7.94456,6.7617l-3.15543,3.70747z"/><path d="M231.44927,378.48503l3.15545,-3.70747l7.94456,6.76172l-3.15545,3.70746z"/><path d="M226.82877,383.91382l3.15547,-3.70747l7.94456,6.7617l-3.15545,3.70749z"/><path d="M222.57781,370.93447l3.15545,-3.70747l7.94459,6.7617l-3.15545,3.70747z"/><path d="M220.17711,385.55894l13.07264,-15.35951l4.23712,3.60622l-13.07264,15.35953z"/></g><path d="M233.43153,408.71173c0.18205,29.96239 -0.18268,69.9549 -11.96099,70.56561c-11.75784,0.60964 -12.62654,-38.97644 -12.80857,-68.93883c-0.18205,-29.96239 3.6018,-31.39307 12.19867,-31.4453c8.59687,-0.05222 12.38885,-0.14387 12.57091,29.81852z" fill="#00c3c5" stroke="none" stroke-width="0"/><path d="M275.3925,406.42212c2.87116,29.82508 6.09823,69.68883 -5.57772,71.35445c-11.65565,1.66273 -16.07463,-37.68549 -18.94579,-67.51056c-2.87116,-29.82508 0.76898,-31.58966 9.32645,-32.41347c8.55747,-0.82381 12.32592,-1.2555 15.19708,28.56958z" fill="#00c3c5" stroke="none" stroke-width="0"/><path d="M217.49474,479.49296l-0.06566,-0.04439l-0.00869,0.02609l-0.80646,-0.26881c-0.19471,-0.05989 -0.33627,-0.24118 -0.33627,-0.45554c0,-0.07234 0.01612,-0.14092 0.04497,-0.20231c-1.39973,-1.67152 -1.8281,-4.7818 -2.61866,-6.26693c-1.75529,-3.67204 -1.15318,-9.19388 -3.02725,-12.71447l-0.05592,-0.53965c0,0 0,-0.03345 0.0084,-0.08356c-0.12753,0.01746 -0.49259,0.02837 -0.59803,-0.39341c-0.12849,-0.51395 0.38545,-0.64242 0.38545,-0.64242c1.81756,-0.42769 3.65698,-2.63746 5.52174,-2.73742c0.89814,-0.04813 0.55663,3.07227 1.18187,2.42572c2.17089,-2.245 2.76654,1.17856 4.42679,-0.63027c0.46032,-0.32857 1.7899,-1.44942 2.45733,-1.06523c0.81256,0.46772 -0.06763,3.31631 0.35169,3.53959c0.57243,0.30482 0.86292,-1.15034 1.50638,-1.23131c0.7562,-0.09517 1.30666,2.14651 1.72022,1.50629c1.75108,-2.71082 3.79117,2.04084 3.76071,3.7312c1.68913,3.37825 -3.35559,13.06678 -5.73381,15.47361c-1.00069,0.98947 -1.63141,1.14969 -2.29069,1.01628c-0.02983,0.02444 -0.06268,0.04532 -0.09789,0.06202l-0.53536,0.26769l-0.09016,-0.18032c-1.2764,0.4837 -2.72445,0.10546 -4.08579,-0.33843l-0.175,-0.14783c-0.24495,0.01172 -0.48737,-0.01396 -0.7268,-0.10287c-0.00192,-0.0007 -0.00385,-0.00143 -0.00577,-0.00216c-0.03545,-0.00052 -0.07119,-0.0009 -0.10723,-0.00114z" fill="#000000" stroke="none" stroke-width="0.5"/><path d="M273.59578,477.58427c0.16118,0.07642 0.27264,0.2406 0.27264,0.43083c0,0.19023 -0.11147,0.35443 -0.27264,0.43083l-0.53536,0.26767c-1.65941,0.79321 -3.44243,0.02017 -5.11444,0.0503c0,0 -0.47652,0 -0.47652,-0.47652c0,-0.05304 0.00589,-0.10017 0.01639,-0.14204c-0.31833,0.09302 -0.64014,0.13488 -0.97326,0.06482c-2.59894,-0.54653 -3.67,-4.8617 -4.92715,-6.5591c-2.27866,-3.37234 -2.49914,-8.92253 -4.87289,-12.12753l-0.13506,-0.52545c0,0 -0.00494,-0.03309 -0.00404,-0.08387c-0.12355,0.03614 -0.48298,0.10085 -0.64959,-0.30072c-0.20303,-0.48933 0.28629,-0.69234 0.28629,-0.69234c1.73441,-0.69159 3.22708,-3.14892 5.05659,-3.52332c0.88116,-0.18034 1.0045,2.95629 1.52732,2.22443c1.81531,-2.54115 2.91031,0.75681 4.28505,-1.27751c0.4067,-0.39299 1.55607,-1.69801 2.27296,-1.41667c0.87275,0.34252 0.42319,3.28991 0.87089,3.44878c0.61119,0.21689 0.68344,-1.26524 1.30788,-1.4404c0.73384,-0.20588 1.60951,1.92986 1.92392,1.23556c1.33128,-2.93984 4.05112,1.45821 4.27079,3.13451c2.1698,3.09156 -1.38782,13.4192 -3.38426,16.15103c-0.36124,0.48245 -0.67784,0.80442 -0.97456,1.0122zM271.36927,478.17595c-0.04565,-0.00884 -0.09158,-0.01818 -0.13776,-0.02792c-0.01625,0.01086 -0.03344,0.02156 -0.05158,0.03204c0.06343,-0.00012 0.12656,-0.00143 0.18933,-0.00412z" fill="#000000" stroke="none" stroke-width="0.5"/><g fill="#663f3f" stroke="#000000" stroke-width="0.5"><path d="M214.43797,477.49163l-0.23128,-2.84968l12.07826,-0.25055l0.2313,2.84966z"/><path d="M214.97062,482.0114l-0.21081,-2.84968l11.00955,-0.25058l0.21083,2.84968z"/><path d="M214.16566,472.31799l-0.23128,-2.84968l12.07826,-0.25055l0.2313,2.84968z"/><path d="M214.43797,467.41665l-0.23128,-2.84968l12.07826,-0.25055l0.2313,2.84968z"/><path d="M213.89339,463.60449l-0.23128,-2.84968l12.07826,-0.25055l0.2313,2.84968z"/><path d="M218.99378,485.36422l-0.40708,-27.6915l2.73686,-0.31348l0.40708,27.69152z"/></g><g fill="#663f3f" stroke="#000000" stroke-width="0.5"><path d="M262.6345,475.31326l-0.2313,-2.84968l12.07828,-0.25058l0.2313,2.84968z"/><path d="M263.16713,479.83304l-0.21081,-2.84968l11.00955,-0.25058l0.21083,2.84968z"/><path d="M262.3622,470.13963l-0.2313,-2.84968l12.07826,-0.25055l0.23132,2.84968z"/><path d="M262.6345,465.23828l-0.2313,-2.84968l12.07828,-0.25055l0.2313,2.84968z"/><path d="M262.0899,461.42613l-0.23128,-2.84968l12.07826,-0.25055l0.2313,2.84968z"/><path d="M267.19031,483.18587l-0.40708,-27.6915l2.73686,-0.31348l0.40708,27.69152z"/></g><path d="M-83.28164,469.27363v-509.00901h163.66366v509.00901z" fill="#7f7396" stroke="none" stroke-width="0"/><g fill="#8c0000" stroke="none" stroke-width="0"><path d="M470.5984,390.73309c0,0 9.41778,-97.8111 9.87281,-139.28c0.27511,-25.072 -39.07828,12.85891 -37.31447,-15.36363c1.20658,-19.30634 2.87807,-38.2912 5.17398,-55.50621c2.1178,-15.87954 -41.18721,12.05753 -39.23858,-3.40214c2.25139,-17.86161 4.32942,-33.96418 6.09448,-49.79241c2.15851,-19.35649 -37.2113,5.72261 -35.95623,-11.61155c1.19965,-16.56877 1.89093,-31.7987 1.89093,-44.89645c0,-19.67707 -39.50044,20.91276 -39.50044,8.08291c0,-45.90288 0,-109.69668 0,-109.69668h173.92127v421.46621z" data-paper-data="{&quot;index&quot;:null}"/><path d="M-35.54214,390.7331v-421.46621h173.92127c0,0 0,63.79382 0,109.69668c0,12.82987 -39.50044,-27.76 -39.50044,-8.08293c0,13.09776 0.69127,28.32771 1.89093,44.89648c1.25507,17.33418 -38.11474,-7.74491 -35.95623,11.61155c1.76507,15.82823 3.84311,31.9308 6.0945,49.79241c1.94863,15.45968 -41.35637,-12.4774 -39.23858,3.40213c2.2959,17.215 3.96739,36.19987 5.17398,55.50621c1.76382,28.22255 -37.58958,-9.70838 -37.31447,15.36363c0.45503,41.46889 9.87281,139.28002 9.87281,139.28002z" data-paper-data="{&quot;index&quot;:null}"/><path d="M130.68471,80.66762v-111.40076h214.37533v111.40076z"/></g><g><g><path d="M127.88701,373.49402l-2.41916,-5.25242l12.31717,-4.73693l2.41913,5.25242z" fill="#663f3f" stroke="#000000" stroke-width="0.5"/><path d="M160.18643,476.00848l0.18342,-3.98137l9.3365,0.35915l-0.18342,3.98137z" fill="#663f3f" stroke="#000000" stroke-width="0.5"/><path d="M165.83256,478.64726l0.18342,-3.9814l9.3365,0.35914l-0.18342,3.98138z" fill="#663f3f" stroke="#000000" stroke-width="0.5"/><path d="M155.40028,478.38838l0.18342,-3.98138l9.33649,0.35914l-0.1834,3.98138z" fill="#663f3f" stroke="#000000" stroke-width="0.5"/><path d="M166.10115,472.81732l0.18342,-3.98137l9.3365,0.35914l-0.18342,3.98138z" fill="#663f3f" stroke="#000000" stroke-width="0.5"/><path d="M155.67535,471.99214l0.18342,-3.98138l9.33652,0.35914l-0.18342,3.9814z" fill="#663f3f" stroke="#000000" stroke-width="0.5"/><path d="M135.60075,374.50212l-2.41911,-5.25244l12.31713,-4.73691l2.41916,5.25242z" fill="#663f3f" stroke="#000000" stroke-width="0.5"/><path d="M121.76021,379.60411l-2.41916,-5.25242l12.31717,-4.73693l2.41916,5.25246z" fill="#663f3f" stroke="#000000" stroke-width="0.5"/><path d="M118.21788,371.91301l-2.41913,-5.25241l12.31717,-4.73693l2.41911,5.25239z" fill="#663f3f" stroke="#000000" stroke-width="0.5"/><path d="M131.97207,366.62345l-2.41918,-5.25244l12.3172,-4.73691l2.41913,5.25244z" fill="#663f3f" stroke="#000000" stroke-width="0.5"/><path d="M162.04393,483.0597l0.75985,-16.49432l4.97949,0.19153l-0.75985,16.49431z" fill="#663f3f" stroke="#000000" stroke-width="0.5"/><path d="M134.99449,381.58047l-10.02213,-21.76008l6.56917,-2.52637l10.02215,21.7601z" fill="#663f3f" stroke="#000000" stroke-width="0.5"/><path d="M127.51903,385.83771c-0.954,-15.66111 4.93124,-16.27251 10.6789,-17.62526c4.8195,-1.13431 8.67478,-1.2261 15.15569,9.58236c7.28564,12.15053 17.14902,36.19162 21.1006,51.53373c7.46667,28.98958 1.02037,41.45503 -9.21706,43.86447c-10.23741,2.40944 -19.67357,-7.44405 -27.14026,-36.43364c-3.27462,-12.7138 -9.83266,-38.68802 -10.57787,-50.92167z" data-paper-data="{&quot;index&quot;:null}" fill="#d87700" stroke="#929292" stroke-width="1"/><path d="M181.39266,485.68634c0,6.37163 -2.98104,4.75047 -11.69705,4.75047c-8.71601,0 -13.6305,1.59899 -13.55372,-5.42911c0.09213,-8.43023 3.72371,-6.10775 12.43971,-6.10775c8.71601,0 12.81105,0.41475 12.81105,6.78638z" fill="#d87700" stroke="#929292" stroke-width="1"/></g><path d="M137.13476,391.44923c-1.6966,0 -1.6966,-1.6966 -1.6966,-1.6966l0.17911,0.33459c-1.26977,-2.57073 -3.0043,-5.11103 -3.14542,-7.91043c-1.47436,-1.03991 -2.64394,-2.44524 -3.64096,-4.38989c0,0 -0.75873,-1.51749 0.75873,-2.27622c1.51749,-0.75873 2.27622,0.75873 2.27622,0.75873c1.33339,2.75912 3.11395,3.87238 6.01056,4.60326c0.1202,-0.15495 0.241,-0.30951 0.36238,-0.46368c-1.39179,0.27273 -1.86527,-1.14773 -1.86527,-1.14773l-0.1719,-0.791c-1.13574,-1.5308 -1.99004,-3.26593 -2.74704,-5.01527c0,0 -0.66832,-1.55943 0.8911,-2.22773c1.55943,-0.66832 2.22773,0.8911 2.22773,0.8911c0.63884,1.50715 1.35237,3.01265 2.34274,4.316l0.6764,1.75389c0,0 0.06086,0.18259 0.0801,0.44525c2.19485,-2.65551 4.52223,-5.21995 6.78898,-7.81235c0,0 1.11721,-1.27682 2.39403,-0.1596c1.27682,1.11721 0.1596,2.39403 0.1596,2.39403c-2.92441,3.33973 -5.98094,6.63569 -8.66292,10.15552l-0.92794,1.49835c0,0 -0.8949,1.44138 -2.33628,0.54649c-0.1741,-0.10809 -0.31412,-0.22417 -0.42574,-0.3447c0.6348,1.31242 1.49238,2.67814 1.98984,3.65851l0.17911,1.18288c0,0 0,1.6966 -1.6966,1.6966zM136.26753,383.94616c-0.01111,-0.00333 -0.02221,-0.00667 -0.03329,-0.00999c0.01232,0.0319 0.02487,0.06389 0.03765,0.09599c-0.00226,-0.02889 -0.00368,-0.05758 -0.00434,-0.086z" fill="#000000" stroke="none" stroke-width="0.5"/><path d="M139.37167,375.72482c-1.24155,-1.15628 -0.08527,-2.39783 -0.08527,-2.39783l0.71418,-0.76474c0.73609,-0.85877 1.47217,-1.71753 2.20826,-2.5763c0,0 1.10413,-1.28816 2.39229,-0.18403c1.28816,1.10413 0.18403,2.39229 0.18403,2.39229c-0.73609,0.85877 -1.47217,1.71753 -2.20826,2.5763l-0.80738,0.86905c0,0 -1.15628,1.24155 -2.39783,0.08527z" fill="#000000" stroke="none" stroke-width="0.5"/><path d="M143.5898,398.52056c1.41165,0.9411 0.47055,2.35275 0.47055,2.35275l-1.93746,2.83167c-8.15242,4.54291 -12.09491,-7.44342 -14.62221,-13.7464c0,0 -0.6301,-1.57526 0.94516,-2.20535c1.57526,-0.6301 2.20535,0.94516 2.20535,0.94516c1.39494,3.49635 3.23665,6.33407 5.01607,9.59568c1.05717,1.93775 1.43513,4.87597 4.11406,2.95516l1.45573,-2.25812c0,0 0.9411,-1.41165 2.35275,-0.47055z" fill="#000000" stroke="none" stroke-width="0.5"/><path d="M150.29605,406.66794c-1.64594,-0.41149 -1.23446,-2.05743 -1.23446,-2.05743l0.42415,-1.6966c0.08379,-0.32788 0.17529,-0.64941 0.27432,-0.96528c-1.13316,2.03581 -2.35119,4.10193 -3.47314,6.377l-1.18785,0.96451c1.44655,1.15044 2.93296,2.25267 4.67061,3.1215l0.45012,0.93187c0.04827,-0.02874 0.09927,-0.05663 0.15315,-0.08357c0.71471,-0.35735 1.26111,-0.20978 1.63922,0.04637c0.21584,-0.9932 0.90327,-1.7082 1.35568,-2.96127c1.88802,-5.22937 3.70192,-9.94534 3.70192,-15.50261c0,0 0,-1.6966 1.6966,-1.6966c1.6966,0 1.6966,1.6966 1.6966,1.6966c0,1.37075 -0.08748,2.78337 -0.26055,4.21307c0.10042,-0.07706 0.21643,-0.14978 0.35011,-0.21662c1.51749,-0.75873 2.27622,0.75873 2.27622,0.75873c0.95016,1.99854 0.86667,3.37258 1.40091,5.43705l0.05066,0.83564c0,0 0,1.6966 -1.6966,1.6966c-1.6966,0 -1.6966,-1.6966 -1.6966,-1.6966l0.05066,-0.01266c-0.42021,-1.72854 -0.29336,-3.06259 -1.06808,-4.59698c-1.12362,6.22128 -3.82557,12.52386 -7.95481,16.90872l-2.02798,-2.32108c-0.22478,0.12316 -0.51115,0.20159 -0.87597,0.20159c-0.97078,0 -1.38609,-0.55547 -1.56375,-1.03073c-3.49049,-1.96152 -6.03369,-4.78951 -9.48872,-6.84573c0,0 -1.45481,-0.8729 -0.58193,-2.32771c0.8729,-1.45481 2.32771,-0.58193 2.32771,-0.58193c0.95439,0.57669 1.83774,1.2112 2.6906,1.86799c0.09453,-0.08388 0.16104,-0.12821 0.16104,-0.12821l0.69606,-0.19538c0.7776,-1.53766 1.60668,-2.97269 2.41885,-4.36941c-0.05383,-0.01371 -0.10897,-0.02988 -0.16544,-0.04869c-1.60953,-0.53651 -1.07303,-2.14604 -1.07303,-2.14604l0.37003,-1.06867c1.31415,-6.36251 4.63269,-11.30038 4.63269,-17.90567c0,0 0,-1.6966 1.6966,-1.6966c1.6966,0 1.6966,1.6966 1.6966,1.6966c0,1.80596 -0.23367,3.48442 -0.6016,5.09629c0.05699,-0.00428 0.1161,-0.0065 0.17745,-0.0065c1.6966,0 1.6966,1.6966 1.6966,1.6966c0,3.23951 -0.67292,5.98138 -1.69931,8.54092c0.24429,-0.36041 0.49982,-0.71851 0.76618,-1.0759c0,0 1.01796,-1.35728 2.37523,-0.33932c1.35728,1.01796 0.33932,2.37523 0.33932,2.37523c-1.43829,1.90387 -2.53882,3.85309 -3.10453,6.17992l-0.42415,1.6966c0,0 -0.41149,1.64594 -2.05743,1.23446zM149.33559,395.31781c0.20312,-0.53054 0.38845,-1.07059 0.55267,-1.62327c-0.18819,0.5368 -0.37378,1.07705 -0.55267,1.62327z" fill="#000000" stroke="none" stroke-width="0.5"/><path d="M152.64314,430.88496c-4.02729,-1.80942 -7.22623,-2.42388 -10.07927,-6.18245c0,0 -1.01796,-1.35728 0.33932,-2.37523c0.23167,-0.17375 0.45347,-0.27831 0.66198,-0.33221c-4.76796,-2.0973 -10.77522,-6.07303 -11.09604,-9.76254c0,0 0,-1.6966 1.6966,-1.6966c1.6966,0 1.6966,1.6966 1.6966,1.6966c-0.43876,1.71483 9.58653,7.17324 11.86352,7.68534l-0.32193,-0.29568c0,0 1.51749,-0.75873 2.27622,0.75873c0.75873,1.51749 -0.75873,2.27622 -0.75873,2.27622l-2.01853,0.55262c-0.48606,-0.12986 -1.02564,-0.30276 -1.60252,-0.51361c1.97606,2.65526 4.12417,3.01438 6.65396,4.25142c0.07496,-0.62185 0.5226,-1.06948 0.5226,-1.06948l1.05574,-1.00673c1.6073,-4.23574 4.01331,-8.42677 3.96128,-13.06296c0,0 0,-1.6966 1.6966,-1.6966c1.6966,0 1.6966,1.6966 1.6966,1.6966c-0.02793,3.29084 -0.97956,6.36726 -2.17573,9.37585c1.69403,-3.28719 3.65508,-6.46417 6.49001,-9.30308c0,0 1.19968,-1.19968 2.39934,0c1.19968,1.19968 0,2.39934 0,2.39934c-6.71117,6.70111 -8.32543,15.47479 -13.49803,22.9261l-1.17153,2.30391c-0.06289,0.00692 -0.12682,0.01415 -0.19172,0.0216l-0.07384,0.14765c-0.27203,0.57387 -0.85663,0.97072 -1.53393,0.97072c-0.59914,0 -1.12573,-0.31056 -1.4276,-0.77947c-1.28892,0.10605 -2.59398,0.12765 -3.62785,-0.11421c-5.75277,-1.34579 -9.08527,-8.35272 -12.38705,-12.46752c0,0 -1.05986,-1.32482 0.26496,-2.38467c1.32482,-1.05986 2.38467,0.26496 2.38467,0.26496c2.59958,3.2585 5.84827,10.33537 10.517,11.28482c1.1072,0.22516 2.13573,-0.08055 3.20073,0.02024c0.16333,-0.32196 0.48216,-0.75656 1.04863,-0.88922c0.0481,-0.06802 0.09591,-0.13613 0.14343,-0.20435l0.00438,-0.0263c0,0 0.14414,-0.36036 0.4669,-0.66742c0.88622,-1.33727 1.67206,-2.71045 2.40338,-4.10232zM155.69464,427.4321l-0.0313,0.03234c0.0037,0.00327 0.00738,0.00658 0.01106,0.00993c0.00675,-0.01408 0.0135,-0.02818 0.02024,-0.04226z" fill="#000000" stroke="none" stroke-width="0.5"/><path d="M139.76922,392.96672c-1.51749,-0.75873 -0.75873,-2.27622 -0.75873,-2.27622l0.27799,-0.42228c0.7504,-3.63309 2.92797,-5.88712 4.34573,-9.24272c0,0 0.66832,-1.55943 2.22773,-0.8911c1.55943,0.66832 0.8911,2.22773 0.8911,2.22773c-1.33641,3.08027 -3.50549,5.28032 -4.13725,8.57154l-0.57031,1.27431c0,0 -0.75873,1.51749 -2.27622,0.75873z" fill="#000000" stroke="none" stroke-width="0.5"/><path d="M159.23202,440.17527c-0.22088,-0.97995 0.26923,-1.51046 0.70583,-1.7802c1.89966,-6.39814 6.30665,-11.90364 8.69195,-18.27526c0,0 0.59571,-1.58857 2.18428,-0.99286c1.58857,0.59571 0.99286,2.18428 0.99286,2.18428c-2.43495,6.48269 -7.22295,12.22241 -8.82444,18.80117l-1.72237,1.34491c0,0 -1.65508,0.37305 -2.02813,-1.28202z" fill="#000000" stroke="none" stroke-width="0.5"/><path d="M155.79659,451.30394c-0.04969,1.69587 -1.74556,1.64617 -1.74556,1.64617l-1.23913,-0.23591c-5.12369,-2.93419 -10.34751,-6.51683 -13.33285,-11.64608c0,0 -0.84175,-1.47305 0.6313,-2.3148c1.47305,-0.84175 2.3148,0.6313 2.3148,0.6313c2.55806,4.57781 7.5433,7.80263 12.07023,10.38346l-0.34497,-0.20972c0,0 1.69587,0.04969 1.64617,1.74556z" fill="#000000" stroke="none" stroke-width="0.5"/><path d="M166.68598,447.10556c-0.9411,-1.41165 0.47055,-2.35275 0.47055,-2.35275l1.01387,-0.63633c2.74803,-2.73408 4.12855,-4.7844 5.06766,-8.54309c0,0 0.41149,-1.64594 2.05743,-1.23446c1.64594,0.41149 1.23446,2.05743 1.23446,2.05743c-1.09542,4.37922 -2.81498,6.96022 -5.96021,10.11947l-1.53103,1.06027c0,0 -1.41165,0.9411 -2.35275,-0.47055z" fill="#000000" stroke="none" stroke-width="0.5"/><path d="M163.00785,466.94776c0,1.6966 -1.6966,1.6966 -1.6966,1.6966h-1.27245c-7.96474,-0.05317 -15.08729,-5.35434 -15.26936,-13.57277c0,0 0,-1.6966 1.6966,-1.6966c1.6966,0 1.6966,1.6966 1.6966,1.6966c-0.19104,6.26804 5.96678,10.23002 11.87617,10.17958h1.27245c0,0 1.6966,0 1.6966,1.6966z" fill="#000000" stroke="none" stroke-width="0.5"/><path d="M166.82519,455.49573c1.6966,0 1.6966,1.6966 1.6966,1.6966l-0.12134,1.05425c-0.17378,0.39034 -0.36244,0.74974 -0.56464,1.07978c5.30003,-1.35931 7.40766,-5.70704 8.35361,-10.52558c0,0 0.33274,-1.66365 1.99638,-1.33091c1.66365,0.33274 1.33091,1.99638 1.33091,1.99638c-1.20032,5.87514 -3.98888,10.915 -9.97239,12.88736c-0.22329,0.39904 -0.6461,0.77682 -1.44669,0.77682c-1.6966,0 -1.6966,-1.6966 -1.6966,-1.6966l0.64067,-1.03201c-3.66578,4.10717 -10.26332,1.42246 -14.425,-1.88466c0,0 -1.32482,-1.05986 -0.26496,-2.38467c1.05986,-1.32482 2.38467,-0.26496 2.38467,-0.26496c2.55073,2.05619 8.98387,5.81761 10.51352,1.11887l-0.12134,0.20595c0,0 0,-1.6966 1.6966,-1.6966z" fill="#000000" stroke="none" stroke-width="0.5"/><path d="M164.03526,450.49549c0.75873,-1.51749 2.27622,-0.75873 2.27622,-0.75873l0.08956,0.24504c2.72959,0 3.53099,-0.09114 5.76843,-1.78143c0,0 1.35728,-1.01796 2.37523,0.33932c1.01796,1.35728 -0.33932,2.37523 -0.33932,2.37523c-2.74988,2.04947 -4.4497,2.46006 -7.80434,2.46006l-1.60703,-0.60326c0,0 -1.51749,-0.75873 -0.75873,-2.27622z" fill="#000000" stroke="none" stroke-width="0.5"/><path d="M162.5837,447.86105c0,1.6966 -1.6966,1.6966 -1.6966,1.6966l-1.25979,-0.05066c-3.4468,-0.89563 -4.77393,-2.74747 -7.15042,-5.11191c0,0 -1.19968,-1.19968 0,-2.39934c1.19968,-1.19968 2.39934,0 2.39934,0c1.92134,1.92991 2.78705,3.55902 5.57405,4.21937l0.43681,-0.05066c0,0 1.6966,0 1.6966,1.6966z" fill="#000000" stroke="none" stroke-width="0.5"/><path d="M167.76305,437.92651c-1.51749,-0.75873 -0.75873,-2.27622 -0.75873,-2.27622l0.29568,-0.50104c0.25094,-0.96972 0.38204,-1.98008 0.37349,-2.9817c0,0 0,-1.6966 1.6966,-1.6966c1.6966,0 1.6966,1.6966 1.6966,1.6966c-0.00853,1.27803 -0.1729,2.56279 -0.47481,3.80468l-0.55262,1.19556c0,0 -0.75873,1.51749 -2.27622,0.75873z" fill="#000000" stroke="none" stroke-width="0.5"/></g><g><g><path d="M85.84235,481.13707l-0.03244,-3.9848l9.31905,-0.06367l0.03244,3.98478z" fill="#663f3f" stroke="#000000" stroke-width="0.5"/><path d="M81.20367,483.73055l-0.03242,-3.9848l9.31901,-0.06367l0.03246,3.9848z" fill="#663f3f" stroke="#000000" stroke-width="0.5"/><path d="M91.56129,477.6822l-0.03244,-3.98478l9.31905,-0.06367l0.03244,3.9848z" fill="#663f3f" stroke="#000000" stroke-width="0.5"/><path d="M91.60876,483.51715l-0.03242,-3.98481l9.31905,-0.06367l0.03244,3.9848z" fill="#663f3f" stroke="#000000" stroke-width="0.5"/><path d="M81.155,477.75334l-0.03244,-3.9848l9.31905,-0.06371l0.03242,3.98481z" fill="#663f3f" stroke="#000000" stroke-width="0.5"/><path d="M88.07348,488.09559l-0.13435,-16.50846l4.97016,-0.03397l0.13437,16.50846z" fill="#663f3f" stroke="#000000" stroke-width="0.5"/><path d="M96.60502,369.23779l2.41254,-5.25242l12.28358,4.73693l-2.41256,5.25242z" fill="#663f3f" stroke="#000000" stroke-width="0.5"/><path d="M88.91233,370.24589l2.41256,-5.25242l12.28354,4.73691l-2.41253,5.25244z" fill="#663f3f" stroke="#000000" stroke-width="0.5"/><path d="M106.24782,367.65676l2.41253,-5.25241l12.28358,4.73693l-2.41256,5.25242z" fill="#663f3f" stroke="#000000" stroke-width="0.5"/><path d="M102.7151,375.34789l2.41256,-5.25244l12.28358,4.73693l-2.41256,5.25242z" fill="#663f3f" stroke="#000000" stroke-width="0.5"/><path d="M92.53108,362.36722l2.41254,-5.25244l12.28361,4.73691l-2.41258,5.25244z" fill="#663f3f" stroke="#000000" stroke-width="0.5"/><path d="M95.24925,379.53482l9.99482,-21.7601l6.55125,2.52635l-9.9948,21.7601z" fill="#663f3f" stroke="#000000" stroke-width="0.5"/><path d="M110.98497,437.0982c-1.65971,29.74282 -8.99204,40.98126 -19.50743,40.28615c-10.51538,-0.69511 -19.27661,-11.90406 -17.61691,-41.64689c0.87836,-15.74075 5.8568,-41.0073 10.63021,-54.15372c4.24614,-11.69431 8.0467,-12.23493 12.99706,-11.90769c5.90371,0.39027 11.79752,0.02866 13.92256,15.59267c1.65997,12.15782 0.3024,38.78532 -0.42549,51.82946z" fill="#d87700" stroke="#929292" stroke-width="1"/><path d="M108.03715,493.29275c0,6.37163 -5.56516,7.46502 -14.2574,7.46502c-8.69224,0 -14.99804,-1.09339 -14.99804,-7.46502c0,-6.37163 5.93549,-8.8223 14.62771,-8.8223c8.69224,0 14.62771,2.45067 14.62771,8.8223z" fill="#d87700" stroke="#929292" stroke-width="1"/></g><path d="M91.75082,388.94886c-1.26581,0 -1.58722,-0.94441 -1.66882,-1.424c-2.27346,-2.55947 -3.39786,-5.71763 -3.42097,-9.17972c0,0 0,-1.6966 1.6966,-1.6966c1.6966,0 1.6966,1.6966 1.6966,1.6966c-0.02333,2.73325 0.92721,5.36991 2.89628,7.2833l0.49692,1.62383c0,0 0,1.6966 -1.6966,1.6966z" fill="#000000" stroke="none" stroke-width="0.5"/><path d="M96.32365,393.7537c-1.41165,-0.9411 -0.47055,-2.35275 -0.47055,-2.35275l0.8483,-1.27245c2.90306,-4.30481 7.7435,-6.53064 10.07374,-11.26966c0,0 0.75873,-1.51749 2.27622,-0.75873c1.51749,0.75873 0.75873,2.27622 0.75873,2.27622c-2.51717,4.96702 -7.33432,7.14735 -10.28541,11.63439l-0.8483,1.27245c0,0 -0.9411,1.41165 -2.35275,0.47055z" fill="#000000" stroke="none" stroke-width="0.5"/><path d="M101.15486,380.39311c-0.2941,-0.2941 -0.44402,-0.58823 -0.50274,-0.86465c-0.04842,0.19356 -0.13924,0.39977 -0.28632,0.6168c-0.95181,1.40446 -2.35627,0.45265 -2.35627,0.45265l-1.80679,-1.43393c-0.56117,-0.98204 -1.12233,-1.96408 -1.6835,-2.94612c0,0 -0.84175,-1.47305 0.6313,-2.3148c1.47305,-0.84175 2.3148,0.6313 2.3148,0.6313c0.56117,0.98204 1.12233,1.96408 1.6835,2.94612l0.7643,0.30851c0,0 0.60663,0.41112 0.75232,1.09167c0.1275,-0.52501 0.48938,-0.8869 0.48938,-0.8869l0.72316,-0.70848c1.20754,-1.49842 2.5839,-2.87476 4.0823,-4.0823c0,0 1.32482,-1.05986 2.38467,0.26496c1.05986,1.32482 -0.26496,2.38467 -0.26496,2.38467c-1.31193,1.04074 -2.51164,2.24044 -3.55238,3.55238l-0.97344,0.98811c0,0 -1.19968,1.19968 -2.39934,0z" fill="#000000" stroke="none" stroke-width="0.5"/><path d="M95.56816,413.12535c-1.6966,0 -1.6966,-1.6966 -1.6966,-1.6966l0.39324,0.23783c-0.29704,-0.35752 -0.59766,-0.70731 -0.90133,-1.05041c-0.34544,-0.00965 -0.73059,-0.1475 -1.11573,-0.53265c-0.43221,-0.43221 -0.55299,-0.86442 -0.53064,-1.24053c-2.31938,-2.39173 -4.75685,-4.52024 -7.10404,-6.8183c0,0 -1.19968,-1.19968 0,-2.39934c0.63526,-0.63526 1.27051,-0.59774 1.72764,-0.42184c-1.70769,-2.94911 -3.0365,-6.11238 -3.87051,-9.41903c0,0 -0.41149,-1.64594 1.23446,-2.05743c1.64594,-0.41149 2.05743,1.23446 2.05743,1.23446c1.50593,6.0853 4.93275,11.66883 9.27882,16.14157c0.30434,0.05867 0.7587,0.2115 1.06092,0.60959c2.89919,-0.76813 6.26069,-1.40716 8.5343,-2.77616c1.43016,-0.86114 2.92912,-6.45709 3.89829,-8.07417c0,0 0.8729,-1.45481 2.32771,-0.58193c1.45481,0.8729 0.58193,2.32771 0.58193,2.32771c-1.25526,2.08965 -2.61016,7.45405 -4.58469,8.89179c-2.50453,1.82365 -6.96047,2.62682 -10.32504,3.59622c0.11299,0.13167 0.22541,0.26438 0.33722,0.39817l0.39324,1.93442c0,0 0,1.6966 -1.6966,1.6966z" fill="#000000" stroke="none" stroke-width="0.5"/><path d="M100.79715,401.76613c-0.9411,1.41165 -2.35275,0.47055 -2.35275,0.47055l-2.67942,-1.7962c-1.16093,-1.17216 -2.23409,-2.47844 -2.98676,-3.9465c0,0 -0.75873,-1.51749 0.75873,-2.27622c1.51749,-0.75873 2.27622,0.75873 2.27622,0.75873c0.51254,1.06058 1.26434,2.01277 2.10303,2.83988l2.41037,1.59699c0,0 1.41165,0.9411 0.47055,2.35275z" fill="#000000" stroke="none" stroke-width="0.5"/><path d="M100.32336,399.37347c-1.51749,-0.75873 -0.75873,-2.27622 -0.75873,-2.27622l0.8483,-1.6966c0.49076,-0.96718 0.88776,-1.99208 1.14398,-3.04593c0,0 0.41149,-1.64594 2.05743,-1.23446c1.64594,0.41149 1.23446,2.05743 1.23446,2.05743c-0.32967,1.28994 -0.8113,2.54673 -1.40091,3.74045l-0.8483,1.6966c0,0 -0.75873,1.51749 -2.27622,0.75873z" fill="#000000" stroke="none" stroke-width="0.5"/><path d="M92.6511,418.4272c-1.06034,1.32443 -2.38477,0.26408 -2.38477,0.26408l-2.18486,-1.74926c-1.36423,-1.12464 -4.13145,-3.32489 -5.30741,-4.62855c-1.14055,-1.26441 -2.02351,-4.16234 -3.73504,-4.32856c0,0 -1.64594,-0.41149 -1.23446,-2.05743c0.41149,-1.64594 2.05743,-1.23446 2.05743,-1.23446c3.90025,1.24098 6.95781,6.81328 10.35889,9.6152l2.16615,1.73418c0,0 1.32443,1.06034 0.26408,2.38477z" fill="#000000" stroke="none" stroke-width="0.5"/><path d="M97.76167,416.44578c-1.19968,-1.19968 0,-2.39934 0,-2.39934l0.8483,-0.8483c1.94394,-1.93802 3.49154,-3.82874 5.62747,-5.61762c0,0 1.30336,-1.08613 2.3895,0.21723c1.08613,1.30336 -0.21723,2.3895 -0.21723,2.3895c-2.05565,1.70355 -3.53722,3.54195 -5.4004,5.41026l-0.8483,0.8483c0,0 -1.19968,1.19968 -2.39934,0z" fill="#000000" stroke="none" stroke-width="0.5"/><path d="M93.44741,423.72908c0,-1.6966 1.6966,-1.6966 1.6966,-1.6966l-0.11237,0.08707c6.28818,-2.09214 8.9442,-4.08679 12.75201,-9.16386c0,0 1.01796,-1.35728 2.37523,-0.33932c1.35728,1.01796 0.33932,2.37523 0.33932,2.37523c-1.18187,1.57583 -2.67224,4.56026 -4.0746,5.78765c-2.48107,2.17152 -7.25017,3.53462 -10.31893,4.55936l-0.96066,0.08707c0,0 -1.6966,0 -1.6966,-1.6966z" fill="#000000" stroke="none" stroke-width="0.5"/><path d="M92.73832,428.91167c-0.9411,1.41165 -2.35275,0.47055 -2.35275,0.47055l-1.53103,-1.06027c-3.26674,-3.26674 -6.08087,-6.94566 -9.33128,-10.17958c0,0 -1.19968,-1.19968 0,-2.39934c1.19968,-1.19968 2.39934,0 2.39934,0c3.2408,3.25524 6.06138,6.90968 9.33128,10.17958l1.01387,0.63633c0,0 1.41165,0.9411 0.47055,2.35275z" fill="#000000" stroke="none" stroke-width="0.5"/><path d="M89.63007,434.75695c0,-1.6966 1.6966,-1.6966 1.6966,-1.6966l1.95356,0.00826c2.67626,-0.42457 3.81829,-2.89692 6.05714,-4.41122c1.88835,-1.27723 4.00259,-2.18898 5.93532,-3.39799c0,0 1.43871,-0.8992 2.33791,0.53952c0.8992,1.43871 -0.53952,2.33791 -0.53952,2.33791c-4.14987,2.5915 -8.86149,7.28559 -13.45648,8.30847l-2.28793,0.00826c0,0 -1.6966,0 -1.6966,-1.6966z" fill="#000000" stroke="none" stroke-width="0.5"/><path d="M88.6179,441.42252c-0.72747,1.53272 -2.26019,0.80526 -2.26019,0.80526l-0.93258,-0.44931c-5.64841,-2.22078 -7.81243,-7.07291 -10.82264,-12.08669c0,0 -0.8729,-1.45481 0.58193,-2.32771c1.45481,-0.8729 2.32771,0.58193 2.32771,0.58193c2.47372,4.12561 4.42235,9.00913 9.10443,10.65532l1.1961,0.56101c0,0 1.53272,0.72747 0.80526,2.26019z" fill="#000000" stroke="none" stroke-width="0.5"/><path d="M95.03531,449.25499c0.45749,-0.17751 1.095,-0.21757 1.73253,0.41996c1.19968,1.19968 0,2.39934 0,2.39934l-2.49671,0.6793c-0.70692,-0.42415 -1.41382,-0.8483 -2.12075,-1.27245c0,0 -0.50019,-0.30011 -0.73802,-0.8417c-0.23294,0.14229 -0.53702,0.23518 -0.93398,0.23518c-1.6966,0 -1.6966,-1.6966 -1.6966,-1.6966l0.93786,-1.94164c5.58516,-2.79258 12.98251,-5.37958 17.37333,-9.86177c0,0 1.19968,-1.19968 2.39934,0c1.19968,1.19968 0,2.39934 0,2.39934c-4.02738,3.96186 -9.87982,6.5357 -15.20632,9.03142c0.24977,0.14986 0.49955,0.29972 0.74932,0.4496z" fill="#000000" stroke="none" stroke-width="0.5"/><path d="M97.6889,463.17493c1.6966,0 1.6966,1.6966 1.6966,1.6966l-0.05066,0.83564c-2.66815,9.9864 -15.07658,1.33962 -20.64309,-1.4389c0,0 -1.51749,-0.75873 -0.75873,-2.27622c0.75873,-1.51749 2.27622,-0.75873 2.27622,-0.75873c3.25726,1.63123 14.51986,9.49274 15.83372,3.65089l-0.05066,-0.01266c0,0 0,-1.44857 1.33851,-1.6687c-1.05569,0.08994 -1.58353,-0.96575 -1.58353,-0.96575l0.33459,-0.08956c-1.51119,-0.7556 -3.06337,-1.50478 -4.61813,-2.27607c-1.82807,0.82093 -3.64069,1.6495 -5.38233,2.52111l-1.71612,0.33985c0,0 -1.6782,0.24915 -1.92733,-1.42906c-0.24915,-1.6782 1.42906,-1.92733 1.42906,-1.92733l0.69693,-0.01839c0.99955,-0.49931 2.02216,-0.98443 3.0573,-1.46208c-5.70964,-3.08219 -11.01444,-6.79877 -13.9297,-12.62439c0,0 -0.75873,-1.51749 0.75873,-2.27622c1.51749,-0.75873 2.27622,0.75873 2.27622,0.75873c2.93375,5.8727 8.8206,9.39095 14.79265,12.38249c2.9986,-1.34055 5.99272,-2.68807 8.73732,-4.19877c3.61585,-1.99026 5.95631,-5.2644 9.95096,-6.87949c0,0 1.57526,-0.6301 2.20535,0.94516c0.6301,1.57526 -0.94516,2.20535 -0.94516,2.20535c-3.8547,1.52256 -6.0494,4.75692 -9.55989,6.69327c-2.04034,1.12544 -4.21764,2.16019 -6.43207,3.16793c0.7179,0.34836 1.42753,0.69489 2.12368,1.04297l1.18288,1.60703c0,0 0.75873,1.51749 -0.75873,2.27622c-0.19854,0.09927 -0.38409,0.15958 -0.55665,0.18941c0.07058,-0.00675 0.14455,-0.0103 0.22205,-0.0103z" fill="#000000" stroke="none" stroke-width="0.5"/><path d="M87.43656,448.25695c-1.19968,1.19968 -2.39934,0 -2.39934,0c-0.42415,-0.42415 -1.27245,-1.27245 -1.6966,-1.6966c0,0 -1.19968,-1.19968 0,-2.39934c1.19968,-1.19968 2.39934,0 2.39934,0c0.42415,0.42415 0.8483,0.8483 1.27245,1.27245l0.42415,0.42415c0,0 1.19968,1.19968 0,2.39934z" fill="#000000" stroke="none" stroke-width="0.5"/><path d="M90.97529,444.43961c-1.19968,-1.19968 0,-2.39934 0,-2.39934l0.8483,-0.8483c0.9985,-0.9776 2.16649,-1.80102 3.40997,-2.43855c0,0 1.51749,-0.75873 2.27622,0.75873c0.75873,1.51749 -0.75873,2.27622 -0.75873,2.27622c-0.93192,0.45036 -1.80679,1.06063 -2.52811,1.80294l-0.8483,0.8483c0,0 -1.19968,1.19968 -2.39934,0z" fill="#000000" stroke="none" stroke-width="0.5"/><path d="M83.26784,432.6362c0,-0.937 0.7596,-1.6966 1.6966,-1.6966c0.937,0 1.6966,0.7596 1.6966,1.6966c0,0.937 -0.7596,1.6966 -1.6966,1.6966c-0.937,0 -1.6966,-0.7596 -1.6966,-1.6966z" fill="#000000" stroke="none" stroke-width="0.5"/></g><g><g><path d="M97.10728,206.73568l-9.09716,-20.99005h77.0375c0,0 2.06883,8.10856 1.12114,12.03991c-0.492,2.04101 -21.84495,15.547 -21.84495,15.547z" fill="#000000" stroke="none" stroke-width="0"/><path d="M155.07321,147.87301l1.41408,-2.24475l4.81019,3.03019l-1.41408,2.24475z" fill="#663f3f" stroke="#000000" stroke-width="0.5"/><path d="M156.56925,150.83115l1.4141,-2.24475l4.81017,3.03017l-1.41408,2.24475z" fill="#663f3f" stroke="#000000" stroke-width="0.5"/><path d="M153.31903,144.08034l1.41408,-2.24475l4.81017,3.03019l-1.41408,2.24473z" fill="#663f3f" stroke="#000000" stroke-width="0.5"/><path d="M151.24839,147.36729l1.41408,-2.24475l4.81019,3.03019l-1.41408,2.24475z" fill="#663f3f" stroke="#000000" stroke-width="0.5"/><path d="M158.69039,147.46405l1.41408,-2.24475l4.81017,3.03019l-1.41408,2.24475z" fill="#663f3f" stroke="#000000" stroke-width="0.5"/><path d="M153.72094,152.50837l5.85835,-9.29969l2.56542,1.61609l-5.85835,9.29969z" fill="#663f3f" stroke="#000000" stroke-width="0.5"/><path d="M92.91008,152.14574l-1.41408,-2.24475l4.81019,-3.03019l1.41408,2.24475z" fill="#663f3f" stroke="#000000" stroke-width="0.5"/><path d="M91.41404,155.10387l-1.41408,-2.24475l4.81019,-3.03017l1.41408,2.24475z" fill="#663f3f" stroke="#000000" stroke-width="0.5"/><path d="M94.6643,148.35305l-1.41408,-2.24473l4.81017,-3.03019l1.41408,2.24475z" fill="#663f3f" stroke="#000000" stroke-width="0.5"/><path d="M96.73491,151.64002l-1.41408,-2.24475l4.81019,-3.03019l1.41408,2.24475z" fill="#663f3f" stroke="#000000" stroke-width="0.5"/><path d="M89.29292,151.73676l-1.41408,-2.24475l4.81017,-3.03019l1.41408,2.24475z" fill="#663f3f" stroke="#000000" stroke-width="0.5"/><path d="M96.5071,155.36701l-5.85835,-9.29969l2.56542,-1.61609l5.85835,9.29969z" fill="#663f3f" stroke="#000000" stroke-width="0.5"/><path d="M112.32057,229.49973l0.51312,-6.02906l12.91941,1.09955l-0.51312,6.02906z" fill="#663f3f" stroke="#000000" stroke-width="0.5"/><path d="M105.53098,232.82577l0.51312,-6.02906l12.91941,1.09955l-0.5131,6.02906z" fill="#663f3f" stroke="#000000" stroke-width="0.5"/><path d="M120.72737,225.00999l0.5131,-6.02906l12.91941,1.09955l-0.51312,6.02906z" fill="#663f3f" stroke="#000000" stroke-width="0.5"/><path d="M119.97602,233.83828l0.51312,-6.02907l12.91941,1.09955l-0.5131,6.02907z" fill="#663f3f" stroke="#000000" stroke-width="0.5"/><path d="M106.30065,223.78218l0.51312,-6.02906l12.91941,1.09953l-0.51312,6.02907z" fill="#663f3f" stroke="#000000" stroke-width="0.5"/><path d="M114.43714,240.30715l2.12578,-24.97754l6.89035,0.58641l-2.12578,24.97754z" fill="#663f3f" stroke="#000000" stroke-width="0.5"/><path d="M123.15386,196.97729c-15.63927,0 -37.27623,-6.57663 -37.27623,-11.84555c0,-9.82636 -1.12394,-19.00657 4.72398,-27.65801c7.62917,-11.28662 23.92604,-20.80106 37.52239,-20.80106c18.62381,0 36.55876,14.35149 41.72213,34.4256c1.4956,5.81457 -2.06437,18.36986 -2.06437,23.45607c0,0 -20.60964,2.42294 -44.62791,2.42294z" fill="#d87700" stroke="#929292" stroke-width="1"/><path d="M113.86225,173.89561c0,3.94586 -2.96696,7.1446 -6.62687,7.1446c-3.65993,0 -6.62687,-3.19875 -6.62687,-7.1446c0,-3.94586 2.96696,-7.1446 6.62687,-7.1446c3.65993,0 6.62687,3.19875 6.62687,7.1446z" fill="#fff68e" stroke="#fff68e" stroke-width="2"/><path d="M154.03767,177.20904c0,3.94586 -2.96696,7.1446 -6.62687,7.1446c-3.65993,0 -6.62687,-3.19876 -6.62687,-7.1446c0,-3.94584 2.96696,-7.1446 6.62687,-7.1446c3.65993,0 6.62687,3.19876 6.62687,7.1446z" fill="#fff68e" stroke="#fff68e" stroke-width="2"/><path d="M105.43145,174.10846c0,-0.68622 0.5563,-1.24254 1.24254,-1.24254c0.68624,0 1.24254,0.55631 1.24254,1.24254c0,0.68622 -0.5563,1.24254 -1.24254,1.24254c-0.68624,0 -1.24254,-0.55631 -1.24254,-1.24254z" fill="#000000" stroke="none" stroke-width="0.5"/><path d="M145.74622,178.38392c0,-0.90457 0.7333,-1.63789 1.63789,-1.63789c0.90457,0 1.63789,0.7333 1.63789,1.63789c0,0.90457 -0.7333,1.63789 -1.63789,1.63789c-0.90457,0 -1.63789,-0.7333 -1.63789,-1.63789z" fill="#000000" stroke="none" stroke-width="0.5"/><path d="M157.01434,211.08543c-4.0738,3.60152 -18.53015,10.28214 -35.31376,8.46769c-16.78361,-1.81444 -27.65733,-10.22983 -30.68377,-14.54137c-1.61665,-3.59534 -7.10962,-16.62849 -4.77714,-17.60464c2.45852,-1.0289 8.36429,14.84289 15.20876,17.35158c8.12921,2.97958 16.14796,4.73075 22.50355,5.41782c5.98398,0.64691 19.42173,-0.67932 28.92337,-3.45792c6.56571,-3.93286 11.55306,-14.02376 13.86217,-13.20946c2.64934,0.93428 -7.23557,15.37835 -9.72321,17.57629z" fill="#d87700" stroke="#929292" stroke-width="1"/><path d="M140.21495,190.49537c0,5.92662 -5.88695,4.34888 -12.49197,4.34888c-6.60502,0 -13.02448,0.11164 -13.02448,-4.34888c0,-2.66396 0.86964,-8.6638 4.12108,-11.20593c2.1928,-1.71443 6.06557,-0.9532 8.7259,-0.9532c2.47662,0 6.62735,-0.41619 8.62957,0.92926c3.33759,2.24278 4.0399,7.52551 4.0399,11.22989z" fill="#ba6600" stroke="#000000" stroke-width="0"/><path d="M130.63408,180.96044c0,1.79831 -1.63275,3.25614 -3.64685,3.25614c-2.0141,0 -3.64685,-1.45782 -3.64685,-3.25614c0,-1.79831 1.63275,-3.25612 3.64685,-3.25612c2.0141,0 3.64685,1.45782 3.64685,3.25612z" fill="#bdc29f" stroke="none" stroke-width="0"/><path d="M105.64015,206.36074c0,0 0.7954,-3.28827 2.11372,-3.01052c1.37217,0.2891 0.36806,3.59826 0.36806,3.59826z" fill="#ffffff" stroke="none" stroke-width="0"/><path d="M100.39457,204.28577c0,0 1.04531,-3.21758 2.33844,-2.83951c1.34596,0.39351 0.09097,3.61589 0.09097,3.61589z" fill="#ffffff" stroke="none" stroke-width="0"/><path d="M96.04894,200.3176c0,0 2.39688,-2.38755 3.37558,-1.46167c1.01869,0.9637 -1.56704,3.25996 -1.56704,3.25996z" fill="#ffffff" stroke="none" stroke-width="0"/><path d="M111.15134,207.28599c0,0 0.74231,-7.4234 2.06493,-6.84656c1.37665,0.60039 0.426,8.07832 0.426,8.07832z" fill="#ffffff" stroke="none" stroke-width="0"/><path d="M116.55712,209.46196c0,0 0.5308,-3.34121 1.86705,-3.16941c1.39085,0.17882 0.65368,3.55747 0.65368,3.55747z" fill="#ffffff" stroke="none" stroke-width="0"/><path d="M122.40783,210.50885c0,0 0.16398,-3.37914 1.51099,-3.3538c1.40205,0.02637 1.03701,3.46518 1.03701,3.46518z" fill="#ffffff" stroke="none" stroke-width="0"/><path d="M129.39684,210.84284c0,0 -0.31496,-3.36842 1.02213,-3.5336c1.39172,-0.17193 1.51604,3.28397 1.51604,3.28397z" fill="#ffffff" stroke="none" stroke-width="0"/><path d="M135.60163,210.22304c0,0 -0.62861,-8.15686 0.68719,-8.86724c1.36954,-0.73939 1.81655,7.67491 1.81655,7.67491z" fill="#ffffff" stroke="none" stroke-width="0"/><path d="M141.22429,209.14069c0,0 -0.5208,-3.34279 0.80364,-3.58961c1.37857,-0.2569 1.71448,3.18488 1.71448,3.18488z" fill="#ffffff" stroke="none" stroke-width="0"/><path d="M146.69011,208.33993c0,0 -0.77375,-3.29345 0.52808,-3.64037c1.35502,-0.36109 1.95193,3.04514 1.95193,3.04514z" fill="#ffffff" stroke="none" stroke-width="0"/><path d="M152.14431,207.31751c0,0 -1.5578,-3.00313 -0.3808,-3.65871c1.2251,-0.68237 2.63911,2.47345 2.63911,2.47345z" fill="#ffffff" stroke="none" stroke-width="0"/><path d="M156.90687,204.43244c0,0 -2.48458,-2.29617 -1.59994,-3.3123c0.92078,-1.05766 3.32193,1.43094 3.32193,1.43094z" fill="#ffffff" stroke="none" stroke-width="0"/><path d="M92.96644,196.26214c0,0 2.56541,-2.20549 3.47363,-1.21037c0.94533,1.03577 -1.8017,3.13636 -1.8017,3.13636z" fill="#ffffff" stroke="none" stroke-width="0"/><path d="M159.97417,200.6372c0,0 -2.74211,-1.98151 -1.98575,-3.09644c0.78725,-1.16047 3.46961,1.0221 3.46961,1.0221z" fill="#ffffff" stroke="none" stroke-width="0"/><path d="M167.37368,138.53539c-1.2528,5.9132 -4.4473,10.24517 -7.13512,9.6757c-2.68782,-0.56946 -3.85114,-5.82469 -2.59834,-11.73788c1.2528,-5.9132 4.4473,-10.24517 7.13512,-9.6757c2.68782,0.56946 3.85114,5.82469 2.59834,11.73788z" fill="#d87700" stroke="#000000" stroke-width="0.5"/><path d="M164.11469,129.2707c1.9319,0.4036 2.77816,4.17622 1.89023,8.42636c-0.88793,4.25014 -3.17384,7.36838 -5.10574,6.96478c-1.9319,-0.4036 -2.77818,-4.17622 -1.89025,-8.42636c0.88793,-4.25014 3.17386,-7.36838 5.10574,-6.96478z" data-paper-data="{&quot;index&quot;:null}" fill="#bab9b9" stroke="#000000" stroke-width="0.5"/><path d="M91.98807,135.67378c3.95463,5.56674 5.10925,11.53668 2.57891,13.33424c-2.53034,1.79756 -7.78744,-1.25796 -11.74207,-6.82471c-3.95463,-5.56674 -5.10925,-11.53668 -2.57891,-13.33424c2.53034,-1.79756 7.78744,1.25796 11.74207,6.82471z" fill="#d87700" stroke="#000000" stroke-width="0.5"/><path d="M90.99692,136.58139c2.84073,3.99874 3.67013,8.28714 1.85251,9.57837c-1.81761,1.29123 -5.59395,-0.90364 -8.43466,-4.90238c-2.84073,-3.99874 -3.67013,-8.28714 -1.85251,-9.57837c1.81761,-1.29123 5.59395,0.90362 8.43466,4.90238z" fill="#bab9b9" stroke="#000000" stroke-width="0.5"/><path d="M154.3972,195.69542c0,0 0.02765,3.383 -1.31865,3.434c-1.4013,0.05307 -1.23158,-3.40089 -1.23158,-3.40089z" fill="#ffffff" stroke="none" stroke-width="0"/><path d="M149.64351,196.07994c0,0 0.22154,3.37585 -1.11962,3.50393c-1.39596,0.13332 -1.42451,-3.3247 -1.42451,-3.3247z" fill="#ffffff" stroke="none" stroke-width="0"/><path d="M144.98399,196.07994c0,0 0.22154,3.37585 -1.11962,3.50393c-1.39596,0.13332 -1.42451,-3.3247 -1.42451,-3.3247z" fill="#ffffff" stroke="none" stroke-width="0"/><path d="M140.32446,196.54589c0,0 0.22154,3.37585 -1.11962,3.50393c-1.39596,0.13332 -1.42451,-3.3247 -1.42451,-3.3247z" fill="#ffffff" stroke="none" stroke-width="0"/><path d="M134.57772,196.7012c0,0 0.22154,7.71077 -1.11962,8.00332c-1.39596,0.30452 -1.42451,-7.59393 -1.42451,-7.59393z" fill="#ffffff" stroke="none" stroke-width="0"/><path d="M128.86509,196.57102c0,0 0.15532,3.37955 -1.18808,3.48131c-1.3983,0.10594 -1.35908,-3.35198 -1.35908,-3.35198z" fill="#ffffff" stroke="none" stroke-width="0"/><path d="M123.21519,196.49067c0,0 -0.0368,3.38291 -1.38381,3.40824c-1.40205,0.02638 -1.16658,-3.42373 -1.16658,-3.42373z" fill="#ffffff" stroke="none" stroke-width="0"/><path d="M118.18923,196.79587c0,0 -0.2398,7.8823 -1.58591,7.75249c-1.40112,-0.13508 -0.95895,-8.14621 -0.95895,-8.14621z" fill="#ffffff" stroke="none" stroke-width="0"/><path d="M113.26488,196.29921c0,0 -0.33903,3.36608 -1.68292,3.27092c-1.39881,-0.09905 -0.85588,-3.5143 -0.85588,-3.5143z" fill="#ffffff" stroke="none" stroke-width="0"/><path d="M108.3919,195.14725c0,0 -0.56066,3.33634 -1.89534,3.1526c-1.38921,-0.19124 -0.62185,-3.56317 -0.62185,-3.56317z" fill="#ffffff" stroke="none" stroke-width="0"/><path d="M103.90031,194.25011c0,0 -0.99185,3.23446 -2.29107,2.87787c-1.35231,-0.37115 -0.15088,-3.61389 -0.15088,-3.61389z" fill="#ffffff" stroke="none" stroke-width="0"/><path d="M100.19864,193.66485c0,0 -1.07025,3.20937 -2.36041,2.82127c-1.34287,-0.40394 -0.06289,-3.61648 -0.06289,-3.61648z" fill="#ffffff" stroke="none" stroke-width="0"/></g><g fill="#000000" stroke="none" stroke-width="0.5"><path d="M124.71082,170.54254c-1.51749,-0.75873 -0.75873,-2.27622 -0.75873,-2.27622l0.29568,-0.50104c0.97203,-3.47256 4.18365,-5.58682 6.17237,-8.58844c0,0 0.9411,-1.41165 2.35275,-0.47055c0.14104,0.09403 0.2586,0.19275 0.35595,0.29429c0.05483,-0.29032 0.15453,-0.48967 0.15453,-0.48967l0.24504,-0.08956c0,-2.52548 -0.26372,-5.74371 1.06852,-8.04645c2.00678,-3.46871 6.68654,-4.62646 9.02623,-7.81673c0,0 1.01796,-1.35728 2.37523,-0.33932c1.35728,1.01796 0.33932,2.37523 0.33932,2.37523c-2.20464,2.88876 -7.06193,4.36249 -8.78803,7.45264c-0.98353,1.76078 -0.62808,4.46239 -0.62808,6.37462l-0.60326,1.60703c0,0 -0.75873,1.51749 -2.27622,0.75873c-0.22478,-0.11238 -0.39962,-0.24143 -0.53438,-0.37972c-0.08456,0.38207 -0.26428,0.65165 -0.26428,0.65165c-1.51531,2.26043 -5.18028,4.91321 -5.7038,7.52922l-0.55262,1.19556c0,0 -0.75873,1.51749 -2.27622,0.75873z"/><path d="M138.19403,170.72165c-1.6966,0 -1.6966,-1.6966 -1.6966,-1.6966l0.17911,-1.18288c0.61763,-1.14754 0.43837,-4.76452 1.05374,-5.40668c1.56723,-1.63547 7.87212,-1.46861 10.00196,-2.19166c3.15543,-1.07125 6.25623,-4.9146 8.19123,-7.5061c0,0 1.01796,-1.35728 2.37523,-0.33932c1.35728,1.01796 0.33932,2.37523 0.33932,2.37523c-2.35489,3.12742 -5.83556,7.24827 -9.62302,8.61157c-1.92026,0.69119 -3.94007,1.11989 -5.96333,1.38746c-0.89344,0.11815 -1.9698,-0.7179 -2.69727,-0.18593c-0.73417,0.53685 0.55764,1.82449 0.33917,2.70736c-0.18313,0.74004 -0.65468,1.37703 -0.98202,2.06554l0.17911,-0.33459c0,0 0,1.6966 -1.6966,1.6966z"/><path d="M154.31169,170.2975c0,-1.6966 1.6966,-1.6966 1.6966,-1.6966l-0.33459,0.17911c3.64208,-1.79895 5.48241,-3.78429 8.79298,-5.87543c0,0 1.45481,-0.8729 2.32771,0.58193c0.8729,1.45481 -0.58193,2.32771 -0.58193,2.32771c-3.12854,1.73597 -5.55824,4.24353 -9.02128,6.00074l-1.18288,0.17911c0,0 -1.6966,0 -1.6966,-1.6966z"/><path d="M153.11203,184.6458c-1.19968,-1.19968 0,-2.39934 0,-2.39934l0.42415,-0.42415c3.70428,-3.65766 8.63817,-7.05473 12.98305,-9.9674c0,0 1.41165,-0.9411 2.35275,0.47055c0.9411,1.41165 -0.47055,2.35275 -0.47055,2.35275c-4.13046,2.73664 -9.00896,6.03087 -12.46589,9.54345l-0.42415,0.42415c0,0 -1.19968,1.19968 -2.39934,0z"/><path d="M146.74979,189.88112c1.19968,-1.19968 2.39934,0 2.39934,0l-0.98148,0.47272c2.71991,-1.07878 5.78524,-0.44778 8.23606,-1.33224c3.87767,-1.39937 6.71592,-3.38912 9.30763,-6.63535c0,0 1.05986,-1.32482 2.38467,-0.26496c1.32482,1.05986 0.26496,2.38467 0.26496,2.38467c-2.95187,3.68285 -6.53278,6.36777 -11.05152,7.78571c-2.61052,0.81917 -5.14754,0.10843 -7.8816,1.21266l-2.67808,-1.22387c0,0 -1.19968,-1.19968 0,-2.39934z"/><path d="M134.80084,214.409c0,-1.6966 1.6966,-1.6966 1.6966,-1.6966h0.8483c6.25654,0.04157 10.9981,-4.66564 17.39011,-4.66564c0,0 1.6966,0 1.6966,1.6966c0,1.6966 -1.6966,1.6966 -1.6966,1.6966c-6.25732,0 -11.00076,4.63076 -17.39011,4.66564h-0.8483c0,0 -1.6966,0 -1.6966,-1.6966z"/><path d="M142.79126,157.61056c-0.1311,0.50238 -0.51337,1.23492 -1.62819,1.23492c-1.6966,0 -1.6966,-1.6966 -1.6966,-1.6966l0.67864,-1.78143c1.56145,-1.1491 4.15708,-3.13229 4.46181,-4.9923c0,0 0.41149,-1.64594 2.05743,-1.23446c1.64594,0.41149 1.23446,2.05743 1.23446,2.05743c-0.78678,2.66408 -2.89482,4.67429 -5.10755,6.41244z"/><path d="M128.61773,190.14294c-0.75873,-1.51749 0.75873,-2.27622 0.75873,-2.27622l2.27022,-1.01728c0.65183,0.13988 1.26724,0.37232 1.86726,0.62077c-0.07092,-0.41185 0.0141,-0.90914 0.51139,-1.40643c1.19968,-1.19968 2.39934,0 2.39934,0l0.72204,0.90468c1.628,-0.14289 3.2309,-0.12914 4.86468,-0.12914c0,0 1.6966,0 1.6966,1.6966c0,1.6966 -1.6966,1.6966 -1.6966,1.6966c-0.9948,0 -1.98212,-0.00762 -2.96918,-0.0263c0.00008,0.00872 0.00014,0.01747 0.00014,0.0263c0,1.6966 -1.6966,1.6966 -1.6966,1.6966c-2.32985,-0.06673 -3.21537,-0.95878 -5.3288,-1.70672l-1.12298,0.67932c0,0 -1.51749,0.75873 -2.27622,-0.75873z"/><path d="M131.48043,185.91825c-1.19968,-1.19968 0,-2.39934 0,-2.39934l0.99575,-0.90868c0.59959,-2.99617 2.07,-5.53494 2.79949,-8.48271c0,0 0.41149,-1.64594 2.05743,-1.23446c1.64594,0.41149 1.23446,2.05743 1.23446,2.05743c-0.80917,3.20823 -2.24404,6.13574 -3.1386,9.33155l-1.54914,1.63621c0,0 -1.19968,1.19968 -2.39934,0z"/><path d="M133.37806,169.59903c0.22972,0.46076 0.37211,1.17946 -0.34658,1.89815c-1.19968,1.19968 -2.39934,0 -2.39934,0l-0.74196,-2.38256c1.27637,-2.55273 1.77685,-5.16622 3.711,-7.22731c0,0 1.19968,-1.19968 2.39934,0c1.19968,1.19968 0,2.39934 0,2.39934c-1.30365,1.16617 -1.88363,3.43683 -2.62246,5.31238z"/><path d="M124.2699,154.53122c-1.19968,-1.19968 0,-2.39934 0,-2.39934l1.09576,-1.06478c2.38124,-4.86502 6.17641,-8.32813 9.93211,-12.08384c0,0 1.19968,-1.19968 2.39934,0c1.19968,1.19968 0,2.39934 0,2.39934c-3.66638,3.66638 -7.18325,6.9656 -9.57874,11.66851l-1.44913,1.48011c0,0 -1.19968,1.19968 -2.39934,0z"/></g><g data-paper-data="{&quot;index&quot;:null}" fill="#000000" stroke="none" stroke-width="0.5"><path d="M127.77172,168.51134l-0.55262,-1.19556c-0.5235,-2.616 -4.18847,-5.26878 -5.7038,-7.5292c0,0 -0.17972,-0.26956 -0.26428,-0.65163c-0.13476,0.13829 -0.30959,0.26733 -0.53438,0.37972c-1.51749,0.75873 -2.27622,-0.75873 -2.27622,-0.75873l-0.60326,-1.60703c0,-1.91223 0.35545,-4.61384 -0.62808,-6.37462c-1.72608,-3.09015 -6.58337,-4.56388 -8.78803,-7.45264c0,0 -1.01796,-1.35728 0.33932,-2.37523c1.35728,-1.01796 2.37523,0.33932 2.37523,0.33932c2.33969,3.19028 7.01943,4.34804 9.02623,7.81673c1.33224,2.30274 1.06852,5.52096 1.06852,8.04645l0.24504,0.08956c0,0 0.09968,0.19935 0.15451,0.48967c0.09735,-0.10154 0.21491,-0.20027 0.35595,-0.29429c1.41165,-0.9411 2.35275,0.47055 2.35275,0.47055c1.98873,3.00162 5.20036,5.11588 6.17239,8.58844l0.29568,0.50104c0,0 0.75873,1.51749 -0.75873,2.27622c-1.51749,0.75873 -2.27622,-0.75873 -2.27622,-0.75873z"/><path d="M114.86812,167.75261l0.17911,0.33459c-0.32734,-0.68851 -0.79889,-1.32548 -0.98202,-2.06554c-0.21847,-0.88289 1.07332,-2.17052 0.33917,-2.70738c-0.72748,-0.53195 -1.80382,0.30408 -2.69727,0.18593c-2.02326,-0.26755 -4.04307,-0.69625 -5.96333,-1.38744c-3.78746,-1.3633 -7.26813,-5.48414 -9.62302,-8.61157c0,0 -1.01796,-1.35728 0.33932,-2.37523c1.35728,-1.01796 2.37523,0.33932 2.37523,0.33932c1.93498,2.5915 5.0358,6.43485 8.19123,7.5061c2.12984,0.72307 8.43471,0.5562 10.00196,2.19166c0.61537,0.64216 0.43611,4.25913 1.05372,5.40666l0.17911,1.18288c0,0 0,1.6966 -1.6966,1.6966c-1.6966,0 -1.6966,-1.6966 -1.6966,-1.6966z"/><path d="M98.75046,170.72165l-1.18288,-0.17911c-3.46304,-1.75722 -5.89275,-4.26478 -9.02129,-6.00074c0,0 -1.45481,-0.87288 -0.58192,-2.32771c0.8729,-1.45481 2.32771,-0.58193 2.32771,-0.58193c3.31057,2.09114 5.1509,4.0765 8.79298,5.87543l-0.3346,-0.17911c0,0 1.6966,0 1.6966,1.6966c0,1.6966 -1.6966,1.6966 -1.6966,1.6966z"/><path d="M99.2474,183.37335l-0.42415,-0.42415c-3.45693,-3.51258 -8.33543,-6.80681 -12.46589,-9.54345c0,0 -1.41165,-0.9411 -0.47055,-2.35275c0.9411,-1.41165 2.35275,-0.47055 2.35275,-0.47055c4.34486,2.91268 9.27877,6.30976 12.98305,9.96742l0.42415,0.42415c0,0 1.19968,1.19968 0,2.39934c-1.19968,1.19968 -2.39936,0 -2.39936,0z"/><path d="M108.00897,191.00803l-2.67808,1.22387c-2.73406,-1.10423 -5.27109,-0.39349 -7.8816,-1.21266c-4.51873,-1.41795 -8.09963,-4.10284 -11.05152,-7.78571c0,0 -1.05986,-1.32482 0.26496,-2.38467c1.32482,-1.05986 2.38467,0.26496 2.38467,0.26496c2.59172,3.24623 5.42997,5.23598 9.30763,6.63535c2.45082,0.88445 5.51614,0.25344 8.23606,1.33224l-0.98148,-0.47272c0,0 1.19968,-1.19968 2.39936,0c1.19968,1.19968 0,2.39934 0,2.39934z"/><path d="M118.26132,214.83315h-0.8483c-6.38935,-0.0349 -11.13277,-4.66564 -17.39011,-4.66564c0,0 -1.6966,0 -1.6966,-1.6966c0,-1.6966 1.6966,-1.6966 1.6966,-1.6966c6.39201,0 11.13357,4.70721 17.39011,4.66564h0.8483c0,0 1.6966,0 1.6966,1.6966c0,1.6966 -1.6966,1.6966 -1.6966,1.6966z"/><path d="M106.85995,149.92569c0,0 -0.41149,-1.64594 1.23446,-2.05743c1.64595,-0.41148 2.05743,1.23446 2.05743,1.23446c0.30471,1.86001 2.90036,3.84318 4.46181,4.99228l0.67864,1.78143c0,0 0,1.6966 -1.6966,1.6966c-1.1148,0 -1.49709,-0.73252 -1.62819,-1.23492c-2.21272,-1.73815 -4.32077,-3.74836 -5.10755,-6.41242z"/><path d="M123.86482,189.62925l-1.12298,-0.67932c-2.11345,0.74794 -2.99895,1.64 -5.32882,1.70672c0,0 -1.6966,0 -1.6966,-1.6966c0,-0.00881 0.00005,-0.01758 0.00015,-0.02628c-0.98706,0.01868 -1.9744,0.02628 -2.9692,0.02628c0,0 -1.6966,0 -1.6966,-1.6966c0,-1.6966 1.6966,-1.6966 1.6966,-1.6966c1.63377,0 3.23668,-0.01374 4.86468,0.12914l0.72202,-0.90468c0,0 1.19968,-1.19968 2.39936,0c0.49729,0.49729 0.58231,0.99458 0.51139,1.40641c0.60002,-0.24845 1.21542,-0.48088 1.86726,-0.62077l2.27022,1.01728c0,0 1.51749,0.75873 0.75873,2.27622c-0.75875,1.51749 -2.27622,0.75873 -2.27622,0.75873z"/><path d="M120.879,184.6458l-1.54914,-1.6362c-0.89456,-3.19583 -2.32943,-6.12334 -3.1386,-9.33157c0,0 -0.41149,-1.64594 1.23446,-2.05741c1.64595,-0.41148 2.05743,1.23444 2.05743,1.23444c0.72947,2.94775 2.19989,5.48654 2.79949,8.48271l0.99575,0.9087c0,0 1.19968,1.19968 0,2.39934c-1.19968,1.19968 -2.39936,0 -2.39936,0z"/><path d="M118.75825,163.0142c0,0 -1.19968,-1.19968 0,-2.39934c1.19968,-1.19966 2.39936,0 2.39936,0c1.93415,2.06109 2.43463,4.67458 3.711,7.22731l-0.74196,2.38256c0,0 -1.19968,1.19966 -2.39936,0c-0.7187,-0.7187 -0.57628,-1.43739 -0.34656,-1.89815c-0.73885,-1.87555 -1.31881,-4.14621 -2.62248,-5.31238z"/><path d="M128.08953,153.25877l-1.44911,-1.48011c-2.39551,-4.70291 -5.91238,-8.00215 -9.57876,-11.66851c0,0 -1.19968,-1.19968 0,-2.39934c1.19968,-1.19966 2.39936,0 2.39936,0c3.7557,3.7557 7.55087,7.2188 9.93209,12.08384l1.09578,1.06478c0,0 1.19968,1.19968 0,2.39934c-1.19968,1.19966 -2.39936,0 -2.39936,0z"/></g></g><g><g><path d="M66.76086,368.30636c0,0 0.2397,1.84654 -1.84337,2.01366c-2.0831,0.16713 -2.32279,-1.67939 -2.32279,-1.67939l-0.31625,-2.43629c-0.38011,-3.06821 0.31731,-4.87547 -1.5265,-7.57123c0,0 -1.08582,-1.60898 0.70796,-2.53029c1.79379,-0.9213 2.87963,0.6877 2.87963,0.6877c2.19933,3.29499 1.61664,5.51272 2.10512,9.07955l0.31625,2.43629z" data-paper-data="{&quot;index&quot;:null}" fill="#bdc29f" stroke="none" stroke-width="0.5"/><path d="M56.82725,373.35303c-2.40163,-0.05477 -2.39805,-2.17767 -2.39805,-2.17767l0.00473,-2.80091c0.02669,-3.52527 1.09351,-5.49368 -0.6056,-8.76811c0,0 -0.99739,-1.95266 1.18735,-2.78737c2.18472,-0.83473 3.1821,1.11795 3.1821,1.11795c2.01479,3.99596 1.01726,6.44347 1.0394,10.54709l-0.00473,2.80091c0,0 -0.00358,2.1229 -2.40521,2.06813z" fill="#bdc29f" stroke="none" stroke-width="0.5"/><path d="M47.16899,374.07265c-2.40163,-0.05477 -2.39805,-2.17767 -2.39805,-2.17767l0.07494,-1.91371c1.1735,-4.09801 2.44306,-8.13165 3.14323,-12.32546c0,0 0.3513,-2.09258 2.72711,-1.73102c2.37579,0.3616 2.02451,2.45418 2.02451,2.45418c-0.73147,4.33468 -2.02365,8.50219 -3.23671,12.73833l0.07022,0.88722c0,0 -0.00358,2.1229 -2.40521,2.06813z" fill="#bdc29f" stroke="none" stroke-width="0.5"/><path d="M39.02528,370.00027c-2.32905,-0.56802 -1.74308,-2.61423 -1.74308,-2.61423l0.86733,-2.58229c2.4903,-3.3613 2.64033,-7.30892 5.05083,-10.67702c0,0 1.29238,-1.76159 3.31664,-0.57567c2.02424,1.18592 0.73184,2.94753 0.73184,2.94753c-2.44254,3.21888 -2.59433,7.30106 -5.05083,10.67702l-0.2577,1.34645c0,0 -0.58595,2.04621 -2.91501,1.47821z" fill="#bdc29f" stroke="none" stroke-width="0.5"/><path d="M33.5847,359.48474c-2.32905,-0.56802 -1.74308,-2.61423 -1.74308,-2.61423l0.18751,-0.6548c1.74183,-5.9303 4.88543,-9.14121 10.99832,-11.60882c0,0 2.16435,-0.87361 3.20523,1.06198c1.04088,1.93558 -1.12347,2.80919 -1.12347,2.80919c-4.79789,1.93638 -7.08612,4.05532 -8.42195,8.87367l-0.18751,0.6548c0,0 -0.58595,2.04621 -2.91501,1.47821z" fill="#bdc29f" stroke="none" stroke-width="0.5"/><path d="M53.02175,339.81544l1.94898,-3.55596l8.72166,3.8792l-1.94896,3.55598z" fill="#663f3f" stroke="#000000" stroke-width="0.5"/><path d="M47.40799,340.16185l1.94902,-3.55598l8.72166,3.8792l-1.949,3.55598z" fill="#663f3f" stroke="#000000" stroke-width="0.5"/><path d="M60.07072,339.1596l1.94895,-3.55595l8.72167,3.87918l-1.94902,3.55598z" fill="#663f3f" stroke="#000000" stroke-width="0.5"/><path d="M57.21674,344.36661l1.949,-3.55598l8.72171,3.87916l-1.94902,3.55598z" fill="#663f3f" stroke="#000000" stroke-width="0.5"/><path d="M50.33143,334.82782l1.949,-3.55598l8.72171,3.8792l-1.94902,3.55598z" fill="#663f3f" stroke="#000000" stroke-width="0.5"/><path d="M51.64609,346.94355l8.07439,-14.73195l4.65157,2.0689l-8.07437,14.73193z" fill="#663f3f" stroke="#000000" stroke-width="0.5"/><path d="M63.29849,355.61908c-2.47554,6.73131 -8.15067,4.76189 -13.78036,2.75244c-5.62968,-2.00945 -9.6263,-3.48415 -6.60656,-10.02933c3.6089,-7.82216 8.53042,-8.8724 14.1601,-6.86295c5.62968,2.00945 8.80915,7.1181 6.22683,14.13982z" fill="#d87700" stroke="#000000" stroke-width="0"/><path d="M61.15525,352.58504c-1.08112,3.77535 -5.37775,6.00176 -9.59681,4.97284c-4.21908,-1.02895 -6.76287,-4.92361 -5.68175,-8.69896c1.08112,-3.77535 5.37775,-6.00176 9.59681,-4.97284c4.21908,1.02895 6.76287,4.92361 5.68175,8.69896z" fill="#cbc700" stroke="#000000" stroke-width="0"/><path d="M76.62088,247.32036l4.5585,-3.94l9.78854,8.84515l-4.5585,3.94002z" fill="#663f3f" stroke="#000000" stroke-width="0.5"/><path d="M78.58462,254.27581l4.55855,-3.94l9.78853,8.84515l-4.5585,3.94002z" fill="#663f3f" stroke="#000000" stroke-width="0.5"/><path d="M74.49192,238.48868l4.5585,-3.94002l9.78853,8.84517l-4.55848,3.94z" fill="#663f3f" stroke="#000000" stroke-width="0.5"/><path d="M67.81692,244.25803l4.5585,-3.94002l9.78853,8.84517l-4.55853,3.94006z" fill="#663f3f" stroke="#000000" stroke-width="0.5"/><path d="M85.42245,248.36579l4.55853,-3.94006l9.78853,8.84519l-4.5585,3.94002z" fill="#663f3f" stroke="#000000" stroke-width="0.5"/><path d="M70.92741,256.27924l18.88532,-16.32293l5.22054,4.71742l-18.8853,16.32295z" fill="#663f3f" stroke="#000000" stroke-width="0.5"/><path d="M80.77068,305.35491c-2.28231,25.8662 -9.20882,35.3669 -18.70059,34.33274c-9.49178,-1.03416 -17.12089,-11.16425 -14.83856,-37.03046c1.20786,-13.68912 6.37406,-35.51724 11.03639,-46.7857c4.14735,-10.02379 7.59875,-10.3405 12.06721,-9.85363c5.32899,0.58061 10.66879,0.50523 12.18183,14.16252c1.18188,10.66837 -0.74531,33.83053 -1.74626,45.17452z" fill="#d87700" stroke="#929292" stroke-width="1"/></g><path d="M66.17606,267.57903c-1.19968,1.19968 -2.39934,0 -2.39934,0l-0.88812,-1.29109c-0.87404,-4.37245 -2.28689,-8.38632 -3.37548,-12.64571c0,0 -0.41149,-1.64594 1.23446,-2.05743c1.64594,-0.41149 2.05743,1.23446 2.05743,1.23446c1.04439,4.29563 2.52918,8.397 3.4109,12.80323l-0.03982,-0.44279c0,0 1.19968,1.19968 0,2.39934z" fill="#000000" stroke="none" stroke-width="0.5"/><path d="M61.58318,287.16265c-1.61082,0 -1.69225,-1.5294 -1.69638,-1.68402c-2.95634,-5.50786 -4.63812,-14.9603 -4.66586,-21.22002c0,0 0,-1.6966 1.6966,-1.6966c1.6966,0 1.6966,1.6966 1.6966,1.6966c-0.02502,4.63435 1.4825,9.97303 2.87721,14.2946c0.82003,2.54089 0.12366,3.40005 1.54665,5.6158l0.24178,1.29705c0,0 0,1.6966 -1.6966,1.6966z" fill="#000000" stroke="none" stroke-width="0.5"/><path d="M58.11723,305.32829c-1.19968,1.19968 -2.39934,0 -2.39934,0l-1.28585,-1.6031c-0.91514,-3.37178 -2.70858,-6.91203 -3.40717,-10.23465c-0.81177,-3.86086 -0.04538,-9.15527 -0.04538,-13.11426c0,0 0,-1.6966 1.6966,-1.6966c1.6966,0 1.6966,1.6966 1.6966,1.6966c0,3.63557 -0.82244,8.78874 -0.04538,12.33468c0.72034,3.2871 2.4676,6.77327 3.37921,10.1245l0.41075,0.0935c0,0 1.19968,1.19968 0,2.39934z" fill="#000000" stroke="none" stroke-width="0.5"/><path d="M55.99648,323.99084c-1.19968,1.19968 -2.39934,0 -2.39934,0l-0.58175,-0.60587c-5.9899,-7.99828 -5.22087,-16.06135 -6.26702,-25.43124c0,0 -0.18736,-1.68621 1.49886,-1.87358c1.68621,-0.18736 1.87358,1.49886 1.87358,1.49886c0.96358,8.71267 0.03519,16.34977 5.60915,23.77004l0.26655,0.24243c0,0 1.19968,1.19968 0,2.39934z" fill="#000000" stroke="none" stroke-width="0.5"/><path d="M57.69308,334.17042c-1.19968,1.19968 -2.39934,0 -2.39934,0l-0.79972,-0.99373c-1.70226,-4.26382 -4.65748,-5.9398 -6.36224,-10.17958c0,0 -0.6301,-1.57526 0.94516,-2.20535c1.57526,-0.6301 2.20535,0.94516 2.20535,0.94516c1.61253,4.05039 4.61483,5.81893 6.36224,10.17958l0.04857,-0.14543c0,0 1.19968,1.19968 0,2.39934z" fill="#000000" stroke="none" stroke-width="0.5"/><path d="M71.62356,269.44119c-0.9411,-1.41165 0.47055,-2.35275 0.47055,-2.35275l0.8019,-0.37775c2.27062,-3.40585 4.52747,-6.27065 7.42251,-9.16571c0,0 1.19968,-1.19968 2.39934,0c1.19968,1.19968 0,2.39934 0,2.39934c-2.73909,2.73909 -4.84901,5.42415 -6.99856,8.64855l-1.743,1.31885c0,0 -1.41165,0.9411 -2.35275,-0.47055z" fill="#000000" stroke="none" stroke-width="0.5"/><path d="M69.92696,286.8313c-0.9411,-1.41165 0.47055,-2.35275 0.47055,-2.35275l1.19559,-0.79392c4.3325,-3.0753 8.69434,-10.64802 9.52403,-15.8876c0,0 0.27892,-1.67351 1.95243,-1.39458c1.67351,0.27892 1.39458,1.95243 1.39458,1.95243c-1.09095,6.28723 -5.80394,14.12686 -10.83512,18.04432l-1.3493,0.90267c0,0 -1.41165,0.9411 -2.35275,-0.47055z" fill="#000000" stroke="none" stroke-width="0.5"/><path d="M65.1555,304.46319c-0.75873,-1.51749 0.75873,-2.27622 0.75873,-2.27622l0.58908,-0.26394c2.1949,-1.64268 4.58006,-3.19798 6.81233,-4.68471c1.60484,-1.06886 4.85864,-1.82918 5.87787,-3.70106c0.87292,-1.60316 1.32772,-4.53062 2.0377,-6.19465c0,0 0.66832,-1.55943 2.22773,-0.8911c1.55943,0.66832 0.8911,2.22773 0.8911,2.22773c-0.73415,1.70477 -1.26161,4.92154 -2.20379,6.52982c-2.4477,4.17821 -9.75663,6.53402 -13.60704,9.42849l-1.10752,0.58436c0,0 -1.51749,0.75873 -2.27622,-0.75873z" fill="#000000" stroke="none" stroke-width="0.5"/><path d="M61.15904,322.36702c0,-1.34601 1.06787,-1.62415 1.50919,-1.68163c4.26366,-7.921 11.32759,-14.94235 17.15776,-21.50128c0,0 1.12715,-1.26805 2.3952,-0.1409c1.26805,1.12715 0.1409,2.3952 0.1409,2.3952c-5.8208,6.5484 -13.19385,13.68422 -17.14068,21.68733l-2.36578,0.93786c0,0 -1.6966,0 -1.6966,-1.6966z" fill="#000000" stroke="none" stroke-width="0.5"/><path d="M64.30721,332.03288c-0.75873,-1.51749 0.75873,-2.27622 0.75873,-2.27622l0.40737,-0.10634c4.73386,-4.48198 10.8706,-4.63164 11.82046,-12.61302c0,0 0.23993,-1.67955 1.91948,-1.43961c1.67955,0.23993 1.43961,1.91948 1.43961,1.91948c-0.6007,3.73972 -3.25265,9.53294 -6.88849,11.47157c-1.93319,1.03078 -4.38287,1.40755 -5.8917,3.06095l-1.28923,0.74196c0,0 -1.51749,0.75873 -2.27622,-0.75873z" fill="#000000" stroke="none" stroke-width="0.5"/><path d="M68.31893,279.93944c-0.41149,1.64594 -2.05743,1.23446 -2.05743,1.23446l-2.34671,-0.74667c-1.83165,-3.17584 -2.82638,-4.66986 -2.30851,-8.38872c0,0 0.27892,-1.67351 1.95243,-1.39458c1.67351,0.27892 1.39458,1.95243 1.39458,1.95243c-0.50974,2.44442 0.31614,2.96723 1.08468,5.18405l1.04648,0.10163c0,0 1.64594,0.41149 1.23446,2.05743z" fill="#000000" stroke="none" stroke-width="0.5"/><path d="M68.70091,283.06036c-1.41165,-0.9411 -0.47055,-2.35275 -0.47055,-2.35275l0.74246,-1.09008c0.8909,-1.78063 1.71906,-3.59325 2.50295,-5.42353c0,0 0.66832,-1.55943 2.22773,-0.8911c1.55943,0.66832 0.8911,2.22773 0.8911,2.22773c-0.81092,1.89098 -1.66714,3.76381 -2.58683,5.60435l-0.95413,1.45481c0,0 -0.9411,1.41165 -2.35275,0.47055z" fill="#000000" stroke="none" stroke-width="0.5"/><path d="M62.14654,292.76939c-0.9411,1.41165 -2.35275,0.47055 -2.35275,0.47055l-1.78616,-1.38705c-0.88247,-1.54348 -1.47171,-3.33695 -1.51423,-5.11439c0,0 0,-1.6966 1.6966,-1.6966c1.6966,0 1.6966,1.6966 1.6966,1.6966c-0.04331,1.17345 0.39614,2.38056 1.03067,3.36859l0.75873,0.30954c0,0 1.41165,0.9411 0.47055,2.35275z" fill="#000000" stroke="none" stroke-width="0.5"/><path d="M65.04916,296.42116c-1.19968,-1.19968 0,-2.39934 0,-2.39934l1.29109,-0.88812c3.58089,-0.68736 6.27282,-3.45271 8.25236,-6.48799c0,0 0.9411,-1.41165 2.35275,-0.47055c1.41165,0.9411 0.47055,2.35275 0.47055,2.35275c-2.57034,3.78735 -5.86758,6.99481 -10.41019,7.93308l0.44279,-0.03982c0,0 -1.19968,1.19968 -2.39934,0z" fill="#000000" stroke="none" stroke-width="0.5"/><path d="M58.88565,313.75245c-0.18802,0.46312 -0.6076,0.97989 -1.54394,0.97989c-1.23051,0 -1.56855,-0.89246 -1.66143,-1.38281l-0.8107,-0.8107c-1.2757,-1.41776 -1.70135,-3.53516 -1.76936,-5.44117c0,0 0,-1.6966 1.6966,-1.6966c1.6966,0 1.6966,1.6966 1.6966,1.6966c-0.05816,1.04476 -0.04231,2.3891 0.77553,3.04181l0.42339,0.42339c3.02109,-1.43245 6.08279,-2.77773 9.12691,-4.16143c0,0 1.54453,-0.70205 2.24658,0.84246c0.70205,1.54453 -0.84246,2.24658 -0.84246,2.24658c-3.11493,1.41588 -6.24906,2.79032 -9.33769,4.26197z" fill="#000000" stroke="none" stroke-width="0.5"/><path d="M62.44416,324.53842l1.63374,-0.40715c0.82758,-0.27629 1.65515,-0.5526 2.48273,-0.82889c0,0 1.60953,-0.53651 2.14604,1.07303c0.53651,1.60953 -1.07303,2.14604 -1.07303,2.14604c-0.86901,0.28924 -1.73804,0.57847 -2.60706,0.86771l-1.75945,0.44115c0,0 -0.26764,0.06691 -0.61403,0.03885c-0.07601,0.12024 -0.17288,0.24171 -0.29436,0.36319c-1.19968,1.19968 -2.39934,0 -2.39934,0l0.23902,-0.01429c-0.8483,-0.28277 -1.6966,-0.56553 -2.54489,-0.8483c0,0 -1.60953,-0.53651 -1.07303,-2.14604c0.53651,-1.60953 2.14604,-1.07303 2.14604,-1.07303c0.8483,0.28277 1.6966,0.56553 2.54489,0.8483l0.20108,0.15424c0.38526,-0.46819 0.97166,-0.6148 0.97166,-0.6148z" fill="#000000" stroke="none" stroke-width="0.5"/><path d="M72.0477,258.22771l0.74246,-1.09008c0.28277,-0.56553 0.56553,-1.13107 0.8483,-1.6966c0,0 0.75873,-1.51749 2.27622,-0.75873c1.51749,0.75873 0.75873,2.27622 0.75873,2.27622c-0.28277,0.56553 -0.56553,1.13107 -0.8483,1.6966l-0.95413,1.45481c0,0 -0.74842,1.12264 -1.91155,0.6982c0.13892,0.47364 0.25328,1.44122 -0.86209,1.99891c-1.51749,0.75873 -2.27622,-0.75873 -2.27622,-0.75873l-0.8483,-1.6966c0,0 -0.75873,-1.51749 0.75873,-2.27622c1.13596,-0.56799 1.84674,0.13958 2.13233,0.53127c0.08542,-0.23148 0.18379,-0.37904 0.18379,-0.37904z" fill="#000000" stroke="none" stroke-width="0.5"/></g><g><g><path d="M199.63267,359.38935l-0.12451,-0.66712c-0.87516,-4.90617 -2.85191,-7.17538 -7.19177,-9.42673c0,0 -1.95774,-1.0157 -0.83283,-2.88301c1.12491,-1.86729 3.08263,-0.85161 3.08263,-0.85161c5.52926,2.86893 8.22157,6.28626 9.3902,12.33106l0.12451,0.66712c0,0 0.38913,2.08474 -1.83499,2.49988c-2.2241,0.41514 -2.61325,-1.66959 -2.61325,-1.66959z" data-paper-data="{&quot;index&quot;:null}" fill="#bdc29f" stroke="none" stroke-width="0.5"/><path d="M194.62427,370.33442l-0.13639,-1.3634c-2.03636,-3.5373 -1.86066,-7.62958 -3.89616,-11.00887c0,0 -1.0725,-1.84647 0.91443,-2.89957c1.98693,-1.05311 3.05942,0.79338 3.05942,0.79338c1.99392,3.52644 1.82705,7.48402 3.89616,11.00887l0.61076,2.63929c0,0 0.38913,2.08474 -1.83499,2.49988c-2.2241,0.41514 -2.61325,-1.66959 -2.61325,-1.66959z" data-paper-data="{&quot;index&quot;:null}" fill="#bdc29f" stroke="none" stroke-width="0.5"/><path d="M186.13569,373.8119l0.13479,-0.88264c-0.80558,-4.31587 -1.69057,-8.56834 -2.03775,-12.95114c0,0 -0.16589,-2.11571 2.08588,-2.32135c2.25179,-0.20564 2.4177,1.91004 2.4177,1.91004c0.32885,4.2399 1.20307,8.35699 1.9824,12.53213l-0.07884,1.91866c0,0 -0.16192,2.12319 -2.41398,2.02031c-2.2521,-0.10288 -2.09017,-2.22605 -2.09017,-2.22605z" data-paper-data="{&quot;index&quot;:null}" fill="#bdc29f" stroke="none" stroke-width="0.5"/><path d="M176.92888,372.07864l0.21362,-2.8013c0.34018,-4.10228 -0.40291,-6.61538 1.79391,-10.47916c0,0 1.08552,-1.88726 3.06536,-0.9091c1.97983,0.97816 0.89429,2.8654 0.89429,2.8654c-1.8452,3.163 -0.99994,5.20147 -1.24941,8.7286l-0.21362,2.8013c0,0 -0.16192,2.12319 -2.41398,2.02031c-2.2521,-0.10288 -2.09017,-2.22605 -2.09017,-2.22605z" data-paper-data="{&quot;index&quot;:null}" fill="#bdc29f" stroke="none" stroke-width="0.5"/><path d="M170.56685,367.15472l0.5638,-2.40218c0.84915,-3.51452 0.55038,-5.78191 2.96526,-8.86653c0,0 1.1903,-1.50517 2.76174,-0.41945c1.57142,1.08574 0.38112,2.59091 0.38112,2.59091c-2.01717,2.51953 -1.56609,4.38789 -2.25914,7.41479l-0.56381,2.40218c0,0 -0.42732,1.82069 -2.35179,1.46082c-1.92447,-0.35986 -1.49716,-2.18053 -1.49716,-2.18053z" data-paper-data="{&quot;index&quot;:null}" fill="#bdc29f" stroke="none" stroke-width="0.5"/><path d="M178.80696,341.91489l-0.55477,-3.9466l9.01327,-1.31705l0.55477,3.94659z" fill="#663f3f" stroke="#000000" stroke-width="0.5"/><path d="M174.65697,345.11053l-0.55477,-3.9466l9.01323,-1.31705l0.55479,3.9466z" fill="#663f3f" stroke="#000000" stroke-width="0.5"/><path d="M183.88962,337.71989l-0.55477,-3.94659l9.01325,-1.31707l0.55477,3.9466z" fill="#663f3f" stroke="#000000" stroke-width="0.5"/><path d="M184.70195,343.4989l-0.55477,-3.94662l9.01325,-1.31707l0.55477,3.9466z" fill="#663f3f" stroke="#000000" stroke-width="0.5"/><path d="M173.82477,339.19063l-0.55477,-3.9466l9.01327,-1.31707l0.55477,3.9466z" fill="#663f3f" stroke="#000000" stroke-width="0.5"/><path d="M181.88087,348.51414l-2.29833,-16.35018l4.80708,-0.70242l2.29833,16.35016z" fill="#663f3f" stroke="#000000" stroke-width="0.5"/><path d="M183.06762,342.79955c5.51597,-1.31982 9.93388,0.31918 12.15799,8.53741c1.86101,6.87659 -2.06175,7.86145 -7.57773,9.18127c-5.51597,1.31982 -11.06837,2.5943 -12.39733,-4.40184c-1.38631,-7.29794 2.30113,-11.99704 7.81708,-13.31685z" data-paper-data="{&quot;index&quot;:null}" fill="#d87700" stroke="#000000" stroke-width="0"/><path d="M191.88514,351.21201c0.71797,3.84642 -1.96612,7.57423 -5.99507,8.32627c-4.02896,0.75203 -7.87711,-1.75647 -8.59506,-5.60289c-0.71797,-3.84642 1.96613,-7.57423 5.99507,-8.32627c4.02896,-0.75203 7.87711,1.75647 8.59506,5.60289z" fill="#cbc700" stroke="#000000" stroke-width="0"/><path d="M150.59352,254.5583l-4.50081,-3.73031l8.71838,-9.26906l4.50083,3.73031z" fill="#663f3f" stroke="#000000" stroke-width="0.5"/><path d="M149.12776,261.59086l-4.50081,-3.73031l8.71835,-9.26905l4.50085,3.73029z" fill="#663f3f" stroke="#000000" stroke-width="0.5"/><path d="M152.11197,245.64491l-4.50081,-3.73027l8.71838,-9.26906l4.50081,3.73031z" fill="#663f3f" stroke="#000000" stroke-width="0.5"/><path d="M158.70252,251.10723l-4.50085,-3.73034l8.71838,-9.26908l4.50081,3.73031z" fill="#663f3f" stroke="#000000" stroke-width="0.5"/><path d="M142.89917,256.32934l-4.50081,-3.73031l8.71837,-9.2691l4.50085,3.73034z" fill="#663f3f" stroke="#000000" stroke-width="0.5"/><path d="M160.5043,258.92355l-18.64632,-15.45416l4.64978,-4.94352l18.64632,15.45414z" fill="#663f3f" stroke="#000000" stroke-width="0.5"/><path d="M153.88418,262.48128c-0.41633,-13.68924 4.58931,-14.20636 9.49685,-15.37179c4.11506,-0.97722 7.38642,-1.04619 12.61082,8.41834c5.87316,10.63976 13.63398,31.67835 16.60006,45.09754c5.60454,25.35615 -0.17402,36.23108 -8.9151,38.30686c-8.74108,2.07579 -16.49532,-6.56284 -22.09984,-31.91899c-2.45794,-11.12032 -7.36759,-33.83864 -7.69279,-44.53196z" data-paper-data="{&quot;index&quot;:null}" fill="#d87700" stroke="#929292" stroke-width="1"/></g><path d="M165.74459,267.65934c-1.11726,1.27677 -2.39403,0.15951 -2.39403,0.15951l-1.35422,-1.18504c-3.59266,-3.14383 -5.248,-5.5788 -6.26969,-10.32119c0,0 -0.35106,-1.65988 1.30882,-2.01094c1.65988,-0.35106 2.01094,1.30882 2.01094,1.30882c0.84146,4.06511 2.13615,5.80229 5.18446,8.46976l1.35422,1.18504c0,0 1.27677,1.11726 0.15951,2.39403z" fill="#000000" stroke="none" stroke-width="0.5"/><path d="M167.20804,266.69485c-0.85795,-1.46369 0.60574,-2.32162 0.60574,-2.32162l0.1116,0.3279c1.77941,-4.24273 3.49679,-8.41111 1.98159,-12.98715c0,0 -0.51999,-1.61494 1.09495,-2.13495c1.61494,-0.51999 2.13495,1.09495 2.13495,1.09495c1.71757,5.45549 0.04757,10.26105 -2.08233,15.33952l-1.52485,1.28711c0,0 -1.46369,0.85795 -2.32162,-0.60574z" fill="#000000" stroke="none" stroke-width="0.5"/><path d="M166.52698,278.30738c0.11279,1.69285 -1.58006,1.80564 -1.58006,1.80564l-2.49968,-0.33148c-3.00026,-2.62545 -5.27065,-5.4438 -7.28673,-8.88329c0,0 -0.85795,-1.46369 0.60574,-2.32162c1.46369,-0.85795 2.32162,0.60574 2.32162,0.60574c1.82891,3.12019 3.87228,5.66403 6.59389,8.04563l0.03958,-0.50067c0,0 1.69285,-0.11279 1.80564,1.58006z" fill="#000000" stroke="none" stroke-width="0.5"/><path d="M172.08535,272.41088c-1.69285,0.11279 -1.80564,-1.58006 -1.80564,-1.58006l0.10008,-1.19218c0.48909,-1.16616 0.97817,-2.33231 1.46727,-3.49848c0,0 0.65618,-1.56457 2.22074,-0.90839c1.56457,0.65618 0.90839,2.22074 0.90839,2.22074c-0.38082,0.90802 -0.76165,1.81604 -1.14247,2.72405c1.41566,-2.56802 3.00784,-5.01246 4.83184,-7.40053c0,0 1.02987,-1.34827 2.37814,-0.3184c1.34827,1.02987 0.3184,2.37814 0.3184,2.37814c-3.06112,4.00726 -5.42147,8.1622 -7.40199,12.88658l-0.68281,0.9125c0,0 -1.11726,1.27677 -2.39403,0.15951c-1.27677,-1.11726 -0.15951,-2.39403 -0.15951,-2.39403l0.10722,0.00967c0.59788,-1.42495 1.23039,-2.80442 1.90477,-4.14723c-0.17997,0.07791 -0.39454,0.13105 -0.65037,0.14808z" fill="#000000" stroke="none" stroke-width="0.5"/><path d="M178.18982,298.95482c-0.92548,1.42195 -2.34743,0.49647 -2.34743,0.49647l-1.87591,-1.22603c-1.79021,-1.6007 -4.08832,-2.86443 -6.13666,-4.19137c0,0 -1.02247,-0.66547 -0.76905,-1.73484c-0.0172,0.00183 -0.02652,0.00246 -0.02652,0.00246l-2.01501,0.10358c-4.33307,-1.35504 -7.84112,-2.92929 -8.28278,-7.91925c0,0 -0.11279,-1.69285 1.58006,-1.80564c1.69285,-0.11279 1.80564,1.58006 1.80564,1.58006c0.1,3.14213 2.71121,3.88724 5.31584,4.77758l1.37068,-0.122c0,0 1.69285,-0.11279 1.80564,1.58006c0.0096,0.14421 0.00611,0.27695 -0.00833,0.39914c0.58872,-0.02139 1.07478,0.29495 1.07478,0.29495c2.1333,1.39425 4.42384,2.68882 6.3336,4.32973l1.67897,1.08765c0,0 1.42195,0.92548 0.49647,2.34743z" fill="#000000" stroke="none" stroke-width="0.5"/><path d="M175.98167,289.91529c-0.85795,-1.46369 0.60574,-2.32162 0.60574,-2.32162l0.28382,0.01464c2.63342,-3.78161 4.20226,-6.58486 2.76857,-11.03746c0,0 -0.51999,-1.61494 1.09495,-2.13495c1.61494,-0.51999 2.13495,1.09495 2.13495,1.09495c1.78249,5.53584 0.01712,9.37524 -3.21376,14.01633l-1.35263,0.97385c0,0 -1.46369,0.85795 -2.32162,-0.60574z" fill="#000000" stroke="none" stroke-width="0.5"/><path d="M173.91793,306.29594c0.11279,1.69285 -1.58006,1.80564 -1.58006,1.80564l-0.83715,0.005c-7.91883,-1.43001 -10.52378,-4.63683 -11.04045,-12.39141c0,0 -0.11279,-1.69285 1.58006,-1.80564c1.69285,-0.11279 1.80564,1.58006 1.80564,1.58006c0.41936,6.29422 1.79133,8.1128 8.25706,9.27768l0.00926,-0.05139c0,0 1.69285,-0.11279 1.80564,1.58006z" fill="#000000" stroke="none" stroke-width="0.5"/><path d="M182.83356,306.12699c-0.11279,-1.69285 1.58006,-1.80564 1.58006,-1.80564l1.58652,-0.01844c3.59191,-3.42807 2.52445,-5.91737 1.20032,-9.95698c0,0 -0.51999,-1.61494 1.09495,-2.13495c1.61494,-0.51999 2.13495,1.09495 2.13495,1.09495c1.87352,5.95044 2.23062,9.73763 -3.14557,14.13758l-2.64559,0.26353c0,0 -1.69285,0.11279 -1.80564,-1.58006z" fill="#000000" stroke="none" stroke-width="0.5"/><path d="M185.78677,329.21714c1.03287,1.34596 -0.31311,2.37883 -0.31311,2.37883l-1.7261,1.19999c-2.14192,0.64389 -3.73202,0.28761 -5.90894,0.44446c0,0 -1.69285,0.11279 -1.80564,-1.58006c-0.04264,-0.63999 0.1728,-1.05416 0.45727,-1.32177c-7.14201,-0.95769 -12.13711,-8.38765 -12.64504,-15.71995c0,0 -0.11279,-1.69285 1.58006,-1.80564c1.69285,-0.11279 1.80564,1.58006 1.80564,1.58006c0.4288,6.73491 5.73494,14.39022 13.24064,12.3286l-0.43916,0.06917c0,0 1.11726,-1.27677 2.39403,-0.15951c1.27677,1.11726 0.15951,2.39403 0.15951,2.39403l-1.03031,0.81472c0.37785,-0.04959 0.75989,-0.13468 1.15195,-0.27403l0.70037,-0.66203c0,0 1.34596,-1.03287 2.37883,0.31311z" fill="#000000" stroke="none" stroke-width="0.5"/><path d="M185.30854,323.03861c1.11726,-1.27677 2.39403,-0.15951 2.39403,-0.15951l1.26091,1.10905c0.89573,1.89137 3.12698,-6.52772 2.98284,-8.69125c0,0 -0.11279,-1.69285 1.58006,-1.80564c1.69285,-0.11279 1.80564,1.58006 1.80564,1.58006c0.28562,4.28686 -0.41304,6.95477 -3.0111,10.53467c-0.66642,0.91828 -1.14054,2.32781 -2.25286,2.55165c-1.13582,0.22857 -2.10162,-0.97597 -3.15245,-1.46396l-1.44755,-1.26103c0,0 -1.27677,-1.11726 -0.15951,-2.39403z" fill="#000000" stroke="none" stroke-width="0.5"/><path d="M183.51583,318.91924c-0.14453,-0.09406 -0.2648,-0.19326 -0.36428,-0.29556c-0.27704,1.10347 -1.53174,1.18706 -1.53174,1.18706l-0.84641,0.05639c-5.18487,0.19859 -4.99481,-2.21433 -8.33979,-5.04344c0,0 -1.27677,-1.11726 -0.15951,-2.39403c1.11726,-1.27677 2.39403,-0.15951 2.39403,-0.15951c2.4991,2.24331 2.34195,4.60151 5.87969,4.21131l0.84641,-0.05639c0,0 0.90144,-0.06006 1.43254,0.56529c0.08537,-0.25379 0.19258,-0.4185 0.19258,-0.4185l1.11105,-1.70296c1.33716,-2.61031 2.48499,-4.24587 4.45151,-6.50139c0,0 1.11726,-1.27677 2.39403,-0.15951c1.27677,1.11726 0.15951,2.39403 0.15951,2.39403c-1.89193,2.15342 -2.79,3.47678 -4.06959,5.96885l-1.20263,1.85192c0,0 -0.92548,1.42195 -2.34743,0.49647z" fill="#000000" stroke="none" stroke-width="0.5"/><path d="M178.79934,296.61873c-0.0491,-0.73704 0.24406,-1.17457 0.59077,-1.43367c0.06854,-0.66746 0.0802,-1.34194 0.03006,-2.00841c0,0 -0.11279,-1.69285 1.58006,-1.80564c1.69285,-0.11279 1.80564,1.58006 1.80564,1.58006c0.07645,1.27577 -0.00214,2.56861 -0.22081,3.82783l-1.98008,1.41988c0,0 -1.69285,0.11279 -1.80564,-1.58006z" fill="#000000" stroke="none" stroke-width="0.5"/><path d="M174.80464,286.4277c-0.92548,1.42195 -2.34743,0.49647 -2.34743,0.49647l-1.646,-1.07948c-1.5003,-0.62285 -3.03297,-1.16593 -4.56544,-1.70481c0,0 -1.6004,-0.56317 -1.03723,-2.16357c0.56317,-1.6004 2.16357,-1.03723 2.16357,-1.03723c1.69049,0.5953 3.37643,1.20898 5.02717,1.90696l1.90887,1.23421c0,0 1.42195,0.92548 0.49647,2.34743z" fill="#000000" stroke="none" stroke-width="0.5"/><path d="M176.28877,284.45841c-1.69285,0.11279 -1.80564,-1.58006 -1.80564,-1.58006l-0.0614,-1.68357c0.10348,-0.57369 0.20695,-1.14736 0.31043,-1.72104c0,0 0.30115,-1.66965 1.9708,-1.36851c1.66965,0.30115 1.36851,1.9708 1.36851,1.9708c-0.10348,0.57369 -0.20695,1.14736 -0.31043,1.72104l0.10778,0.8557c0,0 0.11279,1.69285 -1.58006,1.80564z" fill="#000000" stroke="none" stroke-width="0.5"/><path d="M168.93822,272.53081c-0.65618,1.56457 -2.22074,0.90839 -2.22074,0.90839l-1.88709,-0.79888c-1.07534,-0.69988 -2.20369,-1.33364 -3.38881,-1.82523c0,0 -1.56457,-0.65618 -0.90839,-2.22074c0.65618,-1.56457 2.22074,-0.90839 2.22074,-0.90839c1.27504,0.53977 2.50409,1.20044 3.66453,1.95572l1.61138,0.66837c0,0 1.56457,0.65618 0.90839,2.22074z" fill="#000000" stroke="none" stroke-width="0.5"/><path d="M164.88033,258.57741c-1.34596,1.03287 -2.37883,-0.31311 -2.37883,-0.31311l-1.27789,-2.13332c-0.05639,-0.84641 -0.11279,-1.69285 -0.16918,-2.53926c0,0 -0.11279,-1.69285 1.58006,-1.80564c1.69285,-0.11279 1.80564,1.58006 1.80564,1.58006c0.05639,0.84641 0.11279,1.69285 0.16918,2.53926l0.58414,0.29315c0,0 1.03287,1.34596 -0.31311,2.37883z" fill="#000000" stroke="none" stroke-width="0.5"/></g><g><g><g stroke="#929292" stroke-width="1"><path d="M151.23985,273.63786c0.31156,43.25758 -4.99089,98.57377 -33.52755,99.43189c-29.17148,0.87721 -31.61685,-52.98181 -31.92841,-96.23938c-0.31156,-43.25758 10.46555,-51.26092 30.80017,-51.36166c20.33462,-0.10076 34.34424,4.91158 34.65581,48.16916z" fill="#d87700"/><path d="M137.07489,289.49939c0.19971,27.94436 -3.19914,63.67856 -21.49092,64.2329c-18.69869,0.56666 -20.26616,-34.22619 -20.46587,-62.17054c-0.19971,-27.94436 6.70834,-33.1145 19.74269,-33.1796c13.03435,-0.06508 22.01442,3.17287 22.21413,31.11723z" fill="#bdc29f"/></g><g fill="#000000" stroke="none" stroke-width="0.5"><path d="M128.42968,251.85306c-2.46892,-0.61724 -1.85168,-3.08613 -1.85168,-3.08613l0.47876,-1.88414c1.97411,-5.92229 5.04666,-9.95271 8.91005,-14.78193c0,0 1.58978,-1.98724 3.57702,-0.39744c1.98722,1.5898 0.39744,3.577 0.39744,3.577c-3.50612,4.38265 -6.27372,7.86537 -8.0559,13.2119l-0.36955,1.50905c0,0 -0.61722,2.46892 -3.08614,1.85168z"/><path d="M127.48464,270.74708c-2.27622,-1.13811 -1.13811,-3.41435 -1.13811,-3.41435l0.58288,-1.12184c4.83452,-7.22521 11.70906,-14.02452 15.53478,-21.78221c0,0 1.13813,-2.27622 3.41435,-1.13811c2.27622,1.13811 1.13811,3.41433 1.13811,3.41433c-4.03812,7.98522 -10.88377,14.85181 -15.85225,22.32929l-0.26542,0.57476c0,0 -1.13811,2.27622 -3.41433,1.13813z"/><path d="M125.39924,284.92782c-2.03592,-1.52694 -0.50898,-3.56285 -0.50898,-3.56285l1.89671,-2.28713c6.70244,-4.46044 14.76659,-9.67511 19.78358,-16.0141c0,0 1.58978,-1.98724 3.577,-0.39744c1.98722,1.5898 0.39744,3.577 0.39744,3.577c-5.44746,6.74916 -13.74759,12.27024 -20.93472,17.0695l-0.64818,1.10606c0,0 -1.52694,2.03592 -3.56285,0.50898z"/><path d="M123.98287,298.29948c0.09891,0.613 -0.0349,1.34922 -0.77112,2.08546c-1.79951,1.79951 -3.59902,0 -3.59902,0l-0.74213,-3.63531c2.73583,-4.10373 7.17239,-10.65951 12.0442,-12.43946c5.19085,-1.89651 12.2839,-0.17621 16.26762,-4.49021c0,0 1.79951,-1.79951 3.59902,0c1.79951,1.79951 0,3.59902 0,3.59902c-5.23938,4.98278 -11.4746,3.61842 -17.92583,5.59643c-1.49677,0.45893 -2.32325,2.43574 -3.30994,3.3386c-2.54247,2.32646 -3.84333,3.54259 -5.56278,5.94548z"/><path d="M118.86734,317.67213c-2.54489,0 -2.54489,-2.54489 -2.54489,-2.54489l0.1306,-1.65306c0.94553,-2.81557 2.11717,-6.86355 4.85722,-8.5476c2.08598,-1.28205 4.91523,-0.96552 7.13125,-1.8821c4.13696,-1.71114 7.70112,-6.52385 10.93683,-9.02638c2.76109,-2.13547 5.57216,-2.15556 8.22822,-4.86686c0,0 1.79951,-1.79951 3.59902,0c1.79951,1.79951 0,3.59902 0,3.59902c-2.67594,2.6324 -6.228,3.21744 -8.73776,5.31272c-3.42078,2.85586 -7.53569,7.68974 -11.96721,9.63617c-2.01927,0.88691 -4.48902,0.48551 -6.44152,1.51109c-1.50743,0.7918 -2.31672,4.47939 -2.77746,5.87346l0.1306,0.04353c0,0 0,2.54489 -2.54489,2.54489z"/><path d="M121.73347,323.71313c-1.79951,-1.79951 0,-3.59902 0,-3.59902l0.42415,-0.42415c7.09696,-6.82956 18.88442,-8.63233 23.69978,-18.4253c0,0 1.13811,-2.27622 3.41433,-1.13811c2.27622,1.13811 1.13811,3.41433 1.13811,3.41433c-3.13236,6.18094 -9.46458,10.94539 -15.30435,14.5645c-3.6971,2.29122 -6.48965,2.1628 -9.34885,5.18361l-0.42415,0.42415c0,0 -1.79951,1.79951 -3.59902,0z"/><path d="M150.17838,317.47905c0.61722,2.4689 -1.85168,3.08614 -1.85168,3.08614l-1.31133,0.29436c-3.70586,1.58669 -6.11428,3.99526 -9.54174,5.83446c-2.76252,1.48238 -4.86728,1.05177 -7.4392,2.85103c0,0 -2.11749,1.41165 -3.52914,-0.70583c-1.41165,-2.11749 0.70583,-3.52914 0.70583,-3.52914c2.7628,-1.77958 5.1725,-1.60145 7.83016,-3.08706c3.49619,-1.95433 6.14052,-4.39939 9.96911,-6.04171l2.08186,-0.55394c0,0 2.4689,-0.61722 3.08614,1.85168z"/><path d="M123.92023,343.60733c-2.18223,-1.30933 -0.8729,-3.49156 -0.8729,-3.49156l1.65517,-2.61093c1.71322,-1.65825 3.95268,-2.68356 6.05612,-3.80628c3.5606,-1.90049 5.5526,-6.06061 9.12689,-7.74586c2.10933,-0.99453 4.57138,-0.92655 6.84775,-1.43296c0,0 2.48429,-0.55207 3.03636,1.93222c0.55207,2.48429 -1.93222,3.03636 -1.93222,3.03636c-1.94628,0.43204 -4.04143,0.33319 -5.87672,1.11193c-3.13102,1.32852 -5.46608,5.77465 -8.68737,7.5235c-1.69806,0.92188 -3.63791,1.58221 -4.97176,2.9801l-0.88973,1.63056c0,0 -1.30933,2.18223 -3.49156,0.8729z"/><path d="M123.45802,358.34164c-2.49547,-0.49909 -1.99638,-2.99458 -1.99638,-2.99458l0.6434,-2.75977c2.62029,-5.18154 6.00178,-5.56746 9.90249,-9.23415c0.39256,-0.36901 3.92945,-5.35178 4.77074,-6.02787c2.46132,-1.97803 6.99715,-3.76162 9.6489,-5.30894c0,0 2.19823,-1.2823 3.48052,0.91592c1.2823,2.19823 -0.91592,3.48052 -0.91592,3.48052c-2.41526,1.4085 -6.72315,3.0507 -9.01366,4.87064c-1.93551,1.53788 -2.74847,4.16674 -4.56053,5.8483c-3.61662,3.3561 -6.51318,3.17559 -8.76007,7.73181l-0.2049,1.48172c0,0 -0.49909,2.49547 -2.99458,1.99638z"/><path d="M119.61272,366.97695c-1.79951,-1.79951 0,-3.59902 0,-3.59902l1.5097,-1.32501c2.45906,-1.20268 5.87141,-1.40341 8.02117,-3.09605c4.31477,-3.39726 8.2856,-7.71468 10.77573,-12.7318c0,0 1.13811,-2.27622 3.41433,-1.13811c2.27622,1.13811 1.13811,3.41433 1.13811,3.41433c-2.76489,5.49454 -7.18658,10.83484 -12.12832,14.41374c-2.98178,2.15946 -5.86591,2.10651 -8.94479,3.69033l-0.1869,0.37159c0,0 -1.79951,1.79951 -3.59902,0z"/></g><g data-paper-data="{&quot;index&quot;:null}" fill="#000000" stroke="none" stroke-width="0.5"><path d="M105.84911,249.57723l-0.36954,-1.50905c-1.78217,-5.34653 -4.54978,-8.82926 -8.05591,-13.2119c0,0 -1.5898,-1.98722 0.39744,-3.577c1.98722,-1.5898 3.577,0.39744 3.577,0.39744c3.86337,4.82922 6.93594,8.85962 8.91005,14.78193l0.47876,1.88414c0,0 0.61722,2.4689 -1.85168,3.08613c-2.46892,0.61724 -3.08614,-1.85168 -3.08614,-1.85168z"/><path d="M106.46594,269.1848l-0.2654,-0.57476c-4.96848,-7.47748 -11.81413,-14.34406 -15.85225,-22.32929c0,0 -1.13811,-2.27622 1.13811,-3.41433c2.27622,-1.13811 3.41435,1.13811 3.41435,1.13811c3.82571,7.7577 10.70024,14.557 15.53476,21.78221l0.5829,1.12184c0,0 1.13811,2.27624 -1.13811,3.41435c-2.27622,1.13811 -3.41435,-1.13813 -3.41435,-1.13813z"/><path d="M108.40284,283.9947l-0.64818,-1.10606c-7.18714,-4.79928 -15.48726,-10.32036 -20.93472,-17.0695c0,0 -1.5898,-1.98722 0.39744,-3.577c1.98722,-1.5898 3.577,0.39744 3.577,0.39744c5.01699,6.33899 13.08113,11.55367 19.78357,16.0141l1.89671,2.28713c0,0 1.52694,2.03592 -0.50898,3.56285c-2.03592,1.52694 -3.56285,-0.50898 -3.56285,-0.50898z"/><path d="M107.81928,291.92985c-0.98669,-0.90286 -1.81317,-2.87967 -3.30994,-3.3386c-6.45124,-1.97801 -12.68647,-0.61364 -17.92584,-5.59643c0,0 -1.79951,-1.79951 0,-3.59902c1.79951,-1.79951 3.59902,0 3.59902,0c3.98373,4.314 11.07677,2.59371 16.26761,4.49021c4.87181,1.77995 9.30837,8.33573 12.0442,12.43946l-0.74213,3.63531c0,0 -1.79951,1.79951 -3.59902,0c-0.73622,-0.73622 -0.87003,-1.47246 -0.77112,-2.08546c-1.71947,-2.40289 -3.02031,-3.61903 -5.56278,-5.94548z"/><path d="M115.95269,314.70308l0.1306,-0.04353c-0.46074,-1.39409 -1.27004,-5.08166 -2.77745,-5.87346c-1.95249,-1.02558 -4.42225,-0.62418 -6.44152,-1.51109c-4.43153,-1.94645 -8.54645,-6.78033 -11.96721,-9.63617c-2.50976,-2.09528 -6.06182,-2.68032 -8.73776,-5.31272c0,0 -1.79951,-1.79951 0,-3.59902c1.79951,-1.79951 3.59902,0 3.59902,0c2.65604,2.7113 5.46711,2.73138 8.22822,4.86686c3.2357,2.50253 6.79986,7.31525 10.93682,9.02638c2.21603,0.9166 5.04527,0.60005 7.13125,1.8821c2.74005,1.68406 3.91169,5.73203 4.85722,8.5476l0.13059,1.65306c0,0 0,2.54489 -2.54489,2.54489c-2.54489,0 -2.54489,-2.54489 -2.54489,-2.54489z"/><path d="M112.03243,323.28898l-0.42415,-0.42415c-2.85921,-3.02081 -5.65175,-2.89239 -9.34885,-5.18361c-5.83977,-3.61909 -12.17199,-8.38356 -15.30435,-14.5645c0,0 -1.13811,-2.27622 1.13811,-3.41433c2.27622,-1.13811 3.41435,1.13811 3.41435,1.13811c4.81535,9.79297 16.6028,11.59574 23.69977,18.4253l0.42415,0.42415c0,0 1.79951,1.79951 0,3.59902c-1.79951,1.79951 -3.59902,0 -3.59902,0z"/><path d="M90.27269,315.20322l2.08186,0.55392c3.82859,1.64234 6.47292,4.08741 9.96911,6.04171c2.65767,1.48561 5.06736,1.30748 7.83016,3.08706c0,0 2.11749,1.41165 0.70583,3.52912c-1.41165,2.11749 -3.52914,0.70583 -3.52914,0.70583c-2.5719,-1.79927 -4.67667,-1.36864 -7.43918,-2.85103c-3.42745,-1.83919 -5.83588,-4.24775 -9.54174,-5.83446l-1.31133,-0.29438c0,0 -2.4689,-0.61722 -1.85168,-3.08613c0.61724,-2.46892 3.08614,-1.85168 3.08614,-1.85168z"/><path d="M109.95314,342.31028l-0.88975,-1.63056c-1.33385,-1.39789 -3.2737,-2.05823 -4.97176,-2.9801c-3.22129,-1.74885 -5.55637,-6.19498 -8.68737,-7.5235c-1.83529,-0.77872 -3.93044,-0.67988 -5.87672,-1.11192c0,0 -2.48429,-0.55207 -1.93222,-3.03636c0.55206,-2.48429 3.03636,-1.93222 3.03636,-1.93222c2.27637,0.50643 4.73841,0.43843 6.84773,1.43296c3.57427,1.68525 5.56629,5.84537 9.12689,7.74586c2.10342,1.12272 4.34288,2.14803 6.05612,3.80628l1.65517,2.61093c0,0 1.30935,2.18223 -0.8729,3.49158c-2.18223,1.30935 -3.49156,-0.8729 -3.49156,-0.8729z"/><path d="M110.91232,355.9211l-0.2049,-1.48172c-2.24689,-4.55621 -5.14345,-4.37571 -8.76007,-7.7318c-1.81207,-1.68155 -2.62504,-4.31044 -4.56053,-5.8483c-2.29049,-1.81994 -6.5984,-3.46214 -9.01366,-4.87064c0,0 -2.19821,-1.2823 -0.91592,-3.48053c1.2823,-2.19823 3.48052,-0.91592 3.48052,-0.91592c2.65175,1.54731 7.18758,3.33091 9.6489,5.30894c0.84129,0.67609 4.37817,5.65888 4.77074,6.02789c3.90069,3.6667 7.2822,4.05262 9.90249,9.23415l0.6434,2.75975c0,0 0.49909,2.49547 -1.99638,2.99458c-2.49547,0.49909 -2.99456,-1.99638 -2.99456,-1.99638z"/><path d="M114.15318,366.55281l-0.1869,-0.37159c-3.07888,-1.58384 -5.96299,-1.53089 -8.94479,-3.69033c-4.94174,-3.57888 -9.36345,-8.91919 -12.12834,-14.41374c0,0 -1.13811,-2.27622 1.13811,-3.41433c2.27622,-1.13811 3.41435,1.13811 3.41435,1.13811c2.49011,5.01714 6.46094,9.33454 10.77571,12.7318c2.14977,1.69264 5.56212,1.89337 8.02117,3.09605l1.5097,1.32501c0,0 1.79951,1.79951 0,3.59902c-1.79951,1.79951 -3.59902,0 -3.59902,0z"/></g></g><path d="M114.86583,234.81133c0,-2.34251 1.89898,-4.24149 4.24149,-4.24149c2.34251,0 4.24149,1.89898 4.24149,4.24149c0,2.34251 -1.89898,4.24149 -4.24149,4.24149c-2.34251,0 -4.24149,-1.89898 -4.24149,-4.24149z" fill="#ff0000" stroke="none" stroke-width="0.5"/><path d="M113.16924,273.83304l4.24149,-37.32511l2.96904,0.42415l2.12075,36.90096l-5.08979,8.05883z" fill="#ff0000" stroke="none" stroke-width="NaN"/></g><path d="M-36.66666,395.61037v-431.22073h553.33333v431.22073z" fill-opacity="0.62745" fill="#000000" stroke="none" stroke-width="0"/></g></g></svg>