<svg version="1.1" xmlns="http://www.w3.org/2000/svg" xmlns:xlink="http://www.w3.org/1999/xlink" width="629" height="292.70817" viewBox="0,0,629,292.70817"><defs><linearGradient x1="282.94435" y1="109.66483" x2="282.94435" y2="205.96595" gradientUnits="userSpaceOnUse" id="color-1"><stop offset="0" stop-color="#000000"/><stop offset="1" stop-color="#bbbbbb"/></linearGradient><linearGradient x1="104.31434" y1="255.43253" x2="120.18601" y2="297.04061" gradientUnits="userSpaceOnUse" id="color-2"><stop offset="0" stop-color="#000000"/><stop offset="1" stop-color="#000000" stop-opacity="0"/></linearGradient><linearGradient x1="366.1471" y1="254.36252" x2="350.27543" y2="295.9706" gradientUnits="userSpaceOnUse" id="color-3"><stop offset="0" stop-color="#000000"/><stop offset="1" stop-color="#000000" stop-opacity="0"/></linearGradient><linearGradient x1="194.94435" y1="110.19984" x2="194.94435" y2="204.36093" gradientUnits="userSpaceOnUse" id="color-4"><stop offset="0" stop-color="#000000"/><stop offset="1" stop-color="#bbbbbb"/></linearGradient><linearGradient x1="241.02279" y1="245.11907" x2="241.02279" y2="272.40439" gradientUnits="userSpaceOnUse" id="color-5"><stop offset="0" stop-color="#000000"/><stop offset="1" stop-color="#000000" stop-opacity="0"/></linearGradient><linearGradient x1="374.14135" y1="152.93896" x2="405.64135" y2="152.93896" gradientUnits="userSpaceOnUse" id="color-6"><stop offset="0" stop-color="#000000"/><stop offset="1" stop-color="#000000" stop-opacity="0"/></linearGradient><linearGradient x1="338.29334" y1="152.94843" x2="373.29334" y2="152.94843" gradientUnits="userSpaceOnUse" id="color-7"><stop offset="0" stop-color="#000000" stop-opacity="0"/><stop offset="1" stop-color="#000000"/></linearGradient><linearGradient x1="95.88577" y1="144.38834" x2="140.38577" y2="144.38834" gradientUnits="userSpaceOnUse" id="color-8"><stop offset="0" stop-color="#000000"/><stop offset="1" stop-color="#000000" stop-opacity="0"/></linearGradient><linearGradient x1="59.88577" y1="150.00591" x2="97.38577" y2="150.00591" gradientUnits="userSpaceOnUse" id="color-9"><stop offset="0" stop-color="#000000" stop-opacity="0"/><stop offset="1" stop-color="#000000"/></linearGradient><linearGradient x1="250" y1="31.30989" x2="250" y2="175.76158" gradientUnits="userSpaceOnUse" id="color-10"><stop offset="0" stop-color="#000000"/><stop offset="1" stop-color="#000000" stop-opacity="0"/></linearGradient><radialGradient cx="452.06861" cy="254.21456" r="45.95097" gradientUnits="userSpaceOnUse" id="color-11"><stop offset="0" stop-color="#000000" stop-opacity="0"/><stop offset="1" stop-color="#000000"/></radialGradient></defs><g transform="translate(64.5,-31.3099)"><g data-paper-data="{&quot;isPaintingLayer&quot;:true}" fill-rule="nonzero" stroke-linejoin="miter" stroke-miterlimit="10" stroke-dasharray="" stroke-dashoffset="0" style="mix-blend-mode: normal"><path d="M-7.34161,321.1241l9.58803,-21.8775l57.71758,-38.84872l-5.66461,-53.28823l-53.66411,26.95282l-8.97689,-175.17268h496l-7.11869,176.34883l-52.63724,-26.24473l-6.16773,50.90253l58.86415,40.33621l8.05951,19.82149l-115.00519,-74.20675l-65.08666,0.08893l-1.32889,-137.31894l-133.67226,-0.61155l0.00137,138.11223l-75.00096,0.10522z" fill="#69421e" stroke="#000000" stroke-width="2" stroke-linecap="butt"/><g data-paper-data="{&quot;index&quot;:null}"><path d="M-0.61423,302.97096l2.5,-69.0158l53,-27.28532l6.5,53.50062z" fill="#8c8c8c" stroke="none" stroke-width="0" stroke-linecap="butt"/><path d="M60.78856,260.62099h-58.5" fill="none" stroke="#000000" stroke-width="2" stroke-linecap="round"/><path d="M26.78856,221.65001v39.59046l-26,16.58519" fill="none" stroke="#000000" stroke-width="2" stroke-linecap="round"/></g><path d="M261.19435,202.22091l0.5,-57.24566l44.5,-35.84542l0.5,135.89159z" fill="url(#color-1)" stroke="none" stroke-width="0" stroke-linecap="butt"/><path d="M174.88229,245.82086l42.5,-42.26549l44.5,-0.53501l44.5,42.8005z" fill="#d6c2be" stroke="none" stroke-width="0" stroke-linecap="butt"/><path d="M96.93726,246.50072v-187.54245h277v187.54246h-67.78701l0.17749,-136.49551l-131.17749,0.31091v136.18461z" fill="#aca65e" stroke="#000000" stroke-width="2" stroke-linecap="butt"/><path d="M-9.89807,321.69011l107.37027,-75.76817h276.36377l117.16596,74.70019z" fill="#d6c2be" stroke="#000000" stroke-width="2" stroke-linecap="butt"/><path d="M312.76631,179.4836v-42.73429h38.33001v42.7343z" fill="#ffffff" stroke="#000000" stroke-width="2" stroke-linecap="butt"/><path d="M326.96413,236.54029v-42.17071h34.75844v42.17072z" fill="#ffffff" stroke="#000000" stroke-width="2" stroke-linecap="butt"/><path d="M103.98312,157.36028v-32.05072h19.165v32.05072z" fill="#ffffff" stroke="#000000" stroke-width="2" stroke-linecap="butt"/><path d="M104.13719,238.07269v-42.73429h22.75844v42.7343z" fill="#ffffff" stroke="#000000" stroke-width="2" stroke-linecap="butt"/><path d="M125.65408,121.27651v-42.73429h20.36282v42.7343z" fill="#ffffff" stroke="#000000" stroke-width="2" stroke-linecap="butt"/><path d="M172.38261,102.65558l-19.38598,-22.37644l7.81955,-4.52856l19.38598,22.37644z" fill="#000000" stroke="#000000" stroke-width="2" stroke-linecap="butt"/><path d="M304.09662,97.23802l19.38599,-20.15734l7.81956,4.07945l-19.38598,20.15734z" data-paper-data="{&quot;index&quot;:null}" fill="#000000" stroke="#000000" stroke-width="2" stroke-linecap="butt"/><path d="M331.8538,150.13375v-49.41154h27.54969v49.41154z" fill="#ffffff" stroke="#000000" stroke-width="2" stroke-linecap="butt"/><path d="M128.0497,194.34148v-25.37349h16.76937v25.37349z" fill="#ffffff" stroke="#000000" stroke-width="2" stroke-linecap="butt"/><path d="M385.99284,178.2366l2.77066,-95.06614l65.69695,13.90794l-2.83609,102.96843z" fill="#00fbff" stroke="#000000" stroke-width="2" stroke-linecap="butt"/><g stroke-linecap="butt"><path d="M223.78128,103.05495l17.5,-24.99083l17.10188,24.99083z" fill="#ff0000" stroke="#000000" stroke-width="2"/><text transform="translate(237.62176,100.90229) scale(0.68248,0.54084)" font-size="40" xml:space="preserve" fill="#000000" fill-rule="nonzero" stroke="none" stroke-width="1" stroke-linecap="butt" stroke-linejoin="miter" stroke-miterlimit="10" stroke-dasharray="" stroke-dashoffset="0" font-family="Sans Serif" font-weight="normal" text-anchor="start" style="mix-blend-mode: normal"><tspan x="0" dy="0">!</tspan></text></g><path d="M147.15025,247.45241l-81,73.83086" fill="none" stroke="#000000" stroke-width="2" stroke-linecap="round"/><g stroke="none" stroke-width="0" stroke-linecap="butt"><path d="M234.21103,76.84738v-44.32185h13.54279v44.32185z" fill="#ab6115"/><path d="M258.37953,83.65944c0,6.45955 -33.24139,6.45955 -33.24139,0c0,-6.45955 7.44134,-11.69604 16.62069,-11.69604c9.17935,0 16.6207,5.2365 16.6207,11.69604z" fill="#844a10"/></g><g stroke-linecap="butt"><g data-paper-data="{&quot;index&quot;:null}" fill="#663f3f" stroke="#000000" stroke-width="0.5"><path d="M437.08511,130.94756l0.99416,-1.1488l2.30065,2.27949l-0.99416,1.14881z"/><path d="M437.59634,132.82583l0.99416,-1.14881l2.30065,2.27949l-0.99416,1.14881z"/><path d="M436.51852,128.55718l0.99416,-1.1488l2.30065,2.27949l-0.99416,1.14881z"/><path d="M435.06277,130.23936l0.99417,-1.14881l2.30065,2.27949l-0.99416,1.14881z"/><path d="M439.08759,131.10262l0.99417,-1.14881l2.30065,2.2795l-0.99416,1.14881z"/><path d="M435.88215,133.48986l4.11868,-4.75934l1.22701,1.21573l-4.11868,4.75934z"/></g><g fill="#663f3f" stroke="#000000" stroke-width="0.5"><path d="M409.27476,124.30738l-0.30048,-1.53231l3.06868,-0.68896l0.30048,1.53231z"/><path d="M407.93358,125.63693l-0.30048,-1.53231l3.06868,-0.68896l0.30049,1.53231z"/><path d="M410.90956,122.56912l-0.30049,-1.53231l3.06868,-0.68895l0.30048,1.53231z"/><path d="M411.34955,124.81287l-0.30049,-1.53231l3.06868,-0.68896l0.30049,1.53231z"/><path d="M407.48285,123.33847l-0.30048,-1.53231l3.06868,-0.68897l0.30049,1.53231z"/><path d="M410.51662,126.82818l-1.24484,-6.34815l1.63663,-0.36744l1.24484,6.34815z"/></g><path d="M441.60755,149.56781c-2.98168,11.52432 -14.69154,18.45426 -26.11454,15.07047c-11.423,-3.38379 -17.02739,-15.95325 -14.04571,-27.47756c1.0261,-3.9659 1.62935,-7.77661 4.2426,-10.62207c4.98045,-5.42302 13.6541,-7.96065 21.14606,-5.74133c11.423,3.3838 17.75327,17.24619 14.77159,28.77049z" fill="#00c3c5" stroke="#929292" stroke-width="1"/><path d="M414.95523,137.64871c-0.76887,2.20696 -2.74265,3.45739 -4.40856,2.7929c-1.66592,-0.66449 -2.39311,-2.99225 -1.62425,-5.19923c0.76887,-2.20696 2.74265,-3.4574 4.40856,-2.79291c1.66592,0.66449 2.39311,2.99227 1.62425,5.19924z" fill="#000000" stroke="none" stroke-width="0"/><path d="M433.44069,145.50734c-0.76887,2.20696 -2.74265,3.45739 -4.40856,2.7929c-1.66592,-0.66449 -2.39311,-2.99226 -1.62425,-5.19924c0.76887,-2.20696 2.74265,-3.45739 4.40856,-2.7929c1.66592,0.66449 2.39311,2.99227 1.62425,5.19924z" fill="#000000" stroke="none" stroke-width="0"/><path d="M409.27955,135.65781c0.40659,-1.57149 1.92679,-2.49276 3.39547,-2.05771c1.46867,0.43506 2.32966,2.06169 1.92307,3.6332c-0.40659,1.57149 -1.92679,2.49276 -3.39547,2.05771c-1.46867,-0.43506 -2.32966,-2.06169 -1.92307,-3.6332z" fill="#fff1f1" stroke="none" stroke-width="0"/><path d="M427.91276,143.56019c0.40659,-1.57149 1.92679,-2.49277 3.39547,-2.05771c1.46867,0.43506 2.32966,2.06169 1.92307,3.6332c-0.40659,1.57149 -1.92679,2.49277 -3.39547,2.05771c-1.46867,-0.43506 -2.32966,-2.06169 -1.92307,-3.6332z" fill="#fff1f1" stroke="none" stroke-width="0"/><path d="M411.0115,136.34105c0.11294,-0.43653 0.53522,-0.69243 0.94319,-0.57159c0.40797,0.12085 0.64713,0.57269 0.53419,1.00922c-0.11294,0.43653 -0.53522,0.69244 -0.94319,0.57159c-0.40797,-0.12085 -0.64713,-0.57269 -0.53419,-1.00923z" fill="#000000" stroke="none" stroke-width="0.5"/><path d="M429.45606,144.35775c0.11294,-0.43653 0.53522,-0.69243 0.94319,-0.57159c0.40797,0.12085 0.64713,0.57269 0.53419,1.00922c-0.11294,0.43653 -0.53522,0.69244 -0.94319,0.57159c-0.40797,-0.12085 -0.64713,-0.57269 -0.53419,-1.00923z" fill="#000000" stroke="none" stroke-width="0.5"/><path d="M429.47698,153.17398c0.14744,0.80481 -0.60472,0.96257 -0.60472,0.96257l-0.54058,0.09991c-2.77017,1.15211 -5.81343,1.59884 -8.54415,2.77048c-4.00584,1.07987 -6.47704,-3.21149 -8.72284,-5.98786c-1.22577,-1.51536 -2.57064,-3.08798 -2.49207,-5.19202c0,0 0.05566,-0.81798 0.82011,-0.75841c0.76445,0.05955 0.70878,0.87753 0.70878,0.87753c-0.18293,1.48117 1.27712,2.95165 2.12695,4.00527c1.58383,1.96364 4.08475,6.52956 7.07412,5.49946c2.74614,-1.1284 5.71371,-1.57819 8.46988,-2.74168l0.80492,-0.18231c0,0 0.75215,-0.15776 0.89959,0.64706z" fill="#000000" stroke="none" stroke-width="0.5"/><path d="M406.05159,119.75723c0,0 -2.63472,-6.28933 -0.29393,-7.57001c2.34079,-1.28069 5.79756,5.17734 5.79756,5.17734c0,0 1.11185,3.10248 -1.22894,4.38318c-2.34079,1.28069 -4.27469,-1.99051 -4.27469,-1.99051z" fill="#00c3c5" stroke="#000000" stroke-width="0"/><path d="M439.67693,130.10178c-1.39199,-2.38643 1.05267,-4.43538 1.05267,-4.43538c0,0 6.0685,-3.63641 7.46049,-1.24996c1.39199,2.38643 -3.8904,6.33049 -3.8904,6.33049c0,0 -3.23077,1.74129 -4.62277,-0.64515z" data-paper-data="{&quot;index&quot;:null}" fill="#00c3c5" stroke="#000000" stroke-width="0"/><path d="M407.3435,119.54413c0,0 -1.54992,-3.6998 -0.17291,-4.45319c1.37701,-0.75339 3.41051,3.04566 3.41051,3.04566c0,0 0.65407,1.82509 -0.72295,2.57848c-1.37701,0.75339 -2.51466,-1.17096 -2.51466,-1.17096z" fill="#00a5a8" stroke="#000000" stroke-width="0"/><path d="M440.72246,129.5175c-0.81887,-1.40386 0.61926,-2.60919 0.61926,-2.60919c0,0 3.5699,-2.13918 4.38876,-0.73531c0.81887,1.40386 -2.2886,3.72403 -2.2886,3.72403c0,0 -1.90055,1.02434 -2.71942,-0.37953z" data-paper-data="{&quot;index&quot;:null}" fill="#00a5a8" stroke="#000000" stroke-width="0"/><path d="M422.4728,145.96771c-0.41254,0.94364 -1.83364,1.16466 -3.17412,0.4937c-1.34047,-0.67096 -2.09271,-1.97985 -1.68016,-2.9235c0.41254,-0.94364 1.83364,-1.16467 3.17412,-0.49371c1.34047,0.67096 2.09271,1.97986 1.68016,2.9235z" fill="#00b1b4" stroke="none" stroke-width="0"/><path d="M419.10878,144.39018c0.11294,-0.43653 0.53522,-0.69243 0.94319,-0.57159c0.40797,0.12085 0.64713,0.57269 0.53419,1.00922c-0.11294,0.43653 -0.53522,0.69244 -0.94319,0.57159c-0.40797,-0.12085 -0.64713,-0.57269 -0.53419,-1.00923z" fill="#000000" stroke="none" stroke-width="0.5"/></g><path d="M323.15025,247.45241l81,73.83086" data-paper-data="{&quot;index&quot;:null}" fill="none" stroke="#000000" stroke-width="2" stroke-linecap="round"/><path d="M251.69887,200.99357l28.45138,44.31883l36,74.90088" data-paper-data="{&quot;index&quot;:null}" fill="none" stroke="#000000" stroke-width="2" stroke-linecap="round"/><path d="M45.15025,285.97286h390" fill="none" stroke="#000000" stroke-width="2" stroke-linecap="round"/><path d="M82.15025,258.15254h311" fill="none" stroke="#000000" stroke-width="2" stroke-linecap="round"/><path d="M171.61608,320.61142l-181.87167,0.65742l106.13985,-74.42695l78.37167,-2.26243z" fill="url(#color-2)" stroke="none" stroke-width="0" stroke-linecap="butt"/><path d="M307.2055,246.18448l67.37167,-0.41259l118.63985,75.49696l-194.87167,-1.72743z" data-paper-data="{&quot;index&quot;:null}" fill="url(#color-3)" stroke="none" stroke-width="0" stroke-linecap="butt"/><path d="M359.30381,202.48527c-0.44721,0.95705 -1.34164,0.47852 -1.34164,0.47852l-1,-0.53501c-2.17917,-1.18318 -3.11691,-0.78629 -5.31025,-0.18648c-1.3118,0.34124 -2.77173,-0.08095 -4.01279,0.27083c-1.44066,0.40835 -1.95954,1.10213 -3.57669,0.49717c-1.40161,-0.52433 -3.73816,-3.20081 -4.92685,-3.14388c-1.15035,0.0551 -2.04945,1.03008 -3.06655,1.51141c-1.41376,0.66905 -2.90232,0.93619 -4.38494,1.39025c0,0 -0.96152,0.29396 -1.23625,-0.73489c-0.27472,-1.02884 0.68681,-1.3228 0.68681,-1.3228c2.2558,-0.68849 5.82975,-3.03123 8.04851,-2.9834c1.91174,0.0412 3.74688,2.4652 5.57316,3.2762c1.07542,0.47757 1.38082,-0.30569 2.4233,-0.57286c1.30134,-0.3335 2.66253,0.10263 3.98722,-0.26417c2.63155,-0.6846 4.10668,-1.01667 6.68975,0.34852l1,0.53501c0,0 0.89442,0.47853 0.44721,1.43557z" fill="#000000" stroke="none" stroke-width="0.5" stroke-linecap="butt"/><path d="M356.8038,212.38289c-0.44721,0.95704 -1.34164,0.47852 -1.34164,0.47852l-0.65278,-0.36855c-1.03544,-1.05576 -3.09829,-0.23158 -4.65,-1.39101c-2.43122,1.78628 -6.17836,3.18444 -9.06972,3.7275c-1.11331,0.2091 -1.90137,0.61355 -2.98343,-0.16107c-1.14614,-0.82048 -1.36273,-3.44492 -2.76308,-3.88885c-1.36852,-0.43383 -3.73722,0.05491 -5.18377,0.05491c0,0 -1,0 -1,-1.07001c0,-1.07001 1,-1.07001 1,-1.07001c1.61013,0 4.30888,-0.51391 5.81623,0.0549c1.3732,0.51819 2.61895,4.34107 3.70756,4.22545c3.63043,-0.38558 7.14996,-2.52987 10.47621,-4.01284c2.06064,0.91934 4.1454,0.60889 5.85,1.81902l0.34722,0.16646c0,0 0.89443,0.47853 0.44721,1.43558z" fill="#000000" stroke="none" stroke-width="0.5" stroke-linecap="butt"/><path d="M359.40938,225.54702c0,1.07001 -1,1.07001 -1,1.07001l-0.50747,-0.03194c-1.26301,0.33785 -2.87141,1.15797 -4.03074,-0.11208c-0.52447,-0.57456 -0.49003,-2.83581 -1.05044,-3.66424c-2.1183,0.45564 -4.21594,0.66827 -6.16084,1.79207c-1.46296,0.84533 -2.74804,3.7619 -4.52647,3.88836c-0.17906,0.01273 -2.96719,-2.27432 -3.0367,-2.32511c-2.52639,-1.84592 -5.74203,-4.23038 -8.74014,-2.60257c0,0 -0.89443,0.47853 -1.34164,-0.47852c-0.44722,-0.95705 0.44721,-1.43557 0.44721,-1.43557c3.29186,-1.73979 6.23914,-0.22772 9.17463,1.70235c1.06104,0.69762 2.34046,1.4742 3.25532,2.38515c0.15744,0.15677 0.08236,0.66025 0.29321,0.61495c0.89374,-0.19203 2.50319,-3.0309 3.47354,-3.60173c2.43617,-1.43313 5.11408,-1.82964 7.83915,-1.95298c1.38144,1.38203 1.85201,2.48867 1.94957,4.36085c0.03823,0.73361 1.30309,-0.46886 1.96926,-0.64707l0.99254,-0.03195c0,0 1,0.00001 1,1.07002z" fill="#000000" stroke="none" stroke-width="0.5" stroke-linecap="butt"/><path d="M358.3038,232.71313c-0.44721,0.95704 -1.34164,0.47852 -1.34164,0.47852l-0.29532,-0.18648c-1.13986,-0.30596 -2.20268,-0.50613 -3.37965,-0.51107c-2.31991,-0.60348 -3.70054,0.74622 -5.91619,0.54223c-0.85455,-0.07868 -1.60408,-0.8196 -2.46163,-0.80173c-1.95535,0.04075 -3.64009,0.29573 -5.56771,-0.00246c-1.69436,-0.2621 -4.1063,1.32692 -5.93229,1.33998c0,0 -1,0 -1,-1.07001c0,-1.07001 1,-1.07002 1,-1.07002c2.01545,0.01841 4.10087,-1.51869 6.06771,-1.33506c2.65899,0.24827 5.29923,0.45402 7.97067,0.80084c2.10576,0.27337 3.72534,-1.18083 6.0838,-0.52778c1.25132,-0.00569 2.40945,0.23604 3.62036,0.55894l0.70468,0.34852c0,0 0.89443,0.47852 0.44721,1.43557z" fill="#000000" stroke="none" stroke-width="0.5" stroke-linecap="butt"/><path d="M348.19903,167.15618c-0.7071,0.75661 -1.41422,0 -1.41422,0l-0.03543,-0.25356c-3.36471,-0.93168 -7.03551,0.52151 -10.25,-0.2675c-1.08115,-0.29566 -1.95553,-1.02406 -2.98721,-1.33419c-2.31974,-0.69735 -5.46119,1.11207 -8,0.53501c-2.58751,-0.58812 -5.84991,-0.47729 -8.52771,0.26417c0,0 -0.97015,0.25952 -1.21268,-0.77854c-0.24254,-1.03807 0.7276,-1.29758 0.7276,-1.29758c2.95624,-0.76899 6.61193,-0.98779 9.47229,-0.27083c2.59827,0.65126 5.4828,-1.16195 8,-0.535c1.05393,0.26251 1.934,1.0602 3.01278,1.34085c1.2048,0.36372 1.80348,-0.29017 3.00746,-0.29945c2.21536,-0.01708 5.06058,-0.00064 7.24254,0.56695l0.96457,0.81646c0,0 0.7071,0.75662 0,1.51323z" fill="#000000" stroke="none" stroke-width="0.5" stroke-linecap="butt"/><path d="M347.49192,172.81964c0,1.07001 -1,1.07001 -1,1.07001l-0.87782,-0.00802c-2.50293,0.66954 -4.51491,0.77697 -7.01088,-0.00233c-2.76829,0.00651 -6.04368,2.29072 -8.72042,1.87647c-1.4401,-0.22286 -1.64511,-1.62391 -2.87063,-1.89476c-0.9296,-0.20546 -2.06513,0.29286 -3.02025,0.29613c-2.05465,0.00703 -4.08767,-0.27106 -6.12403,-0.54327c0,0 -0.99228,-0.13272 -0.86825,-1.19447c0.12404,-1.06175 1.11631,-0.92903 1.11631,-0.92903c2.13345,0.28551 4.58102,0.835 6.75378,0.53476c0.86354,-0.11933 1.75345,-0.45607 2.60194,-0.24689c0.98861,0.24373 1.76255,1.77823 2.62936,1.85028c2.71762,0.22588 5.92378,-1.87297 8.77959,-1.86857c2.40976,0.72304 4.05115,0.64983 6.48911,-0.00233l1.12218,-0.00802c0,0 1,0 1,1.07001z" fill="#000000" stroke="none" stroke-width="0.5" stroke-linecap="butt"/><path d="M356.99192,129.3661c0,1.07001 -1,1.07002 -1,1.07002l-0.50746,-0.03196c-2.3361,0.563 -3.54638,-0.76672 -5.68165,-1.32487c-1.3705,-0.35824 -2.68277,1.0652 -4.0371,1.08901c-1.63347,0.02872 -4.17871,-0.09334 -5.57428,-0.97892c-0.51912,-0.32942 -0.84636,-1.02193 -1.42926,-1.18943c-0.79802,-0.22931 -1.99637,0.58832 -2.77771,0.7992c0,0 -0.97015,0.25952 -1.21268,-0.77856c-0.24253,-1.03808 0.72761,-1.29758 0.72761,-1.29758c1.24415,-0.32945 2.38523,-1.15178 3.72229,-0.80584c0.80776,0.209 1.3812,0.98928 2.07074,1.48561c0.93988,0.67653 3.29614,0.59749 4.42572,0.6261c1.56321,0.03959 2.7357,-1.43651 4.4629,-1.05101c1.7058,0.38073 3.01899,1.90972 4.81835,1.35017l0.99254,-0.03194c0,0 1,0 1,1.07001z" fill="#000000" stroke="none" stroke-width="0.5" stroke-linecap="butt"/><path d="M355.94903,136.81029c-0.70711,0.75662 -1.41422,0 -1.41422,0l-0.42557,-0.57056c-3.08176,0.30603 -5.51615,-0.72048 -8.34707,-1.55219c-1.18126,-0.34705 -2.99441,0.68596 -4.17171,0.82592c-1.79655,0.21357 -3.85224,-0.10942 -5.59108,-0.56175c0,0 -0.97014,-0.25952 -0.7276,-1.29758c0.24253,-1.03807 1.21268,-0.77854 1.21268,-0.77854c1.49947,0.4152 3.35162,0.69343 4.90892,0.50826c1.57424,-0.18717 3.21415,-1.18664 4.82829,-0.7791c1.04588,0.26407 1.79387,1.1833 2.89243,1.3169c1.87763,0.22835 3.87373,0.23103 5.7605,0.34094l1.07443,1.03446c0,0 0.7071,0.75662 0,1.51323z" fill="#000000" stroke="none" stroke-width="0.5" stroke-linecap="butt"/><path d="M355.19061,140.67209c-0.31623,1.01511 -1.26491,0.67674 -1.26491,0.67674l-0.43377,-0.21259c-1.9225,-0.00647 -4.68994,-1.59468 -6.52025,-1.09864c-2.83633,0.76869 -6.26198,2.10425 -9.22229,1.33419c0,0 -0.97014,-0.25952 -0.72761,-1.29758c0.24253,-1.03807 1.21268,-0.77854 1.21268,-0.77854c2.63989,0.73098 5.73314,-0.79747 8.27771,-1.34083c2.26879,-0.48448 4.68356,1.05051 6.97975,1.04139l1.06623,0.32241c0,0 0.94869,0.33837 0.63245,1.35347z" fill="#000000" stroke="none" stroke-width="0.5" stroke-linecap="butt"/><path d="M356.49192,144.88128c0,1.07001 -1,1.07001 -1,1.07001h-0.25c-1.67823,-0.0098 -2.86932,-0.83121 -4.38273,-1.07948c-1.11187,-0.1824 -2.27218,1.36957 -3.40882,1.34606c-0.87323,-0.01808 -1.46584,-1.03888 -2.27467,-1.3915c-1.71328,-0.7469 -4.99627,0.6421 -6.56238,1.3159c0,0 -0.92848,0.39739 -1.29987,-0.59609c-0.37139,-0.99347 0.55709,-1.39087 0.55709,-1.39087c2.12459,-0.90506 5.62733,-2.23937 7.93762,-1.35913c0.65987,0.25141 1.02565,1.3186 1.72533,1.28352c1.3144,-0.06589 2.00482,-1.47887 3.59118,-1.32897c1.42455,0.13461 2.55787,1.07163 4.11727,1.06055h0.25c0,0 1,0 1,1.07001z" fill="#000000" stroke="none" stroke-width="0.5" stroke-linecap="butt"/><path d="M121.35287,147.54551c0,1.07001 -1,1.07002 -1,1.07002h-0.5c-1.66846,-0.01523 -3.04444,0.99044 -4.72185,0.14088c-0.57858,-0.29304 -0.68129,-1.32278 -1.29507,-1.51723c-0.5419,-0.17167 -1.05008,0.49093 -1.61088,0.56582c-2.0333,0.27151 -4.14945,-0.03382 -6.11472,-0.55893c0,0 -0.97014,-0.25952 -0.7276,-1.29758c0.24253,-1.03807 1.21267,-0.77854 1.21267,-0.77854c1.73005,0.46335 3.59425,0.75113 5.38529,0.51107c0.65267,-0.08748 1.79287,-0.68452 2.38912,-0.5042c0.74606,0.22564 1.02773,1.28891 1.70493,1.69281c0.89171,0.53183 2.78605,-0.38703 3.77814,-0.39411h0.5c0,0 1,0 1,1.07001z" fill="#000000" stroke="none" stroke-width="0.5" stroke-linecap="butt"/><path d="M120.85287,153.69807c0,1.07001 -1,1.07002 -1,1.07002h-0.5c-4.29463,0 -8.53145,-0.8359 -12.86043,-1.34405c0,0 -0.99388,-0.11816 -0.88345,-1.18162c0.11043,-1.06348 1.10431,-0.9453 1.10431,-0.9453c4.26052,0.51251 8.41398,1.33096 12.63957,1.33096h0.5c0,0 1,0.00001 1,1.07002z" fill="#000000" stroke="none" stroke-width="0.5" stroke-linecap="butt"/><path d="M141.60287,182.77803c0,1.07001 -1,1.07002 -1,1.07002l-0.00747,-0.03195c-0.85345,0.22201 -2.65188,1.47662 -3.40271,1.35564c-0.76672,-0.12354 -1.03028,-1.2989 -1.7225,-1.67266c-0.48404,-0.26135 -1.05139,0.3544 -1.59353,0.34866c-0.94401,-0.01 -2.2259,-0.55013 -3.09001,-0.85712c0,0 -0.94868,-0.33836 -0.63245,-1.35347c0.31623,-1.0151 1.26491,-0.67673 1.26491,-0.67673c1.58663,0.56831 3.44424,-0.02786 4.81646,0.56154c0.59474,0.25546 0.64015,1.46562 1.2775,1.53738c0.18622,0.02096 2.14517,-1.19575 2.59728,-1.31939l0.49253,-0.03194c0,0 1,0 1,1.07001z" fill="#000000" stroke="none" stroke-width="0.5" stroke-linecap="butt"/><path d="M141.49729,189.67663c-0.44721,0.95705 -1.34164,0.47852 -1.34164,0.47852l-0.05279,-0.15453c-2.16621,-0.01547 -2.38168,-0.95411 -3.9927,-2.01141c-1.05707,-0.69375 -3.53661,0.13889 -4.7573,0.13889c0,0 -1,-0.00001 -1,-1.07002c0,-1.07001 1,-1.07001 1,-1.07001c1.77991,0 4.10116,-0.82807 5.7427,0.13889c1.52612,0.89897 1.1418,1.75068 3.0073,1.73363l0.94721,0.38046c0,0 0.89443,0.47852 0.44721,1.43557z" fill="#000000" stroke="none" stroke-width="0.5" stroke-linecap="butt"/><path d="M139.99029,176.10397c0.27407,0.04451 0.86258,0.23566 0.86258,1.05651c0,1.07001 -1,1.07002 -1,1.07002l-0.95711,-0.31341c-1.66256,-1.94941 -5.95037,-2.03645 -8.28543,-2.66108c0,0 -0.97014,-0.25952 -0.7276,-1.29758c0.24254,-1.03807 1.21267,-0.77854 1.21267,-0.77854c2.79063,0.7465 6.59107,0.92104 8.89489,2.9241z" fill="#000000" stroke="none" stroke-width="0.5" stroke-linecap="butt"/><path d="M122.57301,218.36394c0.24253,1.03807 -0.72761,1.29758 -0.72761,1.29758l-1.12035,0.29144c-1.94848,0.01138 -3.17609,0.1645 -4.75486,-0.87595c-0.3957,-0.26077 -0.85069,0.40521 -1.29278,0.55855c-1.20579,0.41823 -4.80942,1.3269 -6.07454,1.12793c-0.65886,-0.10362 -1.47924,-0.20053 -1.85749,-0.787c-0.33368,-0.51736 0.09156,-1.25337 0.13735,-1.88004c0,0 0.24253,-1.03806 1.21267,-0.77855c0.97015,0.25952 0.72761,1.29758 0.72761,1.29758c-0.34859,0.2499 2.99476,-0.67723 4.18132,-0.78932c0.74391,-0.07027 1.38336,-0.64014 2.11879,-0.77909c0.81867,-0.15467 1.61674,0.4621 2.36244,0.85533c0.54328,0.28651 2.33865,-0.0781 2.99514,-0.07343l0.87964,-0.24358c0,0 0.97015,-0.25952 1.21268,0.77855z" fill="#000000" stroke="none" stroke-width="0.5" stroke-linecap="butt"/><path d="M122.10287,223.97351c0,1.07001 -1,1.07001 -1,1.07001h-0.75c-1.10652,-0.01831 -2.37743,-0.7179 -3.37781,-0.54302c-2.57785,0.45065 -5.26616,0.91952 -7.86472,0.24356c0,0 -0.97014,-0.25951 -0.7276,-1.29758c0.24253,-1.03807 1.21267,-0.77855 1.21267,-0.77855c2.39154,0.66221 4.76611,-0.04272 7.13529,-0.29143c1.41858,-0.14891 2.21038,0.55881 3.62218,0.52699h0.75c0,0 1,0 1,1.07001z" fill="#000000" stroke="none" stroke-width="0.5" stroke-linecap="butt"/><path d="M123.57301,231.45562c-0.24254,1.03807 -1.21268,0.77856 -1.21268,0.77856l-0.87964,-0.24357c-1.0833,0 -2.63299,-0.8716 -3.64806,-0.55561c-2.88782,0.89897 -5.31455,1.13892 -8.40864,0.54638c0,0 -0.98387,-0.19141 -0.80498,-1.24417c0.17888,-1.05275 1.16275,-0.86134 1.16275,-0.86134c2.92322,0.57861 4.90135,0.1229 7.59136,-0.52364c1.44212,-0.34661 2.9045,0.5144 4.35194,0.5144l1.12035,0.29143c0,0 0.97015,0.25951 0.72761,1.29758z" fill="#000000" stroke="none" stroke-width="0.5" stroke-linecap="butt"/><path d="M143.57301,108.80984c0.24254,1.03808 -0.72761,1.29757 -0.72761,1.29757l-1.12035,0.29143c-1.87436,0.01338 -4.40413,0.37183 -6.11488,-0.66588c-0.58169,-0.35283 -0.77757,-1.26036 -1.38998,-1.54758c-1.18456,-0.55555 -3.58387,0.60729 -4.86732,0.61646c0,0 -1,0 -1,-1.07001c0,-1.07001 1,-1.07001 1,-1.07001c1.72792,0.01578 3.93258,-1.22566 5.63269,-0.45355c0.68653,0.31179 0.96472,1.26233 1.61001,1.66245c1.26632,0.78518 3.49647,0.39144 4.88512,0.40413l0.87964,-0.24357c0,0 0.97015,-0.25951 1.21268,0.77855z" fill="#000000" stroke="none" stroke-width="0.5" stroke-linecap="butt"/><path d="M142.4973,116.23544c-0.44721,0.95705 -1.34164,0.47853 -1.34164,0.47853l-0.5,-0.2675c-1.45302,-0.83679 -3.07425,-0.48382 -4.67497,-0.69756c-1.56103,-0.20845 -2.68009,-1.16362 -4.10757,-1.62562c-0.75346,-0.24385 -2.31986,0.64636 -3.07413,0.81035c0,0 -0.98059,0.20985 -1.1767,-0.83939c-0.19612,-1.04923 0.78446,-1.25907 0.78446,-1.25907c1.31186,-0.27557 2.55101,-1.12251 3.92587,-0.79466c1.36959,0.3266 2.42996,1.38839 3.89243,1.58441c1.90431,0.25523 3.54036,-0.00045 5.32503,0.90745l0.5,0.2675c0,0 0.89443,0.47853 0.44721,1.43557z" fill="#000000" stroke="none" stroke-width="0.5" stroke-linecap="butt"/><path d="M167.45052,103.47851l15.21457,-10.35438l-2.76885,13.31708z" fill="#000000" stroke="#000000" stroke-width="2" stroke-linecap="butt"/><path d="M303.46938,107.51122l-2.76885,-13.31708l15.21456,10.35437z" data-paper-data="{&quot;index&quot;:null}" fill="#000000" stroke="#000000" stroke-width="2" stroke-linecap="butt"/><path d="M216.78936,202.68159v-57.78067h45.5v57.78068z" fill="#000000" stroke="none" stroke-width="0" stroke-linecap="butt"/><path d="M174.69435,245.55642l-0.5,-135.35658l42.5,35.31041l-0.5,58.31568z" fill="url(#color-4)" stroke="none" stroke-width="0" stroke-linecap="butt"/><path d="M216.69435,146.58026l-43,-36.91544l133,0.53501l-46,37.45044z" fill="#0b0b0b" stroke="none" stroke-width="0" stroke-linecap="butt"/><path d="M263.69435,204.89594v-27.28531l9.5,-6.42008l-0.5,42.26549z" fill="#0b0b0b" stroke="none" stroke-width="0" stroke-linecap="butt"/><path d="M277.19435,218.27111v-48.68557l19,-10.16511l0.5,78.11091z" fill="#0b0b0b" stroke="none" stroke-width="0" stroke-linecap="butt"/><path d="M185.19435,235.92631l0.5,-78.11091l19,10.16512v48.68557z" data-paper-data="{&quot;index&quot;:null}" fill="#0b0b0b" stroke="none" stroke-width="0" stroke-linecap="butt"/><path d="M208.19435,211.85103v-40.66048l7,5.35007v28.35533z" data-paper-data="{&quot;index&quot;:null}" fill="#0b0b0b" stroke="none" stroke-width="0" stroke-linecap="butt"/><path d="M185.69435,204.36093l-10.5,-12.84015l41,-6.95508" fill="none" stroke="#000000" stroke-width="2" stroke-linecap="round"/><path d="M296.69435,189.38077l10.5,17.1202l-45.5,-14.44517" fill="none" stroke="#000000" stroke-width="2" stroke-linecap="round"/><path d="M261.69435,183.49569l45.5,8.5601l-10.5,10.70012" fill="none" stroke="#000000" stroke-width="2" stroke-linecap="round"/><path d="M216.19435,195.26584l-41.5,12.30514l10.5,-18.19021" fill="none" stroke="#000000" stroke-width="2" stroke-linecap="round"/><path d="M308.19435,192.0558v15.51518" fill="none" stroke="#000000" stroke-width="2" stroke-linecap="round"/><path d="M173.69435,207.57098v-16.58519" fill="none" stroke="#000000" stroke-width="2" stroke-linecap="round"/><path d="M205.19435,187.77575l3,8.5601" fill="none" stroke="#000000" stroke-width="2" stroke-linecap="round"/><path d="M208.19435,186.70573l-3.5,11.77014" fill="none" stroke="#000000" stroke-width="2" stroke-linecap="round"/><path d="M276.19435,196.33585l-2,-10.16512" fill="none" stroke="#000000" stroke-width="2" stroke-linecap="round"/><path d="M277.19435,186.17073l-4.5,10.16512" fill="none" stroke="#000000" stroke-width="2" stroke-linecap="round"/><path d="M177.65782,198.16954c-0.01182,0.05616 -0.0237,0.11139 -0.03567,0.16571c0.01334,-0.01713 0.02668,-0.03431 0.03999,-0.05151c0.01988,-0.02566 0.01729,-0.06448 -0.00432,-0.11421zM174.57367,202.36304c-0.05568,0.03324 -0.11245,0.06682 -0.17034,0.10079l-0.26853,-0.98856h-0.34879v-1.28402c0,-1.82318 0.04529,-3.45713 0.25683,-5.14821l-0.03741,0.008l-0.19595,-1.04835c-0.01537,-0.07455 -0.02347,-0.15202 -0.02347,-0.2315c0,-0.59095 0.44772,-1.07002 1,-1.07002c0.37065,0 0.6942,0.21576 0.86693,0.53631l0.51355,0.91585c0.97782,0.73758 2.93174,1.8494 3.3434,3.06042c0.82479,2.42639 -2.98906,5.22554 -3.7954,7.44094c0,0 -0.3714,0.99348 -1.29987,0.59609c-0.92847,-0.39739 -0.55708,-1.39086 -0.55708,-1.39086c0.20582,-0.53937 0.44781,-1.03309 0.71613,-1.49687z" fill="#ff0000" stroke="none" stroke-width="0.5" stroke-linecap="butt"/><path d="M184.20544,192.48299c0,0 -0.19612,-1.04923 0.78447,-1.25907c0.98058,-0.20984 1.1767,0.83938 1.1767,0.83938c0.42569,2.33014 0.41941,4.68154 0.41941,7.05793c0,0.5921 0.05637,2.61626 -0.29289,2.89663c-2.01682,1.6191 -4.2272,-2.06704 -4.49244,-3.78404c-0.22565,-1.46073 0.91333,-2.84735 1.55548,-3.98971l0.04497,-0.03282l-0.01512,-0.01214l0.59302,-0.84605c0.08593,-0.12539 0.19676,-0.23003 0.32471,-0.30554c-0.02959,-0.18865 -0.06226,-0.37686 -0.09831,-0.56459z" fill="#ff0000" stroke="none" stroke-width="0.5" stroke-linecap="butt"/><path d="M177.61604,193.18102c-0.22134,0.10342 -0.44071,0.20635 -0.65864,0.29961c0,0 -0.92848,0.39739 -1.29987,-0.59608c-0.37139,-0.99347 0.55708,-1.39088 0.55708,-1.39088c1.17892,-0.50457 6.18743,-2.50842 7.19946,-0.6764c1.2513,2.26515 -2.94341,6.174 -4.8978,4.3905c-0.85746,-0.78248 -1.07121,-1.48297 -0.90024,-2.02675z" fill="#ff0000" stroke="none" stroke-width="0.5" stroke-linecap="butt"/><path d="M181.76866,203.20842c0.09506,0.01381 0.18586,0.03369 0.27131,0.06004c-0.18464,-0.11225 -0.3363,-0.19164 -0.27199,-0.09285zM181.61059,200.79462c1.51559,0.17523 3.3396,2.24063 2.65471,3.75831c-0.48411,1.07279 -3.41304,1.47826 -5.51829,1.70484l-0.63241,0.406c-0.15336,0.10238 -0.33452,0.16153 -0.52859,0.16153c-0.55229,0 -1,-0.47906 -1,-1.07002c0,-0.24478 0.07682,-0.47036 0.20607,-0.65065l0.59393,-0.84736l0.05056,0.04056l0.04233,-0.15518c1.3447,-1.01084 1.51614,-3.15695 2.50711,-4.59345c0,0 0.6,-0.85601 1.4,-0.21401c0.69921,0.56113 0.32896,1.28573 0.22457,1.4594z" fill="#ff0000" stroke="none" stroke-width="0.5" stroke-linecap="butt"/><path d="M305.85357,194.20582c0.08862,-0.26449 0.29128,-0.53264 0.73633,-0.62788c0.98058,-0.20985 1.1767,0.83938 1.1767,0.83938c0.43077,2.30614 -0.44082,4.75831 0.01455,6.73849l-0.02984,0.10544h0.0347v1.07001c0,0.59095 -0.44772,1.07002 -1,1.07002c-0.27614,0 -0.52614,-0.11977 -0.7071,-0.3134l-0.8,-0.85601l0.16622,-0.17786c-1.52136,-1.32062 -3.12616,-3.30459 -2.37826,-5.06629c0.13108,-0.30879 1.0579,-0.8276 1.92201,-1.15016l-0.00287,-0.56836c0,0 0,-0.97332 0.86756,-1.06336z" fill="#ff0000" stroke="none" stroke-width="0.5" stroke-linecap="butt"/><path d="M300.15413,199.28445c0.44703,-0.3238 0.97012,-0.49337 1.65309,-0.35073c0.87327,0.18239 2.14049,1.84975 2.64576,3.4343c0.84792,0.72206 1.41099,1.65519 0.7611,2.70315c-0.40162,0.64762 -1.42033,0.47842 -2.1443,0.41522c-0.94693,-0.08267 -2.40103,-0.74068 -3.6441,-1.44135l-0.03579,0.19146l-0.98183,-0.21012c-0.15678,-0.03013 -0.30086,-0.09935 -0.42314,-0.19791c-0.22499,-0.03854 -0.46455,-0.17656 -0.6564,-0.5187c-0.5145,-0.91753 0.343,-1.46804 0.343,-1.46804c0.53194,-0.32928 0.95006,-0.85987 1.36596,-1.38145c-0.37097,0.33217 -0.76294,0.64342 -1.14901,0.93227l-0.71582,0.95741c-0.18309,0.24922 -0.4674,0.4093 -0.78664,0.4093c-0.55228,0 -1,-0.47906 -1,-1.07001v-0.99088c-0.39374,-2.15179 0.39472,-3.52254 0.60419,-5.52702c0.10873,-1.04045 -0.40173,-2.4175 -0.40419,-3.54021c0,0 0,-1.07001 1,-1.07001c1,0 1,1.07001 1,1.07001c-0.00092,0.36221 0.04321,0.73802 0.1028,1.11807c0.09389,-0.03124 0.19371,-0.04806 0.2972,-0.04806c0.22876,0 0.43959,0.08219 0.60808,0.22048l0.79192,0.63553l-0.06088,0.08685l0.14559,0.06765c-0.14216,-0.51931 -0.29481,-0.9708 -0.48471,-1.2245c0,0 -0.6,-0.85601 0.2,-1.49802c0.8,-0.64201 1.4,0.214 1.4,0.214c0.05514,0.0821 0.13539,0.20971 0.22968,0.36965c1.46665,-1.04513 4.30415,-0.66286 4.56781,1.26652c0.09962,0.72902 -0.62029,1.78549 -1.55599,2.63961c-0.14315,0.35372 -0.41912,0.5492 -0.76077,0.61429c-0.7003,0.49626 -1.42927,0.82823 -1.98383,0.81775c0.00491,0.8553 -0.36829,1.64997 -0.92878,2.37351z" fill="#ff0000" stroke="none" stroke-width="0.5" stroke-linecap="butt"/><path d="M204.98602,194.62718c-1,0 -1,-1.07002 -1,-1.07002v-1.07001c0.00326,-0.6466 -0.05894,-1.29681 -0.18058,-1.93018c0,0 -0.19611,-1.04923 0.78447,-1.25907c0.98058,-0.20984 1.1767,0.83938 1.1767,0.83938c0.14114,0.77257 0.21615,1.56271 0.21941,2.34988v1.07001c0,0 0,1.07002 -1,1.07002z" fill="#ff0000" stroke="none" stroke-width="0.5" stroke-linecap="butt"/><path d="M205.58602,195.91118c0,-0.59095 0.44771,-1.07001 1,-1.07001c0.55229,0 1,0.47906 1,1.07001c0,0.59095 -0.44771,1.07002 -1,1.07002c-0.55229,0 -1,-0.47907 -1,-1.07002z" fill="#ff0000" stroke="none" stroke-width="0.5" stroke-linecap="butt"/><path d="M208.18602,193.77116c-1,0 -1,-1.07001 -1,-1.07001v-1.07001c0,0 0,-1.07001 1,-1.07001c1,0 1,1.07001 1,1.07001v1.07001c0,0 0,1.07001 -1,1.07001z" fill="#ff0000" stroke="none" stroke-width="0.5" stroke-linecap="butt"/><path d="M205.58602,187.35108c0,-0.59095 0.44771,-1.07001 1,-1.07001c0.55229,0 1,0.47906 1,1.07001c0,0.59095 -0.44771,1.07002 -1,1.07002c-0.55229,0 -1,-0.47907 -1,-1.07002z" fill="#ff0000" stroke="none" stroke-width="0.5" stroke-linecap="butt"/><path d="M273.98602,195.69719c0,-0.59095 0.44772,-1.07001 1,-1.07001c0.55228,0 1,0.47906 1,1.07001c0,0.59095 -0.44772,1.07001 -1,1.07001c-0.55228,0 -1,-0.47907 -1,-1.07001z" fill="#ff0000" stroke="none" stroke-width="0.5" stroke-linecap="butt"/><path d="M277.18602,195.26919c-1,0 -1,-1.07001 -1,-1.07001v-0.428c0,-1.45404 -0.19402,-2.83625 -0.2,-4.28005c0,0 0,-1.07001 1,-1.07001c1,0 1,1.07001 1,1.07001c-0.00724,1.4335 0.2,2.83049 0.2,4.28005v0.428c0,0 0,1.07001 -1,1.07001z" fill="#ff0000" stroke="none" stroke-width="0.5" stroke-linecap="butt"/><path d="M272.98602,194.19916c-1,0 -1,-1.07001 -1,-1.07001l0.01942,-0.00417c-0.3488,-1.90926 -0.14688,-3.87096 0.2,-5.76975c0,0 0.19612,-1.04923 1.1767,-0.83938c0.98058,0.20985 0.78446,1.25907 0.78446,1.25907c-0.3072,1.59955 -0.50887,3.32214 -0.2,4.93037l0.01942,0.42386c0,0 0,1.07001 -1,1.07001z" fill="#ff0000" stroke="none" stroke-width="0.5" stroke-linecap="butt"/><path d="M238.50742,321.11396v-75.61422v-43.15717" fill="none" stroke="#000000" stroke-width="2" stroke-linecap="round"/><path d="M165.03221,321.5428l26.33333,-75.97089l32.66667,-42.795" fill="none" stroke="#000000" stroke-width="2" stroke-linecap="round"/><path d="M194.36554,227.38722h92.33333" fill="none" stroke="#000000" stroke-width="2" stroke-linecap="round"/><path d="M273.03221,213.12039h-65.66667" fill="none" stroke="#000000" stroke-width="2" stroke-linecap="round"/><path d="M215.36554,204.56029h48" fill="none" stroke="#000000" stroke-width="2" stroke-linecap="round"/><path d="M171.46221,244.84881v-136.11017h138.16596v136.11017z" fill="#000000" stroke="#000000" stroke-width="2" stroke-linecap="butt"/><path d="M351.23099,114.81637c-0.03947,-0.02788 -0.07874,-0.05555 -0.11746,-0.08296c0.02253,0.08965 0.04407,0.17336 0.06615,0.24271c0.01662,0.05221 0.03341,0.10392 0.0503,0.15517c0.00067,-0.05715 0.00101,-0.11496 0.00101,-0.17347zM349.56502,116.04533c0.00162,0.4941 0.00499,0.94355 -0.00238,1.35968c0.0018,0.22065 0.00169,0.46368 0.00168,0.73652c0.18679,-0.26637 0.34155,-0.51653 0.33333,-0.68702c-0.01853,-0.38449 -0.16005,-0.87761 -0.33264,-1.40918zM347.40904,116.68517c0.0102,-0.52339 0.05781,-0.90972 0.15529,-1.01401v-1.00399c-0.29705,0.17311 -0.55565,0.39744 -0.74279,0.70012c-0.09678,0.15653 0.22954,0.74962 0.5875,1.31788zM345.3485,113.93797c1.46859,-1.8498 5.73398,-3.53217 7.25626,-2.23346c0.92004,0.78492 1.58568,3.60021 2.24999,4.72659c0.04511,1.45081 0.49859,4.18908 -0.58332,5.34673c-0.95648,1.02344 -5.37963,1.52211 -6.70711,1.38341c-0.57462,-0.06004 -1.28346,0.10631 -1.70711,-0.31339c-0.38451,-0.38093 -0.15747,-1.11006 -0.27998,-1.65522c-0.4814,-2.14217 -1.30488,-4.2423 -1.9616,-6.2531c0,0 -0.31623,-1.0151 0.63246,-1.35347c0.57714,-0.20585 0.92021,0.08922 1.1004,0.35192zM350.35042,120.62216c0.15202,-0.0044 0.31229,-0.00884 0.47545,-0.01443l-0.12378,-0.39733c-0.10972,0.14221 -0.22719,0.28134 -0.35167,0.41177zM351.0336,119.73987c-0.01232,0.01905 -0.02479,0.03816 -0.03742,0.05731l0.04475,-0.01596c-0.00251,-0.01381 -0.00495,-0.0276 -0.00733,-0.04136z" fill="#9966ff" stroke="none" stroke-width="0.5" stroke-linecap="butt"/><path d="M354.56432,116.3845c0,1.07001 -1,1.07001 -1,1.07001l-0.35044,-0.05491c-0.56694,0.20221 -1.13972,0.46088 -1.71687,0.74035c0.37448,1.00191 0.73788,2.01329 1.0544,3.06654l0.01291,1.24141c0,0 0,1.07001 -1,1.07001c-1,0 -1,-1.07001 -1,-1.07001l0.01291,-0.89862c-0.27949,-0.85577 -0.5829,-1.68672 -0.89261,-2.51053c-1.36418,0.66294 -2.74383,1.23708 -4.1203,1.26911c0,0 -1,0 -1,-1.07001c0,-1.07001 1,-1.07001 1,-1.07001c1.03405,0.03843 2.21722,-0.43946 3.40144,-1.02811c-0.35779,-0.95337 -0.70584,-1.91541 -1.01679,-2.91357c0,0 -0.31623,-1.0151 0.63246,-1.35347c0.94868,-0.33837 1.26491,0.67674 1.26491,0.67674c0.2825,0.90682 0.59722,1.78402 0.92095,2.65263c0.6362,-0.33056 1.24935,-0.63122 1.81414,-0.83267l0.98289,-0.05492c0,0 1,0.00001 1,1.07001z" fill="#000000" stroke="none" stroke-width="0.5" stroke-linecap="butt"/><path d="M341.79208,109.01627c-0.44721,0.95705 -1.34164,0.47852 -1.34164,0.47852l-0.77048,-0.4214c-0.19997,0.72459 -0.36047,1.54061 -0.46133,2.38397c0.18918,-0.06625 0.34569,-0.06625 0.34569,-0.06625c1.94822,0 3.78744,0.74426 5.66667,0.71335h1c0,0 1,0.00001 1,1.07001c0,1.07001 -1,1.07001 -1,1.07001h-1c-1.92208,-0.02289 -3.7013,-0.71334 -5.66667,-0.71334c0,0 -0.22618,0 -0.46341,-0.1151c0.00067,0.23327 0.00703,0.46488 0.01949,0.69351c2.09313,1.00332 3.81884,2.43766 5.58244,3.82826c0.49429,0.38974 3.77146,-0.12662 4.52814,-0.12662h0.66667c0,0 1,0.00001 1,1.07002c0,1.07001 -1,1.07001 -1,1.07001h-0.66667c-1.34985,0 -4.29235,0.56079 -5.47186,-0.12662c-0.4335,-0.25264 -0.55455,-0.88151 -0.90192,-1.2568c-0.68425,-0.73927 -2.02465,-1.46734 -3.31675,-2.04488c0.00556,0.03116 0.01097,0.06744 0.01517,0.10765c0.88423,0.62461 1.38054,4.3521 1.66245,5.28928l0.01291,1.24141c0,0 0,1.07001 -1,1.07001c-1,0 -1,-1.07001 -1,-1.07001l0.01291,-0.89862c-0.04717,-0.14506 -0.25206,-0.81127 -0.44822,-1.56347c-0.09666,0.89517 -0.23136,1.76695 -0.23136,2.10542c0,0 0,1.07001 -1,1.07001c-1,0 -1,-1.07001 -1,-1.07001c0,-1.41621 -0.17504,-4.87427 0.95287,-6.07679c-0.09227,-0.35492 -0.16686,-0.72143 -0.22511,-1.0963c-0.01479,-0.00513 -0.02945,-0.01022 -0.04399,-0.01524c0,0 -0.94868,-0.33837 -0.63246,-1.35347c0.11386,-0.3655 0.30972,-0.55553 0.51377,-0.64907c-0.02714,-1.99165 0.30346,-4.05362 0.81957,-5.77101l-0.05132,-0.01831c0,0 0,-0.02468 0.0035,-0.06654c-0.32214,-0.26825 -0.56924,-0.51059 -0.61604,-0.65621c-0.66424,-2.06696 2.37446,-5.0941 4.23566,-4.22473c0.47604,0.22236 0.83151,0.55842 1.07613,0.94296c0.14277,0.13358 0.25964,0.33192 0.2919,0.62642c0.20234,0.63684 0.15811,1.30802 -0.09818,1.78162c0.30233,0.53697 -0.06091,1.12 -0.06091,1.12l-0.65806,1.0562c-0.04536,0.07515 -0.09928,0.14383 -0.16028,0.20446c-0.01344,0.12457 -0.05049,0.26046 -0.11928,0.40769z" fill="#757575" stroke="none" stroke-width="0.5" stroke-linecap="butt"/><path d="M338.56432,104.97104c0,-0.59095 0.44772,-1.07001 1,-1.07001c0.55228,0 1,0.47906 1,1.07001c0,0.59095 -0.44772,1.07001 -1,1.07001c-0.55228,0 -1,-0.47907 -1,-1.07001z" fill="#000000" stroke="none" stroke-width="0.5" stroke-linecap="butt"/><path d="M340.89766,106.04105c0,-0.59095 0.44772,-1.07001 1,-1.07001c0.55228,0 1,0.47907 1,1.07001c0,0.59095 -0.44772,1.07001 -1,1.07001c-0.55228,0 -1,-0.47906 -1,-1.07001z" fill="#000000" stroke="none" stroke-width="0.5" stroke-linecap="butt"/><path d="M341.84634,108.51945c-0.31623,1.0151 -1.26491,0.67674 -1.26491,0.67674c-0.33333,-0.11889 -1.66667,-0.59446 -2,-0.71335c0,0 -0.94868,-0.33837 -0.63246,-1.35347c0.31623,-1.0151 1.26491,-0.67674 1.26491,-0.67674c0.33333,0.11889 0.66667,0.23778 1,0.35667l1,0.35667c0,0 0.94868,0.33837 0.63246,1.35347z" fill="#000000" stroke="none" stroke-width="0.5" stroke-linecap="butt"/><path d="M314.74199,146.95145c0,-1.07001 1,-1.07001 1,-1.07001l-0.22137,0.1797c1.33333,-0.95112 2.66667,-1.90224 4,-2.85337c0,0 0.07638,-0.05449 0.19827,-0.10568c-0.00729,-0.37273 0.03918,-0.71923 0.1008,-1.05997c-0.23508,0.00665 -0.47103,-0.03368 -0.70083,-0.12999c-2.79325,-1.17064 -1.66577,-3.02301 0.0968,-3.69359c-0.1586,-0.27853 -0.32345,-0.78785 0.15255,-1.29717c0.70711,-0.75662 1.41421,0 1.41421,0l0.18093,0.22298c0.46372,0.41879 1.19385,0.64237 1.39117,1.25638c0.21128,0.65745 0.06358,1.40434 -0.29372,2.04988c-0.06642,0.73147 -0.33697,1.50581 -0.36479,2.22614c3.0847,0.10142 6.42287,1.60857 8.21135,4.39448l0.16795,0.9502c0,0 0,1.07002 -1,1.07002c-1,0 -1,-1.07002 -1,-1.07002l0.16795,0.23687c-1.24144,-2.07839 -3.86073,-3.23329 -6.14667,-3.42003c0.38151,1.48194 0.75871,2.74354 0.48044,4.37689c0.81527,0.39928 1.20726,1.9741 1.44697,2.74795c0.6332,2.04413 0.71798,4.6047 0.71798,6.75844l0.22776,0.23481c0,0 0.44721,0.95705 -0.44721,1.43558c-0.89443,0.47852 -1.34164,-0.47852 -1.34164,-0.47852l-0.43891,-1.19187c0,-1.6911 -0.0613,-3.52325 -0.32042,-5.17866c-0.05659,-0.36153 -0.18303,-0.70375 -0.31114,-1.04596c-0.04353,1.99713 -1.0351,5.08318 -1.0351,6.58129c0,0 0,1.07001 -1,1.07001c-1,0 -1,-1.07001 -1,-1.07001c0,-2.63768 0.51362,-5.11758 1.01291,-7.66148c0.09833,-0.50101 -0.17684,-1.17833 0.17585,-1.52427c0.04721,-0.04631 0.09665,-0.0915 0.14804,-0.13531c0.01054,-0.17097 0.04785,-0.29075 0.04785,-0.29075c0.53706,-1.64443 0.11226,-2.81165 -0.29059,-4.14946c-1.17979,0.84159 -2.35957,1.68318 -3.53936,2.52477l-0.88803,0.17971c0,0 -1,0 -1,-1.07001z" fill="#00fff3" stroke="none" stroke-width="0.5" stroke-linecap="butt"/><path d="M348.96975,155.99007c-0.44721,0.95705 -1.34164,0.47852 -1.34164,0.47852l-0.21945,-0.24371c-1.22745,0 -2.13616,-0.00555 -3.31623,-0.41158c0,0 -0.12716,-0.04536 -0.27285,-0.15267c-0.13119,0.51226 -0.27834,1.02159 -0.43518,1.52877c0.48275,0.57076 0.92483,1.4258 1.30627,2.62048l0.33333,1.07002c0,0 0.31623,1.0151 -0.63246,1.35347c-0.94868,0.33837 -1.26491,-0.67674 -1.26491,-0.67674l-0.33333,-1.07002c-1.1518,-3.81918 -2.28568,-2.06725 -3.88593,0.61185c0,0 -0.5547,0.89031 -1.38675,0.29677c-0.83205,-0.59354 -0.27735,-1.48384 -0.27735,-1.48384c1.32136,-2.05828 2.88043,-3.60433 4.32018,-3.64697c0.07735,-0.2535 0.15315,-0.50913 0.22566,-0.76648c-0.98405,0.2589 -1.90515,0.37027 -3.04712,0.37027h-1c0,0 -1,0 -1,-1.07001c0,-1.07001 1,-1.07002 1,-1.07002h1c1.38229,0 2.27767,-0.16574 3.56769,-0.6174c0.06911,-0.50672 0.10626,-1.01522 0.09897,-1.52262v-0.35666c0,0 0,-1.07001 1,-1.07001c1,0 1,1.07001 1,1.07001v0.35666c-0.00755,0.72556 -0.07502,1.44191 -0.18655,2.15101c0.27192,-0.03841 0.50278,0.04392 0.50278,0.04392c0.95925,0.35869 1.66978,0.30177 2.68377,0.30177l1.11388,0.46964c0,0 0.89443,0.47852 0.44721,1.43557z" fill="#cebc97" stroke="none" stroke-width="0.5" stroke-linecap="butt"/><path d="M112.16271,196.37642l0.3674,0.39579c-0.06292,0.56522 0.14175,1.24964 -0.18876,1.69566c-0.15785,0.21303 -0.44828,0.40001 -0.81124,0.54518v0.61253c0,1.08365 0.04625,2.15085 0.10429,3.21132c1.69944,0.0298 3.45144,0.48829 5.05589,1.08254l0.83982,-0.01381c0,0 1,0 1,1.07001c0,1.07001 -1,1.07001 -1,1.07001l-1.16018,-0.01382c-1.46329,-0.50539 -3.06561,-1.02039 -4.61252,-1.05468c0.0492,0.89139 0.09024,1.78266 0.10238,2.67963c0.68823,1.29196 1.00101,3.20013 1.28567,4.11391l0.33333,1.07001c0,0 0.31623,1.0151 -0.63246,1.35347c-0.94868,0.33837 -1.26491,-0.67674 -1.26491,-0.67674l-0.33333,-1.07002c-0.05472,-0.17567 -0.35034,-1.21813 -0.60079,-2.19727c-0.0961,1.20051 -0.40876,2.60087 -0.50184,2.91062c0,0 -0.31623,1.0151 -1.26491,0.67674c-0.94868,-0.33837 -0.63246,-1.35346 -0.63246,-1.35346c0.43407,-1.32908 -0.31778,-5.33141 1.16814,-5.96874c0.14211,-0.06096 0.27828,-0.10471 0.40881,-0.13268c-0.02364,-0.60352 -0.05598,-1.20646 -0.09061,-1.81015c-0.74161,0.22907 -1.48591,0.44198 -2.22142,0.70495l-0.27579,0.45485c0,0 -0.70711,0.75662 -1.41421,0c-0.70711,-0.75662 0,-1.51323 0,-1.51323l1.05755,-0.97182c0.90429,-0.32181 1.82133,-0.5691 2.72984,-0.86469c-0.04628,-0.91213 -0.08028,-1.82961 -0.08028,-2.75693v-0.2985c-0.9154,-0.04909 -1.74052,-0.38188 -1.94587,-1.1376c-0.61403,-2.25974 2.34185,-3.15539 3.61254,-3.20062c0,0 1,0 1,1.07001c0,0.11848 -0.01226,0.22385 -0.03407,0.31754z" fill="#cc0000" stroke="none" stroke-width="0.5" stroke-linecap="butt"/><path d="M105.93691,209.13379c-1,0 -1,-1.07001 -1,-1.07001v-0.35667c0.00875,-0.60885 -0.09428,-1.22684 -0.28202,-1.80166c0,0 -0.31623,-1.0151 0.63246,-1.35347c0.94868,-0.33837 1.26491,0.67674 1.26491,0.67674c0.23959,0.79725 0.37594,1.641 0.38465,2.47839v0.35667c0,0 0,1.07001 -1,1.07001z" fill="#272727" stroke="none" stroke-width="0.5" stroke-linecap="butt"/><path d="M107.89727,197.00697c0,-0.59095 0.44772,-1.07001 1,-1.07001c0.55228,0 1,0.47906 1,1.07001c0,0.59095 -0.44772,1.07002 -1,1.07002c-0.55228,0 -1,-0.47907 -1,-1.07002z" fill="#000000" stroke="none" stroke-width="0.5" stroke-linecap="butt"/><path d="M110.56394,197.00697c0,-0.59095 0.44772,-1.07001 1,-1.07001c0.55228,0 1,0.47906 1,1.07001c0,0.59095 -0.44772,1.07002 -1,1.07002c-0.55228,0 -1,-0.47907 -1,-1.07002z" fill="#000000" stroke="none" stroke-width="0.5" stroke-linecap="butt"/><path d="M317.44644,139.59738c0,-0.59095 0.44772,-1.07001 1,-1.07001c0.55228,0 1,0.47907 1,1.07001c0,0.59095 -0.44772,1.07001 -1,1.07001c-0.55228,0 -1,-0.47907 -1,-1.07001z" fill="#000000" stroke="none" stroke-width="0.5" stroke-linecap="butt"/><path d="M320.11311,138.17069c0,-0.59095 0.44772,-1.07001 1,-1.07001c0.55228,0 1,0.47906 1,1.07001c0,0.59095 -0.44772,1.07002 -1,1.07002c-0.55228,0 -1,-0.47907 -1,-1.07002z" fill="#000000" stroke="none" stroke-width="0.5" stroke-linecap="butt"/><path d="M132.20258,79.71883c0.94868,-0.33837 1.26491,0.67674 1.26491,0.67674c0.11797,0.39257 0.37423,1.65127 0.45996,2.87568c0.82129,0.96026 1.72244,2.15029 2.09862,3.18672c0.0955,-0.01728 0.1594,-0.01728 0.1594,-0.01728c2.38847,0.02844 4.063,1.41884 5.70711,3.16676l0.66667,0.71335c0,0 0.70711,0.75662 0,1.51322c-0.70711,0.75661 -1.41421,0 -1.41421,0l-0.66667,-0.71335c-1.18291,-1.27513 -2.44804,-2.51232 -4.17282,-2.54c0.04044,1.5692 -0.0885,3.46968 -0.11529,4.88618c1.90522,0.78808 2.32174,5.23705 2.32856,6.88399v0.71334c0,0 0,1.07001 -1,1.07001c-1,0 -1,-1.07001 -1,-1.07001v-0.71334c0.00448,-0.88825 -0.16141,-1.77038 -0.31391,-2.64352c-0.88647,-5.07528 -2.60154,2.35112 -3.45833,4.19205c0,0 -0.44721,0.95705 -1.34164,0.47852c-0.89443,-0.47852 -0.44721,-1.43557 -0.44721,-1.43557c0.91334,-1.94594 1.67916,-3.79429 2.66278,-5.69832c0.22829,-0.44191 0.211,-1.10498 0.56516,-1.4086c0.00463,-1.24014 0.09672,-2.81117 0.10804,-4.24293c-1.32137,0.50527 -2.65824,0.91206 -4.00221,1.37612l-0.88465,0.64243c0,0 -0.83205,0.59354 -1.38675,-0.29676c-0.5547,-0.8903 0.27735,-1.48384 0.27735,-1.48384l1.11535,-0.78424c1.60094,-0.58523 3.21373,-1.04685 4.78816,-1.69773c-0.00216,-0.01757 -0.00437,-0.03504 -0.00662,-0.05241c-0.0476,-0.36708 -0.3489,-0.87611 -0.74128,-1.40543c-0.04013,0.02783 -0.08309,0.05024 -0.12904,0.06678c-1.05647,0.38035 -1.65362,0.01246 -2.03971,-0.58502c-0.37015,0.02723 -0.84518,-0.15717 -1.47259,-0.67178c-1.2805,-1.05029 0.34625,-3.69913 0.87506,-4.56019c0,0 0.52834,-0.84799 1.32721,-0.33705c0.05651,-0.03135 0.11917,-0.05975 0.18862,-0.08452z" fill="#008a1f" stroke="none" stroke-width="0.5" stroke-linecap="butt"/><path d="M120.51881,136.01791c0,1.07001 -1,1.07001 -1,1.07001h-0.33333c-1.56512,-0.02575 -2.65024,0.18058 -4.00942,-0.05997c0.00222,0.08766 0.00404,0.176 0.00546,0.26508c0.27341,0.24577 0.55758,0.57935 0.85461,1.0157c0.25201,0.37022 0.28758,0.8628 0.43137,1.29418l0.42509,0.2951c0,0 0.70711,0.75661 0,1.51322c-0.70711,0.75662 -1.41421,0 -1.41421,0l-0.90824,-1.13159c-0.90549,-3.25499 -2.53592,1.16498 -4.16328,2.33529c0,0 -0.83205,0.59354 -1.38675,-0.29676c-0.5547,-0.89031 0.27735,-1.48384 0.27735,-1.48384c1.38803,-0.9807 2.54581,-3.23271 3.87268,-3.91115c-0.00733,-0.20125 -0.0173,-0.39772 -0.02997,-0.59046c-1.08442,0.54359 -2.13811,0.99728 -3.30511,1.41361l0.05755,0.09819c0,0 -0.70711,0.75662 -1.41421,0c-0.70711,-0.75662 0,-1.51322 0,-1.51322l0.72421,-0.61516c1.29548,-0.46194 2.42841,-0.96494 3.64884,-1.60824c-0.07487,-0.38276 -0.16279,-0.7681 -0.2642,-1.16626c-0.21666,0.13164 -0.42259,0.21303 -0.60234,0.21343c-2.13748,0.00466 -2.76974,-1.4345 -1.50651,-3.24384c0.3614,-0.51763 1.07625,-0.64103 1.74364,-0.66692c0.04806,-0.13145 0.12942,-0.26727 0.25636,-0.4031c0.70711,-0.75662 1.41421,0 1.41421,0l0.66667,2.22657c-0.08473,0.09008 -0.19351,0.21135 -0.31959,0.35036c0.38077,1.19949 0.62665,2.27924 0.772,3.39333c1.56954,0.45424 2.40766,0.15745 4.17381,0.13641h0.33333c0,0 1,0 1,1.07001z" fill="#d2c900" stroke="none" stroke-width="0.5" stroke-linecap="butt"/><path d="M109.51881,131.38119c0,-0.59095 0.44772,-1.07001 1,-1.07001c0.55228,0 1,0.47906 1,1.07001c0,0.59095 -0.44772,1.07001 -1,1.07001c-0.55228,0 -1,-0.47907 -1,-1.07001z" fill="#000000" stroke="none" stroke-width="0.5" stroke-linecap="butt"/><path d="M112.51881,129.59784c0,-0.59095 0.44772,-1.07002 1,-1.07002c0.55228,0 1,0.47907 1,1.07002c0,0.59095 -0.44772,1.07001 -1,1.07001c-0.55228,0 -1,-0.47906 -1,-1.07001z" fill="#000000" stroke="none" stroke-width="0.5" stroke-linecap="butt"/><path d="M129.18547,83.23063c0,-0.59095 0.44772,-1.07001 1,-1.07001c0.55228,0 1,0.47907 1,1.07001c0,0.59095 -0.44772,1.07001 -1,1.07001c-0.55228,0 -1,-0.47906 -1,-1.07001z" fill="#000000" stroke="none" stroke-width="0.5" stroke-linecap="butt"/><path d="M131.85214,81.44727c0,-0.59095 0.44772,-1.07001 1,-1.07001c0.55228,0 1,0.47906 1,1.07001c0,0.59095 -0.44772,1.07001 -1,1.07001c-0.55228,0 -1,-0.47907 -1,-1.07001z" fill="#000000" stroke="none" stroke-width="0.5" stroke-linecap="butt"/><path d="M173.27279,272.40439l-0.5,-27.28532l135,-1.07001l-2,27.28531z" fill="url(#color-5)" stroke="none" stroke-width="0" stroke-linecap="butt"/><path d="M1.11136,300.82559v-65.06264l53.62636,-27.66603l6.15442,52.71418z" data-paper-data="{&quot;index&quot;:null}" fill="#000000" stroke="#000000" stroke-width="2" stroke-linecap="butt"/><g><path d="M421.38577,260.17046l6.5,-53.50062l53,27.28532l2.5,69.01581z" fill="#8c8c8c" stroke="none" stroke-width="0" stroke-linecap="butt"/><path d="M480.48298,260.62099h-58.5" fill="none" stroke="#000000" stroke-width="2" stroke-linecap="round"/><path d="M481.98298,277.82567l-26,-16.58519v-39.59046" fill="none" stroke="#000000" stroke-width="2" stroke-linecap="round"/></g><path d="M374.14135,246.83255v-187.78719h31.5l-5,204.37239z" fill="url(#color-6)" stroke="none" stroke-width="0" stroke-linecap="butt"/><path d="M338.29334,247.10955v-188.32219h35v188.3222z" fill="url(#color-7)" stroke="none" stroke-width="0" stroke-linecap="butt"/><path d="M95.88577,246.03954v-203.30237h44.5v203.30237z" fill="url(#color-8)" stroke="none" stroke-width="0" stroke-linecap="butt"/><path d="M66.38577,267.97479l-6.5,-215.07251h37.5v194.20727z" fill="url(#color-9)" stroke="none" stroke-width="0" stroke-linecap="butt"/><path d="M-64.5,175.76158v-144.45168h629v144.45169z" fill="url(#color-10)" stroke="none" stroke-width="0" stroke-linecap="butt"/><path d="M475.42543,242.11863l-0.06452,-1.35358l2.90054,-0.13826l0.06452,1.35358z" fill="#663f3f" stroke="#000000" stroke-width="0.5" stroke-linecap="butt"/><path d="M476.91718,242.91965l-0.06451,-1.35359l2.90053,-0.13826l0.06452,1.35358z" fill="#663f3f" stroke="#000000" stroke-width="0.5" stroke-linecap="butt"/><path d="M473.58147,241.04366l-0.06452,-1.35358l2.90054,-0.13825l0.06452,1.35358z" fill="#663f3f" stroke="#000000" stroke-width="0.5" stroke-linecap="butt"/><path d="M473.67595,243.0257l-0.06452,-1.35358l2.90054,-0.13826l0.06452,1.35358z" fill="#663f3f" stroke="#000000" stroke-width="0.5" stroke-linecap="butt"/><path d="M476.8204,240.88928l-0.06452,-1.35358l2.90054,-0.13825l0.06452,1.35358z" fill="#663f3f" stroke="#000000" stroke-width="0.5" stroke-linecap="butt"/><path d="M476.21514,244.45514l-0.2673,-5.60771l1.54695,-0.07373l0.2673,5.60771z" fill="#663f3f" stroke="#000000" stroke-width="0.5" stroke-linecap="butt"/><path d="M450.64595,262.09168l-1.24875,-0.52629l1.12776,-2.67589l1.24875,0.52629z" fill="#663f3f" stroke="#000000" stroke-width="0.5" stroke-linecap="butt"/><path d="M450.88484,263.76795l-1.24875,-0.52629l1.12777,-2.67589l1.24875,0.52629z" fill="#663f3f" stroke="#000000" stroke-width="0.5" stroke-linecap="butt"/><path d="M450.27105,259.99044l-1.24875,-0.52628l1.12776,-2.67589l1.24875,0.52629z" fill="#663f3f" stroke="#000000" stroke-width="0.5" stroke-linecap="butt"/><path d="M452.09957,260.76108l-1.24875,-0.52629l1.12776,-2.67589l1.24875,0.52629z" fill="#663f3f" stroke="#000000" stroke-width="0.5" stroke-linecap="butt"/><path d="M449.01171,262.97852l-1.24875,-0.52629l1.12776,-2.67589l1.24875,0.52629z" fill="#663f3f" stroke="#000000" stroke-width="0.5" stroke-linecap="butt"/><path d="M453.0944,262.38832l-5.17339,-2.18034l0.60147,-1.42714l5.17339,2.18034z" fill="#663f3f" stroke="#000000" stroke-width="0.5" stroke-linecap="butt"/><path d="M481.40122,288.80389l-1.54876,-2.67462l5.73134,-3.31878l1.54876,2.67462z" fill="#663f3f" stroke="#000000" stroke-width="0.5" stroke-linecap="butt"/><path d="M479.53117,292.18268l-1.54876,-2.67462l5.73134,-3.31878l1.54877,2.67462z" fill="#663f3f" stroke="#000000" stroke-width="0.5" stroke-linecap="butt"/><path d="M483.60804,284.46475l-1.54877,-2.67462l5.73134,-3.31878l1.54876,2.67462z" fill="#663f3f" stroke="#000000" stroke-width="0.5" stroke-linecap="butt"/><path d="M477.20803,288.17075l-1.54876,-2.67462l5.73134,-3.31878l1.54877,2.67463z" fill="#663f3f" stroke="#000000" stroke-width="0.5" stroke-linecap="butt"/><path d="M485.44887,292.7101l-6.41631,-11.0806l3.05671,-1.77002l6.41631,11.0806z" fill="#663f3f" stroke="#000000" stroke-width="0.5" stroke-linecap="butt"/><path d="M492.62758,251.25189c6.62435,9.48239 3.49471,23.10726 -6.56237,30.13308c-6.54858,4.5748 -12.79144,5.7687 -18.93682,2.27613c-1.09662,-0.62323 -2.37175,-4.51685 -3.44926,-5.20402c-2.15761,-1.37598 -4.78753,1.71007 -6.32879,-0.49616c-2.87441,-4.11456 -6.03043,-7.62978 -6.11247,-12.963c-0.10703,-6.95769 3.93374,-15.7088 9.62689,-19.68601c10.05708,-7.02582 25.13847,-3.54241 31.76282,5.93998z" fill="#063800" stroke="#929292" stroke-width="1" stroke-linecap="butt"/><path d="M433.89887,257.1848l-1.35511,0.00555l-0.01189,-2.90381l1.35511,-0.00555z" fill="#663f3f" stroke="#000000" stroke-width="0.5" stroke-linecap="butt"/><path d="M434.77596,258.63313l-1.35511,0.00555l-0.01189,-2.90381l1.35511,-0.00556z" fill="#663f3f" stroke="#000000" stroke-width="0.5" stroke-linecap="butt"/><path d="M432.73001,255.39888l-1.35511,0.00555l-0.01189,-2.90381l1.35511,-0.00555z" fill="#663f3f" stroke="#000000" stroke-width="0.5" stroke-linecap="butt"/><path d="M434.7143,255.39074l-1.35511,0.00555l-0.01189,-2.90381l1.35511,-0.00555z" fill="#663f3f" stroke="#000000" stroke-width="0.5" stroke-linecap="butt"/><path d="M432.74329,258.64146l-1.35511,0.00555l-0.01189,-2.90381l1.35511,-0.00555z" fill="#663f3f" stroke="#000000" stroke-width="0.5" stroke-linecap="butt"/><path d="M436.26753,256.49753l-5.61403,0.02299l-0.00634,-1.5487l5.61403,-0.023z" fill="#663f3f" stroke="#000000" stroke-width="0.5" stroke-linecap="butt"/><path d="M442.4254,253.87347c4.54428,1.62458 7.62953,4.61604 6.89109,6.68163c-0.73845,2.06558 -5.02095,2.42309 -9.56523,0.79851c-4.54428,-1.62458 -7.62953,-4.61604 -6.89108,-6.68162c0.73845,-2.06558 5.02095,-2.42309 9.56523,-0.79851z" fill="#063800" stroke="#000000" stroke-width="0.5" stroke-linecap="butt"/><path d="M442.21852,254.80047c3.26429,1.16698 5.48051,3.31584 4.95007,4.79961c-0.53045,1.48377 -3.60669,1.74057 -6.87098,0.57359c-3.26429,-1.16698 -5.48051,-3.31584 -4.95006,-4.79961c0.53045,-1.48377 3.60669,-1.74058 6.87097,-0.5736z" fill="#0a6100" stroke="#000000" stroke-width="0.5" stroke-linecap="butt"/><path d="M465.78145,265.07c1.15424,1.65224 0.8476,3.85953 -0.68491,4.93013c-1.53251,1.0706 -3.71055,0.59909 -4.86479,-1.05314c-1.15424,-1.65224 -0.8476,-3.85953 0.68491,-4.93013c1.53251,-1.0706 3.71055,-0.59909 4.86479,1.05314z" fill="#000000" stroke="#000000" stroke-width="2" stroke-linecap="butt"/><path d="M483.5732,254.70531c1.15424,1.65224 0.8476,3.85953 -0.68491,4.93013c-1.53251,1.0706 -3.71055,0.59909 -4.86479,-1.05314c-1.15424,-1.65223 -0.8476,-3.85953 0.68491,-4.93013c1.53251,-1.0706 3.71055,-0.59909 4.86479,1.05314z" fill="#000000" stroke="#000000" stroke-width="2" stroke-linecap="butt"/><path d="M462.41672,266.76488c-0.13861,0.78113 -0.91974,0.64253 -0.91974,0.64253l-0.55415,-0.12672c-0.59374,-0.28342 -1.17369,-0.60684 -1.70341,-0.99704c0,0 -0.63668,-0.47331 -0.16337,-1.10999c0.47331,-0.63668 1.10999,-0.16337 1.10999,-0.16337c0.44259,0.3327 0.93383,0.60139 1.4353,0.83612l0.15286,-0.00127c0,0 0.78113,0.13861 0.64253,0.91974z" fill="#663f3f" stroke="none" stroke-width="0.5" stroke-linecap="butt"/><path d="M464.12881,266.42197c-0.76065,0.22536 -0.98602,-0.5353 -0.98602,-0.5353l-0.25948,-0.95052c0.09356,-0.59372 0.17193,-1.19104 0.21,-1.79088c0,0 0.0515,-0.79167 0.84316,-0.74016c0.79167,0.0515 0.74016,0.84316 0.74016,0.84316c-0.03565,0.53627 -0.10135,1.07221 -0.20915,1.59875l0.19662,0.58894c0,0 0.22536,0.76065 -0.5353,0.98602z" fill="#663f3f" stroke="none" stroke-width="0.5" stroke-linecap="butt"/><path d="M462.56324,268.8554c-0.09122,-0.2218 -0.16964,-0.62963 0.28001,-0.94375c0.65036,-0.45433 1.10469,0.19602 1.10469,0.19602l0.214,0.60989c-0.05706,0.87721 -0.15076,1.35653 0.15371,2.18622c0,0 0.25819,0.75014 -0.49196,1.00833c-0.75014,0.25819 -1.00833,-0.49196 -1.00833,-0.49196c-0.31809,-0.96925 -0.31064,-1.61767 -0.25211,-2.56475z" fill="#663f3f" stroke="none" stroke-width="0.5" stroke-linecap="butt"/><path d="M463.9531,267.23848c0.37851,-0.69722 1.07573,-0.3187 1.07573,-0.3187l0.09495,0.07159c0.96192,0.28315 1.09798,0.51878 2.03017,0.10551c0,0 0.74113,-0.28304 1.02417,0.4581c0.28304,0.74113 -0.4581,1.02417 -0.4581,1.02417c-1.34473,0.46478 -1.73867,0.31865 -3.04429,-0.06566l-0.40393,-0.19925c0,0 -0.69722,-0.37851 -0.3187,-1.07573z" fill="#663f3f" stroke="none" stroke-width="0.5" stroke-linecap="butt"/><path d="M464.95569,267.04286c0.03666,0.07958 0.05254,0.13318 0.05254,0.13318l-0.63539,1.76528c-0.70387,0.06127 -1.61635,0.68769 -2.11162,0.18382c-2.25809,-2.29728 0.06689,-2.93054 1.23876,-3.57551c0,0 1.0268,-0.42341 1.45021,0.60339c0.15406,0.37361 0.11612,0.66733 0.00551,0.88984z" fill="#7a0000" stroke="none" stroke-width="0.5" stroke-linecap="butt"/><path d="M481.88693,260.40654c0.06843,0.23092 0.07594,0.57413 -0.3143,0.84675c-0.65036,0.45433 -1.10469,-0.19602 -1.10469,-0.19602l-0.18339,-0.78242c0.34301,-1.15852 0.13393,-2.19449 0.31155,-3.33203c-0.12508,-0.00425 -0.25021,-0.00422 -0.37533,0.00061c-1.5442,0.05969 -2.12777,0.51974 -3.554,-0.51183c0,0 -0.63668,-0.47331 -0.16337,-1.10999c0.47331,-0.63668 1.10999,-0.16337 1.10999,-0.16337c1.0717,0.82804 1.29007,0.25803 2.51825,0.20102c0.26032,-0.01208 0.52021,-0.00676 0.77943,0.01247c0.11658,-0.69535 0.15858,-1.36422 0.0326,-2.20225c0,0 -0.11552,-0.78488 0.66936,-0.9004c0.78488,-0.11552 0.9004,0.66936 0.9004,0.66936c0.14336,0.99235 0.10782,1.82799 -0.03177,2.69383c0.59524,0.14307 1.18418,0.32324 1.76376,0.49648c0.23026,-0.06183 0.55967,-0.05619 0.82315,0.32097c0.45433,0.65036 -0.19602,1.10469 -0.19602,1.10469l-0.78242,0.18339c-0.63104,-0.18575 -1.27745,-0.39935 -1.9314,-0.5588c-0.2133,1.07212 -0.03293,2.12444 -0.2718,3.22753z" fill="#663f3f" stroke="none" stroke-width="0.5" stroke-linecap="butt"/><path d="M479.25932,255.28218c0.45138,-0.31533 0.83532,-0.25057 1.10775,-0.10506c0.01807,-0.02104 0.03718,-0.04212 0.05739,-0.06322c0.76808,-0.80228 1.57035,-0.03421 1.57035,-0.03421l0.91848,0.87933c0.05831,0.05366 0.11174,0.11443 0.15899,0.18207c0.35129,0.50285 0.22843,1.19528 -0.27443,1.54657c-0.15293,0.10683 -0.32338,0.16981 -0.49644,0.19159l-1.10112,0.16206l-0.00837,-0.05691c-0.11396,0.02545 -0.22961,0.04335 -0.34741,0.05167c-0.49465,0.03497 -0.88909,-0.43945 -1.33364,-0.65916l-0.52597,-0.54815c0,0 -0.63607,-0.9105 0.27443,-1.54657z" fill="#7a0000" stroke="none" stroke-width="0.5" stroke-linecap="butt"/><path d="M465.76308,273.03324c-0.09087,-0.13007 0.0392,-0.22094 0.0392,-0.22094l0.15609,-0.10904c0.32577,-0.20389 0.29138,-0.54206 0.24881,-0.91354c-0.55256,-1.44593 -2.76271,-0.92357 -3.00753,-2.50429c-0.05359,-0.346 0.15137,-0.90534 0.21254,-1.25003c0,0 0.02772,-0.15623 0.18395,-0.1285c0.15623,0.02772 0.1285,0.18395 0.1285,0.18395c-0.4778,2.69267 1.99776,1.54595 2.79083,3.62368c0.06026,0.52954 0.0635,0.91959 -0.37537,1.24887l-0.15609,0.10904c0,0 -0.13007,0.09087 -0.22094,-0.0392z" fill="#04ff00" stroke="none" stroke-width="0.5" stroke-linecap="butt"/><path d="M432.70544,265.35787c-0.02772,0.15623 -0.18395,0.1285 -0.18395,0.1285l-0.22473,-0.04814c-0.7635,-0.4496 -1.81499,-1.08144 -1.99296,-2.18932c-0.15074,-1.44293 0.20865,-2.61592 -0.25669,-4.11213c-0.08787,-0.28253 -1.24711,-0.89117 -1.52558,-1.28979c-1.53672,-2.19973 1.13914,-3.12749 2.80222,-2.27643c0,0 0.13944,0.07571 0.06374,0.21514c-0.07571,0.13944 -0.21514,0.06374 -0.21514,0.06374c-1.39007,-0.81857 -3.68592,-0.03828 -2.39066,1.81581c0.36902,0.52823 1.35302,0.87304 1.56038,1.35442c0.64296,1.49268 0.06171,2.76169 0.27621,4.18664c0.12676,0.97799 1.1595,1.60996 1.8299,1.95303l0.12877,0.01458c0,0 0.15623,0.02772 0.1285,0.18395z" fill="#04ff00" stroke="none" stroke-width="0.5" stroke-linecap="butt"/><path d="M463.2759,282.26467c-0.15297,-0.04216 -0.11081,-0.19512 -0.11081,-0.19512l0.02215,-0.08037c0.08501,-0.30803 0.18961,-0.5955 0.24811,-0.90995c0.44629,-1.63387 -1.00437,-1.01379 -2.06136,-1.71603c-0.49544,-0.32916 -1.18658,-1.44845 -0.42517,-1.65341c0,0 0.15698,-0.02311 0.18008,0.13387c0.02311,0.15698 -0.13387,0.18008 -0.13387,0.18008c-0.341,-0.04053 0.34443,0.94742 0.54975,1.072c1.16303,0.7057 2.71346,0.17284 2.19984,2.05454c-0.0601,0.31891 -0.16548,0.6108 -0.25145,0.92319l-0.02215,0.08037c0,0 -0.04216,0.15297 -0.19512,0.11081z" fill="#04ff00" stroke="none" stroke-width="0.5" stroke-linecap="butt"/><path d="M465.86436,283.70537c0.04345,-0.0188 0.12773,-0.03783 0.19225,0.05452c0.09087,0.13007 -0.0392,0.22094 -0.0392,0.22094l-0.325,0.03349c-0.24813,-0.35518 -1.08483,-1.18792 -0.93727,-1.65981c0.14673,-0.46922 0.84077,-0.46845 1.21105,-0.20647c-0.04965,-0.11233 -0.08176,-0.2337 -0.10108,-0.35385c0,0 -0.02311,-0.15698 0.13387,-0.18008c0.15698,-0.02311 0.18008,0.13387 0.18008,0.13387c0.02088,0.16094 0.08427,0.32043 0.17721,0.45347l-0.00233,0.03719l0.01184,-0.00174l0.04083,0.27741c0.00988,0.05857 -0.01369,0.1203 -0.06561,0.15658c-0.0619,0.04325 -0.14391,0.03619 -0.19752,-0.01255l-0.18464,-0.16064c-1.17701,-0.52928 -0.68646,0.34654 -0.09449,1.20768z" fill="#04ff00" stroke="none" stroke-width="0.5" stroke-linecap="butt"/><path d="M465.66681,280.81927c-0.13007,0.09087 -0.22094,-0.0392 -0.22094,-0.0392l-0.01833,-0.05548c-1.43818,-0.78077 -2.46168,-2.12353 -3.86565,-2.87373c0,0 -0.13944,-0.07571 -0.06374,-0.21514c0.07571,-0.13944 0.21514,-0.06374 0.21514,-0.06374c1.38816,0.76793 2.43877,2.09909 3.86565,2.87373l0.12706,0.15263c0,0 0.09087,0.13007 -0.0392,0.22094z" fill="#1c00ff" stroke="none" stroke-width="0.5" stroke-linecap="butt"/><path d="M432.74867,266.52313c-0.14244,-0.06991 -0.07253,-0.21234 -0.07253,-0.21234l0.04675,-0.09525c0.21576,-0.43914 0.39347,-0.9041 0.68623,-1.29502c0.61664,-1.55318 -1.44935,-2.51033 -2.36447,-3.04493c-0.46785,-0.27331 -0.92628,-1.07783 -1.23605,-1.52125c-0.65356,-0.93553 -0.7607,-2.27894 -0.00389,-3.20373c0.41525,-0.50742 1.54602,-0.59401 1.7714,-1.0687c0,0 0.07571,-0.13944 0.21514,-0.06374c0.13944,0.07571 0.06374,0.21514 0.06374,0.21514c-0.34485,0.58533 -1.31268,0.56198 -1.80787,1.12208c-0.69717,0.78854 -0.53691,2.01772 0.02162,2.81722c0.99749,1.42786 4.45109,2.68203 3.61816,4.90135c-0.28981,0.38739 -0.46586,0.84637 -0.67914,1.28141l-0.04675,0.09525c0,0 -0.06991,0.14244 -0.21234,0.07253z" fill="#1c00ff" stroke="none" stroke-width="0.5" stroke-linecap="butt"/><path d="M468.63174,271.4191c-0.07571,0.13944 -0.21514,0.06374 -0.21514,0.06374l-0.27318,-0.15123c-0.05511,-0.06702 -0.11023,-0.13404 -0.16534,-0.20106c-1.63027,-0.24836 -2.62093,-2.61237 -4.00867,-3.35389c0,0 -0.13944,-0.07571 -0.06374,-0.21514c0.07571,-0.13944 0.21514,-0.06374 0.21514,-0.06374c1.42193,0.78661 2.36794,3.02978 4.01397,3.35684c0.06917,0.07658 0.13835,0.15315 0.20752,0.22973l0.2257,0.11961c0,0 0.13944,0.07571 0.06374,0.21514z" fill="#1c00ff" stroke="none" stroke-width="0.5" stroke-linecap="butt"/><path d="M483.93784,261.98545c-0.13208,0.08792 -0.22,-0.04417 -0.22,-0.04417l-0.1639,-0.25465c-0.03873,-0.35248 0.01631,-0.65338 -0.02062,-1.00311c0.18323,-1.02339 -1.68036,-1.88013 -2.1043,-2.91248c-0.14643,-0.35657 0.01595,-1.02905 -0.343,-1.17776c0,0 -0.13944,-0.07571 -0.06374,-0.21514c0.07571,-0.13944 0.21514,-0.06374 0.21514,-0.06374c0.5371,0.33395 0.26886,0.81446 0.48653,1.33954c0.46369,1.11856 2.3365,1.84675 2.1265,3.04072c0.0328,0.30959 -0.02505,0.57763 0.00222,0.88491l0.12934,0.18588c0,0 0.08792,0.13208 -0.04417,0.22z" fill="#1c00ff" stroke="none" stroke-width="0.5" stroke-linecap="butt"/><path d="M461.65368,282.16733c-0.13007,0.09087 -0.22094,-0.0392 -0.22094,-0.0392l-0.07561,-0.10837c-0.79787,-1.24725 -1.36683,-2.86787 -2.19783,-4.03251c0,0 -0.09087,-0.13007 0.0392,-0.22094c0.13007,-0.09087 0.22094,0.0392 0.22094,0.0392c0.82835,1.2068 1.36829,2.78418 2.20365,4.04114l0.06978,0.09974c0,0 0.09087,0.13007 -0.0392,0.22094z" fill="#000000" stroke="none" stroke-width="0.5" stroke-linecap="butt"/><path d="M468.3508,287.22325c-0.15698,0.02311 -0.18008,-0.13387 -0.18008,-0.13387l-0.03908,-0.26876c-0.41711,-1.36485 -2.55155,-3.25384 -1.22176,-4.22198c0,0 0.13007,-0.09087 0.22094,0.0392c0.09087,0.13007 -0.0392,0.22094 -0.0392,0.22094c-1.02059,0.691 0.98467,2.7325 1.34949,3.89154l0.04358,0.29285c0,0 0.02311,0.15698 -0.13387,0.18008z" fill="#000000" stroke="none" stroke-width="0.5" stroke-linecap="butt"/><path d="M433.48513,266.45702c-0.01346,0.1581 -0.17156,0.14463 -0.17156,0.14463l-0.17772,-0.01514c-0.12732,-0.01586 -0.25465,-0.03171 -0.38198,-0.04756c-0.55098,-0.72682 -1.75188,-2.71911 -1.55541,-3.67705c0.17756,-0.86568 0.73933,-1.30326 0.76921,-2.24298c0.04223,-0.65708 -0.66235,-1.14456 -1.19735,-1.39034c-1.38724,-0.63728 -2.49755,-1.0719 -3.38263,-2.34018c-0.49785,-0.77699 0.60625,-1.82082 1.40784,-1.97426c1.1635,-0.22272 1.9118,0.46004 2.80849,1.04818c0,0 0.13268,0.08702 0.04566,0.2197c-0.08702,0.13268 -0.2197,0.04566 -0.2197,0.04566c-0.85003,-0.55753 -1.48617,-1.1886 -2.57726,-1.00139c-0.50771,0.08711 -1.61391,0.9613 -1.20471,1.48064c0.97004,1.39001 4.65854,2.04494 4.63682,3.92268c-0.03437,0.95861 -0.59836,1.42758 -0.77481,2.29259c-0.17799,0.87254 0.9665,2.63063 1.40235,3.34182c0.08347,0.0021 0.16694,0.00419 0.25041,0.00629l0.17772,0.01514c0,0 0.1581,0.01346 0.14463,0.17156z" fill="#000000" stroke="none" stroke-width="0.5" stroke-linecap="butt"/><path d="M468.46114,271.74452c-0.13086,0.08973 -0.22059,-0.04113 -0.22059,-0.04113l-0.18026,-0.26292c-0.37745,-0.59526 -0.37543,-1.30586 -0.5804,-1.99478c-0.33991,-1.15245 -1.17794,-1.95115 -2.39876,-2.14661c-0.6199,-0.09925 -1.15002,0.32211 -1.74148,0.01944c0,0 -0.13944,-0.07571 -0.06374,-0.21514c0.07571,-0.13944 0.21514,-0.06374 0.21514,-0.06374c0.4674,0.27523 1.10584,-0.13349 1.63838,-0.05419c1.33441,0.19872 2.28134,1.11587 2.65471,2.3701c0.19512,0.6616 0.18724,1.35328 0.541,1.91013l0.17711,0.25824c0,0 0.08973,0.13086 -0.04113,0.22059z" fill="#000000" stroke="none" stroke-width="0.5" stroke-linecap="butt"/><path d="M485.78702,260.41496c-0.13007,0.09087 -0.22094,-0.0392 -0.22094,-0.0392l-0.07269,-0.10406c-0.26385,-0.3897 -0.48142,-1.24927 -0.55562,-1.71076c-0.26513,-1.72691 -1.85073,-3.38244 -3.43117,-2.27835c0,0 -0.13007,0.09087 -0.22094,-0.0392c-0.09087,-0.13007 0.0392,-0.22094 0.0392,-0.22094c1.78323,-1.24576 3.6262,0.54367 3.9267,2.49126c0.05082,0.39174 0.26485,1.25059 0.50196,1.57627l0.07269,0.10406c0,0 0.09087,0.13007 -0.0392,0.22094z" fill="#000000" stroke="none" stroke-width="0.5" stroke-linecap="butt"/><path d="M465.29554,275.0343c-0.14798,0.05726 -0.20524,-0.09072 -0.20524,-0.09072l-0.00055,-0.00143c-0.44118,-1.23318 0.27512,-2.52082 -1.03578,-3.48994c-0.65844,-0.38771 -3.07262,-1.46326 -2.38409,-2.79332c0.23866,-0.46102 0.86657,-0.74969 1.27971,-1.03831c0,0 0.13007,-0.09087 0.22094,0.0392c0.09087,0.13007 -0.0392,0.22094 -0.0392,0.22094c-0.2811,0.19637 -1.28101,0.66542 -1.24364,1.09237c0.11343,1.2963 1.49511,1.77872 2.33708,2.21167c1.44012,1.0755 0.60956,2.35812 1.16093,3.64288l0.00055,0.00143c0,0 0.05726,0.14797 -0.09071,0.20524z" fill="#420000" stroke="none" stroke-width="0.5" stroke-linecap="butt"/><path d="M482.99382,264.34049c0.09087,0.13007 -0.0392,0.22094 -0.0392,0.22094l-0.25691,0.08868c-1.69639,-0.72929 0.01525,-3.26188 -0.95241,-4.64525c-0.70997,-1.00963 -1.77581,-1.03991 -2.5533,-1.88491c-0.84492,-0.91829 0.14202,-1.45977 1.01176,-1.43043c0,0 0.15858,0.00535 0.15323,0.16393c-0.00535,0.15858 -0.16393,0.15323 -0.16393,0.15323c-2.62294,-0.08848 1.39539,2.22439 1.81201,2.81592c0.88489,1.26503 -0.52288,3.97539 0.81661,4.53539l-0.04879,-0.0567c0,0 0.13007,-0.09087 0.22094,0.0392z" fill="#420000" stroke="none" stroke-width="0.5" stroke-linecap="butt"/><path d="M434.10537,266.42378c-0.15623,-0.02772 -0.1285,-0.18395 -0.1285,-0.18395l0.01457,-0.08209c0.18375,-1.03555 -0.23017,-1.45706 -0.79421,-2.28973c-1.78766,-0.97475 -3.29246,-2.98745 -3.53791,-5.1633c-0.73578,-2.00609 0.79867,-4.37736 2.71075,-2.5468c0,0 0.11461,0.10972 0.00488,0.22434c-0.10972,0.11461 -0.22433,0.00489 -0.22433,0.00489c-1.67819,-1.60665 -2.86556,0.53395 -2.18301,2.24239c0.25004,2.16618 1.69574,4.01215 3.44229,5.00298c0.64177,0.89655 1.09635,1.44024 0.89399,2.58068l-0.01457,0.08209c0,0 -0.02773,0.15622 -0.18395,0.12851z" fill="#420000" stroke="none" stroke-width="0.5" stroke-linecap="butt"/><path d="M464.65879,283.17003c-0.02772,0.15623 -0.18395,0.12851 -0.18395,0.12851l-0.22773,-0.04982c-0.47857,-0.27844 -0.8166,-0.69899 -1.1318,-1.1502c-1.04283,-1.49275 -2.20225,-2.70911 -3.18855,-4.12095c0,0 -0.09087,-0.13007 0.0392,-0.22094c0.13007,-0.09087 0.22094,0.0392 0.22094,0.0392c0.98531,1.41041 2.14562,2.62805 3.18855,4.12095c0.28477,0.40763 0.5916,0.812 1.02907,1.05639l0.12577,0.01291c0,0 0.15623,0.02772 0.1285,0.18395z" fill="#420000" stroke="none" stroke-width="0.5" stroke-linecap="butt"/><path d="M469.73766,286.64646c-0.13007,0.09087 -0.22094,-0.0392 -0.22094,-0.0392l-0.03635,-0.05203c-0.10209,-0.14613 -0.20355,-0.29271 -0.30276,-0.4408c-1.17309,-0.61104 -1.9596,-1.11967 -2.35216,-2.48623c-0.1514,-0.52706 -0.76515,-0.89318 -0.28133,-1.33146c0,0 0.13007,-0.09087 0.22094,0.0392c0.09087,0.13007 -0.0392,0.22094 -0.0392,0.22094c-0.20725,0.06248 0.32125,0.69412 0.40282,0.97772c0.38666,1.34451 1.1276,1.70864 2.26037,2.34318c0.11841,0.16434 0.23547,0.32966 0.35147,0.49571l0.03635,0.05203c0,0 0.09087,0.13007 -0.0392,0.22094z" fill="#420000" stroke="none" stroke-width="0.5" stroke-linecap="butt"/><path d="M483.83655,262.20956c-0.15863,0.00345 -0.16208,-0.15518 -0.16208,-0.15518l0.02358,-0.14136c-0.28519,-0.40829 -0.64615,-0.71704 -0.93249,-1.10616c-0.99685,-0.57272 -2.32864,-1.61328 -2.72818,-2.81853c-0.2011,-0.60663 0.13862,-1.53015 0.78596,-1.17349c0,0 0.12734,0.09466 0.03268,0.222c-0.09466,0.12733 -0.222,0.03267 -0.222,0.03267c-0.24237,-0.33359 -0.28541,0.82472 -0.02617,1.1958c0.71245,1.01983 1.31989,1.69446 2.36869,2.3045c0.30644,0.40641 0.68191,0.73246 0.98166,1.16147l0.03354,0.31619c0,0 0.00346,0.15864 -0.15517,0.16209z" fill="#04ff00" stroke="none" stroke-width="0.5" stroke-linecap="butt"/><path d="M436.55618,252.71121c-0.00464,-0.083 0.07124,-0.13601 0.07124,-0.13601l0.10341,-0.06239c0.07428,-0.02197 0.14858,-0.04394 0.22286,-0.06591c1.41786,-0.21016 3.73114,0.44632 5.01946,1.13667c1.64459,0.67829 2.84206,1.61487 4.39418,2.4575c0.57499,0.44505 2.2423,1.11851 2.03467,2.22037c-0.10938,0.58046 -1.14954,1.04184 -1.60482,1.3599c-0.79859,0.52705 -2.06441,-0.68013 -2.66516,-1.09635c-0.52445,-0.36336 -1.83088,0.04379 -2.3669,0.19568c-0.6732,-0.11103 -1.45471,0.09909 -2.02708,-0.32175c-0.85349,-0.62753 -0.53367,-2.13021 -1.65589,-2.30283c-1.39718,-0.42386 -3.28994,-2.14092 -1.52994,-3.38231c0,0 0.00139,-0.00097 0.00399,-0.00258z" fill="#000000" stroke="none" stroke-width="0.5" stroke-linecap="butt"/><path d="M467.26047,249.43119c0.00578,-0.01065 0.01192,-0.02004 0.01836,-0.0283c0.47254,-1.81477 2.61667,-2.48028 4.22449,-3.6035c0.61705,-0.43107 1.39255,-1.20418 2.14264,-1.37148c1.21291,-0.27052 2.65399,1.03181 3.84678,1.24967c0.68686,-0.10504 1.34368,-0.63842 2.02839,-0.64281c1.78527,-0.01144 2.24734,1.42768 2.59919,2.94562c0.32817,0.45997 0.22773,0.6378 0.31576,1.13302c0.45069,2.5353 -2.81938,1.01149 -4.04529,1.63131c-1.88275,0.76941 -4.11155,3.40577 -5.83495,0.93881c-0.15615,-0.22352 -0.42445,-0.81254 -0.6552,-0.94212c-1.19534,-0.6713 -3.08557,0.47152 -4.18193,-0.892c-0.06563,-0.0296 -0.1309,-0.06253 -0.19507,-0.09626c-0.01553,0.09736 -0.02601,0.19797 -0.0311,0.30204c0.04279,0.07253 0.08558,0.14506 0.12838,0.2176l0.06432,0.0907c0,0 0.09087,0.13007 -0.0392,0.22094c-0.13007,0.09087 -0.22094,-0.0392 -0.22094,-0.0392l-0.08106,-0.11741c-0.05321,-0.09895 -0.10643,-0.19789 -0.15964,-0.29684c0.00251,-0.20505 0.02314,-0.39752 0.05993,-0.57887c-0.01047,-0.03241 -0.00993,-0.07288 0.01615,-0.12089z" fill="#000000" stroke="none" stroke-width="0.5" stroke-linecap="butt"/><path d="M494.54883,255.00722c0.12275,1.01716 -0.04777,2.9482 0.42112,3.64851c0.39284,2.08368 0.45089,4.14521 0.7331,6.1824c-0.0943,1.95637 -1.90922,2.36072 -3.30834,1.05232c-0.36745,-0.34362 -1.03878,-1.24633 -0.82278,-1.68163c-0.39265,-1.07208 -0.07688,-2.51916 -0.0805,-3.64421c-0.00321,-0.99673 -0.32711,-1.76724 -0.15413,-2.74209c0.13474,-0.75324 -0.13573,-1.67357 0.43834,-2.3347c0.68092,-0.78417 1.54664,-0.33084 2.37201,-0.63885c-0.00581,-0.04351 0.00473,-0.09767 0.06869,-0.14234c0.09069,-0.06336 0.16232,-0.01931 0.19738,0.01318c0.02789,-0.017 0.0557,-0.03514 0.08342,-0.05451c0,0 0.13007,-0.09087 0.22094,0.0392c0.09087,0.13007 -0.0392,0.22094 -0.0392,0.22094c-0.04305,0.03007 -0.08642,0.05724 -0.13005,0.08178z" fill="#000000" stroke="none" stroke-width="0.5" stroke-linecap="butt"/><path d="M471.51863,271.60493c0.00038,0.01731 -0.00118,0.03277 -0.00425,0.04658c1.02963,0.13261 2.41147,-0.59435 3.25978,-0.96185c1.30524,-0.9177 2.07831,-1.35476 2.66536,-2.83609c0.87707,-1.34681 2.32284,-2.44675 3.51548,-0.67007c1.14246,0.65006 0.10056,3.12376 -0.25197,3.94495c-0.97642,0.71905 -1.9567,1.21293 -3.07581,1.59886c-0.44102,0.15209 -1.10092,0.75427 -1.61136,0.54805c-0.97849,0.54192 -3.92121,0.99407 -4.66481,-0.05704c-0.17017,-0.24359 -1.21946,-1.29315 -1.08706,-1.62324c0.04745,-0.11829 0.76308,-0.08627 0.90212,-0.13887l0.19043,-0.00648c0,0 0.15863,-0.00346 0.16209,0.15517z" fill="#000000" stroke="none" stroke-width="0.5" stroke-linecap="butt"/><path d="M476.21219,273.37453c-0.13007,0.09087 -0.22094,-0.0392 -0.22094,-0.0392l-0.07269,-0.10406c-0.15936,-0.22812 -0.38527,-0.40831 -0.61658,-0.58522c-0.70157,0.32763 -1.49372,0.55855 -2.27084,0.60525c0.03017,0.16374 0.07175,0.29265 0.13138,0.35692l0.14539,0.20811c0,0 0.09087,0.13007 -0.0392,0.22094c-0.13007,0.09087 -0.22094,-0.0392 -0.22094,-0.0392l-0.14539,-0.20811c-0.08567,-0.14303 -0.13959,-0.32609 -0.17583,-0.52998c-0.59797,-0.0024 -1.17859,-0.12239 -1.69266,-0.40075c0,0 -0.13944,-0.07571 -0.06374,-0.21514c0.07571,-0.13944 0.21514,-0.06374 0.21514,-0.06374c0.45528,0.24785 0.96847,0.35846 1.49903,0.36681c-0.04028,-0.39727 -0.04529,-0.83193 -0.09816,-1.19061c0,0 -0.02311,-0.15698 0.13387,-0.18008c0.15698,-0.02311 0.18008,0.13387 0.18008,0.13387c0.04096,0.27873 0.0462,0.79878 0.08914,1.2307c0.68956,-0.03777 1.39508,-0.2339 2.03007,-0.51374c-0.42742,-0.34452 -0.78418,-0.74301 -0.65349,-1.49981c0,0 0.02772,-0.15623 0.18395,-0.1285c0.15623,0.02772 0.1285,0.18395 0.1285,0.18395c-0.11827,0.64656 0.21861,1.00416 0.62107,1.31337c0.29852,-0.14791 0.57717,-0.3131 0.82591,-0.48687c0.26854,-0.18523 0.56549,-0.33118 0.87249,-0.46473c-0.28374,-0.4329 -0.54108,-0.88945 -0.79547,-1.2536c0,0 -0.09087,-0.13007 0.0392,-0.22094c0.13007,-0.09087 0.22094,0.0392 0.22094,0.0392c0.26421,0.3782 0.53208,0.86187 0.83093,1.31071c0.71421,-0.29431 1.4506,-0.56839 1.98816,-1.14589c0.15708,-0.16875 0.27466,-0.36982 0.3687,-0.58773c-0.98994,-0.21994 -1.96846,-0.6153 -2.11068,-1.50001c0,0 -0.02311,-0.15698 0.13387,-0.18008c0.15698,-0.02311 0.18008,0.13387 0.18008,0.13387c0.09353,0.72118 0.99869,1.06307 1.90661,1.25595c0.1853,-0.55452 0.27348,-1.16825 0.48964,-1.62283c0.01667,-0.09693 0.03334,-0.19387 0.05001,-0.2908l0.00728,-0.04105c0,0 0.02772,-0.15623 0.18395,-0.1285c0.15623,0.02772 0.1285,0.18395 0.1285,0.18395l-0.00728,0.04105c-0.02029,0.11137 -0.04059,0.22274 -0.06088,0.3341c-0.22663,0.44331 -0.32569,1.03113 -0.49854,1.58154c0.509,0.09251 0.99094,0.14523 1.2991,0.19991l0.17675,0.03136c0,0 0.15623,0.02772 0.1285,0.18395c-0.02772,0.15623 -0.18395,0.1285 -0.18395,0.1285l-0.17675,-0.03136c-0.35541,-0.06307 -0.84127,-0.12153 -1.34612,-0.21783c-0.10588,0.27258 -0.24085,0.52661 -0.43216,0.73744c-0.55062,0.60683 -1.31414,0.88356 -2.04939,1.18767c0.24099,0.33269 0.50362,0.62849 0.8005,0.82258l0.18419,0.24206c0,0 0.09509,0.12702 -0.03193,0.22211c-0.12702,0.09509 -0.22211,-0.03193 -0.22211,-0.03193l-0.14747,-0.20099c-0.32957,-0.21685 -0.61773,-0.55342 -0.88117,-0.92724c-0.3048,0.13413 -0.59876,0.28177 -0.86378,0.4697c-0.22146,0.15471 -0.46421,0.30193 -0.72233,0.43675c0.22732,0.16537 0.44713,0.33297 0.59402,0.54322l0.07269,0.10406c0,0 0.09087,0.13007 -0.0392,0.22094z" fill="#ffffff" stroke="none" stroke-width="0.5" stroke-linecap="butt"/><path d="M440.12579,258.68818c-0.78488,0.11552 -0.9004,-0.66936 -0.9004,-0.66936l-0.0066,-0.13814c-0.10025,-0.29126 -0.20049,-0.58252 -0.30074,-0.87379c0,0 -0.06563,-0.19069 -0.03457,-0.41288c-0.01839,-0.03087 -0.03478,-0.06417 -0.04855,-0.10006c-0.80533,-0.22043 -1.60955,-0.49196 -2.40315,-0.92252c0,0 -0.69722,-0.37851 -0.3187,-1.07573c0.37851,-0.69722 1.07573,-0.3187 1.07573,-0.3187c0.73001,0.39657 1.45677,0.65566 2.18341,0.86275c0.00131,-0.44572 0.04693,-0.8929 0.12072,-1.33035l0.03136,-0.17675c0,0 0.13861,-0.78113 0.91974,-0.64253c0.78113,0.13861 0.64253,0.91974 0.64253,0.91974l-0.03136,0.17675c-0.09004,0.47741 -0.13666,0.97432 -0.08581,1.45798c0.70264,0.1706 1.40732,0.35109 2.11687,0.61828c0.03566,-0.20099 0.07133,-0.40199 0.107,-0.60298l0.09409,-0.53025c0,0 0.13861,-0.78113 0.91974,-0.64253c0.78113,0.13861 0.64253,0.91974 0.64253,0.91974c-0.05227,0.29458 -0.19863,1.11942 -0.25091,1.414c0,0 -0.00354,0.01996 -0.01268,0.05292c1.01312,0.42033 2.02906,0.8473 3.0542,1.24638l0.203,0.02037c0,0 0.78113,0.13861 0.64253,0.91974c-0.13861,0.78113 -0.91974,0.64253 -0.91974,0.64253l-0.18814,-0.03923c-0.00639,0.0338 -0.01481,0.06879 -0.02547,0.10499c-0.22402,0.76105 -0.98507,0.53703 -0.98507,0.53703c-0.98423,-0.31925 -1.50714,-1.10579 -2.2931,-1.59894c-0.35372,0.20946 -0.81459,0.11376 -1.05387,-0.22876c-0.05407,-0.07739 -0.09241,-0.16107 -0.1157,-0.24725c-0.72242,-0.23978 -1.4702,-0.48613 -2.20077,-0.71045c0.00506,0.0147 0.01012,0.02941 0.01519,0.04411l0.07606,0.42348c0,0 0.11552,0.78488 -0.66936,0.9004z" fill="#663f3f" stroke="none" stroke-width="0.5" stroke-linecap="butt"/><path d="M469.41879,250.62848c-0.45433,-0.65036 0.19602,-1.10469 0.19602,-1.10469l0.31217,-0.21808c2.2467,-1.44308 2.99085,0.30712 4.0782,1.99613l0.01576,-0.08817c0.49721,-1.66008 0.90063,-4.19 0.62755,-5.87919c0,0 -0.11552,-0.78488 0.66936,-0.9004c0.58238,-0.08571 0.79623,0.32429 0.86782,0.54156c0.19902,-0.09797 0.4252,-0.1054 0.62464,-0.03187l0.83198,0.29502c0.3117,-0.08326 0.64804,-0.35779 0.92005,-0.35201c0.03125,-0.00963 0.06429,-0.01814 0.09924,-0.02539c0.77674,-0.16141 0.93815,0.61533 0.93815,0.61533c0.13392,0.74732 0.03971,1.40005 -0.13232,2.02748c0.10829,0.02979 0.17876,0.06804 0.17876,0.06804c1.27059,0.74535 1.52961,1.34329 1.5877,2.80241l0.00997,0.45756c0,0 0.01727,0.79315 -0.77587,0.81043c-0.79315,0.01727 -0.81043,-0.77587 -0.81043,-0.77587l-0.00997,-0.45756c0.00407,-0.85109 0.04248,-1.05034 -0.66942,-1.39985c-0.15197,0.48054 -0.27882,0.97878 -0.31436,1.52524l-0.02018,0.60956c0,0 -0.02675,0.79289 -0.81963,0.76614c-0.29618,-0.00999 -0.47799,-0.12689 -0.58955,-0.26942c-0.50114,0.53785 -1.03446,0.97573 -1.30129,1.16453c0,0 -0.39112,0.27323 -0.77863,0.09261c-0.1391,0.12782 -0.34761,0.21702 -0.65674,0.16216c-0.20342,-0.0361 -0.34446,-0.11576 -0.44183,-0.21386c-0.63298,0.41095 -1.07227,-0.21787 -1.07227,-0.21787c-0.40976,-0.58655 -0.71581,-1.50967 -1.12636,-1.96673c-0.30569,0.16965 -0.68534,0.11695 -0.93347,-0.1216c-0.02889,0.01999 -0.05829,0.04207 -0.08821,0.06633l-0.31217,0.21808c0,0 -0.65036,0.45433 -1.10469,-0.19602z" fill="#663f3f" stroke="none" stroke-width="0.5" stroke-linecap="butt"/><path d="M495.48282,258.19754c0.22536,0.76065 -0.5353,0.98602 -0.5353,0.98602l-0.25243,0.06144c-1.15341,0.54666 -1.77473,0.45675 -3.02507,0.35032c0,0 -0.79048,-0.06732 -0.72316,-0.85779c0.06732,-0.79048 0.85779,-0.72316 0.85779,-0.72316c0.94618,0.08061 1.36145,0.26787 2.17485,-0.18551l0.5173,-0.16661c0,0 0.76065,-0.22536 0.98602,0.5353z" fill="#663f3f" stroke="none" stroke-width="0.5" stroke-linecap="butt"/><path d="M496.09395,262.33692c0.01727,0.79315 -0.77587,0.81043 -0.77587,0.81043l-0.40303,0.0069c-1.06382,0.09002 -1.961,-0.0799 -3.01404,-0.14673c0,0 -0.79167,-0.0515 -0.74016,-0.84316c0.0515,-0.79167 0.84316,-0.74016 0.84316,-0.74016c0.96544,0.06418 1.79859,0.24542 2.76743,0.1499l0.51209,-0.01304c0,0 0.79315,-0.01727 0.81043,0.77587z" fill="#663f3f" stroke="none" stroke-width="0.5" stroke-linecap="butt"/><path d="M496.28713,265.44626c-0.13861,0.78113 -0.91974,0.64253 -0.91974,0.64253l-0.3535,-0.06273c-1.19368,-0.21357 -2.1756,0.0129 -3.36524,-0.05512c0,0 -0.79167,-0.0515 -0.74016,-0.84316c0.0515,-0.79167 0.84316,-0.74016 0.84316,-0.74016c1.22485,0.09225 2.28576,-0.14461 3.53946,0.07618l0.3535,0.06273c0,0 0.78113,0.13861 0.64253,0.91974z" fill="#663f3f" stroke="none" stroke-width="0.5" stroke-linecap="butt"/><path d="M485.16447,242.90398c-0.15623,-0.02772 -0.1285,-0.18395 -0.1285,-0.18395l0.03061,-0.12593c-0.09147,-0.7475 -0.32954,-1.93463 -1.20421,-2.39013c-1.26415,-0.69166 -2.65568,-0.58251 -3.83601,-1.69979c-0.38065,-0.36032 -0.36586,-1.40288 -0.73488,-1.93111c-1.29525,-1.85409 -2.81781,0.03314 -2.52747,1.61997c0,0 0.0231,0.15697 -0.13387,0.18008c-0.15697,0.0231 -0.18008,-0.13387 -0.18008,-0.13387c-0.22691,-1.85436 1.56485,-4.04765 3.10157,-1.84792c0.27847,0.39862 0.45112,1.69649 0.68616,1.8762c1.24476,0.95172 2.46979,1.01783 3.77276,1.65582c0.97901,0.54827 1.2105,1.75296 1.36997,2.62453l-0.03211,0.22757c0,0 -0.02772,0.15623 -0.18395,0.1285z" data-paper-data="{&quot;index&quot;:null}" fill="#04ff00" stroke="none" stroke-width="0.5" stroke-linecap="butt"/><path d="M486.24372,243.34548c0.01663,0.15779 -0.14116,0.17442 -0.14116,0.17442l-0.10552,0.01112c-0.48186,0.05058 -0.97339,0.05797 -1.43684,0.1968c-2.3704,0.01852 -2.35978,-3.65574 -3.35727,-5.0836c-0.55853,-0.7995 -1.65752,-1.37288 -2.63779,-0.98958c-0.69627,0.27225 -1.00734,1.18903 -1.67558,1.31144c0,0 -0.15697,0.0231 -0.18008,-0.13387c-0.0231,-0.15697 0.13387,-0.18008 0.13387,-0.18008c0.52325,-0.0483 0.9936,-1.08024 1.61291,-1.29556c1.12871,-0.39243 2.35324,0.17039 3.0068,1.10591c0.30977,0.44342 0.90745,1.15066 1.00311,1.68398c0.18711,1.04318 0.37502,3.31236 2.04553,3.26774c0.46778,-0.14039 0.9655,-0.14728 1.45206,-0.19878l0.10552,-0.01112c0,0 0.15779,-0.01663 0.17442,0.14116z" data-paper-data="{&quot;index&quot;:null}" fill="#1c00ff" stroke="none" stroke-width="0.5" stroke-linecap="butt"/><path d="M485.92825,244.01423c-0.15308,-0.04175 -0.11132,-0.19483 -0.11132,-0.19483l0.04693,-0.17207c0.02675,-0.0791 0.0535,-0.15819 0.08025,-0.23728c-0.51781,-0.65393 -1.7748,-2.33343 -2.65531,-2.46651c-0.87291,-0.13193 -1.5073,0.23628 -2.41921,-0.06127c-1.77058,-0.62565 -1.11648,-4.3143 -2.08788,-5.70335c-0.34684,-0.5629 -1.54826,0.17499 -1.80473,0.62174c-0.55118,0.96007 -0.1775,1.77449 0.05353,2.76444c0,0 0.03606,0.15452 -0.11846,0.19058c-0.15452,0.03606 -0.19058,-0.11846 -0.19058,-0.11846c-0.24372,-1.0443 -0.62734,-1.98182 -0.01791,-2.99766c0.41986,-0.69986 1.77984,-1.37742 2.33811,-0.64263c0.88633,1.2674 0.91241,2.45946 1.0335,3.98127c0.0467,0.5869 0.26201,1.41618 0.8935,1.6026c0.89263,0.29526 1.49678,-0.08167 2.3707,0.04946c0.96706,0.1451 2.42454,1.95814 2.91742,2.72555c-0.02892,0.12501 -0.05784,0.25001 -0.08676,0.37502l-0.04693,0.17207c0,0 -0.04175,0.15308 -0.19483,0.11132z" data-paper-data="{&quot;index&quot;:null}" fill="#000000" stroke="none" stroke-width="0.5" stroke-linecap="butt"/><path d="M485.68364,244.58516c-0.02773,0.15622 -0.18395,0.12851 -0.18395,0.12851l-0.08209,-0.01457c-1.14045,-0.20237 -1.49454,-0.81626 -2.11555,-1.7273c-0.32944,-1.98083 -1.5653,-3.97338 -3.51321,-4.95344c-1.3693,-1.22868 -3.78773,-0.85029 -2.85656,1.27823c0,0 0.06359,0.14536 -0.08177,0.20895c-0.14537,0.06359 -0.20896,-0.08177 -0.20896,-0.08177c-1.06094,-2.42516 1.6935,-3.05009 3.32397,-1.66902c1.95856,0.97908 3.33065,3.08449 3.63085,5.09838c0.58777,0.81609 0.84113,1.34977 1.87669,1.53352l0.08209,0.01457c0,0 0.15623,0.02772 0.1285,0.18395z" data-paper-data="{&quot;index&quot;:null}" fill="#420000" stroke="none" stroke-width="0.5" stroke-linecap="butt"/><path d="M503.0297,269.21587c-0.16159,-0.0354 -0.13923,-0.1993 -0.13923,-0.1993l0.02652,-0.13179c-0.12326,-0.79302 -0.41438,-2.05607 -1.33084,-2.5714c-1.32587,-0.78 -2.75121,-0.71926 -4.00764,-1.94546c-0.40519,-0.39545 -0.43085,-1.49591 -0.83068,-2.06824c-1.40338,-2.00885 -2.89366,-0.07543 -2.53318,1.6118c0,0 0.02989,0.16668 -0.13048,0.18493c-0.16036,0.01825 -0.19026,-0.14844 -0.19026,-0.14844c-0.3058,-1.96727 1.44906,-4.21339 3.11406,-1.83004c0.30172,0.43189 0.52995,1.80934 0.77847,2.00834c1.31614,1.05388 2.57729,1.17172 3.94094,1.89655c1.0273,0.61739 1.31234,1.89873 1.51033,2.82545l-0.02407,0.23908c0,0 -0.02235,0.16391 -0.18395,0.1285z" fill="#04ff00" stroke="none" stroke-width="0.5" stroke-linecap="butt"/><path d="M503.62897,271.01171c-0.02236,0.1639 -0.18395,0.12851 -0.18395,0.12851l-0.08491,-0.0186c-1.1796,-0.25841 -1.56745,-0.92061 -2.24116,-1.9071c-0.41608,-2.10486 -1.76387,-4.25762 -3.80351,-5.36899c-1.45493,-1.35126 -3.92475,-1.04642 -2.88467,1.23799c0,0 0.07103,0.15601 -0.07582,0.21747c-0.14686,0.06147 -0.21789,-0.09455 -0.21789,-0.09455c-1.18502,-2.60278 1.62033,-3.15482 3.34956,-1.63239c2.05055,1.11076 3.54272,3.38804 3.93005,5.52667c0.63584,0.88491 0.91706,1.45845 1.98816,1.69309l0.08491,0.0186c0,0 0.16159,0.0354 0.13923,0.1993z" fill="#420000" stroke="none" stroke-width="0.5" stroke-linecap="butt"/><path d="M422.4447,260.50779l6.09956,-52.24421l53.14825,27.41937v64.48258z" fill="url(#color-11)" stroke="#000000" stroke-width="2" stroke-linecap="butt"/></g></g></svg>