<svg version="1.1" xmlns="http://www.w3.org/2000/svg" xmlns:xlink="http://www.w3.org/1999/xlink" width="136.66666" height="185.96321" viewBox="0,0,136.66666,185.96321"><g transform="translate(-171.66667,-120.7306)"><g data-paper-data="{&quot;isPaintingLayer&quot;:true}" fill-rule="nonzero" stroke="none" stroke-width="0" stroke-linecap="butt" stroke-linejoin="miter" stroke-miterlimit="10" stroke-dasharray="" stroke-dashoffset="0" style="mix-blend-mode: normal"><path d="M306.12201,180.9806l-5.16667,62.16667l-101.25,-4.91667l-6,-57.41667z" fill="#1a0a3a"/><path d="M193.62201,180.48059l6.08333,42.91667l-27.75,25.33333v-58.66667z" fill="#2c1162"/><path d="M300.12201,120.7306l6.33333,60.66667l-113,-0.66667l-2.25,-58.66667z" fill="#2c1162"/><g><path d="M287.62556,306.69381v-116.04635l19.66667,-10.12032l1,102.55258z" fill="#461b9d"/><path d="M288.33332,257.12341v-14.16845l19.33334,-11.13235l0.66667,13.15642z" fill="#000000"/><path d="M293.58332,188.30523l7,-3.79512l1,106.68505l-7.25,8.09626z" fill="#000000"/></g><g><path d="M171.95892,306.19379v-116h116v116z" fill="#5821c5"/><path d="M171.66667,256.54609v-14h116.66667v14z" fill="#000000"/><path d="M219.66667,189.87941h14v116.66667h-14z" fill="#000000"/></g></g></g></svg>