<svg version="1.1" xmlns="http://www.w3.org/2000/svg" xmlns:xlink="http://www.w3.org/1999/xlink" width="553.33333" height="431.22073" viewBox="0,0,553.33333,431.22073"><g transform="translate(36.66666,35.61036)"><g data-paper-data="{&quot;isPaintingLayer&quot;:true}" fill-rule="nonzero" stroke-linejoin="miter" stroke-miterlimit="10" stroke-dasharray="" stroke-dashoffset="0" style="mix-blend-mode: normal"><path d="M0.30558,359.65625l237,-181h3l241,181z" data-paper-data="{&quot;index&quot;:null}" fill="#8c8c8c" stroke="#000000" stroke-width="2" stroke-linecap="butt"/><path d="M237.30558,179.65625l-237,-182h480l-241,182z" data-paper-data="{&quot;index&quot;:null}" fill="#6f6f6f" stroke="#000000" stroke-width="2" stroke-linecap="butt"/><path d="M242.30559,178.65625h-1l241,-180v360z" data-paper-data="{&quot;index&quot;:null}" fill="#949494" stroke="#000000" stroke-width="0" stroke-linecap="butt"/><path d="M-3.69442,361.65625l3,-364l236,182v0z" data-paper-data="{&quot;index&quot;:null}" fill="#888888" stroke="#000000" stroke-width="0" stroke-linecap="butt"/><path d="M406.30558,54.65625v248h-332v-248z" data-paper-data="{&quot;index&quot;:null}" fill="none" stroke="#000000" stroke-width="2" stroke-linecap="round"/><path d="M315.30558,234.65625h-150v-109h144v109h44" data-paper-data="{&quot;index&quot;:null}" fill="none" stroke="#000000" stroke-width="2" stroke-linecap="round"/><path d="M309.30558,234.65624l1,-108l63,-49l-1,200z" data-paper-data="{&quot;index&quot;:null}" fill="#5a5a5a" stroke="#000000" stroke-width="0" stroke-linecap="butt"/><path d="M308.30558,128.65625h64" data-paper-data="{&quot;index&quot;:null}" fill="none" stroke="#000000" stroke-width="2" stroke-linecap="round"/><path d="M371.30558,235.65624h-62" data-paper-data="{&quot;index&quot;:null}" fill="none" stroke="#000000" stroke-width="2" stroke-linecap="round"/><path d="M-36.66666,395.61037v-431.22073h553.33333v431.22073z" data-paper-data="{&quot;index&quot;:null}" fill-opacity="0.62745" fill="#000000" stroke="none" stroke-width="0" stroke-linecap="butt"/></g></g></svg>