<svg version="1.1" xmlns="http://www.w3.org/2000/svg" xmlns:xlink="http://www.w3.org/1999/xlink" width="101.57462" height="221.19762" viewBox="0,0,101.57462,221.19762"><g transform="translate(-188.77595,-78.06016)"><g data-paper-data="{&quot;isPaintingLayer&quot;:true}" fill-rule="nonzero" stroke-linecap="butt" stroke-linejoin="miter" stroke-miterlimit="10" stroke-dasharray="" stroke-dashoffset="0" style="mix-blend-mode: normal"><g><g><path d="M245.4253,223.74655l-1.42589,-3.09586l7.25993,-2.79202l1.42587,3.09586z" fill="#663f3f" stroke="#000000" stroke-width="0.5"/><path d="M264.46308,284.17016l0.10811,-2.34668l5.50308,0.21169l-0.10811,2.34668z" fill="#663f3f" stroke="#000000" stroke-width="0.5"/><path d="M267.791,285.7255l0.10811,-2.3467l5.50308,0.21168l-0.10811,2.34669z" fill="#663f3f" stroke="#000000" stroke-width="0.5"/><path d="M261.64205,285.57291l0.10811,-2.34669l5.50307,0.21168l-0.1081,2.34669z" fill="#663f3f" stroke="#000000" stroke-width="0.5"/><path d="M267.94931,282.28924l0.10811,-2.34668l5.50308,0.21168l-0.10811,2.34669z" fill="#663f3f" stroke="#000000" stroke-width="0.5"/><path d="M261.80418,281.80287l0.10811,-2.34669l5.50309,0.21168l-0.10811,2.3467z" fill="#663f3f" stroke="#000000" stroke-width="0.5"/><path d="M249.9719,224.34074l-1.42586,-3.09587l7.25991,-2.79201l1.42589,3.09586z" fill="#663f3f" stroke="#000000" stroke-width="0.5"/><path d="M241.81407,227.34793l-1.42589,-3.09586l7.25993,-2.79202l1.42589,3.09588z" fill="#663f3f" stroke="#000000" stroke-width="0.5"/><path d="M239.72617,222.81468l-1.42587,-3.09585l7.25993,-2.79202l1.42586,3.09584z" fill="#663f3f" stroke="#000000" stroke-width="0.5"/><path d="M247.8331,219.69693l-1.4259,-3.09587l7.25995,-2.79201l1.42587,3.09587z" fill="#663f3f" stroke="#000000" stroke-width="0.5"/><path d="M265.55792,288.32626l0.44787,-9.72201l2.93499,0.11289l-0.44787,9.722z" fill="#663f3f" stroke="#000000" stroke-width="0.5"/><path d="M249.61456,228.51283l-5.9072,-12.82573l3.87197,-1.48908l5.90721,12.82574z" fill="#663f3f" stroke="#000000" stroke-width="0.5"/><path d="M245.20841,231.02211c-0.5623,-9.2309 2.90655,-9.59127 6.29431,-10.3886c2.84069,-0.66858 5.11305,-0.72268 8.933,5.64799c4.29427,7.16171 10.1079,21.3319 12.43702,30.37478c4.40097,17.08691 0.60142,24.43424 -5.43268,25.8544c-6.03409,1.42016 -11.59591,-4.38764 -15.99689,-21.47455c-1.93011,-7.49371 -5.79552,-22.80332 -6.23476,-30.01402z" data-paper-data="{&quot;index&quot;:null}" fill="#d87700" stroke="#929292" stroke-width="1"/><path d="M276.96236,289.87444c0,3.75554 -1.75707,2.8 -6.89442,2.8c-5.13735,0 -8.03403,0.94247 -7.98877,-3.2c0.0543,-4.96891 2.19481,-3.6 7.33216,-3.6c5.13735,0 7.55103,0.24446 7.55103,4z" fill="#d87700" stroke="#929292" stroke-width="1"/></g><path d="M250.87607,234.32963c-1,0 -1,-1 -1,-1l0.10557,0.19721c-0.74842,-1.51523 -1.77078,-3.01252 -1.85396,-4.66253c-0.86901,-0.61294 -1.55838,-1.44126 -2.14604,-2.58747c0,0 -0.44721,-0.89443 0.44721,-1.34164c0.89443,-0.44721 1.34164,0.44721 1.34164,0.44721c0.78592,1.62627 1.83541,2.28244 3.54272,2.71323c0.07085,-0.09133 0.14205,-0.18243 0.21359,-0.2733c-0.82034,0.16075 -1.09942,-0.67649 -1.09942,-0.67649l-0.10132,-0.46623c-0.66942,-0.90228 -1.17296,-1.92499 -1.61915,-2.95608c0,0 -0.39392,-0.91915 0.52523,-1.31306c0.91915,-0.39392 1.31306,0.52523 1.31306,0.52523c0.37654,0.88834 0.79711,1.7757 1.38085,2.54392l0.39868,1.03377c0,0 0.03587,0.10762 0.04721,0.26244c1.29368,-1.5652 2.66547,-3.07672 4.00153,-4.60472c0,0 0.6585,-0.75258 1.41108,-0.09407c0.75258,0.6585 0.09407,1.41108 0.09407,1.41108c-1.72369,1.96849 -3.52526,3.91118 -5.10606,5.98582l-0.54694,0.88315c0,0 -0.52747,0.84957 -1.37704,0.32211c-0.10262,-0.06371 -0.18515,-0.13213 -0.25094,-0.20317c0.37416,0.77356 0.87963,1.57854 1.17284,2.15638l0.10557,0.69721c0,0 0,1 -1,1zM250.36491,229.9072c-0.00655,-0.00196 -0.01309,-0.00393 -0.01962,-0.00589c0.00726,0.0188 0.01466,0.03766 0.02219,0.05658c-0.00133,-0.01703 -0.00217,-0.03394 -0.00256,-0.05069z" fill="#000000" stroke="none" stroke-width="0.5"/><path d="M252.19454,225.06142c-0.73179,-0.68153 -0.05026,-1.41332 -0.05026,-1.41332l0.42095,-0.45075c0.43386,-0.50617 0.86772,-1.01234 1.30158,-1.51851c0,0 0.65079,-0.75926 1.41005,-0.10847c0.75926,0.65079 0.10847,1.41005 0.10847,1.41005c-0.43386,0.50617 -0.86772,1.01234 -1.30158,1.51851l-0.47588,0.51223c0,0 -0.68153,0.73179 -1.41332,0.05026z" fill="#000000" stroke="none" stroke-width="0.5"/><path d="M254.68077,238.49758c0.83205,0.5547 0.27735,1.38675 0.27735,1.38675l-1.14197,1.66903c-4.80516,2.67766 -7.12893,-4.38727 -8.61856,-8.10234c0,0 -0.37139,-0.92848 0.55709,-1.29987c0.92848,-0.37139 1.29987,0.55709 1.29987,0.55709c0.8222,2.0608 1.90773,3.7334 2.95655,5.65584c0.62311,1.14214 0.84589,2.87397 2.42489,1.74182l0.85803,-1.33097c0,0 0.5547,-0.83205 1.38675,-0.27735z" fill="#000000" stroke="none" stroke-width="0.5"/><path d="M258.63354,243.29977c-0.97014,-0.24254 -0.72761,-1.21268 -0.72761,-1.21268l0.25,-1c0.04939,-0.19326 0.10332,-0.38277 0.16169,-0.56895c-0.6679,1.19994 -1.38583,2.41774 -2.04712,3.7587l-0.70014,0.5685c0.85262,0.67809 1.72873,1.32776 2.75293,1.83986l0.26531,0.54926c0.02845,-0.01694 0.05851,-0.03338 0.09027,-0.04926c0.42126,-0.21063 0.74332,-0.12365 0.96618,0.02733c0.12722,-0.58541 0.5324,-1.00684 0.79906,-1.74542c1.11283,-3.08227 2.18197,-5.86194 2.18197,-9.13748c0,0 0,-1 1,-1c1,0 1,1 1,1c0,0.80794 -0.05156,1.64056 -0.15357,2.48325c0.05919,-0.04542 0.12757,-0.08828 0.20636,-0.12768c0.89443,-0.44721 1.34164,0.44721 1.34164,0.44721c0.56004,1.17797 0.51083,1.98785 0.82572,3.20468l0.02986,0.49254c0,0 0,1 -1,1c-1,0 -1,-1 -1,-1l0.02986,-0.00746c-0.24768,-1.01883 -0.17291,-1.80514 -0.62954,-2.70953c-0.66228,3.66692 -2.25485,7.38176 -4.68869,9.96626l-1.19532,-1.36808c-0.13249,0.07259 -0.30128,0.11882 -0.51631,0.11882c-0.57219,0 -0.81698,-0.3274 -0.9217,-0.60753c-2.05735,-1.15615 -3.55635,-2.82301 -5.5928,-4.03498c0,0 -0.85749,-0.5145 -0.343,-1.37199c0.5145,-0.85749 1.37199,-0.343 1.37199,-0.343c0.56253,0.33991 1.08319,0.7139 1.58588,1.10102c0.05572,-0.04944 0.09492,-0.07557 0.09492,-0.07557l0.41027,-0.11516c0.45833,-0.90632 0.947,-1.75215 1.42571,-2.5754c-0.03173,-0.00808 -0.06423,-0.01761 -0.09751,-0.0287c-0.94868,-0.31623 -0.63246,-1.26491 -0.63246,-1.26491l0.2181,-0.62989c0.77458,-3.75016 2.73058,-6.66062 2.73058,-10.55388c0,0 0,-1 1,-1c1,0 1,1 1,1c0,1.06446 -0.13773,2.05377 -0.35459,3.00383c0.03359,-0.00252 0.06843,-0.00383 0.10459,-0.00383c1,0 1,1 1,1c0,1.90942 -0.39663,3.52552 -1.0016,5.03415c0.14399,-0.21243 0.2946,-0.4235 0.4516,-0.63415c0,0 0.6,-0.8 1.4,-0.2c0.8,0.6 0.2,1.4 0.2,1.4c-0.84775,1.12217 -1.49642,2.27107 -1.82986,3.64254l-0.25,1c0,0 -0.24254,0.97014 -1.21268,0.72761zM258.06743,236.60983c0.11972,-0.31271 0.22896,-0.63102 0.32575,-0.95678c-0.11092,0.3164 -0.22031,0.63483 -0.32575,0.95678z" fill="#000000" stroke="none" stroke-width="0.5"/><path d="M260.01695,257.57366c-2.37375,-1.0665 -4.25925,-1.42867 -5.94088,-3.64403c0,0 -0.6,-0.8 0.2,-1.4c0.13655,-0.10241 0.26728,-0.16404 0.39018,-0.19581c-2.81031,-1.23618 -6.35108,-3.57954 -6.54018,-5.75419c0,0 0,-1 1,-1c1,0 1,1 1,1c-0.25861,1.01075 5.65045,4.22802 6.99254,4.52986l-0.18975,-0.17428c0,0 0.89443,-0.44721 1.34164,0.44721c0.44721,0.89443 -0.44721,1.34164 -0.44721,1.34164l-1.18975,0.32572c-0.28649,-0.07654 -0.60453,-0.17845 -0.94455,-0.30273c1.16472,1.56505 2.43085,1.77672 3.92195,2.50585c0.04418,-0.36653 0.30803,-0.63037 0.30803,-0.63037l0.62227,-0.59338c0.94737,-2.49661 2.36551,-4.96687 2.33484,-7.69951c0,0 0,-1 1,-1c1,0 1,1 1,1c-0.01646,1.93967 -0.57737,3.75296 -1.28241,5.52627c0.99849,-1.93752 2.15436,-3.81008 3.82531,-5.48338c0,0 0.70711,-0.70711 1.41421,0c0.70711,0.70711 0,1.41421 0,1.41421c-3.95567,3.94974 -4.90714,9.12108 -7.95595,13.513l-0.69052,1.35796c-0.03707,0.00408 -0.07475,0.00834 -0.113,0.01273l-0.04352,0.08703c-0.16034,0.33825 -0.50491,0.57216 -0.90412,0.57216c-0.35314,0 -0.66352,-0.18305 -0.84145,-0.45943c-0.75971,0.06251 -1.52893,0.07524 -2.13831,-0.06732c-3.39077,-0.79323 -5.355,-4.92322 -7.30112,-7.34855c0,0 -0.6247,-0.78087 0.15617,-1.40556c0.78087,-0.6247 1.40556,0.15617 1.40556,0.15617c1.53223,1.92061 3.44706,6.09183 6.19888,6.65145c0.6526,0.13271 1.25883,-0.04748 1.88656,0.01193c0.09627,-0.18977 0.28419,-0.44593 0.61808,-0.52412c0.02835,-0.04009 0.05653,-0.08024 0.08454,-0.12045l0.00258,-0.0155c0,0 0.08496,-0.2124 0.2752,-0.39339c0.52235,-0.78821 0.98554,-1.59758 1.41659,-2.41797zM261.81555,255.53849l-0.01845,0.01906c0.00218,0.00193 0.00435,0.00388 0.00652,0.00585c0.00398,-0.0083 0.00796,-0.01661 0.01193,-0.02491z" fill="#000000" stroke="none" stroke-width="0.5"/><path d="M252.42886,235.22406c-0.89443,-0.44721 -0.44721,-1.34164 -0.44721,-1.34164l0.16385,-0.2489c0.4423,-2.1414 1.72579,-3.46996 2.56144,-5.4478c0,0 0.39392,-0.91915 1.31306,-0.52523c0.91915,0.39392 0.52523,1.31306 0.52523,1.31306c-0.7877,1.81556 -2.06619,3.1123 -2.43856,5.0522l-0.33615,0.7511c0,0 -0.44721,0.89443 -1.34164,0.44721z" fill="#000000" stroke="none" stroke-width="0.5"/><path d="M263.90054,263.04951c-0.13019,-0.5776 0.15869,-0.89029 0.41603,-1.04928c1.11969,-3.77116 3.71724,-7.01619 5.12317,-10.77172c0,0 0.35112,-0.93633 1.28745,-0.58521c0.93633,0.35112 0.58521,1.28745 0.58521,1.28745c-1.4352,3.821 -4.25732,7.20408 -5.20126,11.0817l-1.01519,0.79271c0,0 -0.97553,0.21988 -1.19541,-0.75564z" fill="#000000" stroke="none" stroke-width="0.5"/><path d="M261.87564,269.60892c-0.02929,0.99957 -1.02886,0.97028 -1.02886,0.97028l-0.73036,-0.13905c-3.01998,-1.72946 -6.09898,-3.84112 -7.85859,-6.86438c0,0 -0.49614,-0.86824 0.3721,-1.36438c0.86824,-0.49614 1.36438,0.3721 1.36438,0.3721c1.50776,2.69823 4.44614,4.59899 7.11438,6.12017l-0.20333,-0.12361c0,0 0.99957,0.02929 0.97028,1.02886z" fill="#000000" stroke="none" stroke-width="0.5"/><path d="M268.29402,267.13433c-0.5547,-0.83205 0.27735,-1.38675 0.27735,-1.38675l0.59759,-0.37506c1.61973,-1.61151 2.43343,-2.82 2.98696,-5.03543c0,0 0.24254,-0.97014 1.21268,-0.72761c0.97014,0.24254 0.72761,1.21268 0.72761,1.21268c-0.64566,2.58118 -1.65919,4.10246 -3.51304,5.96457l-0.90241,0.62494c0,0 -0.83205,0.5547 -1.38675,-0.27735z" fill="#000000" stroke="none" stroke-width="0.5"/><path d="M266.12607,278.82963c0,1 -1,1 -1,1h-0.75c-4.69454,-0.03134 -8.89268,-3.15593 -9,-8c0,0 0,-1 1,-1c1,0 1,1 1,1c-0.1126,3.69448 3.51691,6.02973 7,6h0.75c0,0 1,0 1,1z" fill="#000000" stroke="none" stroke-width="0.5"/><path d="M268.37607,272.07963c1,0 1,1 1,1l-0.07152,0.62139c-0.10243,0.23007 -0.21363,0.44191 -0.33281,0.63644c3.12392,-0.8012 4.36619,-3.36382 4.92375,-6.20394c0,0 0.19612,-0.98058 1.1767,-0.78446c0.98058,0.19612 0.78446,1.1767 0.78446,1.1767c-0.70749,3.4629 -2.35111,6.43347 -5.87788,7.59601c-0.13161,0.2352 -0.38082,0.45787 -0.8527,0.45787c-1,0 -1,-1 -1,-1l0.37762,-0.60828c-2.16067,2.42083 -6.04936,0.83842 -8.50232,-1.11085c0,0 -0.78087,-0.6247 -0.15617,-1.40556c0.6247,-0.78087 1.40556,-0.15617 1.40556,-0.15617c1.50344,1.21195 5.29523,3.42899 6.19683,0.65948l-0.07152,0.12139c0,0 0,-1 1,-1z" fill="#000000" stroke="none" stroke-width="0.5"/><path d="M266.73164,269.13241c0.44721,-0.89443 1.34164,-0.44721 1.34164,-0.44721l0.05279,0.14443c1.60886,0 2.08122,-0.05372 3.4,-1.05c0,0 0.8,-0.6 1.4,0.2c0.6,0.8 -0.2,1.4 -0.2,1.4c-1.62082,1.20799 -2.62272,1.45 -4.6,1.45l-0.94721,-0.35557c0,0 -0.89443,-0.44721 -0.44721,-1.34164z" fill="#000000" stroke="none" stroke-width="0.5"/><path d="M265.87607,267.57963c0,1 -1,1 -1,1l-0.74254,-0.02986c-2.0316,-0.5279 -2.81383,-1.6194 -4.21457,-3.01304c0,0 -0.70711,-0.70711 0,-1.41421c0.70711,-0.70711 1.41421,0 1.41421,0c1.13247,1.13752 1.64273,2.09774 3.28543,2.48696l0.25746,-0.02986c0,0 1,0 1,1z" fill="#000000" stroke="none" stroke-width="0.5"/><path d="M268.92886,261.72406c-0.89443,-0.44721 -0.44721,-1.34164 -0.44721,-1.34164l0.17428,-0.29532c0.14791,-0.57157 0.22518,-1.16709 0.22014,-1.75746c0,0 0,-1 1,-1c1,0 1,1 1,1c-0.00503,0.75329 -0.10191,1.51055 -0.27986,2.24254l-0.32572,0.70468c0,0 -0.44721,0.89443 -1.34164,0.44721z" fill="#000000" stroke="none" stroke-width="0.5"/></g><g><g><path d="M220.64353,287.19303l-0.01912,-2.3487l5.49279,-0.03753l0.01912,2.34869z" fill="#663f3f" stroke="#000000" stroke-width="0.5"/><path d="M217.90942,288.72167l-0.01911,-2.3487l5.49277,-0.03753l0.01913,2.3487z" fill="#663f3f" stroke="#000000" stroke-width="0.5"/><path d="M224.01436,285.15668l-0.01912,-2.34869l5.49279,-0.03753l0.01912,2.3487z" fill="#663f3f" stroke="#000000" stroke-width="0.5"/><path d="M224.04234,288.59589l-0.01911,-2.34871l5.49279,-0.03753l0.01912,2.3487z" fill="#663f3f" stroke="#000000" stroke-width="0.5"/><path d="M217.88073,285.19861l-0.01912,-2.3487l5.49279,-0.03755l0.01911,2.34871z" fill="#663f3f" stroke="#000000" stroke-width="0.5"/><path d="M221.95859,291.29449l-0.07919,-9.73034l2.92949,-0.02002l0.0792,9.73034z" fill="#663f3f" stroke="#000000" stroke-width="0.5"/><path d="M226.98721,221.23786l1.42199,-3.09586l7.24013,2.79202l-1.422,3.09586z" fill="#663f3f" stroke="#000000" stroke-width="0.5"/><path d="M222.45302,221.83205l1.422,-3.09586l7.24011,2.79201l-1.42198,3.09587z" fill="#663f3f" stroke="#000000" stroke-width="0.5"/><path d="M232.67083,220.30598l1.42198,-3.09585l7.24013,2.79202l-1.422,3.09586z" fill="#663f3f" stroke="#000000" stroke-width="0.5"/><path d="M230.58859,224.83925l1.422,-3.09587l7.24013,2.79202l-1.422,3.09586z" fill="#663f3f" stroke="#000000" stroke-width="0.5"/><path d="M224.58597,217.18824l1.42199,-3.09587l7.24015,2.79201l-1.42201,3.09587z" fill="#663f3f" stroke="#000000" stroke-width="0.5"/><path d="M226.1881,227.30709l5.8911,-12.82574l3.86141,1.48907l-5.89109,12.82574z" fill="#663f3f" stroke="#000000" stroke-width="0.5"/><path d="M235.46298,261.23584c-0.97826,17.53088 -5.30005,24.15499 -11.49798,23.74528c-6.19793,-0.40971 -11.36193,-7.01644 -10.38368,-24.54732c0.51772,-9.27784 3.45209,-24.17034 6.26561,-31.91904c2.50274,-6.89281 4.74285,-7.21146 7.66067,-7.01858c3.47974,0.23003 6.95364,0.01689 8.20617,9.19056c0.97841,7.16601 0.17824,22.86067 -0.25079,30.54909z" fill="#d87700" stroke="#929292" stroke-width="1"/><path d="M233.72549,294.35778c0,3.75554 -3.28019,4.4 -8.40353,4.4c-5.12334,0 -8.84008,-0.64446 -8.84008,-4.4c0,-3.75554 3.49847,-5.2 8.6218,-5.2c5.12334,0 8.6218,1.44446 8.6218,5.2z" fill="#d87700" stroke="#929292" stroke-width="1"/></g><path d="M224.12607,232.85587c-0.74609,0 -0.93553,-0.55665 -0.98363,-0.83933c-1.34001,-1.50859 -2.00275,-3.37006 -2.01637,-5.41067c0,0 0,-1 1,-1c1,0 1,1 1,1c-0.01375,1.61102 0.54651,3.16511 1.70711,4.29289l0.29289,0.95711c0,0 0,1 -1,1z" fill="#000000" stroke="none" stroke-width="0.5"/><path d="M226.82137,235.68792c-0.83205,-0.5547 -0.27735,-1.38675 -0.27735,-1.38675l0.5,-0.75c1.71111,-2.53732 4.56414,-3.84926 5.93762,-6.64251c0,0 0.44721,-0.89443 1.34164,-0.44721c0.89443,0.44721 0.44721,1.34164 0.44721,1.34164c-1.48366,2.92764 -4.32296,4.21276 -6.06238,6.85749l-0.5,0.75c0,0 -0.5547,0.83205 -1.38675,0.27735z" fill="#000000" stroke="none" stroke-width="0.5"/><path d="M229.66896,227.81298c-0.17335,-0.17335 -0.26171,-0.34671 -0.29632,-0.50964c-0.02854,0.11409 -0.08207,0.23563 -0.16876,0.36355c-0.56101,0.82781 -1.38882,0.2668 -1.38882,0.2668l-1.06495,-0.84518c-0.33076,-0.57883 -0.66152,-1.15766 -0.99228,-1.73649c0,0 -0.49614,-0.86824 0.3721,-1.36438c0.86824,-0.49614 1.36438,0.3721 1.36438,0.3721c0.33076,0.57883 0.66152,1.15766 0.99228,1.73649l0.45049,0.18184c0,0 0.35756,0.24232 0.44343,0.64345c0.07515,-0.30945 0.28845,-0.52275 0.28845,-0.52275l0.42624,-0.41759c0.71174,-0.88319 1.52299,-1.69443 2.40617,-2.40617c0,0 0.78087,-0.6247 1.40556,0.15617c0.6247,0.78087 -0.15617,1.40556 -0.15617,1.40556c-0.77327,0.61343 -1.4804,1.32055 -2.09383,2.09383l-0.57376,0.58241c0,0 -0.70711,0.70711 -1.41421,0z" fill="#000000" stroke="none" stroke-width="0.5"/><path d="M226.37607,247.10587c-1,0 -1,-1 -1,-1l0.23178,0.14018c-0.17508,-0.21073 -0.35227,-0.4169 -0.53126,-0.61913c-0.20361,-0.00569 -0.43062,-0.08694 -0.65763,-0.31395c-0.25475,-0.25475 -0.32594,-0.5095 -0.31277,-0.73119c-1.36708,-1.40972 -2.80376,-2.6643 -4.18723,-4.01881c0,0 -0.70711,-0.70711 0,-1.41421c0.37443,-0.37443 0.74886,-0.35232 1.0183,-0.24864c-1.00654,-1.73825 -1.78976,-3.60273 -2.28134,-5.55172c0,0 -0.24254,-0.97014 0.72761,-1.21268c0.97014,-0.24254 1.21268,0.72761 1.21268,0.72761c0.88762,3.58677 2.90744,6.87779 5.46908,9.51409c0.17938,0.03458 0.44719,0.12466 0.62532,0.3593c1.70883,-0.45275 3.69015,-0.8294 5.03025,-1.63631c0.84296,-0.50757 1.72647,-3.80591 2.29771,-4.75904c0,0 0.5145,-0.85749 1.37199,-0.343c0.85749,0.5145 0.343,1.37199 0.343,1.37199c-0.73987,1.23167 -1.53847,4.39353 -2.70229,5.24096c-1.47621,1.07489 -4.10261,1.54829 -6.08574,2.11967c0.0666,0.07761 0.13286,0.15583 0.19876,0.23469l0.23178,1.14018c0,0 0,1 -1,1z" fill="#000000" stroke="none" stroke-width="0.5"/><path d="M229.45812,240.41057c-0.5547,0.83205 -1.38675,0.27735 -1.38675,0.27735l-1.57929,-1.05871c-0.68427,-0.69089 -1.31681,-1.46083 -1.76044,-2.32613c0,0 -0.44721,-0.89443 0.44721,-1.34164c0.89443,-0.44721 1.34164,0.44721 1.34164,0.44721c0.3021,0.62512 0.74522,1.18636 1.23956,1.67387l1.42071,0.94129c0,0 0.83205,0.5547 0.27735,1.38675z" fill="#000000" stroke="none" stroke-width="0.5"/><path d="M229.17886,239.0003c-0.89443,-0.44721 -0.44721,-1.34164 -0.44721,-1.34164l0.5,-1c0.28926,-0.57007 0.52326,-1.17416 0.67428,-1.79532c0,0 0.24254,-0.97014 1.21268,-0.72761c0.97014,0.24254 0.72761,1.21268 0.72761,1.21268c-0.19431,0.76031 -0.47819,1.50108 -0.82572,2.20468l-0.5,1c0,0 -0.44721,0.89443 -1.34164,0.44721z" fill="#000000" stroke="none" stroke-width="0.5"/><path d="M224.65671,250.23086c-0.62498,0.78064 -1.40562,0.15565 -1.40562,0.15565l-1.28779,-1.03104c-0.8041,-0.66288 -2.43514,-1.95974 -3.12827,-2.72814c-0.67226,-0.74526 -1.19269,-2.45335 -2.20149,-2.55132c0,0 -0.97014,-0.24254 -0.72761,-1.21268c0.24254,-0.97014 1.21268,-0.72761 1.21268,-0.72761c2.29887,0.73145 4.10104,4.01585 6.10569,5.66735l1.27676,1.02215c0,0 0.78064,0.62498 0.15565,1.40562z" fill="#000000" stroke="none" stroke-width="0.5"/><path d="M227.66896,249.06298c-0.70711,-0.70711 0,-1.41421 0,-1.41421l0.5,-0.5c1.14579,-1.1423 2.05797,-2.25672 3.31692,-3.31111c0,0 0.76822,-0.64018 1.40841,0.12804c0.64018,0.76822 -0.12804,1.40841 -0.12804,1.40841c-1.21163,1.0041 -2.08489,2.08768 -3.18308,3.18889l-0.5,0.5c0,0 -0.70711,0.70711 -1.41421,0z" fill="#000000" stroke="none" stroke-width="0.5"/><path d="M225.12607,253.35587c0,-1 1,-1 1,-1l-0.06623,0.05132c3.70635,-1.23314 5.27185,-2.40882 7.51623,-5.40132c0,0 0.6,-0.8 1.4,-0.2c0.8,0.6 0.2,1.4 0.2,1.4c-0.69661,0.92882 -1.57506,2.68789 -2.40163,3.41133c-1.46238,1.27993 -4.27336,2.08336 -6.08214,2.68736l-0.56623,0.05132c0,0 -1,0 -1,-1z" fill="#000000" stroke="none" stroke-width="0.5"/><path d="M224.70812,256.41057c-0.5547,0.83205 -1.38675,0.27735 -1.38675,0.27735l-0.90241,-0.62494c-1.92547,-1.92547 -3.58416,-4.09388 -5.5,-6c0,0 -0.70711,-0.70711 0,-1.41421c0.70711,-0.70711 1.41421,0 1.41421,0c1.91018,1.91869 3.57267,4.07267 5.5,6l0.59759,0.37506c0,0 0.83205,0.5547 0.27735,1.38675z" fill="#000000" stroke="none" stroke-width="0.5"/><path d="M222.87607,259.85587c0,-1 1,-1 1,-1l1.15146,0.00487c1.57743,-0.25025 2.25056,-1.70749 3.57017,-2.60004c1.11302,-0.75282 2.35919,-1.29022 3.49837,-2.00283c0,0 0.848,-0.53 1.378,0.318c0.53,0.848 -0.318,1.378 -0.318,1.378c-2.446,1.52747 -5.2231,4.29424 -7.93146,4.89714l-1.34854,0.00487c0,0 -1,0 -1,-1z" fill="#000000" stroke="none" stroke-width="0.5"/><path d="M222.27948,263.78466c-0.42878,0.90341 -1.33219,0.47463 -1.33219,0.47463l-0.54968,-0.26483c-3.32926,-1.30896 -4.60477,-4.16888 -6.37903,-7.12408c0,0 -0.5145,-0.85749 0.343,-1.37199c0.85749,-0.5145 1.37199,0.343 1.37199,0.343c1.45805,2.4317 2.6066,5.31012 5.36629,6.28041l0.705,0.33067c0,0 0.90341,0.42878 0.47463,1.33219z" fill="#000000" stroke="none" stroke-width="0.5"/><path d="M226.062,268.40124c0.26965,-0.10463 0.64541,-0.12824 1.02118,0.24753c0.70711,0.70711 0,1.41421 0,1.41421l-1.4716,0.40039c-0.41667,-0.25 -0.83333,-0.5 -1.25,-0.75c0,0 -0.29482,-0.17689 -0.435,-0.49611c-0.1373,0.08387 -0.31653,0.13862 -0.5505,0.13862c-1,0 -1,-1 -1,-1l0.55279,-1.14443c3.29198,-1.64599 7.65209,-3.17081 10.24011,-5.81268c0,0 0.70711,-0.70711 1.41421,0c0.70711,0.70711 0,1.41421 0,1.41421c-2.3738,2.33518 -5.82332,3.85224 -8.96284,5.32326c0.14722,0.08833 0.29444,0.17666 0.44166,0.265z" fill="#000000" stroke="none" stroke-width="0.5"/><path d="M227.62607,276.60587c1,0 1,1 1,1l-0.02986,0.49254c-1.57265,5.88614 -8.88637,0.78959 -12.16736,-0.84811c0,0 -0.89443,-0.44721 -0.44721,-1.34164c0.44721,-0.89443 1.34164,-0.44721 1.34164,-0.44721c1.91988,0.96147 8.55823,5.59517 9.33264,2.15189l-0.02986,-0.00746c0,0 0,-0.85381 0.78894,-0.98356c-0.62224,0.05301 -0.93336,-0.56923 -0.93336,-0.56923l0.19721,-0.05279c-0.89072,-0.44536 -1.8056,-0.88694 -2.722,-1.34155c-1.07749,0.48387 -2.14588,0.97224 -3.17243,1.48598l-1.01151,0.20031c0,0 -0.98916,0.14685 -1.136,-0.84231c-0.14685,-0.98916 0.84231,-1.136 0.84231,-1.136l0.41078,-0.01084c0.58915,-0.2943 1.19189,-0.58024 1.80202,-0.86177c-3.36535,-1.81669 -6.49208,-4.0073 -8.21038,-7.44101c0,0 -0.44721,-0.89443 0.44721,-1.34164c0.89443,-0.44721 1.34164,0.44721 1.34164,0.44721c1.7292,3.46146 5.199,5.53517 8.71902,7.29843c1.76742,-0.79014 3.5322,-1.58439 5.14991,-2.47482c2.13124,-1.17309 3.51074,-3.10292 5.86525,-4.05488c0,0 0.92848,-0.37139 1.29987,0.55709c0.37139,0.92848 -0.55709,1.29987 -0.55709,1.29987c-2.27202,0.89742 -3.56561,2.8038 -5.63475,3.94512c-1.20261,0.66335 -2.48594,1.27325 -3.79116,1.86723c0.42314,0.20533 0.84141,0.40958 1.25173,0.61474l0.69721,0.94721c0,0 0.44721,0.89443 -0.44721,1.34164c-0.11702,0.05851 -0.22639,0.09406 -0.3281,0.11164c0.0416,-0.00398 0.0852,-0.00607 0.13088,-0.00607z" fill="#000000" stroke="none" stroke-width="0.5"/><path d="M221.58318,267.81298c-0.70711,0.70711 -1.41421,0 -1.41421,0c-0.25,-0.25 -0.75,-0.75 -1,-1c0,0 -0.70711,-0.70711 0,-1.41421c0.70711,-0.70711 1.41421,0 1.41421,0c0.25,0.25 0.5,0.5 0.75,0.75l0.25,0.25c0,0 0.70711,0.70711 0,1.41421z" fill="#000000" stroke="none" stroke-width="0.5"/><path d="M223.66896,265.56298c-0.70711,-0.70711 0,-1.41421 0,-1.41421l0.5,-0.5c0.58853,-0.57621 1.27696,-1.06155 2.00989,-1.43732c0,0 0.89443,-0.44721 1.34164,0.44721c0.44721,0.89443 -0.44721,1.34164 -0.44721,1.34164c-0.54929,0.26545 -1.06495,0.62515 -1.49011,1.06268l-0.5,0.5c0,0 -0.70711,0.70711 -1.41421,0z" fill="#000000" stroke="none" stroke-width="0.5"/><path d="M219.12607,258.60587c0,-0.55228 0.44772,-1 1,-1c0.55228,0 1,0.44772 1,1c0,0.55228 -0.44772,1 -1,1c-0.55228,0 -1,-0.44772 -1,-1z" fill="#000000" stroke="none" stroke-width="0.5"/></g><g><g><path d="M227.28325,125.4566l-5.36201,-12.37186h45.4071c0,0 1.2194,4.77931 0.66082,7.09651c-0.28999,1.203 -12.87575,9.16364 -12.87575,9.16364z" fill="#000000" stroke="none" stroke-width="0"/><path d="M261.44927,90.76203l0.83348,-1.32309l2.8352,1.78604l-0.83348,1.32309z" fill="#663f3f" stroke="#000000" stroke-width="0.5"/><path d="M262.33106,92.5056l0.83349,-1.32309l2.83519,1.78603l-0.83348,1.32309z" fill="#663f3f" stroke="#000000" stroke-width="0.5"/><path d="M260.41533,88.52657l0.83348,-1.32309l2.83519,1.78604l-0.83348,1.32308z" fill="#663f3f" stroke="#000000" stroke-width="0.5"/><path d="M259.19486,90.46395l0.83348,-1.32309l2.8352,1.78604l-0.83348,1.32309z" fill="#663f3f" stroke="#000000" stroke-width="0.5"/><path d="M263.58129,90.52098l0.83348,-1.32309l2.83519,1.78604l-0.83348,1.32309z" fill="#663f3f" stroke="#000000" stroke-width="0.5"/><path d="M260.65222,93.49418l3.453,-5.48138l1.5121,0.95255l-3.453,5.48138z" fill="#663f3f" stroke="#000000" stroke-width="0.5"/><path d="M224.80936,93.28044l-0.83348,-1.32309l2.8352,-1.78604l0.83348,1.32309z" fill="#663f3f" stroke="#000000" stroke-width="0.5"/><path d="M223.92757,95.02401l-0.83348,-1.32309l2.8352,-1.78603l0.83348,1.32309z" fill="#663f3f" stroke="#000000" stroke-width="0.5"/><path d="M225.84332,91.04497l-0.83348,-1.32308l2.83519,-1.78604l0.83348,1.32309z" fill="#663f3f" stroke="#000000" stroke-width="0.5"/><path d="M227.06377,92.98236l-0.83348,-1.32309l2.8352,-1.78604l0.83348,1.32309z" fill="#663f3f" stroke="#000000" stroke-width="0.5"/><path d="M222.67735,93.03938l-0.83348,-1.32309l2.83519,-1.78604l0.83348,1.32309z" fill="#663f3f" stroke="#000000" stroke-width="0.5"/><path d="M226.9295,95.17911l-3.453,-5.48138l1.5121,-0.95255l3.453,5.48138z" fill="#663f3f" stroke="#000000" stroke-width="0.5"/><path d="M236.2502,138.87408l0.30244,-3.55362l7.6149,0.64809l-0.30244,3.55362z" fill="#663f3f" stroke="#000000" stroke-width="0.5"/><path d="M232.24831,140.8345l0.30244,-3.55362l7.6149,0.64809l-0.30243,3.55362z" fill="#663f3f" stroke="#000000" stroke-width="0.5"/><path d="M241.2053,136.22776l0.30243,-3.55362l7.6149,0.64809l-0.30244,3.55362z" fill="#663f3f" stroke="#000000" stroke-width="0.5"/><path d="M240.76244,141.43129l0.30244,-3.55363l7.6149,0.64809l-0.30243,3.55363z" fill="#663f3f" stroke="#000000" stroke-width="0.5"/><path d="M232.70197,135.50407l0.30244,-3.55362l7.6149,0.64808l-0.30244,3.55363z" fill="#663f3f" stroke="#000000" stroke-width="0.5"/><path d="M237.49774,145.24414l1.25297,-14.72215l4.06128,0.34564l-1.25297,14.72215z" fill="#663f3f" stroke="#000000" stroke-width="0.5"/><path d="M242.63551,119.70485c-9.21803,0 -21.97119,-3.87637 -21.97119,-6.98195c0,-5.79181 -0.66247,-11.20277 2.78439,-16.30206c4.49675,-6.65251 14.10238,-12.26047 22.11628,-12.26047c10.97716,0 21.5483,8.45899 24.59167,20.29098c0.88153,3.4272 -1.21677,10.82748 -1.21677,13.82537c0,0 -12.14764,1.42812 -26.30438,1.42812z" fill="#d87700" stroke="#929292" stroke-width="1"/><path d="M237.15889,106.10015c0,2.32575 -1.74877,4.21114 -3.90598,4.21114c-2.15722,0 -3.90598,-1.88539 -3.90598,-4.21114c0,-2.32575 1.74877,-4.21114 3.90598,-4.21114c2.15722,0 3.90598,1.88539 3.90598,4.21114z" fill="#fff68e" stroke="#fff68e" stroke-width="2"/><path d="M260.83891,108.05314c0,2.32575 -1.74877,4.21114 -3.90598,4.21114c-2.15722,0 -3.90598,-1.8854 -3.90598,-4.21114c0,-2.32574 1.74877,-4.21114 3.90598,-4.21114c2.15722,0 3.90598,1.8854 3.90598,4.21114z" fill="#fff68e" stroke="#fff68e" stroke-width="2"/><path d="M232.18965,106.22561c0,-0.40447 0.32789,-0.73237 0.73237,-0.73237c0.40448,0 0.73237,0.3279 0.73237,0.73237c0,0.40447 -0.32789,0.73237 -0.73237,0.73237c-0.40448,0 -0.73237,-0.3279 -0.73237,-0.73237z" fill="#000000" stroke="none" stroke-width="0.5"/><path d="M255.9518,108.74563c0,-0.53317 0.43222,-0.9654 0.9654,-0.9654c0.53317,0 0.9654,0.43222 0.9654,0.9654c0,0.53317 -0.43222,0.9654 -0.9654,0.9654c-0.53317,0 -0.9654,-0.43222 -0.9654,-0.9654z" fill="#000000" stroke="none" stroke-width="0.5"/><path d="M262.5934,128.02041c-2.40116,2.12279 -10.92196,6.06045 -20.81448,4.99099c-9.89252,-1.06946 -16.30166,-6.02962 -18.08549,-8.57091c-0.95288,-2.11915 -4.19052,-9.80109 -2.81572,-10.37645c1.44909,-0.60645 4.93004,8.74863 8.96428,10.22729c4.79148,1.75621 9.51786,2.78838 13.26394,3.19335c3.52705,0.3813 11.44747,-0.4004 17.04788,-2.03815c3.86993,-2.31809 6.80955,-8.26582 8.17058,-7.78586c1.56156,0.55068 -4.26476,9.06424 -5.73101,10.35974z" fill="#d87700" stroke="#929292" stroke-width="1"/><path d="M252.69158,115.88431c0,3.49324 -3.46986,2.5633 -7.36296,2.5633c-3.8931,0 -7.67683,0.0658 -7.67683,-2.5633c0,-1.57018 0.51258,-5.10658 2.42903,-6.60495c1.29247,-1.01051 3.57514,-0.56183 5.14318,-0.56183c1.45976,0 3.90626,-0.24531 5.0864,0.54772c1.96723,1.32193 2.38118,4.43565 2.38118,6.61907z" fill="#ba6600" stroke="#000000" stroke-width="0"/><path d="M247.04447,110.26427c0,1.05995 -0.96237,1.91922 -2.14951,1.91922c-1.18714,0 -2.14951,-0.85926 -2.14951,-1.91922c0,-1.05995 0.96237,-1.91921 2.14951,-1.91921c1.18714,0 2.14951,0.85926 2.14951,1.91921z" fill="#bdc29f" stroke="none" stroke-width="0"/><path d="M232.31266,125.2356c0,0 0.46882,-1.93816 1.24586,-1.77445c0.80878,0.1704 0.21694,2.12087 0.21694,2.12087z" fill="#ffffff" stroke="none" stroke-width="0"/><path d="M229.22083,124.01258c0,0 0.61612,-1.89649 1.37831,-1.67365c0.79333,0.23194 0.05362,2.13126 0.05362,2.13126z" fill="#ffffff" stroke="none" stroke-width="0"/><path d="M226.65945,121.67368c0,0 1.41276,-1.40726 1.98962,-0.86153c0.60043,0.56802 -0.92364,1.92147 -0.92364,1.92147z" fill="#ffffff" stroke="none" stroke-width="0"/><path d="M235.56104,125.78096c0,0 0.43753,-4.37547 1.2171,-4.03547c0.81142,0.35388 0.25109,4.76149 0.25109,4.76149z" fill="#ffffff" stroke="none" stroke-width="0"/><path d="M238.74729,127.06351c0,0 0.31286,-1.96936 1.10047,-1.8681c0.81979,0.1054 0.38529,2.09683 0.38529,2.09683z" fill="#ffffff" stroke="none" stroke-width="0"/><path d="M242.19579,127.68056c0,0 0.09665,-1.99172 0.8906,-1.97678c0.82639,0.01554 0.61123,2.04243 0.61123,2.04243z" fill="#ffffff" stroke="none" stroke-width="0"/><path d="M246.31522,127.87742c0,0 -0.18564,-1.9854 0.60246,-2.08276c0.8203,-0.10134 0.89358,1.93562 0.89358,1.93562z" fill="#ffffff" stroke="none" stroke-width="0"/><path d="M249.97242,127.5121c0,0 -0.37051,-4.80778 0.40504,-5.22649c0.80723,-0.43581 1.0707,4.52371 1.0707,4.52371z" fill="#ffffff" stroke="none" stroke-width="0"/><path d="M253.2865,126.87415c0,0 -0.30697,-1.97029 0.47368,-2.11577c0.81255,-0.15142 1.01054,1.87722 1.01054,1.87722z" fill="#ffffff" stroke="none" stroke-width="0"/><path d="M256.50814,126.40217c0,0 -0.45606,-1.94121 0.31126,-2.14569c0.79867,-0.21283 1.1505,1.79485 1.1505,1.79485z" fill="#ffffff" stroke="none" stroke-width="0"/><path d="M259.72293,125.79954c0,0 -0.91819,-1.77009 -0.22445,-2.1565c0.72209,-0.4022 1.55553,1.45789 1.55553,1.45789z" fill="#ffffff" stroke="none" stroke-width="0"/><path d="M262.53006,124.09903c0,0 -1.46445,-1.3534 -0.94303,-1.95232c0.54272,-0.6234 1.958,0.84342 1.958,0.84342z" fill="#ffffff" stroke="none" stroke-width="0"/><path d="M224.84258,119.28333c0,0 1.51209,-1.29995 2.04741,-0.71341c0.55719,0.6105 -1.06195,1.84862 -1.06195,1.84862z" fill="#ffffff" stroke="none" stroke-width="0"/><path d="M264.33797,121.86206c0,0 -1.61624,-1.16793 -1.17043,-1.82509c0.46402,-0.684 2.04504,0.60244 2.04504,0.60244z" fill="#ffffff" stroke="none" stroke-width="0"/><path d="M268.69936,85.25829c-0.73842,3.48533 -2.62131,6.03866 -4.20555,5.70301c-1.58424,-0.33565 -2.26992,-3.43316 -1.5315,-6.91849c0.73842,-3.48533 2.62131,-6.03866 4.20555,-5.70301c1.58424,0.33565 2.26992,3.43316 1.5315,6.91849z" fill="#d87700" stroke="#000000" stroke-width="0.5"/><path d="M266.77846,79.79754c1.13869,0.23789 1.63749,2.46153 1.11413,4.96663c-0.52336,2.5051 -1.87071,4.34304 -3.0094,4.10515c-1.13869,-0.23789 -1.6375,-2.46153 -1.11414,-4.96663c0.52336,-2.5051 1.87072,-4.34304 3.0094,-4.10515z" data-paper-data="{&quot;index&quot;:null}" fill="#bab9b9" stroke="#000000" stroke-width="0.5"/><path d="M224.26591,83.57161c2.33092,3.28112 3.01147,6.7999 1.52005,7.85941c-1.49142,1.05951 -4.59004,-0.74146 -6.92096,-4.02259c-2.33092,-3.28112 -3.01147,-6.7999 -1.52005,-7.85941c1.49142,-1.05951 4.59004,0.74146 6.92096,4.02259z" fill="#d87700" stroke="#000000" stroke-width="0.5"/><path d="M223.68171,84.10657c1.67437,2.35692 2.16323,4.88457 1.0919,5.64564c-1.07133,0.76107 -3.29716,-0.53262 -4.97152,-2.88954c-1.67437,-2.35692 -2.16323,-4.88457 -1.0919,-5.64564c1.07133,-0.76107 3.29716,0.53261 4.97152,2.88954z" fill="#bab9b9" stroke="#000000" stroke-width="0.5"/><path d="M261.05082,118.9493c0,0 0.0163,1.99399 -0.77723,2.02405c-0.82595,0.03128 -0.72591,-2.00454 -0.72591,-2.00454z" fill="#ffffff" stroke="none" stroke-width="0"/><path d="M258.24892,119.17594c0,0 0.13058,1.98978 -0.65992,2.06527c-0.8228,0.07858 -0.83963,-1.95963 -0.83963,-1.95963z" fill="#ffffff" stroke="none" stroke-width="0"/><path d="M255.50253,119.17594c0,0 0.13058,1.98978 -0.65992,2.06527c-0.8228,0.07858 -0.83963,-1.95963 -0.83963,-1.95963z" fill="#ffffff" stroke="none" stroke-width="0"/><path d="M252.75613,119.45058c0,0 0.13058,1.98978 -0.65992,2.06527c-0.8228,0.07858 -0.83963,-1.95963 -0.83963,-1.95963z" fill="#ffffff" stroke="none" stroke-width="0"/><path d="M249.36891,119.54212c0,0 0.13058,4.54485 -0.65992,4.71728c-0.8228,0.17949 -0.83963,-4.47598 -0.83963,-4.47598z" fill="#ffffff" stroke="none" stroke-width="0"/><path d="M246.0018,119.46539c0,0 0.09155,1.99196 -0.70027,2.05194c-0.82418,0.06244 -0.80106,-1.97571 -0.80106,-1.97571z" fill="#ffffff" stroke="none" stroke-width="0"/><path d="M242.67166,119.41803c0,0 -0.02169,1.99394 -0.81564,2.00887c-0.82639,0.01555 -0.6876,-2.018 -0.6876,-2.018z" fill="#ffffff" stroke="none" stroke-width="0"/><path d="M239.70928,119.59792c0,0 -0.14134,4.64595 -0.93476,4.56944c-0.82584,-0.07962 -0.56522,-4.8015 -0.56522,-4.8015z" fill="#ffffff" stroke="none" stroke-width="0"/><path d="M236.80679,119.30518c0,0 -0.19983,1.98402 -0.99194,1.92793c-0.82448,-0.05838 -0.50447,-2.07138 -0.50447,-2.07138z" fill="#ffffff" stroke="none" stroke-width="0"/><path d="M233.93458,118.6262c0,0 -0.33046,1.96649 -1.11714,1.85819c-0.81882,-0.11272 -0.36653,-2.10019 -0.36653,-2.10019z" fill="#ffffff" stroke="none" stroke-width="0"/><path d="M231.28717,118.09741c0,0 -0.58461,1.90644 -1.35039,1.69626c-0.79707,-0.21876 -0.08893,-2.13008 -0.08893,-2.13008z" fill="#ffffff" stroke="none" stroke-width="0"/><path d="M229.10535,117.75245c0,0 -0.63082,1.89165 -1.39126,1.6629c-0.79151,-0.23809 -0.03707,-2.13161 -0.03707,-2.13161z" fill="#ffffff" stroke="none" stroke-width="0"/></g><g fill="#000000" stroke="none" stroke-width="0.5"><path d="M243.55321,104.1238c-0.89443,-0.44721 -0.44721,-1.34164 -0.44721,-1.34164l0.17428,-0.29532c0.57293,-2.04678 2.46591,-3.29296 3.63809,-5.06216c0,0 0.5547,-0.83205 1.38675,-0.27735c0.08313,0.05542 0.15242,0.11361 0.2098,0.17346c0.03232,-0.17112 0.09108,-0.28862 0.09108,-0.28862l0.14443,-0.05279c0,-1.48856 -0.15544,-3.38543 0.6298,-4.7427c1.18283,-2.04451 3.94115,-2.72691 5.3202,-4.6073c0,0 0.6,-0.8 1.4,-0.2c0.8,0.6 0.2,1.4 0.2,1.4c-1.29945,1.70268 -4.16241,2.57132 -5.1798,4.3927c-0.57971,1.03783 -0.3702,2.6302 -0.3702,3.7573l-0.35557,0.94721c0,0 -0.44721,0.89443 -1.34164,0.44721c-0.13249,-0.06624 -0.23554,-0.1423 -0.31497,-0.22381c-0.04984,0.2252 -0.15577,0.38409 -0.15577,0.38409c-0.89315,1.33233 -3.05334,2.89592 -3.36191,4.43784l-0.32572,0.70468c0,0 -0.44721,0.89443 -1.34164,0.44721z"/><path d="M251.50042,104.22937c-1,0 -1,-1 -1,-1l0.10557,-0.69721c0.36404,-0.67638 0.25838,-2.80828 0.62109,-3.18678c0.92375,-0.96397 4.63995,-0.86562 5.89531,-1.2918c1.85986,-0.63141 3.68752,-2.89674 4.82804,-4.42421c0,0 0.6,-0.8 1.4,-0.2c0.8,0.6 0.2,1.4 0.2,1.4c-1.38801,1.84335 -3.43957,4.27224 -5.67196,5.07579c-1.13183,0.4074 -2.32234,0.66008 -3.51488,0.81779c-0.52661,0.06964 -1.16103,-0.42314 -1.58981,-0.10959c-0.43273,0.31643 0.32868,1.07538 0.19991,1.59576c-0.10794,0.43619 -0.38588,0.81164 -0.57882,1.21746l0.10557,-0.19721c0,0 0,1 -1,1z"/><path d="M261.00042,103.97937c0,-1 1,-1 1,-1l-0.19721,0.10557c2.1467,-1.06033 3.23142,-2.23052 5.18272,-3.46307c0,0 0.85749,-0.5145 1.37199,0.343c0.5145,0.85749 -0.343,1.37199 -0.343,1.37199c-1.84401,1.02321 -3.27611,2.5012 -5.31728,3.53693l-0.69721,0.10557c0,0 -1,0 -1,-1z"/><path d="M260.29332,112.43648c-0.70711,-0.70711 0,-1.41421 0,-1.41421l0.25,-0.25c2.18336,-2.15588 5.09147,-4.15817 7.65241,-5.87494c0,0 0.83205,-0.5547 1.38675,0.27735c0.5547,0.83205 -0.27735,1.38675 -0.27735,1.38675c-2.43456,1.61302 -5.31002,3.55469 -7.34759,5.62506l-0.25,0.25c0,0 -0.70711,0.70711 -1.41421,0z"/><path d="M256.54332,115.52226c0.70711,-0.70711 1.41421,0 1.41421,0l-0.5785,0.27863c1.60316,-0.63585 3.40991,-0.26393 4.85446,-0.78524c2.28556,-0.82481 3.95847,-1.9976 5.48606,-3.91098c0,0 0.6247,-0.78087 1.40556,-0.15617c0.78087,0.6247 0.15617,1.40556 0.15617,1.40556c-1.73988,2.17073 -3.85052,3.75326 -6.51394,4.58902c-1.53868,0.48283 -3.03404,0.06391 -4.64554,0.71476l-1.5785,-0.72137c0,0 -0.70711,-0.70711 0,-1.41421z"/><path d="M249.50042,129.97937c0,-1 1,-1 1,-1h0.5c3.6877,0.0245 6.48245,-2.75 10.25,-2.75c0,0 1,0 1,1c0,1 -1,1 -1,1c-3.68816,0 -6.48402,2.72944 -10.25,2.75h-0.5c0,0 -1,0 -1,-1z"/><path d="M254.2101,96.50149c-0.07727,0.29611 -0.30259,0.72788 -0.95968,0.72788c-1,0 -1,-1 -1,-1l0.4,-1.05c0.92034,-0.6773 2.45025,-1.84622 2.62986,-2.94254c0,0 0.24254,-0.97014 1.21268,-0.72761c0.97014,0.24254 0.72761,1.21268 0.72761,1.21268c-0.46374,1.57025 -1.70625,2.7551 -3.01047,3.77959z"/><path d="M245.856,115.67658c-0.44721,-0.89443 0.44721,-1.34164 0.44721,-1.34164l1.3381,-0.5996c0.3842,0.08245 0.74693,0.21945 1.10059,0.36589c-0.0418,-0.24275 0.00831,-0.53586 0.30142,-0.82897c0.70711,-0.70711 1.41421,0 1.41421,0l0.42558,0.53323c0.95957,-0.08422 1.90434,-0.07612 2.86732,-0.07612c0,0 1,0 1,1c0,1 -1,1 -1,1c-0.58635,0 -1.16829,-0.00449 -1.75008,-0.0155c0.00005,0.00514 0.00008,0.0103 0.00008,0.0155c0,1 -1,1 -1,1c-1.37325,-0.03933 -1.89519,-0.56512 -3.14088,-1.00597l-0.6619,0.4004c0,0 -0.89443,0.44721 -1.34164,-0.44721z"/><path d="M247.54332,113.18648c-0.70711,-0.70711 0,-1.41421 0,-1.41421l0.58691,-0.53559c0.35341,-1.76599 1.22009,-3.26238 1.65006,-4.99984c0,0 0.24254,-0.97014 1.21268,-0.72761c0.97014,0.24254 0.72761,1.21268 0.72761,1.21268c-0.47694,1.89098 -1.32267,3.6165 -1.84994,5.50016l-0.91309,0.96441c0,0 -0.70711,0.70711 -1.41421,0z"/><path d="M248.66181,103.56768c0.1354,0.27158 0.21933,0.69519 -0.20428,1.1188c-0.70711,0.70711 -1.41421,0 -1.41421,0l-0.43732,-1.40432c0.75231,-1.50462 1.0473,-3.04505 2.18732,-4.25989c0,0 0.70711,-0.70711 1.41421,0c0.70711,0.70711 0,1.41421 0,1.41421c-0.76839,0.68736 -1.11024,2.02572 -1.54572,3.1312z"/><path d="M243.29332,94.68648c-0.70711,-0.70711 0,-1.41421 0,-1.41421l0.64586,-0.6276c1.40354,-2.86752 3.64047,-4.90873 5.85414,-7.1224c0,0 0.70711,-0.70711 1.41421,0c0.70711,0.70711 0,1.41421 0,1.41421c-2.16102,2.16102 -4.23392,4.10563 -5.64586,6.8776l-0.85414,0.8724c0,0 -0.70711,0.70711 -1.41421,0z"/></g><g data-paper-data="{&quot;index&quot;:null}" fill="#000000" stroke="none" stroke-width="0.5"><path d="M245.35735,102.92658l-0.32572,-0.70468c-0.30856,-1.54191 -2.46875,-3.1055 -3.36191,-4.43783c0,0 -0.10593,-0.15888 -0.15577,-0.38408c-0.07943,0.08151 -0.18248,0.15757 -0.31497,0.22381c-0.89443,0.44721 -1.34164,-0.44721 -1.34164,-0.44721l-0.35557,-0.94721c0,-1.1271 0.20951,-2.71947 -0.3702,-3.7573c-1.01738,-1.82138 -3.88034,-2.69002 -5.1798,-4.3927c0,0 -0.6,-0.8 0.2,-1.4c0.8,-0.6 1.4,0.2 1.4,0.2c1.37905,1.8804 4.13736,2.5628 5.3202,4.6073c0.78524,1.35727 0.6298,3.25414 0.6298,4.7427l0.14443,0.05279c0,0 0.05875,0.1175 0.09107,0.28862c0.05738,-0.05985 0.12667,-0.11804 0.2098,-0.17346c0.83205,-0.5547 1.38675,0.27735 1.38675,0.27735c1.17219,1.7692 3.06517,3.01538 3.6381,5.06216l0.17428,0.29532c0,0 0.44721,0.89443 -0.44721,1.34164c-0.89443,0.44721 -1.34164,-0.44721 -1.34164,-0.44721z"/><path d="M237.75177,102.47937l0.10557,0.19721c-0.19294,-0.40582 -0.47088,-0.78126 -0.57882,-1.21746c-0.12877,-0.52039 0.63263,-1.27934 0.19991,-1.59577c-0.42879,-0.31354 -1.0632,0.17923 -1.58981,0.10959c-1.19254,-0.1577 -2.38305,-0.41038 -3.51488,-0.81778c-2.23239,-0.80355 -4.28395,-3.23244 -5.67196,-5.07579c0,0 -0.6,-0.8 0.2,-1.4c0.8,-0.6 1.4,0.2 1.4,0.2c1.14051,1.52747 2.96818,3.7928 4.82804,4.42421c1.25536,0.42619 4.97155,0.32783 5.89531,1.2918c0.36271,0.3785 0.25705,2.5104 0.62108,3.18677l0.10557,0.69721c0,0 0,1 -1,1c-1,0 -1,-1 -1,-1z"/><path d="M228.25177,104.22937l-0.69721,-0.10557c-2.04117,-1.03573 -3.47328,-2.51373 -5.31729,-3.53693c0,0 -0.85749,-0.51449 -0.34299,-1.37199c0.5145,-0.85749 1.37199,-0.343 1.37199,-0.343c1.9513,1.23255 3.03602,2.40275 5.18272,3.46307l-0.19722,-0.10557c0,0 1,0 1,1c0,1 -1,1 -1,1z"/><path d="M228.54467,111.68648l-0.25,-0.25c-2.03757,-2.07037 -4.91303,-4.01204 -7.34759,-5.62506c0,0 -0.83205,-0.5547 -0.27735,-1.38675c0.5547,-0.83205 1.38675,-0.27735 1.38675,-0.27735c2.56093,1.71678 5.46905,3.71907 7.65241,5.87495l0.25,0.25c0,0 0.70711,0.70711 0,1.41421c-0.70711,0.70711 -1.41422,0 -1.41422,0z"/><path d="M233.70888,116.18648l-1.5785,0.72137c-1.6115,-0.65085 -3.10686,-0.23193 -4.64554,-0.71476c-2.66341,-0.83576 -4.77405,-2.41828 -6.51394,-4.58902c0,0 -0.6247,-0.78087 0.15617,-1.40556c0.78087,-0.6247 1.40556,0.15617 1.40556,0.15617c1.5276,1.91338 3.20051,3.08617 5.48606,3.91098c1.44455,0.52131 3.2513,0.14938 4.85446,0.78524l-0.5785,-0.27863c0,0 0.70711,-0.70711 1.41422,0c0.70711,0.70711 0,1.41421 0,1.41421z"/><path d="M239.75177,130.22937h-0.5c-3.76598,-0.02057 -6.56183,-2.75 -10.25,-2.75c0,0 -1,0 -1,-1c0,-1 1,-1 1,-1c3.76755,0 6.5623,2.7745 10.25,2.75h0.5c0,0 1,0 1,1c0,1 -1,1 -1,1z"/><path d="M233.03163,91.97191c0,0 -0.24254,-0.97014 0.72761,-1.21268c0.97015,-0.24253 1.21268,0.72761 1.21268,0.72761c0.1796,1.09632 1.70952,2.26523 2.62986,2.94253l0.4,1.05c0,0 0,1 -1,1c-0.65708,0 -0.88241,-0.43176 -0.95968,-0.72788c-1.30421,-1.02449 -2.54673,-2.20934 -3.01047,-3.77958z"/><path d="M243.05456,115.3738l-0.6619,-0.4004c-1.2457,0.44085 -1.76763,0.96664 -3.14089,1.00597c0,0 -1,0 -1,-1c0,-0.00519 0.00003,-0.01036 0.00009,-0.01549c-0.58179,0.01101 -1.16374,0.01549 -1.75009,0.01549c0,0 -1,0 -1,-1c0,-1 1,-1 1,-1c0.96297,0 1.90775,-0.0081 2.86732,0.07612l0.42557,-0.53323c0,0 0.70711,-0.70711 1.41422,0c0.29311,0.29311 0.34322,0.58622 0.30142,0.82896c0.35366,-0.14644 0.71639,-0.28344 1.10059,-0.36589l1.3381,0.5996c0,0 0.89443,0.44721 0.44721,1.34164c-0.44722,0.89443 -1.34164,0.44721 -1.34164,0.44721z"/><path d="M241.29467,112.43648l-0.91309,-0.9644c-0.52727,-1.88367 -1.373,-3.60919 -1.84994,-5.50017c0,0 -0.24254,-0.97014 0.72761,-1.21267c0.97015,-0.24253 1.21268,0.7276 1.21268,0.7276c0.42996,1.73745 1.29665,3.23385 1.65006,4.99984l0.58691,0.5356c0,0 0.70711,0.70711 0,1.41421c-0.70711,0.70711 -1.41422,0 -1.41422,0z"/><path d="M240.04467,99.68648c0,0 -0.70711,-0.70711 0,-1.41421c0.70711,-0.7071 1.41422,0 1.41422,0c1.14002,1.21484 1.43501,2.75527 2.18732,4.25989l-0.43732,1.40432c0,0 -0.70711,0.7071 -1.41422,0c-0.42361,-0.42361 -0.33967,-0.84722 -0.20427,-1.1188c-0.43549,-1.10548 -0.77733,-2.44384 -1.54573,-3.1312z"/><path d="M245.54467,93.93648l-0.85413,-0.8724c-1.41195,-2.77197 -3.48485,-4.71659 -5.64587,-6.8776c0,0 -0.70711,-0.70711 0,-1.41421c0.70711,-0.7071 1.41422,0 1.41422,0c2.21367,2.21367 4.4506,4.25487 5.85413,7.1224l0.64587,0.6276c0,0 0.70711,0.70711 0,1.41421c-0.70711,0.7071 -1.41422,0 -1.41422,0z"/></g></g><g><g><path d="M209.3966,220.68886c0,0 0.14128,1.08838 -1.08651,1.18688c-1.22781,0.09851 -1.36909,-0.98986 -1.36909,-0.98986l-0.1864,-1.43599c-0.22404,-1.80845 0.18703,-2.87368 -0.89974,-4.4626c0,0 -0.64,-0.94836 0.41728,-1.49139c1.05729,-0.54303 1.6973,0.40534 1.6973,0.40534c1.29632,1.94212 0.95287,3.24928 1.24079,5.35163l0.1864,1.43599z" data-paper-data="{&quot;index&quot;:null}" fill="#bdc29f" stroke="none" stroke-width="0.5"/><path d="M203.54158,223.66345c-1.41556,-0.03228 -1.41345,-1.28355 -1.41345,-1.28355l0.00279,-1.6509c0.01573,-2.07785 0.64453,-3.23806 -0.35695,-5.16806c0,0 -0.58788,-1.15093 0.69984,-1.64292c1.28771,-0.492 1.87558,0.65894 1.87558,0.65894c1.18755,2.35528 0.59959,3.79788 0.61264,6.21662l-0.00279,1.6509c0,0 -0.00211,1.25127 -1.41767,1.21899z" fill="#bdc29f" stroke="none" stroke-width="0.5"/><path d="M197.84885,224.0876c-1.41556,-0.03228 -1.41345,-1.28355 -1.41345,-1.28355l0.04417,-1.12797c0.69168,-2.41543 1.43998,-4.79292 1.85267,-7.26482c0,0 0.20706,-1.2334 1.6074,-1.02029c1.40033,0.21313 1.19328,1.44653 1.19328,1.44653c-0.43114,2.55493 -1.19277,5.01132 -1.90777,7.50817l0.04139,0.52294c0,0 -0.00211,1.25127 -1.41767,1.21899z" fill="#bdc29f" stroke="none" stroke-width="0.5"/><path d="M193.04882,221.68728c-1.37278,-0.3348 -1.0274,-1.54087 -1.0274,-1.54087l0.51122,-1.52204c1.46782,-1.9812 1.55625,-4.30799 2.97704,-6.2932c0,0 0.76175,-1.03831 1.95488,-0.33931c1.19312,0.699 0.43136,1.73732 0.43136,1.73732c-1.43967,1.89726 -1.52914,4.30336 -2.97704,6.2932l-0.15189,0.79362c0,0 -0.34537,1.20607 -1.71815,0.87128z" fill="#bdc29f" stroke="none" stroke-width="0.5"/><path d="M189.84206,215.48926c-1.37278,-0.3348 -1.0274,-1.54087 -1.0274,-1.54087l0.11052,-0.38595c1.02666,-3.49541 2.87955,-5.38797 6.48258,-6.84242c0,0 1.2757,-0.51492 1.88921,0.62595c0.61351,1.14086 -0.66219,1.65578 -0.66219,1.65578c-2.82795,1.14133 -4.17667,2.39027 -4.96403,5.23028l-0.11052,0.38595c0,0 -0.34537,1.20607 -1.71815,0.87128z" fill="#bdc29f" stroke="none" stroke-width="0.5"/><path d="M201.29856,203.89587l1.14876,-2.09594l5.14068,2.28646l-1.14875,2.09595z" fill="#663f3f" stroke="#000000" stroke-width="0.5"/><path d="M197.98972,204.10005l1.14878,-2.09595l5.14068,2.28646l-1.14877,2.09595z" fill="#663f3f" stroke="#000000" stroke-width="0.5"/><path d="M205.45333,203.50931l1.14874,-2.09593l5.14069,2.28645l-1.14878,2.09595z" fill="#663f3f" stroke="#000000" stroke-width="0.5"/><path d="M203.77115,206.5784l1.14877,-2.09595l5.14071,2.28644l-1.14878,2.09595z" fill="#663f3f" stroke="#000000" stroke-width="0.5"/><path d="M199.71284,200.95609l1.14877,-2.09595l5.14071,2.28646l-1.14878,2.09595z" fill="#663f3f" stroke="#000000" stroke-width="0.5"/><path d="M200.48772,208.09729l4.75917,-8.68324l2.74171,1.21944l-4.75916,8.68323z" fill="#663f3f" stroke="#000000" stroke-width="0.5"/><path d="M207.35583,213.21078c-1.45912,3.96754 -4.80413,2.80673 -8.12236,1.62233c-3.31822,-1.1844 -5.67389,-2.05361 -3.89401,-5.91144c2.12714,-4.6105 5.02796,-5.22953 8.34618,-4.04513c3.31822,1.1844 5.19225,4.19552 3.67019,8.33423z" fill="#d87700" stroke="#000000" stroke-width="0"/><path d="M206.09257,211.42247c-0.63723,2.22525 -3.16973,3.53753 -5.65651,2.93107c-2.48679,-0.60648 -3.98614,-2.90205 -3.34891,-5.1273c0.63723,-2.22525 3.16973,-3.53753 5.65651,-2.93107c2.48679,0.60648 3.98614,2.90205 3.34891,5.1273z" fill="#cbc700" stroke="#000000" stroke-width="0"/><path d="M215.20825,149.37784l2.68685,-2.3223l5.76952,5.21347l-2.68685,2.32231z" fill="#663f3f" stroke="#000000" stroke-width="0.5"/><path d="M216.36571,153.47749l2.68688,-2.3223l5.76951,5.21347l-2.68685,2.32231z" fill="#663f3f" stroke="#000000" stroke-width="0.5"/><path d="M213.95341,144.17231l2.68685,-2.32231l5.76951,5.21348l-2.68684,2.3223z" fill="#663f3f" stroke="#000000" stroke-width="0.5"/><path d="M210.01906,147.57285l2.68685,-2.32231l5.76951,5.21348l-2.68687,2.32233z" fill="#663f3f" stroke="#000000" stroke-width="0.5"/><path d="M220.39603,149.99403l2.68687,-2.32233l5.76951,5.21349l-2.68685,2.32231z" fill="#663f3f" stroke="#000000" stroke-width="0.5"/><path d="M211.85243,154.65834l11.1313,-9.62099l3.07707,2.78052l-11.13129,9.621z" fill="#663f3f" stroke="#000000" stroke-width="0.5"/><path d="M217.65421,183.5843c-1.34523,15.24594 -5.42782,20.8458 -11.02242,20.23625c-5.5946,-0.60955 -10.09132,-6.58038 -8.74608,-21.82633c0.71193,-8.06858 3.75697,-20.93441 6.50502,-27.57622c2.44451,-5.90818 4.47882,-6.09485 7.1126,-5.80788c3.14099,0.34222 6.28835,0.29779 7.18016,8.34761c0.69662,6.2881 -0.4393,19.94024 -1.02927,26.62656z" fill="#d87700" stroke="#929292" stroke-width="1"/></g><path d="M209.05191,161.31861c-0.70711,0.70711 -1.41421,0 -1.41421,0l-0.52347,-0.76099c-0.51517,-2.57719 -1.34793,-4.94303 -1.98956,-7.45358c0,0 -0.24254,-0.97014 0.72761,-1.21268c0.97014,-0.24254 1.21268,0.72761 1.21268,0.72761c0.61558,2.53191 1.49074,4.94932 2.01044,7.54642l-0.02347,-0.26099c0,0 0.70711,0.70711 0,1.41421z" fill="#000000" stroke="none" stroke-width="0.5"/><path d="M206.3448,172.8615c-0.94944,0 -0.99744,-0.90145 -0.99987,-0.99259c-1.74251,-3.24642 -2.73378,-8.81783 -2.75013,-12.50741c0,0 0,-1 1,-1c1,0 1,1 1,1c-0.01475,2.73156 0.87381,5.87826 1.69587,8.42546c0.48334,1.49764 0.07289,2.00404 0.91162,3.31004l0.14251,0.7645c0,0 0,1 -1,1z" fill="#000000" stroke="none" stroke-width="0.5"/><path d="M204.30191,183.56861c-0.70711,0.70711 -1.41421,0 -1.41421,0l-0.7579,-0.94489c-0.5394,-1.98738 -1.59648,-4.07406 -2.00824,-6.03246c-0.47847,-2.27565 -0.02675,-5.39626 -0.02675,-7.72975c0,0 0,-1 1,-1c1,0 1,1 1,1c0,2.14286 -0.48476,5.18022 -0.02675,7.27025c0.42458,1.93747 1.45444,3.99227 1.99176,5.96754l0.2421,0.05511c0,0 0.70711,0.70711 0,1.41421z" fill="#000000" stroke="none" stroke-width="0.5"/><path d="M203.05191,194.56861c-0.70711,0.70711 -1.41421,0 -1.41421,0l-0.34289,-0.35711c-3.53054,-4.71431 -3.07726,-9.46681 -3.69388,-14.98957c0,0 -0.11043,-0.99388 0.88345,-1.10432c0.99388,-0.11043 1.10432,0.88345 1.10432,0.88345c0.56795,5.13538 0.02074,9.63681 3.30612,14.01043l0.15711,0.14289c0,0 0.70711,0.70711 0,1.41421z" fill="#000000" stroke="none" stroke-width="0.5"/><path d="M204.05191,200.56861c-0.70711,0.70711 -1.41421,0 -1.41421,0l-0.47137,-0.58572c-1.00334,-2.51316 -2.74519,-3.50101 -3.75,-6c0,0 -0.37139,-0.92848 0.55709,-1.29987c0.92848,-0.37139 1.29987,0.55709 1.29987,0.55709c0.95045,2.38736 2.72005,3.42977 3.75,6l0.02863,-0.08572c0,0 0.70711,0.70711 0,1.41421z" fill="#000000" stroke="none" stroke-width="0.5"/><path d="M212.26275,162.4162c-0.5547,-0.83205 0.27735,-1.38675 0.27735,-1.38675l0.47265,-0.22265c1.33834,-2.00746 2.66856,-3.69602 4.37494,-5.40241c0,0 0.70711,-0.70711 1.41421,0c0.70711,0.70711 0,1.41421 0,1.41421c-1.61446,1.61446 -2.85808,3.19708 -4.12506,5.09759l-1.02735,0.77735c0,0 -0.83205,0.5547 -1.38675,-0.27735z" fill="#000000" stroke="none" stroke-width="0.5"/><path d="M211.26275,172.6662c-0.5547,-0.83205 0.27735,-1.38675 0.27735,-1.38675l0.7047,-0.46795c2.55364,-1.81263 5.12458,-6.27611 5.61361,-9.3644c0,0 0.1644,-0.98639 1.15079,-0.82199c0.98639,0.1644 0.82199,1.15079 0.82199,1.15079c-0.64302,3.70579 -3.42093,8.32659 -6.38639,10.6356l-0.7953,0.53205c0,0 -0.83205,0.5547 -1.38675,-0.27735z" fill="#000000" stroke="none" stroke-width="0.5"/><path d="M208.45038,183.05871c-0.44721,-0.89443 0.44721,-1.34164 0.44721,-1.34164l0.34721,-0.15557c1.29371,-0.96822 2.69956,-1.88494 4.01529,-2.76124c0.94592,-0.63 2.86376,-1.07815 3.46451,-2.18146c0.51451,-0.94493 0.78258,-2.67042 1.20105,-3.65122c0,0 0.39392,-0.91915 1.31306,-0.52523c0.91915,0.39392 0.52523,1.31306 0.52523,1.31306c-0.43272,1.00482 -0.74361,2.90083 -1.29895,3.84878c-1.44271,2.4627 -5.75071,3.85125 -8.0202,5.5573l-0.65279,0.34443c0,0 -0.89443,0.44721 -1.34164,-0.44721z" fill="#000000" stroke="none" stroke-width="0.5"/><path d="M206.0948,193.6115c0,-0.79336 0.62942,-0.9573 0.88954,-0.99118c2.51307,-4.66876 6.67666,-8.80725 10.11305,-12.67319c0,0 0.66436,-0.74741 1.41177,-0.08305c0.74741,0.66436 0.08305,1.41177 0.08305,1.41177c-3.43087,3.85973 -7.77666,8.06569 -10.10298,12.78285l-1.39443,0.55279c0,0 -1,0 -1,-1z" fill="#000000" stroke="none" stroke-width="0.5"/><path d="M207.95038,199.30871c-0.44721,-0.89443 0.44721,-1.34164 0.44721,-1.34164l0.24011,-0.06268c2.79021,-2.64175 6.4073,-2.72996 6.96716,-7.43431c0,0 0.14142,-0.98995 1.13137,-0.84853c0.98995,0.14142 0.84853,1.13137 0.84853,1.13137c-0.35406,2.20425 -1.91716,5.61886 -4.06018,6.76152c-1.13945,0.60756 -2.58333,0.82963 -3.47266,1.80417l-0.75989,0.43732c0,0 -0.89443,0.44721 -1.34164,-0.44721z" fill="#000000" stroke="none" stroke-width="0.5"/><path d="M210.31495,168.60403c-0.24254,0.97014 -1.21268,0.72761 -1.21268,0.72761l-1.38319,-0.4401c-1.0796,-1.87189 -1.66591,-2.75249 -1.36067,-4.94444c0,0 0.1644,-0.98639 1.15079,-0.82199c0.98639,0.1644 0.82199,1.15079 0.82199,1.15079c-0.30045,1.44078 0.18634,1.74893 0.63933,3.05556l0.61681,0.0599c0,0 0.97014,0.24254 0.72761,1.21268z" fill="#000000" stroke="none" stroke-width="0.5"/><path d="M210.5401,170.44355c-0.83205,-0.5547 -0.27735,-1.38675 -0.27735,-1.38675l0.43762,-0.64251c0.52511,-1.04953 1.01324,-2.11792 1.47528,-3.19671c0,0 0.39392,-0.91915 1.31306,-0.52523c0.91915,0.39392 0.52523,1.31306 0.52523,1.31306c-0.47797,1.11457 -0.98264,2.21845 -1.52472,3.30329l-0.56238,0.85749c0,0 -0.5547,0.83205 -1.38675,0.27735z" fill="#000000" stroke="none" stroke-width="0.5"/><path d="M206.67685,176.1662c-0.5547,0.83205 -1.38675,0.27735 -1.38675,0.27735l-1.05279,-0.81755c-0.52014,-0.90975 -0.86745,-1.96685 -0.89251,-3.0145c0,0 0,-1 1,-1c1,0 1,1 1,1c-0.02553,0.69165 0.23349,1.40314 0.60749,1.9855l0.44721,0.18245c0,0 0.83205,0.5547 0.27735,1.38675z" fill="#000000" stroke="none" stroke-width="0.5"/><path d="M208.3877,178.31861c-0.70711,-0.70711 0,-1.41421 0,-1.41421l0.76099,-0.52347c2.11063,-0.40514 3.6973,-2.03508 4.86407,-3.82412c0,0 0.5547,-0.83205 1.38675,-0.27735c0.83205,0.5547 0.27735,1.38675 0.27735,1.38675c-1.515,2.23232 -3.45844,4.12285 -6.13593,4.67588l0.26099,-0.02347c0,0 -0.70711,0.70711 -1.41421,0z" fill="#000000" stroke="none" stroke-width="0.5"/><path d="M204.75483,188.53394c-0.11082,0.27297 -0.35813,0.57756 -0.91002,0.57756c-0.72528,0 -0.92453,-0.52603 -0.97927,-0.81505l-0.47784,-0.47784c-0.75192,-0.83565 -1.0028,-2.08368 -1.04289,-3.20711c0,0 0,-1 1,-1c1,0 1,1 1,1c-0.03428,0.6158 -0.02494,1.40817 0.45711,1.79289l0.24955,0.24955c1.78068,-0.84431 3.58529,-1.63724 5.37954,-2.45281c0,0 0.91037,-0.4138 1.32417,0.49656c0.4138,0.91037 -0.49656,1.32417 -0.49656,1.32417c-1.83599,0.83454 -3.68329,1.64466 -5.50378,2.51207z" fill="#000000" stroke="none" stroke-width="0.5"/><path d="M206.85227,194.89136l0.96295,-0.23998c0.48779,-0.16285 0.97557,-0.32571 1.46336,-0.48856c0,0 0.94868,-0.31623 1.26491,0.63246c0.31623,0.94868 -0.63246,1.26491 -0.63246,1.26491c-0.51221,0.17048 -1.02443,0.34096 -1.53664,0.51144l-1.03705,0.26002c0,0 -0.15775,0.03944 -0.36192,0.0229c-0.0448,0.07087 -0.1019,0.14247 -0.1735,0.21407c-0.70711,0.70711 -1.41421,0 -1.41421,0l0.14088,-0.00842c-0.5,-0.16667 -1,-0.33333 -1.5,-0.5c0,0 -0.94868,-0.31623 -0.63246,-1.26491c0.31623,-0.94868 1.26491,-0.63246 1.26491,-0.63246c0.5,0.16667 1,0.33333 1.5,0.5l0.11852,0.09091c0.22708,-0.27596 0.57271,-0.36237 0.57271,-0.36237z" fill="#000000" stroke="none" stroke-width="0.5"/><path d="M212.51275,155.8068l0.43762,-0.64251c0.16667,-0.33333 0.33333,-0.66667 0.5,-1c0,0 0.44721,-0.89443 1.34164,-0.44721c0.89443,0.44721 0.44721,1.34164 0.44721,1.34164c-0.16667,0.33333 -0.33333,0.66667 -0.5,1l-0.56238,0.85749c0,0 -0.44113,0.6617 -1.1267,0.41153c0.08188,0.27917 0.14929,0.84948 -0.50813,1.17819c-0.89443,0.44721 -1.34164,-0.44721 -1.34164,-0.44721l-0.5,-1c0,0 -0.44721,-0.89443 0.44721,-1.34164c0.66955,-0.33478 1.0885,0.08227 1.25683,0.31314c0.05035,-0.13644 0.10833,-0.22341 0.10833,-0.22341z" fill="#000000" stroke="none" stroke-width="0.5"/></g><g><g><path d="M287.71331,215.43304l-0.07339,-0.39321c-0.51583,-2.89177 -1.68096,-4.22928 -4.23894,-5.55626c0,0 -1.15392,-0.59867 -0.49088,-1.69929c0.66304,-1.10061 1.81695,-0.50195 1.81695,-0.50195c3.25903,1.69099 4.84592,3.70522 5.53473,7.26812l0.07339,0.39321c0,0 0.22936,1.22878 -1.08157,1.47347c-1.31092,0.24469 -1.54029,-0.98408 -1.54029,-0.98408z" data-paper-data="{&quot;index&quot;:null}" fill="#bdc29f" stroke="none" stroke-width="0.5"/><path d="M284.76128,221.88423l-0.08039,-0.80361c-1.20026,-2.08494 -1.0967,-4.49699 -2.29646,-6.4888c0,0 -0.63215,-1.08834 0.53898,-1.70905c1.17113,-0.62072 1.80327,0.46763 1.80327,0.46763c1.17525,2.07854 1.07689,4.4112 2.29646,6.4888l0.35999,1.55564c0,0 0.22936,1.22878 -1.08157,1.47347c-1.31092,0.24469 -1.54029,-0.98408 -1.54029,-0.98408z" data-paper-data="{&quot;index&quot;:null}" fill="#bdc29f" stroke="none" stroke-width="0.5"/><path d="M279.75798,223.93391l0.07945,-0.52024c-0.47482,-2.54384 -0.99645,-5.05031 -1.20108,-7.6336c0,0 -0.09778,-1.24703 1.22945,-1.36824c1.32724,-0.12121 1.42503,1.12581 1.42503,1.12581c0.19383,2.49906 0.70911,4.92574 1.16846,7.38663l-0.04647,1.13089c0,0 -0.09544,1.25144 -1.42284,1.1908c-1.32742,-0.06064 -1.23198,-1.31207 -1.23198,-1.31207z" data-paper-data="{&quot;index&quot;:null}" fill="#bdc29f" stroke="none" stroke-width="0.5"/><path d="M274.33134,222.9123l0.12591,-1.65113c0.20051,-2.41795 -0.23748,-3.89921 1.05736,-6.17658c0,0 0.63982,-1.11238 1.80677,-0.53584c1.16694,0.57654 0.52711,1.68891 0.52711,1.68891c-1.08759,1.86432 -0.58938,3.06583 -0.73642,5.14477l-0.12591,1.65113c0,0 -0.09544,1.25144 -1.42284,1.1908c-1.32742,-0.06064 -1.23198,-1.31207 -1.23198,-1.31207z" data-paper-data="{&quot;index&quot;:null}" fill="#bdc29f" stroke="none" stroke-width="0.5"/><path d="M270.58146,220.01007l0.33231,-1.41588c0.5005,-2.07151 0.3244,-3.40795 1.74777,-5.22607c0,0 0.70158,-0.88717 1.62781,-0.24723c0.92622,0.63995 0.22464,1.52712 0.22464,1.52712c-1.18895,1.48505 -0.92308,2.58629 -1.33157,4.37039l-0.33232,1.41588c0,0 -0.25187,1.07314 -1.38618,0.86103c-1.13431,-0.21211 -0.88245,-1.28524 -0.88245,-1.28524z" data-paper-data="{&quot;index&quot;:null}" fill="#bdc29f" stroke="none" stroke-width="0.5"/><path d="M275.43831,205.13332l-0.32699,-2.32619l5.31256,-0.77629l0.32699,2.32618z" fill="#663f3f" stroke="#000000" stroke-width="0.5"/><path d="M272.99224,207.01688l-0.32699,-2.32619l5.31254,-0.77629l0.327,2.32619z" fill="#663f3f" stroke="#000000" stroke-width="0.5"/><path d="M278.43411,202.66072l-0.32699,-2.32618l5.31255,-0.7763l0.32699,2.32619z" fill="#663f3f" stroke="#000000" stroke-width="0.5"/><path d="M278.91291,206.06696l-0.32699,-2.3262l5.31255,-0.7763l0.32699,2.32619z" fill="#663f3f" stroke="#000000" stroke-width="0.5"/><path d="M272.50173,203.5276l-0.32699,-2.32619l5.31256,-0.7763l0.32699,2.32619z" fill="#663f3f" stroke="#000000" stroke-width="0.5"/><path d="M277.25012,209.02302l-1.35467,-9.63705l2.83337,-0.41402l1.35467,9.63704z" fill="#663f3f" stroke="#000000" stroke-width="0.5"/><path d="M277.94961,205.65475c3.2512,-0.77792 5.85518,0.18813 7.16611,5.03208c1.09691,4.05317 -1.21523,4.63366 -4.46643,5.41158c-3.2512,0.77792 -6.52387,1.52912 -7.30718,-2.59451c-0.81711,-4.30152 1.35632,-7.07124 4.60751,-7.84916z" data-paper-data="{&quot;index&quot;:null}" fill="#d87700" stroke="#000000" stroke-width="0"/><path d="M283.14679,210.61319c0.42318,2.26714 -1.15886,4.46437 -3.53359,4.90763c-2.37473,0.44326 -4.64289,-1.03529 -5.06606,-3.30243c-0.42318,-2.26714 1.15887,-4.46437 3.53359,-4.90763c2.37473,-0.44326 4.64289,1.03529 5.06606,3.30243z" fill="#cbc700" stroke="#000000" stroke-width="0"/><path d="M258.80887,153.64399l-2.65285,-2.1987l5.13875,-5.46333l2.65286,2.1987z" fill="#663f3f" stroke="#000000" stroke-width="0.5"/><path d="M257.94493,157.78909l-2.65285,-2.1987l5.13873,-5.46332l2.65287,2.19869z" fill="#663f3f" stroke="#000000" stroke-width="0.5"/><path d="M259.70387,148.3903l-2.65285,-2.19868l5.13875,-5.46333l2.65285,2.1987z" fill="#663f3f" stroke="#000000" stroke-width="0.5"/><path d="M263.58844,151.60988l-2.65287,-2.19872l5.13875,-5.46334l2.65285,2.1987z" fill="#663f3f" stroke="#000000" stroke-width="0.5"/><path d="M254.2737,154.68787l-2.65285,-2.1987l5.13874,-5.46335l2.65287,2.19872z" fill="#663f3f" stroke="#000000" stroke-width="0.5"/><path d="M264.65044,156.21694l-10.99043,-9.10892l2.74065,-2.91379l10.99043,9.10891z" fill="#663f3f" stroke="#000000" stroke-width="0.5"/><path d="M260.74844,158.31392c-0.24539,-8.06865 2.70501,-8.37345 5.59759,-9.06037c2.42548,-0.57599 4.35367,-0.61664 7.43301,4.9619c3.46173,6.27124 8.03608,18.67171 9.78433,26.58119c3.3034,14.94531 -0.10257,21.35516 -5.2547,22.57866c-5.15213,1.2235 -9.7226,-3.86824 -13.02599,-18.81355c-1.44875,-6.55449 -4.34257,-19.94502 -4.53425,-26.24783z" data-paper-data="{&quot;index&quot;:null}" fill="#d87700" stroke="#929292" stroke-width="1"/></g><path d="M267.73915,161.36595c-0.65853,0.75255 -1.41108,0.09402 -1.41108,0.09402l-0.7982,-0.69848c-2.11757,-1.85302 -3.09325,-3.28823 -3.69545,-6.08347c0,0 -0.20692,-0.97836 0.77144,-1.18528c0.97836,-0.20692 1.18528,0.77144 1.18528,0.77144c0.49597,2.39604 1.25908,3.41996 3.0558,4.99221l0.7982,0.69848c0,0 0.75255,0.65853 0.09402,1.41108z" fill="#000000" stroke="none" stroke-width="0.5"/><path d="M268.60173,160.79746c-0.50569,-0.86272 0.35703,-1.3684 0.35703,-1.3684l0.06578,0.19327c1.04881,-2.50073 2.06106,-4.95764 1.16798,-7.65483c0,0 -0.30649,-0.95187 0.64538,-1.25837c0.95187,-0.30649 1.25837,0.64538 1.25837,0.64538c1.01236,3.21555 0.02804,6.04802 -1.22736,9.04135l-0.89877,0.75864c0,0 -0.86272,0.50569 -1.3684,-0.35703z" fill="#000000" stroke="none" stroke-width="0.5"/><path d="M268.2003,167.64207c0.06648,0.99779 -0.93131,1.06427 -0.93131,1.06427l-1.47335,-0.19538c-1.7684,-1.54748 -3.1066,-3.20866 -4.29491,-5.23595c0,0 -0.50569,-0.86272 0.35703,-1.3684c0.86272,-0.50569 1.3684,0.35703 1.3684,0.35703c1.07799,1.83909 2.28238,3.33847 3.88654,4.74222l0.02333,-0.2951c0,0 0.99779,-0.06648 1.06427,0.93131z" fill="#000000" stroke="none" stroke-width="0.5"/><path d="M271.47649,164.16658c-0.99779,0.06648 -1.06427,-0.93131 -1.06427,-0.93131l0.05899,-0.70269c0.28828,-0.68735 0.57655,-1.3747 0.86483,-2.06206c0,0 0.38676,-0.92218 1.30894,-0.53542c0.92218,0.38676 0.53542,1.30894 0.53542,1.30894c-0.22446,0.5352 -0.44893,1.0704 -0.67339,1.6056c0.83441,-1.51363 1.77287,-2.95442 2.84796,-4.36199c0,0 0.60702,-0.79469 1.40171,-0.18767c0.79469,0.60702 0.18767,1.40171 0.18767,1.40171c-1.80427,2.36194 -3.1955,4.81093 -4.36285,7.59555l-0.40246,0.53784c0,0 -0.65853,0.75255 -1.41108,0.09402c-0.75255,-0.65853 -0.09402,-1.41108 -0.09402,-1.41108l0.0632,0.0057c0.3524,-0.83989 0.72521,-1.65297 1.1227,-2.44444c-0.10608,0.04592 -0.23255,0.07724 -0.38334,0.08728z" fill="#000000" stroke="none" stroke-width="0.5"/><path d="M275.07456,179.81199c-0.54549,0.83812 -1.38361,0.29263 -1.38361,0.29263l-1.10569,-0.72264c-1.05518,-0.94348 -2.40972,-1.68834 -3.61704,-2.47046c0,0 -0.60266,-0.39224 -0.45329,-1.02254c-0.01014,0.00108 -0.01563,0.00145 -0.01563,0.00145l-1.18768,0.06105c-2.55398,-0.79868 -4.62168,-1.72657 -4.882,-4.66773c0,0 -0.06648,-0.99779 0.93131,-1.06427c0.99779,-0.06648 1.06427,0.93131 1.06427,0.93131c0.05894,1.85202 1.59803,2.2912 3.13324,2.81598l0.8079,-0.07191c0,0 0.99779,-0.06648 1.06427,0.93131c0.00566,0.085 0.0036,0.16324 -0.00491,0.23526c0.347,-0.01261 0.63349,0.17385 0.63349,0.17385c1.2574,0.82179 2.60748,1.58483 3.73312,2.55201l0.98961,0.64108c0,0 0.83812,0.54549 0.29263,1.38361z" fill="#000000" stroke="none" stroke-width="0.5"/><path d="M273.77304,174.48395c-0.50569,-0.86272 0.35703,-1.3684 0.35703,-1.3684l0.16729,0.00863c1.55218,-2.22894 2.47688,-3.88122 1.63184,-6.50565c0,0 -0.30649,-0.95187 0.64538,-1.25837c0.95187,-0.30649 1.25837,0.64538 1.25837,0.64538c1.05063,3.26291 0.01009,5.52591 -1.89424,8.26144l-0.79726,0.574c0,0 -0.86272,0.50569 -1.3684,-0.35703z" fill="#000000" stroke="none" stroke-width="0.5"/><path d="M272.55664,184.13896c0.06648,0.99779 -0.93131,1.06427 -0.93131,1.06427l-0.49343,0.00295c-4.66748,-0.84287 -6.20288,-2.73302 -6.50741,-7.30369c0,0 -0.06648,-0.99779 0.93131,-1.06427c0.99779,-0.06648 1.06427,0.93131 1.06427,0.93131c0.24718,3.70991 1.05584,4.78181 4.86684,5.46841l0.00546,-0.03029c0,0 0.99779,-0.06648 1.06427,0.93131z" fill="#000000" stroke="none" stroke-width="0.5"/><path d="M277.81165,184.03938c-0.06648,-0.99779 0.93131,-1.06427 0.93131,-1.06427l0.93512,-0.01087c2.11713,-2.02056 1.48795,-3.48779 0.70749,-5.8688c0,0 -0.30649,-0.95187 0.64538,-1.25837c0.95187,-0.30649 1.25837,0.64538 1.25837,0.64538c1.10428,3.50728 1.31476,5.73951 -1.85405,8.33291l-1.55935,0.15533c0,0 -0.99779,0.06648 -1.06427,-0.93131z" fill="#000000" stroke="none" stroke-width="0.5"/><path d="M279.55232,197.64907c0.60879,0.79333 -0.18455,1.40212 -0.18455,1.40212l-1.01739,0.70729c-1.26248,0.37952 -2.19971,0.16952 -3.48282,0.26197c0,0 -0.99779,0.06648 -1.06427,-0.93131c-0.02513,-0.37722 0.10185,-0.62134 0.26952,-0.77907c-4.20961,-0.56448 -7.1538,-4.94381 -7.45318,-9.26558c0,0 -0.06648,-0.99779 0.93131,-1.06427c0.99779,-0.06648 1.06427,0.93131 1.06427,0.93131c0.25274,3.96966 3.38026,8.48182 7.80424,7.26667l-0.25885,0.04077c0,0 0.65853,-0.75255 1.41108,-0.09402c0.75255,0.65853 0.09402,1.41108 0.09402,1.41108l-0.60728,0.48021c0.22271,-0.02923 0.44789,-0.07938 0.67898,-0.16152l0.41281,-0.39021c0,0 0.79333,-0.60879 1.40212,0.18455z" fill="#000000" stroke="none" stroke-width="0.5"/><path d="M279.27044,194.00735c0.65853,-0.75255 1.41108,-0.09402 1.41108,-0.09402l0.7432,0.65369c0.52796,1.1148 1.84309,-3.84754 1.75813,-5.12276c0,0 -0.06648,-0.99779 0.93131,-1.06427c0.99779,-0.06648 1.06427,0.93131 1.06427,0.93131c0.16835,2.52674 -0.24345,4.09925 -1.77479,6.2093c-0.3928,0.54125 -0.67225,1.37205 -1.32787,1.50398c-0.66947,0.13472 -1.23873,-0.57525 -1.8581,-0.86288l-0.85321,-0.74327c0,0 -0.75255,-0.65853 -0.09402,-1.41108z" fill="#000000" stroke="none" stroke-width="0.5"/><path d="M278.21379,191.57933c-0.08519,-0.05544 -0.15608,-0.11391 -0.21471,-0.17421c-0.16329,0.6504 -0.90283,0.69967 -0.90283,0.69967l-0.49889,0.03324c-3.05604,0.11705 -2.94402,-1.30516 -4.9156,-2.97268c0,0 -0.75255,-0.65853 -0.09402,-1.41108c0.65853,-0.75255 1.41108,-0.09402 1.41108,-0.09402c1.47301,1.32224 1.38038,2.7122 3.46558,2.48221l0.49889,-0.03324c0,0 0.53132,-0.0354 0.84436,0.33319c0.05032,-0.14959 0.11351,-0.24667 0.11351,-0.24667l0.65487,-1.00375c0.78814,-1.53856 1.46469,-2.50258 2.62379,-3.83202c0,0 0.65853,-0.75255 1.41108,-0.09402c0.75255,0.65853 0.09402,1.41108 0.09402,1.41108c-1.11513,1.26926 -1.64447,2.04927 -2.39868,3.51813l-0.70885,1.09155c0,0 -0.54549,0.83812 -1.38361,0.29263z" fill="#000000" stroke="none" stroke-width="0.5"/><path d="M275.43382,178.43506c-0.02894,-0.43442 0.14385,-0.69231 0.34821,-0.84503c0.0404,-0.39341 0.04727,-0.79096 0.01772,-1.18379c0,0 -0.06648,-0.99779 0.93131,-1.06427c0.99779,-0.06648 1.06427,0.93131 1.06427,0.93131c0.04506,0.75196 -0.00126,1.51398 -0.13015,2.25618l-1.16709,0.8369c0,0 -0.99779,0.06648 -1.06427,-0.93131z" fill="#000000" stroke="none" stroke-width="0.5"/><path d="M273.07928,172.42831c-0.54549,0.83812 -1.38361,0.29263 -1.38361,0.29263l-0.97018,-0.63626c-0.8843,-0.36712 -1.78768,-0.68722 -2.69094,-1.00484c0,0 -0.9433,-0.33194 -0.61136,-1.27524c0.33194,-0.9433 1.27524,-0.61136 1.27524,-0.61136c0.9964,0.35088 1.99012,0.71259 2.96309,1.12399l1.12512,0.72746c0,0 0.83812,0.54549 0.29263,1.38361z" fill="#000000" stroke="none" stroke-width="0.5"/><path d="M273.95405,171.26758c-0.99779,0.06648 -1.06427,-0.93131 -1.06427,-0.93131l-0.03619,-0.99232c0.06099,-0.33814 0.12198,-0.67627 0.18297,-1.01441c0,0 0.1775,-0.98412 1.16162,-0.80662c0.98412,0.1775 0.80662,1.16162 0.80662,1.16162c-0.06099,0.33814 -0.12198,0.67627 -0.18297,1.01441l0.06353,0.50436c0,0 0.06648,0.99779 -0.93131,1.06427z" fill="#000000" stroke="none" stroke-width="0.5"/><path d="M269.62152,164.23727c-0.38676,0.92218 -1.30894,0.53542 -1.30894,0.53542l-1.11228,-0.47087c-0.63382,-0.41252 -1.29889,-0.78607 -1.99742,-1.07582c0,0 -0.92218,-0.38676 -0.53542,-1.30894c0.38676,-0.92218 1.30894,-0.53542 1.30894,-0.53542c0.75153,0.31815 1.47595,0.70756 2.15993,1.15273l0.94977,0.39395c0,0 0.92218,0.38676 0.53542,1.30894z" fill="#000000" stroke="none" stroke-width="0.5"/><path d="M267.22974,156.01292c-0.79333,0.60879 -1.40212,-0.18455 -1.40212,-0.18455l-0.75321,-1.25741c-0.03324,-0.49889 -0.06648,-0.99779 -0.09972,-1.49668c0,0 -0.06648,-0.99779 0.93131,-1.06427c0.99779,-0.06648 1.06427,0.93131 1.06427,0.93131c0.03324,0.49889 0.06648,0.99779 0.09972,1.49668l0.3443,0.17279c0,0 0.60879,0.79333 -0.18455,1.40212z" fill="#000000" stroke="none" stroke-width="0.5"/></g><g><g><g stroke="#929292" stroke-width="1"><path d="M259.18983,164.88978c0.18364,25.49669 -2.94171,58.10091 -19.76166,58.6067c-17.19412,0.51704 -18.63546,-31.2283 -18.8191,-56.72498c-0.18364,-25.49669 6.16856,-30.21398 18.1541,-30.27336c11.98554,-0.05939 20.24303,2.89496 20.42667,28.39165z" fill="#d87700"/><path d="M250.84078,174.23881c0.11771,16.47084 -1.88562,37.53313 -12.66708,37.85987c-11.0213,0.334 -11.94519,-20.17345 -12.0629,-36.64428c-0.11771,-16.47084 3.954,-19.5182 11.63665,-19.55657c7.68265,-0.03836 12.97564,1.87014 13.09335,18.34098z" fill="#bdc29f"/></g><g fill="#000000" stroke="none" stroke-width="0.5"><path d="M245.74516,152.04948c-1.45522,-0.36381 -1.09141,-1.81901 -1.09141,-1.81901l0.28219,-1.11054c1.16357,-3.49069 2.97458,-5.86628 5.25172,-8.7127c0,0 0.93704,-1.17131 2.10835,-0.23426c1.1713,0.93705 0.23426,2.10834 0.23426,2.10834c-2.06656,2.5832 -3.69783,4.63597 -4.74827,7.7873l-0.21782,0.88946c0,0 -0.3638,1.45522 -1.81902,1.09141z"/><path d="M245.18814,163.18591c-1.34164,-0.67082 -0.67082,-2.01247 -0.67082,-2.01247l0.34356,-0.66123c2.84954,-4.25865 6.9015,-8.26627 9.15644,-12.83877c0,0 0.67083,-1.34164 2.01247,-0.67082c1.34164,0.67082 0.67082,2.01246 0.67082,2.01246c-2.38013,4.70661 -6.41506,8.75389 -9.34356,13.16123l-0.15644,0.33877c0,0 -0.67082,1.34164 -2.01246,0.67083z"/><path d="M243.95897,171.54426c-1.2,-0.9 -0.3,-2.1 -0.3,-2.1l1.11795,-1.34807c3.95052,-2.62905 8.70366,-5.70266 11.66075,-9.43896c0,0 0.93704,-1.17131 2.10834,-0.23426c1.1713,0.93705 0.23426,2.10834 0.23426,2.10834c-3.21082,3.97806 -8.10304,7.23227 -12.33925,10.06103l-0.38205,0.65193c0,0 -0.9,1.2 -2.1,0.3z"/><path d="M243.12414,179.42572c0.0583,0.36131 -0.02057,0.79525 -0.45451,1.2292c-1.06066,1.06066 -2.12132,0 -2.12132,0l-0.43742,-2.14271c1.61254,-2.4188 4.22752,-6.28288 7.09904,-7.33201c3.05957,-1.11783 7.24032,-0.10386 9.58839,-2.6466c0,0 1.06066,-1.06066 2.12132,0c1.06066,1.06066 0,2.12132 0,2.12132c-3.08817,2.93693 -6.76331,2.13275 -10.56576,3.29862c-0.88222,0.2705 -1.36936,1.43566 -1.95093,1.96782c-1.49857,1.37125 -2.26532,2.08806 -3.27879,3.50436z"/><path d="M240.10897,190.84426c-1.5,0 -1.5,-1.5 -1.5,-1.5l0.07698,-0.97434c0.55731,-1.65954 1.24789,-4.04548 2.86292,-5.03809c1.22951,-0.75566 2.89711,-0.56909 4.20327,-1.10934c2.43839,-1.00857 4.53916,-3.84526 6.44634,-5.32029c1.62743,-1.25868 3.28432,-1.27052 4.84984,-2.8686c0,0 1.06066,-1.06066 2.12132,0c1.06066,1.06066 0,2.12132 0,2.12132c-1.57724,1.55158 -3.67088,1.89641 -5.15017,3.1314c-2.01626,1.68329 -4.44165,4.53245 -7.05366,5.67971c-1.19019,0.52276 -2.6459,0.28617 -3.79673,0.89066c-0.8885,0.4667 -1.36551,2.64022 -1.63708,3.46191l0.07698,0.02566c0,0 0,1.5 -1.5,1.5z"/><path d="M241.79831,194.40492c-1.06066,-1.06066 0,-2.12132 0,-2.12132l0.25,-0.25c4.18306,-4.02545 11.13077,-5.08803 13.96902,-10.86016c0,0 0.67082,-1.34164 2.01246,-0.67082c1.34164,0.67082 0.67082,2.01246 0.67082,2.01246c-1.84626,3.64314 -5.57857,6.45138 -9.02062,8.58454c-2.17913,1.35048 -3.8251,1.27479 -5.51036,3.0553l-0.25,0.25c0,0 -1.06066,1.06066 -2.12132,0z"/><path d="M258.56418,190.73046c0.3638,1.45521 -1.09141,1.81902 -1.09141,1.81902l-0.77292,0.1735c-2.18429,0.93522 -3.60385,2.35487 -5.62405,3.43892c-1.62827,0.87374 -2.86885,0.61993 -4.38478,1.68044c0,0 -1.24808,0.83205 -2.08013,-0.41603c-0.83205,-1.24808 0.41603,-2.08013 0.41603,-2.08013c1.62844,-1.04891 3.04875,-0.94392 4.61522,-1.81956c2.06071,-1.15191 3.61932,-2.59307 5.87595,-3.56108l1.22708,-0.3265c0,0 1.45521,-0.3638 1.81902,1.09141z"/><path d="M243.08722,206.13087c-1.28624,-0.77174 -0.5145,-2.05798 -0.5145,-2.05798l0.97558,-1.53892c1.0098,-0.9774 2.32977,-1.58173 3.56957,-2.24348c2.09867,-1.12018 3.27279,-3.57222 5.37953,-4.56553c1.24327,-0.58619 2.69444,-0.54612 4.03617,-0.84461c0,0 1.46428,-0.3254 1.78968,1.13888c0.3254,1.46428 -1.13888,1.78968 -1.13888,1.78968c-1.14717,0.25465 -2.38208,0.19639 -3.46383,0.65539c-1.84547,0.78305 -3.22179,3.40367 -5.12047,4.43447c-1.00086,0.54337 -2.14424,0.93258 -2.93043,1.75652l-0.52442,0.96108c0,0 -0.77174,1.28624 -2.05798,0.5145z"/><path d="M242.81479,214.8155c-1.47087,-0.29417 -1.1767,-1.76505 -1.1767,-1.76505l0.37923,-1.62665c1.54444,-3.05408 3.53754,-3.28155 5.83668,-5.44275c0.23138,-0.2175 2.31608,-3.15442 2.81195,-3.55292c1.45074,-1.16588 4.12423,-2.21716 5.68721,-3.12917c0,0 1.29567,-0.75581 2.05147,0.53986c0.75581,1.29567 -0.53986,2.05147 -0.53986,2.05147c-1.42359,0.83019 -3.96273,1.79813 -5.31279,2.87083c-1.14082,0.90645 -1.61999,2.45594 -2.68805,3.44708c-2.13169,1.97814 -3.83897,1.87174 -5.16332,4.55725l-0.12077,0.87335c0,0 -0.29417,1.47087 -1.76505,1.1767z"/><path d="M240.54831,219.90529c-1.06066,-1.06066 0,-2.12132 0,-2.12132l0.88984,-0.78098c1.44941,-0.70888 3.4607,-0.82719 4.7278,-1.82486c2.54319,-2.0024 4.88366,-4.54715 6.35138,-7.50432c0,0 0.67082,-1.34164 2.01246,-0.67082c1.34164,0.67082 0.67082,2.01246 0.67082,2.01246c-1.62967,3.23857 -4.23588,6.38622 -7.14862,8.49568c-1.75751,1.27282 -3.45746,1.24161 -5.2722,2.17514l-0.11016,0.21902c0,0 -1.06066,1.06066 -2.12132,0z"/></g><g data-paper-data="{&quot;index&quot;:null}" fill="#000000" stroke="none" stroke-width="0.5"><path d="M232.43582,150.70807l-0.21781,-0.88946c-1.05044,-3.15133 -2.68171,-5.2041 -4.74828,-7.7873c0,0 -0.93705,-1.1713 0.23426,-2.10834c1.1713,-0.93705 2.10834,0.23426 2.10834,0.23426c2.27713,2.84642 4.08815,5.222 5.25172,8.7127l0.28219,1.11054c0,0 0.3638,1.45521 -1.09141,1.81901c-1.45522,0.36381 -1.81902,-1.09141 -1.81902,-1.09141z"/><path d="M232.79939,162.26508l-0.15643,-0.33877c-2.9285,-4.40734 -6.96343,-8.45461 -9.34356,-13.16123c0,0 -0.67082,-1.34164 0.67082,-2.01246c1.34164,-0.67082 2.01247,0.67082 2.01247,0.67082c2.25493,4.57251 6.30689,8.58012 9.15643,12.83877l0.34357,0.66123c0,0 0.67082,1.34165 -0.67082,2.01247c-1.34164,0.67082 -2.01247,-0.67083 -2.01247,-0.67083z"/><path d="M233.94103,170.99426l-0.38205,-0.65193c-4.23621,-2.82877 -9.12843,-6.08298 -12.33925,-10.06103c0,0 -0.93705,-1.1713 0.23426,-2.10834c1.1713,-0.93705 2.10834,0.23426 2.10834,0.23426c2.95709,3.7363 7.71022,6.80991 11.66074,9.43896l1.11795,1.34807c0,0 0.9,1.2 -0.3,2.1c-1.2,0.9 -2.1,-0.3 -2.1,-0.3z"/><path d="M233.59707,175.67136c-0.58157,-0.53216 -1.06871,-1.69732 -1.95093,-1.96782c-3.80246,-1.16587 -7.4776,-0.36169 -10.56577,-3.29862c0,0 -1.06066,-1.06066 0,-2.12132c1.06066,-1.06066 2.12132,0 2.12132,0c2.34807,2.54274 6.52882,1.52877 9.58838,2.6466c2.87152,1.04913 5.4865,4.91321 7.09904,7.33201l-0.43742,2.14271c0,0 -1.06066,1.06066 -2.12132,0c-0.43394,-0.43394 -0.51281,-0.86789 -0.45451,-1.2292c-1.01348,-1.4163 -1.78022,-2.13311 -3.27879,-3.50436z"/><path d="M238.39103,189.09426l0.07698,-0.02566c-0.27157,-0.8217 -0.74858,-2.99521 -1.63707,-3.46191c-1.15083,-0.60449 -2.60654,-0.3679 -3.79673,-0.89066c-2.61201,-1.14727 -5.03741,-3.99643 -7.05366,-5.67971c-1.47929,-1.23499 -3.57293,-1.57982 -5.15017,-3.1314c0,0 -1.06066,-1.06066 0,-2.12132c1.06066,-1.06066 2.12132,0 2.12132,0c1.56551,1.59808 3.2224,1.60992 4.84984,2.8686c1.90717,1.47503 4.00794,4.31172 6.44633,5.32029c1.30616,0.54026 2.97376,0.35368 4.20327,1.10934c1.61503,0.99261 2.30561,3.37855 2.86292,5.03809l0.07697,0.97434c0,0 0,1.5 -1.5,1.5c-1.5,0 -1.5,-1.5 -1.5,-1.5z"/><path d="M236.08037,194.15492l-0.25,-0.25c-1.68526,-1.78051 -3.33123,-1.70482 -5.51036,-3.0553c-3.44205,-2.13315 -7.17436,-4.9414 -9.02062,-8.58454c0,0 -0.67082,-1.34164 0.67082,-2.01246c1.34164,-0.67082 2.01247,0.67082 2.01247,0.67082c2.83824,5.77213 9.78595,6.83471 13.96901,10.86016l0.25,0.25c0,0 1.06066,1.06066 0,2.12132c-1.06066,1.06066 -2.12132,0 -2.12132,0z"/><path d="M223.25484,189.38905l1.22708,0.32649c2.25663,0.96802 3.81524,2.40918 5.87595,3.56108c1.56647,0.87564 2.98678,0.77065 4.61522,1.81956c0,0 1.24808,0.83205 0.41603,2.08012c-0.83205,1.24808 -2.08013,0.41603 -2.08013,0.41603c-1.51592,-1.06052 -2.7565,-0.8067 -4.38477,-1.68044c-2.02019,-1.08405 -3.43976,-2.50369 -5.62405,-3.43892l-0.77292,-0.17351c0,0 -1.45521,-0.3638 -1.09141,-1.81901c0.36381,-1.45522 1.81902,-1.09141 1.81902,-1.09141z"/><path d="M234.8548,205.36637l-0.52443,-0.96108c-0.78619,-0.82394 -1.92957,-1.21315 -2.93043,-1.75652c-1.89868,-1.0308 -3.27501,-3.65142 -5.12047,-4.43447c-1.08175,-0.45899 -2.31666,-0.40073 -3.46383,-0.65538c0,0 -1.46428,-0.3254 -1.13888,-1.78968c0.32539,-1.46428 1.78968,-1.13888 1.78968,-1.13888c1.34173,0.2985 2.79289,0.25842 4.03616,0.84461c2.10673,0.99331 3.28086,3.44535 5.37953,4.56553c1.23979,0.66175 2.55976,1.26608 3.56957,2.24348l0.97558,1.53892c0,0 0.77175,1.28624 -0.5145,2.05799c-1.28624,0.77175 -2.05798,-0.5145 -2.05798,-0.5145z"/><path d="M235.42016,213.3888l-0.12077,-0.87335c-1.32435,-2.6855 -3.03163,-2.57911 -5.16332,-4.55724c-1.06806,-0.99113 -1.54724,-2.54064 -2.68805,-3.44708c-1.35005,-1.0727 -3.8892,-2.04064 -5.31279,-2.87083c0,0 -1.29566,-0.75581 -0.53986,-2.05148c0.75581,-1.29567 2.05147,-0.53986 2.05147,-0.53986c1.56298,0.91201 4.23647,1.96329 5.68721,3.12917c0.49587,0.3985 2.58056,3.33543 2.81195,3.55293c2.29913,2.16121 4.29224,2.38868 5.83668,5.44275l0.37923,1.62664c0,0 0.29417,1.47087 -1.1767,1.76505c-1.47087,0.29417 -1.76504,-1.1767 -1.76504,-1.1767z"/><path d="M237.33037,219.65529l-0.11016,-0.21902c-1.81474,-0.93354 -3.51468,-0.90233 -5.2722,-2.17514c-2.91274,-2.10945 -5.51896,-5.25711 -7.14863,-8.49568c0,0 -0.67082,-1.34164 0.67082,-2.01246c1.34164,-0.67082 2.01247,0.67082 2.01247,0.67082c1.46771,2.95718 3.80818,5.50192 6.35137,7.50432c1.26711,0.99767 3.2784,1.11598 4.7278,1.82486l0.88984,0.78098c0,0 1.06066,1.06066 0,2.12132c-1.06066,1.06066 -2.12132,0 -2.12132,0z"/></g></g><path d="M237.75042,142.00482c0,-1.38071 1.11929,-2.5 2.5,-2.5c1.38071,0 2.5,1.11929 2.5,2.5c0,1.38071 -1.11929,2.5 -2.5,2.5c-1.38071,0 -2.5,-1.11929 -2.5,-2.5z" fill="#ff0000" stroke="none" stroke-width="0.5"/><path d="M236.75042,165.00482l2.5,-22l1.75,0.25l1.25,21.75l-3,4.75z" fill="#ff0000" stroke="none" stroke-width="NaN"/></g></g></g></svg>