<svg version="1.1" xmlns="http://www.w3.org/2000/svg" xmlns:xlink="http://www.w3.org/1999/xlink" width="95.1152" height="256.47616" viewBox="0,0,95.1152,256.47616"><g transform="translate(-190.38436,-65.69829)"><g data-paper-data="{&quot;isPaintingLayer&quot;:true}" fill-rule="nonzero" stroke-linecap="butt" stroke-linejoin="miter" stroke-miterlimit="10" stroke-dasharray="" stroke-dashoffset="0" style="mix-blend-mode: normal"><g><g data-paper-data="{&quot;index&quot;:null}" fill="#663f3f" stroke="#000000" stroke-width="0.5"><path d="M199.04151,230.54397l0.23375,-2.3371l5.00808,0.50089l-0.23374,2.3371z"/><path d="M196.38723,231.79596l0.23375,-2.33711l5.00808,0.50088l-0.23374,2.33711z"/><path d="M202.33019,228.84959l0.23374,-2.33709l5.00809,0.50088l-0.23375,2.33711z"/><path d="M201.98787,232.27182l0.23374,-2.33711l5.0081,0.50087l-0.23375,2.33711z"/><path d="M196.73778,228.29029l0.23374,-2.33711l5.0081,0.50088l-0.23376,2.33711z"/><path d="M199.801,234.75078l0.96837,-9.68231l2.67098,0.26713l-0.96837,9.6823z"/></g><g data-paper-data="{&quot;index&quot;:null}" fill="#663f3f" stroke="#000000" stroke-width="0.5"><path d="M264.87406,234.51017l0.09879,-2.34669l5.02862,0.21169l-0.09879,2.34668z"/><path d="M262.29625,235.91291l0.09879,-2.34669l5.02861,0.21168l-0.09878,2.34669z"/><path d="M268.05974,232.62924l0.09879,-2.34668l5.02862,0.21168l-0.09879,2.34669z"/><path d="M267.91506,236.0655l0.09879,-2.3467l5.02862,0.21168l-0.09879,2.34669z"/><path d="M262.4444,232.39287l0.09879,-2.34669l5.02863,0.21168l-0.09879,2.34669z"/><path d="M265.87451,238.66627l0.40926,-9.722l2.68194,0.1129l-0.40926,9.72199z"/></g><g data-paper-data="{&quot;index&quot;:null}" fill="#663f3f" stroke="#000000" stroke-width="0.5"><path d="M264.87406,308.17016l0.09879,-2.34668l5.02862,0.21169l-0.09879,2.34668z"/><path d="M262.29625,309.57291l0.09879,-2.34669l5.02861,0.21168l-0.09878,2.34669z"/><path d="M268.05974,306.28924l0.09879,-2.34668l5.02862,0.21168l-0.09879,2.34669z"/><path d="M267.91506,309.7255l0.09879,-2.3467l5.02862,0.21168l-0.09879,2.34669z"/><path d="M262.4444,306.05287l0.09879,-2.34669l5.02863,0.21168l-0.09879,2.3467z"/><path d="M265.87451,312.32626l0.40926,-9.72201l2.68194,0.11289l-0.40926,9.722z"/></g><g data-paper-data="{&quot;index&quot;:null}" fill="#663f3f" stroke="#000000" stroke-width="0.5"><path d="M223.70895,310.1097l-0.01752,-2.3487l5.03294,-0.03753l0.01752,2.34869z"/><path d="M221.20376,311.63834l-0.01751,-2.3487l5.03292,-0.03753l0.01753,2.3487z"/><path d="M226.7976,308.07335l-0.01752,-2.34869l5.03294,-0.03753l0.01752,2.3487z"/><path d="M226.82321,311.51256l-0.01751,-2.34871l5.03294,-0.03753l0.01752,2.3487z"/><path d="M221.17744,308.11528l-0.01752,-2.3487l5.03294,-0.03755l0.01751,2.34871z"/><path d="M224.91391,314.21116l-0.07256,-9.73034l2.68424,-0.02002l0.07257,9.73034z"/></g><g data-paper-data="{&quot;index&quot;:null}" fill="#663f3f" stroke="#000000" stroke-width="0.5"><path d="M229.52154,244.15453l1.30294,-3.09586l6.634,2.79202l-1.30295,3.09586z"/><path d="M225.36699,244.74872l1.30295,-3.09586l6.63398,2.79201l-1.30293,3.09587z"/><path d="M234.72937,243.22265l1.30293,-3.09585l6.634,2.79202l-1.30295,3.09586z"/><path d="M232.82142,247.75592l1.30295,-3.09587l6.634,2.79202l-1.30295,3.09586z"/><path d="M227.32133,240.10491l1.30294,-3.09587l6.63402,2.79201l-1.30296,3.09587z"/><path d="M228.78936,250.22376l5.39791,-12.82574l3.53814,1.48907l-5.3979,12.82574z"/></g><g data-paper-data="{&quot;index&quot;:null}" fill="#663f3f" stroke="#000000" stroke-width="0.5"><path d="M247.47766,247.74655l-1.30295,-3.09586l6.634,-2.79202l1.30294,3.09586z"/><path d="M251.6323,248.34074l-1.30293,-3.09587l6.63398,-2.79201l1.30295,3.09586z"/><path d="M242.26993,246.81468l-1.30294,-3.09585l6.634,-2.79202l1.30293,3.09584z"/><path d="M244.17779,251.34793l-1.30295,-3.09586l6.634,-2.79202l1.30295,3.09588z"/><path d="M249.67788,243.69693l-1.30296,-3.09587l6.63402,-2.79201l1.30294,3.09587z"/><path d="M251.30574,252.51283l-5.3979,-12.82573l3.53814,-1.48908l5.39791,12.82574z"/></g><path d="M237.28775,284.15251c-0.89636,17.53088 -4.85634,24.15499 -10.53539,23.74528c-5.67905,-0.40971 -10.41073,-7.01644 -9.51437,-24.54732c0.47438,-9.27784 3.16309,-24.17034 5.74106,-31.91904c2.29321,-6.89281 4.34579,-7.21146 7.01933,-7.01858c3.18842,0.23003 6.37149,0.01689 7.51916,9.19056c0.8965,7.16601 0.16332,22.86067 -0.22979,30.54909z" fill="#063800" stroke="#929292" stroke-width="1"/><path d="M247.27951,255.02211c-0.51382,-9.2309 2.65596,-9.59127 5.75163,-10.3886c2.59577,-0.66858 4.67222,-0.72268 8.16282,5.64799c3.92403,7.16171 9.23643,21.3319 11.36474,30.37478c4.02153,17.08691 0.54957,24.43424 -4.96429,25.8544c-5.51385,1.42016 -10.59614,-4.38764 -14.61768,-21.47455c-1.7637,-7.49371 -5.29585,-22.80332 -5.69722,-30.01402z" data-paper-data="{&quot;index&quot;:null}" fill="#063800" stroke="#929292" stroke-width="1"/><path d="M235.6957,317.27445c0,3.75554 -3.00558,4.4 -7.7,4.4c-4.69442,0 -8.1,-0.64446 -8.1,-4.4c0,-3.75554 3.20558,-5.2 7.9,-5.2c4.69442,0 7.9,1.44446 7.9,5.2z" fill="#063800" stroke="#929292" stroke-width="1"/><path d="M276.29569,313.87444c0,3.75554 -1.60558,2.8 -6.3,2.8c-4.69442,0 -7.34136,0.94247 -7.3,-3.2c0.04962,-4.96891 2.00558,-3.6 6.7,-3.6c4.69442,0 6.9,0.24446 6.9,4z" fill="#063800" stroke="#929292" stroke-width="1"/><path d="M224.38391,321.29805c-0.22361,-0.11181 -0.11181,-0.33541 -0.11181,-0.33541l0.1803,-0.34564c-0.00215,-0.11782 -0.0043,-0.23564 -0.00645,-0.35345c0.12131,-1.14754 1.44601,-1.73127 1.60645,-2.64655c0.36014,-2.05447 -0.36671,-3.0324 -1.1803,-4.63075c0,0 -0.1118,-0.22361 0.11181,-0.33541c0.22361,-0.11181 0.33541,0.1118 0.33541,0.1118c0.77874,1.59144 1.73931,2.92149 1.2197,4.96925c-0.23476,0.92522 -1.52659,1.46205 -1.59355,2.55346c-0.00215,0.14884 -0.0043,0.2977 -0.00645,0.44654l-0.21971,0.45436c0,0 -0.1118,0.2236 -0.33541,0.1118z" fill="#000000" stroke="none" stroke-width="0.5"/><path d="M230.23805,312.75534l0.2507,-0.17511c2.85908,0.05935 5.95909,2.13791 4.15215,5.27565c-0.61507,0.21535 -3.03288,-1.38085 -4.27015,-2.88794c0.50065,2.11828 1.47016,3.94325 -0.92503,5.9065l-0.17322,0.17677c0,0 -0.17678,0.17678 -0.35356,0c-0.17678,-0.17678 0,-0.35355 0,-0.35355l0.22678,-0.22323c2.60828,-1.69257 1.0639,-4.17787 0.61118,-6.46904c-0.11244,-0.27017 -0.154,-0.52074 -0.10208,-0.73734c-0.00446,-0.0648 -0.00754,-0.12934 -0.0091,-0.19361c0,0 0,-0.25 0.25,-0.25c0.02256,0 0.04309,0.00203 0.06176,0.00574c0.0269,-0.0197 0.0556,-0.03868 0.08615,-0.05689c0,0 0.09652,-0.04826 0.19444,-0.01795z" fill="#000000" stroke="none" stroke-width="0.5"/><path d="M266.31892,316.25122c-0.17678,-0.17678 0,-0.35355 0,-0.35355l0.15317,-0.13503c0.87067,-1.64015 3.36814,-4.53206 5.37457,-4.93334c0,0 0.24514,-0.04903 0.29417,0.19612c0.04903,0.24514 -0.19611,0.29417 -0.19611,0.29417c-1.76041,0.35208 -4.34278,3.17353 -5.02542,4.66666l-0.24683,0.26497c0,0 -0.17678,0.17678 -0.35355,0z" fill="#000000" stroke="none" stroke-width="0.5"/><path d="M264.9054,309.99663c1.12802,1.10408 1.2063,4.61841 -0.37662,5.08038c-1.0557,0.30811 -1.12485,-1.31596 -1.11669,-1.856c-0.66637,-1.33274 -0.11207,-2.58263 0.81431,-3.45508l0.17068,-0.00757c0.05041,-0.01815 0.10122,-0.01444 0.13945,-0.00619l0.11888,-0.00527c0,0 0.24982,0 0.25,0.24973z" fill="#000000" stroke="none" stroke-width="0.5"/><path d="M231.72408,258.94192c0.37777,0.01664 0.749,0.06125 1.12855,0.15686c4.29888,0.03928 2.84421,5.19247 0.84131,7.23679c-1.04555,3.26788 -0.35262,6.26875 -0.73483,9.70868c-0.1896,1.6943 -2.57882,5.79879 -4.99764,5.3845c-1.18169,-0.20239 -0.02805,-1.37132 0.28801,-1.82095c0.03028,-0.56655 -1.40891,-1.14991 -1.90445,-1.51564c-1.28883,-0.9512 -5.17159,-4.68704 -3.17705,-6.36138c2.37826,-1.16449 7.61382,-2.64408 5.09891,-6.43532c-1.11915,-2.85725 -0.32304,-6.69856 3.22186,-6.69856c0,0 0.25,0 0.25,0.25c0,0.03683 -0.00542,0.06824 -0.01467,0.09501z" fill="#000000" stroke="none" stroke-width="0.5"/><path d="M221.07079,270.35513c-0.02489,0.24876 -0.27365,0.22387 -0.27365,0.22387l-0.15826,-0.01584c-3.29557,-0.34705 -3.0779,-3.23796 -2.23029,-5.77297c-0.0207,-2.94924 2.46624,-5.46382 2.50542,-8.02513c0.74855,-1.33192 1.15334,-3.10232 1.49804,-4.49227c0.09534,-0.38443 0.4294,-1.81238 1.04687,-1.45963c0.09712,0.05548 0.15858,0.11612 0.19505,0.17904c0.01584,-0.01272 0.03445,-0.02468 0.05625,-0.03558c0.22361,-0.11181 0.33541,0.11181 0.33541,0.11181c0.47941,0.99729 1.43995,2.95628 1.18637,4.16924c-0.30285,1.44871 -1.65998,1.2479 -1.65998,2.94257c0,1.54566 0.97663,4.80559 0.48097,6.09567c-0.39056,1.01654 -1.45092,1.97783 -2.22086,2.74778c-0.88896,0.88413 -1.59681,1.81503 -2.07705,2.84232c0.26513,0.09773 0.5745,0.16589 0.93358,0.19964l0.15826,0.01584c0,0 0.24876,0.02489 0.22387,0.27365zM223.65146,251.39364c-0.07855,0.21897 -0.19079,0.38822 0.18421,0.36832c-0.06546,-0.13518 -0.12777,-0.25907 -0.18421,-0.36832z" fill="#000000" stroke="none" stroke-width="0.5"/><path d="M237.16552,287.6868c0.17678,0.17677 0,0.35355 0,0.35355l-0.09344,-0.01011c0,0.10671 -0.00235,0.21267 -0.00648,0.31811c0.04863,0.08125 0.09264,0.15211 0.13116,0.20989c0,0 0.13867,0.20801 -0.06934,0.34669c-0.03591,0.02394 -0.06976,0.03755 -0.10118,0.04368c-0.04933,0.5757 -0.12083,1.14694 -0.12083,1.74831c0,2.84865 -0.43069,6.33913 -2.6857,8.42901c0.05832,1.23914 -0.80425,6.28965 -2.52532,6.65127c-0.68399,0.14371 -1.49302,-1.35078 -1.87859,-1.73843c-0.90729,-0.95901 -2.07412,-3.24385 -1.73724,-4.56511c0.38576,-1.51299 1.73837,-2.14855 0.79154,-3.89312c-0.85093,-3.31408 -0.09229,-5.9373 1.75257,-8.68224c0.77873,-1.12106 3.01902,-2.18537 4.4975,-1.41405c0.44807,0.23376 1.12658,1.4307 1.62181,2.30274l0.06998,-0.10019c0,0 0.17678,-0.17677 0.35355,0z" fill="#000000" stroke="none" stroke-width="0.5"/><path d="M249.81201,267.27013c0.0154,-0.0154 0.03079,-0.02811 0.04606,-0.03849c-0.06889,-1.00691 -0.11929,-2.0211 -0.11929,-3.03474c0,-2.6372 -0.49013,-6.14181 2.5001,-6.66462c-0.00003,-0.00069 -0.00007,-0.00137 -0.0001,-0.00205c0,0 0,-0.25 0.25,-0.25c0.17449,0 0.2272,0.12179 0.24312,0.19536c0.10562,-0.0064 0.21486,-0.00966 0.32788,-0.00966l0.25223,-0.27914c0,0 0.17678,-0.17677 0.35355,0c0.17678,0.17677 0,0.35355 0,0.35355l-0.41444,0.38753c-0.12501,0 -0.24501,0.00407 -0.3602,0.01205c0.37367,0.49651 1.32851,0.98741 1.71125,1.21377c1.57389,0.9308 3.8,1.81099 3.80328,3.87654c0,3.43838 0.40332,6.59973 0.77409,9.91861c0.28593,2.75745 0.31383,7.67875 -1.60772,9.8196c0.00266,1.06125 -1.09831,3.75994 -2.56255,2.63127c-0.73056,-0.56313 -1.9675,-3.26394 -2.40338,-4.07733c-1.49187,-2.23899 -1.61228,-5.24771 -2.36471,-7.92432c-0.00364,-0.55965 -0.02438,-1.12769 -0.05551,-1.70246c-0.00964,0.00084 -0.01971,0.00129 -0.03021,0.00129c-0.25,0 -0.25,-0.25 -0.25,-0.25c0,-1.18587 0,-2.37173 0,-3.55759c-0.00685,-0.09111 -0.01361,-0.1823 -0.02024,-0.27355l-0.0732,0.00792c0,0 -0.17678,-0.17677 0,-0.35355z" fill="#000000" stroke="none" stroke-width="0.5"/><path d="M268.40277,281.89088c-0.00948,-0.06006 0.00387,-0.13207 0.07587,-0.20408c0.17678,-0.17677 0.35356,0 0.35356,0l-0.01011,0.09344c3.2769,0.02131 3.35781,5.25489 4.40998,7.35923c0.04246,3.53886 -0.82664,6.57606 -0.82664,10.05744c0,2.72754 -1.75512,7.38159 -4.92823,5.6753c-0.58189,-1.29907 -2.69294,-2.31742 -3.22771,-4.10286c-0.38888,-1.29836 0.14299,-2.98293 0.16262,-4.29655c1.02643,-2.05288 1.68375,-6.45444 0.5197,-8.6641c-1.13248,-2.27806 0.56658,-6.08879 3.47096,-5.91783z" fill="#000000" stroke="none" stroke-width="0.5"/><path d="M229.22167,227.4505c-0.30317,-1.21268 0.90951,-1.51585 0.90951,-1.51585l0.54415,-0.10536c1.19743,-0.59014 2.15394,-1.37963 3.26564,-2.12203c0,0 1.04006,-0.69338 1.73344,0.34669c0.69338,1.04006 -0.34669,1.73344 -0.34669,1.73344c-1.20276,0.80037 -2.24135,1.62382 -3.53436,2.27797l-1.05585,0.29464c0,0 -1.21268,0.30317 -1.51585,-0.90951z" fill="#663f3f" stroke="none" stroke-width="0.5"/><path d="M224.28435,259.86733c0,1.25 -1.25,1.25 -1.25,1.25l-0.95902,-0.13197c-0.4,-0.2 -0.8,-0.4 -1.2,-0.6c0,0 -1.11803,-0.55902 -0.55902,-1.67705c0.55902,-1.11803 1.67705,-0.55902 1.67705,-0.55902c0.4,0.2 0.8,0.4 1.2,0.6l-0.15902,-0.13197c0,0 1.25,0 1.25,1.25z" fill="#663f3f" stroke="none" stroke-width="0.5"/><path d="M224.71826,254.35121c-0.88388,0.88388 -1.76777,0 -1.76777,0l-1.2,-1.2c0,0 -0.88388,-0.88388 0,-1.76777c0.88388,-0.88388 1.76777,0 1.76777,0l1.2,1.2c0,0 0.88388,0.88388 0,1.76777z" fill="#663f3f" stroke="none" stroke-width="0.5"/><path d="M222.95241,266.82635c-0.55902,1.11803 -1.67705,0.55902 -1.67705,0.55902l-1.26839,-0.6369c-0.55693,-0.40796 -1.28315,-0.66677 -1.97259,-0.63114c0,0 -1.25,0 -1.25,-1.25c0,-1.25 1.25,-1.25 1.25,-1.25c1.12271,0.03417 2.27476,0.37379 3.22741,0.96886l1.13161,0.5631c0,0 1.11803,0.55902 0.55902,1.67705z" fill="#663f3f" stroke="none" stroke-width="0.5"/><path d="M231.43442,279.71733c-0.38721,0 -0.65447,-0.11994 -0.83895,-0.28552c-0.36636,-0.04071 -0.73273,-0.08141 -1.09909,-0.12212c0,0 -0.02901,-0.00322 -0.07768,-0.01312l0.20157,0.57548c0,0 0.39528,1.18585 -0.79057,1.58114c-1.18585,0.39528 -1.58114,-0.79057 -1.58114,-0.79057l-0.44801,-1.39506c-0.00406,-0.40208 -0.00046,-0.79621 0.01025,-1.18391c-0.1809,0.1382 -0.4309,0.23369 -0.77639,0.23369c-1.25,0 -1.25,-1.25 -1.25,-1.25l0.06415,-1.19528c0.15398,-0.45386 0.3034,-0.90999 0.44927,-1.36798l-1.22243,-0.1187c-0.4,-0.2 -0.8,-0.4 -1.2,-0.6c0,0 -1.11803,-0.55902 -0.55902,-1.67705c0.55902,-1.11803 1.67705,-0.55902 1.67705,-0.55902c0.4,0.2 0.8,0.4 1.2,0.6l0.24098,-0.13197c0,0 0.28428,0 0.5817,0.13557c0.27711,-0.93941 0.54649,-1.88356 0.8164,-2.82897c0,0 0.33563,-1.1747 1.50459,-0.86963c0.1713,-0.78986 0.3081,-1.57403 0.43915,-2.35332c-0.09533,-0.02523 -0.19561,-0.06299 -0.30085,-0.11561c-1.11803,-0.55902 -0.55902,-1.67705 -0.55902,-1.67705c0.22183,-0.4409 0.39605,-0.88417 0.54747,-1.3285c-0.40344,-0.20733 -0.67944,-0.62768 -0.67944,-1.11248c0,-0.69036 0.55964,-1.25 1.25,-1.25c0.05208,0 0.10341,0.00318 0.15382,0.00937c0.14724,-0.44115 0.31517,-0.88105 0.52815,-1.31839l-0.13197,-0.24098c0,0 0,-1.25 1.25,-1.25c0.45464,0 0.74392,0.16536 0.92799,0.37579c0.18563,-0.00475 0.39598,0.03865 0.63103,0.15618c0.17506,0.08753 0.309,0.18877 0.41042,0.29727c0.10426,-0.58506 0.61554,-1.02923 1.23057,-1.02923c0.60483,0 1.10932,0.42956 1.22505,1.00025c0.6788,0.01334 1.22495,0.56777 1.22495,1.24975c0,0.69036 -0.55964,1.25 -1.25,1.25c-0.60483,0 -1.10932,-0.42956 -1.22505,-1.00025c-0.37954,-0.00746 -0.71762,-0.18408 -0.94194,-0.45759c-0.04015,0.21719 -0.11498,0.36685 -0.11498,0.36685c-0.40716,0.80924 -0.70865,1.6254 -0.9451,2.44785c0.91363,0.27279 1.80053,0.66578 2.61689,1.16176c0.34967,0.05707 1.06018,0.28897 1.06018,1.23137c0,1.25 -1.25,1.25 -1.25,1.25l-0.89338,-0.20994c-0.63343,-0.43332 -1.3443,-0.76988 -2.08103,-0.98987c-0.19365,1.09296 -0.34421,2.19568 -0.54302,3.30675c0.07493,0.04717 0.11766,0.08278 0.11766,0.08278c0.4,0.33333 0.8,0.66667 1.2,1l0.19505,-0.02558c0,0 1.18585,0.39528 0.79057,1.58114c-0.39528,1.18585 -1.58114,0.79057 -1.58114,0.79057l-1.00495,-0.42558c-0.1004,-0.08366 -0.2008,-0.16733 -0.30119,-0.25099c-0.16643,0.75585 -0.32172,1.49018 -0.4595,2.22093c0.08971,0.05205 0.14179,0.0937 0.14179,0.0937c0.53006,0.4402 1.15683,0.78452 1.81442,0.99023l0.80472,-0.06415c0,0 1.25,0 1.25,1.25c0,1.25 -1.25,1.25 -1.25,1.25l-1.59528,-0.06415c-0.54756,-0.19051 -1.08009,-0.43731 -1.58389,-0.73173c-0.03458,0.30542 -0.06495,0.61394 -0.09067,0.92675c0.22929,-0.04307 0.40788,-0.02323 0.40788,-0.02323c0.6,0.06667 1.2,0.13333 1.8,0.2l1.11196,1.44235c0,0 0,1.25 -1.25,1.25z" fill="#663f3f" stroke="none" stroke-width="0.5"/><path d="M237.83628,290.52393c0.3434,1.2019 -0.8585,1.54531 -0.8585,1.54531l-1.57002,0.43601c-1.76128,0.01353 -3.15509,-0.00437 -4.87655,-0.42524c0,0 -0.03017,-0.00754 -0.0798,-0.025c-0.05226,0.17658 -0.10937,0.35159 -0.17208,0.52458l0.19249,1.11097c0,0 0.07316,0.51211 -0.20409,0.9245c1.45625,-0.036 2.75963,0.41811 4.36666,0.40228h1c0,0 1.25,0 1.25,1.25c0,1.25 -1.25,1.25 -1.25,1.25h-1c-1.76417,-0.01355 -3.41445,-0.85657 -5.08889,-0.30457c0.36518,0.27152 0.4908,0.71116 0.4908,0.71116c0.12051,0.43394 0.21813,0.87612 0.29114,1.32249c1.5869,0.22055 3.03012,0.22195 4.61013,0.60824l0.8,0.2c0,0 1.21268,0.30317 0.90951,1.51585c-0.30317,1.21268 -1.51585,0.90951 -1.51585,0.90951l-0.8,-0.2c-1.32252,-0.33944 -2.56721,-0.35894 -3.88962,-0.50293c-0.08899,0.37018 -0.36307,0.94025 -1.20722,0.94025c-1.25,0 -1.25,-1.25 -1.25,-1.25v-0.4c0.00815,-0.82719 -0.11717,-1.66338 -0.3519,-2.4566c0,0 -0.30869,-1.08042 0.68364,-1.48521c-0.18846,-0.1279 -0.35826,-0.33493 -0.46759,-0.66291c-0.31808,-0.95424 0.38767,-1.39658 0.67548,-1.53296c-0.44484,-0.30998 -0.52706,-0.88555 -0.52706,-0.88555l-0.20751,-1.68903c0.27098,-0.86973 0.48218,-1.76222 0.60751,-2.66452c0,0 0.17678,-1.23744 1.41421,-1.06066c0.75877,0.1084 0.98581,0.61559 1.04793,0.99175c0.16554,0.00477 0.27847,0.033 0.27847,0.033c1.3944,0.35789 2.4972,0.36071 3.92345,0.37476l1.22998,-0.36399c0,0 1.2019,-0.3434 1.54531,0.8585z" fill="#663f3f" stroke="none" stroke-width="0.5"/><path d="M236.07473,286.11229c0.15504,1.24035 -1.0853,1.39539 -1.0853,1.39539l-1.6,0.2c0,0 -1.24035,0.15504 -1.39539,-1.0853c-0.15504,-1.24035 1.0853,-1.39539 1.0853,-1.39539l1.6,-0.2c0,0 1.24035,-0.15504 1.39539,1.0853z" fill="#663f3f" stroke="none" stroke-width="0.5"/><path d="M249.35052,269.75121c-0.88388,-0.88388 0,-1.76777 0,-1.76777l0.3078,-0.29699c1.4801,-1.83315 3.42498,-3.12616 4.73602,-5.11251c0,0 0.12275,-0.18413 0.34244,-0.34579c-0.24072,-0.29785 -0.49919,-0.59069 -0.78626,-0.87695c0,0 -0.37019,-0.37019 -0.39185,-0.87099c-0.90392,0.3972 -1.74658,0.70147 -2.5434,1.3632l-0.49699,0.5078c0,0 -0.88388,0.88388 -1.76777,0c-0.88388,-0.88388 0,-1.76777 0,-1.76777l0.70301,-0.6922c1.18271,-0.92131 2.29918,-1.27646 3.62185,-1.94195c0,0 1.11803,-0.55902 1.67705,0.55902c0.12959,0.25917 0.16905,0.48831 0.15322,0.6874c0.47094,0.04604 0.81263,0.38773 0.81263,0.38773c1.34741,1.35089 2.11874,2.85425 3.2922,4.30301l0.44964,1.53572c0,0 0.24515,1.22573 -0.98058,1.47087c-1.22573,0.24515 -1.47087,-0.98058 -1.47087,-0.98058l0.04964,-0.46428c-0.29987,-0.37864 -0.57065,-0.75796 -0.83143,-1.13517c-1.36012,1.85506 -3.19806,3.1422 -4.6164,4.93517l-0.4922,0.50301c0,0 -0.88388,0.88388 -1.76777,0z" fill="#663f3f" stroke="none" stroke-width="0.5"/><path d="M251.23411,276.82761c-0.96028,-0.80023 -0.16005,-1.76051 -0.16005,-1.76051l0.99205,-1.19036c1.4476,-1.78962 4.67863,-3.24531 5.16632,-5.35281c0,0 0.3434,-1.2019 1.54531,-0.8585c1.2019,0.3434 0.8585,1.54531 0.8585,1.54531c-0.93107,2.91998 -3.77942,3.89792 -5.63368,6.24719l-1.00795,1.20964c0,0 -0.80023,0.96028 -1.76051,0.16005z" fill="#663f3f" stroke="none" stroke-width="0.5"/><path d="M252.55047,283.35121c-0.88388,-0.88388 0,-1.76777 0,-1.76777l0.30301,-0.2922c1.8499,-1.46503 3.08773,-2.70231 4.60478,-4.60478c0,0 0.78087,-0.97609 1.75695,-0.19522c0.97609,0.78087 0.19522,1.75695 0.19522,1.75695c-1.60896,2.00537 -3.03824,3.41011 -4.99522,4.99522l-0.09699,0.1078c0,0 -0.88388,0.88388 -1.76777,0z" fill="#663f3f" stroke="none" stroke-width="0.5"/><path d="M272.43438,293.21733c0.69036,0 1.25,0.55964 1.25,1.25c0,0.69036 -0.55964,1.25 -1.25,1.25c-0.04335,0 -0.08619,-0.00221 -0.12841,-0.00652l-1.11257,1.47455c-0.51287,0.25503 -1.06479,0.44576 -1.62082,0.62614c-0.00477,0.43248 -0.01213,0.86555 -0.02086,1.2991c0.62913,-0.20971 1.25826,-0.41942 1.88739,-0.62913l0.99528,-0.06415c0,0 1.25,0 1.25,1.25c0,1.25 -1.25,1.25 -1.25,1.25l-0.20472,-0.06415c-0.8,0.26667 -1.6,0.53333 -2.4,0.8c0,0 -0.1387,0.04623 -0.33705,0.05964c-0.00972,0.45125 -0.0183,0.90273 -0.02437,1.35428l0.35199,1.00494c0,0 0.39528,1.18585 -0.79057,1.58114c-1.18585,0.39528 -1.58114,-0.79057 -1.58114,-0.79057l-0.18197,-0.56663c-0.01815,0.00317 -0.03661,0.0061 -0.0554,0.00878c-1.23744,0.17678 -1.41421,-1.06066 -1.41421,-1.06066c-0.13646,-0.96971 -0.13509,-1.88699 -0.05836,-2.77603c-0.15723,0.17186 -0.27211,0.368 -0.31835,0.59454c0,0 -0.39528,1.18585 -1.58114,0.79057c-1.18585,-0.39528 -0.79057,-1.58114 -0.79057,-1.58114c0.27141,-0.68692 0.75478,-1.27487 1.33148,-1.77555c-0.1301,-0.59109 0.29369,-1.04054 0.43161,-1.16842c-0.0085,-0.04004 -0.01508,-0.08079 -0.01964,-0.12215l-0.18644,-1.49154c-0.92672,-2.79197 -1.04568,-5.92614 -0.24382,-8.7169l-0.00799,-0.05596l-0.35677,-0.05097l0.1974,-1.38181c0.04912,-0.38795 0.27605,-0.72046 0.59656,-0.91329c-0.05326,-0.37558 0.01457,-0.91122 0.68446,-1.24616c1.11803,-0.55902 1.67705,0.55902 1.67705,0.55902c0.32796,0.65954 0.61303,1.32455 0.86056,1.99447c0.68824,-0.69717 1.51565,-1.28748 2.42612,-1.6213l-0.0886,-0.09803c0,0 0.88388,-0.88388 1.76777,0c0.88388,0.88388 0,1.76777 0,1.76777l-0.8886,0.70197c-0.65427,0.18115 -1.2211,0.67626 -1.63501,1.21438c0,0 -0.34003,0.40803 -0.84276,0.4705c0.14069,0.58063 0.25874,1.16432 0.35745,1.75072c0.75327,-0.56877 1.56451,-0.96885 2.53521,-1.52354l1.23081,-0.61594c0,0 1.11803,-0.55902 1.67705,0.55902c0.55902,1.11803 -0.55902,1.67705 -0.55902,1.67705l-1.16919,0.58406c-1.18964,0.67979 -2.19773,0.99642 -3.01374,2.07878c0,0 -0.12828,0.16035 -0.34585,0.29908c0.04771,0.67864 0.07767,1.36001 0.0948,2.04357c0.17221,-0.07516 0.34427,-0.15517 0.51594,-0.24154l0.08715,-0.52509c0,0 0.44537,-0.74228 1.21257,-0.62081c0.22112,-0.35206 0.61288,-0.58607 1.0593,-0.58607z" fill="#663f3f" stroke="none" stroke-width="0.5"/><path d="M275.88435,216.80733c0,1.25 -1.25,1.25 -1.25,1.25l-0.77678,-0.01256c-0.80607,-0.12352 -1.64037,-0.12352 -2.44645,0c0,0 -0.07459,0.01066 -0.18975,0.00842c-0.30609,1.46558 -0.52608,2.93276 -0.70474,4.40426c0.18319,0.08147 0.29859,0.17379 0.29859,0.17379c0.80066,0.91468 1.76704,0.09109 2.87573,-0.22582l0.7434,-0.0481c0,0 1.25,0 1.25,1.25c0,1.25 -1.25,1.25 -1.25,1.25l-0.0566,-0.0481c-1.82939,0.52245 -2.76988,0.96084 -4.15126,0.33804c-0.1176,1.19895 -0.22591,2.40182 -0.34884,3.61006c0.3189,0 0.6378,0 0.9567,0h0.4c0,0 1.25,0 1.25,1.25c0,1.25 -1.25,1.25 -1.25,1.25c-0.41711,0 -1.15376,0 -1.63874,0c-0.03915,0.30851 -0.08029,0.61743 -0.12383,0.92679l-0.22476,0.92639c0,0 -0.30317,1.21268 -1.51585,0.90951c-1.21268,-0.30317 -0.90951,-1.51585 -0.90951,-1.51585l0.17524,-0.67361c0.0472,-0.32488 0.09172,-0.64927 0.13401,-0.97322c-0.23219,0 -0.46438,0 -0.69657,0l-0.20472,0.13585c0,0 -1.18585,0.39528 -1.58114,-0.79057h0.00001c-0.39528,-1.18585 0.79057,-1.58114 0.79057,-1.58114l0.99528,-0.26415c0.32898,0 0.65795,0 0.98693,0c0.47576,-4.54538 0.73249,-9.01604 2.01117,-13.4934c0,0 0.3434,-1.2019 1.54531,-0.8585c1.04012,0.29718 0.92295,1.2373 0.87256,1.485c0.78698,-0.05204 1.5818,-0.02556 2.36081,0.07946l0.42322,-0.01256c0,0 1.25,0 1.25,1.25z" fill="#663f3f" stroke="none" stroke-width="0.5"/><path d="M275.68438,210.00733c0,1.25 -1.25,1.25 -1.25,1.25c-0.46667,0 -1.13333,0 -1.6,0c0,0 -1.25,0 -1.25,-1.25c0,-1.25 1.25,-1.25 1.25,-1.25c0.46667,0 0.93333,0 1.4,0h0.2c0,0 1.25,0 1.25,1.25z" fill="#663f3f" stroke="none" stroke-width="0.5"/><path d="M205.94543,239.34539c-0.27488,4.18835 -3.40482,3.8541 -6.51771,3.49067c-3.11289,-0.36343 -5.32969,-0.64894 -4.75506,-4.80678c0.68674,-4.96905 3.00482,-6.2541 6.11771,-5.89067c3.11289,0.36343 5.4418,2.83774 5.15506,7.20678z" fill="#063800" stroke="#000000" stroke-width="0"/><path d="M267.09835,235.48353c3.12952,-0.16815 5.36274,1.2593 5.73754,6.26155c0.31361,4.18563 -1.91669,4.33201 -5.04621,4.50016c-3.12952,0.16815 -6.27423,0.3061 -6.28677,-3.89125c-0.01308,-4.37842 2.46593,-6.70232 5.59545,-6.87047z" data-paper-data="{&quot;index&quot;:null}" fill="#063800" stroke="#000000" stroke-width="0"/><path d="M195.8344,250.93733c-1.25,0 -1.25,-1.25 -1.25,-1.25l0.06415,-1.59528c0.76642,-2.26611 0.27458,-4.54111 1,-6.8c0,0 0.39528,-1.18585 1.58114,-0.79057c1.18585,0.39528 0.79057,1.58114 0.79057,1.58114c-0.76292,2.17813 -0.25264,4.53022 -1,6.8l0.06415,0.80472c0,0 0,1.25 -1.25,1.25z" fill="#063800" stroke="none" stroke-width="0.5"/><path d="M201.73752,251.70001c-1.21268,0.30317 -1.51585,-0.90951 -1.51585,-0.90951l-0.23732,-1.10317c0,-2.5034 0.05743,-4.98342 -0.1938,-7.47562c0,0 -0.12438,-1.2438 1.11942,-1.36818c1.2438,-0.12438 1.36818,1.11942 1.36818,1.11942c0.25575,2.57698 0.2062,5.1366 0.2062,7.72438l0.16268,0.49683c0,0 0.30317,1.21268 -0.90951,1.51585z" fill="#063800" stroke="none" stroke-width="0.5"/><path d="M207.33753,250.10001c-1.21268,0.30317 -1.51585,-0.90951 -1.51585,-0.90951l-0.4,-1.6c-0.49304,-2.01666 -0.24063,-3.2892 -1.56341,-4.9223c0,0 -0.78087,-0.97609 0.19522,-1.75695c0.97609,-0.78087 1.75695,0.19522 1.75695,0.19522c1.5848,2.00113 1.43598,3.53759 2.03659,5.8777l0.4,1.6c0,0 0.30317,1.21268 -0.90951,1.51585z" fill="#063800" stroke="none" stroke-width="0.5"/><path d="M191.63436,245.93733c-1.25,0 -1.25,-1.25 -1.25,-1.25v-0.4c0.02189,-3.62879 1.13765,-5.9 3.84977,-8.16028c0,0 0.96028,-0.80023 1.76051,0.16005c0.80023,0.96028 -0.16005,1.76051 -0.16005,1.76051c-2.12875,1.77381 -2.97229,3.3024 -2.95023,6.23972v0.4c0,0 0,1.25 -1.25,1.25z" fill="#063800" stroke="none" stroke-width="0.5"/><path d="M274.41306,246.88734v-0.4c0.02206,-2.93732 -0.82148,-4.46591 -2.95023,-6.23972c0,0 -0.96028,-0.80024 -0.16005,-1.76051c0.80023,-0.96027 1.76051,-0.16004 1.76051,-0.16004c2.71211,2.26028 3.82788,4.53149 3.84977,8.16028v0.4c0,0 0,1.25 -1.25,1.25c-1.25,0 -1.25,-1.25 -1.25,-1.25z" data-paper-data="{&quot;index&quot;:null}" fill="#063800" stroke="none" stroke-width="0.5"/><path d="M270.58347,252.68733l0.06414,-0.80472c-0.74736,-2.26978 -0.23708,-4.62187 -1,-6.8c0,0 -0.39529,-1.18586 0.79057,-1.58114c1.18586,-0.39529 1.58114,0.79057 1.58114,0.79057c0.72541,2.25889 0.23358,4.5339 1,6.8l0.06414,1.59528c0,0 0,1.25 -1.25,1.25c-1.25,0 -1.25,-1.25 -1.25,-1.25z" data-paper-data="{&quot;index&quot;:null}" fill="#063800" stroke="none" stroke-width="0.5"/><path d="M265.62077,253.78417l0.16268,-0.49683c0,-2.58778 -0.04954,-5.1474 0.20621,-7.72438c0,0 0.12438,-1.2438 1.36817,-1.11942c1.24379,0.12438 1.11942,1.36818 1.11942,1.36818c-0.25122,2.4922 -0.19379,4.97222 -0.19379,7.47562l-0.23732,1.10316c0,0 -0.30317,1.21268 -1.51585,0.90951c-1.21268,-0.30317 -0.90951,-1.51585 -0.90951,-1.51585z" data-paper-data="{&quot;index&quot;:null}" fill="#063800" stroke="none" stroke-width="0.5"/><path d="M260.79625,251.78417l0.4,-1.6c0.60062,-2.34011 0.4518,-3.87658 2.03659,-5.8777c0,0 0.78087,-0.97609 1.75696,-0.19522c0.97609,0.78087 0.19522,1.75696 0.19522,1.75696c-1.32277,1.6331 -1.07036,2.90564 -1.5634,4.9223l-0.4,1.6c0,0 -0.30317,1.21268 -1.51585,0.90951c-1.21268,-0.30317 -0.90951,-1.51585 -0.90951,-1.51585z" data-paper-data="{&quot;index&quot;:null}" fill="#063800" stroke="none" stroke-width="0.5"/><path d="M204.43442,237.91141c0,2.3063 -1.83563,4.17593 -4.1,4.17593c-2.26437,0 -4.1,-1.86963 -4.1,-4.17593c0,-2.3063 1.83563,-4.17593 4.1,-4.17593c2.26437,0 4.1,1.86963 4.1,4.17593z" fill="#109d00" stroke="#000000" stroke-width="0"/><path d="M271.03434,241.31141c0,2.3063 -1.83563,4.17593 -4.1,4.17593c-2.26436,0 -4.1,-1.86963 -4.1,-4.17593c0,-2.3063 1.83564,-4.17593 4.1,-4.17593c2.26436,0 4.1,1.86963 4.1,4.17593z" fill="#109d00" stroke="#000000" stroke-width="0"/><g stroke="none" stroke-width="0.5"><path d="M198.20582,229.53125c-0.17678,0.17678 -0.35355,0 -0.35355,0l-0.24683,-0.26497c-0.58048,-1.26967 -1.36851,-3.03459 -0.5987,-4.62617c1.10731,-1.99979 2.62996,-3.19058 3.37899,-5.54307c0.14144,-0.44422 -0.80669,-2.2764 -0.80669,-3.04256c0,-4.22794 4.29344,-3.01174 5.67361,-0.4118c0,0 0.1118,0.22361 -0.1118,0.33541c-0.22361,0.1118 -0.33541,-0.1118 -0.33541,-0.1118c-1.05685,-2.31163 -4.72639,-3.3754 -4.72639,0.1882c0,1.01527 0.95985,2.34856 0.79331,3.15744c-0.51642,2.5082 -2.41228,3.62284 -3.42101,5.65693c-0.71875,1.3776 0.04494,3.12578 0.6013,4.17383l0.15317,0.13503c0,0 0.17678,0.17678 0,0.35355z" fill="#04ff00"/><path d="M197.2102,231.07538c-0.1209,-0.21882 0.09792,-0.33972 0.09792,-0.33972l0.14633,-0.08085c0.67494,-0.37252 1.32404,-0.81274 2.05493,-1.0535c2.19799,-1.44975 0.39312,-4.55029 -0.3065,-6.06656c-0.35768,-0.77518 -0.22386,-2.22801 -0.22386,-3.08027c0,-1.79811 1.07382,-3.63002 2.88583,-4.14162c0.99423,-0.28071 2.53292,0.62778 3.25236,0.21802c0,0 0.22361,-0.1118 0.33541,0.1118c0.1118,0.22361 -0.1118,0.33541 -0.1118,0.33541c-0.97359,0.44487 -2.20263,-0.4586 -3.34764,-0.18198c-1.61203,0.38944 -2.51417,2.12172 -2.51417,3.65838c0,2.74438 3.32916,7.48066 0.25071,9.59566c-0.72389,0.23887 -1.36544,0.67285 -2.03348,1.04232l-0.14633,0.08085c0,0 -0.21882,0.1209 -0.33972,-0.09792z" fill="#1c00ff"/><path d="M198.22113,231.65452c-0.16005,0.19206 -0.3521,0.03201 -0.3521,0.03201l-0.21589,-0.17991c-0.15015,-0.13537 -0.30031,-0.27074 -0.45046,-0.40611c-0.05584,-1.43597 0.19074,-5.09294 1.30891,-6.15298c1.01048,-0.95794 2.13094,-1.01623 3.01749,-2.20306c0.64746,-0.81061 0.17726,-2.07604 -0.292,-2.87625c-1.21679,-2.07491 -2.25875,-3.63817 -2.25755,-6.07499c0.05806,-1.45283 2.42607,-1.80482 3.5999,-1.27971c1.7038,0.7622 2.05427,2.31931 2.68178,3.8881c0,0 0.09285,0.23212 -0.13927,0.32497c-0.23212,0.09285 -0.32497,-0.13927 -0.32497,-0.13927c-0.59486,-1.48715 -0.84709,-2.87629 -2.42533,-3.61901c-0.73439,-0.34561 -2.95204,-0.21463 -2.89211,0.82542c-0.00131,2.67071 4.17198,6.84495 2.44956,9.25074c-0.90938,1.20718 -2.06104,1.30402 -3.06949,2.26209c-1.01723,0.96641 -1.12535,4.26998 -1.20411,5.58187c0.10592,0.07803 0.21184,0.15605 0.31776,0.23408l0.21589,0.17991c0,0 0.19206,0.16005 0.03201,0.3521z" fill="#000000"/><path d="M199.05225,232.17125c-0.17678,-0.17677 0,-0.35355 0,-0.35355l0.09289,-0.09289c1.17177,-1.17177 1.01747,-2.08971 1.04027,-3.67419c-1.42948,-2.87213 -1.55701,-6.82968 0.08931,-9.86161c0.8598,-3.2551 4.98148,-4.93336 5.79944,-0.84356c0,0 0.04903,0.24514 -0.19612,0.29417c-0.24514,0.04903 -0.29417,-0.19611 -0.29417,-0.19611c-0.7179,-3.58954 -4.18312,-1.89603 -4.84309,0.92657c-1.63167,3.02358 -1.43002,6.71244 -0.06815,9.56825c0.01995,1.73712 0.11652,2.84957 -1.17394,4.14003l-0.09289,0.09289c0,0 -0.17678,0.17677 -0.35356,0z" fill="#420000"/></g><g stroke="none" stroke-width="0.5"><path d="M212.87247,279.19792c-0.17678,0.17678 -0.35355,0 -0.35355,0l-0.24683,-0.26497c-0.58048,-1.26967 -1.36851,-3.03459 -0.5987,-4.62617c1.10731,-1.99979 2.62996,-3.19058 3.37899,-5.54307c0.14144,-0.44422 -0.80669,-2.2764 -0.80669,-3.04256c0,-4.22794 4.29344,-3.01174 5.67361,-0.4118c0,0 0.1118,0.22361 -0.1118,0.33541c-0.22361,0.1118 -0.33541,-0.1118 -0.33541,-0.1118c-1.05685,-2.31163 -4.72639,-3.3754 -4.72639,0.1882c0,1.01527 0.95985,2.34856 0.79331,3.15744c-0.51642,2.5082 -2.41228,3.62284 -3.42101,5.65693c-0.71875,1.3776 0.04494,3.12578 0.6013,4.17383l0.15317,0.13503c0,0 0.17678,0.17678 0,0.35355z" fill="#04ff00"/><path d="M211.87685,280.74205c-0.1209,-0.21882 0.09792,-0.33972 0.09792,-0.33972l0.14633,-0.08085c0.67494,-0.37252 1.32404,-0.81274 2.05493,-1.0535c2.19799,-1.44975 0.39312,-4.55029 -0.3065,-6.06656c-0.35768,-0.77518 -0.22386,-2.22801 -0.22386,-3.08027c0,-1.79811 1.07382,-3.63002 2.88583,-4.14162c0.99423,-0.28071 2.53292,0.62778 3.25236,0.21802c0,0 0.22361,-0.1118 0.33541,0.1118c0.1118,0.22361 -0.1118,0.33541 -0.1118,0.33541c-0.97359,0.44487 -2.20263,-0.4586 -3.34764,-0.18198c-1.61203,0.38944 -2.51417,2.12172 -2.51417,3.65838c0,2.74438 3.32916,7.48066 0.25071,9.59566c-0.72389,0.23887 -1.36544,0.67285 -2.03348,1.04232l-0.14633,0.08085c0,0 -0.21882,0.1209 -0.33972,-0.09792z" fill="#1c00ff"/><path d="M212.88776,281.32119c-0.16005,0.19206 -0.3521,0.03201 -0.3521,0.03201l-0.21589,-0.17991c-0.15015,-0.13537 -0.30031,-0.27074 -0.45046,-0.40611c-0.05584,-1.43597 0.19074,-5.09294 1.30891,-6.15298c1.01048,-0.95794 2.13094,-1.01623 3.01749,-2.20306c0.64746,-0.81061 0.17726,-2.07604 -0.292,-2.87625c-1.21679,-2.07491 -2.25875,-3.63817 -2.25755,-6.07499c0.05806,-1.45283 2.42607,-1.80482 3.5999,-1.27971c1.7038,0.7622 2.05427,2.31931 2.68178,3.8881c0,0 0.09285,0.23212 -0.13927,0.32497c-0.23212,0.09285 -0.32497,-0.13927 -0.32497,-0.13927c-0.59486,-1.48715 -0.84709,-2.87629 -2.42533,-3.61901c-0.73439,-0.34561 -2.95204,-0.21463 -2.89211,0.82542c-0.00131,2.67071 4.17198,6.84495 2.44956,9.25074c-0.90938,1.20718 -2.06104,1.30402 -3.06949,2.26209c-1.01723,0.96641 -1.12535,4.26998 -1.20411,5.58187c0.10592,0.07803 0.21184,0.15605 0.31776,0.23408l0.21589,0.17991c0,0 0.19206,0.16005 0.03201,0.3521z" fill="#000000"/><path d="M213.71889,281.83792c-0.17678,-0.17677 0,-0.35355 0,-0.35355l0.09289,-0.09289c1.17177,-1.17177 1.01747,-2.08971 1.04027,-3.67419c-1.42948,-2.87213 -1.55701,-6.82968 0.08931,-9.86161c0.8598,-3.2551 4.98148,-4.93336 5.79944,-0.84356c0,0 0.04903,0.24514 -0.19612,0.29417c-0.24514,0.04903 -0.29417,-0.19611 -0.29417,-0.19611c-0.7179,-3.58954 -4.18312,-1.89603 -4.84309,0.92657c-1.63167,3.02358 -1.43002,6.71244 -0.06815,9.56825c0.01995,1.73712 0.11652,2.84957 -1.17394,4.14003l-0.09289,0.09289c0,0 -0.17678,0.17677 -0.35356,0z" fill="#420000"/></g><g><g data-paper-data="{&quot;index&quot;:null}" fill="#663f3f" stroke="#000000" stroke-width="0.5"><path d="M258.40702,180.84371l-2.06624,-2.64814l5.6746,-4.42767l2.06625,2.64814z"/><path d="M256.89804,184.75991l-2.06624,-2.64814l5.67458,-4.42766l2.06626,2.64813z"/><path d="M260.13527,175.84344l-2.06624,-2.64812l5.6746,-4.42767l2.06624,2.64814z"/><path d="M263.16087,179.72113l-2.06625,-2.64816l5.6746,-4.42768l2.06624,2.64814z"/><path d="M253.79867,180.78771l-2.06624,-2.64814l5.67459,-4.42769l2.06625,2.64816z"/><path d="M263.34704,184.44484l-8.56018,-10.97089l3.02645,-2.36144l8.56018,10.97088z"/></g><g data-paper-data="{&quot;index&quot;:null}" fill="#663f3f" stroke="#000000" stroke-width="0.5"><path d="M217.95834,174.04646l2.78827,-1.87284l4.01325,5.97488l-2.78827,1.87285z"/><path d="M218.17251,178.23787l2.78829,-1.87284l4.01324,5.97487l-2.78827,1.87285z"/><path d="M217.87353,168.75665l2.78827,-1.87285l4.01324,5.97488l-2.78826,1.87284z"/><path d="M213.79062,171.49904l2.78827,-1.87285l4.01324,5.97488l-2.78828,1.87286z"/><path d="M222.35492,175.4286l2.78828,-1.87286l4.01324,5.97489l-2.78827,1.87285z"/><path d="M214.01527,178.71807l11.55144,-7.75894l2.14039,3.18661l-11.55144,7.75895z"/></g><g data-paper-data="{&quot;index&quot;:null}" fill="#663f3f" stroke="#000000" stroke-width="0.5"><path d="M271.02167,92.39559l1.13806,-1.80658l3.87125,2.4387l-1.13806,1.80658z"/><path d="M272.22569,94.77631l1.13807,-1.80658l3.87124,2.43869l-1.13806,1.80658z"/><path d="M269.6099,89.34323l1.13806,-1.80658l3.87124,2.4387l-1.13806,1.80657z"/><path d="M267.94345,91.98858l1.13806,-1.80658l3.87125,2.4387l-1.13806,1.80658z"/><path d="M273.93278,92.06645l1.13806,-1.80658l3.87124,2.4387l-1.13806,1.80658z"/><path d="M269.93336,96.12614l4.71481,-7.48442l2.06466,1.30064l-4.71481,7.48441z"/></g><g fill="#663f3f" stroke="#000000" stroke-width="0.5"><path d="M220.99262,95.83429l-1.13806,-1.80658l3.87125,-2.4387l1.13806,1.80658z"/><path d="M219.78864,98.21501l-1.13806,-1.80658l3.87125,-2.43869l1.13806,1.80658z"/><path d="M222.40442,92.78192l-1.13806,-1.80657l3.87124,-2.4387l1.13806,1.80658z"/><path d="M224.07088,95.42728l-1.13806,-1.80658l3.87125,-2.4387l1.13806,1.80658z"/><path d="M218.08153,95.50514l-1.13806,-1.80658l3.87124,-2.4387l1.13806,1.80658z"/><path d="M223.88751,98.42678l-4.71481,-7.48441l2.06466,-1.30064l4.71482,7.48442z"/></g><g fill="#663f3f" stroke="#000000" stroke-width="0.5"><path d="M236.61423,158.08899l0.41296,-4.8522l10.39758,0.88492l-0.41296,4.8522z"/><path d="M231.14995,160.7658l0.41296,-4.8522l10.39758,0.88492l-0.41295,4.8522z"/><path d="M243.38006,154.47564l0.41295,-4.8522l10.39758,0.88492l-0.41296,4.8522z"/><path d="M242.77539,161.58067l0.41296,-4.85221l10.39758,0.88492l-0.41295,4.85221z"/><path d="M231.76939,153.4875l0.41296,-4.8522l10.39758,0.88491l-0.41296,4.85221z"/><path d="M238.31765,166.78683l1.71084,-20.102l5.54538,0.47195l-1.71084,20.102z"/></g><path d="M284.99956,119.71484c0,18.2254 -16.3367,33 -35.66667,33c-12.58653,0 -21.72746,-4.0911 -26.51367,-14.14752c-0.85408,-1.79452 1.01227,-7.97434 0.24056,-9.8342c-1.54528,-3.7242 -7.7269,-2.11117 -7.7269,-6.35161c0,-7.90829 -0.90455,-15.29654 3.80187,-22.25924c6.13997,-9.08351 19.25574,-16.74075 30.19813,-16.74075c19.32997,0 35.66667,18.10794 35.66667,36.33333z" fill="#063800" stroke="#929292" stroke-width="1"/><path d="M257.99922,186.00731c0.15231,25.49669 -2.43989,58.10091 -16.39056,58.6067c-14.26101,0.51704 -15.45648,-31.2283 -15.60879,-56.72498c-0.15231,-25.49669 5.11628,-30.21398 15.05723,-30.27336c9.94095,-0.05939 16.78982,2.89496 16.94213,28.39165z" fill="#063800" stroke="#929292" stroke-width="1"/><path d="M215.16248,211.03333c-3.56796,14.88333 -8.02009,19.92875 -12.82242,18.67063c-4.80233,-1.25812 -7.80298,-7.67667 -4.23502,-22.56c1.88826,-7.87668 6.57119,-20.21231 10.01833,-26.44235c3.06638,-5.5419 4.87662,-5.48724 7.13742,-4.89495c2.69619,0.70635 5.45858,1.03198 4.97728,9.07842c-0.37597,6.28546 -3.51081,19.62095 -5.07559,26.14825z" fill="#063800" stroke="#929292" stroke-width="1"/><path d="M259.39099,185.79024c1.16163,-7.97668 3.93261,-7.73495 6.71605,-7.87945c2.33396,-0.12116 4.11762,0.19268 5.99554,6.24153c2.11112,6.79995 4.19326,19.82923 4.44378,27.92521c0.47337,15.29771 -3.7674,20.97377 -8.72512,21.23114c-4.95772,0.25737 -8.29332,-5.58655 -8.76668,-20.88426c-0.2076,-6.70903 -0.57098,-20.4032 0.33642,-26.63417z" data-paper-data="{&quot;index&quot;:null}" fill="#063800" stroke="#929292" stroke-width="1"/><g data-paper-data="{&quot;index&quot;:null}" fill="#663f3f" stroke="#000000" stroke-width="0.5"><path d="M203.78891,74.38469l-1.75534,-1.2156l2.60487,-3.76144l1.75534,1.2156z"/><path d="M203.61493,77.04687l-1.75534,-1.2156l2.60487,-3.76144l1.75535,1.2156z"/><path d="M203.89063,71.02319l-1.75534,-1.2156l2.60487,-3.76144l1.75534,1.2156z"/><path d="M206.46101,72.80319l-1.75534,-1.2156l2.60487,-3.76145l1.75534,1.21561z"/><path d="M200.98187,75.22347l-1.75534,-1.2156l2.60487,-3.76145l1.75534,1.21561z"/><path d="M207.46853,75.63433l-7.27213,-5.03608l1.38927,-2.0061l7.27213,5.03607z"/></g><path d="M217.79016,77.80146c4.40371,6.19889 5.68946,12.84678 2.87178,14.84847c-2.81768,2.00169 -8.67178,-1.40082 -13.07549,-7.59971c-4.40371,-6.19889 -5.68946,-12.84677 -2.87178,-14.84846c2.81768,-2.00169 8.67178,1.40082 13.07549,7.59971z" fill="#063800" stroke="#000000" stroke-width="0.5"/><path d="M216.68648,78.81214c3.16332,4.45284 4.0869,9.22822 2.06288,10.66609c-2.02402,1.43787 -6.22918,-1.00625 -9.3925,-5.45909c-3.16332,-4.45284 -4.0869,-9.22821 -2.06288,-10.66608c2.02402,-1.43787 6.22919,1.00624 9.3925,5.45908z" fill="#0a6100" stroke="#000000" stroke-width="0.5"/><path d="M237.85499,113.33865c0,3.17564 -2.38781,5.75 -5.33333,5.75c-2.94552,0 -5.33333,-2.57436 -5.33333,-5.75c0,-3.17564 2.38781,-5.75 5.33333,-5.75c2.94552,0 5.33333,2.57436 5.33333,5.75z" fill="#000000" stroke="#000000" stroke-width="2"/><path d="M270.18827,116.00531c0,3.17564 -2.38781,5.75 -5.33333,5.75c-2.94552,0 -5.33333,-2.57437 -5.33333,-5.75c0,-3.17563 2.38781,-5.75 5.33333,-5.75c2.94552,0 5.33333,2.57437 5.33333,5.75z" fill="#000000" stroke="#000000" stroke-width="2"/><path d="M231.97956,112.4917c-0.88388,0.88388 -1.76777,0 -1.76777,0l-0.60142,-0.66371c-0.51116,-0.90184 -0.96843,-1.8429 -1.30055,-2.82489c0,0 -0.39528,-1.18585 0.79057,-1.58114c1.18585,-0.39528 1.58114,0.79057 1.58114,0.79057c0.27147,0.8291 0.66352,1.61942 1.09945,2.37511l0.19858,0.13629c0,0 0.88388,0.88388 0,1.76777z" fill="#663f3f" stroke="none" stroke-width="0.5"/><path d="M234.50041,113.59367c-1.18585,-0.39528 -0.79057,-1.58114 -0.79057,-1.58114l0.52254,-1.46188c0.65659,-0.68246 1.29679,-1.38327 1.88723,-2.1237c0,0 0.78087,-0.97609 1.75695,-0.19522c0.97609,0.78087 0.19522,1.75695 0.19522,1.75695c-0.52995,0.66051 -1.09841,1.29348 -1.71277,1.8763l-0.27746,0.93812c0,0 -0.39528,1.18585 -1.58114,0.79057z" fill="#663f3f" stroke="none" stroke-width="0.5"/><path d="M230.28246,115.32415c0.08231,-0.3688 0.34902,-0.96634 1.21326,-0.96634c1.25,0 1.25,1.25 1.25,1.25l-0.27391,0.98087c-0.86525,1.08156 -1.41879,1.61613 -1.77418,2.96253c0,0 -0.3434,1.2019 -1.54531,0.8585c-1.2019,-0.3434 -0.8585,-1.54531 -0.8585,-1.54531c0.46374,-1.53896 1.05845,-2.36977 1.98864,-3.54026z" fill="#663f3f" stroke="none" stroke-width="0.5"/><path d="M233.53668,114.48978c1.11803,-0.55902 1.67705,0.55902 1.67705,0.55902l0.05805,0.17815c0.98697,1.23372 0.95009,1.66084 2.52708,1.96819c0,0 1.21268,0.30317 0.90951,1.51585c-0.30317,1.21268 -1.51585,0.90951 -1.51585,0.90951c-2.15632,-0.61308 -2.5333,-1.15729 -3.87292,-2.83181l-0.34195,-0.62185c0,0 -0.55902,-1.11803 0.55902,-1.67705z" fill="#663f3f" stroke="none" stroke-width="0.5"/><path d="M235.0082,115.14179c-0.02446,0.13587 -0.05231,0.21943 -0.05231,0.21943l-2.41359,1.7068c-0.96445,-0.55599 -2.70829,-0.57024 -2.89335,-1.66798c-0.84374,-5.00487 2.73075,-3.72488 4.82638,-3.50054c0,0 1.70833,0.37963 1.3287,2.08796c-0.13813,0.62159 -0.45217,0.96674 -0.79582,1.15434z" fill="#7a0000" stroke="none" stroke-width="0.5"/><path d="M262.86573,121.84772c-0.11998,0.36002 -0.41997,0.8101 -1.17003,0.8101c-1.25,0 -1.25,-1.25 -1.25,-1.25l0.46913,-1.17609c1.48843,-1.1869 2.15317,-2.71368 3.40905,-4.02271c-0.15773,-0.11835 -0.31937,-0.23123 -0.48535,-0.33789c-2.04843,-1.31629 -3.21733,-1.24866 -4.12869,-3.86803c0,0 -0.39528,-1.18585 0.79057,-1.58114c1.18585,-0.39528 1.58114,0.79057 1.58114,0.79057c0.63709,2.03659 1.4335,1.49737 3.07131,2.53197c0.34714,0.21929 0.67803,0.46067 0.99551,0.71942c0.77802,-0.79296 1.43583,-1.61901 2.02929,-2.81513c0,0 0.55902,-1.11803 1.67705,-0.55902c1.11803,0.55902 0.55902,1.67705 0.55902,1.67705c-0.71027,1.41114 -1.5102,2.45842 -2.4718,3.45083c0.63974,0.72191 1.23788,1.48606 1.83017,2.2328c0.3532,0.12791 0.7736,0.43243 0.7736,1.15735c0,1.25 -1.25,1.25 -1.25,1.25l-1.17609,-0.46913c-0.64747,-0.80934 -1.28968,-1.66852 -1.99047,-2.46456c-1.24293,1.19233 -1.95951,2.71433 -3.26341,3.9236z" fill="#663f3f" stroke="none" stroke-width="0.5"/><path d="M264.09569,112.85782c0.86757,0 1.30504,0.4301 1.52563,0.86386c0.04233,-0.01087 0.08603,-0.02085 0.13117,-0.02987c1.71602,-0.3432 2.05922,1.37281 2.05922,1.37281l0.39291,1.96457c0.02689,0.12193 0.04107,0.24863 0.04107,0.37864c0,0.9665 -0.7835,1.75 -1.75,1.75c-0.29393,0 -0.57093,-0.07246 -0.81411,-0.2005l-1.56851,-0.78426l0.04054,-0.08107c-0.17016,-0.06995 -0.33569,-0.1512 -0.49535,-0.24674c-0.67047,-0.40117 -0.75187,-1.36988 -1.12781,-2.05481l-0.18475,-1.18262c0,0 0,-1.75 1.75,-1.75z" fill="#7a0000" stroke="none" stroke-width="0.5"/><path d="M230.64573,123.60782c0,-0.25 0.25,-0.25 0.25,-0.25h0.3c0.60477,0.0306 0.86548,-0.43723 1.1457,-0.95546c0.59101,-2.36623 -2.73509,-3.68585 -1.62496,-5.94849c0.243,-0.49527 1.01245,-1.0328 1.40248,-1.42282c0,0 0.17678,-0.17678 0.35355,0c0.17678,0.17678 0,0.35355 0,0.35355c-3.04686,3.04686 1.18544,3.79949 0.33499,7.19883c-0.39999,0.73835 -0.74776,1.24509 -1.61176,1.27439h-0.3c0,0 -0.25,0 -0.25,-0.25z" fill="#04ff00" stroke="none" stroke-width="0.5"/><path d="M194.87247,83.86459c-0.17678,0.17678 -0.35355,0 -0.35355,0l-0.24683,-0.26497c-0.58048,-1.26967 -1.36851,-3.03459 -0.5987,-4.62617c1.10731,-1.99979 2.62996,-3.19058 3.37899,-5.54307c0.14144,-0.44422 -0.80669,-2.2764 -0.80669,-3.04256c0,-4.22794 4.29344,-3.01174 5.67361,-0.4118c0,0 0.1118,0.22361 -0.1118,0.33541c-0.22361,0.1118 -0.33541,-0.1118 -0.33541,-0.1118c-1.05685,-2.31163 -4.72639,-3.3754 -4.72639,0.1882c0,1.01527 0.95985,2.34856 0.79331,3.15744c-0.51642,2.5082 -2.41228,3.62284 -3.42101,5.65693c-0.71875,1.3776 0.04494,3.12578 0.6013,4.17383l0.15317,0.13503c0,0 0.17678,0.17678 0,0.35355z" fill="#04ff00" stroke="none" stroke-width="0.5"/><path d="M219.10321,133.28734c-0.15954,-0.19248 0.03294,-0.35202 0.03294,-0.35202l0.10113,-0.08382c0.38775,-0.32117 0.78226,-0.59809 1.14155,-0.95146c2.05077,-1.70769 -0.38252,-2.21575 -1.11412,-4.07657c-0.34292,-0.87222 -0.22566,-2.9416 0.94277,-2.51928c0,0 0.22361,0.1118 0.1118,0.33541c-0.1118,0.22361 -0.33541,0.1118 -0.33541,0.1118c-0.40389,-0.36005 -0.41001,1.53454 -0.25723,1.88072c0.86545,1.96097 3.34889,2.67172 0.98753,4.63877c-0.3654,0.35769 -0.7649,0.63962 -1.15783,0.96555l-0.10113,0.08382c0,0 -0.19248,0.15954 -0.35202,-0.03294z" fill="#04ff00" stroke="none" stroke-width="0.5"/><path d="M221.14663,137.48391c0.07309,0.01493 0.19912,0.0664 0.19912,0.2439c0,0.25 -0.25,0.25 -0.25,0.25l-0.45,-0.25c0,-0.68266 -0.32932,-2.51327 0.28709,-2.98963c0.61292,-0.47367 1.50869,0.15359 1.75057,0.82609c0.03723,-0.18989 0.10527,-0.37563 0.18874,-0.54826c0,0 0.1118,-0.22361 0.33541,-0.1118c0.22361,0.1118 0.1118,0.33541 0.1118,0.33541c-0.11826,0.22672 -0.18029,0.48993 -0.18029,0.74563l-0.03657,0.04593l0.01686,0.00843l-0.19758,0.39516c-0.04009,0.08456 -0.12623,0.14304 -0.22603,0.14304c-0.11898,0 -0.21854,-0.08311 -0.2438,-0.19444l-0.09353,-0.3741c-1.04269,-1.74571 -1.19936,-0.17181 -1.21179,1.47464z" fill="#04ff00" stroke="none" stroke-width="0.5"/><path d="M223.49568,133.57781c-0.25,0 -0.25,-0.25 -0.25,-0.25l0.02639,-0.0882c-1.15311,-2.30622 -1.26349,-4.96414 -2.4,-7.2c0,0 -0.1118,-0.22361 0.1118,-0.33541c0.22361,-0.1118 0.33541,0.1118 0.33541,0.1118c1.10009,2.24449 1.25595,4.9119 2.4,7.2l0.02639,0.3118c0,0 0,0.25 -0.25,0.25z" fill="#1c00ff" stroke="none" stroke-width="0.5"/><path d="M193.87685,85.40872c-0.1209,-0.21882 0.09792,-0.33972 0.09792,-0.33972l0.14633,-0.08085c0.67494,-0.37252 1.32404,-0.81274 2.05493,-1.0535c2.19799,-1.44975 0.39312,-4.55029 -0.3065,-6.06656c-0.35768,-0.77518 -0.22386,-2.22801 -0.22386,-3.08027c0,-1.79811 1.07382,-3.63002 2.88583,-4.14162c0.99423,-0.28071 2.53292,0.62778 3.25236,0.21802c0,0 0.22361,-0.1118 0.33541,0.1118c0.1118,0.22361 -0.1118,0.33541 -0.1118,0.33541c-0.97359,0.44487 -2.20263,-0.4586 -3.34764,-0.18198c-1.61203,0.38944 -2.51417,2.12172 -2.51417,3.65838c0,2.74438 3.32916,7.48066 0.25071,9.59566c-0.72389,0.23887 -1.36544,0.67285 -2.03348,1.04232l-0.14633,0.08085c0,0 -0.21882,0.1209 -0.33972,-0.09792z" fill="#1c00ff" stroke="none" stroke-width="0.5"/><path d="M235.80754,124.11142c-0.22361,0.1118 -0.33541,-0.1118 -0.33541,-0.1118l-0.2164,-0.44184c-0.01071,-0.1363 -0.02143,-0.2726 -0.03214,-0.4089c-1.88164,-1.79186 -1.02809,-5.73925 -2.15146,-7.94926c0,0 -0.1118,-0.22361 0.1118,-0.33541c0.22361,-0.1118 0.33541,0.1118 0.33541,0.1118c1.12685,2.29909 0.32465,6.05012 2.15565,7.95785c0.02025,0.16133 0.0405,0.32266 0.06075,0.48399l0.1836,0.35816c0,0 0.1118,0.22361 -0.1118,0.33541z" fill="#1c00ff" stroke="none" stroke-width="0.5"/><path d="M264.09009,125.73775c-0.24994,-0.00562 -0.24431,-0.25556 -0.24431,-0.25556l0.01808,-0.47682c0.26803,-0.49024 0.61064,-0.82922 0.87851,-1.31428c1.16011,-1.15653 -0.47392,-3.94474 -0.08997,-5.66071c0.13261,-0.59269 0.94915,-1.31478 0.61971,-1.83076c0,0 -0.1118,-0.22361 0.1118,-0.33541c0.22361,-0.1118 0.33541,0.1118 0.33541,0.1118c0.39241,0.916 -0.38765,1.29461 -0.58029,2.16924c-0.41039,1.8632 1.35155,4.49368 0.00293,5.84639c-0.23699,0.42948 -0.55358,0.7235 -0.79563,1.145l-0.00067,0.3568c0,0 -0.00562,0.24994 -0.25556,0.24431z" fill="#1c00ff" stroke="none" stroke-width="0.5"/><path d="M217.09569,131.69782c-0.25,0 -0.25,-0.25 -0.25,-0.25l0.00013,-0.2082c0.09487,-2.33097 0.82233,-4.93765 0.79987,-7.1918c0,0 0,-0.25 0.25,-0.25c0.25,0 0.25,0.25 0.25,0.25c-0.01901,2.30622 -0.74492,4.83086 -0.80013,7.2082l0.00013,0.1918c0,0 0,0.25 -0.25,0.25z" fill="#000000" stroke="none" stroke-width="0.5"/><path d="M221.18389,144.27141c-0.22361,-0.1118 -0.1118,-0.33541 -0.1118,-0.33541l0.19204,-0.38241c0.69281,-2.13929 -0.35964,-6.5052 2.23157,-6.55578c0,0 0.25,0 0.25,0.25c0,0.25 -0.25,0.25 -0.25,0.25c-1.94176,-0.02839 -1.1938,4.41795 -1.76843,6.24422l-0.20796,0.41759c0,0 -0.1118,0.22361 -0.33541,0.1118z" fill="#000000" stroke="none" stroke-width="0.5"/><path d="M194.88776,85.98786c-0.16005,0.19206 -0.3521,0.03201 -0.3521,0.03201l-0.21589,-0.17991c-0.15015,-0.13537 -0.30031,-0.27074 -0.45046,-0.40611c-0.05584,-1.43597 0.19074,-5.09294 1.30891,-6.15298c1.01048,-0.95794 2.13094,-1.01623 3.01749,-2.20306c0.64746,-0.81061 0.17726,-2.07604 -0.292,-2.87625c-1.21679,-2.07491 -2.25875,-3.63817 -2.25755,-6.07499c0.05806,-1.45283 2.42607,-1.80482 3.5999,-1.27971c1.7038,0.7622 2.05427,2.31931 2.68178,3.8881c0,0 0.09285,0.23212 -0.13927,0.32497c-0.23212,0.09285 -0.32497,-0.13927 -0.32497,-0.13927c-0.59486,-1.48715 -0.84709,-2.87629 -2.42533,-3.61901c-0.73439,-0.34561 -2.95204,-0.21463 -2.89211,0.82542c-0.00131,2.67071 4.17198,6.84495 2.44956,9.25074c-0.90938,1.20718 -2.06104,1.30402 -3.06949,2.26209c-1.01723,0.96641 -1.12535,4.26998 -1.20411,5.58187c0.10592,0.07803 0.21184,0.15605 0.31776,0.23408l0.21589,0.17991c0,0 0.19206,0.16005 0.03201,0.3521z" fill="#000000" stroke="none" stroke-width="0.5"/><path d="M235.29357,124.37781c-0.24999,-0.00218 -0.24782,-0.25217 -0.24782,-0.25217l0.00441,-0.50226c0.04959,-1.10946 0.69341,-2.02549 1.0503,-3.10028c0.60086,-1.79529 0.23911,-3.58312 -1.16139,-4.93717c-0.71114,-0.68755 -1.77608,-0.62166 -2.26693,-1.54631c0,0 -0.1118,-0.22361 0.1118,-0.33541c0.22361,-0.1118 0.33541,0.1118 0.33541,0.1118c0.35536,0.77726 1.54881,0.82542 2.16512,1.40839c1.54429,1.46077 1.93981,3.49987 1.29033,5.45681c-0.34496,1.03063 -0.97927,1.91693 -1.02481,2.9554l-0.00425,0.49337c0,0 -0.00218,0.24999 -0.25217,0.24782z" fill="#000000" stroke="none" stroke-width="0.5"/><path d="M267.8957,125.37782c-0.25,0 -0.25,-0.25 -0.25,-0.25v-0.2c0.01084,-0.74144 0.50544,-2.04804 0.82603,-2.71107c1.21581,-2.46981 0.66161,-6.03893 -2.37603,-6.03893c0,0 -0.25,0 -0.25,-0.25c0,-0.25 0.25,-0.25 0.25,-0.25c3.42742,0 4.19322,3.9743 2.82397,6.76107c-0.28784,0.55186 -0.78636,1.85432 -0.77397,2.48893v0.2c0,0 0,0.25 -0.25,0.25z" fill="#000000" stroke="none" stroke-width="0.5"/><path d="M228.23617,125.77062c-0.2428,-0.05957 -0.18324,-0.30237 -0.18324,-0.30237l0.00058,-0.00234c0.5429,-1.99093 2.63,-3.00778 1.81125,-5.44242c-0.50063,-1.09492 -2.6484,-4.66259 -0.55888,-5.75927c0.72427,-0.38013 1.79579,-0.1864 2.58985,-0.1864c0,0 0.25,0 0.25,0.25c0,0.25 -0.25,0.25 -0.25,0.25c-0.54028,0 -2.25505,-0.29642 -2.59205,0.28877c-1.02319,1.77672 0.32615,3.6466 1.02302,4.96556c0.88967,2.68865 -1.34049,3.5959 -1.7876,5.7529l-0.00058,0.00234c0,0 -0.05956,0.2428 -0.30236,0.18324z" fill="#420000" stroke="none" stroke-width="0.5"/><path d="M260.74568,127.92782c0,0.25 -0.25,0.25 -0.25,0.25l-0.41186,-0.11728c-1.53308,-2.47272 2.96303,-4.19946 2.96142,-6.85945c-0.00601,-1.94473 -1.35538,-2.94559 -1.59714,-4.7386c-0.26274,-1.94852 1.50065,-1.75737 2.59758,-0.93467c0,0 0.2,0.15 0.05,0.35c-0.15,0.2 -0.35,0.05 -0.35,0.05c-3.30809,-2.48107 -0.20479,4.13226 -0.20044,5.27225c0.00148,2.43245 -4.26255,4.66301 -3.0377,6.59502l-0.01186,-0.11727c0,0 0.25,0 0.25,0.25z" fill="#420000" stroke="none" stroke-width="0.5"/><path d="M195.71889,86.50459c-0.17678,-0.17677 0,-0.35355 0,-0.35355l0.09289,-0.09289c1.17177,-1.17177 1.01747,-2.08971 1.04027,-3.67419c-1.42948,-2.87213 -1.55701,-6.82968 0.08931,-9.86161c0.8598,-3.2551 4.98148,-4.93336 5.79944,-0.84356c0,0 0.04903,0.24514 -0.19612,0.29417c-0.24514,0.04903 -0.29417,-0.19611 -0.29417,-0.19611c-0.7179,-3.58954 -4.18312,-1.89603 -4.84309,0.92657c-1.63167,3.02358 -1.43002,6.71244 -0.06815,9.56825c0.01995,1.73712 0.11652,2.84957 -1.17394,4.14003l-0.09289,0.09289c0,0 -0.17678,0.17677 -0.35356,0z" fill="#420000" stroke="none" stroke-width="0.5"/><path d="M220.07249,135.70459c-0.17678,0.17678 -0.35356,0 -0.35356,0l-0.2492,-0.26984c-0.3669,-0.79149 -0.42403,-1.63971 -0.42403,-2.50693c0,-2.86911 -0.4,-5.48642 -0.4,-8.2c0,0 0,-0.25 0.25,-0.25c0.25,0 0.25,0.25 0.25,0.25c0,2.71085 0.4,5.33062 0.4,8.2c0,0.78347 0.03144,1.58264 0.37598,2.29307l0.1508,0.13016c0,0 0.17678,0.17677 0,0.35355z" fill="#420000" stroke="none" stroke-width="0.5"/><path d="M223.49568,144.77782c-0.25,0 -0.25,-0.25 -0.25,-0.25v-0.1c0,-0.28087 0.00121,-0.56175 0.00669,-0.84256c-0.96386,-1.84778 -1.5208,-3.21445 -0.79474,-5.3338c0.28003,-0.8174 -0.18235,-1.8441 0.83805,-1.97364c0,0 0.25,0 0.25,0.25c0,0.25 -0.25,0.25 -0.25,0.25c-0.32407,-0.10631 -0.21139,1.18644 -0.36194,1.62636c-0.71377,2.08554 -0.0853,3.22445 0.80526,5.0662c0.00466,0.31912 0.00668,0.63829 0.00668,0.95744v0.1c0,0 0,0.25 -0.25,0.25z" fill="#420000" stroke="none" stroke-width="0.5"/><path d="M263.75703,125.93583c-0.20801,-0.13868 -0.06933,-0.34669 -0.06933,-0.34669l0.15801,-0.16132c0.00005,-0.78471 -0.18759,-1.50921 -0.20632,-2.27021c-0.77079,-1.63926 -1.55207,-4.18503 -0.98059,-6.10232c0.28764,-0.96501 1.55976,-1.85134 2.07408,-0.80653c0,0 0.07906,0.23717 -0.15811,0.31623c-0.23717,0.07905 -0.31623,-0.15812 -0.31623,-0.15812c-0.01204,-0.64958 -1.11283,0.80772 -1.11283,1.52095c0.00001,1.96014 0.17586,3.37965 0.98008,5.11399c0.02909,0.80145 0.21987,1.5614 0.21992,2.38601l-0.24198,0.43867c0,0 -0.13868,0.20802 -0.34669,0.06934z" fill="#04ff00" stroke="none" stroke-width="0.5"/><path d="M211.25793,71.00417c0.0689,-0.11139 0.21474,-0.11139 0.21474,-0.11139l0.18987,0.01273c0.11577,0.03865 0.23156,0.07732 0.34733,0.11597c2.02103,1.00794 4.4166,3.94326 5.45774,5.99745c1.5122,2.3601 2.21379,4.65036 3.45825,7.13929c0.34109,1.09369 1.887,3.46805 0.62456,4.70392c-0.66505,0.65105 -2.42491,0.30842 -3.29997,0.30842c-1.50708,-0.03984 -2.0528,-2.7413 -2.45319,-3.82099c-0.34954,-0.94257 -2.40438,-1.59552 -3.23379,-1.88301c-0.76936,-0.75087 -1.96839,-1.18465 -2.32796,-2.24471c-0.53617,-1.58069 1.23286,-3.23305 -0.0609,-4.46864c-1.42221,-1.80821 -2.31762,-5.73397 1.07585,-5.7493c0,0 0.00268,0 0.00748,0.00027z" fill="#000000" stroke="none" stroke-width="0.5"/><path d="M251.27029,195.35634c0.09839,16.47084 -1.57617,37.53313 -10.58829,37.85987c-9.2126,0.334 -9.98487,-20.17345 -10.08326,-36.64428c-0.09839,-16.47084 3.30511,-19.5182 9.72696,-19.55657c6.42185,-0.03836 10.84621,1.87014 10.9446,18.34098z" fill="#109d00" stroke="#929292" stroke-width="1"/><path d="M247.11825,162.19693c2.62842,-0.06695 4.55892,2.90282 3.85512,5.41246c-0.47508,2.38286 -0.49617,5.15024 -3.83654,4.47684c-1.49389,-0.51111 -3.02702,-0.89118 -3.96943,-1.83637c-0.40579,0.28437 -0.89994,0.45125 -1.43307,0.45125c-0.87061,0 -1.63727,-0.44502 -2.08493,-1.11999c-0.50805,0.17966 -1.00887,0.0233 -1.48659,0.29528c-1.3739,0.78222 -3.08022,1.88841 -4.79896,2.14865c-1.81529,-1.58775 -1.4612,-4.19968 -0.6389,-6.24781c0.38061,-2.3469 1.54075,-5.3182 3.99572,-3.35422c1.02649,1.05975 2.70415,2.39402 3.537,3.76059c0.41376,-0.30335 0.92429,-0.4825 1.47666,-0.4825c0.49821,0 0.96238,0.14574 1.35221,0.3969c1.39391,-1.24535 2.52157,-2.7631 4.03171,-3.90108z" fill="#109d00" stroke="none" stroke-width="0.5"/><path d="M234.14189,166.66783c0.17678,-0.17678 0.35356,0 0.35356,0l0.00235,0.01645c1.66965,0.93741 3.23093,0.44018 5.03844,0.73725c0,0 0.2466,0.0411 0.2055,0.2877c-0.0411,0.2466 -0.2877,0.2055 -0.2877,0.2055c-1.87755,-0.3178 -3.44075,0.15494 -5.19685,-0.79216l-0.1153,-0.10119c0,0 -0.17678,-0.17678 0,-0.35356z" fill="#063800" stroke="none" stroke-width="0.5"/><path d="M248.80395,167.25636c0,0.25 -0.25,0.25 -0.25,0.25l-0.22167,-0.01073c-1.04679,0.74269 -2.10153,0.24277 -3.12029,0.85746c0,0 -0.21437,0.12862 -0.343,-0.08575c-0.12862,-0.21437 0.08575,-0.343 0.08575,-0.343c1.07367,-0.641 2.14596,-0.2111 3.23264,-0.90725l0.36657,-0.01072c0,0 0.25,0 0.25,0.25z" fill="#063800" stroke="none" stroke-width="0.5"/><path d="M243.21083,165.1877c0.24514,-0.04903 0.29418,0.19611 0.29418,0.19611l0.05331,0.27191c0.01501,0.03942 0.03275,0.07793 0.05281,0.11536c0.00056,0 0.00111,-0.00001 0.00167,-0.00001c0.25,0 0.25,0.25 0.25,0.25c0,0.02535 0.00008,0.05047 0.00025,0.07537c0.0364,0.04564 0.12011,0.17746 0.00631,0.31383c0.02424,0.72208 0.10836,1.25802 0.12706,1.80633c0.39981,-0.11906 0.86596,-0.12392 1.27324,-0.20538c0,0 0.24514,-0.04903 0.29417,0.19611c0.04903,0.24515 -0.19612,0.29417 -0.19612,0.29417c-0.38216,0.07644 -1.02623,0.05518 -1.37654,0.23524c-0.02603,0.44024 -0.11319,0.92384 -0.31767,1.53984l-0.11922,0.15654c0,0 -0.17677,0.17677 -0.35355,0c-0.17678,-0.17677 0,-0.35356 0,-0.35356l-0.00157,0.0389c0.17872,-0.53374 0.26654,-0.95108 0.30146,-1.3203c-0.0439,-0.03662 -0.079,-0.0952 -0.079,-0.18887c0,-0.10683 0.04565,-0.16802 0.09794,-0.20305c0.00203,-0.63901 -0.13097,-1.19841 -0.15353,-2.1196c-0.11784,-0.14831 -0.21528,-0.31448 -0.28699,-0.48846l-0.06433,-0.31633c0,0 -0.04903,-0.24514 0.19611,-0.29417z" fill="#063800" stroke="none" stroke-width="0.5"/><path d="M239.67197,169.90374c-0.17678,0.17677 -0.35356,0 -0.35356,0l-0.18601,-0.2454c-0.32372,-1.65074 0.16035,-2.35062 0.78625,-3.63142c0,0 0.11181,-0.22361 0.33541,-0.11181c0.22361,0.11181 0.11181,0.33541 0.11181,0.33541c-0.61173,1.20107 -1.06918,1.71637 -0.74317,3.30975l0.04928,-0.0101c0,0 0.17678,0.17678 0,0.35356z" fill="#063800" stroke="none" stroke-width="0.5"/><path d="M218.05413,179.24263c0.44365,-1.20755 1.51908,-1.33043 2.48308,-0.00803c0.61597,0.84498 0.44719,1.86147 0.44719,2.84617c0,3.12592 -1.54513,6.71658 -1.4,9.8c-0.01965,1.63741 -0.93041,2.68516 -1.41409,4.08275c-0.60462,1.74701 0.21932,3.17511 -0.74496,4.93112c-1.30086,1.8925 -1.57281,-0.64825 -2.30411,-1.35763c-0.72725,-0.70544 -1.76739,-0.88754 -2.52027,-1.35058c-0.81702,-0.50249 -1.15283,-2.73968 -1.51206,-3.65838c-0.01112,-1.34995 -0.2769,-3.18944 0.21452,-4.44295c0.65359,-1.66719 3.27485,-2.31229 3.67846,-4.17047c0.29076,-1.28918 -0.38733,-2.53042 -0.09065,-3.79192c0.31142,-1.32418 1.90659,-2.24031 3.16289,-2.88008z" fill="#000000" stroke="none" stroke-width="0.5"/><path d="M202.45877,207.41908c-0.2383,-0.07558 -0.16272,-0.31388 -0.16272,-0.31388l0.15442,-0.3941c3.17298,-3.17299 4.107,-1.73844 5.7272,1.61224c0.03172,2.1697 2.79268,8.11056 -0.90488,9.0871c-1.22866,0.31833 -3.5747,1.88441 -4.8462,1.39591c-1.60062,-0.61495 -0.76098,-3.78124 -1.14988,-5.09929c-0.29253,-2.88685 1.14262,-5.03824 2.44913,-7.49387c-0.2771,0.22962 -0.58245,0.51212 -0.92181,0.85147l-0.03137,0.1917c0,0 -0.07558,0.2383 -0.31388,0.16272z" fill="#000000" stroke="none" stroke-width="0.5"/><path d="M253.87693,94.4733c0.01707,-0.00854 0.03348,-0.01512 0.04925,-0.01999c2.24791,-1.91766 5.6179,-0.84253 8.70817,-0.84253c1.18599,0 2.88527,-0.29883 4.0051,0.16192c1.81077,0.74504 2.49699,3.72755 3.84108,5.08526c0.98196,0.48411 2.31165,0.38784 3.20001,1.00001c2.31628,1.59615 1.61452,3.87194 0.6993,6.15008c0.00883,0.89025 -0.28137,1.0293 -0.61452,1.74839c-1.70558,3.68141 -4.55438,-1.23755 -6.69711,-1.54315c-3.12613,-0.70507 -8.38386,0.68905 -8.38386,-4.05251c0,-0.42961 0.18494,-1.43252 0.00383,-1.80811c-0.93822,-1.9457 -4.41096,-2.1752 -4.59671,-4.92569c-0.05806,-0.09745 -0.11265,-0.19888 -0.16511,-0.30035c-0.10791,0.11175 -0.21223,0.23224 -0.31271,0.36207c-0.01018,0.1323 -0.02035,0.26459 -0.03053,0.3969l0.00123,0.17519c0,0 0,0.25 -0.25,0.25c-0.25,0 -0.25,-0.25 -0.25,-0.25l0.00124,-0.2248c0.02055,-0.17582 0.0411,-0.35164 0.06165,-0.52746c0.18826,-0.26259 0.38859,-0.49258 0.59975,-0.69363c0.01572,-0.05132 0.05294,-0.10309 0.12995,-0.14158z" fill="#000000" stroke="none" stroke-width="0.5"/><path d="M284.09256,126.29905c-0.75928,1.42458 -2.72199,3.76495 -2.74826,5.09261c-1.37278,3.04586 -3.15801,5.76103 -4.63173,8.64703c-1.88712,2.44187 -4.59622,1.32646 -5.22278,-1.62602c-0.16455,-0.7754 -0.21713,-2.54717 0.45466,-2.91451c0.46022,-1.73906 2.17384,-3.32325 3.18435,-4.7797c0.89525,-1.29033 1.17214,-2.57783 2.27522,-3.68091c0.85371,-0.85134 1.33481,-2.28415 2.67289,-2.62009c1.5871,-0.39846 2.29625,0.96827 3.64028,1.31519c0.03176,-0.06144 0.09424,-0.12188 0.21716,-0.12188c0.17431,0 0.22708,0.12153 0.24306,0.19513c0.05136,0.00321 0.10365,0.00487 0.15694,0.00487c0,0 0.25,0 0.25,0.25c0,0.25 -0.25,0.25 -0.25,0.25c-0.08274,0 -0.16327,-0.00405 -0.24178,-0.01172z" fill="#000000" stroke="none" stroke-width="0.5"/><path d="M239.3687,126.95642c-0.01513,0.0227 -0.03109,0.04127 -0.04752,0.05634c1.21026,1.10037 3.65109,1.40827 5.07842,1.69906c2.514,-0.00757 3.90691,0.12547 6.00184,-1.25818c2.34816,-0.94819 5.20812,-1.06436 5.14541,2.30667c0.88909,1.87054 -2.68881,4.12556 -3.88515,4.86814c-1.91003,0.0477 -3.62185,-0.19893 -5.4156,-0.71025c-0.70688,-0.2015 -2.10261,-0.01915 -2.57585,-0.7461c-1.75286,-0.18296 -5.96184,-2.25428 -5.97385,-4.28293c0,-0.46818 -0.40826,-2.77068 0.06061,-3.07756c0.16803,-0.10998 1.06348,0.57712 1.29054,0.63465l0.25182,0.16347c0,0 0.20801,0.13867 0.06934,0.34669z" fill="#000000" stroke="none" stroke-width="0.5"/><path d="M249.56058,176.06788c0.36498,-0.00412 0.72983,-0.00431 1.0949,-0.00431c1.56495,0.00027 4.23094,0.48981 5.39777,1.71148c0.81898,0.85748 0.83422,2.45098 1.18232,3.49847c0.021,3.51313 0.00322,7.02686 0.00322,10.54005c0,2.31414 -0.91363,4.30804 -1.16854,6.53054c-0.08668,0.75569 0.21696,1.4583 -0.30786,2.06661c-0.80962,0.86473 -1.16329,2.01987 -2.11975,2.76657c-1.82832,1.42736 -4.73719,1.69049 -4.73719,-1.19705c0,-1.86964 2.20123,-4.17774 1.3557,-6.06331c-0.19256,-0.42941 -1.84667,-0.86248 -2.28248,-1.09324c-1.05699,-1.97581 -1.37703,-4.3131 -2.5211,-6.19065c-0.19651,-0.32249 -1.97014,-0.91603 -2.43501,-1.26c-1.89871,-1.44139 -0.45045,-7.42582 -0.45045,-9.72613c0,-3.10527 5.07192,-3.47012 6.92677,-1.67677c0,0 0.03859,0.0386 0.06169,0.09775z" fill="#000000" stroke="none" stroke-width="0.5"/><path d="M237.56443,201.39287c0.144,-0.0632 0.26779,0.06059 0.26779,0.06059c2.4996,2.50239 4.68384,3.7842 2.59144,7.52827c-0.20774,3.66516 1.56813,5.74531 0.79609,9.41084c-1.77121,2.70738 -4.71593,4.59151 -6.34708,7.19475c-0.74021,1.45427 -2.4129,1.75294 -3.75194,2.5886c-0.26627,0.16618 -1.35501,0.99611 -1.711,0.85816c-0.73579,-0.28512 -0.17095,-2.16269 -0.17095,-2.73717c0,-3.36803 -0.01235,-6.78814 -1.53999,-9.85675c-0.90082,-3.16994 -0.17238,-6.65169 0.75227,-9.62721c0.42777,-1.3681 1.13764,-3.78689 2.4063,-4.56203c1.05732,-0.64602 3.36831,-0.4076 4.66772,-0.84073c0.52609,-0.17306 0.91237,-0.19647 1.46371,-0.19661h0.33334c0,0 0.20031,0.00001 0.24232,0.1793z" fill="#000000" stroke="none" stroke-width="0.5"/><path d="M274.24902,199.22809c0.01951,-0.074 0.07602,-0.18118 0.23971,-0.18118c0.25,0 0.25,0.25 0.25,0.25c0,0.5 0,1.16667 0,1.66667c0,2.98123 -0.6037,7.31927 0.33011,10.12662c-0.02292,3.19653 0.66989,6.44741 0.66989,9.87338c0,3.30169 -2.74979,5.10232 -3.24513,8.16222c-2.17317,0.82212 -4.29553,6.94346 -6.69821,3.32961c-2.74491,-2.73 1.14435,-5.62378 1.62225,-8.40248c1.44532,-2.81223 1.4552,-6.31115 3.05169,-9.16141c0.9178,-1.63804 1.61366,-3.56036 1.10848,-5.54127c-0.31915,-1.25144 -1.33909,-2.13182 -1.33909,-3.38667c0,-2.95317 0.76143,-5.9081 3.85604,-6.74254c0,0 0.07646,-0.01911 0.15425,0.00705z" fill="#000000" stroke="none" stroke-width="0.5"/><path d="M262.35657,190.31349c2.35084,-0.01166 4.04886,-1.20336 4.04886,2.24934c0.01912,3.19072 2.76216,5.86101 -0.01286,8.82608c-0.37703,0.50901 -1.72191,2.03385 -2.38828,2.09086c-0.63013,0.0539 -0.62765,-0.59715 -0.88501,-0.93667c-1.1272,-1.48708 -1.97829,-3.05674 -2.73886,-4.77627c-1.9779,-2.9572 0.50453,-4.36696 1.36836,-7.12325c-0.00639,-0.02332 -0.01004,-0.04984 -0.01004,-0.07999c0,-0.10145 0.04117,-0.16173 0.0901,-0.19755c0.03023,-0.11476 0.0575,-0.23185 0.08143,-0.35148c0,0 0.04903,-0.24515 0.29417,-0.19612c0.24514,0.04903 0.19612,0.29417 0.19612,0.29417c-0.01355,0.06777 -0.02825,0.13472 -0.04401,0.20088z" fill="#000000" stroke="none" stroke-width="0.5"/><path d="M243.8344,133.47733c-0.25,0 -0.25,-0.25 -0.25,-0.25v-0.2c0,-0.43845 -0.12921,-0.87504 -0.26834,-1.31226c-1.20182,-0.20987 -2.43337,-0.62639 -3.47929,-1.2673c-0.10878,0.23872 -0.1714,0.44274 -0.15237,0.57956v0.4c0,0 0,0.25 -0.25,0.25c-0.25,0 -0.25,-0.25 -0.25,-0.25v-0.4c0.01841,-0.26205 0.11394,-0.54715 0.25111,-0.84321c-0.77021,-0.54267 -1.41189,-1.22158 -1.82471,-2.04499c0,0 -0.1118,-0.22361 0.1118,-0.33541c0.22361,-0.1118 0.33541,0.1118 0.33541,0.1118c0.36442,0.73096 0.92748,1.3369 1.60523,1.82643c0.30645,-0.54948 0.69218,-1.11543 0.94755,-1.62643c0,0 0.1118,-0.22361 0.33541,-0.1118c0.22361,0.1118 0.1118,0.33541 0.1118,0.33541c-0.1986,0.39699 -0.6611,1.07344 -0.99537,1.67008c0.92475,0.57343 2.01302,0.95672 3.08572,1.16824c-0.24121,-0.83068 -0.34244,-1.66732 0.50926,-2.5269c0,0 0.17678,-0.17678 0.35355,0c0.17678,0.17678 0,0.35355 0,0.35355c-0.73618,0.72842 -0.62373,1.49428 -0.3829,2.25683c0.51905,0.07831 1.02802,0.11639 1.50612,0.11639c0.514,0.00307 1.02925,0.08249 1.5463,0.18701c0.02414,-0.81519 0.1037,-1.6371 0.1037,-2.33701c0,0 0,-0.25 0.25,-0.25c0.25,0 0.25,0.25 0.25,0.25c0,0.72691 -0.09044,1.59336 -0.10943,2.44277c1.18808,0.26431 2.38655,0.57477 3.602,0.31391c0.35516,-0.07622 0.68847,-0.22985 1.00657,-0.42645c-1.08019,-1.17735 -1.98735,-2.57098 -1.37274,-3.84205c0,0 0.1118,-0.22361 0.33541,-0.1118c0.22361,0.1118 0.1118,0.33541 0.1118,0.33541c-0.52994,1.01592 0.3307,2.27428 1.32938,3.34267c0.73971,-0.54904 1.40741,-1.2622 2.09679,-1.65431c0.109,-0.11016 0.218,-0.22033 0.32699,-0.33049l0.04645,-0.04645c0,0 0.17678,-0.17678 0.35355,0c0.17678,0.17678 0,0.35355 0,0.35355l-0.04645,0.04645c-0.1267,0.12554 -0.25341,0.25108 -0.38011,0.37661c-0.69274,0.3681 -1.35112,1.03798 -2.07104,1.59295c0.57397,0.57878 1.14891,1.08175 1.4976,1.43044l0.2,0.2c0,0 0.17678,0.17678 0,0.35355c-0.17678,0.17678 -0.35355,0 -0.35355,0l-0.2,-0.2c-0.40216,-0.40216 -0.97697,-0.91609 -1.54217,-1.49602c-0.38273,0.25654 -0.78628,0.46286 -1.22362,0.56256c-1.25878,0.28696 -2.49469,-0.04456 -3.71878,-0.31519c0.01108,0.64717 0.08339,1.26623 0.29172,1.78481l0.01949,0.47886c0,0 0.0082,0.24987 -0.24166,0.25807c-0.24987,0.0082 -0.25807,-0.24166 -0.25807,-0.24166l-0.00912,-0.39267c-0.23001,-0.57748 -0.29852,-1.27224 -0.30148,-1.9928c-0.51473,-0.10179 -1.02764,-0.17633 -1.53954,-0.17274c-0.42566,0 -0.87205,-0.02889 -1.32709,-0.08766c0.14439,0.41872 0.27709,0.83355 0.27709,1.23766v0.2c0,0 0,0.25 -0.25,0.25z" fill="#ffffff" stroke="none" stroke-width="0.5"/><path d="M210.47534,81.94536c-1.11803,-0.55902 -0.55902,-1.67705 -0.55902,-1.67705l0.11613,-0.18438c0.13333,-0.46667 0.26667,-0.93333 0.4,-1.4c0,0 0.08729,-0.30553 0.3279,-0.56449c0.0041,-0.05647 0.01298,-0.11426 0.02757,-0.17305c-0.8413,-1.0114 -1.63507,-2.08781 -2.2716,-3.36004c0,0 -0.55902,-1.11803 0.55902,-1.67705c1.11803,-0.55902 1.67705,0.55902 1.67705,0.55902c0.58508,1.17096 1.29001,2.16139 2.04172,3.08456c0.40388,-0.57453 0.86631,-1.11097 1.35636,-1.60943l0.2,-0.2c0,0 0.88388,-0.88388 1.76777,0c0.88388,0.88388 0,1.76777 0,1.76777l-0.2,0.2c-0.54708,0.5354 -1.05568,1.13517 -1.42643,1.80578c0.75362,0.85438 1.50096,1.72337 2.17636,2.70875c0.22743,-0.22743 0.45487,-0.45487 0.6823,-0.6823l0.6,-0.6c0,0 0.88388,-0.88388 1.76777,0c0.88388,0.88388 0,1.76777 0,1.76777c-0.33333,0.33333 -1.26667,1.26667 -1.6,1.6c0,0 -0.02258,0.02258 -0.06413,0.05691c0.92932,1.45711 1.85629,2.92533 2.82031,4.36583l0.24382,0.20949c0,0 0.88388,0.88388 0,1.76777c-0.88388,0.88388 -1.76777,0 -1.76777,0l-0.20761,-0.22043c-0.03875,0.0379 -0.08121,0.07549 -0.12764,0.11263c-0.97609,0.78087 -1.75695,-0.19522 -1.75695,-0.19522c-0.98321,-1.30048 -0.9489,-2.78825 -1.5191,-4.13444c-0.64589,-0.04863 -1.15481,-0.5881 -1.15481,-1.24643c0,-0.14875 0.02598,-0.29144 0.07366,-0.42377c-0.71675,-0.96158 -1.46033,-1.95454 -2.20156,-2.90351c-0.00673,0.02356 -0.01346,0.04712 -0.02019,0.07068l-0.28387,0.61562c0,0 -0.55902,1.11803 -1.67705,0.55902z" fill="#663f3f" stroke="none" stroke-width="0.5"/><path d="M255.5844,97.96733c0,-1.25 1.25,-1.25 1.25,-1.25h0.6c4.20411,0.16333 3.58602,3.09546 3.46643,6.25825l0.09992,-0.09966c2.14018,-1.6956 4.94411,-4.59935 6.11562,-7.02761c0,0 0.55902,-1.11803 1.67705,-0.55902c0.82957,0.41479 0.73584,1.13734 0.63225,1.48258c0.34547,0.05305 0.64432,0.24753 0.83558,0.52247l0.80842,1.13179c0.47773,0.17372 1.15989,0.12261 1.50602,0.37552c0.04905,0.01576 0.09941,0.03459 0.1511,0.05675c1.14893,0.4924 0.65653,1.64133 0.65653,1.64133c-0.50136,1.08613 -1.21203,1.84421 -2.00039,2.4994c0.113,0.13619 0.1695,0.24919 0.1695,0.24919c0.9686,2.10924 0.76362,3.11529 -0.47797,5.05239l-0.4,0.6c0,0 -0.69338,1.04006 -1.73344,0.34669c-1.04006,-0.69338 -0.34669,-1.73344 -0.34669,-1.73344l0.4,-0.6c0.77323,-1.09565 1.00264,-1.31834 0.39848,-2.41217c-0.6299,0.48356 -1.24333,1.01266 -1.78233,1.68642l-0.57609,0.76913c0,0 -0.75,1 -1.75,0.25c-0.37354,-0.28016 -0.5029,-0.5952 -0.51838,-0.87997c-1.13262,0.24252 -2.21661,0.32686 -2.73162,0.32997c0,0 -0.75174,0 -1.08928,-0.58297c-0.29501,0.03958 -0.64481,-0.03335 -0.99461,-0.38315c-0.23018,-0.23018 -0.34047,-0.46035 -0.37771,-0.67492c-1.18841,-0.04037 -1.18841,-1.24897 -1.18841,-1.24897c0,-1.12736 0.43766,-2.59587 0.31979,-3.5567c-0.54792,-0.05671 -0.99076,-0.46735 -1.096,-0.99937c-0.05535,-0.00025 -0.11325,0.00175 -0.17379,0.00607h-0.6c0,0 -1.25,0 -1.25,-1.25z" fill="#663f3f" stroke="none" stroke-width="0.5"/><path d="M282.42019,131.26262c-0.39528,1.18585 -1.58114,0.79057 -1.58114,0.79057l-0.38149,-0.14842c-1.98308,-0.33467 -2.70448,-1.01145 -4.22345,-2.27716c0,0 -0.96028,-0.80023 -0.16005,-1.76051c0.80023,-0.96028 1.76051,-0.16005 1.76051,-0.16005c1.14939,0.9579 1.51682,1.57449 2.97655,1.72284l0.81851,0.25158c0,0 1.18585,0.39528 0.79057,1.58114z" fill="#663f3f" stroke="none" stroke-width="0.5"/><path d="M279.47441,137.16071c-0.69338,1.04006 -1.73344,0.34669 -1.73344,0.34669l-0.5268,-0.35476c-1.45532,-0.84366 -2.46084,-1.87269 -3.7607,-2.90922c0,0 -0.97609,-0.78087 -0.19522,-1.75695c0.78087,-0.97609 1.75695,-0.19522 1.75695,-0.19522c1.1891,0.95405 2.1017,1.93994 3.4393,2.69078l0.6732,0.44524c0,0 1.04006,0.69338 0.34669,1.73344z" fill="#663f3f" stroke="none" stroke-width="0.5"/><path d="M276.91826,141.35121c-0.88388,0.88388 -1.76777,0 -1.76777,0l-0.4,-0.4c-1.34911,-1.35296 -2.82176,-1.94647 -4.29699,-3.1078c0,0 -0.97609,-0.78087 -0.19522,-1.75695c0.78087,-0.97609 1.75695,-0.19522 1.75695,-0.19522c1.49884,1.22438 3.0829,1.87575 4.50301,3.2922l0.4,0.4c0,0 0.88388,0.88388 0,1.76777z" fill="#663f3f" stroke="none" stroke-width="0.5"/><path d="M227.78435,222.34733c0,-1.16866 1.09261,-1.24471 1.23481,-1.24966c1.3714,-0.5188 2.23108,-1.60047 3.52024,-2.09818c1.8217,-0.7033 4.54597,-0.60786 6.51817,-0.8896c0,0 0.04861,-0.00694 0.12794,-0.00845l-0.1886,-0.77734c-0.13161,-0.92944 -0.27909,-1.8338 -0.41991,-2.73031c-2.90719,0.05169 -6.42717,0.95367 -9.19925,1.75544l-0.18438,0.11613c0,0 -1.11803,0.55902 -1.67705,-0.55902c-0.55902,-1.11803 0.55902,-1.67705 0.55902,-1.67705l0.61562,-0.28387c3.0151,-0.85229 6.40282,-1.61591 9.53344,-1.80679c-0.14329,-1.17082 -0.24004,-2.35514 -0.24004,-3.5913c0,0 0,-0.26895 0.12476,-0.55735c-2.92295,-0.08169 -5.2095,-0.82421 -8.05153,-1.20521l-0.02322,0.01256c0,0 -1.25,0 -1.25,-1.25c0,-1.25 1.25,-1.25 1.25,-1.25l0.37678,0.01256c2.95179,0.4423 5.08779,1.1802 8.17775,1.18738c-0.00151,-0.24998 -0.00302,-0.49996 -0.00452,-0.74995c0,0 0,-1.25 1.25,-1.25c1.25,0 1.25,1.25 1.25,1.25c-0.00312,0.41576 -0.00624,0.83151 -0.00937,1.24727l0.37204,1.44956c0,0 0.30317,1.21268 -0.90951,1.51585c-0.01657,0.00414 -0.03297,0.008 -0.04921,0.01159c0.05125,2.75954 0.58891,5.25898 0.98348,7.99896l0.17524,0.67361c0,0 0.30317,1.21268 -0.90951,1.51585c-0.09226,0.02307 -0.17926,0.03736 -0.26125,0.04407c0.14987,1.20711 -1.06514,1.38068 -1.06514,1.38068c-1.76243,0.25178 -4.26815,0.07901 -5.88183,0.7104c-1.31472,0.51441 -2.39866,1.73381 -3.89966,2.23802l-0.59528,0.06415c0,0 -1.25,0 -1.25,-1.25z" fill="#663f3f" stroke="none" stroke-width="0.5"/><path d="M256.88435,178.34733c0,1.25 -1.25,1.25 -1.25,1.25l-0.37678,-0.01256c-3.00851,-0.43172 -5.77101,-0.58744 -8.82322,-0.58744c0,0 -0.02905,0 -0.0783,-0.00443c0.17309,1.42362 0.03984,2.85321 -0.17325,4.29935c3.79556,-0.52806 7.24645,-0.39492 11.05155,-0.39492l1.24515,0.22427c0,0 1.22573,0.24515 0.98058,1.47087c-0.24515,1.22573 -1.47087,0.98058 -1.47087,0.98058l-0.75485,-0.17573c-3.73869,0 -7.09233,-0.14614 -10.82322,0.38744c0,0 -0.2962,0.04231 -0.61947,-0.05938c-0.04192,0.26548 -0.08232,0.5317 -0.11987,0.79872l-0.21171,1.06837c0,0 -0.24515,1.22573 -1.47087,0.98058c-1.22573,-0.24515 -0.98058,-1.47087 -0.98058,-1.47087l0.10678,-0.52835c-0.08585,0.01521 -0.17932,0.0235 -0.28106,0.0235c-1.25,0 -1.25,-1.25 -1.25,-1.25l0.13197,-1.35902c0.93363,-1.72805 1.07168,-4.44388 1.06803,-6.44098c0,0 0,-0.57961 0.39468,-0.94946c0.02081,-0.33181 0.17915,-0.71 0.6963,-0.96857c1.11803,-0.55902 1.67705,0.55902 1.67705,0.55902c0.07717,0.1626 0.14838,0.3252 0.21395,0.48779c0.32616,-0.17877 0.66801,-0.17877 0.66801,-0.17877c3.16478,0 6.05327,0.1685 9.17678,0.61256l0.02322,-0.01256c0,0 1.25,0 1.25,1.25z" fill="#663f3f" stroke="none" stroke-width="0.5"/><path d="M258.0202,189.95205c0.39528,1.18585 -0.79057,1.58114 -0.79057,1.58114l-0.81851,0.25158c-2.64458,0.35651 -6.02601,-0.81162 -8.41776,0.4806c0,0 -1.11803,0.55902 -1.67705,-0.55902c-0.55902,-1.11803 0.55902,-1.67705 0.55902,-1.67705c2.96896,-1.40907 6.07311,-0.24299 9.18224,-0.7194l0.38149,-0.14842c0,0 1.18585,-0.39528 1.58114,0.79057z" fill="#663f3f" stroke="none" stroke-width="0.5"/><path d="M257.07178,196.37055c0.17678,1.23744 -1.06066,1.41421 -1.06066,1.41421l-1.57678,0.21256c-0.93893,-0.13312 -1.90488,-0.13447 -2.84496,-0.00965c0,0 -1.24035,0.15504 -1.39539,-1.0853c-0.15504,-1.24035 1.0853,-1.39539 1.0853,-1.39539c1.04436,-0.12395 2.11409,-0.1595 3.15504,-0.00965l1.22322,-0.18744c0,0 1.23744,-0.17678 1.41421,1.06066z" fill="#663f3f" stroke="none" stroke-width="0.5"/><path d="M254.28435,203.14733c0,1.25 -1.25,1.25 -1.25,1.25l-0.95902,-0.13197c-0.34511,-0.25199 -0.93685,-0.25199 -1.28197,0c0,0 -1.11803,0.55902 -1.67705,-0.55902c-0.55902,-1.11803 0.55902,-1.67705 0.55902,-1.67705c1.08268,-0.45053 2.43535,-0.45053 3.51803,0l-0.15902,-0.13197c0,0 1.25,0 1.25,1.25z" fill="#663f3f" stroke="none" stroke-width="0.5"/><path d="M276.28434,201.60733c0,1.25 -1.25,1.25 -1.25,1.25l-0.24098,-0.13197c-0.8,0.4 -1.6,0.8 -2.4,1.2c0,0 -1.11803,0.55902 -1.67705,-0.55902c-0.55902,-1.11803 0.55902,-1.67705 0.55902,-1.67705c0.8,-0.4 1.6,-0.8 2.4,-1.2l1.35902,-0.13197c0,0 1.25,0 1.25,1.25z" fill="#663f3f" stroke="none" stroke-width="0.5"/><path d="M265.63906,189.64148c1.18585,-0.39528 1.58114,0.79057 1.58114,0.79057l-0.00977,0.21442c1.40242,1.80031 1.66521,2.62384 0.74195,4.73989c0,0 -0.02053,0.04106 -0.0616,0.10352c0.20976,1.096 0.19356,2.11985 0.19356,3.33746l0.16268,0.49683c0,0 0.06181,0.24724 0.01798,0.54635c0.33171,0.46124 0.18202,1.05999 0.18202,1.05999l-1.9717,1.61486c-1.1403,-0.57373 -1.47541,-1.02061 -2.6457,-0.53218c0,0 -1.18585,0.39528 -1.58114,-0.79057c-0.39528,-1.18585 0.79057,-1.58114 0.79057,-1.58114c1.14533,-0.33323 1.90185,-0.35024 2.69298,-0.12762l-0.14769,-0.68653c0,-0.64757 0.02421,-1.2277 -0.00272,-1.79788l-0.10647,-0.00484c-1.96183,-0.60344 -3.51963,-0.78067 -5.49741,-0.19538c0,0 -1.2019,0.3434 -1.54531,-0.8585c-0.3434,-1.2019 0.8585,-1.54531 0.8585,-1.54531c2.15016,-0.59712 3.91864,-0.54687 5.95565,-0.0509c0.0938,-0.28651 0.31494,-0.57388 0.79246,-0.73305c0.00169,-0.00056 0.00337,-0.00112 0.00505,-0.00168c0.15866,-0.5072 -0.18507,-0.70817 -0.78585,-1.4316l-0.40977,-0.98558c0,0 -0.39528,-1.18585 0.79057,-1.58114z" fill="#663f3f" stroke="none" stroke-width="0.5"/><path d="M200.38436,212.42733c0,-0.69036 0.55964,-1.25 1.25,-1.25c0.25378,0 0.48989,0.07563 0.68703,0.20557c0.24603,-0.47996 0.50674,-0.95351 0.77986,-1.42463c-0.42372,-0.20008 -0.71689,-0.63128 -0.71689,-1.13094c0,-0.69036 0.55964,-1.25 1.25,-1.25c0.29077,0 0.55834,0.09928 0.77069,0.26578c0.4462,-0.69127 0.91165,-1.39017 1.38925,-2.10916c0,0 0.69338,-1.04006 1.73344,-0.34669c1.04006,0.69338 0.34669,1.73344 0.34669,1.73344c-0.62281,0.9312 -1.22764,1.81944 -1.79313,2.70061c0.73333,0.26461 1.4066,0.72572 1.69738,1.38701l0.8147,0.30097c0,0 1.11803,0.55902 0.55902,1.67705c-0.55902,1.11803 -1.67705,0.55902 -1.67705,0.55902l-1.5853,-0.89903c-0.07,-0.37704 -0.49402,-0.89653 -0.85568,-0.769c0,0 -0.11666,0 -0.2787,-0.03564c-0.44555,0.82236 -0.84274,1.66413 -1.17497,2.55317c0.99744,0.05055 2.00715,0.20958 2.92246,0.58607c0.26177,0.02173 1.18122,0.17434 1.18122,1.24639c0,1.25 -1.25,1.25 -1.25,1.25l-0.75902,-0.13197c-0.78658,-0.42497 -1.74711,-0.48548 -2.64098,-0.46803c0,0 -0.06563,0 -0.16681,-0.01504c-0.07658,0.37017 -0.14212,0.75029 -0.19576,1.14181l0.01256,0.02322c0,0 0,1.25 -1.25,1.25c-1.25,0 -1.25,-1.25 -1.25,-1.25l0.01256,-0.37678c0.22624,-1.5318 0.60913,-2.91497 1.11066,-4.21637c-0.53188,-0.14366 -0.92323,-0.62956 -0.92323,-1.20686z" fill="#663f3f" stroke="none" stroke-width="0.5"/><path d="M220.71826,185.51122c-0.88388,0.88388 -1.76777,0 -1.76777,0l-0.09699,-0.1078c-0.55935,-0.4696 -1.25638,-0.78779 -1.96253,-0.97418c0,0 -0.05048,-0.01442 -0.1278,-0.04771c-0.27629,0.62052 -0.53254,1.25632 -0.77013,1.90236c0.40603,0.22117 0.59027,0.65105 0.59027,0.65105c0.42473,1.38867 0.60324,1.06188 2.05107,1.0424h0.2c0,0 1.25,0 1.25,1.25c0,1.25 -1.25,1.25 -1.25,1.25h-0.2c-1.90262,-0.01919 -2.778,-0.17232 -3.58441,-1.25147c-0.20129,0.72396 -0.38291,1.45112 -0.54663,2.17497c0.30246,0.08286 0.5119,0.25041 0.5119,0.25041c1.0449,0.86774 1.6413,0.95049 2.99591,1.13865l0.92639,0.22476c0,0 1.21268,0.30317 0.90951,1.51585c-0.30317,1.21268 -1.51585,0.90951 -1.51585,0.90951l-0.67361,-0.17524c-1.53038,-0.2238 -2.51385,-0.48512 -3.67137,-1.27198c-0.11901,0.68282 -0.22328,1.35522 -0.31441,2.01132l-0.1172,0.21906c0.10656,0.02712 0.17216,0.05523 0.17216,0.05523c0.95154,0.41539 1.87267,0.93063 2.68847,1.57285l1,0.8c0,0 0.97609,0.78087 0.19522,1.75695c-0.78087,0.97609 -1.75695,0.19522 -1.75695,0.19522l-1,-0.8c-0.63046,-0.51501 -1.36061,-0.91276 -2.11153,-1.22715c0,0 -0.62717,-0.26879 -0.75617,-0.87255c-0.1948,-0.0122 -0.41104,-0.08048 -0.6448,-0.23631c-1.04006,-0.69338 -0.34669,-1.73344 -0.34669,-1.73344l0.20263,-0.0834c0.12625,-0.86333 0.27208,-1.74552 0.44065,-2.63751c-0.49585,-0.16586 -0.85321,-0.63405 -0.85321,-1.18571c0,-0.69036 0.55964,-1.25 1.25,-1.25c0.03946,0 0.0785,0.00183 0.11702,0.00541c1.06206,-4.51694 2.76547,-9.07468 5.50689,-12.53627c0,0 0.78087,-0.97609 1.75695,-0.19522c0.97609,0.78087 0.19522,1.75695 0.19522,1.75695c-0.62703,0.77413 -1.19538,1.62072 -1.71034,2.52036c0.8994,0.30477 1.7671,0.74368 2.51512,1.32269l0.30301,0.2922c0,0 0.88388,0.88388 0,1.76777z" fill="#663f3f" stroke="none" stroke-width="0.5"/><path d="M282.89248,102.19794c-0.17678,-0.17677 0,-0.35355 0,-0.35355l0.15317,-0.13503c0.55636,-1.04805 1.32005,-2.79623 0.6013,-4.17383c-1.00873,-2.03409 -2.90459,-3.14873 -3.42101,-5.65693c-0.16654,-0.80888 0.79331,-2.14217 0.79331,-3.15744c0,-3.5636 -3.66954,-2.49983 -4.72639,-0.1882c0,0 -0.1118,0.2236 -0.33541,0.1118c-0.2236,-0.1118 -0.1118,-0.33541 -0.1118,-0.33541c1.38017,-2.59994 5.67361,-3.81614 5.67361,0.4118c0,0.76616 -0.94813,2.59834 -0.80669,3.04256c0.74903,2.35249 2.27168,3.54328 3.37899,5.54307c0.76981,1.59158 -0.01822,3.3565 -0.5987,4.62617l-0.24683,0.26497c0,0 -0.17677,0.17678 -0.35355,0z" data-paper-data="{&quot;index&quot;:null}" fill="#04ff00" stroke="none" stroke-width="0.5"/><path d="M283.88811,103.74207c-0.1209,0.21882 -0.33972,0.09792 -0.33972,0.09792l-0.14633,-0.08085c-0.66804,-0.36947 -1.30959,-0.80345 -2.03348,-1.04232c-3.07845,-2.115 0.25071,-6.85128 0.25071,-9.59566c0,-1.53666 -0.90214,-3.26894 -2.51417,-3.65838c-1.14501,-0.27662 -2.37405,0.62685 -3.34764,0.18198c0,0 -0.2236,-0.1118 -0.1118,-0.33541c0.1118,-0.2236 0.33541,-0.1118 0.33541,-0.1118c0.71944,0.40976 2.25813,-0.49873 3.25236,-0.21802c1.81201,0.5116 2.88583,2.34351 2.88583,4.14162c0,0.85226 0.13382,2.30509 -0.22386,3.08027c-0.69962,1.51627 -2.50449,4.61681 -0.3065,6.06656c0.73089,0.24076 1.37999,0.68098 2.05493,1.0535l0.14633,0.08085c0,0 0.21882,0.1209 0.09792,0.33972z" data-paper-data="{&quot;index&quot;:null}" fill="#1c00ff" stroke="none" stroke-width="0.5"/><path d="M282.87719,104.32119c-0.16005,-0.19205 0.03201,-0.3521 0.03201,-0.3521l0.21589,-0.17991c0.10592,-0.07803 0.21184,-0.15605 0.31776,-0.23408c-0.07876,-1.31189 -0.18688,-4.61546 -1.20411,-5.58187c-1.00845,-0.95807 -2.16011,-1.05491 -3.06949,-2.26209c-1.72242,-2.40579 2.45087,-6.58003 2.44956,-9.25074c0.05993,-1.04005 -2.15772,-1.17103 -2.89211,-0.82542c-1.57824,0.74272 -1.83047,2.13186 -2.42533,3.61901c0,0 -0.09285,0.23212 -0.32497,0.13927c-0.23212,-0.09285 -0.13927,-0.32497 -0.13927,-0.32497c0.62751,-1.56879 0.97798,-3.1259 2.68178,-3.8881c1.17383,-0.52511 3.54184,-0.17312 3.5999,1.27971c0.0012,2.43682 -1.04076,4.00008 -2.25755,6.07499c-0.46926,0.80021 -0.93946,2.06564 -0.292,2.87625c0.88655,1.18683 2.00701,1.24512 3.01749,2.20306c1.11817,1.06004 1.36475,4.71701 1.30891,6.15298c-0.15015,0.13537 -0.30031,0.27074 -0.45046,0.40611l-0.21589,0.17991c0,0 -0.19205,0.16005 -0.3521,-0.03201z" data-paper-data="{&quot;index&quot;:null}" fill="#000000" stroke="none" stroke-width="0.5"/><path d="M282.04607,104.83792c-0.17678,0.17677 -0.35356,0 -0.35356,0l-0.09289,-0.09289c-1.29046,-1.29046 -1.19389,-2.40291 -1.17394,-4.14003c1.36187,-2.85581 1.56352,-6.54467 -0.06815,-9.56825c-0.65997,-2.8226 -4.12519,-4.51611 -4.84309,-0.92657c0,0 -0.04903,0.24514 -0.29417,0.19611c-0.24515,-0.04903 -0.19612,-0.29417 -0.19612,-0.29417c0.81796,-4.0898 4.93964,-2.41154 5.79944,0.84356c1.64632,3.03193 1.51879,6.98948 0.08931,9.86161c0.0228,1.58448 -0.1315,2.50242 1.04027,3.67419l0.09289,0.09289c0,0 0.17678,0.17678 0,0.35355z" data-paper-data="{&quot;index&quot;:null}" fill="#420000" stroke="none" stroke-width="0.5"/><g stroke="none" stroke-width="0.5"><path d="M243.20582,201.19792c-0.17678,0.17678 -0.35355,0 -0.35355,0l-0.24683,-0.26497c-0.58048,-1.26967 -1.36851,-3.03459 -0.5987,-4.62617c1.10731,-1.99979 2.62996,-3.19058 3.37899,-5.54307c0.14144,-0.44422 -0.80669,-2.2764 -0.80669,-3.04256c0,-4.22794 4.29344,-3.01174 5.67361,-0.4118c0,0 0.1118,0.22361 -0.1118,0.33541c-0.22361,0.1118 -0.33541,-0.1118 -0.33541,-0.1118c-1.05685,-2.31163 -4.72639,-3.3754 -4.72639,0.1882c0,1.01527 0.95985,2.34856 0.79331,3.15744c-0.51642,2.5082 -2.41228,3.62284 -3.42101,5.65693c-0.71875,1.3776 0.04494,3.12578 0.6013,4.17383l0.15317,0.13503c0,0 0.17678,0.17678 0,0.35355z" fill="#04ff00"/><path d="M242.2102,202.74205c-0.1209,-0.21882 0.09792,-0.33972 0.09792,-0.33972l0.14633,-0.08085c0.67494,-0.37252 1.32404,-0.81274 2.05493,-1.0535c2.19799,-1.44975 0.39312,-4.55029 -0.3065,-6.06656c-0.35768,-0.77518 -0.22386,-2.22801 -0.22386,-3.08027c0,-1.79811 1.07382,-3.63002 2.88583,-4.14162c0.99423,-0.28071 2.53292,0.62778 3.25236,0.21802c0,0 0.22361,-0.1118 0.33541,0.1118c0.1118,0.22361 -0.1118,0.33541 -0.1118,0.33541c-0.97359,0.44487 -2.20263,-0.4586 -3.34764,-0.18198c-1.61203,0.38944 -2.51417,2.12172 -2.51417,3.65838c0,2.74438 3.32916,7.48066 0.25071,9.59566c-0.72389,0.23887 -1.36544,0.67285 -2.03348,1.04232l-0.14633,0.08085c0,0 -0.21882,0.1209 -0.33972,-0.09792z" fill="#1c00ff"/><path d="M243.22113,203.32119c-0.16005,0.19206 -0.3521,0.03201 -0.3521,0.03201l-0.21589,-0.17991c-0.15015,-0.13537 -0.30031,-0.27074 -0.45046,-0.40611c-0.05584,-1.43597 0.19074,-5.09294 1.30891,-6.15298c1.01048,-0.95794 2.13094,-1.01623 3.01749,-2.20306c0.64746,-0.81061 0.17726,-2.07604 -0.292,-2.87625c-1.21679,-2.07491 -2.25875,-3.63817 -2.25755,-6.07499c0.05806,-1.45283 2.42607,-1.80482 3.5999,-1.27971c1.7038,0.7622 2.05427,2.31931 2.68178,3.8881c0,0 0.09285,0.23212 -0.13927,0.32497c-0.23212,0.09285 -0.32497,-0.13927 -0.32497,-0.13927c-0.59486,-1.48715 -0.84709,-2.87629 -2.42533,-3.61901c-0.73439,-0.34561 -2.95204,-0.21463 -2.89211,0.82542c-0.00131,2.67071 4.17198,6.84495 2.44956,9.25074c-0.90938,1.20718 -2.06104,1.30402 -3.06949,2.26209c-1.01723,0.96641 -1.12535,4.26998 -1.20411,5.58187c0.10592,0.07803 0.21184,0.15605 0.31776,0.23408l0.21589,0.17991c0,0 0.19206,0.16005 0.03201,0.3521z" fill="#000000"/><path d="M244.05225,203.83792c-0.17678,-0.17677 0,-0.35355 0,-0.35355l0.09289,-0.09289c1.17177,-1.17177 1.01747,-2.08971 1.04027,-3.67419c-1.42948,-2.87213 -1.55701,-6.82968 0.08931,-9.86161c0.8598,-3.2551 4.98148,-4.93336 5.79944,-0.84356c0,0 0.04903,0.24514 -0.19612,0.29417c-0.24514,0.04903 -0.29417,-0.19611 -0.29417,-0.19611c-0.7179,-3.58954 -4.18312,-1.89603 -4.84309,0.92657c-1.63167,3.02358 -1.43002,6.71244 -0.06815,9.56825c0.01995,1.73712 0.11652,2.84957 -1.17394,4.14003l-0.09289,0.09289c0,0 -0.17678,0.17677 -0.35356,0z" fill="#420000"/></g><g data-paper-data="{&quot;index&quot;:null}" stroke="none" stroke-width="0.5"><path d="M259.39739,214.53127c-0.1956,-0.17677 0,-0.35355 0,-0.35355l0.16948,-0.13503c0.6156,-1.04805 1.46061,-2.79623 0.66533,-4.17383c-1.11614,-2.03409 -3.21387,-3.14873 -3.78528,-5.65693c-0.18427,-0.80888 0.87778,-2.14217 0.87778,-3.15744c0,-3.5636 -4.06028,-2.49983 -5.22966,-0.1882c0,0 -0.1237,0.2236 -0.37112,0.1118c-0.24741,-0.1118 -0.1237,-0.33541 -0.1237,-0.33541c1.52713,-2.59994 6.27774,-3.81614 6.27774,0.4118c0,0.76616 -1.04909,2.59834 -0.89259,3.04256c0.82879,2.35249 2.51357,3.54328 3.73879,5.54307c0.85178,1.59158 -0.02016,3.3565 -0.66245,4.62617l-0.27311,0.26497c0,0 -0.19559,0.17678 -0.3912,0z" fill="#04ff00"/><path d="M260.49904,216.0754c-0.13377,0.21882 -0.37589,0.09792 -0.37589,0.09792l-0.16191,-0.08085c-0.73917,-0.36947 -1.44904,-0.80345 -2.25001,-1.04232c-3.40625,-2.115 0.27741,-6.85128 0.27741,-9.59566c0,-1.53666 -0.9982,-3.26894 -2.78188,-3.65838c-1.26693,-0.27662 -2.62684,0.62685 -3.7041,0.18198c0,0 -0.24741,-0.1118 -0.1237,-0.33541c0.1237,-0.2236 0.37112,-0.1118 0.37112,-0.1118c0.79605,0.40976 2.49858,-0.49873 3.59868,-0.21802c2.00496,0.5116 3.19312,2.34351 3.19312,4.14162c0,0.85226 0.14807,2.30509 -0.2477,3.08027c-0.77412,1.51627 -2.77117,4.61681 -0.33914,6.06656c0.80872,0.24076 1.52693,0.68098 2.27374,1.0535l0.16191,0.08085c0,0 0.24212,0.1209 0.10835,0.33972z" fill="#1c00ff"/><path d="M259.38048,216.65452c-0.17709,-0.19205 0.03542,-0.3521 0.03542,-0.3521l0.23888,-0.17991c0.1172,-0.07803 0.2344,-0.15605 0.3516,-0.23408c-0.08715,-1.31189 -0.20678,-4.61546 -1.33233,-5.58187c-1.11583,-0.95807 -2.39012,-1.05491 -3.39633,-2.26209c-1.90583,-2.40579 2.71184,-6.58003 2.71039,-9.25074c0.06631,-1.04005 -2.38748,-1.17103 -3.20007,-0.82542c-1.74629,0.74272 -2.02538,2.13186 -2.68358,3.61901c0,0 -0.10274,0.23212 -0.35957,0.13927c-0.25684,-0.09285 -0.1541,-0.32497 -0.1541,-0.32497c0.69433,-1.56879 1.08212,-3.1259 2.96734,-3.8881c1.29882,-0.52511 3.91898,-0.17312 3.98322,1.27971c0.00133,2.43682 -1.15158,4.00008 -2.49794,6.07499c-0.51923,0.80021 -1.0395,2.06564 -0.32309,2.87625c0.98095,1.18683 2.22072,1.24512 3.3388,2.20306c1.23723,1.06004 1.51007,4.71701 1.44828,6.15298c-0.16614,0.13537 -0.33229,0.27074 -0.49843,0.40611l-0.23888,0.17991c0,0 -0.2125,0.16005 -0.38959,-0.03201z" fill="#000000"/><path d="M258.46088,217.17125c-0.1956,0.17677 -0.39121,0 -0.39121,0l-0.10278,-0.09289c-1.42787,-1.29046 -1.32102,-2.40291 -1.29894,-4.14003c1.50688,-2.85581 1.73001,-6.54467 -0.07541,-9.56825c-0.73024,-2.8226 -4.56445,-4.51611 -5.35879,-0.92657c0,0 -0.05425,0.24514 -0.32549,0.19611c-0.27125,-0.04903 -0.217,-0.29417 -0.217,-0.29417c0.90506,-4.0898 5.46562,-2.41154 6.41697,0.84356c1.82162,3.03193 1.68051,6.98948 0.09882,9.86161c0.02523,1.58448 -0.1455,2.50242 1.15104,3.67419l0.10278,0.09289c0,0 0.1956,0.17678 0,0.35355z" fill="#420000"/></g><g data-paper-data="{&quot;index&quot;:null}" stroke="none" stroke-width="0.5"><path d="M282.22583,152.30435c-0.17678,-0.19153 0,-0.38306 0,-0.38306l0.15317,-0.1463c0.55636,-1.13553 1.32005,-3.02964 0.6013,-4.52223c-1.00873,-2.20388 -2.90459,-3.41157 -3.42101,-6.12913c-0.16654,-0.8764 0.79331,-2.32098 0.79331,-3.421c0,-3.86107 -3.66954,-2.7085 -4.72639,-0.20391c0,0 -0.1118,0.24226 -0.33541,0.12113c-0.2236,-0.12113 -0.1118,-0.36341 -0.1118,-0.36341c1.38017,-2.81697 5.67361,-4.13469 5.67361,0.44617c0,0.83011 -0.94813,2.81523 -0.80669,3.29653c0.74903,2.54886 2.27168,3.83905 3.37899,6.00577c0.76981,1.72443 -0.01822,3.63668 -0.5987,5.01233l-0.24683,0.28709c0,0 -0.17677,0.19154 -0.35355,0z" fill="#04ff00"/><path d="M283.22144,153.97737c-0.1209,0.23709 -0.33972,0.10609 -0.33972,0.10609l-0.14633,-0.0876c-0.66804,-0.40031 -1.30959,-0.87052 -2.03348,-1.12933c-3.07845,-2.29155 0.25071,-7.42318 0.25071,-10.39664c0,-1.66493 -0.90214,-3.54181 -2.51417,-3.96376c-1.14501,-0.29971 -2.37405,0.67918 -3.34764,0.19717c0,0 -0.2236,-0.12113 -0.1118,-0.36341c0.1118,-0.24226 0.33541,-0.12113 0.33541,-0.12113c0.71944,0.44396 2.25813,-0.54036 3.25236,-0.23622c1.81201,0.55431 2.88583,2.53913 2.88583,4.48734c0,0.9234 0.13382,2.4975 -0.22386,3.33739c-0.69962,1.64284 -2.50449,5.00219 -0.3065,6.57296c0.73089,0.26086 1.37999,0.73782 2.05493,1.14144l0.14633,0.0876c0,0 0.21882,0.13099 0.09792,0.36808z" fill="#1c00ff"/><path d="M282.21052,154.60483c-0.16005,-0.20808 0.03201,-0.38149 0.03201,-0.38149l0.21589,-0.19493c0.10592,-0.08454 0.21184,-0.16908 0.31776,-0.25362c-0.07876,-1.4214 -0.18688,-5.00073 -1.20411,-6.04781c-1.00845,-1.03804 -2.16011,-1.14297 -3.06949,-2.45091c-1.72242,-2.60661 2.45087,-7.12929 2.44956,-10.02293c0.05993,-1.12687 -2.15772,-1.26878 -2.89211,-0.89432c-1.57824,0.80472 -1.83047,2.30981 -2.42533,3.9211c0,0 -0.09285,0.2515 -0.32497,0.1509c-0.23212,-0.1006 -0.13927,-0.3521 -0.13927,-0.3521c0.62751,-1.69974 0.97798,-3.38683 2.68178,-4.21265c1.17383,-0.56894 3.54184,-0.18757 3.5999,1.38653c0.0012,2.64023 -1.04076,4.33398 -2.25755,6.58209c-0.46926,0.86701 -0.93946,2.23807 -0.292,3.11634c0.88655,1.2859 2.00701,1.34905 3.01749,2.38696c1.11817,1.14853 1.36475,5.11076 1.30891,6.66659c-0.15015,0.14667 -0.30031,0.29334 -0.45046,0.44001l-0.21589,0.19493c0,0 -0.19205,0.17341 -0.3521,-0.03468z" fill="#000000"/><path d="M281.37942,155.1647c-0.17678,0.19153 -0.35356,0 -0.35356,0l-0.09289,-0.10064c-1.29046,-1.39818 -1.19389,-2.60349 -1.17394,-4.48561c1.36187,-3.09419 1.56352,-7.09098 -0.06815,-10.36695c-0.65997,-3.05821 -4.12519,-4.89309 -4.84309,-1.00391c0,0 -0.04903,0.2656 -0.29417,0.21248c-0.24515,-0.05312 -0.19612,-0.31873 -0.19612,-0.31873c0.81796,-4.43119 4.93964,-2.61284 5.79944,0.91397c1.64632,3.28502 1.51879,7.57292 0.08931,10.68479c0.0228,1.71674 -0.1315,2.71131 1.04027,3.98089l0.09289,0.10064c0,0 0.17678,0.19154 0,0.38306z" fill="#420000"/></g></g></g></g></g></svg>