<svg version="1.1" xmlns="http://www.w3.org/2000/svg" xmlns:xlink="http://www.w3.org/1999/xlink" width="895.11288" height="565.12338" viewBox="0,0,895.11288,565.12338"><g transform="translate(209.05794,101.5323)"><g data-paper-data="{&quot;isPaintingLayer&quot;:true}" fill-rule="nonzero" stroke-linecap="butt" stroke-linejoin="miter" stroke-miterlimit="10" stroke-dasharray="" stroke-dashoffset="0" style="mix-blend-mode: normal"><path d="M686.05494,463.59109l-895.11288,-1.42026l263.76443,-316.09167l544.06246,-2.08152z" fill="#5c5c5c" stroke="none" stroke-width="0"/><path d="M-175.87181,421.41876l56.73068,-159.43509l113.67199,-123.4385l4.08546,-210.84219l62.88212,-17.77761l-5.39171,238.3616z" fill="#393939" stroke="none" stroke-width="0"/><path d="M-121.29794,265.33034l3.9905,-65.84329l59.31326,-56.86466l55.86703,-5.98575z" fill="#463b5b" stroke="none" stroke-width="NaN"/><path d="M56.03968,147.61298l-1.66667,-237.03311l546.61638,-1.94792l-1.66667,236.6477z" fill="#181818" stroke="none" stroke-width="0"/><path d="M-56.80557,144.53274l-64.19443,-204.65623l119.19443,-3l-4,202.65623z" fill="#7f7396" stroke="none" stroke-width="0"/><path d="M284.19443,147.35644v-158h79v158z" fill="#999999" stroke="none" stroke-width="0"/><path d="M342.69443,80.35644c1.933,0 3.5,1.567 3.5,3.5c0,1.933 -1.567,3.5 -3.5,3.5c-1.933,0 -3.5,-1.567 -3.5,-3.5c0,-1.933 1.567,-3.5 3.5,-3.5z" fill="#000000" stroke="none" stroke-width="0"/><path d="M289.43433,30.15624v-22h67v22z" fill="#737373" stroke="#000000" stroke-width="0.5"/><text transform="translate(290.43433,26.86513) scale(0.42903,0.42903)" font-size="40" xml:space="preserve" fill="#000000" fill-rule="nonzero" stroke="none" stroke-width="1" stroke-linecap="butt" stroke-linejoin="miter" stroke-miterlimit="10" stroke-dasharray="" stroke-dashoffset="0" font-family="Pixel" font-weight="normal" text-anchor="start" style="mix-blend-mode: normal"><tspan x="0" dy="0">kitchen</tspan></text><g fill="#3c966d" stroke="none"><path d="M159.01147,242.17054c0,8.28427 -9.84974,15 -22,15c-12.15027,0 -22,-6.71573 -22,-15c0,-8.28427 9.84973,-15 22,-15c12.15026,0 22,6.71573 22,15z" stroke-width="NaN"/><path d="M198.01148,153.17054c0,14.35941 -25.96749,26 -58,26c-32.03251,0 -58,-11.64059 -58,-26c0,-14.35941 25.96748,-26 58,-26c32.03251,0 58,11.64059 58,26z" stroke-width="0"/><path d="M124.01148,236.17054v-65h27v65z" stroke-width="0"/><g><path d="M390.01148,269.17053c0,8.28427 -9.84974,15 -22,15c-12.15026,0 -22,-6.71573 -22,-15c0,-8.28427 9.84974,-15 22,-15c12.15026,0 22,6.71573 22,15z" stroke-width="NaN"/><path d="M429.01148,180.17054c0,14.35941 -25.96749,26 -58,26c-32.03251,0 -58,-11.64059 -58,-26c0,-14.35941 25.96749,-26 58,-26c32.03251,0 58,11.64059 58,26z" stroke-width="0"/><path d="M355.01148,263.17053v-65h27v65z" stroke-width="0"/></g><g><path d="M160.01147,383.17054c0,8.28427 -9.84974,15 -22,15c-12.15027,0 -22,-6.71573 -22,-15c0,-8.28427 9.84973,-15 22,-15c12.15026,0 22,6.71573 22,15z" stroke-width="NaN"/><path d="M199.01148,294.17053c0,14.3594 -25.96749,26 -58,26c-32.03251,0 -58,-11.6406 -58,-26c0,-14.3594 25.96748,-26 58,-26c32.03251,0 58,11.6406 58,26z" stroke-width="0"/><path d="M125.01148,377.17054v-65h27v65z" stroke-width="0"/></g><g><path d="M410.01148,408.17054c0,8.28427 -9.84974,15 -22,15c-12.15026,0 -22,-6.71573 -22,-15c0,-8.28427 9.84974,-15 22,-15c12.15026,0 22,6.71573 22,15z" stroke-width="NaN"/><path d="M449.01148,319.17053c0,14.3594 -25.96749,26 -58,26c-32.03251,0 -58,-11.6406 -58,-26c0,-14.3594 25.96749,-26 58,-26c32.03251,0 58,11.6406 58,26z" stroke-width="0"/><path d="M375.01148,402.17054v-65h27v65z" stroke-width="0"/></g><g><path d="M602.01148,278.17053c0,8.28427 -9.84974,15 -22,15c-12.15026,0 -22,-6.71573 -22,-15c0,-8.28427 9.84974,-15 22,-15c12.15026,0 22,6.71573 22,15z" stroke-width="NaN"/><path d="M641.01148,189.17054c0,14.35941 -25.96749,26 -58,26c-32.03251,0 -58,-11.64059 -58,-26c0,-14.35941 25.96749,-26 58,-26c32.03251,0 58,11.64059 58,26z" stroke-width="0"/><path d="M567.01148,272.17053v-65h27v65z" stroke-width="0"/></g><g><path d="M585.01148,424.17054c0,8.28427 -9.84974,15 -22,15c-12.15026,0 -22,-6.71573 -22,-15c0,-8.28427 9.84974,-15 22,-15c12.15026,0 22,6.71573 22,15z" stroke-width="NaN"/><path d="M624.01148,335.17053c0,14.3594 -25.96749,26 -58,26c-32.03251,0 -58,-11.6406 -58,-26c0,-14.3594 25.96749,-26 58,-26c32.03251,0 58,11.6406 58,26z" stroke-width="0"/><path d="M550.01148,418.17054v-65h27v65z" stroke-width="0"/></g></g><g><g data-paper-data="{&quot;index&quot;:null}" fill="#663f3f" stroke="#000000" stroke-width="0.5"><path d="M447.86499,230.19136l0.25598,-2.55941l5.48446,0.54854l-0.25597,2.55941z"/><path d="M444.9582,231.56245l0.25598,-2.55942l5.48446,0.54852l-0.25597,2.55942z"/><path d="M451.4665,228.33581l0.25597,-2.5594l5.48447,0.54852l-0.25598,2.55942z"/><path d="M451.09163,232.08357l0.25597,-2.55942l5.48448,0.54851l-0.25598,2.55942z"/><path d="M445.34214,227.72331l0.25597,-2.55942l5.48448,0.54852l-0.256,2.55942z"/><path d="M448.69674,234.79833l1.06048,-10.60331l2.92505,0.29254l-1.06048,10.6033z"/></g><g data-paper-data="{&quot;index&quot;:null}" fill="#663f3f" stroke="#000000" stroke-width="0.5"><path d="M519.95968,234.53484l0.10819,-2.56991l5.50695,0.23183l-0.10819,2.5699z"/><path d="M517.13667,236.07101l0.10819,-2.56991l5.50694,0.23182l-0.10818,2.56991z"/><path d="M523.44839,232.47499l0.10819,-2.5699l5.50695,0.23182l-0.10819,2.56991z"/><path d="M523.28995,236.23811l0.10819,-2.56992l5.50695,0.23182l-0.10819,2.56991z"/><path d="M517.29891,232.21614l0.10819,-2.56991l5.50696,0.23182l-0.10819,2.56991z"/><path d="M521.0553,239.08627l0.44819,-10.64678l2.93705,0.12364l-0.44819,10.64677z"/></g><g data-paper-data="{&quot;index&quot;:null}" fill="#663f3f" stroke="#000000" stroke-width="0.5"><path d="M519.95968,315.20151l0.10819,-2.5699l5.50695,0.23183l-0.10819,2.5699z"/><path d="M517.13667,316.73771l0.10819,-2.56991l5.50694,0.23182l-0.10818,2.56991z"/><path d="M523.44839,313.14169l0.10819,-2.5699l5.50695,0.23182l-0.10819,2.56991z"/><path d="M523.28995,316.90481l0.10819,-2.56992l5.50695,0.23182l-0.10819,2.56991z"/><path d="M517.29891,312.88283l0.10819,-2.56991l5.50696,0.23182l-0.10819,2.56992z"/><path d="M521.0553,319.75296l0.44819,-10.64679l2.93705,0.12363l-0.44819,10.64678z"/></g><g data-paper-data="{&quot;index&quot;:null}" fill="#663f3f" stroke="#000000" stroke-width="0.5"><path d="M474.87886,317.32556l-0.01919,-2.57211l5.51168,-0.0411l0.01919,2.5721z"/><path d="M472.13536,318.9996l-0.01918,-2.57211l5.51166,-0.0411l0.0192,2.57211z"/><path d="M478.2613,315.0955l-0.01919,-2.5721l5.51168,-0.0411l0.01919,2.57211z"/><path d="M478.28936,318.86186l-0.01918,-2.57212l5.51168,-0.0411l0.01919,2.57211z"/><path d="M472.10655,315.14142l-0.01919,-2.57211l5.51168,-0.04112l0.01918,2.57212z"/><path d="M476.19844,321.81716l-0.07946,-10.65591l2.93957,-0.02192l0.07947,10.65591z"/></g><g data-paper-data="{&quot;index&quot;:null}" fill="#663f3f" stroke="#000000" stroke-width="0.5"><path d="M481.24436,245.09659l1.42688,-3.39034l7.26504,3.0576l-1.42689,3.39034z"/><path d="M476.6946,245.7473l1.42689,-3.39034l7.26502,3.05759l-1.42687,3.39036z"/><path d="M486.94756,244.07607l1.42687,-3.39033l7.26504,3.0576l-1.42689,3.39034z"/><path d="M484.85813,249.04055l1.42689,-3.39036l7.26504,3.0576l-1.42689,3.39034z"/><path d="M478.83486,240.66176l1.42688,-3.39036l7.26506,3.05759l-1.4269,3.39036z"/><path d="M480.44252,251.74314l5.91137,-14.04575l3.8747,1.63071l-5.91136,14.04575z"/></g><g data-paper-data="{&quot;index&quot;:null}" fill="#663f3f" stroke="#000000" stroke-width="0.5"><path d="M500.9085,249.03029l-1.42689,-3.39034l7.26504,-3.0576l1.42688,3.39034z"/><path d="M505.45833,249.681l-1.42687,-3.39036l7.26502,-3.05759l1.42689,3.39034z"/><path d="M495.20539,248.00978l-1.42688,-3.39033l7.26504,-3.0576l1.42687,3.39032z"/><path d="M497.29474,252.97424l-1.42689,-3.39034l7.26504,-3.0576l1.42689,3.39037z"/><path d="M503.31801,244.59546l-1.4269,-3.39036l7.26506,-3.05759l1.42688,3.39036z"/><path d="M505.10072,254.24995l-5.91136,-14.04574l3.8747,-1.63072l5.91137,14.04575z"/></g><g data-paper-data="{&quot;index&quot;:null}" fill="#663f3f" stroke="#000000" stroke-width="0.5"><path d="M512.87749,175.76351l-2.26279,-2.90004l6.21438,-4.84884l2.2628,2.90004z"/><path d="M511.22497,180.05223l-2.26279,-2.90004l6.21436,-4.84883l2.26281,2.90003z"/><path d="M514.77013,170.2876l-2.26279,-2.90001l6.21438,-4.84884l2.26279,2.90004z"/><path d="M518.08353,174.53415l-2.2628,-2.90006l6.21438,-4.84885l2.26279,2.90004z"/><path d="M507.83078,175.70218l-2.26279,-2.90004l6.21437,-4.84886l2.2628,2.90006z"/><path d="M518.28741,179.70719l-9.37444,-12.01446l3.31433,-2.58607l9.37444,12.01445z"/></g><g data-paper-data="{&quot;index&quot;:null}" fill="#663f3f" stroke="#000000" stroke-width="0.5"><path d="M468.58124,168.31969l3.0535,-2.05099l4.395,6.54322l-3.0535,2.051z"/><path d="M468.81578,172.9098l3.05352,-2.05099l4.39499,6.54321l-3.0535,2.051z"/><path d="M468.48833,162.52669l3.0535,-2.051l4.39499,6.54322l-3.05349,2.05099z"/><path d="M464.01708,165.52995l3.0535,-2.051l4.39499,6.54322l-3.05351,2.05101z"/><path d="M473.39603,169.8333l3.05351,-2.05101l4.39499,6.54323l-3.0535,2.051z"/><path d="M464.2631,173.43567l12.65024,-8.49699l2.34399,3.48973l-12.65024,8.497z"/></g><g data-paper-data="{&quot;index&quot;:null}" fill="#663f3f" stroke="#000000" stroke-width="0.5"><path d="M526.69207,78.90202l1.24631,-1.97843l4.23949,2.67067l-1.24631,1.97843z"/><path d="M528.01062,81.50919l1.24633,-1.97843l4.23948,2.67066l-1.24631,1.97843z"/><path d="M525.14601,75.5593l1.24631,-1.97843l4.23948,2.67067l-1.24631,1.97841z"/><path d="M523.32104,78.45628l1.24631,-1.97843l4.23949,2.67067l-1.24631,1.97843z"/><path d="M529.88009,78.54157l1.24631,-1.97843l4.23948,2.67067l-1.24631,1.97843z"/><path d="M525.50024,82.98742l5.16329,-8.19635l2.26105,1.42436l-5.16329,8.19634z"/></g><g fill="#663f3f" stroke="#000000" stroke-width="0.5"><path d="M471.90415,82.66781l-1.24631,-1.97843l4.23949,-2.67067l1.24631,1.97843z"/><path d="M470.58562,85.27499l-1.24631,-1.97843l4.23949,-2.67066l1.24631,1.97843z"/><path d="M473.45024,79.32509l-1.24631,-1.97841l4.23948,-2.67067l1.24631,1.97843z"/><path d="M475.2752,82.22209l-1.24631,-1.97843l4.23949,-2.67067l1.24631,1.97843z"/><path d="M468.71615,82.30735l-1.24631,-1.97843l4.23948,-2.67067l1.24631,1.97843z"/><path d="M475.07441,85.5069l-5.16329,-8.19634l2.26105,-1.42436l5.1633,8.19635z"/></g><g fill="#663f3f" stroke="#000000" stroke-width="0.5"><path d="M489.01172,150.84431l0.45224,-5.31375l11.38662,0.9691l-0.45224,5.31375z"/><path d="M483.02767,153.77575l0.45224,-5.31375l11.38662,0.9691l-0.45223,5.31375z"/><path d="M496.42113,146.88725l0.45223,-5.31375l11.38662,0.9691l-0.45224,5.31375z"/><path d="M495.75892,154.66813l0.45224,-5.31376l11.38662,0.9691l-0.45223,5.31376z"/><path d="M483.70603,145.80512l0.45224,-5.31375l11.38662,0.96908l-0.45224,5.31376z"/><path d="M490.87717,160.36951l1.87358,-22.01415l6.07287,0.51684l-1.87358,22.01415z"/></g><path d="M541.99956,108.81993c0,19.95904 -17.89068,36.13903 -39.05936,36.13903c-13.78379,0 -23.79422,-4.48025 -29.03571,-15.49326c-0.93532,-1.96522 1.10856,-8.73288 0.26344,-10.76965c-1.69227,-4.07845 -8.4619,-2.31199 -8.4619,-6.95579c0,-8.66054 -0.99059,-16.75158 4.16351,-24.37659c6.72402,-9.94755 21.08739,-18.33317 33.07064,-18.33317c21.16868,0 39.05936,19.83041 39.05936,39.78943z" fill="#063800" stroke="#929292" stroke-width="1"/><path d="M512.43089,181.41828c0.1668,27.92199 -2.67198,63.62759 -17.94967,64.18149c-15.61755,0.56622 -16.92673,-34.1988 -17.09353,-62.12078c-0.1668,-27.92199 5.60295,-33.088 16.48951,-33.15303c10.88655,-0.06504 18.3869,3.17033 18.5537,31.09232z" fill="#063800" stroke="#929292" stroke-width="1"/><path d="M465.51943,208.82483c-3.90735,16.29906 -8.78298,21.82442 -14.04212,20.44662c-5.25914,-1.3778 -8.54522,-8.40689 -4.63786,-24.70596c2.06788,-8.62593 7.19626,-22.13495 10.97129,-28.9576c3.35806,-6.06906 5.34049,-6.0092 7.81635,-5.36057c2.95266,0.77354 5.97781,1.13014 5.45073,9.94198c-0.41173,6.88335 -3.84477,21.48734 -5.55839,28.63553z" fill="#063800" stroke="#929292" stroke-width="1"/><path d="M513.95505,181.18056c1.27213,-8.73544 4.30669,-8.47071 7.3549,-8.62896c2.55597,-0.13268 4.5093,0.21101 6.56585,6.83524c2.31193,7.44678 4.59213,21.71543 4.86648,30.58152c0.5184,16.75286 -4.12576,22.96884 -9.55507,23.25069c-5.42931,0.28185 -9.0822,-6.11795 -9.60059,-22.87082c-0.22735,-7.34721 -0.62529,-22.344 0.36842,-29.16767z" data-paper-data="{&quot;index&quot;:null}" fill="#063800" stroke="#929292" stroke-width="1"/><path d="M489.74931,288.89926c-0.98162,19.19845 -5.31829,26.45266 -11.53754,26.00398c-6.21925,-0.44868 -11.40102,-7.68386 -10.4194,-26.88231c0.5195,-10.16037 3.46397,-26.46947 6.28716,-34.95525c2.51135,-7.54847 4.75917,-7.89743 7.68702,-7.6862c3.49171,0.25191 6.97756,0.0185 8.2344,10.06479c0.98178,7.84766 0.17886,25.03523 -0.25165,33.45498z" fill="#063800" stroke="#929292" stroke-width="1"/><path d="M500.69148,256.99791c-0.5627,-10.10896 2.9086,-10.50361 6.29874,-11.37679c2.84269,-0.73218 5.11665,-0.79142 8.93928,6.18524c4.29729,7.84295 10.11502,23.36104 12.44578,33.26409c4.40407,18.71225 0.60185,26.75848 -5.4365,28.31373c-6.03834,1.55525 -11.60407,-4.805 -16.00814,-23.51726c-1.93147,-8.20653 -5.7996,-24.97242 -6.23915,-32.86902z" data-paper-data="{&quot;index&quot;:null}" fill="#063800" stroke="#929292" stroke-width="1"/><g data-paper-data="{&quot;index&quot;:null}" fill="#663f3f" stroke="#000000" stroke-width="0.5"><path d="M453.06396,59.17788l-1.92231,-1.33123l2.85265,-4.11924l1.92231,1.33123z"/><path d="M452.87342,62.09329l-1.92231,-1.33123l2.85265,-4.11924l1.92232,1.33123z"/><path d="M453.17538,55.49663l-1.92231,-1.33123l2.85265,-4.11924l1.92231,1.33123z"/><path d="M455.99025,57.44594l-1.92231,-1.33123l2.85265,-4.11925l1.92231,1.33124z"/><path d="M449.98993,60.09645l-1.92231,-1.33123l2.85265,-4.11925l1.92231,1.33124z"/><path d="M457.09362,60.54639l-7.96387,-5.51512l1.52142,-2.19692l7.96387,5.51511z"/></g><path d="M468.39706,62.91966c4.8226,6.78854 6.23065,14.06879 3.14495,16.26089c-3.0857,2.1921 -9.49666,-1.53407 -14.31926,-8.32261c-4.8226,-6.78854 -6.23065,-14.06878 -3.14495,-16.26088c3.0857,-2.1921 9.49666,1.53407 14.31926,8.32261z" fill="#063800" stroke="#000000" stroke-width="0.5"/><path d="M467.1884,64.02648c3.46422,4.8764 4.47565,10.10603 2.25911,11.68067c-2.21655,1.57464 -6.82171,-1.10197 -10.28593,-5.97837c-3.46422,-4.8764 -4.47565,-10.10602 -2.25911,-11.68066c2.21655,-1.57464 6.82172,1.10196 10.28593,5.97836z" fill="#0a6100" stroke="#000000" stroke-width="0.5"/><path d="M490.3705,101.83722c0,3.47771 -2.61494,6.29695 -5.84065,6.29695c-3.2257,0 -5.84065,-2.81924 -5.84065,-6.29695c0,-3.47771 2.61494,-6.29695 5.84065,-6.29695c3.2257,0 5.84065,2.81924 5.84065,6.29695z" fill="#000000" stroke="#000000" stroke-width="2"/><path d="M525.77939,104.75754c0,3.47771 -2.61494,6.29695 -5.84065,6.29695c-3.2257,0 -5.84065,-2.81925 -5.84065,-6.29695c0,-3.4777 2.61494,-6.29695 5.84065,-6.29695c3.2257,0 5.84065,2.81925 5.84065,6.29695z" fill="#000000" stroke="#000000" stroke-width="2"/><path d="M483.93619,100.90971c-0.96796,0.96796 -1.93592,0 -1.93592,0l-0.65863,-0.72684c-0.55978,-0.98762 -1.06055,-2.0182 -1.42426,-3.0936c0,0 -0.43288,-1.29865 0.86577,-1.73154c1.29865,-0.43288 1.73154,0.86577 1.73154,0.86577c0.29729,0.90797 0.72664,1.77346 1.20403,2.60104l0.21747,0.14925c0,0 0.96796,0.96796 0,1.93592z" fill="#663f3f" stroke="none" stroke-width="0.5"/><path d="M486.69683,102.1165c-1.29865,-0.43288 -0.86577,-1.73154 -0.86577,-1.73154l0.57225,-1.60094c0.71905,-0.74738 1.42014,-1.51485 2.06675,-2.32571c0,0 0.85515,-1.06894 1.92407,-0.21379c1.06894,0.85515 0.21379,1.92407 0.21379,1.92407c-0.58036,0.72334 -1.20289,1.41652 -1.87569,2.05478l-0.30385,1.02736c0,0 -0.43288,1.29865 -1.73154,0.86577z" fill="#663f3f" stroke="none" stroke-width="0.5"/><path d="M482.07766,104.01159c0.09014,-0.40388 0.38222,-1.05826 1.32867,-1.05826c1.3689,0 1.3689,1.3689 1.3689,1.3689l-0.29996,1.07417c-0.94755,1.18444 -1.55375,1.76986 -1.94294,3.24433c0,0 -0.37606,1.31623 -1.6923,0.94016c-1.31623,-0.37606 -0.94016,-1.6923 -0.94016,-1.6923c0.50785,-1.68535 1.15913,-2.59519 2.1778,-3.87702z" fill="#663f3f" stroke="none" stroke-width="0.5"/><path d="M485.64143,103.09785c1.22438,-0.6122 1.83657,0.6122 1.83657,0.6122l0.06357,0.1951c1.08085,1.35107 1.04046,1.81882 2.76746,2.15541c0,0 1.32803,0.33201 0.99602,1.66004c-0.33201,1.32803 -1.66004,0.99602 -1.66004,0.99602c-2.36143,-0.6714 -2.77427,-1.26737 -4.24132,-3.10118l-0.37448,-0.681c0,0 -0.6122,-1.22438 0.6122,-1.83657z" fill="#663f3f" stroke="none" stroke-width="0.5"/><path d="M487.25292,103.81188c-0.02679,0.14879 -0.05729,0.2403 -0.05729,0.2403l-2.64318,1.86915c-1.05619,-0.60888 -2.96591,-0.62448 -3.16857,-1.82664c-0.924,-5.48094 2.9905,-4.0792 5.28548,-3.83352c0,0 1.87083,0.41574 1.45509,2.28657c-0.15127,0.68072 -0.49518,1.0587 -0.87152,1.26414z" fill="#7a0000" stroke="none" stroke-width="0.5"/><path d="M517.76032,111.15569c-0.13139,0.39427 -0.45992,0.88716 -1.28133,0.88716c-1.3689,0 -1.3689,-1.3689 -1.3689,-1.3689l0.51375,-1.28796c1.63001,-1.2998 2.35798,-2.97181 3.73333,-4.40536c-0.17273,-0.12961 -0.34975,-0.25323 -0.53152,-0.37003c-2.24328,-1.4415 -3.52337,-1.36744 -4.52142,-4.23597c0,0 -0.43288,-1.29865 0.86577,-1.73154c1.29865,-0.43288 1.73154,0.86577 1.73154,0.86577c0.69769,2.23031 1.56986,1.6398 3.36346,2.77282c0.38016,0.24015 0.74253,0.50449 1.09021,0.78785c0.85203,-0.86839 1.57241,-1.77301 2.22232,-3.08291c0,0 0.6122,-1.22438 1.83657,-0.6122c1.22438,0.6122 0.6122,1.83657 0.6122,1.83657c-0.77783,1.54537 -1.65385,2.69227 -2.70692,3.77908c0.70059,0.79058 1.35563,1.62742 2.00426,2.44519c0.3868,0.14008 0.84719,0.47356 0.84719,1.26744c0,1.3689 -1.3689,1.3689 -1.3689,1.3689l-1.28796,-0.51375c-0.70906,-0.88633 -1.41236,-1.82723 -2.17981,-2.69899c-1.36116,1.30575 -2.1459,2.97252 -3.57383,4.29682z" fill="#663f3f" stroke="none" stroke-width="0.5"/><path d="M519.10727,101.31066c0.9501,0 1.42918,0.47101 1.67075,0.94603c0.04636,-0.0119 0.09421,-0.02283 0.14365,-0.03271c1.87925,-0.37585 2.2551,1.50339 2.2551,1.50339l0.43028,2.15144c0.02945,0.13353 0.04498,0.27228 0.04498,0.41466c0,1.05844 -0.85803,1.91646 -1.91646,1.91646c-0.32189,0 -0.62524,-0.07935 -0.89155,-0.21957l-1.71771,-0.85886l0.0444,-0.08878c-0.18635,-0.0766 -0.36762,-0.16558 -0.54247,-0.27021c-0.73425,-0.43933 -0.82339,-1.50019 -1.23509,-2.25027l-0.20232,-1.29511c0,0 0,-1.91646 1.91646,-1.91646z" fill="#7a0000" stroke="none" stroke-width="0.5"/><path d="M482.47545,113.08322c0,-0.27378 0.27378,-0.27378 0.27378,-0.27378h0.32854c0.6623,0.03351 0.94781,-0.47882 1.25468,-1.04635c0.64723,-2.59131 -2.99526,-4.03646 -1.77953,-6.51432c0.26611,-0.54238 1.10876,-1.13104 1.53589,-1.55816c0,0 0.1936,-0.1936 0.38718,0c0.1936,0.1936 0,0.38718 0,0.38718c-3.33668,3.33668 1.2982,4.16091 0.36685,7.8836c-0.43804,0.80858 -0.81889,1.36353 -1.76507,1.39561h-0.32854c0,0 -0.27378,0 -0.27378,-0.27378z" fill="#04ff00" stroke="none" stroke-width="0.5"/><path d="M443.29939,69.55952c-0.1936,0.1936 -0.38718,0 -0.38718,0l-0.27031,-0.29017c-0.6357,-1.39044 -1.49869,-3.32325 -0.65565,-5.06622c1.21264,-2.19001 2.88013,-3.49407 3.70041,-6.07034c0.15489,-0.48648 -0.88342,-2.49294 -0.88342,-3.33197c0,-4.63011 4.70184,-3.29822 6.2133,-0.45097c0,0 0.12243,0.24488 -0.12243,0.36731c-0.24488,0.12243 -0.36731,-0.12243 -0.36731,-0.12243c-1.15738,-2.53152 -5.17597,-3.69648 -5.17597,0.2061c0,1.11184 1.05115,2.57196 0.86877,3.45778c-0.56554,2.74679 -2.64174,3.96745 -3.74642,6.19503c-0.78712,1.50864 0.04921,3.42311 0.6585,4.57085l0.16774,0.14787c0,0 0.1936,0.1936 0,0.38718z" fill="#04ff00" stroke="none" stroke-width="0.5"/><path d="M469.83501,123.68348c-0.17472,-0.21079 0.03607,-0.3855 0.03607,-0.3855l0.11075,-0.09179c0.42463,-0.35172 0.85667,-0.65498 1.25014,-1.04196c2.24584,-1.87013 -0.41891,-2.42652 -1.2201,-4.46434c-0.37554,-0.95519 -0.24713,-3.22141 1.03245,-2.75892c0,0 0.24488,0.12243 0.12243,0.36731c-0.12243,0.24488 -0.36731,0.12243 -0.36731,0.12243c-0.44231,-0.3943 -0.44901,1.68051 -0.2817,2.05962c0.94777,2.1475 3.66744,2.92586 1.08147,5.08002c-0.40016,0.39171 -0.83766,0.70046 -1.26797,1.0574l-0.11075,0.09179c0,0 -0.21079,0.17472 -0.3855,-0.03607z" fill="#04ff00" stroke="none" stroke-width="0.5"/><path d="M472.07278,128.27923c0.08004,0.01635 0.21806,0.07272 0.21806,0.2671c0,0.27378 -0.27378,0.27378 -0.27378,0.27378l-0.4928,-0.27378c0,-0.7476 -0.36065,-2.75234 0.3144,-3.27401c0.67122,-0.51873 1.6522,0.1682 1.91709,0.90467c0.04077,-0.20795 0.11528,-0.41136 0.20669,-0.60041c0,0 0.12243,-0.24488 0.36731,-0.12243c0.24488,0.12243 0.12243,0.36731 0.12243,0.36731c-0.12951,0.24829 -0.19744,0.53653 -0.19744,0.81656l-0.04005,0.0503l0.01846,0.00923l-0.21637,0.43275c-0.0439,0.0926 -0.13824,0.15665 -0.24753,0.15665c-0.1303,0 -0.23933,-0.09102 -0.26699,-0.21294l-0.10243,-0.40969c-1.14187,-1.91177 -1.31345,-0.18815 -1.32706,1.61491z" fill="#04ff00" stroke="none" stroke-width="0.5"/><path d="M474.6453,124.00158c-0.27378,0 -0.27378,-0.27378 -0.27378,-0.27378l0.0289,-0.09659c-1.2628,-2.52559 -1.38368,-5.43634 -2.62829,-7.88488c0,0 -0.12243,-0.24488 0.12243,-0.36731c0.24488,-0.12243 0.36731,0.12243 0.36731,0.12243c1.20473,2.45799 1.37542,5.37913 2.62829,7.88488l0.0289,0.34146c0,0 0,0.27378 -0.27378,0.27378z" fill="#1c00ff" stroke="none" stroke-width="0.5"/><path d="M442.20907,71.25054c-0.1324,-0.23963 0.10723,-0.37203 0.10723,-0.37203l0.16025,-0.08854c0.73914,-0.40795 1.44999,-0.89005 2.2504,-1.15371c2.40707,-1.58765 0.43051,-4.98312 -0.33565,-6.64362c-0.3917,-0.84892 -0.24515,-2.43994 -0.24515,-3.37327c0,-1.96915 1.17596,-3.97532 3.16034,-4.53558c1.0888,-0.30741 2.77386,0.6875 3.56173,0.23876c0,0 0.24488,-0.12243 0.36731,0.12243c0.12243,0.24488 -0.12243,0.36731 -0.12243,0.36731c-1.0662,0.48719 -2.41215,-0.50222 -3.66607,-0.19929c-1.76537,0.42648 -2.75332,2.32354 -2.75332,4.00637c0,3.00543 3.64584,8.19224 0.27456,10.50842c-0.79275,0.26159 -1.49532,0.73685 -2.22691,1.14147l-0.16025,0.08854c0,0 -0.23963,0.1324 -0.37203,-0.10723z" fill="#1c00ff" stroke="none" stroke-width="0.5"/><path d="M488.12827,113.63472c-0.24488,0.12243 -0.36731,-0.12243 -0.36731,-0.12243l-0.23698,-0.48387c-0.01173,-0.14927 -0.02347,-0.29853 -0.0352,-0.4478c-2.06063,-1.96231 -1.12588,-6.28518 -2.35611,-8.70541c0,0 -0.12243,-0.24488 0.12243,-0.36731c0.24488,-0.12243 0.36731,0.12243 0.36731,0.12243c1.23404,2.51778 0.35553,6.62562 2.3607,8.71482c0.02218,0.17668 0.04435,0.35335 0.06653,0.53003l0.20106,0.39223c0,0 0.12243,0.24488 -0.12243,0.36731z" fill="#1c00ff" stroke="none" stroke-width="0.5"/><path d="M519.10114,115.41575c-0.27371,-0.00615 -0.26755,-0.27987 -0.26755,-0.27987l0.0198,-0.52218c0.29353,-0.53687 0.66873,-0.9081 0.96208,-1.4393c1.27046,-1.26654 -0.519,-4.31997 -0.09853,-6.19917c0.14522,-0.64907 1.03944,-1.43984 0.67866,-2.00491c0,0 -0.12243,-0.24488 0.12243,-0.36731c0.24488,-0.12243 0.36731,0.12243 0.36731,0.12243c0.42974,1.00313 -0.42452,1.41776 -0.63549,2.37558c-0.44943,2.04043 1.48011,4.92113 0.00321,6.40251c-0.25953,0.47033 -0.60624,0.79232 -0.87131,1.25391l-0.00073,0.39074c0,0 -0.00615,0.27371 -0.27987,0.26755z" fill="#1c00ff" stroke="none" stroke-width="0.5"/><path d="M467.63653,121.94276c-0.27378,0 -0.27378,-0.27378 -0.27378,-0.27378l0.00014,-0.228c0.10389,-2.5527 0.90055,-5.40733 0.87596,-7.8759c0,0 0,-0.27378 0.27378,-0.27378c0.27378,0 0.27378,0.27378 0.27378,0.27378c-0.02082,2.52559 -0.81578,5.29038 -0.87624,7.89386l0.00014,0.21004c0,0 0,0.27378 -0.27378,0.27378z" fill="#000000" stroke="none" stroke-width="0.5"/><path d="M472.11361,135.71237c-0.24488,-0.12243 -0.12243,-0.36731 -0.12243,-0.36731l0.21031,-0.41879c0.75871,-2.34278 -0.39385,-7.12399 2.44384,-7.17938c0,0 0.27378,0 0.27378,0.27378c0,0.27378 -0.27378,0.27378 -0.27378,0.27378c-2.12646,-0.03109 -1.30736,4.83819 -1.93665,6.83818l-0.22774,0.45731c0,0 -0.12243,0.24488 -0.36731,0.12243z" fill="#000000" stroke="none" stroke-width="0.5"/><path d="M443.31614,71.88477c-0.17527,0.21033 -0.38559,0.03505 -0.38559,0.03505l-0.23643,-0.19702c-0.16443,-0.14825 -0.32888,-0.29649 -0.49331,-0.44474c-0.06115,-1.57256 0.20888,-5.57739 1.43342,-6.73826c1.1066,-1.04906 2.33364,-1.1129 3.30452,-2.41262c0.70905,-0.88772 0.19412,-2.27352 -0.31978,-3.14985c-1.33253,-2.27228 -2.47361,-3.98424 -2.47229,-6.65286c0.06358,-1.59103 2.65684,-1.9765 3.94233,-1.40144c1.86587,0.8347 2.24968,2.53993 2.93688,4.25794c0,0 0.10168,0.2542 -0.15252,0.35588c-0.2542,0.10168 -0.35588,-0.15252 -0.35588,-0.15252c-0.65144,-1.62861 -0.92767,-3.14989 -2.65603,-3.96326c-0.80425,-0.37849 -3.23284,-0.23505 -3.16721,0.90394c-0.00143,2.92475 4.56883,7.49606 2.68257,10.13069c-0.99588,1.32201 -2.25709,1.42806 -3.36147,2.47726c-1.11399,1.05834 -1.2324,4.67615 -1.31865,6.11283c0.116,0.08545 0.23199,0.17089 0.34799,0.25635l0.23643,0.19702c0,0 0.21033,0.17527 0.03505,0.38559z" fill="#000000" stroke="none" stroke-width="0.5"/><path d="M487.56539,113.92645c-0.27377,-0.00239 -0.27139,-0.27616 -0.27139,-0.27616l0.00483,-0.55004c0.05431,-1.21499 0.75937,-2.21816 1.15021,-3.39519c0.65802,-1.96606 0.26185,-3.92395 -1.27186,-5.4068c-0.77879,-0.75295 -1.94502,-0.68079 -2.48257,-1.6934c0,0 -0.12243,-0.24488 0.12243,-0.36731c0.24488,-0.12243 0.36731,0.12243 0.36731,0.12243c0.38916,0.85119 1.69614,0.90394 2.37107,1.54236c1.69119,1.59972 2.12433,3.83279 1.41307,5.97587c-0.37777,1.12867 -1.07242,2.09927 -1.12229,3.23652l-0.00465,0.5403c0,0 -0.00239,0.27377 -0.27616,0.27139z" fill="#000000" stroke="none" stroke-width="0.5"/><path d="M523.26875,115.02159c-0.27378,0 -0.27378,-0.27378 -0.27378,-0.27378v-0.21902c0.01187,-0.81197 0.55352,-2.24285 0.9046,-2.96895c1.33146,-2.70474 0.72454,-6.61337 -2.60204,-6.61337c0,0 -0.27378,0 -0.27378,-0.27378c0,-0.27378 0.27378,-0.27378 0.27378,-0.27378c3.75344,0 4.59209,4.35234 3.09259,7.4042c-0.31522,0.60435 -0.86116,2.03071 -0.84759,2.72568v0.21902c0,0 0,0.27378 -0.27378,0.27378z" fill="#000000" stroke="none" stroke-width="0.5"/><path d="M479.83671,115.45175c-0.2659,-0.06524 -0.20067,-0.33113 -0.20067,-0.33113l0.00064,-0.00256c0.59454,-2.18031 2.88017,-3.29389 1.98354,-5.96011c-0.54825,-1.19907 -2.90032,-5.10611 -0.61204,-6.3071c0.79316,-0.41629 1.96661,-0.20413 2.8362,-0.20413c0,0 0.27378,0 0.27378,0.27378c0,0.27378 -0.27378,0.27378 -0.27378,0.27378c-0.59167,0 -2.46956,-0.32462 -2.83861,0.31624c-1.12052,1.94573 0.35717,3.99347 1.12033,5.43789c0.9743,2.9444 -1.468,3.93795 -1.95764,6.30013l-0.00064,0.00256c0,0 -0.06523,0.2659 -0.33112,0.20067z" fill="#420000" stroke="none" stroke-width="0.5"/><path d="M515.4386,117.81415c0,0.27378 -0.27378,0.27378 -0.27378,0.27378l-0.45104,-0.12844c-1.67891,-2.70793 3.24488,-4.59892 3.24312,-7.51194c-0.00658,-2.12972 -1.48431,-3.22578 -1.74906,-5.18935c-0.28773,-2.13387 1.6434,-1.92453 2.84467,-1.02358c0,0 0.21902,0.16427 0.05476,0.38329c-0.16427,0.21902 -0.38329,0.05476 -0.38329,0.05476c-3.62276,-2.71707 -0.22427,4.52533 -0.21951,5.77376c0.00162,2.66383 -4.66801,5.10657 -3.32665,7.22235l-0.01299,-0.12842c0,0 0.27378,0 0.27378,0.27378z" fill="#420000" stroke="none" stroke-width="0.5"/><path d="M444.22633,72.45064c-0.1936,-0.19358 0,-0.38718 0,-0.38718l0.10173,-0.10173c1.28323,-1.28323 1.11425,-2.28849 1.13922,-4.02369c-1.56546,-3.14533 -1.70512,-7.47933 0.09781,-10.79967c0.94159,-3.56473 5.45533,-5.40263 6.3511,-0.9238c0,0 0.05369,0.26846 -0.21478,0.32215c-0.26846,0.05369 -0.32215,-0.21476 -0.32215,-0.21476c-0.78619,-3.93098 -4.58103,-2.07638 -5.30378,1.01471c-1.78688,3.31119 -1.56605,7.35094 -0.07463,10.4784c0.02185,1.90236 0.1276,3.12063 -1.28561,4.53384l-0.10173,0.10173c0,0 -0.1936,0.19358 -0.38719,0z" fill="#420000" stroke="none" stroke-width="0.5"/><path d="M470.89649,126.33066c-0.1936,0.1936 -0.38719,0 -0.38719,0l-0.2729,-0.29551c-0.4018,-0.86678 -0.46436,-1.79568 -0.46436,-2.74539c0,-3.14203 -0.43805,-6.0083 -0.43805,-8.98c0,0 0,-0.27378 0.27378,-0.27378c0.27378,0 0.27378,0.27378 0.27378,0.27378c0,2.96871 0.43805,5.83768 0.43805,8.98c0,0.858 0.03443,1.73318 0.41174,2.51119l0.16514,0.14254c0,0 0.1936,0.19358 0,0.38718z" fill="#420000" stroke="none" stroke-width="0.5"/><path d="M474.6453,136.26695c-0.27378,0 -0.27378,-0.27378 -0.27378,-0.27378v-0.10951c0,-0.30759 0.00133,-0.61518 0.00733,-0.92271c-1.05554,-2.02354 -1.66546,-3.52022 -0.87034,-5.84116c0.30667,-0.89515 -0.1997,-2.01951 0.91777,-2.16138c0,0 0.27378,0 0.27378,0.27378c0,0.27378 -0.27378,0.27378 -0.27378,0.27378c-0.3549,-0.11642 -0.2315,1.2993 -0.39637,1.78106c-0.78167,2.28392 -0.09341,3.53117 0.88186,5.54811c0.0051,0.34948 0.00732,0.69901 0.00732,1.04851v0.10951c0,0 0,0.27378 -0.27378,0.27378z" fill="#420000" stroke="none" stroke-width="0.5"/><path d="M518.7364,115.63267c-0.2278,-0.15187 -0.07592,-0.37967 -0.07592,-0.37967l0.17304,-0.17667c0.00005,-0.85935 -0.20543,-1.65277 -0.22595,-2.48616c-0.84411,-1.79519 -1.69971,-4.58312 -1.07387,-6.68279c0.315,-1.0568 1.70813,-2.02744 2.27137,-0.88325c0,0 0.08658,0.25973 -0.17315,0.34631c-0.25973,0.08657 -0.34631,-0.17316 -0.34631,-0.17316c-0.01319,-0.71137 -1.21868,0.88455 -1.21868,1.66563c0.00001,2.14659 0.19259,3.70113 1.07331,5.60044c0.03186,0.87769 0.24078,1.70992 0.24084,2.61297l-0.265,0.4804c0,0 -0.15187,0.22781 -0.37967,0.07594z" fill="#04ff00" stroke="none" stroke-width="0.5"/><path d="M488.00582,325.17183c0,4.11277 -3.29148,4.81854 -8.43244,4.81854c-5.14096,0 -8.87049,-0.70576 -8.87049,-4.81854c0,-4.11277 3.5105,-5.69464 8.65146,-5.69464c5.14096,0 8.65146,1.58186 8.65146,5.69464z" fill="#063800" stroke="#929292" stroke-width="1"/><path d="M532.46776,321.4484c0,4.11277 -1.75831,3.06634 -6.89927,3.06634c-5.14096,0 -8.03969,1.03212 -7.99439,-3.50439c0.05434,-5.44156 2.19636,-3.94244 7.33732,-3.94244c5.14096,0 7.55634,0.26771 7.55634,4.38049z" fill="#063800" stroke="#929292" stroke-width="1"/><path d="M475.61802,329.57817c-0.24488,-0.12245 -0.12245,-0.36731 -0.12245,-0.36731l0.19745,-0.37852c-0.00235,-0.12903 -0.00471,-0.25805 -0.00706,-0.38707c0.13285,-1.2567 1.58356,-1.89595 1.75926,-2.8983c0.3944,-2.2499 -0.40159,-3.32085 -1.29257,-5.07124c0,0 -0.12243,-0.24488 0.12245,-0.36731c0.24488,-0.12245 0.36731,0.12243 0.36731,0.12243c0.85282,1.74282 1.90476,3.19939 1.33572,5.44194c-0.25709,1.01323 -1.6718,1.60112 -1.74513,2.79635c-0.00235,0.163 -0.00471,0.32602 -0.00706,0.48902l-0.24061,0.49758c0,0 -0.12243,0.24487 -0.36731,0.12243z" fill="#000000" stroke="none" stroke-width="0.5"/><path d="M482.02902,320.22286l0.27455,-0.19177c3.13104,0.065 6.52593,2.34127 4.54711,5.77748c-0.67358,0.23583 -3.32137,-1.5122 -4.67634,-3.16265c0.54827,2.31978 1.61,4.31834 -1.01302,6.46834l-0.1897,0.19358c0,0 -0.1936,0.1936 -0.38719,0c-0.1936,-0.1936 0,-0.38718 0,-0.38718l0.24835,-0.24446c2.85639,-1.85357 1.1651,-4.57528 0.66932,-7.08439c-0.12314,-0.29587 -0.16865,-0.57027 -0.11179,-0.80748c-0.00488,-0.07096 -0.00826,-0.14164 -0.00997,-0.21203c0,0 0,-0.27378 0.27378,-0.27378c0.02471,0 0.04719,0.00222 0.06763,0.00629c0.02946,-0.02157 0.06089,-0.04236 0.09434,-0.0623c0,0 0.1057,-0.05285 0.21294,-0.01966z" fill="#000000" stroke="none" stroke-width="0.5"/><path d="M521.54198,324.05127c-0.1936,-0.1936 0,-0.38718 0,-0.38718l0.16774,-0.14787c0.95349,-1.79616 3.68852,-4.96316 5.88581,-5.40261c0,0 0.26846,-0.05369 0.32215,0.21478c0.05369,0.26846 -0.21476,0.32215 -0.21476,0.32215c-1.92786,0.38557 -4.75587,3.4754 -5.50345,5.11056l-0.27031,0.29017c0,0 -0.1936,0.1936 -0.38718,0z" fill="#000000" stroke="none" stroke-width="0.5"/><path d="M461.24346,55.4758c0.07545,-0.12199 0.23517,-0.12199 0.23517,-0.12199l0.20793,0.01394c0.12678,0.04233 0.25359,0.08467 0.38037,0.127c2.21327,1.10382 4.83672,4.31835 5.97689,6.56794c1.65604,2.5846 2.42437,5.09271 3.78721,7.81839c0.37354,1.19772 2.0665,3.79794 0.68397,5.15137c-0.72831,0.71298 -2.65557,0.33776 -3.61387,0.33776c-1.65044,-0.04363 -2.24807,-3.00206 -2.68654,-4.18445c-0.38279,-1.03223 -2.63309,-1.74729 -3.5414,-2.06213c-0.84254,-0.82229 -2.15563,-1.29734 -2.5494,-2.45823c-0.58717,-1.73105 1.35013,-3.54058 -0.06669,-4.89371c-1.55749,-1.98021 -2.53808,-6.2794 1.17819,-6.29619c0,0 0.00293,0 0.00819,0.0003z" fill="#000000" stroke="none" stroke-width="0.5"/><path d="M505.06189,191.65661c0.10775,18.03758 -1.7261,41.10336 -11.59547,41.46118c-10.08892,0.36577 -10.93465,-22.09239 -11.0424,-40.12996c-0.10775,-18.03758 3.6195,-21.37481 10.65221,-21.41683c7.03271,-0.04201 11.87792,2.04803 11.98567,20.08561z" fill="#109d00" stroke="#929292" stroke-width="1"/><path d="M500.5149,155.34301c2.87844,-0.07332 4.99257,3.17894 4.22183,5.9273c-0.52027,2.60952 -0.54337,5.64014 -4.20148,4.90269c-1.63599,-0.55973 -3.31496,-0.97595 -4.34701,-2.01105c-0.44439,0.31142 -0.98554,0.49417 -1.56939,0.49417c-0.95342,0 -1.79301,-0.48735 -2.28325,-1.22653c-0.55638,0.19675 -1.10484,0.02552 -1.628,0.32337c-1.50459,0.85663 -3.37322,2.06804 -5.25545,2.35303c-1.98796,-1.73878 -1.60019,-4.59916 -0.69967,-6.84212c0.41681,-2.57014 1.68731,-5.82408 4.3758,-3.67328c1.12413,1.16056 2.96137,2.62174 3.87345,4.11831c0.45312,-0.33221 1.01221,-0.5284 1.61712,-0.5284c0.5456,0 1.05392,0.1596 1.48084,0.43465c1.5265,-1.36381 2.76143,-3.02593 4.41521,-4.27216z" fill="#109d00" stroke="none" stroke-width="0.5"/><path d="M486.3042,160.23919c0.1936,-0.1936 0.38719,0 0.38719,0l0.00257,0.01801c1.82847,1.02658 3.53826,0.48205 5.51771,0.80738c0,0 0.27006,0.04501 0.22505,0.31507c-0.04501,0.27006 -0.31507,0.22505 -0.31507,0.22505c-2.05615,-0.34803 -3.76804,0.16968 -5.69119,-0.86751l-0.12627,-0.11082c0,0 -0.1936,-0.1936 0,-0.38719z" fill="#063800" stroke="none" stroke-width="0.5"/><path d="M502.36095,160.88369c0,0.27378 -0.27378,0.27378 -0.27378,0.27378l-0.24276,-0.01175c-1.14636,0.81334 -2.30143,0.26586 -3.4171,0.93902c0,0 -0.23476,0.14085 -0.37563,-0.09391c-0.14085,-0.23476 0.09391,-0.37563 0.09391,-0.37563c1.1758,-0.70197 2.35009,-0.23118 3.54014,-0.99355l0.40144,-0.01174c0,0 0.27378,0 0.27378,0.27378z" fill="#063800" stroke="none" stroke-width="0.5"/><path d="M496.2358,158.61827c0.26846,-0.05369 0.32216,0.21476 0.32216,0.21476l0.05838,0.29777c0.01644,0.04317 0.03587,0.08534 0.05783,0.12633c0.00061,0 0.00122,-0.00001 0.00183,-0.00001c0.27378,0 0.27378,0.27378 0.27378,0.27378c0,0.02776 0.00009,0.05527 0.00027,0.08254c0.03986,0.04998 0.13154,0.19434 0.00691,0.34368c0.02655,0.79077 0.11867,1.37769 0.13915,1.97815c0.43784,-0.13039 0.94833,-0.13571 1.39435,-0.22492c0,0 0.26846,-0.05369 0.32215,0.21476c0.05369,0.26847 -0.21478,0.32215 -0.21478,0.32215c-0.41851,0.08371 -1.12385,0.06043 -1.50748,0.25762c-0.02851,0.48212 -0.12396,1.01172 -0.34789,1.68631l-0.13056,0.17143c0,0 -0.19358,0.19358 -0.38718,0c-0.1936,-0.19358 0,-0.38719 0,-0.38719l-0.00172,0.0426c0.19572,-0.58451 0.29189,-1.04155 0.33014,-1.44589c-0.04808,-0.0401 -0.08651,-0.10426 -0.08651,-0.20684c0,-0.11699 0.04999,-0.184 0.10726,-0.22236c0.00222,-0.69979 -0.14343,-1.31241 -0.16813,-2.32122c-0.12905,-0.16242 -0.23576,-0.34439 -0.31429,-0.53492l-0.07045,-0.34642c0,0 -0.05369,-0.26846 0.21476,-0.32215z" fill="#063800" stroke="none" stroke-width="0.5"/><path d="M492.3603,163.78291c-0.1936,0.19358 -0.38719,0 -0.38719,0l-0.2037,-0.26874c-0.35451,-1.80776 0.1756,-2.57422 0.86104,-3.97685c0,0 0.12245,-0.24488 0.36731,-0.12245c0.24488,0.12245 0.12245,0.36731 0.12245,0.36731c-0.66992,1.31532 -1.17088,1.87963 -0.81386,3.62458l0.05397,-0.01106c0,0 0.1936,0.1936 0,0.38719z" fill="#063800" stroke="none" stroke-width="0.5"/><path d="M468.68612,174.01013c0.48585,-1.32241 1.66358,-1.45698 2.71928,-0.00879c0.67456,0.92536 0.48973,2.03854 0.48973,3.1169c0,3.42326 -1.69211,7.35548 -1.53317,10.7322c-0.02152,1.79316 -1.01891,2.94058 -1.5486,4.47111c-0.66213,1.91319 0.24018,3.47713 -0.81582,5.40018c-1.4246,2.07252 -1.72242,-0.70991 -2.52328,-1.48677c-0.79643,-0.77254 -1.93551,-0.97196 -2.76,-1.47905c-0.89474,-0.55029 -1.26249,-3.00028 -1.65589,-4.00637c-0.01218,-1.47836 -0.30324,-3.49283 0.23493,-4.86557c0.71576,-1.82578 3.58636,-2.53224 4.02836,-4.56717c0.31842,-1.41181 -0.42417,-2.77112 -0.09927,-4.15262c0.34104,-1.45014 2.08795,-2.45341 3.46375,-3.15404z" fill="#000000" stroke="none" stroke-width="0.5"/><path d="M451.60732,204.86679c-0.26097,-0.08277 -0.1782,-0.34374 -0.1782,-0.34374l0.16911,-0.43159c3.4748,-3.47481 4.49767,-1.9038 6.27198,1.7656c0.03474,2.37609 3.05833,8.88205 -0.99095,9.95148c-1.34553,0.34861 -3.91473,2.06366 -5.30718,1.52869c-1.75287,-0.67345 -0.83337,-4.14092 -1.25926,-5.58435c-0.32036,-3.16145 1.25131,-5.51749 2.6821,-8.2067c-0.30346,0.25146 -0.63785,0.56083 -1.00949,0.93246l-0.03435,0.20993c0,0 -0.08277,0.26097 -0.34374,0.1782z" fill="#000000" stroke="none" stroke-width="0.5"/><path d="M507.91648,81.17736c0.01869,-0.00935 0.03666,-0.01656 0.05393,-0.02189c2.46174,-2.10007 6.15229,-0.92267 9.53651,-0.92267c1.2988,0 3.15972,-0.32726 4.38607,0.17732c1.98301,0.81591 2.73451,4.08212 4.20645,5.56898c1.07537,0.53016 2.53154,0.42473 3.5044,1.09513c2.53661,1.74798 1.7681,4.24025 0.76582,6.73509c0.00967,0.97493 -0.30813,1.12721 -0.67297,1.9147c-1.86782,4.03159 -4.9876,-1.35527 -7.33415,-1.68994c-3.42349,-0.77214 -9.18135,0.75459 -9.18135,-4.43799c0,-0.47048 0.20253,-1.56878 0.00419,-1.9801c-1.02747,-2.13078 -4.83054,-2.38211 -5.03396,-5.39423c-0.06358,-0.10672 -0.12337,-0.2178 -0.18082,-0.32892c-0.11817,0.12238 -0.23242,0.25433 -0.34246,0.39651c-0.01115,0.14488 -0.02229,0.28976 -0.03343,0.43465l0.00135,0.19185c0,0 0,0.27378 -0.27378,0.27378c-0.27378,0 -0.27378,-0.27378 -0.27378,-0.27378l0.00136,-0.24618c0.0225,-0.19254 0.04501,-0.38509 0.06751,-0.57763c0.20617,-0.28757 0.42555,-0.53944 0.6568,-0.75961c0.01722,-0.0562 0.05798,-0.1129 0.14231,-0.15505z" fill="#000000" stroke="none" stroke-width="0.5"/><path d="M541.00629,116.03044c-0.8315,1.56009 -2.98091,4.12308 -3.00968,5.57703c-1.50336,3.33559 -3.45841,6.30903 -5.07231,9.46955c-2.06663,2.67415 -5.03342,1.45264 -5.71958,-1.78069c-0.1802,-0.84916 -0.23778,-2.78946 0.49791,-3.19174c0.504,-1.90448 2.38062,-3.63936 3.48725,-5.23436c0.98041,-1.41307 1.28364,-2.82304 2.49164,-4.03105c0.93492,-0.93232 1.46178,-2.50142 2.92714,-2.86932c1.73807,-0.43636 2.51467,1.06037 3.98655,1.44029c0.03478,-0.06728 0.1032,-0.13347 0.23782,-0.13347c0.19089,0 0.24868,0.13309 0.26618,0.21369c0.05625,0.00352 0.11351,0.00533 0.17187,0.00533c0,0 0.27378,0 0.27378,0.27378c0,0.27378 -0.27378,0.27378 -0.27378,0.27378c-0.09061,0 -0.1788,-0.00444 -0.26478,-0.01283z" fill="#000000" stroke="none" stroke-width="0.5"/><path d="M492.0282,116.75035c-0.01657,0.02486 -0.03405,0.0452 -0.05204,0.0617c1.32538,1.20504 3.99839,1.54223 5.56149,1.86068c2.75314,-0.00829 4.27854,0.1374 6.57275,-1.37786c2.57152,-1.03838 5.70353,-1.1656 5.63485,2.52609c0.97366,2.04847 -2.94458,4.51799 -4.25471,5.33121c-2.09172,0.05224 -3.96637,-0.21785 -5.93074,-0.77781c-0.77412,-0.22067 -2.30261,-0.02097 -2.82087,-0.81707c-1.9196,-0.20036 -6.52894,-2.46871 -6.5421,-4.69033c0,-0.51271 -0.44709,-3.03423 0.06638,-3.3703c0.18401,-0.12044 1.16464,0.63202 1.4133,0.69502l0.27577,0.17902c0,0 0.2278,0.15186 0.07594,0.37967z" fill="#000000" stroke="none" stroke-width="0.5"/><path d="M519.99401,317.20173c1.23532,1.2091 1.32105,5.05772 -0.41244,5.56364c-1.15612,0.33742 -1.23185,-1.44114 -1.22291,-2.03255c-0.72976,-1.45951 -0.12273,-2.8283 0.89177,-3.78373l0.18692,-0.00829c0.05521,-0.01988 0.11085,-0.01581 0.15271,-0.00678l0.13019,-0.00577c0,0 0.27358,0 0.27378,0.27348z" fill="#000000" stroke="none" stroke-width="0.5"/><path d="M483.65641,261.29059c0.4137,0.01822 0.82025,0.06708 1.2359,0.17178c4.7078,0.04302 3.11476,5.68639 0.92134,7.92517c-1.145,3.57873 -0.38616,6.86505 -0.80473,10.63219c-0.20764,1.85547 -2.82412,6.35038 -5.47303,5.89669c-1.29409,-0.22164 -0.03072,-1.50176 0.31541,-1.99416c0.03316,-0.62044 -1.54293,-1.25929 -2.08561,-1.65981c-1.41143,-1.04168 -5.66352,-5.13288 -3.47926,-6.96649c2.60449,-1.27526 8.33806,-2.89559 5.58393,-7.04746c-1.22561,-3.12904 -0.35377,-7.33574 3.52833,-7.33574c0,0 0.27378,0 0.27378,0.27378c0,0.04033 -0.00594,0.07473 -0.01607,0.10405z" fill="#000000" stroke="none" stroke-width="0.5"/><path d="M471.98975,273.78945c-0.02726,0.27242 -0.29968,0.24516 -0.29968,0.24516l-0.17331,-0.01735c-3.60905,-0.38006 -3.37068,-3.54596 -2.44244,-6.32211c-0.02267,-3.22978 2.70083,-5.98355 2.74374,-8.7885c0.81975,-1.45862 1.26305,-3.39742 1.64054,-4.91958c0.10441,-0.421 0.47025,-1.98478 1.14645,-1.59847c0.10636,0.06076 0.17366,0.12717 0.2136,0.19607c0.01735,-0.01393 0.03773,-0.02703 0.0616,-0.03896c0.24488,-0.12245 0.36731,0.12245 0.36731,0.12245c0.52501,1.09215 1.57692,3.23749 1.29922,4.56583c-0.33166,1.58651 -1.81788,1.3666 -1.81788,3.22247c0,1.69269 1.06953,5.26271 0.52672,6.6755c-0.42771,1.11324 -1.58893,2.16597 -2.43211,3.00915c-0.97352,0.96823 -1.7487,1.98768 -2.27462,3.11269c0.29035,0.10703 0.62915,0.18167 1.02238,0.21863l0.17331,0.01735c0,0 0.27242,0.02726 0.24516,0.29968zM474.8159,253.0243c-0.08602,0.2398 -0.20894,0.42515 0.20173,0.40336c-0.07169,-0.14804 -0.13992,-0.28371 -0.20173,-0.40336z" fill="#000000" stroke="none" stroke-width="0.5"/><path d="M503.18953,170.53339c0.3997,-0.00451 0.79925,-0.00472 1.19905,-0.00472c1.71381,0.0003 4.6334,0.5364 5.91122,1.87428c0.89688,0.93905 0.91357,2.68412 1.29478,3.83125c0.023,3.84731 0.00353,7.69527 0.00353,11.54264c0,2.53427 -1.00054,4.71783 -1.27969,7.15174c-0.09493,0.82757 0.2376,1.59702 -0.33714,2.26319c-0.88663,0.94698 -1.27394,2.212 -2.32139,3.02973c-2.00223,1.56313 -5.1878,1.85129 -5.1878,-1.31092c0,-2.04748 2.41062,-4.57514 1.48466,-6.64007c-0.21088,-0.47026 -2.02233,-0.94452 -2.49959,-1.19723c-1.15753,-2.16375 -1.50802,-4.72337 -2.76091,-6.77952c-0.2152,-0.35317 -2.15754,-1.00316 -2.66663,-1.37985c-2.07932,-1.5785 -0.4933,-8.13218 -0.4933,-10.6513c0,-3.40065 5.55437,-3.80021 7.58566,-1.83627c0,0 0.04226,0.04227 0.06756,0.10705z" fill="#000000" stroke="none" stroke-width="0.5"/><path d="M490.05229,198.26735c0.1577,-0.06921 0.29326,0.06635 0.29326,0.06635c2.73737,2.74042 5.12938,4.14416 2.83794,8.24438c-0.2275,4.0138 1.71729,6.29182 0.87182,10.30602c-1.93969,2.96491 -5.16452,5.02826 -6.95083,7.87913c-0.81062,1.5926 -2.64242,1.91968 -4.10883,2.83483c-0.2916,0.18199 -1.4839,1.09086 -1.87375,0.93979c-0.80578,-0.31224 -0.18721,-2.36841 -0.18721,-2.99754c0,-3.6884 -0.01352,-7.43384 -1.68648,-10.79435c-0.98651,-3.47147 -0.18878,-7.28441 0.82383,-10.54297c0.46846,-1.49824 1.24585,-4.14711 2.63519,-4.99598c1.15789,-0.70747 3.68871,-0.44637 5.11172,-0.9207c0.57613,-0.18952 0.99916,-0.21516 1.60294,-0.21531h0.36505c0,0 0.21936,0.00001 0.26537,0.19636z" fill="#000000" stroke="none" stroke-width="0.5"/><path d="M489.61545,292.76974c0.1936,0.19358 0,0.38718 0,0.38718l-0.10233,-0.01107c0,0.11686 -0.00257,0.2329 -0.0071,0.34837c0.05326,0.08898 0.10145,0.16658 0.14364,0.22986c0,0 0.15186,0.2278 -0.07594,0.37967c-0.03933,0.02622 -0.0764,0.04112 -0.1108,0.04783c-0.05402,0.63046 -0.13232,1.25604 -0.13232,1.91461c0,3.11962 -0.47166,6.94212 -2.94117,9.2308c0.06387,1.35701 -0.88075,6.88793 -2.76553,7.28395c-0.74905,0.15738 -1.63504,-1.47927 -2.05729,-1.90379c-0.99359,-1.05023 -2.27141,-3.55241 -1.90249,-4.99935c0.42245,-1.65691 1.90373,-2.35292 0.86683,-4.26344c-0.93187,-3.62932 -0.10107,-6.50207 1.91928,-9.50811c0.8528,-1.2277 3.3062,-2.39325 4.92531,-1.54856c0.49069,0.256 1.23374,1.56679 1.77608,2.52178l0.07664,-0.10972c0,0 0.1936,-0.19358 0.38718,0z" fill="#000000" stroke="none" stroke-width="0.5"/><path d="M503.46488,270.41099c0.01686,-0.01686 0.03372,-0.03078 0.05044,-0.04215c-0.07544,-1.10269 -0.13064,-2.21335 -0.13064,-3.32341c0,-2.88806 -0.53675,-6.72603 2.73791,-7.29857c-0.00003,-0.00076 -0.00008,-0.0015 -0.00011,-0.00225c0,0 0,-0.27378 0.27378,-0.27378c0.19109,0 0.24881,0.13337 0.26625,0.21394c0.11567,-0.00701 0.2353,-0.01058 0.35907,-0.01058l0.27622,-0.30569c0,0 0.1936,-0.19358 0.38718,0c0.1936,0.19358 0,0.38718 0,0.38718l-0.45386,0.42439c-0.1369,0 -0.26832,0.00446 -0.39446,0.0132c0.40921,0.54374 1.45488,1.08133 1.87403,1.32923c1.7236,1.01934 4.16146,1.98326 4.16506,4.24528c0,3.76545 0.44168,7.22751 0.84772,10.86209c0.31313,3.01974 0.34368,8.40917 -1.76065,10.75366c0.00291,1.1622 -1.20278,4.11759 -2.80631,2.88156c-0.80005,-0.6167 -2.15465,-3.57441 -2.63199,-4.46517c-1.63378,-2.45197 -1.76564,-5.74688 -2.58965,-8.6781c-0.00399,-0.61289 -0.0267,-1.23496 -0.06079,-1.8644c-0.01056,0.00092 -0.02158,0.00141 -0.03308,0.00141c-0.27378,0 -0.27378,-0.27378 -0.27378,-0.27378c0,-1.29867 0,-2.59733 0,-3.896c-0.0075,-0.09978 -0.0149,-0.19964 -0.02217,-0.29957l-0.08016,0.00867c0,0 -0.1936,-0.19358 0,-0.38718z" fill="#000000" stroke="none" stroke-width="0.5"/><path d="M523.82405,286.4225c-0.01038,-0.06577 0.00424,-0.14463 0.08309,-0.22349c0.1936,-0.19358 0.38719,0 0.38719,0l-0.01107,0.10233c3.58861,0.02334 3.67721,5.75475 4.82947,8.05926c0.0465,3.87548 -0.90527,7.20159 -0.90527,11.01413c0,2.98699 -1.92207,8.08374 -5.39701,6.21515c-0.63724,-1.42264 -2.9491,-2.53786 -3.53474,-4.49313c-0.42587,-1.42186 0.15659,-3.26667 0.17809,-4.70525c1.12407,-2.24815 1.84391,-7.0684 0.56913,-9.48825c-1.2402,-2.49475 0.62047,-6.66797 3.80113,-6.48075z" fill="#000000" stroke="none" stroke-width="0.5"/><path d="M530.22641,195.89665c0.02137,-0.08104 0.08325,-0.19841 0.26251,-0.19841c0.27378,0 0.27378,0.27378 0.27378,0.27378c0,0.54756 0,1.27765 0,1.82521c0,3.26481 -0.66113,8.01549 0.36151,11.08989c-0.0251,3.50059 0.73361,7.0607 0.73361,10.81256c0,3.61575 -3.01136,5.58766 -3.55381,8.93863c-2.37989,0.90032 -4.70413,7.60394 -7.33536,3.64633c-3.00601,-2.98968 1.2532,-6.15873 1.77656,-9.20174c1.5828,-3.07974 1.59362,-6.91148 3.34197,-10.03286c1.0051,-1.79385 1.76715,-3.89903 1.21392,-6.06837c-0.34951,-1.37048 -1.46647,-2.3346 -1.46647,-3.70882c0,-3.23408 0.83386,-6.47009 4.22283,-7.3839c0,0 0.08373,-0.02093 0.16892,0.00772z" fill="#000000" stroke="none" stroke-width="0.5"/><path d="M517.20273,186.13407c2.57446,-0.01277 4.434,-1.31783 4.434,2.4633c0.02094,3.49423 3.0249,6.41852 -0.01408,9.66564c-0.41289,0.55743 -1.8857,2.22731 -2.61546,2.28975c-0.69007,0.05903 -0.68735,-0.65395 -0.96919,-1.02577c-1.23442,-1.62853 -2.16647,-3.3475 -2.99939,-5.2306c-2.16604,-3.2385 0.55252,-4.78235 1.49852,-7.80083c-0.007,-0.02554 -0.011,-0.05458 -0.011,-0.0876c0,-0.1111 0.04509,-0.17711 0.09867,-0.21634c0.03311,-0.12568 0.06297,-0.2539 0.08918,-0.38491c0,0 0.05369,-0.26847 0.32215,-0.21478c0.26846,0.05369 0.21478,0.32215 0.21478,0.32215c-0.01484,0.07422 -0.03094,0.14753 -0.0482,0.21999z" fill="#000000" stroke="none" stroke-width="0.5"/><path d="M496.91867,123.89154c-0.27378,0 -0.27378,-0.27378 -0.27378,-0.27378v-0.21902c0,-0.48016 -0.1415,-0.95828 -0.29387,-1.43708c-1.31614,-0.22983 -2.66484,-0.68597 -3.81025,-1.38785c-0.11913,0.26143 -0.1877,0.48485 -0.16686,0.63469v0.43805c0,0 0,0.27378 -0.27378,0.27378c-0.27378,0 -0.27378,-0.27378 -0.27378,-0.27378v-0.43805c0.02016,-0.28698 0.12478,-0.5992 0.275,-0.92342c-0.84347,-0.59429 -1.54619,-1.33778 -1.99828,-2.23951c0,0 -0.12243,-0.24488 0.12243,-0.36731c0.24488,-0.12243 0.36731,0.12243 0.36731,0.12243c0.39908,0.80049 1.0157,1.46407 1.75792,2.00016c0.3356,-0.60175 0.75802,-1.22153 1.03768,-1.78114c0,0 0.12243,-0.24488 0.36731,-0.12243c0.24488,0.12243 0.12243,0.36731 0.12243,0.36731c-0.21749,0.43475 -0.72399,1.17555 -1.09005,1.82894c1.01271,0.62798 2.2045,1.04773 3.37924,1.27937c-0.26415,-0.9097 -0.37501,-1.82592 0.5577,-2.76726c0,0 0.1936,-0.1936 0.38718,0c0.1936,0.1936 0,0.38718 0,0.38718c-0.80621,0.79771 -0.68306,1.63642 -0.41932,2.4715c0.56842,0.08576 1.12581,0.12746 1.64939,0.12746c0.56289,0.00336 1.12715,0.09034 1.69339,0.2048c0.02644,-0.89273 0.11356,-1.79282 0.11356,-2.55931c0,0 0,-0.27378 0.27378,-0.27378c0.27378,0 0.27378,0.27378 0.27378,0.27378c0,0.79606 -0.09904,1.74492 -0.11984,2.67513c1.30109,0.28945 2.61356,0.62944 3.94463,0.34377c0.38894,-0.08347 0.75396,-0.25171 1.10232,-0.46701c-1.18294,-1.28934 -2.17639,-2.81554 -1.50332,-4.20751c0,0 0.12243,-0.24488 0.36731,-0.12243c0.24488,0.12243 0.12243,0.36731 0.12243,0.36731c-0.58035,1.11256 0.36216,2.49061 1.45583,3.66063c0.81007,-0.60127 1.54129,-1.38226 2.29624,-1.81167c0.11937,-0.12064 0.23874,-0.24129 0.35809,-0.36193l0.05087,-0.05087c0,0 0.1936,-0.1936 0.38718,0c0.1936,0.1936 0,0.38718 0,0.38718l-0.05087,0.05087c-0.13875,0.13748 -0.27751,0.27496 -0.41627,0.41243c-0.75863,0.40311 -1.47964,1.13671 -2.26804,1.74447c0.62857,0.63383 1.2582,1.18465 1.64005,1.56651l0.21902,0.21902c0,0 0.1936,0.1936 0,0.38718c-0.1936,0.1936 -0.38718,0 -0.38718,0l-0.21902,-0.21902c-0.44041,-0.44041 -1.0699,-1.00323 -1.68886,-1.63832c-0.41914,0.28094 -0.86107,0.50689 -1.34001,0.61607c-1.37852,0.31426 -2.73199,-0.0488 -4.07252,-0.34517c0.01213,0.70873 0.09132,1.38668 0.31947,1.95458l0.02134,0.52441c0,0 0.00898,0.27364 -0.26465,0.28262c-0.27364,0.00898 -0.28262,-0.26465 -0.28262,-0.26465l-0.00999,-0.43002c-0.25189,-0.63241 -0.32692,-1.39326 -0.33016,-2.18236c-0.56369,-0.11147 -1.12539,-0.1931 -1.68598,-0.18917c-0.46615,0 -0.955,-0.03164 -1.45333,-0.096c0.15812,0.45855 0.30345,0.91284 0.30345,1.35539v0.21902c0,0 0,0.27378 -0.27378,0.27378z" fill="#ffffff" stroke="none" stroke-width="0.5"/><path d="M460.38644,67.45774c-1.22438,-0.6122 -0.6122,-1.83657 -0.6122,-1.83657l0.12718,-0.20192c0.14601,-0.51106 0.29204,-1.02211 0.43805,-1.53317c0,0 0.09559,-0.33459 0.35909,-0.61819c0.00449,-0.06184 0.01421,-0.12513 0.03019,-0.18951c-0.92133,-1.10761 -1.7906,-2.28641 -2.48768,-3.67965c0,0 -0.6122,-1.22438 0.6122,-1.83657c1.22438,-0.6122 1.83657,0.6122 1.83657,0.6122c0.64073,1.28234 1.41272,2.36699 2.23593,3.37797c0.4423,-0.62918 0.94872,-1.21665 1.48538,-1.76252l0.21902,-0.21902c0,0 0.96796,-0.96796 1.93592,0c0.96796,0.96796 0,1.93592 0,1.93592l-0.21902,0.21902c-0.59912,0.58633 -1.1561,1.24315 -1.56212,1.97755c0.82531,0.93565 1.64373,1.8873 2.38338,2.96641c0.24906,-0.24906 0.49814,-0.49814 0.7472,-0.7472l0.65707,-0.65707c0,0 0.96796,-0.96796 1.93592,0c0.96796,0.96796 0,1.93592 0,1.93592c-0.36504,0.36504 -1.38716,1.38716 -1.7522,1.7522c0,0 -0.02473,0.02473 -0.07023,0.06232c1.01772,1.59571 2.03286,3.20359 3.08858,4.78112l0.26701,0.22942c0,0 0.96796,0.96796 0,1.93592c-0.96796,0.96796 -1.93592,0 -1.93592,0l-0.22736,-0.2414c-0.04244,0.04151 -0.08893,0.08267 -0.13978,0.12334c-1.06894,0.85515 -1.92407,-0.21379 -1.92407,-0.21379c-1.07674,-1.42418 -1.03916,-3.05347 -1.6636,-4.52772c-0.70733,-0.05326 -1.26466,-0.64404 -1.26466,-1.36499c0,-0.1629 0.02845,-0.31916 0.08067,-0.46408c-0.78493,-1.05305 -1.59924,-2.14046 -2.41098,-3.1797c-0.00737,0.0258 -0.01474,0.0516 -0.02211,0.0774l-0.31087,0.67418c0,0 -0.6122,1.22438 -1.83657,0.6122z" fill="#663f3f" stroke="none" stroke-width="0.5"/><path d="M509.78635,85.00375c0,-1.3689 1.3689,-1.3689 1.3689,-1.3689h0.65707c4.60401,0.17887 3.92713,3.38991 3.79616,6.85355l0.10942,-0.10914c2.34376,-1.85689 5.4144,-5.03685 6.69735,-7.69609c0,0 0.6122,-1.22438 1.83657,-0.6122c0.90848,0.45425 0.80583,1.24553 0.69239,1.62361c0.37833,0.0581 0.70561,0.27108 0.91506,0.57217l0.88532,1.23945c0.52317,0.19024 1.27022,0.13427 1.64928,0.41124c0.05372,0.01726 0.10887,0.03788 0.16547,0.06215c1.25822,0.53924 0.71898,1.79746 0.71898,1.79746c-0.54905,1.18945 -1.32732,2.01964 -2.19067,2.73715c0.12375,0.14914 0.18562,0.27289 0.18562,0.27289c1.06074,2.30988 0.83626,3.41162 -0.52344,5.53298l-0.43805,0.65707c0,0 -0.75934,1.13899 -1.89833,0.37967c-1.13899,-0.75934 -0.37967,-1.89833 -0.37967,-1.89833l0.43805,-0.65707c0.84678,-1.19987 1.09801,-1.44374 0.43638,-2.64162c-0.68982,0.52956 -1.3616,1.10899 -1.95187,1.84684l-0.63089,0.84229c0,0 -0.82134,1.09512 -1.91646,0.27378c-0.40907,-0.30681 -0.55074,-0.65182 -0.56769,-0.96367c-1.24036,0.26559 -2.42746,0.35795 -2.99146,0.36136c0,0 -0.82325,0 -1.19289,-0.63842c-0.32307,0.04334 -0.70615,-0.03652 -1.08922,-0.4196c-0.25208,-0.25208 -0.37286,-0.50414 -0.41364,-0.73912c-1.30145,-0.04421 -1.30145,-1.36777 -1.30145,-1.36777c0,-1.2346 0.47929,-2.84279 0.35021,-3.89502c-0.60004,-0.0621 -1.085,-0.51181 -1.20025,-1.09443c-0.06062,-0.00027 -0.12402,0.00192 -0.19032,0.00665h-0.65707c0,0 -1.3689,0 -1.3689,-1.3689z" fill="#663f3f" stroke="none" stroke-width="0.5"/><path d="M539.17484,121.46616c-0.43288,1.29865 -1.73154,0.86577 -1.73154,0.86577l-0.41778,-0.16254c-2.17171,-0.3665 -2.96174,-1.10766 -4.62519,-2.49377c0,0 -1.05162,-0.87635 -0.17527,-1.92797c0.87635,-1.05162 1.92797,-0.17527 1.92797,-0.17527c1.25872,1.04902 1.6611,1.72426 3.25969,1.88672l0.89637,0.27551c0,0 1.29865,0.43288 0.86577,1.73154z" fill="#663f3f" stroke="none" stroke-width="0.5"/><path d="M535.94885,127.92529c-0.75934,1.13899 -1.89833,0.37967 -1.89833,0.37967l-0.57691,-0.38851c-1.59375,-0.92391 -2.69492,-2.05082 -4.11843,-3.18595c0,0 -1.06894,-0.85515 -0.21379,-1.92407c0.85515,-1.06894 1.92407,-0.21379 1.92407,-0.21379c1.30221,1.0448 2.30162,2.12447 3.76645,2.94673l0.73724,0.48759c0,0 1.13899,0.75934 0.37967,1.89833z" fill="#663f3f" stroke="none" stroke-width="0.5"/><path d="M533.14955,132.5144c-0.96796,0.96796 -1.93592,0 -1.93592,0l-0.43805,-0.43805c-1.47744,-1.48166 -3.09017,-2.13162 -4.70573,-3.40342c0,0 -1.06894,-0.85515 -0.21379,-1.92407c0.85515,-1.06894 1.92407,-0.21379 1.92407,-0.21379c1.64141,1.34085 3.37615,2.05418 4.93135,3.60536l0.43805,0.43805c0,0 0.96796,0.96796 0,1.93592z" fill="#663f3f" stroke="none" stroke-width="0.5"/><path d="M479.34192,221.21504c0,-1.27983 1.19654,-1.36311 1.35227,-1.36853c1.50185,-0.56815 2.44331,-1.75271 3.85509,-2.29776c1.99498,-0.7702 4.97839,-0.66568 7.13819,-0.97422c0,0 0.05323,-0.0076 0.14011,-0.00925l-0.20654,-0.85128c-0.14413,-1.01785 -0.30564,-2.00823 -0.45985,-2.99002c-3.18373,0.05661 -7.03854,1.04439 -10.0743,1.92242l-0.20192,0.12718c0,0 -1.22438,0.6122 -1.83657,-0.6122c-0.6122,-1.22438 0.6122,-1.83657 0.6122,-1.83657l0.67418,-0.31087c3.3019,-0.93336 7.01187,-1.76962 10.44028,-1.97866c-0.15692,-1.28219 -0.26287,-2.57917 -0.26287,-3.93291c0,0 0,-0.29453 0.13663,-0.61037c-3.20099,-0.08946 -5.70504,-0.90261 -8.81741,-1.31985l-0.02543,0.01375c0,0 -1.3689,0 -1.3689,-1.3689c0,-1.3689 1.3689,-1.3689 1.3689,-1.3689l0.41262,0.01375c3.23257,0.48437 5.57175,1.29246 8.95564,1.30033c-0.00165,-0.27376 -0.00331,-0.54752 -0.00495,-0.82129c0,0 0,-1.3689 1.3689,-1.3689c1.3689,0 1.3689,1.3689 1.3689,1.3689c-0.00342,0.45531 -0.00683,0.91061 -0.01026,1.36591l0.40743,1.58745c0,0 0.33201,1.32803 -0.99602,1.66004c-0.01815,0.00453 -0.03611,0.00876 -0.05389,0.01269c0.05613,3.02203 0.64493,5.75923 1.07703,8.75984l0.19191,0.73769c0,0 0.33201,1.32803 -0.99602,1.66004c-0.10104,0.02526 -0.19631,0.04091 -0.2861,0.04826c0.16413,1.32193 -1.16646,1.51201 -1.16646,1.51201c-1.93008,0.27573 -4.67415,0.08653 -6.44132,0.77797c-1.43978,0.56334 -2.62683,1.89873 -4.2706,2.45091l-0.6519,0.07025c0,0 -1.3689,0 -1.3689,-1.3689z" fill="#663f3f" stroke="none" stroke-width="0.5"/><path d="M511.20998,173.02967c0,1.3689 -1.3689,1.3689 -1.3689,1.3689l-0.41262,-0.01375c-3.29469,-0.47279 -6.31996,-0.64332 -9.6625,-0.64332c0,0 -0.03181,0 -0.08575,-0.00485c0.18955,1.55904 0.04363,3.12461 -0.18973,4.70831c4.1566,-0.57829 7.93575,-0.43249 12.1028,-0.43249l1.36359,0.2456c0,0 1.34232,0.26847 1.07385,1.61078c-0.26847,1.34232 -1.61078,1.07385 -1.61078,1.07385l-0.82665,-0.19245c-4.09432,0 -7.76697,-0.16004 -11.85275,0.42429c0,0 -0.32438,0.04633 -0.6784,-0.06503c-0.04591,0.29073 -0.09015,0.58228 -0.13127,0.8747l-0.23185,1.17c0,0 -0.26847,1.34232 -1.61078,1.07385c-1.34232,-0.26847 -1.07385,-1.61078 -1.07385,-1.61078l0.11694,-0.57861c-0.09402,0.01666 -0.19638,0.02574 -0.3078,0.02574c-1.3689,0 -1.3689,-1.3689 -1.3689,-1.3689l0.14452,-1.48829c1.02244,-1.89243 1.17362,-4.86659 1.16962,-7.05366c0,0 0,-0.63474 0.43222,-1.03977c0.02279,-0.36337 0.19619,-0.77754 0.76253,-1.0607c1.22438,-0.6122 1.83657,0.6122 1.83657,0.6122c0.08451,0.17807 0.16249,0.35613 0.2343,0.53419c0.35719,-0.19577 0.73155,-0.19577 0.73155,-0.19577c3.46582,0 6.62907,0.18453 10.04969,0.67083l0.02543,-0.01375c0,0 1.3689,0 1.3689,1.3689z" fill="#663f3f" stroke="none" stroke-width="0.5"/><path d="M512.45387,185.73825c0.43288,1.29865 -0.86577,1.73154 -0.86577,1.73154l-0.89637,0.27551c-2.89614,0.39042 -6.59922,-0.88882 -9.21848,0.52632c0,0 -1.22438,0.6122 -1.83657,-0.6122c-0.6122,-1.22438 0.6122,-1.83657 0.6122,-1.83657c3.25137,-1.5431 6.6508,-0.2661 10.05567,-0.78783l0.41778,-0.16254c0,0 1.29865,-0.43288 1.73154,0.86577z" fill="#663f3f" stroke="none" stroke-width="0.5"/><path d="M511.41523,192.7673c0.1936,1.35515 -1.16155,1.54873 -1.16155,1.54873l-1.72677,0.23278c-1.02824,-0.14578 -2.08608,-0.14726 -3.11558,-0.01057c0,0 -1.35833,0.16979 -1.52812,-1.18854c-0.16979,-1.35833 1.18854,-1.52812 1.18854,-1.52812c1.1437,-0.13574 2.31519,-0.17467 3.45515,-0.01057l1.33958,-0.20527c0,0 1.35515,-0.1936 1.54873,1.16155z" fill="#663f3f" stroke="none" stroke-width="0.5"/><path d="M508.36266,200.1887c0,1.3689 -1.3689,1.3689 -1.3689,1.3689l-1.05024,-0.14452c-0.37794,-0.27596 -1.02597,-0.27596 -1.40391,0c0,0 -1.22438,0.6122 -1.83657,-0.6122c-0.6122,-1.22438 0.6122,-1.83657 0.6122,-1.83657c1.18567,-0.49339 2.66701,-0.49339 3.85267,0l-0.17415,-0.14452c0,0 1.3689,0 1.3689,1.3689z" fill="#663f3f" stroke="none" stroke-width="0.5"/><path d="M480.91596,226.80364c-0.33201,-1.32803 0.99602,-1.66004 0.99602,-1.66004l0.59591,-0.11538c1.31133,-0.64628 2.35883,-1.51086 3.57627,-2.32388c0,0 1.13899,-0.75934 1.89833,0.37967c0.75934,1.13899 -0.37967,1.89833 -0.37967,1.89833c-1.31717,0.8765 -2.45455,1.77828 -3.87056,2.49466l-1.15628,0.32267c0,0 -1.32803,0.33201 -1.66004,-0.99602z" fill="#663f3f" stroke="none" stroke-width="0.5"/><path d="M475.50899,262.30402c0,1.3689 -1.3689,1.3689 -1.3689,1.3689l-1.05024,-0.14452c-0.43805,-0.21902 -0.8761,-0.43805 -1.31415,-0.65707c0,0 -1.22438,-0.6122 -0.6122,-1.83657c0.6122,-1.22438 1.83657,-0.6122 1.83657,-0.6122c0.43805,0.21902 0.8761,0.43805 1.31415,0.65707l-0.17415,-0.14452c0,0 1.3689,0 1.3689,1.3689z" fill="#663f3f" stroke="none" stroke-width="0.5"/><path d="M475.98417,256.2632c-0.96796,0.96796 -1.93592,0 -1.93592,0l-1.31415,-1.31415c0,0 -0.96796,-0.96796 0,-1.93592c0.96796,-0.96796 1.93592,0 1.93592,0l1.31415,1.31415c0,0 0.96796,0.96796 0,1.93592z" fill="#663f3f" stroke="none" stroke-width="0.5"/><path d="M474.05035,269.925c-0.6122,1.22438 -1.83657,0.6122 -1.83657,0.6122l-1.38904,-0.69748c-0.60991,-0.44677 -1.40521,-0.73019 -2.16023,-0.69118c0,0 -1.3689,0 -1.3689,-1.3689c0,-1.3689 1.3689,-1.3689 1.3689,-1.3689c1.2295,0.03742 2.49114,0.40935 3.53441,1.06102l1.23925,0.61666c0,0 1.22438,0.6122 0.6122,1.83657z" fill="#663f3f" stroke="none" stroke-width="0.5"/><path d="M483.33915,284.0422c-0.42404,0 -0.71672,-0.13135 -0.91875,-0.31268c-0.40121,-0.04458 -0.80243,-0.08915 -1.20364,-0.13374c0,0 -0.03177,-0.00353 -0.08507,-0.01437l0.22074,0.63022c0,0 0.43288,1.29865 -0.86577,1.73154c-1.29865,0.43288 -1.73154,-0.86577 -1.73154,-0.86577l-0.49063,-1.52776c-0.00445,-0.44033 -0.0005,-0.87195 0.01123,-1.29653c-0.19811,0.15135 -0.47189,0.25592 -0.85024,0.25592c-1.3689,0 -1.3689,-1.3689 -1.3689,-1.3689l0.07025,-1.30898c0.16863,-0.49703 0.33226,-0.99655 0.49201,-1.49811l-1.33871,-0.12999c-0.43805,-0.21902 -0.8761,-0.43805 -1.31415,-0.65707c0,0 -1.22438,-0.6122 -0.6122,-1.83657c0.6122,-1.22438 1.83657,-0.6122 1.83657,-0.6122c0.43805,0.21902 0.8761,0.43805 1.31415,0.65707l0.2639,-0.14452c0,0 0.31132,0 0.63703,0.14847c0.30347,-1.02877 0.59847,-2.06273 0.89406,-3.09807c0,0 0.36756,-1.28644 1.64771,-0.95235c0.18759,-0.86499 0.33741,-1.72376 0.48092,-2.57717c-0.1044,-0.02763 -0.21422,-0.06898 -0.32947,-0.12661c-1.22438,-0.6122 -0.6122,-1.83657 -0.6122,-1.83657c0.24293,-0.48284 0.43372,-0.96827 0.59955,-1.45487c-0.44182,-0.22705 -0.74407,-0.68739 -0.74407,-1.2183c0,-0.75603 0.61287,-1.3689 1.3689,-1.3689c0.05703,0 0.11325,0.00348 0.16845,0.01026c0.16125,-0.48311 0.34515,-0.96486 0.57839,-1.4438l-0.14452,-0.2639c0,0 0,-1.3689 1.3689,-1.3689c0.49789,0 0.81468,0.18109 1.01626,0.41154c0.20329,-0.0052 0.43365,0.04233 0.69105,0.17104c0.19171,0.09586 0.33839,0.20673 0.44946,0.32555c0.11418,-0.64071 0.67409,-1.12713 1.34762,-1.12713c0.66236,0 1.21484,0.47042 1.34158,1.0954c0.74337,0.01461 1.34147,0.62178 1.34147,1.36863c0,0.75603 -0.61287,1.3689 -1.3689,1.3689c-0.66236,0 -1.21484,-0.47042 -1.34158,-1.0954c-0.41564,-0.00817 -0.78588,-0.20159 -1.03154,-0.50112c-0.04397,0.23785 -0.12592,0.40175 -0.12592,0.40175c-0.44589,0.88622 -0.77606,1.78001 -1.035,2.68069c1.00054,0.29874 1.9718,0.72911 2.86581,1.27227c0.38293,0.0625 1.16103,0.31646 1.16103,1.3485c0,1.3689 -1.3689,1.3689 -1.3689,1.3689l-0.97836,-0.22991c-0.69368,-0.47454 -1.47217,-0.84311 -2.27898,-1.08403c-0.21207,1.19692 -0.37695,2.40454 -0.59467,3.6213c0.08206,0.05166 0.12885,0.09065 0.12885,0.09065c0.43805,0.36504 0.8761,0.73009 1.31415,1.09512l0.2136,-0.02801c0,0 1.29865,0.43288 0.86577,1.73154c-0.43288,1.29865 -1.73154,0.86577 -1.73154,0.86577l-1.10054,-0.46606c-0.10995,-0.09162 -0.2199,-0.18325 -0.32984,-0.27486c-0.18226,0.82775 -0.35232,1.63193 -0.50321,2.43219c0.09824,0.057 0.15528,0.10261 0.15528,0.10261c0.58048,0.48207 1.26687,0.85915 1.98701,1.08442l0.88127,-0.07025c0,0 1.3689,0 1.3689,1.3689c0,1.3689 -1.3689,1.3689 -1.3689,1.3689l-1.74703,-0.07025c-0.59965,-0.20863 -1.18283,-0.47891 -1.73455,-0.80133c-0.03787,0.33447 -0.07113,0.67234 -0.09929,1.0149c0.2511,-0.04717 0.44668,-0.02544 0.44668,-0.02544c0.65707,0.07301 1.31415,0.14601 1.97122,0.21902l1.21773,1.57955c0,0 0,1.3689 -1.3689,1.3689z" fill="#663f3f" stroke="none" stroke-width="0.5"/><path d="M490.35001,295.87675c0.37606,1.31623 -0.94016,1.6923 -0.94016,1.6923l-1.71936,0.47748c-1.92882,0.01482 -3.45521,-0.00479 -5.34042,-0.46569c0,0 -0.03304,-0.00826 -0.08739,-0.02738c-0.05723,0.19338 -0.11977,0.38503 -0.18845,0.57448l0.2108,1.21665c0,0 0.08012,0.56082 -0.2235,1.01244c1.59477,-0.03942 3.02213,0.45788 4.78203,0.44055h1.09512c0,0 1.3689,0 1.3689,1.3689c0,1.3689 -1.3689,1.3689 -1.3689,1.3689h-1.09512c-1.93198,-0.01484 -3.73924,-0.93805 -5.57296,-0.33354c0.39992,0.29735 0.53749,0.77881 0.53749,0.77881c0.13197,0.47522 0.23888,0.95946 0.31883,1.44829c1.73785,0.24153 3.31835,0.24306 5.04866,0.6661l0.8761,0.21902c0,0 1.32803,0.33201 0.99602,1.66004c-0.33201,1.32803 -1.66004,0.99602 -1.66004,0.99602l-0.8761,-0.21902c-1.44832,-0.37173 -2.81141,-0.39308 -4.25961,-0.55077c-0.09745,0.40539 -0.39761,1.02969 -1.32205,1.02969c-1.3689,0 -1.3689,-1.3689 -1.3689,-1.3689v-0.43805c0.00893,-0.90587 -0.12832,-1.8216 -0.38537,-2.69028c0,0 -0.33805,-1.18319 0.74867,-1.62649c-0.20639,-0.14007 -0.39234,-0.36679 -0.51207,-0.72597c-0.34834,-1.04501 0.42455,-1.52943 0.73973,-1.67878c-0.48715,-0.33947 -0.5772,-0.96979 -0.5772,-0.96979l-0.22725,-1.84969c0.29676,-0.95246 0.52805,-1.92985 0.6653,-2.91797c0,0 0.1936,-1.35515 1.54873,-1.16155c0.83095,0.11871 1.07958,0.67415 1.14761,1.08609c0.18129,0.00522 0.30496,0.03614 0.30496,0.03614c1.52704,0.39193 2.73474,0.39502 4.29666,0.41041l1.34698,-0.39861c0,0 1.31623,-0.37606 1.6923,0.94016z" fill="#663f3f" stroke="none" stroke-width="0.5"/><path d="M488.4209,291.04546c0.16979,1.35833 -1.18854,1.52812 -1.18854,1.52812l-1.7522,0.21902c0,0 -1.35833,0.16979 -1.52812,-1.18854c-0.16979,-1.35833 1.18854,-1.52812 1.18854,-1.52812l1.7522,-0.21902c0,0 1.35833,-0.16979 1.52812,1.18854z" fill="#663f3f" stroke="none" stroke-width="0.5"/><path d="M502.95949,273.12808c-0.96796,-0.96796 0,-1.93592 0,-1.93592l0.33708,-0.32524c1.62089,-2.00752 3.75077,-3.42353 5.18652,-5.59882c0,0 0.13443,-0.20164 0.37501,-0.37868c-0.26362,-0.32618 -0.54667,-0.64688 -0.86105,-0.96037c0,0 -0.4054,-0.4054 -0.42912,-0.95384c-0.9899,0.43498 -1.91272,0.7682 -2.78533,1.49287l-0.54426,0.5561c0,0 -0.96796,0.96796 -1.93592,0c-0.96796,-0.96796 0,-1.93592 0,-1.93592l0.76988,-0.75804c1.29521,-1.00895 2.51788,-1.39788 3.96637,-2.12667c0,0 1.22438,-0.6122 1.83657,0.6122c0.14192,0.28382 0.18513,0.53476 0.16779,0.75279c0.51574,0.05042 0.88993,0.42461 0.88993,0.42461c1.47558,1.47939 2.32028,3.12575 3.60536,4.71232l0.49241,1.6818c0,0 0.26847,1.34232 -1.07385,1.61078c-1.34232,0.26847 -1.61078,-1.07385 -1.61078,-1.07385l0.05436,-0.50844c-0.32839,-0.41466 -0.62493,-0.83006 -0.91052,-1.24315c-1.4895,2.03152 -3.50227,3.44109 -5.05552,5.40461l-0.53902,0.55086c0,0 -0.96796,0.96796 -1.93592,0z" fill="#663f3f" stroke="none" stroke-width="0.5"/><path d="M505.02227,280.8776c-1.05162,-0.87635 -0.17527,-1.92797 -0.17527,-1.92797l1.08642,-1.30359c1.5853,-1.95985 5.12367,-3.55401 5.65775,-5.86198c0,0 0.37606,-1.31623 1.6923,-0.94016c1.31623,0.37606 0.94016,1.6923 0.94016,1.6923c-1.01964,3.19773 -4.13893,4.2687 -6.16957,6.84144l-1.10383,1.3247c0,0 -0.87635,1.05162 -1.92797,0.17527z" fill="#663f3f" stroke="none" stroke-width="0.5"/><path d="M506.46385,288.02173c-0.96796,-0.96796 0,-1.93592 0,-1.93592l0.33183,-0.31999c2.02587,-1.60439 3.38144,-2.95936 5.0428,-5.0428c0,0 0.85515,-1.06894 1.92407,-0.21379c1.06894,0.85515 0.21379,1.92407 0.21379,1.92407c-1.76201,2.19613 -3.32724,3.73449 -5.47038,5.47038l-0.10622,0.11805c0,0 -0.96796,0.96796 -1.93592,0z" fill="#663f3f" stroke="none" stroke-width="0.5"/><path d="M528.23916,298.82635c0.75603,0 1.3689,0.61287 1.3689,1.3689c0,0.75603 -0.61287,1.3689 -1.3689,1.3689c-0.04747,0 -0.09439,-0.00242 -0.14062,-0.00714l-1.2184,1.61481c-0.56166,0.27929 -1.16608,0.48816 -1.775,0.6857c-0.00522,0.47362 -0.01328,0.94788 -0.02284,1.42267c0.68897,-0.22966 1.37795,-0.45932 2.06692,-0.68897l1.08995,-0.07025c0,0 1.3689,0 1.3689,1.3689c0,1.3689 -1.3689,1.3689 -1.3689,1.3689l-0.22419,-0.07025c-0.8761,0.29204 -1.7522,0.58406 -2.62829,0.8761c0,0 -0.15189,0.05063 -0.36911,0.06531c-0.01064,0.49417 -0.02004,0.9886 -0.02669,1.4831l0.38547,1.10053c0,0 0.43288,1.29865 -0.86577,1.73154c-1.29865,0.43288 -1.73154,-0.86577 -1.73154,-0.86577l-0.19928,-0.62053c-0.01988,0.00347 -0.04009,0.00668 -0.06067,0.00962c-1.35515,0.1936 -1.54873,-1.16155 -1.54873,-1.16155c-0.14944,-1.06195 -0.14794,-2.06648 -0.06391,-3.04009c-0.17219,0.18821 -0.29799,0.403 -0.34863,0.65109c0,0 -0.43288,1.29865 -1.73154,0.86577c-1.29865,-0.43288 -0.86577,-1.73154 -0.86577,-1.73154c0.29723,-0.75226 0.82658,-1.39614 1.45813,-1.94444c-0.14248,-0.64732 0.32163,-1.13952 0.47267,-1.27956c-0.00931,-0.04385 -0.01651,-0.08847 -0.02151,-0.13377l-0.20417,-1.63342c-1.01487,-3.05755 -1.14515,-6.48985 -0.26701,-9.54607l-0.00875,-0.06128l-0.39071,-0.05582l0.21618,-1.51325c0.05379,-0.42485 0.30231,-0.78899 0.65331,-1.00016c-0.05833,-0.41131 0.01596,-0.9979 0.74957,-1.3647c1.22438,-0.6122 1.83657,0.6122 1.83657,0.6122c0.35916,0.72228 0.67134,1.45054 0.94242,2.18419c0.75371,-0.76349 1.65982,-1.40995 2.6569,-1.77552l-0.09703,-0.10735c0,0 0.96796,-0.96796 1.93592,0c0.96796,0.96796 0,1.93592 0,1.93592l-0.97313,0.76874c-0.71651,0.19838 -1.33725,0.74059 -1.79054,1.32989c0,0 -0.37237,0.44684 -0.92293,0.51525c0.15407,0.63586 0.28335,1.27507 0.39145,1.91725c0.82492,-0.62287 1.71333,-1.06101 2.77636,-1.66846l1.34789,-0.67453c0,0 1.22438,-0.6122 1.83657,0.6122c0.6122,1.22438 -0.6122,1.83657 -0.6122,1.83657l-1.28041,0.63962c-1.3028,0.74445 -2.40678,1.0912 -3.30041,2.27652c0,0 -0.14048,0.1756 -0.37875,0.32753c0.05225,0.74319 0.08506,1.48938 0.10382,2.23796c0.18859,-0.08231 0.37702,-0.16993 0.56502,-0.26452l0.09544,-0.57504c0,0 0.48773,-0.81289 1.32791,-0.67986c0.24215,-0.38555 0.67118,-0.64182 1.16006,-0.64182z" fill="#663f3f" stroke="none" stroke-width="0.5"/><path d="M532.0173,215.14807c0,1.3689 -1.3689,1.3689 -1.3689,1.3689l-0.85067,-0.01375c-0.88275,-0.13527 -1.79641,-0.13527 -2.67916,0c0,0 -0.08169,0.01167 -0.2078,0.00922c-0.33521,1.60499 -0.57612,3.21173 -0.77178,4.8232c0.20062,0.08922 0.32699,0.19032 0.32699,0.19032c0.87682,1.00169 1.93512,0.09975 3.14928,-0.2473l0.81411,-0.05268c0,0 1.3689,0 1.3689,1.3689c0,1.3689 -1.3689,1.3689 -1.3689,1.3689l-0.06198,-0.05268c-2.00341,0.57215 -3.03336,1.05224 -4.54614,0.3702c-0.12879,1.313 -0.2474,2.63029 -0.38202,3.95346c0.34923,0 0.69847,0 1.0477,0h0.43805c0,0 1.3689,0 1.3689,1.3689c0,1.3689 -1.3689,1.3689 -1.3689,1.3689c-0.45679,0 -1.26351,0 -1.79462,0c-0.04287,0.33786 -0.08793,0.67616 -0.13561,1.01495l-0.24614,1.01451c0,0 -0.33201,1.32803 -1.66004,0.99602c-1.32803,-0.33201 -0.99602,-1.66004 -0.99602,-1.66004l0.19191,-0.73769c0.05169,-0.35578 0.10044,-0.71103 0.14676,-1.06579c-0.25428,0 -0.50855,0 -0.76283,0l-0.22419,0.14877c0,0 -1.29865,0.43288 -1.73154,-0.86577h0.00001c-0.43288,-1.29865 0.86577,-1.73154 0.86577,-1.73154l1.08995,-0.28928c0.36027,0 0.72054,0 1.08081,0c0.52102,-4.97775 0.80217,-9.87366 2.20248,-14.77692c0,0 0.37606,-1.31623 1.6923,-0.94016c1.13906,0.32545 1.01074,1.35499 0.95556,1.62626c0.86184,-0.05699 1.73226,-0.02799 2.58538,0.08702l0.46348,-0.01375c0,0 1.3689,0 1.3689,1.3689z" fill="#663f3f" stroke="none" stroke-width="0.5"/><path d="M531.79831,207.70124c0,1.3689 -1.3689,1.3689 -1.3689,1.3689c-0.51106,0 -1.24113,0 -1.7522,0c0,0 -1.3689,0 -1.3689,-1.3689c0,-1.3689 1.3689,-1.3689 1.3689,-1.3689c0.51106,0 1.02211,0 1.53317,0h0.21902c0,0 1.3689,0 1.3689,1.3689z" fill="#663f3f" stroke="none" stroke-width="0.5"/><path d="M532.45533,198.50221c0,1.3689 -1.3689,1.3689 -1.3689,1.3689l-0.2639,-0.14452c-0.8761,0.43805 -1.7522,0.8761 -2.62829,1.31415c0,0 -1.22438,0.6122 -1.83657,-0.6122c-0.6122,-1.22438 0.6122,-1.83657 0.6122,-1.83657c0.8761,-0.43805 1.7522,-0.8761 2.62829,-1.31415l1.48829,-0.14452c0,0 1.3689,0 1.3689,1.3689z" fill="#663f3f" stroke="none" stroke-width="0.5"/><path d="M520.79745,185.39814c1.29865,-0.43288 1.73154,0.86577 1.73154,0.86577l-0.0107,0.23482c1.53582,1.97156 1.82361,2.87343 0.81253,5.19076c0,0 -0.02248,0.04497 -0.06746,0.11337c0.22971,1.20025 0.21197,2.32149 0.21197,3.65493l0.17815,0.54409c0,0 0.06769,0.27076 0.01969,0.59832c0.36326,0.50511 0.19933,1.16082 0.19933,1.16082l-2.15925,1.76847c-1.24877,-0.6283 -1.61575,-1.11769 -2.89736,-0.5828c0,0 -1.29865,0.43288 -1.73154,-0.86577c-0.43288,-1.29865 0.86577,-1.73154 0.86577,-1.73154c1.25428,-0.36493 2.08276,-0.38356 2.94914,-0.13976l-0.16174,-0.75183c0,-0.70917 0.02651,-1.34448 -0.00298,-1.9689l-0.1166,-0.0053c-2.14844,-0.66084 -3.85442,-0.85493 -6.02034,-0.21396c0,0 -1.31623,0.37606 -1.6923,-0.94016c-0.37606,-1.31623 0.94016,-1.6923 0.94016,-1.6923c2.35469,-0.65392 4.29139,-0.59889 6.52216,-0.05574c0.10272,-0.31376 0.3449,-0.62847 0.86784,-0.80278c0.00185,-0.00061 0.00369,-0.00123 0.00553,-0.00184c0.17375,-0.55545 -0.20267,-0.77553 -0.8606,-1.56778l-0.44875,-1.07933c0,0 -0.43288,-1.29865 0.86577,-1.73154z" fill="#663f3f" stroke="none" stroke-width="0.5"/><path d="M449.33559,210.35143c0,-0.75603 0.61287,-1.3689 1.3689,-1.3689c0.27792,0 0.53649,0.08282 0.75238,0.22512c0.26943,-0.52561 0.55494,-1.04421 0.85404,-1.56014c-0.46403,-0.21911 -0.78508,-0.69133 -0.78508,-1.23852c0,-0.75603 0.61287,-1.3689 1.3689,-1.3689c0.31843,0 0.61145,0.10872 0.844,0.29106c0.48864,-0.75703 0.99837,-1.52241 1.5214,-2.30979c0,0 0.75934,-1.13899 1.89833,-0.37967c1.13899,0.75934 0.37967,1.89833 0.37967,1.89833c-0.68205,1.01978 -1.34442,1.99251 -1.9637,2.9575c0.80309,0.28978 1.5404,0.79475 1.85884,1.51895l0.8922,0.3296c0,0 1.22438,0.6122 0.6122,1.83657c-0.6122,1.22438 -1.83657,0.6122 -1.83657,0.6122l-1.7361,-0.98455c-0.07666,-0.4129 -0.54101,-0.98181 -0.93707,-0.84215c0,0 -0.12776,0 -0.30521,-0.03903c-0.48793,0.90058 -0.9229,1.82243 -1.28674,2.79603c1.09232,0.05536 2.19807,0.22952 3.20045,0.64182c0.28667,0.0238 1.29358,0.19092 1.29358,1.36495c0,1.3689 -1.3689,1.3689 -1.3689,1.3689l-0.83122,-0.14452c-0.8614,-0.46539 -1.9133,-0.53166 -2.8922,-0.51255c0,0 -0.07187,0 -0.18268,-0.01647c-0.08386,0.40538 -0.15564,0.82166 -0.21438,1.25042l0.01375,0.02543c0,0 0,1.3689 -1.3689,1.3689c-1.3689,0 -1.3689,-1.3689 -1.3689,-1.3689l0.01375,-0.41262c0.24776,-1.67751 0.66707,-3.19225 1.21631,-4.61744c-0.58247,-0.15733 -1.01105,-0.68945 -1.01105,-1.32166z" fill="#663f3f" stroke="none" stroke-width="0.5"/><path d="M471.60368,180.875c-0.96796,0.96796 -1.93592,0 -1.93592,0l-0.10622,-0.11805c-0.61256,-0.51427 -1.37589,-0.86273 -2.14921,-1.06685c0,0 -0.05528,-0.01579 -0.13996,-0.05225c-0.30257,0.67955 -0.5832,1.37582 -0.84339,2.08332c0.44465,0.24221 0.64642,0.71298 0.64642,0.71298c0.46513,1.52076 0.66062,1.16289 2.24617,1.14156h0.21902c0,0 1.3689,0 1.3689,1.3689c0,1.3689 -1.3689,1.3689 -1.3689,1.3689h-0.21902c-2.0836,-0.02102 -3.04225,-0.18871 -3.92537,-1.37051c-0.22044,0.79282 -0.41933,1.58915 -0.59863,2.38186c0.33123,0.09074 0.56059,0.27423 0.56059,0.27423c1.14429,0.95028 1.79742,1.0409 3.28089,1.24696l1.01451,0.24614c0,0 1.32803,0.33201 0.99602,1.66004c-0.33201,1.32803 -1.66004,0.99602 -1.66004,0.99602l-0.73769,-0.19191c-1.67595,-0.24509 -2.75297,-0.53127 -4.0206,-1.39297c-0.13033,0.74777 -0.24452,1.48413 -0.34432,2.20264l-0.12835,0.2399c0.1167,0.0297 0.18854,0.06048 0.18854,0.06048c1.04205,0.4549 2.0508,1.01915 2.9442,1.72246l1.09512,0.8761c0,0 1.06894,0.85515 0.21379,1.92407c-0.85515,1.06894 -1.92407,0.21379 -1.92407,0.21379l-1.09512,-0.8761c-0.69043,-0.564 -1.49003,-0.99958 -2.31238,-1.34388c0,0 -0.68683,-0.29436 -0.8281,-0.95555c-0.21333,-0.01336 -0.45014,-0.08814 -0.70613,-0.25879c-1.13899,-0.75934 -0.37967,-1.89833 -0.37967,-1.89833l0.2219,-0.09133c0.13826,-0.94545 0.29796,-1.91156 0.48257,-2.8884c-0.54302,-0.18164 -0.93437,-0.69436 -0.93437,-1.2985c0,-0.75603 0.61287,-1.3689 1.3689,-1.3689c0.04321,0 0.08597,0.002 0.12815,0.00592c1.16309,-4.9466 3.02853,-9.93788 6.03072,-13.72875c0,0 0.85515,-1.06894 1.92407,-0.21379c1.06894,0.85515 0.21379,1.92407 0.21379,1.92407c-0.68667,0.84777 -1.30909,1.77489 -1.87303,2.7601c0.98495,0.33376 1.93519,0.81442 2.75436,1.44851l0.33183,0.31999c0,0 0.96796,0.96796 0,1.93592z" fill="#663f3f" stroke="none" stroke-width="0.5"/><path d="M455.42563,239.82999c-0.30103,4.58675 -3.72869,4.22071 -7.13769,3.82271c-3.40899,-0.398 -5.83666,-0.71067 -5.20737,-5.26401c0.75206,-5.44172 3.29064,-6.849 6.69964,-6.451c3.40899,0.398 5.95944,3.10767 5.64542,7.8923z" fill="#063800" stroke="#000000" stroke-width="0"/><path d="M522.39555,235.60079c3.42721,-0.18414 5.87286,1.37909 6.28331,6.85716c0.34344,4.58378 -2.09901,4.74408 -5.52622,4.92822c-3.42721,0.18414 -6.87105,0.33522 -6.88478,-4.26139c-0.01432,-4.7949 2.70049,-7.33986 6.1277,-7.524z" data-paper-data="{&quot;index&quot;:null}" fill="#063800" stroke="#000000" stroke-width="0"/><path d="M444.35279,252.52458c-1.3689,0 -1.3689,-1.3689 -1.3689,-1.3689l0.07025,-1.74703c0.83932,-2.48167 0.3007,-4.97307 1.09512,-7.44683c0,0 0.43288,-1.29865 1.73154,-0.86577c1.29865,0.43288 0.86577,1.73154 0.86577,1.73154c-0.83549,2.38532 -0.27667,4.96114 -1.09512,7.44683l0.07025,0.88127c0,0 0,1.3689 -1.3689,1.3689z" fill="#063800" stroke="none" stroke-width="0.5"/><path d="M450.81746,253.35981c-1.32803,0.33201 -1.66004,-0.99602 -1.66004,-0.99602l-0.25989,-1.20811c0,-2.74153 0.06289,-5.45745 -0.21223,-8.18672c0,0 -0.13621,-1.36211 1.2259,-1.49832c1.36211,-0.13621 1.49832,1.2259 1.49832,1.2259c0.28008,2.82211 0.22581,5.6252 0.22581,8.45914l0.17815,0.54409c0,0 0.33201,1.32803 -0.99602,1.66004z" fill="#063800" stroke="none" stroke-width="0.5"/><path d="M456.95016,251.60762c-1.32803,0.33201 -1.66004,-0.99602 -1.66004,-0.99602l-0.43805,-1.7522c-0.53994,-2.20849 -0.26352,-3.60208 -1.71212,-5.39052c0,0 -0.85515,-1.06894 0.21379,-1.92407c1.06894,-0.85515 1.92407,0.21379 1.92407,0.21379c1.73555,2.19148 1.57257,3.87409 2.23031,6.4368l0.43805,1.7522c0,0 0.33201,1.32803 -0.99602,1.66004z" fill="#063800" stroke="none" stroke-width="0.5"/><path d="M439.75327,247.04897c-1.3689,0 -1.3689,-1.3689 -1.3689,-1.3689v-0.43805c0.02397,-3.97397 1.24587,-6.46122 4.21597,-8.9365c0,0 1.05162,-0.87635 1.92797,0.17527c0.87635,1.05162 -0.17527,1.92797 -0.17527,1.92797c-2.33124,1.94254 -3.25502,3.61653 -3.23086,6.83326v0.43805c0,0 0,1.3689 -1.3689,1.3689z" fill="#063800" stroke="none" stroke-width="0.5"/><path d="M530.40605,248.08935v-0.43805c0.02416,-3.21672 -0.89962,-4.89072 -3.23086,-6.83326c0,0 -1.05162,-0.87636 -0.17527,-1.92797c0.87635,-1.05161 1.92797,-0.17526 1.92797,-0.17526c2.97009,2.47528 4.192,4.96254 4.21597,8.9365v0.43805c0,0 0,1.3689 -1.3689,1.3689c-1.3689,0 -1.3689,-1.3689 -1.3689,-1.3689z" data-paper-data="{&quot;index&quot;:null}" fill="#063800" stroke="none" stroke-width="0.5"/><path d="M526.21219,254.44105l0.07024,-0.88127c-0.81845,-2.48569 -0.25963,-5.06151 -1.09512,-7.44683c0,0 -0.43289,-1.29866 0.86577,-1.73154c1.29866,-0.43289 1.73154,0.86577 1.73154,0.86577c0.79441,2.47376 0.2558,4.96517 1.09512,7.44683l0.07024,1.74703c0,0 0,1.3689 -1.3689,1.3689c-1.3689,0 -1.3689,-1.3689 -1.3689,-1.3689z" data-paper-data="{&quot;index&quot;:null}" fill="#063800" stroke="none" stroke-width="0.5"/><path d="M520.77742,255.64222l0.17815,-0.54409c0,-2.83394 -0.05425,-5.63703 0.22583,-8.45914c0,0 0.13621,-1.36211 1.49831,-1.2259c1.3621,0.13621 1.2259,1.49832 1.2259,1.49832c-0.27512,2.72926 -0.21222,5.44519 -0.21222,8.18672l-0.25989,1.20809c0,0 -0.33201,1.32803 -1.66004,0.99602c-1.32803,-0.33201 -0.99602,-1.66004 -0.99602,-1.66004z" data-paper-data="{&quot;index&quot;:null}" fill="#063800" stroke="none" stroke-width="0.5"/><path d="M515.49398,253.45198l0.43805,-1.7522c0.65775,-2.56271 0.49478,-4.24533 2.23031,-6.4368c0,0 0.85515,-1.06894 1.92409,-0.21379c1.06894,0.85515 0.21379,1.92409 0.21379,1.92409c-1.44859,1.78844 -1.17217,3.18203 -1.71211,5.39052l-0.43805,1.7522c0,0 -0.33201,1.32803 -1.66004,0.99602c-1.32803,-0.33201 -0.99602,-1.66004 -0.99602,-1.66004z" data-paper-data="{&quot;index&quot;:null}" fill="#063800" stroke="none" stroke-width="0.5"/><path d="M453.77085,238.25961c0,2.52568 -2.01024,4.57315 -4.49,4.57315c-2.47976,0 -4.49,-2.04747 -4.49,-4.57315c0,-2.52568 2.01024,-4.57315 4.49,-4.57315c2.47976,0 4.49,2.04747 4.49,4.57315z" fill="#109d00" stroke="#000000" stroke-width="0"/><path d="M526.70594,241.98303c0,2.52568 -2.01024,4.57315 -4.49,4.57315c-2.47975,0 -4.49,-2.04747 -4.49,-4.57315c0,-2.52568 2.01025,-4.57315 4.49,-4.57315c2.47975,0 4.49,2.04747 4.49,4.57315z" fill="#109d00" stroke="#000000" stroke-width="0"/><path d="M539.69206,89.63679c-0.1936,-0.19358 0,-0.38718 0,-0.38718l0.16774,-0.14787c0.60928,-1.14774 1.44562,-3.06221 0.6585,-4.57085c-1.10468,-2.22758 -3.18088,-3.44824 -3.74642,-6.19503c-0.18238,-0.88582 0.86877,-2.34594 0.86877,-3.45778c0,-3.90258 -4.01859,-2.73762 -5.17597,-0.2061c0,0 -0.12243,0.24487 -0.36731,0.12243c-0.24487,-0.12243 -0.12243,-0.36731 -0.12243,-0.36731c1.51145,-2.84725 6.2133,-4.17914 6.2133,0.45097c0,0.83904 -1.03832,2.8455 -0.88342,3.33197c0.82028,2.57626 2.48777,3.88032 3.70041,6.07034c0.84304,1.74297 -0.01995,3.67578 -0.65565,5.06622l-0.27031,0.29017c0,0 -0.19358,0.1936 -0.38718,0z" data-paper-data="{&quot;index&quot;:null}" fill="#04ff00" stroke="none" stroke-width="0.5"/><path d="M540.78239,91.3278c-0.1324,0.23963 -0.37203,0.10723 -0.37203,0.10723l-0.16025,-0.08854c-0.73159,-0.40461 -1.43416,-0.87988 -2.22691,-1.14147c-3.37128,-2.31618 0.27456,-7.50299 0.27456,-10.50842c0,-1.68283 -0.98795,-3.57989 -2.75332,-4.00637c-1.25393,-0.30293 -2.59987,0.68648 -3.66607,0.19929c0,0 -0.24487,-0.12243 -0.12243,-0.36731c0.12243,-0.24487 0.36731,-0.12243 0.36731,-0.12243c0.78787,0.44874 2.47293,-0.54617 3.56173,-0.23876c1.98437,0.56026 3.16034,2.56643 3.16034,4.53558c0,0.93333 0.14655,2.52436 -0.24515,3.37327c-0.76617,1.6605 -2.74272,5.05597 -0.33565,6.64362c0.80041,0.26366 1.51126,0.74576 2.2504,1.15371l0.16025,0.08854c0,0 0.23963,0.1324 0.10723,0.37203z" data-paper-data="{&quot;index&quot;:null}" fill="#1c00ff" stroke="none" stroke-width="0.5"/><path d="M539.67531,91.962c-0.17527,-0.21032 0.03505,-0.38559 0.03505,-0.38559l0.23643,-0.19702c0.116,-0.08545 0.23199,-0.17089 0.34799,-0.25635c-0.08625,-1.43668 -0.20466,-5.05449 -1.31865,-6.11283c-1.10438,-1.0492 -2.36558,-1.15526 -3.36147,-2.47726c-1.88626,-2.63463 2.684,-7.20594 2.68257,-10.13069c0.06563,-1.13898 -2.36297,-1.28242 -3.16721,-0.90394c-1.72837,0.81337 -2.00459,2.33465 -2.65603,3.96326c0,0 -0.10168,0.2542 -0.35588,0.15252c-0.2542,-0.10168 -0.15252,-0.35588 -0.15252,-0.35588c0.6872,-1.71802 1.07101,-3.42324 2.93688,-4.25794c1.28549,-0.57506 3.87875,-0.18959 3.94233,1.40144c0.00131,2.66862 -1.13976,4.38058 -2.47229,6.65286c-0.5139,0.87633 -1.02882,2.26213 -0.31978,3.14985c0.97088,1.29972 2.19792,1.36356 3.30452,2.41262c1.22453,1.16087 1.49457,5.1657 1.43342,6.73826c-0.16443,0.14825 -0.32888,0.29649 -0.49331,0.44474l-0.23643,0.19702c0,0 -0.21032,0.17527 -0.38559,-0.03505z" data-paper-data="{&quot;index&quot;:null}" fill="#000000" stroke="none" stroke-width="0.5"/><path d="M538.76513,92.52789c-0.1936,0.19358 -0.38719,0 -0.38719,0l-0.10173,-0.10173c-1.41321,-1.41321 -1.30746,-2.63148 -1.28561,-4.53384c1.49141,-3.12746 1.71225,-7.16721 -0.07463,-10.4784c-0.72275,-3.09109 -4.51759,-4.94569 -5.30378,-1.01471c0,0 -0.05369,0.26846 -0.32215,0.21476c-0.26847,-0.05369 -0.21478,-0.32215 -0.21478,-0.32215c0.89577,-4.47883 5.40951,-2.64093 6.3511,0.9238c1.80292,3.32033 1.66326,7.65433 0.09781,10.79967c0.02497,1.7352 -0.14401,2.74046 1.13922,4.02369l0.10173,0.10173c0,0 0.1936,0.1936 0,0.38718z" data-paper-data="{&quot;index&quot;:null}" fill="#420000" stroke="none" stroke-width="0.5"/><g stroke="none" stroke-width="0.5"><path d="M496.23032,198.05386c-0.1936,0.1936 -0.38718,0 -0.38718,0l-0.27031,-0.29017c-0.6357,-1.39044 -1.49869,-3.32325 -0.65565,-5.06622c1.21264,-2.19001 2.88013,-3.49407 3.70041,-6.07034c0.15489,-0.48648 -0.88342,-2.49294 -0.88342,-3.33197c0,-4.63011 4.70184,-3.29822 6.2133,-0.45097c0,0 0.12243,0.24488 -0.12243,0.36731c-0.24488,0.12243 -0.36731,-0.12243 -0.36731,-0.12243c-1.15738,-2.53152 -5.17597,-3.69648 -5.17597,0.2061c0,1.11184 1.05115,2.57196 0.86877,3.45778c-0.56554,2.74679 -2.64174,3.96745 -3.74642,6.19503c-0.78712,1.50864 0.04921,3.42311 0.6585,4.57085l0.16774,0.14787c0,0 0.1936,0.1936 0,0.38718z" fill="#04ff00"/><path d="M495.13999,199.74487c-0.1324,-0.23963 0.10723,-0.37203 0.10723,-0.37203l0.16025,-0.08854c0.73914,-0.40795 1.44999,-0.89005 2.2504,-1.15371c2.40707,-1.58765 0.43051,-4.98312 -0.33565,-6.64362c-0.3917,-0.84892 -0.24515,-2.43994 -0.24515,-3.37327c0,-1.96915 1.17596,-3.97532 3.16034,-4.53558c1.0888,-0.30741 2.77386,0.6875 3.56173,0.23876c0,0 0.24488,-0.12243 0.36731,0.12243c0.12243,0.24488 -0.12243,0.36731 -0.12243,0.36731c-1.0662,0.48719 -2.41215,-0.50222 -3.66607,-0.19929c-1.76537,0.42648 -2.75332,2.32354 -2.75332,4.00637c0,3.00543 3.64584,8.19224 0.27456,10.50842c-0.79275,0.26159 -1.49532,0.73685 -2.22691,1.14147l-0.16025,0.08854c0,0 -0.23963,0.1324 -0.37203,-0.10723z" fill="#1c00ff"/><path d="M496.24705,200.3791c-0.17527,0.21033 -0.38559,0.03505 -0.38559,0.03505l-0.23643,-0.19702c-0.16443,-0.14825 -0.32888,-0.29649 -0.49331,-0.44474c-0.06115,-1.57256 0.20888,-5.57739 1.43342,-6.73826c1.1066,-1.04906 2.33364,-1.1129 3.30452,-2.41262c0.70905,-0.88772 0.19412,-2.27352 -0.31978,-3.14985c-1.33253,-2.27228 -2.47361,-3.98424 -2.47229,-6.65286c0.06358,-1.59103 2.65684,-1.9765 3.94233,-1.40144c1.86587,0.8347 2.24968,2.53993 2.93688,4.25794c0,0 0.10168,0.2542 -0.15252,0.35588c-0.2542,0.10168 -0.35588,-0.15252 -0.35588,-0.15252c-0.65144,-1.62861 -0.92767,-3.14989 -2.65603,-3.96326c-0.80425,-0.37849 -3.23284,-0.23505 -3.16721,0.90394c-0.00143,2.92475 4.56883,7.49606 2.68257,10.13069c-0.99588,1.32201 -2.25709,1.42806 -3.36147,2.47726c-1.11399,1.05834 -1.2324,4.67615 -1.31865,6.11283c0.116,0.08545 0.23199,0.17089 0.34799,0.25635l0.23643,0.19702c0,0 0.21033,0.17527 0.03505,0.38559z" fill="#000000"/><path d="M497.15725,200.94498c-0.1936,-0.19358 0,-0.38718 0,-0.38718l0.10173,-0.10173c1.28323,-1.28323 1.11425,-2.28849 1.13922,-4.02369c-1.56546,-3.14533 -1.70512,-7.47933 0.09781,-10.79967c0.94159,-3.56473 5.45533,-5.40263 6.3511,-0.9238c0,0 0.05369,0.26846 -0.21478,0.32215c-0.26846,0.05369 -0.32215,-0.21476 -0.32215,-0.21476c-0.78619,-3.93098 -4.58103,-2.07638 -5.30378,1.01471c-1.78688,3.31119 -1.56605,7.35094 -0.07463,10.4784c0.02185,1.90236 0.1276,3.12063 -1.28561,4.53384l-0.10173,0.10173c0,0 -0.1936,0.19358 -0.38719,0z" fill="#420000"/></g><g data-paper-data="{&quot;index&quot;:null}" stroke="none" stroke-width="0.5"><path d="M513.96206,212.6555c-0.21421,-0.19358 0,-0.38718 0,-0.38718l0.1856,-0.14787c0.67416,-1.14774 1.59955,-3.06221 0.72862,-4.57085c-1.22231,-2.22758 -3.51958,-3.44824 -4.14534,-6.19503c-0.2018,-0.88582 0.96128,-2.34594 0.96128,-3.45778c0,-3.90258 -4.4465,-2.73762 -5.72712,-0.2061c0,0 -0.13547,0.24487 -0.40642,0.12243c-0.27094,-0.12243 -0.13547,-0.36731 -0.13547,-0.36731c1.67239,-2.84725 6.87489,-4.17914 6.87489,0.45097c0,0.83904 -1.14888,2.8455 -0.9775,3.33197c0.90763,2.57626 2.75267,3.88032 4.09443,6.07034c0.9328,1.74297 -0.02208,3.67578 -0.72546,5.06622l-0.29909,0.29017c0,0 -0.21419,0.1936 -0.42841,0z" fill="#04ff00"/><path d="M515.1685,214.34651c-0.14649,0.23963 -0.41165,0.10723 -0.41165,0.10723l-0.17731,-0.08854c-0.80948,-0.40461 -1.58688,-0.87988 -2.46404,-1.14147c-3.73026,-2.31618 0.3038,-7.50299 0.3038,-10.50842c0,-1.68283 -1.09315,-3.57989 -3.0465,-4.00637c-1.38744,-0.30293 -2.87671,0.68648 -4.05644,0.19929c0,0 -0.27094,-0.12243 -0.13547,-0.36731c0.13547,-0.24487 0.40642,-0.12243 0.40642,-0.12243c0.87177,0.44874 2.73625,-0.54617 3.94099,-0.23876c2.19568,0.56026 3.49686,2.56643 3.49686,4.53558c0,0.93333 0.16215,2.52436 -0.27126,3.37327c-0.84776,1.6605 -3.03477,5.05597 -0.3714,6.64362c0.88565,0.26366 1.67217,0.74576 2.49002,1.15371l0.17731,0.08854c0,0 0.26515,0.1324 0.11866,0.37203z" fill="#1c00ff"/><path d="M513.94354,214.98072c-0.19394,-0.21032 0.03879,-0.38559 0.03879,-0.38559l0.2616,-0.19702c0.12835,-0.08545 0.2567,-0.17089 0.38504,-0.25635c-0.09544,-1.43668 -0.22645,-5.05449 -1.45906,-6.11283c-1.22197,-1.0492 -2.61747,-1.15526 -3.7194,-2.47726c-2.08712,-2.63463 2.9698,-7.20594 2.96821,-10.13069c0.07262,-1.13898 -2.61458,-1.28242 -3.50447,-0.90394c-1.9124,0.81337 -2.21804,2.33465 -2.93885,3.96326c0,0 -0.11251,0.2542 -0.39377,0.15252c-0.28127,-0.10168 -0.16876,-0.35588 -0.16876,-0.35588c0.76038,-1.71802 1.18505,-3.42324 3.2496,-4.25794c1.42237,-0.57506 4.29176,-0.18959 4.36211,1.40144c0.00146,2.66862 -1.26112,4.38058 -2.73555,6.65286c-0.56862,0.87633 -1.13838,2.26213 -0.35382,3.14985c1.07426,1.29972 2.43196,1.36356 3.65639,2.41262c1.35492,1.16087 1.65371,5.1657 1.58604,6.73826c-0.18194,0.14825 -0.3639,0.29649 -0.54584,0.44474l-0.2616,0.19702c0,0 -0.23271,0.17527 -0.42665,-0.03505z" fill="#000000"/><path d="M512.93647,215.5466c-0.21421,0.19358 -0.42842,0 -0.42842,0l-0.11256,-0.10173c-1.56369,-1.41321 -1.44668,-2.63148 -1.4225,-4.53384c1.65022,-3.12746 1.89457,-7.16721 -0.08258,-10.4784c-0.7997,-3.09109 -4.99863,-4.94569 -5.86853,-1.01471c0,0 -0.05941,0.26846 -0.35645,0.21476c-0.29705,-0.05369 -0.23764,-0.32215 -0.23764,-0.32215c0.99115,-4.47883 5.98552,-2.64093 7.02737,0.9238c1.9949,3.32033 1.84036,7.65433 0.10822,10.79967c0.02763,1.7352 -0.15934,2.74046 1.26053,4.02369l0.11256,0.10173c0,0 0.21421,0.1936 0,0.38718z" fill="#420000"/></g><g stroke="none" stroke-width="0.5"><path d="M446.94982,229.08231c-0.1936,0.1936 -0.38718,0 -0.38718,0l-0.27031,-0.29017c-0.6357,-1.39044 -1.49869,-3.32325 -0.65565,-5.06622c1.21264,-2.19001 2.88013,-3.49407 3.70041,-6.07034c0.15489,-0.48648 -0.88342,-2.49294 -0.88342,-3.33197c0,-4.63011 4.70184,-3.29822 6.2133,-0.45097c0,0 0.12243,0.24488 -0.12243,0.36731c-0.24488,0.12243 -0.36731,-0.12243 -0.36731,-0.12243c-1.15738,-2.53152 -5.17597,-3.69648 -5.17597,0.2061c0,1.11184 1.05115,2.57196 0.86877,3.45778c-0.56554,2.74679 -2.64174,3.96745 -3.74642,6.19503c-0.78712,1.50864 0.04921,3.42311 0.6585,4.57085l0.16774,0.14787c0,0 0.1936,0.1936 0,0.38718z" fill="#04ff00"/><path d="M445.85949,230.77332c-0.1324,-0.23963 0.10723,-0.37203 0.10723,-0.37203l0.16025,-0.08854c0.73914,-0.40795 1.44999,-0.89005 2.2504,-1.15371c2.40707,-1.58765 0.43051,-4.98312 -0.33565,-6.64362c-0.3917,-0.84892 -0.24515,-2.43994 -0.24515,-3.37327c0,-1.96915 1.17596,-3.97532 3.16034,-4.53558c1.0888,-0.30741 2.77386,0.6875 3.56173,0.23876c0,0 0.24488,-0.12243 0.36731,0.12243c0.12243,0.24488 -0.12243,0.36731 -0.12243,0.36731c-1.0662,0.48719 -2.41215,-0.50222 -3.66607,-0.19929c-1.76537,0.42648 -2.75332,2.32354 -2.75332,4.00637c0,3.00543 3.64584,8.19224 0.27456,10.50842c-0.79275,0.26159 -1.49532,0.73685 -2.22691,1.14147l-0.16025,0.08854c0,0 -0.23963,0.1324 -0.37203,-0.10723z" fill="#1c00ff"/><path d="M446.96655,231.40755c-0.17527,0.21033 -0.38559,0.03505 -0.38559,0.03505l-0.23643,-0.19702c-0.16443,-0.14825 -0.32888,-0.29649 -0.49331,-0.44474c-0.06115,-1.57256 0.20888,-5.57739 1.43342,-6.73826c1.1066,-1.04906 2.33364,-1.1129 3.30452,-2.41262c0.70905,-0.88772 0.19412,-2.27352 -0.31978,-3.14985c-1.33253,-2.27228 -2.47361,-3.98424 -2.47229,-6.65286c0.06358,-1.59103 2.65684,-1.9765 3.94233,-1.40144c1.86587,0.8347 2.24968,2.53993 2.93688,4.25794c0,0 0.10168,0.2542 -0.15252,0.35588c-0.2542,0.10168 -0.35588,-0.15252 -0.35588,-0.15252c-0.65144,-1.62861 -0.92767,-3.14989 -2.65603,-3.96326c-0.80425,-0.37849 -3.23284,-0.23505 -3.16721,0.90394c-0.00143,2.92475 4.56883,7.49606 2.68257,10.13069c-0.99588,1.32201 -2.25709,1.42806 -3.36147,2.47726c-1.11399,1.05834 -1.2324,4.67615 -1.31865,6.11283c0.116,0.08545 0.23199,0.17089 0.34799,0.25635l0.23643,0.19702c0,0 0.21033,0.17527 0.03505,0.38559z" fill="#000000"/><path d="M447.87675,231.97343c-0.1936,-0.19358 0,-0.38718 0,-0.38718l0.10173,-0.10173c1.28323,-1.28323 1.11425,-2.28849 1.13922,-4.02369c-1.56546,-3.14533 -1.70512,-7.47933 0.09781,-10.79967c0.94159,-3.56473 5.45533,-5.40263 6.3511,-0.9238c0,0 0.05369,0.26846 -0.21478,0.32215c-0.26846,0.05369 -0.32215,-0.21476 -0.32215,-0.21476c-0.78619,-3.93098 -4.58103,-2.07638 -5.30378,1.01471c-1.78688,3.31119 -1.56605,7.35094 -0.07463,10.4784c0.02185,1.90236 0.1276,3.12063 -1.28561,4.53384l-0.10173,0.10173c0,0 -0.1936,0.19358 -0.38719,0z" fill="#420000"/></g><g stroke="none" stroke-width="0.5"><path d="M463.01159,283.47337c-0.1936,0.1936 -0.38718,0 -0.38718,0l-0.27031,-0.29017c-0.6357,-1.39044 -1.49869,-3.32325 -0.65565,-5.06622c1.21264,-2.19001 2.88013,-3.49407 3.70041,-6.07034c0.15489,-0.48648 -0.88342,-2.49294 -0.88342,-3.33197c0,-4.63011 4.70184,-3.29822 6.2133,-0.45097c0,0 0.12243,0.24488 -0.12243,0.36731c-0.24488,0.12243 -0.36731,-0.12243 -0.36731,-0.12243c-1.15738,-2.53152 -5.17597,-3.69648 -5.17597,0.2061c0,1.11184 1.05115,2.57196 0.86877,3.45778c-0.56554,2.74679 -2.64174,3.96745 -3.74642,6.19503c-0.78712,1.50864 0.04921,3.42311 0.6585,4.57085l0.16774,0.14787c0,0 0.1936,0.1936 0,0.38718z" fill="#04ff00"/><path d="M461.92127,285.16439c-0.1324,-0.23963 0.10723,-0.37203 0.10723,-0.37203l0.16025,-0.08854c0.73914,-0.40795 1.44999,-0.89005 2.2504,-1.15371c2.40707,-1.58765 0.43051,-4.98312 -0.33565,-6.64362c-0.3917,-0.84892 -0.24515,-2.43994 -0.24515,-3.37327c0,-1.96915 1.17596,-3.97532 3.16034,-4.53558c1.0888,-0.30741 2.77386,0.6875 3.56173,0.23876c0,0 0.24488,-0.12243 0.36731,0.12243c0.12243,0.24488 -0.12243,0.36731 -0.12243,0.36731c-1.0662,0.48719 -2.41215,-0.50222 -3.66607,-0.19929c-1.76537,0.42648 -2.75332,2.32354 -2.75332,4.00637c0,3.00543 3.64584,8.19224 0.27456,10.50842c-0.79275,0.26159 -1.49532,0.73685 -2.22691,1.14147l-0.16025,0.08854c0,0 -0.23963,0.1324 -0.37203,-0.10723z" fill="#1c00ff"/><path d="M463.02834,285.79862c-0.17527,0.21033 -0.38559,0.03505 -0.38559,0.03505l-0.23643,-0.19702c-0.16443,-0.14825 -0.32888,-0.29649 -0.49331,-0.44474c-0.06115,-1.57256 0.20888,-5.57739 1.43342,-6.73826c1.1066,-1.04906 2.33364,-1.1129 3.30452,-2.41262c0.70905,-0.88772 0.19412,-2.27352 -0.31978,-3.14985c-1.33253,-2.27228 -2.47361,-3.98424 -2.47229,-6.65286c0.06358,-1.59103 2.65684,-1.9765 3.94233,-1.40144c1.86587,0.8347 2.24968,2.53993 2.93688,4.25794c0,0 0.10168,0.2542 -0.15252,0.35588c-0.2542,0.10168 -0.35588,-0.15252 -0.35588,-0.15252c-0.65144,-1.62861 -0.92767,-3.14989 -2.65603,-3.96326c-0.80425,-0.37849 -3.23284,-0.23505 -3.16721,0.90394c-0.00143,2.92475 4.56883,7.49606 2.68257,10.13069c-0.99588,1.32201 -2.25709,1.42806 -3.36147,2.47726c-1.11399,1.05834 -1.2324,4.67615 -1.31865,6.11283c0.116,0.08545 0.23199,0.17089 0.34799,0.25635l0.23643,0.19702c0,0 0.21033,0.17527 0.03505,0.38559z" fill="#000000"/><path d="M463.93853,286.36449c-0.1936,-0.19358 0,-0.38718 0,-0.38718l0.10173,-0.10173c1.28323,-1.28323 1.11425,-2.28849 1.13922,-4.02369c-1.56546,-3.14533 -1.70512,-7.47933 0.09781,-10.79967c0.94159,-3.56473 5.45533,-5.40263 6.3511,-0.9238c0,0 0.05369,0.26846 -0.21478,0.32215c-0.26846,0.05369 -0.32215,-0.21476 -0.32215,-0.21476c-0.78619,-3.93098 -4.58103,-2.07638 -5.30378,1.01471c-1.78688,3.31119 -1.56605,7.35094 -0.07463,10.4784c0.02185,1.90236 0.1276,3.12063 -1.28561,4.53384l-0.10173,0.10173c0,0 -0.1936,0.19358 -0.38719,0z" fill="#420000"/></g><g data-paper-data="{&quot;index&quot;:null}" stroke="none" stroke-width="0.5"><path d="M538.96199,144.50941c-0.1936,-0.20975 0,-0.4195 0,-0.4195l0.16774,-0.16022c0.60928,-1.24354 1.44562,-3.31783 0.6585,-4.95239c-1.10468,-2.41352 -3.18088,-3.73609 -3.74642,-6.71215c-0.18238,-0.95977 0.86877,-2.54176 0.86877,-3.74641c0,-4.22834 -4.01859,-2.96614 -5.17597,-0.22331c0,0 -0.12243,0.2653 -0.36731,0.13265c-0.24487,-0.13265 -0.12243,-0.39798 -0.12243,-0.39798c1.51145,-3.08493 6.2133,-4.52799 6.2133,0.48861c0,0.90907 -1.03832,3.08302 -0.88342,3.6101c0.82028,2.79131 2.48777,4.20423 3.70041,6.57705c0.84304,1.88846 -0.01995,3.98261 -0.65565,5.48911l-0.27031,0.3144c0,0 -0.19358,0.20976 -0.38718,0z" fill="#04ff00"/><path d="M540.05231,146.34159c-0.1324,0.25964 -0.37203,0.11618 -0.37203,0.11618l-0.16025,-0.09593c-0.73159,-0.43839 -1.43416,-0.95333 -2.22691,-1.23675c-3.37128,-2.50953 0.27456,-8.12929 0.27456,-11.38559c0,-1.8233 -0.98795,-3.87871 -2.75332,-4.3408c-1.25393,-0.32822 -2.59987,0.74379 -3.66607,0.21593c0,0 -0.24487,-0.13265 -0.12243,-0.39798c0.12243,-0.2653 0.36731,-0.13265 0.36731,-0.13265c0.78787,0.48619 2.47293,-0.59176 3.56173,-0.25869c1.98437,0.60704 3.16034,2.78066 3.16034,4.91419c0,1.01124 0.14655,2.73507 -0.24515,3.65485c-0.76617,1.79911 -2.74272,5.47801 -0.33565,7.19819c0.80041,0.28567 1.51126,0.808 2.2504,1.25002l0.16025,0.09593c0,0 0.23963,0.14345 0.10723,0.40309z" fill="#1c00ff"/><path d="M538.94523,147.02873c-0.17527,-0.22787 0.03505,-0.41778 0.03505,-0.41778l0.23643,-0.21347c0.116,-0.09258 0.23199,-0.18516 0.34799,-0.27774c-0.08625,-1.55661 -0.20466,-5.47641 -1.31865,-6.62309c-1.10438,-1.13678 -2.36558,-1.25169 -3.36147,-2.68405c-1.88626,-2.85456 2.684,-7.80744 2.68257,-10.97633c0.06563,-1.23406 -2.36297,-1.38947 -3.16721,-0.97939c-1.72837,0.88127 -2.00459,2.52952 -2.65603,4.29408c0,0 -0.10168,0.27542 -0.35588,0.16525c-0.2542,-0.11017 -0.15252,-0.38559 -0.15252,-0.38559c0.6872,-1.86142 1.07101,-3.70899 2.93688,-4.61337c1.28549,-0.62306 3.87875,-0.20541 3.94233,1.51842c0.00131,2.89137 -1.13976,4.74624 -2.47229,7.20819c-0.5139,0.94948 -1.02882,2.45096 -0.31978,3.41277c0.97088,1.40822 2.19792,1.47737 3.30452,2.61401c1.22453,1.25778 1.49457,5.59691 1.43342,7.30073c-0.16443,0.16062 -0.32888,0.32124 -0.49331,0.48186l-0.23643,0.21347c0,0 -0.21032,0.18991 -0.38559,-0.03798z" fill="#000000"/><path d="M538.03507,147.64186c-0.1936,0.20975 -0.38719,0 -0.38719,0l-0.10173,-0.11021c-1.41321,-1.53118 -1.30746,-2.85114 -1.28561,-4.91229c1.49141,-3.38852 1.71225,-7.76549 -0.07463,-11.35308c-0.72275,-3.34911 -4.51759,-5.35853 -5.30378,-1.0994c0,0 -0.05369,0.29086 -0.32215,0.23269c-0.26847,-0.05817 -0.21478,-0.34905 -0.21478,-0.34905c0.89577,-4.85269 5.40951,-2.86138 6.3511,1.00091c1.80292,3.5975 1.66326,8.29327 0.09781,11.70115c0.02497,1.88004 -0.14401,2.96922 1.13922,4.35956l0.10173,0.11021c0,0 0.1936,0.20976 0,0.4195z" fill="#420000"/></g></g><path d="M-120.98814,461.32333v-562.85562h722.24443v562.85562z" data-paper-data="{&quot;index&quot;:null}" fill-opacity="0.62745" fill="#000000" stroke="none" stroke-width="0"/></g></g></svg>