<svg version="1.1" xmlns="http://www.w3.org/2000/svg" xmlns:xlink="http://www.w3.org/1999/xlink" width="651.54391" height="744.18373" viewBox="0,0,651.54391,744.18373"><g transform="translate(84.20369,90.00928)"><g data-paper-data="{&quot;isPaintingLayer&quot;:true}" fill-rule="nonzero" stroke-linecap="butt" stroke-linejoin="miter" stroke-miterlimit="10" stroke-dasharray="" stroke-dashoffset="0" style="mix-blend-mode: normal"><path d="M57.69443,439.6315v-448h350v448z" fill="#313131" stroke="none" stroke-width="0"/><path d="M185.32861,236.24391l-13.27567,-38.6726h143.14632c0,0 3.84417,13.4597 2.08324,19.98549c-0.9142,3.38795 -11.89569,16.37829 -11.89569,16.37829z" fill="#000000" stroke="none" stroke-width="0"/><path d="M283.71174,203.73952c0,5.75725 -0.89471,28.55056 -10.48551,40.55864c-6.99787,8.76164 -22.45324,8.34617 -26.66534,8.34617c-4.11211,0 -18.7986,0.32723 -27.11489,-8.9907c-9.76581,-10.94206 -12.97448,-32.16191 -12.97448,-38.02509c0,-18.54724 18.52821,-20.14962 40.08937,-20.14962c21.56114,0 37.15088,-0.28664 37.15088,18.2606z" fill="#980002" stroke="none" stroke-width="0"/><path d="M259.97092,219.14779c-0.15215,3.94611 0.91468,6.88185 -5.72678,7.52211c-1.15667,0.11149 -6.36334,0.41358 -7.60038,0.36588c-3.03242,-0.11694 -9.62029,-0.65822 -11.95316,-1.60421c-4.08318,-1.65574 -2.34929,-3.34593 -2.23558,-6.29461c0.17866,-4.63335 5.88211,-4.18419 14.22216,-3.8626c8.34005,0.32162 13.47238,-0.75997 13.2937,3.8734z" fill="#300001" stroke="none" stroke-width="0"/><g data-paper-data="{&quot;index&quot;:null}" fill="#663f3f" stroke="#000000" stroke-width="0.5"><path d="M158.56653,432.46794l1.9141,-5.0738l10.87245,4.10163l-1.91407,5.07382z"/><path d="M151.89979,433.67889l1.91412,-5.07382l10.87245,4.10163l-1.9141,5.07382z"/><path d="M166.91191,430.64826l1.91405,-5.07378l10.87247,4.1016l-1.91412,5.07382z"/><path d="M164.10901,438.07783l1.9141,-5.07382l10.87252,4.10158l-1.91412,5.07382z"/><path d="M154.77086,426.0681l1.9141,-5.07382l10.87252,4.10163l-1.91412,5.07382z"/><path d="M157.75378,442.30418l7.92982,-21.02014l5.79867,2.18751l-7.9298,21.02011z"/></g><g data-paper-data="{&quot;index&quot;:null}" fill="#663f3f" stroke="#000000" stroke-width="0.5"><path d="M284.49198,452.42855l0.22809,-5.41807l11.61014,0.48875l-0.22809,5.41804z"/><path d="M278.5403,455.66721l0.22809,-5.41807l11.61011,0.48873l-0.22806,5.41807z"/><path d="M291.84707,448.08583l0.22809,-5.41804l11.61014,0.48873l-0.22809,5.41807z"/><path d="M291.51307,456.01951l0.22809,-5.41809l11.61014,0.48873l-0.22809,5.41807z"/><path d="M278.88235,447.5401l0.22809,-5.41807l11.61016,0.48873l-0.22809,5.41807z"/><path d="M286.80183,462.0242l0.9449,-22.44627l6.19209,0.26066l-0.9449,22.44624z"/></g><g data-paper-data="{&quot;index&quot;:null}" fill="#663f3f" stroke="#000000" stroke-width="0.5"><path d="M284.49198,622.49559l0.22809,-5.41804l11.61014,0.48875l-0.22809,5.41804z"/><path d="M278.5403,625.73427l0.22809,-5.41807l11.61011,0.48873l-0.22806,5.41807z"/><path d="M291.84707,618.1529l0.22809,-5.41804l11.61014,0.48873l-0.22809,5.41807z"/><path d="M291.51307,626.08658l0.22809,-5.41809l11.61014,0.48873l-0.22809,5.41807z"/><path d="M278.88235,617.60716l0.22809,-5.41807l11.61016,0.48873l-0.22809,5.41809z"/><path d="M286.80183,632.09124l0.9449,-22.44629l6.19209,0.26064l-0.9449,22.44627z"/></g><g data-paper-data="{&quot;index&quot;:null}" fill="#663f3f" stroke="#000000" stroke-width="0.5"><path d="M189.44947,626.97362l-0.04045,-5.42271l11.62011,-0.08665l0.04045,5.42268z"/><path d="M183.66541,630.50296l-0.04043,-5.42271l11.62006,-0.08665l0.04047,5.42271z"/><path d="M196.58053,622.27207l-0.04045,-5.42268l11.62011,-0.08665l0.04045,5.42271z"/><path d="M196.63973,630.21256l-0.04043,-5.42273l11.62011,-0.08665l0.04045,5.42271z"/><path d="M183.60471,622.36888l-0.04045,-5.42271l11.62011,-0.0867l0.04043,5.42273z"/><path d="M192.23152,636.44312l-0.16753,-22.46552l6.1974,-0.04622l0.16755,22.46552z"/></g><g data-paper-data="{&quot;index&quot;:null}" fill="#663f3f" stroke="#000000" stroke-width="0.5"><path d="M202.86967,474.69556l3.00824,-7.14776l15.31666,6.44625l-3.00827,7.14776z"/><path d="M193.2775,476.06743l3.00827,-7.14776l15.31661,6.44623l-3.00822,7.14778z"/><path d="M214.8935,472.54402l3.00822,-7.14773l15.31666,6.44625l-3.00827,7.14776z"/><path d="M210.48847,483.01049l3.00827,-7.14778l15.31666,6.44625l-3.00827,7.14776z"/><path d="M197.7898,465.34575l3.00824,-7.14778l15.3167,6.44623l-3.00829,7.14778z"/><path d="M201.17913,488.70826l12.46276,-29.61222l8.1689,3.43798l-12.46273,29.61222z"/></g><g data-paper-data="{&quot;index&quot;:null}" fill="#663f3f" stroke="#000000" stroke-width="0.5"><path d="M244.32697,482.98885l-3.00827,-7.14776l15.31666,-6.44625l3.00824,7.14776z"/><path d="M253.91918,484.36073l-3.00822,-7.14778l15.31661,-6.44623l3.00827,7.14776z"/><path d="M232.30323,480.83734l-3.00824,-7.14773l15.31666,-6.44625l3.00822,7.14771z"/><path d="M236.70816,491.30376l-3.00827,-7.14776l15.31666,-6.44625l3.00827,7.1478z"/><path d="M249.40684,473.63904l-3.00829,-7.14778l15.3167,-6.44623l3.00824,7.14778z"/><path d="M253.16528,493.9933l-12.46273,-29.61219l8.1689,-3.43801l12.46276,29.61222z"/></g><g data-paper-data="{&quot;index&quot;:null}" fill="#663f3f" stroke="#000000" stroke-width="0.5"><path d="M269.5608,328.5228l-4.77056,-6.11406l13.10158,-10.22266l4.77058,6.11406z"/><path d="M266.07685,337.56457l-4.77056,-6.11406l13.10154,-10.22263l4.77061,6.11403z"/><path d="M273.551,316.97812l-4.77056,-6.11401l13.10158,-10.22266l4.77056,6.11406z"/><path d="M280.53654,325.93097l-4.77058,-6.1141l13.10158,-10.22268l4.77056,6.11406z"/><path d="M258.92099,328.3935l-4.77056,-6.11406l13.10156,-10.2227l4.77058,6.1141z"/><path d="M280.96638,336.83713l-19.76384,-25.32972l6.9875,-5.45212l19.76384,25.3297z"/></g><g data-paper-data="{&quot;index&quot;:null}" fill="#663f3f" stroke="#000000" stroke-width="0.5"><path d="M175.98069,304.07257l4.98708,-5.93875l12.72596,10.68663l-4.98708,5.93877z"/><path d="M179.13762,313.23368l4.98713,-5.93877l12.72594,10.68663l-4.98708,5.93877z"/><path d="M172.40769,292.39209l4.98708,-5.93877l12.72594,10.68666l-4.98706,5.93875z"/><path d="M165.10513,301.08818l4.98708,-5.93877l12.72594,10.68666l-4.9871,5.93882z"/><path d="M186.61833,304.3255l4.9871,-5.93882l12.72594,10.68668l-4.98708,5.93877z"/><path d="M170.22261,316.95895l20.66086,-24.6035l6.78717,5.69956l-20.66084,24.60353z"/></g><g data-paper-data="{&quot;index&quot;:null}" fill="#663f3f" stroke="#000000" stroke-width="0.5"><path d="M316.84699,65.02782l1.48339,-4.7012l10.07401,3.1787l-1.48339,4.7012z"/><path d="M320.9304,69.63937l1.48341,-4.7012l10.07399,3.1787l-1.48339,4.7012z"/><path d="M311.90621,59.038l1.48339,-4.7012l10.07401,3.1787l-1.48339,4.70118z"/><path d="M309.73405,65.92193l1.48339,-4.7012l10.07401,3.1787l-1.48339,4.70123z"/><path d="M323.15552,62.58755l1.48339,-4.70123l10.07401,3.17873l-1.48339,4.7012z"/><path d="M316.60171,73.99661l6.1455,-19.47642l5.37281,1.69531l-6.1455,19.47644z"/></g><g data-paper-data="{&quot;index&quot;:null}" fill="#663f3f" stroke="#000000" stroke-width="0.5"><path d="M298.68565,124.31275l2.62757,-4.17105l8.93799,5.6305l-2.62757,4.17105z"/><path d="M301.46551,129.80938l2.62759,-4.17105l8.93796,5.63048l-2.62757,4.17105z"/><path d="M295.42614,117.26542l2.62757,-4.17105l8.93796,5.6305l-2.62757,4.17103z"/><path d="M291.57862,123.37304l2.62757,-4.17105l8.93799,5.6305l-2.62757,4.17105z"/><path d="M305.40685,123.55283l2.62757,-4.17105l8.93796,5.6305l-2.62757,4.17105z"/><path d="M296.17295,132.92589l10.88561,-17.28012l4.76691,3.00293l-10.88561,17.28009z"/></g><path d="M328.21293,99.67159c-3.63871,17.1747 -12.91704,29.75675 -20.72373,28.10279c-7.80669,-1.65396 -11.18548,-16.91761 -7.54677,-34.09231c3.63871,-17.1747 12.91704,-29.75675 20.72371,-28.10279c7.80669,1.65396 11.1855,16.91761 7.54679,34.09231z" fill="#a9a600" stroke="#000000" stroke-width="0.5"/><g fill="#663f3f" stroke="#000000" stroke-width="0.5"><path d="M183.178,132.25206l-2.62757,-4.17105l8.93799,-5.6305l2.62757,4.17105z"/><path d="M180.39814,137.74869l-2.62757,-4.17105l8.93799,-5.63048l2.62757,4.17105z"/><path d="M186.43755,125.20471l-2.62757,-4.17103l8.93796,-5.6305l2.62757,4.17105z"/><path d="M190.28503,131.31235l-2.62757,-4.17105l8.93799,-5.6305l2.62757,4.17105z"/><path d="M176.45679,131.49211l-2.62757,-4.17105l8.93796,-5.6305l2.62757,4.17105z"/><path d="M189.86175,138.23763l-10.88561,-17.28009l4.76691,-3.00293l10.88563,17.28012z"/></g><g fill="#663f3f" stroke="#000000" stroke-width="0.5"><path d="M219.24535,275.98643l0.95345,-11.20282l24.00605,2.04311l-0.95345,11.20282z"/><path d="M206.62936,282.16668l0.95345,-11.20282l24.00605,2.04311l-0.95342,11.20282z"/><path d="M234.86636,267.64389l0.95342,-11.20282l24.00605,2.04311l-0.95345,11.20282z"/><path d="M233.47022,284.04807l0.95345,-11.20284l24.00605,2.04311l-0.95342,11.20284z"/><path d="M208.05953,265.36246l0.95345,-11.20282l24.00605,2.04309l-0.95345,11.20284z"/><path d="M223.17823,296.06811l3.95001,-46.41173l12.80324,1.08964l-3.95001,46.41173z"/></g><path d="M239.3751,215.55525c-29.05993,0 -69.26437,-12.22029 -69.26437,-22.01066c0,-18.25875 -2.08844,-35.31683 8.7778,-51.39239c14.17603,-20.97211 44.45788,-38.65124 69.72179,-38.65124c34.6056,0 67.93122,26.66705 77.52546,63.96752c2.77902,10.80427 -3.83588,34.13373 -3.83588,43.58461c0,0 -38.29554,4.50216 -82.9248,4.50216z" fill="#a9a600" stroke="#929292" stroke-width="1"/><path d="M268.61927,340.44458c0.35166,58.86705 -5.63325,134.14406 -37.84272,135.31183c-32.92599,1.19375 -35.6861,-72.10026 -36.03776,-130.96729c-0.35166,-58.86705 11.81253,-69.75839 34.76431,-69.89549c22.95178,-0.13712 38.76453,6.68392 39.11619,65.55097z" fill="#a9a600" stroke="#929292" stroke-width="1"/><path d="M187.70318,382.12733c0.28812,35.33525 -6.88,49.11842 -18.34095,48.97193c-11.46094,-0.14649 -21.75667,-12.85881 -22.04479,-48.19407c-0.1525,-18.7004 3.47562,-48.94745 7.73256,-64.82575c3.78673,-14.12443 7.87342,-15.00942 13.2689,-14.94044c6.43454,0.08224 12.80555,-0.72543 16.20516,17.57234c2.65557,14.29328 3.05278,45.91919 3.17914,61.41598z" fill="#a9a600" stroke="#929292" stroke-width="1"/><path d="M271.8326,339.9434c2.68198,-18.41665 9.07966,-17.85854 15.50609,-18.19217c5.38867,-0.27974 9.50681,0.44486 13.84257,14.41052c4.87418,15.6998 9.68145,45.78196 10.25985,64.47405c1.09292,35.31953 -8.69822,48.42448 -20.14466,49.0187c-11.44644,0.59422 -19.14771,-12.89829 -20.24061,-48.21782c-0.47931,-15.48989 -1.31829,-47.10715 0.77673,-61.49328z" data-paper-data="{&quot;index&quot;:null}" fill="#a9a600" stroke="#929292" stroke-width="1"/><path d="M220.80034,567.04336c-2.06953,40.4755 -11.21237,55.76932 -24.32423,54.82338c-13.11186,-0.94594 -24.03641,-16.19964 -21.96689,-56.67514c1.09525,-21.42079 7.30298,-55.80476 13.25503,-73.69505c5.29459,-15.9142 10.03361,-16.6499 16.20631,-16.20458c7.36146,0.5311 14.71057,0.039 17.36032,21.21927c2.06985,16.54497 0.37708,52.78098 -0.53054,70.53209z" fill="#a9a600" stroke="#929292" stroke-width="1"/><path d="M243.86938,499.78675c-1.18631,-21.31241 6.13211,-22.14444 13.27943,-23.98532c5.99314,-1.54363 10.78728,-1.66853 18.84641,13.04015c9.05985,16.53504 21.32518,49.25134 26.23904,70.12965c9.28496,39.45046 1.26885,56.41406 -11.46161,59.69294c-12.73044,3.27888 -24.46449,-10.13023 -33.74947,-49.58069c-4.07205,-17.30156 -12.22712,-52.64857 -13.15381,-69.29672z" data-paper-data="{&quot;index&quot;:null}" fill="#a9a600" stroke="#929292" stroke-width="1"/><path d="M175.78412,90.61765c10.16734,14.31207 13.13589,29.6608 6.6304,34.28232c-6.50549,4.62153 -20.02151,-3.23423 -30.18884,-17.5463c-10.16734,-14.31207 -13.13589,-29.66077 -6.6304,-34.2823c6.50549,-4.62153 20.02151,3.23423 30.18884,17.5463z" fill="#a9a600" stroke="#000000" stroke-width="0.5"/><path d="M173.23588,92.95112c7.30351,10.28077 9.43588,21.30622 4.7628,24.62599c-4.67308,3.31977 -14.382,-2.32324 -21.68551,-12.60401c-7.30351,-10.28077 -9.43588,-21.3062 -4.7628,-24.62597c4.67308,-3.31977 14.38203,2.32322 21.68551,12.60399z" fill="#cbc700" stroke="#000000" stroke-width="0.5"/><path d="M318.74728,72.76257c5.6111,1.17225 8.06909,12.12969 5.49012,24.4741c-2.57899,12.34441 -9.21832,21.40123 -14.82943,20.22898c-5.6111,-1.17225 -8.06914,-12.12971 -5.49015,-24.47412c2.57899,-12.34441 9.21837,-21.40121 14.82945,-20.22895z" data-paper-data="{&quot;index&quot;:null}" fill="#cbc700" stroke="#000000" stroke-width="0.5"/><path d="M341.60844,31.4661c-0.24979,17.55415 -6.92069,31.69255 -14.89985,31.57903c-7.97916,-0.11355 -14.24504,-14.43605 -13.99525,-31.99018c0.24979,-17.55415 6.92069,-31.69255 14.89985,-31.579c7.97916,0.11355 14.24504,14.43603 13.99525,31.99018z" fill="#a9a600" stroke="#000000" stroke-width="0.5"/><path d="M326.27244,8.40318c5.73216,-0.02983 10.43218,10.16902 10.4978,22.77977c0.06562,12.61075 -4.528,22.85797 -10.26015,22.88783c-5.73216,0.02983 -10.4322,-10.16905 -10.49782,-22.77982c-0.06562,-12.61075 4.52804,-22.85795 10.2602,-22.88778z" data-paper-data="{&quot;index&quot;:null}" fill="#cbc700" stroke="#000000" stroke-width="0.5"/><path d="M222.11001,172.66633c0,7.33195 -5.513,13.27567 -12.31365,13.27567c-6.80065,0 -12.31365,-5.94371 -12.31365,-13.27567c0,-7.33195 5.513,-13.27567 12.31365,-13.27567c6.80065,0 12.31365,5.94371 12.31365,13.27567z" fill="#ffffff" stroke="#ffffff" stroke-width="2"/><path d="M296.76149,178.82314c0,7.33195 -5.513,13.27567 -12.31365,13.27567c-6.80065,0 -12.31365,-5.94374 -12.31365,-13.27567c0,-7.33193 5.513,-13.27567 12.31365,-13.27567c6.80065,0 12.31365,5.94374 12.31365,13.27567z" fill="#ffffff" stroke="#ffffff" stroke-width="2"/><path d="M217.12464,643.51568c0,8.67083 -6.93932,10.15877 -17.77785,10.15877c-10.83853,0 -18.70137,-1.48794 -18.70137,-10.15877c0,-8.67083 7.40108,-12.00582 18.23961,-12.00582c10.83853,0 18.23961,3.33499 18.23961,12.00582z" fill="#a9a600" stroke="#929292" stroke-width="1"/><path d="M310.86237,635.6657c0,8.67083 -3.70698,6.46467 -14.54551,6.46467c-10.83853,0 -16.94982,2.17599 -16.85433,-7.3882c0.11456,-11.47228 4.63051,-8.31172 15.46904,-8.31172c10.83853,0 15.9308,0.56441 15.9308,9.23525z" fill="#a9a600" stroke="#929292" stroke-width="1"/><path d="M253.08341,362.02973c0.22716,38.02807 -3.63908,86.65693 -24.44637,87.41131c-21.27016,0.77114 -23.05318,-46.5767 -23.28035,-84.60474c-0.22716,-38.02807 7.63088,-45.06385 22.45772,-45.15244c14.82684,-0.08857 25.04186,4.3178 25.26902,42.34587z" fill="#cbc700" stroke="#929292" stroke-width="1"/><path d="M243.49716,285.47089c6.06853,-0.15457 10.52569,6.70206 8.90075,12.49635c-1.09687,5.50157 -1.14556,11.89093 -8.85785,10.33618c-3.44911,-1.18006 -6.98882,-2.05757 -9.16467,-4.23983c-0.93689,0.65656 -2.07779,1.04185 -3.30869,1.04185c-2.01007,0 -3.78015,-1.02747 -4.81371,-2.58585c-1.17299,0.4148 -2.32929,0.0538 -3.43226,0.68175c-3.17208,1.806 -7.11165,4.35998 -11.07989,4.96083c-4.19116,-3.66582 -3.37364,-9.69627 -1.4751,-14.42502c0.87876,-5.41855 3.5573,-12.27872 9.22536,-7.74426c2.36997,2.44676 6.24337,5.52734 8.16627,8.68249c0.95529,-0.70038 2.13401,-1.114 3.40933,-1.114c1.15027,0 2.22195,0.33649 3.122,0.91637c3.21828,-2.87528 5.82183,-6.37948 9.30846,-9.00686z" fill="#cbc700" stroke="none" stroke-width="0.5"/><path d="M213.53718,295.79336c0.40815,-0.40815 0.8163,0 0.8163,0l0.00543,0.03798c3.85491,2.1643 7.45961,1.01629 11.63281,1.70217c0,0 0.56935,0.09489 0.47446,0.66425c-0.09489,0.56935 -0.66425,0.47446 -0.66425,0.47446c-4.33491,-0.73374 -7.94404,0.35773 -11.99855,-1.82895l-0.26621,-0.23363c0,0 -0.40815,-0.40815 0,-0.8163z" fill="#063800" stroke="none" stroke-width="0.5"/><path d="M247.38912,297.15217c0,0.5772 -0.5772,0.5772 -0.5772,0.5772l-0.51179,-0.02477c-2.41684,1.71473 -4.85204,0.56051 -7.20416,1.97971c0,0 -0.49494,0.29696 -0.79192,-0.19798c-0.29696,-0.49494 0.19798,-0.79192 0.19798,-0.79192c2.4789,-1.47995 4.95462,-0.48739 7.46356,-2.09467l0.84634,-0.02475c0,0 0.5772,0 0.5772,0.5772z" fill="#063800" stroke="none" stroke-width="0.5"/><path d="M234.47566,292.37602c0.56598,-0.1132 0.67921,0.45278 0.67921,0.45278l0.12308,0.62779c0.03466,0.09101 0.07561,0.17993 0.12193,0.26634c0.00129,0 0.00256,-0.00002 0.00386,-0.00002c0.5772,0 0.5772,0.5772 0.5772,0.5772c0,0.05853 0.00018,0.11653 0.00058,0.17402c0.08404,0.10537 0.27731,0.40972 0.01457,0.72457c0.05597,1.66715 0.25018,2.90453 0.29336,4.17048c0.92309,-0.27489 1.99934,-0.28611 2.93967,-0.47418c0,0 0.56598,-0.1132 0.67918,0.45278c0.1132,0.56601 -0.4528,0.67918 -0.4528,0.67918c-0.88234,0.17649 -2.36937,0.1274 -3.17817,0.54312c-0.0601,1.01643 -0.26133,2.13297 -0.73344,3.5552l-0.27526,0.36142c0,0 -0.40813,0.40813 -0.81628,0c-0.40815,-0.40813 0,-0.8163 0,-0.8163l-0.00362,0.08981c0.41263,-1.23231 0.61539,-2.19586 0.69601,-3.04832c-0.10136,-0.08455 -0.1824,-0.2198 -0.1824,-0.43607c0,-0.24665 0.1054,-0.38793 0.22613,-0.4688c0.00469,-1.47535 -0.30239,-2.7669 -0.35447,-4.89376c-0.27207,-0.34242 -0.49704,-0.72608 -0.66261,-1.12776l-0.14853,-0.73035c0,0 -0.1132,-0.56598 0.45278,-0.67918z" fill="#063800" stroke="none" stroke-width="0.5"/><path d="M226.30501,303.26447c-0.40815,0.40813 -0.8163,0 -0.8163,0l-0.42946,-0.56658c-0.74741,-3.81125 0.37022,-5.42714 1.8153,-8.38426c0,0 0.25815,-0.51627 0.7744,-0.25815c0.51627,0.25815 0.25815,0.7744 0.25815,0.7744c-1.41237,2.77304 -2.46854,3.96278 -1.71584,7.64159l0.11378,-0.02332c0,0 0.40815,0.40815 0,0.8163z" fill="#063800" stroke="none" stroke-width="0.5"/><path d="M289.62744,454.67585c7.22547,-0.38823 12.38156,2.90749 13.2469,14.45674c0.72407,9.66383 -4.42528,10.0018 -11.65075,10.39002c-7.22547,0.38823 -14.48602,0.70673 -14.51497,-8.98416c-0.0302,-10.10895 5.69337,-15.47439 12.91884,-15.86262z" data-paper-data="{&quot;index&quot;:null}" fill="#a9a600" stroke="#000000" stroke-width="0"/><path d="M306.51573,481.0051v-0.92352c0.05093,-6.78172 -1.89664,-10.31095 -6.81153,-14.40634c0,0 -2.21711,-1.8476 -0.36953,-4.06469c1.84758,-2.21708 4.06469,-0.3695 4.06469,-0.3695c6.26175,5.21856 8.83785,10.46236 8.88839,18.84055v0.92352c0,0 0,2.88601 -2.88601,2.88601c-2.88601,0 -2.88601,-2.88601 -2.88601,-2.88601z" data-paper-data="{&quot;index&quot;:null}" fill="#a9a600" stroke="none" stroke-width="0.5"/><path d="M297.67388,494.39618l0.14809,-1.85795c-1.72551,-5.24049 -0.54737,-10.67103 -2.30881,-15.69992c0,0 -0.91265,-2.73793 1.82528,-3.65055c2.73793,-0.91265 3.65055,1.82528 3.65055,1.82528c1.67484,5.21535 0.53929,10.46792 2.30881,15.69992l0.14809,3.6832c0,0 0,2.88601 -2.88601,2.88601c-2.88601,0 -2.88601,-2.88601 -2.88601,-2.88601z" data-paper-data="{&quot;index&quot;:null}" fill="#a9a600" stroke="none" stroke-width="0.5"/><path d="M286.21599,496.92858l0.3756,-1.14709c0,-5.9747 -0.11438,-11.88438 0.4761,-17.83414c0,0 0.28717,-2.8717 3.15885,-2.58453c2.87168,0.28717 2.58453,3.15887 2.58453,3.15887c-0.58002,5.75402 -0.44742,11.47992 -0.44742,17.2598l-0.54793,2.54699c0,0 -0.69996,2.79985 -3.49981,2.09989c-2.79985,-0.69996 -2.09989,-3.49981 -2.09989,-3.49981z" data-paper-data="{&quot;index&quot;:null}" fill="#a9a600" stroke="none" stroke-width="0.5"/><path d="M275.07708,492.31096l0.92352,-3.6941c1.38672,-5.40287 1.04312,-8.95029 4.7021,-13.5705c0,0 1.80288,-2.25361 4.05649,-0.45073c2.25361,1.80288 0.45073,4.05649 0.45073,4.05649c-3.05403,3.77052 -2.47126,6.70858 -3.6096,11.36466l-0.92352,3.6941c0,0 -0.69996,2.79985 -3.49981,2.09989c-2.79985,-0.69996 -2.09989,-3.49981 -2.09989,-3.49981z" data-paper-data="{&quot;index&quot;:null}" fill="#a9a600" stroke="none" stroke-width="0.5"/><path d="M298.7149,468.13133c0,5.32481 -4.23812,9.64144 -9.46613,9.64144c-5.22798,0 -9.46613,-4.31662 -9.46613,-9.64144c0,-5.32481 4.23815,-9.64144 9.46613,-9.64144c5.22798,0 9.46613,4.31662 9.46613,9.64144z" fill="#cbc700" stroke="#000000" stroke-width="0"/><path d="M206.44442,173.06183c0,-1.27511 1.03368,-2.30881 2.30881,-2.30881c1.27513,0 2.30881,1.0337 2.30881,2.30881c0,1.27511 -1.03368,2.30881 -2.30881,2.30881c-1.27513,0 -2.30881,-1.0337 -2.30881,-2.30881z" fill="#000000" stroke="none" stroke-width="0.5"/><path d="M281.35483,181.00622c0,-1.68084 1.36259,-3.04343 3.04343,-3.04343c1.68084,0 3.04343,1.36259 3.04343,3.04343c0,1.68084 -1.36259,3.04343 -3.04343,3.04343c-1.68084,0 -3.04343,-1.36259 -3.04343,-3.04343z" fill="#000000" stroke="none" stroke-width="0.5"/><path d="M302.29254,241.77015c-0.97307,9.00093 -34.43159,19.10562 -65.61784,15.73414c-31.18627,-3.37149 -57.98774,-18.01894 -57.01467,-27.01986c0.29435,-2.72269 -13.21065,-30.89802 -8.87657,-32.71187c4.56826,-1.91183 13.23318,19.66422 25.95118,24.32571c15.10519,5.53646 31.65429,13.07817 43.46384,14.35485c11.11905,1.20206 34.1093,-0.6026 51.76464,-5.76563c14.83862,-4.33932 24.10582,-23.08962 28.39647,-21.57651c4.92285,1.73602 -17.7325,29.56459 -18.06705,32.65918z" fill="#a9a600" stroke="#929292" stroke-width="1"/><path d="M190.3647,220.70847l1.56556,-3.84969l5.56068,2.26137l-1.56556,3.84969z" fill="#ffffff" stroke="none" stroke-width="0"/><path d="M199.9305,225.34898l1.25609,-3.96148l5.72216,1.81433l-1.25609,3.96148z" fill="#ffffff" stroke="none" stroke-width="0"/><path d="M225.58396,234.07116l1.25609,-3.96148l5.72216,1.81433l-1.25609,3.96148z" fill="#ffffff" stroke="none" stroke-width="0"/><path d="M238.61051,236.56874l0.06333,-4.15538l6.00222,0.09148l-0.06333,4.15538z" fill="#ffffff" stroke="none" stroke-width="0"/><path d="M211.47456,228.94045l1.25609,-3.96148l5.72216,1.81433l-1.25609,3.96151z" fill="#ffffff" stroke="none" stroke-width="0"/><path d="M252.97644,237.33834l0.06333,-4.15538l6.00222,0.09148l-0.06333,4.15538z" fill="#ffffff" stroke="none" stroke-width="0"/><path d="M267.22645,236.03651l-0.6563,-4.1037l5.92757,-0.948l0.6563,4.1037z" fill="#ffffff" stroke="none" stroke-width="0"/><path d="M278.6112,234.30791l-1.18853,-3.98228l5.7522,-1.71679l1.18853,3.98228z" fill="#ffffff" stroke="none" stroke-width="0"/><path d="M289.89873,231.74256l-1.18853,-3.98228l5.7522,-1.71676l1.18853,3.98228z" fill="#ffffff" stroke="none" stroke-width="0"/><path d="M236.76487,219.04793l0.16723,-4.15249l5.99806,0.24152l-0.16723,4.15249z" fill="#ffffff" stroke="none" stroke-width="0"/><path d="M253.18308,219.30446l0.16723,-4.15249l5.99806,0.24152l-0.16723,4.15249z" fill="#ffffff" stroke="none" stroke-width="0"/><path d="M270.66411,218.68145l0.16723,-4.15251l5.99806,0.24152l-0.16723,4.15249z" fill="#ffffff" stroke="none" stroke-width="0"/><path d="M220.77452,217.62392l0.35473,-4.14072l5.98102,0.51237l-0.35473,4.14067z" fill="#ffffff" stroke="none" stroke-width="0"/><path d="M202.50536,213.57884l1.22141,-3.97233l5.73781,1.76426l-1.22141,3.97231z" fill="#ffffff" stroke="none" stroke-width="0"/><path d="M290.56514,218.51266l-0.64665,-4.10525l5.92981,-0.93403l0.64663,4.10523z" fill="#ffffff" stroke="none" stroke-width="0"/><path d="M271.07695,203.51097c0,11.01248 -10.93876,8.08084 -23.2118,8.08084c-12.27304,0 -24.20129,0.20745 -24.20129,-8.08084c0,-4.95 1.61591,-16.09854 7.65754,-20.82218c4.07452,-3.18565 11.27067,-1.77118 16.21393,-1.77118c4.6019,0 12.31453,-0.77334 16.03493,1.72669c6.2017,4.16741 7.50671,13.98343 7.50671,20.86667z" fill="#817f00" stroke="#000000" stroke-width="0"/><path d="M253.48217,184.27859c0,2.82349 -2.56354,5.11238 -5.72585,5.11238c-3.16229,0 -5.72585,-2.28889 -5.72585,-5.11238c0,-2.82349 2.56354,-5.11238 5.72585,-5.11238c3.16229,0 5.72585,2.28889 5.72585,5.11238z" fill="#3d3c00" stroke="none" stroke-width="0"/><path d="M268.25207,484.13541l1.26918,-3.07273c1.88736,-4.48948 2.04339,-7.59728 5.79343,-11.12074c0,0 1.84483,-1.71632 3.56116,0.12849c1.71632,1.84483 -0.12851,3.56116 -0.12851,3.56116c-3.11907,2.86678 -2.99074,5.47881 -4.56824,9.35498l-1.2692,3.07273c0,0 -0.96194,2.3289 -3.29084,1.36696c-2.3289,-0.96194 -1.36696,-3.29084 -1.36696,-3.29084z" data-paper-data="{&quot;index&quot;:null}" fill="#a9a600" stroke="none" stroke-width="0.5"/><g><path d="M172.68683,452.51478c-2.17308,9.44412 -9.18307,7.52659 -16.14342,5.54884c-6.96035,-1.97775 -11.90723,-3.44703 -9.06227,-12.71095c3.40003,-11.07133 9.15765,-13.14411 16.118,-11.16636c6.96035,1.97775 11.3545,8.47689 9.08769,18.32846z" fill="#a9a600" stroke="#000000" stroke-width="0"/><path d="M145.36239,475.20029c-2.84887,-0.46158 -2.38729,-3.31044 -2.38729,-3.31044l0.73526,-3.61211c2.58351,-4.88166 2.30265,-10.24821 4.79005,-15.12856c0,0 1.33876,-2.55671 3.8955,-1.21794c2.55671,1.33876 1.21794,3.8955 1.21794,3.8955c-2.54306,4.68245 -2.2486,10.2315 -4.79005,15.12856l-0.15095,1.85772c0,0 -0.46158,2.84887 -3.31044,2.38729z" fill="#a9a600" stroke="none" stroke-width="0.5"/><path d="M155.56685,479.06272c-2.87576,0.24316 -3.11893,-2.6326 -3.11893,-2.6326l-0.13352,-2.60187c0.9244,-5.70549 1.97106,-11.33647 2.31876,-17.10917c0,0 0.17582,-2.88066 3.05647,-2.70487c2.88066,0.17582 2.70487,3.05647 2.70487,3.05647c-0.36869,5.96763 -1.42678,11.78293 -2.38232,17.68072l0.18731,1.19239c0,0 0.24316,2.87576 -2.6326,3.11893z" fill="#a9a600" stroke="none" stroke-width="0.5"/><path d="M167.0223,477.38906c-2.87576,0.24316 -3.11893,-2.6326 -3.11893,-2.6326l-0.32081,-3.79423c-0.37901,-4.77822 0.66614,-7.58523 -1.74555,-11.79567c0,0 -1.41925,-2.51293 1.09371,-3.93216c2.51293,-1.41925 3.93216,1.09371 3.93216,1.09371c2.87297,5.14597 1.96644,8.59275 2.47119,14.14784l0.32081,3.79423c0,0 0.24316,2.87576 -2.6326,3.11893z" fill="#a9a600" stroke="none" stroke-width="0.5"/><path d="M137.63653,462.25395c-2.84887,-0.46158 -2.38729,-3.31044 -2.38729,-3.31044l0.14769,-0.91166c1.38984,-8.26227 4.77144,-13.02657 11.78725,-17.17647c0,0 2.48405,-1.46921 3.95326,1.01484c1.46921,2.48405 -1.01484,3.95326 -1.01484,3.95326c-5.50663,3.25663 -7.99354,6.42893 -9.02792,13.1315l-0.14769,0.91166c0,0 -0.46158,2.84887 -3.31044,2.38729z" fill="#a9a600" stroke="none" stroke-width="0.5"/><path d="M169.77253,448.68862c-0.85163,5.25626 -5.72558,8.83949 -10.88628,8.00338c-5.16073,-0.83614 -8.65391,-5.77501 -7.80228,-11.03127c0.85163,-5.25626 5.72558,-8.83949 10.88628,-8.00338c5.16073,0.83614 8.65391,5.77501 7.80228,11.03127z" fill="#cbc700" stroke="#000000" stroke-width="0"/><path d="M178.30234,469.24117c0,0 0.50161,2.46932 -1.96768,2.97091c-2.46932,0.50161 -2.97093,-1.96768 -2.97093,-1.96768l-0.66182,-3.25799c-0.81176,-4.10541 -0.18916,-6.64536 -2.7063,-10.05291c0,0 -1.48484,-2.03577 0.55091,-3.52061c2.03577,-1.48484 3.52064,0.55093 3.52064,0.55093c3.01173,4.17218 2.57405,7.25292 3.57342,12.01937l0.66182,3.25799z" data-paper-data="{&quot;index&quot;:null}" fill="#a9a600" stroke="none" stroke-width="0.5"/></g><path d="M-11.30557,382.6315v-386h86v386z" fill="#000000" stroke="none" stroke-width="NaN"/><path d="M405.69443,427.6315v-434h87v434z" fill="#000000" stroke="none" stroke-width="0"/><g fill="#8c0000" stroke="none" stroke-width="0"><path d="M-84.20369,437.02351v-527.03279h325.73256c0,0 0,79.77255 0,137.17291c0,16.04341 -73.97934,-34.71315 -73.97934,-10.10748c0,16.37844 1.29467,35.42307 3.54148,56.14188c2.35059,21.67595 -71.38409,-9.68484 -67.34147,14.51997c3.30573,19.79281 7.19764,39.92866 11.41421,62.26414c3.64953,19.33191 -77.45529,-15.6027 -73.48891,4.25427c4.29993,21.52694 7.43043,45.26704 9.69021,69.4091c8.76722,93.66358 4.42848,193.37796 4.42848,193.37796z"/><path d="M425.00919,437.02351c0,0 -4.41107,-99.71438 4.5023,-193.37795c2.29745,-24.14209 5.48014,-47.88218 9.85175,-69.4091c4.03249,-19.85696 -78.42439,15.07764 -74.71403,-4.25428c4.28685,-22.33549 8.24364,-42.47134 11.60449,-62.26414c4.11001,-24.2048 -70.85389,7.15598 -68.46411,-14.51997c2.28425,-20.71881 3.60051,-39.76347 3.60051,-56.14188c0,-24.60567 -75.21263,26.15089 -75.21263,10.10748c0,-57.40037 0,-137.17291 0,-137.17291h331.16275v527.03279z" data-paper-data="{&quot;index&quot;:null}"/></g><path d="M-38.52853,439.68977v-519.37955h557.05706v519.37955z" fill-opacity="0.62745" fill="#000000" stroke="none" stroke-width="0"/></g></g></svg>