<svg version="1.1" xmlns="http://www.w3.org/2000/svg" xmlns:xlink="http://www.w3.org/1999/xlink" width="514.29629" height="219.02896" viewBox="0,0,514.29629,219.02896"><g transform="translate(10.60186,9.62275)"><g data-paper-data="{&quot;isPaintingLayer&quot;:true}" fill-rule="nonzero" stroke-linejoin="miter" stroke-miterlimit="10" stroke-dasharray="" stroke-dashoffset="0" style="mix-blend-mode: normal"><path d="M355.15302,65.24701c7.93325,4.60384 16.34895,7.12168 21.3718,15.49309c4.4115,7.35249 6.08801,17.39973 7.53674,25.87047c2.42208,14.16203 4.53388,28.74607 4.7966,43.12953c0.07328,4.01183 -0.92685,7.58262 -1,11.45882c-0.17891,9.48049 -0.30818,19.08311 -1,28.54118c-0.10026,1.3707 -0.02817,3.02818 -1,4c-5.565,5.56501 -14.39062,4.73451 -15,-4c-0.84825,-12.15827 1.65456,-24.48761 2,-36.54066c0.21353,-7.45014 -1.05472,-14.99442 -1.33334,-22.46391c-0.14463,-3.87738 -1.48816,-7.50931 -1.89115,-11.34691c-1.09485,-10.42605 -1.9007,-23.37369 -8.23662,-32.08464c-3.75723,-5.16563 -12.11312,-6.36226 -17.09514,-10.0644c-0.37207,-0.27648 -0.86685,-0.56511 -1.39493,-0.87506c-0.06534,-0.03718 -0.1301,-0.07526 -0.19427,-0.11422c-1.49089,-0.87882 -3.15573,-1.93195 -3.05738,-3.35806c-0.25733,-0.53079 -0.45772,-1.09433 -0.59322,-1.68266c-3.73778,-1.44989 -7.56718,-3.27265 -9.41721,-3.88712c-5.28514,-1.75543 -11.17066,-1.56973 -16.31059,-3.58389c-1.45628,-0.57066 -2.87863,-1.22576 -4.29027,-1.90767c-3.64517,-0.23248 -7.31775,-1.16119 -8.78069,-4.04833c-0.5698,-0.21315 -1.1452,-0.41244 -1.72757,-0.59449c-1.97478,-0.61733 -4.08999,-0.63757 -5.85559,-1.76113c-9.21922,-5.86678 -15.7497,-14.77981 -19.289,-24.76792c-0.75703,-2.13638 -0.53912,-5.037 -0.5722,-7.15318c-0.0202,-1.2918 -1.87387,-5.31857 -2.05144,-6.0155c-0.3718,-1.45918 0.32082,-3.74745 -1.0379,-4.39655c-8.40137,-4.0136 -16.24439,-3.99187 -25.46345,-3.99187c-5.57356,0 -11.52733,-1.99549 -17.17955,-2.38318c-0.70159,-0.04812 -1.90921,0.04587 -3.32709,0.17075c-1.3396,4.62445 -4.64355,9.03436 -7.24319,13.08943c-3.47491,5.42035 -2.48879,11.75777 -5.2583,17.52246c-1.93418,4.02596 -5.51532,5.4832 -8.80014,8.01452c-0.9809,0.7559 -1.9708,1.49174 -2.97278,2.20102c-0.17396,-0.09791 -0.34644,-0.19782 -0.51687,-0.30049c0,0 -8.94427,-4.47214 -13.41641,4.47214c-0.59657,1.19313 -0.95439,2.30669 -1.12656,3.34066c-0.6671,0.1817 -1.34264,0.34526 -2.02718,0.48952c-5.89177,1.24157 -11.98381,0.37862 -17.92921,0.73777c-5.48301,0.33122 -10.84266,1.51716 -16.40412,1.59556c-4.88691,0.06889 -9.51516,-0.71897 -14.3125,-0.92566c-4.27176,-0.18405 -12.77314,4.62268 -17.89147,5.21929c-4.85835,0.56632 -11.01142,-0.07841 -15.73063,0.95574c-7.23654,1.5858 -14.20403,4.3922 -21.60069,5.00356c-6.50099,0.53733 -13.24319,-0.20633 -19.81319,0.0804c-2.44821,0.10685 -4.61388,2.08928 -7.04456,2.42781c-2.77169,0.38603 -10.7004,-0.49455 -13.57425,-1.93147c-3.53114,-1.76557 -6.27213,-5.62834 -9.58682,-7.84451c-8.64439,-5.77956 -15.51956,-11.10015 -21.76438,-19.76438c-5.97318,-8.28735 -12.01772,-16.00468 -16.43161,-24.83246c-0.5853,-1.11171 -0.91656,-2.378 -0.91656,-3.72165c0,-4.41828 3.58172,-8 8,-8c0.71116,0 1.40065,0.09279 2.05701,0.26694c0.85306,0.1836 1.67232,0.5202 2.41513,1.02486c3.04142,2.06632 4.82957,6.5064 6.08588,9.7755c0.52345,1.3621 3.02805,3.22324 4.09884,4.60919c2.78,3.59821 4.61547,8.17616 7.58465,11.58464c6.14674,7.05618 11.66359,11.54158 19.08939,16.82526c3.23821,2.30409 5.57033,5.45248 9.58338,5.89219c2.28771,0.25066 5.15241,-1.64832 7.47877,-2.07305c3.43187,-0.62656 7.14955,-0.39959 10.60695,-0.57219c4.76963,-0.23812 9.66935,0.9562 14.36967,-0.17196c5.58411,-1.34029 11.69576,-3.8219 17.35009,-4.47114c5.23242,-0.60079 10.43422,-0.1186 15.67668,-0.93644c6.65002,-1.03743 12.57483,-4.6026 19.27023,-5.42046c4.67503,-0.57106 9.81098,1.28574 14.65777,1c5.39215,-0.31788 12.05373,-1.85316 17.66784,-1.60489c4.39464,0.19434 11.62219,1.15983 16.01407,-0.72845c4.27014,-1.83593 8.22415,-4.5741 11.88938,-7.32307c0.68627,-0.51471 3.44261,-1.55905 3.65833,-2.21137c1.18473,-3.58241 1.45955,-7.62788 2.1898,-11.32871c0.98309,-4.98226 5.77121,-9.6948 8.26666,-14.13333c0.92011,-1.63655 1.40877,-3.27636 2.09298,-4.82711c-0.0106,-0.16854 -0.01598,-0.33851 -0.01598,-0.50973c0,-2.60343 1.24359,-4.9164 3.16915,-6.37729c0.24629,-0.23843 0.5209,-0.44835 0.83085,-0.6227c7.28256,-4.09651 23.99708,-0.91277 31.49817,0.66667c2.09158,0.44041 4.47029,-0.38845 6.6332,-0.25293c7.47844,0.46858 13.67776,1.84686 20.71489,4.29782c4.086,1.42312 6.43039,1.20228 9.52862,4.48297c3.94733,4.17979 6.86885,19.50083 6.95846,24.24992c0.0111,0.5881 1.29489,2.22162 1.48875,2.64452c2.58734,5.64424 5.47267,8.83587 10.67027,12.85211c1.81221,1.40031 8.10749,2.8714 9.86501,3.525c0.59413,0.22095 1.16763,0.47485 1.72958,0.74757c4.18955,0.00429 8.34287,0.50681 10.70004,0.42128c5.00465,-0.1816 9.85058,-2.71652 14.67828,-2.71652c2.93532,0 5.71447,1.65098 8.76539,1.71652c2.08351,0.04476 5.81162,-0.82301 8.01515,-0.33333c4.16584,0.92574 7.36561,2.51033 11.234,4.27754c4.33588,1.98078 19.33863,5.8564 25.05127,7.38913c1.375,0.36892 2.97049,-0.32563 4.3814,-0.33333c5.35557,-0.02925 10.71193,0.08125 16.06696,0c2.20019,-0.03339 11.07797,0.09487 13.12938,-0.55156c5.40056,-1.70179 10.4271,-4.51112 15.55928,-6.60386c2.48363,-1.01275 5.01582,-2.64684 7.71455,-3.10072c0.35712,-0.06006 2.26724,-0.06985 2.56463,-0.41053c6.995,-8.01335 14.95109,-15.86089 23.14167,-22.49018c1.50297,-1.21647 3.29951,-6.12255 5.22978,-6.22978l0.60356,-0.60356c0.34048,-0.20429 0.65794,-0.41086 0.96206,-0.61413c0.7525,-0.6799 1.63486,-1.21878 2.60542,-1.57493c0.87372,-0.37888 1.86931,-0.59971 3.20326,-0.53726c4.3341,0.20293 6.7819,3.18086 7.39272,6.44964c0.10497,0.51704 0.16007,1.05218 0.16007,1.6002c0,0.27284 -0.01365,0.54248 -0.04032,0.80829c-0.11519,1.32969 -0.53346,2.60701 -1.25147,3.66385c-0.26138,0.38472 -0.58613,0.73996 -0.9445,1.07582c-0.42775,0.44429 -0.90639,0.83923 -1.42654,1.17546c-0.36655,0.28081 -0.73042,0.55571 -1.06804,0.83274c-1.63816,1.34418 -2.58405,3.93854 -4.27894,5.43404c-5.95727,5.25641 -11.6621,10.96303 -17.48209,16.4821c-2.90578,2.75554 -5.63158,7.75612 -9.17476,9.52772c-2.33024,1.16513 -5.08119,0.25986 -7.20776,1.21482c-7.13523,3.20416 -14.02805,6.55676 -21.54372,9.23513c-3.26822,1.1647 -6.70443,0.18175 -9.95975,0.64453c-7.58139,1.07778 -16.20625,0.45705 -23.59255,0.57219c-3.04127,0.04741 -5.53026,0.47298 -8.55937,-0.0772c-8.07321,-1.46636 -18.89749,-5.97978 -27.38122,-8.10072c-2.14781,-0.53695 -3.84148,-2.86728 -6.22646,-3.04003c0.12628,0.58637 0.27661,2.11286 0.3768,3.66676c0.49231,0.33749 0.90269,0.61565 1.18225,0.77788z" fill="#418a00" stroke="none" stroke-width="0.5" stroke-linecap="butt"/><path d="M489.38166,58.03625c1.42346,1.76575 0.90225,4.88601 0.01972,7.66236c0.3592,3.57762 0.96618,7.14134 1.559,10.68377c0.62368,3.72685 1.27132,9.16951 0.20777,12.90055c-0.80197,2.81341 -3.85006,10.0971 -3.37528,12.81452c0.96075,5.49889 2.06375,11.10499 3.50825,16.55063c0.83455,3.1462 4.18326,12.31916 4.18326,15.02389c0,5.36805 -2.77007,8.83816 -4.13563,14.12287c-2.38824,9.24243 -3.01743,19.07884 -4.32697,28.50529c-0.45799,3.2968 -0.90656,15.92599 -0.94309,17.12681c-0.08062,2.64998 0.58509,7.50728 -1.34458,9.90388c-4.86221,6.03872 -12.15672,4.83464 -19.65542,4.92229c-5.33208,0.06232 -11.74603,1.64178 -17,1c-6.49691,-0.79361 -12.1435,-3.41492 -18.91989,-4c-6.62568,-0.57207 -13.46908,2.04984 -20.13289,2.04984c-3.25399,0 -5.56355,-2.02987 -8.50938,-2.94417c-4.88749,-1.51693 -9.81438,-2.59497 -14.65858,-4.1377c-0.42671,-0.0381 -0.84377,-0.10971 -1.24854,-0.21217c-3.46603,-0.87736 -6.03072,-4.01707 -6.03072,-7.75581c0,-2.60343 1.24359,-4.91641 3.16915,-6.3773c0.24629,-0.23843 0.5209,-0.44835 0.83085,-0.6227c0.2964,-0.16673 0.62551,-0.303 0.98317,-0.41165c0.65998,-0.26891 1.36394,-0.45223 2.09809,-0.53617c-1.31592,-4.16913 -0.91439,-8.83771 -0.09288,-15.6987c0.377,-3.14859 2.31287,-6.37982 1.38449,-9.41196c-0.87581,-2.86045 -5.06804,-4.22517 -5.23348,-7.79541c-0.22789,-4.91792 3.82518,-8.19431 4.08772,-12.90831c0.2342,-4.20512 -0.77924,-22.52751 -1.408,-25.72206c-0.28172,-1.43135 -1.587,-2.44917 -2.33076,-3.70414c-1.22986,-2.07515 -3.04669,-6.43591 -3.42554,-7.31709c-2.46506,-5.7335 -2.07685,-11.12176 -3.16904,-16.65849c-0.06241,-0.31639 -1.40313,-0.36129 -1.49786,-0.39609c-3.52855,-1.29621 -7.03232,-2.66046 -10.51978,-4.06349c-2.65598,-1.06852 -7.48353,-3.63337 -11.89619,-6.59072c-0.38848,0.46512 -0.82879,0.88544 -1.31206,1.25209c-0.24629,0.23843 -0.5209,0.44835 -0.83085,0.6227c-5.19421,2.9218 -11.84027,0.32791 -17.35819,0.68679c-5.27543,0.34311 -10.43412,2.56159 -15.64181,2.81321c-2.97466,0.14372 -6.4448,-0.14518 -9.42866,0.5c-2.32815,0.5034 -5.59705,2.04984 -8.01856,2.04984c-8.52639,0 -13.78275,-0.29307 -21.06794,0.45016c-6.72959,0.68655 -13.2566,3.86682 -20.25663,3.34419c-1.14493,-0.08548 -3.04357,1.20565 -4.281,1.20565c-5.29811,0 -10.2396,-5.19557 -15.65506,-4.54984c-5.9143,0.70521 -11.8487,2.78808 -17.79216,3c-8.07267,0.28784 -16.14773,-1.46391 -24.20784,-1c-9.19497,0.52923 -18.40283,3.23723 -27.79216,3.5c-7.5318,0.21079 -14.97903,1.43603 -22.5,1.5c-3.87927,0.033 -9.38405,-1.07909 -13.39675,-0.72419c-3.74924,0.3316 -7.11124,2.10499 -10.91792,2.2999c-0.40523,0.1745 -0.8241,0.30754 -1.25234,0.41124c-0.52689,0.14617 -1.07565,0.23977 -1.64026,0.27481c-1.98016,0.21928 -4.04037,0.15698 -5.80474,0.8802l-0.52917,0.54898l-0.27058,-0.00079l-0.2441,0.20809l-1.75323,0.87068l-2.33767,1.16098l-0.77449,0.16992l-0.69219,0.38675l-1.51609,0.41069c-4.47187,2.0698 -9.62392,4.47272 -11.80022,5.58407c-0.70965,0.36239 -0.56319,2.22944 -0.6912,2.82582c-0.69302,3.22862 -1.89822,5.97785 -3.68947,8.77018c-4.55123,7.09482 -5.43672,15.0186 -7.81053,23.22982c-1.05856,3.66164 -3.89908,5.71977 -5.76304,8.93171c-2.98544,5.14446 -4.96323,11.24873 -9.66957,15.19532c-3.37991,2.83428 -7.92164,4.71797 -11.90656,6.85063c-3.88062,2.07685 -7.32146,5.02809 -11.25029,6.99251c-8.52941,4.26471 -21.72101,3.45773 -30.2833,1.55418c-6.98809,-1.55358 -15.42444,-1.90755 -18.37212,-9.47647c-2.32858,-5.97923 -1.04066,-13.24425 -0.83942,-19.39267c0.12748,-3.8949 1.25469,-23.86238 1.46989,-31.33452c0.00533,-0.18519 -0.73494,-12.10333 -0.90405,-13.12027c-0.63315,-3.80757 -3.74513,-9.87432 -3.071,-14.23025c0.71606,-4.62686 2.98051,-6.90733 4.32139,-11.87882c1.63532,-6.06317 2.63681,-12.28138 3.78569,-18.45523c0.60322,-3.24155 0.95889,-7.92272 0.57817,-11.40692c-0.23756,-2.17405 -3.46342,-4.8349 -3.46342,-6.63771c0,-7.54247 2.35702,-9.89949 9.89949,-9.89949c3.35319,0 6.12804,5.27358 7.15901,7.76256c0.35694,0.86174 0.6716,1.68907 0.94745,2.49008c0.43977,-0.0749 0.89177,-0.11392 1.35289,-0.11392c3.79119,0 6.96644,2.63717 7.7914,6.17715c4.78284,-0.33605 7.94741,1.51025 9.86402,6.24514c0.91666,2.26456 1.74494,4.96355 2.29539,7.75798h0.51041l4,1l0.15068,0.26369l0.30329,0.01603l0.27284,0.31657l0.15159,-0.37107l0.39474,-1.57895l0.32651,-0.18658l0.31424,-0.76922l3.34457,-1.32153l3.01468,-1.72267l0.54989,0.31422l0.58902,-0.23274l2.73873,2.13431l3.12237,1.78421l0.20153,0.80612l0.29662,0.23116l0.16593,1.61906l0.33591,1.34365v0.2456l0.01192,0.01587l-0.01192,0.07277v0.82676l-0.19935,0.7974l-0.17436,1.21225l-0.09984,0.24439l2.83325,-0.29113l0.66917,-1.349l2.32429,-0.16769l2.1109,-1.25221l3.1403,0.87336l0.46587,-0.03361l0.26099,0.23576l0.10518,0.02925l0.06013,0.03413l4.52674,-0.17986l4.50988,-0.74657l4.71238,-1.10132l0.26805,0.00413l0.24597,-0.10662l7.01321,-1.16101l0.13257,0.01075l0.12368,-0.04892l4.38324,-0.58051l0.76269,0.08679l0.54936,-0.10373l1.19358,-0.85779l0.22289,-0.44928l0.44713,-0.03224l1.0575,-0.75999l1.46109,-0.58047l0.54244,-0.07268l0.48331,-0.25678l3.50662,-0.87076l0.97861,0.00155l0.94939,-0.23735h7.59766l0.10996,0.02749l0.11068,-0.02445l4.06423,0.11214l1.65052,-2.88842l0.69372,-0.17343l0.1992,-0.26606l1.69033,-0.20632l1.41674,-0.35419h14.02649l0.50255,0.12564l0.51444,-0.06073l8.98904,1.15207l4.75287,0.52453h6.12792l7.44501,-0.28442l0.15337,0.03218l0.15203,-0.03801h18.26593l1.48958,-0.85658c-1.61832,7.10286 5.48454,10.65429 5.48454,10.65429c1.38473,-1.2738 -0.63782,0.34775 1.90557,2.6313c2.05476,1.84484 5.06635,2.32849 7.22997,4.04436c1.10917,0.87963 1.8558,2.17359 3.003,3.003c2.99285,2.1638 7.06139,3.67506 10.38398,5.33635c1.001,0.5005 1.89843,1.32143 3.003,1.5015c4.20345,0.68526 9.07682,3.24889 12.73245,1.06374c2.97537,-1.77853 4.57774,-7.9934 4.87508,-13.40724c3.44957,0.13945 7.0681,0.28185 10.18316,-0.3818c1.09459,-0.23319 1.9411,-1.14815 3.003,-1.5015c1.17598,-0.3913 2.46911,0.26751 3.70848,0.26751h3.003c0,0 10,0 10,-10c0,-10 -10,-10 -10,-10h-3.003c-2.05173,0 -6.81104,-0.05045 -8.30354,0.26751c-1.09459,0.23319 -1.9411,1.14815 -3.003,1.5015c-1.17598,0.3913 -2.46911,-0.26751 -3.70848,-0.26751c-2.002,0 -4.004,0 -6.00601,0c-5.49862,0 -14.17662,-0.84308 -17.51552,4.74269c-0.31299,0.52361 -0.53318,1.07151 -0.67675,1.63831c-1.33626,-0.96341 -2.83853,-1.69707 -4.36262,-2.32227c-0.16932,-0.06946 -0.29673,0.51993 -0.40407,0.3717c-0.65643,-0.90643 -0.66875,-2.25533 -1.5015,-3.003c-1.6221,-1.45638 -3.73462,-2.2498 -5.60193,-3.37471c0,0 -0.79308,-0.39654 -2.025,-0.7173l2.34759,-1.74881l0.80161,-0.79621l3.82069,-7.08392l0.02729,-0.02992l0.01039,-0.03914l4.96774,-8.99774l0.08456,-0.09087l0.03546,-0.11895l5.8443,-9.8685l0.19703,-0.1993l0.09826,-0.26246l3.70451,-5.37781l2.48256,-3.9453l0.86109,-2.05265l0.72217,-2.88869l2.04031,-1.16589l0.05204,-0.06958l0.08876,-0.01088l4.81889,-2.75365l5.34834,3.0562l3.35204,-4.66119l2.25401,-1.90764l0.24091,-0.4216l0.36507,-0.09127l0.28724,-0.2431l0.48294,0.05056l2.86474,-0.71619h2.33768l0.01141,0.00285l2.56894,-1.52963l2.21872,0.61314l2.23853,-0.53633l3.14902,2.02516l0.16472,0.04552l0.01966,0.07306l0.13447,0.08648l3.87668,4.1256l1.98204,-1.1326l1.67299,0.956l1.92419,-0.10164l1.28132,1.93336l2.1215,1.21229l0.10327,0.41309l0.56313,0.32179l3.11299,0.87003l0.70115,1.30948l0.48714,0.27837l0.29612,1.18447l0.46183,0.86253l0.29227,1.16098l0.00069,0.42278l0.15988,0.39138l0.55685,3.87182l1.42425,7.35636l-0.00103,0.01921l0.00804,0.01747l0.80721,4.27615l1.0654,3.70373l0.01167,0.33223l0.1427,0.30025l0.57638,2.86261l1.06502,5.02471l1.51349,4.50975l0.57727,1.37617l3.26951,0.69075l0.24689,0.3974l0.46719,0.02469l1.91078,2.21713l2.24921,-0.34907l0.00289,-0.00303l0.01678,-0.00003l0.95142,-0.14766l1.57418,0.14366l1.58072,-0.0025l0.93444,0.23204l0.01671,0.00153l0.00261,0.00327l2.5528,0.63391l0.03107,0.01651l0.13601,-0.03759l1.71321,1.02008l1.76081,0.93552l0.03842,0.13578l0.03023,0.018l1.16888,1.16103l0.88752,1.46795l0.47156,-0.20817l0.68704,-0.11846l0.61567,-0.32711l1.16888,-0.29027l0.97865,0.00154l0.94943,-0.23736h2.92221l0.76811,0.19203l0.79081,-0.03867l1.46103,0.29027l3.72846,1.76029l2.55926,7.64527l-1.26726,1.45876c4.33994,-0.73407 8.77464,-0.79449 13.0603,-0.67712c2.49754,0.0684 5.00062,-0.0871 7.49856,-0.08392c0.23653,-1.09268 0.52517,-2.09306 0.74203,-2.74081c2.48834,-7.43284 19.87154,-1.51188 23.52667,-0.3625c4.02888,1.26691 8.02028,2.8343 12.14728,3.78693c0.36546,0.08436 1.11027,-0.50112 1.43033,-0.60888c3.00505,-1.01172 6.00868,-2.03587 9.05875,-2.90248c4.11974,-1.17054 14.31541,0.36441 15.24247,0.42719c6.17844,0.41842 11.63277,7.49551 16.84326,8.32251c2.3703,0.37621 6.17468,-3.3324 9.19899,-4.21564c2.51642,-0.73492 4.98469,-1.81981 7.59766,-2.03175c1.29872,-0.10534 2.83494,-0.28045 4.12256,-0.06731c0.31393,0.05197 1.67777,0.5353 1.72076,0.50407c5.63271,-4.092 10.24368,-9.83792 16.60246,-12.67303c1.54852,-0.69042 3.90749,1.00362 4.74986,0.69688c3.6851,-1.34191 6.81988,-7.32998 9.01444,-9.81257c0.17897,-0.24616 0.37163,-0.48171 0.57687,-0.70555c0.44813,-0.569 0.92161,-1.17363 1.45674,-1.56293c0.58853,-1.84078 1.58931,-3.42594 3.369,-4.33892c0.11116,-0.05703 8.01412,-0.46763 8.04984,-0.44721c1.39658,0.79805 1.75144,2.69936 2.67673,4.0151c0.50452,0.71741 1.66269,2.01227 1.7954,2.69311c0.77119,3.95634 -2.75681,13.63507 -3.43798,18.99781c0.06448,0.07697 0.12818,0.15449 0.19111,0.23254zM241.04268,45.33969c5.52285,0 10,-4.47715 10,-10c0,-5.52285 -4.47715,-10 -10,-10c-5.52285,0 -10,4.47715 -10,10c0,5.52285 4.47715,10 10,10zM226.08987,39.31255l0.08763,-0.06466l-0.00547,-0.0869z" fill="#418a00" stroke="none" stroke-width="0.5" stroke-linecap="butt"/><path d="M92.69443,99.65623l-95,-85" fill="none" stroke="#000000" stroke-width="2" stroke-linecap="round"/><path d="M490.69443,30.65623l-136,55" fill="none" stroke="#000000" stroke-width="2" stroke-linecap="round"/><path d="M11.69443,26.65623l-17,21" fill="none" stroke="#000000" stroke-width="2" stroke-linecap="round"/><path d="M469.69443,42.65623l33,32" fill="none" stroke="#000000" stroke-width="2" stroke-linecap="round"/></g></g></svg>