<svg version="1.1" xmlns="http://www.w3.org/2000/svg" xmlns:xlink="http://www.w3.org/1999/xlink" width="58.06941" height="27.41344" viewBox="0,0,58.06941,27.41344"><g transform="translate(-283.8611,-226.58943)"><g data-paper-data="{&quot;isPaintingLayer&quot;:true}" fill-rule="nonzero" stroke-linejoin="miter" stroke-miterlimit="10" stroke-dasharray="" stroke-dashoffset="0" style="mix-blend-mode: normal"><path d="M336.19371,252.37033c-4.95827,1.88326 -17.7773,1.72567 -24.13638,1.50305c-6.76445,-0.23683 -17.66539,0.75482 -22.64223,-1.72173c-7.41303,-3.6888 -6.90482,-19.69861 -1.42895,-22.90096c5.66075,-3.31047 15.67887,-2.40465 24.23876,-2.10499c9.04192,0.31649 20.33929,-2.3247 25.7882,1.72761c4.69944,3.49499 6.35288,20.39298 -1.81933,23.49695z" fill="#474747" stroke="none" stroke-width="0" stroke-linecap="butt"/><path d="M290.01674,240.89678c0,-5.10863 4.14137,-9.25 9.25,-9.25c5.10863,0 9.25,4.14137 9.25,9.25c0,5.10863 -4.14137,9.25 -9.25,9.25c-5.10863,0 -9.25,-4.14137 -9.25,-9.25z" fill="none" stroke="#000000" stroke-width="5" stroke-linecap="butt"/><path d="M308.51674,238.14678h29v7" fill="none" stroke="#000000" stroke-width="5" stroke-linecap="round"/><path d="M323.51674,238.89678v6.75" fill="none" stroke="#000000" stroke-width="5" stroke-linecap="round"/></g></g></svg>