<svg version="1.1" xmlns="http://www.w3.org/2000/svg" xmlns:xlink="http://www.w3.org/1999/xlink" width="586.08108" height="11.00601" viewBox="0,0,586.08108,11.00601"><g transform="translate(39.23509,-175.48233)"><g data-paper-data="{&quot;isPaintingLayer&quot;:true}" fill-rule="nonzero" stroke="none" stroke-linecap="butt" stroke-linejoin="miter" stroke-miterlimit="10" stroke-dasharray="" stroke-dashoffset="0" style="mix-blend-mode: normal"><path d="M242.625,180c0,1.38071 -1.17525,2.5 -2.625,2.5c-1.44975,0 -2.625,-1.11929 -2.625,-2.5c0,-1.38071 1.17525,-2.5 2.625,-2.5c1.44975,0 2.625,1.11929 2.625,2.5z" fill="#000000" stroke-width="NaN"/><path d="M-39.23509,177.98233c0,-1.38071 1.11929,-2.5 2.5,-2.5c1.38071,0 2.5,1.11929 2.5,2.5c0,1.38071 -1.11929,2.5 -2.5,2.5c-1.38071,0 -2.5,-1.11929 -2.5,-2.5z" fill="none" stroke-width="0.5"/><path d="M541.84599,183.98834c0,-1.38071 1.11929,-2.5 2.5,-2.5c1.38071,0 2.5,1.11929 2.5,2.5c0,1.38071 -1.11929,2.5 -2.5,2.5c-1.38071,0 -2.5,-1.11929 -2.5,-2.5z" fill="none" stroke-width="0.5"/></g></g></svg>