<svg version="1.1" xmlns="http://www.w3.org/2000/svg" xmlns:xlink="http://www.w3.org/1999/xlink" width="487.22995" height="147.03294" viewBox="0,0,487.22995,147.03294"><g transform="translate(7.96297,-215.12329)"><g data-paper-data="{&quot;isPaintingLayer&quot;:true}" fill-rule="nonzero" stroke-linecap="butt" stroke-linejoin="miter" stroke-miterlimit="10" stroke-dasharray="" stroke-dashoffset="0" style="mix-blend-mode: normal"><path d="M-4.30557,359.65623l53,-136l376.5,-2.5l50.5,138.5z" fill="#9c9c9c" stroke="#000000" stroke-width="5"/><path d="M180.77455,216.26948c1.38675,2.08013 -0.69338,3.46688 -0.69338,3.46688l-3,2c-1.58454,1.04809 -3.13283,2.18513 -4.47447,3.53021c-2.87358,3.95734 -6.56121,4.83099 -10.4505,7.41777c-0.88891,0.59121 -1.3792,1.70979 -2.32764,2.19984c-0.90123,0.46565 -2.06052,0.15059 -2.99325,0.5494c-1.41568,0.60531 -2.58722,1.67504 -3.93786,2.41417c-1.14838,0.62844 -2.54717,0.83946 -3.54852,1.68268c-0.98398,0.82859 -1.13977,2.44852 -2.20818,3.16496c-1.23283,0.82668 -3.00244,0.45471 -4.29034,1.19268c-1.34329,0.76971 -2.13306,2.26493 -3.36961,3.1965c-1.31799,0.99292 -2.93454,1.54308 -4.24785,2.54218c-2.21705,1.68663 -3.78284,4.1083 -5.90053,5.91812c-3.27338,2.79751 -7.44895,5.33022 -11.06176,7.67267c-1.54794,1.00365 -3.05831,2.12559 -4.7784,2.79244c-1.45944,0.5658 -3.21828,0.15019 -4.61819,0.85044c-1.1608,0.58064 -1.67191,2.01233 -2.69686,2.80861c-2.25612,1.75277 -4.98437,2.79516 -7.43814,4.25848c-2.56291,0.86186 -4.84704,2.50604 -7.47026,3.16184c-1.17057,0.29264 -2.47325,-0.50572 -3.61767,-0.12342c-0.89424,0.29872 -1.09114,1.74926 -2,2c-6.1582,1.69893 -13.43639,-0.65193 -19.74187,0.56431c-2.37583,0.45827 -4.83284,0.9959 -6.90051,2.25262c-0.91525,0.55628 -1.35506,1.80624 -2.35762,2.18307c-3.95764,1.48756 -9.10258,-1.12482 -13,0c-0.80066,0.23107 -0.94414,1.46818 -1.68776,1.84431c-4.30577,2.17796 -10.10954,2.36331 -14.77866,3.29744c0,0 -2.45145,0.49029 -2.94174,-1.96116c-0.49029,-2.45145 1.96116,-2.94174 1.96116,-2.94174c3.92396,-0.78454 9.63466,-0.79344 13.22134,-2.70256c0.93018,-0.49512 1.2985,-1.86808 2.31224,-2.15569c0.72239,-0.20495 9.75907,-0.22266 10.95671,-0.1903c0.6838,0.01848 1.41748,0.46649 2.04329,0.1903c0.7469,-0.32963 0.94007,-1.40066 1.64238,-1.81693c2.59965,-1.54083 5.61815,-2.34198 8.58632,-2.90966c4.5958,-0.87898 10.03227,-0.53646 14.71037,-0.46365c1.35496,0.02109 2.76245,0.57796 4.06093,0.19024c0.9034,-0.26975 1.1054,-1.70236 2,-2c1.38662,-0.46134 2.9646,0.23101 4.38233,-0.12342c2.30243,-0.57561 4.27613,-2.094 6.52974,-2.83816c2.15528,-1.3017 4.57001,-2.20133 6.56186,-3.74152c1.21116,-0.93652 1.93744,-2.49941 3.30314,-3.19139c1.57746,-0.79927 3.53394,-0.48415 5.18761,-1.11072c1.392,-0.52742 2.58568,-1.48013 3.82531,-2.30423c3.42063,-2.27401 7.40605,-4.58409 10.52871,-7.26949c0.95889,-0.82462 5.2438,-5.42447 6.09947,-6.08188c1.33473,-1.02548 2.97749,-1.59693 4.32708,-2.60278c1.43155,-1.06694 2.43016,-2.69679 3.97787,-3.58691c1.12343,-0.6461 2.70846,-0.1608 3.78726,-0.87896c0.9306,-0.6195 0.92958,-2.12347 1.79182,-2.83504c1.29022,-1.06477 2.98908,-1.50505 4.45148,-2.31732c1.56815,-0.87101 2.98889,-2.02281 4.63707,-2.73079c0.75066,-0.32245 1.70493,0.06732 2.43182,-0.30564c0.72871,-0.37389 0.99138,-1.34509 1.67236,-1.80016c3.59651,-2.40343 7.03363,-2.88591 9.5495,-6.58223c1.6767,-1.67361 3.55854,-3.14947 5.52553,-4.46979l3,-2c0,0 2.08013,-1.38675 3.46688,0.69338z" fill="#ffffff" stroke="none" stroke-width="0.5"/><path d="M201.46219,347.88847c1.76777,1.76777 0,3.53553 0,3.53553l-1.83441,1.81721c-1.229,1.30095 -1.91808,3.63118 -3.68701,3.90286c-1.59757,0.24537 -2.75924,-1.70138 -4.01411,-2.72007c-1.65754,-1.34557 -2.26927,-3.61747 -3.35886,-5.45344c-0.42547,-0.71692 -1.28502,-1.07911 -1.80673,-1.72936c-1.50423,-1.87485 -2.46019,-4.15426 -4,-6c-3.14243,-3.76677 -7.01349,-6.5266 -10.65162,-9.65162c-1.28039,-1.0998 -2.59783,-2.21968 -3.54165,-3.61903c-0.47439,-0.70335 0.10307,-1.96619 -0.572,-2.48002c-1.09361,-0.83241 -2.95475,-0.10762 -4,-1c-1.0251,-0.87518 -0.92113,-2.54226 -1.54716,-3.73593c-0.96575,-1.84142 -2.30466,-3.46221 -3.40872,-5.22418c-1.41138,-0.7454 -3.11451,-1.09862 -4.23413,-2.23619c-1.2679,-1.28823 -1.29474,-3.56332 -2.69634,-4.70465c-1.17547,-0.95719 -2.81185,-1.4707 -3.61921,-2.75371c-0.48352,-0.76838 0.68234,-1.96427 0.17608,-2.71787c-0.41006,-0.61041 -1.52938,0.04826 -2.18851,-0.27778c-2.50591,-1.23954 -4.3975,-3.46072 -6.46923,-5.33794c-7.17841,-6.50446 -14.35449,-12.78784 -21.89533,-18.9096c-1.45088,-1.17784 -6.35441,-5.3135 -6.6828,-5.87607c-0.68346,-1.17087 -0.15735,-2.70693 -0.23603,-4.06039c0,0 0,-2.5 2.5,-2.5c2.5,0 2.5,2.5 2.5,2.5c-0.07868,0.64654 -0.60491,1.40284 -0.23603,1.93961c0.7451,1.08422 2.13805,1.53451 3.17759,2.34076c3.35779,2.60424 6.70675,5.27578 10.02238,7.93318c4.96617,3.98027 9.51704,8.67435 14.2219,12.94039c1.78623,1.61963 3.44788,3.4474 5.53077,4.66206c1.20435,0.70233 2.94267,0.63187 3.81149,1.72222c0.68276,0.85686 -0.3626,2.32809 0.17608,3.28213c0.44041,0.78001 1.67628,0.69308 2.38079,1.24629c0.95679,0.75131 1.89773,1.5869 2.54165,2.61903c0.49097,0.78697 0.09974,2.02689 0.76201,2.67632c0.9897,0.97052 2.51058,1.17587 3.76587,1.76381c0.37359,0.53714 4.2434,6.03815 4.59128,6.77582c0.32828,0.69611 -0.16789,1.80906 0.45284,2.26407c1.10846,0.81253 2.94386,0.12054 4,1c0.97302,0.81025 0.73156,2.46251 1.428,3.51998c1.48491,2.25466 3.44422,2.76215 5.45835,4.38097c2.87197,2.3083 6.00587,5.53464 8.34838,8.34838c1.98775,2.38762 2.12134,3.64504 4,6c0.65624,0.82262 1.64799,1.37063 2.19327,2.27064c0.54621,0.90154 0.47052,2.08854 1,3c0.37757,0.64997 1.26614,0.8951 1.64114,1.54656c0.21286,0.36978 -0.16066,1.68065 -0.01411,1.27993c0.24277,-0.66379 0.20866,-1.39809 0.31299,-2.09714l2.16559,-2.18279c0,0 1.76777,-1.76777 3.53553,0z" fill="#ffffff" stroke="none" stroke-width="0.5"/><path d="M335.08118,353.73636c-2.08013,1.38675 -3.46688,-0.69338 -3.46688,-0.69338l-2.16566,-3.28837c-0.29361,-0.92802 -0.37933,-1.94984 -0.88084,-2.78405c-0.51512,-0.85684 -1.6182,-1.27081 -2.08755,-2.15355c-0.45418,-0.85419 -0.13244,-1.98311 -0.57054,-2.84566c-1.49814,-2.94964 -4.02635,-5.30188 -5.48657,-8.27047c-0.36051,-0.7329 -1.55286,-5.14657 -2.21036,-5.90115c-0.99609,-1.14316 -2.49863,-1.73049 -3.6363,-2.73285c-2.01814,-1.77812 -3.34303,-4.23051 -5.24769,-6.12968c-3.31722,-3.30767 -5.09308,-2.65571 -7.80987,-7.04922c-0.72283,-1.16893 -0.33238,-2.79868 -1,-4c-0.5791,-1.04205 -1.72818,-1.64265 -2.59227,-2.46398c0,0 -0.13331,-0.13331 -0.2901,-0.36331c-1.31746,0.86321 -2.8833,1.35153 -4.29624,2.06768c-7.36851,3.73477 -16.22808,4.94877 -23.18412,9.55597c-3.27336,2.16805 -4.9635,6.33953 -7.78743,8.82839c-1.46259,1.28905 -3.21206,2.26062 -5.00522,3.02573c-1.40971,0.60151 -3.1138,0.33365 -4.48286,1.0227c-0.7832,0.39419 -0.92668,1.54561 -1.63815,2.05806c-1.23839,0.89197 -2.84112,1.18271 -4.08634,2.06511c-4.57771,3.24391 -8.57895,8.63461 -12.57314,12.6099c-1.05687,1.39271 -1.93511,2.94113 -3.1706,4.17813c-0.84932,0.85035 -2.15016,1.15016 -3,2c-1.17851,1.17851 -1.67802,2.98503 -3,4c-1.60976,1.23591 -3.5361,2.93015 -5.52938,2.54855c-1.52739,-0.29241 -1.41761,-2.78047 -2.31529,-4.05036c-0.43389,-0.6138 -1.09409,-1.03104 -1.64114,-1.54656l-1.35027,-0.5317c0,0 -2.23607,-1.11803 -1.11803,-3.3541c1.11803,-2.23607 3.3541,-1.11803 3.3541,-1.11803l2.64973,1.4683c0.78629,0.81781 1.88125,1.42438 2.35886,2.45344c0.27715,0.59714 -0.51124,1.32116 -0.31529,1.94964c0.1514,0.48556 0.19747,-1.02241 0.47062,-1.45145c0.89507,-1.40593 1.82149,-2.82149 3,-4c0.84984,-0.84984 2.14961,-1.15071 3,-2c1.12154,-1.12009 1.88627,-2.54791 2.8294,-3.82187c4.25715,-4.275 8.54461,-9.87686 13.42686,-13.3901c1.18123,-0.85001 2.73156,-1.08608 3.91366,-1.93489c0.85526,-0.61412 1.14984,-1.88925 2.08525,-2.3726c2.80366,-1.44876 6.4758,-1.37363 8.78852,-3.5209c2.93176,-2.72202 4.74539,-6.84833 8.21257,-9.17161c7.17655,-4.80885 16.22068,-6.20732 23.87161,-9.97189c1.3238,-0.65137 2.85932,-0.96957 3.9883,-1.91938c1.17416,-0.98782 1.80882,-2.47908 2.71323,-3.71863c0.21617,-0.21679 6.09479,-6.1206 6.30038,-6.29266c2.04606,-1.71234 4.42875,-3.13546 6.01496,-5.28079c1.00069,-1.35342 1.61128,-2.96691 2.60278,-4.32708c1.42759,-1.9584 3.64932,-3.35838 4.71317,-5.5359c1.23611,-2.5301 1.53657,-5.66475 3.48958,-7.69334c2.45624,-2.5513 6.44071,-4.81974 9.12976,-7.12087c0.02336,-0.01999 4.94724,-5.00614 5.32368,-5.23799c0.89751,-0.55279 2.09378,-0.4616 3,-1c0.92079,-0.54706 1.35506,-1.80624 2.35762,-2.18307c0.54107,-0.20337 4.46105,-0.19823 6.25057,-0.19235c-0.83667,-0.35911 -1.6986,-0.80333 -2.60819,-1.37133c-3.7116,-2.31772 -6.57545,-5.55343 -10.1296,-8.08578c-0.55404,-0.39476 -6.00297,-3.95539 -6.29685,-4.2465c-3.07522,-3.04629 -5.23016,-7.10497 -8.78298,-9.81239c-2.45659,-1.87204 -5.29271,-3.18921 -7.86299,-4.90183c0,0 -2.08013,-1.38675 -0.69338,-3.46688c1.38675,-2.08013 3.46688,-0.69338 3.46688,-0.69338c2.66273,1.77611 5.59603,3.15186 8.13701,5.09817c3.70993,2.84168 6.0367,6.97104 9.21702,10.18761c1.60011,1.61835 3.85268,2.42867 5.70315,3.7535c3.43408,2.45861 6.29397,5.67664 9.8704,7.91422c4.08889,2.55821 6.84477,2.10992 11.33602,3.43391c2.75584,0.8124 5.51541,1.92225 7.80396,3.65925c1.08275,0.8218 1.75737,2.11193 2.86002,2.90684c1.30374,0.93989 3.26866,0.64422 4.68567,0.62663c1.57482,0.03576 3.20477,-0.30731 4.72446,0.10727c1.15948,0.31631 1.83686,1.69741 3,2c3.19833,0.83204 4.87065,-0.99378 8,0c2.65634,0.84356 4.86802,2.87889 7.57632,3.53679c2.62598,0.6379 5.49917,0.50187 7.93097,1.68044c0.7622,0.3694 0.95102,1.52168 1.72496,1.8658c0.62504,0.27792 1.35934,-0.17922 2.04329,-0.1903c1.85802,-0.0301 3.75892,-0.32967 5.57438,0.06688c1.55468,0.33958 2.80213,1.53189 4.29298,2.08841c2.95624,1.10353 7.29613,2.42146 10.43809,2.86344c1.07913,0.1518 2.22001,-0.2474 3.26892,0.04815c1.43484,0.40429 2.55737,1.62444 4,2c1.10525,0.28773 2.28357,-0.05659 3.42562,-0.06688c3.908,-0.0352 6.60086,0.04264 10.39366,-0.92536l-0.16143,-0.34241c0,0 1.76777,-1.76777 3.53553,0c1.76777,1.76777 0,3.53553 0,3.53553l-2.16143,1.65759c-4.66575,1.14549 -11.40625,2.15867 -16.18072,1.00777c-1.4492,-0.34933 -2.56827,-1.58483 -4,-2c-0.87448,-0.25358 -1.82999,0.17877 -2.73108,0.04815c-3.44448,-0.49933 -8.29895,-1.90719 -11.56191,-3.13656c-1.30101,-0.49018 -2.35117,-1.60405 -3.70702,-1.91159c-1.76939,-0.40135 -6.51083,0.57466 -8.38233,-0.12342c-0.97423,-0.3634 -1.3518,-1.65587 -2.27504,-2.1342c-1.52466,-0.78993 -5.00197,-0.75268 -6.5822,-1.15728c-1.79986,-0.46083 -3.59545,-0.99835 -5.28443,-1.77243c-0.97393,-0.44637 -1.61683,-1.4936 -2.62608,-1.85306c-2.51209,-0.89472 -5.40787,0.62609 -8,0c-1.16826,-0.28218 -1.84935,-1.65296 -3,-2c-1.0459,-0.31545 -2.18369,0.07151 -3.27554,0.10727c-2.88644,-0.0274 -4.63124,0.31329 -7.31433,-1.37337c-1.24385,-0.78192 -1.98111,-2.19006 -3.13998,-3.09316c-1.82559,-1.42267 -4.07292,-2.28443 -6.29654,-2.92653c-2.72865,-0.78794 -4.97651,-1.06744 -7.22719,-1.67356c0.28213,0.36286 0.47804,0.86679 0.47804,1.56663c0,2.5 -2.5,2.5 -2.5,2.5c-1.68229,0 -3.50422,-0.86955 -5.04329,-0.1903c-0.7469,0.32963 -0.94442,1.39341 -1.64238,1.81693c-0.90117,0.54682 -2.08854,0.47052 -3,1c-1.9237,1.11749 -2.98831,3.31286 -4.67632,4.76201c-2.73922,2.35161 -6.26601,4.40859 -8.87024,6.87913c-1.64151,1.55725 -1.4828,4.29083 -2.51042,6.30666c-1.26422,2.47994 -3.6523,4.21096 -5.28683,6.4641c-0.96897,1.3357 -1.5453,2.93286 -2.54218,4.24785c-3.40205,4.48768 -8.5292,7.85351 -12.5397,11.85162c-0.27648,0.36015 -0.53453,0.73805 -0.7881,1.12026c0.41261,0.21934 0.66723,0.47396 0.66723,0.47396c1.13591,1.17867 2.58129,2.12303 3.40773,3.53602c0.69388,1.18635 0.30839,2.81233 1,4c1.00098,1.71892 6.06375,5.05199 7.16148,6.15255c1.76918,1.77374 2.97368,4.08193 4.85202,5.73963c1.36265,1.20258 3.10653,1.99667 4.26399,3.39784c2.18023,2.63929 1.49525,4.18775 2.81828,6.89709c1.4708,3.01194 4.01006,5.40949 5.54036,8.39163c0.38419,0.74869 0.0064,1.74979 0.40254,2.49223c0.41714,0.78179 1.45719,1.08623 1.91245,1.84645c0.58315,0.97378 0.74611,2.14397 1.11916,3.21595l1.83434,2.71163c0,0 1.38675,2.08013 -0.69338,3.46688z" fill="#ffffff" stroke="none" stroke-width="0.5"/></g></g></svg>