<svg version="1.1" xmlns="http://www.w3.org/2000/svg" xmlns:xlink="http://www.w3.org/1999/xlink" width="50.76637" height="50.41709" viewBox="0,0,50.76637,50.41709"><g transform="translate(-215.5931,-154.79145)"><g data-paper-data="{&quot;isPaintingLayer&quot;:true}" fill-rule="nonzero" stroke="none" stroke-width="0" stroke-linecap="butt" stroke-linejoin="miter" stroke-miterlimit="10" stroke-dasharray="" stroke-dashoffset="0" style="mix-blend-mode: normal"><path d="M241.01517,204.29668c-13.53098,0 -24.5,-10.96902 -24.5,-24.5c0,-13.53098 10.96902,-24.5 24.5,-24.5c13.53098,0 24.5,10.96902 24.5,24.5c0,13.53098 -10.96902,24.5 -24.5,24.5z" data-paper-data="{&quot;index&quot;:null}" fill="#ffffff"/><path d="M228.66796,158.29145l7,-3.5h5v24.83334z" data-paper-data="{&quot;index&quot;:null}" fill="#000000"/><path d="M219.92289,166.60778l4.4774,-6.41895l4.3925,-2.38871l11.86394,21.81609z" data-paper-data="{&quot;index&quot;:null}" fill="#000000"/><path d="M216.45281,179.66527l0.18743,-7.82399l3.67586,-6.4173l20.60594,13.63457z" data-paper-data="{&quot;index&quot;:null}" fill="#000000"/><path d="M219.18774,191.1145l-3.55516,-6.97215l-0.03948,-4.99984l24.83257,-0.19607z" data-paper-data="{&quot;index&quot;:null}" fill="#000000"/><path d="M227.80672,201.79329l-6.46802,-6.73954l-2.4371,-4.36584l21.68368,-12.10425z" data-paper-data="{&quot;index&quot;:null}" fill="#000000"/><path d="M240.99132,204.9972l-8.94668,-1.35252l-5.26951,-2.9355l13.92409,-22.20525z" data-paper-data="{&quot;index&quot;:null}" fill="#000000"/><path d="M240.83124,179.15192l25.48057,-0.23068l0.04766,4.99978l-3.5245,7.03221z" data-paper-data="{&quot;index&quot;:null}" fill="#000000"/><path d="M240.66108,178.79194l22.45992,11.72985l-2.42337,4.40707l-6.51706,6.84969z" data-paper-data="{&quot;index&quot;:null}" fill="#000000"/><path d="M240.54279,178.71417l14.67703,21.9627l-5.35452,3.02562l-9.15504,1.50606z" data-paper-data="{&quot;index&quot;:null}" fill="#000000"/></g></g></svg>