<svg version="1.1" xmlns="http://www.w3.org/2000/svg" xmlns:xlink="http://www.w3.org/1999/xlink" width="764" height="519.37955" viewBox="0,0,764,519.37955"><g transform="translate(148.30557,79.68977)"><g data-paper-data="{&quot;isPaintingLayer&quot;:true}" fill-rule="nonzero" stroke-linejoin="miter" stroke-miterlimit="10" stroke-dasharray="" stroke-dashoffset="0" style="mix-blend-mode: normal"><path d="M97.5,361.00001v-362h279v362z" fill="#424242" stroke="none" stroke-width="NaN" stroke-linecap="butt"/><path d="M-147.30557,359.65626v-362h253v362z" fill="#232323" stroke="#000000" stroke-width="2" stroke-linecap="butt"/><path d="M361.69443,361.65626v-362h253v362z" fill="#232323" stroke="#000000" stroke-width="2" stroke-linecap="butt"/><g fill="#663f3f" stroke="#000000" stroke-width="0.5" stroke-linecap="butt"><path d="M208.03517,375.64855l0.14918,-5.5034l11.05602,-0.01166l-0.14918,5.5034z"/><path d="M202.41123,379.1923l0.14918,-5.5034l11.05601,-0.01166l-0.14918,5.50343z"/><path d="M214.98091,370.92419l0.14918,-5.5034l11.05601,-0.01166l-0.14918,5.5034z"/><path d="M214.76246,378.98275l0.14917,-5.5034l11.05599,-0.01166l-0.14918,5.5034z"/><path d="M202.63499,370.93718l0.14918,-5.5034l11.05601,-0.01164l-0.14918,5.5034z"/><path d="M210.35381,385.27682l0.61804,-22.79983l5.89654,-0.00624l-0.61805,22.79984z"/></g><g fill="#663f3f" stroke="#000000" stroke-width="0.5" stroke-linecap="butt"><path d="M275.89039,374.22056l-1.48461,-5.30146l10.55827,-3.27998l1.48464,5.30147z"/><path d="M271.56567,379.26863l-1.48464,-5.30149l10.55827,-3.27998l1.48464,5.30149z"/><path d="M281.12879,367.65378l-1.48464,-5.30147l10.55827,-3.27997l1.48464,5.30149z"/><path d="M283.30271,375.41664l-1.48464,-5.30145l10.55827,-3.27998l1.48464,5.30147z"/><path d="M269.3387,371.31645l-1.48462,-5.30147l10.55827,-3.27998l1.48464,5.30146z"/><path d="M280.95208,382.73281l-6.15061,-21.96325l5.63108,-1.74931l6.15061,21.96325z"/></g><g fill="#663f3f" stroke="#000000" stroke-width="0.5" stroke-linecap="butt"><path d="M207.582,161.46495l5.50888,-6.2546l13.40276,11.80477l-5.50889,6.2546z"/><path d="M197.33921,159.5834l5.50889,-6.25461l13.40274,11.80477l-5.50889,6.25461z"/><path d="M220.56893,163.38349l5.50889,-6.25463l13.40274,11.80476l-5.50889,6.25461z"/><path d="M212.50237,172.54197l5.50888,-6.25461l13.40274,11.80477l-5.50889,6.25461z"/><path d="M205.60251,150.20146l5.50888,-6.2546l13.40276,11.80477l-5.50889,6.2546z"/><path d="M201.06874,175.16499l22.82256,-25.91197l7.14812,6.29588l-22.82253,25.91199z"/></g><g fill="#663f3f" stroke="#000000" stroke-width="0.5" stroke-linecap="butt"><path d="M274.98407,170.76693l-4.20385,-7.19693l15.42201,-9.00822l4.20382,7.19693z"/><path d="M269.97552,179.89761l-4.20382,-7.19691l15.42199,-9.00822l4.20385,7.19693z"/><path d="M280.89102,159.04305l-4.20385,-7.19693l15.422,-9.00822l4.20382,7.19693z"/><path d="M287.04663,169.5814l-4.20385,-7.19693l15.422,-9.00822l4.20385,7.19693z"/><path d="M263.66978,169.10227l-4.20385,-7.19693l15.422,-9.00825l4.20382,7.19695z"/><path d="M285.93924,181.25966l-17.41591,-29.81585l8.22507,-4.80438l17.41591,29.81587z"/></g><g fill="#663f3f" stroke="#000000" stroke-width="0.5" stroke-linecap="butt"><path d="M256.52667,273.08295l-2.69198,-5.31912l11.39811,-5.76855l2.69199,5.31912z"/><path d="M252.55821,279.38669l-2.69201,-5.31913l11.39811,-5.76855l2.69198,5.31912z"/><path d="M261.24811,264.96644l-2.69199,-5.31912l11.39811,-5.76855l2.69199,5.31912z"/><path d="M265.18996,272.75516l-2.69198,-5.31912l11.39811,-5.76855l2.69199,5.31912z"/><path d="M248.52023,271.40801l-2.69201,-5.31912l11.39811,-5.76855l2.69199,5.31912z"/><path d="M263.89724,281.04546l-11.15253,-22.03638l6.07901,-3.07654l11.15253,22.03637z"/></g><g fill="#663f3f" stroke="#000000" stroke-width="0.5" stroke-linecap="butt"><path d="M222.77904,263.53151l1.91688,-5.64495l12.09634,4.10759l-1.91688,5.64495z"/><path d="M215.4986,265.10663l1.91688,-5.64495l12.09632,4.10758l-1.91688,5.64496z"/><path d="M231.88149,261.22601l1.91687,-5.64495l12.09634,4.10758l-1.91688,5.64495z"/><path d="M229.07464,269.49181l1.91688,-5.64495l12.09631,4.10759l-1.91687,5.64495z"/><path d="M218.37393,256.63919l1.91688,-5.64495l12.09631,4.10759l-1.91688,5.64495z"/><path d="M222.247,274.36863l7.94135,-23.38624l6.45138,2.19072l-7.94134,23.38624z"/></g><g fill="#663f3f" stroke="#000000" stroke-width="0.5" stroke-linecap="butt"><path d="M269.59359,28.71972l2.7878,-1.92774l4.13088,5.97389l-2.7878,1.92775z"/><path d="M265.73598,26.97205l2.7878,-1.92774l4.13088,5.97388l-2.7878,1.92774z"/><path d="M274.53052,30.75127l2.7878,-1.92774l4.13087,5.97387l-2.7878,1.92774z"/><path d="M270.44837,33.57403l2.78781,-1.92775l4.13088,5.97388l-2.78781,1.92774z"/><path d="M269.91767,24.08044l2.7878,-1.92774l4.13088,5.97388l-2.7878,1.92774z"/><path d="M265.6788,33.48717l11.54948,-7.98636l2.20313,3.18605l-11.54948,7.98636z"/></g><g fill="#663f3f" stroke="#000000" stroke-width="0.5" stroke-linecap="butt"><path d="M204.06451,23.62113l-2.23728,-2.54611l5.45594,-4.79415l2.23728,2.54611z"/><path d="M202.7748,27.65498l-2.23728,-2.54611l5.45595,-4.79415l2.23728,2.54611z"/><path d="M205.51135,18.48234l-2.23728,-2.54611l5.45595,-4.79415l2.23727,2.54611z"/><path d="M208.78738,22.21058l-2.23727,-2.54611l5.45595,-4.79415l2.23728,2.54611z"/><path d="M199.4189,23.83581l-2.23728,-2.54611l5.45595,-4.79415l2.23728,2.54611z"/><path d="M209.25281,26.95817l-9.26869,-10.54818l2.90983,-2.55688l9.26871,10.54817z"/></g><g fill="#663f3f" stroke="#000000" stroke-width="0.5" stroke-linecap="butt"><path d="M236.17628,125.7426l0.03102,-11.32052l24.25829,0.06648l-0.03103,11.32052z"/><path d="M224.02719,132.98685l0.03102,-11.32052l24.25828,0.06648l-0.03102,11.32052z"/><path d="M251.16214,116.0803l0.031,-11.32052l24.25829,0.06648l-0.03103,11.32052z"/><path d="M251.11671,132.65679l0.03103,-11.32054l24.25829,0.06648l-0.031,11.32054z"/><path d="M224.07371,116.00607l0.03102,-11.32052l24.25829,0.06646l-0.03102,11.32055z"/><path d="M241.78225,145.56903l0.12853,-46.89937l12.93776,0.03545l-0.12853,46.89935z"/></g><path d="M311.02095,52.99718c2.53148,30.74113 -20.87871,57.75849 -52.28811,60.345c-31.40941,2.58651 -58.92391,-20.23732 -61.45539,-50.97843c-2.53148,-30.74113 20.87871,-57.75851 52.28811,-60.34502c13.55672,-1.11637 19.49761,37.17915 29.90757,44.12364c13.70875,9.14511 30.10898,-10.61804 31.54784,6.85479z" fill="#c50000" stroke="#000000" stroke-width="0.5" stroke-linecap="butt"/><path d="M224.89677,44.83459c4.0057,-0.32986 7.57979,3.3716 7.98296,8.26746c0.40316,4.89586 -2.51727,9.13215 -6.52297,9.46201c-4.0057,0.32986 -7.57979,-3.3716 -7.98296,-8.26746c-0.40316,-4.89586 2.51727,-9.13215 6.52297,-9.46201z" fill="#000000" stroke="#000000" stroke-width="0.5" stroke-linecap="butt"/><path d="M222.08148,76.46743c-0.40388,-0.01849 -0.3854,-0.42237 -0.3854,-0.42237l0.0354,-0.6079c0.26523,-0.89994 -0.20296,-1.75618 -0.90125,-2.35921c-0.17683,-1.57904 -1.27988,-3.01072 -1.05655,-4.705c0.23662,-1.79509 1.66587,-2.52899 2.29811,-4.00968c0.3848,-0.90125 -0.32801,-3.46312 -0.4126,-4.49044c0,0 -0.03318,-0.40294 0.36976,-0.43613c0.40294,-0.03319 0.43613,0.36976 0.43613,0.36976c0.1015,1.23247 0.79625,3.7156 0.35721,4.85784c-0.55702,1.44918 -2.00712,2.14746 -2.24901,3.82919c-0.21662,1.50595 0.91121,2.80818 0.97612,4.21474c0.89206,0.74184 1.20264,1.80536 0.96764,2.92079l-0.01315,0.45299c0,0 -0.01851,0.40389 -0.42237,0.3854z" fill="#420000" stroke="none" stroke-width="0.5" stroke-linecap="butt"/><path d="M230.02895,77.76355c-0.40294,0.03319 -0.43613,-0.36975 -0.43613,-0.36975l-0.03982,-0.48353c-0.18543,-2.25171 1.64297,-3.46623 2.61046,-5.50543c3.62839,-3.47151 -2.43749,-8.15826 -2.76776,-12.16905c0,0 -0.03318,-0.40294 0.36976,-0.43613c0.40294,-0.03319 0.43613,0.36976 0.43613,0.36976c0.37327,4.53289 6.50975,8.47003 2.62648,12.69602c-0.86675,1.85297 -2.6286,3.04244 -2.46917,4.97847l0.03981,0.48353c0,0 0.03318,0.40294 -0.36976,0.43613z" fill="#000000" stroke="none" stroke-width="0.5" stroke-linecap="butt"/><path d="M225.74672,75.16631c-0.36181,0.18047 -0.54226,-0.18134 -0.54226,-0.18134l-0.0278,-0.05575c-0.1295,-0.26509 -0.25901,-0.5302 -0.38852,-0.79527c-0.19917,-2.1972 -0.83579,-5.24034 0.10318,-7.27609c0.71961,-1.5602 2.52266,-3.08404 1.17515,-5.21926c0,0 -0.2099,-0.34555 0.13568,-0.55543c0.34556,-0.2099 0.55544,0.13569 0.55544,0.13569c1.46898,2.4925 -0.28256,4.19111 -1.14585,6.00624c-0.85297,1.79344 -0.18777,4.7144 -0.04479,6.6913c0.1111,0.21731 0.22222,0.43463 0.33333,0.65193l0.0278,0.05575c0,0 0.18047,0.36181 -0.18134,0.54226z" fill="#04ff00" stroke="none" stroke-width="0.5" stroke-linecap="butt"/><path d="M228.17064,75.8882c-0.03319,-0.40294 0.36976,-0.43613 0.36976,-0.43613l0.30266,0.19933c0.69127,-1.69252 1.99598,-2.87895 2.5561,-4.42951c1.34696,-3.3381 0.52799,-4.34922 -1.52769,-6.94391c-0.95893,-1.21039 -3.01487,-1.73069 -2.27604,-3.77721c0,0 0.15052,-0.37524 0.52576,-0.22474c0.37526,0.15053 0.22472,0.52576 0.22472,0.52576c-0.70402,1.51281 3.06316,4.00518 3.95596,5.09732c1.51557,1.85398 0.61491,3.69882 -0.15224,5.6238c-0.65144,1.51596 -1.88599,2.72222 -2.5561,4.42951l-0.98675,0.30552c0,0 -0.40294,0.03318 -0.43613,-0.36976z" fill="#1c00ff" stroke="none" stroke-width="0.5" stroke-linecap="butt"/><path d="M219.96679,82.85644c-1.37677,-3.87104 0.37234,-8.02817 3.90675,-9.28523c3.53441,-1.25707 7.51573,0.86198 8.8925,4.73302c1.37677,3.87105 -0.37234,8.02817 -3.90675,9.28523c-3.53441,1.25707 -7.51573,-0.86197 -8.8925,-4.733z" fill="#ffffff" stroke="#000000" stroke-width="0" stroke-linecap="butt"/><path d="M228.13364,86.27653c0.04398,0.53409 -0.49765,1.01459 -1.20978,1.07324c-0.71212,0.05865 -1.32506,-0.32679 -1.36905,-0.86088c-0.04398,-0.53409 0.49765,-1.01459 1.20978,-1.07324c0.71212,-0.05865 1.32506,0.32679 1.36905,0.86088z" fill="#000000" stroke="none" stroke-width="0" stroke-linecap="butt"/><path d="M271.51319,54.59576c-1.37677,-3.87104 0.37234,-8.02818 3.90675,-9.28523c1.78185,-0.63375 2.60024,2.27561 4.21825,3.1499c1.59144,0.85993 3.99158,-0.33638 4.67426,1.5831c1.37677,3.87105 -0.37234,8.02817 -3.90675,9.28523c-3.53441,1.25707 -7.51573,-0.86198 -8.8925,-4.73302z" fill="#ffffff" stroke="#000000" stroke-width="0.5" stroke-linecap="butt"/><path d="M278.86004,53.51479c0.04398,0.53409 -0.49765,1.01459 -1.20978,1.07324c-0.71212,0.05865 -1.32506,-0.32679 -1.36905,-0.86088c-0.04398,-0.53409 0.49765,-1.01459 1.20978,-1.07324c0.71212,-0.05865 1.32506,0.32679 1.36905,0.86088z" fill="#000000" stroke="none" stroke-width="0" stroke-linecap="butt"/><path d="M262.76659,85.02614l-12.69507,3.47947l-12.59076,-0.1802l-4.79737,-4.06737z" fill="#000000" stroke="#3e0000" stroke-width="0.5" stroke-linecap="round"/><path d="M204.1033,7.92504c6.78914,6.1197 4.19088,5.9621 0.70734,9.82669c-3.48353,3.86459 -5.38676,5.59501 -12.17589,-0.52469c-6.78914,-6.1197 -10.82427,-12.05818 -7.34073,-15.92277c3.48353,-3.86459 12.02015,0.50106 18.80928,6.62076z" fill="#ff0000" stroke="#000000" stroke-width="0.5" stroke-linecap="butt"/><path d="M203.94845,10.38765c4.44455,4.00629 2.74357,3.90313 0.46305,6.43309c-2.2805,2.52997 -3.52648,3.66281 -7.97103,-0.34348c-4.44455,-4.00629 -7.08616,-7.89396 -4.80564,-10.42394c2.2805,-2.52997 7.86907,0.32804 12.31363,4.33433z" fill="#d00000" stroke="#000000" stroke-width="0.5" stroke-linecap="butt"/><path d="M293.2439,35.77951c-0.39571,0.08293 -0.47864,-0.31278 -0.47864,-0.31278l-0.01419,-0.06775c-0.17297,-1.23726 -1.85611,-3.20079 -2.88406,-4.30621c-1.83859,-2.91801 -3.8821,-3.15297 -7.18066,-2.51618c-1.68811,0.3259 -4.61815,2.70175 -5.06472,0.379c0,0 -0.03318,-0.40294 0.36976,-0.43613c0.40294,-0.03319 0.43613,0.36976 0.43613,0.36976c-0.11441,0.80822 3.06554,-0.90343 4.10463,-1.10641c3.53751,-0.69106 5.99652,-0.35595 7.97627,2.81755c1.22719,1.31869 2.64655,3.11235 3.03406,4.63276l0.01419,0.06773c0,0 0.08293,0.39572 -0.31278,0.47864z" fill="#04ff00" stroke="none" stroke-width="0.5" stroke-linecap="butt"/><path d="M293.30016,38.93536c-0.29485,0.27664 -0.57149,-0.0182 -0.57149,-0.0182l-0.57054,-0.66988c-0.39723,-1.60057 -2.52309,-2.62093 -2.85274,-4.5472c-1.27948,-1.35325 -2.87242,-5.617 -4.65384,-6.16561c-1.54658,-0.47631 -4.64284,0.41321 -6.29036,0.54888c0,0 -0.40294,0.03318 -0.43613,-0.36976c-0.03319,-0.40294 0.36976,-0.43613 0.36976,-0.43613c1.74448,-0.14366 4.9561,-1.05524 6.6038,-0.51292c2.07953,0.68444 3.72134,4.97831 5.13102,6.57592c0.39403,1.99248 2.32281,2.95348 2.9028,4.67389l0.38589,0.34951c0,0 0.27664,0.29483 -0.0182,0.57148z" fill="#1c00ff" stroke="none" stroke-width="0.5" stroke-linecap="butt"/><path d="M294.3319,39.74993c0.03304,0.40295 -0.36992,0.43599 -0.36992,0.43599l-0.4532,0.03716c-4.61653,0.36408 -5.61709,-3.29113 -6.99303,-6.76956c-0.28247,-3.22373 -2.58325,-8.56867 -7.00754,-6.63219c-0.72123,0.31568 -1.17224,1.22633 -1.95288,1.3284c0,0 -0.40294,0.03318 -0.43613,-0.36976c-0.03319,-0.40294 0.36976,-0.43613 0.36976,-0.43613c1.04541,-0.0051 1.28414,-1.24216 2.59805,-1.42198c4.69597,-0.64267 6.90802,3.31813 7.21583,7.34637c1.25728,3.11233 1.96277,6.47989 6.14221,6.14877l0.45086,-0.03696c0,0 0.40295,-0.03304 0.43598,0.36992z" fill="#000000" stroke="none" stroke-width="0.5" stroke-linecap="butt"/><path d="M284.86411,40.89582c-0.34973,0.20285 -0.55257,-0.14688 -0.55257,-0.14688l-0.1613,-0.2781c-2.3127,-3.99095 6.66276,-8.63026 3.06231,-12.81944c-1.16732,-3.15469 -4.15515,-3.21899 -7.42412,-2.08872c-1.025,0.35441 -3.31882,0.91196 -2.29049,2.41028c0,0 0.20988,0.34558 -0.13569,0.55544c-0.34558,0.20988 -0.55544,-0.13568 -0.55544,-0.13568c-1.21611,-2.17867 1.04231,-3.03803 2.7223,-3.59595c3.4962,-1.16113 7.12791,-1.10885 8.3848,2.45222c3.75088,4.63567 -5.19157,9.15191 -3.06423,12.81614l0.1613,0.2781c0,0 0.20285,0.34973 -0.14688,0.55259z" fill="#420000" stroke="none" stroke-width="0.5" stroke-linecap="butt"/><path d="M273.2514,182.41112c-1.92971,54.55765 -10.35853,89.07145 -29.54965,88.39267c-19.19113,-0.67879 -23.1697,-43.37726 -21.23999,-97.93491c1.92971,-54.55765 9.78808,-52.36627 28.97924,-51.6875c19.19113,0.67879 23.74013,6.67209 21.81042,61.22974z" fill="#c50000" stroke="#000000" stroke-width="2" stroke-linecap="butt"/><path d="M262.43362,219.56669c-0.75157,27.0079 -12.16303,31.62302 -15.73432,31.52364c-3.57129,-0.09938 -16.34316,-11.47449 -15.59158,-38.4824c0.75157,-27.0079 11.96395,-34.04067 15.53524,-33.94129c3.57129,0.09938 16.54224,13.89213 15.79065,40.90003z" fill="#8b0000" stroke="none" stroke-width="0" stroke-linecap="butt"/><path d="M243.16813,157.56108c-0.12828,-1.55778 1.03056,-2.92458 2.58832,-3.05286c1.55778,-0.12828 2.92458,1.03056 3.05286,2.58832c0.12828,1.55778 -1.03056,2.92458 -2.58832,3.05286c-1.55778,0.12828 -2.92458,-1.03056 -3.05286,-2.58832z" fill="#000000" stroke="none" stroke-width="0.5" stroke-linecap="butt"/><path d="M244.39125,142.85606c-0.12828,-1.55778 1.03056,-2.92459 2.58832,-3.05287c1.55778,-0.12828 2.92458,1.03056 3.05286,2.58832c0.12828,1.55778 -1.03056,2.92458 -2.58832,3.05286c-1.55778,0.12828 -2.92458,-1.03055 -3.05286,-2.58832z" fill="#000000" stroke="none" stroke-width="0.5" stroke-linecap="butt"/><path d="M208.26721,208.85319c-9.11803,26.44948 -23.46368,45.49374 -32.04189,42.53654c-8.57821,-2.9572 -8.14059,-26.79602 0.97745,-53.24551c9.11803,-26.44948 23.46368,-45.49374 32.04189,-42.53654c8.57821,2.9572 8.14059,26.79603 -0.97745,53.24551z" fill="#c50000" stroke="#000000" stroke-width="2" stroke-linecap="butt"/><path d="M316.71394,208.97816c4.57082,27.6011 1.01941,51.17798 -7.93229,52.66041c-8.95172,1.48244 -19.91389,-19.69096 -24.48472,-47.29206c-4.57082,-27.6011 -1.01941,-51.17796 7.93229,-52.66039c8.95172,-1.48244 19.91389,19.69093 24.48471,47.29205z" fill="#c50000" stroke="#000000" stroke-width="2" stroke-linecap="butt"/><path d="M285.72006,315.38323c4.57082,27.6011 1.01943,51.17798 -7.93228,52.66041c-8.95172,1.48244 -19.91389,-19.69093 -24.48472,-47.29205c-4.57082,-27.6011 -1.01941,-51.17796 7.93229,-52.6604c8.95172,-1.48244 19.91389,19.69093 24.48472,47.29206z" fill="#c50000" stroke="#000000" stroke-width="2" stroke-linecap="butt"/><path d="M234.00961,319.14939c-1.47158,27.9383 -10.00999,50.19984 -19.07104,49.72257c-9.06108,-0.47727 -15.21356,-23.51263 -13.74199,-51.45091c1.47158,-27.9383 10.00999,-50.19985 19.07104,-49.72258c9.06108,0.47727 15.21356,23.51263 13.74199,51.45091z" fill="#c50000" stroke="#000000" stroke-width="2" stroke-linecap="butt"/><path d="M226.73364,386.57917c0.32986,4.0057 -3.19703,6.75406 -12.7662,7.54206c-9.56917,0.788 -11.95274,-2.28499 -12.2826,-6.29069c-0.32986,-4.0057 1.5189,-7.42722 11.08807,-8.21523c9.56917,-0.788 13.63087,2.95815 13.96073,6.96386z" fill="#c50000" stroke="#000000" stroke-width="2" stroke-linecap="butt"/><path d="M298.6565,383.09052c0.32986,4.0057 -2.88097,4.02354 -12.45016,4.81156c-9.56917,0.788 -9.06736,-0.08855 -9.39722,-4.09425c-0.32986,-4.0057 -1.68254,-6.89316 7.88665,-7.68116c9.56917,-0.788 13.63087,2.95815 13.96073,6.96386z" fill="#c50000" stroke="#000000" stroke-width="2" stroke-linecap="butt"/><path d="M211.47605,392.85627c-0.40049,-0.05544 -0.34503,-0.45594 -0.34503,-0.45594l0.10379,-0.55186c2.15625,-3.69032 -1.18726,-6.92194 -3.29226,-9.40889c0,0 -0.26121,-0.30861 0.04739,-0.56982c0.30861,-0.26121 0.5698,0.04741 0.5698,0.04741c2.42045,2.85963 5.58666,6.17555 3.38242,10.32311l-0.01017,0.27095c0,0 -0.05544,0.40049 -0.45593,0.34502z" fill="#000000" stroke="none" stroke-width="0.5" stroke-linecap="butt"/><path d="M218.28036,392.30568c-0.40294,0.03319 -0.43613,-0.36976 -0.43613,-0.36976l0.00414,-0.44873c0.07529,-0.19222 0.15059,-0.38442 0.22587,-0.57664c1.24597,-5.09699 -2.66664,-5.901 -3.06164,-10.3708c0,0 -0.03318,-0.40294 0.36976,-0.43613c0.40294,-0.03319 0.43613,0.36976 0.43613,0.36976c0.15259,2.02679 2.25637,2.92391 2.79743,4.54453c0.83936,2.51407 0.86254,3.5424 0.22944,6.13602c-0.08122,0.20902 -0.16245,0.41806 -0.24367,0.6271l0.0484,0.08853c0,0 0.03318,0.40294 -0.36976,0.43613z" fill="#000000" stroke="none" stroke-width="0.5" stroke-linecap="butt"/><path d="M287.59327,384.95434c-0.39276,-0.09593 -0.29683,-0.4887 -0.29683,-0.4887l0.01039,-0.0425c0.49811,-2.02841 4.17598,-5.44829 3.22247,-6.94573c0,0 -0.20988,-0.34555 0.13568,-0.55544c0.34556,-0.2099 0.55544,0.13569 0.55544,0.13569c1.3431,2.29092 -2.51032,5.01409 -3.12808,7.55737l-0.01039,0.04248c0,0 -0.09595,0.39276 -0.4887,0.29683z" fill="#000000" stroke="none" stroke-width="0.5" stroke-linecap="butt"/><path d="M216.3155,291.46511c0.26146,-0.30838 0.56985,-0.04693 0.56985,-0.04693l0.37486,0.34501c0.85519,1.45872 2.09362,2.70325 2.84057,4.48018c0.41048,4.64498 6.99644,6.1773 4.41206,12.14194c-1.34067,1.43207 -4.71706,2.50132 -6.24343,0.75174c-0.79442,-0.91061 -0.74781,-2.59651 -1.82688,-3.39c-1.50762,-1.10861 -3.09865,-1.24693 -4.41944,-2.93885c-0.85672,-2.85544 -0.07207,-11.49461 4.49447,-10.64641c0,0 0.01591,0.00391 0.04058,0.0133l-0.19572,-0.14018c0,0 -0.30839,-0.26146 -0.04692,-0.56983z" fill="#000000" stroke="none" stroke-width="0.5" stroke-linecap="butt"/><path d="M230.40198,324.13746l0.20148,-0.01659c1.74387,-0.10548 1.9505,1.51744 2.0621,2.87275c0.26392,3.205 -0.74254,5.76196 -0.47883,8.96428c0.27075,3.28791 0.83299,6.40107 -0.68797,9.09906c0.10216,1.84671 -4.70774,9.39405 -6.65701,7.10285c0,0 -0.05557,-0.09149 -0.06245,-0.20889l-0.31642,-0.13748c-0.45404,-0.74757 -1.24338,-0.96378 -1.81058,-1.5832c-1.53453,-1.67579 -0.73351,-4.87869 -0.89705,-6.86461c-0.10256,-1.76838 -1.50798,-2.58736 -2.19096,-3.99154c-1.20704,-2.48165 1.19135,-3.60713 2.00812,-5.38012c0.53884,-1.16968 -1.12118,-2.40131 -1.07554,-3.60608c0.41822,-2.3286 4.90456,-6.36909 7.35474,-6.591c0.61661,-0.05585 1.42349,0.32463 2.18488,0.6537c0.04856,-0.287 0.3655,-0.31309 0.3655,-0.31309z" fill="#000000" stroke="none" stroke-width="0.5" stroke-linecap="butt"/><path d="M270.67047,185.05122c-0.27961,-0.15486 -0.21572,-0.40837 -0.17669,-0.50775c-1.0107,-0.35262 -2.01551,-0.82033 -2.31383,-0.51438c-0.28686,0.2942 0.57415,0.99638 -0.32261,1.55041c0.58114,3.93089 -0.55477,9.03901 -2.46232,12.70138c0.12486,0.14971 0.24702,0.33614 0.36972,0.56708l-0.17566,0.16101l0.08098,0.06865l-0.49301,0.58148c-0.06691,0.07893 -0.16393,0.13233 -0.2752,0.14149c-0.22254,0.01832 -0.4178,-0.14721 -0.43613,-0.36975l-0.06636,-0.80589l0.21305,-0.01754c0.00075,-0.01663 0.00162,-0.03325 0.00258,-0.04982c-0.51001,-0.1986 -1.16637,0.01043 -1.70416,0.05471c-1.8957,0.15611 -6.017,1.61252 -7.71627,0.84529c-1.86285,-0.84109 -4.36057,-4.67826 -4.53316,-6.73304c-0.296,-3.59441 0.39673,-6.27989 3.23907,-8.71048c1.52454,-1.30369 4.68561,-1.05224 5.52773,-3.19311c-0.27282,-2.79474 -4.86465,-13.09515 2.09315,-10.47469c0.15646,-0.0683 0.32495,-0.00073 0.32495,-0.00073c0.96283,0.41015 2.09358,-0.3525 3.01011,0.04034c1.02224,0.43815 1.23394,3.03487 2.1079,3.31256c1.88245,0.59814 2.47143,-3.61158 4.18509,-0.96263c0.73742,1.25781 0.69056,2.40128 1.81524,3.26094l0.1636,0.54385c0,0 0.02673,0.3247 -0.25925,0.41514c0.73157,1.97758 1.13332,4.06677 -0.34742,5.96954c-0.28771,0.52486 -0.68763,0.90843 -0.97926,1.39005c0.22115,0.05687 0.36819,0.04804 0.40369,-0.07154l0.19544,-0.50121c0,0 0.15053,-0.37526 0.52576,-0.22474c0.37526,0.15053 0.22471,0.52576 0.22471,0.52576l-0.25333,0.61755c-0.30331,0.27013 -0.80038,0.25364 -1.35693,0.12095l-0.06165,0.11134c0,0 -0.19592,0.35368 -0.54959,0.15776z" fill="#000000" stroke="none" stroke-width="0.5" stroke-linecap="butt"/><path d="M191.1799,172.16805c0.22405,0.08986 0.26066,0.25984 0.25379,0.38225c1.55946,-0.21444 3.48114,-0.52723 4.68405,0.26796c1.76913,1.16943 0.99115,3.04817 1.61609,4.67485c0.31161,0.81105 1.59228,1.52328 2.14416,2.20266c2.67862,2.47017 1.29504,4.52814 -1.95612,4.79587c-0.55894,0.04603 -2.54403,0.4757 -2.81867,-0.3491c-0.0673,-0.20215 0.08405,-0.49432 0.35205,-0.82189c-1.89877,0.72326 -4.05337,1.11078 -4.84807,0.61498c-0.7268,-0.45346 -0.97328,-2.47438 -1.2749,-2.58606c-0.47236,-0.17489 -1.52328,0.72727 -1.85263,0.92424c-0.22603,0.04624 -0.45208,0.09251 -0.67813,0.13878c-0.07102,0.16242 -0.25165,0.2237 -0.25165,0.2237c-0.08757,0.02922 -0.17097,0.05485 -0.25037,0.07698c-0.03719,0.01777 -0.10943,0.04633 -0.19359,0.04889c-3.34068,0.74922 1.58853,-5.64971 2.40648,-7.12642c0.53016,-0.93871 0.87869,-1.81396 1.5731,-2.58353c0.00238,-0.35615 0.37168,-0.38656 0.37168,-0.38656c0.00696,-0.00057 0.01393,-0.00115 0.02092,-0.00175c0.06026,-0.05319 0.12284,-0.10578 0.18792,-0.15775l-0.01193,-0.11335c0,0 0.15052,-0.37524 0.52576,-0.22474z" fill="#000000" stroke="none" stroke-width="0.5" stroke-linecap="butt"/><path d="M210.19371,157.30745c0.21948,-0.01807 0.32925,0.09323 0.38372,0.19835c0.05343,-0.00173 0.11372,0.00833 0.18131,0.03543c0.28512,0.11437 0.2667,0.35847 0.24139,0.46913c2.0742,2.18463 1.72179,4.95586 2.84584,7.58575c0.19095,2.04092 1.76808,5.10397 0.53183,6.89974c0.00986,0.21601 -0.1528,0.40281 -0.36996,0.42109c-0.04179,0.03781 -0.08543,0.07476 -0.13095,0.11086c0,0 -0.31685,0.25113 -0.56798,-0.06573c-0.00083,-0.00106 -0.00167,-0.0021 -0.00249,-0.00315c-0.05023,0.01789 -0.08735,0.02261 -0.08735,0.02261l-0.20099,0.01001c-3.15333,1.32554 -7.6753,-0.16924 -6.74269,-4.07015c0.50289,-1.99771 -0.64768,-4.14666 -0.25757,-6.12243c0.34281,-1.73618 3.0092,-2.91169 4.006,-4.60562c-0.01565,-0.01342 -0.0314,-0.02685 -0.0473,-0.04023l-0.15253,-0.40952c0,0 -0.03318,-0.40294 0.36976,-0.43613z" fill="#000000" stroke="none" stroke-width="0.5" stroke-linecap="butt"/><path d="M302.33682,200.1674l0.32135,0.24229c2.18445,1.28144 4.95705,1.67722 6.13089,4.50829c0.83148,2.53896 -1.00674,8.87447 -2.80762,10.89121c-0.96977,1.08601 -4.09801,0.65488 -5.40655,0.63196c-2.69541,-0.09086 -3.31223,-3.97907 -5.40971,-5.44755c-1.53278,-1.07313 -5.02345,-1.37407 -6.9002,-2.22531c-2.27832,-2.37828 -6.08886,-8.27169 -2.72573,-11.64536c0.60788,-0.6098 3.25961,-0.20717 4.07029,-0.20705c3.09149,0.00044 10.7939,0.07365 12.72725,3.25149z" fill="#000000" stroke="none" stroke-width="0.5" stroke-linecap="butt"/><path d="M312.73841,256.45536c0.39276,0.09595 0.29683,0.4887 0.29683,0.4887l-0.02325,0.09093c0.12125,0.02489 0.28937,0.10551 0.3103,0.35973c0.03319,0.40294 -0.36976,0.43613 -0.36976,0.43613l-0.25217,-0.0666c-0.05653,0.09131 -0.11307,0.18262 -0.16962,0.27394c-2.24272,4.01547 -5.3681,4.22114 -9.1262,2.09867c-3.78259,-0.98658 -5.99721,-5.90558 -7.71668,-9.0718c-0.68842,-2.63721 -3.02421,-5.04322 -2.29421,-8.17578c0,0 0.09595,-0.39276 0.4887,-0.29683c0.04881,0.01194 0.09006,0.02845 0.1249,0.04821c0.06313,-0.02281 0.11291,-0.02693 0.11291,-0.02693c0.65149,-0.05366 3.01451,-0.58127 3.51818,-0.17091c0.80135,0.65295 0.57614,3.33382 1.86574,3.84489c0.77492,0.30711 2.08181,-0.62566 2.75234,-0.55605c1.29174,0.13409 1.73956,1.50087 2.15052,2.46322c1.51869,4.40811 5.53262,4.99459 8.06007,8.27865c0.06883,-0.03277 0.15767,-0.04598 0.27139,-0.01819zM312.99631,257.24017l-0.02449,-0.04786l-0.00151,0.00593c0.0087,0.01394 0.01736,0.02791 0.02601,0.04193z" fill="#000000" stroke="none" stroke-width="0.5" stroke-linecap="butt"/><path d="M187.00912,209.61731c0.00794,-0.00796 0.01634,-0.0159 0.02526,-0.0238c0.30245,-0.2683 0.57076,0.03414 0.57076,0.03414c3.07899,3.47071 3.51051,7.39824 7.14081,10.58509c0.21381,1.86776 -1.23618,8.08082 -4.59813,4.86882c-1.04078,-0.99436 -1.80662,-5.38702 -1.98452,-6.50886c-0.98959,-1.7291 -2.20678,-4.08537 -3.41428,-5.83383c-0.26456,-0.38308 -1.41159,-1.29739 -1.26487,-1.8454c0.26179,-0.97774 2.14925,-0.57784 2.82491,-1.00808l0.14799,-0.20665c0,0 0.25148,-0.29659 0.55207,-0.06143z" fill="#000000" stroke="none" stroke-width="0.5" stroke-linecap="butt"/><path d="M194.86771,19.36843c-0.31686,0.25112 -0.56798,-0.06574 -0.56798,-0.06574l-0.3018,-0.38083c-0.71595,-0.9116 -1.71917,-1.61187 -2.49746,-2.48955c-1.71582,-2.18271 -6.15468,-4.5772 -6.49913,-7.40693c0,0 -0.02535,-0.30782 0.2373,-0.40753c0.0003,-0.00078 0.00061,-0.00151 0.00091,-0.00228c0.15053,-0.37523 0.52576,-0.22472 0.52576,-0.22472c3.38119,1.4403 9.78108,0.49371 10.13794,5.57111c-0.6782,1.7274 -0.88217,2.1338 -0.7427,4.11791l-0.24892,0.64962c0,0 -0.00418,0.01042 -0.01289,0.02711l0.03475,0.04386c0,0 0.25113,0.31688 -0.06574,0.56798z" fill="#000000" stroke="none" stroke-width="0.5" stroke-linecap="butt"/><path d="M292.22119,55.14261c0.30839,0.26146 0.04693,0.56986 0.04693,0.56986l-0.15195,-0.00389c-0.00433,0.03495 0.25893,0.09578 0.70612,0.17405c-0.85438,-0.93413 -1.17907,-1.95912 0.36236,-3.05894c0,0 0.34556,-0.20987 0.55544,0.13569c0.2099,0.34556 -0.13568,0.55543 -0.13568,0.55543c-0.45001,0.18617 -0.35577,1.67305 -0.08193,2.48213c2.60646,0.40402 8.03104,1.0714 9.22169,1.2929c0.93071,0.48695 3.45401,1.38449 3.51576,2.70297c0.0399,0.85177 -2.24456,5.18924 -3.13044,5.48604c-1.13864,0.38147 -4.75685,-1.30078 -5.93685,-1.71309c-0.61124,-0.21622 -1.99481,-0.72385 -2.3203,-1.34718c-0.71595,-1.37109 1.15009,-2.06841 1.02957,-3.46164c-0.04716,-0.54509 -0.84104,-1.16166 -1.69075,-1.84144c-1.5882,-0.30006 -2.78546,-0.71902 -2.9009,-1.34055l0.34106,-0.5854c0,0 0.26146,-0.30839 0.56985,-0.04693z" fill="#000000" stroke="none" stroke-width="0.5" stroke-linecap="butt"/><path d="M211.49154,94.44556c-1.1575,-0.98138 -2.51594,-1.88793 -3.44061,-3.07069c-1.51775,-3.47901 -3.99399,-6.03385 -5.91921,-9.17938c-0.46391,-1.08572 -3.26573,-5.15491 -2.80769,-7.03945c-0.02735,-0.16422 0.06746,-0.28297 0.13626,-0.34543c0.15241,-0.26134 0.40531,-0.45271 0.78446,-0.55037c0,0 0.09197,-0.00759 0.19167,0.02845c0.67741,-0.2387 1.25454,-0.29166 2.0221,-0.33476c3.03164,1.62112 14.42527,3.12896 9.88476,9.02053c-0.62672,2.64395 1.36279,2.3546 1.37815,3.89521c0.02428,2.43637 0.19339,5.97557 -1.52298,8.05267c0,0 -0.26146,0.30839 -0.56983,0.04692c-0.22042,-0.18687 -0.14974,-0.39771 -0.09146,-0.50281z" fill="#000000" stroke="none" stroke-width="0.5" stroke-linecap="butt"/><path d="M229.21223,248.48151c-0.26146,0.30838 -0.56983,0.04692 -0.56983,0.04692l-0.07981,-0.07797c-0.00459,-0.00253 -0.00915,-0.00507 -0.0137,-0.00761c-0.1801,-0.00543 -0.27429,-0.10642 -0.32318,-0.20173c-2.00974,-1.40195 -1.07775,-3.84028 -2.46789,-5.59435c-0.40349,-3.48036 -1.26197,-6.90298 -1.56119,-10.53653c-0.11213,-1.36157 -0.91189,-5.47511 -0.29246,-7.41671c-0.01353,0.00838 -0.02717,0.01691 -0.04085,0.02563c0,0 -0.34556,0.2099 -0.55544,-0.13568c-0.20988,-0.34555 0.13569,-0.55544 0.13569,-0.55544c4.36617,-2.55977 3.18866,4.70639 3.83373,6.71521c0.52199,1.62553 1.5376,2.11906 1.69335,4.01049c0.11434,2.27447 -2.79003,3.86116 -1.64928,6.49832c0.80453,1.85991 4.80318,4.77711 1.57173,6.43247l0.00764,0.02817c0.01766,0.01023 0.03555,0.02036 0.05367,0.03041l0.21094,0.16854c0,0 0.30839,0.26146 0.04693,0.56985z" fill="#000000" stroke="none" stroke-width="0.5" stroke-linecap="butt"/><path d="M232.83869,170.03254l0.46884,-0.28476c0.38092,-0.23133 0.75793,-0.4692 1.13275,-0.71033c3.34019,-2.64518 13.28634,-1.71436 10.73108,4.43981c-4.84383,2.94191 2.51485,8.06275 -2.85383,11.32345c-2.43204,6.0629 -9.47168,3.98523 -10.04377,-1.89381c-0.08602,-1.04456 -0.76085,-3.57349 -0.31556,-4.50602c0.47255,-0.98963 1.67735,-1.73652 1.87047,-3.01738c0.26428,-1.75261 -1.3434,-3.0816 -1.49798,-4.92198c0,0 -0.03318,-0.40294 0.36976,-0.43613c0.052,-0.00428 0.09785,-0.00128 0.13824,0.00714z" fill="#000000" stroke="none" stroke-width="0.5" stroke-linecap="butt"/><path d="M215.34459,303.85637l2.36082,-10.74196" fill="none" stroke="#663f3f" stroke-width="2" stroke-linecap="round"/><path d="M218.22919,306.86422l3.0458,-7.35013" fill="none" stroke="#663f3f" stroke-width="2" stroke-linecap="round"/><path d="M216.77863,296.63896c-0.09162,-1.1127 0.73611,-2.089 1.8488,-2.18062c1.1127,-0.09162 2.089,0.73611 2.18062,1.84881c0.03245,0.39408 -0.05043,0.77103 -0.22042,1.09765c0.27405,0.64445 0.13097,1.3181 0.13097,1.3181c-0.43851,2.06448 -0.87701,4.12897 -1.31552,6.19345l-0.16533,0.68071c0,0 -0.47971,1.96378 -2.4435,1.48407c-1.96379,-0.47971 -1.48408,-2.4435 -1.48408,-2.4435l0.13806,-0.56131c0.43851,-2.06448 0.87701,-4.12897 1.31552,-6.19345c0,0 0.05162,-0.243 0.20386,-0.54058c-0.10241,-0.21502 -0.16829,-0.45191 -0.18899,-0.70334z" fill="#663f3f" stroke="none" stroke-width="0.5" stroke-linecap="butt"/><path d="M232.71115,172.23053c0.75262,-1.8762 2.62882,-1.1236 2.62882,-1.1236l1.25124,0.78889c0.09174,0.14578 0.20318,0.28493 0.32956,0.41341c0.39452,-1.41413 0.91587,-2.83734 1.57036,-4.2837c0,0 0.8334,-1.84176 2.67516,-1.00834c1.84176,0.8334 1.00834,2.67516 1.00834,2.67516c-0.8049,1.77874 -1.38019,3.50625 -1.73703,5.22537c0.0056,0.12968 0.00065,0.26842 -0.01652,0.41689c-0.03183,0.27491 -0.09692,0.50783 -0.18559,0.70509c-0.52231,3.42032 -0.18801,6.84419 0.9145,10.60954l0.08825,0.59337c0,0 0.1659,2.01472 -1.8488,2.18062c-2.01472,0.1659 -2.18062,-1.84881 -2.18062,-1.84881l0.05506,0.19043c-0.29181,-1.03342 -0.53594,-2.048 -0.73044,-3.04808c-1.16866,0.07264 -2.36379,-0.0964 -3.42657,-0.50805l-0.80134,-0.2295c0,0 -1.93223,-0.59421 -1.33802,-2.52642c0.59421,-1.93223 2.52642,-1.33803 2.52642,-1.33803l1.27975,0.41047c0.35719,0.21756 0.80838,0.31942 1.25396,0.30767c-0.09232,-1.47885 -0.06327,-2.9373 0.09407,-4.39074c-0.9452,-0.45526 -1.81468,-1.09007 -2.51954,-1.83805l0.23263,0.25528c0,0 -1.8762,-0.75262 -1.1236,-2.62882z" fill="#663f3f" stroke="none" stroke-width="0.5" stroke-linecap="butt"/><path d="M262.44754,198.95369c-1.12903,1.67687 -2.80588,0.54785 -2.80588,0.54785l-1.45692,-1.05825c-0.82101,-0.92714 -1.68624,-1.8156 -2.57581,-2.67768c-0.05334,0.04304 -0.10669,0.0858 -0.16007,0.12825l-2.43665,0.89869c0,0 -1.93075,0.59901 -2.52976,-1.33173c-0.59901,-1.93075 1.33173,-2.52976 1.33173,-2.52976l1.12348,-0.20583c3.83345,-3.02498 7.86486,-8.05215 8.38951,-13.14804c0.26877,-2.61041 -1.0354,-5.10006 -1.26982,-7.657c0,0 -0.1659,-2.01472 1.8488,-2.18062c2.01472,-0.1659 2.18062,1.8488 2.18062,1.8488c0.11325,1.6209 0.61855,3.1633 0.9685,4.73994c0.16122,0.12796 0.25217,0.23047 0.25217,0.23047c1.27556,1.46774 2.03798,2.1473 3.9516,2.53582l1.72039,-0.16316c0,0 2.01472,-0.1659 2.18062,1.8488c0.1659,2.01472 -1.8488,2.18062 -1.8488,2.18062l-2.30905,0.16864c-1.64104,-0.35659 -2.8477,-0.7772 -3.93604,-1.44715c-0.42403,1.91642 -1.1873,3.79146 -2.17935,5.56493c0.01458,0.04104 0.02131,0.0645 0.02131,0.0645c0.55468,2.11452 0.93416,2.52342 2.87625,3.54417l0.99311,0.04378c0,0 1.99481,0.32769 1.66712,2.32248c-0.32769,1.99481 -2.32248,1.66712 -2.32248,1.66712l-2.29679,-0.49665c-1.76672,-1.014 -2.84572,-1.89924 -3.63748,-3.19414c-0.51423,0.63243 -1.05133,1.24094 -1.60417,1.82169c0.90473,0.88446 1.78533,1.79446 2.6255,2.73992l0.69052,0.38761c0,0 1.67689,1.12903 0.54785,2.80588z" fill="#663f3f" stroke="none" stroke-width="0.5" stroke-linecap="butt"/><path d="M214.79082,171.50993c0.09162,1.1127 -0.7361,2.08898 -1.8488,2.18062c-0.39427,0.03247 -0.77142,-0.0505 -1.09815,-0.22067c-1.13245,0.681 -2.48868,0.92081 -3.9759,0.35834c-0.77152,-0.29179 -1.14072,-1.13922 -1.58636,-1.88102c-0.26625,-0.07351 -0.54795,-0.21859 -0.83795,-0.46447c-1.54192,-1.30729 -0.23464,-2.84924 -0.23464,-2.84924l1.02574,-1.20291c1.29643,-1.73908 2.83579,-3.0361 3.96494,-4.87311c0,0 1.0761,-1.71132 2.78742,-0.63521c1.71132,1.0761 0.63522,2.78742 0.63522,2.78742c-0.10072,0.15743 -0.20358,0.31105 -0.30826,0.4614c2.28106,0.01438 2.38188,2.87453 1.12936,5.36106c0.19292,0.28069 0.31744,0.61401 0.3474,0.97779z" fill="#663f3f" stroke="none" stroke-width="0.5" stroke-linecap="butt"/><path d="M198.86267,184.99183c-0.18499,0.01524 -0.36623,0.00506 -0.54026,-0.02763l-0.14999,0.20313c0,0 -1.20184,1.62547 -2.82732,0.42364c-0.21828,-0.16138 -0.38557,-0.3304 -0.51163,-0.50211c-0.08348,-0.01213 -0.16994,-0.02893 -0.2595,-0.05081c-0.46823,-0.11438 -0.79752,-0.31312 -1.02755,-0.54949c-0.41268,0.24232 -0.97612,0.35209 -1.71277,0.05658c-1.8762,-0.75262 -1.1236,-2.62882 -1.1236,-2.62882l0.27613,-0.64645c1.06814,-1.9199 2.33736,-3.6317 3.39658,-5.55348c0,0 0.97952,-1.76836 2.74789,-0.78885c1.10902,0.6143 1.13729,1.53886 1.00416,2.14292c0.08359,0.02813 0.16944,0.06192 0.25762,0.1018c0.80408,0.36386 1.09825,0.91989 1.1745,1.43094c0.13212,0.05332 0.26878,0.12306 0.40976,0.21171c0.82111,0.51633 1.00051,1.1789 0.96495,1.7285c0.39648,0.33467 0.66486,0.82095 0.71081,1.3789c0.07171,0.87085 -0.41974,1.65817 -1.1702,2.0032c-0.31247,0.58691 -0.90771,1.00764 -1.61959,1.06626z" fill="#663f3f" stroke="none" stroke-width="0.5" stroke-linecap="butt"/><path d="M187.65069,219.96025c-1.8762,-0.75262 -1.1236,-2.62882 -1.1236,-2.62882l0.33318,-0.74302c0.35871,-0.57043 0.7174,-1.14087 1.0761,-1.71131c0,0 1.0761,-1.71132 2.78742,-0.63522c1.71132,1.0761 0.63521,2.78742 0.63521,2.78742c-0.35871,0.57043 -0.71739,1.14087 -1.0761,1.71132l-0.0034,0.09606c0,0 -0.75262,1.8762 -2.62882,1.1236z" fill="#663f3f" stroke="none" stroke-width="0.5" stroke-linecap="butt"/><path d="M299.53815,196.83416c1.72781,-1.0494 2.77721,0.67843 2.77721,0.67843l0.19409,0.47259c1.51359,-0.09827 1.96711,1.48149 1.96711,1.48149c1.3186,4.66976 1.1909,10.53439 0.6552,15.34593l-0.75625,2.31383c0,0 -0.66665,1.90844 -2.5751,1.2418c-0.73042,-0.25514 -1.08363,-0.69218 -1.24139,-1.13453c-0.25116,0.14545 -0.53773,0.23883 -0.8462,0.26424c-0.77189,0.06356 -1.47815,-0.3153 -1.86895,-0.92482l-1.13423,-1.69672l0.01105,-0.00739l-0.03507,-0.02939c-0.52741,-0.90748 -0.91944,-1.87262 -1.1936,-2.87487c-0.1851,0.03192 -0.392,0.04142 -0.62324,0.02219c-2.01457,-0.16757 -1.847,-2.18213 -1.847,-2.18213l0.10179,-0.89194c-0.33369,-4.05222 -0.95792,-6.37965 -2.55328,-10.10154c0,0 -0.79449,-1.85886 1.06436,-2.65336c1.85886,-0.79449 2.65336,1.06436 2.65336,1.06436c0.01488,0.03492 0.02969,0.06978 0.04444,0.10454c1.03694,-0.85212 2.29443,-0.06137 2.29443,-0.06137c0.08307,0.05253 0.16616,0.10507 0.24923,0.15759c0.31125,-0.26538 0.70571,-0.43907 1.14448,-0.47519c0.38877,-0.03201 0.76091,0.0482 1.08447,0.2136c0.1199,-0.11413 0.26305,-0.22399 0.4331,-0.32728zM295.98245,201.63164c-0.02756,-0.01725 -0.0551,-0.03449 -0.08266,-0.05174c0.01644,0.05478 0.03269,0.10951 0.04878,0.16424c0.01123,-0.03754 0.02251,-0.07505 0.03388,-0.1125z" fill="#663f3f" stroke="none" stroke-width="0.5" stroke-linecap="butt"/><path d="M310.97932,287.1721c-0.26536,0.30504 -0.57039,0.03969 -0.57039,0.03969l-0.26387,-0.22955c-4.90416,-4.5407 3.72985,-10.56461 3.40266,-14.40767c-0.42404,-4.58232 -4.48375,-6.78913 -5.63208,-11.04579c-0.28175,-0.0564 -0.58037,-0.14478 -0.89674,-0.26859c-0.24029,0.28647 -0.60807,0.52799 -1.1664,0.64496c-1.97858,0.41452 -2.3931,-1.56404 -2.3931,-1.56404l-0.34959,-1.67706c-0.54529,-3.29744 -0.41205,-8.94288 -2.32702,-11.56767c0,0 -1.12345,-1.68061 0.55714,-2.80406c1.68061,-1.12345 2.80407,0.55714 2.80407,0.55714c1.07722,1.70191 1.63798,3.82401 2.00742,6.03516c0.40588,-0.4671 1.19945,-1.04378 2.3876,-0.45769h-0.00001c1.48064,0.73036 1.15554,2.07348 0.98663,2.54133c0.17542,-0.06043 0.37532,-0.10282 0.60309,-0.12158c2.01472,-0.1659 2.18062,1.8488 2.18062,1.8488c0.13125,2.31604 -0.47719,6.80528 -3.54487,6.90853c1.20108,4.11076 5.16201,6.29241 5.58867,10.89904c0.27123,3.18547 -8.04874,10.40196 -3.67738,13.86915l0.26387,0.22954c0,0 0.30504,0.26536 0.03968,0.57039z" fill="#663f3f" stroke="none" stroke-width="0.5" stroke-linecap="butt"/><path d="M200.33723,79.73977c-0.1659,-2.01472 1.8488,-2.18062 1.8488,-2.18062l2.01012,-0.12615c2.75309,0.31866 5.45912,1.12631 8.19438,1.11969c0,0 2.02145,0.01717 2.00428,2.03864c-0.01717,2.02147 -2.03864,2.00428 -2.03864,2.00428c-2.92892,-0.04949 -5.69763,-0.80753 -8.6249,-1.14634l-1.21342,0.13931c0,0 -2.01472,0.1659 -2.18062,-1.8488z" fill="#663f3f" stroke="none" stroke-width="0.5" stroke-linecap="butt"/><path d="M204.90687,86.7575c0.97952,-1.76836 2.74789,-0.78885 2.74789,-0.78885l1.12908,0.63297c0.96349,0.46533 2.05954,0.72295 3.12948,0.71413c0,0 2.02123,0.03539 1.98584,2.05662c-0.03539,2.02123 -2.05662,1.98584 -2.05662,1.98584c-1.61431,-0.05593 -3.24291,-0.43196 -4.72551,-1.07307l-1.4213,-0.77972c0,0 -1.76836,-0.97952 -0.78885,-2.74789z" fill="#663f3f" stroke="none" stroke-width="0.5" stroke-linecap="butt"/><path d="M307.52109,61.21208c-0.75262,1.8762 -2.62882,1.1236 -2.62882,1.1236l0.29769,-0.02329c-3.23302,-0.0608 -5.7136,0.37961 -8.77152,-0.94273c0,0 -1.84176,-0.8334 -1.00834,-2.67516c0.8334,-1.84176 2.67516,-1.00834 2.67516,-1.00834c2.33837,1.12936 4.61357,0.54195 7.17551,0.58379l1.13676,0.3133c0,0 1.8762,0.75262 1.1236,2.62882z" fill="#663f3f" stroke="none" stroke-width="0.5" stroke-linecap="butt"/><path d="M189.23672,11.44572c-0.09162,-1.1127 0.7361,-2.08898 1.8488,-2.18062c0.58568,-0.04823 1.13359,0.15827 1.53456,0.52696c0.51896,0.10916 0.89031,0.38373 0.89031,0.38373c0.57596,0.42587 1.15194,0.85171 1.72791,1.27757l0.75965,0.6382c0,0 1.54192,1.30729 0.23462,2.84924c-1.30729,1.54192 -2.84924,0.23462 -2.84924,0.23462l-0.54872,-0.47109c-0.57596,-0.42587 -1.15194,-0.85171 -1.72791,-1.27757c0,0 -0.07075,-0.05232 -0.17182,-0.14986c-0.89976,-0.14188 -1.62011,-0.88308 -1.69819,-1.83117z" fill="#663f3f" stroke="none" stroke-width="0.5" stroke-linecap="butt"/><path d="M223.62648,54.65787c-0.09162,-1.1127 0.7361,-2.08898 1.8488,-2.18062c1.1127,-0.09162 2.08898,0.7361 2.18062,1.8488c0.09162,1.1127 -0.7361,2.08898 -1.8488,2.18062c-1.1127,0.09162 -2.08898,-0.7361 -2.18062,-1.8488z" fill="#590000" stroke="none" stroke-width="0.5" stroke-linecap="butt"/><path d="M226.18525,51.27204c0.00731,-0.00324 0.01471,-0.00646 0.02216,-0.00964c1.11531,-0.4767 1.59201,0.63861 1.59201,0.63861c0.11449,0.26788 1.0738,2.48761 1.08699,2.6342c0.39713,4.40792 -6.27712,4.49445 -6.65365,0.44028c-0.12325,-1.32707 0.98159,-2.35317 1.71295,-3.23284l1.03628,-0.58217c0,0 0.6785,-0.28999 1.20325,0.11157zM225.80496,53.31655l-0.00894,-0.00512c-1.30201,1.4968 -0.16974,3.23903 0.75962,2.00491c0.14822,-0.19682 -0.41262,-1.33923 -0.75069,-1.99981z" fill="#7a0000" stroke="none" stroke-width="0.5" stroke-linecap="butt"/><path d="M219.40769,45.86325c1.08541,-0.54137 1.62676,0.54402 1.62676,0.54402l0.28224,0.68267c1.61023,1.74796 2.7078,3.17272 2.74299,5.55344c0,0 -0.05117,1.21185 -1.263,1.16068c-1.21185,-0.05117 -1.16068,-1.263 -1.16068,-1.263c0.20684,-1.33102 -1.06547,-2.74525 -2.0828,-3.78536l-0.68955,-1.26569c0,0 -0.54137,-1.08541 0.54402,-1.62676z" fill="#663f3f" stroke="none" stroke-width="0.5" stroke-linecap="butt"/><path d="M231.79539,47.34377c0.92517,0.78438 0.14078,1.70954 0.14078,1.70954l-0.46205,0.53348c-0.99422,0.93911 -1.7079,1.5492 -2.36017,2.75882c0,0 -0.58772,1.06102 -1.64873,0.47331c-1.06102,-0.58772 -0.47331,-1.64873 -0.47331,-1.64873c0.80124,-1.41717 1.64581,-2.24113 2.81648,-3.34691l0.27748,-0.33876c0,0 0.78438,-0.92517 1.70953,-0.14078z" fill="#663f3f" stroke="none" stroke-width="0.5" stroke-linecap="butt"/><path d="M232.35853,57.55122c0.36332,0.07594 0.86297,0.31918 0.92547,1.07804c0.09955,1.20883 -1.10929,1.30838 -1.10929,1.30838l-1.18276,-0.35937c-0.87241,-1.0259 -2.00201,-1.16147 -3.12379,-2.07651c0,0 -0.92515,-0.78438 -0.14078,-1.70954c0.78438,-0.92517 1.70953,-0.14078 1.70953,-0.14078c1.03453,0.92849 1.91916,1.06969 2.9216,1.89977z" fill="#663f3f" stroke="none" stroke-width="0.5" stroke-linecap="butt"/><path d="M220.76216,62.34651c-0.92517,-0.78438 -0.14078,-1.70953 -0.14078,-1.70953l0.65856,-0.76529c0.49297,-0.73073 0.94788,-1.48777 1.37436,-2.2592c0,0 0.58772,-1.06102 1.64873,-0.47331c1.06102,0.58772 0.47331,1.64873 0.47331,1.64873c-0.46172,0.83207 -0.95338,1.64883 -1.48419,2.43862l-0.82048,0.97922c0,0 -0.78438,0.92515 -1.70954,0.14078z" fill="#663f3f" stroke="none" stroke-width="0.5" stroke-linecap="butt"/><path d="M224.45643,74.58933c-0.40294,0.03319 -0.43613,-0.36976 -0.43613,-0.36976l-0.01659,-0.20146c-0.08573,-1.04099 0.23646,-1.9117 0.17382,-2.94726c1.09883,-2.73928 1.44243,-6.35016 1.26812,-9.23211c0.95669,-2.52907 0.6145,-4.7218 0.39034,-7.44392c0,0 -0.03318,-0.40295 0.36976,-0.43613c0.40294,-0.03319 0.43613,0.36976 0.43613,0.36976c0.22185,2.69406 0.68607,5.1505 -0.39665,7.63085c0.32169,2.73981 -0.22557,6.63309 -1.26812,9.23212c0.11442,0.97449 -0.2474,1.79025 -0.16752,2.7603l0.01659,0.20148c0,0 0.03318,0.40294 -0.36976,0.43613z" fill="#663f3f" stroke="none" stroke-width="0.5" stroke-linecap="butt"/><path d="M187.39069,254.39408c-1.28626,2.57274 -7.44489,1.52452 -13.75571,-2.34124c-6.31081,-3.86578 -10.38402,-9.08523 -9.09775,-11.65796c1.28626,-2.57274 7.44489,-1.52452 13.75571,2.34124c6.31081,3.86578 10.38402,9.08523 9.09775,11.65796z" fill="#000000" stroke="none" stroke-width="0" stroke-linecap="butt"/><path d="M161.45542,279.40698c0.04664,0.4016 -0.35498,0.44824 -0.35498,0.44824l-0.45314,0.05262c-0.5166,0.05988 -1.03184,0.1338 -1.54412,0.22346c-5.4117,1.83191 -11.48975,-1.25299 -11.98893,-7.40427c-0.31411,-3.87069 0.03589,-9.6663 2.35987,-12.11854c0.37845,-0.39932 -0.23196,-1.26718 0.17115,-1.64159c0.33634,-0.31237 1.9327,-0.30803 2.44583,-0.44574c4.38748,-4.68917 10.71783,-2.81309 15.57009,-1.12967c4.11894,-0.78297 3.59986,-2.69279 6.32776,-5.29963c0.9717,-0.9286 3.01031,-1.58753 2.80819,-3.14329c0,0 -0.03318,-0.40295 0.36976,-0.43613c0.40294,-0.03319 0.43613,0.36976 0.43613,0.36976c0.10125,2.01415 -1.74338,2.62684 -3.06452,3.80284c-2.95686,2.63202 -2.36033,4.78486 -6.93631,5.51292c-5.0162,-1.57302 -10.55173,-3.51929 -15.09547,1.01683c-0.35112,0.10591 -2.10597,0.17925 -2.32332,0.35565c-0.40144,0.32582 0.22342,1.13207 -0.08248,1.5489c-1.94286,2.64739 -2.50705,7.52074 -2.18071,11.54225c0.45716,5.63357 5.99792,8.46289 10.97889,6.68722c0.549,-0.09767 1.10104,-0.1798 1.65492,-0.24424l0.45314,-0.05262c0,0 0.4016,-0.04663 0.44824,0.35498z" fill="#929292" stroke="#929292" stroke-width="1" stroke-linecap="butt"/><path d="M315.60914,287.7174c-0.40294,0.0332 -0.43614,-0.36974 -0.43614,-0.36974l-0.03946,-0.47897c-0.41263,-5.00074 -4.53226,-7.4674 -4.0682,-12.67312c1.8546,-4.42678 3.83679,-9.03611 -0.32533,-12.56491c0,0 -0.30839,-0.26146 -0.04692,-0.56983c0.26146,-0.30839 0.56985,-0.04693 0.56985,-0.04693c4.42079,3.74809 2.62086,8.68565 0.58723,13.37633c-0.38787,4.98245 3.68306,7.48953 4.08923,12.41197l0.03946,0.47907c0,0 0.0332,0.40294 -0.36975,0.43614z" fill="#1c00ff" stroke="none" stroke-width="0.5" stroke-linecap="butt"/><path d="M307.31581,285.52002c-0.40285,0.03431 -0.43716,-0.36854 -0.43716,-0.36854l0.03827,-0.20563c-1.96491,-2.86341 -1.20366,-6.48163 -0.42936,-9.57865c-0.14667,-2.72761 2.77426,-4.7471 3.04369,-7.32145c0.1826,-1.74463 -1.00465,-4.3619 -1.69227,-5.96968c0,0 -0.15891,-0.37177 0.21286,-0.53068c0.37177,-0.1589 0.53068,0.21286 0.53068,0.21286c0.74052,1.7336 1.95038,4.48021 1.75297,6.37154c-0.26624,2.55082 -3.30111,4.66551 -3.04206,7.3041c-0.67785,2.8407 -1.63961,6.42805 0.28369,9.04504l0.10724,0.60391c0,0 0.03431,0.40286 -0.36853,0.43716z" fill="#000000" stroke="none" stroke-width="0.5" stroke-linecap="butt"/><path d="M307.22065,283.66868c-0.23674,-0.32774 0.09103,-0.56449 0.09103,-0.56449l0.33301,-0.24054c3.28524,-2.35661 7.12846,-6.92609 2.59014,-9.9051c-2.12785,-1.40183 -7.33655,-4.0114 -5.54293,-7.48348c0.68265,-1.32146 2.13194,-2.17984 2.73735,-3.71552c0,0 0.15052,-0.37524 0.52576,-0.22472c0.37524,0.15052 0.22472,0.52576 0.22472,0.52576c-0.90989,2.23502 -3.47188,3.21148 -2.7232,5.91423c0.51443,1.85709 3.709,3.31736 5.22218,4.30784c5.11177,3.35899 1.13934,8.54751 -2.56055,11.23647l-0.33301,0.24054c0,0 -0.32776,0.23673 -0.56449,-0.09103z" fill="#420000" stroke="none" stroke-width="0.5" stroke-linecap="butt"/><path d="M309.91321,283.13919c-0.15522,0.37331 -0.52854,0.21809 -0.52854,0.21809l-0.1215,-0.05052c-6.09778,-2.5738 -2.69108,-6.1288 -0.40008,-9.6683c0.93845,-1.38291 2.44715,-1.74084 3.09162,-3.45735c1.00433,-2.6749 -2.53801,-5.88685 -4.36855,-7.43886c0,0 -0.30839,-0.26146 -0.04693,-0.56985c0.26146,-0.30839 0.56983,-0.04692 0.56983,-0.04692c2.15163,1.82423 5.70997,5.23817 4.60521,8.33297c-0.64715,1.81288 -2.26206,2.20473 -3.1772,3.62676c-2.07532,3.07097 -5.51186,6.20839 0.03652,8.4749l0.1215,0.05052c0,0 0.37331,0.15522 0.21809,0.52854z" fill="#04ff00" stroke="none" stroke-width="0.5" stroke-linecap="butt"/><path d="M272.34306,48.02221c0.09431,-4.95062 8.7251,-1.07558 7.7029,1.43033c-0.73416,1.79979 -7.69249,0.67059 -8.32792,-0.18927c0,0 -0.41976,-0.69113 0.27137,-1.11089c0.12742,-0.07741 0.24561,-0.11701 0.35365,-0.13019z" fill="#8b0000" stroke="none" stroke-width="0.5" stroke-linecap="butt"/><path d="M259.80285,63.72091c-0.35184,3.82448 -3.35212,4.40138 -7.35448,4.03318c-4.00236,-0.3682 -7.49119,-1.54209 -7.13937,-5.36655c0.35184,-3.82448 3.88161,-6.62635 7.88397,-6.25814c4.00236,0.3682 6.96169,3.76705 6.60985,7.59151z" fill="#8b0000" stroke="none" stroke-width="0" stroke-linecap="butt"/><path d="M256.43824,64.08274c-0.19037,2.06934 -1.81376,2.38147 -3.97933,2.18225c-2.16558,-0.19923 -4.0533,-0.83439 -3.86292,-2.90372c0.19037,-2.06934 2.10025,-3.58536 4.26582,-3.38613c2.16558,0.19923 3.7668,2.03827 3.57643,4.10759z" fill="#000000" stroke="none" stroke-width="0" stroke-linecap="butt"/><g fill="#8c0000" stroke="none" stroke-width="0" stroke-linecap="butt"><path d="M-31.65113,365.07629v-443.07355h273.84156c0,0 0,67.06434 0,115.32051c0,13.48761 -62.19402,-29.18315 -62.19402,-8.4973c0,13.76926 1.08842,29.77998 2.9773,47.19817c1.97613,18.22285 -60.01221,-8.14199 -56.6136,12.20686c2.77911,16.63971 6.05102,33.5678 9.59586,52.34512c3.06814,16.25223 -65.11623,-13.1171 -61.78172,3.57654c3.61493,18.09758 6.24672,38.05575 8.14651,58.35185c7.37055,78.74245 3.723,162.57178 3.723,162.57178z"/><path d="M396.44132,365.07629c0,0 -3.70836,-83.82933 3.78506,-162.57177c1.93145,-20.29612 4.60712,-40.25428 8.28231,-58.35185c3.39009,-16.69364 -65.93095,12.67569 -62.81167,-3.57655c3.60393,-18.77732 6.93038,-35.70542 9.75583,-52.34512c3.45526,-20.34884 -59.56647,6.01599 -57.5574,-12.20686c1.92036,-17.41819 3.02693,-33.42893 3.02693,-47.19817c0,-20.68585 -63.23084,21.98491 -63.23084,8.4973c0,-48.25617 0,-115.32051 0,-115.32051h278.40669v443.07355z" data-paper-data="{&quot;index&quot;:null}"/></g><path d="M-38.52853,439.68979v-519.37955h557.05706v519.37955z" fill-opacity="0.62745" fill="#000000" stroke="none" stroke-width="0" stroke-linecap="butt"/></g></g></svg>