<svg version="1.1" xmlns="http://www.w3.org/2000/svg" xmlns:xlink="http://www.w3.org/1999/xlink" width="488.52427" height="369.05758" viewBox="0,0,488.52427,369.05758"><g transform="translate(3.81252,4.90134)"><g data-paper-data="{&quot;isPaintingLayer&quot;:true}" fill-rule="nonzero" stroke-linecap="butt" stroke-linejoin="miter" stroke-miterlimit="10" stroke-dasharray="" stroke-dashoffset="0" style="mix-blend-mode: normal"><path d="M-0.30557,361.65623l-1,-363l483.5,3.5l-2.5,359.5z" fill="#9c9c9c" stroke="#000000" stroke-width="5"/><path d="M152.79519,351.95884c0.16324,-0.8669 0.38042,-1.69512 0.67632,-2.44656c0.32189,-0.81745 1.55483,-1.01064 1.91322,-1.81275c0.27905,-0.62454 -0.12687,-1.36219 -0.1903,-2.04329c0,-8.3792 -0.23561,-16.48159 -0.99148,-24.7938c-0.45226,-4.97345 -0.00852,-10.21636 -0.00852,-15.2062c0,-11.33333 0,-22.66667 0,-34c0,-6.33333 0,-12.66667 0,-19c0,-1.66667 -0.04501,-3.33394 0,-5c0.01848,-0.6838 0.46975,-1.41893 0.1903,-2.04329c-0.38516,-0.86055 -1.74977,-1.091 -2,-2c-0.52725,-1.91534 -0.15234,-3.97049 -0.1903,-5.95671c-0.10748,-5.62328 0.25146,-11.28087 -0.09058,-16.89855c-0.45213,-7.42592 -0.68254,-15.33936 -1.8743,-22.68387c-0.22615,-1.39373 -0.86271,-2.70855 -1.01639,-4.11212c-0.17165,-1.56774 0.38555,-3.19048 0.04815,-4.73108c-0.5272,-2.40726 -2.1549,-4.44744 -2.93859,-6.78381c-2.99083,-8.97259 -4.15451,-18.31393 -8.84274,-26.6303c-2.58819,-4.59116 -7.39688,-6.59443 -10.67419,-10.52226c-3.73082,-4.47136 -5.81301,-9.44543 -8.35715,-14.53963c-1.9098,-3.82405 -4.02416,-7.31674 -5.70829,-11.2805c-3.46616,2.71813 -7.3166,5.29136 -10.7911,7.34439c-0.43864,0.25919 -7.76745,3.85712 -7.88978,3.93216c-3.77867,2.31813 -6.57343,6.05635 -10.51821,8.23934c-2.77722,1.53688 -5.82101,2.58414 -8.51477,4.263c-5.91997,3.66757 -12.00312,5.77375 -18.23368,8.64901c-5.30432,2.44782 -9.86497,6.44417 -14.83225,9.49587c-4.38395,2.69332 -8.98544,4.45431 -13.68172,6.51218c-1.68507,0.73838 -3.26783,1.80015 -5.06543,2.1917c-2.71829,0.5921 -5.54303,-0.64507 -8.23944,-1.32994c-1.72793,-0.43888 -3.63163,-0.15738 -5.28416,-0.82633c-1.36172,-0.55123 -2.3289,-1.79184 -3.46979,-2.71732c-1.42996,-1.15997 -3.09177,-2.10036 -4.24186,-3.53828c-1.15009,-1.43792 -1.67987,-3.27709 -2.5198,-4.91563c0,0 -1.11803,-2.23607 1.11803,-3.3541c2.23607,-1.11803 3.3541,1.11803 3.3541,1.11803c0.65078,1.34288 1.02025,2.86328 1.95234,4.02864c0.93208,1.16536 2.35031,1.83995 3.50123,2.7898c0.78824,0.65053 1.35802,1.65156 2.31499,2.01033c1.45217,0.54443 3.10917,0.21817 4.61533,0.58788c1.94043,0.47631 3.92939,1.7665 5.86107,1.25584c3.02192,-0.79886 5.66635,-2.64422 8.54689,-3.85773c8.64815,-3.64328 15.45444,-10.04111 23.87371,-13.94252c6.08552,-2.81997 12.01485,-4.81652 17.79486,-8.4064c2.77489,-1.71378 5.87872,-2.83287 8.74145,-4.3955c3.8275,-2.08925 6.53244,-5.78055 10.19702,-8.04675c2.57228,-1.59071 5.50474,-2.53211 8.11022,-4.06784c4.84677,-2.8568 10.47255,-6.79272 14.53291,-10.65019c2.99955,-2.84967 5.53981,-6.53921 8.48967,-9.49083c2.5883,-2.58985 6.17482,-5.13437 8.20413,-8.15847c3.2541,-4.84932 5.41475,-10.20388 8.95348,-14.9332c2.3786,-3.95046 5.09518,-7.51491 7.82287,-11.231c0.5704,-0.77709 1.55869,-1.28424 1.88866,-2.18997c0.35842,-0.98382 -0.35144,-2.17512 0.0534,-3.14076c0.45193,-1.07796 1.66262,-1.65666 2.35325,-2.59967c0.68555,-0.93607 4.27809,-7.08654 5,-8c0.83148,-1.05211 2.15186,-1.68693 2.86934,-2.81985c0.8862,-1.39934 0.92766,-3.23334 1.83975,-4.61594c1.91972,-2.91 5.44239,-4.35869 8.12823,-6.58124c0.65155,-0.53916 0.71298,-1.57894 1.32258,-2.16511c0.93464,-0.89873 2.19458,-1.39046 3.21156,-2.19483c1.54609,-1.22285 2.4167,-3.11514 3.65162,-4.65162c1.09349,-1.36051 3.00876,-2.07021 3.75786,-3.64677c0.5335,-1.12281 0.38675,-2.47452 0.83079,-3.63562c1.15143,-3.01084 3.31349,-5.60525 5.57695,-7.9004c0.48602,-0.39631 1.25221,-0.59657 1.45807,-1.18894c0.30299,-0.87185 -0.39453,-1.8989 -0.08303,-2.76775c0.51493,-1.43627 1.50723,-2.66828 2.45937,-3.86051c0.15216,-0.19053 6.52415,-6.52916 6.55977,-6.56464l2.33643,-3.29952c0,0 1.44914,-2.03715 3.48629,-0.58801c2.03715,1.44914 0.58801,3.48629 0.58801,3.48629l-2.5925,3.62941c-1.98703,1.99369 -7.15244,5.67003 -8.05192,8.64591c-0.31183,1.03167 0.34635,2.2437 -0.08303,3.23225c-0.5033,1.15872 -1.69462,1.87404 -2.54193,2.81106c-2.72593,2.68051 -3.07841,2.43703 -4.42305,6.0996c-0.51906,1.41382 -0.47609,3.02726 -1.16921,4.36438c-0.51853,1.0003 -3.41218,3.31054 -4.24214,4.35323c-0.74848,0.94033 -1.24183,2.06747 -2,3c-1.3891,1.70856 -3.55364,2.62309 -5.13682,4.15355c-0.6436,0.62217 -0.7427,1.69968 -1.4302,2.27298c-3.68519,3.07305 -4.9117,1.67693 -7.40508,5.6959c-0.88408,1.42501 -0.97254,3.25484 -1.87415,4.66883c-0.79975,1.25424 -2.20671,2.01438 -3.13066,3.18015c-1.95325,2.46449 -3.09781,5.49589 -5,8c-0.43586,0.57378 -1.3943,0.72545 -1.64675,1.40033c-0.33397,0.89283 0.40399,1.9728 0.0534,2.85924c-0.53088,1.34231 -1.73799,2.30599 -2.56434,3.48953c-2.63011,3.76694 -5.36754,7.14742 -7.72413,11.0895c-3.57537,4.7557 -5.72415,10.20429 -9.04652,15.0668c-2.21576,3.24291 -5.94077,5.98813 -8.7248,8.77046c-2.98217,2.98034 -5.55272,6.7029 -8.5814,9.58024c-0.23955,0.22758 -0.48418,0.45541 -0.73346,0.68328c0.22772,0.3132 0.33275,0.57577 0.33275,0.57577c1.69606,4.24475 3.91334,7.81194 5.9246,11.8301c2.3474,4.68971 4.21078,9.33571 7.64285,13.46037c3.62319,4.35435 8.36696,6.35564 11.32581,11.47774c0.5645,0.97721 0.65026,2.16646 1.09525,3.20356c0.37902,0.88334 3.85542,7.51526 4.06776,8.1836c1.64984,5.19296 2.24575,10.73708 3.99425,15.98254c0.82105,2.48056 2.48784,4.66701 3.06141,7.21619c0.38555,1.71354 -0.14851,3.52359 0.04815,5.26892c0.14968,1.32838 0.77074,2.56814 0.98361,3.88788c1.21439,7.5288 1.47601,15.62069 1.93641,23.234c0.34329,5.67677 0.23315,11.5013 0.09871,17.18359c-0.03191,1.34888 -0.57736,2.75075 -0.1903,4.04329c0.27046,0.90318 1.67463,1.11512 2,2c0.27037,0.73529 0.1903,8.80368 0.1903,8.95671c0,6.33333 0,12.66667 0,19c0,11.33333 0,22.66667 0,34c0,4.85015 -0.45893,9.96062 -0.00852,14.7938c0.78732,8.44827 1.00852,16.69167 1.00852,25.2062c-0.06343,1.3189 0.26858,2.71858 -0.1903,3.95671c-0.35019,0.94487 -1.69396,1.25929 -2.08678,2.18725c-0.46575,1.10023 -0.63696,5.39472 -0.72292,6.91004v2.946c0,1.38071 -1.11929,2.5 -2.5,2.5c-1.38071,0 -2.5,-1.11929 -2.5,-2.5v-8c0,0 0,-0.9663 0.60076,-1.69739z" fill="#ffffff" stroke="none" stroke-width="0.5"/><path d="M374.01933,353.79862c0.54048,-0.52838 1.47153,-1.03926 2.79313,-0.37845c2.23607,1.11803 1.11803,3.3541 1.11803,3.3541l-5.00383,2.64973c-1.44436,-1.45803 -3.22478,-2.53973 -4.81721,-3.83441c-1.78279,-1.44946 -2.9235,-3.54589 -4.34838,-5.34838c-0.6819,-0.86262 -1.76968,-1.41596 -2.26635,-2.39699c-0.48409,-0.95618 0.10931,-2.32342 -0.5509,-3.16765c-1.39391,-1.78246 -4.83295,-1.81024 -6.56372,-2.8937c-1.70226,-1.06561 -4.22474,-4.42054 -4.97196,-6.11524c-0.52216,-1.18427 -0.35547,-2.60054 -0.88921,-3.77964c-1.3084,-2.89038 -5.98644,-2.87769 -7.1342,-6.27504c-0.59303,-1.75536 0.09048,-3.72016 -0.15802,-5.55625c-0.14137,-1.04457 -0.83216,-1.95936 -1,-3c-0.88814,-5.50671 -0.03228,-11.82788 -0.03228,-17.40046c0.02229,-1.14187 0.34016,-2.3167 0.06688,-3.42562c-0.55457,-2.25034 -2.81722,-4.48852 -3.81267,-6.476c-1.00138,-1.99931 -2.01426,-3.99293 -3,-6c-0.39457,-0.80339 -0.17541,-1.88717 -0.74098,-2.58089c-0.77845,-0.95484 -2.38153,-1.04695 -3.05677,-2.07736c-0.86862,-1.3255 -0.73178,-3.09382 -1.30117,-4.57276c-0.88201,-2.2909 -1.80274,-4.57358 -2.90108,-6.76899c-3.38258,-6.76129 -8.3608,-12.11509 -8.25421,-20.09838c0.00366,-0.27434 -0.01089,-0.55308 -0.03101,-0.83333c-3.05468,4.97391 -6.22781,9.8846 -9.36516,14.85065c-1.7069,2.70182 -3.52563,5.38545 -4.88905,8.29021c-0.45443,0.96817 -0.4876,2.1353 -1.09403,3.01627c-1.73517,2.52071 -3.44975,3.17225 -5.23212,5.31422c-3.88317,4.66661 -6.60455,10.24165 -11.25063,14.25063c-4.71589,4.06921 -8.88027,7.58742 -12.638,12.61137c-3.62242,4.82639 -8.60779,9.02964 -11.96307,13.94945c-0.89889,1.31804 -1.0989,3.0972 -2.20262,4.24917c-1.25537,1.31025 -3.17299,1.78352 -4.62285,2.87467c-5.65872,4.25868 -10.43075,10.20216 -15.44369,15.19448c-2.74463,2.73334 -5.81162,4.56329 -8.46318,7.46009c-2.66484,2.9113 -5.20101,7.62992 -9.20621,9.01793c-1.76846,0.61286 -3.9862,1.79509 -5.56015,0.78232c-1.43919,-0.92606 -0.69215,-3.35207 -1.03822,-5.02811v-2c0,0 0,-2.5 2.5,-2.5c2.5,0 2.5,2.5 2.5,2.5v1.19426c1.284,-1.1464 2.72148,-2.13857 3.82738,-3.45411c3.69315,-4.39328 7.94999,-7.53521 11.90486,-11.50791c5.14559,-5.16879 10.1278,-11.29593 15.98138,-15.66056c1.21795,-0.90815 2.90288,-1.17152 3.95208,-2.27029c0.95746,-1.0027 1.01632,-2.60536 1.79738,-3.75083c3.38877,-4.96989 8.38725,-9.18065 12.03693,-14.05055c2.8237,-3.75542 5.7932,-7.28956 9.362,-10.38863c2.22424,-1.93149 4.81644,-3.48801 6.73045,-5.7273c2.93859,-3.43799 5.1124,-7.53886 8.01892,-11.02207c1.42766,-1.71093 3.50285,-2.85135 4.76788,-4.68578c0.47351,-0.68665 0.40671,-1.62844 0.75973,-2.38413c1.5346,-3.28504 3.31232,-5.89582 5.23741,-8.94473c6.75713,-10.70181 13.7212,-21.13921 19.22567,-32.5433c2.94024,-8.64589 10.06596,-16.51613 16.00931,-23.44206c0.87253,-1.01678 2.06695,-1.74424 2.86053,-2.82377c1.71026,-2.32652 2.44218,-5.23873 3.84762,-7.76112c2.78807,-5.00385 5.80235,-10.49167 8.97602,-15.25821c0.88291,-1.32605 2.19055,-2.34648 3.00841,-3.71361c0.52283,-0.87395 0.49498,-1.9927 0.95027,-2.90367c0.5465,-1.09347 1.44192,-1.98276 2.02802,-3.05552c1.22091,-2.23468 1.57969,-4.8692 2.77609,-7.1171c0.76499,-1.43734 2.09273,-2.5337 2.81045,-3.99522c1.39754,-2.84584 1.17014,-4.56834 1.25952,-7.52435c2.1973,-3.06847 6.0706,-7.1508 7.91155,-10.50684c1.55119,-2.8278 1.38299,-6.32843 2.56139,-9.33077c0.62392,-1.58964 1.89386,-2.85674 2.62086,-4.40195c1.26556,-2.68989 1.0299,-5.87019 1.89162,-8.71529c0.45075,-1.48821 1.4626,-2.74943 2.06505,-4.18296c1.03197,-2.45557 1.30793,-5.18555 2.34497,-7.63898c0.36232,-0.85719 4.37933,-7.84924 4.85905,-8.85855c2.29048,-4.81908 3.19936,-9.8084 3.49543,-14.95258c-0.93309,-1.04323 -1.79289,-2.13205 -2.50485,-3.30717c-0.54621,-0.90154 -0.45905,-2.0953 -1,-3c-0.45412,-0.7595 -1.41294,-1.11472 -1.90148,-1.85255c-0.77866,-1.17599 -0.94238,-2.72442 -1.84609,-3.80727c-0.77323,-0.9265 -2.19748,-1.11929 -3.01006,-2.01147c-2.39736,-2.6322 -2.21503,-6.32144 -4.88351,-8.87527c-2.23351,-2.23351 -4.56313,-3.82909 -6.88721,-5.89398c-0.92103,-0.81831 -1.44265,-2.03777 -2.40603,-2.80577c-2.55035,-2.0331 -5.7835,-3.05153 -8.46251,-4.91183c-7.40404,-5.14136 -14.18962,-11.29184 -21.20296,-16.95073c-7.93459,-6.40222 -15.70165,-13.70417 -19.59471,-23.27698c0,0 -0.92848,-2.32119 1.39272,-3.24967c2.32119,-0.92848 3.24967,1.39272 3.24967,1.39272c3.42904,8.7426 10.90233,15.44096 18.09217,21.24273c6.92011,5.58412 13.6101,11.6625 20.91498,16.73499c1.37705,0.95622 7.65661,4.26618 8.80784,5.17455c1.00564,0.79349 1.56133,2.05143 2.5188,2.90242c2.36967,2.10614 4.82731,3.82053 7.11279,6.10602c0.77311,0.79718 1.75408,1.43567 2.31934,2.39154c1.23709,2.09196 1.07468,5.01862 2.79716,6.73319c0.84831,0.84441 2.22431,1.06849 2.98994,1.98853c1.00503,1.20773 1.27871,2.88785 2.15391,4.19273c0.5575,0.8312 1.58236,1.28996 2.09852,2.14745c0.37328,0.62012 0.45178,1.37572 0.6385,2.08184c0.32246,-0.16438 0.7271,-0.26751 1.23488,-0.26751c2.5,0 2.5,2.5 2.5,2.5c0,0.94736 -0.01316,1.8898 -0.04263,2.82737c1.82056,1.86274 3.827,3.61429 5.43126,5.53462c4.09428,4.90092 7.66902,10.34128 11.78743,15.17646c5.12481,6.01672 11.74888,10.80337 17.86114,15.69194c2.46773,2.30016 6.17057,5.9194 9.49386,6.95523c4.2729,1.33181 9.42605,-0.81752 13.70842,0.42624c1.14934,0.33381 1.82666,1.69417 2.98497,1.9954c1.37974,0.35881 2.85003,-0.08879 4.27554,-0.10727c2.99975,-0.03888 6,0 9,0h2c0,0 2.5,0 2.5,2.5c0,2.5 -2.5,2.5 -2.5,2.5h-2c-4.26575,0 -10.6104,0.88688 -14.72446,-0.10727c-1.17311,-0.28348 -1.86614,-1.63502 -3.01503,-2.0046c-0.95694,-0.30783 -2.00976,0.0648 -3.01499,0.06485c-1.70961,0.00007 -9.22998,-0.03532 -10.70166,-0.49364c-4.0422,-1.25887 -8.22948,-5.12358 -11.27238,-7.94277c-6.31246,-5.05135 -13.10243,-10.02357 -18.40055,-16.2345c-4.11249,-4.82103 -7.68912,-10.24677 -11.75957,-15.14405c-0.67316,-0.8099 -1.40534,-1.59087 -2.16235,-2.36157c-0.56722,4.24639 -1.6438,8.38984 -3.54571,12.43425c-1.4038,2.98517 -3.48975,5.63016 -4.77408,8.66864c-1.02447,2.4237 -1.2894,5.12287 -2.30799,7.54905c-0.55219,1.31528 -1.52249,2.45148 -1.93495,3.81704c-0.91765,3.03813 -0.78856,6.39846 -2.10838,9.28471c-0.67605,1.47841 -1.92712,2.6609 -2.52409,4.17297c-1.25883,3.18847 -1.19213,6.87344 -2.82199,9.88917c-1.72574,3.19314 -5.25787,6.81671 -7.56011,9.6983c0.21748,5.33891 -2.03967,7.88567 -4.40309,12.29412c-1.19471,2.22847 -1.5511,4.84344 -2.75084,7.06921c-0.56049,1.03983 -1.44352,1.888 -1.97198,2.94448c-0.48755,0.97467 -0.49157,2.16031 -1.04973,3.09633c-0.89131,1.49473 -2.27415,2.64642 -3.23854,4.09508c-3.1102,4.672 -6.04541,10.02891 -8.77703,14.9331c-1.49649,2.68672 -2.34685,5.74931 -4.15238,8.23888c-0.87398,1.20509 -2.1713,2.04542 -3.13947,3.17623c-2.14149,2.50124 -3.97765,5.24896 -6.01195,7.83814c-3.75563,4.78005 -7.2622,8.44084 -9.14102,14.20664c-1.60269,3.33759 -3.32617,6.59335 -5.1319,9.79692c0.53924,-0.10361 1.18623,-0.0122 1.89623,0.5203c2,1.5 0.5,3.5 0.5,3.5c-0.8761,1.09686 -2.0474,2.0126 -2.62829,3.29057c-0.82747,1.82043 0.4316,5.72394 1,7.41886c1.5464,4.61126 4.71165,8.3651 6.87408,12.69219c1.17227,2.34575 2.2026,4.76659 3.09892,7.23101c0.39851,1.0957 0.04271,2.46346 0.69883,3.42724c0.65946,0.96869 2.21868,1.00162 2.94323,1.92264c0.75092,0.95455 0.70921,2.33617 1.25902,3.41911c1.01227,1.99382 2.00145,3.99928 3,6c1.28175,2.56815 3.4844,4.74117 4.18733,7.524c0.37347,1.47852 0.04459,3.04959 0.06688,4.57438c0,5.26661 -0.9284,11.41432 -0.03228,16.59954c0.17951,1.0387 0.88152,1.95259 1,3c0.16659,1.47279 -0.45478,2.99158 -0.15802,4.44375c0.10913,0.534 0.83027,0.70866 1.27527,1.02335c1.83366,1.29672 4.45661,2.58103 5.59053,4.70161c1.3947,2.60828 1.04437,6.36367 4.13883,8.10512c2.63457,1.48264 6.0283,1.96931 8.01121,4.25126c0.82855,0.9535 0.31566,2.55437 0.87417,3.68739c0.34799,0.70595 1.23784,0.99175 1.73365,1.60301c1.24178,1.53093 2.10108,3.43441 3.65162,4.65162c0.89969,0.70628 1.83201,1.37722 2.73993,2.07574z" fill="#ffffff" stroke="none" stroke-width="0.5"/></g></g></svg>