<svg version="1.1" xmlns="http://www.w3.org/2000/svg" xmlns:xlink="http://www.w3.org/1999/xlink" width="485.58015" height="308.51353" viewBox="0,0,485.58015,308.51353"><g transform="translate(2.08543,-54.64269)"><g data-paper-data="{&quot;isPaintingLayer&quot;:true}" fill-rule="nonzero" stroke-linecap="butt" stroke-linejoin="miter" stroke-miterlimit="10" stroke-dasharray="" stroke-dashoffset="0" style="mix-blend-mode: normal"><path d="M0.69444,360.65623l32,-301l413.5,-2.5l34.5,303.5z" fill="#9c9c9c" stroke="#000000" stroke-width="5"/><path d="M174.81246,349.8923c-2.23607,1.11803 -3.3541,-1.11803 -3.3541,-1.11803l-1.26393,-3.11803c0.06343,-1.01443 0.53359,-2.08661 0.1903,-3.04329c-0.31843,-0.88741 -1.67463,-1.11512 -2,-2c-0.83203,-2.26279 0.61311,-4.92403 -0.08303,-7.23225c-0.34537,-1.14516 -1.6276,-1.84444 -1.99473,-2.98281c-0.37237,-1.15461 0.039,-2.43693 -0.14014,-3.6368c-0.49672,-3.32699 -1.61809,-6.55261 -1.96389,-9.89865c-0.33271,-3.21939 0.45239,-6.60665 0.02376,-9.80575c-0.28192,-2.10418 -2.51765,-5.19952 -2.9654,-6.82607c-0.53081,-1.92827 0.57618,-4.08479 0,-6c-0.42946,-1.42751 -1.33333,-2.66667 -2,-4c-0.03355,-2.94897 -0.56835,-8.03102 -1.71627,-10.67517c-1.31481,-3.02858 -4.59828,-4.86384 -6.09844,-7.80503c-1.74757,-3.42623 -1.38982,-7.97713 -3.00851,-11.46383c-1.37903,-2.97047 -4.04243,-5.18768 -5.62795,-8.05326c-8.99175,-16.25126 -10.4077,-35.7997 -16.57779,-53.14334c0.02075,-1.57772 0.44355,-3.20207 0.06226,-4.73317c-0.28337,-1.13788 -1.44863,-1.86472 -1.96726,-2.91643c-0.84022,-1.70386 -1.62905,-3.45978 -2.08631,-5.3037c-0.61963,-2.49868 -0.08331,-5.23154 -0.91129,-7.66912c-0.9699,-2.85541 -3.07018,-5.24227 -4.02172,-8.10384c-1.31572,-3.95676 -0.72144,-8.64361 -2.74022,-12.39317c-0.39521,-0.73403 -1.28433,-1.07967 -1.80673,-1.72936c-1.75196,-2.17888 -3.46036,-4.40595 -4.94324,-6.77618c-0.90084,-1.43989 -1.44814,-3.07638 -2.28568,-4.55398c-3.02503,-5.33681 -6.83422,-9.58962 -9.15892,-15.32634c0,0 -0.15583,-0.38958 -0.18021,-0.91338c-2.06444,2.07246 -4.12637,4.14821 -6.19529,6.21714c-8.75832,8.7136 -16.25577,18.7566 -25.71833,26.70112c-3.29912,2.76985 -7.63057,4.38437 -11.44322,6.28517c-8.94932,4.46168 -18.07972,8.54522 -27.02371,13.01755c0,0 -2.23607,1.11804 -3.3541,-1.11803c-1.11803,-2.23607 1.11804,-3.35411 1.11804,-3.35411c8.946,-4.47267 18.07795,-8.55733 27.02884,-13.02011c3.43167,-1.71098 7.55186,-3.15212 10.50422,-5.67718c9.25641,-7.91673 16.7436,-17.72078 25.35274,-26.36994c11.41712,-11.41712 22.62571,-23.05121 35.19622,-33.20139c2.88032,-2.32574 7.68183,-5.87854 10.87575,-7.70976c0.86422,-0.4955 1.98775,-0.40631 2.84594,-0.91217c3.66067,-2.15778 6.31134,-6.51734 9.85255,-8.90148c2.45405,-1.6522 5.1112,-3.08277 7.23003,-5.1474c1.38577,-0.36061 2.87095,-0.45284 4.15732,-1.08185c3.55605,-1.73882 6.45974,-5.43968 9.6311,-7.78393c2.18995,-1.6188 3.8391,-4.04587 6.31142,-5.1878c1.41653,-0.65427 3.01704,-0.79751 4.52557,-1.19627l-0.62973,-0.69268c0,0 1.11803,-2.23607 3.3541,-1.11804c2.23607,1.11803 1.11804,3.35411 1.11804,3.35411l-2.62973,3.30732c-9.32365,2.1568 -13.94398,12.49683 -23.37459,14.75014c-1.93421,1.99192 -4.45213,3.32402 -6.76997,4.85261c-3.66395,2.41634 -6.37625,6.80334 -10.14745,9.09852c-0.95002,0.57819 -2.18763,0.53751 -3.15406,1.08782c-3.00388,1.7105 -7.36695,4.9951 -10.05288,7.16918c-9.21145,7.45608 -17.68821,15.70551 -26.05998,24.07706c1.6095,-0.04986 2.27378,1.61084 2.27378,1.61084c2.16116,5.485 5.94697,9.56948 8.84108,14.67366c0.80638,1.42217 1.32064,3.00351 2.18645,4.39029c1.37254,2.1984 2.97035,4.252 4.58463,6.27955c0.65545,0.82325 1.70364,1.33918 2.19327,2.27064c2.36745,4.50383 1.67581,8.79035 3.22094,13.41264c0.95457,2.8556 3.07159,5.23174 4.01712,8.09035c0.87947,2.6589 0.44683,5.60486 1.08871,8.33088c0.66647,2.83045 3.20774,4.96741 3.94643,7.77987c0.44602,1.69814 0.0415,3.51122 0.06226,5.26683c6.25949,16.77848 7.28147,35.78105 16.0286,51.5902c0.90922,1.64328 5.08354,6.85091 5.78808,8.3685c1.56896,3.37957 1.27326,8.08624 2.96907,11.38087c1.54001,2.99193 4.81574,4.90613 6.18037,7.98202c1.2382,2.79091 2.04603,8.34247 2.00492,11.53779c0.66667,1.33333 1.60757,2.56187 2,4c0.5265,1.92945 -0.57374,4.08406 0,6c0.74484,2.48732 2.65045,4.60605 3.0346,7.17393c0.49913,3.33647 -0.32453,6.84377 0.02376,10.19425c0.34116,3.28179 1.47864,6.43915 1.94413,9.70563c0.12976,0.91058 -0.34332,1.88779 -0.04816,2.75893c0.38753,1.14372 1.68737,1.85219 2.00527,3.01719c0.59393,2.17651 -1.0047,4.70852 -0.08303,6.76775c0.38516,0.86055 1.71686,1.10071 2,2c0.49656,1.57713 0.12687,3.30447 0.1903,4.95671l0.73607,0.88197c0,0 1.11803,2.23607 -1.11803,3.3541z" fill="#ffffff" stroke="none" stroke-width="0.5"/><path d="M340.61308,337.21493c0.34088,-0.55513 0.95933,-1.0587 2.08135,-1.0587c2.5,0 2.5,2.5 2.5,2.5v4c0,1.67338 -0.18716,3.34593 -0.50579,5h0.50579l0,4c0,1.38071 -1.11929,2.5 -2.5,2.5c-1.29458,0 -2.35933,-0.98399 -2.48714,-2.24485l-0.37784,-3.28111c-0.86348,-1.42841 -1.9921,-2.7334 -2.54431,-4.30671c-0.34145,-0.97283 0.25905,-2.10151 -0.02384,-3.09295c-0.40902,-1.4335 -1.59326,-2.56585 -2,-4c-0.28868,-1.01789 0.14027,-2.13044 -0.0346,-3.17393c-0.17421,-1.0396 -0.85093,-1.9565 -1,-3c-0.35045,-2.45319 0.17773,-5.12008 -0.81857,-7.38907c-0.96657,-2.2013 -3.05888,-3.78921 -4.00056,-6.00128c-1.50948,-3.54585 -0.79899,-8.4298 -2.83978,-11.69578c-1.41281,-2.26099 -3.5289,-4.18976 -4.3065,-6.73995c-0.29166,-0.95652 0.27472,-2.03848 0,-3c-0.40953,-1.43336 -1.59331,-2.56584 -2,-4c-0.23831,-0.84039 0.41244,-1.79335 0.12342,-2.61767c-0.20749,-0.5918 -0.97205,-0.79263 -1.45807,-1.18894c-2.67611,-2.73199 -3.13595,-2.72412 -4.61864,-7.06027c-0.49622,-1.45121 -0.24705,-3.1043 -0.81778,-4.52785c-0.73057,-1.82223 -3.52143,-2.34861 -4.10551,-4.22294c-0.85156,-2.73266 0.36654,-5.77232 -0.16255,-8.58526c-0.27094,-1.44046 -0.99439,-2.766 -1.31158,-4.19698c-1.96429,-8.86179 -2.57028,-17.7087 -5.57899,-26.35773c-1.41211,-4.05935 -2.78158,-8.10275 -5.25346,-11.53058c-2.23183,2.19972 -4.5301,4.25164 -6.25709,7.02817c-3.11972,5.01563 -5.01344,10.81946 -7.96435,15.94049c-1.31123,2.27551 -3.57558,3.87651 -5.03565,6.05951c-0.54114,0.80907 -0.4275,1.92271 -0.88084,2.78405c-1.39693,2.65414 -3.10409,5.19322 -4.02409,8.04794c-3.28526,4.40422 -4.29167,8.41836 -6.70224,13.26187c-4.27931,8.59831 -12.59261,15.26005 -16.32475,24.1749c-0.30672,0.73264 -1.47254,7.58408 -1.93424,8.48475c-0.46322,0.90363 -5.59013,7.13046 -6.32708,8.22336c-3.41463,5.06394 -5.50339,10.95055 -8.81495,16.03628c-1.82107,2.79671 -4.74706,4.7625 -6.55573,7.56724c-0.87435,1.35587 -0.91065,3.12409 -1.69719,4.53271c-0.80503,1.44173 -2.01631,2.61555 -3.02446,3.92333c-0.50032,1.50523 -1.00063,3.01046 -1.50095,4.51569l-0.10996,0.13219l0.0406,0.02015l-2.00723,4.04397c-0.39945,0.84929 -1.26282,1.43723 -2.26351,1.43723c-1.22888,0 -2.25067,-0.88665 -2.46053,-2.05512l-0.9715,-4.85749l0.02673,-0.00535c-0.02172,-0.07838 -0.04268,-0.15703 -0.06285,-0.23594c-0.9965,-3.89897 -0.03185,-10.29889 -0.03185,-14.3461v-3c0,0 0,-2.5 2.5,-2.5c2.5,0 2.5,2.5 2.5,2.5v3c0,2.75168 0.26606,5.71076 0.23338,8.60956c0.95439,-1.18639 2.02565,-2.29586 2.7678,-3.62192c0.84003,-1.50096 0.92723,-3.3694 1.86505,-4.81129c1.8061,-2.77687 4.71548,-4.72291 6.51533,-7.50383c3.32723,-5.14085 5.45911,-11.06454 8.90624,-16.17668c1.79362,-2.65997 4.46074,-4.72301 5.95173,-7.56368c1.31408,-2.5036 0.75113,-5.67172 1.84303,-8.27989c3.18612,-7.61057 9.71441,-14.32506 14.35065,-21.05882c3.68517,-5.35239 4.89332,-11.50028 8.84508,-16.73976c0.89418,-2.82542 2.59291,-5.33101 3.97591,-7.95206c0.52969,-1.00386 0.49076,-2.27073 1.11916,-3.21595c1.4287,-2.14899 3.69334,-3.69463 4.96435,-5.94049c2.93106,-5.17914 4.87267,-11.02 8.03565,-16.05951c1.94949,-3.10608 5.02478,-5.53128 7.64213,-8.20698c-0.15999,-0.63781 -0.0876,-1.44214 0.71673,-2.24646c0.64736,-0.64736 1.29473,-0.82059 1.85528,-0.78013c0.41674,-0.59536 0.79237,-1.21414 1.11421,-1.8638c0.80165,-1.61819 0.78338,-3.62115 1.81151,-5.10579c0.78927,-1.13971 2.31867,-1.5292 3.39142,-2.40732c1.89065,-1.54763 3.51461,-3.40341 5.12024,-5.24507c4.42983,-5.08103 8.90906,-10.00233 12.70734,-15.59789c0.927,-0.58324 2.09595,-0.8952 2.781,-1.74972c0.6054,-0.75516 0.30615,-1.97505 0.84802,-2.77703c1.89214,-2.80042 4.49849,-5.05353 6.5517,-7.73808c3.61924,-4.73211 8.09452,-8.6694 11.21581,-13.79568c0.9001,-1.47829 1.35065,-3.21559 2.34313,-4.6335c0.81097,-1.15859 2.17669,-1.85014 3,-3c0.90849,-1.26883 1.17489,-2.93549 2.13225,-4.16786c0.62664,-0.80666 1.8326,-1.00353 2.49146,-1.78409c1.81196,-2.14669 2.86091,-5.77001 4.37629,-8.04804c0.52219,-0.78499 1.47702,-1.21554 2,-2c0.8269,-1.24035 1.12383,-2.79395 2,-4c0.72289,-0.99506 2.27484,-1.34778 2.71841,-2.49493c0.46056,-1.19112 -0.06437,-2.54225 -0.17565,-3.82621c-1.86516,-0.65968 -3.81764,-1.12564 -5.60626,-1.96799c-2.94028,-1.38471 -5.04161,-3.36012 -7.5757,-5.38627c-0.92736,-0.94194 -1.74545,-2.00566 -2.78207,-2.82583c-1.96809,-1.55716 -4.81309,-1.59707 -6.92686,-2.94989c-2.90724,-1.86064 -6.42673,-6.35453 -8.85601,-8.7838c-3.84017,-3.84017 -8.13478,-7.56187 -11.67532,-11.68736c-1.86744,-2.17598 -3.14848,-4.81046 -5,-7c-5.81637,-6.87821 -14.16334,-11.8348 -19.17258,-19.22919c0,0 -1.38675,-2.08013 0.69338,-3.46688c2.08013,-1.38675 3.46688,0.69338 3.46688,0.69338c1.4322,2.19166 3.50559,3.90644 5.47441,5.63223c4.54769,3.98633 9.45576,8.53049 13.35302,13.13859c1.85168,2.18941 3.131,4.82536 5,7c3.45437,4.01927 7.65239,7.64035 11.39575,11.3837c2.12432,2.12432 5.45331,6.49459 8.07293,8.14513c2.73414,1.7227 4.62015,1.18753 7.07314,3.05011c1.19995,0.91114 2.14529,2.11611 3.21793,3.17417c1.93102,1.54578 4.0995,3.53854 6.4243,4.61373c2.60113,1.20299 5.52534,1.66444 8.04816,3.02402c4.07547,2.19631 6.79914,5.50388 10.3911,8.24859c2.22202,1.69791 4.96749,2.58959 7.30838,4.11946c1.34668,0.88011 2.28967,2.32157 3.69457,3.1054c1.41958,0.79202 3.18932,0.78092 4.62788,1.53792c1.50481,0.79186 2.61885,2.19591 4.0896,3.04938c3.09089,1.79364 4.12934,1.45541 6.88684,2.93841c1.43134,0.76978 2.69366,1.84953 4.17484,2.5184c4.83662,2.18413 11.50815,4.1273 16.67397,5.11462c1.24011,0.23702 2.58267,-0.18175 3.78161,0.21396c1.25175,0.41314 2.21989,1.4221 3.32983,2.13315c5.9812,1.97625 12.65206,1.74579 18.90162,1.74579h1c0,0 2.5,0 2.5,2.5c0,2.5 -2.5,2.5 -2.5,2.5h-1c-7.10408,0 -14.31344,0.02088 -21.09838,-2.25421c-0.89006,-0.62228 -1.63963,-1.52419 -2.67017,-1.86685c-0.96857,-0.32205 -2.05903,0.1511 -3.06186,-0.03909c-5.55708,-1.05387 -12.70231,-3.15468 -17.90763,-5.48738c-1.55877,-0.69855 -2.89647,-1.81609 -4.40009,-2.62656c-2.27228,-1.22479 -4.87642,-1.77304 -7.11316,-3.06159c-1.41491,-0.81511 -2.46516,-2.19058 -3.9104,-2.95062c-1.4751,-0.77574 -3.2833,-0.78386 -4.73788,-1.59741c-1.50518,-0.84185 -2.55124,-2.34443 -3.99539,-3.28713c-2.45335,-1.60146 -5.30154,-2.58224 -7.63589,-4.35268c-2.43898,-1.8498 -4.44927,-4.07509 -6.83012,-5.92321c0.04391,0.99766 0.00949,1.9801 -0.32932,2.90344c-0.55134,1.50254 -2.36049,2.19619 -3.28159,3.50507c-0.85792,1.21909 -1.1731,2.75965 -2,4c-0.52298,0.78446 -1.47616,1.21611 -2,2c-1.80939,2.70766 -2.6977,6.01364 -4.76866,8.52688c-0.60994,0.7402 -1.77694,0.88218 -2.36358,1.64098c-0.86915,1.12422 -1.04318,2.67481 -1.86775,3.83214c-0.82062,1.15178 -2.18778,1.84228 -3,3c-0.92042,1.31195 -1.29522,2.94213 -2.12901,4.31077c-2.46061,4.03905 -5.47964,6.92793 -8.55953,10.41646c-3.1319,3.54746 -2.9114,4.25491 -6.04579,7.91317c-0.97343,1.13613 -2.32111,1.95019 -3.15504,3.19233c-0.63593,0.94722 -0.44003,2.33148 -1.15198,3.22297c-0.81697,1.023 -2.146,1.50019 -3.219,2.25028c-3.62639,5.55461 -8.12726,10.37047 -12.47544,15.34968c-1.78368,2.04253 -3.5691,4.12641 -5.69698,5.80736c-0.79944,0.63153 -2.04574,0.74348 -2.60858,1.59268c-0.84427,1.2738 -0.66247,3.01664 -1.35077,4.38105c-0.48329,0.95802 -1.13476,1.82052 -1.82386,2.6516c6.6136,8.37551 9.02507,20.71206 10.62954,30.83046c0.7634,4.81425 2.18842,9.50145 3.03057,14.24795c0.43188,2.43416 -0.74471,5.01209 -0.16255,7.41474c0.42586,1.75756 3.14541,2.13108 3.89449,3.77706c1.93181,4.24487 1.07028,7.01374 4.56358,10.41188c0.84731,0.93702 2.04254,1.65065 2.54193,2.81106c0.44598,1.0363 -0.18844,2.29809 0.12342,3.38233c0.41207,1.43263 1.59047,2.56664 2,4c0.27472,0.96152 -0.25248,2.0324 0,3c0.54092,2.07302 2.61564,3.40851 3.6935,5.26005c2.17799,3.74131 1.50858,8.41907 3.16022,12.30422c0.94022,2.21169 3.06719,3.78366 3.99944,5.99872c1.12386,2.67034 0.7717,5.74285 1.18143,8.61093c0.14907,1.0435 0.82768,1.96009 1,3c0.15401,0.92942 -0.29526,1.92076 -0.0346,2.82607c0.11411,0.3963 0.28676,0.76978 0.48553,1.13308z" fill="#ffffff" stroke="none" stroke-width="0.5"/></g></g></svg>