<svg version="1.1" xmlns="http://www.w3.org/2000/svg" xmlns:xlink="http://www.w3.org/1999/xlink" width="553.33333" height="431.22073" viewBox="0,0,553.33333,431.22073"><g transform="translate(36.66666,35.61037)"><g data-paper-data="{&quot;isPaintingLayer&quot;:true}" fill-rule="nonzero" stroke-linejoin="miter" stroke-miterlimit="10" stroke-dasharray="" stroke-dashoffset="0" style="mix-blend-mode: normal"><path d="M-2.30558,358.65626v-360l241,180h-1z" fill="#949494" stroke="#000000" stroke-width="0" stroke-linecap="butt"/><path d="M-1.30557,359.65626l241,-181h3l237,181z" fill="#8c8c8c" stroke="#000000" stroke-width="2" stroke-linecap="butt"/><path d="M240.69443,179.65626l-241,-182h480l-237,182z" fill="#6f6f6f" stroke="#000000" stroke-width="2" stroke-linecap="butt"/><path d="M244.69443,179.65626v0l236,-182l3,364z" fill="#888888" stroke="#000000" stroke-width="0" stroke-linecap="butt"/><path d="M405.69443,54.65625v248h-332v-248z" fill="none" stroke="#000000" stroke-width="2" stroke-linecap="round"/><path d="M126.69443,234.65626h44v-109h144v109h-150" fill="none" stroke="#000000" stroke-width="2" stroke-linecap="round"/><path d="M107.69443,277.65625l-1,-200l63,49l1,108z" fill="#5a5a5a" stroke="#000000" stroke-width="0" stroke-linecap="butt"/><path d="M171.69443,128.65624h-64" fill="none" stroke="#000000" stroke-width="2" stroke-linecap="round"/><path d="M108.69443,235.65625h62" fill="none" stroke="#000000" stroke-width="2" stroke-linecap="round"/><path d="M89.98027,177.66919l13.04894,-23.36455l62.53371,69.76735c0,0 -4.88072,7.75348 -8.83056,9.74603c-2.0506,1.03447 -13.17918,1.35711 -13.17918,1.35711z" fill="#000000" stroke="none" stroke-width="0" stroke-linecap="butt"/><path d="M148.80125,211.42004c-2.806,2.51507 -14.30596,12.03629 -24.34828,12.60763c-7.32732,0.41688 -13.87653,-7.29733 -15.7166,-9.35025c-1.79638,-2.00418 -8.37169,-9.0192 -7.46326,-17.14299c1.06678,-9.53977 10.0073,-20.37355 12.86493,-22.93489c9.03964,-8.10239 17.9147,0.22797 27.33373,10.73656c9.41902,10.50857 16.36913,17.98156 7.32949,26.08395z" fill="#980002" stroke="none" stroke-width="0" stroke-linecap="butt"/><path d="M130.92028,206.58025c-1.98974,1.64971 -2.95453,3.45215 -6.16791,0.4949c-0.55963,-0.51504 -2.98141,-2.92072 -3.49856,-3.54447c-1.26772,-1.52904 -3.88183,-4.97633 -4.43989,-6.52659c-0.97676,-2.71339 0.60447,-2.60668 2.09128,-3.83939c2.33627,-1.93701 4.60892,1.03898 8.09555,5.24429c3.48661,4.20531 6.25583,6.23424 3.91954,8.17125z" fill="#300001" stroke="none" stroke-width="0" stroke-linecap="butt"/><path d="M230.88242,166.97322l2.93932,-1.33075l2.8516,6.29854l-2.93932,1.33075z" fill="#663f3f" stroke="#000000" stroke-width="0.5" stroke-linecap="butt"/><path d="M230.41867,170.97797l2.93933,-1.33074l2.85159,6.29853l-2.93932,1.33075z" fill="#663f3f" stroke="#000000" stroke-width="0.5" stroke-linecap="butt"/><path d="M231.64338,161.94849l2.93932,-1.33075l2.8516,6.29854l-2.9393,1.33074z" fill="#663f3f" stroke="#000000" stroke-width="0.5" stroke-linecap="butt"/><path d="M227.33935,163.89707l2.93932,-1.33075l2.8516,6.29854l-2.93933,1.33076z" fill="#663f3f" stroke="#000000" stroke-width="0.5" stroke-linecap="butt"/><path d="M234.82767,168.98186l2.93933,-1.33076l2.85159,6.29855l-2.93932,1.33075z" fill="#663f3f" stroke="#000000" stroke-width="0.5" stroke-linecap="butt"/><path d="M226.40402,170.7717l12.17718,-5.51308l1.52085,3.35923l-12.1772,5.51309z" fill="#663f3f" stroke="#000000" stroke-width="0.5" stroke-linecap="butt"/><path d="M194.05404,184.02038l3.18076,-0.5415l1.16035,6.81593l-3.18076,0.5415z" fill="#663f3f" stroke="#000000" stroke-width="0.5" stroke-linecap="butt"/><path d="M192.58944,187.77645l3.18077,-0.54148l1.16036,6.81591l-3.18076,0.5415z" fill="#663f3f" stroke="#000000" stroke-width="0.5" stroke-linecap="butt"/><path d="M196.06487,179.3531l3.18076,-0.5415l1.16034,6.81592l-3.18075,0.54149z" fill="#663f3f" stroke="#000000" stroke-width="0.5" stroke-linecap="butt"/><path d="M191.40732,180.146l3.18076,-0.5415l1.16035,6.81593l-3.18076,0.5415z" fill="#663f3f" stroke="#000000" stroke-width="0.5" stroke-linecap="butt"/><path d="M197.36058,186.96422l3.18076,-0.5415l1.16034,6.81592l-3.18076,0.5415z" fill="#663f3f" stroke="#000000" stroke-width="0.5" stroke-linecap="butt"/><path d="M188.75844,186.55839l13.17746,-2.24337l0.61885,3.63516l-13.17745,2.24336z" fill="#663f3f" stroke="#000000" stroke-width="0.5" stroke-linecap="butt"/><path d="M218.9628,187.64699c-9.96026,5.72934 -20.14582,6.70372 -22.75007,2.17632c-2.60425,-4.5274 3.35899,-12.84212 13.31925,-18.57146c9.96026,-5.72934 20.14582,-6.70372 22.75006,-2.17633c2.60425,4.5274 -3.35898,12.84213 -13.31924,18.57147z" fill="#a9a600" stroke="#000000" stroke-width="0.5" stroke-linecap="butt"/><path d="M139.72482,131.192l0.88505,-3.10277l6.64879,1.89655l-0.88505,3.10277z" fill="#663f3f" stroke="#000000" stroke-width="0.5" stroke-linecap="butt"/><path d="M135.83146,132.23835l0.88505,-3.10277l6.64878,1.89656l-0.88505,3.10277z" fill="#663f3f" stroke="#000000" stroke-width="0.5" stroke-linecap="butt"/><path d="M144.58354,129.70201l0.88504,-3.10276l6.64878,1.89654l-0.88505,3.10277z" fill="#663f3f" stroke="#000000" stroke-width="0.5" stroke-linecap="butt"/><path d="M143.28754,134.24534l0.88505,-3.10277l6.64879,1.89655l-0.88505,3.10277z" fill="#663f3f" stroke="#000000" stroke-width="0.5" stroke-linecap="butt"/><path d="M137.15904,127.5842l0.88505,-3.10277l6.64878,1.89654l-0.88505,3.10277z" fill="#663f3f" stroke="#000000" stroke-width="0.5" stroke-linecap="butt"/><path d="M139.72736,137.06437l3.66666,-12.85432l3.54602,1.01148l-3.66666,12.85434z" fill="#663f3f" stroke="#000000" stroke-width="0.5" stroke-linecap="butt"/><path d="M96.31705,215.53027l5.87659,-4.42928l9.4913,12.59272l-5.8766,4.42927z" fill="#663f3f" stroke="#000000" stroke-width="0.5" stroke-linecap="butt"/><path d="M85.71837,201.46838l5.8766,-4.42927l9.49131,12.59271l-5.87661,4.42928z" fill="#663f3f" stroke="#000000" stroke-width="0.5" stroke-linecap="butt"/><path d="M77.35753,222.25082l24.34594,-18.34987l5.06204,6.71612l-24.34594,18.34987z" fill="#663f3f" stroke="#000000" stroke-width="0.5" stroke-linecap="butt"/><path d="M123.67391,194.97275c-12.69488,-14.16337 -24.30228,-39.09686 -19.53059,-43.3738c8.89904,-7.97637 16.30055,-16.44609 28.88247,-18.17269c16.41431,-2.25252 38.25953,4.78324 49.29611,17.09649c15.11751,16.86624 16.67875,44.75819 2.69033,65.72905c-4.05182,6.07432 -18.31197,13.04182 -22.91819,17.17046c0,0 -18.92376,-16.69789 -38.42012,-38.44951z" fill="#a9a600" stroke="#929292" stroke-width="1" stroke-linecap="butt"/><path d="M156.78677,109.40027c-2.53387,11.20766 -8.71779,19.3596 -13.81218,18.20785c-5.0944,-1.15176 -7.17011,-11.17106 -4.63625,-22.37871c2.53387,-11.20766 8.71777,-19.35959 13.81217,-18.20784c5.0944,1.15176 7.17011,11.17106 4.63625,22.37871z" fill="#a9a600" stroke="#000000" stroke-width="0.5" stroke-linecap="butt"/><path d="M154.53628,109.17768c-1.82014,8.05079 -6.26225,13.90656 -9.9217,13.07922c-3.65945,-0.82734 -5.15049,-8.02448 -3.33035,-16.07527c1.82014,-8.05079 6.26224,-13.90655 9.92169,-13.07921c3.65945,0.82734 5.15051,8.02448 3.33036,16.07526z" fill="#cbc700" stroke="#000000" stroke-width="0.5" stroke-linecap="butt"/><path d="M227.94277,171.27833c1.87988,3.24687 -2.38683,9.23163 -9.52993,13.36735c-7.14311,4.13572 -14.45767,4.85629 -16.33756,1.60942c-1.87988,-3.24687 2.38682,-9.23166 9.52993,-13.36737c7.14311,-4.13572 14.45768,-4.85626 16.33756,-1.6094z" data-paper-data="{&quot;index&quot;:null}" fill="#cbc700" stroke="#000000" stroke-width="0.5" stroke-linecap="butt"/><path d="M258.05698,164.38008c-8.66475,7.54682 -18.46978,10.47191 -21.90016,6.53339c-3.43037,-3.93853 0.81294,-13.24923 9.47768,-20.79604c8.66475,-7.54682 18.46978,-10.47191 21.90015,-6.53338c3.43037,3.93853 -0.81293,13.24922 -9.47768,20.79604z" fill="#a9a600" stroke="#000000" stroke-width="0.5" stroke-linecap="butt"/><path d="M262.59794,146.83047c2.51864,2.78073 -0.39891,9.52684 -6.51654,15.06785c-6.11762,5.54101 -13.11869,7.77867 -15.63734,4.99794c-2.51864,-2.78073 0.39891,-9.52686 6.51655,-15.06788c6.11762,-5.54101 13.1187,-7.77864 15.63734,-4.9979z" data-paper-data="{&quot;index&quot;:null}" fill="#cbc700" stroke="#000000" stroke-width="0.5" stroke-linecap="butt"/><path d="M137.03504,167.82191c-3.57348,3.20298 -8.87872,3.11254 -11.8496,-0.20199c-2.97088,-3.31453 -2.48237,-8.59801 1.09112,-11.80099c3.57348,-3.20298 8.87872,-3.11254 11.8496,0.20199c2.97088,3.31453 2.48237,8.59801 -1.09112,11.80099z" fill="#ffffff" stroke="#ffffff" stroke-width="2" stroke-linecap="butt"/><path d="M166.64592,206.89553c-3.57348,3.20298 -8.87872,3.11254 -11.8496,-0.20199c-2.97088,-3.31453 -2.48235,-8.59802 1.09112,-11.80099c3.57347,-3.20297 8.87872,-3.11254 11.8496,0.20199c2.97088,3.31453 2.48235,8.59802 -1.09112,11.80099z" fill="#ffffff" stroke="#ffffff" stroke-width="2" stroke-linecap="butt"/><path d="M129.99874,160.35952c0.62147,-0.55703 1.57684,-0.50481 2.13389,0.11667c0.55704,0.62148 0.5048,1.57685 -0.11667,2.13389c-0.62147,0.55703 -1.57684,0.50481 -2.13389,-0.11667c-0.55704,-0.62148 -0.5048,-1.57685 0.11667,-2.13389z" fill="#000000" stroke="none" stroke-width="0.5" stroke-linecap="butt"/><path d="M158.8515,200.34024c0.81921,-0.73428 2.07857,-0.66542 2.81285,0.15379c0.73428,0.81921 0.66542,2.07857 -0.15379,2.81285c-0.81921,0.73428 -2.07857,0.66542 -2.81285,-0.15379c-0.73428,-0.81921 -0.66542,-2.07857 0.15379,-2.81285z" fill="#000000" stroke="none" stroke-width="0.5" stroke-linecap="butt"/><path d="M138.38276,237.08978c-4.812,3.45781 -24.35329,-8.43511 -36.33384,-25.10765c-11.98056,-16.67256 -16.54989,-36.13395 -11.73789,-39.59176c1.45558,-1.04595 9.28813,-19.93652 12.06552,-18.61654c2.92745,1.39131 -3.8031,15.04 -0.51916,23.27494c3.90034,9.78065 7.45413,21.14104 11.99092,27.45456c4.27151,5.94438 15.1944,16.36111 25.42355,22.71057c8.59719,5.33648 21.7842,1.66207 22.92111,4.41427c1.30445,3.1577 -22.15581,4.27279 -23.81021,5.46161z" fill="#a9a600" stroke="#929292" stroke-width="1" stroke-linecap="butt"/><path d="M99.75203,173.33703l2.5602,-0.91871l1.32704,3.69807l-2.5602,0.91871z" fill="#ffffff" stroke="none" stroke-width="0" stroke-linecap="butt"/><path d="M101.66916,180.02646l2.47949,-1.11838l1.61546,3.58149l-2.47949,1.11838z" fill="#ffffff" stroke="none" stroke-width="0" stroke-linecap="butt"/><path d="M108.62486,196.33987l2.47949,-1.11838l1.61546,3.58149l-2.47949,1.11838z" fill="#ffffff" stroke="none" stroke-width="0" stroke-linecap="butt"/><path d="M113.09824,203.77988l2.05293,-1.78442l2.5775,2.96535l-2.05293,1.78442z" fill="#ffffff" stroke="none" stroke-width="0" stroke-linecap="butt"/><path d="M104.96177,187.2218l2.47949,-1.11838l1.61546,3.58149l-2.4795,1.11839z" fill="#ffffff" stroke="none" stroke-width="0" stroke-linecap="butt"/><path d="M118.99894,211.11782l2.05293,-1.78442l2.5775,2.96535l-2.05293,1.78442z" fill="#ffffff" stroke="none" stroke-width="0" stroke-linecap="butt"/><path d="M125.85856,217.49436l1.71338,-2.11258l3.05151,2.47487l-1.71338,2.11258z" fill="#ffffff" stroke="none" stroke-width="0" stroke-linecap="butt"/><path d="M131.67451,222.28796l1.42169,-2.31894l3.34959,2.05355l-1.42169,2.31894z" fill="#ffffff" stroke="none" stroke-width="0" stroke-linecap="butt"/><path d="M137.85579,226.66866l1.42169,-2.31894l3.34958,2.05356l-1.42169,2.31894z" fill="#ffffff" stroke="none" stroke-width="0" stroke-linecap="butt"/><path d="M120.83135,195.22635l2.09691,-1.73252l2.50255,3.02887l-2.09691,1.73252z" fill="#ffffff" stroke="none" stroke-width="0" stroke-linecap="butt"/><path d="M127.87864,203.34041l2.09691,-1.73252l2.50255,3.02887l-2.09691,1.73252z" fill="#ffffff" stroke="none" stroke-width="0" stroke-linecap="butt"/><path d="M135.8189,211.58823l2.09693,-1.73253l2.50255,3.02887l-2.09691,1.73252z" fill="#ffffff" stroke="none" stroke-width="0" stroke-linecap="butt"/><path d="M114.53998,186.81082l2.17308,-1.63599l2.3631,3.13889l-2.17306,1.63597z" fill="#ffffff" stroke="none" stroke-width="0" stroke-linecap="butt"/><path d="M108.53057,176.1396l2.46963,-1.14003l1.6467,3.56724l-2.46962,1.14002z" fill="#ffffff" stroke="none" stroke-width="0" stroke-linecap="butt"/><path d="M144.59497,221.21395l1.71835,-2.10855l3.04568,2.48207l-1.71835,2.10853z" fill="#ffffff" stroke="none" stroke-width="0" stroke-linecap="butt"/><path d="M143.39312,205.16219c-5.36731,4.81082 -8.71709,-1.80126 -14.07859,-7.78295c-5.3615,-5.98169 -10.67348,-11.70472 -6.63389,-15.32547c2.41255,-2.16242 8.5521,-6.2451 13.49362,-5.36403c3.3326,0.5942 5.78686,4.71941 7.94633,7.12868c2.01035,2.2429 5.75654,5.66408 6.16332,8.56949c0.67809,4.84315 -3.53599,9.76734 -6.89078,12.7743z" fill="#817f00" stroke="#000000" stroke-width="0" stroke-linecap="butt"/><path d="M145.08038,188.18506c-1.37613,1.23345 -3.61158,0.98392 -4.99304,-0.55734c-1.38145,-1.54125 -1.38578,-3.7906 -0.00965,-5.02404c1.37613,-1.23345 3.61158,-0.98392 4.99304,0.55734c1.38145,1.54125 1.38578,3.7906 0.00965,5.02404z" fill="#3d3c00" stroke="none" stroke-width="0" stroke-linecap="butt"/><path d="M77.20645,257.13906v-127h30v127z" fill="#949494" stroke="none" stroke-width="0" stroke-linecap="butt"/><path d="M-36.66666,395.61037v-431.22073h553.33333v431.22073z" fill-opacity="0.62745" fill="#000000" stroke="none" stroke-width="0" stroke-linecap="butt"/></g></g></svg>