<svg version="1.1" xmlns="http://www.w3.org/2000/svg" xmlns:xlink="http://www.w3.org/1999/xlink" width="610.1051" height="534.53453" viewBox="0,0,610.1051,534.53453"><g transform="translate(83.28164,64.76541)"><g data-paper-data="{&quot;isPaintingLayer&quot;:true}" fill-rule="nonzero" stroke-linecap="butt" stroke-linejoin="miter" stroke-miterlimit="10" stroke-dasharray="" stroke-dashoffset="0" style="mix-blend-mode: normal"><path d="M-43.03304,413.48349v-466.96697h566.06607v466.96697z" fill="#736196" stroke="none" stroke-width="NaN"/><path d="M363.1598,469.76912v-534.53453h163.66366v534.53453z" fill="#7f7396" stroke="none" stroke-width="0"/><g><g data-paper-data="{&quot;index&quot;:null}" fill="#663f3f" stroke="#000000" stroke-width="0.5"><path d="M307.99257,340.99948l0.29705,-2.97002l6.36435,0.63654l-0.29704,2.97002z"/><path d="M304.61943,342.59053l0.29705,-2.97004l6.36435,0.63653l-0.29704,2.97004z"/><path d="M312.17188,338.84624l0.29704,-2.97001l6.36436,0.63653l-0.29705,2.97004z"/><path d="M311.73687,343.19526l0.29704,-2.97004l6.36437,0.63651l-0.29705,2.97004z"/><path d="M305.06497,338.13547l0.29704,-2.97004l6.36437,0.63653l-0.29707,2.97004z"/><path d="M308.95776,346.34557l1.23062,-12.30444l3.39432,0.33947l-1.23062,12.30442z"/></g><g data-paper-data="{&quot;index&quot;:null}" fill="#663f3f" stroke="#000000" stroke-width="0.5"><path d="M391.6537,346.03979l0.12554,-2.98221l6.39045,0.26902l-0.12554,2.9822z"/><path d="M388.37777,347.82242l0.12554,-2.98221l6.39044,0.26901l-0.12553,2.98221z"/><path d="M395.70207,343.64948l0.12554,-2.9822l6.39045,0.26901l-0.12554,2.98221z"/><path d="M395.51825,348.01633l0.12554,-2.98222l6.39045,0.26901l-0.12554,2.98221z"/><path d="M388.56605,343.3491l0.12554,-2.98221l6.39046,0.26901l-0.12554,2.98221z"/><path d="M392.92509,351.32143l0.52009,-12.35488l3.40825,0.14348l-0.52009,12.35486z"/></g><g data-paper-data="{&quot;index&quot;:null}" fill="#663f3f" stroke="#000000" stroke-width="0.5"><path d="M391.6537,439.64811l0.12554,-2.9822l6.39045,0.26902l-0.12554,2.9822z"/><path d="M388.37777,441.43075l0.12554,-2.98221l6.39044,0.26901l-0.12553,2.98221z"/><path d="M395.70207,437.2578l0.12554,-2.9822l6.39045,0.26901l-0.12554,2.98221z"/><path d="M395.51825,441.62466l0.12554,-2.98222l6.39045,0.26901l-0.12554,2.98221z"/><path d="M388.56605,436.95742l0.12554,-2.98221l6.39046,0.26901l-0.12554,2.98222z"/><path d="M392.92509,444.92975l0.52009,-12.35489l3.40825,0.14346l-0.52009,12.35488z"/></g><g data-paper-data="{&quot;index&quot;:null}" fill="#663f3f" stroke="#000000" stroke-width="0.5"><path d="M339.34038,442.11291l-0.02226,-2.98477l6.39594,-0.04769l0.02226,2.98475z"/><path d="M336.15672,444.05553l-0.02225,-2.98477l6.39592,-0.04769l0.02228,2.98477z"/><path d="M343.26546,439.52508l-0.02226,-2.98475l6.39594,-0.04769l0.02226,2.98477z"/><path d="M343.29805,443.89568l-0.02225,-2.98478l6.39594,-0.04769l0.02226,2.98477z"/><path d="M336.12332,439.57837l-0.02226,-2.98477l6.39594,-0.04772l0.02225,2.98478z"/><path d="M340.87169,447.32511l-0.09221,-12.36547l3.41118,-0.02544l0.09222,12.36547z"/></g><g data-paper-data="{&quot;index&quot;:null}" fill="#663f3f" stroke="#000000" stroke-width="0.5"><path d="M346.72713,358.296l1.6558,-3.93427l8.4306,3.54814l-1.65581,3.93427z"/><path d="M341.44741,359.05111l1.65581,-3.93427l8.43057,3.54813l-1.65578,3.93428z"/><path d="M353.34528,357.11176l1.65578,-3.93426l8.4306,3.54814l-1.65581,3.93427z"/><path d="M350.92068,362.87271l1.65581,-3.93428l8.4306,3.54814l-1.65581,3.93427z"/><path d="M343.93108,353.14968l1.6558,-3.93428l8.43062,3.54813l-1.65582,3.93428z"/><path d="M345.79662,366.00888l6.85975,-16.29916l4.49633,1.89233l-6.85974,16.29916z"/></g><g data-paper-data="{&quot;index&quot;:null}" fill="#663f3f" stroke="#000000" stroke-width="0.5"><path d="M369.54607,362.8608l-1.65581,-3.93427l8.4306,-3.54814l1.6558,3.93427z"/><path d="M374.8258,363.61591l-1.65578,-3.93428l8.43057,-3.54813l1.65581,3.93427z"/><path d="M362.92795,361.67657l-1.6558,-3.93426l8.4306,-3.54814l1.65578,3.93424z"/><path d="M365.35252,367.43749l-1.65581,-3.93427l8.4306,-3.54814l1.65581,3.93429z"/><path d="M372.34212,357.71448l-1.65582,-3.93428l8.43062,-3.54813l1.6558,3.93428z"/><path d="M374.41086,368.91787l-6.85974,-16.29915l4.49633,-1.89235l6.85975,16.29916z"/></g><g data-paper-data="{&quot;index&quot;:null}" fill="#663f3f" stroke="#000000" stroke-width="0.5"><path d="M383.43528,277.83958l-2.62581,-3.3653l7.21137,-5.62676l2.62582,3.3653z"/><path d="M381.51764,282.81635l-2.62581,-3.3653l7.21135,-5.62674l2.62584,3.36529z"/><path d="M385.63157,271.48516l-2.62581,-3.36527l7.21137,-5.62676l2.62581,3.3653z"/><path d="M389.47655,276.41299l-2.62582,-3.36532l7.21137,-5.62677l2.62581,3.3653z"/><path d="M377.5789,277.76842l-2.62581,-3.3653l7.21136,-5.62678l2.62582,3.36532z"/><path d="M389.71314,282.41596l-10.87842,-13.94199l3.84606,-3.00096l10.87842,13.94197z"/></g><g data-paper-data="{&quot;index&quot;:null}" fill="#663f3f" stroke="#000000" stroke-width="0.5"><path d="M332.03244,269.20153l3.54338,-2.38004l5.1001,7.59297l-3.54338,2.38005z"/><path d="M332.30458,274.52804l3.5434,-2.38004l5.10009,7.59296l-3.54338,2.38005z"/><path d="M331.92458,262.47915l3.54338,-2.38005l5.10009,7.59297l-3.54337,2.38004z"/><path d="M326.73603,265.96423l3.54338,-2.38005l5.10009,7.59297l-3.54339,2.38006z"/><path d="M337.61968,270.95797l3.54339,-2.38006l5.10009,7.59299l-3.54338,2.38005z"/><path d="M327.02152,275.13829l14.67976,-9.86019l2.72004,4.0496l-14.67976,9.8602z"/></g><g data-paper-data="{&quot;index&quot;:null}" fill="#663f3f" stroke="#000000" stroke-width="0.5"><path d="M399.46618,165.43827l1.44627,-2.29583l4.91965,3.09914l-1.44627,2.29583z"/><path d="M400.99627,168.46373l1.44628,-2.29583l4.91963,3.09913l-1.44627,2.29583z"/><path d="M397.67208,161.55928l1.44627,-2.29583l4.91963,3.09914l-1.44627,2.29582z"/><path d="M395.55433,164.92104l1.44627,-2.29583l4.91965,3.09914l-1.44627,2.29583z"/><path d="M403.16567,165.02l1.44627,-2.29583l4.91963,3.09914l-1.44627,2.29583z"/><path d="M398.08314,170.17912l5.99166,-9.51132l2.6238,1.65287l-5.99166,9.51131z"/></g><g fill="#663f3f" stroke="#000000" stroke-width="0.5"><path d="M335.88844,169.80823l-1.44627,-2.29583l4.91965,-3.09914l1.44627,2.29583z"/><path d="M334.35835,172.83369l-1.44627,-2.29583l4.91965,-3.09913l1.44627,2.29583z"/><path d="M337.68256,165.92923l-1.44627,-2.29582l4.91963,-3.09914l1.44627,2.29583z"/><path d="M339.80029,169.29099l-1.44627,-2.29583l4.91965,-3.09914l1.44627,2.29583z"/><path d="M332.18895,169.38994l-1.44627,-2.29583l4.91963,-3.09914l1.44627,2.29583z"/><path d="M339.56732,173.10281l-5.99166,-9.51131l2.6238,-1.65287l5.99167,9.51132z"/></g><g fill="#663f3f" stroke="#000000" stroke-width="0.5"><path d="M355.74065,248.92252l0.5248,-6.16625l13.21341,1.12457l-0.5248,6.16625z"/><path d="M348.79655,252.32425l0.5248,-6.16625l13.21341,1.12457l-0.52478,6.16625z"/><path d="M364.33875,244.33061l0.52478,-6.16625l13.21341,1.12457l-0.5248,6.16625z"/><path d="M363.57028,253.3598l0.5248,-6.16627l13.21341,1.12457l-0.52478,6.16627z"/><path d="M349.58374,243.07487l0.5248,-6.16625l13.21341,1.12456l-0.5248,6.16627z"/><path d="M357.90537,259.97587l2.17416,-25.54595l7.04716,0.59976l-2.17416,25.54595z"/></g><path d="M417.22951,200.15602c0,23.16113 -20.76094,41.93694 -45.32578,41.93694c-15.99517,0 -27.61161,-5.19904 -33.694,-17.9789c-1.08538,-2.28051 1.28641,-10.13392 0.30571,-12.49746c-1.96377,-4.73277 -9.81947,-2.68291 -9.81947,-8.07173c0,-10.04998 -1.14952,-19.43909 4.83148,-28.2874c7.80277,-11.54347 24.47051,-21.27442 38.37628,-21.27442c24.56484,0 45.32578,23.01186 45.32578,46.17299z" fill="#063800" stroke="#929292" stroke-width="1"/><path d="M382.91704,284.40157c0.19356,32.40161 -3.10065,73.83558 -20.82939,74.47835c-18.12312,0.65706 -19.64235,-39.68543 -19.8359,-72.08703c-0.19356,-32.40161 6.50185,-38.39642 19.13497,-38.47188c12.63312,-0.07547 21.33678,3.67896 21.53033,36.08057z" fill="#063800" stroke="#929292" stroke-width="1"/><path d="M328.4794,316.20504c-4.53422,18.91398 -10.19206,25.32578 -16.29494,23.72694c-6.10288,-1.59884 -9.91615,-9.75564 -5.38193,-28.66962c2.39963,-10.00981 8.35078,-25.68613 12.73146,-33.60337c3.89681,-7.04274 6.19729,-6.97327 9.07035,-6.22058c3.42636,0.89764 6.93685,1.31146 6.32521,11.537c-0.47779,7.98766 -4.46159,24.93462 -6.45014,33.22962z" fill="#063800" stroke="#929292" stroke-width="1"/><path d="M384.68572,284.12571c1.47622,-10.13689 4.99762,-9.8297 8.53487,-10.01333c2.96603,-0.15397 5.23274,0.24486 7.61923,7.93184c2.68285,8.64149 5.32886,25.19931 5.64723,35.48781c0.60157,19.44058 -4.78767,26.65381 -11.08802,26.98088c-6.30035,0.32707 -10.53929,-7.09948 -11.14084,-26.54006c-0.26382,-8.52594 -0.72561,-25.92872 0.42753,-33.84714z" data-paper-data="{&quot;index&quot;:null}" fill="#063800" stroke="#929292" stroke-width="1"/><path d="M356.59653,409.12609c-1.13911,22.27853 -6.17152,30.69655 -13.38855,30.17589c-7.21703,-0.52067 -13.23013,-8.91661 -12.09102,-31.19513c0.60285,-11.79043 4.01971,-30.71606 7.29583,-40.56324c2.91425,-8.7595 5.5227,-9.16444 8.92028,-8.91933c4.0519,0.29233 8.09699,0.02146 9.55547,11.67951c1.13929,9.10668 0.20755,29.05171 -0.29202,38.82228z" fill="#063800" stroke="#929292" stroke-width="1"/><path d="M369.29419,372.1067c-0.65297,-11.73078 3.37524,-12.18874 7.30927,-13.202c3.29875,-0.84964 5.93753,-0.91839 10.37344,7.17756c4.98672,9.10122 11.73781,27.10893 14.4425,38.60076c5.11063,21.71432 0.6984,31.05143 -6.3087,32.85619c-7.00709,1.80476 -13.46575,-5.57588 -18.57639,-27.29021c-2.24134,-9.52313 -6.73005,-28.97883 -7.24012,-38.14231z" data-paper-data="{&quot;index&quot;:null}" fill-opacity="0.62745" fill="#000000" stroke="#929292" stroke-width="1"/><g data-paper-data="{&quot;index&quot;:null}" fill="#663f3f" stroke="#000000" stroke-width="0.5"><path d="M314.02563,142.54973l-2.23071,-1.5448l3.31031,-4.7801l2.23071,1.5448z"/><path d="M313.80452,145.93287l-2.23071,-1.5448l3.31031,-4.7801l2.23073,1.5448z"/><path d="M314.15495,138.27788l-2.23071,-1.5448l3.31031,-4.7801l2.23071,1.5448z"/><path d="M317.42139,140.53993l-2.23071,-1.5448l3.31031,-4.78011l2.23071,1.54482z"/><path d="M310.45844,143.61566l-2.23071,-1.5448l3.31031,-4.78011l2.23071,1.54482z"/><path d="M318.70182,144.13779l-9.24154,-6.39993l1.76551,-2.54938l9.24154,6.39992z"/></g><path d="M331.81871,146.89182c5.59631,7.87765 7.23026,16.3259 3.6495,18.86968c-3.58075,2.54378 -11.02024,-1.78018 -16.61655,-9.65784c-5.59631,-7.87765 -7.23026,-16.32588 -3.6495,-18.86966c3.58075,-2.54378 11.02024,1.78018 16.61655,9.65784z" fill="#063800" stroke="#000000" stroke-width="0.5"/><path d="M330.4161,148.1762c4.02,5.65874 5.1937,11.72737 2.62154,13.55464c-2.57216,1.82727 -7.91614,-1.27876 -11.93614,-6.9375c-4.02,-5.65874 -5.1937,-11.72736 -2.62154,-13.55463c2.57216,-1.82727 7.91616,1.27875 11.93614,6.93749z" fill="#0a6100" stroke="#000000" stroke-width="0.5"/><path d="M357.3174,192.05305c0,4.03565 -3.03447,7.30719 -6.77768,7.30719c-3.74321,0 -6.77768,-3.27154 -6.77768,-7.30719c0,-4.03565 3.03447,-7.30719 6.77768,-7.30719c3.74321,0 6.77768,3.27154 6.77768,7.30719z" fill="#000000" stroke="#000000" stroke-width="2"/><path d="M398.40708,195.44189c0,4.03565 -3.03447,7.30719 -6.77768,7.30719c-3.74321,0 -6.77768,-3.27155 -6.77768,-7.30719c0,-4.03564 3.03447,-7.30719 6.77768,-7.30719c3.74321,0 6.77768,3.27155 6.77768,7.30719z" fill="#000000" stroke="#000000" stroke-width="2"/><path d="M349.85083,190.97674c-1.12325,1.12325 -2.24651,0 -2.24651,0l-0.76429,-0.84345c-0.64959,-1.14607 -1.2307,-2.34199 -1.65276,-3.58992c0,0 -0.50233,-1.507 1.00467,-2.00934c1.507,-0.50233 2.00934,1.00467 2.00934,1.00467c0.34499,1.05363 0.84321,2.05799 1.3972,3.01833l0.25236,0.1732c0,0 1.12325,1.12325 0,2.24651z" fill="#663f3f" stroke="none" stroke-width="0.5"/><path d="M353.05437,192.37714c-1.507,-0.50233 -1.00467,-2.00934 -1.00467,-2.00934l0.66405,-1.85778c0.83441,-0.86728 1.64798,-1.75788 2.39832,-2.69883c0,0 0.99234,-1.24043 2.23276,-0.24809c1.24043,0.99234 0.24809,2.23276 0.24809,2.23276c-0.67347,0.83939 -1.39588,1.64378 -2.17662,2.38443l-0.3526,1.19218c0,0 -0.50233,1.507 -2.00934,1.00467z" fill="#663f3f" stroke="none" stroke-width="0.5"/><path d="M347.69409,194.57626c0.1046,-0.46868 0.44354,-1.22804 1.54183,-1.22804c1.58852,0 1.58852,1.58852 1.58852,1.58852l-0.34809,1.24651c-1.09957,1.37446 -1.80302,2.0538 -2.25466,3.76483c0,0 -0.4364,1.52739 -1.96381,1.091c-1.52739,-0.4364 -1.091,-1.96381 -1.091,-1.96381c0.58933,-1.95574 1.3451,-3.01154 2.5272,-4.49902z" fill="#663f3f" stroke="none" stroke-width="0.5"/><path d="M351.82964,193.51593c1.42081,-0.71041 2.13122,0.71041 2.13122,0.71041l0.07377,0.2264c1.25426,1.56783 1.20739,2.11062 3.21145,2.50121c0,0 1.54109,0.38527 1.15582,1.92637c-0.38527,1.54109 -1.92637,1.15582 -1.92637,1.15582c-2.74029,-0.77911 -3.21936,-1.4707 -4.92177,-3.59871l-0.43456,-0.79026c0,0 -0.71041,-1.42081 0.71041,-2.13122z" fill="#663f3f" stroke="none" stroke-width="0.5"/><path d="M353.69968,194.34451c-0.03108,0.17267 -0.06648,0.27886 -0.06648,0.27886l-3.06723,2.16903c-1.22564,-0.70656 -3.44174,-0.72467 -3.67692,-2.1197c-1.07224,-6.36027 3.47028,-4.73364 6.13344,-4.44854c0,0 2.17097,0.48244 1.68853,2.65341c-0.17554,0.78993 -0.57462,1.22855 -1.01134,1.46695z" fill="#7a0000" stroke="none" stroke-width="0.5"/><path d="M389.10147,202.86652c-0.15247,0.45752 -0.5337,1.02949 -1.48689,1.02949c-1.58852,0 -1.58852,-1.58852 -1.58852,-1.58852l0.59618,-1.49459c1.89152,-1.50833 2.73628,-3.44859 4.33228,-5.11213c-0.20045,-0.1504 -0.40586,-0.29385 -0.61679,-0.4294c-2.60318,-1.67276 -4.08864,-1.58682 -5.24681,-4.91556c0,0 -0.50233,-1.507 1.00467,-2.00934c1.507,-0.50233 2.00934,1.00467 2.00934,1.00467c0.80962,2.58813 1.82172,1.90288 3.90307,3.21767c0.44115,0.27868 0.86165,0.58543 1.26511,0.91425c0.98872,-1.00771 1.82468,-2.05746 2.57885,-3.57751c0,0 0.71041,-1.42081 2.13122,-0.71041c1.42081,0.71041 0.71041,2.13122 0.71041,2.13122c-0.90262,1.7933 -1.91919,3.1242 -3.1412,4.38537c0.81299,0.91741 1.57312,1.88851 2.32581,2.83748c0.44885,0.16255 0.9831,0.54954 0.9831,1.47078c0,1.58852 -1.58852,1.58852 -1.58852,1.58852l-1.49459,-0.59618c-0.82282,-1.02852 -1.63895,-2.12038 -2.52952,-3.132c-1.57954,1.51523 -2.49018,3.44941 -4.14719,4.98617z" fill="#663f3f" stroke="none" stroke-width="0.5"/><path d="M390.66453,191.44201c1.10252,0 1.65847,0.54658 1.9388,1.09781c0.05379,-0.01381 0.10933,-0.0265 0.16669,-0.03796c2.18075,-0.43614 2.61689,1.74459 2.61689,1.74459l0.49932,2.49661c0.03417,0.15495 0.05219,0.31596 0.05219,0.48118c0,1.22824 -0.99568,2.22393 -2.22393,2.22393c-0.37353,0 -0.72555,-0.09208 -1.03458,-0.2548l-1.99329,-0.99665l0.05152,-0.10303c-0.21624,-0.08889 -0.4266,-0.19215 -0.6295,-0.31356c-0.85204,-0.50981 -0.95549,-1.74087 -1.43324,-2.61129l-0.23478,-1.50289c0,0 0,-2.22393 2.22393,-2.22393z" fill="#7a0000" stroke="none" stroke-width="0.5"/><path d="M348.1557,205.10328c0,-0.3177 0.3177,-0.3177 0.3177,-0.3177h0.38124c0.76855,0.03889 1.09987,-0.55564 1.45597,-1.21421c0.75107,-3.00704 -3.4758,-4.68404 -2.06503,-7.55944c0.30881,-0.6294 1.28664,-1.3125 1.78229,-1.80814c0,0 0.22465,-0.22465 0.4493,0c0.22465,0.22465 0,0.4493 0,0.4493c-3.872,3.872 1.50648,4.82845 0.42571,9.14839c-0.50831,0.93831 -0.95027,1.58228 -2.04825,1.61952h-0.38124c0,0 -0.3177,0 -0.3177,-0.3177z" fill="#04ff00" stroke="none" stroke-width="0.5"/><path d="M302.69454,154.59694c-0.22465,0.22465 -0.4493,0 -0.4493,0l-0.31368,-0.33673c-0.73768,-1.61352 -1.73912,-3.85641 -0.76084,-5.87901c1.40719,-2.54137 3.3422,-4.05464 4.29408,-7.04422c0.17974,-0.56452 -1.02515,-2.89289 -1.02515,-3.86653c0,-5.37293 5.45617,-3.82737 7.21012,-0.52332c0,0 0.14208,0.28417 -0.14208,0.42624c-0.28417,0.14208 -0.42624,-0.14208 -0.42624,-0.14208c-1.34306,-2.93766 -6.00637,-4.28951 -6.00637,0.23917c0,1.29022 1.21979,2.98459 1.00815,4.01253c-0.65627,3.18746 -3.06556,4.60396 -4.34748,7.18892c-0.9134,1.75068 0.05711,3.97229 0.76414,5.30417l0.19465,0.1716c0,0 0.22465,0.22465 0,0.4493z" fill="#04ff00" stroke="none" stroke-width="0.5"/><path d="M333.48736,217.40417c-0.20275,-0.24461 0.04186,-0.44735 0.04186,-0.44735l0.12852,-0.10652c0.49276,-0.40815 0.99411,-0.76006 1.4507,-1.20913c2.60615,-2.17016 -0.48611,-2.81581 -1.41584,-5.18057c-0.43579,-1.10843 -0.28677,-3.73823 1.19809,-3.20154c0,0 0.28417,0.14208 0.14208,0.42624c-0.14208,0.28417 -0.42624,0.14208 -0.42624,0.14208c-0.51327,-0.45756 -0.52105,1.95012 -0.32689,2.39005c1.09983,2.49203 4.25582,3.39527 1.25497,5.89502c-0.46436,0.45456 -0.97205,0.81284 -1.47139,1.22704l-0.12852,0.10652c0,0 -0.24461,0.20275 -0.44735,-0.04186z" fill="#04ff00" stroke="none" stroke-width="0.5"/><path d="M336.08409,222.73724c0.09288,0.01897 0.25304,0.08438 0.25304,0.30995c0,0.3177 -0.3177,0.3177 -0.3177,0.3177l-0.57187,-0.3177c0,-0.86754 -0.41851,-3.1939 0.36484,-3.79927c0.77891,-0.60195 1.91727,0.19518 2.22465,1.04981c0.04731,-0.24132 0.13378,-0.47736 0.23985,-0.69674c0,0 0.14208,-0.28417 0.42624,-0.14208c0.28417,0.14208 0.14208,0.42624 0.14208,0.42624c-0.15029,0.28812 -0.22912,0.62261 -0.22912,0.94756l-0.04647,0.05837l0.02143,0.01071l-0.25109,0.50218c-0.05095,0.10746 -0.16042,0.18178 -0.28724,0.18178c-0.1512,0 -0.27772,-0.10562 -0.30983,-0.2471l-0.11886,-0.47541c-1.32507,-2.21848 -1.52417,-0.21834 -1.53996,1.874z" fill="#04ff00" stroke="none" stroke-width="0.5"/><path d="M339.06938,217.77331c-0.3177,0 -0.3177,-0.3177 -0.3177,-0.3177l0.03354,-0.11209c-1.46539,-2.93078 -1.60566,-6.30851 -3.04996,-9.14988c0,0 -0.14208,-0.28417 0.14208,-0.42624c0.28417,-0.14208 0.42624,0.14208 0.42624,0.14208c1.39801,2.85233 1.59608,6.24212 3.04996,9.14988l0.03354,0.39624c0,0 0,0.3177 -0.3177,0.3177z" fill="#1c00ff" stroke="none" stroke-width="0.5"/><path d="M301.42929,156.55925c-0.15364,-0.27808 0.12444,-0.43172 0.12444,-0.43172l0.18596,-0.10275c0.85772,-0.4734 1.68261,-1.03284 2.61144,-1.3388c2.79324,-1.84237 0.49958,-5.78258 -0.38951,-7.70948c-0.45455,-0.98511 -0.28448,-2.83139 -0.28448,-3.91446c0,-2.28507 1.36463,-4.61309 3.66736,-5.26324c1.26348,-0.35673 3.21888,0.79779 4.13315,0.27706c0,0 0.28417,-0.14208 0.42624,0.14208c0.14208,0.28417 -0.14208,0.42624 -0.14208,0.42624c-1.23725,0.56535 -2.79914,-0.5828 -4.25424,-0.23126c-2.04859,0.49491 -3.19505,2.69632 -3.19505,4.64913c0,3.4876 4.23075,9.50654 0.31861,12.19432c-0.91993,0.30356 -1.73522,0.85507 -2.58418,1.3246l-0.18596,0.10275c0,0 -0.27808,0.15364 -0.43172,-0.12444z" fill="#1c00ff" stroke="none" stroke-width="0.5"/><path d="M354.71543,205.74327c-0.28417,0.14208 -0.42624,-0.14208 -0.42624,-0.14208l-0.275,-0.5615c-0.01361,-0.17321 -0.02723,-0.34642 -0.04084,-0.51964c-2.39122,-2.27712 -1.30651,-7.29353 -2.73411,-10.10205c0,0 -0.14208,-0.28417 0.14208,-0.42624c0.28417,-0.14208 0.42624,0.14208 0.42624,0.14208c1.43202,2.92172 0.41257,7.68859 2.73944,10.11297c0.02573,0.20502 0.05147,0.41004 0.0772,0.61506l0.23332,0.45516c0,0 0.14208,0.28417 -0.14208,0.42624z" fill="#1c00ff" stroke="none" stroke-width="0.5"/><path d="M390.65738,207.81003c-0.31763,-0.00714 -0.31047,-0.32477 -0.31047,-0.32477l0.02298,-0.60595c0.34062,-0.623 0.77601,-1.05379 1.11642,-1.67021c1.47429,-1.46974 -0.60227,-5.01304 -0.11434,-7.19372c0.16852,-0.7532 1.2062,-1.67084 0.78754,-2.32656c0,0 -0.14208,-0.28417 0.14208,-0.42624c0.28417,-0.14208 0.42624,0.14208 0.42624,0.14208c0.49868,1.16407 -0.49263,1.64521 -0.73744,2.75671c-0.52153,2.36778 1.71757,5.71064 0.00372,7.42969c-0.30117,0.54579 -0.7035,0.91944 -1.0111,1.45508l-0.00085,0.45343c0,0 -0.00714,0.31763 -0.32477,0.31047z" fill="#1c00ff" stroke="none" stroke-width="0.5"/><path d="M330.93617,215.38419c-0.3177,0 -0.3177,-0.3177 -0.3177,-0.3177l0.00017,-0.26458c0.12056,-2.96223 1.04503,-6.27485 1.01649,-9.13946c0,0 0,-0.3177 0.3177,-0.3177c0.3177,0 0.3177,0.3177 0.3177,0.3177c-0.02416,2.93078 -0.94666,6.13914 -1.01682,9.1603l0.00017,0.24374c0,0 0,0.3177 -0.3177,0.3177z" fill="#000000" stroke="none" stroke-width="0.5"/><path d="M336.13152,231.36291c-0.28417,-0.14208 -0.14208,-0.42624 -0.14208,-0.42624l0.24405,-0.48597c0.88043,-2.71864 -0.45704,-8.26691 2.83592,-8.33119c0,0 0.3177,0 0.3177,0.3177c0,0.3177 -0.3177,0.3177 -0.3177,0.3177c-2.46762,-0.03608 -1.5171,5.6144 -2.24735,7.93526l-0.26428,0.53068c0,0 -0.14208,0.28417 -0.42624,0.14208z" fill="#000000" stroke="none" stroke-width="0.5"/><path d="M302.71394,157.29523c-0.20339,0.24407 -0.44745,0.04068 -0.44745,0.04068l-0.27436,-0.22863c-0.19081,-0.17203 -0.38164,-0.34406 -0.57245,-0.51609c-0.07096,-1.82485 0.2424,-6.47219 1.66338,-7.81931c1.28413,-1.21737 2.70803,-1.29144 3.83468,-2.79968c0.8228,-1.03014 0.22526,-2.63827 -0.37108,-3.65519c-1.54632,-2.63683 -2.87046,-4.62345 -2.86893,-7.7202c0.07378,-1.84628 3.08309,-2.29359 4.57481,-1.62628c2.16522,0.96862 2.6106,2.94742 3.40805,4.94106c0,0 0.118,0.29498 -0.17699,0.41298c-0.29498,0.118 -0.41298,-0.17699 -0.41298,-0.17699c-0.75596,-1.88989 -1.0765,-3.65524 -3.08215,-4.5991c-0.93327,-0.43921 -3.7515,-0.27276 -3.67534,1.04896c-0.00166,3.39398 5.30182,8.69867 3.11294,11.75599c-1.15565,1.5341 -2.6192,1.65717 -3.90076,2.8747c-1.29271,1.22813 -1.43011,5.42636 -1.5302,7.09353c0.1346,0.09916 0.26921,0.19831 0.40381,0.29747l0.27436,0.22863c0,0 0.24407,0.20339 0.04068,0.44745z" fill="#000000" stroke="none" stroke-width="0.5"/><path d="M354.06224,206.0818c-0.31769,-0.00277 -0.31493,-0.32046 -0.31493,-0.32046l0.0056,-0.63828c0.06302,-1.40992 0.8812,-2.57403 1.33474,-3.93989c0.76358,-2.28148 0.30386,-4.55349 -1.47591,-6.27424c-0.90373,-0.87375 -2.25707,-0.79002 -2.88085,-1.96508c0,0 -0.14208,-0.28417 0.14208,-0.42624c0.28417,-0.14208 0.42624,0.14208 0.42624,0.14208c0.4516,0.98775 1.96825,1.04896 2.75147,1.7898c1.96251,1.85637 2.46514,4.44769 1.63977,6.9346c-0.43838,1.30974 -1.24447,2.43607 -1.30235,3.75577l-0.0054,0.62698c0,0 -0.00277,0.31769 -0.32046,0.31493z" fill="#000000" stroke="none" stroke-width="0.5"/><path d="M395.49361,207.35263c-0.3177,0 -0.3177,-0.3177 -0.3177,-0.3177v-0.25416c0.01378,-0.94223 0.64232,-2.60268 1.04973,-3.44527c1.54507,-3.13867 0.84078,-7.67437 -3.0195,-7.67437c0,0 -0.3177,0 -0.3177,-0.3177c0,-0.3177 0.3177,-0.3177 0.3177,-0.3177c4.35562,0 5.32881,5.05061 3.58875,8.59208c-0.36579,0.70131 -0.99932,2.3565 -0.98357,3.16297v0.25416c0,0 0,0.3177 -0.3177,0.3177z" fill="#000000" stroke="none" stroke-width="0.5"/><path d="M345.09362,207.8518c-0.30855,-0.0757 -0.23286,-0.38426 -0.23286,-0.38426l0.00074,-0.00297c0.68993,-2.53011 3.34225,-3.82234 2.30177,-6.91632c-0.63621,-1.39144 -3.36563,-5.9253 -0.71023,-7.31897c0.92041,-0.48308 2.28212,-0.23688 3.29122,-0.23688c0,0 0.3177,0 0.3177,0.3177c0,0.3177 -0.3177,0.3177 -0.3177,0.3177c-0.6866,0 -2.86575,-0.3767 -3.29402,0.36697c-1.30029,2.25788 0.41448,4.63416 1.30007,6.31031c1.13061,3.41678 -1.70352,4.56973 -2.27171,7.31088l-0.00074,0.00297c0,0 -0.07569,0.30855 -0.38424,0.23286z" fill="#420000" stroke="none" stroke-width="0.5"/><path d="M386.40728,210.59321c0,0.3177 -0.3177,0.3177 -0.3177,0.3177l-0.5234,-0.14904c-1.94826,-3.14237 3.76547,-5.33674 3.76342,-8.7171c-0.00764,-2.47139 -1.72244,-3.7433 -2.02967,-6.02189c-0.33389,-2.47621 1.90705,-2.23329 3.30105,-1.18779c0,0 0.25416,0.19062 0.06354,0.44479c-0.19062,0.25416 -0.44479,0.06354 -0.44479,0.06354c-4.20397,-3.15298 -0.26025,5.25134 -0.25472,6.70006c0.00188,3.0912 -5.41692,5.92583 -3.86036,8.38106l-0.01507,-0.14903c0,0 0.3177,0 0.3177,0.3177z" fill="#420000" stroke="none" stroke-width="0.5"/><path d="M303.77017,157.95189c-0.22465,-0.22464 0,-0.4493 0,-0.4493l0.11805,-0.11805c1.4891,-1.4891 1.29302,-2.65564 1.32199,-4.66922c-1.81661,-3.64995 -1.97867,-8.67927 0.1135,-12.53229c1.09265,-4.13663 6.33055,-6.26939 7.37002,-1.07201c0,0 0.06231,0.31153 -0.24923,0.37384c-0.31153,0.06231 -0.37384,-0.24922 -0.37384,-0.24922c-0.91232,-4.56165 -5.31598,-2.40951 -6.15468,1.1775c-2.07355,3.84241 -1.81729,8.53028 -0.08661,12.15949c0.02535,2.20756 0.14808,3.62128 -1.49186,5.26122l-0.11805,0.11805c0,0 -0.22465,0.22464 -0.44931,0z" fill="#420000" stroke="none" stroke-width="0.5"/><path d="M334.71909,220.47606c-0.22465,0.22465 -0.44931,0 -0.44931,0l-0.31669,-0.34292c-0.46626,-1.00584 -0.53886,-2.08377 -0.53886,-3.18585c0,-3.64611 -0.50833,-6.97223 -0.50833,-10.42069c0,0 0,-0.3177 0.3177,-0.3177c0.3177,0 0.3177,0.3177 0.3177,0.3177c0,3.44499 0.50833,6.77424 0.50833,10.42069c0,0.99565 0.03995,2.01124 0.4778,2.91407l0.19164,0.16541c0,0 0.22465,0.22464 0,0.4493z" fill="#420000" stroke="none" stroke-width="0.5"/><path d="M339.06938,232.00646c-0.3177,0 -0.3177,-0.3177 -0.3177,-0.3177v-0.12708c0,-0.35693 0.00154,-0.71388 0.0085,-1.07074c-1.22489,-2.34819 -1.93266,-4.08498 -1.00997,-6.77828c0.35587,-1.03877 -0.23173,-2.34351 1.06501,-2.50813c0,0 0.3177,0 0.3177,0.3177c0,0.3177 -0.3177,0.3177 -0.3177,0.3177c-0.41183,-0.1351 -0.26864,1.50775 -0.45996,2.0668c-0.90707,2.65034 -0.1084,4.09768 1.02334,6.43821c0.00592,0.40554 0.00849,0.81115 0.00849,1.21673v0.12708c0,0 0,0.3177 -0.3177,0.3177z" fill="#420000" stroke="none" stroke-width="0.5"/><path d="M390.23414,208.06176c-0.26434,-0.17624 -0.08811,-0.44058 -0.08811,-0.44058l0.2008,-0.20501c0.00006,-0.99722 -0.23839,-1.91793 -0.26219,-2.88502c-0.97953,-2.0832 -1.9724,-5.3184 -1.24615,-7.75493c0.36554,-1.22635 1.98217,-2.35271 2.63577,-1.02495c0,0 0.10047,0.3014 -0.20093,0.40187c-0.3014,0.10046 -0.40187,-0.20094 -0.40187,-0.20094c-0.0153,-0.8255 -1.4142,1.02646 -1.4142,1.93285c0.00001,2.49098 0.22349,4.29491 1.2455,6.49894c0.03697,1.0185 0.27941,1.98425 0.27948,3.03218l-0.30751,0.55747c0,0 -0.17624,0.26436 -0.44058,0.08812z" fill="#04ff00" stroke="none" stroke-width="0.5"/><path d="M354.57335,451.21799c0,4.7726 -3.81954,5.59159 -9.78529,5.59159c-5.96575,0 -10.29361,-0.81899 -10.29361,-5.59159c0,-4.7726 4.0737,-6.60824 10.03945,-6.60824c5.96575,0 10.03945,1.83564 10.03945,6.60824z" fill="#063800" stroke="#929292" stroke-width="1"/><path d="M406.16849,446.8972c0,4.7726 -2.0404,3.55829 -8.00614,3.55829c-5.96575,0 -9.32952,1.19771 -9.27696,-4.06661c0.06306,-6.31457 2.54872,-4.57494 8.51447,-4.57494c5.96575,0 8.76863,0.31066 8.76863,5.08327z" fill="#063800" stroke="#929292" stroke-width="1"/><path d="M340.19812,456.33124c-0.28417,-0.14209 -0.14209,-0.42624 -0.14209,-0.42624l0.22913,-0.43924c-0.00273,-0.14973 -0.00546,-0.29946 -0.0082,-0.44917c0.15416,-1.45831 1.83761,-2.20013 2.0415,-3.36328c0.45767,-2.61085 -0.46602,-3.85362 -1.49994,-5.88483c0,0 -0.14208,-0.28417 0.14209,-0.42624c0.28417,-0.14209 0.42624,0.14208 0.42624,0.14208c0.98964,2.02243 2.21034,3.71268 1.55001,6.315c-0.29834,1.17578 -1.94002,1.858 -2.02511,3.24498c-0.00273,0.18915 -0.00546,0.37832 -0.0082,0.56747l-0.27921,0.57741c0,0 -0.14208,0.28415 -0.42624,0.14208z" fill="#000000" stroke="none" stroke-width="0.5"/><path d="M347.63767,445.47503l0.31859,-0.22253c3.63337,0.07542 7.57291,2.71689 5.27662,6.70438c-0.78164,0.27367 -3.85423,-1.75481 -5.42658,-3.67004c0.63623,2.69194 1.8683,5.01115 -1.17554,7.50608l-0.22013,0.22464c0,0 -0.22465,0.22465 -0.44931,0c-0.22465,-0.22465 0,-0.4493 0,-0.4493l0.2882,-0.28368c3.31464,-2.15095 1.35202,-5.30931 0.7767,-8.22096c-0.14289,-0.34334 -0.19571,-0.66176 -0.12972,-0.93702c-0.00567,-0.08235 -0.00958,-0.16437 -0.01156,-0.24604c0,0 0,-0.3177 0.3177,-0.3177c0.02867,0 0.05476,0.00258 0.07849,0.00729c0.03418,-0.02504 0.07066,-0.04916 0.10948,-0.0723c0,0 0.12266,-0.06133 0.2471,-0.02281z" fill="#000000" stroke="none" stroke-width="0.5"/><path d="M393.48985,449.91765c-0.22465,-0.22465 0,-0.4493 0,-0.4493l0.19465,-0.1716c1.10646,-2.08433 4.28029,-5.75942 6.83009,-6.26937c0,0 0.31153,-0.06231 0.37384,0.24923c0.06231,0.31153 -0.24922,0.37384 -0.24922,0.37384c-2.23716,0.44743 -5.51888,4.03297 -6.38639,5.93047l-0.31368,0.33673c0,0 -0.22465,0.22465 -0.4493,0z" fill="#000000" stroke="none" stroke-width="0.5"/><path d="M323.5174,138.25371c0.08756,-0.14156 0.2729,-0.14156 0.2729,-0.14156l0.24129,0.01618c0.14712,0.04912 0.29427,0.09826 0.44139,0.14738c2.56836,1.28091 5.61269,5.01116 6.93578,7.62166c1.92173,2.99925 2.81332,5.90975 4.3948,9.07273c0.43346,1.38988 2.39803,4.40725 0.7937,5.97782c-0.84516,0.82736 -3.08162,0.39195 -4.19366,0.39195c-1.91522,-0.05063 -2.60873,-3.48369 -3.11755,-4.85578c-0.4442,-1.19783 -3.05553,-2.02761 -4.10955,-2.39296c-0.97772,-0.95422 -2.50146,-1.50547 -2.95841,-2.85261c-0.68137,-2.00877 1.56674,-4.10861 -0.07739,-5.67882c-1.80737,-2.2979 -2.94527,-7.28682 1.36721,-7.3063c0,0 0.00341,0 0.00951,0.00034z" fill="#000000" stroke="none" stroke-width="0.5"/><path d="M374.36578,296.28247c0.12504,20.93141 -2.00302,47.69771 -13.45577,48.11294c-11.70752,0.42445 -12.68894,-25.63675 -12.81397,-46.56815c-0.12504,-20.93141 4.20019,-24.80405 12.36118,-24.85281c8.16099,-0.04875 13.78354,2.3766 13.90858,23.30802z" fill="#109d00" stroke="#929292" stroke-width="1"/><path d="M369.08933,254.14295c3.34024,-0.08508 5.79355,3.68895 4.89915,6.87824c-0.60374,3.02818 -0.63054,6.54501 -4.87554,5.68924c-1.89846,-0.64953 -3.84679,-1.13253 -5.04442,-2.33369c-0.51568,0.36138 -1.14366,0.57346 -1.82117,0.57346c-1.10639,0 -2.08067,-0.56554 -2.64956,-1.4233c-0.64564,0.22831 -1.28209,0.02961 -1.88918,0.37525c-1.74597,0.99406 -3.91439,2.39982 -6.0986,2.73054c-2.3069,-2.01774 -1.85692,-5.33702 -0.81192,-7.93982c0.48369,-2.98248 1.95801,-6.75846 5.07783,-4.2626c1.30448,1.34675 3.43648,3.04236 4.49488,4.77902c0.52581,-0.3855 1.1746,-0.61317 1.87656,-0.61317c0.63313,0 1.22301,0.18521 1.71841,0.50439c1.7714,-1.58261 3.20445,-3.51139 5.12356,-4.95756z" fill="#109d00" stroke="none" stroke-width="0.5"/><path d="M352.59876,259.82464c0.22465,-0.22465 0.44931,0 0.44931,0l0.00299,0.0209c2.12182,1.19128 4.10592,0.55939 6.40293,0.93691c0,0 0.31338,0.05223 0.26115,0.36561c-0.05223,0.31338 -0.36561,0.26115 -0.36561,0.26115c-2.38602,-0.40387 -4.37256,0.1969 -6.60424,-1.00669l-0.14653,-0.12859c0,0 -0.22465,-0.22465 0,-0.44931z" fill="#063800" stroke="none" stroke-width="0.5"/><path d="M371.23154,260.57256c0,0.3177 -0.3177,0.3177 -0.3177,0.3177l-0.2817,-0.01364c-1.33028,0.94382 -2.67066,0.30852 -3.96532,1.08967c0,0 -0.27242,0.16345 -0.43589,-0.10897c-0.16345,-0.27242 0.10897,-0.43589 0.10897,-0.43589c1.36444,-0.81459 2.72712,-0.26827 4.10809,-1.15295l0.46584,-0.01362c0,0 0.3177,0 0.3177,0.3177z" fill="#063800" stroke="none" stroke-width="0.5"/><path d="M364.1237,257.94367c0.31153,-0.06231 0.37385,0.24922 0.37385,0.24922l0.06775,0.34555c0.01907,0.0501 0.04162,0.09903 0.06711,0.1466c0.00071,0 0.00141,-0.00001 0.00212,-0.00001c0.3177,0 0.3177,0.3177 0.3177,0.3177c0,0.03222 0.0001,0.06414 0.00032,0.09578c0.04626,0.058 0.15264,0.22552 0.00802,0.39882c0.0308,0.91763 0.13771,1.59871 0.16147,2.29551c0.50809,-0.1513 1.10048,-0.15748 1.61805,-0.261c0,0 0.31153,-0.06231 0.37384,0.24922c0.06231,0.31154 -0.24923,0.37384 -0.24923,0.37384c-0.48566,0.09714 -1.30415,0.07012 -1.74933,0.29895c-0.03308,0.55946 -0.14384,1.17403 -0.4037,1.95685l-0.15151,0.19893c0,0 -0.22464,0.22464 -0.4493,0c-0.22465,-0.22464 0,-0.44931 0,-0.44931l-0.002,0.04943c0.22712,-0.67829 0.33872,-1.20865 0.3831,-1.67786c-0.05579,-0.04654 -0.10039,-0.12098 -0.10039,-0.24002c0,-0.13576 0.05801,-0.21352 0.12446,-0.25804c0.00258,-0.81206 -0.16644,-1.52296 -0.19511,-2.69362c-0.14975,-0.18847 -0.27358,-0.39965 -0.36471,-0.62074l-0.08175,-0.402c0,0 -0.06231,-0.31153 0.24922,-0.37384z" fill="#063800" stroke="none" stroke-width="0.5"/><path d="M359.62641,263.93689c-0.22465,0.22464 -0.44931,0 -0.44931,0l-0.23638,-0.31186c-0.41139,-2.09779 0.20378,-2.98721 0.99918,-4.61487c0,0 0.14209,-0.28417 0.42624,-0.14209c0.28417,0.14209 0.14209,0.42624 0.14209,0.42624c-0.7774,1.52634 -1.35873,2.18119 -0.94443,4.20608l0.06263,-0.01284c0,0 0.22465,0.22465 0,0.44931z" fill="#063800" stroke="none" stroke-width="0.5"/><path d="M332.1541,275.80491c0.5638,-1.53457 1.93047,-1.69073 3.15554,-0.0102c0.78278,1.07381 0.5683,2.36559 0.5683,3.61696c0,3.97247 -1.96358,8.53554 -1.77914,12.454c-0.02497,2.08085 -1.18238,3.41235 -1.79705,5.18843c-0.76836,2.22013 0.27872,4.03498 -0.94671,6.26655c-1.65315,2.40502 -1.99875,-0.82381 -2.9281,-1.7253c-0.9242,-0.89648 -2.24603,-1.1279 -3.2028,-1.71634c-1.03828,-0.63857 -1.46504,-3.48163 -1.92155,-4.64913c-0.01413,-1.71554 -0.35189,-4.05319 0.27262,-5.64617c0.83059,-2.11869 4.16173,-2.9385 4.67465,-5.2999c0.3695,-1.63831 -0.49223,-3.2157 -0.1152,-4.81883c0.39576,-1.68279 2.42293,-2.84702 4.01945,-3.66005z" fill="#000000" stroke="none" stroke-width="0.5"/><path d="M312.33531,311.612c-0.30284,-0.09605 -0.20679,-0.39888 -0.20679,-0.39888l0.19624,-0.50083c4.03227,-4.03229 5.21924,-2.20924 7.27822,2.04886c0.04031,2.75729 3.54898,10.30703 -1.14994,11.54803c-1.5614,0.40454 -4.54279,2.39474 -6.15863,1.77395c-2.03409,-0.78149 -0.96707,-4.80526 -1.46129,-6.48026c-0.37175,-3.66866 1.45206,-6.40268 3.11239,-9.52333c-0.35214,0.2918 -0.74019,0.65081 -1.17145,1.08206l-0.03987,0.24362c0,0 -0.09605,0.30284 -0.39888,0.20679z" fill="#000000" stroke="none" stroke-width="0.5"/><path d="M377.67837,168.07866c0.02169,-0.01085 0.04255,-0.01921 0.06259,-0.0254c2.85668,-2.43699 7.13932,-1.0707 11.06648,-1.0707c1.50718,0 3.66665,-0.37976 5.08975,0.20577c2.30116,0.94681 3.17322,4.73703 4.88131,6.46243c1.24789,0.61521 2.93768,0.49287 4.06662,1.27083c2.94357,2.02841 2.05176,4.92052 0.88868,7.81562c0.01122,1.13134 -0.35757,1.30805 -0.78094,2.22188c-2.16748,4.6784 -5.78778,-1.5727 -8.5108,-1.96106c-3.97274,-0.89601 -10.65435,0.87566 -10.65435,-5.15c0,-0.54596 0.23502,-1.82047 0.00487,-2.29778c-1.19231,-2.47263 -5.60552,-2.76428 -5.84157,-6.25965c-0.07378,-0.12384 -0.14316,-0.25274 -0.20982,-0.38169c-0.13713,0.14201 -0.26971,0.29513 -0.3974,0.46012c-0.01294,0.16813 -0.02586,0.33625 -0.0388,0.50439l0.00156,0.22263c0,0 0,0.3177 -0.3177,0.3177c-0.3177,0 -0.3177,-0.3177 -0.3177,-0.3177l0.00158,-0.28568c0.02612,-0.22343 0.05223,-0.44687 0.07835,-0.6703c0.23924,-0.3337 0.49383,-0.62598 0.76217,-0.88148c0.01998,-0.06522 0.06728,-0.13101 0.16514,-0.17992z" fill="#000000" stroke="none" stroke-width="0.5"/><path d="M416.07688,208.52334c-0.96491,1.81038 -3.45915,4.78456 -3.49253,6.47177c-1.74455,3.87073 -4.01325,7.32121 -5.88608,10.98879c-2.39818,3.10317 -5.84095,1.68569 -6.63719,-2.06637c-0.20911,-0.98539 -0.27593,-3.23699 0.57779,-3.70381c0.58486,-2.21003 2.76255,-4.22324 4.04672,-6.07412c1.1377,-1.63977 1.48957,-3.27595 2.89139,-4.67776c1.08491,-1.0819 1.6963,-2.90273 3.39675,-3.32965c2.01691,-0.50637 2.91811,1.23049 4.62613,1.67136c0.04036,-0.07808 0.11976,-0.15489 0.27597,-0.15489c0.22152,0 0.28858,0.15444 0.30888,0.24797c0.06527,0.00408 0.13172,0.00619 0.19944,0.00619c0,0 0.3177,0 0.3177,0.3177c0,0.3177 -0.3177,0.3177 -0.3177,0.3177c-0.10515,0 -0.20749,-0.00515 -0.30726,-0.01489z" fill="#000000" stroke="none" stroke-width="0.5"/><path d="M359.24107,209.35874c-0.01923,0.02885 -0.03951,0.05245 -0.06039,0.0716c1.53802,1.39837 4.63986,1.78965 6.45374,2.15919c3.19483,-0.00962 4.96496,0.15945 7.62724,-1.59892c2.98408,-1.20498 6.61856,-1.35261 6.53887,2.93135c1.12987,2.37711 -3.41698,5.24283 -4.93731,6.18651c-2.4273,0.06062 -4.60271,-0.2528 -6.88223,-0.9026c-0.89831,-0.25607 -2.67203,-0.02434 -3.27343,-0.94816c-2.22756,-0.23251 -7.5764,-2.86478 -7.59167,-5.44282c0,-0.59497 -0.51882,-3.52103 0.07702,-3.91101c0.21354,-0.13976 1.35149,0.73341 1.64004,0.80652l0.32002,0.20774c0,0 0.26434,0.17622 0.08812,0.44058z" fill="#000000" stroke="none" stroke-width="0.5"/><path d="M391.69352,441.96922c1.43351,1.40308 1.53299,5.86915 -0.47861,6.45623c-1.3416,0.39155 -1.42948,-1.67234 -1.41911,-2.35864c-0.84683,-1.69367 -0.14242,-3.28205 1.03484,-4.39077l0.2169,-0.00962c0.06406,-0.02307 0.12863,-0.01835 0.17722,-0.00787l0.15107,-0.0067c0,0 0.31748,0 0.3177,0.31736z" fill="#000000" stroke="none" stroke-width="0.5"/><path d="M349.52614,377.08806c0.48008,0.02115 0.95184,0.07784 1.43418,0.19934c5.46309,0.04992 3.61447,6.59868 1.06915,9.19663c-1.3287,4.15288 -0.44812,7.96643 -0.93383,12.33795c-0.24095,2.15314 -3.27721,7.3692 -6.35108,6.84271c-1.50171,-0.2572 -0.03565,-1.7427 0.36601,-2.31409c0.03848,-0.71998 -1.79047,-1.46132 -2.42021,-1.9261c-1.63787,-1.2088 -6.57214,-5.95637 -4.03745,-8.08415c3.02233,-1.47985 9.67577,-3.36014 6.47978,-8.17811c-1.42223,-3.63104 -0.41052,-8.51264 4.09439,-8.51264c0,0 0.3177,0 0.3177,0.3177c0,0.0468 -0.00689,0.08672 -0.01864,0.12074z" fill="#000000" stroke="none" stroke-width="0.5"/><path d="M335.98779,391.59215c-0.03163,0.31613 -0.34776,0.2845 -0.34776,0.2845l-0.20112,-0.02013c-4.18806,-0.44104 -3.91145,-4.11485 -2.83429,-7.33638c-0.02631,-3.74794 3.13414,-6.94351 3.18393,-10.19847c0.95127,-1.69263 1.46568,-3.94248 1.90373,-5.70885c0.12116,-0.48854 0.54569,-2.3032 1.33038,-1.85492c0.12342,0.0705 0.20153,0.14757 0.24787,0.22753c0.02013,-0.01616 0.04378,-0.03136 0.07148,-0.04522c0.28417,-0.14209 0.42624,0.14209 0.42624,0.14209c0.60924,1.26737 1.82991,3.75689 1.50766,5.29834c-0.38487,1.84104 -2.10953,1.58585 -2.10953,3.73947c0,1.96425 1.24112,6.10702 0.61122,7.74648c-0.49633,1.29184 -1.84385,2.51346 -2.82231,3.49192c-1.1297,1.12357 -2.02925,2.30657 -2.63955,3.61207c0.33693,0.1242 0.73008,0.21082 1.18641,0.25371l0.20112,0.02013c0,0 0.31613,0.03163 0.2845,0.34776zM339.26735,367.49558c-0.09982,0.27827 -0.24246,0.49336 0.2341,0.46807c-0.08319,-0.17179 -0.16237,-0.32923 -0.2341,-0.46807z" fill="#000000" stroke="none" stroke-width="0.5"/><path d="M372.19301,271.77038c0.46382,-0.00524 0.92748,-0.00548 1.39142,-0.00548c1.98876,0.00034 5.37675,0.62246 6.85957,2.17498c1.04077,1.0897 1.06014,3.11475 1.50251,4.44591c0.02669,4.46454 0.00409,8.92985 0.00409,13.39447c0,2.94085 -1.16106,5.47473 -1.485,8.29912c-0.11015,0.96034 0.27572,1.85323 -0.39123,2.62628c-1.02888,1.09891 -1.47833,2.56688 -2.69381,3.5158c-2.32346,1.81391 -6.0201,2.1483 -6.0201,-1.52123c0,-2.37597 2.79736,-5.30914 1.72285,-7.70535c-0.24471,-0.5457 -2.34678,-1.09605 -2.90061,-1.38931c-1.34324,-2.51089 -1.74995,-5.48116 -3.20385,-7.86718c-0.24973,-0.40983 -2.50369,-1.16411 -3.09445,-1.60123c-2.41291,-1.83174 -0.57244,-9.43685 -0.57244,-12.36012c0,-3.94623 6.44548,-4.40988 8.80265,-2.13087c0,0 0.04904,0.04905 0.0784,0.12422z" fill="#000000" stroke="none" stroke-width="0.5"/><path d="M356.94812,303.95379c0.183,-0.08032 0.34031,0.077 0.34031,0.077c3.17653,3.18008 5.9523,4.80902 3.29324,9.56705c-0.264,4.65774 1.99281,7.30123 1.01168,11.95945c-2.25088,3.44058 -5.99308,5.83497 -8.06597,9.14321c-0.94067,1.84811 -3.06635,2.22766 -4.76803,3.28964c-0.33838,0.21118 -1.72197,1.26587 -2.17437,1.09056c-0.93505,-0.36234 -0.21725,-2.74838 -0.21725,-3.47844c0,-4.28015 -0.01569,-8.62648 -1.95704,-12.52612c-1.14478,-4.02841 -0.21906,-8.45308 0.956,-12.23442c0.54362,-1.7386 1.44573,-4.81244 3.05797,-5.7975c1.34366,-0.82097 4.2805,-0.51798 5.93181,-1.06841c0.66856,-0.21993 1.15945,-0.24968 1.86011,-0.24986h0.42361c0,0 0.25456,0.00001 0.30794,0.22786z" fill="#000000" stroke="none" stroke-width="0.5"/><path d="M356.44122,413.61752c0.22465,0.22464 0,0.4493 0,0.4493l-0.11875,-0.01285c0,0.13561 -0.00299,0.27026 -0.00823,0.40426c0.0618,0.10325 0.11773,0.1933 0.16668,0.26673c0,0 0.17622,0.26434 -0.08812,0.44058c-0.04564,0.03042 -0.08865,0.04772 -0.12858,0.05551c-0.06269,0.73161 -0.15355,1.45755 -0.15355,2.22178c0,3.62011 -0.54733,8.05587 -3.41303,10.71172c0.07411,1.57472 -1.02205,7.99299 -3.20922,8.45254c-0.86923,0.18263 -1.89735,-1.71659 -2.38734,-2.20923c-1.153,-1.21873 -2.63583,-4.12234 -2.20771,-5.80142c0.49023,-1.92273 2.20915,-2.73041 1.0059,-4.94744c-1.08138,-4.21159 -0.11728,-7.54522 2.22719,-11.03353c0.98962,-1.42466 3.83662,-2.7772 5.7155,-1.797c0.56941,0.29707 1.43168,1.81816 2.06102,2.92636l0.08893,-0.12732c0,0 0.22465,-0.22464 0.4493,0z" fill="#000000" stroke="none" stroke-width="0.5"/><path d="M372.51254,387.67168c0.01957,-0.01957 0.03913,-0.03572 0.05853,-0.04891c-0.08755,-1.2796 -0.1516,-2.56845 -0.1516,-3.8566c0,-3.3514 -0.62287,-7.80511 3.17717,-8.46951c-0.00004,-0.00088 -0.00009,-0.00174 -0.00013,-0.00261c0,0 0,-0.3177 0.3177,-0.3177c0.22174,0 0.28873,0.15477 0.30896,0.24827c0.13422,-0.00813 0.27305,-0.01228 0.41668,-0.01228l0.32054,-0.35474c0,0 0.22465,-0.22464 0.4493,0c0.22465,0.22464 0,0.4493 0,0.4493l-0.52668,0.49248c-0.15886,0 -0.31136,0.00517 -0.45775,0.01531c0.47487,0.63097 1.68829,1.25482 2.17468,1.54248c2.00013,1.18288 4.8291,2.30144 4.83327,4.92637c0,4.36955 0.51255,8.38704 0.98373,12.60473c0.36336,3.50421 0.39882,9.75828 -2.04312,12.47891c0.00338,1.34865 -1.39575,4.77819 -3.25653,3.34386c-0.92841,-0.71563 -2.50033,-4.14787 -3.05425,-5.18154c-1.89589,-2.84534 -2.04891,-6.66888 -3.00511,-10.07035c-0.00463,-0.71121 -0.03098,-1.43309 -0.07054,-2.16351c-0.01225,0.00107 -0.02505,0.00164 -0.03839,0.00164c-0.3177,0 -0.3177,-0.3177 -0.3177,-0.3177c0,-1.50702 0,-3.01403 0,-4.52104c-0.00871,-0.11578 -0.0173,-0.23167 -0.02572,-0.34763l-0.09302,0.01006c0,0 -0.22465,-0.22464 0,-0.4493z" fill="#000000" stroke="none" stroke-width="0.5"/><path d="M396.138,406.25197c-0.01205,-0.07633 0.00492,-0.16784 0.09642,-0.25935c0.22465,-0.22464 0.44931,0 0.44931,0l-0.01285,0.11875c4.16434,0.02708 4.26716,6.678 5.60427,9.35223c0.05396,4.49724 -1.05051,8.35696 -1.05051,12.78116c0,3.4662 -2.23044,9.38064 -6.26287,7.21226c-0.73948,-1.65088 -3.42223,-2.94502 -4.10183,-5.21398c-0.4942,-1.64998 0.18171,-3.79076 0.20666,-5.46013c1.3044,-2.60883 2.13974,-8.20241 0.66044,-11.01048c-1.43917,-2.895 0.72002,-7.73773 4.41095,-7.52047z" fill="#000000" stroke="none" stroke-width="0.5"/><path d="M403.56755,301.20275c0.02479,-0.09404 0.09661,-0.23025 0.30463,-0.23025c0.3177,0 0.3177,0.3177 0.3177,0.3177c0,0.63541 0,1.48262 0,2.11803c0,3.7886 -0.76719,9.30145 0.41951,12.86907c-0.02913,4.0622 0.85131,8.19347 0.85131,12.54725c0,4.19584 -3.49448,6.48411 -4.12396,10.37268c-2.7617,1.04476 -5.45883,8.82386 -8.51219,4.23132c-3.48828,-3.46933 1.45426,-7.14679 2.06158,-10.67801c1.83674,-3.57383 1.84929,-8.02031 3.87814,-11.64247c1.16636,-2.08165 2.05067,-4.52456 1.40867,-7.04194c-0.40558,-1.59035 -1.70174,-2.70915 -1.70174,-4.30384c0,-3.75294 0.96764,-7.50811 4.90032,-8.56853c0,0 0.09717,-0.02429 0.19602,0.00896z" fill="#000000" stroke="none" stroke-width="0.5"/><path d="M388.45439,289.87393c2.98749,-0.01482 5.14536,-1.52925 5.14536,2.8585c0.0243,4.05482 3.5102,7.44827 -0.01634,11.21633c-0.47914,0.64686 -2.18823,2.58465 -3.03507,2.6571c-0.80078,0.0685 -0.79763,-0.75887 -1.12469,-1.19034c-1.43246,-1.88981 -2.51404,-3.88455 -3.48059,-6.06976c-2.51355,-3.75806 0.64116,-5.5496 1.73893,-9.05234c-0.00812,-0.02964 -0.01276,-0.06334 -0.01276,-0.10165c0,-0.12892 0.05232,-0.20553 0.1145,-0.25105c0.03842,-0.14584 0.07307,-0.29464 0.10348,-0.44667c0,0 0.06231,-0.31154 0.37384,-0.24923c0.31153,0.06231 0.24923,0.37384 0.24923,0.37384c-0.01722,0.08612 -0.0359,0.1712 -0.05593,0.25528z" fill="#000000" stroke="none" stroke-width="0.5"/><path d="M364.91609,217.64562c-0.3177,0 -0.3177,-0.3177 -0.3177,-0.3177v-0.25416c0,-0.55719 -0.1642,-1.11202 -0.34101,-1.66764c-1.52729,-0.26671 -3.09237,-0.79603 -4.42154,-1.61051c-0.13824,0.30337 -0.21782,0.56264 -0.19363,0.73651v0.50833c0,0 0,0.3177 -0.3177,0.3177c-0.3177,0 -0.3177,-0.3177 -0.3177,-0.3177v-0.50833c0.0234,-0.33302 0.1448,-0.69533 0.31911,-1.07156c-0.9788,-0.68963 -1.79425,-1.5524 -2.31887,-2.59881c0,0 -0.14208,-0.28417 0.14208,-0.42624c0.28417,-0.14208 0.42624,0.14208 0.42624,0.14208c0.46311,0.92892 1.17866,1.69895 2.03995,2.32106c0.38944,-0.69829 0.87963,-1.41751 1.20416,-2.06689c0,0 0.14208,-0.28417 0.42624,-0.14208c0.28417,0.14208 0.14208,0.42624 0.14208,0.42624c-0.25238,0.5045 -0.84014,1.36415 -1.26493,2.12236c1.17519,0.72872 2.55818,1.21582 3.92138,1.48462c-0.30653,-1.05564 -0.43518,-2.11886 0.64718,-3.21123c0,0 0.22465,-0.22465 0.4493,0c0.22465,0.22465 0,0.4493 0,0.4493c-0.93555,0.92569 -0.79265,1.89896 -0.4866,2.86802c0.65962,0.09952 1.30642,0.14791 1.914,0.14791c0.6532,0.0039 1.30799,0.10483 1.96506,0.23766c0.03068,-1.03596 0.13178,-2.08045 0.13178,-2.96991c0,0 0,-0.3177 0.3177,-0.3177c0.3177,0 0.3177,0.3177 0.3177,0.3177c0,0.92377 -0.11493,2.02487 -0.13907,3.10431c1.50983,0.33589 3.03287,0.73043 4.57748,0.39892c0.45134,-0.09686 0.87492,-0.2921 1.27917,-0.54194c-1.37272,-1.4962 -2.52556,-3.26724 -1.7445,-4.88254c0,0 0.14208,-0.28417 0.42624,-0.14208c0.28417,0.14208 0.14208,0.42624 0.14208,0.42624c-0.67346,1.29105 0.42026,2.89019 1.6894,4.24792c0.94004,-0.69773 1.78856,-1.60402 2.66463,-2.10232c0.13852,-0.13999 0.27704,-0.28 0.41554,-0.41999l0.05903,-0.05903c0,0 0.22465,-0.22465 0.4493,0c0.22465,0.22465 0,0.4493 0,0.4493l-0.05903,0.05903c-0.16101,0.15954 -0.32204,0.31908 -0.48305,0.4786c-0.88035,0.46779 -1.71703,1.31908 -2.63191,2.02435c0.72941,0.73552 1.46005,1.37471 1.90317,1.81783l0.25416,0.25416c0,0 0.22465,0.22465 0,0.4493c-0.22465,0.22465 -0.4493,0 -0.4493,0l-0.25416,-0.25416c-0.51107,-0.51107 -1.24155,-1.16418 -1.95981,-1.90117c-0.48638,0.32602 -0.99922,0.58821 -1.555,0.71491c-1.59968,0.36467 -3.17029,-0.05663 -4.72589,-0.40055c0.01408,0.82243 0.10597,1.60915 0.37072,2.26817l0.02477,0.60854c0,0 0.01042,0.31754 -0.30711,0.32796c-0.31754,0.01042 -0.32796,-0.30711 -0.32796,-0.30711l-0.01159,-0.49901c-0.2923,-0.73387 -0.37936,-1.61678 -0.38313,-2.53248c-0.65413,-0.12936 -1.30594,-0.22408 -1.95647,-0.21952c-0.54094,0 -1.10822,-0.03671 -1.68649,-0.1114c0.18349,0.53212 0.35213,1.05929 0.35213,1.57284v0.25416c0,0 0,0.3177 -0.3177,0.3177z" fill="#ffffff" stroke="none" stroke-width="0.5"/><path d="M322.52291,152.15795c-1.42081,-0.71041 -0.71041,-2.13122 -0.71041,-2.13122l0.14758,-0.23431c0.16944,-0.59305 0.33889,-1.18609 0.50833,-1.77914c0,0 0.11093,-0.38827 0.4167,-0.71736c0.00521,-0.07176 0.0165,-0.1452 0.03504,-0.21991c-1.06914,-1.2853 -2.07787,-2.65322 -2.88679,-4.26999c0,0 -0.71041,-1.42081 0.71041,-2.13122c1.42081,-0.71041 2.13122,0.71041 2.13122,0.71041c0.74353,1.48808 1.63937,2.74673 2.59465,3.91991c0.51326,-0.73012 1.10092,-1.41184 1.72368,-2.04529l0.25416,-0.25416c0,0 1.12325,-1.12325 2.24651,0c1.12325,1.12325 0,2.24651 0,2.24651l-0.25416,0.25416c-0.69524,0.6804 -1.34158,1.44259 -1.81273,2.29481c0.95771,1.08576 1.90744,2.19009 2.76575,3.44232c0.28902,-0.28902 0.57806,-0.57806 0.86708,-0.86708l0.76249,-0.76249c0,0 1.12325,-1.12325 2.24651,0c1.12325,1.12325 0,2.24651 0,2.24651c-0.4236,0.4236 -1.6097,1.6097 -2.03331,2.03331c0,0 -0.0287,0.0287 -0.0815,0.07232c1.18099,1.85172 2.359,3.71756 3.5841,5.54817l0.30985,0.26622c0,0 1.12325,1.12325 0,2.24651c-1.12325,1.12325 -2.24651,0 -2.24651,0l-0.26383,-0.28013c-0.04924,0.04816 -0.1032,0.09593 -0.16221,0.14313c-1.24043,0.99234 -2.23276,-0.24809 -2.23276,-0.24809c-1.24948,-1.65267 -1.20588,-3.54335 -1.9305,-5.25411c-0.82081,-0.0618 -1.46755,-0.74737 -1.46755,-1.58398c0,-0.18903 0.03302,-0.37037 0.09361,-0.53853c-0.91086,-1.22199 -1.85581,-2.48386 -2.79778,-3.68983c-0.00855,0.02994 -0.01711,0.05988 -0.02566,0.08982l-0.36075,0.78234c0,0 -0.71041,1.42081 -2.13122,0.71041z" fill="#663f3f" stroke="none" stroke-width="0.5"/><path d="M379.84818,172.51893c0,-1.58852 1.58852,-1.58852 1.58852,-1.58852h0.76249c5.34265,0.20756 4.55717,3.93376 4.4052,7.95309l0.12698,-0.12665c2.71978,-2.1548 6.28306,-5.84493 7.77183,-8.9308c0,0 0.71041,-1.42081 2.13122,-0.71041c1.05423,0.52712 0.93512,1.44535 0.80347,1.88409c0.43903,0.06742 0.81881,0.31457 1.06187,0.66396l1.02735,1.4383c0.60711,0.22077 1.47401,0.15581 1.91387,0.47722c0.06233,0.02003 0.12633,0.04396 0.19202,0.07212c1.46008,0.62575 0.83433,2.08583 0.83433,2.08583c-0.63714,1.38027 -1.54027,2.34365 -2.54213,3.17628c0.1436,0.17307 0.2154,0.31667 0.2154,0.31667c1.23091,2.68046 0.97042,3.95896 -0.60741,6.42066l-0.50833,0.76249c0,0 -0.88116,1.32173 -2.20288,0.44058c-1.32173,-0.88116 -0.44058,-2.20288 -0.44058,-2.20288l0.50833,-0.76249c0.98263,-1.39237 1.27417,-1.67537 0.50639,-3.06542c-0.80049,0.61452 -1.58004,1.2869 -2.26501,2.14313l-0.7321,0.97742c0,0 -0.95311,1.27082 -2.22393,0.3177c-0.4747,-0.35603 -0.63909,-0.75639 -0.65877,-1.11828c-1.43935,0.3082 -2.8169,0.41538 -3.47139,0.41933c0,0 -0.95532,0 -1.38427,-0.74085c-0.3749,0.0503 -0.81944,-0.04238 -1.26397,-0.48691c-0.29252,-0.29252 -0.43267,-0.58502 -0.48,-0.8577c-1.51025,-0.0513 -1.51025,-1.58721 -1.51025,-1.58721c0,-1.43267 0.55619,-3.29887 0.40639,-4.51991c-0.69631,-0.07207 -1.25907,-0.59392 -1.39281,-1.27002c-0.07034,-0.00032 -0.14392,0.00222 -0.22086,0.00771h-0.76249c0,0 -1.58852,0 -1.58852,-1.58852z" fill="#663f3f" stroke="none" stroke-width="0.5"/><path d="M413.9516,214.83113c-0.50233,1.507 -2.00934,1.00467 -2.00934,1.00467l-0.4848,-0.18861c-2.52013,-0.4253 -3.4369,-1.28537 -5.36723,-2.89385c0,0 -1.22034,-1.01695 -0.20339,-2.23728c1.01695,-1.22034 2.23728,-0.20339 2.23728,-0.20339c1.46066,1.21731 1.9276,2.00089 3.78265,2.18941l1.04018,0.31971c0,0 1.507,0.50233 1.00467,2.00934z" fill="#663f3f" stroke="none" stroke-width="0.5"/><path d="M410.20806,222.32652c-0.88116,1.32173 -2.20288,0.44058 -2.20288,0.44058l-0.66947,-0.45083c-1.84944,-1.07214 -3.12728,-2.37984 -4.77916,-3.69708c0,0 -1.24043,-0.99234 -0.24809,-2.23276c0.99234,-1.24043 2.23276,-0.24809 2.23276,-0.24809c1.51113,1.21242 2.67087,2.46531 4.37072,3.41949l0.85551,0.56582c0,0 1.32173,0.88116 0.44058,2.20288z" fill="#663f3f" stroke="none" stroke-width="0.5"/><path d="M406.95962,227.65187c-1.12325,1.12325 -2.24651,0 -2.24651,0l-0.50833,-0.50833c-1.71447,-1.71936 -3.58594,-2.47361 -5.46068,-3.94944c0,0 -1.24043,-0.99234 -0.24809,-2.23276c0.99234,-1.24043 2.23276,-0.24809 2.23276,-0.24809c1.90475,1.55596 3.9178,2.38373 5.7225,4.18378l0.50833,0.50833c0,0 1.12325,1.12325 0,2.24651z" fill="#663f3f" stroke="none" stroke-width="0.5"/><path d="M344.51949,330.58306c0,-1.48515 1.38851,-1.5818 1.56922,-1.58809c1.7428,-0.6593 2.83529,-2.0339 4.47358,-2.6664c2.31505,-0.89377 5.77709,-0.77248 8.2834,-1.13052c0,0 0.06177,-0.00882 0.16259,-0.01074l-0.23968,-0.98786c-0.16725,-1.18115 -0.35467,-2.33042 -0.53363,-3.46972c-3.6945,0.06569 -8.16775,1.21194 -11.69056,2.23084l-0.23431,0.14758c0,0 -1.42081,0.71041 -2.13122,-0.71041c-0.71041,-1.42081 0.71041,-2.13122 0.71041,-2.13122l0.78234,-0.36075c3.83164,-1.0831 8.13681,-2.05352 12.11525,-2.2961c-0.1821,-1.4879 -0.30505,-2.99295 -0.30505,-4.56388c0,0 0,-0.34179 0.15855,-0.70829c-3.71453,-0.10381 -6.62032,-1.04742 -10.23202,-1.5316l-0.02951,0.01596c0,0 -1.58852,0 -1.58852,-1.58852c0,-1.58852 1.58852,-1.58852 1.58852,-1.58852l0.47882,0.01596c3.75118,0.56208 6.46565,1.49982 10.39242,1.50894c-0.00192,-0.31768 -0.00384,-0.63536 -0.00574,-0.95305c0,0 0,-1.58852 1.58852,-1.58852c1.58852,0 1.58852,1.58852 1.58852,1.58852c-0.00396,0.52835 -0.00793,1.0567 -0.01191,1.58505l0.47279,1.84212c0,0 0.38527,1.54109 -1.15582,1.92637c-0.02106,0.00526 -0.0419,0.01017 -0.06254,0.01473c0.06513,3.50687 0.7484,6.6832 1.24982,10.16521l0.2227,0.85603c0,0 0.38527,1.54109 -1.15582,1.92637c-0.11725,0.02932 -0.22781,0.04748 -0.332,0.056c0.19046,1.53402 -1.3536,1.75459 -1.3536,1.75459c-2.23972,0.31997 -5.42403,0.10041 -7.47473,0.90279c-1.67077,0.65372 -3.04826,2.20335 -4.95575,2.84411l-0.75649,0.08152c0,0 -1.58852,0 -1.58852,-1.58852z" fill="#663f3f" stroke="none" stroke-width="0.5"/><path d="M381.50024,274.66714c0,1.58852 -1.58852,1.58852 -1.58852,1.58852l-0.47882,-0.01596c-3.82326,-0.54864 -7.33389,-0.74653 -11.21269,-0.74653c0,0 -0.03692,0 -0.0995,-0.00563c0.21997,1.80916 0.05063,3.62591 -0.22017,5.46368c4.82346,-0.67107 9.20891,-0.50187 14.04449,-0.50187l1.58236,0.28501c0,0 1.55768,0.31154 1.24614,1.86921c-0.31154,1.55768 -1.86921,1.24614 -1.86921,1.24614l-0.95928,-0.22332c-4.75119,0 -9.01305,-0.18572 -13.75432,0.49237c0,0 -0.37642,0.05377 -0.78723,-0.07546c-0.05327,0.33738 -0.10461,0.67569 -0.15233,1.01503l-0.26904,1.3577c0,0 -0.31154,1.55768 -1.86921,1.24614c-1.55768,-0.31154 -1.24614,-1.86921 -1.24614,-1.86921l0.1357,-0.67144c-0.1091,0.01933 -0.22788,0.02986 -0.35718,0.02986c-1.58852,0 -1.58852,-1.58852 -1.58852,-1.58852l0.16771,-1.72706c1.18647,-2.19603 1.36191,-5.64736 1.35727,-8.1853c0,0 0,-0.73658 0.50157,-1.20659c0.02645,-0.42167 0.22767,-0.90228 0.88487,-1.23087c1.42081,-0.71041 2.13122,0.71041 2.13122,0.71041c0.09807,0.20663 0.18856,0.41327 0.27189,0.61989c0.41449,-0.22718 0.84892,-0.22718 0.84892,-0.22718c4.02185,0 7.69259,0.21413 11.662,0.77845l0.02951,-0.01596c0,0 1.58852,0 1.58852,1.58852z" fill="#663f3f" stroke="none" stroke-width="0.5"/><path d="M382.9437,289.41461c0.50233,1.507 -1.00467,2.00934 -1.00467,2.00934l-1.04018,0.31971c-3.36078,0.45306 -7.65795,-1.03142 -10.69743,0.61075c0,0 -1.42081,0.71041 -2.13122,-0.71041c-0.71041,-1.42081 0.71041,-2.13122 0.71041,-2.13122c3.773,-1.79067 7.71781,-0.3088 11.66894,-0.91423l0.4848,-0.18861c0,0 1.507,-0.50233 2.00934,1.00467z" fill="#663f3f" stroke="none" stroke-width="0.5"/><path d="M381.73843,297.57134c0.22465,1.57256 -1.3479,1.7972 -1.3479,1.7972l-2.0038,0.27012c-1.19321,-0.16917 -2.42075,-0.17089 -3.61542,-0.01226c0,0 -1.57626,0.19703 -1.77328,-1.37922c-0.19703,-1.57626 1.37922,-1.77328 1.37922,-1.77328c1.32719,-0.15752 2.68662,-0.2027 4.00948,-0.01226l1.55449,-0.2382c0,0 1.57256,-0.22465 1.7972,1.3479z" fill="#663f3f" stroke="none" stroke-width="0.5"/><path d="M378.19612,306.18339c0,1.58852 -1.58852,1.58852 -1.58852,1.58852l-1.21874,-0.16771c-0.43857,-0.32023 -1.19056,-0.32023 -1.62915,0c0,0 -1.42081,0.71041 -2.13122,-0.71041c-0.71041,-1.42081 0.71041,-2.13122 0.71041,-2.13122c1.37589,-0.57254 3.09488,-0.57254 4.47077,0l-0.20209,-0.16771c0,0 1.58852,0 1.58852,1.58852z" fill="#663f3f" stroke="none" stroke-width="0.5"/><path d="M346.34606,337.06825c-0.38527,-1.54109 1.15582,-1.92637 1.15582,-1.92637l0.69151,-0.13389c1.52171,-0.74996 2.73726,-1.75326 4.15003,-2.69671c0,0 1.32173,-0.88116 2.20288,0.44058c0.88116,1.32173 -0.44058,2.20288 -0.44058,2.20288c-1.52849,1.01712 -2.84834,2.06358 -4.49152,2.89488l-1.34179,0.37443c0,0 -1.54109,0.38527 -1.92637,-1.15582z" fill="#663f3f" stroke="none" stroke-width="0.5"/><path d="M340.07163,378.26409c0,1.58852 -1.58852,1.58852 -1.58852,1.58852l-1.21874,-0.16771c-0.50833,-0.25416 -1.01665,-0.50833 -1.52498,-0.76249c0,0 -1.42081,-0.71041 -0.71041,-2.13122c0.71041,-1.42081 2.13122,-0.71041 2.13122,-0.71041c0.50833,0.25416 1.01665,0.50833 1.52498,0.76249l-0.20209,-0.16771c0,0 1.58852,0 1.58852,1.58852z" fill="#663f3f" stroke="none" stroke-width="0.5"/><path d="M340.623,371.25411c-1.12325,1.12325 -2.24651,0 -2.24651,0l-1.52498,-1.52498c0,0 -1.12325,-1.12325 0,-2.24651c1.12325,-1.12325 2.24651,0 2.24651,0l1.52498,1.52498c0,0 1.12325,1.12325 0,2.24651z" fill="#663f3f" stroke="none" stroke-width="0.5"/><path d="M338.37893,387.10772c-0.71041,1.42081 -2.13122,0.71041 -2.13122,0.71041l-1.61189,-0.80938c-0.70776,-0.51844 -1.63065,-0.84734 -2.5068,-0.80206c0,0 -1.58852,0 -1.58852,-1.58852c0,-1.58852 1.58852,-1.58852 1.58852,-1.58852c1.42676,0.04342 2.8908,0.47502 4.10145,1.23124l1.43807,0.7156c0,0 1.42081,0.71041 0.71041,2.13122z" fill="#663f3f" stroke="none" stroke-width="0.5"/><path d="M349.15797,403.48979c-0.49207,0 -0.83171,-0.15242 -1.06615,-0.36284c-0.46558,-0.05173 -0.93117,-0.10346 -1.39674,-0.15519c0,0 -0.03687,-0.00409 -0.09872,-0.01667l0.25616,0.73133c0,0 0.50233,1.507 -1.00467,2.00934c-1.507,0.50233 -2.00934,-1.00467 -2.00934,-1.00467l-0.56934,-1.77286c-0.00516,-0.51097 -0.00058,-1.01184 0.01303,-1.50453c-0.22989,0.17563 -0.54759,0.29698 -0.98665,0.29698c-1.58852,0 -1.58852,-1.58852 -1.58852,-1.58852l0.08152,-1.51898c0.19568,-0.57677 0.38557,-1.15643 0.57094,-1.73845l-1.55348,-0.15085c-0.50833,-0.25416 -1.01665,-0.50833 -1.52498,-0.76249c0,0 -1.42081,-0.71041 -0.71041,-2.13122c0.71041,-1.42081 2.13122,-0.71041 2.13122,-0.71041c0.50833,0.25416 1.01665,0.50833 1.52498,0.76249l0.30624,-0.16771c0,0 0.36127,0 0.73923,0.17228c0.35216,-1.19382 0.69449,-2.39366 1.03749,-3.5951c0,0 0.42652,-1.49283 1.91206,-1.10514c0.21769,-1.00377 0.39154,-2.0003 0.55808,-2.99064c-0.12115,-0.03206 -0.24858,-0.08005 -0.38233,-0.14692c-1.42081,-0.71041 -0.71041,-2.13122 -0.71041,-2.13122c0.28191,-0.5603 0.50331,-1.12362 0.69573,-1.68828c-0.5127,-0.26348 -0.86344,-0.79767 -0.86344,-1.41376c0,-0.87732 0.7112,-1.58852 1.58852,-1.58852c0.06618,0 0.13142,0.00404 0.19548,0.01191c0.18711,-0.56062 0.40052,-1.11965 0.67118,-1.67543l-0.16771,-0.30624c0,0 0,-1.58852 1.58852,-1.58852c0.57776,0 0.94539,0.21014 1.1793,0.47756c0.2359,-0.00604 0.50322,0.04912 0.80192,0.19848c0.22247,0.11123 0.39268,0.23989 0.52157,0.37778c0.1325,-0.7435 0.78224,-1.30796 1.56383,-1.30796c0.76863,0 1.40974,0.54589 1.55681,1.27113c0.86263,0.01695 1.55669,0.72153 1.55669,1.5882c0,0.87732 -0.7112,1.58852 -1.58852,1.58852c-0.76863,0 -1.40974,-0.54589 -1.55681,-1.27113c-0.48233,-0.00948 -0.91196,-0.23393 -1.19703,-0.58151c-0.05102,0.27601 -0.14612,0.4662 -0.14612,0.4662c-0.51743,1.0284 -0.90056,2.06558 -1.20105,3.11077c1.16106,0.34667 2.28814,0.84608 3.32559,1.47638c0.44437,0.07253 1.34729,0.36723 1.34729,1.56485c0,1.58852 -1.58852,1.58852 -1.58852,1.58852l-1.13532,-0.2668c-0.80497,-0.55067 -1.70836,-0.97838 -2.64461,-1.25794c-0.24609,1.38895 -0.43743,2.79031 -0.69008,4.20227c0.09522,0.05994 0.14952,0.1052 0.14952,0.1052c0.50833,0.4236 1.01665,0.84722 1.52498,1.27082l0.24787,-0.03251c0,0 1.507,0.50233 1.00467,2.00934c-0.50233,1.507 -2.00934,1.00467 -2.00934,1.00467l-1.27711,-0.54083c-0.12759,-0.10632 -0.25518,-0.21265 -0.38276,-0.31896c-0.2115,0.96055 -0.40885,1.89374 -0.58394,2.82239c0.114,0.06615 0.18019,0.11908 0.18019,0.11908c0.67361,0.55941 1.47012,0.99698 2.30579,1.2584l1.02265,-0.08152c0,0 1.58852,0 1.58852,1.58852c0,1.58852 -1.58852,1.58852 -1.58852,1.58852l-2.02731,-0.08152c-0.69585,-0.2421 -1.3726,-0.55574 -2.01283,-0.92989c-0.04394,0.38813 -0.08254,0.7802 -0.11522,1.17773c0.29139,-0.05473 0.51834,-0.02952 0.51834,-0.02952c0.76249,0.08473 1.52498,0.16944 2.28747,0.25416l1.4131,1.83296c0,0 0,1.58852 -1.58852,1.58852z" fill="#663f3f" stroke="none" stroke-width="0.5"/><path d="M357.29362,417.22299c0.4364,1.52739 -1.091,1.96381 -1.091,1.96381l-1.99521,0.55409c-2.23826,0.01719 -4.00954,-0.00555 -6.1972,-0.5404c0,0 -0.03834,-0.00958 -0.10141,-0.03177c-0.06641,0.2244 -0.13899,0.44681 -0.21868,0.66664l0.24462,1.41184c0,0 0.09297,0.6508 -0.25936,1.17487c1.85063,-0.04575 3.50698,0.53134 5.54922,0.51122h1.27082c0,0 1.58852,0 1.58852,1.58852c0,1.58852 -1.58852,1.58852 -1.58852,1.58852h-1.27082c-2.24194,-0.01722 -4.33914,-1.08854 -6.46704,-0.38705c0.46408,0.34505 0.62372,0.90375 0.62372,0.90375c0.15315,0.55146 0.2772,1.11339 0.36999,1.68064c2.01666,0.28028 3.85073,0.28206 5.85863,0.77296l1.01665,0.25416c0,0 1.54109,0.38527 1.15582,1.92637c-0.38527,1.54109 -1.92637,1.15582 -1.92637,1.15582l-1.01665,-0.25416c-1.68068,-0.43137 -3.26245,-0.45615 -4.94299,-0.63913c-0.11309,0.47043 -0.4614,1.19489 -1.53415,1.19489c-1.58852,0 -1.58852,-1.58852 -1.58852,-1.58852v-0.50833c0.01036,-1.05121 -0.1489,-2.11385 -0.4472,-3.12189c0,0 -0.39229,-1.37302 0.86878,-1.88743c-0.2395,-0.16254 -0.45528,-0.42563 -0.59422,-0.84244c-0.40422,-1.21266 0.49266,-1.7748 0.85841,-1.94811c-0.56531,-0.39393 -0.6698,-1.12537 -0.6698,-1.12537l-0.26371,-2.14645c0.34437,-1.10527 0.61276,-2.23946 0.77203,-3.38612c0,0 0.22465,-1.57256 1.7972,-1.3479c0.96426,0.13776 1.25278,0.7823 1.33173,1.26033c0.21037,0.00606 0.35388,0.04194 0.35388,0.04194c1.77203,0.45481 3.17348,0.4584 4.98598,0.47625l1.56308,-0.46256c0,0 1.52739,-0.4364 1.96381,1.091z" fill="#663f3f" stroke="none" stroke-width="0.5"/><path d="M355.055,411.61661c0.19703,1.57626 -1.37922,1.77328 -1.37922,1.77328l-2.03331,0.25416c0,0 -1.57626,0.19703 -1.77328,-1.37922c-0.19703,-1.57626 1.37922,-1.77328 1.37922,-1.77328l2.03331,-0.25416c0,0 1.57626,-0.19703 1.77328,1.37922z" fill="#663f3f" stroke="none" stroke-width="0.5"/><path d="M371.92607,390.82468c-1.12325,-1.12325 0,-2.24651 0,-2.24651l0.39116,-0.37742c1.88094,-2.3296 4.35252,-3.97278 6.01861,-6.49706c0,0 0.15599,-0.234 0.43518,-0.43944c-0.30591,-0.37851 -0.63438,-0.75066 -0.99919,-1.11444c0,0 -0.47044,-0.47044 -0.49797,-1.10687c-1.14872,0.50477 -2.21958,0.89144 -3.23219,1.73238l-0.63158,0.64532c0,0 -1.12325,1.12325 -2.24651,0c-1.12325,-1.12325 0,-2.24651 0,-2.24651l0.8934,-0.87966c1.50301,-1.17082 2.92184,-1.62215 4.60271,-2.46786c0,0 1.42081,-0.71041 2.13122,0.71041c0.16469,0.32936 0.21483,0.62055 0.19471,0.87356c0.59848,0.05851 1.0327,0.49273 1.0327,0.49273c1.71231,1.71673 2.69253,3.62723 4.18378,5.46834l0.57141,1.95162c0,0 0.31154,1.55768 -1.24614,1.86921c-1.55768,0.31154 -1.86921,-1.24614 -1.86921,-1.24614l0.06308,-0.59001c-0.38108,-0.48118 -0.72519,-0.96323 -1.05659,-1.44259c-1.72846,2.35744 -4.06415,3.99316 -5.8666,6.27169l-0.6255,0.63923c0,0 -1.12325,1.12325 -2.24651,0z" fill="#663f3f" stroke="none" stroke-width="0.5"/><path d="M374.31983,399.81749c-1.22034,-1.01695 -0.20339,-2.23728 -0.20339,-2.23728l1.26071,-1.51273c1.83963,-2.27428 5.94568,-4.12419 6.56544,-6.80244c0,0 0.4364,-1.52739 1.96381,-1.091c1.52739,0.4364 1.091,1.96381 1.091,1.96381c-1.18322,3.71076 -4.80295,4.95354 -7.15937,7.93903l-1.28092,1.53723c0,0 -1.01695,1.22034 -2.23728,0.20339z" fill="#663f3f" stroke="none" stroke-width="0.5"/><path d="M375.99268,408.10778c-1.12325,-1.12325 0,-2.24651 0,-2.24651l0.38507,-0.37133c2.35088,-1.86178 3.92394,-3.43414 5.85183,-5.85183c0,0 0.99234,-1.24043 2.23276,-0.24809c1.24043,0.99234 0.24809,2.23276 0.24809,2.23276c-2.04469,2.54846 -3.86104,4.33362 -6.34801,6.34801l-0.12326,0.13699c0,0 -1.12325,1.12325 -2.24651,0z" fill="#663f3f" stroke="none" stroke-width="0.5"/><path d="M401.26144,420.64581c0.87732,0 1.58852,0.7112 1.58852,1.58852c0,0.87732 -0.7112,1.58852 -1.58852,1.58852c-0.05509,0 -0.10953,-0.00281 -0.16319,-0.00829l-1.41387,1.87388c-0.65176,0.3241 -1.35315,0.56648 -2.05976,0.79571c-0.00606,0.5496 -0.01542,1.09996 -0.02651,1.65092c0.79951,-0.2665 1.59902,-0.53301 2.39853,-0.79951l1.26482,-0.08152c0,0 1.58852,0 1.58852,1.58852c0,1.58852 -1.58852,1.58852 -1.58852,1.58852l-0.26016,-0.08152c-1.01665,0.33889 -2.03331,0.67776 -3.04996,1.01665c0,0 -0.17626,0.05875 -0.42833,0.07579c-0.01235,0.57346 -0.02326,1.1472 -0.03097,1.72104l0.44731,1.27709c0,0 0.50233,1.507 -1.00467,2.00934c-1.507,0.50233 -2.00934,-1.00467 -2.00934,-1.00467l-0.23125,-0.72008c-0.02307,0.00403 -0.04652,0.00775 -0.0704,0.01116c-1.57256,0.22465 -1.7972,-1.3479 -1.7972,-1.3479c-0.17342,-1.23232 -0.17167,-2.39802 -0.07416,-3.52782c-0.19981,0.2184 -0.3458,0.46766 -0.40456,0.75555c0,0 -0.50233,1.507 -2.00934,1.00467c-1.507,-0.50233 -1.00467,-2.00934 -1.00467,-2.00934c0.34491,-0.87295 0.95919,-1.62013 1.69207,-2.2564c-0.16533,-0.75117 0.37323,-1.32234 0.5485,-1.48485c-0.0108,-0.05088 -0.01916,-0.10267 -0.02496,-0.15523l-0.23693,-1.89547c-1.17769,-3.54808 -1.32887,-7.53104 -0.30985,-11.07758l-0.01015,-0.07111l-0.45339,-0.06477l0.25086,-1.75603c0.06242,-0.49301 0.35081,-0.91557 0.75812,-1.16062c-0.06768,-0.47729 0.01852,-1.15799 0.86982,-1.58364c1.42081,-0.71041 2.13122,0.71041 2.13122,0.71041c0.41678,0.83815 0.77905,1.68326 1.09361,2.5346c0.87463,-0.88597 1.92611,-1.63615 3.08315,-2.06037l-0.11259,-0.12458c0,0 1.12325,-1.12325 2.24651,0c1.12325,1.12325 0,2.24651 0,2.24651l-1.12925,0.89207c-0.83146,0.23021 -1.55179,0.8594 -2.0778,1.54325c0,0 -0.43212,0.51853 -1.07099,0.59792c0.17879,0.73787 0.32881,1.47964 0.45425,2.22484c0.95727,-0.7228 1.9882,-1.23123 3.22179,-1.93614l1.56413,-0.78275c0,0 1.42081,-0.71041 2.13122,0.71041c0.71041,1.42081 -0.71041,2.13122 -0.71041,2.13122l-1.48583,0.74223c-1.51181,0.86389 -2.79291,1.26627 -3.82991,2.64175c0,0 -0.16302,0.20378 -0.43951,0.38008c0.06063,0.86243 0.0987,1.72832 0.12047,2.597c0.21885,-0.09551 0.4375,-0.19719 0.65566,-0.30695l0.11075,-0.66729c0,0 0.56598,-0.9433 1.54095,-0.78894c0.281,-0.4474 0.77886,-0.74479 1.34618,-0.74479z" fill="#663f3f" stroke="none" stroke-width="0.5"/><path d="M405.64575,323.54274c0,1.58852 -1.58852,1.58852 -1.58852,1.58852l-0.98714,-0.01596c-1.02437,-0.15697 -2.08461,-0.15697 -3.10899,0c0,0 -0.09479,0.01355 -0.24114,0.0107c-0.38898,1.86248 -0.66855,3.727 -0.8956,5.59701c0.2328,0.10353 0.37945,0.22086 0.37945,0.22086c1.01749,1.16239 2.24558,0.11576 3.65452,-0.28698l0.94472,-0.06113c0,0 1.58852,0 1.58852,1.58852c0,1.58852 -1.58852,1.58852 -1.58852,1.58852l-0.07193,-0.06113c-2.32482,0.66394 -3.52001,1.22105 -5.27549,0.42959c-0.14945,1.52365 -0.28709,3.05227 -0.44331,4.58772c0.40526,0 0.81053,0 1.21579,0h0.50833c0,0 1.58852,0 1.58852,1.58852c0,1.58852 -1.58852,1.58852 -1.58852,1.58852c-0.53007,0 -1.46622,0 -2.08254,0c-0.04975,0.39206 -0.10203,0.78464 -0.15737,1.17778l-0.28563,1.17727c0,0 -0.38527,1.54109 -1.92637,1.15582c-1.54109,-0.38527 -1.15582,-1.92637 -1.15582,-1.92637l0.2227,-0.85603c0.05998,-0.41286 0.11656,-0.8251 0.1703,-1.23678c-0.29507,0 -0.59014,0 -0.88521,0l-0.26016,0.17264c0,0 -1.507,0.50233 -2.00934,-1.00467h0.00001c-0.50233,-1.507 1.00467,-2.00934 1.00467,-2.00934l1.26482,-0.33569c0.41807,0 0.83613,0 1.25421,0c0.6046,-5.77634 0.93086,-11.45773 2.55583,-17.14763c0,0 0.4364,-1.52739 1.96381,-1.091c1.3218,0.37766 1.1729,1.57238 1.10886,1.88716c1.00011,-0.06613 2.01018,-0.03248 3.00016,0.10098l0.53783,-0.01596c0,0 1.58852,0 1.58852,1.58852z" fill="#663f3f" stroke="none" stroke-width="0.5"/><path d="M405.39159,314.90119c0,1.58852 -1.58852,1.58852 -1.58852,1.58852c-0.59305,0 -1.44025,0 -2.03331,0c0,0 -1.58852,0 -1.58852,-1.58852c0,-1.58852 1.58852,-1.58852 1.58852,-1.58852c0.59305,0 1.18609,0 1.77914,0h0.25416c0,0 1.58852,0 1.58852,1.58852z" fill="#663f3f" stroke="none" stroke-width="0.5"/><path d="M406.15407,304.22633c0,1.58852 -1.58852,1.58852 -1.58852,1.58852l-0.30624,-0.16771c-1.01665,0.50833 -2.03331,1.01665 -3.04996,1.52498c0,0 -1.42081,0.71041 -2.13122,-0.71041c-0.71041,-1.42081 0.71041,-2.13122 0.71041,-2.13122c1.01665,-0.50833 2.03331,-1.01665 3.04996,-1.52498l1.72706,-0.16771c0,0 1.58852,0 1.58852,1.58852z" fill="#663f3f" stroke="none" stroke-width="0.5"/><path d="M392.62587,289.01993c1.507,-0.50233 2.00934,1.00467 2.00934,1.00467l-0.01242,0.27249c1.78222,2.28786 2.11618,3.33442 0.94288,6.02353c0,0 -0.02609,0.05218 -0.07828,0.13155c0.26657,1.39281 0.24598,2.69394 0.24598,4.2413l0.20674,0.63138c0,0 0.07855,0.3142 0.02285,0.69431c0.42154,0.58615 0.23131,1.34705 0.23131,1.34705l-2.50567,2.05219c-1.44911,-0.72911 -1.87498,-1.29701 -3.3622,-0.6763c0,0 -1.507,0.50233 -2.00934,-1.00467c-0.50233,-1.507 1.00467,-2.00934 1.00467,-2.00934c1.4555,-0.42347 2.4169,-0.44509 3.42228,-0.16218l-0.18769,-0.87245c0,-0.82294 0.03077,-1.56018 -0.00346,-2.28478l-0.1353,-0.00615c-2.49313,-0.76686 -4.4728,-0.99209 -6.9862,-0.24829c0,0 -1.52739,0.4364 -1.96381,-1.091c-0.4364,-1.52739 1.091,-1.96381 1.091,-1.96381c2.73246,-0.75883 4.97987,-0.69497 7.56854,-0.06468c0.1192,-0.3641 0.40023,-0.7293 1.00707,-0.93157c0.00215,-0.00071 0.00428,-0.00142 0.00642,-0.00213c0.20163,-0.64456 -0.23519,-0.89995 -0.99867,-1.8193l-0.52074,-1.25249c0,0 -0.50233,-1.507 1.00467,-2.00934z" fill="#663f3f" stroke="none" stroke-width="0.5"/><path d="M309.69912,317.97656c0,-0.87732 0.7112,-1.58852 1.58852,-1.58852c0.32251,0 0.62256,0.09611 0.87309,0.26124c0.31266,-0.60994 0.64397,-1.21174 0.99106,-1.81044c-0.53847,-0.25426 -0.91104,-0.80224 -0.91104,-1.43722c0,-0.87732 0.7112,-1.58852 1.58852,-1.58852c0.36952,0 0.70955,0.12617 0.97941,0.33776c0.56704,-0.87848 1.15854,-1.76665 1.76548,-2.68035c0,0 0.88116,-1.32173 2.20288,-0.44058c1.32173,0.88116 0.44058,2.20288 0.44058,2.20288c-0.79148,1.18338 -1.5601,2.31217 -2.27874,3.43198c0.93193,0.33627 1.78753,0.92226 2.15706,1.76263l1.03533,0.38248c0,0 1.42081,0.71041 0.71041,2.13122c-0.71041,1.42081 -2.13122,0.71041 -2.13122,0.71041l-2.01463,-1.1425c-0.08896,-0.47915 -0.62781,-1.13932 -1.08741,-0.97726c0,0 -0.14825,0 -0.35418,-0.04529c-0.56621,1.04507 -1.07097,2.1148 -1.49317,3.24461c1.26756,0.06424 2.55072,0.26634 3.71391,0.74479c0.33266,0.02761 1.50111,0.22155 1.50111,1.58393c0,1.58852 -1.58852,1.58852 -1.58852,1.58852l-0.96457,-0.16771c-0.9996,-0.54006 -2.22026,-0.61696 -3.3562,-0.59478c0,0 -0.0834,0 -0.21198,-0.01911c-0.09732,0.47042 -0.18061,0.95348 -0.24877,1.45103l0.01596,0.02951c0,0 0,1.58852 -1.58852,1.58852c-1.58852,0 -1.58852,-1.58852 -1.58852,-1.58852l0.01596,-0.47882c0.28751,-1.94664 0.77409,-3.70439 1.41144,-5.35823c-0.67592,-0.18257 -1.17326,-0.80006 -1.17326,-1.5337z" fill="#663f3f" stroke="none" stroke-width="0.5"/><path d="M335.53974,283.77113c-1.12325,1.12325 -2.24651,0 -2.24651,0l-0.12326,-0.13699c-0.71083,-0.59678 -1.59663,-1.00114 -2.49402,-1.238c0,0 -0.06415,-0.01833 -0.16241,-0.06063c-0.35111,0.78857 -0.67676,1.59655 -0.97869,2.41755c0.51599,0.28107 0.75012,0.82736 0.75012,0.82736c0.53975,1.76474 0.76661,1.34945 2.60653,1.3247h0.25416c0,0 1.58852,0 1.58852,1.58852c0,1.58852 -1.58852,1.58852 -1.58852,1.58852h-0.25416c-2.41788,-0.02439 -3.53033,-0.21899 -4.55513,-1.59039c-0.2558,0.92002 -0.48661,1.84411 -0.69467,2.76399c0.38437,0.1053 0.65053,0.31823 0.65053,0.31823c1.32788,1.10274 2.08579,1.2079 3.80725,1.44701l1.17727,0.28563c0,0 1.54109,0.38527 1.15582,1.92637c-0.38527,1.54109 -1.92637,1.15582 -1.92637,1.15582l-0.85603,-0.2227c-1.94483,-0.28441 -3.19464,-0.6165 -4.66564,-1.61645c-0.15124,0.86774 -0.28375,1.72224 -0.39956,2.55602l-0.14894,0.27839c0.13542,0.03446 0.21878,0.07019 0.21878,0.07019c1.20923,0.52788 2.37982,1.18266 3.41655,1.9988l1.27082,1.01665c0,0 1.24043,0.99234 0.24809,2.23276c-0.99234,1.24043 -2.23276,0.24809 -2.23276,0.24809l-1.27082,-1.01665c-0.8012,-0.65448 -1.72909,-1.15995 -2.68337,-1.55948c0,0 -0.79702,-0.34158 -0.96095,-1.10885c-0.24756,-0.0155 -0.52236,-0.10228 -0.81942,-0.30031c-1.32173,-0.88116 -0.44058,-2.20288 -0.44058,-2.20288l0.25751,-0.10599c0.16044,-1.09713 0.34576,-2.21824 0.55999,-3.35179c-0.63013,-0.21078 -1.08427,-0.80576 -1.08427,-1.50682c0,-0.87732 0.7112,-1.58852 1.58852,-1.58852c0.05015,0 0.09976,0.00233 0.14871,0.00688c1.34968,-5.7402 3.5144,-11.53225 6.99825,-15.9313c0,0 0.99234,-1.24043 2.23276,-0.24809c1.24043,0.99234 0.24809,2.23276 0.24809,2.23276c-0.79684,0.98378 -1.51911,2.05964 -2.17353,3.20291c1.14297,0.38731 2.24566,0.94508 3.19626,1.6809l0.38507,0.37133c0,0 1.12325,1.12325 0,2.24651z" fill="#663f3f" stroke="none" stroke-width="0.5"/><path d="M316.76618,352.18447c-0.34932,5.32262 -4.3269,4.89785 -8.28281,4.436c-3.95591,-0.46185 -6.77306,-0.82468 -6.04281,-6.10853c0.87272,-6.31475 3.81857,-7.94781 7.77449,-7.48596c3.95591,0.46185 6.91553,3.60625 6.55113,9.15849z" fill="#063800" stroke="#000000" stroke-width="0"/><path d="M394.48036,347.27676c3.97704,-0.21369 6.81506,1.60034 7.29136,7.95728c0.39854,5.31917 -2.43576,5.50519 -6.41281,5.71888c-3.97704,0.21369 -7.97339,0.389 -7.98933,-4.94506c-0.01662,-5.56417 3.13374,-8.51742 7.11079,-8.73111z" data-paper-data="{&quot;index&quot;:null}" fill="#063800" stroke="#000000" stroke-width="0"/><path d="M303.9169,366.9157c-1.58852,0 -1.58852,-1.58852 -1.58852,-1.58852l0.08152,-2.02731c0.97398,-2.87981 0.34894,-5.77092 1.27082,-8.64155c0,0 0.50233,-1.507 2.00934,-1.00467c1.507,0.50233 1.00467,2.00934 1.00467,2.00934c-0.96953,2.768 -0.32106,5.75708 -1.27082,8.64155l0.08152,1.02265c0,0 0,1.58852 -1.58852,1.58852z" fill="#063800" stroke="none" stroke-width="0.5"/><path d="M311.41875,367.88492c-1.54109,0.38527 -1.92637,-1.15582 -1.92637,-1.15582l-0.30159,-1.40193c0,-3.18136 0.07298,-6.33301 -0.24628,-9.50014c0,0 -0.15806,-1.58064 1.42258,-1.73871c1.58064,-0.15806 1.73871,1.42258 1.73871,1.42258c0.32501,3.27487 0.26204,6.52767 0.26204,9.81627l0.20674,0.63138c0,0 0.38527,1.54109 -1.15582,1.92637z" fill="#063800" stroke="none" stroke-width="0.5"/><path d="M318.53533,365.85162c-1.54109,0.38527 -1.92637,-1.15582 -1.92637,-1.15582l-0.50833,-2.03331c-0.62656,-2.5628 -0.3058,-4.17997 -1.98681,-6.25534c0,0 -0.99234,-1.24043 0.24809,-2.23276c1.24043,-0.99234 2.23276,0.24809 2.23276,0.24809c2.01399,2.54307 1.82487,4.49563 2.58813,7.46948l0.50833,2.03331c0,0 0.38527,1.54109 -1.15582,1.92637z" fill="#063800" stroke="none" stroke-width="0.5"/><path d="M298.57948,360.56162c-1.58852,0 -1.58852,-1.58852 -1.58852,-1.58852v-0.50833c0.02782,-4.61153 1.44574,-7.49782 4.89235,-10.37022c0,0 1.22034,-1.01695 2.23728,0.20339c1.01695,1.22034 -0.20339,2.23728 -0.20339,2.23728c-2.70525,2.25419 -3.77723,4.19674 -3.7492,7.92954v0.50833c0,0 0,1.58852 -1.58852,1.58852z" fill="#063800" stroke="none" stroke-width="0.5"/><path d="M403.77601,361.7689v-0.50833c0.02803,-3.73279 -1.04395,-5.67535 -3.7492,-7.92954c0,0 -1.22034,-1.01696 -0.20339,-2.23728c1.01695,-1.22033 2.23728,-0.20338 2.23728,-0.20338c3.44659,2.8724 4.86453,5.75869 4.89235,10.37022v0.50833c0,0 0,1.58852 -1.58852,1.58852c-1.58852,0 -1.58852,-1.58852 -1.58852,-1.58852z" data-paper-data="{&quot;index&quot;:null}" fill="#063800" stroke="none" stroke-width="0.5"/><path d="M398.90927,369.13963l0.08151,-1.02265c-0.94976,-2.88447 -0.30129,-5.87355 -1.27082,-8.64155c0,0 -0.50234,-1.50701 1.00467,-2.00934c1.50701,-0.50234 2.00934,1.00467 2.00934,1.00467c0.92186,2.87063 0.29684,5.76175 1.27082,8.64155l0.08151,2.02731c0,0 0,1.58852 -1.58852,1.58852c-1.58852,0 -1.58852,-1.58852 -1.58852,-1.58852z" data-paper-data="{&quot;index&quot;:null}" fill="#063800" stroke="none" stroke-width="0.5"/><path d="M392.60263,370.53351l0.20674,-0.63138c0,-3.28859 -0.06296,-6.5414 0.26206,-9.81627c0,0 0.15806,-1.58064 1.73869,-1.42258c1.58063,0.15806 1.42258,1.73871 1.42258,1.73871c-0.31925,3.16713 -0.24627,6.31878 -0.24627,9.50014l-0.30159,1.40191c0,0 -0.38527,1.54109 -1.92637,1.15582c-1.54109,-0.38527 -1.15582,-1.92637 -1.15582,-1.92637z" data-paper-data="{&quot;index&quot;:null}" fill="#063800" stroke="none" stroke-width="0.5"/><path d="M386.47154,367.99187l0.50833,-2.03331c0.76328,-2.97385 0.57415,-4.92642 2.58813,-7.46948c0,0 0.99234,-1.24043 2.23277,-0.24809c1.24043,0.99234 0.24809,2.23277 0.24809,2.23277c-1.681,2.07537 -1.36023,3.69253 -1.98679,6.25534l-0.50833,2.03331c0,0 -0.38527,1.54109 -1.92637,1.15582c-1.54109,-0.38527 -1.15582,-1.92637 -1.15582,-1.92637z" data-paper-data="{&quot;index&quot;:null}" fill="#063800" stroke="none" stroke-width="0.5"/><path d="M314.84593,350.36215c0,2.93088 -2.33275,5.30684 -5.21035,5.30684c-2.8776,0 -5.21035,-2.37596 -5.21035,-5.30684c0,-2.93088 2.33275,-5.30684 5.21035,-5.30684c2.8776,0 5.21035,2.37596 5.21035,5.30684z" fill="#109d00" stroke="#000000" stroke-width="0"/><path d="M399.48228,354.68292c0,2.93088 -2.33275,5.30684 -5.21035,5.30684c-2.87759,0 -5.21035,-2.37596 -5.21035,-5.30684c0,-2.93088 2.33276,-5.30684 5.21035,-5.30684c2.87759,0 5.21035,2.37596 5.21035,5.30684z" fill="#109d00" stroke="#000000" stroke-width="0"/><path d="M414.55179,177.89526c-0.22465,-0.22464 0,-0.4493 0,-0.4493l0.19465,-0.1716c0.70703,-1.33188 1.67754,-3.55349 0.76414,-5.30417c-1.28191,-2.58495 -3.6912,-4.00146 -4.34748,-7.18892c-0.21164,-1.02794 1.00815,-2.7223 1.00815,-4.01253c0,-4.52868 -4.66331,-3.17682 -6.00637,-0.23917c0,0 -0.14208,0.28415 -0.42624,0.14208c-0.28415,-0.14208 -0.14208,-0.42624 -0.14208,-0.42624c1.75394,-3.30405 7.21012,-4.84961 7.21012,0.52332c0,0.97365 -1.2049,3.30201 -1.02515,3.86653c0.95188,2.98958 2.88689,4.50286 4.29408,7.04422c0.97829,2.02261 -0.02315,4.26549 -0.76084,5.87901l-0.31368,0.33673c0,0 -0.22464,0.22465 -0.4493,0z" data-paper-data="{&quot;index&quot;:null}" fill="#04ff00" stroke="none" stroke-width="0.5"/><path d="M415.81705,179.85756c-0.15364,0.27808 -0.43172,0.12444 -0.43172,0.12444l-0.18596,-0.10275c-0.84896,-0.46953 -1.66425,-1.02104 -2.58418,-1.3246c-3.91214,-2.68778 0.31861,-8.70672 0.31861,-12.19432c0,-1.95281 -1.14645,-4.15422 -3.19505,-4.64913c-1.4551,-0.35153 -3.01698,0.79661 -4.25424,0.23126c0,0 -0.28415,-0.14208 -0.14208,-0.42624c0.14208,-0.28415 0.42624,-0.14208 0.42624,-0.14208c0.91428,0.52073 2.86967,-0.63379 4.13315,-0.27706c2.30273,0.65015 3.66736,2.97817 3.66736,5.26324c0,1.08307 0.17006,2.92935 -0.28448,3.91446c-0.88909,1.9269 -3.18275,5.86712 -0.38951,7.70948c0.92883,0.30596 1.75371,0.8654 2.61144,1.3388l0.18596,0.10275c0,0 0.27808,0.15364 0.12444,0.43172z" data-paper-data="{&quot;index&quot;:null}" fill="#1c00ff" stroke="none" stroke-width="0.5"/><path d="M414.53236,180.59352c-0.20339,-0.24406 0.04068,-0.44745 0.04068,-0.44745l0.27436,-0.22863c0.1346,-0.09916 0.26921,-0.19831 0.40381,-0.29747c-0.10009,-1.66717 -0.23749,-5.8654 -1.5302,-7.09353c-1.28155,-1.21753 -2.7451,-1.3406 -3.90076,-2.8747c-2.18888,-3.05732 3.11461,-8.36201 3.11294,-11.75599c0.07616,-1.32171 -2.74207,-1.48816 -3.67534,-1.04896c-2.00565,0.94386 -2.32619,2.7092 -3.08215,4.5991c0,0 -0.118,0.29498 -0.41298,0.17699c-0.29498,-0.118 -0.17699,-0.41298 -0.17699,-0.41298c0.79745,-1.99364 1.24283,-3.97244 3.40805,-4.94106c1.49172,-0.66732 4.50103,-0.22 4.57481,1.62628c0.00152,3.09675 -1.32261,5.08337 -2.86893,7.7202c-0.59634,1.01692 -1.19388,2.62505 -0.37108,3.65519c1.12664,1.50824 2.55054,1.58232 3.83468,2.79968c1.42099,1.34712 1.73435,5.99445 1.66338,7.81931c-0.19081,0.17203 -0.38164,0.34406 -0.57245,0.51609l-0.27436,0.22863c0,0 -0.24406,0.20339 -0.44745,-0.04068z" data-paper-data="{&quot;index&quot;:null}" fill="#000000" stroke="none" stroke-width="0.5"/><path d="M413.47617,181.25019c-0.22465,0.22464 -0.44931,0 -0.44931,0l-0.11805,-0.11805c-1.63994,-1.63994 -1.51721,-3.05366 -1.49186,-5.26122c1.73069,-3.62921 1.98695,-8.31707 -0.08661,-12.15949c-0.8387,-3.58701 -5.24236,-5.73915 -6.15468,-1.1775c0,0 -0.06231,0.31153 -0.37384,0.24922c-0.31154,-0.06231 -0.24923,-0.37384 -0.24923,-0.37384c1.03948,-5.19738 6.27737,-3.06462 7.37002,1.07201c2.09217,3.85303 1.9301,8.88234 0.1135,12.53229c0.02897,2.01358 -0.16711,3.18012 1.32199,4.66922l0.11805,0.11805c0,0 0.22465,0.22465 0,0.4493z" data-paper-data="{&quot;index&quot;:null}" fill="#420000" stroke="none" stroke-width="0.5"/><g stroke="none" stroke-width="0.5"><path d="M364.11732,303.70605c-0.22465,0.22465 -0.4493,0 -0.4493,0l-0.31368,-0.33673c-0.73768,-1.61352 -1.73912,-3.85641 -0.76084,-5.87901c1.40719,-2.54137 3.3422,-4.05464 4.29408,-7.04422c0.17974,-0.56452 -1.02515,-2.89289 -1.02515,-3.86653c0,-5.37293 5.45617,-3.82737 7.21012,-0.52332c0,0 0.14208,0.28417 -0.14208,0.42624c-0.28417,0.14208 -0.42624,-0.14208 -0.42624,-0.14208c-1.34306,-2.93766 -6.00637,-4.28951 -6.00637,0.23917c0,1.29022 1.21979,2.98459 1.00815,4.01253c-0.65627,3.18746 -3.06556,4.60396 -4.34748,7.18892c-0.9134,1.75068 0.05711,3.97229 0.76414,5.30417l0.19465,0.1716c0,0 0.22465,0.22465 0,0.4493z" fill="#04ff00"/><path d="M362.85207,305.66835c-0.15364,-0.27808 0.12444,-0.43172 0.12444,-0.43172l0.18596,-0.10275c0.85772,-0.4734 1.68261,-1.03284 2.61144,-1.3388c2.79324,-1.84237 0.49958,-5.78258 -0.38951,-7.70948c-0.45455,-0.98511 -0.28448,-2.83139 -0.28448,-3.91446c0,-2.28507 1.36463,-4.61309 3.66736,-5.26324c1.26348,-0.35673 3.21888,0.79779 4.13315,0.27706c0,0 0.28417,-0.14208 0.42624,0.14208c0.14208,0.28417 -0.14208,0.42624 -0.14208,0.42624c-1.23725,0.56535 -2.79914,-0.5828 -4.25424,-0.23126c-2.04859,0.49491 -3.19505,2.69632 -3.19505,4.64913c0,3.4876 4.23075,9.50654 0.31861,12.19432c-0.91993,0.30356 -1.73522,0.85507 -2.58418,1.3246l-0.18596,0.10275c0,0 -0.27808,0.15364 -0.43172,-0.12444z" fill="#1c00ff"/><path d="M364.13673,306.40433c-0.20339,0.24407 -0.44745,0.04068 -0.44745,0.04068l-0.27436,-0.22863c-0.19081,-0.17203 -0.38164,-0.34406 -0.57245,-0.51609c-0.07096,-1.82485 0.2424,-6.47219 1.66338,-7.81931c1.28413,-1.21737 2.70803,-1.29144 3.83468,-2.79968c0.8228,-1.03014 0.22526,-2.63827 -0.37108,-3.65519c-1.54632,-2.63683 -2.87046,-4.62345 -2.86893,-7.7202c0.07378,-1.84628 3.08309,-2.29359 4.57481,-1.62628c2.16522,0.96862 2.6106,2.94742 3.40805,4.94106c0,0 0.118,0.29498 -0.17699,0.41298c-0.29498,0.118 -0.41298,-0.17699 -0.41298,-0.17699c-0.75596,-1.88989 -1.0765,-3.65524 -3.08215,-4.5991c-0.93327,-0.43921 -3.7515,-0.27276 -3.67534,1.04896c-0.00166,3.39398 5.30182,8.69867 3.11294,11.75599c-1.15565,1.5341 -2.6192,1.65717 -3.90076,2.8747c-1.29271,1.22813 -1.43011,5.42636 -1.5302,7.09353c0.1346,0.09916 0.26921,0.19831 0.40381,0.29747l0.27436,0.22863c0,0 0.24407,0.20339 0.04068,0.44745z" fill="#000000"/><path d="M365.19295,307.061c-0.22465,-0.22464 0,-0.4493 0,-0.4493l0.11805,-0.11805c1.4891,-1.4891 1.29302,-2.65564 1.32199,-4.66922c-1.81661,-3.64995 -1.97867,-8.67927 0.1135,-12.53229c1.09265,-4.13663 6.33055,-6.26939 7.37002,-1.07201c0,0 0.06231,0.31153 -0.24923,0.37384c-0.31153,0.06231 -0.37384,-0.24922 -0.37384,-0.24922c-0.91232,-4.56165 -5.31598,-2.40951 -6.15468,1.1775c-2.07355,3.84241 -1.81729,8.53028 -0.08661,12.15949c0.02535,2.20756 0.14808,3.62128 -1.49186,5.26122l-0.11805,0.11805c0,0 -0.22465,0.22464 -0.44931,0z" fill="#420000"/></g><g data-paper-data="{&quot;index&quot;:null}" stroke="none" stroke-width="0.5"><path d="M384.69386,320.65028c-0.24857,-0.22464 0,-0.4493 0,-0.4493l0.21538,-0.1716c0.78231,-1.33188 1.85617,-3.55349 0.84551,-5.30417c-1.41841,-2.58495 -4.08424,-4.00146 -4.8104,-7.18892c-0.23417,-1.02794 1.1155,-2.7223 1.1155,-4.01253c0,-4.52868 -5.15987,-3.17682 -6.64594,-0.23917c0,0 -0.1572,0.28415 -0.47163,0.14208c-0.31441,-0.14208 -0.1572,-0.42624 -0.1572,-0.42624c1.9407,-3.30405 7.97785,-4.84961 7.97785,0.52332c0,0.97365 -1.3332,3.30201 -1.13432,3.86653c1.05324,2.98958 3.19429,4.50286 4.75132,7.04422c1.08246,2.02261 -0.02562,4.26549 -0.84185,5.87901l-0.34707,0.33673c0,0 -0.24856,0.22465 -0.49714,0z" fill="#04ff00"/><path d="M386.09385,322.61259c-0.17,0.27808 -0.47769,0.12444 -0.47769,0.12444l-0.20576,-0.10275c-0.93935,-0.46953 -1.84146,-1.02104 -2.85935,-1.3246c-4.32872,-2.68778 0.35254,-8.70672 0.35254,-12.19432c0,-1.95281 -1.26853,-4.15422 -3.53526,-4.64913c-1.61004,-0.35153 -3.33823,0.79661 -4.70723,0.23126c0,0 -0.31441,-0.14208 -0.1572,-0.42624c0.1572,-0.28415 0.47163,-0.14208 0.47163,-0.14208c1.01163,0.52073 3.17524,-0.63379 4.57326,-0.27706c2.54794,0.65015 4.05787,2.97817 4.05787,5.26324c0,1.08307 0.18817,2.92935 -0.31478,3.91446c-0.98376,1.9269 -3.52165,5.86712 -0.43098,7.70948c1.02773,0.30596 1.94045,0.8654 2.88951,1.3388l0.20576,0.10275c0,0 0.30769,0.15364 0.13769,0.43172z" fill="#1c00ff"/><path d="M384.67237,323.34854c-0.22505,-0.24406 0.04501,-0.44745 0.04501,-0.44745l0.30357,-0.22863c0.14894,-0.09916 0.29788,-0.19831 0.44682,-0.29747c-0.11075,-1.66717 -0.26278,-5.8654 -1.69315,-7.09353c-1.41801,-1.21753 -3.0374,-1.3406 -4.31611,-2.8747c-2.42196,-3.05732 3.44625,-8.36201 3.44441,-11.75599c0.08427,-1.32171 -3.03405,-1.48816 -4.0667,-1.04896c-2.21921,0.94386 -2.57389,2.7092 -3.41034,4.5991c0,0 -0.13056,0.29498 -0.45695,0.17699c-0.3264,-0.118 -0.19583,-0.41298 -0.19583,-0.41298c0.88237,-1.99364 1.37518,-3.97244 3.77094,-4.94106c1.65056,-0.66732 4.9803,-0.22 5.06194,1.62628c0.00169,3.09675 -1.46345,5.08337 -3.17442,7.7202c-0.65985,1.01692 -1.32101,2.62505 -0.41059,3.65519c1.24661,1.50824 2.82213,1.58232 4.243,2.79968c1.57229,1.34712 1.91902,5.99445 1.8405,7.81931c-0.21113,0.17203 -0.42228,0.34406 -0.63341,0.51609l-0.30357,0.22863c0,0 -0.27005,0.20339 -0.4951,-0.04068z" fill="#000000"/><path d="M383.50371,324.00521c-0.24857,0.22464 -0.49716,0 -0.49716,0l-0.13061,-0.11805c-1.81456,-1.63994 -1.67877,-3.05366 -1.65071,-5.26122c1.91497,-3.62921 2.19852,-8.31707 -0.09583,-12.15949c-0.928,-3.58701 -5.80058,-5.73915 -6.81004,-1.1775c0,0 -0.06894,0.31153 -0.41364,0.24922c-0.34471,-0.06231 -0.27577,-0.37384 -0.27577,-0.37384c1.15016,-5.19738 6.9458,-3.06462 8.15479,1.07201c2.31494,3.85303 2.13562,8.88234 0.12558,12.53229c0.03206,2.01358 -0.1849,3.18012 1.46276,4.66922l0.13061,0.11805c0,0 0.24857,0.22465 0,0.4493z" fill="#420000"/></g><g stroke="none" stroke-width="0.5"><path d="M306.93059,339.7125c-0.22465,0.22465 -0.4493,0 -0.4493,0l-0.31368,-0.33673c-0.73768,-1.61352 -1.73912,-3.85641 -0.76084,-5.87901c1.40719,-2.54137 3.3422,-4.05464 4.29408,-7.04422c0.17974,-0.56452 -1.02515,-2.89289 -1.02515,-3.86653c0,-5.37293 5.45617,-3.82737 7.21012,-0.52332c0,0 0.14208,0.28417 -0.14208,0.42624c-0.28417,0.14208 -0.42624,-0.14208 -0.42624,-0.14208c-1.34306,-2.93766 -6.00637,-4.28951 -6.00637,0.23917c0,1.29022 1.21979,2.98459 1.00815,4.01253c-0.65627,3.18746 -3.06556,4.60396 -4.34748,7.18892c-0.9134,1.75068 0.05711,3.97229 0.76414,5.30417l0.19465,0.1716c0,0 0.22465,0.22465 0,0.4493z" fill="#04ff00"/><path d="M305.66534,341.67481c-0.15364,-0.27808 0.12444,-0.43172 0.12444,-0.43172l0.18596,-0.10275c0.85772,-0.4734 1.68261,-1.03284 2.61144,-1.3388c2.79324,-1.84237 0.49958,-5.78258 -0.38951,-7.70948c-0.45455,-0.98511 -0.28448,-2.83139 -0.28448,-3.91446c0,-2.28507 1.36463,-4.61309 3.66736,-5.26324c1.26348,-0.35673 3.21888,0.79779 4.13315,0.27706c0,0 0.28417,-0.14208 0.42624,0.14208c0.14208,0.28417 -0.14208,0.42624 -0.14208,0.42624c-1.23725,0.56535 -2.79914,-0.5828 -4.25424,-0.23126c-2.04859,0.49491 -3.19505,2.69632 -3.19505,4.64913c0,3.4876 4.23075,9.50654 0.31861,12.19432c-0.91993,0.30356 -1.73522,0.85507 -2.58418,1.3246l-0.18596,0.10275c0,0 -0.27808,0.15364 -0.43172,-0.12444z" fill="#1c00ff"/><path d="M306.94999,342.41079c-0.20339,0.24407 -0.44745,0.04068 -0.44745,0.04068l-0.27436,-0.22863c-0.19081,-0.17203 -0.38164,-0.34406 -0.57245,-0.51609c-0.07096,-1.82485 0.2424,-6.47219 1.66338,-7.81931c1.28413,-1.21737 2.70803,-1.29144 3.83468,-2.79968c0.8228,-1.03014 0.22526,-2.63827 -0.37108,-3.65519c-1.54632,-2.63683 -2.87046,-4.62345 -2.86893,-7.7202c0.07378,-1.84628 3.08309,-2.29359 4.57481,-1.62628c2.16522,0.96862 2.6106,2.94742 3.40805,4.94106c0,0 0.118,0.29498 -0.17699,0.41298c-0.29498,0.118 -0.41298,-0.17699 -0.41298,-0.17699c-0.75596,-1.88989 -1.0765,-3.65524 -3.08215,-4.5991c-0.93327,-0.43921 -3.7515,-0.27276 -3.67534,1.04896c-0.00166,3.39398 5.30182,8.69867 3.11294,11.75599c-1.15565,1.5341 -2.6192,1.65717 -3.90076,2.8747c-1.29271,1.22813 -1.43011,5.42636 -1.5302,7.09353c0.1346,0.09916 0.26921,0.19831 0.40381,0.29747l0.27436,0.22863c0,0 0.24407,0.20339 0.04068,0.44745z" fill="#000000"/><path d="M308.00622,343.06746c-0.22465,-0.22464 0,-0.4493 0,-0.4493l0.11805,-0.11805c1.4891,-1.4891 1.29302,-2.65564 1.32199,-4.66922c-1.81661,-3.64995 -1.97867,-8.67927 0.1135,-12.53229c1.09265,-4.13663 6.33055,-6.26939 7.37002,-1.07201c0,0 0.06231,0.31153 -0.24923,0.37384c-0.31153,0.06231 -0.37384,-0.24922 -0.37384,-0.24922c-0.91232,-4.56165 -5.31598,-2.40951 -6.15468,1.1775c-2.07355,3.84241 -1.81729,8.53028 -0.08661,12.15949c0.02535,2.20756 0.14808,3.62128 -1.49186,5.26122l-0.11805,0.11805c0,0 -0.22465,0.22464 -0.44931,0z" fill="#420000"/></g><g stroke="none" stroke-width="0.5"><path d="M325.56923,402.82971c-0.22465,0.22465 -0.4493,0 -0.4493,0l-0.31368,-0.33673c-0.73768,-1.61352 -1.73912,-3.85641 -0.76084,-5.87901c1.40719,-2.54137 3.3422,-4.05464 4.29408,-7.04422c0.17974,-0.56452 -1.02515,-2.89289 -1.02515,-3.86653c0,-5.37293 5.45617,-3.82737 7.21012,-0.52332c0,0 0.14208,0.28417 -0.14208,0.42624c-0.28417,0.14208 -0.42624,-0.14208 -0.42624,-0.14208c-1.34306,-2.93766 -6.00637,-4.28951 -6.00637,0.23917c0,1.29022 1.21979,2.98459 1.00815,4.01253c-0.65627,3.18746 -3.06556,4.60396 -4.34748,7.18892c-0.9134,1.75068 0.05711,3.97229 0.76414,5.30417l0.19465,0.1716c0,0 0.22465,0.22465 0,0.4493z" fill="#04ff00"/><path d="M324.30398,404.79202c-0.15364,-0.27808 0.12444,-0.43172 0.12444,-0.43172l0.18596,-0.10275c0.85772,-0.4734 1.68261,-1.03284 2.61144,-1.3388c2.79324,-1.84237 0.49958,-5.78258 -0.38951,-7.70948c-0.45455,-0.98511 -0.28448,-2.83139 -0.28448,-3.91446c0,-2.28507 1.36463,-4.61309 3.66736,-5.26324c1.26348,-0.35673 3.21888,0.79779 4.13315,0.27706c0,0 0.28417,-0.14208 0.42624,0.14208c0.14208,0.28417 -0.14208,0.42624 -0.14208,0.42624c-1.23725,0.56535 -2.79914,-0.5828 -4.25424,-0.23126c-2.04859,0.49491 -3.19505,2.69632 -3.19505,4.64913c0,3.4876 4.23075,9.50654 0.31861,12.19432c-0.91993,0.30356 -1.73522,0.85507 -2.58418,1.3246l-0.18596,0.10275c0,0 -0.27808,0.15364 -0.43172,-0.12444z" fill="#1c00ff"/><path d="M325.58864,405.528c-0.20339,0.24407 -0.44745,0.04068 -0.44745,0.04068l-0.27436,-0.22863c-0.19081,-0.17203 -0.38164,-0.34406 -0.57245,-0.51609c-0.07096,-1.82485 0.2424,-6.47219 1.66338,-7.81931c1.28413,-1.21737 2.70803,-1.29144 3.83468,-2.79968c0.8228,-1.03014 0.22526,-2.63827 -0.37108,-3.65519c-1.54632,-2.63683 -2.87046,-4.62345 -2.86893,-7.7202c0.07378,-1.84628 3.08309,-2.29359 4.57481,-1.62628c2.16522,0.96862 2.6106,2.94742 3.40805,4.94106c0,0 0.118,0.29498 -0.17699,0.41298c-0.29498,0.118 -0.41298,-0.17699 -0.41298,-0.17699c-0.75596,-1.88989 -1.0765,-3.65524 -3.08215,-4.5991c-0.93327,-0.43921 -3.7515,-0.27276 -3.67534,1.04896c-0.00166,3.39398 5.30182,8.69867 3.11294,11.75599c-1.15565,1.5341 -2.6192,1.65717 -3.90076,2.8747c-1.29271,1.22813 -1.43011,5.42636 -1.5302,7.09353c0.1346,0.09916 0.26921,0.19831 0.40381,0.29747l0.27436,0.22863c0,0 0.24407,0.20339 0.04068,0.44745z" fill="#000000"/><path d="M326.64486,406.18467c-0.22465,-0.22464 0,-0.4493 0,-0.4493l0.11805,-0.11805c1.4891,-1.4891 1.29302,-2.65564 1.32199,-4.66922c-1.81661,-3.64995 -1.97867,-8.67927 0.1135,-12.53229c1.09265,-4.13663 6.33055,-6.26939 7.37002,-1.07201c0,0 0.06231,0.31153 -0.24923,0.37384c-0.31153,0.06231 -0.37384,-0.24922 -0.37384,-0.24922c-0.91232,-4.56165 -5.31598,-2.40951 -6.15468,1.1775c-2.07355,3.84241 -1.81729,8.53028 -0.08661,12.15949c0.02535,2.20756 0.14808,3.62128 -1.49186,5.26122l-0.11805,0.11805c0,0 -0.22465,0.22464 -0.44931,0z" fill="#420000"/></g><g data-paper-data="{&quot;index&quot;:null}" stroke="none" stroke-width="0.5"><path d="M413.70458,241.5713c-0.22465,-0.2434 0,-0.4868 0,-0.4868l0.19465,-0.18592c0.70703,-1.44305 1.67754,-3.85012 0.76414,-5.74692c-1.28191,-2.80073 -3.6912,-4.33548 -4.34748,-7.789c-0.21164,-1.11374 1.00815,-2.94954 1.00815,-4.34746c0,-4.90671 -4.66331,-3.44201 -6.00637,-0.25913c0,0 -0.14208,0.30787 -0.42624,0.15393c-0.28415,-0.15393 -0.14208,-0.46183 -0.14208,-0.46183c1.75394,-3.57985 7.21012,-5.25443 7.21012,0.567c0,1.05492 -1.2049,3.57764 -1.02515,4.18928c0.95188,3.23913 2.88689,4.87873 4.29408,7.63223c0.97829,2.19143 -0.02315,4.62155 -0.76084,6.36975l-0.31368,0.36484c0,0 -0.22464,0.24341 -0.4493,0z" fill="#04ff00"/><path d="M414.96985,243.6974c-0.15364,0.3013 -0.43172,0.13482 -0.43172,0.13482l-0.18596,-0.11132c-0.84896,-0.50872 -1.66425,-1.10627 -2.58418,-1.43517c-3.91214,-2.91214 0.31861,-9.4335 0.31861,-13.21222c0,-2.11582 -1.14645,-4.50099 -3.19505,-5.03721c-1.4551,-0.38088 -3.01698,0.86311 -4.25424,0.25057c0,0 -0.28415,-0.15393 -0.14208,-0.46183c0.14208,-0.30787 0.42624,-0.15393 0.42624,-0.15393c0.91428,0.56419 2.86967,-0.6867 4.13315,-0.30019c2.30273,0.70443 3.66736,3.22677 3.66736,5.70258c0,1.17347 0.17006,3.17386 -0.28448,4.24121c-0.88909,2.08775 -3.18275,6.35686 -0.38951,8.35302c0.92883,0.33151 1.75371,0.93763 2.61144,1.45056l0.18596,0.11132c0,0 0.27808,0.16646 0.12444,0.46776z" fill="#1c00ff"/><path d="M413.68515,244.49479c-0.20339,-0.26443 0.04068,-0.4848 0.04068,-0.4848l0.27436,-0.24772c0.1346,-0.10743 0.26921,-0.21487 0.40381,-0.3223c-0.10009,-1.80634 -0.23749,-6.35501 -1.5302,-7.68566c-1.28155,-1.31916 -2.7451,-1.4525 -3.90076,-3.11466c-2.18888,-3.31252 3.11461,-9.06002 3.11294,-12.7373c0.07616,-1.43204 -2.74207,-1.61239 -3.67534,-1.13652c-2.00565,1.02265 -2.32619,2.93534 -3.08215,4.983c0,0 -0.118,0.31961 -0.41298,0.19177c-0.29498,-0.12784 -0.17699,-0.44745 -0.17699,-0.44745c0.79745,-2.16006 1.24283,-4.30404 3.40805,-5.3535c1.49172,-0.72302 4.50103,-0.23837 4.57481,1.76202c0.00152,3.35525 -1.32261,5.50769 -2.86893,8.36463c-0.59634,1.10181 -1.19388,2.84418 -0.37108,3.9603c1.12664,1.63414 2.55054,1.71439 3.83468,3.03339c1.42099,1.45957 1.73435,6.49484 1.66338,8.47201c-0.19081,0.18639 -0.38164,0.37278 -0.57245,0.55917l-0.27436,0.24772c0,0 -0.24406,0.22037 -0.44745,-0.04407z" fill="#000000"/><path d="M412.62896,245.20628c-0.22465,0.2434 -0.44931,0 -0.44931,0l-0.11805,-0.12789c-1.63994,-1.77683 -1.51721,-3.30856 -1.49186,-5.70039c1.73069,-3.93215 1.98695,-9.01133 -0.08661,-13.17449c-0.8387,-3.88642 -5.24236,-6.21822 -6.15468,-1.27579c0,0 -0.06231,0.33753 -0.37384,0.27002c-0.31154,-0.06751 -0.24923,-0.40505 -0.24923,-0.40505c1.03948,-5.63123 6.27737,-3.32044 7.37002,1.16149c2.09217,4.17466 1.9301,9.62379 0.1135,13.57841c0.02897,2.18166 -0.16711,3.44558 1.32199,5.05898l0.11805,0.12789c0,0 0.22465,0.24341 0,0.4868z" fill="#420000"/></g></g><path d="M-83.28164,469.27363v-509.00901h163.66366v509.00901z" fill="#7f7396" stroke="none" stroke-width="0"/><g fill="#8c0000" stroke="none" stroke-width="0"><path d="M470.5984,390.73309c0,0 9.41778,-97.8111 9.87281,-139.28c0.27511,-25.072 -39.07828,12.85891 -37.31447,-15.36363c1.20658,-19.30634 2.87807,-38.2912 5.17398,-55.50621c2.1178,-15.87954 -41.18721,12.05753 -39.23858,-3.40214c2.25139,-17.86161 4.32942,-33.96418 6.09448,-49.79241c2.15851,-19.35649 -37.2113,5.72261 -35.95623,-11.61155c1.19965,-16.56877 1.89093,-31.7987 1.89093,-44.89645c0,-19.67707 -39.50044,20.91276 -39.50044,8.08291c0,-45.90288 0,-109.69668 0,-109.69668h173.92127v421.46621z" data-paper-data="{&quot;index&quot;:null}"/><path d="M-35.54214,390.7331v-421.46621h173.92127c0,0 0,63.79382 0,109.69668c0,12.82987 -39.50044,-27.76 -39.50044,-8.08293c0,13.09776 0.69127,28.32771 1.89093,44.89648c1.25507,17.33418 -38.11474,-7.74491 -35.95623,11.61155c1.76507,15.82823 3.84311,31.9308 6.0945,49.79241c1.94863,15.45968 -41.35637,-12.4774 -39.23858,3.40213c2.2959,17.215 3.96739,36.19987 5.17398,55.50621c1.76382,28.22255 -37.58958,-9.70838 -37.31447,15.36363c0.45503,41.46889 9.87281,139.28002 9.87281,139.28002z" data-paper-data="{&quot;index&quot;:null}"/><path d="M130.68471,80.66762v-111.40076h214.37533v111.40076z"/></g><path d="M-36.66667,395.61037v-431.22073h553.33333v431.22073z" fill-opacity="0.62745" fill="#000000" stroke="none" stroke-width="0"/></g></g></svg>