<svg version="1.1" xmlns="http://www.w3.org/2000/svg" xmlns:xlink="http://www.w3.org/1999/xlink" width="493.95567" height="55.5067" viewBox="0,0,493.95567,55.5067"><g transform="translate(10.87084,-307.64953)"><g data-paper-data="{&quot;isPaintingLayer&quot;:true}" fill-rule="nonzero" stroke-linecap="butt" stroke-linejoin="miter" stroke-miterlimit="10" stroke-dasharray="" stroke-dashoffset="0" style="mix-blend-mode: normal"><path d="M-3.30557,358.65623l62,-46l365.5,-2.5l52.5,48.5z" fill="#9c9c9c" stroke="#000000" stroke-width="5"/><path d="M155.07745,358.41203c-0.75579,2.38302 -3.13881,1.62723 -3.13881,1.62723l-2.47644,-1.07972c-1.29813,-1.32966 -2.82844,-2.46684 -3.89439,-3.98897c-0.60466,-0.86342 -0.46766,-2.09021 -1,-3c-0.88726,-1.51638 -2.5324,-2.44564 -3.65795,-3.79464c-3.83026,-4.59064 -7.62851,-9.23875 -11.21543,-14.01969c0,0 -0.06902,-0.09203 -0.15771,-0.25141c-0.54033,0.11044 -1.08496,0.19553 -1.63609,0.24288c-1.39852,0.12017 -7.84556,-0.04639 -9.5408,-0.08166c-4.21212,2.61342 -8.51877,3.41396 -13.28154,4.70917c-2.25942,0.61443 -8.29786,2.3993 -10.53921,2.37618c-3.77531,-0.03894 -7.67898,-3.29643 -11.29072,-4.03529c-2.79349,-0.57147 -5.70259,0.04012 -8.55394,0.04012c-4.66667,0 -9.33333,0 -14,0c-6.88225,0 -14.71897,-1.47876 -20.88197,1.73607c0,0 -2.23607,1.11803 -3.3541,-1.11803c-1.11803,-2.23607 1.11803,-3.3541 1.11803,-3.3541c1.51455,-0.73235 2.92317,-1.74514 4.54365,-2.19705c2.75316,-0.76779 5.71617,-0.06688 8.57438,-0.06688c6.33333,0 12.66667,0 19,0c4.46835,0 10.05856,-0.83872 14.44606,0.04012c2.98887,0.59868 7.52853,3.99273 10.70928,3.96471c1.14605,-0.01009 8.12112,-1.9941 8.91579,-2.21044c4.84763,-1.31972 8.90424,-2.18183 13.26346,-4.70421c3.48607,-0.05549 6.98357,0.19345 10.4592,-0.08166c2.65706,-0.21031 5.13113,-1.47358 7.75051,-1.96664c2.20512,-0.41508 4.58297,0.71331 6.73123,0.06539c1.15065,-0.34704 1.85949,-1.62094 3,-2c0.87589,-0.29111 1.91138,0.42735 2.76775,0.08303c0.87475,-0.35171 1.10581,-1.70113 2,-2c1.33825,-0.44729 2.8743,0.30031 4.23225,-0.08303c1.03105,-0.29106 1.66861,-1.37238 2.62608,-1.85306c0.23789,-0.11943 6.47623,-2.18412 6.69792,-2.22193c2.48091,-0.42312 5.0299,-0.3913 7.49877,-0.87985l3.79643,-1.89484c0,0 2.24241,-1.10526 3.34767,1.13715l0.00003,-0.00001c1.10526,2.24241 -1.13715,3.34767 -1.13715,3.34767l-4.39776,2.144c-2.73726,0.55206 -5.55061,0.63475 -8.30704,1.08131c-3.32957,0.53941 -5.67707,3.05834 -8.676,3.92501c-1.20684,0.34877 -2.57565,-0.47924 -3.76775,-0.08303c-0.89469,0.29736 -1.12406,1.65127 -2,2c-1.00134,0.39865 -2.21006,-0.25862 -3.23225,0.08303c-1.13987,0.38098 -1.84052,1.68369 -3,2c-2.3376,0.63771 -4.89347,-0.41315 -7.26877,0.06539c-0.49197,0.09911 -0.98001,0.21934 -1.46577,0.35142c3.23361,4.24366 6.62955,8.37969 10.04161,12.47946c1.28118,1.5394 3.04883,2.6889 4.0951,4.39667c0.55067,0.89882 0.40329,2.13107 1,3c0.83519,1.21622 2.11778,2.05473 3.17667,3.08209l0.45249,-0.15079c0,0 2.38302,0.75579 1.62723,3.13881z" fill="#ffffff" stroke="none" stroke-width="0.5"/><path d="M316.69443,355.15623c-2.5,0 -2.5,-2.5 -2.5,-2.5l0.41987,-0.61325c-1.26573,-1.91358 -3.45528,-3.27034 -4.22957,-5.43004c-0.44998,-1.25511 0.36069,-2.71638 0,-4c-0.51009,-1.81531 -3.41649,-2.20694 -4,-4c-0.51576,-1.58486 0.38219,-3.37775 0,-5c-0.0381,-0.16171 -0.12424,-0.29338 -0.23932,-0.40693c-0.84733,0.29752 -1.70354,0.56281 -2.58038,0.75398c-5.92693,1.29219 -12.4811,-0.48321 -18.47014,0.16396c-2.11613,0.22867 -3.61001,2.41314 -5.676,2.92501c-4.51417,1.11843 -9.72416,-0.48777 -14.324,0.07499c-2.96442,0.36268 -3.42492,2.20364 -6.24019,3.74673c-2.48976,1.36468 -5.68185,0.48764 -8.43581,1.17828c-1.16575,0.29235 -1.83351,1.71062 -3,2c-1.75343,0.43498 -3.62437,-0.11886 -5.419,0.08854c-4.66513,0.53914 -9.28124,1.30302 -13.32469,3.81831c-1.24968,0.29197 -2.58913,0.32675 -3.74903,0.87592c-2.9786,1.41027 -5.30179,5.99779 -7.32263,8.43858c-1.67244,2.01999 -2.59592,2.56038 -4.44505,3.75742c-0.11186,0.6964 -0.57191,2.12849 -2.46407,2.12849c-2.5,0 -2.5,-2.5 -2.5,-2.5l1.11325,-3.08013c4.40566,-2.91411 6.85655,-6.99543 10.61898,-10.68764c0.83196,-0.81644 1.502,-1.86965 2.53602,-2.40773c1.30019,-0.67659 2.83398,-0.74939 4.25097,-1.12408c4.31999,-2.74753 9.65693,-3.64864 14.67531,-4.18169c1.51874,-0.16132 3.10006,0.46194 4.581,0.08854c1.16538,-0.29384 1.83384,-1.7093 3,-2c3.47426,-0.86606 4.80962,0.83218 7.56419,-0.82172c2.52885,-1.51837 4.84608,-3.79425 7.75981,-4.25327c4.32217,-0.68091 9.48902,1.1341 13.676,0.07499c2.27242,-0.57482 4.00197,-2.7549 6.324,-3.07499c5.87161,-0.8094 12.45356,1.1935 18.24509,-0.12213c2.98799,-0.67877 5.7587,-2.13161 8.73154,-2.87396c7.78255,-0.76278 15.26056,-2.75347 22.46712,-5.84589c4.60136,-1.9745 9.58529,-4.94817 14.47625,-6.1437c1.07626,-0.26308 2.22411,0.08503 3.32342,-0.05307c2.17587,-0.27335 4.3455,-0.47335 6.5134,-0.61931c-0.58143,-0.49321 -1.34323,-1.49063 -0.59242,-2.99225c1.11803,-2.23607 3.3541,-1.11803 3.3541,-1.11803c1.15212,0.60098 2.18732,1.52343 3.45635,1.80295c0.67244,0.14811 6.70469,-0.25922 7.82607,-0.0346c2.32904,0.46653 4.8753,1.16693 7.42801,1.9677c0.05717,0.00001 0.11435,0.00002 0.17153,0.00002c0,0 0.97009,0 1.70169,0.6043c2.49879,0.82721 4.95399,1.71975 7.16568,2.55099c0.16438,0.06178 8.32753,4.14005 8.48002,4.23887c1.32788,0.86055 2.26866,2.28444 3.68168,2.9966c1.40783,0.70955 3.09804,0.63902 4.5829,1.16875c3.64846,1.30158 7.49771,3.70227 10.72439,5.82764c2.03202,1.33845 4.6671,3.98184 7.23802,4.67973c0.93241,0.25311 1.95957,-0.24999 2.89839,-0.02177c1.63646,0.39782 3.12969,1.24505 4.69453,1.86757c2.40627,0.0853 4.75587,0.75662 7.13815,1.10605c3.55272,0.52111 7.49027,-0.02067 11.095,0.01355l3.39011,1.09601c0,0 2.37171,0.79057 1.58114,3.16228c-0.79057,2.37171 -3.16228,1.58114 -3.16228,1.58114l-2.60989,-0.90399c-3.55376,0.04413 -7.38655,0.50405 -10.905,0.01355c-2.53166,-0.35293 -5.02401,-1.05474 -7.57708,-1.18004c-1.53008,-0.61544 -2.98761,-1.45711 -4.59023,-1.84633c-1.00469,-0.24401 -2.11048,0.27251 -3.10161,-0.02177c-4.37796,-1.29987 -5.1152,-2.9115 -8.76198,-5.32027c-2.19655,-1.45087 -4.55781,-2.63595 -6.85781,-3.9165c-2.47956,-1.38052 -5.49143,-1.56385 -8.0262,-2.84016c-1.56402,-0.78752 -2.65768,-2.29777 -4.127,-3.25035c-2.35172,-1.52464 -4.89493,-2.77918 -7.51998,-3.76113c-2.49709,-0.93407 -5.28883,-1.94565 -8.0905,-2.84528c-9.00617,-0.01004 -17.79443,-0.13794 -26.6909,0.96819c-0.94963,0.11807 -1.94027,-0.23757 -2.87078,-0.01423c-4.53837,1.08928 -9.26275,4.0324 -13.52375,5.8563c-7.52066,3.21919 -15.40066,5.39082 -23.53288,6.15411c-0.40544,0.1015 -0.80682,0.21734 -1.20531,0.34329c0.03427,0.07648 0.0648,0.15513 0.09118,0.23619c0.51576,1.58486 -0.38219,3.37775 0,5c0.4324,1.83537 3.34069,2.2334 4,4c0.4662,1.24917 -0.38577,2.72369 0,4c0.205,0.67821 1.17276,0.82522 1.62366,1.37174c0.81712,0.9904 1.43118,2.13215 2.14677,3.19822l0.41987,3.38675c0,0 0,2.5 -2.5,2.5z" fill="#ffffff" stroke="none" stroke-width="0.5"/></g></g></svg>