<svg version="1.1" xmlns="http://www.w3.org/2000/svg" xmlns:xlink="http://www.w3.org/1999/xlink" width="136.66666" height="126.16667" viewBox="0,0,136.66666,126.16667"><g transform="translate(-171.66668,-180.88343)"><g data-paper-data="{&quot;isPaintingLayer&quot;:true}" fill-rule="nonzero" stroke="none" stroke-width="0" stroke-linecap="butt" stroke-linejoin="miter" stroke-miterlimit="10" stroke-dasharray="" stroke-dashoffset="0" style="mix-blend-mode: normal"><g><path d="M172.45536,190.42022l21,-9.33333l113,0.66667l-18.33333,9.33333z" fill="#2c1162"/><path d="M230.00002,181.56904h13l-9,8.66667h-14z" fill="#000000"/><path d="M180.16669,186.65238l4.75,-2.5l115.41667,1.25l-6.5,3z" fill="#000000"/></g><g><path d="M287.62557,307.0501v-116.04635l19.66667,-10.12032l1,102.55258z" fill="#461b9d"/><path d="M288.33333,257.4797v-14.16845l19.33334,-11.13235l0.66667,13.15642z" fill="#000000"/><path d="M293.58333,188.66152l7,-3.79512l1,106.68505l-7.25,8.09626z" fill="#000000"/></g><g><path d="M171.95893,306.55008v-116h116v116z" fill="#5821c5"/><path d="M171.66669,256.90238v-14h116.66667v14z" fill="#000000"/><path d="M219.66669,190.2357h14v116.66667h-14z" fill="#000000"/></g></g></g></svg>