<svg version="1.1" xmlns="http://www.w3.org/2000/svg" xmlns:xlink="http://www.w3.org/1999/xlink" width="629" height="292.70817" viewBox="0,0,629,292.70817"><defs><linearGradient x1="282.94435" y1="109.66483" x2="282.94435" y2="205.96595" gradientUnits="userSpaceOnUse" id="color-1"><stop offset="0" stop-color="#000000"/><stop offset="1" stop-color="#bbbbbb"/></linearGradient><linearGradient x1="104.31434" y1="255.43253" x2="120.18601" y2="297.04061" gradientUnits="userSpaceOnUse" id="color-2"><stop offset="0" stop-color="#000000"/><stop offset="1" stop-color="#000000" stop-opacity="0"/></linearGradient><linearGradient x1="366.1471" y1="254.36252" x2="350.27543" y2="295.9706" gradientUnits="userSpaceOnUse" id="color-3"><stop offset="0" stop-color="#000000"/><stop offset="1" stop-color="#000000" stop-opacity="0"/></linearGradient><linearGradient x1="194.94435" y1="110.19984" x2="194.94435" y2="204.36093" gradientUnits="userSpaceOnUse" id="color-4"><stop offset="0" stop-color="#000000"/><stop offset="1" stop-color="#bbbbbb"/></linearGradient><radialGradient cx="240.54519" cy="176.79373" r="69.08298" gradientUnits="userSpaceOnUse" id="color-5"><stop offset="0" stop-color="#000000" stop-opacity="0"/><stop offset="1" stop-color="#000000"/></radialGradient><linearGradient x1="374.14135" y1="152.93896" x2="405.64135" y2="152.93896" gradientUnits="userSpaceOnUse" id="color-6"><stop offset="0" stop-color="#000000"/><stop offset="1" stop-color="#000000" stop-opacity="0"/></linearGradient><linearGradient x1="338.29334" y1="152.94843" x2="373.29334" y2="152.94843" gradientUnits="userSpaceOnUse" id="color-7"><stop offset="0" stop-color="#000000" stop-opacity="0"/><stop offset="1" stop-color="#000000"/></linearGradient><linearGradient x1="95.88577" y1="144.38834" x2="140.38577" y2="144.38834" gradientUnits="userSpaceOnUse" id="color-8"><stop offset="0" stop-color="#000000"/><stop offset="1" stop-color="#000000" stop-opacity="0"/></linearGradient><linearGradient x1="59.88577" y1="150.00591" x2="97.38577" y2="150.00591" gradientUnits="userSpaceOnUse" id="color-9"><stop offset="0" stop-color="#000000" stop-opacity="0"/><stop offset="1" stop-color="#000000"/></linearGradient><linearGradient x1="250" y1="31.30989" x2="250" y2="175.76158" gradientUnits="userSpaceOnUse" id="color-10"><stop offset="0" stop-color="#000000"/><stop offset="1" stop-color="#000000" stop-opacity="0"/></linearGradient></defs><g transform="translate(64.5,-31.3099)"><g data-paper-data="{&quot;isPaintingLayer&quot;:true}" fill-rule="nonzero" stroke-linejoin="miter" stroke-miterlimit="10" stroke-dasharray="" stroke-dashoffset="0" style="mix-blend-mode: normal"><path d="M-7.34161,321.1241l9.58803,-21.8775l57.71758,-38.84872l-5.66461,-53.28823l-53.66411,26.95282l-8.97689,-175.17268h496l-7.11869,176.34883l-52.63724,-26.24473l-6.16773,50.90253l58.86415,40.33621l8.05951,19.82149l-115.00519,-74.20675l-65.08666,0.08893l-1.32889,-137.31894l-133.67226,-0.61155l0.00137,138.11223l-75.00096,0.10522z" fill="#69421e" stroke="#000000" stroke-width="2" stroke-linecap="butt"/><g data-paper-data="{&quot;index&quot;:null}"><path d="M-0.61423,302.97096l2.5,-69.0158l53,-27.28532l6.5,53.50062z" fill="#8c8c8c" stroke="none" stroke-width="0" stroke-linecap="butt"/><path d="M60.78856,260.62099h-58.5" fill="none" stroke="#000000" stroke-width="2" stroke-linecap="round"/><path d="M26.78856,221.65001v39.59046l-26,16.58519" fill="none" stroke="#000000" stroke-width="2" stroke-linecap="round"/></g><path d="M261.19435,202.22091l0.5,-57.24566l44.5,-35.84542l0.5,135.89159z" fill="url(#color-1)" stroke="none" stroke-width="0" stroke-linecap="butt"/><path d="M174.88229,245.82086l42.5,-42.26549l44.5,-0.53501l44.5,42.8005z" fill="#d6c2be" stroke="none" stroke-width="0" stroke-linecap="butt"/><path d="M96.93726,246.50072v-187.54245h277v187.54246h-67.78701l0.17749,-136.49551l-131.17749,0.31091v136.18461z" fill="#aca65e" stroke="#000000" stroke-width="2" stroke-linecap="butt"/><path d="M-9.89807,321.69011l107.37027,-75.76817h276.36377l117.16596,74.70019z" fill="#d6c2be" stroke="#000000" stroke-width="2" stroke-linecap="butt"/><path d="M312.76631,179.4836v-42.73429h38.33001v42.7343z" fill="#ffffff" stroke="#000000" stroke-width="2" stroke-linecap="butt"/><path d="M326.96413,236.54029v-42.17071h34.75844v42.17072z" fill="#ffffff" stroke="#000000" stroke-width="2" stroke-linecap="butt"/><path d="M103.98312,157.36028v-32.05072h19.165v32.05072z" fill="#ffffff" stroke="#000000" stroke-width="2" stroke-linecap="butt"/><path d="M104.13719,238.07269v-42.73429h22.75844v42.7343z" fill="#ffffff" stroke="#000000" stroke-width="2" stroke-linecap="butt"/><path d="M125.65408,121.27651v-42.73429h20.36282v42.7343z" fill="#ffffff" stroke="#000000" stroke-width="2" stroke-linecap="butt"/><path d="M172.38261,102.65558l-19.38598,-22.37644l7.81955,-4.52856l19.38598,22.37644z" fill="#000000" stroke="#000000" stroke-width="2" stroke-linecap="butt"/><path d="M304.09662,97.23802l19.38599,-20.15734l7.81956,4.07945l-19.38598,20.15734z" data-paper-data="{&quot;index&quot;:null}" fill="#000000" stroke="#000000" stroke-width="2" stroke-linecap="butt"/><path d="M331.8538,150.13375v-49.41154h27.54969v49.41154z" fill="#ffffff" stroke="#000000" stroke-width="2" stroke-linecap="butt"/><path d="M128.0497,194.34148v-25.37349h16.76937v25.37349z" fill="#ffffff" stroke="#000000" stroke-width="2" stroke-linecap="butt"/><path d="M385.99284,178.2366l2.77066,-95.06614l65.69695,13.90794l-2.83609,102.96843z" fill="#00fbff" stroke="#000000" stroke-width="2" stroke-linecap="butt"/><g stroke-linecap="butt"><path d="M223.78128,103.05495l17.5,-24.99083l17.10188,24.99083z" fill="#ff0000" stroke="#000000" stroke-width="2"/><text transform="translate(237.62176,100.90229) scale(0.68248,0.54084)" font-size="40" xml:space="preserve" fill="#000000" fill-rule="nonzero" stroke="none" stroke-width="1" stroke-linecap="butt" stroke-linejoin="miter" stroke-miterlimit="10" stroke-dasharray="" stroke-dashoffset="0" font-family="Sans Serif" font-weight="normal" text-anchor="start" style="mix-blend-mode: normal"><tspan x="0" dy="0">!</tspan></text></g><path d="M147.15025,247.45241l-81,73.83086" fill="none" stroke="#000000" stroke-width="2" stroke-linecap="round"/><g stroke-linecap="butt"><g data-paper-data="{&quot;index&quot;:null}" fill="#663f3f" stroke="#000000" stroke-width="0.5"><path d="M437.08511,130.94756l0.99416,-1.1488l2.30065,2.27949l-0.99416,1.14881z"/><path d="M437.59634,132.82583l0.99416,-1.14881l2.30065,2.27949l-0.99416,1.14881z"/><path d="M436.51852,128.55718l0.99416,-1.1488l2.30065,2.27949l-0.99416,1.14881z"/><path d="M435.06277,130.23936l0.99417,-1.14881l2.30065,2.27949l-0.99416,1.14881z"/><path d="M439.08759,131.10262l0.99417,-1.14881l2.30065,2.2795l-0.99416,1.14881z"/><path d="M435.88215,133.48986l4.11868,-4.75934l1.22701,1.21573l-4.11868,4.75934z"/></g><g fill="#663f3f" stroke="#000000" stroke-width="0.5"><path d="M409.27476,124.30738l-0.30048,-1.53231l3.06868,-0.68896l0.30048,1.53231z"/><path d="M407.93358,125.63693l-0.30048,-1.53231l3.06868,-0.68896l0.30049,1.53231z"/><path d="M410.90956,122.56912l-0.30049,-1.53231l3.06868,-0.68895l0.30048,1.53231z"/><path d="M411.34955,124.81287l-0.30049,-1.53231l3.06868,-0.68896l0.30049,1.53231z"/><path d="M407.48285,123.33847l-0.30048,-1.53231l3.06868,-0.68897l0.30049,1.53231z"/><path d="M410.51662,126.82818l-1.24484,-6.34815l1.63663,-0.36744l1.24484,6.34815z"/></g><path d="M441.60755,149.56781c-2.98168,11.52432 -14.69154,18.45426 -26.11454,15.07047c-11.423,-3.38379 -17.02739,-15.95325 -14.04571,-27.47756c1.0261,-3.9659 1.62935,-7.77661 4.2426,-10.62207c4.98045,-5.42302 13.6541,-7.96065 21.14606,-5.74133c11.423,3.3838 17.75327,17.24619 14.77159,28.77049z" fill="#00c3c5" stroke="#929292" stroke-width="1"/><path d="M414.95523,137.64871c-0.76887,2.20696 -2.74265,3.45739 -4.40856,2.7929c-1.66592,-0.66449 -2.39311,-2.99225 -1.62425,-5.19923c0.76887,-2.20696 2.74265,-3.4574 4.40856,-2.79291c1.66592,0.66449 2.39311,2.99227 1.62425,5.19924z" fill="#000000" stroke="none" stroke-width="0"/><path d="M433.44069,145.50734c-0.76887,2.20696 -2.74265,3.45739 -4.40856,2.7929c-1.66592,-0.66449 -2.39311,-2.99226 -1.62425,-5.19924c0.76887,-2.20696 2.74265,-3.45739 4.40856,-2.7929c1.66592,0.66449 2.39311,2.99227 1.62425,5.19924z" fill="#000000" stroke="none" stroke-width="0"/><path d="M409.27955,135.65781c0.40659,-1.57149 1.92679,-2.49276 3.39547,-2.05771c1.46867,0.43506 2.32966,2.06169 1.92307,3.6332c-0.40659,1.57149 -1.92679,2.49276 -3.39547,2.05771c-1.46867,-0.43506 -2.32966,-2.06169 -1.92307,-3.6332z" fill="#fff1f1" stroke="none" stroke-width="0"/><path d="M427.91276,143.56019c0.40659,-1.57149 1.92679,-2.49277 3.39547,-2.05771c1.46867,0.43506 2.32966,2.06169 1.92307,3.6332c-0.40659,1.57149 -1.92679,2.49277 -3.39547,2.05771c-1.46867,-0.43506 -2.32966,-2.06169 -1.92307,-3.6332z" fill="#fff1f1" stroke="none" stroke-width="0"/><path d="M411.0115,136.34105c0.11294,-0.43653 0.53522,-0.69243 0.94319,-0.57159c0.40797,0.12085 0.64713,0.57269 0.53419,1.00922c-0.11294,0.43653 -0.53522,0.69244 -0.94319,0.57159c-0.40797,-0.12085 -0.64713,-0.57269 -0.53419,-1.00923z" fill="#000000" stroke="none" stroke-width="0.5"/><path d="M429.45606,144.35775c0.11294,-0.43653 0.53522,-0.69243 0.94319,-0.57159c0.40797,0.12085 0.64713,0.57269 0.53419,1.00922c-0.11294,0.43653 -0.53522,0.69244 -0.94319,0.57159c-0.40797,-0.12085 -0.64713,-0.57269 -0.53419,-1.00923z" fill="#000000" stroke="none" stroke-width="0.5"/><path d="M429.47698,153.17398c0.14744,0.80481 -0.60472,0.96257 -0.60472,0.96257l-0.54058,0.09991c-2.77017,1.15211 -5.81343,1.59884 -8.54415,2.77048c-4.00584,1.07987 -6.47704,-3.21149 -8.72284,-5.98786c-1.22577,-1.51536 -2.57064,-3.08798 -2.49207,-5.19202c0,0 0.05566,-0.81798 0.82011,-0.75841c0.76445,0.05955 0.70878,0.87753 0.70878,0.87753c-0.18293,1.48117 1.27712,2.95165 2.12695,4.00527c1.58383,1.96364 4.08475,6.52956 7.07412,5.49946c2.74614,-1.1284 5.71371,-1.57819 8.46988,-2.74168l0.80492,-0.18231c0,0 0.75215,-0.15776 0.89959,0.64706z" fill="#000000" stroke="none" stroke-width="0.5"/><path d="M406.05159,119.75723c0,0 -2.63472,-6.28933 -0.29393,-7.57001c2.34079,-1.28069 5.79756,5.17734 5.79756,5.17734c0,0 1.11185,3.10248 -1.22894,4.38318c-2.34079,1.28069 -4.27469,-1.99051 -4.27469,-1.99051z" fill="#00c3c5" stroke="#000000" stroke-width="0"/><path d="M439.67693,130.10178c-1.39199,-2.38643 1.05267,-4.43538 1.05267,-4.43538c0,0 6.0685,-3.63641 7.46049,-1.24996c1.39199,2.38643 -3.8904,6.33049 -3.8904,6.33049c0,0 -3.23077,1.74129 -4.62277,-0.64515z" data-paper-data="{&quot;index&quot;:null}" fill="#00c3c5" stroke="#000000" stroke-width="0"/><path d="M407.3435,119.54413c0,0 -1.54992,-3.6998 -0.17291,-4.45319c1.37701,-0.75339 3.41051,3.04566 3.41051,3.04566c0,0 0.65407,1.82509 -0.72295,2.57848c-1.37701,0.75339 -2.51466,-1.17096 -2.51466,-1.17096z" fill="#00a5a8" stroke="#000000" stroke-width="0"/><path d="M440.72246,129.5175c-0.81887,-1.40386 0.61926,-2.60919 0.61926,-2.60919c0,0 3.5699,-2.13918 4.38876,-0.73531c0.81887,1.40386 -2.2886,3.72403 -2.2886,3.72403c0,0 -1.90055,1.02434 -2.71942,-0.37953z" data-paper-data="{&quot;index&quot;:null}" fill="#00a5a8" stroke="#000000" stroke-width="0"/><path d="M422.4728,145.96771c-0.41254,0.94364 -1.83364,1.16466 -3.17412,0.4937c-1.34047,-0.67096 -2.09271,-1.97985 -1.68016,-2.9235c0.41254,-0.94364 1.83364,-1.16467 3.17412,-0.49371c1.34047,0.67096 2.09271,1.97986 1.68016,2.9235z" fill="#00b1b4" stroke="none" stroke-width="0"/><path d="M419.10878,144.39018c0.11294,-0.43653 0.53522,-0.69243 0.94319,-0.57159c0.40797,0.12085 0.64713,0.57269 0.53419,1.00922c-0.11294,0.43653 -0.53522,0.69244 -0.94319,0.57159c-0.40797,-0.12085 -0.64713,-0.57269 -0.53419,-1.00923z" fill="#000000" stroke="none" stroke-width="0.5"/></g><path d="M323.15025,247.45241l81,73.83086" data-paper-data="{&quot;index&quot;:null}" fill="none" stroke="#000000" stroke-width="2" stroke-linecap="round"/><path d="M251.69887,200.99357l28.45138,44.31883l36,74.90088" data-paper-data="{&quot;index&quot;:null}" fill="none" stroke="#000000" stroke-width="2" stroke-linecap="round"/><path d="M45.15025,285.97286h390" fill="none" stroke="#000000" stroke-width="2" stroke-linecap="round"/><path d="M82.15025,258.15254h311" fill="none" stroke="#000000" stroke-width="2" stroke-linecap="round"/><path d="M171.61608,320.61142l-181.87167,0.65742l106.13985,-74.42695l78.37167,-2.26243z" fill="url(#color-2)" stroke="none" stroke-width="0" stroke-linecap="butt"/><path d="M307.2055,246.18448l67.37167,-0.41259l118.63985,75.49696l-194.87167,-1.72743z" data-paper-data="{&quot;index&quot;:null}" fill="url(#color-3)" stroke="none" stroke-width="0" stroke-linecap="butt"/><path d="M359.30381,202.48527c-0.44721,0.95705 -1.34164,0.47852 -1.34164,0.47852l-1,-0.53501c-2.17917,-1.18318 -3.11691,-0.78629 -5.31025,-0.18648c-1.3118,0.34124 -2.77173,-0.08095 -4.01279,0.27083c-1.44066,0.40835 -1.95954,1.10213 -3.57669,0.49717c-1.40161,-0.52433 -3.73816,-3.20081 -4.92685,-3.14388c-1.15035,0.0551 -2.04945,1.03008 -3.06655,1.51141c-1.41376,0.66905 -2.90232,0.93619 -4.38494,1.39025c0,0 -0.96152,0.29396 -1.23625,-0.73489c-0.27472,-1.02884 0.68681,-1.3228 0.68681,-1.3228c2.2558,-0.68849 5.82975,-3.03123 8.04851,-2.9834c1.91174,0.0412 3.74688,2.4652 5.57316,3.2762c1.07542,0.47757 1.38082,-0.30569 2.4233,-0.57286c1.30134,-0.3335 2.66253,0.10263 3.98722,-0.26417c2.63155,-0.6846 4.10668,-1.01667 6.68975,0.34852l1,0.53501c0,0 0.89442,0.47853 0.44721,1.43557z" fill="#000000" stroke="none" stroke-width="0.5" stroke-linecap="butt"/><path d="M356.8038,212.38289c-0.44721,0.95704 -1.34164,0.47852 -1.34164,0.47852l-0.65278,-0.36855c-1.03544,-1.05576 -3.09829,-0.23158 -4.65,-1.39101c-2.43122,1.78628 -6.17836,3.18444 -9.06972,3.7275c-1.11331,0.2091 -1.90137,0.61355 -2.98343,-0.16107c-1.14614,-0.82048 -1.36273,-3.44492 -2.76308,-3.88885c-1.36852,-0.43383 -3.73722,0.05491 -5.18377,0.05491c0,0 -1,0 -1,-1.07001c0,-1.07001 1,-1.07001 1,-1.07001c1.61013,0 4.30888,-0.51391 5.81623,0.0549c1.3732,0.51819 2.61895,4.34107 3.70756,4.22545c3.63043,-0.38558 7.14996,-2.52987 10.47621,-4.01284c2.06064,0.91934 4.1454,0.60889 5.85,1.81902l0.34722,0.16646c0,0 0.89443,0.47853 0.44721,1.43558z" fill="#000000" stroke="none" stroke-width="0.5" stroke-linecap="butt"/><path d="M359.40938,225.54702c0,1.07001 -1,1.07001 -1,1.07001l-0.50747,-0.03194c-1.26301,0.33785 -2.87141,1.15797 -4.03074,-0.11208c-0.52447,-0.57456 -0.49003,-2.83581 -1.05044,-3.66424c-2.1183,0.45564 -4.21594,0.66827 -6.16084,1.79207c-1.46296,0.84533 -2.74804,3.7619 -4.52647,3.88836c-0.17906,0.01273 -2.96719,-2.27432 -3.0367,-2.32511c-2.52639,-1.84592 -5.74203,-4.23038 -8.74014,-2.60257c0,0 -0.89443,0.47853 -1.34164,-0.47852c-0.44722,-0.95705 0.44721,-1.43557 0.44721,-1.43557c3.29186,-1.73979 6.23914,-0.22772 9.17463,1.70235c1.06104,0.69762 2.34046,1.4742 3.25532,2.38515c0.15744,0.15677 0.08236,0.66025 0.29321,0.61495c0.89374,-0.19203 2.50319,-3.0309 3.47354,-3.60173c2.43617,-1.43313 5.11408,-1.82964 7.83915,-1.95298c1.38144,1.38203 1.85201,2.48867 1.94957,4.36085c0.03823,0.73361 1.30309,-0.46886 1.96926,-0.64707l0.99254,-0.03195c0,0 1,0.00001 1,1.07002z" fill="#000000" stroke="none" stroke-width="0.5" stroke-linecap="butt"/><path d="M358.3038,232.71313c-0.44721,0.95704 -1.34164,0.47852 -1.34164,0.47852l-0.29532,-0.18648c-1.13986,-0.30596 -2.20268,-0.50613 -3.37965,-0.51107c-2.31991,-0.60348 -3.70054,0.74622 -5.91619,0.54223c-0.85455,-0.07868 -1.60408,-0.8196 -2.46163,-0.80173c-1.95535,0.04075 -3.64009,0.29573 -5.56771,-0.00246c-1.69436,-0.2621 -4.1063,1.32692 -5.93229,1.33998c0,0 -1,0 -1,-1.07001c0,-1.07001 1,-1.07002 1,-1.07002c2.01545,0.01841 4.10087,-1.51869 6.06771,-1.33506c2.65899,0.24827 5.29923,0.45402 7.97067,0.80084c2.10576,0.27337 3.72534,-1.18083 6.0838,-0.52778c1.25132,-0.00569 2.40945,0.23604 3.62036,0.55894l0.70468,0.34852c0,0 0.89443,0.47852 0.44721,1.43557z" fill="#000000" stroke="none" stroke-width="0.5" stroke-linecap="butt"/><path d="M348.19903,167.15618c-0.7071,0.75661 -1.41422,0 -1.41422,0l-0.03543,-0.25356c-3.36471,-0.93168 -7.03551,0.52151 -10.25,-0.2675c-1.08115,-0.29566 -1.95553,-1.02406 -2.98721,-1.33419c-2.31974,-0.69735 -5.46119,1.11207 -8,0.53501c-2.58751,-0.58812 -5.84991,-0.47729 -8.52771,0.26417c0,0 -0.97015,0.25952 -1.21268,-0.77854c-0.24254,-1.03807 0.7276,-1.29758 0.7276,-1.29758c2.95624,-0.76899 6.61193,-0.98779 9.47229,-0.27083c2.59827,0.65126 5.4828,-1.16195 8,-0.535c1.05393,0.26251 1.934,1.0602 3.01278,1.34085c1.2048,0.36372 1.80348,-0.29017 3.00746,-0.29945c2.21536,-0.01708 5.06058,-0.00064 7.24254,0.56695l0.96457,0.81646c0,0 0.7071,0.75662 0,1.51323z" fill="#000000" stroke="none" stroke-width="0.5" stroke-linecap="butt"/><path d="M347.49192,172.81964c0,1.07001 -1,1.07001 -1,1.07001l-0.87782,-0.00802c-2.50293,0.66954 -4.51491,0.77697 -7.01088,-0.00233c-2.76829,0.00651 -6.04368,2.29072 -8.72042,1.87647c-1.4401,-0.22286 -1.64511,-1.62391 -2.87063,-1.89476c-0.9296,-0.20546 -2.06513,0.29286 -3.02025,0.29613c-2.05465,0.00703 -4.08767,-0.27106 -6.12403,-0.54327c0,0 -0.99228,-0.13272 -0.86825,-1.19447c0.12404,-1.06175 1.11631,-0.92903 1.11631,-0.92903c2.13345,0.28551 4.58102,0.835 6.75378,0.53476c0.86354,-0.11933 1.75345,-0.45607 2.60194,-0.24689c0.98861,0.24373 1.76255,1.77823 2.62936,1.85028c2.71762,0.22588 5.92378,-1.87297 8.77959,-1.86857c2.40976,0.72304 4.05115,0.64983 6.48911,-0.00233l1.12218,-0.00802c0,0 1,0 1,1.07001z" fill="#000000" stroke="none" stroke-width="0.5" stroke-linecap="butt"/><path d="M356.99192,129.3661c0,1.07001 -1,1.07002 -1,1.07002l-0.50746,-0.03196c-2.3361,0.563 -3.54638,-0.76672 -5.68165,-1.32487c-1.3705,-0.35824 -2.68277,1.0652 -4.0371,1.08901c-1.63347,0.02872 -4.17871,-0.09334 -5.57428,-0.97892c-0.51912,-0.32942 -0.84636,-1.02193 -1.42926,-1.18943c-0.79802,-0.22931 -1.99637,0.58832 -2.77771,0.7992c0,0 -0.97015,0.25952 -1.21268,-0.77856c-0.24253,-1.03808 0.72761,-1.29758 0.72761,-1.29758c1.24415,-0.32945 2.38523,-1.15178 3.72229,-0.80584c0.80776,0.209 1.3812,0.98928 2.07074,1.48561c0.93988,0.67653 3.29614,0.59749 4.42572,0.6261c1.56321,0.03959 2.7357,-1.43651 4.4629,-1.05101c1.7058,0.38073 3.01899,1.90972 4.81835,1.35017l0.99254,-0.03194c0,0 1,0 1,1.07001z" fill="#000000" stroke="none" stroke-width="0.5" stroke-linecap="butt"/><path d="M355.94903,136.81029c-0.70711,0.75662 -1.41422,0 -1.41422,0l-0.42557,-0.57056c-3.08176,0.30603 -5.51615,-0.72048 -8.34707,-1.55219c-1.18126,-0.34705 -2.99441,0.68596 -4.17171,0.82592c-1.79655,0.21357 -3.85224,-0.10942 -5.59108,-0.56175c0,0 -0.97014,-0.25952 -0.7276,-1.29758c0.24253,-1.03807 1.21268,-0.77854 1.21268,-0.77854c1.49947,0.4152 3.35162,0.69343 4.90892,0.50826c1.57424,-0.18717 3.21415,-1.18664 4.82829,-0.7791c1.04588,0.26407 1.79387,1.1833 2.89243,1.3169c1.87763,0.22835 3.87373,0.23103 5.7605,0.34094l1.07443,1.03446c0,0 0.7071,0.75662 0,1.51323z" fill="#000000" stroke="none" stroke-width="0.5" stroke-linecap="butt"/><path d="M355.19061,140.67209c-0.31623,1.01511 -1.26491,0.67674 -1.26491,0.67674l-0.43377,-0.21259c-1.9225,-0.00647 -4.68994,-1.59468 -6.52025,-1.09864c-2.83633,0.76869 -6.26198,2.10425 -9.22229,1.33419c0,0 -0.97014,-0.25952 -0.72761,-1.29758c0.24253,-1.03807 1.21268,-0.77854 1.21268,-0.77854c2.63989,0.73098 5.73314,-0.79747 8.27771,-1.34083c2.26879,-0.48448 4.68356,1.05051 6.97975,1.04139l1.06623,0.32241c0,0 0.94869,0.33837 0.63245,1.35347z" fill="#000000" stroke="none" stroke-width="0.5" stroke-linecap="butt"/><path d="M356.49192,144.88128c0,1.07001 -1,1.07001 -1,1.07001h-0.25c-1.67823,-0.0098 -2.86932,-0.83121 -4.38273,-1.07948c-1.11187,-0.1824 -2.27218,1.36957 -3.40882,1.34606c-0.87323,-0.01808 -1.46584,-1.03888 -2.27467,-1.3915c-1.71328,-0.7469 -4.99627,0.6421 -6.56238,1.3159c0,0 -0.92848,0.39739 -1.29987,-0.59609c-0.37139,-0.99347 0.55709,-1.39087 0.55709,-1.39087c2.12459,-0.90506 5.62733,-2.23937 7.93762,-1.35913c0.65987,0.25141 1.02565,1.3186 1.72533,1.28352c1.3144,-0.06589 2.00482,-1.47887 3.59118,-1.32897c1.42455,0.13461 2.55787,1.07163 4.11727,1.06055h0.25c0,0 1,0 1,1.07001z" fill="#000000" stroke="none" stroke-width="0.5" stroke-linecap="butt"/><path d="M121.35287,147.54551c0,1.07001 -1,1.07002 -1,1.07002h-0.5c-1.66846,-0.01523 -3.04444,0.99044 -4.72185,0.14088c-0.57858,-0.29304 -0.68129,-1.32278 -1.29507,-1.51723c-0.5419,-0.17167 -1.05008,0.49093 -1.61088,0.56582c-2.0333,0.27151 -4.14945,-0.03382 -6.11472,-0.55893c0,0 -0.97014,-0.25952 -0.7276,-1.29758c0.24253,-1.03807 1.21267,-0.77854 1.21267,-0.77854c1.73005,0.46335 3.59425,0.75113 5.38529,0.51107c0.65267,-0.08748 1.79287,-0.68452 2.38912,-0.5042c0.74606,0.22564 1.02773,1.28891 1.70493,1.69281c0.89171,0.53183 2.78605,-0.38703 3.77814,-0.39411h0.5c0,0 1,0 1,1.07001z" fill="#000000" stroke="none" stroke-width="0.5" stroke-linecap="butt"/><path d="M120.85287,153.69807c0,1.07001 -1,1.07002 -1,1.07002h-0.5c-4.29463,0 -8.53145,-0.8359 -12.86043,-1.34405c0,0 -0.99388,-0.11816 -0.88345,-1.18162c0.11043,-1.06348 1.10431,-0.9453 1.10431,-0.9453c4.26052,0.51251 8.41398,1.33096 12.63957,1.33096h0.5c0,0 1,0.00001 1,1.07002z" fill="#000000" stroke="none" stroke-width="0.5" stroke-linecap="butt"/><path d="M141.60287,182.77803c0,1.07001 -1,1.07002 -1,1.07002l-0.00747,-0.03195c-0.85345,0.22201 -2.65188,1.47662 -3.40271,1.35564c-0.76672,-0.12354 -1.03028,-1.2989 -1.7225,-1.67266c-0.48404,-0.26135 -1.05139,0.3544 -1.59353,0.34866c-0.94401,-0.01 -2.2259,-0.55013 -3.09001,-0.85712c0,0 -0.94868,-0.33836 -0.63245,-1.35347c0.31623,-1.0151 1.26491,-0.67673 1.26491,-0.67673c1.58663,0.56831 3.44424,-0.02786 4.81646,0.56154c0.59474,0.25546 0.64015,1.46562 1.2775,1.53738c0.18622,0.02096 2.14517,-1.19575 2.59728,-1.31939l0.49253,-0.03194c0,0 1,0 1,1.07001z" fill="#000000" stroke="none" stroke-width="0.5" stroke-linecap="butt"/><path d="M141.49729,189.67663c-0.44721,0.95705 -1.34164,0.47852 -1.34164,0.47852l-0.05279,-0.15453c-2.16621,-0.01547 -2.38168,-0.95411 -3.9927,-2.01141c-1.05707,-0.69375 -3.53661,0.13889 -4.7573,0.13889c0,0 -1,-0.00001 -1,-1.07002c0,-1.07001 1,-1.07001 1,-1.07001c1.77991,0 4.10116,-0.82807 5.7427,0.13889c1.52612,0.89897 1.1418,1.75068 3.0073,1.73363l0.94721,0.38046c0,0 0.89443,0.47852 0.44721,1.43557z" fill="#000000" stroke="none" stroke-width="0.5" stroke-linecap="butt"/><path d="M139.99029,176.10397c0.27407,0.04451 0.86258,0.23566 0.86258,1.05651c0,1.07001 -1,1.07002 -1,1.07002l-0.95711,-0.31341c-1.66256,-1.94941 -5.95037,-2.03645 -8.28543,-2.66108c0,0 -0.97014,-0.25952 -0.7276,-1.29758c0.24254,-1.03807 1.21267,-0.77854 1.21267,-0.77854c2.79063,0.7465 6.59107,0.92104 8.89489,2.9241z" fill="#000000" stroke="none" stroke-width="0.5" stroke-linecap="butt"/><path d="M122.57301,218.36394c0.24253,1.03807 -0.72761,1.29758 -0.72761,1.29758l-1.12035,0.29144c-1.94848,0.01138 -3.17609,0.1645 -4.75486,-0.87595c-0.3957,-0.26077 -0.85069,0.40521 -1.29278,0.55855c-1.20579,0.41823 -4.80942,1.3269 -6.07454,1.12793c-0.65886,-0.10362 -1.47924,-0.20053 -1.85749,-0.787c-0.33368,-0.51736 0.09156,-1.25337 0.13735,-1.88004c0,0 0.24253,-1.03806 1.21267,-0.77855c0.97015,0.25952 0.72761,1.29758 0.72761,1.29758c-0.34859,0.2499 2.99476,-0.67723 4.18132,-0.78932c0.74391,-0.07027 1.38336,-0.64014 2.11879,-0.77909c0.81867,-0.15467 1.61674,0.4621 2.36244,0.85533c0.54328,0.28651 2.33865,-0.0781 2.99514,-0.07343l0.87964,-0.24358c0,0 0.97015,-0.25952 1.21268,0.77855z" fill="#000000" stroke="none" stroke-width="0.5" stroke-linecap="butt"/><path d="M122.10287,223.97351c0,1.07001 -1,1.07001 -1,1.07001h-0.75c-1.10652,-0.01831 -2.37743,-0.7179 -3.37781,-0.54302c-2.57785,0.45065 -5.26616,0.91952 -7.86472,0.24356c0,0 -0.97014,-0.25951 -0.7276,-1.29758c0.24253,-1.03807 1.21267,-0.77855 1.21267,-0.77855c2.39154,0.66221 4.76611,-0.04272 7.13529,-0.29143c1.41858,-0.14891 2.21038,0.55881 3.62218,0.52699h0.75c0,0 1,0 1,1.07001z" fill="#000000" stroke="none" stroke-width="0.5" stroke-linecap="butt"/><path d="M123.57301,231.45562c-0.24254,1.03807 -1.21268,0.77856 -1.21268,0.77856l-0.87964,-0.24357c-1.0833,0 -2.63299,-0.8716 -3.64806,-0.55561c-2.88782,0.89897 -5.31455,1.13892 -8.40864,0.54638c0,0 -0.98387,-0.19141 -0.80498,-1.24417c0.17888,-1.05275 1.16275,-0.86134 1.16275,-0.86134c2.92322,0.57861 4.90135,0.1229 7.59136,-0.52364c1.44212,-0.34661 2.9045,0.5144 4.35194,0.5144l1.12035,0.29143c0,0 0.97015,0.25951 0.72761,1.29758z" fill="#000000" stroke="none" stroke-width="0.5" stroke-linecap="butt"/><path d="M143.57301,108.80984c0.24254,1.03808 -0.72761,1.29757 -0.72761,1.29757l-1.12035,0.29143c-1.87436,0.01338 -4.40413,0.37183 -6.11488,-0.66588c-0.58169,-0.35283 -0.77757,-1.26036 -1.38998,-1.54758c-1.18456,-0.55555 -3.58387,0.60729 -4.86732,0.61646c0,0 -1,0 -1,-1.07001c0,-1.07001 1,-1.07001 1,-1.07001c1.72792,0.01578 3.93258,-1.22566 5.63269,-0.45355c0.68653,0.31179 0.96472,1.26233 1.61001,1.66245c1.26632,0.78518 3.49647,0.39144 4.88512,0.40413l0.87964,-0.24357c0,0 0.97015,-0.25951 1.21268,0.77855z" fill="#000000" stroke="none" stroke-width="0.5" stroke-linecap="butt"/><path d="M142.4973,116.23544c-0.44721,0.95705 -1.34164,0.47853 -1.34164,0.47853l-0.5,-0.2675c-1.45302,-0.83679 -3.07425,-0.48382 -4.67497,-0.69756c-1.56103,-0.20845 -2.68009,-1.16362 -4.10757,-1.62562c-0.75346,-0.24385 -2.31986,0.64636 -3.07413,0.81035c0,0 -0.98059,0.20985 -1.1767,-0.83939c-0.19612,-1.04923 0.78446,-1.25907 0.78446,-1.25907c1.31186,-0.27557 2.55101,-1.12251 3.92587,-0.79466c1.36959,0.3266 2.42996,1.38839 3.89243,1.58441c1.90431,0.25523 3.54036,-0.00045 5.32503,0.90745l0.5,0.2675c0,0 0.89443,0.47853 0.44721,1.43557z" fill="#000000" stroke="none" stroke-width="0.5" stroke-linecap="butt"/><path d="M167.45052,103.47851l15.21457,-10.35438l-2.76885,13.31708z" fill="#000000" stroke="#000000" stroke-width="2" stroke-linecap="butt"/><path d="M303.46938,107.51122l-2.76885,-13.31708l15.21456,10.35437z" data-paper-data="{&quot;index&quot;:null}" fill="#000000" stroke="#000000" stroke-width="2" stroke-linecap="butt"/><path d="M216.78936,202.68159v-57.78067h45.5v57.78068z" fill="#000000" stroke="none" stroke-width="0" stroke-linecap="butt"/><path d="M174.69435,245.55642l-0.5,-135.35658l42.5,35.31041l-0.5,58.31568z" fill="url(#color-4)" stroke="none" stroke-width="0" stroke-linecap="butt"/><path d="M216.69435,146.58026l-43,-36.91544l133,0.53501l-46,37.45044z" fill="#0b0b0b" stroke="none" stroke-width="0" stroke-linecap="butt"/><path d="M263.69435,204.89594v-27.28531l9.5,-6.42008l-0.5,42.26549z" fill="#0b0b0b" stroke="none" stroke-width="0" stroke-linecap="butt"/><path d="M277.19435,218.27111v-48.68557l19,-10.16511l0.5,78.11091z" fill="#0b0b0b" stroke="none" stroke-width="0" stroke-linecap="butt"/><path d="M185.19435,235.92631l0.5,-78.11091l19,10.16512v48.68557z" data-paper-data="{&quot;index&quot;:null}" fill="#0b0b0b" stroke="none" stroke-width="0" stroke-linecap="butt"/><path d="M208.19435,211.85103v-40.66048l7,5.35007v28.35533z" data-paper-data="{&quot;index&quot;:null}" fill="#0b0b0b" stroke="none" stroke-width="0" stroke-linecap="butt"/><path d="M185.69435,204.36093l-10.5,-12.84015l41,-6.95508" fill="none" stroke="#000000" stroke-width="2" stroke-linecap="round"/><path d="M296.69435,189.38077l10.5,17.1202l-45.5,-14.44517" fill="none" stroke="#000000" stroke-width="2" stroke-linecap="round"/><path d="M261.69435,183.49569l45.5,8.5601l-10.5,10.70012" fill="none" stroke="#000000" stroke-width="2" stroke-linecap="round"/><path d="M216.19435,195.26584l-41.5,12.30514l10.5,-18.19021" fill="none" stroke="#000000" stroke-width="2" stroke-linecap="round"/><path d="M308.19435,192.0558v15.51518" fill="none" stroke="#000000" stroke-width="2" stroke-linecap="round"/><path d="M173.69435,207.57098v-16.58519" fill="none" stroke="#000000" stroke-width="2" stroke-linecap="round"/><path d="M205.19435,187.77575l3,8.5601" fill="none" stroke="#000000" stroke-width="2" stroke-linecap="round"/><path d="M208.19435,186.70573l-3.5,11.77014" fill="none" stroke="#000000" stroke-width="2" stroke-linecap="round"/><path d="M276.19435,196.33585l-2,-10.16512" fill="none" stroke="#000000" stroke-width="2" stroke-linecap="round"/><path d="M272.69435,196.33585l4.5,-10.16512" fill="none" stroke="#000000" stroke-width="2" stroke-linecap="round"/><path d="M177.65782,198.16954c-0.01182,0.05616 -0.0237,0.11139 -0.03567,0.16571c0.01334,-0.01713 0.02668,-0.03431 0.03999,-0.05151c0.01988,-0.02566 0.01729,-0.06448 -0.00432,-0.11421zM174.57367,202.36304c-0.05568,0.03324 -0.11245,0.06682 -0.17034,0.10079l-0.26853,-0.98856h-0.34879v-1.28402c0,-1.82318 0.04529,-3.45713 0.25683,-5.14821l-0.03741,0.008l-0.19595,-1.04835c-0.01537,-0.07455 -0.02347,-0.15202 -0.02347,-0.2315c0,-0.59095 0.44772,-1.07002 1,-1.07002c0.37065,0 0.6942,0.21576 0.86693,0.53631l0.51355,0.91585c0.97782,0.73758 2.93174,1.8494 3.3434,3.06042c0.82479,2.42639 -2.98906,5.22554 -3.7954,7.44094c0,0 -0.3714,0.99348 -1.29987,0.59609c-0.92847,-0.39739 -0.55708,-1.39086 -0.55708,-1.39086c0.20582,-0.53937 0.44781,-1.03309 0.71613,-1.49687z" fill="#ff0000" stroke="none" stroke-width="0.5" stroke-linecap="butt"/><path d="M184.20544,192.48299c0,0 -0.19612,-1.04923 0.78447,-1.25907c0.98058,-0.20984 1.1767,0.83938 1.1767,0.83938c0.42569,2.33014 0.41941,4.68154 0.41941,7.05793c0,0.5921 0.05637,2.61626 -0.29289,2.89663c-2.01682,1.6191 -4.2272,-2.06704 -4.49244,-3.78404c-0.22565,-1.46073 0.91333,-2.84735 1.55548,-3.98971l0.04497,-0.03282l-0.01512,-0.01214l0.59302,-0.84605c0.08593,-0.12539 0.19676,-0.23003 0.32471,-0.30554c-0.02959,-0.18865 -0.06226,-0.37686 -0.09831,-0.56459z" fill="#ff0000" stroke="none" stroke-width="0.5" stroke-linecap="butt"/><path d="M177.61604,193.18102c-0.22134,0.10342 -0.44071,0.20635 -0.65864,0.29961c0,0 -0.92848,0.39739 -1.29987,-0.59608c-0.37139,-0.99347 0.55708,-1.39088 0.55708,-1.39088c1.17892,-0.50457 6.18743,-2.50842 7.19946,-0.6764c1.2513,2.26515 -2.94341,6.174 -4.8978,4.3905c-0.85746,-0.78248 -1.07121,-1.48297 -0.90024,-2.02675z" fill="#ff0000" stroke="none" stroke-width="0.5" stroke-linecap="butt"/><path d="M181.76866,203.20842c0.09506,0.01381 0.18586,0.03369 0.27131,0.06004c-0.18464,-0.11225 -0.3363,-0.19164 -0.27199,-0.09285zM181.61059,200.79462c1.51559,0.17523 3.3396,2.24063 2.65471,3.75831c-0.48411,1.07279 -3.41304,1.47826 -5.51829,1.70484l-0.63241,0.406c-0.15336,0.10238 -0.33452,0.16153 -0.52859,0.16153c-0.55229,0 -1,-0.47906 -1,-1.07002c0,-0.24478 0.07682,-0.47036 0.20607,-0.65065l0.59393,-0.84736l0.05056,0.04056l0.04233,-0.15518c1.3447,-1.01084 1.51614,-3.15695 2.50711,-4.59345c0,0 0.6,-0.85601 1.4,-0.21401c0.69921,0.56113 0.32896,1.28573 0.22457,1.4594z" fill="#ff0000" stroke="none" stroke-width="0.5" stroke-linecap="butt"/><path d="M305.85357,194.20582c0.08862,-0.26449 0.29128,-0.53264 0.73633,-0.62788c0.98058,-0.20985 1.1767,0.83938 1.1767,0.83938c0.43077,2.30614 -0.44082,4.75831 0.01455,6.73849l-0.02984,0.10544h0.0347v1.07001c0,0.59095 -0.44772,1.07002 -1,1.07002c-0.27614,0 -0.52614,-0.11977 -0.7071,-0.3134l-0.8,-0.85601l0.16622,-0.17786c-1.52136,-1.32062 -3.12616,-3.30459 -2.37826,-5.06629c0.13108,-0.30879 1.0579,-0.8276 1.92201,-1.15016l-0.00287,-0.56836c0,0 0,-0.97332 0.86756,-1.06336z" fill="#ff0000" stroke="none" stroke-width="0.5" stroke-linecap="butt"/><path d="M300.15413,199.28445c0.44703,-0.3238 0.97012,-0.49337 1.65309,-0.35073c0.87327,0.18239 2.14049,1.84975 2.64576,3.4343c0.84792,0.72206 1.41099,1.65519 0.7611,2.70315c-0.40162,0.64762 -1.42033,0.47842 -2.1443,0.41522c-0.94693,-0.08267 -2.40103,-0.74068 -3.6441,-1.44135l-0.03579,0.19146l-0.98183,-0.21012c-0.15678,-0.03013 -0.30086,-0.09935 -0.42314,-0.19791c-0.22499,-0.03854 -0.46455,-0.17656 -0.6564,-0.5187c-0.5145,-0.91753 0.343,-1.46804 0.343,-1.46804c0.53194,-0.32928 0.95006,-0.85987 1.36596,-1.38145c-0.37097,0.33217 -0.76294,0.64342 -1.14901,0.93227l-0.71582,0.95741c-0.18309,0.24922 -0.4674,0.4093 -0.78664,0.4093c-0.55228,0 -1,-0.47906 -1,-1.07001v-0.99088c-0.39374,-2.15179 0.39472,-3.52254 0.60419,-5.52702c0.10873,-1.04045 -0.40173,-2.4175 -0.40419,-3.54021c0,0 0,-1.07001 1,-1.07001c1,0 1,1.07001 1,1.07001c-0.00092,0.36221 0.04321,0.73802 0.1028,1.11807c0.09389,-0.03124 0.19371,-0.04806 0.2972,-0.04806c0.22876,0 0.43959,0.08219 0.60808,0.22048l0.79192,0.63553l-0.06088,0.08685l0.14559,0.06765c-0.14216,-0.51931 -0.29481,-0.9708 -0.48471,-1.2245c0,0 -0.6,-0.85601 0.2,-1.49802c0.8,-0.64201 1.4,0.214 1.4,0.214c0.05514,0.0821 0.13539,0.20971 0.22968,0.36965c1.46665,-1.04513 4.30415,-0.66286 4.56781,1.26652c0.09962,0.72902 -0.62029,1.78549 -1.55599,2.63961c-0.14315,0.35372 -0.41912,0.5492 -0.76077,0.61429c-0.7003,0.49626 -1.42927,0.82823 -1.98383,0.81775c0.00491,0.8553 -0.36829,1.64997 -0.92878,2.37351z" fill="#ff0000" stroke="none" stroke-width="0.5" stroke-linecap="butt"/><path d="M204.98602,194.62718c-1,0 -1,-1.07002 -1,-1.07002v-1.07001c0.00326,-0.6466 -0.05894,-1.29681 -0.18058,-1.93018c0,0 -0.19611,-1.04923 0.78447,-1.25907c0.98058,-0.20984 1.1767,0.83938 1.1767,0.83938c0.14114,0.77257 0.21615,1.56271 0.21941,2.34988v1.07001c0,0 0,1.07002 -1,1.07002z" fill="#ff0000" stroke="none" stroke-width="0.5" stroke-linecap="butt"/><path d="M205.58602,195.91118c0,-0.59095 0.44771,-1.07001 1,-1.07001c0.55229,0 1,0.47906 1,1.07001c0,0.59095 -0.44771,1.07002 -1,1.07002c-0.55229,0 -1,-0.47907 -1,-1.07002z" fill="#ff0000" stroke="none" stroke-width="0.5" stroke-linecap="butt"/><path d="M208.18602,193.77116c-1,0 -1,-1.07001 -1,-1.07001v-1.07001c0,0 0,-1.07001 1,-1.07001c1,0 1,1.07001 1,1.07001v1.07001c0,0 0,1.07001 -1,1.07001z" fill="#ff0000" stroke="none" stroke-width="0.5" stroke-linecap="butt"/><path d="M205.58602,187.35108c0,-0.59095 0.44771,-1.07001 1,-1.07001c0.55229,0 1,0.47906 1,1.07001c0,0.59095 -0.44771,1.07002 -1,1.07002c-0.55229,0 -1,-0.47907 -1,-1.07002z" fill="#ff0000" stroke="none" stroke-width="0.5" stroke-linecap="butt"/><path d="M273.98602,195.69719c0,-0.59095 0.44772,-1.07001 1,-1.07001c0.55228,0 1,0.47906 1,1.07001c0,0.59095 -0.44772,1.07001 -1,1.07001c-0.55228,0 -1,-0.47907 -1,-1.07001z" fill="#ff0000" stroke="none" stroke-width="0.5" stroke-linecap="butt"/><path d="M277.18602,195.26919c-1,0 -1,-1.07001 -1,-1.07001v-0.428c0,-1.45404 -0.19402,-2.83625 -0.2,-4.28005c0,0 0,-1.07001 1,-1.07001c1,0 1,1.07001 1,1.07001c-0.00724,1.4335 0.2,2.83049 0.2,4.28005v0.428c0,0 0,1.07001 -1,1.07001z" fill="#ff0000" stroke="none" stroke-width="0.5" stroke-linecap="butt"/><path d="M272.98602,194.19916c-1,0 -1,-1.07001 -1,-1.07001l0.01942,-0.00417c-0.3488,-1.90926 -0.14688,-3.87096 0.2,-5.76975c0,0 0.19612,-1.04923 1.1767,-0.83938c0.98058,0.20985 0.78446,1.25907 0.78446,1.25907c-0.3072,1.59955 -0.50887,3.32214 -0.2,4.93037l0.01942,0.42386c0,0 0,1.07001 -1,1.07001z" fill="#ff0000" stroke="none" stroke-width="0.5" stroke-linecap="butt"/><path d="M238.50742,321.11396v-75.61422v-43.15717" fill="none" stroke="#000000" stroke-width="2" stroke-linecap="round"/><path d="M165.03221,321.5428l26.33333,-75.97089l32.66667,-42.795" fill="none" stroke="#000000" stroke-width="2" stroke-linecap="round"/><path d="M194.36554,227.38722h92.33333" fill="none" stroke="#000000" stroke-width="2" stroke-linecap="round"/><path d="M207.36554,213.12039h65.66667" fill="none" stroke="#000000" stroke-width="2" stroke-linecap="round"/><path d="M263.36554,204.56029h-48" fill="none" stroke="#000000" stroke-width="2" stroke-linecap="round"/><path d="M171.46221,244.84881v-136.11017h138.16596v136.11017z" fill="url(#color-5)" stroke="#000000" stroke-width="2" stroke-linecap="butt"/><path d="M351.23099,114.81637c-0.03947,-0.02788 -0.07874,-0.05555 -0.11746,-0.08296c0.02253,0.08965 0.04407,0.17336 0.06615,0.24271c0.01662,0.05221 0.03341,0.10392 0.0503,0.15517c0.00067,-0.05715 0.00101,-0.11496 0.00101,-0.17347zM349.56502,116.04533c0.00162,0.4941 0.00499,0.94355 -0.00238,1.35968c0.0018,0.22065 0.00169,0.46368 0.00168,0.73652c0.18679,-0.26637 0.34155,-0.51653 0.33333,-0.68702c-0.01853,-0.38449 -0.16005,-0.87761 -0.33264,-1.40918zM347.40904,116.68517c0.0102,-0.52339 0.05781,-0.90972 0.15529,-1.01401v-1.00399c-0.29705,0.17311 -0.55565,0.39744 -0.74279,0.70012c-0.09678,0.15653 0.22954,0.74962 0.5875,1.31788zM345.3485,113.93797c1.46859,-1.8498 5.73398,-3.53217 7.25626,-2.23346c0.92004,0.78492 1.58568,3.60021 2.24999,4.72659c0.04511,1.45081 0.49859,4.18908 -0.58332,5.34673c-0.95648,1.02344 -5.37963,1.52211 -6.70711,1.38341c-0.57462,-0.06004 -1.28346,0.10631 -1.70711,-0.31339c-0.38451,-0.38093 -0.15747,-1.11006 -0.27998,-1.65522c-0.4814,-2.14217 -1.30488,-4.2423 -1.9616,-6.2531c0,0 -0.31623,-1.0151 0.63246,-1.35347c0.57714,-0.20585 0.92021,0.08922 1.1004,0.35192zM350.35042,120.62216c0.15202,-0.0044 0.31229,-0.00884 0.47545,-0.01443l-0.12378,-0.39733c-0.10972,0.14221 -0.22719,0.28134 -0.35167,0.41177zM351.0336,119.73987c-0.01232,0.01905 -0.02479,0.03816 -0.03742,0.05731l0.04475,-0.01596c-0.00251,-0.01381 -0.00495,-0.0276 -0.00733,-0.04136z" fill="#9966ff" stroke="none" stroke-width="0.5" stroke-linecap="butt"/><path d="M354.56432,116.3845c0,1.07001 -1,1.07001 -1,1.07001l-0.35044,-0.05491c-0.56694,0.20221 -1.13972,0.46088 -1.71687,0.74035c0.37448,1.00191 0.73788,2.01329 1.0544,3.06654l0.01291,1.24141c0,0 0,1.07001 -1,1.07001c-1,0 -1,-1.07001 -1,-1.07001l0.01291,-0.89862c-0.27949,-0.85577 -0.5829,-1.68672 -0.89261,-2.51053c-1.36418,0.66294 -2.74383,1.23708 -4.1203,1.26911c0,0 -1,0 -1,-1.07001c0,-1.07001 1,-1.07001 1,-1.07001c1.03405,0.03843 2.21722,-0.43946 3.40144,-1.02811c-0.35779,-0.95337 -0.70584,-1.91541 -1.01679,-2.91357c0,0 -0.31623,-1.0151 0.63246,-1.35347c0.94868,-0.33837 1.26491,0.67674 1.26491,0.67674c0.2825,0.90682 0.59722,1.78402 0.92095,2.65263c0.6362,-0.33056 1.24935,-0.63122 1.81414,-0.83267l0.98289,-0.05492c0,0 1,0.00001 1,1.07001z" fill="#000000" stroke="none" stroke-width="0.5" stroke-linecap="butt"/><path d="M341.79208,109.01627c-0.44721,0.95705 -1.34164,0.47852 -1.34164,0.47852l-0.77048,-0.4214c-0.19997,0.72459 -0.36047,1.54061 -0.46133,2.38397c0.18918,-0.06625 0.34569,-0.06625 0.34569,-0.06625c1.94822,0 3.78744,0.74426 5.66667,0.71335h1c0,0 1,0.00001 1,1.07001c0,1.07001 -1,1.07001 -1,1.07001h-1c-1.92208,-0.02289 -3.7013,-0.71334 -5.66667,-0.71334c0,0 -0.22618,0 -0.46341,-0.1151c0.00067,0.23327 0.00703,0.46488 0.01949,0.69351c2.09313,1.00332 3.81884,2.43766 5.58244,3.82826c0.49429,0.38974 3.77146,-0.12662 4.52814,-0.12662h0.66667c0,0 1,0.00001 1,1.07002c0,1.07001 -1,1.07001 -1,1.07001h-0.66667c-1.34985,0 -4.29235,0.56079 -5.47186,-0.12662c-0.4335,-0.25264 -0.55455,-0.88151 -0.90192,-1.2568c-0.68425,-0.73927 -2.02465,-1.46734 -3.31675,-2.04488c0.00556,0.03116 0.01097,0.06744 0.01517,0.10765c0.88423,0.62461 1.38054,4.3521 1.66245,5.28928l0.01291,1.24141c0,0 0,1.07001 -1,1.07001c-1,0 -1,-1.07001 -1,-1.07001l0.01291,-0.89862c-0.04717,-0.14506 -0.25206,-0.81127 -0.44822,-1.56347c-0.09666,0.89517 -0.23136,1.76695 -0.23136,2.10542c0,0 0,1.07001 -1,1.07001c-1,0 -1,-1.07001 -1,-1.07001c0,-1.41621 -0.17504,-4.87427 0.95287,-6.07679c-0.09227,-0.35492 -0.16686,-0.72143 -0.22511,-1.0963c-0.01479,-0.00513 -0.02945,-0.01022 -0.04399,-0.01524c0,0 -0.94868,-0.33837 -0.63246,-1.35347c0.11386,-0.3655 0.30972,-0.55553 0.51377,-0.64907c-0.02714,-1.99165 0.30346,-4.05362 0.81957,-5.77101l-0.05132,-0.01831c0,0 0,-0.02468 0.0035,-0.06654c-0.32214,-0.26825 -0.56924,-0.51059 -0.61604,-0.65621c-0.66424,-2.06696 2.37446,-5.0941 4.23566,-4.22473c0.47604,0.22236 0.83151,0.55842 1.07613,0.94296c0.14277,0.13358 0.25964,0.33192 0.2919,0.62642c0.20234,0.63684 0.15811,1.30802 -0.09818,1.78162c0.30233,0.53697 -0.06091,1.12 -0.06091,1.12l-0.65806,1.0562c-0.04536,0.07515 -0.09928,0.14383 -0.16028,0.20446c-0.01344,0.12457 -0.05049,0.26046 -0.11928,0.40769z" fill="#757575" stroke="none" stroke-width="0.5" stroke-linecap="butt"/><path d="M338.56432,104.97104c0,-0.59095 0.44772,-1.07001 1,-1.07001c0.55228,0 1,0.47906 1,1.07001c0,0.59095 -0.44772,1.07001 -1,1.07001c-0.55228,0 -1,-0.47907 -1,-1.07001z" fill="#000000" stroke="none" stroke-width="0.5" stroke-linecap="butt"/><path d="M340.89766,106.04105c0,-0.59095 0.44772,-1.07001 1,-1.07001c0.55228,0 1,0.47907 1,1.07001c0,0.59095 -0.44772,1.07001 -1,1.07001c-0.55228,0 -1,-0.47906 -1,-1.07001z" fill="#000000" stroke="none" stroke-width="0.5" stroke-linecap="butt"/><path d="M341.84634,108.51945c-0.31623,1.0151 -1.26491,0.67674 -1.26491,0.67674c-0.33333,-0.11889 -1.66667,-0.59446 -2,-0.71335c0,0 -0.94868,-0.33837 -0.63246,-1.35347c0.31623,-1.0151 1.26491,-0.67674 1.26491,-0.67674c0.33333,0.11889 0.66667,0.23778 1,0.35667l1,0.35667c0,0 0.94868,0.33837 0.63246,1.35347z" fill="#000000" stroke="none" stroke-width="0.5" stroke-linecap="butt"/><path d="M314.74199,146.95145c0,-1.07001 1,-1.07001 1,-1.07001l-0.22137,0.1797c1.33333,-0.95112 2.66667,-1.90224 4,-2.85337c0,0 0.07638,-0.05449 0.19827,-0.10568c-0.00729,-0.37273 0.03918,-0.71923 0.1008,-1.05997c-0.23508,0.00665 -0.47103,-0.03368 -0.70083,-0.12999c-2.79325,-1.17064 -1.66577,-3.02301 0.0968,-3.69359c-0.1586,-0.27853 -0.32345,-0.78785 0.15255,-1.29717c0.70711,-0.75662 1.41421,0 1.41421,0l0.18093,0.22298c0.46372,0.41879 1.19385,0.64237 1.39117,1.25638c0.21128,0.65745 0.06358,1.40434 -0.29372,2.04988c-0.06642,0.73147 -0.33697,1.50581 -0.36479,2.22614c3.0847,0.10142 6.42287,1.60857 8.21135,4.39448l0.16795,0.9502c0,0 0,1.07002 -1,1.07002c-1,0 -1,-1.07002 -1,-1.07002l0.16795,0.23687c-1.24144,-2.07839 -3.86073,-3.23329 -6.14667,-3.42003c0.38151,1.48194 0.75871,2.74354 0.48044,4.37689c0.81527,0.39928 1.20726,1.9741 1.44697,2.74795c0.6332,2.04413 0.71798,4.6047 0.71798,6.75844l0.22776,0.23481c0,0 0.44721,0.95705 -0.44721,1.43558c-0.89443,0.47852 -1.34164,-0.47852 -1.34164,-0.47852l-0.43891,-1.19187c0,-1.6911 -0.0613,-3.52325 -0.32042,-5.17866c-0.05659,-0.36153 -0.18303,-0.70375 -0.31114,-1.04596c-0.04353,1.99713 -1.0351,5.08318 -1.0351,6.58129c0,0 0,1.07001 -1,1.07001c-1,0 -1,-1.07001 -1,-1.07001c0,-2.63768 0.51362,-5.11758 1.01291,-7.66148c0.09833,-0.50101 -0.17684,-1.17833 0.17585,-1.52427c0.04721,-0.04631 0.09665,-0.0915 0.14804,-0.13531c0.01054,-0.17097 0.04785,-0.29075 0.04785,-0.29075c0.53706,-1.64443 0.11226,-2.81165 -0.29059,-4.14946c-1.17979,0.84159 -2.35957,1.68318 -3.53936,2.52477l-0.88803,0.17971c0,0 -1,0 -1,-1.07001z" fill="#00fff3" stroke="none" stroke-width="0.5" stroke-linecap="butt"/><path d="M348.96975,155.99007c-0.44721,0.95705 -1.34164,0.47852 -1.34164,0.47852l-0.21945,-0.24371c-1.22745,0 -2.13616,-0.00555 -3.31623,-0.41158c0,0 -0.12716,-0.04536 -0.27285,-0.15267c-0.13119,0.51226 -0.27834,1.02159 -0.43518,1.52877c0.48275,0.57076 0.92483,1.4258 1.30627,2.62048l0.33333,1.07002c0,0 0.31623,1.0151 -0.63246,1.35347c-0.94868,0.33837 -1.26491,-0.67674 -1.26491,-0.67674l-0.33333,-1.07002c-1.1518,-3.81918 -2.28568,-2.06725 -3.88593,0.61185c0,0 -0.5547,0.89031 -1.38675,0.29677c-0.83205,-0.59354 -0.27735,-1.48384 -0.27735,-1.48384c1.32136,-2.05828 2.88043,-3.60433 4.32018,-3.64697c0.07735,-0.2535 0.15315,-0.50913 0.22566,-0.76648c-0.98405,0.2589 -1.90515,0.37027 -3.04712,0.37027h-1c0,0 -1,0 -1,-1.07001c0,-1.07001 1,-1.07002 1,-1.07002h1c1.38229,0 2.27767,-0.16574 3.56769,-0.6174c0.06911,-0.50672 0.10626,-1.01522 0.09897,-1.52262v-0.35666c0,0 0,-1.07001 1,-1.07001c1,0 1,1.07001 1,1.07001v0.35666c-0.00755,0.72556 -0.07502,1.44191 -0.18655,2.15101c0.27192,-0.03841 0.50278,0.04392 0.50278,0.04392c0.95925,0.35869 1.66978,0.30177 2.68377,0.30177l1.11388,0.46964c0,0 0.89443,0.47852 0.44721,1.43557z" fill="#cebc97" stroke="none" stroke-width="0.5" stroke-linecap="butt"/><path d="M112.16271,196.37642l0.3674,0.39579c-0.06292,0.56522 0.14175,1.24964 -0.18876,1.69566c-0.15785,0.21303 -0.44828,0.40001 -0.81124,0.54518v0.61253c0,1.08365 0.04625,2.15085 0.10429,3.21132c1.69944,0.0298 3.45144,0.48829 5.05589,1.08254l0.83982,-0.01381c0,0 1,0 1,1.07001c0,1.07001 -1,1.07001 -1,1.07001l-1.16018,-0.01382c-1.46329,-0.50539 -3.06561,-1.02039 -4.61252,-1.05468c0.0492,0.89139 0.09024,1.78266 0.10238,2.67963c0.68823,1.29196 1.00101,3.20013 1.28567,4.11391l0.33333,1.07001c0,0 0.31623,1.0151 -0.63246,1.35347c-0.94868,0.33837 -1.26491,-0.67674 -1.26491,-0.67674l-0.33333,-1.07002c-0.05472,-0.17567 -0.35034,-1.21813 -0.60079,-2.19727c-0.0961,1.20051 -0.40876,2.60087 -0.50184,2.91062c0,0 -0.31623,1.0151 -1.26491,0.67674c-0.94868,-0.33837 -0.63246,-1.35346 -0.63246,-1.35346c0.43407,-1.32908 -0.31778,-5.33141 1.16814,-5.96874c0.14211,-0.06096 0.27828,-0.10471 0.40881,-0.13268c-0.02364,-0.60352 -0.05598,-1.20646 -0.09061,-1.81015c-0.74161,0.22907 -1.48591,0.44198 -2.22142,0.70495l-0.27579,0.45485c0,0 -0.70711,0.75662 -1.41421,0c-0.70711,-0.75662 0,-1.51323 0,-1.51323l1.05755,-0.97182c0.90429,-0.32181 1.82133,-0.5691 2.72984,-0.86469c-0.04628,-0.91213 -0.08028,-1.82961 -0.08028,-2.75693v-0.2985c-0.9154,-0.04909 -1.74052,-0.38188 -1.94587,-1.1376c-0.61403,-2.25974 2.34185,-3.15539 3.61254,-3.20062c0,0 1,0 1,1.07001c0,0.11848 -0.01226,0.22385 -0.03407,0.31754z" fill="#cc0000" stroke="none" stroke-width="0.5" stroke-linecap="butt"/><path d="M105.93691,209.13379c-1,0 -1,-1.07001 -1,-1.07001v-0.35667c0.00875,-0.60885 -0.09428,-1.22684 -0.28202,-1.80166c0,0 -0.31623,-1.0151 0.63246,-1.35347c0.94868,-0.33837 1.26491,0.67674 1.26491,0.67674c0.23959,0.79725 0.37594,1.641 0.38465,2.47839v0.35667c0,0 0,1.07001 -1,1.07001z" fill="#272727" stroke="none" stroke-width="0.5" stroke-linecap="butt"/><path d="M107.89727,197.00697c0,-0.59095 0.44772,-1.07001 1,-1.07001c0.55228,0 1,0.47906 1,1.07001c0,0.59095 -0.44772,1.07002 -1,1.07002c-0.55228,0 -1,-0.47907 -1,-1.07002z" fill="#000000" stroke="none" stroke-width="0.5" stroke-linecap="butt"/><path d="M110.56394,197.00697c0,-0.59095 0.44772,-1.07001 1,-1.07001c0.55228,0 1,0.47906 1,1.07001c0,0.59095 -0.44772,1.07002 -1,1.07002c-0.55228,0 -1,-0.47907 -1,-1.07002z" fill="#000000" stroke="none" stroke-width="0.5" stroke-linecap="butt"/><path d="M317.44644,139.59738c0,-0.59095 0.44772,-1.07001 1,-1.07001c0.55228,0 1,0.47907 1,1.07001c0,0.59095 -0.44772,1.07001 -1,1.07001c-0.55228,0 -1,-0.47907 -1,-1.07001z" fill="#000000" stroke="none" stroke-width="0.5" stroke-linecap="butt"/><path d="M320.11311,138.17069c0,-0.59095 0.44772,-1.07001 1,-1.07001c0.55228,0 1,0.47906 1,1.07001c0,0.59095 -0.44772,1.07002 -1,1.07002c-0.55228,0 -1,-0.47907 -1,-1.07002z" fill="#000000" stroke="none" stroke-width="0.5" stroke-linecap="butt"/><path d="M132.20258,79.71883c0.94868,-0.33837 1.26491,0.67674 1.26491,0.67674c0.11797,0.39257 0.37423,1.65127 0.45996,2.87568c0.82129,0.96026 1.72244,2.15029 2.09862,3.18672c0.0955,-0.01728 0.1594,-0.01728 0.1594,-0.01728c2.38847,0.02844 4.063,1.41884 5.70711,3.16676l0.66667,0.71335c0,0 0.70711,0.75662 0,1.51322c-0.70711,0.75661 -1.41421,0 -1.41421,0l-0.66667,-0.71335c-1.18291,-1.27513 -2.44804,-2.51232 -4.17282,-2.54c0.04044,1.5692 -0.0885,3.46968 -0.11529,4.88618c1.90522,0.78808 2.32174,5.23705 2.32856,6.88399v0.71334c0,0 0,1.07001 -1,1.07001c-1,0 -1,-1.07001 -1,-1.07001v-0.71334c0.00448,-0.88825 -0.16141,-1.77038 -0.31391,-2.64352c-0.88647,-5.07528 -2.60154,2.35112 -3.45833,4.19205c0,0 -0.44721,0.95705 -1.34164,0.47852c-0.89443,-0.47852 -0.44721,-1.43557 -0.44721,-1.43557c0.91334,-1.94594 1.67916,-3.79429 2.66278,-5.69832c0.22829,-0.44191 0.211,-1.10498 0.56516,-1.4086c0.00463,-1.24014 0.09672,-2.81117 0.10804,-4.24293c-1.32137,0.50527 -2.65824,0.91206 -4.00221,1.37612l-0.88465,0.64243c0,0 -0.83205,0.59354 -1.38675,-0.29676c-0.5547,-0.8903 0.27735,-1.48384 0.27735,-1.48384l1.11535,-0.78424c1.60094,-0.58523 3.21373,-1.04685 4.78816,-1.69773c-0.00216,-0.01757 -0.00437,-0.03504 -0.00662,-0.05241c-0.0476,-0.36708 -0.3489,-0.87611 -0.74128,-1.40543c-0.04013,0.02783 -0.08309,0.05024 -0.12904,0.06678c-1.05647,0.38035 -1.65362,0.01246 -2.03971,-0.58502c-0.37015,0.02723 -0.84518,-0.15717 -1.47259,-0.67178c-1.2805,-1.05029 0.34625,-3.69913 0.87506,-4.56019c0,0 0.52834,-0.84799 1.32721,-0.33705c0.05651,-0.03135 0.11917,-0.05975 0.18862,-0.08452z" fill="#008a1f" stroke="none" stroke-width="0.5" stroke-linecap="butt"/><path d="M120.51881,136.01791c0,1.07001 -1,1.07001 -1,1.07001h-0.33333c-1.56512,-0.02575 -2.65024,0.18058 -4.00942,-0.05997c0.00222,0.08766 0.00404,0.176 0.00546,0.26508c0.27341,0.24577 0.55758,0.57935 0.85461,1.0157c0.25201,0.37022 0.28758,0.8628 0.43137,1.29418l0.42509,0.2951c0,0 0.70711,0.75661 0,1.51322c-0.70711,0.75662 -1.41421,0 -1.41421,0l-0.90824,-1.13159c-0.90549,-3.25499 -2.53592,1.16498 -4.16328,2.33529c0,0 -0.83205,0.59354 -1.38675,-0.29676c-0.5547,-0.89031 0.27735,-1.48384 0.27735,-1.48384c1.38803,-0.9807 2.54581,-3.23271 3.87268,-3.91115c-0.00733,-0.20125 -0.0173,-0.39772 -0.02997,-0.59046c-1.08442,0.54359 -2.13811,0.99728 -3.30511,1.41361l0.05755,0.09819c0,0 -0.70711,0.75662 -1.41421,0c-0.70711,-0.75662 0,-1.51322 0,-1.51322l0.72421,-0.61516c1.29548,-0.46194 2.42841,-0.96494 3.64884,-1.60824c-0.07487,-0.38276 -0.16279,-0.7681 -0.2642,-1.16626c-0.21666,0.13164 -0.42259,0.21303 -0.60234,0.21343c-2.13748,0.00466 -2.76974,-1.4345 -1.50651,-3.24384c0.3614,-0.51763 1.07625,-0.64103 1.74364,-0.66692c0.04806,-0.13145 0.12942,-0.26727 0.25636,-0.4031c0.70711,-0.75662 1.41421,0 1.41421,0l0.66667,2.22657c-0.08473,0.09008 -0.19351,0.21135 -0.31959,0.35036c0.38077,1.19949 0.62665,2.27924 0.772,3.39333c1.56954,0.45424 2.40766,0.15745 4.17381,0.13641h0.33333c0,0 1,0 1,1.07001z" fill="#d2c900" stroke="none" stroke-width="0.5" stroke-linecap="butt"/><path d="M109.51881,131.38119c0,-0.59095 0.44772,-1.07001 1,-1.07001c0.55228,0 1,0.47906 1,1.07001c0,0.59095 -0.44772,1.07001 -1,1.07001c-0.55228,0 -1,-0.47907 -1,-1.07001z" fill="#000000" stroke="none" stroke-width="0.5" stroke-linecap="butt"/><path d="M112.51881,129.59784c0,-0.59095 0.44772,-1.07002 1,-1.07002c0.55228,0 1,0.47907 1,1.07002c0,0.59095 -0.44772,1.07001 -1,1.07001c-0.55228,0 -1,-0.47906 -1,-1.07001z" fill="#000000" stroke="none" stroke-width="0.5" stroke-linecap="butt"/><path d="M129.18547,83.23063c0,-0.59095 0.44772,-1.07001 1,-1.07001c0.55228,0 1,0.47907 1,1.07001c0,0.59095 -0.44772,1.07001 -1,1.07001c-0.55228,0 -1,-0.47906 -1,-1.07001z" fill="#000000" stroke="none" stroke-width="0.5" stroke-linecap="butt"/><path d="M131.85214,81.44727c0,-0.59095 0.44772,-1.07001 1,-1.07001c0.55228,0 1,0.47906 1,1.07001c0,0.59095 -0.44772,1.07001 -1,1.07001c-0.55228,0 -1,-0.47907 -1,-1.07001z" fill="#000000" stroke="none" stroke-width="0.5" stroke-linecap="butt"/><path d="M1.11136,300.82559v-65.06264l53.62636,-27.66603l6.15442,52.71418z" data-paper-data="{&quot;index&quot;:null}" fill="#000000" stroke="#000000" stroke-width="2" stroke-linecap="butt"/><g><path d="M421.38577,260.17046l6.5,-53.50062l53,27.28532l2.5,69.01581z" fill="#8c8c8c" stroke="none" stroke-width="0" stroke-linecap="butt"/><path d="M421.98298,260.62099h58.5" fill="none" stroke="#000000" stroke-width="2" stroke-linecap="round"/><path d="M481.98298,277.82567l-26,-16.58519v-39.59046" fill="none" stroke="#000000" stroke-width="2" stroke-linecap="round"/></g><path d="M422.4447,260.50779l6.09956,-52.24421l53.14825,27.41937v64.48258z" fill="#000000" stroke="#000000" stroke-width="2" stroke-linecap="butt"/><path d="M374.14135,246.83255v-187.78719h31.5l-5,204.37239z" fill="url(#color-6)" stroke="none" stroke-width="0" stroke-linecap="butt"/><path d="M338.29334,247.10955v-188.32219h35v188.3222z" fill="url(#color-7)" stroke="none" stroke-width="0" stroke-linecap="butt"/><path d="M95.88577,246.03954v-203.30237h44.5v203.30237z" fill="url(#color-8)" stroke="none" stroke-width="0" stroke-linecap="butt"/><path d="M66.38577,267.97479l-6.5,-215.07251h37.5v194.20727z" fill="url(#color-9)" stroke="none" stroke-width="0" stroke-linecap="butt"/><g stroke="none" stroke-width="0" stroke-linecap="butt"><path d="M234.21103,76.84738v-44.32185h13.54279v44.32185z" fill="#ab6115"/><path d="M258.37953,83.65944c0,6.45955 -33.24139,6.45955 -33.24139,0c0,-6.45955 7.44134,-11.69604 16.62069,-11.69604c9.17935,0 16.6207,5.2365 16.6207,11.69604z" fill="#844a10"/></g><path d="M-64.5,175.76158v-144.45168h629v144.45169z" fill="url(#color-10)" stroke="none" stroke-width="0" stroke-linecap="butt"/></g></g></svg>