<svg version="1.1" xmlns="http://www.w3.org/2000/svg" xmlns:xlink="http://www.w3.org/1999/xlink" width="610.1051" height="550.40943" viewBox="0,0,610.1051,550.40943"><g transform="translate(83.28164,64.76541)"><g data-paper-data="{&quot;isPaintingLayer&quot;:true}" fill-rule="nonzero" stroke-linecap="butt" stroke-linejoin="miter" stroke-miterlimit="10" stroke-dasharray="" stroke-dashoffset="0" style="mix-blend-mode: normal"><path d="M-43.03304,413.48349v-466.96697h566.06607v466.96697z" fill="#736196" stroke="none" stroke-width="NaN"/><path d="M363.1598,469.76912v-534.53453h163.66366v534.53453z" fill="#7f7396" stroke="none" stroke-width="0"/><path d="M217.49474,479.49296l-0.06566,-0.04439l-0.00869,0.02609l-0.80646,-0.26881c-0.19471,-0.05989 -0.33627,-0.24118 -0.33627,-0.45554c0,-0.07234 0.01612,-0.14092 0.04497,-0.20231c-1.39973,-1.67152 -1.8281,-4.7818 -2.61866,-6.26693c-1.75529,-3.67204 -1.15318,-9.19388 -3.02725,-12.71447l-0.05592,-0.53965c0,0 0,-0.03345 0.0084,-0.08356c-0.12753,0.01746 -0.49259,0.02837 -0.59803,-0.39341c-0.12849,-0.51395 0.38545,-0.64242 0.38545,-0.64242c1.81756,-0.42769 3.65698,-2.63746 5.52174,-2.73742c0.89814,-0.04813 0.55663,3.07227 1.18187,2.42572c2.17089,-2.245 2.76654,1.17856 4.42679,-0.63027c0.46032,-0.32857 1.7899,-1.44942 2.45733,-1.06523c0.81256,0.46772 -0.06763,3.31631 0.35169,3.53959c0.57243,0.30482 0.86292,-1.15034 1.50638,-1.23131c0.7562,-0.09517 1.30666,2.14651 1.72022,1.50629c1.75108,-2.71082 3.79117,2.04084 3.76071,3.7312c1.68913,3.37825 -3.35559,13.06678 -5.73381,15.47361c-1.00069,0.98947 -1.63141,1.14969 -2.29069,1.01628c-0.02983,0.02444 -0.06268,0.04532 -0.09789,0.06202l-0.53536,0.26769l-0.09016,-0.18032c-1.2764,0.4837 -2.72445,0.10546 -4.08579,-0.33843l-0.175,-0.14783c-0.24495,0.01172 -0.48737,-0.01396 -0.7268,-0.10287c-0.00192,-0.0007 -0.00385,-0.00143 -0.00577,-0.00216c-0.03545,-0.00052 -0.07119,-0.0009 -0.10723,-0.00114z" fill="#000000" stroke="none" stroke-width="0.5"/><path d="M273.59578,477.58427c0.16118,0.07642 0.27264,0.2406 0.27264,0.43083c0,0.19023 -0.11147,0.35443 -0.27264,0.43083l-0.53536,0.26767c-1.65941,0.79321 -3.44243,0.02017 -5.11444,0.0503c0,0 -0.47652,0 -0.47652,-0.47652c0,-0.05304 0.00589,-0.10017 0.01639,-0.14204c-0.31833,0.09302 -0.64014,0.13488 -0.97326,0.06482c-2.59894,-0.54653 -3.67,-4.8617 -4.92715,-6.5591c-2.27866,-3.37234 -2.49914,-8.92253 -4.87289,-12.12753l-0.13506,-0.52545c0,0 -0.00494,-0.03309 -0.00404,-0.08387c-0.12355,0.03614 -0.48298,0.10085 -0.64959,-0.30072c-0.20303,-0.48933 0.28629,-0.69234 0.28629,-0.69234c1.73441,-0.69159 3.22708,-3.14892 5.05659,-3.52332c0.88116,-0.18034 1.0045,2.95629 1.52732,2.22443c1.81531,-2.54115 2.91031,0.75681 4.28505,-1.27751c0.4067,-0.39299 1.55607,-1.69801 2.27296,-1.41667c0.87275,0.34252 0.42319,3.28991 0.87089,3.44878c0.61119,0.21689 0.68344,-1.26524 1.30788,-1.4404c0.73384,-0.20588 1.60951,1.92986 1.92392,1.23556c1.33128,-2.93984 4.05112,1.45821 4.27079,3.13451c2.1698,3.09156 -1.38782,13.4192 -3.38426,16.15103c-0.36124,0.48245 -0.67784,0.80442 -0.97456,1.0122zM271.36927,478.17595c-0.04565,-0.00884 -0.09158,-0.01818 -0.13776,-0.02792c-0.01625,0.01086 -0.03344,0.02156 -0.05158,0.03204c0.06343,-0.00012 0.12656,-0.00143 0.18933,-0.00412z" fill="#000000" stroke="none" stroke-width="0.5"/><g fill="#663f3f" stroke="#000000" stroke-width="0.5"><path d="M214.43797,477.49163l-0.23128,-2.84968l12.07826,-0.25055l0.2313,2.84966z"/><path d="M214.97062,482.0114l-0.21081,-2.84968l11.00955,-0.25058l0.21083,2.84968z"/><path d="M214.16566,472.31799l-0.23128,-2.84968l12.07826,-0.25055l0.2313,2.84968z"/><path d="M214.43797,467.41665l-0.23128,-2.84968l12.07826,-0.25055l0.2313,2.84968z"/><path d="M213.89339,463.60449l-0.23128,-2.84968l12.07826,-0.25055l0.2313,2.84968z"/><path d="M218.99378,485.36422l-0.40708,-27.6915l2.73686,-0.31348l0.40708,27.69152z"/></g><g fill="#663f3f" stroke="#000000" stroke-width="0.5"><path d="M262.6345,475.31326l-0.2313,-2.84968l12.07828,-0.25058l0.2313,2.84968z"/><path d="M263.16713,479.83304l-0.21081,-2.84968l11.00955,-0.25058l0.21083,2.84968z"/><path d="M262.3622,470.13963l-0.2313,-2.84968l12.07826,-0.25055l0.23132,2.84968z"/><path d="M262.6345,465.23828l-0.2313,-2.84968l12.07828,-0.25055l0.2313,2.84968z"/><path d="M262.0899,461.42613l-0.23128,-2.84968l12.07826,-0.25055l0.2313,2.84968z"/><path d="M267.19031,483.18587l-0.40708,-27.6915l2.73686,-0.31348l0.40708,27.69152z"/></g><path d="M-83.28164,469.27363v-509.00901h163.66366v509.00901z" fill="#7f7396" stroke="none" stroke-width="0"/><g fill="#8c0000" stroke="none" stroke-width="0"><path d="M470.5984,390.73309c0,0 9.41778,-97.8111 9.87281,-139.28c0.27511,-25.072 -39.07828,12.85891 -37.31447,-15.36363c1.20658,-19.30634 2.87807,-38.2912 5.17398,-55.50621c2.1178,-15.87954 -41.18721,12.05753 -39.23858,-3.40214c2.25139,-17.86161 4.32942,-33.96418 6.09448,-49.79241c2.15851,-19.35649 -37.2113,5.72261 -35.95623,-11.61155c1.19965,-16.56877 1.89093,-31.7987 1.89093,-44.89645c0,-19.67707 -39.50044,20.91276 -39.50044,8.08291c0,-45.90288 0,-109.69668 0,-109.69668h173.92127v421.46621z" data-paper-data="{&quot;index&quot;:null}"/><path d="M-35.54214,390.7331v-421.46621h173.92127c0,0 0,63.79382 0,109.69668c0,12.82987 -39.50044,-27.76 -39.50044,-8.08293c0,13.09776 0.69127,28.32771 1.89093,44.89648c1.25507,17.33418 -38.11474,-7.74491 -35.95623,11.61155c1.76507,15.82823 3.84311,31.9308 6.0945,49.79241c1.94863,15.45968 -41.35637,-12.4774 -39.23858,3.40213c2.2959,17.215 3.96739,36.19987 5.17398,55.50621c1.76382,28.22255 -37.58958,-9.70838 -37.31447,15.36363c0.45503,41.46889 9.87281,139.28002 9.87281,139.28002z" data-paper-data="{&quot;index&quot;:null}"/><path d="M130.68471,80.66762v-111.40076h214.37533v111.40076z"/></g><path d="M-36.66667,395.61037v-431.22073h553.33333v431.22073z" fill-opacity="0.62745" fill="#000000" stroke="none" stroke-width="0"/></g></g></svg>