<svg version="1.1" xmlns="http://www.w3.org/2000/svg" xmlns:xlink="http://www.w3.org/1999/xlink" width="132.14853" height="299.55255" viewBox="0,0,132.14853,299.55255"><g transform="translate(-167.76777,-26.84919)"><g data-paper-data="{&quot;isPaintingLayer&quot;:true}" fill-rule="nonzero" stroke-linejoin="miter" stroke-miterlimit="10" stroke-dasharray="" stroke-dashoffset="0" style="mix-blend-mode: normal"><g fill="#663f3f" stroke="#000000" stroke-width="0.5" stroke-linecap="butt"><path d="M211.59864,311.30272l0.25488,-4.15085l8.34686,0.27698l-0.25488,4.15085z"/><path d="M207.26133,313.83264l0.25488,-4.15085l8.34685,0.27698l-0.25488,4.15086z"/><path d="M216.96433,307.91568l0.25488,-4.15085l8.34685,0.27698l-0.25488,4.15085z"/><path d="M216.59111,313.99372l0.25486,-4.15085l8.34685,0.27698l-0.25488,4.15085z"/><path d="M207.64364,307.60636l0.25488,-4.15085l8.34686,0.277l-0.25488,4.15085z"/><path d="M213.10018,318.63136l1.05593,-17.1964l4.45166,0.14772l-1.05593,17.19641z"/></g><g fill="#663f3f" stroke="#000000" stroke-width="0.5" stroke-linecap="butt"><path d="M262.86178,311.97866l-0.98375,-4.04062l8.05558,-2.20324l0.98377,4.04064z"/><path d="M259.46641,315.67785l-0.98377,-4.04065l8.05558,-2.20324l0.98377,4.04065z"/><path d="M266.98617,307.15659l-0.98377,-4.04064l8.05558,-2.20324l0.98377,4.04065z"/><path d="M268.42668,313.07324l-0.98376,-4.04062l8.05558,-2.20324l0.98377,4.04064z"/><path d="M257.99075,309.6169l-0.98376,-4.04064l8.05558,-2.20324l0.98377,4.04064z"/><path d="M266.463,318.5357l-4.07557,-16.7398l4.29632,-1.17505l4.07557,16.7398z"/></g><g fill="#663f3f" stroke="#000000" stroke-width="0.5" stroke-linecap="butt"><path d="M216.79296,149.59646l4.32052,-4.57942l9.81307,9.25827l-4.32053,4.57941z"/><path d="M209.10896,147.91126l4.32052,-4.57943l9.81304,9.25828l-4.32052,4.57943z"/><path d="M226.54763,151.38053l4.32052,-4.57943l9.81305,9.25826l-4.32052,4.57943z"/><path d="M220.22117,158.08609l4.32052,-4.57943l9.81304,9.25828l-4.32052,4.57943z"/><path d="M215.58972,141.04209l4.32052,-4.57942l9.81307,9.25827l-4.32053,4.57941z"/><path d="M211.52174,159.77074l17.89932,-18.97191l5.23362,4.93775l-17.89931,18.97191z"/></g><g fill="#663f3f" stroke="#000000" stroke-width="0.5" stroke-linecap="butt"><path d="M267.43664,158.36112l-2.98759,-5.54187l11.87546,-6.40197l2.98758,5.54187z"/><path d="M263.41951,165.12473l-2.98758,-5.54187l11.87544,-6.40197l2.98759,5.54187z"/><path d="M272.19904,149.66305l-2.98759,-5.54187l11.87545,-6.40198l2.98758,5.54187z"/><path d="M276.57372,157.77793l-2.98759,-5.54187l11.87545,-6.40198l2.98759,5.54187z"/><path d="M258.93813,156.81194l-2.98759,-5.54187l11.87545,-6.40199l2.98758,5.54189z"/><path d="M275.43585,166.56563l-12.37716,-22.9592l6.33358,-3.41438l12.37716,22.9592z"/></g><g fill="#663f3f" stroke="#000000" stroke-width="0.5" stroke-linecap="butt"><path d="M250.85775,235.1259l-1.89478,-4.08517l8.75394,-4.06025l1.89479,4.08517z"/><path d="M247.69888,239.78222l-1.89479,-4.08518l8.75394,-4.06025l1.89478,4.08517z"/><path d="M254.63194,229.12051l-1.89479,-4.08517l8.75394,-4.06025l1.89479,4.08517z"/><path d="M257.40644,235.10237l-1.89478,-4.08517l8.75394,-4.06025l1.89479,4.08517z"/><path d="M244.85671,233.65446l-1.89479,-4.08517l8.75394,-4.06025l1.89479,4.08517z"/><path d="M256.21623,241.32757l-7.84981,-16.92431l4.66878,-2.16546l7.84981,16.92429z"/></g><g fill="#663f3f" stroke="#000000" stroke-width="0.5" stroke-linecap="butt"><path d="M225.6274,227.04284l1.59304,-4.21202l9.02576,3.41364l-1.59304,4.21202z"/><path d="M220.09043,228.04375l1.59304,-4.21202l9.02575,3.41363l-1.59303,4.21203z"/><path d="M232.55876,225.53763l1.59303,-4.21201l9.02576,3.41364l-1.59304,4.21202z"/><path d="M230.2261,231.7052l1.59304,-4.21202l9.02575,3.41363l-1.59303,4.21201z"/><path d="M222.47999,221.72573l1.59304,-4.21202l9.02575,3.41363l-1.59304,4.21202z"/><path d="M224.94562,235.2104l6.59971,-17.4498l4.81373,1.82062l-6.5997,17.4498z"/></g><g fill="#663f3f" stroke="#000000" stroke-width="0.5" stroke-linecap="butt"><path d="M267.03895,50.98547l2.15444,-1.38325l2.96412,4.61667l-2.15444,1.38326z"/><path d="M264.17189,49.56638l2.15444,-1.38325l2.96412,4.61667l-2.15444,1.38325z"/><path d="M270.71351,52.64677l2.15444,-1.38325l2.96412,4.61666l-2.15444,1.38325z"/><path d="M267.55879,54.67225l2.15445,-1.38326l2.96412,4.61667l-2.15445,1.38326z"/><path d="M267.40353,47.49151l2.15444,-1.38325l2.96412,4.61667l-2.15444,1.38325z"/><path d="M263.96032,54.48339l8.92555,-5.73063l1.58087,2.46221l-8.92555,5.73063z"/></g><g fill="#663f3f" stroke="#000000" stroke-width="0.5" stroke-linecap="butt"><path d="M217.70061,45.44251l-1.62318,-1.97998l4.24281,-3.47824l1.62318,1.97998z"/><path d="M216.62269,48.45447l-1.62318,-1.97998l4.24281,-3.47824l1.62318,1.97998z"/><path d="M218.92571,41.60046l-1.62318,-1.97998l4.24281,-3.47824l1.62318,1.97998z"/><path d="M221.30251,44.49972l-1.62317,-1.97997l4.24281,-3.47824l1.62318,1.97998z"/><path d="M214.18792,45.4845l-1.62318,-1.97998l4.24281,-3.47824l1.62318,1.97998z"/><path d="M221.53118,48.09587l-6.72459,-8.20276l2.26282,-1.85506l6.72461,8.20277z"/></g><g fill="#663f3f" stroke="#000000" stroke-width="0.5" stroke-linecap="butt"><path d="M239.30313,123.36757l0.31605,-8.54545l18.3117,0.67724l-0.31605,8.54545z"/><path d="M229.94411,128.52246l0.31605,-8.54545l18.31169,0.67725l-0.31604,8.54545z"/><path d="M250.86624,116.46053l0.31604,-8.54545l18.3117,0.67724l-0.31605,8.54545z"/><path d="M250.40346,128.97352l0.31604,-8.54547l18.3117,0.67724l-0.31603,8.54547z"/><path d="M230.41817,115.70428l0.31605,-8.54545l18.3117,0.67723l-0.31604,8.54547z"/><path d="M243.02279,138.48013l1.30933,-35.40262l9.76624,0.3612l-1.30933,35.40262z"/></g><path d="M297.68635,70.38421c1.11647,23.27297 -17.25506,43.06418 -41.03395,44.20492c-23.7789,1.14074 -43.96058,-16.80097 -45.07705,-40.07393c-1.11647,-23.27297 17.25506,-43.06419 41.03394,-44.20493c10.26329,-0.49236 13.75837,28.57181 21.4377,34.08353c10.11281,7.25831 23.00476,-7.23763 23.63936,5.9904z" fill="#c50000" stroke="#000000" stroke-width="0.5" stroke-linecap="butt"/><path d="M287.93235,87.29669l-27.94712,13.09884l-26.36988,1.90047l-8.56347,-11.48952z" fill="#000000" stroke="#3e0000" stroke-width="0.5" stroke-linecap="round"/><path d="M232.87924,61.99577c3.03257,-0.14548 5.63509,2.74127 5.81291,6.44774c0.17781,3.70648 -2.13643,6.82909 -5.16899,6.97458c-3.03257,0.14548 -5.63509,-2.74127 -5.81291,-6.44774c-0.17781,-3.70648 2.13643,-6.82909 5.16899,-6.97458z" fill="#000000" stroke="#000000" stroke-width="0.5" stroke-linecap="butt"/><path d="M229.93621,85.80373c-0.30442,-0.0244 -0.28004,-0.32883 -0.28004,-0.32883l0.04245,-0.45801c0.22349,-0.67253 -0.10783,-1.33105 -0.61941,-1.80434c-0.09268,-1.19664 -0.88841,-2.30598 -0.67601,-3.57928c0.22504,-1.34906 1.323,-1.86615 1.83857,-2.96764c0.3138,-0.67043 -0.1581,-2.62291 -0.19541,-3.40065c0,0 -0.01464,-0.30505 0.29041,-0.31969c0.30505,-0.01464 0.31969,0.29041 0.31969,0.29041c0.04476,0.93306 0.50507,2.82561 0.1441,3.67658c-0.45797,1.07964 -1.57076,1.5693 -1.79683,2.83265c-0.20247,1.13129 0.61531,2.14355 0.62796,3.20708c0.65427,0.58309 0.86125,1.39402 0.655,2.23003l-0.02164,0.34164c0,0 -0.02441,0.30443 -0.32883,0.28004z" fill="#420000" stroke="none" stroke-width="0.5" stroke-linecap="butt"/><path d="M235.90251,86.98764c-0.30505,0.01464 -0.31969,-0.29041 -0.31969,-0.29041l-0.01756,-0.36607c-0.08178,-1.70469 1.32993,-2.5743 2.11303,-4.08876c2.82893,-2.52697 -1.62926,-6.22196 -1.77492,-9.25838c0,0 -0.01464,-0.30505 0.29041,-0.31969c0.30505,-0.01464 0.31969,0.29041 0.31969,0.29041c0.16463,3.43168 4.69549,6.56259 1.65463,9.65256c-0.70223,1.37647 -2.06306,2.2289 -1.99275,3.69459l0.01756,0.36607c0,0 0.01464,0.30505 -0.29041,0.31969z" fill="#000000" stroke="none" stroke-width="0.5" stroke-linecap="butt"/><path d="M232.73685,84.9162c-0.2778,0.12688 -0.40468,-0.15092 -0.40468,-0.15092l-0.01954,-0.0428c-0.09091,-0.20347 -0.18183,-0.40695 -0.27275,-0.61042c-0.09357,-1.6639 -0.49551,-3.97771 0.26597,-5.49031c0.5836,-1.15925 1.98417,-2.26303 1.02207,-3.90983c0,0 -0.14952,-0.2663 0.11679,-0.41581c0.26631,-0.14952 0.41581,0.1168 0.41581,0.1168c1.04455,1.91965 -0.32166,3.1567 -1.0203,4.50468c-0.69029,1.33188 -0.26362,3.55422 -0.20678,5.05033c0.07826,0.16693 0.15653,0.33386 0.23479,0.50078l0.01954,0.0428c0,0 0.12688,0.2778 -0.15092,0.40468z" fill="#04ff00" stroke="none" stroke-width="0.5" stroke-linecap="butt"/><path d="M234.5481,85.52384c-0.01464,-0.30505 0.29041,-0.31969 0.29041,-0.31969l0.22334,0.15831c0.56561,-1.25988 1.58125,-2.12182 2.04418,-3.27792c1.10315,-2.48522 0.51102,-3.26972 -0.97381,-5.28168c-0.69264,-0.93854 -2.23129,-1.38448 -1.62062,-2.91038c0,0 0.12333,-0.27939 0.40273,-0.15606c0.2794,0.12334 0.15605,0.40273 0.15605,0.40273c-0.57059,1.12387 2.20895,3.10283 2.85473,3.9504c1.09624,1.43881 0.36861,2.80826 -0.26029,4.24167c-0.53097,1.12761 -1.49417,2.00635 -2.04418,3.27792l-0.75283,0.20513c0,0 -0.30505,0.01464 -0.31969,-0.29041z" fill="#1c00ff" stroke="none" stroke-width="0.5" stroke-linecap="butt"/><path d="M228.17461,90.57233c-0.93931,-2.95796 0.48861,-6.05112 3.18936,-6.90876c2.70074,-0.85764 5.65161,0.84502 6.59092,3.80298c0.93931,2.95798 -0.48861,6.05112 -3.18936,6.90876c-2.70074,0.85764 -5.6516,-0.845 -6.59091,-3.80297z" fill="#ffffff" stroke="#000000" stroke-width="0" stroke-linecap="butt"/><path d="M234.25164,93.36538c0.0194,0.40434 -0.40192,0.75309 -0.94105,0.77896c-0.53913,0.02586 -0.9919,-0.28096 -1.01129,-0.6853c-0.0194,-0.40434 0.40192,-0.75309 0.94105,-0.77896c0.53913,-0.02586 0.9919,0.28096 1.01129,0.6853z" fill="#000000" stroke="none" stroke-width="0" stroke-linecap="butt"/><path d="M267.81926,70.5698c-0.93931,-2.95796 0.48861,-6.05112 3.18936,-6.90876c1.36157,-0.43238 1.90418,1.78514 3.10308,2.487c1.17921,0.69033 3.02207,-0.15076 3.48784,1.31597c0.93931,2.95798 -0.48861,6.05112 -3.18936,6.90876c-2.70074,0.85764 -5.65161,-0.84502 -6.59092,-3.80298z" fill="#ffffff" stroke="#000000" stroke-width="0.5" stroke-linecap="butt"/><path d="M273.3936,69.94366c0.0194,0.40434 -0.40192,0.75309 -0.94105,0.77896c-0.53913,0.02586 -0.9919,-0.28096 -1.01129,-0.6853c-0.0194,-0.40434 0.40192,-0.75309 0.94105,-0.77896c0.53913,-0.02586 0.9919,0.28096 1.01129,0.6853z" fill="#000000" stroke="none" stroke-width="0" stroke-linecap="butt"/><path d="M218.13561,33.594c4.96717,4.79546 3.00971,4.60932 0.27998,7.43679c-2.72974,2.82747 -4.21128,4.08463 -9.17844,-0.71084c-4.96717,-4.79546 -7.85992,-9.38292 -5.13018,-12.21039c2.72974,-2.82747 9.06147,0.68898 14.02863,5.48444z" fill="#ff0000" stroke="#000000" stroke-width="0.5" stroke-linecap="butt"/><path d="M217.95506,35.4491c3.25179,3.13937 1.97032,3.01752 0.18329,4.86853c-1.78703,1.85101 -2.75693,2.67402 -6.00872,-0.46535c-3.25179,-3.13937 -5.14554,-6.14258 -3.3585,-7.99361c1.78703,-1.85101 5.93215,0.45105 9.18394,3.59043z" fill="#d00000" stroke="#000000" stroke-width="0.5" stroke-linecap="butt"/><path d="M284.7109,56.92648c-0.30088,0.05238 -0.35325,-0.24851 -0.35325,-0.24851l-0.00897,-0.05151c-0.09861,-0.93852 -1.3185,-2.46436 -2.06596,-3.32545c-1.31259,-2.25044 -2.84924,-2.48064 -5.35588,-2.08516c-1.28283,0.2024 -3.55623,1.92026 -3.83332,0.15521c0,0 -0.01464,-0.30505 0.29041,-0.31969c0.30505,-0.01464 0.31969,0.29041 0.31969,0.29041c-0.10726,0.6072 2.33763,-0.60278 3.12732,-0.72917c2.68845,-0.43026 4.53618,-0.11372 5.94873,2.33324c0.89236,1.02725 1.91752,2.41804 2.17077,3.57585l0.00896,0.0515c0,0 0.05238,0.30088 -0.24851,0.35325z" fill="#04ff00" stroke="none" stroke-width="0.5" stroke-linecap="butt"/><path d="M284.6718,59.3104c-0.22974,0.20123 -0.43097,-0.02851 -0.43097,-0.02851l-0.4134,-0.52046c-0.2585,-1.21859 -1.83703,-2.04385 -2.03609,-3.50658c-0.93094,-1.05468 -2.02329,-4.31471 -3.35396,-4.77493c-1.15526,-0.39956 -3.51572,0.19193 -4.763,0.25177c0,0 -0.30505,0.01464 -0.31969,-0.29041c-0.01464,-0.30505 0.29041,-0.31969 0.29041,-0.31969c1.32069,-0.06336 3.76881,-0.66853 4.99869,-0.21653c1.55222,0.57046 2.68068,3.85449 3.7036,5.09702c0.24596,1.51437 1.67723,2.28972 2.07061,3.60352l0.28229,0.27384c0,0 0.20122,0.22973 -0.02852,0.43095z" fill="#1c00ff" stroke="none" stroke-width="0.5" stroke-linecap="butt"/><path d="M285.42964,59.95203c0.01452,0.30506 -0.29053,0.31958 -0.29053,0.31958l-0.34311,0.01634c-3.4946,0.15553 -4.15546,-2.62978 -5.10429,-5.29134c-0.12992,-2.44101 -1.72869,-6.53555 -5.1188,-5.188c-0.55264,0.21968 -0.91665,0.89551 -1.50863,0.95237c0,0 -0.30505,0.01464 -0.31969,-0.29041c-0.01464,-0.30505 0.29041,-0.31969 0.29041,-0.31969c0.78935,0.02317 1.00155,-0.90455 1.99812,-1.00634c3.56176,-0.36378 5.12933,2.68354 5.25759,5.73255c0.86871,2.3821 1.31426,4.94263 4.47802,4.80068l0.34132,-0.01625c0,0 0.30506,-0.01452 0.31958,0.29053z" fill="#000000" stroke="none" stroke-width="0.5" stroke-linecap="butt"/><path d="M278.25246,60.57236c-0.26927,0.1441 -0.41336,-0.12517 -0.41336,-0.12517l-0.11458,-0.21412c-1.64278,-3.07269 5.25303,-6.34305 2.64322,-9.59868c-0.79971,-2.41176 -3.05366,-2.53753 -5.55074,-1.76874c-0.78297,0.24106 -2.52907,0.60268 -1.79146,1.7604c0,0 0.14951,0.26631 -0.1168,0.41581c-0.26631,0.14951 -0.41581,-0.11679 -0.41581,-0.11679c-0.86177,-1.6762 0.86541,-2.26657 2.14811,-2.64434c2.66941,-0.7862 5.40977,-0.65286 6.26659,2.06801c2.71185,3.59658 -4.15586,6.7749 -2.64458,9.59613l0.11458,0.21412c0,0 0.1441,0.26927 -0.12517,0.41336z" fill="#420000" stroke="none" stroke-width="0.5" stroke-linecap="butt"/><path d="M265.82759,167.10694c-2.86707,41.13756 -10.12241,66.97534 -24.5929,65.96682c-14.4705,-1.0085 -16.37034,-33.34589 -13.50327,-74.48345c2.86707,-41.13756 8.74298,-39.28009 23.21348,-38.27157c14.4705,1.0085 17.74977,5.65064 14.88271,46.7882z" fill="#c50000" stroke="#000000" stroke-width="2" stroke-linecap="butt"/><path d="M256.70044,194.87732c-1.26552,20.36977 -9.99971,23.5589 -12.69324,23.39156c-2.69352,-0.16735 -12.0414,-9.08494 -10.77589,-29.45471c1.26552,-20.36977 9.91192,-25.38922 12.60543,-25.22187c2.69352,0.16735 12.12921,10.91524 10.86368,31.28501z" fill="#8b0000" stroke="none" stroke-width="0" stroke-linecap="butt"/><path d="M243.75906,147.56916c-0.05657,-1.17934 0.85359,-2.18123 2.03293,-2.23781c1.17934,-0.05657 2.18123,0.85359 2.23781,2.03293c0.05657,1.17934 -0.85359,2.18123 -2.03293,2.23781c-1.17934,0.05657 -2.18123,-0.85359 -2.23781,-2.03293z" fill="#000000" stroke="none" stroke-width="0.5" stroke-linecap="butt"/><path d="M245.06254,136.49946c-0.05657,-1.17934 0.85359,-2.18123 2.03293,-2.23781c1.17934,-0.05657 2.18123,0.85359 2.23781,2.03293c0.05657,1.17934 -0.85359,2.18123 -2.03293,2.23781c-1.17934,0.05657 -2.18123,-0.85359 -2.23781,-2.03293z" fill="#000000" stroke="none" stroke-width="0.5" stroke-linecap="butt"/><path d="M216.08531,185.38918c-7.56721,19.73193 -18.8895,33.73827 -25.28905,31.28404c-6.39954,-2.45423 -5.45296,-20.43966 2.11425,-40.1716c7.56721,-19.73193 18.8895,-33.73827 25.28905,-31.28404c6.39954,2.45423 5.45296,20.43968 -2.11425,40.1716z" fill="#c50000" stroke="#000000" stroke-width="2" stroke-linecap="butt"/><path d="M297.95222,188.28677c2.73721,20.95517 -0.5533,38.66236 -7.34957,39.55011c-6.79628,0.88775 -14.52469,-15.38013 -17.2619,-36.33529c-2.73721,-20.95517 0.55331,-38.66235 7.34958,-39.5501c6.79628,-0.88775 14.5247,15.38012 17.2619,36.33529z" fill="#c50000" stroke="#000000" stroke-width="2" stroke-linecap="butt"/><path d="M271.80342,267.81444c2.73721,20.95517 -0.5533,38.66236 -7.34957,39.55011c-6.79628,0.88775 -14.5247,-15.38012 -17.2619,-36.33529c-2.73721,-20.95517 0.55331,-38.66235 7.34958,-39.5501c6.79628,-0.88775 14.5247,15.38012 17.2619,36.33529z" fill="#c50000" stroke="#000000" stroke-width="2" stroke-linecap="butt"/><path d="M232.66808,269.32098c-1.83313,21.05354 -8.8545,37.63883 -15.68267,37.04431c-6.82818,-0.59453 -10.87746,-18.14374 -9.04434,-39.19728c1.83313,-21.05354 8.8545,-37.63884 15.68267,-37.04432c6.82818,0.59453 10.87746,18.14374 9.04434,39.19728z" fill="#c50000" stroke="#000000" stroke-width="2" stroke-linecap="butt"/><path d="M225.4322,320.03796c0.14548,3.03257 -2.58813,5.01624 -9.8326,5.36377c-7.24447,0.34753 -8.96447,-2.03399 -9.10995,-5.06656c-0.14548,-3.03257 1.33864,-5.56781 8.58311,-5.91534c7.24447,-0.34753 10.21395,2.58556 10.35943,5.61813z" fill="#c50000" stroke="#000000" stroke-width="2" stroke-linecap="butt"/><path d="M279.81941,319.26338c0.14548,3.03257 -2.27896,2.96305 -9.52342,3.31059c-7.24447,0.34753 -6.84298,-0.30123 -6.98846,-3.3338c-0.14548,-3.03257 -1.09202,-5.24737 6.15245,-5.59491c7.24447,-0.34753 10.21395,2.58556 10.35943,5.61813z" fill="#c50000" stroke="#000000" stroke-width="2" stroke-linecap="butt"/><path d="M213.75146,324.38236c-0.30091,-0.05221 -0.24869,-0.35313 -0.24869,-0.35313l0.09261,-0.41394c1.72322,-2.73022 -0.71737,-5.25629 -2.24223,-7.1882c0,0 -0.18922,-0.23973 0.0505,-0.42896c0.23973,-0.18922 0.42894,0.05052 0.42894,0.05052c1.75336,2.2214 4.05793,4.80654 2.28666,7.88071l-0.01467,0.20429c0,0 -0.05221,0.30091 -0.35311,0.24869z" fill="#000000" stroke="none" stroke-width="0.5" stroke-linecap="butt"/><path d="M218.90251,324.14259c-0.30505,0.01464 -0.31969,-0.29041 -0.31969,-0.29041l0.01473,-0.33866c0.06181,-0.14318 0.12362,-0.28632 0.18542,-0.42949c1.07238,-3.8157 -1.86061,-4.5238 -2.04326,-7.90841c0,0 -0.01464,-0.30505 0.29041,-0.31969c0.30505,-0.01464 0.31969,0.29041 0.31969,0.29041c0.06281,1.53405 1.62783,2.26568 1.9944,3.50313c0.56868,1.91966 0.5596,2.69657 0.0146,4.63822c-0.06672,0.1557 -0.13344,0.31141 -0.20016,0.46712l0.03424,0.06808c0,0 0.01464,0.30505 -0.29041,0.31969z" fill="#000000" stroke="none" stroke-width="0.5" stroke-linecap="butt"/><path d="M271.41923,320.38448c-0.29402,-0.08258 -0.21145,-0.37661 -0.21145,-0.37661l0.00894,-0.03181c0.42847,-1.51844 3.29343,-4.00515 2.61229,-5.16027c0,0 -0.14952,-0.2663 0.11679,-0.41581c0.26631,-0.14952 0.41581,0.1168 0.41581,0.1168c0.95474,1.76422 -2.02474,3.72043 -2.55685,5.62446l-0.00895,0.0318c0,0 -0.08259,0.29403 -0.37661,0.21145z" fill="#000000" stroke="none" stroke-width="0.5" stroke-linecap="butt"/><path d="M220.02579,247.96379c0.20536,-0.22604 0.43142,-0.0207 0.43142,-0.0207l0.27407,0.27015c0.60791,1.12334 1.51067,2.0949 2.02863,3.45566c0.18982,3.51726 5.12217,4.84431 3.01696,9.28042c-1.04914,1.04645 -3.62574,1.76641 -4.73281,0.40613c-0.5762,-0.70798 -0.49743,-1.97953 -1.29154,-2.60645c-1.1095,-0.8759 -2.30704,-1.02145 -3.26042,-2.33287c-0.57296,-2.17781 0.24272,-8.67954 3.66823,-7.92116c0,0 0.01192,0.00335 0.03029,0.01109l-0.14413,-0.11089c0,0 -0.22605,-0.20536 -0.02069,-0.4314z" fill="#000000" stroke="none" stroke-width="0.5" stroke-linecap="butt"/><path d="M229.81562,272.99338l0.15253,-0.00732c1.31924,-0.03455 1.43327,1.19599 1.48249,2.22204c0.1164,2.42638 -0.70951,4.3307 -0.5932,6.75506c0.11941,2.48916 0.46338,4.85391 -0.75458,6.85142c0.02939,1.39678 -3.79687,6.97021 -5.2092,5.19012c0,0 -0.03959,-0.0705 -0.04174,-0.15932l-0.23532,-0.11197c-0.32345,-0.5761 -0.91376,-0.75974 -1.32595,-1.24201c-1.11515,-1.30478 -0.42764,-3.70205 -0.49977,-5.20552c-0.03171,-1.33766 -1.07154,-1.99226 -1.55085,-3.06998c-0.84709,-1.90469 0.99263,-2.69235 1.65508,-4.00973c0.43702,-0.86911 -0.78434,-1.84181 -0.71875,-2.75015c0.37592,-1.74712 3.86726,-4.68147 5.72272,-4.78567c0.46694,-0.02623 1.06625,0.28188 1.63254,0.54998c0.04408,-0.21541 0.28402,-0.22692 0.28402,-0.22692z" fill="#000000" stroke="none" stroke-width="0.5" stroke-linecap="butt"/><path d="M263.81092,169.03332c-0.20708,-0.12415 -0.15229,-0.31387 -0.12027,-0.38788c-0.7539,-0.29234 -1.50037,-0.6714 -1.73349,-0.44813c-0.22417,0.21468 0.40769,0.76704 -0.28363,1.16212c0.33711,2.98259 -0.65247,6.80952 -2.18722,9.52507c0.09039,0.11626 0.1778,0.26015 0.26446,0.43766l-0.13677,0.11702l0.05936,0.05393l-0.38722,0.42624c-0.05256,0.05785 -0.12718,0.09566 -0.21142,0.09971c-0.16848,0.00808 -0.3116,-0.12195 -0.31969,-0.29041l-0.02927,-0.6101l0.16129,-0.00773c0.001,-0.01253 0.00208,-0.02506 0.00324,-0.03754c-0.37989,-0.16312 -0.8808,-0.02228 -1.28793,-0.00274c-1.43516,0.06885 -4.58412,1.06182 -5.84713,0.43868c-1.38458,-0.68311 -3.17101,-3.64449 -3.24818,-5.20018c-0.13055,-2.72119 0.46184,-4.73065 2.67044,-6.49211c1.18463,-0.94479 3.56453,-0.67326 4.25562,-2.26771c-0.13372,-2.11689 -3.33398,-10.01173 1.85096,-7.8536c0.11989,-0.04752 0.24533,0.00785 0.24533,0.00785c0.71628,0.33452 1.58962,-0.21201 2.2714,0.10826c0.76041,0.3572 0.85309,2.32302 1.5057,2.55525c1.40567,0.50021 1.95913,-2.66262 3.18435,-0.61853c0.5242,0.96863 0.45925,1.83066 1.2861,2.50872l0.10945,0.4148c0,0 0.0118,0.24581 -0.20644,0.3067c0.50118,1.51185 0.75045,3.09944 -0.41659,4.49763c-0.23077,0.3888 -0.5426,0.66804 -0.77522,1.02408c0.16549,0.04865 0.27672,0.04579 0.30661,-0.04357l0.16049,-0.37334c0,0 0.12334,-0.2794 0.40273,-0.15606c0.2794,0.12334 0.15605,0.40273 0.15605,0.40273l-0.20722,0.45966c-0.23595,0.1961 -0.61079,0.17079 -1.02751,0.05623l-0.04943,0.08246c0,0 -0.15704,0.26193 -0.41898,0.10489z" fill="#000000" stroke="none" stroke-width="0.5" stroke-linecap="butt"/><path d="M204.13378,157.25263c0.16682,0.07363 0.19007,0.2029 0.18171,0.29513c1.18283,-0.12158 2.64166,-0.30804 3.52922,0.32336c1.30535,0.92858 0.66946,2.32679 1.0992,3.57098c0.21428,0.62035 1.1627,1.19114 1.56176,1.71829c1.95834,1.93405 0.86061,3.45192 -1.60071,3.57001c-0.42315,0.0203 -1.93287,0.29335 -2.11889,-0.33641c-0.04559,-0.15435 0.07623,-0.371 0.28702,-0.61138c-1.45215,0.49693 -3.08874,0.7338 -3.67586,0.33896c-0.53698,-0.36112 -0.67081,-1.89316 -0.89562,-1.98526c-0.35208,-0.14424 -1.16878,0.50966 -1.4225,0.64986c-0.17184,0.02907 -0.34368,0.05815 -0.51552,0.08724c-0.05782,0.12078 -0.19576,0.16238 -0.19576,0.16238c-0.06687,0.01979 -0.13049,0.03699 -0.191,0.05164c-0.02853,0.01245 -0.08381,0.03215 -0.14741,0.03191c-2.54136,0.47926 1.34528,-4.2241 2.00094,-5.31777c0.4245,-0.69496 0.71024,-1.3467 1.25436,-1.90973c0.011,-0.26881 0.29059,-0.28222 0.29059,-0.28222c0.00527,-0.00025 0.01055,-0.00051 0.01583,-0.00078c0.04687,-0.0386 0.09547,-0.07668 0.14595,-0.11424l-0.00608,-0.08588c0,0 0.12333,-0.27939 0.40273,-0.15606z" fill="#000000" stroke="none" stroke-width="0.5" stroke-linecap="butt"/><path d="M218.87208,146.52533c0.16615,-0.00797 0.24615,0.07889 0.28455,0.15966c0.04038,0.00007 0.08563,0.00923 0.13596,0.03143c0.21229,0.09372 0.19207,0.27752 0.17011,0.36041c1.50941,1.70287 1.17174,3.78586 1.95234,5.80031c0.0914,1.54569 1.20286,3.89886 0.22315,5.2226c0.00186,0.16333 -0.12578,0.30015 -0.29018,0.30833c-0.03252,0.02746 -0.06643,0.05423 -0.10173,0.08031c0,0 -0.2457,0.1814 -0.4271,-0.06431c-0.00061,-0.00081 -0.0012,-0.00163 -0.0018,-0.00244c-0.03838,0.0122 -0.06654,0.01481 -0.06654,0.01481l-0.152,0.00236c-2.41482,0.91919 -5.78998,-0.32617 -4.98508,-3.247c0.43129,-1.49514 -0.38177,-3.14721 -0.03619,-4.62869c0.30367,-1.30185 2.34702,-2.12035 3.14331,-3.37339c-0.01146,-0.01054 -0.02302,-0.02108 -0.03468,-0.03159l-0.10457,-0.31311c0,0 -0.01464,-0.30505 0.29041,-0.31969z" fill="#000000" stroke="none" stroke-width="0.5" stroke-linecap="butt"/><path d="M287.3262,181.26359l0.23634,0.19122c1.61599,1.02386 3.69889,1.39433 4.51188,3.56195c0.56208,1.93824 -0.98942,6.67363 -2.40109,8.14958c-0.76018,0.7948 -3.11066,0.38846 -4.09791,0.33733c-2.0325,-0.13827 -2.39767,-3.08956 -3.94316,-4.25238c-1.12941,-0.84977 -3.75686,-1.16718 -5.15168,-1.85832c-1.65851,-1.85434 -4.38287,-6.40198 -1.75672,-8.86194c0.47468,-0.44464 2.46614,-0.07214 3.07815,-0.05109c2.33386,0.08024 8.14678,0.33461 9.52419,2.78364z" fill="#000000" stroke="none" stroke-width="0.5" stroke-linecap="butt"/><path d="M293.72373,224.02617c0.29403,0.08259 0.21145,0.37661 0.21145,0.37661l-0.0199,0.06805c0.09089,0.02192 0.21572,0.08714 0.22496,0.27959c0.01464,0.30505 -0.29041,0.31969 -0.29041,0.31969l-0.18865,-0.05679c-0.04504,0.06747 -0.09009,0.13495 -0.13513,0.20242c-1.79691,2.97344 -4.16167,3.04793 -6.94394,1.34846c-2.83011,-0.84259 -4.37485,-4.61335 -5.59108,-7.04809c-0.45154,-2.00872 -2.15272,-3.88547 -1.52064,-6.23147c0,0 0.08259,-0.29403 0.37661,-0.21145c0.03654,0.01027 0.06726,0.0238 0.09306,0.03962c0.04825,-0.01558 0.08593,-0.0174 0.08593,-0.0174c0.49323,-0.02366 2.29078,-0.36091 2.66041,-0.03808c0.58809,0.51365 0.34877,2.53171 1.30913,2.95086c0.57708,0.25188 1.5878,-0.41851 2.09219,-0.34864c0.97171,0.13462 1.27445,1.17802 1.55983,1.91516c1.03256,3.36708 4.04766,3.9136 5.87083,6.45817c0.05281,-0.02296 0.12022,-0.03063 0.20535,-0.00672zM293.89813,224.62532l-0.01726,-0.03677l-0.00129,0.00444c0.0062,0.01074 0.01238,0.02152 0.01855,0.03233z" fill="#000000" stroke="none" stroke-width="0.5" stroke-linecap="butt"/><path d="M200.01708,185.41653c0.00621,-0.0058 0.01275,-0.01157 0.01969,-0.01731c0.23526,-0.19474 0.43,0.04053 0.43,0.04053c2.23472,2.69975 2.45898,5.67593 5.11723,8.17564c0.11314,1.41556 -1.14212,6.06853 -3.59714,3.55677c-0.76003,-0.77758 -1.22464,-4.11354 -1.32994,-4.96506c-0.70237,-1.33094 -1.56037,-3.14123 -2.42675,-4.49242c-0.18982,-0.29604 -1.03212,-1.01594 -0.90719,-1.42585c0.22291,-0.73136 1.63748,-0.38067 2.15868,-0.68802l0.11707,-0.15218c0,0 0.19752,-0.21742 0.41836,-0.0321z" fill="#000000" stroke="none" stroke-width="0.5" stroke-linecap="butt"/><path d="M210.86756,41.99428c-0.2457,0.18138 -0.42709,-0.06432 -0.42709,-0.06432l-0.218,-0.2953c-0.51694,-0.7067 -1.25621,-1.2613 -1.82107,-1.94401c-1.23891,-1.69215 -4.52806,-3.61458 -4.71496,-5.75974c0,0 -0.01118,-0.23303 0.18968,-0.30152c0.00025,-0.00057 0.0005,-0.00113 0.00075,-0.0017c0.12335,-0.27939 0.40273,-0.15605 0.40273,-0.15605c2.51535,1.17473 7.37131,0.62555 7.50946,4.46787c-0.55665,1.28655 -0.72113,1.58808 -0.66714,3.08956l-0.20472,0.48399c0,0 -0.00343,0.00776 -0.01043,0.02013l0.0251,0.03401c0,0 0.1814,0.24571 -0.06432,0.42709z" fill="#000000" stroke="none" stroke-width="0.5" stroke-linecap="butt"/><path d="M283.43831,71.51792c0.22605,0.20536 0.0207,0.43142 0.0207,0.43142l-0.11461,-0.00687c-0.00417,0.02628 0.193,0.079 0.52858,0.14964c-0.62085,-0.72729 -0.83948,-1.50948 0.35263,-2.29993c0,0 0.26631,-0.14951 0.41581,0.1168c0.14952,0.26631 -0.11679,0.41581 -0.11679,0.41581c-0.34455,0.12891 -0.31183,1.25384 -0.12601,1.87172c1.95727,0.37239 6.03521,1.01644 6.92835,1.21443c0.69004,0.39168 2.57177,1.13448 2.5843,2.13144c0.0081,0.64407 -1.82863,3.85952 -2.50509,4.06068c-0.86945,0.25856 -3.55749,-1.10497 -4.43765,-1.44674c-0.45586,-0.17904 -1.48724,-0.59802 -1.71684,-1.07701c-0.50505,-1.05359 0.92171,-1.53178 0.86674,-2.58669c-0.02151,-0.41272 -0.6049,-0.89872 -1.22881,-1.43387c-1.19123,-0.26758 -2.08426,-0.61482 -2.15533,-1.08701l0.27261,-0.43312c0,0 0.20536,-0.22605 0.4314,-0.02069z" fill="#000000" stroke="none" stroke-width="0.5" stroke-linecap="butt"/><path d="M221.47678,99.10229c-0.84848,-0.77079 -1.85057,-1.4903 -2.51806,-2.40711c-1.05587,-2.66565 -2.85923,-4.6584 -4.23134,-7.08283c-0.32216,-0.83165 -2.33216,-3.97604 -1.93766,-5.38691c-0.0164,-0.12468 0.05823,-0.21188 0.1118,-0.25726c0.12182,-0.19335 0.31769,-0.3313 0.60644,-0.39521c0,0 0.06962,-0.00336 0.14396,0.02643c0.51756,-0.1627 0.95463,-0.18775 1.5352,-0.20045c2.24678,1.30221 10.80924,2.73503 7.22917,7.06542c-0.54147,1.97981 0.96795,1.8128 0.93972,2.97625c-0.04465,1.83994 -0.00846,4.51616 -1.3579,6.03987c0,0 -0.20536,0.22605 -0.4314,0.02069c-0.16157,-0.14678 -0.10275,-0.30412 -0.05605,-0.38195z" fill="#000000" stroke="none" stroke-width="0.5" stroke-linecap="butt"/><path d="M230.87307,215.84736c-0.20536,0.22604 -0.4314,0.02069 -0.4314,0.02069l-0.05824,-0.06092c-0.0034,-0.00203 -0.00677,-0.00406 -0.01015,-0.00611c-0.13582,-0.00875 -0.20432,-0.08744 -0.23876,-0.16065c-1.48098,-1.11032 -0.71437,-2.92702 -1.71849,-4.28715c-0.21466,-2.63787 -0.77427,-5.24392 -0.90624,-7.99474c-0.04945,-1.0308 -0.54689,-4.15692 -0.02908,-5.60669c-0.01043,0.00598 -0.02095,0.01206 -0.0315,0.01829c0,0 -0.26631,0.14952 -0.41581,-0.11679c-0.14952,-0.2663 0.1168,-0.41581 0.1168,-0.41581c3.36233,-1.81959 2.28558,3.63544 2.72063,5.16863c0.35205,1.24067 1.10602,1.6395 1.1747,3.07143c0.02753,1.72003 -2.2061,2.8428 -1.41308,4.86317c0.55928,1.42491 3.5026,3.73057 1.02028,4.89673l0.00504,0.02147c0.01306,0.00818 0.0263,0.01629 0.03973,0.02435l0.15489,0.13269c0,0 0.22605,0.20536 0.02069,0.4314z" fill="#000000" stroke="none" stroke-width="0.5" stroke-linecap="butt"/><path d="M235.63863,156.71729l0.36131,-0.20285c0.29356,-0.16479 0.58432,-0.33462 0.87351,-0.50697c2.59,-1.9106 10.07463,-0.95079 7.98651,3.62915c-3.73282,2.09574 1.69014,6.15186 -2.44715,8.47469c-1.99275,4.51422 -7.25351,2.76376 -7.53344,-1.68932c-0.03793,-0.7908 -0.48203,-2.71742 -0.12176,-3.40991c0.38232,-0.73489 1.31117,-1.2676 1.49008,-2.22958c0.24481,-1.31627 -0.93451,-2.36114 -1.00365,-3.7545c0,0 -0.01464,-0.30505 0.29041,-0.31969c0.03937,-0.00189 0.0739,0.00155 0.10417,0.00896z" fill="#000000" stroke="none" stroke-width="0.5" stroke-linecap="butt"/><path d="M221.03246,249.24484l-2.05993,8.04844" fill="none" stroke="#663f3f" stroke-width="2" stroke-linecap="round"/><path d="M221.07244,259.63858l2.48937,-5.47014" fill="none" stroke="#663f3f" stroke-width="2" stroke-linecap="round"/><path d="M220.2417,251.88168c-0.04041,-0.84238 0.60971,-1.55802 1.45209,-1.59843c0.84238,-0.04041 1.55802,0.60971 1.59843,1.45209c0.01431,0.29834 -0.05799,0.58078 -0.19477,0.82296c0.19023,0.4936 0.0648,0.99846 0.0648,0.99846c-0.38441,1.54722 -0.76882,3.09443 -1.15322,4.64165l-0.14241,0.50962c0,0 -0.41291,1.47012 -1.88305,1.05722c-1.47012,-0.41291 -1.05722,-1.88305 -1.05722,-1.88305l0.11874,-0.42017c0.38441,-1.54722 0.76882,-3.09443 1.15322,-4.64165c0,0 0.04525,-0.18212 0.16787,-0.40283c-0.07176,-0.16496 -0.11537,-0.34551 -0.1245,-0.53586z" fill="#663f3f" stroke="none" stroke-width="0.5" stroke-linecap="butt"/><path d="M235.48553,158.37332c0.61667,-1.39696 2.01363,-0.78029 2.01363,-0.78029l0.92421,0.62791c0.0655,0.11243 0.14602,0.22035 0.23811,0.32061c0.33439,-1.05739 0.76477,-2.11832 1.29624,-3.19332c0,0 0.67676,-1.36887 2.04562,-0.69208c1.36887,0.67676 0.69208,2.04562 0.69208,2.04562c-0.65362,1.32202 -1.13258,2.61131 -1.44641,3.89991c0.00088,0.09804 -0.00644,0.20266 -0.02325,0.31429c-0.03112,0.20672 -0.0863,0.38087 -0.15833,0.5275c-0.48272,2.56861 -0.31886,5.16206 0.41613,8.03314l0.05128,0.45024c0,0 0.07317,1.52526 -1.45209,1.59843c-1.52526,0.07317 -1.59843,-1.45209 -1.59843,-1.45209l0.03665,0.14519c-0.19359,-0.7877 -0.35166,-1.55995 -0.47265,-2.31999c-0.88413,0.02463 -1.78201,-0.13389 -2.57369,-0.47212l-0.59902,-0.19398c0,0 -1.44336,-0.49853 -0.94482,-1.94187c0.49853,-1.44336 1.94187,-0.94482 1.94187,-0.94482l0.95551,0.34296c0.26403,0.17347 0.60201,0.26203 0.9387,0.26469c-0.03147,-1.11882 0.02816,-2.2191 0.18451,-3.31229c-0.70179,-0.36812 -1.34178,-0.86984 -1.85458,-1.45274l0.16902,0.19873c0,0 -1.39696,-0.61667 -0.78029,-2.01363z" fill="#663f3f" stroke="none" stroke-width="0.5" stroke-linecap="butt"/><path d="M257.2438,179.31622c-0.89569,1.23675 -2.13242,0.34106 -2.13242,0.34106l-1.07252,-0.83658c-0.59584,-0.72115 -1.22607,-1.41425 -1.87536,-2.08806c-0.04137,0.03112 -0.08276,0.06202 -0.12415,0.09269l-1.86274,0.61547c0,0 -1.47306,0.4023 -1.87537,-1.07076c-0.4023,-1.47306 1.07076,-1.87537 1.07076,-1.87537l0.85347,-0.12635c2.9722,-2.18457 6.14559,-5.87554 6.6734,-9.70904c0.27037,-1.96374 -0.64983,-3.87697 -0.7607,-5.81336c0,0 -0.07317,-1.52526 1.45209,-1.59843c1.52526,-0.07317 1.59843,1.45209 1.59843,1.45209c0.04361,1.22661 0.3852,2.40407 0.60863,3.60338c0.11841,0.10077 0.18441,0.18051 0.18441,0.18051c0.92503,1.14102 1.48304,1.67375 2.91765,2.01652l1.303,-0.07871c0,0 1.52526,-0.07317 1.59843,1.45209c0.07317,1.52526 -1.45209,1.59843 -1.45209,1.59843l-1.74753,0.06763c-1.22965,-0.31163 -2.12974,-0.66034 -2.93404,-1.19425c-0.36965,1.43581 -0.99434,2.83161 -1.78912,4.14482c0.00995,0.03135 0.01442,0.04924 0.01442,0.04924c0.3641,1.61066 0.64001,1.92916 2.07976,2.74996l0.74861,0.05873c0,0 1.49747,0.29894 1.19853,1.79642c-0.29894,1.49747 -1.79642,1.19853 -1.79642,1.19853l-1.72109,-0.43431c-1.30755,-0.81116 -2.09923,-1.50736 -2.66349,-2.5054c-0.40456,0.46415 -0.82577,0.90965 -1.25813,1.33379c0.66015,0.6911 1.30142,1.40085 1.91126,2.13632l0.51128,0.31047c0,0 1.23675,0.89569 0.34106,2.13242z" fill="#663f3f" stroke="none" stroke-width="0.5" stroke-linecap="butt"/><path d="M221.97548,157.3661c0.04041,0.84238 -0.60971,1.55802 -1.45209,1.59843c-0.29849,0.01432 -0.58106,-0.05807 -0.82333,-0.19498c-0.87253,0.48484 -1.90259,0.63082 -3.01081,0.16775c-0.57491,-0.24023 -0.83172,-0.88952 -1.14898,-1.46105c-0.1991,-0.06238 -0.40802,-0.17919 -0.62059,-0.37231c-1.13026,-1.02678 -0.10348,-2.15705 -0.10348,-2.15705l0.80546,-0.88161c1.02367,-1.27938 2.21932,-2.21876 3.11923,-3.57638c0,0 0.85662,-1.26411 2.12074,-0.40749c1.26411,0.85662 0.40749,2.12074 0.40749,2.12074c-0.0801,0.11626 -0.16173,0.22955 -0.24464,0.34036c1.72168,0.06982 1.72387,2.23165 0.71401,4.07643c0.1384,0.21689 0.22378,0.47175 0.23699,0.74715z" fill="#663f3f" stroke="none" stroke-width="0.5" stroke-linecap="butt"/><path d="M209.6023,167.13232c-0.14006,0.00671 -0.27661,-0.00565 -0.40715,-0.03482l-0.11849,0.14947c0,0 -0.94933,1.19606 -2.14538,0.24674c-0.16061,-0.12747 -0.28253,-0.25939 -0.37326,-0.39228c-0.06271,-0.01131 -0.12755,-0.02623 -0.1946,-0.04506c-0.35052,-0.09845 -0.59399,-0.257 -0.76153,-0.44139c-0.31782,0.17227 -0.74601,0.24057 -1.2945,-0.00156c-1.39696,-0.61667 -0.78029,-2.01363 -0.78029,-2.01363l0.22517,-0.48088c0.85601,-1.4218 1.85844,-2.68127 2.70775,-4.10471c0,0 0.78519,-1.30968 2.09487,-0.5245c0.82136,0.49243 0.81879,1.19114 0.70268,1.64372c0.06237,0.0234 0.12632,0.05111 0.19186,0.08351c0.59762,0.29547 0.80533,0.72285 0.84969,1.11062c0.09836,0.04368 0.19973,0.09986 0.30386,0.17041c0.60654,0.41102 0.72484,0.91585 0.68379,1.32985c0.29067,0.2629 0.4807,0.63695 0.50097,1.05936c0.03163,0.65929 -0.35973,1.24097 -0.9352,1.48203c-0.25106,0.435 -0.71131,0.73723 -1.25026,0.76309z" fill="#663f3f" stroke="none" stroke-width="0.5" stroke-linecap="butt"/><path d="M200.23408,193.24136c-1.39696,-0.61667 -0.78029,-2.01363 -0.78029,-2.01363l0.27073,-0.55231c0.28554,-0.42137 0.57108,-0.84274 0.85662,-1.26411c0,0 0.85662,-1.26411 2.12074,-0.40749c1.26411,0.85662 0.40749,2.12074 0.40749,2.12074c-0.28554,0.42137 -0.57108,0.84274 -0.85662,1.26411l-0.00505,0.07243c0,0 -0.61667,1.39696 -2.01363,0.78029z" fill="#663f3f" stroke="none" stroke-width="0.5" stroke-linecap="butt"/><path d="M285.29955,178.67488c1.33151,-0.74757 2.07907,0.58395 2.07907,0.58395l0.13431,0.36179c1.1452,-0.03506 1.44674,1.16927 1.44674,1.16927c0.87475,3.55945 0.62675,7.98355 0.09795,11.60211l-0.63072,1.72723c0,0 -0.5526,1.42352 -1.97613,0.87092c-0.54482,-0.21149 -0.80018,-0.55057 -0.90784,-0.88859c-0.19337,0.10331 -0.41212,0.16641 -0.64566,0.17762c-0.58437,0.02804 -1.10776,-0.27624 -1.38703,-0.74649l-0.81241,-1.31022l0.00854,-0.00529l-0.02571,-0.02309c-0.3747,-0.69872 -0.64571,-1.43747 -0.82677,-2.20119c-0.14057,0.01932 -0.29702,0.02114 -0.47107,0.00065c-1.51654,-0.17858 -1.33796,-1.69511 -1.33796,-1.69511l0.09989,-0.67072c-0.14717,-3.06778 -0.55826,-4.84098 -1.66644,-7.692c0,0 -0.55174,-1.42384 0.87211,-1.9756c1.42384,-0.55174 1.9756,0.87211 1.9756,0.87211c0.01033,0.02676 0.02061,0.05345 0.03085,0.08007c0.80484,-0.61649 1.73372,0.01296 1.73372,0.01296c0.06136,0.04181 0.12272,0.08361 0.18407,0.12541c0.24184,-0.19229 0.54411,-0.31321 0.87629,-0.32916c0.29432,-0.01412 0.57319,0.05605 0.81318,0.18929c0.09346,-0.08306 0.20437,-0.16231 0.33542,-0.23588zM282.49122,182.20474c-0.02036,-0.01374 -0.04071,-0.02746 -0.06107,-0.04119c0.01099,0.04178 0.02185,0.08352 0.03258,0.12525c0.00944,-0.02806 0.01894,-0.05608 0.02849,-0.08405z" fill="#663f3f" stroke="none" stroke-width="0.5" stroke-linecap="butt"/><path d="M291.60172,247.16981c-0.20821,0.22343 -0.43164,0.01522 -0.43164,0.01522l-0.19326,-0.18011c-3.58494,-3.55469 3.08888,-7.87918 2.94121,-10.78889c-0.20167,-3.47032 -3.20944,-5.24125 -3.96632,-8.48443c-0.21125,-0.04986 -0.43439,-0.1243 -0.67003,-0.22595c-0.18881,0.21005 -0.4727,0.38288 -0.89722,0.45675c-1.50441,0.26178 -1.7662,-1.24261 -1.7662,-1.24261l-0.22057,-1.27511c-0.32642,-2.50344 -0.0799,-6.76193 -1.45773,-8.79298c0,0 -0.80469,-1.29779 0.49309,-2.10248c1.29779,-0.80469 2.10248,0.49309 2.10248,0.49309c0.76924,1.31267 1.13772,2.92922 1.35947,4.60804c0.31849,-0.34214 0.93249,-0.75699 1.81431,-0.28381l-0.00001,0c1.0989,0.58965 0.81876,1.59521 0.67915,1.94403c0.134,-0.04109 0.286,-0.06792 0.45844,-0.0762c1.52526,-0.07317 1.59843,1.45209 1.59843,1.45209c0.03922,1.75184 -0.53617,5.1252 -2.85472,5.12384c0.80049,3.13439 3.73433,4.88378 3.93735,8.37252c0.12241,2.41182 -6.34516,7.64475 -3.13468,10.37524l0.19326,0.18011c0,0 0.22343,0.20821 0.01522,0.43164z" fill="#663f3f" stroke="none" stroke-width="0.5" stroke-linecap="butt"/><path d="M213.43615,87.71204c-0.07317,-1.52526 1.45209,-1.59843 1.45209,-1.59843l1.52077,-0.04327c2.07017,0.31173 4.09215,0.99139 6.15727,1.05711c0,0 1.52563,0.06522 1.46041,1.59085c-0.06522,1.52563 -1.59085,1.46041 -1.59085,1.46041c-2.20987,-0.11306 -4.28047,-0.75691 -6.4816,-1.08836l-0.91966,0.0738c0,0 -1.52526,0.07317 -1.59843,-1.45209z" fill="#663f3f" stroke="none" stroke-width="0.5" stroke-linecap="butt"/><path d="M216.70452,93.1281c0.78519,-1.30968 2.09487,-0.5245 2.09487,-0.5245l0.83602,0.50703c0.71534,0.37621 1.53613,0.59902 2.3441,0.62002c0,0 1.52498,0.07896 1.44602,1.60394c-0.07896,1.52498 -1.60394,1.44602 -1.60394,1.44602c-1.21725,-0.08396 -2.43703,-0.40993 -3.53971,-0.93225l-1.05283,-0.62537c0,0 -1.30968,-0.78519 -0.5245,-2.09487z" fill="#663f3f" stroke="none" stroke-width="0.5" stroke-linecap="butt"/><path d="M294.83184,76.49546c-0.61667,1.39696 -2.01363,0.78029 -2.01363,0.78029l0.22534,-0.00989c-2.43915,-0.12947 -4.3232,0.13889 -6.59755,-0.93844c0,0 -1.36887,-0.67676 -0.69208,-2.04562c0.67676,-1.36887 2.04562,-0.69208 2.04562,-0.69208c1.73612,0.91304 3.46893,0.5284 5.40195,0.62619l0.85009,0.2659c0,0 1.39696,0.61667 0.78029,2.01363z" fill="#663f3f" stroke="none" stroke-width="0.5" stroke-linecap="butt"/><path d="M206.82133,35.8676c-0.04041,-0.84238 0.60971,-1.55802 1.45209,-1.59843c0.4434,-0.02127 0.8517,0.14878 1.14487,0.43747c0.38896,0.09583 0.66221,0.3127 0.66221,0.3127c0.42381,0.33639 0.84762,0.67276 1.27143,1.00915l0.55698,0.50143c0,0 1.13026,1.02678 0.10348,2.15705c-1.02678,1.13026 -2.15705,0.10348 -2.15705,0.10348l-0.40207,-0.36983c-0.42381,-0.33639 -0.84762,-0.67276 -1.27143,-1.00915c0,0 -0.05205,-0.04133 -0.12584,-0.11757c-0.67558,-0.13036 -1.20025,-0.70855 -1.23468,-1.42631z" fill="#663f3f" stroke="none" stroke-width="0.5" stroke-linecap="butt"/><path d="M231.66632,69.37888c-0.04041,-0.84238 0.60971,-1.55802 1.45209,-1.59843c0.84238,-0.04041 1.55802,0.60971 1.59843,1.45209c0.04041,0.84238 -0.60971,1.55802 -1.45209,1.59843c-0.84238,0.04041 -1.55802,-0.60971 -1.59843,-1.45209z" fill="#590000" stroke="none" stroke-width="0.5" stroke-linecap="butt"/><path d="M233.68555,66.88894c0.0056,-0.00226 0.01127,-0.00451 0.01699,-0.00671c0.85431,-0.33105 1.18535,0.52326 1.18535,0.52326c0.07951,0.20519 0.74634,1.90574 0.75252,2.01675c0.18587,3.33797 -4.85499,3.23074 -5.03445,0.16039c-0.05874,-1.00503 0.80187,-1.75113 1.37672,-2.3963l0.79737,-0.41272c0,0 0.51971,-0.20139 0.90549,0.11533zM233.34562,68.42258l-0.00662,-0.00409c-1.02162,1.09633 -0.21187,2.44087 0.52164,1.53321c0.11698,-0.14476 -0.27688,-1.0217 -0.51502,-1.52913z" fill="#7a0000" stroke="none" stroke-width="0.5" stroke-linecap="butt"/><path d="M228.70876,62.63045c0.8334,-0.38064 1.21404,0.45275 1.21404,0.45275l0.19543,0.52267c1.17043,1.36122 1.96221,2.4652 1.92723,4.26339c0,0 -0.06996,0.91354 -0.98347,0.84359c-0.91354,-0.06996 -0.84359,-0.98347 -0.84359,-0.98347c0.19055,-0.99948 -0.7334,-2.10002 -1.47453,-2.91153l-0.48785,-0.97333c0,0 -0.38064,-0.8334 0.45275,-1.21404z" fill="#663f3f" stroke="none" stroke-width="0.5" stroke-linecap="butt"/><path d="M238.02239,64.06836c0.67816,0.61607 0.06209,1.29423 0.06209,1.29423l-0.3626,0.39081c-0.77484,0.68327 -1.3294,1.1254 -1.85309,2.02172c0,0 -0.47111,0.78581 -1.25691,0.31469c-0.78581,-0.47111 -0.31469,-1.25691 -0.31469,-1.25691c0.64152,-1.04916 1.30041,-1.64937 2.21277,-2.4539l0.21823,-0.24856c0,0 0.61607,-0.67816 1.29423,-0.06209z" fill="#663f3f" stroke="none" stroke-width="0.5" stroke-linecap="butt"/><path d="M238.18367,71.78888c0.27231,0.06671 0.64325,0.26327 0.6708,0.83778c0.0439,0.91516 -0.87125,0.95906 -0.87125,0.95906l-0.88362,-0.30186c-0.6321,-0.79703 -1.48137,-0.92858 -2.30458,-1.64838c0,0 -0.67816,-0.61607 -0.06209,-1.29423c0.61607,-0.67816 1.29423,-0.06209 1.29423,-0.06209c0.757,0.72769 1.42119,0.85716 2.15651,1.50972z" fill="#663f3f" stroke="none" stroke-width="0.5" stroke-linecap="butt"/><path d="M229.30521,75.10924c-0.67816,-0.61607 -0.06209,-1.29423 -0.06209,-1.29423l0.51695,-0.56072c0.39105,-0.53891 0.75405,-1.09868 1.09595,-1.67002c0,0 0.47111,-0.78581 1.25691,-0.31469c0.78581,0.47111 0.31469,1.25691 0.31469,1.25691c-0.37007,0.61622 -0.76236,1.22011 -1.18349,1.80264l-0.64472,0.71803c0,0 -0.61607,0.67816 -1.29423,0.06209z" fill="#663f3f" stroke="none" stroke-width="0.5" stroke-linecap="butt"/><path d="M231.77769,84.44726c-0.30505,0.01464 -0.31969,-0.29041 -0.31969,-0.29041l-0.00732,-0.15253c-0.03781,-0.7881 0.22793,-1.43708 0.20741,-2.22049c0.90035,-2.03958 1.25309,-4.75667 1.196,-6.93686c0.78761,-1.88456 0.58596,-3.54876 0.4871,-5.60958c0,0 -0.01464,-0.30505 0.29041,-0.31969c0.30505,-0.01464 0.31969,0.29041 0.31969,0.29041c0.09785,2.03957 0.3848,3.90602 -0.49671,5.75055c0.17204,2.07669 -0.34174,5.00171 -1.196,6.93686c0.0612,0.73865 -0.23304,1.34513 -0.19781,2.07952l0.00732,0.15253c0,0 0.01464,0.30505 -0.29041,0.31969z" fill="#663f3f" stroke="none" stroke-width="0.5" stroke-linecap="butt"/><path d="M199.14771,219.22993c-1.03755,1.90901 -5.65981,0.95847 -10.32413,-2.12306c-4.66431,-3.08153 -7.60441,-7.12717 -6.56686,-9.03616c1.03755,-1.90901 5.65981,-0.95847 10.32413,2.12306c4.66431,3.08153 7.60441,7.12717 6.56686,9.03616z" fill="#000000" stroke="none" stroke-width="0" stroke-linecap="butt"/><path d="M178.92172,237.44261c0.02483,0.3044 -0.27956,0.32922 -0.27956,0.32922l-0.34345,0.02801c-0.39155,0.03184 -0.78243,0.07434 -1.17148,0.12878c-4.13282,1.24308 -8.64161,-1.24293 -8.85946,-5.89964c-0.13708,-2.93023 0.27694,-7.29649 2.09479,-9.08769c0.29602,-0.29168 -0.14236,-0.96264 0.17164,-1.23487c0.26198,-0.22714 1.46703,-0.18259 1.85796,-0.27329c3.43347,-3.42661 8.16398,-1.84665 11.78358,-0.45035c3.12977,-0.48463 2.78726,-1.93983 4.91404,-3.83731c0.75758,-0.67591 2.31362,-1.12067 2.20124,-2.3004c0,0 -0.01464,-0.30505 0.29041,-0.31969c0.30505,-0.01464 0.31969,0.29041 0.31969,0.29041c0.02437,1.52317 -1.38404,1.93802 -2.41182,2.79167c-2.30026,1.91057 -1.90558,3.55124 -5.37896,3.98259c-3.74623,-1.31718 -7.87489,-2.92959 -11.42237,0.37744c-0.26782,0.07088 -1.59449,0.08088 -1.76314,0.20844c-0.31149,0.2356 0.13941,0.86041 -0.1023,1.16718c-1.53516,1.94839 -2.08706,5.61286 -1.94465,8.65727c0.19951,4.2648 4.30928,6.54397 8.11549,5.3322c0.41698,-0.05955 0.83587,-0.10728 1.25567,-0.1416l0.34345,-0.02801c0,0 0.3044,-0.02483 0.32922,0.27956z" fill="#929292" stroke="#929292" stroke-width="1" stroke-linecap="butt"/><path d="M295.08284,247.70115c-0.30505,0.01465 -0.3197,-0.29041 -0.3197,-0.29041l-0.01741,-0.3626c-0.18224,-3.7859 -3.22853,-5.75456 -2.74364,-9.67253c1.51453,-3.29399 3.1301,-6.72249 0.07919,-9.49409c0,0 -0.22605,-0.20536 -0.02069,-0.4314c0.20536,-0.22605 0.4314,-0.02069 0.4314,-0.02069c3.24051,2.94383 1.75406,6.62485 0.09756,10.11343c-0.42162,3.7514 2.58688,5.7493 2.76627,9.47592l0.01741,0.36268c0,0 0.01465,0.30505 -0.29041,0.3197z" fill="#1c00ff" stroke="none" stroke-width="0.5" stroke-linecap="butt"/><path d="M288.87872,245.82791c-0.30501,0.01549 -0.3205,-0.28953 -0.3205,-0.28953l0.03421,-0.15425c-1.40937,-2.21247 -0.74115,-4.92431 -0.07654,-7.24235c-0.04022,-2.06295 2.21709,-3.51204 2.48703,-5.44853c0.18294,-1.31236 -0.6457,-3.31892 -1.12325,-4.55047c0,0 -0.11035,-0.28477 0.17442,-0.39512c0.28477,-0.11035 0.39512,0.17442 0.39512,0.17442c0.51423,1.32789 1.3566,3.43268 1.15867,4.8554c-0.26693,1.91882 -2.61272,3.43683 -2.48536,5.43549c-0.58516,2.12701 -1.40395,4.81037 -0.01964,6.83574l0.06535,0.45869c0,0 0.01549,0.30501 -0.28953,0.3205z" fill="#000000" stroke="none" stroke-width="0.5" stroke-linecap="butt"/><path d="M288.85474,244.4278c-0.17025,-0.25354 0.0833,-0.4238 0.0833,-0.4238l0.25763,-0.17299c2.54105,-1.69417 5.56055,-5.04448 2.21142,-7.41074c-1.57014,-1.11329 -5.43492,-3.21799 -3.99111,-5.79282c0.54951,-0.97998 1.66583,-1.59052 2.16257,-2.73422c0,0 0.12333,-0.27939 0.40273,-0.15605c0.27939,0.12333 0.15605,0.40273 0.15605,0.40273c-0.74468,1.66377 -2.70406,2.33472 -2.2087,4.39446c0.34036,1.41528 2.7143,2.60026 3.83105,3.38713c3.77222,2.66795 0.63918,6.48225 -2.22349,8.41661l-0.25763,0.17299c0,0 -0.25354,0.17025 -0.4238,-0.0833z" fill="#420000" stroke="none" stroke-width="0.5" stroke-linecap="butt"/><path d="M290.90114,244.09769c-0.12683,0.27782 -0.40466,0.15098 -0.40466,0.15098l-0.09042,-0.04128c-4.53688,-2.10067 -1.87317,-4.6964 -0.05212,-7.30927c0.7442,-1.01976 1.89244,-1.25096 2.42335,-2.53016c0.82734,-1.99342 -1.76386,-4.50979 -3.10569,-5.72877c0,0 -0.22605,-0.20536 -0.02069,-0.4314c0.20536,-0.22605 0.4314,-0.02069 0.4314,-0.02069c1.57718,1.43279 4.17524,4.10207 3.26123,6.40988c-0.53542,1.35188 -1.7647,1.60596 -2.49232,2.65584c-1.64612,2.26474 -4.32156,4.54445 -0.19149,6.39894l0.09042,0.04128c0,0 0.27782,0.12683 0.15098,0.40466z" fill="#04ff00" stroke="none" stroke-width="0.5" stroke-linecap="butt"/><path d="M268.61567,65.62865c0.19916,-3.73496 6.61468,-0.58647 5.77821,1.27892c-0.60077,1.33975 -5.82467,0.30741 -6.28214,-0.35815c0,0 -0.29903,-0.5326 0.23358,-0.83163c0.09819,-0.05514 0.18844,-0.082 0.27035,-0.08914z" fill="#8b0000" stroke="none" stroke-width="0.5" stroke-linecap="butt"/><path d="M258.74285,77.15599c-0.36447,2.87814 -2.64439,3.2361 -5.6564,2.85468c-3.01201,-0.38143 -5.61549,-1.35781 -5.25102,-4.23594c0.36447,-2.87814 3.10165,-4.90212 6.11365,-4.52069c3.01201,0.38143 5.15825,3.02383 4.79378,5.90195z" fill="#8b0000" stroke="none" stroke-width="0" stroke-linecap="butt"/><path d="M256.19343,77.34218c-0.19721,1.55728 -1.43082,1.75097 -3.06054,1.54459c-1.62971,-0.20638 -3.03841,-0.73468 -2.8412,-2.29197c0.19721,-1.55728 1.67823,-2.65242 3.30794,-2.44603c1.62971,0.20638 2.791,1.63612 2.59379,3.19341z" fill="#000000" stroke="none" stroke-width="0" stroke-linecap="butt"/></g></g></svg>