<svg version="1.1" xmlns="http://www.w3.org/2000/svg" xmlns:xlink="http://www.w3.org/1999/xlink" width="553.33333" height="431.22073" viewBox="0,0,553.33333,431.22073"><g transform="translate(36.66666,35.61037)"><g data-paper-data="{&quot;isPaintingLayer&quot;:true}" fill-rule="nonzero" stroke-linejoin="miter" stroke-miterlimit="10" stroke-dasharray="" stroke-dashoffset="0" style="mix-blend-mode: normal"><path d="M0.30558,359.65625l237,-181h3l241,181z" data-paper-data="{&quot;index&quot;:null}" fill="#8c8c8c" stroke="#000000" stroke-width="2" stroke-linecap="butt"/><path d="M237.30558,179.65625l-237,-182h480l-241,182z" data-paper-data="{&quot;index&quot;:null}" fill="#6f6f6f" stroke="#000000" stroke-width="2" stroke-linecap="butt"/><path d="M242.30559,178.65625h-1l241,-180v360z" data-paper-data="{&quot;index&quot;:null}" fill="#949494" stroke="#000000" stroke-width="0" stroke-linecap="butt"/><path d="M-3.69442,361.65625l3,-364l236,182v0z" data-paper-data="{&quot;index&quot;:null}" fill="#888888" stroke="#000000" stroke-width="0" stroke-linecap="butt"/><path d="M406.30558,54.65625v248h-332v-248z" data-paper-data="{&quot;index&quot;:null}" fill="none" stroke="#000000" stroke-width="2" stroke-linecap="round"/><path d="M315.30557,234.65625h-150v-109h144v109h44" data-paper-data="{&quot;index&quot;:null}" fill="none" stroke="#000000" stroke-width="2" stroke-linecap="round"/><path d="M309.30557,234.65624l1,-108l63,-49l-1,200z" data-paper-data="{&quot;index&quot;:null}" fill="#5a5a5a" stroke="#000000" stroke-width="0" stroke-linecap="butt"/><path d="M308.30557,128.65625h64" data-paper-data="{&quot;index&quot;:null}" fill="none" stroke="#000000" stroke-width="2" stroke-linecap="round"/><path d="M371.30558,235.65624h-62" data-paper-data="{&quot;index&quot;:null}" fill="none" stroke="#000000" stroke-width="2" stroke-linecap="round"/><g stroke-linecap="butt"><path d="M374.14308,252.60619l-5.51659,-7.70902l16.82216,-12.1285l5.51659,7.70902z" fill="#663f3f" stroke="#000000" stroke-width="0.5"/><path d="M355.35835,266.14971l-5.51658,-7.70902l16.82214,-12.12852l5.51661,7.70904z" fill="#663f3f" stroke="#000000" stroke-width="0.5"/><path d="M382.07714,277.35399l-22.85446,-31.93749l8.9718,-6.46855l22.85446,31.93748z" fill="#663f3f" stroke="#000000" stroke-width="0.5"/><path d="M332.82902,128.33959l-1.02859,-4.55072l9.83112,-2.39993l1.02859,4.55071z" fill="#663f3f" stroke="#000000" stroke-width="0.5"/><path d="M338.40582,130.06507l-1.02859,-4.55072l9.83112,-2.39993l1.02859,4.55072z" fill="#663f3f" stroke="#000000" stroke-width="0.5"/><path d="M325.88485,125.91892l-1.02859,-4.55071l9.83113,-2.39994l1.02859,4.55071z" fill="#663f3f" stroke="#000000" stroke-width="0.5"/><path d="M327.39099,132.5825l-1.02857,-4.55074l9.83112,-2.39994l1.02859,4.55072z" fill="#663f3f" stroke="#000000" stroke-width="0.5"/><path d="M336.86297,123.23899l-1.02857,-4.55074l9.83115,-2.39991l1.02859,4.55071z" fill="#663f3f" stroke="#000000" stroke-width="0.5"/><path d="M336.92299,135.74336l-4.26126,-18.853l5.24328,-1.27994l4.26128,18.85298z" fill="#663f3f" stroke="#000000" stroke-width="0.5"/><path d="M265.71029,191.78872l-4.33709,-1.7195l3.89041,-9.34213l4.33709,1.7195z" fill="#663f3f" stroke="#000000" stroke-width="0.5"/><path d="M266.55322,197.56518l-4.33709,-1.7195l3.89041,-9.34213l4.33711,1.71948z" fill="#663f3f" stroke="#000000" stroke-width="0.5"/><path d="M264.39187,184.55388l-4.33711,-1.71948l3.89041,-9.34213l4.33709,1.7195z" fill="#663f3f" stroke="#000000" stroke-width="0.5"/><path d="M270.74264,187.07172l-4.33711,-1.71949l3.89041,-9.34213l4.33711,1.71948z" fill="#663f3f" stroke="#000000" stroke-width="0.5"/><path d="M260.04759,194.98597l-4.33709,-1.7195l3.89039,-9.34215l4.33711,1.71948z" fill="#663f3f" stroke="#000000" stroke-width="0.5"/><path d="M274.20797,192.61802l-17.96795,-7.12364l2.07488,-4.98247l17.96795,7.12363z" fill="#663f3f" stroke="#000000" stroke-width="0.5"/><path d="M387.12018,146.90457c23.06342,26.95143 18.85384,69.68242 -10.33808,94.66312c-29.19192,24.98069 -70.4922,19.27307 -93.55562,-7.67837c-7.93689,-9.27489 -16.26083,-17.16326 -18.53356,-28.83826c-4.3315,-22.25078 5.20503,-49.62837 24.35104,-66.01238c29.19192,-24.98069 75.01284,-19.08553 98.07624,7.86587z" fill="#00c3c5" stroke="#929292" stroke-width="1"/><path d="M309.05806,198.56381c4.05606,5.69057 3.55012,13.02876 -1.13007,16.39031c-4.68019,3.36159 -11.7623,1.47357 -15.81839,-4.21698c-4.05606,-5.69057 -3.55012,-13.02876 1.13007,-16.39031c4.68019,-3.36159 11.76232,-1.47355 15.81839,4.21698z" fill="#000000" stroke="none" stroke-width="0"/><path d="M362.19078,162.06193c4.05606,5.69057 3.55011,13.02876 -1.13007,16.39031c-4.68019,3.36159 -11.7623,1.47357 -15.81838,-4.21698c-4.05606,-5.69057 -3.55012,-13.02876 1.13007,-16.39031c4.68019,-3.36159 11.76233,-1.47356 15.81839,4.21697z" fill="#000000" stroke="none" stroke-width="0"/><path d="M293.78799,210.466c-3.14502,-3.6752 -2.65195,-9.25821 1.10131,-12.47002c3.75326,-3.21181 9.34539,-2.83616 12.49041,0.83904c3.14502,3.6752 2.65194,9.25821 -1.10131,12.47002c-3.75326,3.21181 -9.34539,2.83616 -12.49041,-0.83904z" fill="#fff1f1" stroke="none" stroke-width="0"/><path d="M347.29826,173.64101c-3.14502,-3.6752 -2.65195,-9.25821 1.10131,-12.47002c3.75326,-3.21181 9.34539,-2.83616 12.49041,0.83904c3.14502,3.6752 2.65195,9.25821 -1.10131,12.47002c-3.75326,3.21181 -9.34539,2.83616 -12.49041,-0.83904z" fill="#fff1f1" stroke="none" stroke-width="0"/><path d="M298.63493,206.9587c-0.87363,-1.0209 -0.73666,-2.57172 0.30592,-3.4639c1.04258,-0.89218 2.59594,-0.78784 3.46956,0.23307c0.87363,1.0209 0.73665,2.57172 -0.30593,3.4639c-1.04258,0.89218 -2.59593,0.78783 -3.46956,-0.23307z" fill="#000000" stroke="none" stroke-width="0.5"/><path d="M352.08399,170.8265c-0.87363,-1.0209 -0.73666,-2.57173 0.30592,-3.46391c1.04258,-0.89218 2.59594,-0.78783 3.46956,0.23307c0.87363,1.0209 0.73666,2.57172 -0.30592,3.4639c-1.04258,0.89218 -2.59594,0.78784 -3.46956,-0.23306z" fill="#000000" stroke="none" stroke-width="0.5"/><path d="M373.92413,185.28773c2.25903,0.93088 1.278,3.20242 1.278,3.20242l-0.7384,1.61038c-2.2009,9.30638 -6.644,18.18164 -8.72464,27.41466c-4.63215,12.49241 -19.74937,12.03571 -30.70925,13.47073c-5.98197,0.78325 -12.32265,1.79075 -17.3826,-1.88399c0,0 -1.92133,-1.49578 -0.38045,-3.44232c1.54086,-1.94657 3.46216,-0.45077 3.46216,-0.45077c3.32936,2.92823 9.62743,1.44446 13.78219,0.9064c7.74326,-1.00281 23.59367,-0.17345 26.49589,-9.86518c2.2157,-9.20308 6.51325,-17.88094 8.66047,-27.16858l1.01651,-2.45308c0,0 0.98102,-2.27152 3.24007,-1.34062z" fill="#000000" stroke="none" stroke-width="0.5"/><path d="M248.58222,192.91709c0,0 -20.35618,-3.3093 -19.25604,-11.67895c1.10019,-8.36964 23.37215,-6.98122 23.37215,-6.98122c0,0 9.69914,2.13486 8.599,10.50451c-1.10019,8.36964 -12.71511,8.15566 -12.71511,8.15566z" fill="#00c3c5" stroke="#000000" stroke-width="0"/><path d="M335.4623,120.01466c-8.4391,-0.2065 -9.04945,-10.11905 -9.04945,-10.11905c0,0 2.07018,-22.219 10.5093,-22.01248c8.4391,0.2065 8.56281,20.82957 8.56281,20.82957c0,0 -1.58356,11.50846 -10.02268,11.30198z" data-paper-data="{&quot;index&quot;:null}" fill="#00c3c5" stroke="#000000" stroke-width="0"/><path d="M250.41036,189.11077c0,0 -11.97489,-1.94674 -11.3277,-6.87035c0.64719,-4.92361 13.74908,-4.10682 13.74908,-4.10682c0,0 5.7057,1.25587 5.05851,6.17947c-0.64719,4.92361 -7.47988,4.7977 -7.47988,4.7977z" fill="#00a5a8" stroke="#000000" stroke-width="0"/><path d="M335.92338,116.25612c-4.96447,-0.12149 -5.32349,-5.95271 -5.32349,-5.95271c0,0 1.2178,-13.07072 6.18228,-12.94923c4.96447,0.12149 5.03722,12.25336 5.03722,12.25336c0,0 -0.93156,6.77004 -5.89601,6.64858z" data-paper-data="{&quot;index&quot;:null}" fill="#00a5a8" stroke="#000000" stroke-width="0"/><path d="M343.33492,192.15534c1.58149,2.65723 -0.46254,6.82215 -4.56548,9.30262c-4.10292,2.48045 -8.71105,2.33716 -10.29255,-0.3201c-1.58149,-2.65724 0.46254,-6.82215 4.56547,-9.30262c4.10292,-2.48045 8.71106,-2.33716 10.29256,0.3201z" fill="#00b1b4" stroke="none" stroke-width="0"/><path d="M333.3012,198.55532c-0.87363,-1.0209 -0.73666,-2.57172 0.30592,-3.4639c1.04258,-0.89218 2.59594,-0.78784 3.46956,0.23306c0.87363,1.0209 0.73666,2.57173 -0.30592,3.46391c-1.04258,0.89218 -2.59594,0.78783 -3.46956,-0.23307z" fill="#000000" stroke="none" stroke-width="0.5"/></g><path d="M373.31437,277.82868v-147.5h29.28983v147.5z" fill="#949494" stroke="none" stroke-width="0" stroke-linecap="butt"/><path d="M-36.66666,395.61037v-431.22073h553.33333v431.22073z" data-paper-data="{&quot;index&quot;:null}" fill-opacity="0.62745" fill="#000000" stroke="none" stroke-width="0" stroke-linecap="butt"/></g></g></svg>