<svg version="1.1" xmlns="http://www.w3.org/2000/svg" xmlns:xlink="http://www.w3.org/1999/xlink" width="228.19711" height="219.65052" viewBox="0,0,228.19711,219.65052"><g transform="translate(-125.90145,-70.17474)"><g data-paper-data="{&quot;isPaintingLayer&quot;:true}" fill-rule="nonzero" stroke-linejoin="miter" stroke-miterlimit="10" stroke-dasharray="" stroke-dashoffset="0" style="mix-blend-mode: normal"><path d="M140.4122,273.34033c-14.63569,-21.42113 -23.55251,-164.63563 0,-196.33888c6.89897,-9.28629 193.30033,-8.9164 200.57717,0c21.37942,26.19676 13.09413,184.47164 0,196.33888c-19.81237,17.95576 -183.03957,25.66831 -200.57717,0z" fill="#888888" stroke="none" stroke-width="0" stroke-linecap="butt"/><path d="M336.74517,168.44785c-4.95827,1.88326 -17.7773,1.72567 -24.13638,1.50305c-6.76445,-0.23683 -17.66539,0.75482 -22.64223,-1.72173c-7.41303,-3.6888 -6.90482,-19.69861 -1.42895,-22.90096c5.66075,-3.31047 15.67887,-2.40472 24.23876,-2.10506c9.04192,0.31649 20.33936,-2.32463 25.78827,1.72769c4.69944,3.49499 6.35281,20.39298 -1.8194,23.49695z" fill="#636363" stroke="none" stroke-width="0" stroke-linecap="butt"/><path d="M338.1189,209.17965c-4.95827,1.88326 -17.77737,1.72574 -24.13645,1.50312c-6.76445,-0.23683 -17.66535,0.75482 -22.6422,-1.72173c-7.41303,-3.6888 -6.90486,-19.69861 -1.42898,-22.90096c5.66075,-3.31047 15.6789,-2.40472 24.2388,-2.10506c9.04192,0.31649 20.33932,-2.32463 25.78823,1.72769c4.69944,3.49499 6.35288,20.39291 -1.81933,23.49688z" fill="#636363" stroke="none" stroke-width="0" stroke-linecap="butt"/><path d="M264.07856,166.16797c-4.95827,1.88326 -17.77733,1.72574 -24.13642,1.50312c-6.76445,-0.23683 -17.66535,0.75475 -22.6422,-1.7218c-7.41303,-3.6888 -6.90489,-19.69865 -1.42902,-22.901c5.66075,-3.31047 15.67894,-2.40465 24.23883,-2.10499c9.04192,0.31649 20.33929,-2.3247 25.7882,1.72761c4.69944,3.49499 6.35288,20.39301 -1.81933,23.49698z" fill="#636363" stroke="none" stroke-width="0" stroke-linecap="butt"/><path d="M264.46209,213.24416c-4.95827,1.88326 -17.7773,1.7257 -24.13638,1.50308c-6.76445,-0.23683 -17.66539,0.75482 -22.64223,-1.72173c-7.41303,-3.6888 -6.90482,-19.69865 -1.42895,-22.901c5.66075,-3.31047 15.67887,-2.40465 24.23876,-2.10499c9.04192,0.31649 20.33929,-2.3247 25.7882,1.72761c4.69944,3.49499 6.35288,20.39301 -1.81933,23.49698z" fill="#636363" stroke="none" stroke-width="0" stroke-linecap="butt"/><path d="M191.988,169.37592c-4.95827,1.88326 -17.77733,1.72574 -24.13642,1.50312c-6.76445,-0.23683 -17.66542,0.75482 -22.64227,-1.72173c-7.41303,-3.6888 -6.90482,-19.69865 -1.42895,-22.901c5.66075,-3.31047 15.67887,-2.40472 24.23876,-2.10506c9.04192,0.31649 20.33936,-2.32463 25.78827,1.72769c4.69944,3.49499 6.35288,20.39301 -1.81933,23.49698z" fill="#636363" stroke="none" stroke-width="0" stroke-linecap="butt"/><path d="M194.06517,211.95508c-4.95827,1.88326 -17.77737,1.72567 -24.13645,1.50305c-6.76445,-0.23683 -17.66542,0.75482 -22.64227,-1.72173c-7.41303,-3.6888 -6.90482,-19.69861 -1.42895,-22.90096c5.66075,-3.31047 15.67887,-2.40472 24.23876,-2.10506c9.04192,0.31649 20.3394,-2.32463 25.7883,1.72769c4.69944,3.49499 6.35288,20.39298 -1.81933,23.49695z" fill="#636363" stroke="none" stroke-width="0" stroke-linecap="butt"/><path d="M189.5797,120.67032c-4.95827,1.88326 -17.7773,1.72574 -24.13638,1.50312c-6.76445,-0.23683 -17.66542,0.75482 -22.64227,-1.72173c-7.41303,-3.6888 -6.90479,-19.69872 -1.42891,-22.90107c5.66075,-3.31047 15.67883,-2.40465 24.23873,-2.10499c9.04192,0.31649 20.33932,-2.3247 25.78823,1.72761c4.69944,3.49499 6.35288,20.39301 -1.81933,23.49698z" fill="#636363" stroke="none" stroke-width="0" stroke-linecap="butt"/><path d="M335.20505,121.79932c-4.95827,1.88326 -17.7773,1.72574 -24.13638,1.50312c-6.76445,-0.23683 -17.66539,0.75475 -22.64223,-1.7218c-7.41303,-3.6888 -6.90482,-19.69865 -1.42895,-22.901c5.66075,-3.31047 15.67887,-2.40465 24.23876,-2.10499c9.04192,0.31649 20.33929,-2.3247 25.7882,1.72761c4.69944,3.49499 6.35288,20.39301 -1.81933,23.49698z" fill="#636363" stroke="none" stroke-width="0" stroke-linecap="butt"/><path d="M264.20653,123.54668c-4.95827,1.88326 -17.7773,1.72567 -24.13638,1.50305c-6.76445,-0.23683 -17.66542,0.75482 -22.64227,-1.72173c-7.41303,-3.6888 -6.90482,-19.69865 -1.42895,-22.901c5.66075,-3.31047 15.67887,-2.40465 24.23876,-2.10499c9.04192,0.31649 20.3394,-2.3247 25.7883,1.72761c4.69944,3.49499 6.35281,20.39301 -1.8194,23.49698z" fill="#636363" stroke="none" stroke-width="0" stroke-linecap="butt"/><text transform="translate(160.46845,118.64698) rotate(2.00094) scale(0.60288,0.71521) skewX(-0.00455)" font-size="40" xml:space="preserve" fill="#000000" fill-rule="nonzero" stroke="none" stroke-width="1" stroke-linecap="butt" stroke-linejoin="miter" stroke-miterlimit="10" stroke-dasharray="" stroke-dashoffset="0" font-family="Sans Serif" font-weight="normal" text-anchor="start" style="mix-blend-mode: normal"><tspan x="0" dy="0">1</tspan></text><text transform="translate(234.93798,123.04842) rotate(2.00094) scale(0.60288,0.71521) skewX(-0.00455)" font-size="40" xml:space="preserve" fill="#000000" fill-rule="nonzero" stroke="none" stroke-width="1" stroke-linecap="butt" stroke-linejoin="miter" stroke-miterlimit="10" stroke-dasharray="" stroke-dashoffset="0" font-family="Sans Serif" font-weight="normal" text-anchor="start" style="mix-blend-mode: normal"><tspan x="0" dy="0">2</tspan></text><text transform="translate(305.10524,120.71908) rotate(2.00094) scale(0.60288,0.71521) skewX(-0.00455)" font-size="40" xml:space="preserve" fill="#000000" fill-rule="nonzero" stroke="none" stroke-width="1" stroke-linecap="butt" stroke-linejoin="miter" stroke-miterlimit="10" stroke-dasharray="" stroke-dashoffset="0" font-family="Sans Serif" font-weight="normal" text-anchor="start" style="mix-blend-mode: normal"><tspan x="0" dy="0">3</tspan></text><text transform="translate(308.02709,166.88328) rotate(2.00094) scale(0.60288,0.71521) skewX(-0.00455)" font-size="40" xml:space="preserve" fill="#000000" fill-rule="nonzero" stroke="none" stroke-width="1" stroke-linecap="butt" stroke-linejoin="miter" stroke-miterlimit="10" stroke-dasharray="" stroke-dashoffset="0" font-family="Sans Serif" font-weight="normal" text-anchor="start" style="mix-blend-mode: normal"><tspan x="0" dy="0">6</tspan></text><text transform="translate(160.23406,166.49524) rotate(2.00094) scale(0.60288,0.71521) skewX(-0.00455)" font-size="40" xml:space="preserve" fill="#000000" fill-rule="nonzero" stroke="none" stroke-width="1" stroke-linecap="butt" stroke-linejoin="miter" stroke-miterlimit="10" stroke-dasharray="" stroke-dashoffset="0" font-family="Sans Serif" font-weight="normal" text-anchor="start" style="mix-blend-mode: normal"><tspan x="0" dy="0">4</tspan></text><text transform="translate(234.54384,163.11447) rotate(2.00094) scale(0.60288,0.71521) skewX(-0.00455)" font-size="40" xml:space="preserve" fill="#000000" fill-rule="nonzero" stroke="none" stroke-width="1" stroke-linecap="butt" stroke-linejoin="miter" stroke-miterlimit="10" stroke-dasharray="" stroke-dashoffset="0" font-family="Sans Serif" font-weight="normal" text-anchor="start" style="mix-blend-mode: normal"><tspan x="0" dy="0">5</tspan></text><text transform="translate(161.588,210.12626) rotate(2.00094) scale(0.60288,0.71521) skewX(-0.00455)" font-size="40" xml:space="preserve" fill="#000000" fill-rule="nonzero" stroke="none" stroke-width="1" stroke-linecap="butt" stroke-linejoin="miter" stroke-miterlimit="10" stroke-dasharray="" stroke-dashoffset="0" font-family="Sans Serif" font-weight="normal" text-anchor="start" style="mix-blend-mode: normal"><tspan x="0" dy="0">7</tspan></text><text transform="translate(234.30953,210.96276) rotate(2.00094) scale(0.60288,0.71521) skewX(-0.00455)" font-size="40" xml:space="preserve" fill="#000000" fill-rule="nonzero" stroke="none" stroke-width="1" stroke-linecap="butt" stroke-linejoin="miter" stroke-miterlimit="10" stroke-dasharray="" stroke-dashoffset="0" font-family="Sans Serif" font-weight="normal" text-anchor="start" style="mix-blend-mode: normal"><tspan x="0" dy="0">8</tspan></text><text transform="translate(307.89988,207.55683) rotate(2.00094) scale(0.60288,0.71521) skewX(-0.00455)" font-size="40" xml:space="preserve" fill="#000000" fill-rule="nonzero" stroke="none" stroke-width="1" stroke-linecap="butt" stroke-linejoin="miter" stroke-miterlimit="10" stroke-dasharray="" stroke-dashoffset="0" font-family="Sans Serif" font-weight="normal" text-anchor="start" style="mix-blend-mode: normal"><tspan x="0" dy="0">9</tspan></text><path d="M263.91792,252.95129c-4.95827,1.88326 -17.77726,1.72567 -24.13635,1.50305c-6.76445,-0.23683 -17.66542,0.75482 -22.64227,-1.72173c-7.41303,-3.6888 -6.90482,-19.69861 -1.42895,-22.90096c5.66075,-3.31047 15.67887,-2.40465 24.23876,-2.10499c9.04192,0.31649 20.33929,-2.3247 25.7882,1.72761c4.69944,3.49499 6.35288,20.39298 -1.81933,23.49695z" fill="#636363" stroke="none" stroke-width="0" stroke-linecap="butt"/><path d="M195.81333,252.40704c-4.95827,1.88326 -17.77726,1.72567 -24.13635,1.50305c-6.76445,-0.23683 -17.66542,0.75482 -22.64227,-1.72173c-7.41303,-3.6888 -6.90482,-19.69861 -1.42895,-22.90096c5.66075,-3.31047 15.67887,-2.40465 24.23876,-2.10499c9.04192,0.31649 20.33929,-2.3247 25.7882,1.72761c4.69944,3.49499 6.35288,20.39298 -1.81933,23.49695z" fill="#000000" stroke="none" stroke-width="0" stroke-linecap="butt"/><path d="M336.19372,252.37033c-4.95827,1.88326 -17.7773,1.72567 -24.13638,1.50305c-6.76445,-0.23683 -17.66539,0.75482 -22.64223,-1.72173c-7.41303,-3.6888 -6.90482,-19.69861 -1.42895,-22.90096c5.66075,-3.31047 15.67887,-2.40465 24.23876,-2.10499c9.04192,0.31649 20.33929,-2.3247 25.7882,1.72761c4.69944,3.49499 6.35288,20.39298 -1.81933,23.49695z" fill="#636363" stroke="none" stroke-width="0" stroke-linecap="butt"/><text transform="translate(233.04951,251.30936) rotate(2.00094) scale(0.60288,0.71521) skewX(-0.00455)" font-size="40" xml:space="preserve" fill="#000000" fill-rule="nonzero" stroke="none" stroke-width="1" stroke-linecap="butt" stroke-linejoin="miter" stroke-miterlimit="10" stroke-dasharray="" stroke-dashoffset="0" font-family="Sans Serif" font-weight="normal" text-anchor="start" style="mix-blend-mode: normal"><tspan x="0" dy="0">0</tspan></text><path d="M290.01675,240.89678c0,-5.10863 4.14137,-9.25 9.25,-9.25c5.10863,0 9.25,4.14137 9.25,9.25c0,5.10863 -4.14137,9.25 -9.25,9.25c-5.10863,0 -9.25,-4.14137 -9.25,-9.25z" fill="none" stroke="#000000" stroke-width="5" stroke-linecap="butt"/><path d="M308.51675,238.14678h29v7" fill="none" stroke="#000000" stroke-width="5" stroke-linecap="round"/><path d="M323.51675,238.89678v6.75" fill="none" stroke="#000000" stroke-width="5" stroke-linecap="round"/><path d="M336.67641,79.64725l-8.7907,8.7907" fill="none" stroke="#000000" stroke-width="5" stroke-linecap="round"/><path d="M328.09501,79.43794l8.7907,8.7907" data-paper-data="{&quot;index&quot;:null}" fill="none" stroke="#000000" stroke-width="5" stroke-linecap="round"/><path d="M193.83004,255.6705c-4.26574,3.15192 -16.65129,6.46093 -22.83436,7.96334c-6.57721,1.59816 -16.8057,5.49593 -22.26635,4.45494c-8.13364,-1.55053 -11.96647,-17.10308 -7.55847,-21.66484c4.55683,-4.71578 14.44751,-6.54819 22.77046,-8.57057c8.79162,-2.13631 18.95646,-7.72938 25.29705,-5.29859c5.46849,2.09651 11.62249,17.92067 4.5917,23.11564z" fill="#636363" stroke="none" stroke-width="0" stroke-linecap="butt"/><text transform="translate(147.37533,262.65329) rotate(-16.18616) scale(0.38022,0.4511) skewX(0.00335)" font-size="40" xml:space="preserve" fill="#000000" fill-rule="nonzero" stroke="none" stroke-width="1" stroke-linecap="butt" stroke-linejoin="miter" stroke-miterlimit="10" stroke-dasharray="" stroke-dashoffset="0" font-family="Sans Serif" font-weight="normal" text-anchor="start" style="mix-blend-mode: normal"><tspan x="0" dy="0">ENTER</tspan></text><path d="M167.49908,226.4589c1.76777,1.76777 0,3.53553 0,3.53553l-0.15689,-0.02454c-2.8126,5.48599 -7.49562,9.7737 -13.50836,11.31038c0,0 -2.42536,0.60634 -3.0317,-1.81902c-0.60634,-2.42536 1.81902,-3.0317 1.81902,-3.0317c4.51212,-1.09703 8.23334,-4.52504 10.2489,-8.69574l1.09349,-1.27492c0,0 1.76777,-1.76777 3.53553,0z" fill="#ff0000" stroke="none" stroke-width="0.5" stroke-linecap="butt"/><path d="M195.72164,226.4265c2.42536,0.60634 1.81902,3.0317 1.81902,3.0317l-0.87505,3.12617c-0.7611,0.80386 -1.5222,1.60773 -2.28331,2.41159c0,0 -1.76777,1.76777 -3.53553,0c-1.76777,-1.76777 0,-3.53553 0,-3.53553c0.48928,-0.44652 0.97856,-0.89304 1.46784,-1.33955l0.37533,-1.87536c0,0 0.60634,-2.42536 3.0317,-1.81902z" fill="#1dff00" stroke="none" stroke-width="0.5" stroke-linecap="butt"/><path d="M175.46968,230.59508c-0.54246,1.08491 -1.3481,1.38024 -2.03385,1.39679c-0.14973,0.613 -0.22451,1.24133 -0.20298,1.86151c0,0 0,2.5 -2.5,2.5c-2.5,0 -2.5,-2.5 -2.5,-2.5c0.04569,-2.10088 0.61202,-4.22176 1.51431,-6.11956l4.60448,-0.49284c0,0 2.23607,1.11803 1.11803,3.3541z" fill="#ffb800" stroke="none" stroke-width="0.5" stroke-linecap="butt"/><path d="M186.25482,225.20852c1.76777,1.76777 0,3.53553 0,3.53553c-0.62519,0.62519 -3.12596,3.12596 -3.75115,3.75115c0,0 -1.76777,1.76777 -3.53553,0c-1.76777,-1.76777 0,-3.53553 0,-3.53553c0.62519,-0.62519 1.25038,-1.25038 1.87557,-1.87557l1.87557,-1.87557c0,0 1.76777,-1.76777 3.53553,0z" fill="#0010ff" stroke="none" stroke-width="0.5" stroke-linecap="butt"/></g></g></svg>