<svg version="1.1" xmlns="http://www.w3.org/2000/svg" xmlns:xlink="http://www.w3.org/1999/xlink" width="553.33333" height="431.22073" viewBox="0,0,553.33333,431.22073"><g transform="translate(36.66667,35.61036)"><g data-paper-data="{&quot;isPaintingLayer&quot;:true}" fill-rule="nonzero" stroke-linejoin="miter" stroke-miterlimit="10" stroke-dasharray="" stroke-dashoffset="0" style="mix-blend-mode: normal"><path d="M-1.30557,359.65626l241,-181h3l237,181z" fill="#8c8c8c" stroke="#000000" stroke-width="2" stroke-linecap="butt"/><path d="M240.69443,179.65626l-241,-182h480l-237,182z" fill="#6f6f6f" stroke="#000000" stroke-width="2" stroke-linecap="butt"/><path d="M-2.30559,358.65626v-360l241,180h-1z" fill="#949494" stroke="#000000" stroke-width="0" stroke-linecap="butt"/><path d="M244.69443,179.65626v0l236,-182l3,364z" fill="#888888" stroke="#000000" stroke-width="0" stroke-linecap="butt"/><path d="M405.69443,54.65626v248h-332v-248z" fill="none" stroke="#000000" stroke-width="2" stroke-linecap="round"/><path d="M126.69443,234.65626h44v-109h144v109h-150" fill="none" stroke="#000000" stroke-width="2" stroke-linecap="round"/><path d="M107.69443,277.65625l-1,-200l63,49l1,108z" fill="#5a5a5a" stroke="#000000" stroke-width="0" stroke-linecap="butt"/><path d="M171.69443,128.65625h-64" fill="none" stroke="#000000" stroke-width="2" stroke-linecap="round"/><path d="M108.69443,235.65625h62" fill="none" stroke="#000000" stroke-width="2" stroke-linecap="round"/><g stroke-linecap="butt"><g data-paper-data="{&quot;index&quot;:null}" fill="#663f3f" stroke="#000000" stroke-width="0.5"><path d="M199.12111,172.18131l3.10438,-0.59172l1.26798,6.65225l-3.10438,0.59172z"/><path d="M197.75944,175.88783l3.10439,-0.59171l1.26798,6.65223l-3.10438,0.59172z"/><path d="M201.0001,167.57193l3.10438,-0.59172l1.26797,6.65224l-3.10437,0.59171z"/><path d="M196.4544,168.43837l3.10438,-0.59172l1.26798,6.65225l-3.10438,0.59172z"/><path d="M202.416,175.00026l3.10438,-0.59172l1.26797,6.65224l-3.10438,0.59172z"/><path d="M193.98431,174.76902l12.861,-2.45145l0.67625,3.54786l-12.86099,2.45144z"/></g><g fill="#663f3f" stroke="#000000" stroke-width="0.5"><path d="M144.89736,121.49746l0.80677,-3.05556l6.54763,1.72879l-0.80677,3.05556z"/><path d="M141.10493,122.59736l0.80677,-3.05556l6.54762,1.7288l-0.80677,3.05556z"/><path d="M149.62659,119.9445l0.80675,-3.05555l6.54762,1.72878l-0.80677,3.05556z"/><path d="M148.44524,124.41871l0.80677,-3.05556l6.54763,1.72879l-0.80677,3.05556z"/><path d="M142.31507,118.01403l0.80677,-3.05556l6.54762,1.72878l-0.80677,3.05556z"/><path d="M145.01329,127.24806l3.34233,-12.65873l3.49206,0.92201l-3.34233,12.65875z"/></g><g fill="#663f3f" stroke="#000000" stroke-width="0.5"><path d="M93.27754,201.24996l5.66923,-4.451l9.53786,12.14836l-5.66923,4.451z"/><path d="M84.86409,198.03712l5.66923,-4.451l9.53786,12.14836l-5.66922,4.45101z"/><path d="M104.0186,204.92631l5.66922,-4.45101l9.53786,12.14836l-5.66923,4.451z"/><path d="M95.71721,211.44387l5.66924,-4.45101l9.53786,12.14836l-5.66923,4.45102z"/><path d="M93.36793,191.36062l5.66923,-4.451l9.53787,12.14835l-5.66924,4.45101z"/><path d="M85.58188,211.87383l23.48684,-18.43988l5.08687,6.47912l-23.48684,18.43988z"/></g><path d="M183.65868,214.8892c-19.72848,18.3975 -52.21252,15.6276 -71.72502,-5.29655c-12.70538,-13.62456 -17.50413,-27.64909 -11.44974,-42.9814c1.08037,-2.73598 9.65382,-6.95389 10.88807,-9.66666c2.47147,-5.43209 -5.51458,-10.49525 -0.92443,-14.77574c8.5605,-7.98297 15.64498,-16.42013 27.93276,-18.35401c16.03059,-2.52294 37.55895,3.94496 48.60467,15.78979c19.5125,20.92414 16.40213,56.88708 -3.32634,75.28457z" fill="#063800" stroke="#929292" stroke-width="1"/><g data-paper-data="{&quot;index&quot;:null}" fill="#663f3f" stroke="#000000" stroke-width="0.5"><path d="M150.74976,81.22277l-0.45606,-3.12718l6.70112,-0.97726l0.45606,3.12718z"/><path d="M147.69239,83.72175l-0.45606,-3.12718l6.70112,-0.97726l0.45607,3.1272z"/><path d="M154.49119,77.93966l-0.45606,-3.12718l6.70112,-0.97726l0.45606,3.12718z"/><path d="M155.15903,82.51882l-0.45606,-3.12718l6.70113,-0.97727l0.45605,3.12719z"/><path d="M147.00828,79.03095l-0.45606,-3.12718l6.70113,-0.97727l0.45605,3.12719z"/><path d="M153.11145,86.46731l-1.88939,-12.95551l3.57393,-0.5212l1.8894,12.9555z"/></g><path d="M161.18468,99.82778c-2.26483,11.02432 -8.16309,19.12677 -13.17415,18.0973c-5.01106,-1.02947 -7.23732,-10.801 -4.97249,-21.82532c2.26483,-11.02432 8.16308,-19.12676 13.17414,-18.09729c5.01106,1.02947 7.23732,10.801 4.97249,21.82532z" fill="#063800" stroke="#000000" stroke-width="0.5"/><path d="M158.97655,99.6533c-1.62688,7.91909 -5.86379,13.73931 -9.46338,12.99982c-3.59959,-0.7395 -5.19876,-7.75866 -3.57188,-15.67775c1.62688,-7.91909 5.86378,-13.7393 9.46337,-12.99981c3.59959,0.7395 5.19878,7.75866 3.57189,15.67774z" fill="#0a6100" stroke="#000000" stroke-width="0.5"/><path d="M142.97098,157.42014c-3.43754,3.20563 -8.63457,3.21956 -11.6079,0.03112c-2.97333,-3.18844 -2.59702,-8.37185 0.84052,-11.57747c3.43754,-3.20563 8.63457,-3.21956 11.6079,-0.03112c2.97333,3.18844 2.59702,8.37185 -0.84052,11.57747z" fill="#000000" stroke="#000000" stroke-width="2"/><path d="M172.72299,195.11184c-3.43754,3.20563 -8.63457,3.21956 -11.6079,0.03112c-2.97333,-3.18844 -2.59701,-8.37186 0.84052,-11.57747c3.43753,-3.20562 8.63457,-3.21956 11.6079,-0.03112c2.97333,3.18844 2.59701,8.37186 -0.84052,11.57747z" fill="#000000" stroke="#000000" stroke-width="2"/><path d="M137.95687,150.20521c-1.849,-0.06455 -1.78446,-1.91356 -1.78446,-1.91356l0.11135,-1.321c0.46023,-1.46367 1.01731,-2.9086 1.74503,-4.25937c0,0 0.88464,-1.62493 2.50957,-0.7403c1.62493,0.88464 0.7403,2.50957 0.7403,2.50957c-0.62344,1.13079 -1.08319,2.35295 -1.46116,3.58766l0.05293,0.35253c0,0 -0.06455,1.849 -1.91356,1.78446z" fill="#663f3f" stroke="none" stroke-width="0.5"/><path d="M139.30867,154.04633c-0.76917,-1.68266 0.9135,-2.45184 0.9135,-2.45184l2.10992,-0.91005c1.40153,0.02184 2.80639,0.00741 4.2039,-0.10088c0,0 1.84483,-0.14004 1.98486,1.70478c0.14004,1.84483 -1.70478,1.98486 -1.70478,1.98486c-1.24994,0.09309 -2.50894,0.1167 -3.75998,0.03999l-1.29557,0.64664c0,0 -1.68266,0.76917 -2.45184,-0.9135z" fill="#663f3f" stroke="none" stroke-width="0.5"/><path d="M133.1777,151.22734c0.4823,-0.28318 1.39835,-0.59766 2.27075,0.33785c1.2618,1.35309 -0.09129,2.61489 -0.09129,2.61489l-1.33826,0.69363c-2.04418,0.15516 -3.1816,0.09559 -4.99779,1.07c0,0 -1.64767,0.84153 -2.4892,-0.80615c-0.84153,-1.64767 0.80615,-2.4892 0.80615,-2.4892c2.134,-1.05151 3.63365,-1.24641 5.83965,-1.42104z" fill="#663f3f" stroke="none" stroke-width="0.5"/><path d="M137.36583,153.90769c1.73371,0.64594 1.08776,2.37966 1.08776,2.37966l-0.13424,0.24267c-0.33918,2.31374 -0.83875,2.70497 0.42043,4.72227c0,0 0.89596,1.61872 -0.72277,2.51468c-1.61872,0.89596 -2.51468,-0.72277 -2.51468,-0.72277c-1.51304,-2.95302 -1.30449,-3.91044 -0.84414,-7.05088l0.32796,-0.99787c0,0 0.64594,-1.73371 2.37966,-1.08776z" fill="#663f3f" stroke="none" stroke-width="0.5"/><path d="M138.14546,156.15874c-0.17177,0.11068 -0.29033,0.16488 -0.29033,0.16488l-4.28394,-0.88973c-0.37171,-1.60523 -2.1166,-3.50727 -1.11513,-4.8157c4.56592,-5.96545 6.78861,-0.80409 8.66119,1.69082c0,0 1.31352,2.23243 -0.91891,3.54596c-0.81229,0.47794 -1.50291,0.48641 -2.05287,0.30379z" fill="#7a0000" stroke="none" stroke-width="0.5"/><path d="M159.00707,193.08297c-0.51082,0.23354 -1.30085,0.36314 -2.05799,-0.44877c-1.2618,-1.35309 0.09129,-2.61489 0.09129,-2.61489l1.74664,-0.67938c2.78727,0.41308 5.11098,-0.40856 7.79571,-0.3705c-0.03111,-0.29021 -0.07209,-0.57912 -0.12418,-0.86646c-0.64293,-3.54609 -1.89607,-4.74312 0.01936,-8.37374c0,0 0.88464,-1.62493 2.50957,-0.7403c1.62493,0.88464 0.7403,2.50957 0.7403,2.50957c-1.56144,2.74545 -0.17382,3.06323 0.35953,5.88048c0.11304,0.59713 0.18577,1.19897 0.22616,1.80382c1.64372,0.04174 3.20192,-0.08005 5.09575,-0.64506c0,0 1.77453,-0.52346 2.29801,1.25106c0.52346,1.77453 -1.25106,2.29801 -1.25106,2.29801c-2.2445,0.65562 -4.18563,0.84689 -6.23057,0.80776c-0.13567,1.42123 -0.35905,2.84006 -0.56949,4.23499c0.21808,0.51145 0.31281,1.27391 -0.47189,2.00568c-1.35309,1.2618 -2.61489,-0.09129 -2.61489,-0.09129l-0.67938,-1.74664c0.2225,-1.51785 0.50427,-3.08032 0.65855,-4.64246c-2.54533,-0.14185 -4.9162,0.61885 -7.54141,0.4281z" fill="#663f3f" stroke="none" stroke-width="0.5"/><path d="M169.97995,185.33958c0.87576,0.93912 0.85179,1.84683 0.60493,2.52347c0.0545,0.03485 0.10941,0.07208 0.16474,0.11184c2.10373,1.5111 0.59264,3.61482 0.59264,3.61482l-1.72997,2.40843c-0.10484,0.15219 -0.22768,0.29543 -0.36841,0.42667c-1.04621,0.97563 -2.68522,0.91841 -3.66085,-0.1278c-0.29671,-0.31817 -0.49789,-0.69116 -0.60476,-1.08364l-0.73438,-2.48953l0.12868,-0.03795c-0.09605,-0.2548 -0.17519,-0.516 -0.23294,-0.78527c-0.24255,-1.13072 0.72389,-2.19669 1.08581,-3.29504l1.09366,-1.39377c0,0 1.89433,-1.76652 3.66085,0.1278z" fill="#7a0000" stroke="none" stroke-width="0.5"/><path d="M124.57753,159.98243c0.27062,-0.25236 0.52298,0.01826 0.52298,0.01826l0.30283,0.32474c0.57736,0.68554 1.34694,0.4955 2.19078,0.27571c3.15797,-1.74882 1.22891,-6.68131 4.79877,-7.76363c0.78141,-0.23691 2.13999,0.0534 2.95589,0.08189c0,0 0.36981,0.01291 0.35689,0.38271c-0.01291,0.36981 -0.38271,0.35689 -0.38271,0.35689c-6.37377,-0.22251 -2.91621,5.11857 -7.45438,7.62942c-1.20301,0.31234 -2.1026,0.44742 -3.00647,-0.45826l-0.30283,-0.32474c0,0 -0.25236,-0.27062 0.01826,-0.52298z" fill="#04ff00" stroke="none" stroke-width="0.5"/><path d="M131.48742,81.14041c-0.36981,-0.01291 -0.35689,-0.38271 -0.35689,-0.38271l0.03766,-0.53466c0.78842,-1.91001 1.90342,-4.54462 4.40334,-5.31793c3.28248,-0.82004 6.10851,-0.37385 9.41111,-1.93775c0.62363,-0.29531 1.64983,-3.17111 2.47918,-3.94451c4.57662,-4.26786 7.5941,1.60735 6.17295,5.72583c0,0 -0.1292,0.34674 -0.47593,0.21756c-0.34674,-0.1292 -0.21756,-0.47593 -0.21756,-0.47593c1.43544,-3.47747 -1.11725,-8.52346 -4.97474,-4.92621c-1.099,1.02486 -1.57334,3.40975 -2.61704,4.04599c-3.23635,1.97287 -6.35668,1.04583 -9.57678,2.0072c-2.21675,0.61258 -3.3382,3.20394 -3.91107,4.86413l0.00845,0.30211c0,0 -0.01291,0.36981 -0.38271,0.35689z" fill="#04ff00" stroke="none" stroke-width="0.5"/><path d="M102.44825,157.25893c0.04731,-0.367 0.4143,-0.31969 0.4143,-0.31969l0.19282,0.02486c0.73907,0.09553 1.43706,0.24304 2.18226,0.27525c3.91866,0.49608 2.01235,-2.65074 3.28813,-5.32107c0.598,-1.25166 2.95641,-3.21365 3.67872,-1.52255c0,0 0.1047,0.35491 -0.25022,0.4596c-0.35491,0.1047 -0.4596,-0.25022 -0.4596,-0.25022c-0.01796,-0.80065 -2.07498,1.10521 -2.29548,1.62003c-1.24907,2.91631 0.48845,6.32203 -4.02448,5.75155c-0.75604,-0.03447 -1.46449,-0.18232 -2.21394,-0.27865l-0.19282,-0.02486c0,0 -0.367,-0.04731 -0.31969,-0.4143z" fill="#04ff00" stroke="none" stroke-width="0.5"/><path d="M99.96826,163.70704c0.05762,0.09419 0.12912,0.28257 -0.06301,0.46174c-0.27062,0.25236 -0.52298,-0.01826 -0.52298,-0.01826l-0.18363,-0.73947c0.73896,-0.68911 2.38811,-2.89348 3.52599,-2.70709c1.13144,0.18533 1.35668,1.78815 0.87288,2.72883c0.24313,-0.15138 0.51287,-0.26523 0.784,-0.34913c0,0 0.35491,-0.1047 0.4596,0.25022c0.1047,0.35491 -0.25022,0.4596 -0.25022,0.4596c-0.36479,0.10085 -0.71233,0.2994 -0.98912,0.55751l-0.08663,0.00678l0.00789,0.02676l-0.6272,0.18502c-0.132,0.04196 -0.28226,0.00775 -0.383,-0.10028c-0.1201,-0.12879 -0.13064,-0.32046 -0.03563,-0.46018l0.31054,-0.47888c0.83715,-2.89088 -1.02471,-1.47171 -2.81949,0.17684z" fill="#04ff00" stroke="none" stroke-width="0.5"/><path d="M106.56777,162.30687c-0.25236,-0.27062 0.01826,-0.52298 0.01826,-0.52298l0.12211,-0.06047c1.33242,-3.57621 4.09812,-6.37871 5.37113,-9.86592c0,0 0.1292,-0.34674 0.47593,-0.21756c0.34674,0.1292 0.21756,0.47593 0.21756,0.47593c-1.31912,3.4565 -4.04918,6.31781 -5.37113,9.86592l-0.31088,0.34331c0,0 -0.27062,0.25236 -0.52298,-0.01826z" fill="#1c00ff" stroke="none" stroke-width="0.5"/><path d="M128.81092,81.62139c0.11482,-0.35176 0.46658,-0.23693 0.46658,-0.23693l0.23523,0.07678c1.08456,0.35457 2.21631,0.61282 3.21472,1.16096c3.78806,0.91582 5.32239,-4.16772 6.25748,-6.45562c0.47805,-1.16968 2.18578,-2.49137 3.10833,-3.35168c1.9464,-1.81509 5.01335,-2.50192 7.39627,-1.0569c1.30748,0.79287 1.87728,3.37552 3.04707,3.74067c0,0 0.34674,0.1292 0.21756,0.47593c-0.1292,0.34674 -0.47593,0.21756 -0.47593,0.21756c-1.46434,-0.60481 -1.72701,-2.84721 -3.18226,-3.80742c-2.04881,-1.35186 -4.83461,-0.57976 -6.498,0.97141c-2.97071,2.77029 -4.73701,11.15502 -10.13395,9.95766c-0.9893,-0.54246 -2.10667,-0.79885 -3.18096,-1.14902l-0.23523,-0.07678c0,0 -0.35176,-0.11482 -0.23693,-0.46658z" fill="#1c00ff" stroke="none" stroke-width="0.5"/><path d="M129.24296,166.07831c-0.34674,-0.1292 -0.21756,-0.47593 -0.21756,-0.47593l0.25984,-0.68026c0.13673,-0.14918 0.27345,-0.29837 0.41018,-0.44755c0.04023,-3.8456 5.17478,-6.90632 6.43307,-10.35322c0,0 0.1292,-0.34674 0.47593,-0.21756c0.34674,0.1292 0.21756,0.47593 0.21756,0.47593c-1.35121,3.54058 -6.22137,6.45867 -6.43814,10.36642c-0.15419,0.18477 -0.30839,0.36955 -0.46258,0.55432l-0.20236,0.56028c0,0 -0.1292,0.34674 -0.47593,0.21756z" fill="#1c00ff" stroke="none" stroke-width="0.5"/><path d="M156.03214,198.33507c-0.24622,-0.27623 0.03002,-0.52243 0.03002,-0.52243l0.53439,-0.46175c0.80123,-0.20473 1.51401,-0.17605 2.30948,-0.37573c2.42298,0.08834 3.79167,-4.49499 6.03674,-5.81155c0.77543,-0.45474 2.38132,-0.29977 2.60731,-1.17723c0,0 0.1292,-0.34674 0.47593,-0.21756c0.34674,0.1292 0.21756,0.47593 0.21756,0.47593c-0.59543,1.34942 -1.79269,0.88721 -2.93391,1.56158c-2.43113,1.43656 -3.49997,5.99913 -6.32559,5.90477c-0.70413,0.177 -1.34198,0.1311 -2.04257,0.29457l-0.3869,0.35944c0,0 -0.27623,0.24622 -0.52243,-0.03002z" fill="#1c00ff" stroke="none" stroke-width="0.5"/><path d="M102.14238,153.48132c-0.25236,-0.27062 0.01826,-0.52298 0.01826,-0.52298l0.2255,-0.21003c2.61897,-2.25029 6.17496,-4.09413 8.59234,-6.39387c0,0 0.27062,-0.25236 0.52298,0.01826c0.25236,0.27062 -0.01826,0.52298 -0.01826,0.52298c-2.51561,2.30742 -5.98122,4.07012 -8.61036,6.41015l-0.20749,0.19375c0,0 -0.27062,0.25236 -0.52298,-0.01826z" fill="#000000" stroke="none" stroke-width="0.5"/><path d="M92.65863,170.599c-0.1047,-0.35491 0.25022,-0.4596 0.25022,-0.4596l0.6078,-0.17814c3.01507,-1.40954 6.67866,-6.95593 9.34909,-4.20207c0,0 0.25236,0.27062 -0.01826,0.52298c-0.27062,0.25236 -0.52298,-0.01826 -0.52298,-0.01826c-1.92936,-2.13056 -5.98738,3.16741 -8.54432,4.38891l-0.66195,0.19642c0,0 -0.35491,0.1047 -0.4596,-0.25022z" fill="#000000" stroke="none" stroke-width="0.5"/><path d="M129.20448,83.30028c-0.36946,0.02062 -0.39007,-0.34883 -0.39007,-0.34883l-0.02318,-0.4153c-0.00503,-0.29918 -0.01008,-0.59837 -0.01511,-0.89755c1.49803,-1.50997 5.7055,-4.93456 7.9817,-4.79422c2.05696,0.12683 3.2511,1.28086 5.43073,1.04248c1.53104,-0.11741 2.42619,-1.90376 2.8187,-3.21949c1.01775,-3.41164 1.65814,-6.11756 4.29714,-8.57609c1.63126,-1.4037 4.40265,0.80429 5.01914,2.605c0.89483,2.61371 -0.43692,4.5649 -1.50165,6.82776c0,0 -0.15754,0.33482 -0.49236,0.17728c-0.33482,-0.15754 -0.17728,-0.49236 -0.17728,-0.49236c1.00932,-2.14511 2.25841,-3.8204 1.46924,-6.27853c-0.36721,-1.14383 -2.74758,-3.41216 -3.81291,-2.29741c-2.89229,2.69451 -3.19809,11.42563 -7.54097,11.98967c-2.22471,0.2342 -3.49207,-0.91468 -5.54712,-1.03919c-2.07295,-0.12559 -5.75811,3.09214 -7.2577,4.33116c0.02245,0.19342 0.04492,0.38683 0.06738,0.58026l0.02318,0.4153c0,0 0.02062,0.36946 -0.34883,0.39007z" fill="#000000" stroke="none" stroke-width="0.5"/><path d="M128.43576,165.79083c-0.24999,-0.27281 0.02281,-0.52281 0.02281,-0.52281l0.54813,-0.50223c1.25102,-1.06626 2.89249,-1.29402 4.41618,-1.99264c2.54988,-1.16183 4.11999,-3.35812 4.17199,-6.24096c0.0264,-1.46383 -1.11992,-2.55009 -0.6145,-4.0148c0,0 0.1292,-0.34674 0.47593,-0.21756c0.34674,0.1292 0.21756,0.47593 0.21756,0.47593c-0.48265,1.16927 0.66994,2.50976 0.66102,3.76537c-0.02237,3.14621 -1.83038,5.63271 -4.60433,6.90508c-1.46385,0.66695 -3.06354,0.875 -4.23362,1.87398l-0.53835,0.49343c0,0 -0.27281,0.24999 -0.52281,-0.02281z" fill="#000000" stroke="none" stroke-width="0.5"/><path d="M160.2633,202.09121c-0.25236,-0.27062 0.01826,-0.52298 0.01826,-0.52298l0.21649,-0.20189c0.81353,-0.73671 2.72716,-1.52025 3.76849,-1.84252c3.90079,-1.17705 7.20483,-5.37978 4.1385,-8.66794c0,0 -0.25236,-0.27062 0.01826,-0.52298c0.27062,-0.25236 0.52298,0.01826 0.52298,0.01826c3.45978,3.71008 -0.06925,8.55087 -4.46803,9.88178c-0.88793,0.24549 -2.80103,1.02062 -3.47547,1.67463l-0.21649,0.20189c0,0 -0.27062,0.25236 -0.52298,-0.01826z" fill="#000000" stroke="none" stroke-width="0.5"/><path d="M119.80407,159.55739c-0.18061,-0.32296 0.14234,-0.50358 0.14234,-0.50358l0.00312,-0.00173c2.70315,-1.42206 5.91067,-0.18928 7.71962,-3.53318c0.67986,-1.64718 2.37371,-7.57344 5.67009,-6.41862c1.14259,0.40028 2.01452,1.75573 2.81608,2.61528c0,0 0.25236,0.27062 -0.01826,0.52298c-0.27062,0.25236 -0.52298,-0.01826 -0.52298,-0.01826c-0.54538,-0.58484 -1.95548,-2.74025 -2.92911,-2.51432c-2.9561,0.68592 -3.61811,4.03408 -4.3424,6.11984c-2.01232,3.67708 -5.24561,2.17881 -8.03183,3.8722l-0.00312,0.00173c0,0 -0.32295,0.18062 -0.50357,-0.14233z" fill="#420000" stroke="none" stroke-width="0.5"/><path d="M150.28546,196.92559c-0.27062,0.25236 -0.52298,-0.01826 -0.52298,-0.01826l-0.2888,-0.56421c1.12909,-4.15558 7.53681,-1.03172 10.41454,-3.71857c2.09905,-1.9696 1.82034,-4.44056 3.51718,-6.5122c1.844,-2.25133 3.41712,-0.14955 3.63386,1.86831c0,0 0.03952,0.36791 -0.32839,0.40743c-0.36791,0.03952 -0.40743,-0.32839 -0.40743,-0.32839c-0.65364,-6.08541 -4.67978,3.9496 -5.90939,5.10506c-2.63156,2.45702 -9.35038,0.09295 -10.20531,3.36907l0.11497,-0.13122c0,0 0.25236,0.27062 -0.01826,0.52298z" fill="#420000" stroke="none" stroke-width="0.5"/><path d="M129.48411,84.72157c0.0129,-0.3698 0.38271,-0.35689 0.38271,-0.35689l0.19432,0.00678c2.45124,0.08557 3.28913,-1.00806 5.0273,-2.58282c1.66602,-4.44662 5.82122,-8.57959 10.76507,-9.85805c4.39147,-2.35513 10.36874,0.41237 6.76733,5.4262c0,0 -0.21586,0.30053 -0.5164,0.08465c-0.30053,-0.21586 -0.08466,-0.51639 -0.08466,-0.51639c3.1609,-4.40054 -2.17022,-6.44204 -5.89181,-4.30719c-4.92002,1.28589 -8.70955,5.22787 -10.42615,9.58483c-1.86024,1.77512 -2.96696,3.00261 -5.66649,2.90837l-0.19432,-0.00678c0,0 -0.3698,-0.01292 -0.3569,-0.38272z" fill="#420000" stroke="none" stroke-width="0.5"/><path d="M100.81007,160.74823c-0.36981,-0.01291 -0.3569,-0.38272 -0.3569,-0.38272l0.04054,-0.54214c0.4864,-1.19612 1.34691,-2.11419 2.28565,-2.9896c3.10573,-2.8962 5.53512,-5.97122 8.47249,-8.71042c0,0 0.27062,-0.25236 0.52298,0.01826c0.25236,0.27062 -0.01826,0.52298 -0.01826,0.52298c-2.93442,2.73645 -5.36647,5.81394 -8.47249,8.71042c-0.84808,0.79087 -1.68143,1.63162 -2.10265,2.72171l0.01133,0.29463c0,0 -0.0129,0.3698 -0.38271,0.35689z" fill="#420000" stroke="none" stroke-width="0.5"/><path d="M94.44407,173.61264c-0.25236,-0.27062 0.01826,-0.52298 0.01826,-0.52298l0.10825,-0.10094c0.30403,-0.28352 0.6093,-0.56574 0.9188,-0.84327c1.02721,-2.90858 1.94439,-4.89103 4.97144,-6.24445c1.16749,-0.52199 1.81211,-2.0589 2.98237,-1.08511c0,0 0.25236,0.27062 -0.01826,0.52298c-0.27062,0.25236 -0.52298,-0.01826 -0.52298,-0.01826c-0.21205,-0.45811 -1.49767,0.96882 -2.12585,1.24993c-2.97805,1.3326 -3.57648,3.16256 -4.67115,5.98571c-0.34073,0.32718 -0.68419,0.65155 -1.02966,0.97371l-0.10825,0.10094c0,0 -0.27062,0.25236 -0.52298,-0.01826z" fill="#420000" stroke="none" stroke-width="0.5"/><path d="M155.48152,198.17449c-0.05986,-0.36515 0.3053,-0.42501 0.3053,-0.42501l0.33413,0.0082c0.84948,-0.79207 1.44432,-1.72652 2.24917,-2.51498c0.99638,-2.4891 2.96345,-5.90462 5.61574,-7.2214c1.33495,-0.66276 3.57851,-0.18043 2.96671,1.43099c0,0 -0.17692,0.32499 -0.50191,0.14807c-0.32498,-0.17693 -0.14806,-0.50192 -0.14806,-0.50192c0.691,-0.66875 -1.99767,-0.38926 -2.76972,0.33071c-2.12179,1.97866 -3.48085,3.60193 -4.54641,6.22319c-0.83818,0.84051 -1.46822,1.81415 -2.36079,2.6466l-0.71911,0.18088c0,0 -0.36517,0.05987 -0.42502,-0.30529z" fill="#04ff00" stroke="none" stroke-width="0.5"/><path d="M161.94863,85.89534c0.19013,-0.03786 0.33734,0.12001 0.33734,0.12001l0.17788,0.21838c0.07503,0.16433 0.15005,0.32871 0.22508,0.49304c0.94905,3.20517 0.18984,8.76134 -0.98279,11.96193c-1.02826,4.0193 -2.79919,7.09064 -4.23717,10.95016c-0.83958,1.47324 -1.84925,5.54342 -4.4614,5.42441c-1.37607,-0.0627 -2.78166,-2.31356 -3.66499,-3.26079c-1.47819,-1.67159 0.8952,-4.98928 1.65976,-6.51258c0.66746,-1.32984 -0.69998,-4.21326 -1.22602,-5.40128c0.03617,-1.59077 -0.70463,-3.32656 0.07989,-4.78586c1.16982,-2.176 4.74419,-1.92904 4.7757,-4.57676c0.5217,-3.36479 3.86735,-8.29687 7.30946,-4.63901c0,0 0.00271,0.0029 0.00726,0.00837z" fill="#000000" stroke="none" stroke-width="0.5"/><path d="M179.56542,155.71995c0.02648,0.00986 0.05016,0.02098 0.07135,0.03313c4.34495,0.49753 6.58296,5.23073 9.70241,8.57586c1.19719,1.2838 3.23599,2.82157 3.86765,4.49886c1.02138,2.71218 -1.5144,6.46567 -1.6273,9.29114c0.4672,1.55163 1.91365,2.8938 2.14774,4.47337c0.61037,4.11853 -2.5615,5.65617 -5.95138,6.96513c-0.95476,0.90821 -1.39821,0.73444 -2.51291,1.0997c-5.70671,1.86993 -3.25777,-6.17922 -5.08993,-8.80715c-2.39243,-4.09567 -9.2089,-8.37973 -4.0763,-13.16607c0.46504,-0.43367 1.73735,-1.24585 1.96109,-1.82104c1.15909,-2.97967 -2.09802,-6.97048 0.6918,-9.94801c0.04688,-0.16122 0.10157,-0.3227 0.15845,-0.48191c-0.2299,-0.004 -0.46563,0.0047 -0.70759,0.02699c-0.15349,0.12253 -0.30695,0.24506 -0.46045,0.3676l-0.1884,0.17818c0,0 -0.27062,0.25236 -0.52298,-0.01826c-0.25236,-0.27062 0.01826,-0.52298 0.01826,-0.52298l0.24459,-0.22558c0.21106,-0.15524 0.42213,-0.31047 0.63319,-0.46571c0.47428,-0.06128 0.92546,-0.07659 1.35625,-0.05097c0.07142,-0.03479 0.16503,-0.04676 0.28443,-0.00225z" fill="#000000" stroke="none" stroke-width="0.5"/><path d="M175.6159,220.55378c-2.30852,0.61613 -6.82314,0.85402 -8.28682,2.16578c-4.6828,1.58863 -9.42398,2.39697 -14.03563,3.71497c-4.54819,0.42217 -6.07548,-3.63629 -3.51198,-7.29488c0.67324,-0.96084 2.53806,-2.80626 3.61383,-2.44987c2.34705,-1.25731 5.79169,-1.00151 8.38831,-1.37787c2.30045,-0.33343 3.97364,-1.33336 6.28118,-1.25281c1.78332,0.06474 3.81994,-0.86082 5.5343,0.2485c2.03341,1.31577 1.26981,3.46304 2.251,5.26811c0.09857,-0.02764 0.22706,-0.02102 0.35114,0.11204c0.17596,0.18869 0.09767,0.36849 0.03413,0.46008c0.04837,0.05884 0.09936,0.11711 0.15315,0.1748c0,0 0.25236,0.27062 -0.01826,0.52298c-0.27062,0.25236 -0.52298,-0.01826 -0.52298,-0.01826c-0.08352,-0.08956 -0.16043,-0.18082 -0.23138,-0.27355z" fill="#000000" stroke="none" stroke-width="0.5"/><path d="M129.75814,172.80505c-0.03984,0.00654 -0.07606,0.00801 -0.10896,0.00543c0.03057,2.42083 2.16115,5.37377 3.28719,7.21235c2.54593,2.71369 3.80798,4.35577 7.42046,5.22676c3.39672,1.58467 6.40944,4.56323 2.69709,7.89821c-1.12732,2.85062 -7.18,1.25396 -9.19146,0.70854c-1.9797,-2.0194 -3.44071,-4.12136 -4.69791,-6.57919c-0.49544,-0.96858 -2.10174,-2.29535 -1.79254,-3.54143c-1.57136,-2.08211 -3.57794,-8.72909 -1.39411,-10.7899c0.50679,-0.4726 2.58707,-3.23877 3.39255,-3.04101c0.28867,0.07087 0.44881,1.73376 0.61574,2.03762l0.07725,0.4376c0,0 0.05987,0.36514 -0.30529,0.42502z" fill="#000000" stroke="none" stroke-width="0.5"/><path d="M127.20729,184.22151c-0.25236,-0.27062 0.01826,-0.52298 0.01826,-0.52298l0.21649,-0.20189c0.47461,-0.44259 0.81678,-1.02317 1.14961,-1.61512c-0.98599,-1.51279 -1.7783,-3.26636 -2.14033,-5.0455c-0.36821,0.12322 -0.65227,0.26139 -0.78117,0.4201l-0.43299,0.40378c0,0 -0.27062,0.25236 -0.52298,-0.01826c-0.25236,-0.27062 0.01826,-0.52298 0.01826,-0.52298l0.43299,-0.40378c0.30225,-0.2446 0.70729,-0.42898 1.16623,-0.57935c-0.19006,-1.38152 -0.1029,-2.76145 0.3717,-4.0395c0,0 0.1292,-0.34674 0.47593,-0.21756c0.34674,0.1292 0.21756,0.47593 0.21756,0.47593c-0.42338,1.13234 -0.51092,2.35349 -0.35667,3.58129c0.90414,-0.22295 1.90614,-0.3767 2.71706,-0.61609c0,0 0.35491,-0.1047 0.4596,0.25022c0.1047,0.35491 -0.25022,0.4596 -0.25022,0.4596c-0.63021,0.18576 -1.82931,0.36795 -2.81258,0.60839c0.31276,1.57986 0.99641,3.14479 1.85027,4.51948c0.6557,-1.09963 1.45915,-2.05375 3.24937,-1.9995c0,0 0.36981,0.01291 0.35689,0.38271c-0.01291,0.36981 -0.38271,0.35689 -0.38271,0.35689c-1.53163,-0.0616 -2.24714,0.83322 -2.82947,1.86366c0.43918,0.64091 0.91174,1.23029 1.39435,1.74782c0.51553,0.55949 0.94968,1.1974 1.35847,1.8626c0.90679,-0.79676 1.87679,-1.54031 2.63443,-2.24683c0,0 0.27062,-0.25236 0.52298,0.01826c0.25236,0.27062 -0.01826,0.52298 -0.01826,0.52298c-0.78686,0.73377 -1.81606,1.51051 -2.75469,2.34738c0.91319,1.55287 1.78691,3.16357 3.29621,4.21594c0.44102,0.30751 0.94378,0.51323 1.47769,0.65911c0.18406,-2.35774 0.7769,-4.74651 2.77321,-5.36428c0,0 0.35491,-0.1047 0.4596,0.25022c0.1047,0.35491 -0.25022,0.4596 -0.25022,0.4596c-1.63465,0.45187 -2.12802,2.65373 -2.27641,4.81325c1.34102,0.24649 2.787,0.24936 3.90733,0.59978c0.22927,0.00679 0.45856,0.01357 0.68782,0.02035l0.09717,0.00339c0,0 0.36981,0.01291 0.35689,0.38271c-0.01291,0.36981 -0.38271,0.35689 -0.38271,0.35689l-0.09717,-0.00339c-0.26379,-0.01042 -0.52759,-0.02086 -0.79137,-0.03129c-1.09774,-0.3783 -2.48746,-0.41477 -3.81492,-0.63385c-0.04712,1.20555 -0.0112,2.33563 -0.03667,3.06506l-0.01461,0.41838c0,0 -0.01291,0.36981 -0.38271,0.35689c-0.36981,-0.01291 -0.35689,-0.38271 -0.35689,-0.38271l0.01461,-0.41838c0.02937,-0.84128 0.00545,-1.98228 0.06267,-3.1795c-0.66404,-0.15533 -1.29474,-0.3839 -1.84413,-0.75666c-1.58129,-1.07292 -2.47001,-2.74541 -3.41271,-4.34364c-0.68936,0.66527 -1.28648,1.36845 -1.63753,2.11744l-0.49868,0.50448c0,0 -0.2622,0.26111 -0.5233,-0.00108c-0.26111,-0.2622 0.00108,-0.5233 0.00108,-0.5233l0.41585,-0.40625c0.39292,-0.83191 1.07582,-1.60739 1.85282,-2.33796c-0.40941,-0.65993 -0.84647,-1.29039 -1.36709,-1.84088c-0.42968,-0.46076 -0.84901,-0.97313 -1.24473,-1.52502c-0.3075,0.57897 -0.62259,1.14136 -1.06003,1.54929l-0.21649,0.20189c0,0 -0.27062,0.25236 -0.52298,-0.01826z" fill="#ffffff" stroke="none" stroke-width="0.5"/><path d="M149.31514,96.09272c-0.52346,-1.77453 1.25106,-2.29801 1.25106,-2.29801l0.31681,-0.06041c0.63975,-0.32675 1.27949,-0.65348 1.91924,-0.98023c0,0 0.41884,-0.21393 0.94204,-0.21488c0.06527,-0.05257 0.13679,-0.10129 0.21515,-0.14484c0.24557,-1.93163 0.60949,-3.87744 1.3441,-5.85071c0,0 0.64594,-1.73371 2.37966,-1.08776c1.73371,0.64594 1.08776,2.37966 1.08776,2.37966c-0.67693,1.81535 -1.03745,3.5782 -1.27795,5.32379c1.02961,-0.14277 2.07708,-0.1837 3.11133,-0.15641l0.41838,0.01461c0,0 1.849,0.06455 1.78446,1.91356c-0.06455,1.849 -1.91356,1.78446 -1.91356,1.78446l-0.41838,-0.01461c-1.1318,-0.05174 -2.29444,0.00315 -3.3946,0.27876c-0.16411,1.67822 -0.35037,3.36439 -0.73523,5.09018c0.47576,0.01661 0.95155,0.03322 1.42731,0.04983l1.25515,0.04382c0,0 1.849,0.06455 1.78446,1.91356c-0.06455,1.849 -1.91356,1.78446 -1.91356,1.78446c-0.6973,-0.02434 -2.64977,-0.0925 -3.34706,-0.11685c0,0 -0.04724,-0.00165 -0.12634,-0.01197c-0.63918,2.47683 -1.29277,4.96233 -1.87895,7.45996l0.01936,0.4754c0,0 -0.06455,1.849 -1.91356,1.78446c-1.849,-0.06455 -1.78446,-1.91356 -1.78446,-1.91356l0.02904,-0.44724c-0.08014,-0.00369 -0.16369,-0.0117 -0.25076,-0.02447c-1.83058,-0.26835 -1.56222,-2.09891 -1.56222,-2.09891c0.41524,-2.37706 2.06034,-3.84174 2.94197,-5.81786c-0.59935,-0.74825 -0.52911,-1.8437 0.18351,-2.50825c0.16102,-0.15015 0.3417,-0.26607 0.53307,-0.34804c0.31736,-1.74652 0.64161,-3.55376 0.92062,-5.31405c-0.0323,0.0165 -0.06459,0.03299 -0.09689,0.04949l-0.95294,0.31415c0,0 -1.77453,0.52346 -2.29801,-1.25106z" fill="#663f3f" stroke="none" stroke-width="0.5"/><path d="M177.5068,161.09523c1.35309,-1.2618 2.61489,0.09129 2.61489,0.09129l0.60567,0.64948c4.06701,4.7157 0.26913,7.00645 -3.27522,10.06966l0.20874,0.00756c3.99583,0.60507 9.96946,0.70908 13.78056,-0.47399c0,0 1.77453,-0.52346 2.29801,1.25106c0.38841,1.31669 -0.48835,1.94461 -0.96663,2.18097c0.29131,0.42751 0.38246,0.94733 0.27791,1.4319l-0.40908,2.01757c0.29419,0.69249 1.03812,1.37932 1.11375,2.00929c0.03245,0.069 0.06291,0.14253 0.0911,0.22085c0.62677,1.74073 -1.11396,2.3675 -1.11396,2.3675c-1.6818,0.55368 -3.21978,0.54964 -4.72481,0.35764c-0.03335,0.2598 -0.09864,0.43502 -0.09864,0.43502c-1.30545,3.17764 -2.60138,3.9713 -5.95155,4.58271l-1.05326,0.17268c0,0 -1.82576,0.29932 -2.12509,-1.52644c-0.29932,-1.82576 1.52644,-2.12509 1.52644,-2.12509l1.05326,-0.17268c1.96654,-0.269 2.43917,-0.24546 3.01335,-2.0036c-1.15929,-0.19372 -2.35125,-0.32365 -3.62466,-0.22698l-1.41409,0.15279c0,0 -1.83955,0.19759 -2.03714,-1.64196c-0.0738,-0.68715 0.13664,-1.1452 0.42927,-1.44941c-1.40584,-0.98122 -2.59136,-2.06947 -3.1146,-2.62382c0,0 -0.75884,-0.81374 -0.46852,-1.76759c-0.34064,-0.27939 -0.6148,-0.73165 -0.58925,-1.46341c0.01681,-0.48152 0.15463,-0.83325 0.34931,-1.09015c-1.15593,-1.32717 0.15234,-2.54718 0.15234,-2.54718c1.22034,-1.13801 3.25175,-2.14663 4.17284,-3.24412c-0.49171,-0.65035 -0.49422,-1.54423 -0.02456,-2.1952c-0.0556,-0.06017 -0.11621,-0.12082 -0.182,-0.182l-0.60567,-0.64948c0,0 -1.2618,-1.35309 0.09129,-2.61489z" fill="#663f3f" stroke="none" stroke-width="0.5"/><path d="M168.55481,223.75392c-1.68266,0.76917 -2.45184,-0.9135 -2.45184,-0.9135l-0.22443,-0.56277c-1.63953,-2.48446 -1.63515,-3.94852 -1.79837,-6.87043c0,0 -0.10312,-1.84726 1.74414,-1.95038c1.84726,-0.10312 1.95038,1.74414 1.95038,1.74414c0.12334,2.21113 -0.1732,3.23127 1.13973,4.96114l0.55391,1.13997c0,0 0.76917,1.68266 -0.9135,2.45184z" fill="#663f3f" stroke="none" stroke-width="0.5"/><path d="M159.1967,226.51898c-1.82576,0.29932 -2.12509,-1.52644 -2.12509,-1.52644l-0.14776,-0.92836c-0.55582,-2.42697 -0.45694,-4.55416 -0.64706,-7.00754c0,0 -0.14004,-1.84483 1.70478,-1.98486c1.84483,-0.14004 1.98486,1.70478 1.98486,1.70478c0.1676,2.25023 0.02162,4.23329 0.55908,6.43913l0.1976,1.17816c0,0 0.29932,1.82576 -1.52644,2.12509z" fill="#663f3f" stroke="none" stroke-width="0.5"/><path d="M152.08032,227.98209c-1.849,-0.06455 -1.78446,-1.91356 -1.78446,-1.91356l0.02921,-0.83677c0.10269,-2.82611 -0.74141,-5.01932 -0.97346,-7.78852c0,0 -0.14004,-1.84483 1.70478,-1.98486c1.84483,-0.14004 1.98486,1.70478 1.98486,1.70478c0.18764,2.85839 1.08156,5.23061 0.98182,8.19767l-0.02921,0.83677c0,0 -0.06455,1.849 -1.91356,1.78446z" fill="#663f3f" stroke="none" stroke-width="0.5"/><path d="M200.49325,194.92603c0.0129,-0.3698 0.38271,-0.35689 0.38271,-0.35689l0.30078,0.0295c1.6961,-0.4557 4.35935,-1.39372 5.12503,-3.56235c1.18359,-3.14522 0.47639,-6.3226 2.67015,-9.41349c0.70748,-0.99679 3.11964,-1.30366 4.21864,-2.32852c3.8575,-3.59725 -0.9982,-6.49561 -4.5673,-5.30616c0,0 -0.3549,0.10469 -0.4596,-0.25022c-0.10469,-0.3549 0.25022,-0.4596 0.25022,-0.4596c4.20756,-1.1305 9.85805,2.28935 5.28142,6.55721c-0.82935,0.77339 -3.76971,1.59655 -4.10779,2.19807c-1.7904,3.18551 -1.54237,6.03577 -2.58932,9.25307c-0.94576,2.43991 -3.65171,3.36847 -5.61205,4.02178l-0.53598,0.00029c0,0 -0.3698,-0.0129 -0.35689,-0.38271z" data-paper-data="{&quot;index&quot;:null}" fill="#04ff00" stroke="none" stroke-width="0.5"/><path d="M199.82681,197.56249c-0.35891,0.09002 -0.44892,-0.26889 -0.44892,-0.26889l-0.06019,-0.24001c-0.27441,-1.09609 -0.45224,-2.22863 -0.9244,-3.25335c-0.81809,-5.46731 7.66939,-6.64459 10.64011,-9.41488c1.66339,-1.55117 2.62788,-4.27635 1.42218,-6.41444c-0.85639,-1.51867 -3.07501,-1.93707 -3.57624,-3.44003c0,0 -0.10469,-0.3549 0.25022,-0.4596c0.3549,-0.10469 0.4596,0.25022 0.4596,0.25022c0.28268,1.1924 2.81931,1.94092 3.51907,3.30051c1.27533,2.47788 0.3763,5.48947 -1.57011,7.30456c-0.92255,0.86031 -2.36011,2.47171 -3.56028,2.86703c-2.34755,0.77327 -7.5257,1.94937 -6.87627,5.79207c0.47718,1.0342 0.65588,2.18121 0.93395,3.28785l0.06019,0.24001c0,0 0.09002,0.35891 -0.26889,0.44892z" data-paper-data="{&quot;index&quot;:null}" fill="#1c00ff" stroke="none" stroke-width="0.5"/><path d="M198.17946,197.05278c0.04633,-0.36711 0.41345,-0.32077 0.41345,-0.32077l0.41268,0.05209c0.19139,0.03589 0.38276,0.07179 0.57415,0.10768c1.34058,-1.40953 4.80746,-4.86133 4.82674,-6.93799c0.01911,-2.05874 -1.0386,-3.40313 -0.64983,-5.60609c0.86551,-4.29298 9.59671,-3.98917 12.48635,-6.68651c1.18632,-0.985 -0.91049,-3.51776 -2.02593,-3.96384c-2.39712,-0.95867 -4.15543,0.17056 -6.36571,1.02783c0,0 -0.34499,0.1338 -0.47879,-0.21119c-0.1338,-0.34499 0.21119,-0.47879 0.21119,-0.47879c2.33161,-0.90434 4.37091,-2.09678 6.91586,-1.02186c1.75333,0.74057 3.76268,3.65919 2.24864,5.18858c-2.63658,2.46113 -5.38056,2.91126 -8.85487,3.68862c-1.3399,0.29981 -3.18433,1.06821 -3.40822,2.58733c-0.38979,2.1577 0.67815,3.42941 0.66123,5.49021c-0.01873,2.28044 -3.72839,6.23885 -5.33916,7.62794c-0.2981,-0.02588 -0.59621,-0.05178 -0.89432,-0.07767l-0.41268,-0.05209c0,0 -0.36711,-0.04633 -0.32077,-0.41345z" data-paper-data="{&quot;index&quot;:null}" fill="#000000" stroke="none" stroke-width="0.5"/><path d="M196.78114,196.67473c-0.3698,-0.01292 -0.3569,-0.38272 -0.3569,-0.38272l0.00678,-0.19432c0.09424,-2.69953 1.39592,-3.71795 3.29644,-5.44988c4.46606,-1.40859 8.6627,-4.914 10.28856,-9.73237c2.38918,-3.56365 0.72442,-9.02416 -3.88584,-6.17783c0,0 -0.31485,0.19438 -0.50923,-0.12047c-0.19439,-0.31486 0.12046,-0.50924 0.12046,-0.50924c5.25278,-3.243 7.59671,2.91271 4.94107,7.12925c-1.62011,4.84265 -6.03278,8.69953 -10.58476,10.05141c-1.69214,1.62412 -2.84154,2.3837 -2.92711,4.83495l-0.00678,0.19432c0,0 -0.01291,0.36981 -0.38271,0.35689z" data-paper-data="{&quot;index&quot;:null}" fill="#420000" stroke="none" stroke-width="0.5"/><g data-paper-data="{&quot;index&quot;:null}" stroke="none" stroke-width="0.5"><path d="M145.58154,244.78396c0.02888,-0.3847 0.41465,-0.38668 0.41465,-0.38668l0.31298,0.01812c1.79079,-0.54401 4.61201,-1.62933 5.50216,-3.91404c1.36738,-3.31661 0.76091,-6.58792 3.1813,-9.89015c0.78057,-1.06495 3.3132,-1.48416 4.50394,-2.59457c4.1795,-3.89753 -0.77232,-6.70625 -4.55029,-5.32202c0,0 -0.3751,0.12353 -0.4697,-0.2408c-0.09459,-0.36431 0.28053,-0.48786 0.28053,-0.48786c4.44249,-1.34958 10.20287,1.96779 5.24422,6.5919c-0.89857,0.83795 -4.00449,1.81549 -4.38271,2.45444c-2.00297,3.38373 -1.86253,6.33433 -3.09018,9.72014c-1.08957,2.57401 -3.95499,3.6513 -6.03006,4.41158l-0.55993,0.02261c0,0 -0.38578,0.002 -0.35689,-0.38271z" fill="#04ff00"/><path d="M144.77556,247.55049c-0.37868,0.10846 -0.45777,-0.26065 -0.45777,-0.26065l-0.05289,-0.24683c-0.24102,-1.12722 -0.37964,-2.29633 -0.83021,-3.34118c-0.62698,-5.64552 8.28846,-7.22189 11.50714,-10.22343c1.80224,-1.68065 2.92325,-4.5518 1.75275,-6.72271c-0.83139,-1.54198 -3.13166,-1.88425 -3.59268,-3.42469c0,0 -0.09459,-0.36431 0.28053,-0.48786c0.3751,-0.12353 0.4697,0.2408 0.4697,0.2408c0.24566,1.22693 2.86438,1.8989 3.53877,3.28214c1.2291,2.52099 0.16454,5.68694 -1.94434,7.65354c-0.99955,0.93212 -2.56839,2.66594 -3.8386,3.12658c-2.48455,0.90103 -7.94287,2.33839 -7.42444,6.30325c0.45542,1.05449 0.59435,2.23859 0.83876,3.37662l0.05289,0.24683c0,0 0.07909,0.36909 -0.29959,0.47755z" fill="#1c00ff"/><path d="M143.07588,247.08959c0.06368,-0.38329 0.44526,-0.35044 0.44526,-0.35044l0.42893,0.03692c0.19843,0.02932 0.39686,0.05863 0.5953,0.08795c1.45912,-1.52008 5.2245,-5.25024 5.3311,-7.40833c0.10568,-2.13946 -0.94327,-3.49202 -0.44543,-5.79669c1.0829,-4.49569 10.19127,-4.54361 13.32223,-7.46599c1.2803,-1.07264 -0.80468,-3.61643 -1.95134,-4.03339c-2.46423,-0.89608 -4.34806,0.35019 -6.69271,1.33278c0,0 -0.36597,0.15337 -0.49138,-0.19945c-0.12542,-0.35281 0.24055,-0.50618 0.24055,-0.50618c2.47336,-1.03653 4.65336,-2.36018 7.26718,-1.34948c1.80078,0.69633 3.77832,3.6446 2.13301,5.29641c-2.85676,2.66646 -5.742,3.24831 -9.40379,4.20051c-1.4122,0.36724 -3.37098,1.24226 -3.66811,2.82969c-0.49703,2.25771 0.56565,3.53432 0.46217,5.67585c-0.11452,2.36976 -4.15462,6.63632 -5.89512,8.1464c-0.31033,-0.01448 -0.62068,-0.02897 -0.93101,-0.04345l-0.42893,-0.03692c0,0 -0.38157,-0.03284 -0.31788,-0.41615z" fill="#000000"/><path d="M141.63089,246.7551c-0.38578,0.00198 -0.3569,-0.38272 -0.3569,-0.38272l0.01517,-0.20214c0.21084,-2.80827 1.61304,-3.92043 3.67052,-5.79872c4.7241,-1.64922 9.25407,-5.46547 11.15313,-10.53861c2.64422,-3.80149 1.13249,-9.40469 -3.80212,-6.2559c0,0 -0.337,0.21503 -0.52695,-0.10394c-0.18996,-0.31899 0.14704,-0.53403 0.14704,-0.53403c5.62232,-3.58761 7.81461,2.70951 4.86486,7.20033c-1.89407,5.09813 -6.66434,9.28848 -11.47583,10.88236c-1.83531,1.75763 -3.06766,2.59457 -3.25911,5.14454l-0.01517,0.20214c0,0 -0.02889,0.38471 -0.41465,0.38668z" fill="#420000"/></g></g><path d="M76.04163,262.82608v-131h31.5v131z" fill="#949494" stroke="none" stroke-width="0" stroke-linecap="butt"/><path d="M-36.66667,395.61036v-431.22073h553.33333v431.22073z" fill-opacity="0.62745" fill="#000000" stroke="none" stroke-width="0" stroke-linecap="butt"/></g></g></svg>