<svg version="1.1" xmlns="http://www.w3.org/2000/svg" xmlns:xlink="http://www.w3.org/1999/xlink" width="186.14747" height="151.30043" viewBox="0,0,186.14747,151.30043"><defs><linearGradient x1="240.02458" y1="221.41275" x2="240.02458" y2="258.52058" gradientUnits="userSpaceOnUse" id="color-1"><stop offset="0" stop-color="#000000" stop-opacity="0"/><stop offset="1" stop-color="#000000"/></linearGradient><linearGradient x1="269.17503" y1="182.48023" x2="333.04917" y2="182.48023" gradientUnits="userSpaceOnUse" id="color-2"><stop offset="0" stop-color="#000000" stop-opacity="0"/><stop offset="1" stop-color="#000000"/></linearGradient></defs><g transform="translate(-146.95084,-107.22014)"><g data-paper-data="{&quot;isPaintingLayer&quot;:true}" fill-rule="nonzero" stroke-linecap="butt" stroke-linejoin="miter" stroke-miterlimit="10" stroke-dasharray="" stroke-dashoffset="0" style="mix-blend-mode: normal"><path d="M147.13261,258.19822v-150.62875h185.95319v150.62875z" fill="#000000" stroke="none" stroke-width="0"/><g><g data-paper-data="{&quot;index&quot;:null}" fill="#663f3f" stroke="#000000" stroke-width="0.5"><path d="M305.39812,153.09382l1.93551,-3.74607l8.02727,4.14753l-1.93551,3.74605z"/><path d="M308.16751,157.57575l1.93551,-3.74606l8.02726,4.14753l-1.93551,3.74605z"/><path d="M302.10699,147.32527l1.93551,-3.74605l8.02726,4.14751l-1.9355,3.74605z"/><path d="M299.27284,152.81059l1.93553,-3.74605l8.02727,4.14751l-1.93551,3.74605z"/><path d="M311.07079,151.95669l1.93554,-3.74606l8.02726,4.14755l-1.93551,3.74605z"/><path d="M303.88401,160.61718l8.01859,-15.51938l4.2812,2.21203l-8.01858,15.51938z"/></g><g fill="#663f3f" stroke="#000000" stroke-width="0.5"><path d="M223.39225,157.24134l-1.9355,-3.74605l8.02726,-4.14753l1.93551,3.74607z"/><path d="M220.62287,161.72328l-1.93551,-3.74605l8.02726,-4.14753l1.93554,3.74606z"/><path d="M226.68337,151.47278l-1.93552,-3.74605l8.02726,-4.14751l1.93551,3.74605z"/><path d="M229.51754,156.95809l-1.93554,-3.74605l8.02727,-4.14751l1.93552,3.74605z"/><path d="M217.71959,156.10422l-1.93551,-3.74605l8.02727,-4.14755l1.93554,3.74606z"/><path d="M228.65243,162.82919l-8.01856,-15.51937l4.2812,-2.21201l8.01856,15.51938z"/></g><path d="M331.33718,197.94513c0,32.20353 -27.54105,59.1931 -61.69628,59.1931c-34.15523,0 -58.75133,-28.31478 -58.75133,-60.51831c0,-11.08232 -1.0628,-21.43671 4.15011,-30.83121c9.93501,-17.90451 32.19996,-31.15957 54.60125,-31.15957c34.15523,0 61.69629,31.11249 61.69629,63.31598z" fill="#00c3c5" stroke="#929292" stroke-width="1"/><path d="M248.7543,187.50096c-0.54951,6.31928 -5.13259,11.08227 -10.23661,10.63842c-5.10403,-0.44382 -8.79618,-5.92638 -8.24669,-12.24566c0.54951,-6.31928 5.13257,-11.08227 10.23659,-10.63842c5.10403,0.44382 8.7962,5.92641 8.24671,12.24566z" fill="#000000" stroke="none" stroke-width="0"/><path d="M305.73867,193.68534c-0.54951,6.31928 -5.13259,11.08226 -10.23661,10.63841c-5.10403,-0.44382 -8.79618,-5.92637 -8.24669,-12.24566c0.54951,-6.31928 5.13257,-11.08227 10.23659,-10.63842c5.10403,0.44382 8.7962,5.92641 8.24671,12.24566z" fill="#000000" stroke="none" stroke-width="0"/><path d="M231.56131,186.69738c0,-4.3914 3.55992,-7.95132 7.95132,-7.95132c4.3914,0 7.95132,3.55992 7.95132,7.95132c0,4.3914 -3.55992,7.95132 -7.95132,7.95132c-4.3914,0 -7.95132,-3.55992 -7.95132,-7.95132z" fill="#fff1f1" stroke="none" stroke-width="0"/><path d="M288.98744,192.88173c0,-4.3914 3.55992,-7.95132 7.95132,-7.95132c4.3914,0 7.95132,3.55992 7.95132,7.95132c0,4.3914 -3.55992,7.9513 -7.95132,7.9513c-4.3914,0 -7.95132,-3.55991 -7.95132,-7.9513z" fill="#fff1f1" stroke="none" stroke-width="0"/><path d="M236.86219,187.13912c0,-1.21984 0.98887,-2.20871 2.20871,-2.20871c1.21984,0 2.2087,0.98887 2.2087,2.20871c0,1.21984 -0.98886,2.20871 -2.2087,2.20871c-1.21984,0 -2.20871,-0.98887 -2.20871,-2.20871z" fill="#000000" stroke="none" stroke-width="0.5"/><path d="M293.84657,193.7652c0,-1.21984 0.98887,-2.20871 2.20871,-2.20871c1.21984,0 2.2087,0.98887 2.2087,2.20871c0,1.21984 -0.98886,2.2087 -2.2087,2.2087c-1.21984,0 -2.20871,-0.98886 -2.20871,-2.2087z" fill="#000000" stroke="none" stroke-width="0.5"/><path d="M300.23947,216.63138c0.98777,1.9755 -0.98776,2.96327 -0.98776,2.96327l-1.42951,0.67493c-6.86547,5.12011 -14.99618,8.61937 -21.73803,13.75986c-10.34905,5.88265 -20.29555,-3.35544 -28.52749,-8.83479c-4.49305,-2.99065 -9.35798,-6.03836 -10.65164,-11.55975c0,0 -0.43317,-2.1658 1.73264,-2.59895c2.16582,-0.43316 2.59895,1.73264 2.59895,1.73264c0.55625,3.98498 5.66769,6.67901 8.78489,8.76027c5.80956,3.87882 16.03588,13.80673 23.59776,8.83478c6.81576,-5.04012 14.73407,-8.48912 21.55245,-13.62799l2.10441,-1.09203c0,0 1.97549,-0.98777 2.96327,0.98776z" fill="#000000" stroke="none" stroke-width="0.5"/><path d="M211.17143,147.90965c0,0 -11.83624,-14.29806 -6.25567,-19.42177c5.5806,-5.12369 19.82105,8.98022 19.82105,8.98022c0,0 5.31708,7.19757 -0.2635,12.32128c-5.5806,5.12369 -13.30188,-1.87973 -13.30188,-1.87973z" fill="#00c3c5" stroke="#000000" stroke-width="0"/><path d="M311.98837,148.90589c-5.58058,-5.12369 -0.26354,-12.32128 -0.26354,-12.32128c0,0 14.24048,-14.10394 19.82106,-8.98022c5.58058,5.12369 -6.25568,19.42177 -6.25568,19.42177c0,0 -7.72127,7.00342 -13.30187,1.87973z" data-paper-data="{&quot;index&quot;:null}" fill="#00c3c5" stroke="#000000" stroke-width="0"/><path d="M214.60618,146.36326c0,0 -6.96288,-8.41108 -3.68,-11.4252c3.28289,-3.01412 11.66006,5.28278 11.66006,5.28278c0,0 3.12788,4.23408 -0.155,7.2482c-3.28289,3.01412 -7.82506,-1.10578 -7.82506,-1.10578z" fill="#00a5a8" stroke="#000000" stroke-width="0"/><path d="M314.47216,146.58555c-3.28289,-3.01412 -0.15502,-7.24822 -0.15502,-7.24822c0,0 8.37719,-8.29689 11.66008,-5.28277c3.28289,3.01412 -3.68,11.4252 -3.68,11.4252c0,0 -4.54218,4.11988 -7.82506,1.10579z" data-paper-data="{&quot;index&quot;:null}" fill="#00a5a8" stroke="#000000" stroke-width="0"/><path d="M275.60955,203.31285c-0.46767,2.76636 -4.2555,4.43266 -8.46038,3.7218c-4.20485,-0.71086 -7.23445,-3.5297 -6.76678,-6.29607c0.46767,-2.76636 4.2555,-4.43266 8.46038,-3.72179c4.20485,0.71086 7.23445,3.52969 6.76678,6.29606z" fill="#00b1b4" stroke="none" stroke-width="0"/><path d="M265.1335,201.80484c0,-1.21984 0.98887,-2.20871 2.20871,-2.20871c1.21984,0 2.2087,0.98887 2.2087,2.20871c0,1.21984 -0.98886,2.2087 -2.2087,2.2087c-1.21984,0 -2.20871,-0.98886 -2.20871,-2.2087z" fill="#000000" stroke="none" stroke-width="0.5"/></g><text transform="translate(148.78976,127.91711) scale(0.56704,0.56704)" font-size="40" xml:space="preserve" fill="#ffffff" fill-rule="nonzero" stroke="none" stroke-width="1" stroke-linecap="butt" stroke-linejoin="miter" stroke-miterlimit="10" stroke-dasharray="" stroke-dashoffset="0" font-family="Serif" font-weight="normal" text-anchor="start" style="mix-blend-mode: normal"><tspan x="0" dy="0">Six</tspan><tspan x="0" dy="46.15px">Nights</tspan><tspan x="0" dy="46.15px">At</tspan><tspan x="0" dy="46.15px">Guphy's</tspan></text><text transform="translate(250.64465,244.72742) scale(0.2117,0.2117)" font-size="40" xml:space="preserve" fill="#ffffff" fill-rule="nonzero" stroke="#000000" stroke-width="1" stroke-linecap="butt" stroke-linejoin="miter" stroke-miterlimit="10" stroke-dasharray="" stroke-dashoffset="0" font-family="Sans Serif" font-weight="normal" text-anchor="start" style="mix-blend-mode: normal"><tspan x="0" dy="0">By Guphy's Studios</tspan></text><text transform="translate(148.69445,247.45553) scale(0.25767,0.25767)" font-size="40" xml:space="preserve" fill="#ffffff" fill-rule="nonzero" stroke="#000000" stroke-width="1" stroke-linecap="butt" stroke-linejoin="miter" stroke-miterlimit="10" stroke-dasharray="" stroke-dashoffset="0" font-family="Sans Serif" font-weight="normal" text-anchor="start" style="mix-blend-mode: normal"><tspan x="0" dy="0">DEMO</tspan></text><path d="M146.95084,258.52058v-37.10783h186.14747v37.10783z" fill="url(#color-1)" stroke="none" stroke-width="0"/><path d="M269.17503,256.25833v-147.55619h63.87413v147.55619z" fill="url(#color-2)" stroke="none" stroke-width="0"/></g></g></svg>