<svg version="1.1" xmlns="http://www.w3.org/2000/svg" xmlns:xlink="http://www.w3.org/1999/xlink" width="2496" height="2495.53441" viewBox="0,0,2496,2495.53441"><defs><linearGradient x1="448.11414" y1="14.57038" x2="448.11414" y2="31.57038" gradientUnits="userSpaceOnUse" id="color-1"><stop offset="0" stop-color="#000000"/><stop offset="1" stop-color="#ffffff"/></linearGradient><linearGradient x1="447.46906" y1="11.82682" x2="447.46906" y2="39.55457" gradientUnits="userSpaceOnUse" id="color-2"><stop offset="0" stop-color="#000000"/><stop offset="1" stop-color="#ff0000"/></linearGradient></defs><g transform="translate(1009,1070.44574)"><g data-paper-data="{&quot;isPaintingLayer&quot;:true}" fill-rule="nonzero" stroke="none" stroke-linecap="butt" stroke-linejoin="miter" stroke-miterlimit="10" stroke-dasharray="" stroke-dashoffset="0" style="mix-blend-mode: normal"><path d="M441.44748,31.57038v-17h13.33333v17z" fill="url(#color-1)" stroke-width="0"/><path d="M-1009,-1070.44574h2496v2495.53441h-2496z" fill="none" stroke-width="1"/><path d="M448.35726,39.51824l-8.22527,-0.1504c-2.66316,-0.05241 -5.33295,0.05221 -7.94389,-0.49077c-3.97185,-0.81125 -4.25323,-4.78898 -4.54766,-8.12555c-0.4057,-4.69079 -0.24864,-9.46672 0.51697,-14.11835c0.43221,-2.61005 2.13314,-4.16749 4.76356,-4.33697c8.87962,-0.61506 17.81828,-0.54217 26.67821,-0.25522c0.93572,0.02631 1.87787,0.17008 2.80054,0.33374c4.55449,0.7982 4.66555,5.30585 4.96079,9.10045c0.29443,3.83376 0.17011,7.68719 -0.39265,11.49484c-0.45149,3.15263 -1.31531,5.79642 -4.96079,6.05164c-4.56754,0.33374 -9.03025,0.60241 -13.61064,0.51687c0.0002,-0.02028 -0.02611,-0.02028 -0.03916,-0.02028zM443.52159,31.53667c3.44203,-1.97591 6.81838,-3.9189 10.24072,-5.88156c-3.44845,-1.97591 -6.81838,-3.9189 -10.24072,-5.88156z" fill="url(#color-2)" stroke-width="1"/></g></g></svg>