<svg version="1.1" xmlns="http://www.w3.org/2000/svg" xmlns:xlink="http://www.w3.org/1999/xlink" width="610.1051" height="550.40943" viewBox="0,0,610.1051,550.40943"><g transform="translate(83.28164,64.76541)"><g data-paper-data="{&quot;isPaintingLayer&quot;:true}" fill-rule="nonzero" stroke-linecap="butt" stroke-linejoin="miter" stroke-miterlimit="10" stroke-dasharray="" stroke-dashoffset="0" style="mix-blend-mode: normal"><path d="M-43.03303,439.00901v-466.96697h566.06607v466.96697z" fill="#736196" stroke="none" stroke-width="NaN"/><path d="M363.1598,469.76912v-534.53453h163.66366v534.53453z" fill="#7f7396" stroke="none" stroke-width="0"/><g data-paper-data="{&quot;index&quot;:null}" fill="#663f3f" stroke="#000000" stroke-width="0.5"><path d="M250.20613,385.84325l-3.15545,-3.70747l7.94456,-6.76172l3.15545,3.70747z"/><path d="M256.2069,384.84578l-3.15543,-3.70747l7.94456,-6.7617l3.15545,3.70747z"/><path d="M242.60229,386.83511l-3.15545,-3.70746l7.94456,-6.76172l3.15545,3.70747z"/><path d="M247.2228,392.26393l-3.15545,-3.70749l7.94456,-6.7617l3.15547,3.70747z"/><path d="M251.47376,379.28456l-3.15545,-3.70747l7.94459,-6.7617l3.15545,3.70747z"/><path d="M257.58191,390.75358l-13.07264,-15.35953l4.23712,-3.60622l13.07264,15.35951z"/></g><g fill="#663f3f" stroke="#000000" stroke-width="0.5"><path d="M223.84543,377.49316l3.15547,-3.70747l7.94456,6.76172l-3.15545,3.70747z"/><path d="M217.84465,376.49568l3.15545,-3.70747l7.94456,6.7617l-3.15543,3.70747z"/><path d="M231.44927,378.48503l3.15545,-3.70747l7.94456,6.76172l-3.15545,3.70746z"/><path d="M226.82877,383.91382l3.15547,-3.70747l7.94456,6.7617l-3.15545,3.70749z"/><path d="M222.57781,370.93447l3.15545,-3.70747l7.94459,6.7617l-3.15545,3.70747z"/><path d="M220.17711,385.55894l13.07264,-15.35951l4.23712,3.60622l-13.07264,15.35953z"/></g><g data-paper-data="{&quot;index&quot;:null}" fill="#663f3f" stroke="#000000" stroke-width="0.5"><path d="M270.21523,261.71444l-4.73793,-5.56678l11.92882,-10.15274l4.73793,5.56679z"/><path d="M279.22543,260.21672l-4.73791,-5.56679l11.92881,-10.15272l4.73793,5.56678z"/><path d="M258.79804,263.20373l-4.73793,-5.56678l11.92882,-10.15272l4.73791,5.56679z"/><path d="M265.73573,271.35509l-4.73793,-5.56679l11.92882,-10.15272l4.73793,5.56678z"/><path d="M272.11857,251.86652l-4.73793,-5.56679l11.92882,-10.15272l4.73793,5.56678z"/><path d="M281.29,269.08732l-19.62861,-23.06239l6.36205,-5.41479l19.62863,23.06239z"/></g><g fill="#663f3f" stroke="#000000" stroke-width="0.5"><path d="M208.62255,246.08863l5.40169,-4.9253l10.55423,11.57508l-5.40169,4.9253z"/><path d="M199.87291,243.46737l5.40169,-4.9253l10.55423,11.57508l-5.40167,4.92533z"/><path d="M219.76103,249.00489l5.40169,-4.92533l10.55423,11.57508l-5.40169,4.92533z"/><path d="M211.85138,256.21697l5.40171,-4.92533l10.55425,11.57508l-5.40169,4.92534z"/><path d="M207.97543,236.07938l5.40169,-4.92533l10.55425,11.57508l-5.40171,4.92533z"/><path d="M201.63221,257.40878l22.37849,-20.4049l5.62893,6.17336l-22.37849,20.4049z"/></g><g fill="#663f3f" stroke="#000000" stroke-width="0.5"><path d="M233.21679,227.68563l0.54702,-6.4275l13.77325,1.17222l-0.54702,6.4275z"/><path d="M225.9785,231.23148l0.54702,-6.4275l13.77325,1.17222l-0.54702,6.4275z"/><path d="M242.17917,222.89918l0.54702,-6.4275l13.77325,1.17222l-0.54702,6.4275z"/><path d="M241.37816,232.31089l0.54702,-6.42752l13.77325,1.17222l-0.54702,6.42752z"/><path d="M226.79903,221.59022l0.54702,-6.4275l13.77325,1.1722l-0.54702,6.42752z"/><path d="M235.47324,239.20727l2.26629,-26.62829l7.34574,0.62518l-2.26629,26.62829z"/></g><path d="M271.89731,280.00068c0,45.79234 -16.92585,108.16988 -31.92679,108.16988c-15.00094,0 -27.63811,-68.09577 -27.63811,-113.8881c0,-45.79234 14.54325,-49.558 29.54419,-49.558c15.00094,0 30.02072,9.48389 30.02072,55.27624z" fill="#00c3c5" stroke="none" stroke-width="0"/><path d="M262.84345,299.96878c0,32.90107 -12.16094,77.71833 -22.93889,77.71833c-10.77793,0 -19.85755,-48.92572 -19.85755,-81.82679c0,-32.90107 10.44909,-35.60662 21.22703,-35.60662c10.77793,0 21.5694,6.81404 21.5694,39.71508z" data-paper-data="{&quot;index&quot;:null}" fill="#00a5a8" stroke="none" stroke-width="0"/><path d="M238.0644,245.00826c0,-1.31588 1.06672,-2.38259 2.38259,-2.38259c1.31588,0 2.38259,1.06672 2.38259,2.38259c0,1.31588 -1.06672,2.38259 -2.38259,2.38259c-1.31588,0 -2.38259,-1.06672 -2.38259,-2.38259z" fill="#000000" stroke="none" stroke-width="0.5"/><path d="M210.68217,269.9282c0,25.79109 -0.60767,60.21273 -12.3895,60.67679c-11.76134,0.46325 -12.3895,-33.61498 -12.3895,-59.40606c0,-25.79109 3.79246,-27.00277 12.3895,-27.00277c8.59704,0 12.3895,-0.05905 12.3895,25.73204z" fill="#00c3c5" stroke="none" stroke-width="0"/><path d="M299.63245,275.01108c0,25.79109 -0.60767,60.21273 -12.3895,60.67679c-11.76134,0.46325 -12.3895,-33.61498 -12.3895,-59.40606c0,-25.79109 3.79246,-27.00277 12.3895,-27.00277c8.59704,0 12.3895,-0.05905 12.3895,25.73204z" fill="#00c3c5" stroke="none" stroke-width="0"/><path d="M233.43153,408.71173c0.18205,29.96239 -0.18268,69.9549 -11.96099,70.56561c-11.75784,0.60964 -12.62654,-38.97644 -12.80857,-68.93883c-0.18205,-29.96239 3.6018,-31.39307 12.19867,-31.4453c8.59687,-0.05222 12.38885,-0.14387 12.57091,29.81852z" fill="#00c3c5" stroke="none" stroke-width="0"/><path d="M275.3925,406.42212c2.87116,29.82508 6.09823,69.68883 -5.57772,71.35445c-11.65565,1.66273 -16.07463,-37.68549 -18.94579,-67.51056c-2.87116,-29.82508 0.76898,-31.58966 9.32645,-32.41347c8.55747,-0.82381 12.32592,-1.2555 15.19708,28.56958z" fill="#00c3c5" stroke="none" stroke-width="0"/><path d="M217.49474,479.49296l-0.06566,-0.04439l-0.00869,0.02609l-0.80646,-0.26881c-0.19471,-0.05989 -0.33627,-0.24118 -0.33627,-0.45554c0,-0.07234 0.01612,-0.14092 0.04497,-0.20231c-1.39973,-1.67152 -1.8281,-4.7818 -2.61866,-6.26693c-1.75529,-3.67204 -1.15318,-9.19388 -3.02725,-12.71447l-0.05592,-0.53965c0,0 0,-0.03345 0.0084,-0.08356c-0.12753,0.01746 -0.49259,0.02837 -0.59803,-0.39341c-0.12849,-0.51395 0.38545,-0.64242 0.38545,-0.64242c1.81756,-0.42769 3.65698,-2.63746 5.52174,-2.73742c0.89814,-0.04813 0.55663,3.07227 1.18187,2.42572c2.17089,-2.245 2.76654,1.17856 4.42679,-0.63027c0.46032,-0.32857 1.7899,-1.44942 2.45733,-1.06523c0.81256,0.46772 -0.06763,3.31631 0.35169,3.53959c0.57243,0.30482 0.86292,-1.15034 1.50638,-1.23131c0.7562,-0.09517 1.30666,2.14651 1.72022,1.50629c1.75108,-2.71082 3.79117,2.04084 3.76071,3.7312c1.68913,3.37825 -3.35559,13.06678 -5.73381,15.47361c-1.00069,0.98947 -1.63141,1.14969 -2.29069,1.01628c-0.02983,0.02444 -0.06268,0.04532 -0.09789,0.06202l-0.53536,0.26769l-0.09016,-0.18032c-1.2764,0.4837 -2.72445,0.10546 -4.08579,-0.33843l-0.175,-0.14783c-0.24495,0.01172 -0.48737,-0.01396 -0.7268,-0.10287c-0.00192,-0.0007 -0.00385,-0.00143 -0.00577,-0.00216c-0.03545,-0.00052 -0.07119,-0.0009 -0.10723,-0.00114z" fill="#000000" stroke="none" stroke-width="0.5"/><path d="M273.59578,477.58427c0.16118,0.07642 0.27264,0.2406 0.27264,0.43083c0,0.19023 -0.11147,0.35443 -0.27264,0.43083l-0.53536,0.26767c-1.65941,0.79321 -3.44243,0.02017 -5.11444,0.0503c0,0 -0.47652,0 -0.47652,-0.47652c0,-0.05304 0.00589,-0.10017 0.01639,-0.14204c-0.31833,0.09302 -0.64014,0.13488 -0.97326,0.06482c-2.59894,-0.54653 -3.67,-4.8617 -4.92715,-6.5591c-2.27866,-3.37234 -2.49914,-8.92253 -4.87289,-12.12753l-0.13506,-0.52545c0,0 -0.00494,-0.03309 -0.00404,-0.08387c-0.12355,0.03614 -0.48298,0.10085 -0.64959,-0.30072c-0.20303,-0.48933 0.28629,-0.69234 0.28629,-0.69234c1.73441,-0.69159 3.22708,-3.14892 5.05659,-3.52332c0.88116,-0.18034 1.0045,2.95629 1.52732,2.22443c1.81531,-2.54115 2.91031,0.75681 4.28505,-1.27751c0.4067,-0.39299 1.55607,-1.69801 2.27296,-1.41667c0.87275,0.34252 0.42319,3.28991 0.87089,3.44878c0.61119,0.21689 0.68344,-1.26524 1.30788,-1.4404c0.73384,-0.20588 1.60951,1.92986 1.92392,1.23556c1.33128,-2.93984 4.05112,1.45821 4.27079,3.13451c2.1698,3.09156 -1.38782,13.4192 -3.38426,16.15103c-0.36124,0.48245 -0.67784,0.80442 -0.97456,1.0122zM271.36927,478.17595c-0.04565,-0.00884 -0.09158,-0.01818 -0.13776,-0.02792c-0.01625,0.01086 -0.03344,0.02156 -0.05158,0.03204c0.06343,-0.00012 0.12656,-0.00143 0.18933,-0.00412z" fill="#000000" stroke="none" stroke-width="0.5"/><path d="M194.34953,331.63584l-0.06566,-0.04439l-0.00871,0.02611l-0.80646,-0.26884c-0.19471,-0.05989 -0.33627,-0.24118 -0.33627,-0.45554c0,-0.07234 0.01612,-0.14092 0.04497,-0.20231c-1.39973,-1.67152 -1.8281,-4.7818 -2.61866,-6.26693c-1.75529,-3.67204 -1.15318,-9.19388 -3.02725,-12.71447l-0.05592,-0.53965c0,0 0,-0.03345 0.0084,-0.08356c-0.12753,0.01746 -0.49259,0.02837 -0.59803,-0.39341c-0.12849,-0.51395 0.38545,-0.64242 0.38545,-0.64242c1.81756,-0.42769 3.65698,-2.63746 5.52174,-2.73742c0.89814,-0.04813 0.55663,3.07227 1.18187,2.42572c2.17089,-2.245 2.76654,1.17856 4.42679,-0.63027c0.46032,-0.32857 1.7899,-1.44942 2.45733,-1.06523c0.81256,0.46772 -0.06763,3.31632 0.35169,3.53961c0.57243,0.30482 0.86292,-1.15034 1.50638,-1.23131c0.7562,-0.09517 1.30666,2.14651 1.72022,1.50629c1.75108,-2.71082 3.79117,2.04084 3.76071,3.7312c1.68913,3.37825 -3.35559,13.06678 -5.73381,15.47361c-1.00069,0.98947 -1.63141,1.14969 -2.29069,1.01628c-0.02983,0.02444 -0.06268,0.04532 -0.09789,0.06202l-0.53536,0.26767l-0.09016,-0.18032c-1.2764,0.4837 -2.72443,0.10546 -4.08579,-0.33843l-0.175,-0.14783c-0.24495,0.01172 -0.48737,-0.01396 -0.7268,-0.10287c-0.00192,-0.0007 -0.00385,-0.00143 -0.00577,-0.00216c-0.03545,-0.00052 -0.07119,-0.0009 -0.10723,-0.00114z" fill="#000000" stroke="none" stroke-width="0.5"/><path d="M283.66286,337.08178l-0.06566,-0.04439l-0.00871,0.02609l-0.80646,-0.26881c-0.19471,-0.05989 -0.33627,-0.24118 -0.33627,-0.45554c0,-0.07234 0.01612,-0.14092 0.04497,-0.20231c-1.39973,-1.67152 -1.8281,-4.7818 -2.61866,-6.26693c-1.75529,-3.67204 -1.15318,-9.19388 -3.02725,-12.71447l-0.05592,-0.53965c0,0 0,-0.03345 0.0084,-0.08356c-0.12753,0.01746 -0.49259,0.02837 -0.59803,-0.39341c-0.12849,-0.51395 0.38545,-0.64242 0.38545,-0.64242c1.81756,-0.42769 3.65698,-2.63746 5.52174,-2.73742c0.89814,-0.04813 0.55663,3.07227 1.18187,2.42572c2.17089,-2.245 2.76654,1.17856 4.42679,-0.63027c0.46032,-0.32857 1.7899,-1.44942 2.45733,-1.06523c0.81256,0.46772 -0.06763,3.31631 0.35169,3.53959c0.57243,0.30482 0.86292,-1.15034 1.50638,-1.23131c0.7562,-0.09517 1.30666,2.14651 1.72022,1.50629c1.75108,-2.71082 3.79117,2.04084 3.76071,3.7312c1.68913,3.37825 -3.35559,13.06678 -5.73381,15.47361c-1.00069,0.98947 -1.63141,1.14969 -2.29069,1.01628c-0.02983,0.02444 -0.06268,0.04532 -0.09789,0.06202l-0.53536,0.26769l-0.09016,-0.18032c-1.2764,0.4837 -2.72443,0.10546 -4.08579,-0.33843l-0.175,-0.14783c-0.24495,0.01172 -0.48737,-0.01396 -0.7268,-0.10287c-0.00192,-0.0007 -0.00385,-0.00143 -0.00577,-0.00214c-0.03545,-0.00052 -0.07119,-0.0009 -0.10723,-0.00114z" fill="#000000" stroke="none" stroke-width="0.5"/><g fill="#663f3f" stroke="#000000" stroke-width="0.5"><path d="M214.43797,477.49163l-0.23128,-2.84968l12.07826,-0.25055l0.2313,2.84966z"/><path d="M214.97062,482.0114l-0.21081,-2.84968l11.00955,-0.25058l0.21083,2.84968z"/><path d="M214.16566,472.31799l-0.23128,-2.84968l12.07826,-0.25055l0.2313,2.84968z"/><path d="M214.43797,467.41665l-0.23128,-2.84968l12.07826,-0.25055l0.2313,2.84968z"/><path d="M213.89339,463.60449l-0.23128,-2.84968l12.07826,-0.25055l0.2313,2.84968z"/><path d="M218.99378,485.36422l-0.40708,-27.6915l2.73686,-0.31348l0.40708,27.69152z"/></g><g fill="#663f3f" stroke="#000000" stroke-width="0.5"><path d="M262.6345,475.31326l-0.2313,-2.84968l12.07828,-0.25058l0.2313,2.84968z"/><path d="M263.16713,479.83304l-0.21081,-2.84968l11.00955,-0.25058l0.21083,2.84968z"/><path d="M262.3622,470.13963l-0.2313,-2.84968l12.07826,-0.25055l0.23132,2.84968z"/><path d="M262.6345,465.23828l-0.2313,-2.84968l12.07828,-0.25055l0.2313,2.84968z"/><path d="M262.0899,461.42613l-0.23128,-2.84968l12.07826,-0.25055l0.2313,2.84968z"/><path d="M267.19031,483.18587l-0.40708,-27.6915l2.73686,-0.31348l0.40708,27.69152z"/></g><g fill="#663f3f" stroke="#000000" stroke-width="0.5"><path d="M190.74815,329.33498l-0.2313,-2.84966l12.07828,-0.25058l0.2313,2.84968z"/><path d="M191.28079,333.85475l-0.21081,-2.84968l11.00955,-0.25058l0.21083,2.84968z"/><path d="M190.47585,324.16134l-0.2313,-2.84968l12.07826,-0.25055l0.23132,2.84968z"/><path d="M190.74815,319.26l-0.2313,-2.84968l12.07828,-0.25055l0.2313,2.84966z"/><path d="M190.20355,315.44784l-0.2313,-2.84968l12.07826,-0.25055l0.23132,2.84966z"/><path d="M195.30397,337.20757l-0.40708,-27.6915l2.73686,-0.31348l0.40708,27.69152z"/></g><g fill="#663f3f" stroke="#000000" stroke-width="0.5"><path d="M281.52199,329.78057l-0.2313,-2.84968l12.07828,-0.25055l0.2313,2.84968z"/><path d="M281.79429,324.87922l-0.23128,-2.84968l12.07826,-0.25055l0.2313,2.84968z"/><path d="M281.24969,321.06707l-0.2313,-2.84968l12.07828,-0.25055l0.2313,2.84968z"/><path d="M286.3501,330.52394l-0.40708,-15.52635l2.73686,-0.17576l0.40708,15.52635z"/></g><path d="M286.36533,338.11487l-2.06058,-1.98193l8.88371,-8.187l2.06061,1.98192z" fill="#663f3f" stroke="#000000" stroke-width="0.5"/><path d="M289.7578,341.14855l-2.04526,-1.99551l8.08297,-7.4792l2.04528,1.99549z" fill="#663f3f" stroke="#000000" stroke-width="0.5"/><path d="M296.77438,341.96526l-10.58789,-11.36353l1.9342,-1.94427l10.58789,11.36353z" fill="#663f3f" stroke="#000000" stroke-width="0.5"/><path d="M303.54101,347.07343l-7.9914,-2.15871l2.69838,-9.98924l7.9914,2.15871z" fill="#663f3f" stroke="#000000" stroke-width="0.5"/><path d="M298.41221,347.96433c0,0 -0.79773,-1.84154 -0.20283,-3.53602c0.98005,-2.79147 3.89183,-11.08504 3.89183,-11.08504l2.90927,1.02141c0,0 -2.8858,8.21958 -3.86674,11.01362c-0.6026,1.71637 -2.44399,2.84747 -2.44399,2.84747z" fill="#565656" stroke="none" stroke-width="0"/><path d="M306.23053,333.84477c-0.45708,1.30189 -1.90369,1.97946 -3.2311,1.51342c-1.32741,-0.46603 -2.03296,-1.89923 -1.57589,-3.20112c0.45708,-1.30189 1.90369,-1.97946 3.2311,-1.51342c1.32741,0.46603 2.03296,1.89923 1.57589,3.20112z" fill="#2b2b2b" stroke="none" stroke-width="0"/><path d="M304.79128,343.50125l-6.25142,-1.76062l0.57693,-2.12615l6.25142,1.76064z" fill="#663f3f" stroke="#000000" stroke-width="0.5"/><path d="M305.84336,340.71057l-6.26259,-1.72054l0.56332,-2.12981l6.26257,1.72054z" fill="#663f3f" stroke="#000000" stroke-width="0.5"/><path d="M303.97911,346.71195l-6.29905,-1.58179l0.51613,-2.14173l6.29907,1.58179z" fill="#663f3f" stroke="#000000" stroke-width="0.5"/><path d="M305.00799,338.59105l-6.65437,-0.34062l0.12933,-2.71988l6.65437,0.34062z" fill="#663f3f" stroke="#000000" stroke-width="0.5"/><path d="M190.06585,342.83697l1.70807,-8.09971l10.1246,2.13507l-1.70805,8.09969z" data-paper-data="{&quot;index&quot;:null}" fill="#663f3f" stroke="#000000" stroke-width="0.5"/><path d="M194.28408,344.01058l1.27208,-6.36883l2.15614,0.45212l-1.27208,6.36883z" data-paper-data="{&quot;index&quot;:null}" fill="#663f3f" stroke="#000000" stroke-width="0.5"/><path d="M191.32301,343.66596l1.31287,-6.36054l2.1532,0.46592l-1.31287,6.36056z" data-paper-data="{&quot;index&quot;:null}" fill="#663f3f" stroke="#000000" stroke-width="0.5"/><path d="M197.52699,344.68468l1.45302,-6.33l2.14239,0.51336l-1.45302,6.32998z" data-paper-data="{&quot;index&quot;:null}" fill="#663f3f" stroke="#000000" stroke-width="0.5"/><path d="M189.48603,341.30404l2.72015,-6.08256l2.48165,1.12062l-2.72015,6.08256z" data-paper-data="{&quot;index&quot;:null}" fill="#663f3f" stroke="#000000" stroke-width="0.5"/><g><g data-paper-data="{&quot;index&quot;:null}" fill="#663f3f" stroke="#000000" stroke-width="0.5"><path d="M275.10506,140.35854l1.45102,-2.80835l6.01791,3.10933l-1.45102,2.80835z"/><path d="M277.18122,143.71856l1.45102,-2.80835l6.01791,3.10933l-1.45102,2.80835z"/><path d="M272.63777,136.03395l1.45102,-2.80835l6.01791,3.10933l-1.45102,2.80835z"/><path d="M270.51304,140.1462l1.45104,-2.80835l6.01791,3.10933l-1.45102,2.80835z"/><path d="M279.35777,139.50604l1.45104,-2.80835l6.01791,3.10934l-1.45102,2.80835z"/><path d="M273.96996,145.99867l6.0114,-11.63462l3.20955,1.65833l-6.01138,11.63462z"/></g><g fill="#663f3f" stroke="#000000" stroke-width="0.5"><path d="M213.62663,143.46786l-1.45102,-2.80835l6.01791,-3.10933l1.45102,2.80835z"/><path d="M211.55047,146.82789l-1.45102,-2.80835l6.01791,-3.10933l1.45104,2.80835z"/><path d="M216.09393,139.14328l-1.45104,-2.80835l6.01791,-3.10933l1.45102,2.80835z"/><path d="M218.21865,143.25552l-1.45104,-2.80835l6.01791,-3.10933l1.45104,2.80835z"/><path d="M209.37392,142.61538l-1.45102,-2.80835l6.01791,-3.10934l1.45104,2.80835z"/><path d="M217.57009,147.65698l-6.01138,-11.63462l3.20955,-1.65831l6.01138,11.63462z"/></g><path d="M294.55115,173.98281c0,24.14245 -20.64707,44.37608 -46.25267,44.37608c-25.60561,0 -44.04491,-21.22712 -44.04491,-45.36957c0,-8.30823 -0.79676,-16.07075 3.11127,-23.11364c7.44811,-13.42271 24.13978,-23.35982 40.93365,-23.35982c25.60561,0 46.25267,23.32451 46.25267,47.46694z" fill="#00c3c5" stroke="#929292" stroke-width="1"/><path d="M232.64013,166.153c-0.41196,4.73746 -3.84781,8.30819 -7.67421,7.97544c-3.82641,-0.33272 -6.59436,-4.44291 -6.18242,-9.18037c0.41196,-4.73746 3.84781,-8.30819 7.67421,-7.97544c3.82641,0.33272 6.59436,4.44293 6.18242,9.18037z" fill="#000000" stroke="none" stroke-width="0"/><path d="M275.36036,170.78932c-0.41196,4.73746 -3.84781,8.30819 -7.67421,7.97544c-3.82641,-0.33272 -6.59436,-4.44291 -6.18242,-9.18037c0.41196,-4.73746 3.84781,-8.30819 7.67421,-7.97544c3.82641,0.33272 6.59436,4.44293 6.18242,9.18037z" fill="#000000" stroke="none" stroke-width="0"/><path d="M219.75083,165.55056c0,-3.29216 2.66882,-5.96097 5.96097,-5.96097c3.29216,0 5.96097,2.66882 5.96097,5.96097c0,3.29216 -2.66882,5.96097 -5.96097,5.96097c-3.29216,0 -5.96097,-2.66882 -5.96097,-5.96097z" fill="#fff1f1" stroke="none" stroke-width="0"/><path d="M262.80226,170.18687c0,-3.29216 2.66882,-5.96097 5.96097,-5.96097c3.29216,0 5.96097,2.66882 5.96097,5.96097c0,3.29216 -2.66882,5.96097 -5.96097,5.96097c-3.29216,0 -5.96097,-2.66882 -5.96097,-5.96097z" fill="#fff1f1" stroke="none" stroke-width="0"/><path d="M223.72482,165.88173c0,-0.9145 0.74133,-1.65583 1.65583,-1.65583c0.9145,0 1.65583,0.74133 1.65583,1.65583c0,0.9145 -0.74133,1.65583 -1.65583,1.65583c-0.9145,0 -1.65583,-0.74133 -1.65583,-1.65583z" fill="#000000" stroke="none" stroke-width="0.5"/><path d="M266.44505,170.84919c0,-0.9145 0.74133,-1.65583 1.65583,-1.65583c0.9145,0 1.65583,0.74133 1.65583,1.65583c0,0.9145 -0.74133,1.65583 -1.65583,1.65583c-0.9145,0 -1.65583,-0.74133 -1.65583,-1.65583z" fill="#000000" stroke="none" stroke-width="0.5"/><path d="M271.23771,187.99159c0.74051,1.481 -0.74051,2.22151 -0.74051,2.22151l-1.07168,0.50598c-5.14692,3.83846 -11.24239,6.4618 -16.29664,10.31554c-7.75852,4.41013 -15.21524,-2.51553 -21.38659,-6.62329c-3.36836,-2.24204 -7.01553,-4.52686 -7.98536,-8.66616c0,0 -0.32474,-1.62367 1.29893,-1.94839c1.62367,-0.32474 1.94839,1.29893 1.94839,1.29893c0.41701,2.98747 4.24897,5.00715 6.58588,6.56743c4.35533,2.9079 12.02183,10.35068 17.69085,6.62329c5.10966,-3.77849 11.04589,-6.36416 16.15751,-10.21669l1.57764,-0.81868c0,0 1.481,-0.74051 2.22151,0.74051z" fill="#000000" stroke="none" stroke-width="0.5"/><path d="M204.46488,136.47204c0,0 -8.87344,-10.71902 -4.68977,-14.56018c4.18368,-3.84115 14.85951,6.73233 14.85951,6.73233c0,0 3.98612,5.3959 -0.19754,9.23706c-4.18368,3.84115 -9.9722,-1.4092 -9.9722,-1.4092z" fill="#00c3c5" stroke="#000000" stroke-width="0"/><path d="M280.04566,137.21892c-4.18367,-3.84115 -0.19756,-9.23706 -0.19756,-9.23706c0,0 10.67584,-10.57348 14.85951,-6.73233c4.18367,3.84115 -4.68977,14.56018 -4.68977,14.56018c0,0 -5.78851,5.25035 -9.9722,1.4092z" data-paper-data="{&quot;index&quot;:null}" fill="#00c3c5" stroke="#000000" stroke-width="0"/><path d="M207.03985,135.31274c0,0 -5.21996,-6.30565 -2.75884,-8.56528c2.46113,-2.25964 8.74136,3.96041 8.74136,3.96041c0,0 2.34491,3.17423 -0.11622,5.43387c-2.46113,2.25964 -5.86631,-0.82899 -5.86631,-0.82899z" fill="#00a5a8" stroke="#000000" stroke-width="0"/><path d="M281.90772,135.47939c-2.46113,-2.25964 -0.11622,-5.43387 -0.11622,-5.43387c0,0 6.28024,-6.22004 8.74136,-3.96041c2.46113,2.25964 -2.75884,8.56528 -2.75884,8.56528c0,0 -3.40519,3.08861 -5.86631,0.82899z" data-paper-data="{&quot;index&quot;:null}" fill="#00a5a8" stroke="#000000" stroke-width="0"/><path d="M252.77307,178.00691c-0.3506,2.07388 -3.19028,3.32309 -6.3426,2.79017c-3.15231,-0.53292 -5.42355,-2.64615 -5.07295,-4.72006c0.3506,-2.07388 3.19028,-3.32309 6.3426,-2.79017c3.15231,0.53292 5.42355,2.64615 5.07295,4.72006z" fill="#00b1b4" stroke="none" stroke-width="0"/><path d="M244.91934,176.87637c0,-0.9145 0.74133,-1.65583 1.65583,-1.65583c0.9145,0 1.65583,0.74133 1.65583,1.65583c0,0.9145 -0.74133,1.65583 -1.65583,1.65583c-0.9145,0 -1.65583,-0.74133 -1.65583,-1.65583z" fill="#000000" stroke="none" stroke-width="0.5"/></g><path d="M-83.28164,469.27363v-509.00901h163.66366v509.00901z" fill="#7f7396" stroke="none" stroke-width="0"/><g fill="#8c0000" stroke="none" stroke-width="0"><path d="M470.5984,390.73309c0,0 9.41778,-97.8111 9.87281,-139.28c0.27511,-25.072 -39.07828,12.85891 -37.31447,-15.36363c1.20658,-19.30634 2.87807,-38.2912 5.17398,-55.50621c2.1178,-15.87954 -41.18721,12.05753 -39.23858,-3.40214c2.25139,-17.86161 4.32942,-33.96418 6.09448,-49.79241c2.15851,-19.35649 -37.2113,5.72261 -35.95623,-11.61155c1.19965,-16.56877 1.89093,-31.7987 1.89093,-44.89645c0,-19.67707 -39.50044,20.91276 -39.50044,8.08291c0,-45.90288 0,-109.69668 0,-109.69668h173.92127v421.46621z" data-paper-data="{&quot;index&quot;:null}"/><path d="M-35.54214,390.7331v-421.46621h173.92127c0,0 0,63.79382 0,109.69668c0,12.82987 -39.50044,-27.76 -39.50044,-8.08293c0,13.09776 0.69127,28.32771 1.89093,44.89648c1.25507,17.33418 -38.11474,-7.74491 -35.95623,11.61155c1.76507,15.82823 3.84311,31.9308 6.0945,49.79241c1.94863,15.45968 -41.35637,-12.4774 -39.23858,3.40213c2.2959,17.215 3.96739,36.19987 5.17398,55.50621c1.76382,28.22255 -37.58958,-9.70838 -37.31447,15.36363c0.45503,41.46889 9.87281,139.28002 9.87281,139.28002z" data-paper-data="{&quot;index&quot;:null}"/><path d="M130.68471,80.66762v-111.40076h214.37533v111.40076z"/></g><path d="M-36.66667,395.61036v-431.22073h553.33333v431.22073z" fill-opacity="0.62745" fill="#000000" stroke="none" stroke-width="0"/></g></g></svg>