<svg version="1.1" xmlns="http://www.w3.org/2000/svg" xmlns:xlink="http://www.w3.org/1999/xlink" width="563.69444" height="639.92586" viewBox="0,0,563.69444,639.92586"><defs><linearGradient x1="-12.46072" y1="180.00002" x2="492.46075" y2="180.00002" gradientUnits="userSpaceOnUse" id="color-1"><stop offset="0" stop-color="#000000"/><stop offset="1" stop-color="#000000"/></linearGradient><linearGradient x1="349.19444" y1="264.15623" x2="349.19444" y2="422.15624" gradientUnits="userSpaceOnUse" id="color-2"><stop offset="0" stop-color="#000000" stop-opacity="0"/><stop offset="1" stop-color="#000000"/></linearGradient><linearGradient x1="333.69444" y1="194.65624" x2="501.69444" y2="194.65624" gradientUnits="userSpaceOnUse" id="color-3"><stop offset="0" stop-color="#000000" stop-opacity="0"/><stop offset="1" stop-color="#000000"/></linearGradient><radialGradient cx="240" cy="180" r="264" gradientUnits="userSpaceOnUse" id="color-4"><stop offset="0" stop-color="#000000" stop-opacity="0"/><stop offset="1" stop-color="#000000"/></radialGradient></defs><g transform="translate(25,16.34376)"><g data-paper-data="{&quot;isPaintingLayer&quot;:true}" fill-rule="nonzero" stroke-linecap="butt" stroke-linejoin="miter" stroke-miterlimit="10" stroke-dasharray="" stroke-dashoffset="0" style="mix-blend-mode: normal"><path d="M-12.46072,370.59291v-381.18577h504.92147v381.18577z" data-paper-data="{&quot;index&quot;:null}" fill="url(#color-1)" stroke="#000000" stroke-width="2"/><g><g><g><path d="M367.71402,433.86089l-3.59691,-7.80953l18.31369,-7.04307l3.59686,7.80953z" fill="#663f3f" stroke="#000000" stroke-width="0.5"/><path d="M415.73819,586.28378l0.27272,-5.91967l13.88191,0.534l-0.27272,5.91967z" fill="#663f3f" stroke="#000000" stroke-width="0.5"/><path d="M424.13311,590.20724l0.27272,-5.91972l13.88191,0.53398l-0.27272,5.91969z" fill="#663f3f" stroke="#000000" stroke-width="0.5"/><path d="M408.62194,589.82232l0.27272,-5.91969l13.88189,0.53398l-0.27269,5.91969z" fill="#663f3f" stroke="#000000" stroke-width="0.5"/><path d="M424.53246,581.53902l0.27272,-5.91967l13.88191,0.53398l-0.27272,5.91969z" fill="#663f3f" stroke="#000000" stroke-width="0.5"/><path d="M409.03093,580.31212l0.27272,-5.91969l13.88194,0.53398l-0.27272,5.91972z" fill="#663f3f" stroke="#000000" stroke-width="0.5"/><path d="M379.18315,435.35977l-3.59683,-7.80955l18.31364,-7.04305l3.59691,7.80953z" fill="#663f3f" stroke="#000000" stroke-width="0.5"/><path d="M358.60444,442.94563l-3.59691,-7.80953l18.31369,-7.04307l3.59691,7.80958z" fill="#663f3f" stroke="#000000" stroke-width="0.5"/><path d="M353.33756,431.51018l-3.59686,-7.8095l18.31369,-7.04307l3.59683,7.80948z" fill="#663f3f" stroke="#000000" stroke-width="0.5"/><path d="M373.78787,423.64543l-3.59694,-7.80955l18.31375,-7.04305l3.59686,7.80955z" fill="#663f3f" stroke="#000000" stroke-width="0.5"/><path d="M418.5,596.76784l1.12978,-24.52447l7.40372,0.28477l-1.12978,24.52444z" fill="#663f3f" stroke="#000000" stroke-width="0.5"/><path d="M378.28173,445.88417l-14.90134,-32.35382l9.76732,-3.75631l14.90136,32.35385z" fill="#663f3f" stroke="#000000" stroke-width="0.5"/><path d="M367.1669,452.21401c-1.41844,-23.28561 7.33198,-24.19467 15.87785,-26.20599c7.16584,-1.68654 12.89804,-1.82301 22.53413,14.24746c10.8326,18.06593 25.4979,53.81125 31.37328,76.62256c11.10176,43.10296 1.51713,61.63712 -13.70433,65.21958c-15.22143,3.58246 -29.25152,-11.06814 -40.3533,-54.17109c-4.86884,-18.90342 -14.61962,-57.52301 -15.72763,-75.71252z" data-paper-data="{&quot;index&quot;:null}" fill="#d87700" stroke="#929292" stroke-width="1"/><path d="M447.26852,600.67324c0,9.47362 -4.43234,7.0632 -17.39167,7.0632c-12.95933,0 -20.26642,2.37745 -20.15225,-8.07223c0.13698,-12.53443 5.53657,-9.08126 18.4959,-9.08126c12.95933,0 19.04802,0.61667 19.04802,10.09029z" fill="#d87700" stroke="#929292" stroke-width="1"/></g><path d="M381.46398,460.55747c-2.52257,0 -2.52257,-2.52257 -2.52257,-2.52257l0.26631,0.49748c-1.88794,-3.82228 -4.46692,-7.5993 -4.67675,-11.76157c-2.19214,-1.54619 -3.93113,-3.63568 -5.41354,-6.52708c0,0 -1.12812,-2.25626 1.12812,-3.38438c2.25626,-1.12812 3.38438,1.12812 3.38438,1.12812c1.98254,4.10238 4.62995,5.75762 8.93677,6.84432c0.17872,-0.23039 0.35833,-0.46019 0.5388,-0.68942c-2.06937,0.4055 -2.77337,-1.70649 -2.77337,-1.70649l-0.25559,-1.1761c-1.68866,-2.27607 -2.95888,-4.85593 -4.08442,-7.45692c0,0 -0.99369,-2.31862 1.32493,-3.31229c2.31862,-0.99369 3.31229,1.32493 3.31229,1.32493c0.94985,2.2409 2.01077,4.47933 3.48329,6.41722l1.0057,2.60776c0,0 0.09048,0.27148 0.11909,0.66202c3.2634,-3.94833 6.72384,-7.76125 10.09415,-11.61574c0,0 1.66111,-1.89844 3.55955,-0.2373c1.89844,1.66111 0.2373,3.55955 0.2373,3.55955c-4.34813,4.96566 -8.89272,9.86623 -12.8804,15.09966l-1.3797,2.22781c0,0 -1.33058,2.1431 -3.47368,0.81255c-0.25887,-0.16071 -0.46705,-0.33331 -0.63301,-0.51251c0.94385,1.95136 2.21893,3.98198 2.95857,5.43962l0.26631,1.75876c0,0 0,2.52257 -2.52257,2.52257zM380.17455,449.40157c-0.01652,-0.00494 -0.03302,-0.00991 -0.04949,-0.01486c0.01831,0.04742 0.03698,0.095 0.05598,0.14273c-0.00336,-0.04296 -0.00547,-0.08562 -0.00646,-0.12787z" fill="#000000" stroke="none" stroke-width="0.5"/><path d="M384.78992,437.17774c-1.84599,-1.71921 -0.12678,-3.5652 -0.12678,-3.5652l1.06188,-1.13705c1.09444,-1.27685 2.18889,-2.5537 3.28333,-3.83055c0,0 1.64166,-1.91529 3.55695,-0.27362c1.91529,1.64166 0.27362,3.55695 0.27362,3.55695c-1.09444,1.27685 -2.18889,2.5537 -3.28333,3.83055l-1.20044,1.29214c0,0 -1.71921,1.84599 -3.5652,0.12678z" fill="#000000" stroke="none" stroke-width="0.5"/><path d="M391.06161,471.07142c2.09891,1.39927 0.69964,3.49818 0.69964,3.49818l-2.8807,4.21025c-12.12136,6.75459 -17.98324,-11.0672 -21.74094,-20.43873c0,0 -0.93686,-2.34216 1.4053,-3.27902c2.34216,-0.93686 3.27902,1.4053 3.27902,1.4053c2.07406,5.19852 4.81239,9.41777 7.45811,14.26726c1.57184,2.88113 2.13382,7.2498 6.11696,4.39387l2.16444,-3.35747c0,0 1.39927,-2.09891 3.49818,-0.69964z" fill="#000000" stroke="none" stroke-width="0.5"/><path d="M401.03276,483.18529c-2.44725,-0.61182 -1.83545,-3.05907 -1.83545,-3.05907l0.63064,-2.52257c0.12459,-0.48751 0.26063,-0.96556 0.40787,-1.43522c-1.68483,3.02693 -3.49586,6.09892 -5.16401,9.48159l-1.76615,1.43408c2.1508,1.71053 4.36085,3.34937 6.94446,4.64118l0.66926,1.38555c0.07177,-0.04273 0.1476,-0.0842 0.22771,-0.12426c1.06266,-0.53133 1.87508,-0.31192 2.43726,0.06894c0.32092,-1.47674 1.34302,-2.53983 2.01569,-4.40295c2.80719,-7.77525 5.50418,-14.78716 5.50418,-23.04995c0,0 0,-2.52257 2.52257,-2.52257c2.52257,0 2.52257,2.52257 2.52257,2.52257c0,2.03809 -0.13006,4.13843 -0.38739,6.26418c0.14931,-0.11458 0.3218,-0.22269 0.52056,-0.32208c2.25626,-1.12812 3.38438,1.12812 3.38438,1.12812c1.41274,2.97151 1.28861,5.01449 2.08294,8.08404l0.07532,1.24247c0,0 0,2.52257 -2.52257,2.52257c-2.52257,0 -2.52257,-2.52257 -2.52257,-2.52257l0.07532,-0.01882c-0.62479,-2.57007 -0.43618,-4.5536 -1.58806,-6.83498c-1.67065,9.25007 -5.68802,18.62102 -11.82756,25.14061l-3.01528,-3.45108c-0.33422,0.18311 -0.76,0.29973 -1.30243,0.29973c-1.44339,0 -2.06089,-0.82589 -2.32505,-1.53254c-5.18981,-2.91647 -8.97115,-7.12125 -14.10824,-10.17853c0,0 -2.16308,-1.29786 -0.86524,-3.46094c1.29786,-2.16308 3.46094,-0.86524 3.46094,-0.86524c1.41902,0.85745 2.73242,1.80086 4.0005,2.7774c0.14056,-0.12472 0.23944,-0.19063 0.23944,-0.19063l1.03494,-0.2905c1.15617,-2.28626 2.38888,-4.41992 3.59646,-6.49663c-0.08004,-0.02038 -0.16202,-0.04442 -0.24598,-0.0724c-2.39311,-0.79771 -1.59543,-3.19083 -1.59543,-3.19083l0.55017,-1.58894c1.95393,-9.46005 6.88808,-16.80189 6.88808,-26.62292c0,0 0,-2.52257 2.52257,-2.52257c2.52257,0 2.52257,2.52257 2.52257,2.52257c0,2.68518 -0.34743,5.18078 -0.89448,7.57738c0.08473,-0.00636 0.17262,-0.00966 0.26384,-0.00966c2.52257,0 2.52257,2.52257 2.52257,2.52257c0,4.81665 -1.00053,8.89338 -2.52661,12.699c0.36323,-0.53587 0.74315,-1.06831 1.13919,-1.59969c0,0 1.51354,-2.01806 3.5316,-0.50451c2.01806,1.51354 0.50451,3.5316 0.50451,3.5316c-2.13851,2.83075 -3.77483,5.72894 -4.61595,9.18857l-0.63064,2.52257c0,0 -0.61182,2.44725 -3.05907,1.83545zM399.60471,466.30943c0.302,-0.78883 0.57757,-1.59179 0.82173,-2.41355c-0.2798,0.79814 -0.55575,1.6014 -0.82173,2.41355z" fill="#000000" stroke="none" stroke-width="0.5"/><path d="M404.52251,519.1922c-5.98795,-2.69032 -10.74426,-3.60392 -14.9863,-9.19233c0,0 -1.51354,-2.01806 0.50451,-3.5316c0.34446,-0.25834 0.67423,-0.4138 0.98426,-0.49394c-7.08921,-3.11835 -16.02106,-9.02965 -16.49807,-14.51536c0,0 0,-2.52257 2.52257,-2.52257c2.52257,0 2.52257,2.52257 2.52257,2.52257c-0.65236,2.54969 14.25367,10.66548 17.63918,11.4269l-0.47866,-0.43963c0,0 2.25626,-1.12812 3.38438,1.12812c1.12812,2.25626 -1.12812,3.38438 -1.12812,3.38438l-3.00123,0.82165c-0.72269,-0.19308 -1.52497,-0.45015 -2.3827,-0.76366c2.93809,3.94795 6.13199,4.4819 9.8934,6.32119c0.11145,-0.9246 0.77703,-1.59015 0.77703,-1.59015l1.56972,-1.49684c2.38981,-6.29788 5.96717,-12.52929 5.8898,-19.42257c0,0 0,-2.52257 2.52257,-2.52257c2.52257,0 2.52257,2.52257 2.52257,2.52257c-0.04152,4.89296 -1.45646,9.46711 -3.23497,13.94041c2.51876,-4.88753 5.43453,-9.6112 9.64962,-13.83222c0,0 1.78374,-1.78374 3.56745,0c1.78374,1.78374 0,3.56745 0,3.56745c-9.97846,9.9635 -12.37861,23.00858 -20.06946,34.08751l-1.74189,3.42555c-0.09351,0.01029 -0.18856,0.02104 -0.28505,0.03211l-0.10978,0.21954c-0.40447,0.85326 -1.27367,1.44331 -2.28071,1.44331c-0.89082,0 -1.67378,-0.46176 -2.12262,-1.15895c-1.91642,0.15769 -3.85684,0.1898 -5.39404,-0.16982c-8.55346,-2.00098 -13.50837,-12.41918 -18.4176,-18.53724c0,0 -1.57585,-1.9698 0.39395,-3.54563c1.9698,-1.57585 3.54563,0.39395 3.54563,0.39395c3.86516,4.84488 8.69546,15.36708 15.63712,16.77876c1.64623,0.33477 3.17549,-0.11977 4.75898,0.03009c0.24285,-0.47871 0.71689,-1.12489 1.55915,-1.32213c0.07151,-0.10113 0.1426,-0.20241 0.21326,-0.30384l0.00651,-0.0391c0,0 0.21432,-0.53579 0.69421,-0.99235c1.31767,-1.98832 2.4861,-4.03001 3.57345,-6.0995zM409.05961,514.05834l-0.04654,0.04808c0.0055,0.00487 0.01097,0.00979 0.01645,0.01476c0.01004,-0.02094 0.02008,-0.0419 0.03009,-0.06284z" fill="#000000" stroke="none" stroke-width="0.5"/><path d="M385.38101,462.81373c-2.25626,-1.12812 -1.12812,-3.38438 -1.12812,-3.38438l0.41332,-0.62787c1.11573,-5.40184 4.35343,-8.75322 6.46142,-13.74247c0,0 0.99369,-2.31862 3.31229,-1.32493c2.31862,0.99369 1.32493,3.31229 1.32493,3.31229c-1.98703,4.57988 -5.21211,7.851 -6.15144,12.74454l-0.84796,1.8947c0,0 -1.12812,2.25626 -3.38438,1.12812z" fill="#000000" stroke="none" stroke-width="0.5"/><path d="M414.31914,533.00542c-0.32841,-1.45704 0.40031,-2.24582 1.04947,-2.64688c2.8245,-9.51302 9.377,-17.69884 12.92356,-27.17244c0,0 0.88573,-2.36196 3.24769,-1.47623c2.36196,0.88573 1.47623,3.24769 1.47623,3.24769c-3.6204,9.63875 -10.7394,18.17281 -13.12055,27.95438l-2.56089,1.99967c0,0 -2.46084,0.55466 -3.01551,-1.90616z" fill="#000000" stroke="none" stroke-width="0.5"/><path d="M409.21119,549.55201c-0.07389,2.52149 -2.59537,2.4476 -2.59537,2.4476l-1.84239,-0.35076c-7.61812,-4.36269 -15.38511,-9.6895 -19.82386,-17.31589c0,0 -1.25155,-2.1902 0.93865,-3.44175c2.1902,-1.25155 3.44175,0.93865 3.44175,0.93865c3.80343,6.80648 11.21571,11.60128 17.94653,15.43857l-0.51291,-0.31182c0,0 2.52149,0.07389 2.4476,2.59537z" fill="#000000" stroke="none" stroke-width="0.5"/><path d="M425.40201,543.30968c-1.39927,-2.09891 0.69964,-3.49818 0.69964,-3.49818l1.50746,-0.94612c4.08589,-4.06515 6.1385,-7.11365 7.53482,-12.70223c0,0 0.61182,-2.44725 3.05907,-1.83545c2.44725,0.61182 1.83545,3.05907 1.83545,3.05907c-1.62872,6.51121 -4.18543,10.34875 -8.8619,15.04606l-2.27639,1.57646c0,0 -2.09891,1.39927 -3.49818,-0.69964z" fill="#000000" stroke="none" stroke-width="0.5"/><path d="M419.9332,572.81191c0,2.52257 -2.52257,2.52257 -2.52257,2.52257h-1.89193c-11.84231,-0.07906 -22.43242,-7.96106 -22.70315,-20.18057c0,0 0,-2.52257 2.52257,-2.52257c2.52257,0 2.52257,2.52257 2.52257,2.52257c-0.28404,9.31959 8.87166,15.21043 17.658,15.13543h1.89193c0,0 2.52257,0 2.52257,2.52257z" fill="#000000" stroke="none" stroke-width="0.5"/><path d="M425.60899,555.78455c2.52257,0 2.52257,2.52257 2.52257,2.52257l-0.18041,1.5675c-0.25839,0.58037 -0.5389,1.11475 -0.83954,1.60547c7.88031,-2.02108 11.01403,-8.48548 12.42051,-15.64988c0,0 0.49473,-2.47358 2.96831,-1.97886c2.47358,0.49473 1.97886,2.96831 1.97886,2.96831c-1.78469,8.73541 -5.93084,16.22889 -14.82737,19.16148c-0.332,0.59331 -0.96065,1.15501 -2.151,1.15501c-2.52257,0 -2.52257,-2.52257 -2.52257,-2.52257l0.95257,-1.53443c-5.45045,6.10672 -15.25994,2.11497 -21.44771,-2.8022c0,0 -1.9698,-1.57585 -0.39395,-3.54563c1.57585,-1.9698 3.54563,-0.39395 3.54563,-0.39395c3.79254,3.05723 13.3576,8.64987 15.63195,1.66359l-0.18041,0.30621c0,0 0,-2.52257 2.52257,-2.52257z" fill="#000000" stroke="none" stroke-width="0.5"/><path d="M421.4608,548.34998c1.12812,-2.25626 3.38438,-1.12812 3.38438,-1.12812l0.13317,0.36434c4.05846,0 5.25003,-0.13551 8.57674,-2.6487c0,0 2.01806,-1.51354 3.5316,0.50451c1.51354,2.01806 -0.50451,3.5316 -0.50451,3.5316c-4.08863,3.04724 -6.616,3.65773 -11.60383,3.65773l-2.38941,-0.89695c0,0 -2.25626,-1.12812 -1.12812,-3.38438z" fill="#000000" stroke="none" stroke-width="0.5"/><path d="M419.30256,544.43298c0,2.52257 -2.52257,2.52257 -2.52257,2.52257l-1.87311,-0.07532c-5.12486,-1.33167 -7.09809,-4.08505 -10.63156,-7.60061c0,0 -1.78374,-1.78374 0,-3.56745c1.78374,-1.78374 3.56745,0 3.56745,0c2.85674,2.86948 4.1439,5.2917 8.28773,6.27354l0.64946,-0.07532c0,0 2.52257,0 2.52257,2.52257z" fill="#000000" stroke="none" stroke-width="0.5"/><path d="M427.00344,529.66188c-2.25626,-1.12812 -1.12812,-3.38438 -1.12812,-3.38438l0.43963,-0.74497c0.37311,-1.44183 0.56803,-2.94407 0.55532,-4.43332c0,0 0,-2.52257 2.52257,-2.52257c2.52257,0 2.52257,2.52257 2.52257,2.52257c-0.01269,1.90023 -0.25708,3.81047 -0.70597,5.65697l-0.82165,1.77761c0,0 -1.12812,2.25626 -3.38438,1.12812z" fill="#000000" stroke="none" stroke-width="0.5"/></g><g><g><path d="M305.20023,593.90919l-0.04823,-5.92476l13.85596,-0.09467l0.04823,5.92474z" fill="#663f3f" stroke="#000000" stroke-width="0.5"/><path d="M298.30324,597.76529l-0.04821,-5.92476l13.85591,-0.09467l0.04826,5.92476z" fill="#663f3f" stroke="#000000" stroke-width="0.5"/><path d="M313.70339,588.77235l-0.04823,-5.92474l13.85596,-0.09467l0.04823,5.92476z" fill="#663f3f" stroke="#000000" stroke-width="0.5"/><path d="M313.77397,597.448l-0.04821,-5.92479l13.85596,-0.09467l0.04823,5.92476z" fill="#663f3f" stroke="#000000" stroke-width="0.5"/><path d="M298.23087,588.87812l-0.04823,-5.92476l13.85596,-0.09472l0.04821,5.92479z" fill="#663f3f" stroke="#000000" stroke-width="0.5"/><path d="M308.51756,604.25541l-0.19976,-24.54548l7.38985,-0.0505l0.19979,24.54548z" fill="#663f3f" stroke="#000000" stroke-width="0.5"/><path d="M321.20262,427.53254l3.58707,-7.80953l18.26375,7.04307l-3.5871,7.80953z" fill="#663f3f" stroke="#000000" stroke-width="0.5"/><path d="M309.7648,429.03142l3.5871,-7.80953l18.2637,7.04305l-3.58705,7.80955z" fill="#663f3f" stroke="#000000" stroke-width="0.5"/><path d="M335.53996,425.1818l3.58705,-7.8095l18.26375,7.04307l-3.5871,7.80953z" fill="#663f3f" stroke="#000000" stroke-width="0.5"/><path d="M330.28736,436.6173l3.5871,-7.80955l18.26375,7.04307l-3.5871,7.80953z" fill="#663f3f" stroke="#000000" stroke-width="0.5"/><path d="M315.14532,417.31708l3.58707,-7.80955l18.2638,7.04305l-3.58712,7.80955z" fill="#663f3f" stroke="#000000" stroke-width="0.5"/><path d="M319.18681,442.8426l14.86072,-32.35385l9.74068,3.75629l-14.8607,32.35385z" fill="#663f3f" stroke="#000000" stroke-width="0.5"/><path d="M342.58336,528.43031c-2.46773,44.2229 -13.36976,60.9327 -29.00448,59.89917c-15.63472,-1.03352 -28.66128,-17.69947 -26.19358,-61.92238c1.30599,-23.40402 8.70814,-60.97142 15.80545,-80.51807c6.31334,-17.38761 11.96418,-18.19143 19.32459,-17.70487c8.77789,0.58027 17.54106,0.04261 20.70065,23.18385c2.46811,18.07677 0.44962,57.66768 -0.63264,77.06227z" fill="#d87700" stroke="#929292" stroke-width="1"/><path d="M338.20041,611.98278c0,9.47362 -8.27451,11.09932 -21.19851,11.09932c-12.92399,0 -22.29974,-1.6257 -22.29974,-11.09932c0,-9.47362 8.82514,-13.11737 21.74911,-13.11737c12.92399,0 21.74911,3.64375 21.74911,13.11737z" fill="#d87700" stroke="#929292" stroke-width="1"/></g><path d="M313.98519,456.8398c-1.88207,0 -2.35994,-1.40419 -2.48128,-2.11727c-3.38027,-3.80553 -5.05208,-8.50122 -5.08644,-13.6488c0,0 0,-2.52257 2.52257,-2.52257c2.52257,0 2.52257,2.52257 2.52257,2.52257c-0.03469,4.06391 1.37861,7.98422 4.30631,10.82912l0.73884,2.41438c0,0 0,2.52257 -2.52257,2.52257z" fill="#000000" stroke="none" stroke-width="0.5"/><path d="M320.78428,463.98385c-2.09891,-1.39927 -0.69964,-3.49818 -0.69964,-3.49818l1.26129,-1.89193c4.3164,-6.40057 11.51337,-9.71003 14.97807,-16.75621c0,0 1.12812,-2.25626 3.38438,-1.12812c2.25626,1.12812 1.12812,3.38438 1.12812,3.38438c-3.74264,7.38518 -10.90498,10.62699 -15.29279,17.29851l-1.26129,1.89193c0,0 -1.39927,2.09891 -3.49818,0.69964z" fill="#000000" stroke="none" stroke-width="0.5"/><path d="M327.96753,444.11875c-0.43729,-0.43729 -0.66018,-0.8746 -0.74749,-1.2856c-0.07199,0.2878 -0.20703,0.59439 -0.42571,0.91708c-1.41519,2.08821 -3.5034,0.67302 -3.5034,0.67302l-2.68641,-2.13203c-0.83437,-1.46014 -1.66873,-2.92028 -2.5031,-4.38042c0,0 -1.25155,-2.1902 0.93865,-3.44175c2.1902,-1.25155 3.44175,0.93865 3.44175,0.93865c0.83437,1.46014 1.66873,2.92028 2.5031,4.38042l1.13639,0.4587c0,0 0.90197,0.61127 1.11858,1.62315c0.18957,-0.78061 0.72764,-1.31867 0.72764,-1.31867l1.07522,-1.0534c1.79542,-2.22791 3.84185,-4.27432 6.06974,-6.06974c0,0 1.9698,-1.57585 3.54563,0.39395c1.57585,1.9698 -0.39395,3.54563 -0.39395,3.54563c-1.95063,1.54742 -3.73442,3.33118 -5.28184,5.28184l-1.44735,1.46917c0,0 -1.78374,1.78374 -3.56745,0z" fill="#000000" stroke="none" stroke-width="0.5"/><path d="M319.66097,492.78645c-2.52257,0 -2.52257,-2.52257 -2.52257,-2.52257l0.58468,0.35361c-0.44165,-0.53158 -0.88863,-1.05166 -1.34014,-1.5618c-0.51362,-0.01435 -1.08627,-0.21931 -1.65892,-0.79196c-0.64263,-0.64263 -0.82221,-1.28525 -0.78898,-1.84448c-3.44856,-3.55612 -7.07269,-6.72089 -10.56259,-10.13774c0,0 -1.78374,-1.78374 0,-3.56745c0.94453,-0.94453 1.88905,-0.88875 2.56873,-0.62721c-2.53907,-4.38486 -4.5148,-9.08815 -5.75484,-14.00461c0,0 -0.61182,-2.44725 1.83545,-3.05907c2.44725,-0.61182 3.05907,1.83545 3.05907,1.83545c2.23909,9.04788 7.33423,17.34972 13.79615,23.99998c0.4525,0.08723 1.12807,0.31446 1.57741,0.90636c4.31065,-1.14209 9.30867,-2.09222 12.68917,-4.12771c2.12643,-1.28038 4.35514,-9.60068 5.79614,-12.00502c0,0 1.29786,-2.16308 3.46094,-0.86524c2.16308,1.29786 0.86524,3.46094 0.86524,3.46094c-1.86638,3.10698 -3.8809,11.08299 -6.81672,13.2207c-3.72385,2.71149 -10.34913,3.90567 -15.35172,5.34702c0.168,0.19578 0.33515,0.39309 0.50139,0.59202l0.58468,2.87619c0,0 0,2.52257 -2.52257,2.52257z" fill="#000000" stroke="none" stroke-width="0.5"/><path d="M327.43567,475.89707c-1.39927,2.09891 -3.49818,0.69964 -3.49818,0.69964l-3.98387,-2.67067c-1.72612,-1.74282 -3.32175,-3.68505 -4.44084,-5.86783c0,0 -1.12812,-2.25626 1.12812,-3.38438c2.25626,-1.12812 3.38438,1.12812 3.38438,1.12812c0.76207,1.57691 1.87987,2.99268 3.12688,4.22246l3.58384,2.37447c0,0 2.09891,1.39927 0.69964,3.49818z" fill="#000000" stroke="none" stroke-width="0.5"/><path d="M326.73121,472.33957c-2.25626,-1.12812 -1.12812,-3.38438 -1.12812,-3.38438l1.26129,-2.52257c0.72968,-1.43804 1.31996,-2.9619 1.70092,-4.52882c0,0 0.61182,-2.44725 3.05907,-1.83545c2.44725,0.61182 1.83545,3.05907 1.83545,3.05907c-0.49016,1.91794 -1.20627,3.78658 -2.08294,5.56146l-1.26129,2.52257c0,0 -1.12812,2.25626 -3.38438,1.12812z" fill="#000000" stroke="none" stroke-width="0.5"/><path d="M315.32377,500.66946c-1.57656,1.96922 -3.54578,0.39264 -3.54578,0.39264l-3.24854,-2.60087c-2.0284,-1.67216 -6.14282,-4.94358 -7.89129,-6.88193c-1.69582,-1.87997 -3.00865,-6.18875 -5.55342,-6.43589c0,0 -2.44725,-0.61182 -1.83545,-3.05907c0.61182,-2.44725 3.05907,-1.83545 3.05907,-1.83545c5.79906,1.84514 10.34517,10.13027 15.40204,14.2963l3.22072,2.57845c0,0 1.96922,1.57656 0.39264,3.54578z" fill="#000000" stroke="none" stroke-width="0.5"/><path d="M322.92238,497.7234c-1.78374,-1.78374 0,-3.56745 0,-3.56745l1.26129,-1.26129c2.89034,-2.88153 5.19138,-5.69274 8.36717,-8.35251c0,0 1.93789,-1.6149 3.55282,0.32299c1.6149,1.93789 -0.32299,3.55282 -0.32299,3.55282c-3.05642,2.53291 -5.25928,5.26632 -8.02955,8.0442l-1.26129,1.26129c0,0 -1.78374,1.78374 -3.56745,0z" fill="#000000" stroke="none" stroke-width="0.5"/><path d="M316.50776,508.55252c0,-2.52257 2.52257,-2.52257 2.52257,-2.52257l-0.16707,0.12946c9.34953,-3.11068 13.29862,-6.07642 18.96023,-13.62522c0,0 1.51354,-2.01806 3.5316,-0.50451c2.01806,1.51354 0.50451,3.5316 0.50451,3.5316c-1.75725,2.34302 -3.9732,6.7804 -6.05828,8.60532c-3.68896,3.22872 -10.77986,5.25543 -15.34263,6.77906l-1.42836,0.12946c0,0 -2.52257,0 -2.52257,-2.52257z" fill="#000000" stroke="none" stroke-width="0.5"/><path d="M315.45345,516.25822c-1.39927,2.09891 -3.49818,0.69964 -3.49818,0.69964l-2.27639,-1.57646c-4.85714,-4.85714 -9.0413,-10.32711 -13.87414,-15.13543c0,0 -1.78374,-1.78374 0,-3.56745c1.78374,-1.78374 3.56745,0 3.56745,0c4.81857,4.84003 9.01232,10.2736 13.87414,15.13543l1.50746,0.94612c0,0 2.09891,1.39927 0.69964,3.49818z" fill="#000000" stroke="none" stroke-width="0.5"/><path d="M310.83197,524.94924c0,-2.52257 2.52257,-2.52257 2.52257,-2.52257l2.90464,0.01228c3.97918,-0.63127 5.6772,-4.30727 9.00601,-6.55879c2.80767,-1.89904 5.95123,-3.25467 8.82489,-5.05228c0,0 2.13914,-1.33696 3.4761,0.80218c1.33696,2.13914 -0.80218,3.4761 -0.80218,3.4761c-6.17021,3.85315 -13.17564,10.83253 -20.00768,12.35339l-3.40179,0.01228c0,0 -2.52257,0 -2.52257,-2.52257z" fill="#000000" stroke="none" stroke-width="0.5"/><path d="M309.32703,534.85989c-1.08163,2.27892 -3.36054,1.19729 -3.36054,1.19729l-1.38661,-0.66805c-8.3983,-3.30195 -11.61586,-10.5163 -16.09156,-17.971c0,0 -1.29786,-2.16308 0.86524,-3.46094c2.16308,-1.29786 3.46094,0.86524 3.46094,0.86524c3.67804,6.13414 6.57534,13.39516 13.53685,15.84279l1.77841,0.83414c0,0 2.27892,1.08163 1.19729,3.36054z" fill="#000000" stroke="none" stroke-width="0.5"/><path d="M318.86871,546.50555c0.68021,-0.26394 1.62809,-0.32349 2.576,0.62441c1.78374,1.78374 0,3.56745 0,3.56745l-3.71222,1.01001c-1.05108,-0.63064 -2.10213,-1.26129 -3.15321,-1.89193c0,0 -0.7437,-0.44622 -1.09732,-1.25147c-0.34635,0.21157 -0.79847,0.34968 -1.38868,0.34968c-2.52257,0 -2.52257,-2.52257 -2.52257,-2.52257l1.39445,-2.88691c8.30426,-4.15213 19.30295,-7.9986 25.83141,-14.6629c0,0 1.78374,-1.78374 3.56745,0c1.78374,1.78374 0,3.56745 0,3.56745c-5.98808,5.89066 -14.68974,9.71755 -22.60941,13.42831c0.37137,0.22282 0.74275,0.44564 1.11412,0.66848z" fill="#000000" stroke="none" stroke-width="0.5"/><path d="M322.81419,567.20232c2.52257,0 2.52257,2.52257 2.52257,2.52257l-0.07532,1.24247c-3.96712,14.84821 -22.41651,1.9918 -30.69304,-2.13942c0,0 -2.25626,-1.12812 -1.12812,-3.38438c1.12812,-2.25626 3.38438,-1.12812 3.38438,-1.12812c4.84304,2.42538 21.58875,14.11422 23.54225,5.4283l-0.07532,-0.01882c0,0 0,-2.1538 1.99016,-2.4811c-1.56965,0.13372 -2.35447,-1.43592 -2.35447,-1.43592l0.49748,-0.13317c-2.24691,-1.12345 -4.55476,-2.23737 -6.86644,-3.38416c-2.71805,1.2206 -5.41314,2.45255 -8.00268,3.74849l-2.55161,0.5053c0,0 -2.49523,0.37044 -2.86564,-2.12479c-0.37044,-2.49523 2.12479,-2.86564 2.12479,-2.86564l1.03622,-0.02734c1.48617,-0.74239 3.00663,-1.4637 4.54572,-2.17388c-8.48934,-4.58273 -16.37674,-10.1087 -20.71127,-18.77048c0,0 -1.12812,-2.25626 1.12812,-3.38438c2.25626,-1.12812 3.38438,1.12812 3.38438,1.12812c4.36203,8.73178 13.11485,13.96286 21.99435,18.41081c4.45844,-1.99318 8.91023,-3.99674 12.99102,-6.24291c5.37621,-2.9592 8.85609,-7.82734 14.79551,-10.22873c0,0 2.34216,-0.93686 3.27902,1.4053c0.93686,2.34216 -1.4053,3.27902 -1.4053,3.27902c-5.73133,2.26381 -8.99451,7.07279 -14.21406,9.95185c-3.03367,1.67335 -6.27096,3.21186 -9.56347,4.71022c1.0674,0.51796 2.12252,1.03319 3.15758,1.55073l1.75876,2.38941c0,0 1.12812,2.25626 -1.12812,3.38438c-0.29519,0.1476 -0.57109,0.23727 -0.82766,0.28162c0.10494,-0.01004 0.21492,-0.01531 0.33015,-0.01531z" fill="#000000" stroke="none" stroke-width="0.5"/><path d="M307.57057,545.02162c-1.78374,1.78374 -3.56745,0 -3.56745,0c-0.63064,-0.63064 -1.89193,-1.89193 -2.52257,-2.52257c0,0 -1.78374,-1.78374 0,-3.56745c1.78374,-1.78374 3.56745,0 3.56745,0c0.63064,0.63064 1.26129,1.26129 1.89193,1.89193l0.63064,0.63064c0,0 1.78374,1.78374 0,3.56745z" fill="#000000" stroke="none" stroke-width="0.5"/><path d="M312.8321,539.34583c-1.78374,-1.78374 0,-3.56745 0,-3.56745l1.26129,-1.26129c1.48461,-1.45353 3.22122,-2.67784 5.07009,-3.62574c0,0 2.25626,-1.12812 3.38438,1.12812c1.12812,2.25626 -1.12812,3.38438 -1.12812,3.38438c-1.38562,0.66962 -2.68641,1.57699 -3.75891,2.68069l-1.26129,1.26129c0,0 -1.78374,1.78374 -3.56745,0z" fill="#000000" stroke="none" stroke-width="0.5"/><path d="M301.37233,521.79602c0,-1.39317 1.12941,-2.52257 2.52257,-2.52257c1.39317,0 2.52257,1.12941 2.52257,2.52257c0,1.39317 -1.12941,2.52257 -2.52257,2.52257c-1.39317,0 -2.52257,-1.12941 -2.52257,-2.52257z" fill="#000000" stroke="none" stroke-width="0.5"/></g><g><g><path d="M321.9494,185.91743l-13.52606,-31.2089h114.54267c0,0 3.07602,12.05615 1.66697,17.90146c-0.73152,3.03465 -32.48,23.11594 -32.48,23.11594z" fill="#000000" stroke="none" stroke-width="0"/><path d="M408.13564,98.39789l2.10251,-3.33759l7.152,4.50541l-2.10251,3.33759z" fill="#663f3f" stroke="#000000" stroke-width="0.5"/><path d="M410.36002,102.79617l2.10254,-3.33759l7.15197,4.50539l-2.10251,3.33759z" fill="#663f3f" stroke="#000000" stroke-width="0.5"/><path d="M405.52745,92.75878l2.10251,-3.33759l7.15197,4.50541l-2.10251,3.33756z" fill="#663f3f" stroke="#000000" stroke-width="0.5"/><path d="M402.44873,97.64596l2.10251,-3.33759l7.152,4.50541l-2.10251,3.33759z" fill="#663f3f" stroke="#000000" stroke-width="0.5"/><path d="M413.51381,97.78982l2.10251,-3.33759l7.15197,4.50541l-2.10251,3.33759z" fill="#663f3f" stroke="#000000" stroke-width="0.5"/><path d="M406.12502,105.28993l8.71044,-13.82717l3.81438,2.40288l-8.71044,13.82717z" fill="#663f3f" stroke="#000000" stroke-width="0.5"/><path d="M315.70884,104.75076l-2.10251,-3.33759l7.152,-4.50541l2.10251,3.33759z" fill="#663f3f" stroke="#000000" stroke-width="0.5"/><path d="M313.48446,109.14904l-2.10251,-3.33759l7.152,-4.50539l2.10251,3.33759z" fill="#663f3f" stroke="#000000" stroke-width="0.5"/><path d="M318.31707,99.11162l-2.10251,-3.33756l7.15197,-4.50541l2.10251,3.33759z" fill="#663f3f" stroke="#000000" stroke-width="0.5"/><path d="M321.39575,103.99883l-2.10251,-3.33759l7.152,-4.50541l2.10251,3.33759z" fill="#663f3f" stroke="#000000" stroke-width="0.5"/><path d="M310.33069,104.14267l-2.10251,-3.33759l7.15197,-4.50541l2.10251,3.33759z" fill="#663f3f" stroke="#000000" stroke-width="0.5"/><path d="M321.05704,109.54029l-8.71044,-13.82717l3.81438,-2.40288l8.71044,13.82717z" fill="#663f3f" stroke="#000000" stroke-width="0.5"/><path d="M344.56918,219.76399l0.76293,-8.96426l19.20913,1.63485l-0.76293,8.96426z" fill="#663f3f" stroke="#000000" stroke-width="0.5"/><path d="M334.47412,224.70929l0.76293,-8.96426l19.20913,1.63485l-0.7629,8.96426z" fill="#663f3f" stroke="#000000" stroke-width="0.5"/><path d="M357.06877,213.08846l0.7629,-8.96426l19.20913,1.63485l-0.76293,8.96426z" fill="#663f3f" stroke="#000000" stroke-width="0.5"/><path d="M355.95163,226.21473l0.76293,-8.96429l19.20913,1.63485l-0.7629,8.96429z" fill="#663f3f" stroke="#000000" stroke-width="0.5"/><path d="M335.61851,211.2629l0.76293,-8.96426l19.20913,1.63483l-0.76293,8.96429z" fill="#663f3f" stroke="#000000" stroke-width="0.5"/><path d="M347.71619,235.83292l3.16071,-37.13768l10.24487,0.8719l-3.16071,37.13768z" fill="#663f3f" stroke="#000000" stroke-width="0.5"/><path d="M360.67658,171.40823c-23.25314,0 -55.4239,-9.77842 -55.4239,-17.61247c0,-14.61026 -1.67113,-28.25979 7.02382,-41.12312c11.34337,-16.78143 35.57427,-30.92792 55.7899,-30.92792c27.69067,0 54.35713,21.33841 62.03425,51.18545c2.22372,8.64536 -3.06939,27.3131 -3.06939,34.87549c0,0 -30.64329,3.60254 -66.35469,3.60254z" fill="#d87700" stroke="#929292" stroke-width="1"/><path d="M346.86141,137.0894c0,5.86687 -4.4114,10.6229 -9.85311,10.6229c-5.44174,0 -9.85311,-4.75603 -9.85311,-10.6229c0,-5.86687 4.4114,-10.6229 9.85311,-10.6229c5.44174,0 9.85311,4.75603 9.85311,10.6229z" fill="#fff68e" stroke="#fff68e" stroke-width="2"/><path d="M406.59596,142.01595c0,5.86687 -4.4114,10.6229 -9.85311,10.6229c-5.44174,0 -9.85311,-4.75606 -9.85311,-10.6229c0,-5.86685 4.4114,-10.6229 9.85311,-10.6229c5.44174,0 9.85311,4.75606 9.85311,10.6229z" fill="#fff68e" stroke="#fff68e" stroke-width="2"/><path d="M334.32615,137.40588c0,-1.0203 0.82713,-1.84746 1.84746,-1.84746c1.02033,0 1.84746,0.82715 1.84746,1.84746c0,1.0203 -0.82713,1.84746 -1.84746,1.84746c-1.02033,0 -1.84746,-0.82715 -1.84746,-1.84746z" fill="#000000" stroke="none" stroke-width="0.5"/><path d="M394.26788,143.76281c0,-1.34496 1.09031,-2.43529 2.43529,-2.43529c1.34496,0 2.43529,1.09031 2.43529,2.43529c0,1.34496 -1.09031,2.43529 -2.43529,2.43529c-1.34496,0 -2.43529,-1.09031 -2.43529,-2.43529z" fill="#000000" stroke="none" stroke-width="0.5"/><path d="M411.02179,192.38483c-6.0571,5.35489 -27.55143,15.28792 -52.50602,12.59013c-24.95459,-2.69779 -41.12211,-15.21015 -45.62195,-21.62074c-2.40371,-5.34571 -10.57089,-24.72395 -7.10286,-26.17534c3.65543,-1.52981 12.43638,22.06905 22.61304,25.79907c12.08685,4.43017 24.00949,7.03389 33.45924,8.05545c8.89724,0.96186 28.87706,-1.01004 43.0045,-5.14138c9.76218,-5.84755 17.17758,-20.85112 20.61087,-19.64039c3.93915,1.38913 -10.75816,22.8652 -14.45688,26.13319z" fill="#d87700" stroke="#929292" stroke-width="1"/><path d="M386.04374,161.77064c0,8.81195 -8.75297,6.46611 -18.5736,6.46611c-9.82062,0 -19.36535,0.16599 -19.36535,-6.46611c0,-3.96089 1.29302,-12.88171 6.1274,-16.66146c3.26035,-2.54908 9.01855,-1.41726 12.97404,-1.41726c3.68235,0 9.85382,-0.61881 12.83081,1.38166c4.96248,3.33466 6.0067,11.18925 6.0067,16.69708z" fill="#ba6600" stroke="#000000" stroke-width="0"/><path d="M371.7985,147.59369c0,2.6738 -2.42765,4.84137 -5.42229,4.84137c-2.99465,0 -5.42229,-2.16755 -5.42229,-4.84137c0,-2.6738 2.42765,-4.84134 5.42229,-4.84134c2.99465,0 5.42229,2.16755 5.42229,4.84134z" fill="#bdc29f" stroke="none" stroke-width="0"/><path d="M334.63645,185.35994c0,0 1.18263,-4.88915 3.14277,-4.47618c2.04021,0.42985 0.54725,5.35005 0.54725,5.35005z" fill="#ffffff" stroke="none" stroke-width="0"/><path d="M326.83709,182.27479c0,0 1.55421,-4.78403 3.47689,-4.2219c2.00123,0.58509 0.13526,5.37626 0.13526,5.37626z" fill="#ffffff" stroke="none" stroke-width="0"/><path d="M320.37582,176.37474c0,0 3.56379,-3.54991 5.01896,-2.17327c1.51463,1.43287 -2.32995,4.84705 -2.32995,4.84705z" fill="#ffffff" stroke="none" stroke-width="0"/><path d="M342.83072,186.73565c0,0 1.1037,-11.03744 3.07022,-10.17976c2.04687,0.89269 0.63339,12.0112 0.63339,12.0112z" fill="#ffffff" stroke="none" stroke-width="0"/><path d="M350.86827,189.97098c0,0 0.78921,-4.96785 2.77601,-4.71242c2.06798,0.26588 0.97192,5.2894 0.97192,5.2894z" fill="#ffffff" stroke="none" stroke-width="0"/><path d="M359.56735,191.52753c0,0 0.24381,-5.02426 2.2466,-4.98657c2.08463,0.0392 1.54187,5.15218 1.54187,5.15218z" fill="#ffffff" stroke="none" stroke-width="0"/><path d="M369.95891,192.02412c0,0 -0.46829,-5.00831 1.51975,-5.25391c2.06927,-0.25564 2.25412,4.88274 2.25412,4.88274z" fill="#ffffff" stroke="none" stroke-width="0"/><path d="M379.18446,191.10258c0,0 -0.93464,-12.12797 1.02174,-13.1842c2.0363,-1.09936 2.70092,11.41138 2.70092,11.41138z" fill="#ffffff" stroke="none" stroke-width="0"/><path d="M387.54447,189.4933c0,0 -0.77435,-4.9702 1.19489,-5.33718c2.04972,-0.38197 2.54916,4.73542 2.54916,4.73542z" fill="#ffffff" stroke="none" stroke-width="0"/><path d="M395.67128,188.3027c0,0 -1.15044,-4.89684 0.78518,-5.41266c2.0147,-0.53688 2.90222,4.52764 2.90222,4.52764z" fill="#ffffff" stroke="none" stroke-width="0"/><path d="M403.78082,186.78252c0,0 -2.3162,-4.46518 -0.56619,-5.43993c1.82152,-1.01458 3.92394,3.67763 3.92394,3.67763z" fill="#ffffff" stroke="none" stroke-width="0"/><path d="M410.86201,182.49286c0,0 -3.69418,-3.41405 -2.37886,-4.92487c1.36905,-1.57257 4.9392,2.12759 4.9392,2.12759z" fill="#ffffff" stroke="none" stroke-width="0"/><path d="M315.79264,170.34492c0,0 3.81436,-3.27922 5.16474,-1.79963c1.40555,1.54003 -2.67885,4.66328 -2.67885,4.66328z" fill="#ffffff" stroke="none" stroke-width="0"/><path d="M415.42259,176.84995c0,0 -4.07708,-2.94619 -2.95249,-4.60392c1.17052,-1.72544 5.15876,1.5197 5.15876,1.5197z" fill="#ffffff" stroke="none" stroke-width="0"/><path d="M426.42451,84.51431c-1.86272,8.792 -6.61244,15.23295 -10.6088,14.38625c-3.99636,-0.8467 -5.72604,-8.66039 -3.86332,-17.45239c1.86272,-8.792 6.61244,-15.23295 10.6088,-14.38625c3.99636,0.8467 5.72604,8.66039 3.86332,17.45239z" fill="#d87700" stroke="#000000" stroke-width="0.5"/><path d="M421.5789,70.73918c2.87243,0.60009 4.13069,6.20939 2.81047,12.52868c-1.32021,6.31929 -4.719,10.95563 -7.59143,10.35554c-2.87243,-0.60009 -4.13071,-6.20939 -2.8105,-12.52868c1.32021,-6.31929 4.71903,-10.95563 7.59143,-10.35554z" data-paper-data="{&quot;index&quot;:null}" fill="#bab9b9" stroke="#000000" stroke-width="0.5"/><path d="M314.33794,80.25954c5.87991,8.27686 7.59665,17.15324 3.83444,19.82593c-3.76221,2.67269 -11.57871,-1.87039 -17.45862,-10.14727c-5.87991,-8.27686 -7.59665,-17.15324 -3.83444,-19.82593c3.76221,-2.67269 11.57871,1.87039 17.45862,10.14727z" fill="#d87700" stroke="#000000" stroke-width="0.5"/><path d="M312.86426,81.60901c4.22372,5.9455 5.4569,12.32168 2.7544,14.24153c-2.70251,1.91985 -8.31732,-1.34357 -12.54102,-7.28907c-4.22372,-5.9455 -5.4569,-12.32168 -2.7544,-14.24153c2.70251,-1.91985 8.31732,1.34355 12.54102,7.28907z" fill="#bab9b9" stroke="#000000" stroke-width="0.5"/><path d="M407.13052,169.5023c0,0 0.04112,5.02998 -1.96062,5.10581c-2.08352,0.07891 -1.83116,-5.0566 -1.83116,-5.0566z" fill="#ffffff" stroke="none" stroke-width="0"/><path d="M400.06253,170.07402c0,0 0.3294,5.01936 -1.6647,5.20979c-2.07557,0.19822 -2.11803,-4.94331 -2.11803,-4.94331z" fill="#ffffff" stroke="none" stroke-width="0"/><path d="M393.13456,170.07402c0,0 0.3294,5.01936 -1.6647,5.20979c-2.07557,0.19822 -2.11803,-4.94331 -2.11803,-4.94331z" fill="#ffffff" stroke="none" stroke-width="0"/><path d="M386.20657,170.76682c0,0 0.3294,5.01936 -1.6647,5.20979c-2.07557,0.19822 -2.11803,-4.94331 -2.11803,-4.94331z" fill="#ffffff" stroke="none" stroke-width="0"/><path d="M377.66206,170.99773c0,0 0.3294,11.46471 -1.6647,11.89968c-2.07557,0.45278 -2.11803,-11.29098 -2.11803,-11.29098z" fill="#ffffff" stroke="none" stroke-width="0"/><path d="M369.16829,170.80417c0,0 0.23094,5.02486 -1.76648,5.17617c-2.07905,0.15751 -2.02073,-4.98387 -2.02073,-4.98387z" fill="#ffffff" stroke="none" stroke-width="0"/><path d="M360.76777,170.68471c0,0 -0.05471,5.02986 -2.05751,5.06752c-2.08463,0.03923 -1.73452,-5.09055 -1.73452,-5.09055z" fill="#ffffff" stroke="none" stroke-width="0"/><path d="M353.29495,171.13849c0,0 -0.35654,11.71974 -2.358,11.52674c-2.08324,-0.20085 -1.42581,-12.11213 -1.42581,-12.11213z" fill="#ffffff" stroke="none" stroke-width="0"/><path d="M345.97321,170.40003c0,0 -0.50409,5.00483 -2.50224,4.86334c-2.07981,-0.14727 -1.27256,-5.2252 -1.27256,-5.2252z" fill="#ffffff" stroke="none" stroke-width="0"/><path d="M338.72786,168.68726c0,0 -0.83361,4.96061 -2.81807,4.68742c-2.06553,-0.28434 -0.9246,-5.29788 -0.9246,-5.29788z" fill="#ffffff" stroke="none" stroke-width="0"/><path d="M332.04958,167.35335c0,0 -1.47472,4.80913 -3.40646,4.27894c-2.01067,-0.55184 -0.22433,-5.37328 -0.22433,-5.37328z" fill="#ffffff" stroke="none" stroke-width="0"/><path d="M326.54578,166.48316c0,0 -1.59129,4.77182 -3.50955,4.19478c-1.99664,-0.6006 -0.09351,-5.37714 -0.09351,-5.37714z" fill="#ffffff" stroke="none" stroke-width="0"/></g><g fill="#000000" stroke="none" stroke-width="0.5"><path d="M362.99154,132.10391c-2.25626,-1.12812 -1.12812,-3.38438 -1.12812,-3.38438l0.43963,-0.74497c1.44526,-5.16315 6.22043,-8.30673 9.17734,-12.76966c0,0 1.39927,-2.09891 3.49818,-0.69964c0.2097,0.1398 0.38449,0.28659 0.52924,0.43757c0.08153,-0.43166 0.22976,-0.72806 0.22976,-0.72806l0.36434,-0.13317c0,-3.755 -0.39211,-8.53999 1.58872,-11.9638c2.98377,-5.15742 9.94183,-6.87883 13.42059,-11.62224c0,0 1.51354,-2.01806 3.5316,-0.50451c2.01806,1.51354 0.50451,3.5316 0.50451,3.5316c-3.27796,4.29513 -10.49998,6.48634 -13.06642,11.0809c-1.46236,2.618 -0.93386,6.63487 -0.93386,9.47806l-0.89695,2.38941c0,0 -1.12812,2.25626 -3.38438,1.12812c-0.33422,-0.1671 -0.59417,-0.35896 -0.79453,-0.56458c-0.12572,0.56808 -0.39294,0.96889 -0.39294,0.96889c-2.25303,3.3609 -7.70227,7.30517 -8.48066,11.19477l-0.82165,1.77761c0,0 -1.12812,2.25626 -3.38438,1.12812z"/><path d="M383.03895,132.37022c-2.52257,0 -2.52257,-2.52257 -2.52257,-2.52257l0.26631,-1.75876c0.91832,-1.70622 0.65178,-7.08409 1.56674,-8.03888c2.33023,-2.43168 11.70461,-2.18359 14.87134,-3.25866c4.69163,-1.59278 9.30203,-7.30723 12.17908,-11.16039c0,0 1.51354,-2.01806 3.5316,-0.50451c2.01806,1.51354 0.50451,3.5316 0.50451,3.5316c-3.50135,4.64998 -8.67656,10.77703 -14.30793,12.80404c-2.85512,1.0277 -5.85827,1.6651 -8.86654,2.06293c-1.32841,0.17567 -2.92878,-1.0674 -4.01041,-0.27645c-1.09159,0.79822 0.82912,2.71272 0.50429,4.02542c-0.27229,1.10032 -0.97341,2.04742 -1.46012,3.07113l0.26631,-0.49748c0,0 0,2.52257 -2.52257,2.52257z"/><path d="M407.00338,131.73958c0,-2.52257 2.52257,-2.52257 2.52257,-2.52257l-0.49748,0.26631c5.4152,-2.67476 8.15149,-5.62665 13.07378,-8.73584c0,0 2.16308,-1.29786 3.46094,0.86524c1.29786,2.16308 -0.86524,3.46094 -0.86524,3.46094c-4.65165,2.58112 -8.26422,6.30946 -13.41322,8.92216l-1.75876,0.26631c0,0 -2.52257,0 -2.52257,-2.52257z"/><path d="M405.21967,153.07324c-1.78374,-1.78374 0,-3.56745 0,-3.56745l0.63064,-0.63064c5.50768,-5.43836 12.8436,-10.48928 19.30375,-14.81996c0,0 2.09891,-1.39927 3.49818,0.69964c1.39927,2.09891 -0.69964,3.49818 -0.69964,3.49818c-6.14135,4.06896 -13.39491,8.96696 -18.53482,14.18962l-0.63064,0.63064c0,0 -1.78374,1.78374 -3.56745,0z"/><path d="M395.76003,160.85735c1.78374,-1.78374 3.56745,0 3.56745,0l-1.45931,0.70286c4.04409,-1.60398 8.60174,-0.66578 12.24572,-1.98082c5.76549,-2.08064 9.98552,-5.03909 13.83898,-9.86573c0,0 1.57585,-1.9698 3.54563,-0.39395c1.9698,1.57585 0.39395,3.54563 0.39395,3.54563c-4.38897,5.47582 -9.71321,9.46787 -16.43188,11.57613c-3.88143,1.21797 -7.65358,0.16122 -11.71871,1.80303l-3.98188,-1.81971c0,0 -1.78374,-1.78374 0,-3.56745z"/><path d="M377.99381,197.32644c0,-2.52257 2.52257,-2.52257 2.52257,-2.52257h1.26129c9.30249,0.0618 16.35245,-6.93707 25.85636,-6.93707c0,0 2.52257,0 2.52257,2.52257c0,2.52257 -2.52257,2.52257 -2.52257,2.52257c-9.30365,0 -16.35641,6.88521 -25.85636,6.93707h-1.26129c0,0 -2.52257,0 -2.52257,-2.52257z"/><path d="M389.87431,112.87609c-0.19492,0.74696 -0.7633,1.83613 -2.42086,1.83613c-2.52257,0 -2.52257,-2.52257 -2.52257,-2.52257l1.00903,-2.6487c2.32162,-1.70854 6.18093,-4.65722 6.63401,-7.42277c0,0 0.61182,-2.44725 3.05907,-1.83545c2.44725,0.61182 1.83545,3.05907 1.83545,3.05907c-1.16982,3.96107 -4.30414,6.94994 -7.59413,9.53429z"/><path d="M368.8005,161.24663c-1.12812,-2.25626 1.12812,-3.38438 1.12812,-3.38438l3.37545,-1.51253c0.96917,0.20799 1.88418,0.55358 2.77632,0.92298c-0.10544,-0.61235 0.02096,-1.35175 0.76035,-2.09114c1.78374,-1.78374 3.56745,0 3.56745,0l1.07356,1.34511c2.42058,-0.21245 4.80383,-0.19202 7.23302,-0.19202c0,0 2.52257,0 2.52257,2.52257c0,2.52257 -2.52257,2.52257 -2.52257,2.52257c-1.47911,0 -2.9471,-0.01133 -4.4147,-0.0391c0.00013,0.01297 0.0002,0.02598 0.0002,0.0391c0,2.52257 -2.52257,2.52257 -2.52257,2.52257c-3.46412,-0.09921 -4.78075,-1.42556 -7.9231,-2.53763l-1.66969,1.01004c0,0 -2.25626,1.12812 -3.38438,-1.12812z"/><path d="M373.05688,154.96517c-1.78374,-1.78374 0,-3.56745 0,-3.56745l1.48052,-1.35106c0.8915,-4.45484 3.07776,-8.22959 4.16239,-12.61246c0,0 0.61182,-2.44725 3.05907,-1.83545c2.44725,0.61182 1.83545,3.05907 1.83545,3.05907c-1.20312,4.77013 -3.33653,9.12288 -4.66661,13.87455l-2.30334,2.43279c0,0 -1.78374,1.78374 -3.56745,0z"/><path d="M375.87835,130.70106c0.34156,0.68508 0.55328,1.75367 -0.51531,2.82225c-1.78374,1.78374 -3.56745,0 -3.56745,0l-1.10317,-3.5425c1.89776,-3.79551 2.64189,-7.68136 5.51767,-10.74588c0,0 1.78374,-1.78374 3.56745,0c1.78374,1.78374 0,3.56745 0,3.56745c-1.93832,1.73391 -2.80066,5.11002 -3.89919,7.89868z"/><path d="M362.33595,108.2976c-1.78374,-1.78374 0,-3.56745 0,-3.56745l1.62923,-1.58317c3.54053,-7.23353 9.18335,-12.38262 14.76749,-17.96677c0,0 1.78374,-1.78374 3.56745,0c1.78374,1.78374 0,3.56745 0,3.56745c-5.45133,5.45133 -10.68037,10.35675 -14.24209,17.34924l-2.15463,2.20069c0,0 -1.78374,1.78374 -3.56745,0z"/></g><g data-paper-data="{&quot;index&quot;:null}" fill="#000000" stroke="none" stroke-width="0.5"><path d="M367.54262,129.08384l-0.82165,-1.77761c-0.77836,-3.88958 -6.2276,-7.83385 -8.48066,-11.19474c0,0 -0.26722,-0.40079 -0.39294,-0.96887c-0.20037,0.20561 -0.46032,0.39748 -0.79453,0.56458c-2.25626,1.12812 -3.38438,-1.12812 -3.38438,-1.12812l-0.89695,-2.38941c0,-2.84319 0.5285,-6.86006 -0.93386,-9.47806c-2.56641,-4.59456 -9.78844,-6.78577 -13.06642,-11.0809c0,0 -1.51354,-2.01806 0.50451,-3.5316c2.01806,-1.51354 3.5316,0.50451 3.5316,0.50451c3.47875,4.74344 10.43679,6.46485 13.42059,11.62224c1.98082,3.42381 1.58872,8.2088 1.58872,11.9638l0.36434,0.13317c0,0 0.1482,0.2964 0.22973,0.72806c0.14475,-0.15098 0.31953,-0.29776 0.52924,-0.43757c2.09891,-1.39927 3.49818,0.69964 3.49818,0.69964c2.95693,4.46293 7.73211,7.60651 9.17737,12.76966l0.43963,0.74497c0,0 1.12812,2.25626 -1.12812,3.38438c-2.25626,1.12812 -3.38438,-1.12812 -3.38438,-1.12812z"/><path d="M348.35699,127.95572l0.26631,0.49748c-0.48671,-1.02371 -1.18783,-1.97078 -1.46012,-3.07113c-0.32483,-1.31272 1.59585,-3.22723 0.50429,-4.02544c-1.08165,-0.79093 -2.682,0.45212 -4.01041,0.27645c-3.00827,-0.39781 -6.01141,-1.03521 -8.86654,-2.06291c-5.63136,-2.02701 -10.80657,-8.15406 -14.30793,-12.80404c0,0 -1.51354,-2.01806 0.50451,-3.5316c2.01806,-1.51354 3.5316,0.50451 3.5316,0.50451c2.87702,3.85315 7.48745,9.56761 12.17908,11.16039c3.16674,1.07509 12.54109,0.82697 14.87134,3.25866c0.91496,0.95479 0.64843,6.33266 1.56672,8.03886l0.26631,1.75876c0,0 0,2.52257 -2.52257,2.52257c-2.52257,0 -2.52257,-2.52257 -2.52257,-2.52257z"/><path d="M324.39256,132.37022l-1.75876,-0.26631c-5.149,-2.6127 -8.7616,-6.34106 -13.41325,-8.92216c0,0 -2.16308,-1.29784 -0.86522,-3.46094c1.29786,-2.16308 3.46094,-0.86524 3.46094,-0.86524c4.92229,3.1092 7.65858,6.06111 13.07378,8.73584l-0.4975,-0.26631c0,0 2.52257,0 2.52257,2.52257c0,2.52257 -2.52257,2.52257 -2.52257,2.52257z"/><path d="M325.13142,151.18132l-0.63064,-0.63064c-5.13992,-5.22266 -12.39347,-10.12066 -18.53482,-14.18962c0,0 -2.09891,-1.39927 -0.69964,-3.49818c1.39927,-2.09891 3.49818,-0.69964 3.49818,-0.69964c6.46013,4.3307 13.79607,9.38162 19.30375,14.81998l0.63064,0.63064c0,0 1.78374,1.78374 0,3.56745c-1.78374,1.78374 -3.56747,0 -3.56747,0z"/><path d="M338.15851,162.53289l-3.98188,1.81971c-4.06512,-1.64182 -7.83728,-0.58506 -11.71871,-1.80303c-6.71864,-2.10826 -12.04288,-6.10028 -16.43188,-11.57613c0,0 -1.57585,-1.9698 0.39395,-3.54563c1.9698,-1.57585 3.54563,0.39395 3.54563,0.39395c3.85348,4.82664 8.07352,7.78509 13.83898,9.86573c3.64398,1.31504 8.20164,0.37682 12.24572,1.98082l-1.45931,-0.70286c0,0 1.78374,-1.78374 3.56747,0c1.78374,1.78374 0,3.56745 0,3.56745z"/><path d="M353.40214,197.95709h-1.26129c-9.49995,-0.05189 -16.55269,-6.93707 -25.85636,-6.93707c0,0 -2.52257,0 -2.52257,-2.52257c0,-2.52257 2.52257,-2.52257 2.52257,-2.52257c9.50392,0 16.55387,6.99888 25.85636,6.93707h1.26129c0,0 2.52257,0 2.52257,2.52257c0,2.52257 -2.52257,2.52257 -2.52257,2.52257z"/><path d="M336.4501,101.4499c0,0 -0.61182,-2.44725 1.83545,-3.05907c2.44727,-0.6118 3.05907,1.83545 3.05907,1.83545c0.45305,2.76555 4.31239,5.71421 6.63401,7.42274l1.00903,2.6487c0,0 0,2.52257 -2.52257,2.52257c-1.65753,0 -2.22594,-1.08915 -2.42086,-1.83613c-3.28996,-2.58435 -6.42431,-5.57322 -7.59413,-9.53426z"/><path d="M361.73366,160.48285l-1.66969,-1.01004c-3.14237,1.11208 -4.45897,2.43842 -7.92312,2.53763c0,0 -2.52257,0 -2.52257,-2.52257c0,-0.01309 0.00008,-0.02613 0.00023,-0.03907c-1.46761,0.02777 -2.93562,0.03907 -4.41473,0.03907c0,0 -2.52257,0 -2.52257,-2.52257c0,-2.52257 2.52257,-2.52257 2.52257,-2.52257c2.42916,0 4.81244,-0.02043 7.23302,0.19202l1.07353,-1.34511c0,0 1.78374,-1.78374 3.56747,0c0.73939,0.73939 0.8658,1.47878 0.76035,2.09111c0.89213,-0.36941 1.80715,-0.715 2.77632,-0.92298l3.37545,1.51253c0,0 2.25626,1.12812 1.12812,3.38438c-1.12814,2.25626 -3.38438,1.12812 -3.38438,1.12812z"/><path d="M357.29421,153.07324l-2.30334,-2.43277c-1.33008,-4.75169 -3.46349,-9.10444 -4.66661,-13.87457c0,0 -0.61182,-2.44725 1.83545,-3.05905c2.44727,-0.6118 3.05907,1.83542 3.05907,1.83542c1.0846,4.38284 3.27089,8.15762 4.16239,12.61246l1.48052,1.35109c0,0 1.78374,1.78374 0,3.56745c-1.78374,1.78374 -3.56747,0 -3.56747,0z"/><path d="M354.141,120.91045c0,0 -1.78374,-1.78374 0,-3.56745c1.78374,-1.78371 3.56747,0 3.56747,0c2.87578,3.06452 3.61992,6.95037 5.51767,10.74588l-1.10317,3.5425c0,0 -1.78374,1.78371 -3.56747,0c-1.06859,-1.06859 -0.85684,-2.13717 -0.51529,-2.82225c-1.09855,-2.78865 -1.96087,-6.16476 -3.89921,-7.89868z"/><path d="M368.01514,106.40567l-2.1546,-2.20069c-3.56175,-6.99249 -8.79078,-11.89794 -14.24211,-17.34924c0,0 -1.78374,-1.78374 0,-3.56745c1.78374,-1.78371 3.56747,0 3.56747,0c5.58414,5.58414 11.22696,10.73322 14.76746,17.96677l1.62925,1.58317c0,0 1.78374,1.78374 0,3.56745c-1.78374,1.78371 -3.56747,0 -3.56747,0z"/></g></g><g><g><path d="M276.82904,426.14764c0,0 0.35639,2.74552 -2.7408,2.99399c-3.09724,0.2485 -3.45363,-2.49699 -3.45363,-2.49699l-0.47021,-3.62239c-0.56516,-4.56194 0.4718,-7.24906 -2.26966,-11.25723c0,0 -1.61445,-2.39231 1.05262,-3.76214c2.66709,-1.36983 4.28156,1.0225 4.28156,1.0225c3.27006,4.89914 2.40368,8.19654 3.12998,13.49987l0.47021,3.62239z" data-paper-data="{&quot;index&quot;:null}" fill="#bdc29f" stroke="none" stroke-width="0.5"/><path d="M262.05933,433.65126c-3.57085,-0.08143 -3.56553,-3.23785 -3.56553,-3.23785l0.00704,-4.16451c0.03968,-5.24153 1.62587,-8.16824 -0.90043,-13.0368c0,0 -1.48297,-2.9033 1.7654,-4.14438c3.24834,-1.24111 4.73129,1.66222 4.73129,1.66222c2.99568,5.94136 1.51251,9.58042 1.54543,15.68187l-0.00704,4.16451c0,0 -0.00532,3.15642 -3.57617,3.07499z" fill="#bdc29f" stroke="none" stroke-width="0.5"/><path d="M247.69901,434.72121c-3.57085,-0.08143 -3.56553,-3.23785 -3.56553,-3.23785l0.11142,-2.84539c1.74481,-6.0931 3.63245,-12.09048 4.67349,-18.32603c0,0 0.52232,-3.11134 4.05478,-2.57375c3.53243,0.53764 3.01013,3.64898 3.01013,3.64898c-1.08758,6.44499 -3.00885,12.64141 -4.81249,18.9399l0.10441,1.31915c0,0 -0.00532,3.15642 -3.57617,3.07499z" fill="#bdc29f" stroke="none" stroke-width="0.5"/><path d="M235.59059,428.66623c-3.46294,-0.84456 -2.59169,-3.88696 -2.59169,-3.88696l1.28959,-3.83946c3.70268,-4.99772 3.92575,-10.86721 7.5098,-15.87505c0,0 1.92157,-2.61921 4.93133,-0.85593c3.00973,1.76328 1.08814,4.38251 1.08814,4.38251c-3.63167,4.78597 -3.85737,10.85553 -7.5098,15.87505l-0.38315,2.00196c0,0 -0.87122,3.0424 -4.33416,2.19787z" fill="#bdc29f" stroke="none" stroke-width="0.5"/><path d="M227.50131,413.03128c-3.46294,-0.84456 -2.59169,-3.88696 -2.59169,-3.88696l0.27879,-0.97359c2.58982,-8.81742 7.26387,-13.59154 16.35277,-17.2605c0,0 3.21804,-1.29892 4.76567,1.579c1.54762,2.8779 -1.67042,4.17682 -1.67042,4.17682c-7.13371,2.87909 -10.53595,6.02963 -12.52212,13.19376l-0.27879,0.97359c0,0 -0.87122,3.0424 -4.33416,2.19787z" fill="#bdc29f" stroke="none" stroke-width="0.5"/><path d="M256.40116,383.78612l2.89783,-5.28716l12.96773,5.76776l-2.8978,5.28718z" fill="#663f3f" stroke="#000000" stroke-width="0.5"/><path d="M248.05437,384.30118l2.89788,-5.28718l12.96773,5.76776l-2.89785,5.28718z" fill="#663f3f" stroke="#000000" stroke-width="0.5"/><path d="M266.88186,382.811l2.89778,-5.28713l12.96776,5.76773l-2.89788,5.28718z" fill="#663f3f" stroke="#000000" stroke-width="0.5"/><path d="M262.63844,390.553l2.89785,-5.28718l12.96781,5.76771l-2.89788,5.28718z" fill="#663f3f" stroke="#000000" stroke-width="0.5"/><path d="M252.40106,376.37032l2.89785,-5.28718l12.96781,5.76776l-2.89788,5.28718z" fill="#663f3f" stroke="#000000" stroke-width="0.5"/><path d="M254.35575,394.38451l12.00535,-21.9041l6.91616,3.07612l-12.00532,21.90407z" fill="#663f3f" stroke="#000000" stroke-width="0.5"/><path d="M271.68105,407.28365c-3.68073,10.0084 -12.11876,7.08018 -20.48924,4.09244c-8.37045,-2.98773 -14.31279,-5.18038 -9.82292,-14.91203c5.36586,-11.63032 12.68339,-13.19186 21.05384,-10.20413c8.37045,2.98773 13.09782,10.5835 9.25832,21.02369z" fill="#d87700" stroke="#000000" stroke-width="0"/><path d="M268.49439,402.77251c-1.60746,5.61335 -7.99587,8.92367 -14.26895,7.39383c-6.27311,-1.52989 -10.05532,-7.32063 -8.44787,-12.93398c1.60746,-5.61335 7.99587,-8.92367 14.26895,-7.39383c6.27311,1.52989 10.05532,7.32063 8.44787,12.93398z" fill="#cbc700" stroke="#000000" stroke-width="0"/><path d="M291.48935,246.26048l6.77777,-5.85817l14.55403,13.15135l-6.77777,5.85819z" fill="#663f3f" stroke="#000000" stroke-width="0.5"/><path d="M294.40912,256.60214l6.77785,-5.85817l14.554,13.15135l-6.77777,5.85819z" fill="#663f3f" stroke="#000000" stroke-width="0.5"/><path d="M288.32392,233.12915l6.77777,-5.85819l14.554,13.15138l-6.77775,5.85817z" fill="#663f3f" stroke="#000000" stroke-width="0.5"/><path d="M278.39924,241.70726l6.77777,-5.85819l14.554,13.15138l-6.77782,5.85824z" fill="#663f3f" stroke="#000000" stroke-width="0.5"/><path d="M304.57589,247.81486l6.77782,-5.85824l14.554,13.1514l-6.77777,5.85819z" fill="#663f3f" stroke="#000000" stroke-width="0.5"/><path d="M283.02405,259.58092l28.0795,-24.26964l7.76213,7.01406l-28.07948,24.26966z" fill="#663f3f" stroke="#000000" stroke-width="0.5"/><path d="M297.65946,332.54873c-3.39344,38.45898 -13.69207,52.58503 -27.80485,51.04739c-14.11278,-1.53763 -25.45608,-16.59948 -22.06261,-55.05848c1.79589,-20.35357 9.47723,-52.80855 16.40938,-69.56299c6.16645,-14.90381 11.29814,-15.3747 17.94204,-14.65079c7.92337,0.86327 15.86281,0.7512 18.11247,21.05745c1.75727,15.86218 -1.10817,50.30069 -2.59641,67.16741z" fill="#d87700" stroke="#929292" stroke-width="1"/></g><path d="M275.95954,276.38193c-1.78374,1.78374 -3.56745,0 -3.56745,0l-1.32049,-1.91965c-1.29955,-6.50115 -3.40025,-12.46915 -5.01881,-18.80219c0,0 -0.61182,-2.44725 1.83545,-3.05907c2.44725,-0.61182 3.05907,1.83545 3.05907,1.83545c1.55284,6.38692 3.7605,12.48501 5.07148,19.03639l-0.0592,-0.65837c0,0 1.78374,1.78374 0,3.56745z" fill="#000000" stroke="none" stroke-width="0.5"/><path d="M269.13066,305.4997c-2.39503,0 -2.51611,-2.27397 -2.52224,-2.50388c-4.39561,-8.18933 -6.89616,-22.24361 -6.9374,-31.55084c0,0 0,-2.52257 2.52257,-2.52257c2.52257,0 2.52257,2.52257 2.52257,2.52257c-0.03721,6.89056 2.20425,14.82833 4.27795,21.25383c1.21926,3.7779 0.18387,5.05533 2.29963,8.34981l0.35949,1.92851c0,0 0,2.52257 -2.52257,2.52257z" fill="#000000" stroke="none" stroke-width="0.5"/><path d="M263.97732,332.50915c-1.78374,1.78374 -3.56745,0 -3.56745,0l-1.91186,-2.38355c-1.36068,-5.01331 -4.02724,-10.27711 -5.06593,-15.21731c-1.20697,-5.74049 -0.06748,-13.61245 -0.06748,-19.49885c0,0 0,-2.52257 2.52257,-2.52257c2.52257,0 2.52257,2.52257 2.52257,2.52257c0,5.40552 -1.22284,13.06748 -0.06748,18.33973c1.07103,4.88741 3.66893,10.07079 5.02436,15.05355l0.61071,0.13902c0,0 1.78374,1.78374 0,3.56745z" fill="#000000" stroke="none" stroke-width="0.5"/><path d="M260.82411,360.25744c-1.78374,1.78374 -3.56745,0 -3.56745,0l-0.86496,-0.90084c-8.90604,-11.89219 -7.76261,-23.88071 -9.31808,-37.81227c0,0 -0.27857,-2.50713 2.22857,-2.78573c2.50713,-0.27857 2.78573,2.22857 2.78573,2.22857c1.43269,12.95436 0.05232,24.30955 8.33993,35.34232l0.39632,0.36045c0,0 1.78374,1.78374 0,3.56745z" fill="#000000" stroke="none" stroke-width="0.5"/><path d="M263.34668,375.39287c-1.78374,1.78374 -3.56745,0 -3.56745,0l-1.18906,-1.47752c-2.531,-6.33963 -6.92494,-8.83155 -9.45964,-15.13543c0,0 -0.93686,-2.34216 1.4053,-3.27902c2.34216,-0.93686 3.27902,1.4053 3.27902,1.4053c2.39758,6.02229 6.86152,8.65184 9.45964,15.13543l0.07222,-0.21623c0,0 1.78374,1.78374 0,3.56745z" fill="#000000" stroke="none" stroke-width="0.5"/><path d="M284.05911,279.15068c-1.39927,-2.09891 0.69964,-3.49818 0.69964,-3.49818l1.19229,-0.56165c3.37606,-5.06396 6.73163,-9.32348 11.0361,-13.62797c0,0 1.78374,-1.78374 3.56745,0c1.78374,1.78374 0,3.56745 0,3.56745c-4.07259,4.07259 -7.20971,8.06486 -10.40576,12.85904l-2.59156,1.96092c0,0 -2.09891,1.39927 -3.49818,-0.69964z" fill="#000000" stroke="none" stroke-width="0.5"/><path d="M281.53654,305.00704c-1.39927,-2.09891 0.69964,-3.49818 0.69964,-3.49818l1.77766,-1.18044c6.44174,-4.57249 12.92712,-15.83194 14.16073,-23.62237c0,0 0.41471,-2.48824 2.90295,-2.07353c2.48824,0.41471 2.07353,2.90295 2.07353,2.90295c-1.62206,9.34812 -8.62954,21.00442 -16.11013,26.82906l-2.0062,1.34213c0,0 -2.09891,1.39927 -3.49818,-0.69964z" fill="#000000" stroke="none" stroke-width="0.5"/><path d="M274.44213,331.22289c-1.12812,-2.25626 1.12812,-3.38438 1.12812,-3.38438l0.87586,-0.39244c3.26348,-2.4424 6.80983,-4.7549 10.12886,-6.96543c2.38615,-1.58922 7.22404,-2.71971 8.73948,-5.50289c1.29789,-2.38365 1.97411,-6.73633 3.02973,-9.21046c0,0 0.99369,-2.31862 3.31229,-1.32493c2.31862,0.99369 1.32493,3.31229 1.32493,3.31229c-1.09157,2.53473 -1.87581,7.31755 -3.27669,9.70882c-3.63934,6.21234 -14.50658,9.71505 -20.23153,14.01869l-1.64671,0.86885c0,0 -2.25626,1.12812 -3.38438,-1.12812z" fill="#000000" stroke="none" stroke-width="0.5"/><path d="M268.50002,357.84306c0,-2.00131 1.58776,-2.41486 2.24393,-2.50032c6.3394,-11.77728 16.84235,-22.21692 25.51089,-31.96903c0,0 1.6759,-1.8854 3.56129,-0.2095c1.8854,1.6759 0.2095,3.56129 0.2095,3.56129c-8.65462,9.73645 -19.61718,20.34628 -25.48549,32.24566l-3.51755,1.39445c0,0 -2.52257,0 -2.52257,-2.52257z" fill="#000000" stroke="none" stroke-width="0.5"/><path d="M273.18085,372.21468c-1.12812,-2.25626 1.12812,-3.38438 1.12812,-3.38438l0.60569,-0.15811c7.03851,-6.664 16.16287,-6.88652 17.57516,-18.75358c0,0 0.35674,-2.49722 2.85396,-2.14048c2.49722,0.35674 2.14048,2.85396 2.14048,2.85396c-0.89314,5.56038 -4.83617,14.17398 -10.2421,17.05642c-2.87434,1.53261 -6.51664,2.0928 -8.76003,4.55115l-1.91688,1.10317c0,0 -2.25626,1.12812 -3.38438,-1.12812z" fill="#000000" stroke="none" stroke-width="0.5"/><path d="M279.14565,294.75992c-0.61182,2.44725 -3.05907,1.83545 -3.05907,1.83545l-3.4892,-1.11018c-2.72337,-4.72198 -4.20238,-6.94335 -3.43239,-12.4727c0,0 0.41471,-2.48824 2.90295,-2.07353c2.48824,0.41471 2.07353,2.90295 2.07353,2.90295c-0.75791,3.63447 0.47006,4.4118 1.61276,7.70787l1.55595,0.1511c0,0 2.44725,0.61182 1.83545,3.05907z" fill="#000000" stroke="none" stroke-width="0.5"/><path d="M279.7136,299.40024c-2.09891,-1.39927 -0.69964,-3.49818 -0.69964,-3.49818l1.10393,-1.62078c1.32463,-2.64751 2.55597,-5.34261 3.7215,-8.06393c0,0 0.99369,-2.31862 3.31229,-1.32493c2.31862,0.99369 1.32493,3.31229 1.32493,3.31229c-1.20571,2.81158 -2.47878,5.5962 -3.84622,8.33279l-1.41864,2.16308c0,0 -1.39927,2.09891 -3.49818,0.69964z" fill="#000000" stroke="none" stroke-width="0.5"/><path d="M269.96828,313.83604c-1.39927,2.09891 -3.49818,0.69964 -3.49818,0.69964l-2.65574,-2.06233c-1.31209,-2.29491 -2.1882,-4.96152 -2.25142,-7.60429c0,0 0,-2.52257 2.52257,-2.52257c2.52257,0 2.52257,2.52257 2.52257,2.52257c-0.0644,1.74474 0.589,3.53952 1.53244,5.00857l1.12812,0.46024c0,0 2.09891,1.39927 0.69964,3.49818z" fill="#000000" stroke="none" stroke-width="0.5"/><path d="M274.28402,319.26565c-1.78374,-1.78374 0,-3.56745 0,-3.56745l1.91965,-1.32049c5.32422,-1.02199 9.3267,-5.13364 12.26997,-9.64662c0,0 1.39927,-2.09891 3.49818,-0.69964c2.09891,1.39927 0.69964,3.49818 0.69964,3.49818c-3.8217,5.63119 -8.72416,10.40019 -15.47832,11.79524l0.65837,-0.0592c0,0 -1.78374,1.78374 -3.56745,0z" fill="#000000" stroke="none" stroke-width="0.5"/><path d="M265.11984,345.03455c-0.27955,0.68859 -0.90341,1.45694 -2.29559,1.45694c-1.82957,0 -2.33219,-1.32695 -2.47028,-2.05602l-1.20539,-1.20539c-1.89677,-2.10799 -2.52963,-5.25623 -2.63076,-8.09017c0,0 0,-2.52257 2.52257,-2.52257c2.52257,0 2.52257,2.52257 2.52257,2.52257c-0.08647,1.5534 -0.06291,3.55221 1.15309,4.52269l0.62951,0.62951c4.49189,-2.12983 9.04415,-4.13006 13.57028,-6.18739c0,0 2.29647,-1.04384 3.34031,1.25261c1.04384,2.29647 -1.25261,3.34031 -1.25261,3.34031c-4.63142,2.10519 -9.29136,4.14877 -13.88368,6.33688z" fill="#000000" stroke="none" stroke-width="0.5"/><path d="M270.41079,361.0716l2.42911,-0.60537c1.23049,-0.4108 2.46095,-0.82163 3.69143,-1.23243c0,0 2.39311,-0.79771 3.19083,1.59543c0.79771,2.39311 -1.59543,3.19083 -1.59543,3.19083c-1.29209,0.43005 -2.5842,0.8601 -3.87628,1.29014l-2.61603,0.65592c0,0 -0.39794,0.09949 -0.91297,0.05777c-0.11301,0.17877 -0.25705,0.35939 -0.43767,0.54001c-1.78374,1.78374 -3.56745,0 -3.56745,0l0.35538,-0.02124c-1.26129,-0.42044 -2.52257,-0.84085 -3.78386,-1.26129c0,0 -2.39311,-0.79771 -1.59543,-3.19083c0.79771,-2.39311 3.19083,-1.59543 3.19083,-1.59543c1.26129,0.42044 2.52257,0.84085 3.78386,1.26129l0.29898,0.22933c0.57283,-0.69613 1.4447,-0.9141 1.4447,-0.9141z" fill="#000000" stroke="none" stroke-width="0.5"/><path d="M284.68975,262.47799l1.10393,-1.62078c0.42044,-0.84085 0.84085,-1.68172 1.26129,-2.52257c0,0 1.12812,-2.25626 3.38438,-1.12812c2.25626,1.12812 1.12812,3.38438 1.12812,3.38438c-0.42044,0.84085 -0.84085,1.68172 -1.26129,2.52257l-1.41864,2.16308c0,0 -1.11278,1.66919 -2.84218,1.03811c0.20655,0.70423 0.37659,2.14287 -1.28179,2.97207c-2.25626,1.12812 -3.38438,-1.12812 -3.38438,-1.12812l-1.26129,-2.52257c0,0 -1.12812,-2.25626 1.12812,-3.38438c1.68899,-0.84451 2.74582,0.20753 3.17044,0.78992c0.12701,-0.34418 0.27327,-0.56357 0.27327,-0.56357z" fill="#000000" stroke="none" stroke-width="0.5"/></g><g><g><path d="M474.38857,412.88946l-0.18513,-0.9919c-1.30122,-7.2947 -4.24034,-10.66866 -10.69303,-14.01606c0,0 -2.91085,-1.51019 -1.23828,-4.28658c1.67257,-2.77637 4.58339,-1.2662 4.58339,-1.2662c8.22114,4.26564 12.22418,9.34668 13.96175,18.33435l0.18513,0.9919c0,0 0.57858,3.09969 -2.72834,3.71693c-3.30689,0.61725 -3.88549,-2.48241 -3.88549,-2.48241z" data-paper-data="{&quot;index&quot;:null}" fill="#bdc29f" stroke="none" stroke-width="0.5"/><path d="M466.94186,429.16305l-0.20279,-2.02716c-3.02774,-5.25941 -2.7665,-11.34398 -5.79299,-16.36846c0,0 -1.59464,-2.74542 1.35962,-4.3112c2.95426,-1.56581 4.54888,1.17963 4.54888,1.17963c2.96465,5.24327 2.71653,11.12757 5.79299,16.36846l0.9081,3.92421c0,0 0.57858,3.09969 -2.72834,3.71693c-3.30689,0.61725 -3.88549,-2.48241 -3.88549,-2.48241z" data-paper-data="{&quot;index&quot;:null}" fill="#bdc29f" stroke="none" stroke-width="0.5"/><path d="M454.32067,434.33352l0.20042,-1.31234c-1.19777,-6.41702 -2.51362,-12.73977 -3.02981,-19.2563c0,0 -0.24666,-3.14572 3.10138,-3.45148c3.34806,-0.30576 3.59474,2.83994 3.59474,2.83994c0.48895,6.30406 1.78878,12.42553 2.94752,18.6333l-0.11722,2.85275c0,0 -0.24075,3.15685 -3.58922,3.00388c-3.34851,-0.15297 -3.10776,-3.30979 -3.10776,-3.30979z" data-paper-data="{&quot;index&quot;:null}" fill="#bdc29f" stroke="none" stroke-width="0.5"/><path d="M440.63159,431.75643l0.31762,-4.16509c0.5058,-6.09945 -0.59906,-9.83604 2.66727,-15.58087c0,0 1.61399,-2.80606 4.55771,-1.35169c2.94369,1.45436 1.32967,4.2604 1.32967,4.2604c-2.74352,4.70288 -1.48675,7.73378 -1.85767,12.97805l-0.31762,4.16509c0,0 -0.24075,3.15685 -3.58922,3.00388c-3.34851,-0.15297 -3.10776,-3.30979 -3.10776,-3.30979z" data-paper-data="{&quot;index&quot;:null}" fill="#bdc29f" stroke="none" stroke-width="0.5"/><path d="M431.17224,424.43535l0.83828,-3.57166c1.26255,-5.22553 0.81832,-8.5968 4.40888,-13.18314c0,0 1.76979,-2.23795 4.10627,-0.62366c2.33646,1.61432 0.56667,3.85227 0.56667,3.85227c-2.99921,3.74615 -2.32854,6.5241 -3.35898,11.02462l-0.8383,3.57166c0,0 -0.63536,2.70707 -3.49674,2.17201c-2.86138,-0.53506 -2.22604,-3.24211 -2.22604,-3.24211z" data-paper-data="{&quot;index&quot;:null}" fill="#bdc29f" stroke="none" stroke-width="0.5"/><path d="M443.424,386.90768l-0.82486,-5.86798l13.40131,-1.95825l0.82486,5.86796z" fill="#663f3f" stroke="#000000" stroke-width="0.5"/><path d="M437.25361,391.65909l-0.82486,-5.86798l13.40126,-1.95825l0.82488,5.86798z" fill="#663f3f" stroke="#000000" stroke-width="0.5"/><path d="M450.98112,380.67037l-0.82486,-5.86796l13.40129,-1.95827l0.82486,5.86798z" fill="#663f3f" stroke="#000000" stroke-width="0.5"/><path d="M452.18893,389.26285l-0.82486,-5.86801l13.40129,-1.95827l0.82486,5.86798z" fill="#663f3f" stroke="#000000" stroke-width="0.5"/><path d="M436.01626,382.85713l-0.82486,-5.86798l13.40131,-1.95827l0.82486,5.86798z" fill="#663f3f" stroke="#000000" stroke-width="0.5"/><path d="M447.99442,396.71973l-3.41725,-24.31015l7.14738,-1.0444l3.41725,24.31013z" fill="#663f3f" stroke="#000000" stroke-width="0.5"/><path d="M449.75893,388.22302c8.20139,-1.96236 14.77011,0.47457 18.07703,12.69378c2.76703,10.22441 -3.0655,11.68874 -11.26689,13.6511c-8.20139,1.96236 -16.45693,3.85731 -18.43289,-6.54484c-2.06122,-10.85089 3.42141,-17.83771 11.62277,-19.80007z" data-paper-data="{&quot;index&quot;:null}" fill="#d87700" stroke="#000000" stroke-width="0"/><path d="M462.86919,400.73104c1.0675,5.71902 -2.92331,11.26169 -8.91373,12.37985c-5.99043,1.11816 -11.71202,-2.61159 -12.7795,-8.33062c-1.0675,-5.71902 2.92333,-11.26169 8.91373,-12.37985c5.99043,-1.11816 11.71202,2.61159 12.7795,8.33062z" fill="#cbc700" stroke="#000000" stroke-width="0"/><path d="M401.47504,257.02215l-6.692,-5.54638l12.96287,-13.78164l6.69203,5.54638z" fill="#663f3f" stroke="#000000" stroke-width="0.5"/><path d="M399.29569,267.47846l-6.692,-5.54638l12.96282,-13.78162l6.69206,5.54635z" fill="#663f3f" stroke="#000000" stroke-width="0.5"/><path d="M403.73274,243.76934l-6.692,-5.54633l12.96287,-13.78164l6.692,5.54638z" fill="#663f3f" stroke="#000000" stroke-width="0.5"/><path d="M413.53185,251.89096l-6.69206,-5.54643l12.96287,-13.78167l6.692,5.54638z" fill="#663f3f" stroke="#000000" stroke-width="0.5"/><path d="M390.03475,259.65541l-6.692,-5.54638l12.96284,-13.78169l6.69206,5.54643z" fill="#663f3f" stroke="#000000" stroke-width="0.5"/><path d="M416.21082,263.5126l-27.72415,-22.9779l6.91349,-7.35024l27.72415,22.97788z" fill="#663f3f" stroke="#000000" stroke-width="0.5"/><path d="M406.36775,268.80238c-0.61901,-20.35375 6.82358,-21.12263 14.12032,-22.85543c6.11845,-1.45298 10.98245,-1.55552 18.7503,12.51675c8.73246,15.81965 20.27159,47.10073 24.68167,67.05296c8.33306,37.70062 -0.25874,53.86992 -13.25536,56.95629c-12.99662,3.08637 -24.52596,-9.75791 -32.85899,-47.45853c-3.65458,-16.53417 -10.95444,-50.31274 -11.43797,-66.21204z" data-paper-data="{&quot;index&quot;:null}" fill="#d87700" stroke="#929292" stroke-width="1"/></g><path d="M424.00231,276.50135c-1.66119,1.89836 -3.55955,0.23717 -3.55955,0.23717l-2.01352,-1.76197c-5.34172,-4.67438 -7.80295,-8.2948 -9.32204,-15.34599c0,0 -0.52197,-2.46798 1.94601,-2.98995c2.46798,-0.52197 2.98995,1.94601 2.98995,1.94601c1.25112,6.04418 3.17612,8.62709 7.70847,12.59321l2.01352,1.76197c0,0 1.89836,1.66119 0.23717,3.55955z" fill="#000000" stroke="none" stroke-width="0.5"/><path d="M426.17823,275.06729c-1.27564,-2.17627 0.90063,-3.45189 0.90063,-3.45189l0.16593,0.48754c2.6457,-6.30827 5.19917,-12.506 2.94631,-19.30986c0,0 -0.77314,-2.40116 1.62802,-3.17433c2.40116,-0.77314 3.17433,1.62802 3.17433,1.62802c2.55375,8.11146 0.07073,15.25656 -3.0961,22.80745l-2.26721,1.91372c0,0 -2.17627,1.27564 -3.45189,-0.90063z" fill="#000000" stroke="none" stroke-width="0.5"/><path d="M425.1656,292.33331c0.1677,2.517 -2.3493,2.6847 -2.3493,2.6847l-3.71663,-0.49286c-4.46092,-3.90363 -7.83662,-8.09408 -10.83422,-13.20806c0,0 -1.27564,-2.17627 0.90063,-3.45189c2.17627,-1.27564 3.45189,0.90063 3.45189,0.90063c2.71931,4.63924 5.75747,8.42153 9.80408,11.96259l0.05885,-0.74441c0,0 2.517,-0.1677 2.6847,2.3493z" fill="#000000" stroke="none" stroke-width="0.5"/><path d="M433.43002,283.56614c-2.517,0.1677 -2.6847,-2.3493 -2.6847,-2.3493l0.14881,-1.77259c0.72721,-1.73389 1.45439,-3.46778 2.1816,-5.20169c0,0 0.97563,-2.32627 3.3019,-1.35064c2.32627,0.97563 1.35064,3.3019 1.35064,3.3019c-0.56622,1.35008 -1.13246,2.70016 -1.69867,4.05024c2.10486,-3.81824 4.47219,-7.45274 7.18418,-11.00343c0,0 1.53125,-2.00466 3.53591,-0.47341c2.00466,1.53125 0.47341,3.53591 0.47341,3.53591c-4.5514,5.95816 -8.06088,12.13592 -11.0056,19.16032l-1.01523,1.35674c0,0 -1.66119,1.89836 -3.55955,0.23717c-1.89836,-1.66119 -0.23717,-3.55955 -0.23717,-3.55955l0.15943,0.01438c0.88895,-2.11868 1.82939,-4.16974 2.83209,-6.16628c-0.26759,0.11584 -0.58662,0.19484 -0.967,0.22017z" fill="#000000" stroke="none" stroke-width="0.5"/><path d="M442.50641,323.03281c-1.37604,2.11422 -3.49026,0.73818 -3.49026,0.73818l-2.78918,-1.82291c-2.66177,-2.38 -6.07869,-4.25896 -9.12424,-6.23191c0,0 -1.52025,-0.98945 -1.14346,-2.57943c-0.02558,0.00272 -0.03943,0.00366 -0.03943,0.00366l-2.99601,0.154c-6.4426,-2.01473 -11.65852,-4.3554 -12.3152,-11.77468c0,0 -0.1677,-2.517 2.3493,-2.6847c2.517,-0.1677 2.6847,2.3493 2.6847,2.3493c0.14868,4.67185 4.03115,5.77972 7.90382,7.10351l2.03799,-0.1814c0,0 2.517,-0.1677 2.6847,2.3493c0.01428,0.21442 0.00908,0.41178 -0.01239,0.59346c0.87533,-0.03181 1.59802,0.43855 1.59802,0.43855c3.17188,2.07302 6.57756,3.99785 9.41706,6.43763l2.49636,1.61717c0,0 2.11422,1.37604 0.73818,3.49026z" fill="#000000" stroke="none" stroke-width="0.5"/><path d="M439.22323,309.59244c-1.27564,-2.17627 0.90063,-3.45189 0.90063,-3.45189l0.422,0.02177c3.91549,-5.62266 6.24811,-9.79066 4.11643,-16.41097c0,0 -0.77314,-2.40116 1.62802,-3.17433c2.40116,-0.77314 3.17433,1.62802 3.17433,1.62802c2.65029,8.23092 0.02545,13.9395 -4.77836,20.84008l-2.01115,1.44796c0,0 -2.17627,1.27564 -3.45189,-0.90063z" fill="#000000" stroke="none" stroke-width="0.5"/><path d="M436.15478,333.9479c0.1677,2.517 -2.3493,2.6847 -2.3493,2.6847l-1.24471,0.00744c-11.77405,-2.1262 -15.64721,-6.89424 -16.41541,-18.42408c0,0 -0.1677,-2.517 2.3493,-2.6847c2.517,-0.1677 2.6847,2.3493 2.6847,2.3493c0.62353,9.35851 2.66343,12.06246 12.27695,13.79446l0.01377,-0.07641c0,0 2.517,-0.1677 2.6847,2.3493z" fill="#000000" stroke="none" stroke-width="0.5"/><path d="M449.41092,333.6967c-0.1677,-2.517 2.3493,-2.6847 2.3493,-2.6847l2.35891,-0.02742c5.34061,-5.09701 3.75346,-8.7982 1.78469,-14.80447c0,0 -0.77314,-2.40116 1.62802,-3.17433c2.40116,-0.77314 3.17433,1.62802 3.17433,1.62802c2.78563,8.84737 3.31658,14.47833 -4.67697,21.02036l-3.93357,0.39183c0,0 -2.517,0.1677 -2.6847,-2.3493z" fill="#000000" stroke="none" stroke-width="0.5"/><path d="M453.80188,368.02812c1.53572,2.00123 -0.46554,3.53695 -0.46554,3.53695l-2.56644,1.78419c-3.1847,0.95737 -5.54893,0.42763 -8.78566,0.66084c0,0 -2.517,0.1677 -2.6847,-2.3493c-0.06339,-0.95156 0.25692,-1.56737 0.67988,-1.96526c-10.61904,-1.42394 -18.04597,-12.47112 -18.80118,-23.37309c0,0 -0.1677,-2.517 2.3493,-2.6847c2.517,-0.1677 2.6847,2.3493 2.6847,2.3493c0.63755,10.01375 8.52695,21.396 19.68676,18.3307l-0.65297,0.10285c0,0 1.66119,-1.89836 3.55955,-0.23717c1.89836,1.66119 0.23717,3.55955 0.23717,3.55955l-1.53191,1.21136c0.5618,-0.07373 1.12983,-0.20024 1.71278,-0.40745l1.04134,-0.98433c0,0 2.00123,-1.53572 3.53695,0.46554z" fill="#000000" stroke="none" stroke-width="0.5"/><path d="M453.09082,358.84162c1.66119,-1.89836 3.55955,-0.23717 3.55955,-0.23717l1.87478,1.64898c1.33182,2.81216 4.64933,-9.7057 4.43501,-12.92253c0,0 -0.1677,-2.517 2.3493,-2.6847c2.517,-0.1677 2.6847,2.3493 2.6847,2.3493c0.42467,6.37388 -0.61412,10.34065 -4.47704,15.6634c-0.99087,1.36534 -1.6958,3.46109 -3.34965,3.7939c-1.68879,0.33984 -3.12479,-1.45111 -4.68719,-2.17668l-2.15228,-1.87495c0,0 -1.89836,-1.66119 -0.23717,-3.55955z" fill="#000000" stroke="none" stroke-width="0.5"/><path d="M450.42534,352.71677c-0.2149,-0.13985 -0.39372,-0.28735 -0.54162,-0.43946c-0.41191,1.64068 -2.27745,1.76497 -2.27745,1.76497l-1.25849,0.08385c-7.70908,0.29527 -7.4265,-3.29236 -12.39995,-7.4988c0,0 -1.89836,-1.66119 -0.23717,-3.55955c1.66119,-1.89836 3.55955,-0.23717 3.55955,-0.23717c3.71577,3.33545 3.48211,6.84172 8.74217,6.26155l1.25849,-0.08385c0,0 1.34029,-0.0893 2.12996,0.8405c0.12694,-0.37735 0.28634,-0.62224 0.28634,-0.62224l1.65196,-2.53203c1.98814,-3.88113 3.69479,-6.31294 6.6187,-9.66655c0,0 1.66119,-1.89836 3.55955,-0.23717c1.89836,1.66119 0.23717,3.55955 0.23717,3.55955c-2.813,3.2018 -4.14829,5.16943 -6.05084,8.87474l-1.78813,2.75351c0,0 -1.37604,2.11422 -3.49026,0.73818z" fill="#000000" stroke="none" stroke-width="0.5"/><path d="M443.41267,319.5594c-0.073,-1.09586 0.36287,-1.7464 0.87838,-2.13165c0.10191,-0.9924 0.11924,-1.99525 0.0447,-2.9862c0,0 -0.1677,-2.517 2.3493,-2.6847c2.517,-0.1677 2.6847,2.3493 2.6847,2.3493c0.11367,1.89687 -0.00318,3.81912 -0.32831,5.69138l-2.94407,2.11114c0,0 -2.517,0.1677 -2.6847,-2.3493z" fill="#000000" stroke="none" stroke-width="0.5"/><path d="M437.47317,304.40694c-1.37604,2.11422 -3.49026,0.73818 -3.49026,0.73818l-2.44735,-1.60501c-2.23071,-0.92609 -4.50955,-1.73356 -6.78809,-2.53478c0,0 -2.37954,-0.83734 -1.5422,-3.21688c0.83734,-2.37954 3.21688,-1.5422 3.21688,-1.5422c2.51349,0.88512 5.02022,1.79756 7.47461,2.83535l2.8382,1.83507c0,0 2.11422,1.37604 0.73818,3.49026z" fill="#000000" stroke="none" stroke-width="0.5"/><path d="M439.67984,301.47892c-2.517,0.1677 -2.6847,-2.3493 -2.6847,-2.3493l-0.09129,-2.5032c0.15385,-0.85298 0.3077,-1.70594 0.46155,-2.55892c0,0 0.44776,-2.48251 2.93027,-2.03476c2.48251,0.44776 2.03476,2.93027 2.03476,2.93027c-0.15385,0.85298 -0.3077,1.70594 -0.46155,2.55892l0.16026,1.27228c0,0 0.1677,2.517 -2.3493,2.6847z" fill="#000000" stroke="none" stroke-width="0.5"/><path d="M428.75073,283.74446c-0.97563,2.32627 -3.3019,1.35064 -3.3019,1.35064l-2.80581,-1.1878c-1.59886,-1.04061 -3.27654,-1.98292 -5.03864,-2.71383c0,0 -2.32627,-0.97563 -1.35064,-3.3019c0.97563,-2.32627 3.3019,-1.35064 3.3019,-1.35064c1.89579,0.80256 3.72319,1.78487 5.44858,2.90784l2.39586,0.99377c0,0 2.32627,0.97563 1.35064,3.3019z" fill="#000000" stroke="none" stroke-width="0.5"/><path d="M422.71729,262.99794c-2.00123,1.53572 -3.53695,-0.46554 -3.53695,-0.46554l-1.90003,-3.17191c-0.08385,-1.25849 -0.1677,-2.517 -0.25155,-3.77548c0,0 -0.1677,-2.517 2.3493,-2.6847c2.517,-0.1677 2.6847,2.3493 2.6847,2.3493c0.08385,1.25849 0.1677,2.517 0.25155,3.77548l0.86852,0.43588c0,0 1.53572,2.00123 -0.46554,3.53695z" fill="#000000" stroke="none" stroke-width="0.5"/></g><g><g><g stroke="#929292" stroke-width="1"><path d="M402.43604,285.39046c0.46325,64.31723 -7.42067,146.56372 -49.85021,147.83961c-43.3734,1.30427 -47.00929,-78.77563 -47.47253,-143.09283c-0.46325,-64.31723 15.56064,-76.21693 45.79502,-76.36672c30.23439,-0.14982 51.0645,7.30274 51.52774,71.61998z" fill="#d87700"/><path d="M381.37496,308.97406c0.29693,41.54888 -4.75661,94.68001 -31.95362,95.50424c-27.80202,0.84254 -30.1326,-50.88898 -30.42953,-92.43783c-0.29693,-41.54888 9.97425,-49.23606 29.35428,-49.33285c19.38004,-0.09677 32.73198,4.71756 33.02892,46.26644z" fill="#bdc29f"/></g><g fill="#000000" stroke="none" stroke-width="0.5"><path d="M368.52089,252.99988c-3.6709,-0.91774 -2.75316,-4.58858 -2.75316,-4.58858l0.71184,-2.80142c2.93519,-8.80552 7.50359,-14.79811 13.24784,-21.97841c0,0 2.36375,-2.95471 5.31846,-0.59094c2.95469,2.36378 0.59094,5.31844 0.59094,5.31844c-5.21305,6.51631 -9.32804,11.69457 -11.97785,19.64402l-0.54947,2.24373c0,0 -0.91771,3.6709 -4.58861,2.75316z"/><path d="M367.11577,281.09232c-3.38438,-1.69219 -1.69219,-5.0766 -1.69219,-5.0766l0.86665,-1.668c7.18817,-10.74275 17.40953,-20.85226 23.09778,-32.38672c0,0 1.69222,-3.38438 5.0766,-1.69219c3.38438,1.69219 1.69219,5.07657 1.69219,5.07657c-6.00405,11.87276 -16.18245,22.08232 -23.5698,33.20015l-0.39463,0.85457c0,0 -1.69219,3.38438 -5.07657,1.69222z"/><path d="M364.0151,302.17686c-3.02709,-2.27031 -0.75677,-5.2974 -0.75677,-5.2974l2.82011,-3.4006c9.96547,-6.63197 21.95561,-14.38537 29.41508,-23.81045c0,0 2.36375,-2.95471 5.31844,-0.59094c2.95469,2.36378 0.59094,5.31844 0.59094,5.31844c-8.09952,10.03494 -20.4405,18.24392 -31.12664,25.37967l-0.96375,1.64454c0,0 -2.27031,3.02709 -5.2974,0.75677z"/><path d="M361.90918,322.05841c0.14707,0.91143 -0.05189,2.00608 -1.14653,3.10075c-2.67559,2.67559 -5.35118,0 -5.35118,0l-1.10342,-5.40514c4.06775,-6.1016 10.66422,-15.84902 17.90784,-18.49552c7.71798,-2.81981 18.26423,-0.26199 24.1874,-6.67624c0,0 2.67559,-2.67559 5.35118,0c2.67559,2.67559 0,5.35118 0,5.35118c-7.79013,7.40862 -17.06093,5.38001 -26.65289,8.32101c-2.22546,0.68236 -3.45431,3.62156 -4.92136,4.96397c-3.78025,3.45908 -5.71443,5.26728 -8.27098,8.84z"/><path d="M354.3032,350.8625c-3.78386,0 -3.78386,-3.78386 -3.78386,-3.78386l0.19419,-2.45784c1.40585,-4.18631 3.14789,-10.20501 7.22192,-12.70894c3.10153,-1.90621 7.30817,-1.43557 10.60305,-2.79839c6.15101,-2.54419 11.45036,-9.69994 16.26136,-13.42081c4.10531,-3.17511 8.28493,-3.20498 12.23407,-7.23625c0,0 2.67559,-2.67559 5.35118,0c2.67559,2.67559 0,5.35118 0,5.35118c-3.9787,3.91397 -9.26006,4.78383 -12.99167,7.89918c-5.08616,4.24622 -11.20438,11.43343 -17.79336,14.32748c-3.00234,1.3187 -6.67447,0.72188 -9.57752,2.24675c-2.24131,1.17728 -3.4446,6.66014 -4.12965,8.73292l0.19419,0.06473c0,0 0,3.78386 -3.78386,3.78386z"/><path d="M358.56468,359.84452c-2.67559,-2.67559 0,-5.35118 0,-5.35118l0.63064,-0.63064c10.55207,-10.15449 28.07817,-12.83492 35.23786,-27.39553c0,0 1.69219,-3.38438 5.07657,-1.69219c3.38438,1.69219 1.69219,5.07657 1.69219,5.07657c-4.65732,9.19008 -14.07234,16.27407 -22.75516,21.65512c-5.49701,3.40668 -9.64909,3.21575 -13.90028,7.70721l-0.63064,0.63064c0,0 -2.67559,2.67559 -5.35118,0z"/><path d="M400.85779,350.57543c0.91771,3.67087 -2.75316,4.58861 -2.75316,4.58861l-1.94975,0.43767c-5.51003,2.35916 -9.09097,5.94033 -14.18707,8.67492c-4.10743,2.20407 -7.23688,1.56382 -11.06092,4.23903c0,0 -3.14837,2.09891 -5.24728,-1.04947c-2.09891,-3.14837 1.04947,-5.24728 1.04947,-5.24728c4.10786,-2.64595 7.69069,-2.38111 11.64222,-4.58997c5.19829,-2.90578 9.12999,-6.54121 14.82251,-8.98308l3.0954,-0.82362c0,0 3.67087,-0.91771 4.58861,2.75316z"/><path d="M361.81605,389.42407c-3.24463,-1.94677 -1.29786,-5.1914 -1.29786,-5.1914l2.46097,-3.88204c2.54729,-2.46556 5.87701,-3.99003 9.0045,-5.65934c5.29405,-2.82573 8.25585,-9.01118 13.57025,-11.51688c3.13624,-1.47871 6.79692,-1.37763 10.18153,-2.13059c0,0 3.69375,-0.82084 4.5146,2.87291c0.82084,3.69375 -2.87291,4.5146 -2.87291,4.5146c-2.89382,0.64237 -6.00897,0.49541 -8.73776,1.65327c-4.65533,1.9753 -8.1272,8.586 -12.91675,11.18627c-2.52474,1.37069 -5.409,2.3525 -7.39222,4.43095l-1.32289,2.42439c0,0 -1.94677,3.24463 -5.1914,1.29786z"/><path d="M361.12883,411.33167c-3.71038,-0.74206 -2.96831,-4.45247 -2.96831,-4.45247l0.95663,-4.10334c3.89596,-7.70414 8.9237,-8.27795 14.72344,-13.72973c0.58367,-0.54866 5.84248,-7.95725 7.09335,-8.9625c3.6596,-2.94102 10.40367,-5.59295 14.3464,-7.89356c0,0 3.26842,-1.90658 5.17498,1.36184c1.90658,3.26842 -1.36184,5.17498 -1.36184,5.17498c-3.59111,2.09421 -9.99627,4.53591 -13.40189,7.24187c-2.8778,2.28659 -4.08654,6.19528 -6.7808,8.69551c-5.37734,4.99 -9.68408,4.7216 -13.02485,11.49599l-0.30465,2.20309c0,0 -0.74206,3.71038 -4.45247,2.96831z"/><path d="M355.41147,424.17103c-2.67559,-2.67559 0,-5.35118 0,-5.35118l2.24469,-1.97008c3.65624,-1.7882 8.72986,-2.08665 11.92621,-4.60334c6.41538,-5.0512 12.31938,-11.47051 16.02181,-18.93019c0,0 1.69219,-3.38438 5.07657,-1.69219c3.38438,1.69219 1.69219,5.07657 1.69219,5.07657c-4.11096,8.16953 -10.68531,16.1097 -18.03291,21.43096c-4.43345,3.21078 -8.72169,3.13205 -13.2995,5.48695l-0.27789,0.55249c0,0 -2.67559,2.67559 -5.35118,0z"/></g><g data-paper-data="{&quot;index&quot;:null}" fill="#000000" stroke="none" stroke-width="0.5"><path d="M334.94713,249.61608l-0.54944,-2.24373c-2.64981,-7.94946 -6.76481,-13.12772 -11.97788,-19.64402c0,0 -2.36378,-2.95469 0.59094,-5.31844c2.95469,-2.36378 5.31844,0.59094 5.31844,0.59094c5.74422,7.1803 10.31265,13.17287 13.24784,21.97841l0.71184,2.80142c0,0 0.91771,3.67087 -2.75316,4.58858c-3.6709,0.91774 -4.58861,-2.75316 -4.58861,-2.75316z"/><path d="M335.86426,278.76947l-0.39461,-0.85457c-7.38735,-11.11783 -17.56575,-21.32736 -23.5698,-33.20015c0,0 -1.69219,-3.38438 1.69219,-5.07657c3.38438,-1.69219 5.0766,1.69219 5.0766,1.69219c5.68822,11.53448 15.90958,21.64397 23.09775,32.38672l0.86668,1.668c0,0 1.69219,3.38441 -1.69219,5.0766c-3.38438,1.69219 -5.0766,-1.69222 -5.0766,-1.69222z"/><path d="M338.74413,300.78945l-0.96375,-1.64454c-10.68614,-7.13578 -23.02712,-15.34475 -31.12664,-25.37967c0,0 -2.36378,-2.95469 0.59094,-5.31844c2.95469,-2.36378 5.31844,0.59094 5.31844,0.59094c7.45947,9.42508 19.44958,17.17849 29.41505,23.81045l2.82011,3.4006c0,0 2.27031,3.02709 -0.75677,5.2974c-3.02709,2.27031 -5.2974,-0.75677 -5.2974,-0.75677z"/><path d="M337.87647,312.58777c-1.46705,-1.34241 -2.6959,-4.28161 -4.92136,-4.96397c-9.59198,-2.94099 -18.86278,-0.91239 -26.65291,-8.32101c0,0 -2.67559,-2.67559 0,-5.35118c2.67559,-2.67559 5.35118,0 5.35118,0c5.92318,6.41424 16.46942,3.85643 24.18738,6.67624c7.24362,2.64651 13.84009,12.39392 17.90784,18.49552l-1.10342,5.40514c0,0 -2.67559,2.67559 -5.35118,0c-1.09464,-1.09464 -1.2936,-2.18931 -1.14653,-3.10075c-2.55658,-3.57272 -4.49073,-5.38092 -8.27098,-8.84z"/><path d="M349.96957,346.448l0.19419,-0.06473c-0.68505,-2.0728 -1.88835,-7.55563 -4.12963,-8.73292c-2.90305,-1.52487 -6.57518,-0.92805 -9.57752,-2.24675c-6.58898,-2.89407 -12.70723,-10.08128 -17.79336,-14.32748c-3.73162,-3.11535 -9.01297,-3.98521 -12.99167,-7.89918c0,0 -2.67559,-2.67559 0,-5.35118c2.67559,-2.67559 5.35118,0 5.35118,0c3.94911,4.03127 8.12874,4.06114 12.23407,7.23625c4.81097,3.72087 10.11032,10.87662 16.26133,13.42081c3.29488,1.36284 7.50152,0.89218 10.60305,2.79839c4.07403,2.50393 5.81607,8.52263 7.22192,12.70894l0.19416,2.45784c0,0 0,3.78386 -3.78386,3.78386c-3.78386,0 -3.78386,-3.78386 -3.78386,-3.78386z"/><path d="M344.14077,359.21388l-0.63064,-0.63064c-4.25119,-4.49146 -8.40327,-4.30053 -13.90028,-7.70721c-8.68282,-5.38102 -18.09784,-12.46504 -22.75516,-21.65512c0,0 -1.69219,-3.38438 1.69219,-5.07657c3.38438,-1.69219 5.0766,1.69219 5.0766,1.69219c7.15966,14.56061 24.68576,17.24105 35.23783,27.39553l0.63064,0.63064c0,0 2.67559,2.67559 0,5.35118c-2.67559,2.67559 -5.35118,0 -5.35118,0z"/><path d="M311.78745,347.19163l3.0954,0.82359c5.69251,2.4419 9.62422,6.07733 14.82251,8.98308c3.95153,2.20886 7.53437,1.94402 11.64222,4.58997c0,0 3.14837,2.09891 1.04947,5.24725c-2.09891,3.14837 -5.24728,1.04947 -5.24728,1.04947c-3.82402,-2.67524 -6.95347,-2.03496 -11.0609,-4.23903c-5.09607,-2.73459 -8.67704,-6.31574 -14.18707,-8.67492l-1.94975,-0.43769c0,0 -3.67087,-0.91771 -2.75316,-4.58858c0.91774,-3.6709 4.58861,-2.75316 4.58861,-2.75316z"/><path d="M341.04918,387.49556l-1.32291,-2.42439c-1.98322,-2.07845 -4.86748,-3.06026 -7.39222,-4.43095c-4.78956,-2.60027 -8.26145,-9.21097 -12.91675,-11.18627c-2.72879,-1.15784 -5.84394,-1.01087 -8.73776,-1.65324c0,0 -3.69375,-0.82084 -2.87291,-4.5146c0.82082,-3.69375 4.5146,-2.87291 4.5146,-2.87291c3.38461,0.75299 7.04527,0.65188 10.1815,2.13059c5.31438,2.5057 8.2762,8.69114 13.57025,11.51688c3.12746,1.66931 6.45718,3.19378 9.0045,5.65934l2.46097,3.88204c0,0 1.94679,3.24463 -1.29786,5.19143c-3.24463,1.94679 -5.1914,-1.29786 -5.1914,-1.29786z"/><path d="M342.47534,407.73272l-0.30465,-2.20309c-3.34077,-6.77437 -7.6475,-6.50599 -13.02485,-11.49597c-2.69426,-2.5002 -3.90302,-6.40895 -6.7808,-8.69551c-3.4056,-2.70596 -9.81079,-5.14766 -13.40189,-7.24187c0,0 -3.2684,-1.90658 -1.36184,-5.17501c1.90658,-3.26842 5.17498,-1.36184 5.17498,-1.36184c3.94273,2.30061 10.6868,4.95254 14.3464,7.89356c1.25087,1.00524 6.50965,8.41386 7.09335,8.96252c5.79972,5.45181 10.82748,6.02562 14.72344,13.72973l0.95663,4.10332c0,0 0.74206,3.71038 -2.96831,4.45247c-3.71038,0.74206 -4.45244,-2.96831 -4.45244,-2.96831z"/><path d="M347.29398,423.54039l-0.27789,-0.55249c-4.57781,-2.35492 -8.86603,-2.27619 -13.2995,-5.48695c-7.3476,-5.32124 -13.92197,-13.26144 -18.03293,-21.43096c0,0 -1.69219,-3.38438 1.69219,-5.07657c3.38438,-1.69219 5.0766,1.69219 5.0766,1.69219c3.7024,7.4597 9.60641,13.87899 16.02179,18.93019c3.19638,2.51669 8.27,2.81514 11.92621,4.60334l2.24469,1.97008c0,0 2.67559,2.67559 0,5.35118c-2.67559,2.67559 -5.35118,0 -5.35118,0z"/></g></g><path d="M348.35359,227.6615c0,-3.48294 2.82349,-6.30643 6.30643,-6.30643c3.48294,0 6.30643,2.82349 6.30643,6.30643c0,3.48294 -2.82349,6.30643 -6.30643,6.30643c-3.48294,0 -6.30643,-2.82349 -6.30643,-6.30643z" fill="#ff0000" stroke="none" stroke-width="0.5"/><path d="M345.83102,285.68066l6.30643,-55.49658l4.4145,0.63064l3.15321,54.86594l-7.56772,11.98222z" fill="#ff0000" stroke="none" stroke-width="NaN"/></g></g><path d="M159.69444,422.15624v-158h379v158z" fill="url(#color-2)" stroke="#000000" stroke-width="0"/><path d="M333.69444,405.65624v-422h168v422z" fill="url(#color-3)" stroke="#000000" stroke-width="0"/><path d="M-24,373.5v-387h528v387z" fill="url(#color-4)" stroke="#000000" stroke-width="2"/></g></g></svg>