<svg version="1.1" xmlns="http://www.w3.org/2000/svg" xmlns:xlink="http://www.w3.org/1999/xlink" width="77.26784" height="221.45702" viewBox="0,0,77.26784,221.45702"><g transform="translate(-201.36608,-69.02149)"><g data-paper-data="{&quot;isPaintingLayer&quot;:true}" fill-rule="nonzero" stroke-linecap="butt" stroke-linejoin="miter" stroke-miterlimit="10" stroke-dasharray="" stroke-dashoffset="0" style="mix-blend-mode: normal"><g><path d="M249.83986,167.34918c0,6.92138 -0.32617,15.53649 -0.88021,23.21191c-0.64138,8.88542 -2.22919,16.65688 -3.32886,21.40958c-1.61079,6.96177 -3.46795,3.66997 -5.72701,3.66997c-2.0635,0 -3.11523,1.20751 -4.65748,-4.7031c-2.2945,-8.7936 -4.63756,-27.63844 -4.63756,-43.58837c0,-13.85797 2.40561,-35.11344 4.20524,-43.92011c1.66389,-8.14238 2.62364,-4.37135 5.0898,-4.37135c2.53172,0 2.90392,-3.07483 4.58024,5.45477c1.03317,5.25708 3.16395,14.7541 4.19101,24.43037c0.68546,6.45798 1.16483,12.9958 1.16483,18.40632z" fill="#7a7a7a" stroke="none" stroke-width="0"/><path d="M241.00828,123.78174c-22.39614,0 -21.76431,-17.0767 -21.76431,-38.19308c0,-4.13739 0.13866,-10.26165 6.17692,-13.486c4.56725,-2.43885 9.26165,-2.58117 15.58741,-2.58117c6.64636,0 12.35371,2.32312 16.36742,6.85552c3.90818,4.41323 3.97595,9.11686 3.97595,13.43259c0,0 2.05275,33.97214 -20.34339,33.97214z" fill="#7a7a7a" stroke="#929292" stroke-width="1"/><path d="M231.74895,109.75636v-15.88166h3.32759v15.88166z" fill="#440000" stroke="none" stroke-width="0"/><path d="M244.20948,109.66281v-15.88166h3.32759v15.88166z" fill="#440000" stroke="none" stroke-width="0"/><path d="M254.45543,105.884c0,8.85818 0.70254,11.50154 -15.03655,11.50154c-15.7391,0 -15.64157,-2.79461 -15.64157,-11.65279c0,-8.85818 0.05373,3.01883 15.79282,3.01883c15.7391,0 14.8853,-11.72576 14.8853,-2.86758z" fill="#000000" stroke="#929292" stroke-width="0"/><path d="M237.51757,92.57048c0,2.83228 -0.7106,3.6727 -4.6172,3.6727c-3.9066,0 -4.52622,-0.93139 -4.52622,-3.76368c0,-2.83228 0.7106,-5.94707 4.61719,-5.94707c3.9066,0 4.52622,3.20577 4.52622,6.03805z" fill="#000000" stroke="none" stroke-width="0"/><path d="M250.153,92.13328c0,2.83228 -0.7106,3.6727 -4.6172,3.6727c-3.9066,0 -4.52622,-0.93139 -4.52622,-3.76368c0,-2.83228 0.7106,-5.94707 4.61719,-5.94707c3.9066,0 4.52622,3.20577 4.52622,6.03805z" fill="#000000" stroke="none" stroke-width="0"/><path d="M251.54322,101.39274c0,-1.61157 1.30643,-2.918 2.918,-2.918c1.61157,0 2.91799,1.30643 2.91799,2.918c0,1.61157 -1.30643,2.91799 -2.91799,2.91799c-1.61157,0 -2.918,-1.30643 -2.918,-2.91799z" fill="#883e3e" stroke="none" stroke-width="0"/><path d="M221.14794,100.95555c0,-1.61157 1.30643,-2.918 2.918,-2.918c1.61157,0 2.91799,1.30643 2.91799,2.918c0,1.61157 -1.30643,2.91799 -2.91799,2.91799c-1.61157,0 -2.918,-1.30643 -2.918,-2.91799z" fill="#883e3e" stroke="none" stroke-width="0"/><path d="M231.6268,229.95883c0.95117,-8.63163 2.40888,-17.0748 3.14748,-21.75224c1.19839,-7.58914 1.22226,-4.8285 2.4042,-4.76411c1.15133,0.06272 1.78322,-3.28696 2.1631,4.04068c0.41087,7.92545 0.4978,27.00476 -0.17773,39.40405c-0.7775,14.27104 -2.78999,31.07268 -4.28984,38.88231c-1.00812,5.24923 -1.44027,4.14207 -2.40362,4.08959c-1.05465,-0.05746 -2.08213,2.8406 -2.49477,-3.42934c-0.2817,-4.2804 -0.64414,-11.27422 -0.51044,-19.24068c0.11549,-6.88159 0.38318,-14.59817 0.72057,-20.79101c0.26374,-4.84101 0.80624,-10.67847 1.44105,-16.43925z" fill="#7a7a7a" stroke="none" stroke-width="0"/><path d="M251.73238,246.39808c0.33739,6.19284 0.60507,13.90942 0.72057,20.79101c0.1337,7.96646 -0.22874,14.96027 -0.51045,19.24068c-0.41264,6.26994 -1.44012,3.37189 -2.49477,3.42934c-0.96335,0.05248 -1.3955,1.15963 -2.40362,-4.08959c-1.49985,-7.80963 -3.51234,-24.61126 -4.28985,-38.8823c-0.67553,-12.39929 -0.5886,-31.47859 -0.17773,-39.40405c0.37987,-7.32764 1.01177,-3.97796 2.1631,-4.04069c1.18194,-0.06439 1.20582,-2.82503 2.4042,4.7641c0.7386,4.67744 2.19631,13.12061 3.14749,21.75224c0.63481,5.76078 1.17731,11.59824 1.44105,16.43925z" data-paper-data="{&quot;index&quot;:null}" fill="#7a7a7a" stroke="none" stroke-width="0"/><path d="M217.57103,168.10852c1.52177,-4.60317 3.57341,-10.09508 5.69407,-15.48881c3.17748,-8.08167 6.79452,-15.84885 8.73177,-20.16985c3.14318,-7.01081 2.44358,-4.34018 3.56745,-3.96864c1.09477,0.36192 2.58147,-2.70555 1.02996,4.46602c-1.67808,7.75665 -6.58853,26.19344 -10.48624,37.98354c-4.4861,13.5699 -10.82653,29.25887 -14.3184,36.40357c-2.34704,4.80229 -2.47431,3.62063 -3.39033,3.3178c-1.00284,-0.33153 -2.7531,2.19651 -1.51009,-3.96282c0.8486,-4.2049 2.32955,-11.04973 4.54395,-18.7034c1.91284,-6.61141 4.19115,-13.98885 6.13786,-19.87743z" fill="#7a7a7a" stroke="none" stroke-width="0"/><path d="M262.05012,168.53585c1.94671,5.88858 4.22501,13.26603 6.13786,19.87743c2.2144,7.65368 3.69535,14.4985 4.54395,18.7034c1.24302,6.15933 -0.50725,3.63129 -1.51008,3.96281c-0.91602,0.30283 -1.04329,1.48449 -3.39034,-3.3178c-3.49186,-7.1447 -9.8323,-22.83367 -14.3184,-36.40357c-3.89771,-11.7901 -8.80816,-30.22689 -10.48624,-37.98354c-1.55151,-7.17157 -0.06481,-4.10411 1.02995,-4.46602c1.12387,-0.37154 0.42427,-3.04217 3.56745,3.96864c1.93725,4.321 5.55429,12.08819 8.73177,20.16985c2.12067,5.39373 4.17231,10.88564 5.69407,15.4888z" data-paper-data="{&quot;index&quot;:null}" fill="#7a7a7a" stroke="none" stroke-width="0"/><path d="M241.09868,138.95323c0,0.82608 -0.47834,1.49575 -1.0684,1.49575c-0.59006,0 -1.0684,-0.66967 -1.0684,-1.49575c0,-0.82608 0.47834,-1.49575 1.0684,-1.49575c0.59006,0 1.0684,0.66967 1.0684,1.49575z" fill="#343434" stroke="none" stroke-width="0"/><path d="M241.52604,158.18434c0,0.82608 -0.47834,1.49576 -1.06839,1.49576c-0.59006,0 -1.0684,-0.66968 -1.0684,-1.49576c0,-0.82608 0.47834,-1.49575 1.0684,-1.49575c0.59006,0 1.06839,0.66967 1.06839,1.49575z" fill="#343434" stroke="none" stroke-width="0"/><path d="M241.4192,174.53079c0,0.82608 -0.47834,1.49576 -1.06839,1.49576c-0.59006,0 -1.0684,-0.66968 -1.0684,-1.49576c0,-0.82608 0.47834,-1.49575 1.0684,-1.49575c0.59006,0 1.06839,0.66967 1.06839,1.49575z" fill="#343434" stroke="none" stroke-width="0"/><path d="M204.89311,210.33514c0.43494,-0.67661 0.99177,-1.47409 1.55564,-2.25294c0.84487,-1.16698 1.74734,-2.26525 2.23736,-2.87934c0.79506,-0.99635 0.57216,-0.59622 0.73736,-0.49003c0.16092,0.10344 0.52669,-0.32788 -0.01929,0.76015c-0.59051,1.17679 -2.14222,3.93579 -3.25622,5.66879c-1.28217,1.99461 -2.94994,4.25296 -3.80655,5.2564c-0.57577,0.67446 -0.54733,0.47934 -0.68197,0.39279c-0.14741,-0.09475 -0.5332,0.239 -0.07867,-0.69916c0.31031,-0.64047 0.83143,-1.67893 1.50385,-2.81699c0.58086,-0.98308 1.25212,-2.07412 1.80851,-2.93967z" fill="#7a7a7a" stroke="none" stroke-width="0"/><path d="M206.80249,214.35593c0.16207,-0.78785 0.39433,-1.73236 0.63985,-2.66202c0.36789,-1.39295 0.81426,-2.74255 1.05023,-3.49191c0.38287,-1.21583 0.31904,-0.76227 0.51139,-0.7227c0.18737,0.03854 0.37325,-0.49557 0.25577,0.71608c-0.12706,1.3105 -0.58098,4.4432 -0.99609,6.46112c-0.47777,2.32254 -1.22027,5.02999 -1.65801,6.2746c-0.29423,0.83656 -0.33797,0.64429 -0.49475,0.61204c-0.17164,-0.0353 -0.41134,0.415 -0.32519,-0.62391c0.05882,-0.70925 0.17097,-1.8657 0.38839,-3.16957c0.18782,-1.12631 0.4211,-2.38589 0.62842,-3.39374z" fill="#7a7a7a" stroke="none" stroke-width="0"/><path d="M210.0835,213.06943c-0.0938,-0.79886 -0.17021,-1.76851 -0.22936,-2.72822c-0.08862,-1.43798 -0.0891,-2.85948 -0.10065,-3.64503c-0.01873,-1.27455 0.06325,-0.82391 0.25829,-0.84682c0.18999,-0.02231 0.19856,-0.58778 0.4679,0.59939c0.29132,1.28401 0.84514,4.4006 1.08538,6.44672c0.27651,2.35499 0.4227,5.1586 0.39838,6.47772c-0.01635,0.88665 -0.11831,0.71787 -0.27728,0.73654c-0.17404,0.02044 -0.26004,0.52327 -0.50483,-0.49006c-0.16712,-0.69178 -0.42417,-1.82487 -0.62762,-3.13099c-0.17574,-1.12825 -0.35023,-2.39731 -0.47022,-3.41924z" fill="#7a7a7a" stroke="none" stroke-width="0"/><path d="M275.10687,210.97617c0.55639,0.86555 1.22765,1.95659 1.80851,2.93967c0.67242,1.13807 1.19354,2.17652 1.50385,2.81699c0.45453,0.93816 0.06874,0.60441 -0.07867,0.69916c-0.13464,0.08655 -0.10621,0.28167 -0.68197,-0.39279c-0.85661,-1.00344 -2.52438,-3.26179 -3.80655,-5.2564c-1.11401,-1.73301 -2.66571,-4.492 -3.25622,-5.6688c-0.54598,-1.08803 -0.18021,-0.6567 -0.01929,-0.76014c0.1652,-0.10619 -0.0577,-0.50632 0.73735,0.49003c0.49002,0.61409 1.39249,1.71236 2.23736,2.87934c0.56386,0.77885 1.1207,1.57633 1.55564,2.25294z" data-paper-data="{&quot;index&quot;:null}" fill="#7a7a7a" stroke="none" stroke-width="0"/><path d="M273.1975,214.99696c0.20732,1.00784 0.4406,2.26743 0.62842,3.39373c0.21743,1.30387 0.32958,2.46032 0.38839,3.16957c0.08615,1.03891 -0.15355,0.58861 -0.32519,0.62391c-0.15678,0.03225 -0.20052,0.22452 -0.49475,-0.61204c-0.43774,-1.24461 -1.18024,-3.95206 -1.65801,-6.27459c-0.41511,-2.01792 -0.86903,-5.15062 -0.99609,-6.46112c-0.11748,-1.21166 0.0684,-0.67754 0.25577,-0.71608c0.19236,-0.03956 0.12852,-0.49312 0.51139,0.72271c0.23597,0.74936 0.68234,2.09895 1.05022,3.4919c0.24552,0.92966 0.47778,1.87417 0.63985,2.66202z" data-paper-data="{&quot;index&quot;:null}" fill="#7a7a7a" stroke="none" stroke-width="0"/><path d="M269.9165,213.71047c-0.11999,1.02193 -0.29447,2.29099 -0.47022,3.41925c-0.20345,1.30613 -0.4605,2.4392 -0.62761,3.13099c-0.24479,1.01333 -0.33079,0.5105 -0.50483,0.49006c-0.15897,-0.01867 -0.26093,0.15011 -0.27728,-0.73654c-0.02432,-1.31912 0.12187,-4.12272 0.39839,-6.47771c0.24024,-2.04612 0.79406,-5.16271 1.08538,-6.44672c0.26934,-1.18717 0.27792,-0.6217 0.46791,-0.59939c0.19504,0.0229 0.27701,-0.42773 0.25829,0.84682c-0.01155,0.78555 -0.01203,2.20705 -0.10065,3.64503c-0.05915,0.95971 -0.13557,1.92936 -0.22936,2.72822z" data-paper-data="{&quot;index&quot;:null}" fill="#7a7a7a" stroke="none" stroke-width="0"/></g></g></g></svg>