<svg version="1.1" xmlns="http://www.w3.org/2000/svg" xmlns:xlink="http://www.w3.org/1999/xlink" width="88.53212" height="277.53941" viewBox="0,0,88.53212,277.53941"><g transform="translate(-200.58418,-41.04475)"><g data-paper-data="{&quot;isPaintingLayer&quot;:true}" fill-rule="nonzero" stroke-width="0.5" stroke-linecap="butt" stroke-linejoin="miter" stroke-miterlimit="10" stroke-dasharray="" stroke-dashoffset="0" style="mix-blend-mode: normal"><path d="M225.81259,115.73516c0,0 2.73762,-11.28965 6.8,-19.6c4.73041,-9.67694 26.61426,-11.58507 33,0c4.34723,7.88678 6.4,21.2 6.4,21.2l-6.4,6.6l-33.8,-3z" fill="#663f3f" stroke="#000000"/><path d="M258.63556,277.23744l-6.24211,-25.15424l3.24689,-0.79967l6.24211,25.15424z" fill="#663f3f" stroke="#000000"/><path d="M265.1252,302.75944l-5.89287,-23.73365l3.24691,-0.7996l5.89287,23.73366z" fill="#663f3f" stroke="#000000"/><path d="M250.55383,262.8661l-0.84821,-3.45017l12.1771,-2.99367l0.8482,3.45017z" fill="#663f3f" stroke="#000000"/><path d="M252.50308,269.91951l-0.84821,-3.45017l12.17709,-2.99366l0.84821,3.45017z" fill="#663f3f" stroke="#000000"/><path d="M254.50223,277.17588l-0.8482,-3.45017l12.17709,-2.99367l0.84821,3.45017z" fill="#663f3f" stroke="#000000"/><path d="M256.45149,284.22929l-0.8482,-3.45017l12.17709,-2.99366l0.8482,3.45017z" fill="#663f3f" stroke="#000000"/><path d="M257.99484,291.38248l-0.8482,-3.45017l12.17709,-2.99367l0.8482,3.45017z" fill="#663f3f" stroke="#000000"/><path d="M259.9441,298.4359l-0.84821,-3.45017l12.1771,-2.99367l0.8482,3.45017z" fill="#663f3f" stroke="#000000"/><path d="M257.41165,278.50519c-0.39956,-1.62527 0.59406,-3.2667 2.21932,-3.66627c1.62527,-0.39956 3.26671,0.59406 3.66627,2.21933c0.39956,1.62527 -0.59407,3.2667 -2.21934,3.66626c-1.62527,0.39956 -3.2667,-0.59406 -3.66626,-2.21933z" fill="#663f3f" stroke="#000000"/><path d="M213.71227,199.07223l-0.04499,-20.66807l2.66667,-0.00112l0.04499,20.66808z" fill="#663f3f" stroke="#000000"/><path d="M239.68978,216.07096v-48.5h4.66667v48.5z" fill="#663f3f" stroke="#000000"/><path d="M210.33282,225.86477l0.82904,-2.19758l4.70911,1.77651l-0.82903,2.19759z" fill="#663f3f" stroke="#000000"/><path d="M207.4453,226.38926l0.82905,-2.19759l4.70911,1.77651l-0.82904,2.19759z" fill="#663f3f" stroke="#000000"/><path d="M213.9474,225.07662l0.82902,-2.19757l4.70912,1.7765l-0.82905,2.19759z" fill="#663f3f" stroke="#000000"/><path d="M212.7334,228.29454l0.82904,-2.19759l4.70914,1.77649l-0.82905,2.19759z" fill="#663f3f" stroke="#000000"/><path d="M208.68883,223.09285l0.82904,-2.19759l4.70914,1.77651l-0.82905,2.19759z" fill="#663f3f" stroke="#000000"/><path d="M209.9808,230.12507l3.43459,-9.10431l2.51154,0.94746l-3.43458,9.1043z" fill="#663f3f" stroke="#000000"/><path d="M264.87406,308.17016l0.09879,-2.34668l5.02862,0.21169l-0.09879,2.34668z" fill="#663f3f" stroke="#000000"/><path d="M262.29625,309.57291l0.09879,-2.34669l5.02861,0.21168l-0.09878,2.34669z" fill="#663f3f" stroke="#000000"/><path d="M268.05972,306.28924l0.09879,-2.34668l5.02862,0.21168l-0.09879,2.34669z" fill="#663f3f" stroke="#000000"/><path d="M267.91506,309.7255l0.09879,-2.3467l5.02862,0.21168l-0.09879,2.34669z" fill="#663f3f" stroke="#000000"/><path d="M262.4444,306.05287l0.09879,-2.34669l5.02863,0.21168l-0.09879,2.3467z" fill="#663f3f" stroke="#000000"/><path d="M265.87451,312.32626l0.40926,-9.72201l2.68194,0.11289l-0.40926,9.722z" fill="#663f3f" stroke="#000000"/><path d="M223.70894,310.1097l-0.01752,-2.3487l5.03294,-0.03753l0.01752,2.34869z" fill="#663f3f" stroke="#000000"/><path d="M221.20373,311.63834l-0.01751,-2.3487l5.03292,-0.03753l0.01753,2.3487z" fill="#663f3f" stroke="#000000"/><path d="M226.79757,308.07335l-0.01752,-2.34869l5.03294,-0.03753l0.01752,2.3487z" fill="#663f3f" stroke="#000000"/><path d="M226.82321,311.51256l-0.01751,-2.34871l5.03294,-0.03753l0.01752,2.3487z" fill="#663f3f" stroke="#000000"/><path d="M221.17744,308.11528l-0.01752,-2.3487l5.03294,-0.03755l0.01751,2.34871z" fill="#663f3f" stroke="#000000"/><path d="M224.91391,314.21116l-0.07256,-9.73034l2.68424,-0.02002l0.07257,9.73034z" fill="#663f3f" stroke="#000000"/><path d="M229.52154,244.15453l1.30294,-3.09586l6.634,2.79202l-1.30295,3.09586z" fill="#663f3f" stroke="#000000"/><path d="M225.36695,244.74872l1.30295,-3.09586l6.63398,2.79201l-1.30293,3.09587z" fill="#663f3f" stroke="#000000"/><path d="M234.72934,243.22265l1.30293,-3.09585l6.634,2.79202l-1.30295,3.09586z" fill="#663f3f" stroke="#000000"/><path d="M232.82142,247.75592l1.30295,-3.09587l6.634,2.79202l-1.30295,3.09586z" fill="#663f3f" stroke="#000000"/><path d="M227.32133,240.10491l1.30294,-3.09587l6.63402,2.79201l-1.30296,3.09587z" fill="#663f3f" stroke="#000000"/><path d="M228.78933,250.22376l5.39791,-12.82574l3.53814,1.48907l-5.3979,12.82574z" fill="#663f3f" stroke="#000000"/><path d="M247.47766,247.74655l-1.30295,-3.09586l6.634,-2.79202l1.30294,3.09586z" fill="#663f3f" stroke="#000000"/><path d="M251.63227,248.34074l-1.30293,-3.09587l6.63398,-2.79201l1.30295,3.09586z" fill="#663f3f" stroke="#000000"/><path d="M242.2699,246.81468l-1.30294,-3.09585l6.634,-2.79202l1.30293,3.09584z" fill="#663f3f" stroke="#000000"/><path d="M244.17778,251.34793l-1.30295,-3.09586l6.634,-2.79202l1.30295,3.09588z" fill="#663f3f" stroke="#000000"/><path d="M249.67787,243.69693l-1.30296,-3.09587l6.63402,-2.79201l1.30294,3.09587z" fill="#663f3f" stroke="#000000"/><path d="M251.30574,252.51283l-5.3979,-12.82573l3.53814,-1.48908l5.39791,12.82574z" fill="#663f3f" stroke="#000000"/><path d="M217.8753,170.25375l2.16002,-2.57221l5.51191,4.62863l-2.16002,2.57222z" fill="#663f3f" stroke="#000000"/><path d="M219.24264,174.22164l2.16004,-2.57222l5.5119,4.62863l-2.16002,2.57222z" fill="#663f3f" stroke="#000000"/><path d="M216.32775,165.19466l2.16002,-2.57222l5.5119,4.62864l-2.16001,2.57221z" fill="#663f3f" stroke="#000000"/><path d="M213.16484,168.96114l2.16002,-2.57222l5.5119,4.62864l-2.16003,2.57224z" fill="#663f3f" stroke="#000000"/><path d="M222.48271,170.3633l2.16003,-2.57224l5.5119,4.62865l-2.16002,2.57222z" fill="#663f3f" stroke="#000000"/><path d="M215.38134,175.83514l8.9487,-10.65635l2.93968,2.46861l-8.94869,10.65636z" fill="#663f3f" stroke="#000000"/><path d="M278.88777,66.71791l0.64249,-2.0362l4.36329,1.37677l-0.64249,2.0362z" fill="#663f3f" stroke="#000000"/><path d="M280.65639,68.71528l0.6425,-2.0362l4.36328,1.37677l-0.64249,2.0362z" fill="#663f3f" stroke="#000000"/><path d="M276.7478,64.12358l0.64249,-2.0362l4.36329,1.37677l-0.64249,2.03619z" fill="#663f3f" stroke="#000000"/><path d="M275.80699,67.10517l0.64249,-2.0362l4.36329,1.37677l-0.64249,2.03621z" fill="#663f3f" stroke="#000000"/><path d="M281.62014,65.66097l0.64249,-2.03621l4.36329,1.37678l-0.64249,2.0362z" fill="#663f3f" stroke="#000000"/><path d="M278.78153,70.6025l2.66176,-8.43569l2.32709,0.73428l-2.66176,8.4357z" fill="#663f3f" stroke="#000000"/><path d="M271.02167,92.39559l1.13806,-1.80658l3.87125,2.4387l-1.13806,1.80658z" fill="#663f3f" stroke="#000000"/><path d="M272.22569,94.77631l1.13807,-1.80658l3.87124,2.43869l-1.13806,1.80658z" fill="#663f3f" stroke="#000000"/><path d="M269.6099,89.34323l1.13806,-1.80658l3.87124,2.4387l-1.13806,1.80657z" fill="#663f3f" stroke="#000000"/><path d="M267.94345,91.98858l1.13806,-1.80658l3.87125,2.4387l-1.13806,1.80658z" fill="#663f3f" stroke="#000000"/><path d="M273.93278,92.06645l1.13806,-1.80658l3.87124,2.4387l-1.13806,1.80658z" fill="#663f3f" stroke="#000000"/><path d="M269.93336,96.12614l4.71481,-7.48442l2.06466,1.30064l-4.71481,7.48441z" fill="#663f3f" stroke="#000000"/><path d="M220.99262,95.83429l-1.13806,-1.80658l3.87125,-2.4387l1.13806,1.80658z" fill="#663f3f" stroke="#000000"/><path d="M219.7886,98.21501l-1.13806,-1.80658l3.87125,-2.43869l1.13806,1.80658z" fill="#663f3f" stroke="#000000"/><path d="M222.40441,92.78192l-1.13806,-1.80657l3.87124,-2.4387l1.13806,1.80658z" fill="#663f3f" stroke="#000000"/><path d="M224.07084,95.42728l-1.13806,-1.80658l3.87125,-2.4387l1.13806,1.80658z" fill="#663f3f" stroke="#000000"/><path d="M218.08151,95.50514l-1.13806,-1.80658l3.87124,-2.4387l1.13806,1.80658z" fill="#663f3f" stroke="#000000"/><path d="M223.88751,98.42678l-4.71481,-7.48441l2.06466,-1.30064l4.71482,7.48442z" fill="#663f3f" stroke="#000000"/><path d="M236.61423,158.08899l0.41296,-4.8522l10.39758,0.88492l-0.41296,4.8522z" fill="#663f3f" stroke="#000000"/><path d="M231.14995,160.7658l0.41296,-4.8522l10.39758,0.88492l-0.41295,4.8522z" fill="#663f3f" stroke="#000000"/><path d="M243.38005,154.47564l0.41295,-4.8522l10.39758,0.88492l-0.41296,4.8522z" fill="#663f3f" stroke="#000000"/><path d="M242.77535,161.58067l0.41296,-4.85221l10.39758,0.88492l-0.41295,4.85221z" fill="#663f3f" stroke="#000000"/><path d="M231.76939,153.4875l0.41296,-4.8522l10.39758,0.88491l-0.41296,4.85221z" fill="#663f3f" stroke="#000000"/><path d="M238.31765,166.78683l1.71084,-20.102l5.54538,0.47195l-1.71084,20.102z" fill="#663f3f" stroke="#000000"/><path d="M231.06985,113.50995c0,-0.55228 0.44771,-1 1,-1c0.55229,0 1,0.44772 1,1c0,0.55228 -0.44771,1 -1,1c-0.55229,0 -1,-0.44772 -1,-1z" fill="#000000" stroke="none"/><path d="M263.51529,116.95085c0,-0.72801 0.59017,-1.31818 1.31818,-1.31818c0.72801,0 1.31818,0.59017 1.31818,1.31818c0,0.72801 -0.59017,1.31818 -1.31818,1.31818c-0.72801,0 -1.31818,-0.59017 -1.31818,-1.31818z" fill="#000000" stroke="none"/><path d="M234.44838,235.80113v-3.42857h15v3.42857z" fill="#663f3f" stroke="#000000"/><path d="M233.59606,238.1721l2.03954,-5.03087l4.23652,1.71751l-2.03954,5.03087z" fill="#663f3f" stroke="#000000"/><path d="M245.71522,239.7255l-1.9446,-5.06833l4.26806,-1.63755l1.9446,5.06833z" fill="#663f3f" stroke="#000000"/><path d="M237.87695,238.94399v-1.85714h7.85714v1.85714z" fill="#663f3f" stroke="#000000"/><path d="M241.16267,238.08684v-75.07143h1.57143v75.07143z" fill="#663f3f" stroke="#000000"/><path d="M239.73507,231.86367v-1.66667h4.54167v1.66667z" fill="#663f3f" stroke="#000000"/><path d="M239.73508,227.98867v-1.66667h4.54166v1.66667z" fill="#663f3f" stroke="#000000"/><path d="M239.73508,223.86367v-1.66667h4.54166v1.66667z" fill="#663f3f" stroke="#000000"/><path d="M239.73508,219.98867v-1.66667h4.54166v1.66667z" fill="#663f3f" stroke="#000000"/><path d="M239.73508,215.73867v-1.66667h4.54166v1.66667z" fill="#663f3f" stroke="#000000"/><path d="M237.06841,211.86367v-1.66667h11.04166v1.66667z" fill="#663f3f" stroke="#000000"/><path d="M234.56841,207.73867v-1.66667h16.04166v1.66667z" fill="#663f3f" stroke="#000000"/><path d="M231.23508,203.86367v-1.66667h21.70833v1.66667z" fill="#663f3f" stroke="#000000"/><path d="M228.56841,199.48867v-1.66667h27.70833v1.66667z" fill="#663f3f" stroke="#000000"/><path d="M227.90175,195.61367v-1.66667h28.54166v1.66667z" fill="#663f3f" stroke="#000000"/><path d="M227.73508,191.48867v-1.66667h28.54166v1.66667z" fill="#663f3f" stroke="#000000"/><path d="M227.23508,187.61367v-1.66667h29.37499v1.66667z" fill="#663f3f" stroke="#000000"/><path d="M227.06841,183.36367v-1.66667h29.37499v1.66667z" fill="#663f3f" stroke="#000000"/><path d="M227.56841,179.48867v-1.66667h28.87499v1.66667z" fill="#663f3f" stroke="#000000"/><path d="M229.56841,175.36367v-1.66667h25.20833v1.66667z" fill="#663f3f" stroke="#000000"/><path d="M239.73508,171.48867v-1.66667h4.54166v1.66667z" fill="#663f3f" stroke="#000000"/><path d="M235.52311,168.07096v-4h12.33333v4z" fill="#663f3f" stroke="#000000"/><path d="M225.18978,167.07096v-2.16667h14.5v2.16667z" fill="#663f3f" stroke="#000000"/><path d="M232.96804,167.4941l1.04116,-1.30145l8.06898,6.45518l-1.04116,1.30145z" fill="#663f3f" stroke="#000000"/><path d="M241.30788,173.67382l0.12732,-1.66179l10.30314,0.78941l-0.12733,1.6618z" fill="#663f3f" stroke="#000000"/><path d="M236.02311,234.9043v-1.16667h11.83333v1.16667z" fill="#663f3f" stroke="#000000"/><path d="M236.20991,234.09527l-0.99276,-0.89006l6.11916,-6.82522l0.99276,0.89006z" fill="#663f3f" stroke="#000000"/><path d="M241.05048,227.10338l0.99276,-0.89006l6.11917,6.82522l-0.99276,0.89006z" data-paper-data="{&quot;index&quot;:null}" fill="#663f3f" stroke="#000000"/><path d="M213.87894,220.07222l-0.04499,-19.50147l2.66667,-0.00105l0.04499,19.50147z" fill="#663f3f" stroke="#000000"/><path d="M212.85645,177.4043c0,-1.7489 1.41776,-3.16667 3.16667,-3.16667c1.7489,0 3.16667,1.41776 3.16667,3.16667c0,1.7489 -1.41776,3.16667 -3.16667,3.16667c-1.7489,0 -3.16667,-1.41776 -3.16667,-3.16667z" fill="#663f3f" stroke="#000000"/><path d="M212.35645,220.98763c0,-1.33469 1.08198,-2.41667 2.41667,-2.41667c1.33469,0 2.41667,1.08198 2.41667,2.41667c0,1.33469 -1.08198,2.41667 -2.41667,2.41667c-1.33469,0 -2.41667,-1.08198 -2.41667,-2.41667z" fill="#663f3f" stroke="#000000"/><path d="M223.35645,166.6543c0,-1.42674 1.1566,-2.58333 2.58333,-2.58333c1.42674,0 2.58333,1.1566 2.58333,2.58333c0,1.42674 -1.1566,2.58333 -2.58333,2.58333c-1.42674,0 -2.58333,-1.1566 -2.58333,-2.58333z" fill="#663f3f" stroke="#000000"/><path d="M210.18978,186.4043v-2.83333h10v2.83333z" fill="#663f3f" stroke="#000000"/><path d="M210.35645,192.23763v-2.83333h10v2.83333z" fill="#663f3f" stroke="#000000"/><path d="M210.52311,198.23763v-2.83333h10v2.83333z" fill="#663f3f" stroke="#000000"/><path d="M210.68978,204.07096v-2.83333h10v2.83333z" fill="#663f3f" stroke="#000000"/><path d="M210.52311,209.9043v-2.83333h10v2.83333z" fill="#663f3f" stroke="#000000"/><path d="M210.68978,215.73763v-2.83333h10v2.83333z" fill="#663f3f" stroke="#000000"/><path d="M249.52311,252.4043c0,-2.39323 1.9401,-4.33333 4.33333,-4.33333c2.39323,0 4.33334,1.9401 4.33334,4.33333c0,2.39323 -1.94011,4.33333 -4.33334,4.33333c-2.39323,0 -4.33333,-1.9401 -4.33333,-4.33333z" fill="#663f3f" stroke="#000000"/><path d="M263.85644,302.07096c0,-1.65686 1.34315,-3 3,-3c1.65686,0 3.00001,1.34314 3.00001,3c0,1.65686 -1.34315,3 -3.00001,3c-1.65685,0 -3,-1.34314 -3,-3z" fill="#663f3f" stroke="#000000"/><path d="M212.52311,199.82096c0,-1.33469 1.08197,-2.41666 2.41666,-2.41666c1.33469,0 2.41667,1.08197 2.41667,2.41666c0,1.33469 -1.08198,2.41666 -2.41667,2.41666c-1.33469,0 -2.41666,-1.08197 -2.41666,-2.41666z" fill="#663f3f" stroke="#000000"/><path d="M226.29579,276.74026l1.92871,-25.84531l3.3342,0.25471l-1.92871,25.84531z" fill="#663f3f" stroke="#000000"/><path d="M224.48733,303.01225l1.81667,-24.38672l3.33419,0.25479l-1.81667,24.38672z" fill="#663f3f" stroke="#000000"/><path d="M223.1083,260.56343l0.27211,-3.54247l12.50285,0.9604l-0.27211,3.54247z" fill="#663f3f" stroke="#000000"/><path d="M222.75644,267.87277l0.27211,-3.54247l12.50285,0.9604l-0.27211,3.54247z" fill="#663f3f" stroke="#000000"/><path d="M222.38859,275.39049l0.27211,-3.54247l12.50285,0.9604l-0.27211,3.54247z" fill="#663f3f" stroke="#000000"/><path d="M222.03673,282.69983l0.27211,-3.54247l12.50285,0.9604l-0.27211,3.54247z" fill="#663f3f" stroke="#000000"/><path d="M221.26812,289.97715l0.27211,-3.54247l12.50285,0.9604l-0.27211,3.54247z" fill="#663f3f" stroke="#000000"/><path d="M220.91626,297.28648l0.27211,-3.54247l12.50285,0.9604l-0.27211,3.54247z" fill="#663f3f" stroke="#000000"/><path d="M224.73709,277.56219c0.12818,-1.66874 1.58487,-2.91761 3.25362,-2.78942c1.66874,0.12818 2.91761,1.58487 2.78943,3.25362c-0.12818,1.66874 -1.58488,2.91761 -3.25362,2.78942c-1.66874,-0.12818 -2.91761,-1.58487 -2.78942,-3.25362z" fill="#663f3f" stroke="#000000"/><path d="M223.52311,302.9043c0,-1.65686 1.34314,-3 3,-3c1.65686,0 3,1.34314 3,3c0,1.65686 -1.34315,3 -3,3c-1.65686,0 -3,-1.34314 -3,-3z" fill="#663f3f" stroke="#000000"/><path d="M225.85644,251.90429c0,-2.39323 1.9401,-4.33333 4.33333,-4.33333c2.39323,0 4.33334,1.9401 4.33334,4.33333c0,2.39323 -1.94011,4.33334 -4.33334,4.33334c-2.39323,0 -4.33333,-1.94011 -4.33333,-4.33334z" fill="#663f3f" stroke="#000000"/><path d="M217.77018,318.33416v-1.72727h10.27273v1.72727z" fill="#663f3f" stroke="#000000"/><path d="M225.49746,317.15234v-3.63636h1.54545v3.63636z" fill="#663f3f" stroke="#000000"/><path d="M225.22473,313.65234c0,-0.6276 0.50877,-1.13636 1.13636,-1.13636c0.6276,0 1.13636,0.50877 1.13636,1.13636c0,0.6276 -0.50877,1.13636 -1.13636,1.13636c-0.6276,0 -1.13636,-0.50877 -1.13636,-1.13636z" fill="#663f3f" stroke="#000000"/><path d="M218.22473,317.24325v-1.36364h7.90909v1.36364z" fill="#663f3f" stroke="#000000"/><path d="M265.77018,316.87961v-1.63556h9.72728v1.63556z" data-paper-data="{&quot;index&quot;:null}" fill="#663f3f" stroke="#000000"/><path d="M266.71708,315.76055v-3.44328h1.4634v3.44328z" data-paper-data="{&quot;index&quot;:null}" fill="#663f3f" stroke="#000000"/><path d="M267.3627,313.52241c-0.59427,0 -1.07603,-0.48175 -1.07603,-1.07602c0,-0.59427 0.48176,-1.07603 1.07603,-1.07603c0.59427,0 1.07602,0.48176 1.07602,1.07603c0,0.59427 -0.48175,1.07602 -1.07602,1.07602z" data-paper-data="{&quot;index&quot;:null}" fill="#663f3f" stroke="#000000"/><path d="M267.5779,315.84663v-1.29123h7.48914v1.29123z" data-paper-data="{&quot;index&quot;:null}" fill="#663f3f" stroke="#000000"/><path d="M238.61258,163.03516c0,-1.71208 1.38792,-3.1 3.1,-3.1c1.71208,0 3.1,1.38792 3.1,3.1c0,1.71208 -1.38792,3.1 -3.1,3.1c-1.71208,0 -3.1,-1.38792 -3.1,-3.1z" fill="#663f3f" stroke="#000000"/><path d="M274.27221,90.15739l4.75062,-20.86604l2.73014,0.62158l-4.75062,20.86604z" fill="#663f3f" stroke="#000000"/><path d="M272.15908,79.42811l0.8946,-3.2802l10.6124,2.89429l-0.8946,3.2802z" fill="#663f3f" stroke="#000000"/><path d="M281.67931,62.69619l0.2623,-21.39839l2.79979,0.03432l-0.2623,21.39839z" fill="#663f3f" stroke="#000000"/><path d="M277.86419,53.01524l-0.03854,-3.39978l10.9993,-0.12468l0.03854,3.39978z" fill="#663f3f" stroke="#000000"/><path d="M219.56635,91.7228l-12.98481,-17.01043l2.22566,-1.69895l12.98481,17.01043z" fill="#663f3f" stroke="#000000"/><path d="M209.31425,87.13822l-2.08863,-2.99098l9.67669,-6.75733l2.08863,2.99097z" fill="#663f3f" stroke="#000000"/><path d="M280.61258,62.53516c0,-0.99411 0.80589,-1.8 1.8,-1.8c0.99411,0 1.8,0.80589 1.8,1.8c0,0.99411 -0.80589,1.8 -1.8,1.8c-0.99411,0 -1.8,-0.80589 -1.8,-1.8z" fill="#663f3f" stroke="#000000"/><path d="M278.81259,69.73516c0,-0.99411 0.80588,-1.8 1.8,-1.8c0.99412,0 1.8,0.80589 1.8,1.8c0,0.99411 -0.80588,1.8 -1.8,1.8c-0.99412,0 -1.8,-0.80589 -1.8,-1.8z" fill="#663f3f" stroke="#000000"/><path d="M273.61258,90.73516c0,-0.99411 0.80588,-1.8 1.8,-1.8c0.99412,0 1.8,0.80589 1.8,1.8c0,0.99411 -0.80588,1.8 -1.8,1.8c-0.99412,0 -1.8,-0.80589 -1.8,-1.8z" fill="#663f3f" stroke="#000000"/><path d="M218.61259,90.33516c0,-0.99411 0.80588,-1.8 1.8,-1.8c0.99412,0 1.8,0.80589 1.8,1.8c0,0.99411 -0.80588,1.8 -1.8,1.8c-0.99412,0 -1.8,-0.80589 -1.8,-1.8z" fill="#663f3f" stroke="#000000"/><path d="M225.61259,99.53516v-1.8h15.4v1.8z" fill="#663f3f" stroke="#000000"/><path d="M261.21259,99.13516v-1.8h10v1.8z" fill="#663f3f" stroke="#000000"/><path d="M224.73048,100.03575l1.07331,-2.14663l11.0909,5.54545l-1.07332,2.14663z" fill="#663f3f" stroke="#000000"/><path d="M261.6038,104.9812l-1.07331,-2.14663l11.0909,-5.54545l1.07331,2.14663z" data-paper-data="{&quot;index&quot;:null}" fill="#663f3f" stroke="#000000"/><path d="M268.61259,97.63516c0,-1.38071 1.11929,-2.5 2.5,-2.5c1.38071,0 2.5,1.11929 2.5,2.5c0,1.38071 -1.11929,2.5 -2.5,2.5c-1.38071,0 -2.5,-1.11929 -2.5,-2.5z" fill="#663f3f" stroke="#000000"/><path d="M222.81258,98.63516c0,-1.38071 1.11929,-2.5 2.5,-2.5c1.38071,0 2.5,1.11929 2.5,2.5c0,1.38071 -1.11929,2.5 -2.5,2.5c-1.38071,0 -2.5,-1.11929 -2.5,-2.5z" fill="#663f3f" stroke="#000000"/><path d="M228.21111,109.91644l0.73153,-2.75714l3.47142,5.19457l-1.73152,1.35714z" fill="#663f3f" stroke="#000000"/><path d="M233.84506,114.16984l-1.3873,-1.70745l5.12235,-4.16191l1.3873,1.70745z" fill="#663f3f" stroke="#000000"/><path d="M232.03582,114.8796l1.74868,-1.33494l4.00485,5.24607l-1.74869,1.33494z" fill="#663f3f" stroke="#000000"/><path d="M230.64552,113.71264l1.56692,1.54426l-2.63279,2.90077l-1.76692,-1.74426z" fill="#663f3f" stroke="#000000"/><path d="M259.1318,111.47911l1.88845,-1.48114l4.07313,5.19324l-1.88845,1.48114z" fill="#663f3f" stroke="#000000"/><path d="M264.5318,118.67911l1.88845,-1.48114l2.07313,2.79323l-1.88845,1.48114z" fill="#663f3f" stroke="#000000"/><path d="M259.96493,123.28711l-1.66312,-1.73033l4.75842,-4.57357l1.66312,1.73034z" data-paper-data="{&quot;index&quot;:null}" fill="#663f3f" stroke="#000000"/><path d="M266.76493,117.08711l-1.66312,-1.73033l4.75842,-4.57357l0.66312,3.13034z" data-paper-data="{&quot;index&quot;:null}" fill="#663f3f" stroke="#000000"/><path d="M239.10952,146.68723l2.08962,-25.21356l9.76651,0.80942l-2.08962,25.21356z" fill="#663f3f" stroke="#000000"/><path d="M238.37718,147.70323c0,-3.03757 2.46243,-5.5 5.5,-5.5c3.03757,0 5.5,2.46243 5.5,5.5c0,3.03757 -2.46243,5.5 -5.5,5.5c-3.03757,0 -5.5,-2.46243 -5.5,-5.5z" fill="#663f3f" stroke="#000000"/><path d="M232.89639,131.76608l0.31403,-3.61137l27.14756,2.36066l-0.31403,3.61137z" fill="#663f3f" stroke="#000000"/><path d="M232.14184,140.79761l0.32333,-3.61055l25.64736,2.29677l-0.32333,3.61056z" fill="#663f3f" stroke="#000000"/><path d="M234.81786,132.71822l0.12707,-1.62002l2.74158,0.21503l-0.12707,1.62002z" fill="#663f3f" stroke="#000000"/><path d="M243.93736,133.63238l0.14876,-1.4926l3.8559,0.3843l-0.14876,1.4926z" fill="#663f3f" stroke="#000000"/><path d="M253.51234,134.64303l0.24966,-1.6297l4.60503,0.50009l-0.24966,1.6297z" fill="#663f3f" stroke="#000000"/><path d="M234.09503,138.72041l0.06726,-2.0934l3.99704,0.18403l-0.06726,2.0934z" fill="#663f3f" stroke="#000000"/><path d="M243.05237,139.05408l0.17945,-1.99006l4.84518,0.66335l-0.17945,1.99006z" fill="#663f3f" stroke="#000000"/><path d="M252.33392,139.8997l0.10381,-2.27693l4.98273,0.75897l-0.10381,2.27693z" fill="#663f3f" stroke="#000000"/><path d="M207.24012,233.54928l1.7763,-6.25258c0,0 2.66339,-0.59989 3.75594,-0.2895c1.02776,0.29198 2.61688,2.09997 2.61688,2.09997l-1.7763,6.25258z" fill="#663f3f" stroke="#000000"/><path d="M216.87718,233.95323c0,1.58782 -2.94568,2.875 -5.5,2.875c-2.55432,0 -5.125,-1.28718 -5.125,-2.875c0,-1.58782 -1.42932,-4.5 1.125,-4.5c2.55432,0 9.5,2.91218 9.5,4.5z" fill="#663f3f" stroke="#000000"/><path d="M204.5551,241.86756l0.74042,-2.88405l1.07853,0.31022l-0.74041,2.88405z" fill="#663f3f" stroke="#000000"/><path d="M205.51859,242.18225c0,0.29835 -0.22171,0.54021 -0.49519,0.54021c-0.27348,0 -0.49519,-0.24186 -0.49519,-0.54021c0,-0.29835 0.22171,-0.54021 0.49519,-0.54021c0.27348,0 0.49519,0.24186 0.49519,0.54021z" fill="#663f3f" stroke="#000000"/><path d="M205.35566,238.5187l1.15273,-4.01424l1.30039,0.37341l-1.15273,4.01424z" fill="#663f3f" stroke="#000000"/><path d="M206.55026,238.97246c0,0.41422 -0.30781,0.75 -0.6875,0.75c-0.37969,0 -0.6875,-0.33578 -0.6875,-0.75c0,-0.41422 0.30781,-0.75 0.6875,-0.75c0.37969,0 0.6875,0.33578 0.6875,0.75z" fill="#663f3f" stroke="#000000"/><path d="M200.91182,236.34724l1.71855,-4.06329l0.97518,0.41245l-1.71854,4.06328z" fill="#663f3f" stroke="#000000"/><path d="M202.048,236.53519c0,0.29835 -0.22171,0.54021 -0.49519,0.54021c-0.27348,0 -0.49519,-0.24186 -0.49519,-0.54021c0,-0.29835 0.22171,-0.54021 0.49519,-0.54021c0.27348,0 0.49519,0.24186 0.49519,0.54021z" fill="#663f3f" stroke="#000000"/><path d="M202.77837,231.96026l4.08454,-2.56573l0.8761,1.39473l-4.08455,2.56572z" fill="#663f3f" stroke="#000000"/><path d="M203.78103,232.81861c0,0.41422 -0.30781,0.75 -0.6875,0.75c-0.37969,0 -0.6875,-0.33578 -0.6875,-0.75c0,-0.41422 0.30781,-0.75 0.6875,-0.75c0.37969,0 0.6875,0.33578 0.6875,0.75z" fill="#663f3f" stroke="#000000"/><path d="M208.87259,240.36342l0.54228,-5.79823l1.22993,0.11503l-0.54228,5.79823z" fill="#663f3f" stroke="#000000"/><path d="M208.45259,243.48287l0.32502,-2.74554l0.99307,0.11756l-0.32502,2.74553z" fill="#663f3f" stroke="#000000"/><path d="M210.08872,240.35707c0,0.41422 -0.30781,0.75 -0.6875,0.75c-0.37969,0 -0.6875,-0.33578 -0.6875,-0.75c0,-0.41422 0.30781,-0.75 0.6875,-0.75c0.37969,0 0.6875,0.33578 0.6875,0.75z" fill="#663f3f" stroke="#000000"/><path d="M209.40094,243.47637c0,0.29835 -0.2217,0.54021 -0.49519,0.54021c-0.27348,0 -0.4952,-0.24186 -0.4952,-0.54021c0,-0.29835 0.22171,-0.54021 0.4952,-0.54021c0.27348,0 0.49519,0.24186 0.49519,0.54021z" fill="#663f3f" stroke="#000000"/><path d="M213.03039,240.17715l-0.92267,-4.13357l1.32044,-0.29474l0.92267,4.13357z" fill="#663f3f" stroke="#000000"/><path d="M213.44102,243.00231l-0.24268,-2.51774l0.93684,-0.0903l0.24268,2.51775z" fill="#663f3f" stroke="#000000"/><path d="M214.39641,240.20323c0,0.41422 -0.30781,0.75 -0.6875,0.75c-0.37969,0 -0.6875,-0.33578 -0.6875,-0.75c0,-0.41422 0.30781,-0.75 0.6875,-0.75c0.37969,0 0.6875,0.33578 0.6875,0.75z" fill="#663f3f" stroke="#000000"/><path d="M214.40094,243.00578c0,0.29835 -0.2217,0.54021 -0.49519,0.54021c-0.27348,0 -0.4952,-0.24186 -0.4952,-0.54021c0,-0.29835 0.22171,-0.54021 0.4952,-0.54021c0.27348,0 0.49519,0.24186 0.49519,0.54021z" fill="#663f3f" stroke="#000000"/><path d="M216.80555,238.75247l-1.87674,-3.5324l1.19478,-0.63478l1.87674,3.5324z" fill="#663f3f" stroke="#000000"/><path d="M217.29974,241.20506l-0.42109,-2.49411l0.98605,-0.16647l0.42108,2.49411z" fill="#663f3f" stroke="#000000"/><path d="M218.16565,241.0646c0,0.29835 -0.22171,0.54021 -0.49519,0.54021c-0.27348,0 -0.49519,-0.24186 -0.49519,-0.54021c0,-0.29835 0.22171,-0.54021 0.49519,-0.54021c0.27348,0 0.49519,0.24186 0.49519,0.54021z" fill="#663f3f" stroke="#000000"/><path d="M218.0118,238.66477c0,0.41422 -0.30781,0.75 -0.6875,0.75c-0.37969,0 -0.6875,-0.33578 -0.6875,-0.75c0,-0.41422 0.30781,-0.75 0.6875,-0.75c0.37969,0 0.6875,0.33578 0.6875,0.75z" fill="#663f3f" stroke="#000000"/><path d="M213.96457,228.02182c0,0.97462 -0.75058,1.76471 -1.67647,1.76471c-0.92589,0 -1.67647,-0.79009 -1.67647,-1.76471c0,-0.97462 0.75058,-1.7647 1.67647,-1.7647c0.92589,0 1.67647,0.79009 1.67647,1.7647z" fill="#663f3f" stroke="#000000"/><path d="M214.72928,235.31594c0,-0.55229 0.44771,-1 1,-1c0.55229,0 1,0.44771 1,1c0,0.55229 -0.44771,1 -1,1c-0.55229,0 -1,-0.44771 -1,-1z" fill="#663f3f" stroke="#000000"/><path d="M211.7881,235.78653c0,-0.55229 0.44771,-1 1,-1c0.55229,0 1,0.44771 1,1c0,0.55229 -0.44771,1 -1,1c-0.55229,0 -1,-0.44771 -1,-1z" fill="#663f3f" stroke="#000000"/><path d="M208.90574,235.25712c0,-0.55229 0.44771,-1 1,-1c0.55229,0 1,0.44771 1,1c0,0.55229 -0.44771,1 -1,1c-0.55229,0 -1,-0.44771 -1,-1z" fill="#663f3f" stroke="#000000"/><path d="M206.49398,234.55124c0,-0.55229 0.44771,-1 1,-1c0.55229,0 1,0.44771 1,1c0,0.55229 -0.44771,1 -1,1c-0.55229,0 -1,-0.44771 -1,-1z" fill="#663f3f" stroke="#000000"/><path d="M205.90574,230.49241c0,-0.55229 0.44771,-1 1,-1c0.55229,0 1,0.44771 1,1c0,0.55229 -0.44771,1 -1,1c-0.55229,0 -1,-0.44771 -1,-1z" fill="#663f3f" stroke="#000000"/><g fill="#663f3f" stroke="#000000"><path d="M258.40702,180.84371l-2.06624,-2.64814l5.6746,-4.42767l2.06625,2.64814z"/><path d="M256.89804,184.75991l-2.06624,-2.64814l5.67458,-4.42766l2.06626,2.64813z"/><path d="M260.13527,175.84344l-2.06624,-2.64812l5.6746,-4.42767l2.06624,2.64814z"/><path d="M263.16087,179.72113l-2.06625,-2.64816l5.6746,-4.42768l2.06624,2.64814z"/><path d="M253.79867,180.78771l-2.06624,-2.64814l5.67459,-4.42769l2.06625,2.64816z"/><path d="M263.34704,184.44484l-8.56018,-10.97089l3.02645,-2.36144l8.56018,10.97088z"/><path d="M245.52144,166.43347l1.22916,-1.78427l11.94086,8.22593l-1.22916,1.78427z"/><path d="M255.18978,173.65429c0,-1.42674 1.1566,-2.58333 2.58333,-2.58333c1.42674,0 2.58333,1.15659 2.58333,2.58333c0,1.42674 -1.15659,2.58334 -2.58333,2.58334c-1.42673,0 -2.58333,-1.1566 -2.58333,-2.58334z"/><path d="M262.02311,184.23763c0,-1.7489 1.41776,-3.16666 3.16666,-3.16666c1.7489,0 3.16667,1.41777 3.16667,3.16666c0,1.7489 -1.41777,3.16667 -3.16667,3.16667c-1.7489,0 -3.16666,-1.41777 -3.16666,-3.16667z"/><g><path d="M264.87406,234.51017l0.09879,-2.34669l5.02862,0.21169l-0.09879,2.34668z"/><path d="M262.29625,235.91291l0.09879,-2.34669l5.02861,0.21168l-0.09878,2.34669z"/><path d="M268.05972,232.62924l0.09879,-2.34668l5.02862,0.21168l-0.09879,2.34669z"/><path d="M267.91506,236.0655l0.09879,-2.3467l5.02862,0.21168l-0.09879,2.34669z"/><path d="M262.4444,232.39287l0.09879,-2.34669l5.02863,0.21168l-0.09879,2.34669z"/><path d="M265.53999,206.31536l-0.95795,-20.64591l2.66401,-0.11891l0.95795,20.64591z"/><path d="M266.63415,227.2875l-0.90641,-19.48045l2.66402,-0.11885l0.90641,19.48045z"/><path d="M261.46133,193.81541l-0.12516,-2.83056l9.99024,-0.44174l0.12516,2.83056z"/><path d="M261.88552,199.63568l-0.12516,-2.83056l9.99024,-0.44174l0.12516,2.83056z"/><path d="M262.31707,205.62246l-0.12516,-2.83056l9.99024,-0.44174l0.12516,2.83056z"/><path d="M262.74126,211.44274l-0.12516,-2.83056l9.99024,-0.44174l0.12516,2.83056z"/><path d="M262.83244,217.27774l-0.12516,-2.83056l9.99024,-0.44174l0.12516,2.83056z"/><path d="M263.25663,223.09802l-0.12516,-2.83056l9.99024,-0.44174l0.12516,2.83056z"/><path d="M264.38506,207.1159c-0.05896,-1.33339 0.97416,-2.4621 2.30755,-2.52106c1.33339,-0.05896 2.46211,0.97416 2.52107,2.30755c0.05896,1.33339 -0.97417,2.4621 -2.30756,2.52106c-1.33339,0.05896 -2.4621,-0.97416 -2.52106,-2.30755z"/><path d="M265.02311,228.1543c0,-1.33469 1.08197,-2.41666 2.41666,-2.41666c1.33469,0 2.41667,1.08197 2.41667,2.41666c0,1.33469 -1.08198,2.41666 -2.41667,2.41666c-1.33469,0 -2.41666,-1.08197 -2.41666,-2.41666z"/><g><path d="M265.87451,238.66627l0.40926,-9.722l2.68194,0.1129l-0.40926,9.72199z"/><path d="M264.736,243.44618l-0.68084,-6.46425c0,0 1.8749,-1.50959 2.93746,-1.6215c1.12953,-0.11897 3.6511,0.92756 3.6511,0.92756l0.68084,6.46425z" data-paper-data="{&quot;index&quot;:null}"/><path d="M271.89002,238.69309c2.51668,0.43683 0.6104,3.06167 0.33885,4.6261c-0.27155,1.56443 -3.02449,2.39301 -5.54117,1.95619c-2.51668,-0.43683 -5.19885,-2.20881 -4.9273,-3.77323c0.27155,-1.56443 7.61293,-3.24588 10.12962,-2.80905z" data-paper-data="{&quot;index&quot;:null}"/><path d="M271.43178,251.52836l-0.23629,-2.96819l1.1157,-0.1212l0.23629,2.96819z" data-paper-data="{&quot;index&quot;:null}"/><path d="M272.12464,251.10487c0.26945,0.04677 0.44654,0.32298 0.39551,0.61694c-0.05102,0.29396 -0.31083,0.49434 -0.58029,0.44756c-0.26945,-0.04677 -0.44653,-0.32298 -0.39551,-0.61694c0.05102,-0.29396 0.31083,-0.49434 0.58028,-0.44756z" data-paper-data="{&quot;index&quot;:null}"/><path d="M270.98633,248.11626l-0.44925,-4.15224l1.34509,-0.14552l0.44924,4.15223z" data-paper-data="{&quot;index&quot;:null}"/><path d="M271.88245,247.59213c0.3741,0.06493 0.61995,0.4484 0.54911,0.85652c-0.07084,0.40812 -0.43153,0.68631 -0.80563,0.62138c-0.3741,-0.06493 -0.61995,-0.44841 -0.54911,-0.85652c0.07084,-0.40812 0.43153,-0.68631 0.80563,-0.62138z" data-paper-data="{&quot;index&quot;:null}"/><path d="M276.04978,246.83082l-0.99833,-4.29733l1.03136,-0.2396l0.99834,4.29733z" data-paper-data="{&quot;index&quot;:null}"/><path d="M276.50984,246.13454c0.26945,0.04677 0.44654,0.32298 0.39551,0.61694c-0.05102,0.29396 -0.31083,0.49434 -0.58029,0.44756c-0.26945,-0.04677 -0.44653,-0.32298 -0.39551,-0.61694c0.05102,-0.29396 0.31083,-0.49434 0.58028,-0.44756z" data-paper-data="{&quot;index&quot;:null}"/><path d="M274.89063,243.17401l-3.5856,-3.22645l1.10172,-1.22436l3.5856,3.22646z" data-paper-data="{&quot;index&quot;:null}"/><path d="M275.66328,242.00252c0.3741,0.06493 0.61995,0.44841 0.54911,0.85653c-0.07084,0.40812 -0.43153,0.68631 -0.80563,0.62138c-0.3741,-0.06493 -0.61995,-0.44841 -0.54911,-0.85653c0.07084,-0.40812 0.43153,-0.68631 0.80563,-0.62138z" data-paper-data="{&quot;index&quot;:null}"/><path d="M267.31934,249.08981l0.4573,-5.80554l1.23148,0.097l-0.4573,5.80554z" data-paper-data="{&quot;index&quot;:null}"/><path d="M267.43262,252.27814l0.1493,-2.76067l0.99854,0.054l-0.1493,2.76067z" data-paper-data="{&quot;index&quot;:null}"/><path d="M268.15932,248.35121c0.3741,0.06493 0.61995,0.44841 0.54911,0.85653c-0.07084,0.40812 -0.43153,0.68631 -0.80563,0.62138c-0.3741,-0.06493 -0.61995,-0.44841 -0.54911,-0.85652c0.07084,-0.40812 0.43153,-0.68632 0.80563,-0.62138z" data-paper-data="{&quot;index&quot;:null}"/><path d="M268.07817,251.71598c0.26945,0.04677 0.44654,0.32298 0.39551,0.61694c-0.05102,0.29396 -0.31083,0.49434 -0.58029,0.44756c-0.26945,-0.04677 -0.44653,-0.32298 -0.39551,-0.61694c0.05102,-0.29396 0.31083,-0.49434 0.58028,-0.44756z" data-paper-data="{&quot;index&quot;:null}"/><path d="M263.23554,247.77602l1.61599,-3.91488l1.25059,0.51621l-1.61599,3.91488z" data-paper-data="{&quot;index&quot;:null}"/><path d="M262.6908,250.75637l0.66967,-2.43915l0.9076,0.24919l-0.66968,2.43915z" data-paper-data="{&quot;index&quot;:null}"/><path d="M263.9414,247.46294c0.3741,0.06493 0.61995,0.44841 0.54911,0.85653c-0.07084,0.40812 -0.43153,0.68631 -0.80563,0.62138c-0.3741,-0.06493 -0.61995,-0.44841 -0.54911,-0.85653c0.07084,-0.40812 0.43153,-0.68631 0.80563,-0.62138z" data-paper-data="{&quot;index&quot;:null}"/><path d="M263.2323,250.39724c0.26945,0.04677 0.44654,0.32298 0.39551,0.61694c-0.05102,0.29396 -0.31083,0.49434 -0.58029,0.44756c-0.26945,-0.04677 -0.44653,-0.32298 -0.39551,-0.61694c0.05102,-0.29396 0.31083,-0.49434 0.58028,-0.44757z" data-paper-data="{&quot;index&quot;:null}"/><path d="M259.9416,245.41318l2.45319,-3.15941l1.06862,0.82976l-2.45319,3.15941z" data-paper-data="{&quot;index&quot;:null}"/><path d="M259.16084,248.24222l0.84141,-2.38536l0.94305,0.33265l-0.84141,2.38536z" data-paper-data="{&quot;index&quot;:null}"/><path d="M259.85503,247.84084c0.26945,0.04677 0.44654,0.32298 0.39551,0.61694c-0.05102,0.29396 -0.31083,0.49434 -0.58029,0.44756c-0.26945,-0.04677 -0.44653,-0.32298 -0.39551,-0.61693c0.05102,-0.29396 0.31083,-0.49434 0.58028,-0.44757z" data-paper-data="{&quot;index&quot;:null}"/><path d="M260.64238,245.32886c0.3741,0.06493 0.61995,0.44841 0.54911,0.85653c-0.07084,0.40812 -0.43153,0.68631 -0.80563,0.62138c-0.3741,-0.06493 -0.61995,-0.44841 -0.54911,-0.85653c0.07084,-0.40812 0.43153,-0.68631 0.80563,-0.62138z" data-paper-data="{&quot;index&quot;:null}"/><path d="M267.59803,234.70421c0.91225,0.15834 1.51666,1.06515 1.34998,2.02541c-0.16667,0.96026 -1.04132,1.61035 -1.95357,1.45201c-0.91225,-0.15834 -1.51665,-1.06516 -1.34997,-2.02542c0.16667,-0.96026 1.04131,-1.61035 1.95356,-1.45201z" data-paper-data="{&quot;index&quot;:null}"/><path d="M262.48733,244.02636c-0.54415,-0.09445 -0.9087,-0.61213 -0.81425,-1.15628c0.09445,-0.54415 0.61214,-0.9087 1.15629,-0.81425c0.54415,0.09445 0.9087,0.61213 0.81425,1.15628c-0.09445,0.54415 -0.61214,0.9087 -1.15629,0.81426z" data-paper-data="{&quot;index&quot;:null}"/><path d="M265.3047,244.993c-0.54415,-0.09445 -0.9087,-0.61213 -0.81426,-1.15628c0.09445,-0.54415 0.61213,-0.9087 1.15628,-0.81425c0.54415,0.09445 0.9087,0.61213 0.81426,1.15628c-0.09445,0.54415 -0.61213,0.9087 -1.15628,0.81425z" data-paper-data="{&quot;index&quot;:null}"/><path d="M268.23513,244.96432c-0.54415,-0.09445 -0.9087,-0.61213 -0.81425,-1.15628c0.09445,-0.54415 0.61213,-0.9087 1.15628,-0.81425c0.54415,0.09445 0.9087,0.61213 0.81426,1.15628c-0.09445,0.54415 -0.61213,0.9087 -1.15628,0.81425z" data-paper-data="{&quot;index&quot;:null}"/><path d="M270.73208,244.68129c-0.54415,-0.09445 -0.9087,-0.61213 -0.81425,-1.15628c0.09445,-0.54415 0.61214,-0.9087 1.15629,-0.81425c0.54415,0.09445 0.9087,0.61213 0.81425,1.15628c-0.09445,0.54415 -0.61214,0.9087 -1.15629,0.81425z" data-paper-data="{&quot;index&quot;:null}"/><path d="M272.00578,240.78286c-0.54415,-0.09445 -0.9087,-0.61214 -0.81425,-1.15629c0.09445,-0.54415 0.61213,-0.9087 1.15628,-0.81425c0.54415,0.09445 0.9087,0.61213 0.81425,1.15628c-0.09445,0.54415 -0.61213,0.9087 -1.15628,0.81425z" data-paper-data="{&quot;index&quot;:null}"/></g></g></g></g></g></svg>