<svg version="1.1" xmlns="http://www.w3.org/2000/svg" xmlns:xlink="http://www.w3.org/1999/xlink" width="131.1183" height="299.077" viewBox="0,0,131.1183,299.077"><g transform="translate(-169.5902,-28.07455)"><g data-paper-data="{&quot;isPaintingLayer&quot;:true}" fill-rule="nonzero" stroke-linejoin="miter" stroke-miterlimit="10" stroke-dasharray="" stroke-dashoffset="0" style="mix-blend-mode: normal"><g><g fill="#663f3f" stroke="#000000" stroke-width="0.5" stroke-linecap="butt"><path d="M216.10845,312.19772l0.11269,-4.15714l8.35146,-0.00881l-0.11269,4.15714z"/><path d="M211.86026,314.87459l0.11269,-4.15714l8.35145,-0.00881l-0.11269,4.15716z"/><path d="M221.3551,308.62905l0.11269,-4.15714l8.35145,-0.00881l-0.11269,4.15714z"/><path d="M221.19009,314.7163l0.11268,-4.15714l8.35144,-0.00881l-0.11269,4.15714z"/><path d="M212.02928,308.63885l0.11269,-4.15714l8.35145,-0.00879l-0.11269,4.15714z"/><path d="M217.8599,319.47069l0.46685,-17.22246l4.45411,-0.00471l-0.46686,17.22247z"/></g><g fill="#663f3f" stroke="#000000" stroke-width="0.5" stroke-linecap="butt"><path d="M267.3647,311.11905l-1.12144,-4.0046l7.97547,-2.47762l1.12146,4.00461z"/><path d="M264.09791,314.93225l-1.12146,-4.00462l7.97547,-2.47762l1.12146,4.00462z"/><path d="M271.32167,306.15866l-1.12146,-4.00461l7.97547,-2.47761l1.12146,4.00462z"/><path d="M272.9638,312.02254l-1.12146,-4.00459l7.97547,-2.47762l1.12146,4.00461z"/><path d="M262.41571,308.92535l-1.12145,-4.00461l7.97547,-2.47762l1.12146,4.0046z"/><path d="M271.18818,317.54901l-4.64603,-16.59053l4.25359,-1.32139l4.64603,16.59053z"/></g><g fill="#663f3f" stroke="#000000" stroke-width="0.5" stroke-linecap="butt"><path d="M252.7378,234.72206l-2.03346,-4.01794l8.60987,-4.35743l2.03347,4.01794z"/><path d="M249.74012,239.48376l-2.03348,-4.01795l8.60987,-4.35743l2.03346,4.01794z"/><path d="M256.30427,228.59103l-2.03347,-4.01794l8.60987,-4.35743l2.03347,4.01794z"/><path d="M259.28184,234.47445l-2.03346,-4.01794l8.60987,-4.35743l2.03347,4.01794z"/><path d="M246.68992,233.45685l-2.03348,-4.01794l8.60987,-4.35743l2.03347,4.01794z"/><path d="M258.30536,240.73675l-8.42436,-16.64577l4.59194,-2.32395l8.42436,16.64576z"/></g><g fill="#663f3f" stroke="#000000" stroke-width="0.5" stroke-linecap="butt"><path d="M227.24563,227.50712l1.44797,-4.26406l9.13729,3.10278l-1.44797,4.26406z"/><path d="M221.74615,228.69693l1.44797,-4.26406l9.13728,3.10277l-1.44797,4.26407z"/><path d="M234.12141,225.76561l1.44796,-4.26406l9.13729,3.10277l-1.44797,4.26406z"/><path d="M232.00118,232.00939l1.44797,-4.26406l9.13727,3.10278l-1.44796,4.26406z"/><path d="M223.91811,222.30083l1.44797,-4.26406l9.13727,3.10278l-1.44797,4.26406z"/><path d="M226.84374,235.69323l5.99871,-17.66542l4.87322,1.65482l-5.9987,17.66542z"/></g><path d="M274.78981,266.6747c3.45269,20.84923 0.77005,38.65865 -5.99186,39.77845c-6.76192,1.1198 -15.04249,-14.87407 -18.49519,-35.72331c-3.45269,-20.84923 -0.77004,-38.65864 5.99187,-39.77844c6.76192,-1.1198 15.04249,14.87407 18.49519,35.72332z" fill="#c50000" stroke="#000000" stroke-width="2" stroke-linecap="butt"/><path d="M235.72894,269.51957c-1.1116,21.10394 -7.56131,37.91979 -14.40582,37.55927c-6.84453,-0.36052 -11.49197,-17.76089 -10.38038,-38.86482c1.1116,-21.10394 7.56131,-37.9198 14.40582,-37.55928c6.84453,0.36052 11.49197,17.76089 10.38038,38.86482z" fill="#c50000" stroke="#000000" stroke-width="2" stroke-linecap="butt"/><path d="M230.23284,320.45446c0.24917,3.02581 -2.41496,5.10186 -9.64329,5.6971c-7.22833,0.59524 -9.02882,-1.72603 -9.27799,-4.75184c-0.24917,-3.02581 1.14734,-5.61035 8.37567,-6.20559c7.22833,-0.59524 10.29644,2.23452 10.54561,5.26034z" fill="#c50000" stroke="#000000" stroke-width="2" stroke-linecap="butt"/><path d="M284.56169,317.81921c0.24917,3.02581 -2.17622,3.03929 -9.40456,3.63454c-7.22833,0.59524 -6.84927,-0.06689 -7.09844,-3.0927c-0.24917,-3.02581 -1.27095,-5.20693 5.95739,-5.80217c7.22833,-0.59524 10.29644,2.23452 10.54561,5.26034z" fill="#c50000" stroke="#000000" stroke-width="2" stroke-linecap="butt"/><path d="M218.70761,325.19603c-0.30252,-0.04188 -0.26063,-0.34441 -0.26063,-0.34441l0.0784,-0.41686c1.62878,-2.78758 -0.89683,-5.22867 -2.4869,-7.10726c0,0 -0.19731,-0.23312 0.0358,-0.43043c0.23312,-0.19731 0.43041,0.03581 0.43041,0.03581c1.82835,2.1601 4.22003,4.66487 2.555,7.79784l-0.00768,0.20467c0,0 -0.04188,0.30252 -0.3444,0.26062z" fill="#000000" stroke="none" stroke-width="0.5" stroke-linecap="butt"/><path d="M223.84743,324.78013c-0.30437,0.02507 -0.32944,-0.27931 -0.32944,-0.27931l0.00313,-0.33896c0.05687,-0.1452 0.11375,-0.29038 0.17062,-0.43558c0.94118,-3.85015 -2.01432,-4.45748 -2.31269,-7.83386c0,0 -0.02506,-0.30437 0.27931,-0.32944c0.30437,-0.02507 0.32944,0.27931 0.32944,0.27931c0.11526,1.53099 1.70441,2.20865 2.11311,3.43283c0.63403,1.89907 0.65154,2.67585 0.17331,4.63501c-0.06135,0.15789 -0.12271,0.31579 -0.18406,0.4737l0.03656,0.06687c0,0 0.02506,0.30437 -0.27931,0.32944z" fill="#000000" stroke="none" stroke-width="0.5" stroke-linecap="butt"/><path d="M276.20479,319.2271c-0.29668,-0.07246 -0.22422,-0.36915 -0.22422,-0.36915l0.00785,-0.0321c0.37626,-1.53221 3.15444,-4.11551 2.43418,-5.24664c0,0 -0.15854,-0.26102 0.10249,-0.41957c0.26103,-0.15855 0.41957,0.1025 0.41957,0.1025c1.01455,1.73051 -1.89624,3.78753 -2.36288,5.70866l-0.00785,0.03209c0,0 -0.07248,0.29668 -0.36915,0.22422z" fill="#000000" stroke="none" stroke-width="0.5" stroke-linecap="butt"/><path d="M222.36322,248.60751c0.1975,-0.23294 0.43045,-0.03545 0.43045,-0.03545l0.28316,0.26061c0.64599,1.10188 1.58147,2.04197 2.1457,3.38422c0.31007,3.50871 5.28495,4.66619 3.33277,9.17174c-1.01271,1.08175 -3.56316,1.88944 -4.71614,0.56785c-0.60009,-0.68785 -0.56488,-1.96134 -1.37998,-2.56073c-1.13882,-0.83742 -2.34065,-0.9419 -3.33834,-2.21994c-0.64715,-2.15693 -0.05444,-8.68276 3.39502,-8.04205c0,0 0.01202,0.00295 0.03065,0.01005l-0.14784,-0.10589c0,0 -0.23295,-0.1975 -0.03544,-0.43044z" fill="#000000" stroke="none" stroke-width="0.5" stroke-linecap="butt"/><path d="M233.00382,273.28744l0.15219,-0.01253c1.31728,-0.07968 1.47336,1.14624 1.55766,2.17001c0.19936,2.42098 -0.5609,4.35245 -0.3617,6.77141c0.20452,2.48361 0.62922,4.83522 -0.51968,6.87322c0.07717,1.39496 -3.55612,7.09605 -5.02855,5.36533c0,0 -0.04198,-0.06911 -0.04717,-0.15779l-0.23902,-0.10385c-0.34297,-0.5647 -0.93922,-0.72802 -1.36767,-1.19591c-1.15915,-1.26585 -0.55408,-3.68525 -0.67761,-5.18537c-0.07747,-1.33579 -1.13909,-1.95443 -1.655,-3.01512c-0.91177,-1.87458 0.89992,-2.72474 1.51689,-4.06402c0.40703,-0.88355 -0.84691,-1.81389 -0.81244,-2.72395c0.31591,-1.75897 3.70479,-4.81106 5.5556,-4.97869c0.46577,-0.04219 1.07527,0.24522 1.65041,0.49379c0.03668,-0.21679 0.27609,-0.2365 0.27609,-0.2365z" fill="#000000" stroke="none" stroke-width="0.5" stroke-linecap="butt"/><path d="M295.19883,222.16197c0.29668,0.07248 0.22422,0.36915 0.22422,0.36915l-0.01756,0.06869c0.09159,0.0188 0.21858,0.0797 0.23439,0.27173c0.02507,0.30437 -0.27931,0.32944 -0.27931,0.32944l-0.19048,-0.05031c-0.0427,0.06897 -0.08541,0.13795 -0.12813,0.20693c-1.6941,3.03319 -4.05494,3.18855 -6.89372,1.58529c-2.85728,-0.74524 -4.53015,-4.46094 -5.829,-6.85263c-0.52002,-1.99209 -2.28442,-3.80953 -1.73299,-6.17579c0,0 0.07248,-0.29668 0.36915,-0.22422c0.03687,0.00902 0.06803,0.02149 0.09435,0.03642c0.04769,-0.01723 0.08529,-0.02034 0.08529,-0.02034c0.49212,-0.04053 2.27709,-0.43908 2.65755,-0.1291c0.60532,0.49322 0.4352,2.51829 1.40934,2.90434c0.58536,0.23198 1.57255,-0.47261 2.07905,-0.42003c0.97575,0.10129 1.31402,1.13372 1.62445,1.86066c1.14718,3.32978 4.17921,3.7728 6.08839,6.2535c0.05199,-0.02475 0.1191,-0.03473 0.205,-0.01374zM295.39365,222.75479l-0.0185,-0.03615l-0.00114,0.00448c0.00657,0.01053 0.01311,0.02108 0.01965,0.03167z" fill="#000000" stroke="none" stroke-width="0.5" stroke-linecap="butt"/><path d="M232.10511,216.1387c-0.1975,0.23294 -0.43044,0.03544 -0.43044,0.03544l-0.06029,-0.0589c-0.00347,-0.00191 -0.00691,-0.00383 -0.01035,-0.00575c-0.13604,-0.0041 -0.20719,-0.08039 -0.24412,-0.15238c-1.51811,-1.059 -0.81411,-2.90086 -1.86419,-4.22584c-0.30479,-2.62898 -0.95326,-5.21435 -1.17929,-7.95905c-0.0847,-1.0285 -0.68882,-4.13577 -0.22092,-5.60241c-0.01022,0.00633 -0.02052,0.01277 -0.03086,0.01936c0,0 -0.26103,0.15855 -0.41957,-0.10249c-0.15854,-0.26102 0.1025,-0.41957 0.1025,-0.41957c3.2981,-1.93359 2.40864,3.5551 2.89591,5.07251c0.3943,1.22789 1.16147,1.60069 1.27912,3.02943c0.08637,1.71808 -2.10752,2.91663 -1.24583,4.90868c0.60772,1.40493 3.62821,3.60852 1.18725,4.85894l0.00577,0.02128c0.01334,0.00773 0.02685,0.01538 0.04054,0.02297l0.15934,0.12731c0,0 0.23295,0.1975 0.03545,0.43045z" fill="#000000" stroke="none" stroke-width="0.5" stroke-linecap="butt"/><path d="M221.62982,257.96758l1.78331,-8.11423" fill="none" stroke="#663f3f" stroke-width="2" stroke-linecap="round"/><path d="M223.80877,260.23965l2.30073,-5.55212" fill="none" stroke="#663f3f" stroke-width="2" stroke-linecap="round"/><path d="M222.71306,252.51572c-0.06921,-0.84051 0.55604,-1.57798 1.39654,-1.64719c0.84051,-0.06921 1.57798,0.55604 1.64719,1.39655c0.02451,0.29768 -0.03809,0.58242 -0.1665,0.82914c0.20701,0.4868 0.09893,0.99566 0.09893,0.99566c-0.33124,1.55946 -0.66247,3.11893 -0.99371,4.67839l-0.12489,0.51419c0,0 -0.36236,1.48339 -1.84576,1.12103c-1.4834,-0.36236 -1.12104,-1.84576 -1.12104,-1.84576l0.10429,-0.424c0.33124,-1.55946 0.66247,-3.11893 0.99371,-4.67839c0,0 0.03899,-0.18356 0.15399,-0.40834c-0.07736,-0.16242 -0.12712,-0.34136 -0.14276,-0.53129z" fill="#663f3f" stroke="none" stroke-width="0.5" stroke-linecap="butt"/><path d="M293.87005,245.36467c-0.20045,0.23042 -0.43086,0.02998 -0.43086,0.02998l-0.19932,-0.1734c-3.70449,-3.42994 2.81744,-7.98026 2.57029,-10.88322c-0.32031,-3.46138 -3.38692,-5.12835 -4.25434,-8.34373c-0.21283,-0.0426 -0.4384,-0.10936 -0.67738,-0.20289c-0.18151,0.21639 -0.45932,0.39883 -0.88107,0.48719c-1.49457,0.31312 -1.80769,-1.18144 -1.80769,-1.18144l-0.26407,-1.26681c-0.4119,-2.49081 -0.31125,-6.75524 -1.75778,-8.73795c0,0 -0.84863,-1.26949 0.42085,-2.11812c1.26949,-0.84863 2.11813,0.42085 2.11813,0.42085c0.81371,1.28558 1.23729,2.88857 1.51636,4.55882c0.30659,-0.35284 0.90604,-0.78845 1.80354,-0.34573h-0.00001c1.11844,0.5517 0.87287,1.56626 0.74528,1.91966c0.13251,-0.04565 0.28351,-0.07767 0.45556,-0.09184c1.52187,-0.12532 1.64719,1.39654 1.64719,1.39654c0.09914,1.74948 -0.36046,5.14055 -2.67771,5.21854c0.90727,3.10517 3.89926,4.75314 4.22155,8.23288c0.20488,2.40623 -6.07983,7.8574 -2.77781,10.47643l0.19932,0.17339c0,0 0.23042,0.20045 0.02997,0.43086z" fill="#663f3f" stroke="none" stroke-width="0.5" stroke-linecap="butt"/><path d="M200.51409,220.60492c-0.97161,1.94339 -5.6237,1.15159 -10.39074,-1.76852c-4.76704,-2.92012 -7.84385,-6.86277 -6.87223,-8.80615c0.97161,-1.94339 5.6237,-1.15159 10.39074,1.76852c4.76704,2.92012 7.84385,6.86277 6.87223,8.80615z" fill="#000000" stroke="none" stroke-width="0" stroke-linecap="butt"/><path d="M180.92319,239.49908c0.03523,0.30336 -0.26814,0.33859 -0.26814,0.33859l-0.34229,0.03975c-0.39023,0.04523 -0.77943,0.10107 -1.16639,0.1688c-4.08787,1.38378 -8.67909,-0.94648 -9.05616,-5.59301c-0.23727,-2.92383 0.02711,-7.3017 1.78259,-9.15406c0.28587,-0.30164 -0.17522,-0.9572 0.12928,-1.24002c0.25406,-0.23596 1.45992,-0.23268 1.84752,-0.3367c3.3142,-3.54209 8.096,-2.12494 11.76128,-0.85333c3.11135,-0.59144 2.71925,-2.03407 4.77984,-4.00322c0.734,-0.70144 2.27392,-1.19918 2.12124,-2.37437c0,0 -0.02506,-0.30438 0.27931,-0.32944c0.30437,-0.02507 0.32944,0.27931 0.32944,0.27931c0.07648,1.52144 -1.31691,1.98425 -2.31487,2.87258c-2.23354,1.98817 -1.78294,3.61437 -5.23953,4.16433c-3.78912,-1.18822 -7.97053,-2.65839 -11.40277,0.76809c-0.26523,0.08 -1.5908,0.1354 -1.75498,0.26865c-0.30324,0.24612 0.16877,0.85514 -0.0623,1.17c-1.46759,1.99978 -1.89377,5.68099 -1.64726,8.71875c0.34533,4.25547 4.53069,6.39267 8.2932,5.05137c0.4147,-0.07378 0.8317,-0.13582 1.25009,-0.18449l0.34229,-0.03975c0,0 0.30336,-0.03522 0.33859,0.26814z" fill="#929292" stroke="#929292" stroke-width="1" stroke-linecap="butt"/><path d="M297.36732,245.77658c-0.30437,0.02508 -0.32945,-0.27929 -0.32945,-0.27929l-0.02981,-0.3618c-0.31169,-3.77744 -3.42356,-5.6407 -3.07302,-9.57298c1.40092,-3.34389 2.89822,-6.82567 -0.24575,-9.49124c0,0 -0.23295,-0.1975 -0.03544,-0.43044c0.1975,-0.23295 0.43045,-0.03545 0.43045,-0.03545c3.33936,2.83122 1.97974,6.56094 0.44358,10.10417c-0.29299,3.76363 2.7821,5.65742 3.08891,9.37571l0.02981,0.36188c0,0 0.02508,0.30437 -0.2793,0.32945z" fill="#1c00ff" stroke="none" stroke-width="0.5" stroke-linecap="butt"/><path d="M291.10273,244.11674c-0.3043,0.02592 -0.33022,-0.27839 -0.33022,-0.27839l0.02891,-0.15533c-1.48425,-2.16295 -0.90922,-4.89607 -0.32433,-7.23549c-0.11079,-2.06037 2.09561,-3.58585 2.29913,-5.53045c0.13793,-1.31785 -0.75889,-3.29488 -1.2783,-4.50936c0,0 -0.12004,-0.28083 0.16079,-0.40086c0.28083,-0.12003 0.40086,0.16079 0.40086,0.16079c0.55937,1.30952 1.47327,3.38425 1.32415,4.81291c-0.20111,1.92683 -2.49358,3.52422 -2.2979,5.51735c-0.51203,2.1458 -1.23852,4.8556 0.21429,6.83241l0.08101,0.45618c0,0 0.02592,0.30431 -0.27838,0.33022z" fill="#000000" stroke="none" stroke-width="0.5" stroke-linecap="butt"/><path d="M291.03085,242.71827c-0.17883,-0.24757 0.06876,-0.4264 0.06876,-0.4264l0.25155,-0.1817c2.48159,-1.78013 5.38467,-5.23181 1.95653,-7.48208c-1.60733,-1.05891 -5.54186,-3.03012 -4.187,-5.65285c0.51566,-0.9982 1.61042,-1.6466 2.06773,-2.80662c0,0 0.1137,-0.28345 0.39715,-0.16975c0.28345,0.1137 0.16975,0.39715 0.16975,0.39715c-0.68731,1.68828 -2.62258,2.42588 -2.05704,4.46747c0.38859,1.4028 2.80169,2.50586 3.94471,3.25404c3.86131,2.5373 0.86063,6.45659 -1.93418,8.48777l-0.25155,0.1817c0,0 -0.24758,0.17882 -0.4264,-0.06876z" fill="#420000" stroke="none" stroke-width="0.5" stroke-linecap="butt"/><path d="M293.06475,242.31831c-0.11725,0.28199 -0.39925,0.16474 -0.39925,0.16474l-0.09178,-0.03816c-4.60612,-1.94419 -2.03278,-4.62955 -0.30221,-7.30321c0.70888,-1.04462 1.84852,-1.31499 2.33534,-2.6116c0.75865,-2.02056 -1.91715,-4.44679 -3.2999,-5.61914c0,0 -0.23295,-0.1975 -0.03545,-0.43045c0.1975,-0.23295 0.43044,-0.03544 0.43044,-0.03544c1.62529,1.37798 4.31318,3.95679 3.47867,6.29453c-0.48884,1.36941 -1.70871,1.6654 -2.39998,2.73957c-1.56765,2.31974 -4.16353,4.68967 0.02759,6.40174l0.09178,0.03816c0,0 0.28199,0.11725 0.16474,0.39925z" fill="#04ff00" stroke="none" stroke-width="0.5" stroke-linecap="butt"/><g><g fill="#663f3f" stroke="#000000" stroke-width="0.5" stroke-linecap="butt"><path d="M215.76614,150.40842l4.16128,-4.72458l10.12413,8.91705l-4.16129,4.72458z"/><path d="M208.02897,148.98714l4.16129,-4.72459l10.12412,8.91705l-4.16129,4.72459z"/><path d="M225.57616,151.85763l4.16129,-4.7246l10.12412,8.91704l-4.16129,4.72459z"/><path d="M219.48287,158.77575l4.16128,-4.72459l10.12412,8.91705l-4.16129,4.72459z"/><path d="M214.27088,141.90024l4.16128,-4.72458l10.12413,8.91705l-4.16129,4.72458z"/><path d="M210.84617,160.75712l17.23963,-19.5733l5.39952,4.75576l-17.23961,19.57331z"/></g><g fill="#663f3f" stroke="#000000" stroke-width="0.5" stroke-linecap="butt"><path d="M266.68009,157.43491l-3.17549,-5.43639l11.64943,-6.8046l3.17547,5.43639z"/><path d="M262.89675,164.33202l-3.17547,-5.43638l11.64941,-6.8046l3.17549,5.43639z"/><path d="M271.14206,148.57897l-3.17549,-5.43639l11.64942,-6.8046l3.17547,5.43639z"/><path d="M275.79186,156.5394l-3.17549,-5.43639l11.64942,-6.8046l3.17549,5.43639z"/><path d="M258.13354,156.17747l-3.17549,-5.43639l11.64942,-6.80462l3.17547,5.43641z"/><path d="M274.95536,165.36088l-13.15557,-22.5222l6.21303,-3.62912l13.15557,22.52221z"/></g><g fill="#663f3f" stroke="#000000" stroke-width="0.5" stroke-linecap="butt"><path d="M262.60825,50.13577l2.10584,-1.45617l3.12037,4.51254l-2.10584,1.45618z"/><path d="M259.6943,48.81562l2.10584,-1.45617l3.12037,4.51253l-2.10584,1.45617z"/><path d="M266.33749,51.67035l2.10584,-1.45617l3.12036,4.51252l-2.10584,1.45617z"/><path d="M263.25392,53.8026l2.10585,-1.45618l3.12037,4.51253l-2.10585,1.45617z"/><path d="M262.85305,46.63137l2.10584,-1.45617l3.12037,4.51253l-2.10584,1.45617z"/><path d="M259.6511,53.73699l8.72421,-6.03271l1.66419,2.40667l-8.72421,6.03271z"/></g><g fill="#663f3f" stroke="#000000" stroke-width="0.5" stroke-linecap="butt"><path d="M213.10911,46.28441l-1.68999,-1.92327l4.12129,-3.62139l1.68999,1.92327z"/><path d="M212.13489,49.33149l-1.68999,-1.92327l4.1213,-3.62139l1.68999,1.92327z"/><path d="M214.20202,42.40269l-1.68999,-1.92327l4.1213,-3.62139l1.68998,1.92327z"/><path d="M216.67665,45.21891l-1.68998,-1.92327l4.1213,-3.62139l1.68999,1.92327z"/><path d="M209.59992,46.44658l-1.68999,-1.92327l4.1213,-3.62139l1.68999,1.92327z"/><path d="M217.02823,48.80514l-7.00135,-7.96785l2.19802,-1.93141l7.00137,7.96784z"/></g><g fill="#663f3f" stroke="#000000" stroke-width="0.5" stroke-linecap="butt"><path d="M237.36559,123.42459l0.02343,-8.55126l18.32415,0.05022l-0.02344,8.55126z"/><path d="M228.18845,128.89673l0.02343,-8.55126l18.32414,0.05022l-0.02343,8.55126z"/><path d="M248.68556,116.12591l0.02342,-8.55126l18.32415,0.05022l-0.02344,8.55126z"/><path d="M248.65124,128.64741l0.02344,-8.55127l18.32415,0.05022l-0.02342,8.55127z"/><path d="M228.22359,116.06984l0.02343,-8.55126l18.32415,0.0502l-0.02343,8.55128z"/><path d="M241.60021,138.40102l0.09709,-35.42669l9.77288,0.02678l-0.09709,35.42668z"/></g><path d="M293.90151,68.47439c1.91222,23.22113 -15.77129,43.62942 -39.49722,45.58321c-23.72594,1.95379 -44.50975,-15.2868 -46.42197,-38.50792c-1.91222,-23.22113 15.77129,-43.62943 39.49722,-45.58322c10.24043,-0.84328 14.72804,28.08426 22.59148,33.32997c10.35527,6.908 22.74362,-8.02062 23.8305,5.17795z" fill="#c50000" stroke="#000000" stroke-width="0.5" stroke-linecap="butt"/><path d="M228.84531,62.30856c3.02581,-0.24917 5.7256,2.54683 6.03014,6.24505c0.30454,3.69822 -1.90149,6.89821 -4.9273,7.14738c-3.02581,0.24917 -5.7256,-2.54683 -6.03014,-6.24505c-0.30454,-3.69822 1.90149,-6.89821 4.9273,-7.14738z" fill="#000000" stroke="#000000" stroke-width="0.5" stroke-linecap="butt"/><path d="M226.71871,86.20328c-0.30508,-0.01397 -0.29112,-0.31905 -0.29112,-0.31905l0.02674,-0.45919c0.20035,-0.67979 -0.15331,-1.32658 -0.68078,-1.78209c-0.13357,-1.19277 -0.96679,-2.27423 -0.79809,-3.55405c0.17874,-1.35597 1.25836,-1.91034 1.73594,-3.02882c0.29067,-0.68078 -0.24777,-2.61596 -0.31167,-3.39197c0,0 -0.02506,-0.30437 0.27931,-0.32944c0.30437,-0.02507 0.32944,0.27931 0.32944,0.27931c0.07667,0.93098 0.60147,2.80668 0.26983,3.6695c-0.42076,1.09468 -1.51613,1.62214 -1.69885,2.89248c-0.16363,1.13756 0.68831,2.12123 0.73734,3.18372c0.67384,0.56037 0.90845,1.36373 0.73093,2.2063l-0.00993,0.34218c0,0 -0.01398,0.30509 -0.31905,0.29112z" fill="#420000" stroke="none" stroke-width="0.5" stroke-linecap="butt"/><path d="M232.72204,87.18233c-0.30437,0.02507 -0.32944,-0.2793 -0.32944,-0.2793l-0.03008,-0.36525c-0.14007,-1.70089 1.24106,-2.61831 1.97188,-4.15867c2.7408,-2.6223 -1.84122,-6.16256 -2.0907,-9.19222c0,0 -0.02506,-0.30437 0.27931,-0.32944c0.30437,-0.02507 0.32944,0.27931 0.32944,0.27931c0.28196,3.42404 4.91731,6.39806 1.98398,9.59028c-0.65472,1.39969 -1.98558,2.29819 -1.86515,3.76062l0.03007,0.36525c0,0 0.02506,0.30437 -0.27931,0.32944z" fill="#000000" stroke="none" stroke-width="0.5" stroke-linecap="butt"/><path d="M229.48734,85.22044c-0.2733,0.13632 -0.40961,-0.13698 -0.40961,-0.13698l-0.021,-0.04211c-0.09782,-0.20024 -0.19565,-0.4005 -0.29348,-0.60073c-0.15045,-1.65971 -0.63134,-3.95843 0.07794,-5.49619c0.54358,-1.17854 1.90556,-2.32961 0.88768,-3.94251c0,0 -0.15855,-0.26102 0.10249,-0.41956c0.26103,-0.15855 0.41957,0.1025 0.41957,0.1025c1.10963,1.88278 -0.21344,3.16587 -0.86555,4.53697c-0.64431,1.35472 -0.14184,3.56115 -0.03383,5.05445c0.08392,0.16415 0.16786,0.32831 0.25179,0.49245l0.021,0.04211c0,0 0.13632,0.2733 -0.13698,0.40961z" fill="#04ff00" stroke="none" stroke-width="0.5" stroke-linecap="butt"/><path d="M231.31832,85.76574c-0.02507,-0.30437 0.27931,-0.32944 0.27931,-0.32944l0.22862,0.15057c0.52217,-1.27849 1.50772,-2.17469 1.93082,-3.34595c1.01746,-2.52152 0.39883,-3.2853 -1.15398,-5.24527c-0.72435,-0.9143 -2.27736,-1.30732 -1.71927,-2.85322c0,0 0.1137,-0.28345 0.39715,-0.16976c0.28346,0.11371 0.16975,0.39715 0.16975,0.39715c-0.5318,1.14274 2.31384,3.02542 2.98824,3.8504c1.14483,1.40045 0.46449,2.794 -0.115,4.24809c-0.49208,1.14512 -1.42463,2.0563 -1.93082,3.34595l-0.74537,0.23078c0,0 -0.30437,0.02506 -0.32944,-0.27931z" fill="#1c00ff" stroke="none" stroke-width="0.5" stroke-linecap="butt"/><path d="M225.12132,91.02938c-1.03998,-2.92409 0.28126,-6.06429 2.95107,-7.01385c2.66981,-0.94956 5.67721,0.65112 6.71719,3.57521c1.03998,2.9241 -0.28126,6.06429 -2.95107,7.01385c-2.66981,0.94956 -5.67721,-0.65111 -6.71719,-3.5752z" fill="#ffffff" stroke="#000000" stroke-width="0" stroke-linecap="butt"/><path d="M231.29037,93.61284c0.03322,0.40344 -0.37591,0.7664 -0.91384,0.8107c-0.53792,0.0443 -1.00092,-0.24685 -1.03415,-0.65029c-0.03322,-0.40344 0.37591,-0.7664 0.91384,-0.8107c0.53792,-0.0443 1.00092,0.24685 1.03415,0.65029z" fill="#000000" stroke="none" stroke-width="0" stroke-linecap="butt"/><path d="M264.05827,69.68192c-1.03998,-2.92409 0.28126,-6.0643 2.95107,-7.01385c1.34597,-0.47872 1.96416,1.71894 3.18637,2.37936c1.20214,0.64957 3.01515,-0.25409 3.53083,1.19584c1.03998,2.9241 -0.28126,6.06429 -2.95107,7.01385c-2.66981,0.94956 -5.67721,-0.65112 -6.71719,-3.57521z" fill="#ffffff" stroke="#000000" stroke-width="0.5" stroke-linecap="butt"/><path d="M269.60791,68.86539c0.03322,0.40344 -0.37591,0.7664 -0.91384,0.8107c-0.53792,0.0443 -1.00092,-0.24685 -1.03415,-0.65029c-0.03322,-0.40344 0.37591,-0.7664 0.91384,-0.8107c0.53792,-0.0443 1.00092,0.24685 1.03415,0.65029z" fill="#000000" stroke="none" stroke-width="0" stroke-linecap="butt"/><path d="M257.45129,92.66833l-9.58956,2.62831l-9.51077,-0.13612l-3.62382,-3.0724z" fill="#000000" stroke="#3e0000" stroke-width="0.5" stroke-linecap="round"/><path d="M213.13841,34.42795c5.12836,4.62268 3.16569,4.50363 0.53431,7.42285c-2.63138,2.91922 -4.06903,4.22634 -9.19738,-0.39634c-5.12836,-4.62268 -8.1764,-9.10847 -5.54502,-12.02769c2.63138,-2.91922 9.07974,0.37849 14.20809,5.00117z" fill="#ff0000" stroke="#000000" stroke-width="0.5" stroke-linecap="butt"/><path d="M213.02144,36.28815c3.35731,3.02626 2.07243,2.94833 0.34978,4.85941c-1.72264,1.91108 -2.66382,2.7668 -6.02113,-0.25946c-3.35731,-3.02626 -5.35272,-5.96291 -3.63007,-7.874c1.72264,-1.91108 5.94411,0.24779 9.30143,3.27405z" fill="#d00000" stroke="#000000" stroke-width="0.5" stroke-linecap="butt"/><path d="M280.47314,55.46857c-0.29891,0.06264 -0.36155,-0.23627 -0.36155,-0.23627l-0.01072,-0.05118c-0.13066,-0.9346 -1.40206,-2.4178 -2.17855,-3.25281c-1.38883,-2.2042 -2.93245,-2.38168 -5.4241,-1.90066c-1.27516,0.24618 -3.48844,2.04084 -3.82577,0.28629c0,0 -0.02506,-0.30437 0.27931,-0.32944c0.30437,-0.02507 0.32944,0.27931 0.32944,0.27931c-0.08642,0.61051 2.31564,-0.68243 3.10054,-0.83576c2.67215,-0.52201 4.52963,-0.26888 6.02509,2.12831c0.92699,0.99611 1.99914,2.351 2.29186,3.49948l0.01072,0.05116c0,0 0.06264,0.29892 -0.23627,0.36155z" fill="#04ff00" stroke="none" stroke-width="0.5" stroke-linecap="butt"/><path d="M280.51563,57.85242c-0.22272,0.20897 -0.43169,-0.01375 -0.43169,-0.01375l-0.43097,-0.50601c-0.30006,-1.20903 -1.90588,-1.97979 -2.15489,-3.43485c-0.96649,-1.02221 -2.16976,-4.24295 -3.5154,-4.65736c-1.16825,-0.35979 -3.50709,0.31213 -4.75159,0.41461c0,0 -0.30437,0.02506 -0.32944,-0.27931c-0.02507,-0.30437 0.27931,-0.32944 0.27931,-0.32944c1.31774,-0.10852 3.74372,-0.7971 4.98836,-0.38745c1.57083,0.51701 2.81101,3.7605 3.87585,4.9673c0.29764,1.50507 1.7546,2.23099 2.19271,3.53055l0.29149,0.26401c0,0 0.20897,0.22271 -0.01375,0.43168z" fill="#1c00ff" stroke="none" stroke-width="0.5" stroke-linecap="butt"/><path d="M281.29499,58.46774c0.02496,0.30438 -0.27943,0.32934 -0.27943,0.32934l-0.34234,0.02807c-3.48722,0.27502 -4.24302,-2.48604 -5.28237,-5.11357c-0.21337,-2.43513 -1.95133,-6.47257 -5.29333,-5.0098c-0.5448,0.23846 -0.88548,0.92634 -1.47516,1.00344c0,0 -0.30437,0.02506 -0.32944,-0.27931c-0.02507,-0.30437 0.27931,-0.32944 0.27931,-0.32944c0.78968,-0.00385 0.97001,-0.9383 1.96251,-1.07413c3.54723,-0.48546 5.21816,2.50644 5.45067,5.54928c0.94972,2.35098 1.48263,4.89476 4.63968,4.64464l0.34057,-0.02792c0,0 0.30438,-0.02496 0.32933,0.27943z" fill="#000000" stroke="none" stroke-width="0.5" stroke-linecap="butt"/><path d="M274.14324,59.33331c-0.26418,0.15323 -0.4174,-0.11095 -0.4174,-0.11095l-0.12184,-0.21007c-1.74696,-3.01467 5.03289,-6.5191 2.3132,-9.68351c-0.88177,-2.38298 -3.1387,-2.43155 -5.60801,-1.57777c-0.77426,0.26771 -2.50696,0.68887 -1.73018,1.82067c0,0 0.15854,0.26104 -0.1025,0.41957c-0.26104,0.15854 -0.41957,-0.10249 -0.41957,-0.10249c-0.91862,-1.64572 0.78734,-2.29486 2.05636,-2.7163c2.64095,-0.87709 5.38426,-0.8376 6.33368,1.85235c2.83333,3.50168 -3.92159,6.91314 -2.31465,9.68101l0.12184,0.21007c0,0 0.15323,0.26418 -0.11095,0.41741z" fill="#420000" stroke="none" stroke-width="0.5" stroke-linecap="butt"/><path d="M265.37127,166.23066c-1.45766,41.21158 -7.82459,67.2825 -22.32112,66.76976c-14.49653,-0.51274 -17.50185,-32.76617 -16.04419,-73.97775c1.45766,-41.21158 7.39369,-39.55626 21.89024,-39.04353c14.49653,0.51274 17.93274,5.03994 16.47508,46.25152z" fill="#c50000" stroke="#000000" stroke-width="2" stroke-linecap="butt"/><path d="M257.19977,194.29712c-0.56772,20.40114 -9.18767,23.88729 -11.88534,23.81222c-2.69767,-0.07507 -12.34524,-8.66756 -11.77752,-29.06871c0.56772,-20.40114 9.03729,-25.71353 11.73496,-25.63846c2.69767,0.07507 12.49562,10.49379 11.92789,30.89493z" fill="#8b0000" stroke="none" stroke-width="0" stroke-linecap="butt"/><path d="M242.64707,147.45953c-0.0969,-1.17671 0.77846,-2.20916 1.95516,-2.30606c1.17671,-0.0969 2.20916,0.77846 2.30606,1.95516c0.0969,1.17671 -0.77846,2.20916 -1.95516,2.30606c-1.17671,0.0969 -2.20916,-0.77846 -2.30606,-1.95516z" fill="#000000" stroke="none" stroke-width="0.5" stroke-linecap="butt"/><path d="M243.57099,136.3517c-0.0969,-1.17671 0.77846,-2.20917 1.95516,-2.30607c1.17671,-0.0969 2.20916,0.77846 2.30606,1.95516c0.0969,1.17671 -0.77846,2.20916 -1.95516,2.30606c-1.17671,0.0969 -2.20916,-0.77845 -2.30606,-1.95516z" fill="#000000" stroke="none" stroke-width="0.5" stroke-linecap="butt"/><path d="M216.28373,186.20439c-6.88755,19.97932 -17.72392,34.36491 -24.2037,32.13111c-6.47978,-2.2338 -6.14921,-20.24109 0.73834,-40.22042c6.88755,-19.97932 17.72392,-34.36491 24.2037,-32.13111c6.47978,2.2338 6.14921,20.2411 -0.73834,40.22042z" fill="#c50000" stroke="#000000" stroke-width="2" stroke-linecap="butt"/><path d="M298.20186,186.29879c3.45269,20.84923 0.77004,38.65865 -5.99187,39.77845c-6.76192,1.1198 -15.04249,-14.87409 -18.49519,-35.72332c-3.45269,-20.84923 -0.77004,-38.65864 5.99187,-39.77843c6.76192,-1.1198 15.04249,14.87407 18.49518,35.72331z" fill="#c50000" stroke="#000000" stroke-width="2" stroke-linecap="butt"/><path d="M263.4217,168.22494c-0.21121,-0.11698 -0.16295,-0.30847 -0.13347,-0.38354c-0.76346,-0.26636 -1.52247,-0.61966 -1.74781,-0.38855c-0.21669,0.22223 0.4337,0.75264 -0.24369,1.17114c0.43898,2.9693 -0.41906,6.82786 -1.85998,9.59433c0.09432,0.11309 0.18659,0.25391 0.27928,0.42836l-0.13269,0.12162l0.06117,0.05186l-0.37241,0.43924c-0.05054,0.05962 -0.12383,0.09996 -0.20788,0.10688c-0.1681,0.01384 -0.3156,-0.1112 -0.32944,-0.2793l-0.05013,-0.60875l0.16093,-0.01325c0.00057,-0.01256 0.00122,-0.02512 0.00195,-0.03763c-0.38525,-0.15002 -0.88105,0.00788 -1.28728,0.04133c-1.43197,0.11792 -4.5451,1.21806 -5.82869,0.63851c-1.40715,-0.63534 -3.29387,-3.53385 -3.42424,-5.08598c-0.22359,-2.71513 0.29968,-4.74368 2.44672,-6.57969c1.1516,-0.98478 3.5394,-0.79484 4.17552,-2.412c-0.20608,-2.11108 -3.67464,-9.89177 1.58112,-7.91234c0.11819,-0.05159 0.24546,-0.00055 0.24546,-0.00055c0.7273,0.30982 1.58144,-0.26627 2.27377,0.03047c0.77218,0.33097 0.93209,2.29247 1.59226,2.50223c1.42196,0.45182 1.86686,-2.7281 3.16132,-0.72715c0.55703,0.95012 0.52163,1.81387 1.37119,2.46324l0.12358,0.41081c0,0 0.02019,0.24527 -0.19583,0.31359c0.55261,1.49382 0.85608,3.07194 -0.26243,4.50925c-0.21733,0.39647 -0.51942,0.68621 -0.73971,1.05001c0.16705,0.04296 0.27812,0.03629 0.30494,-0.05404l0.14763,-0.3786c0,0 0.11371,-0.28346 0.39715,-0.16976c0.28346,0.11371 0.16974,0.39715 0.16974,0.39715l-0.19136,0.46648c-0.22911,0.20405 -0.60459,0.19159 -1.02499,0.09136l-0.04657,0.0841c0,0 -0.14799,0.26716 -0.41515,0.11917z" fill="#000000" stroke="none" stroke-width="0.5" stroke-linecap="butt"/><path d="M203.37637,158.49329c0.16924,0.06788 0.1969,0.19628 0.19171,0.28874c1.17798,-0.16198 2.62957,-0.39826 3.53822,0.20241c1.33636,0.88336 0.74869,2.30252 1.22076,3.53127c0.23538,0.61265 1.20277,1.15065 1.61965,1.66384c2.02337,1.86591 0.97824,3.42045 -1.47761,3.62269c-0.42221,0.03477 -1.9217,0.35933 -2.12916,-0.2637c-0.05084,-0.1527 0.06349,-0.3734 0.26593,-0.62084c-1.43429,0.54633 -3.06182,0.83906 -3.66212,0.46454c-0.54901,-0.34253 -0.73519,-1.86909 -0.96303,-1.95345c-0.35681,-0.13211 -1.15065,0.54936 -1.39943,0.69815c-0.17074,0.03493 -0.34149,0.06988 -0.51224,0.10483c-0.05365,0.12269 -0.19009,0.16898 -0.19009,0.16898c-0.06615,0.02207 -0.12915,0.04143 -0.18912,0.05815c-0.02809,0.01342 -0.08266,0.035 -0.14623,0.03693c-2.52347,0.56594 1.19994,-4.26766 1.8178,-5.38313c0.40047,-0.70908 0.66374,-1.37022 1.18828,-1.95154c0.0018,-0.26903 0.28076,-0.292 0.28076,-0.292c0.00526,-0.00043 0.01052,-0.00087 0.0158,-0.00132c0.04552,-0.04018 0.09279,-0.0799 0.14195,-0.11916l-0.00901,-0.08562c0,0 0.1137,-0.28345 0.39715,-0.16976z" fill="#000000" stroke="none" stroke-width="0.5" stroke-linecap="butt"/><path d="M217.73896,147.26794c0.16579,-0.01365 0.24871,0.07042 0.28985,0.14983c0.04036,-0.00131 0.0859,0.00629 0.13696,0.02676c0.21537,0.08639 0.20146,0.27078 0.18234,0.35437c1.5668,1.65022 1.3006,3.74354 2.14968,5.7301c0.14424,1.54166 1.33557,3.85542 0.40173,5.2119c0.00745,0.16317 -0.11542,0.30427 -0.27946,0.31808c-0.03157,0.02856 -0.06453,0.05647 -0.09892,0.08374c0,0 -0.23934,0.1897 -0.42904,-0.04965c-0.00063,-0.0008 -0.00126,-0.00159 -0.00188,-0.00238c-0.03794,0.01351 -0.06598,0.01708 -0.06598,0.01708l-0.15182,0.00756c-2.38195,1.00128 -5.79774,-0.12784 -5.09327,-3.0745c0.37987,-1.50902 -0.48924,-3.13229 -0.19456,-4.62474c0.25895,-1.31147 2.27308,-2.19942 3.02604,-3.47898c-0.01182,-0.01014 -0.02372,-0.02028 -0.03573,-0.03039l-0.11522,-0.30934c0,0 -0.02506,-0.30437 0.27931,-0.32944z" fill="#000000" stroke="none" stroke-width="0.5" stroke-linecap="butt"/><path d="M287.34172,179.64335l0.24274,0.18302c1.65008,0.96797 3.74444,1.26693 4.63113,3.40546c0.62808,1.91787 -0.76047,6.70357 -2.12081,8.22697c-0.73254,0.82035 -3.09554,0.49468 -4.08398,0.47737c-2.03605,-0.06863 -2.50198,-3.0057 -4.08637,-4.11495c-1.15783,-0.81062 -3.7946,-1.03794 -5.21225,-1.68095c-1.72099,-1.7965 -4.59938,-6.24824 -2.05895,-8.79663c0.45918,-0.46063 2.46223,-0.15649 3.0746,-0.1564c2.33524,0.00033 8.15346,0.05563 9.61387,2.4561z" fill="#000000" stroke="none" stroke-width="0.5" stroke-linecap="butt"/><path d="M200.22586,186.78159c0.006,-0.00601 0.01234,-0.01201 0.01908,-0.01798c0.22846,-0.20267 0.43114,0.02579 0.43114,0.02579c2.3258,2.62169 2.65176,5.58846 5.394,7.99573c0.16151,1.41086 -0.93378,6.10406 -3.47332,3.67779c-0.78618,-0.75112 -1.36468,-4.06923 -1.49906,-4.91664c-0.74751,-1.30612 -1.66695,-3.08599 -2.57907,-4.40674c-0.19984,-0.28937 -1.06628,-0.98002 -0.95545,-1.39397c0.19775,-0.73856 1.62349,-0.43649 2.13387,-0.76148l0.11179,-0.1561c0,0 0.18996,-0.22404 0.41702,-0.0464z" fill="#000000" stroke="none" stroke-width="0.5" stroke-linecap="butt"/><path d="M206.16207,43.07202c-0.23935,0.18969 -0.42904,-0.04966 -0.42904,-0.04966l-0.22797,-0.28767c-0.54081,-0.6886 -1.29862,-1.21757 -1.88652,-1.88055c-1.29609,-1.64877 -4.6491,-3.45751 -4.90929,-5.59502c0,0 -0.01915,-0.23252 0.17925,-0.30784c0.00023,-0.00059 0.00046,-0.00114 0.00069,-0.00172c0.11371,-0.28344 0.39715,-0.16975 0.39715,-0.16975c2.55407,1.08797 7.3884,0.37294 7.65796,4.20829c-0.5123,1.30484 -0.66637,1.61182 -0.56102,3.11057l-0.18803,0.49071c0,0 -0.00316,0.00787 -0.00974,0.02048l0.02625,0.03313c0,0 0.1897,0.23936 -0.04966,0.42904z" fill="#000000" stroke="none" stroke-width="0.5" stroke-linecap="butt"/><path d="M279.70061,70.095c0.23295,0.1975 0.03545,0.43046 0.03545,0.43046l-0.11478,-0.00294c-0.00327,0.0264 0.19559,0.07235 0.53339,0.13147c-0.64538,-0.70562 -0.89064,-1.47987 0.27372,-2.31065c0,0 0.26103,-0.15853 0.41957,0.1025c0.15855,0.26103 -0.10249,0.41956 -0.10249,0.41956c-0.33993,0.14063 -0.26874,1.26378 -0.06189,1.87494c1.96886,0.30519 6.06646,0.80931 6.96585,0.97663c0.70304,0.36783 2.60908,1.04581 2.65572,2.04176c0.03014,0.64341 -1.69549,3.91983 -2.36466,4.14403c-0.8601,0.28815 -3.59321,-0.98258 -4.48456,-1.29403c-0.46172,-0.16333 -1.50683,-0.54678 -1.7527,-1.01763c-0.54081,-1.03569 0.86875,-1.56243 0.77771,-2.61484c-0.03562,-0.41175 -0.6353,-0.87749 -1.27715,-1.39098c-1.19969,-0.22666 -2.10407,-0.54313 -2.19127,-1.01262l0.25763,-0.4422c0,0 0.1975,-0.23295 0.43045,-0.03545z" fill="#000000" stroke="none" stroke-width="0.5" stroke-linecap="butt"/><path d="M218.71931,99.78354c-0.87435,-0.74131 -1.90048,-1.4261 -2.59896,-2.31953c-1.14647,-2.62796 -3.01697,-4.55783 -4.47123,-6.93389c-0.35043,-0.82013 -2.46686,-3.8939 -2.12086,-5.31744c-0.02066,-0.12405 0.05096,-0.21375 0.10293,-0.26093c0.11513,-0.19741 0.30616,-0.34197 0.59256,-0.41574c0,0 0.06947,-0.00573 0.14478,0.02149c0.5117,-0.18031 0.94765,-0.22031 1.52745,-0.25287c2.29003,1.22456 10.89651,2.36354 7.46672,6.8139c-0.47341,1.99718 1.02942,1.77861 1.04102,2.94235c0.01834,1.84038 0.14608,4.51381 -1.15042,6.0828c0,0 -0.1975,0.23295 -0.43044,0.03544c-0.1665,-0.14116 -0.11311,-0.30042 -0.06909,-0.37981z" fill="#000000" stroke="none" stroke-width="0.5" stroke-linecap="butt"/><path d="M234.84445,156.88018l0.35415,-0.2151c0.28774,-0.17474 0.57252,-0.35442 0.85565,-0.53657c2.5231,-1.99811 10.03619,-1.29499 8.10601,3.35373c-3.65892,2.22225 1.89966,6.09041 -2.15572,8.55347c-1.83711,4.57977 -7.15469,3.01035 -7.58683,-1.43054c-0.06498,-0.78904 -0.57473,-2.69933 -0.23837,-3.40374c0.35695,-0.74754 1.26703,-1.31173 1.41291,-2.27926c0.19963,-1.32388 -1.01477,-2.32777 -1.13154,-3.71795c0,0 -0.02506,-0.30437 0.27931,-0.32944c0.03928,-0.00323 0.07391,-0.00097 0.10442,0.00539z" fill="#000000" stroke="none" stroke-width="0.5" stroke-linecap="butt"/><path d="M234.74811,158.54048c0.56851,-1.41724 1.98575,-0.84874 1.98575,-0.84874l0.94516,0.59591c0.0693,0.11012 0.15348,0.21523 0.24894,0.31228c0.29801,-1.0682 0.69183,-2.14326 1.18621,-3.23581c0,0 0.62953,-1.39122 2.02075,-0.76168c1.39122,0.62953 0.76168,2.02075 0.76168,2.02075c-0.608,1.34362 -1.04256,2.64854 -1.31211,3.94712c0.00423,0.09796 0.00049,0.20276 -0.01248,0.31491c-0.02404,0.20766 -0.07321,0.3836 -0.14019,0.53261c-0.39454,2.58363 -0.14202,5.16994 0.69079,8.0142l0.06666,0.44822c0,0 0.12532,1.52187 -1.39654,1.64719c-1.52187,0.12532 -1.64719,-1.39655 -1.64719,-1.39655l0.04159,0.14385c-0.22043,-0.78062 -0.40484,-1.54701 -0.55176,-2.30245c-0.88278,0.05487 -1.78555,-0.07282 -2.58835,-0.38377l-0.60531,-0.17336c0,0 -1.45956,-0.44885 -1.01071,-1.9084c0.44885,-1.45956 1.9084,-1.01072 1.9084,-1.01072l0.96669,0.31006c0.26981,0.16434 0.61063,0.24128 0.94721,0.23241c-0.06974,-1.11709 -0.04779,-2.21877 0.07106,-3.31666c-0.71398,-0.34389 -1.37077,-0.82341 -1.9032,-1.38842l0.17572,0.19283c0,0 -1.41724,-0.56851 -0.84874,-1.98575z" fill="#663f3f" stroke="none" stroke-width="0.5" stroke-linecap="butt"/><path d="M257.21029,178.72654c-0.85284,1.26667 -2.1195,0.41383 -2.1195,0.41383l-1.10052,-0.79938c-0.62017,-0.70034 -1.27375,-1.37146 -1.94571,-2.02266c-0.04029,0.03251 -0.08059,0.06481 -0.12091,0.09688l-1.84059,0.67885c0,0 -1.45844,0.45248 -1.91092,-1.00596c-0.45248,-1.45844 1.00596,-1.91092 1.00596,-1.91092l0.84865,-0.15548c2.8957,-2.285 5.94093,-6.08241 6.33724,-9.93172c0.20302,-1.97184 -0.78212,-3.85247 -0.95919,-5.78392c0,0 -0.12532,-1.52187 1.39654,-1.64719c1.52187,-0.12532 1.64719,1.39654 1.64719,1.39654c0.08555,1.22439 0.46724,2.38948 0.73158,3.58044c0.12178,0.09666 0.19048,0.17409 0.19048,0.17409c0.96353,1.1087 1.53944,1.62202 2.98495,1.9155l1.29954,-0.12325c0,0 1.52187,-0.12532 1.64719,1.39654c0.12532,1.52187 -1.39654,1.64719 -1.39654,1.64719l-1.7442,0.12739c-1.2396,-0.26936 -2.15109,-0.58708 -2.97319,-1.09314c-0.3203,1.44762 -0.89686,2.86398 -1.64623,4.20362c0.01101,0.031 0.0161,0.04872 0.0161,0.04872c0.41899,1.59726 0.70564,1.90613 2.17265,2.67718l0.75017,0.03307c0,0 1.50683,0.24753 1.2593,1.75435c-0.24753,1.50683 -1.75435,1.2593 -1.75435,1.2593l-1.73494,-0.37516c-1.33454,-0.76595 -2.14959,-1.43464 -2.74767,-2.41278c-0.38844,0.47772 -0.79415,0.93738 -1.21175,1.37606c0.68341,0.6681 1.3486,1.35549 1.98324,2.06967l0.5216,0.29279c0,0 1.26668,0.85284 0.41383,2.1195z" fill="#663f3f" stroke="none" stroke-width="0.5" stroke-linecap="butt"/><path d="M221.21151,157.99615c0.06921,0.84051 -0.55603,1.57797 -1.39654,1.64719c-0.29782,0.02453 -0.58271,-0.03815 -0.82952,-0.16669c-0.85543,0.51441 -1.87989,0.69556 -3.0033,0.27068c-0.58279,-0.22041 -0.86167,-0.86054 -1.1983,-1.42088c-0.20112,-0.05553 -0.41391,-0.16512 -0.63297,-0.35085c-1.16473,-0.9875 -0.17724,-2.15225 -0.17724,-2.15225l0.77482,-0.90865c0.97929,-1.31366 2.14209,-2.2934 2.99502,-3.68103c0,0 0.81286,-1.29269 2.10555,-0.47982c1.29269,0.81286 0.47983,2.10555 0.47983,2.10555c-0.07608,0.11892 -0.15378,0.23496 -0.23285,0.34853c1.72306,0.01086 1.79922,2.17135 0.85309,4.04962c0.14573,0.21203 0.23979,0.46381 0.26242,0.7386z" fill="#663f3f" stroke="none" stroke-width="0.5" stroke-linecap="butt"/><path d="M209.17976,168.18008c-0.13974,0.01151 -0.27664,0.00382 -0.4081,-0.02087l-0.1133,0.15344c0,0 -0.90784,1.22784 -2.13569,0.32001c-0.16488,-0.1219 -0.29125,-0.24958 -0.38647,-0.37928c-0.06306,-0.00916 -0.12837,-0.02185 -0.19602,-0.03838c-0.35369,-0.0864 -0.60243,-0.23652 -0.77619,-0.41507c-0.31173,0.18304 -0.73734,0.26596 -1.29379,0.04274c-1.41724,-0.56851 -0.84874,-1.98575 -0.84874,-1.98575l0.20858,-0.48831c0.80685,-1.45025 1.76559,-2.7433 2.5657,-4.19497c0,0 0.73991,-1.33578 2.07569,-0.59588c0.83773,0.46403 0.85908,1.16242 0.75852,1.61871c0.06314,0.02125 0.12799,0.04677 0.1946,0.0769c0.60738,0.27485 0.82959,0.69486 0.88719,1.0809c0.0998,0.04028 0.20303,0.09296 0.30952,0.15992c0.62025,0.39002 0.75576,0.89051 0.7289,1.30567c0.29949,0.2528 0.50222,0.62013 0.53693,1.04159c0.05417,0.65782 -0.31706,1.25254 -0.88394,1.51317c-0.23603,0.44334 -0.68566,0.76115 -1.2234,0.80543z" fill="#663f3f" stroke="none" stroke-width="0.5" stroke-linecap="butt"/><path d="M200.71049,194.59441c-1.41724,-0.56851 -0.84874,-1.98575 -0.84874,-1.98575l0.25168,-0.56126c0.27096,-0.43089 0.54191,-0.86179 0.81286,-1.29268c0,0 0.81286,-1.29269 2.10555,-0.47983c1.29269,0.81286 0.47982,2.10555 0.47982,2.10555c-0.27096,0.43089 -0.5419,0.86179 -0.81286,1.29269l-0.00257,0.07256c0,0 -0.56851,1.41724 -1.98575,0.84874z" fill="#663f3f" stroke="none" stroke-width="0.5" stroke-linecap="butt"/><path d="M285.22767,177.1255c1.30515,-0.79269 2.09784,0.51247 2.09784,0.51247l0.14661,0.35698c1.14333,-0.07423 1.48591,1.11908 1.48591,1.11908c0.99604,3.52743 0.89958,7.95743 0.49492,11.59196l-0.57125,1.74781c0,0 -0.50357,1.44159 -1.94517,0.93803c-0.55174,-0.19273 -0.81855,-0.52286 -0.93772,-0.857c-0.18972,0.10987 -0.40619,0.18041 -0.6392,0.1996c-0.58307,0.04801 -1.11656,-0.23817 -1.41176,-0.69859l-0.85677,-1.28166l0.00835,-0.00558l-0.02649,-0.0222c-0.39839,-0.68549 -0.69452,-1.41453 -0.90162,-2.17161c-0.13982,0.02411 -0.29611,0.03129 -0.47078,0.01676c-1.52176,-0.12658 -1.39518,-1.64833 -1.39518,-1.64833l0.07689,-0.67375c-0.25206,-3.06095 -0.72359,-4.81904 -1.92869,-7.63047c0,0 -0.60014,-1.40414 0.80399,-2.00429c1.40414,-0.60014 2.00429,0.80399 2.00429,0.80399c0.01124,0.02638 0.02243,0.05271 0.03357,0.07897c0.78328,-0.64367 1.73316,-0.04636 1.73316,-0.04636c0.06275,0.03968 0.12551,0.07937 0.18826,0.11904c0.23511,-0.20046 0.53308,-0.33166 0.86451,-0.35895c0.29367,-0.02418 0.57477,0.03641 0.81918,0.16135c0.09057,-0.08621 0.1987,-0.1692 0.32715,-0.24722zM282.54177,180.7494c-0.02082,-0.01303 -0.04162,-0.02605 -0.06244,-0.03908c0.01242,0.04138 0.02469,0.08272 0.03685,0.12406c0.00848,-0.02836 0.017,-0.05669 0.02559,-0.08498z" fill="#663f3f" stroke="none" stroke-width="0.5" stroke-linecap="butt"/><path d="M210.29361,88.67512c-0.12532,-1.52187 1.39654,-1.64719 1.39654,-1.64719l1.5184,-0.09529c2.07962,0.24071 4.12369,0.85079 6.18984,0.84579c0,0 1.52696,0.01297 1.51399,1.53994c-0.01297,1.52697 -1.53994,1.51399 -1.53994,1.51399c-2.21244,-0.03738 -4.30386,-0.60999 -6.51505,-0.86592l-0.91659,0.10523c0,0 -1.52187,0.12532 -1.64719,-1.39654z" fill="#663f3f" stroke="none" stroke-width="0.5" stroke-linecap="butt"/><path d="M213.74541,93.97616c0.73991,-1.33578 2.07569,-0.59588 2.07569,-0.59588l0.85288,0.47813c0.7278,0.3515 1.55573,0.5461 2.36394,0.53944c0,0 1.52679,0.02673 1.50006,1.55352c-0.02673,1.52679 -1.55352,1.50006 -1.55352,1.50006c-1.21941,-0.04225 -2.44962,-0.32629 -3.56954,-0.81057l-1.07362,-0.58898c0,0 -1.33578,-0.73991 -0.59588,-2.07569z" fill="#663f3f" stroke="none" stroke-width="0.5" stroke-linecap="butt"/><path d="M291.2578,74.67973c-0.56851,1.41724 -1.98575,0.84874 -1.98575,0.84874l0.22487,-0.01759c-2.44215,-0.04593 -4.31592,0.28675 -6.6258,-0.71212c0,0 -1.39122,-0.62953 -0.76168,-2.02075c0.62953,-1.39122 2.02075,-0.76168 2.02075,-0.76168c1.76635,0.85309 3.48498,0.40938 5.42021,0.44098l0.85868,0.23666c0,0 1.41724,0.56851 0.84874,1.98575z" fill="#663f3f" stroke="none" stroke-width="0.5" stroke-linecap="butt"/><path d="M201.90855,37.0874c-0.06921,-0.84051 0.55603,-1.57797 1.39654,-1.64719c0.44241,-0.03643 0.85629,0.11955 1.15917,0.39805c0.39201,0.08246 0.67252,0.28986 0.67252,0.28986c0.43507,0.32169 0.87015,0.64336 1.30522,0.96505l0.57382,0.48208c0,0 1.16473,0.9875 0.17723,2.15225c-0.9875,1.16473 -2.15225,0.17723 -2.15225,0.17723l-0.41449,-0.35585c-0.43507,-0.32169 -0.87015,-0.64336 -1.30522,-0.96505c0,0 -0.05344,-0.03952 -0.12979,-0.1132c-0.67966,-0.10717 -1.22379,-0.66706 -1.28277,-1.38322z" fill="#663f3f" stroke="none" stroke-width="0.5" stroke-linecap="butt"/><path d="M227.88576,69.72885c-0.06921,-0.84051 0.55603,-1.57797 1.39654,-1.64719c0.84051,-0.06921 1.57797,0.55603 1.64719,1.39654c0.06921,0.84051 -0.55603,1.57797 -1.39654,1.64719c-0.84051,0.06921 -1.57797,-0.55603 -1.64719,-1.39654z" fill="#590000" stroke="none" stroke-width="0.5" stroke-linecap="butt"/><path d="M229.8186,67.17127c0.00552,-0.00245 0.01111,-0.00488 0.01674,-0.00728c0.84248,-0.36009 1.20257,0.48239 1.20257,0.48239c0.08648,0.20235 0.81112,1.87908 0.82109,1.98981c0.29998,3.32964 -4.74159,3.395 -5.02601,0.33258c-0.0931,-1.00244 0.74147,-1.77753 1.29392,-2.44201l0.78278,-0.43976c0,0 0.51252,-0.21905 0.90891,0.08428zM229.53134,68.71564l-0.00675,-0.00387c-0.98351,1.13065 -0.12822,2.44669 0.5738,1.51446c0.11196,-0.14867 -0.31168,-1.01162 -0.56705,-1.51061z" fill="#7a0000" stroke="none" stroke-width="0.5" stroke-linecap="butt"/><path d="M224.69899,63.08559c0.81989,-0.40894 1.22882,0.41094 1.22882,0.41094l0.2132,0.51567c1.21633,1.32037 2.04541,2.3966 2.07199,4.19494c0,0 -0.03865,0.9154 -0.95404,0.87675c-0.9154,-0.03865 -0.87675,-0.95404 -0.87675,-0.95404c0.15624,-1.00542 -0.80483,-2.0737 -1.5733,-2.85937l-0.52087,-0.95607c0,0 -0.40894,-0.81989 0.41094,-1.22882z" fill="#663f3f" stroke="none" stroke-width="0.5" stroke-linecap="butt"/><path d="M234.05637,64.20394c0.69885,0.5925 0.10634,1.29135 0.10634,1.29135l-0.34902,0.40298c-0.75101,0.70938 -1.29011,1.17023 -1.78282,2.08395c0,0 -0.44395,0.80147 -1.24541,0.35753c-0.80147,-0.44395 -0.35753,-1.24541 -0.35753,-1.24541c0.60524,-1.0705 1.24321,-1.6929 2.1275,-2.52818l0.2096,-0.25589c0,0 0.5925,-0.69885 1.29134,-0.10634z" fill="#663f3f" stroke="none" stroke-width="0.5" stroke-linecap="butt"/><path d="M234.48175,71.91442c0.27444,0.05736 0.65187,0.2411 0.69908,0.81433c0.0752,0.91312 -0.83793,0.98832 -0.83793,0.98832l-0.89343,-0.27146c-0.659,-0.77494 -1.51227,-0.87735 -2.35964,-1.56855c0,0 -0.69884,-0.5925 -0.10634,-1.29135c0.5925,-0.69885 1.29134,-0.10634 1.29134,-0.10634c0.78146,0.70136 1.44969,0.80802 2.20691,1.43504z" fill="#663f3f" stroke="none" stroke-width="0.5" stroke-linecap="butt"/><path d="M225.72212,75.53666c-0.69885,-0.5925 -0.10634,-1.29134 -0.10634,-1.29134l0.49746,-0.57808c0.37238,-0.55198 0.71601,-1.12383 1.03816,-1.70655c0,0 0.44395,-0.80147 1.24541,-0.35753c0.80147,0.44395 0.35753,1.24541 0.35753,1.24541c-0.34877,0.62853 -0.72016,1.24549 -1.12112,1.84208l-0.61977,0.73968c0,0 -0.5925,0.69884 -1.29135,0.10634z" fill="#663f3f" stroke="none" stroke-width="0.5" stroke-linecap="butt"/><path d="M228.51269,84.7846c-0.30437,0.02507 -0.32944,-0.27931 -0.32944,-0.27931l-0.01253,-0.15218c-0.06476,-0.78634 0.17862,-1.44405 0.1313,-2.22629c0.83003,-2.06919 1.08958,-4.79676 0.95791,-6.97372c0.72266,-1.9104 0.46418,-3.56674 0.29485,-5.62296c0,0 -0.02506,-0.30438 0.27931,-0.32944c0.30437,-0.02507 0.32944,0.27931 0.32944,0.27931c0.16758,2.03503 0.51824,3.89057 -0.29962,5.76417c0.243,2.06959 -0.17039,5.01048 -0.95791,6.97373c0.08643,0.73611 -0.18688,1.35231 -0.12654,2.08507l0.01253,0.15219c0,0 0.02506,0.30437 -0.27931,0.32944z" fill="#663f3f" stroke="none" stroke-width="0.5" stroke-linecap="butt"/><path d="M264.68513,64.71642c0.07124,-3.73958 6.59074,-0.81247 5.81859,1.08044c-0.55457,1.35952 -5.81073,0.50655 -6.29072,-0.14297c0,0 -0.31708,-0.52206 0.20499,-0.83914c0.09625,-0.05847 0.18553,-0.08839 0.26714,-0.09834z" fill="#8b0000" stroke="none" stroke-width="0.5" stroke-linecap="butt"/><path d="M255.21255,76.57485c-0.26577,2.88892 -2.53211,3.3247 -5.5554,3.04657c-3.02329,-0.27813 -5.65867,-1.16486 -5.39291,-4.05377c0.26577,-2.88892 2.93208,-5.00539 5.95537,-4.72725c3.02329,0.27813 5.2587,2.84554 4.99293,5.73445z" fill="#8b0000" stroke="none" stroke-width="0" stroke-linecap="butt"/><path d="M252.671,76.84816c-0.1438,1.56313 -1.37007,1.79891 -3.00589,1.64842c-1.63583,-0.15049 -3.06177,-0.63028 -2.91796,-2.1934c0.1438,-1.56313 1.58648,-2.7083 3.2223,-2.5578c1.63583,0.15049 2.84535,1.53966 2.70155,3.10278z" fill="#000000" stroke="none" stroke-width="0" stroke-linecap="butt"/></g></g></g></g></svg>