<svg version="1.1" xmlns="http://www.w3.org/2000/svg" xmlns:xlink="http://www.w3.org/1999/xlink" width="417.81057" height="283.71004" viewBox="0,0,417.81057,283.71004"><g transform="translate(-37.15203,-73.44741)"><g data-paper-data="{&quot;isPaintingLayer&quot;:true}" fill-rule="nonzero" stroke-linejoin="miter" stroke-miterlimit="10" stroke-dasharray="" stroke-dashoffset="0" style="mix-blend-mode: normal"><path d="M67.38567,338.46514v-182.23077h34.5v182.23077z" fill="#a56000" stroke="#000000" stroke-width="2" stroke-linecap="butt"/><path d="M428.30875,356.15745v-181.34615h25.65385v181.34615z" fill="#a56000" stroke="#000000" stroke-width="2" stroke-linecap="butt"/><path d="M38.78206,206.82023l27.42308,-54.08916l384.34616,-0.88461l-15.92308,54.08916z" fill="#a66100" stroke="#000000" stroke-width="2" stroke-linecap="butt"/><path d="M434.53848,206.2946l15.03847,-53.20454l3.96154,18.57692l-16.80769,54.08917z" fill="#834c00" stroke="#000000" stroke-width="2" stroke-linecap="butt"/><path d="M41.00001,204.21768l393.65385,1.6416l3.11539,22.11539l-391.00001,0.12762z" fill="#a56000" stroke="#000000" stroke-width="2" stroke-linecap="butt"/><path d="M399.11644,337.58053v-111.46154h36.26923v111.46154z" fill="#a56000" stroke="#000000" stroke-width="2" stroke-linecap="butt"/><path d="M48.80875,342.0036v-117.65385h39.80769v117.65385z" fill="#a56000" stroke="#000000" stroke-width="2" stroke-linecap="butt"/><path d="M143.70872,206.54271l-30.43482,-32.0949l23.75023,-22.52177l30.43482,32.0949z" fill="#ffffff" stroke="#000000" stroke-width="2" stroke-linecap="butt"/><path d="M226.29611,197.68854l-18.40254,-31.25386l20.58181,-12.11875l18.40254,31.25386z" fill="#ffffff" stroke="#000000" stroke-width="2" stroke-linecap="butt"/><path d="M152.22027,186.93053l9.90769,-33.96923l21.23077,6.19231l-9.90769,33.96923z" fill="#ffffff" stroke="#000000" stroke-width="2" stroke-linecap="butt"/><path d="M128.13796,163.41574c0.59221,0.15069 1.1465,0.33656 1.34685,0.85072c0.14237,0.36537 0.20867,0.71684 0.21077,1.0505c2.15188,-0.66975 4.26958,-0.97356 6.67063,-1.17352l1.55188,-0.14015c0,0 1.49392,-0.1349 1.62882,1.35902c0.1349,1.49392 -1.35902,1.62882 -1.35902,1.62882l-1.56304,0.14113c-2.77198,0.22796 -5.12005,0.56423 -7.64424,1.62152c1.28448,1.78986 2.99788,3.36476 4.53008,4.98108c2.24782,-0.20232 5.02038,0.54106 6.64951,0.83377l0.44134,-0.02388c0,0 1.5,0 1.5,1.5c0,1.5 -1.5,1.5 -1.5,1.5l-0.9745,-0.02388c-1.52717,-0.27733 -3.04056,-0.32818 -4.57177,-0.54786c-0.33799,-0.04849 -0.83152,-0.27476 -1.24311,-0.39536c-0.26161,0.19528 -0.515,0.27906 -0.74803,0.29478c0.0777,0.81267 1.75448,2.9437 1.91126,3.58206c0.23765,0.96765 0.18783,3.11695 0.18837,4.16892c0,0 0,1.5 -1.5,1.5c-1.5,0 -1.5,-1.5 -1.5,-1.5c0.00028,-0.51604 0.03612,-2.8704 -0.09476,-3.42532c-0.43906,-1.86158 -2.83534,-3.32764 -1.76991,-5.59476c0.09452,-0.20113 0.20575,-0.3829 0.33187,-0.54685c-0.95935,-0.9963 -1.94591,-1.98669 -2.85239,-3.0274c-0.13008,0.31086 -0.27636,0.62379 -0.44573,0.94058l-0.45564,0.75674c0,0 -0.77559,1.28392 -2.05952,0.50833c-1.28392,-0.77559 -0.50833,-2.05952 -0.50833,-2.05952l0.3939,-0.6496c0.5517,-0.96965 0.83267,-1.95541 1.11464,-2.96816c-1.32307,0.05633 -2.62033,-0.46936 -3.22251,-1.79789c-0.42995,-0.94857 0.75667,-1.97826 1.41385,-2.7862c0.47915,-0.58906 1.25904,-0.84919 1.88856,-1.27378c0,0 1.25066,-0.82817 2.07882,0.42249c0.06668,0.1007 0.11988,0.19865 0.16135,0.29366z" fill="#d87700" stroke="none" stroke-width="0.5" stroke-linecap="butt"/><path d="M123.72087,166.13646c0,-0.41421 0.33579,-0.75 0.75,-0.75c0.41421,0 0.75,0.33579 0.75,0.75c0,0.41421 -0.33579,0.75 -0.75,0.75c-0.41421,0 -0.75,-0.33579 -0.75,-0.75z" fill="#000000" stroke="none" stroke-width="0.5" stroke-linecap="butt"/><path d="M126.38714,164.92452c0,-0.41421 0.33579,-0.75 0.75,-0.75c0.41421,0 0.75,0.33579 0.75,0.75c0,0.41421 -0.33579,0.75 -0.75,0.75c-0.41421,0 -0.75,-0.33579 -0.75,-0.75z" fill="#000000" stroke="none" stroke-width="0.5" stroke-linecap="butt"/><path d="M153.59137,172.05463c0.33364,0.6717 -0.33806,1.00534 -0.33806,1.00534l-0.23284,0.11321c-2.7231,1.61021 -3.16193,3.71566 -4.59083,6.54653c-1.04117,1.0563 -2.16373,2.68762 -3.58727,3.21017c-0.82898,0.3043 -2.22934,0.07202 -2.84007,0.79581c-1.03527,1.22691 -1.10453,3.06935 -2.08252,4.31093c-1.05483,1.33912 -2.72253,-0.00438 -3.277,0.58776c-0.47188,0.50393 0.31762,1.35595 0.31959,2.04632c0,0 0,0.75 -0.75,0.75c-0.75,0 -0.75,-0.75 -0.75,-0.75c0.00241,-0.72671 -0.45637,-2.44071 0.0364,-3.0165c0.79609,-0.93022 2.80055,0.25124 3.23606,-0.53731c0.77183,-1.39749 1.03899,-3.21623 2.16507,-4.4084c1.02583,-1.08604 2.10019,-0.73793 3.38979,-1.17306c1.11666,-0.37678 2.08803,-1.88791 2.92575,-2.69646c1.53418,-3.06167 2.04061,-5.152 5.03711,-6.9543l0.33348,-0.16809c0,0 0.6717,-0.33364 1.00534,0.33806z" fill="#000000" stroke="none" stroke-width="0.5" stroke-linecap="butt"/><path d="M153.78918,183.3978c-0.18072,0.7279 -0.90862,0.54718 -0.90862,0.54718l-0.26318,-0.12859c-0.28601,0.04733 -0.57203,0.09466 -0.85804,0.14198c-3.24758,0.45919 -3.17029,2.1162 -4.71577,4.57694c-0.8528,1.35784 -2.23431,1.03398 -3.18283,1.76722c-0.92585,0.71572 -1.85014,4.10292 -1.6673,5.18357c0,0 0.10679,0.74236 -0.63557,0.84914c-0.74236,0.10679 -0.84914,-0.63557 -0.84914,-0.63557c-0.2094,-1.66017 0.86583,-5.47773 2.29716,-6.62971c0.82678,-0.66542 2.10164,-0.16931 2.76385,-1.32671c1.62699,-2.84363 2.08208,-4.74347 5.76172,-5.26746c0.28032,-0.04642 0.56063,-0.09284 0.84095,-0.13925l0.86958,0.15265c0,0 0.7279,0.18072 0.54718,0.90862z" fill="#000000" stroke="none" stroke-width="0.5" stroke-linecap="butt"/><path d="M157.55585,187.52442c0.33359,0.67173 -0.33814,1.00532 -0.33814,1.00532l-0.66422,0.32153c-2.32659,0.76936 -3.38522,1.83873 -5.0912,3.48024c-0.67256,0.64715 -3.06136,0.81047 -3.29962,1.28768c-0.50754,1.0165 -0.71252,2.63222 -0.87206,3.76808c0,0 -0.10678,0.74236 -0.84914,0.63558c-0.74236,-0.10678 -0.63558,-0.84914 -0.63558,-0.84914c0.17711,-1.20663 0.40757,-3.40008 1.11013,-4.3887c1.01419,-1.42715 1.69761,-0.37348 2.86081,-0.96851c0.91371,-0.4674 1.33599,-1.60693 2.07144,-2.26279c1.16548,-1.03935 2.77835,-1.64399 4.23376,-2.12642l0.46851,-0.241c0,0 0.67173,-0.33359 1.00532,0.33814z" fill="#000000" stroke="none" stroke-width="0.5" stroke-linecap="butt"/><path d="M147.36352,166.37503c0.52854,0.53212 -0.00358,1.06065 -0.00358,1.06065l-0.42476,0.42191c-0.87837,0.8478 -1.51959,0.8524 -2.56699,1.10551c-0.30797,0.07442 0.05504,2.65238 0.09065,2.89652c0,0 0.10676,0.74236 -0.6356,0.84913c-0.74236,0.10676 -0.84913,-0.6356 -0.84913,-0.6356c-0.18156,-1.279 -0.65881,-3.53533 0.65695,-4.41644c0.78548,-0.526 1.4544,-0.0431 2.24704,-0.86336l0.42475,-0.4219c0,0 0.53212,-0.52854 1.06065,0.00358z" fill="#000000" stroke="none" stroke-width="0.5" stroke-linecap="butt"/><path d="M138.18779,155.73326c0.62273,0.41798 0.20475,1.04071 0.20475,1.04071l-0.72518,0.73183c-2.44667,0.60705 -3.76558,1.03228 -3.67837,3.91302c0,0 0,0.75 -0.75,0.75c-0.75,0 -0.75,-0.75 -0.75,-0.75c0.06828,-3.42157 1.66069,-4.58451 4.8169,-5.36881l-0.1588,-0.112c0,0 0.41798,-0.62273 1.04071,-0.20475z" fill="#000000" stroke="none" stroke-width="0.5" stroke-linecap="butt"/><path d="M142.97158,158.52673c0.64196,0.3878 0.25416,1.02976 0.25416,1.02976l-0.69819,0.96857c-1.13009,0.08585 -2.4086,-0.6376 -2.30871,0.75313c0,0 0,0.75 -0.75,0.75c-0.75,0 -0.75,-0.75 -0.75,-0.75c0.08258,-2.11464 1.08694,-2.49124 3.07162,-2.05953l0.15136,-0.43776c0,0 0.3878,-0.64196 1.02976,-0.25416z" fill="#000000" stroke="none" stroke-width="0.5" stroke-linecap="butt"/><path d="M144.0417,161.84074c0,0.64394 -0.55287,0.735 -0.70924,0.74788c-0.56489,0.67431 -0.71356,1.59049 -0.85856,2.47019c0,0 -0.12413,0.73966 -0.86379,0.61552c-0.73966,-0.12413 -0.61552,-0.86379 -0.61552,-0.86379c0.22902,-1.3437 0.52776,-2.51033 1.48543,-3.50192l0.81168,-0.21788c0,0 0.75,0 0.75,0.75z" fill="#000000" stroke="none" stroke-width="0.5" stroke-linecap="butt"/><path d="M179.82536,164.88915c-0.23574,0.71199 -0.94773,0.47625 -0.94773,0.47625l-0.42583,-0.14099c-1.57215,-0.5237 -3.62466,-1.27121 -5.0045,-2.2048c-0.33143,-0.22424 -0.44716,-0.86772 -0.84696,-0.85078c-0.74664,0.03164 -1.08903,1.17973 -2.07093,1.26384c-1.86466,0.15974 -2.97595,-2.67812 -4.73154,-1.87937c0,0 -0.697,0.27692 -0.97393,-0.42008c-0.27692,-0.697 0.42008,-0.97393 0.42008,-0.97393c2.63346,-0.96047 3.08403,1.93486 5.17956,1.77712c0.9168,-0.06901 0.99308,-1.27993 2.17675,-1.26758c0.67866,0.00708 1.15079,0.72161 1.70164,1.11809c1.20148,0.86478 3.20333,1.54221 4.62342,2.01421l0.42371,0.14029c0,0 0.71199,0.23574 0.47625,0.94773z" fill="#000000" stroke="none" stroke-width="0.5" stroke-linecap="butt"/><path d="M176.95532,172.49492c-0.52854,0.53211 -1.06065,0.00357 -1.06065,0.00357l-0.28317,-0.28126c-1.41889,-1.43183 -2.70496,-0.58571 -4.43419,-1.24693c-0.36909,-0.14113 -1.30609,-1.398 -1.84368,-1.21883c-1.19317,0.39767 -1.89715,1.81937 -3.36905,0.8767c-1.60826,-1.03001 -1.49327,-3.01615 -0.0126,-3.85909c0,0 0.697,-0.27692 0.97393,0.42008c0.27692,0.697 -0.42008,0.97393 -0.42008,0.97393c-0.93149,-0.16642 0.26133,1.37057 0.58279,1.23664c0.79047,-0.32933 1.04162,-0.95484 1.98223,-1.12506c1.49099,-0.26982 1.60746,0.90075 2.68711,1.31258c1.92561,0.73451 3.23217,-0.0805 4.9106,1.56574l0.28319,0.28129c0,0 0.53211,0.52854 0.00357,1.06065z" fill="#000000" stroke="none" stroke-width="0.5" stroke-linecap="butt"/><path d="M173.3862,178.3976c-0.38396,0.64427 -1.02822,0.26031 -1.02822,0.26031l-0.83991,-0.52181c-0.60927,-1.02154 -4.29859,-2.15969 -5.62473,-2.04984c-0.5532,0.04583 -0.64167,1.0054 -1.1653,1.18964c-0.50974,0.17935 -1.13104,0.06154 -1.61012,-0.18843c-0.94565,-0.49342 -1.15462,-2.39793 -1.30995,-3.30938c0,0 -0.12412,-0.73966 0.61554,-0.86378c0.73966,-0.12412 0.86378,0.61554 0.86378,0.61554c0.10757,0.65269 0.28615,1.29511 0.5073,1.91853c0.06153,0.17345 0.16633,0.65217 0.25387,0.49028c0.33923,-0.62734 0.96525,-1.21194 1.66652,-1.34178c1.65667,-0.30673 5.94738,1.23696 6.83491,2.45045l0.57601,0.32202c0,0 0.64427,0.38396 0.26031,1.02822z" fill="#000000" stroke="none" stroke-width="0.5" stroke-linecap="butt"/><path d="M173.98197,184.44881c-0.52855,0.53211 -1.06065,0.00356 -1.06065,0.00356l-0.02287,-0.2148c-1.56682,-0.2753 -2.88138,-1.31905 -4.45042,-1.39699c-1.14329,-0.05679 -2.16083,0.75887 -3.25711,1.08829c-1.56181,0.4693 -4.14837,-1.0377 -5.15406,-2.0079c0,0 -0.53213,-0.52853 -0.0036,-1.06065c0.52853,-0.53213 1.06065,-0.0036 1.06065,-0.0036c2.63767,2.72374 4.41616,0.28752 7.4467,0.48673c1.6883,0.11098 2.95891,1.14115 4.61117,1.41567l0.82664,0.62904c0,0 0.53211,0.52855 0.00356,1.06065z" fill="#000000" stroke="none" stroke-width="0.5" stroke-linecap="butt"/><g stroke-linecap="butt"><path d="M243.4328,177.66619v-26.08542l89.46633,0.43138l-0.64708,25.86972z" fill="#948f57" stroke="#000000" stroke-width="0.5"/><path d="M333.2454,152.73036l5.95496,-15.40945l-0.17417,21.12838l-6.54576,17.80086z" fill="#948f57" stroke="#000000" stroke-width="0.5"/><path d="M243.52901,151.52098c0,0 22.22881,-20.83443 30.53445,-22.28189c8.30564,-1.44746 59.36474,-1.79667 63.95729,2.88839c4.24544,4.33096 -4.5389,19.80613 -4.5389,19.80613z" fill="#948f57" stroke="#000000" stroke-width="0.5"/><path d="M324.40405,136.09419c0,1.8231 -2.21688,3.30103 -4.95154,3.30103c-2.73466,0 -4.95153,-1.47792 -4.95153,-3.30103c0,-1.8231 2.21687,-3.30102 4.95153,-3.30102c2.73466,0 4.95154,1.47791 4.95154,3.30102z" fill="#736f44" stroke="none" stroke-width="0"/><path d="M287.94623,135.12238c0,1.8231 -2.21687,3.30102 -4.95153,3.30102c-2.73466,0 -4.95154,-1.47791 -4.95154,-3.30102c0,-1.8231 2.21688,-3.30103 4.95154,-3.30103c2.73466,0 4.95153,1.47792 4.95153,3.30103z" fill="#736f44" stroke="none" stroke-width="0"/><path d="M329.76148,147.09689c-0.82656,0.2929 -2.99324,0.33436 -4.06892,0.33436c-1.14425,0 -2.98008,0.19555 -3.83556,-0.1323c-1.27424,-0.48834 -1.28307,-2.77072 -0.37687,-3.25404c0.9368,-0.49964 2.63471,-0.4206 4.08266,-0.4206c1.52949,0 3.42256,-0.43242 4.36711,0.11748c0.81463,0.47427 1.19391,2.87235 -0.16841,3.3551z" fill="#ff0000" stroke="none" stroke-width="0"/><path d="M317.51715,147.44012c-0.82656,0.2929 -2.99325,0.33436 -4.06893,0.33436c-1.14425,0 -2.98008,0.19555 -3.83556,-0.13231c-1.27424,-0.48834 -1.28306,-2.77072 -0.37686,-3.25404c0.9368,-0.49964 2.63471,-0.42059 4.08266,-0.42059c1.52949,0 3.42256,-0.43243 4.36711,0.11747c0.81463,0.47427 1.19391,2.87235 -0.16841,3.3551z" fill="#296700" stroke="none" stroke-width="0"/><path d="M327.46323,166.85929c-0.82656,0.2929 -2.99325,0.33436 -4.06893,0.33436c-1.14425,0 -2.98008,0.19555 -3.83556,-0.13231c-1.27424,-0.48834 -1.28306,-2.77072 -0.37686,-3.25404c0.9368,-0.49964 2.63471,-0.42059 4.08266,-0.42059c1.52949,0 3.42256,-0.43243 4.36711,0.11747c0.81463,0.47427 1.19391,2.87235 -0.16841,3.3551z" fill="#636363" stroke="none" stroke-width="0"/><path d="M327.93621,172.65277c-0.82656,0.2929 -2.99325,0.33436 -4.06893,0.33436c-1.14425,0 -2.98008,0.19555 -3.83556,-0.13231c-1.27424,-0.48834 -1.28306,-2.77072 -0.37686,-3.25404c0.9368,-0.49964 2.63471,-0.42059 4.08266,-0.42059c1.52949,0 3.42256,-0.43243 4.36711,0.11747c0.81463,0.47427 1.19391,2.87235 -0.16841,3.3551z" fill="#636363" stroke="none" stroke-width="0"/><path d="M315.17281,166.89687c-0.82656,0.2929 -2.99325,0.33436 -4.06893,0.33436c-1.14425,0 -2.98008,0.19555 -3.83556,-0.13231c-1.27424,-0.48834 -1.28306,-2.77072 -0.37686,-3.25404c0.9368,-0.49964 2.63471,-0.42059 4.08266,-0.42059c1.52949,0 3.42256,-0.43243 4.36711,0.11747c0.81463,0.47427 1.19391,2.87235 -0.16841,3.3551z" fill="#636363" stroke="none" stroke-width="0"/><path d="M315.51603,173.59874c-0.82656,0.2929 -2.99325,0.33436 -4.06893,0.33436c-1.14425,0 -2.98008,0.19555 -3.83556,-0.13231c-1.27424,-0.48834 -1.28306,-2.77072 -0.37686,-3.25404c0.9368,-0.49964 2.63471,-0.42059 4.08266,-0.42059c1.52949,0 3.42256,-0.43243 4.36711,0.11747c0.81463,0.47427 1.19391,2.87235 -0.16841,3.3551z" fill="#636363" stroke="none" stroke-width="0"/><path d="M303.01217,167.71306c-0.82656,0.2929 -2.99325,0.33436 -4.06893,0.33436c-1.14425,0 -2.98008,0.19555 -3.83556,-0.13231c-1.27424,-0.48834 -1.28306,-2.77072 -0.37686,-3.25404c0.9368,-0.49964 2.63471,-0.42059 4.08266,-0.42059c1.52949,0 3.42256,-0.43243 4.36711,0.11747c0.81463,0.47427 1.19391,2.87235 -0.16841,3.3551z" fill="#636363" stroke="none" stroke-width="0"/><path d="M303.61492,173.76609c-0.82656,0.2929 -2.99325,0.33436 -4.06893,0.33436c-1.14425,0 -2.98008,0.19555 -3.83556,-0.13231c-1.27424,-0.48834 -1.28306,-2.77072 -0.37686,-3.25404c0.9368,-0.49964 2.63471,-0.42059 4.08266,-0.42059c1.52949,0 3.42256,-0.43243 4.36711,0.11747c0.81463,0.47427 1.19391,2.87235 -0.16841,3.3551z" fill="#636363" stroke="none" stroke-width="0"/><path d="M302.31724,160.78925c-0.82656,0.2929 -2.99325,0.33436 -4.06893,0.33436c-1.14425,0 -2.98008,0.19555 -3.83556,-0.13231c-1.27424,-0.48834 -1.28306,-2.77072 -0.37686,-3.25404c0.9368,-0.49964 2.63471,-0.42059 4.08266,-0.42059c1.52949,0 3.42256,-0.43243 4.36711,0.11747c0.81463,0.47427 1.19391,2.87235 -0.16841,3.3551z" fill="#636363" stroke="none" stroke-width="0"/><path d="M326.92714,160.22409c-0.82656,0.2929 -2.99325,0.33436 -4.06893,0.33436c-1.14425,0 -2.98008,0.19555 -3.83556,-0.13231c-1.27424,-0.48834 -1.28306,-2.77072 -0.37686,-3.25404c0.9368,-0.49964 2.63471,-0.42059 4.08266,-0.42059c1.52949,0 3.42256,-0.43243 4.36711,0.11747c0.81463,0.47427 1.19391,2.87235 -0.16841,3.3551z" fill="#636363" stroke="none" stroke-width="0"/><path d="M314.94236,160.82683c-0.82656,0.2929 -2.99325,0.33436 -4.06893,0.33436c-1.14425,0 -2.98008,0.19555 -3.83556,-0.13231c-1.27424,-0.48834 -1.28306,-2.77072 -0.37686,-3.25404c0.9368,-0.49964 2.63471,-0.42059 4.08266,-0.42059c1.52949,0 3.42256,-0.43243 4.36711,0.11747c0.81463,0.47427 1.19391,2.87235 -0.16841,3.3551z" fill="#636363" stroke="none" stroke-width="0"/><text transform="translate(244.29678,176.4498) scale(0.06756,0.06756)" font-size="40" xml:space="preserve" fill="#000000" fill-rule="nonzero" stroke="none" stroke-width="1" stroke-linecap="butt" stroke-linejoin="miter" stroke-miterlimit="10" stroke-dasharray="" stroke-dashoffset="0" font-family="Sans Serif" font-weight="normal" text-anchor="start" style="mix-blend-mode: normal"><tspan x="0" dy="0">by Guphy's Studios</tspan></text><path d="M289.38237,167.95646c-0.82656,0.2929 -2.99325,0.33436 -4.06893,0.33436c-1.14425,0 -2.98008,0.19555 -3.83556,-0.13231c-1.27424,-0.48834 -1.28306,-2.77072 -0.37686,-3.25404c0.9368,-0.49964 2.63471,-0.42059 4.08266,-0.42059c1.52949,0 3.42256,-0.43243 4.36711,0.11747c0.81463,0.47427 1.19391,2.87235 -0.16841,3.3551z" fill="#636363" stroke="none" stroke-width="0"/><path d="M288.40881,161.11451c-0.82656,0.2929 -2.99325,0.33436 -4.06893,0.33436c-1.14425,0 -2.98008,0.19555 -3.83556,-0.13231c-1.27424,-0.48834 -1.28306,-2.77072 -0.37686,-3.25404c0.9368,-0.49964 2.63471,-0.42059 4.08266,-0.42059c1.52949,0 3.42256,-0.43243 4.36711,0.11747c0.81463,0.47427 1.19391,2.87235 -0.16841,3.3551z" fill="#636363" stroke="none" stroke-width="0"/><path d="M289.62576,174.28458c-0.82656,0.2929 -2.99325,0.33436 -4.06893,0.33436c-1.14425,0 -2.98008,0.19555 -3.83556,-0.13231c-1.27424,-0.48834 -1.28306,-2.77072 -0.37686,-3.25404c0.9368,-0.49964 2.63471,-0.42059 4.08266,-0.42059c1.52949,0 3.42256,-0.43243 4.36711,0.11747c0.81463,0.47427 1.19391,2.87235 -0.16841,3.3551z" fill="#636363" stroke="none" stroke-width="0"/><text transform="translate(297.38697,160.64623) scale(0.10191,0.10191)" font-size="40" xml:space="preserve" fill="#000000" fill-rule="nonzero" stroke="none" stroke-width="1" stroke-linecap="butt" stroke-linejoin="miter" stroke-miterlimit="10" stroke-dasharray="" stroke-dashoffset="0" font-family="Sans Serif" font-weight="normal" text-anchor="start" style="mix-blend-mode: normal"><tspan x="0" dy="0">1</tspan></text><text transform="translate(309.99453,160.90178) scale(0.10191,0.10191)" font-size="40" xml:space="preserve" fill="#000000" fill-rule="nonzero" stroke="none" stroke-width="1" stroke-linecap="butt" stroke-linejoin="miter" stroke-miterlimit="10" stroke-dasharray="" stroke-dashoffset="0" font-family="Sans Serif" font-weight="normal" text-anchor="start" style="mix-blend-mode: normal"><tspan x="0" dy="0">2</tspan></text><text transform="translate(321.83542,160.2203) scale(0.10191,0.10191)" font-size="40" xml:space="preserve" fill="#000000" fill-rule="nonzero" stroke="none" stroke-width="1" stroke-linecap="butt" stroke-linejoin="miter" stroke-miterlimit="10" stroke-dasharray="" stroke-dashoffset="0" font-family="Sans Serif" font-weight="normal" text-anchor="start" style="mix-blend-mode: normal"><tspan x="0" dy="0">3</tspan></text><text transform="translate(322.60209,166.77964) scale(0.10191,0.10191)" font-size="40" xml:space="preserve" fill="#000000" fill-rule="nonzero" stroke="none" stroke-width="1" stroke-linecap="butt" stroke-linejoin="miter" stroke-miterlimit="10" stroke-dasharray="" stroke-dashoffset="0" font-family="Sans Serif" font-weight="normal" text-anchor="start" style="mix-blend-mode: normal"><tspan x="0" dy="0">6</tspan></text><text transform="translate(297.63035,167.46113) scale(0.10191,0.10191)" font-size="40" xml:space="preserve" fill="#000000" fill-rule="nonzero" stroke="none" stroke-width="1" stroke-linecap="butt" stroke-linejoin="miter" stroke-miterlimit="10" stroke-dasharray="" stroke-dashoffset="0" font-family="Sans Serif" font-weight="normal" text-anchor="start" style="mix-blend-mode: normal"><tspan x="0" dy="0">4</tspan></text><text transform="translate(310.16489,166.60927) scale(0.10191,0.10191)" font-size="40" xml:space="preserve" fill="#000000" fill-rule="nonzero" stroke="none" stroke-width="1" stroke-linecap="butt" stroke-linejoin="miter" stroke-miterlimit="10" stroke-dasharray="" stroke-dashoffset="0" font-family="Sans Serif" font-weight="normal" text-anchor="start" style="mix-blend-mode: normal"><tspan x="0" dy="0">5</tspan></text><text transform="translate(298.11713,173.66756) scale(0.10191,0.10191)" font-size="40" xml:space="preserve" fill="#000000" fill-rule="nonzero" stroke="none" stroke-width="1" stroke-linecap="butt" stroke-linejoin="miter" stroke-miterlimit="10" stroke-dasharray="" stroke-dashoffset="0" font-family="Sans Serif" font-weight="normal" text-anchor="start" style="mix-blend-mode: normal"><tspan x="0" dy="0">7</tspan></text><text transform="translate(310.40829,173.42417) scale(0.10191,0.10191)" font-size="40" xml:space="preserve" fill="#000000" fill-rule="nonzero" stroke="none" stroke-width="1" stroke-linecap="butt" stroke-linejoin="miter" stroke-miterlimit="10" stroke-dasharray="" stroke-dashoffset="0" font-family="Sans Serif" font-weight="normal" text-anchor="start" style="mix-blend-mode: normal"><tspan x="0" dy="0">8</tspan></text><text transform="translate(322.82114,172.57231) scale(0.10191,0.10191)" font-size="40" xml:space="preserve" fill="#000000" fill-rule="nonzero" stroke="none" stroke-width="1" stroke-linecap="butt" stroke-linejoin="miter" stroke-miterlimit="10" stroke-dasharray="" stroke-dashoffset="0" font-family="Sans Serif" font-weight="normal" text-anchor="start" style="mix-blend-mode: normal"><tspan x="0" dy="0">9</tspan></text><text transform="translate(284.36563,174.8845) scale(0.10191,0.10191)" font-size="40" xml:space="preserve" fill="#000000" fill-rule="nonzero" stroke="none" stroke-width="1" stroke-linecap="butt" stroke-linejoin="miter" stroke-miterlimit="10" stroke-dasharray="" stroke-dashoffset="0" font-family="Sans Serif" font-weight="normal" text-anchor="start" style="mix-blend-mode: normal"><tspan x="0" dy="0">*</tspan></text><text transform="translate(283.87886,167.94791) scale(0.10191,0.10191)" font-size="40" xml:space="preserve" fill="#000000" fill-rule="nonzero" stroke="none" stroke-width="1" stroke-linecap="butt" stroke-linejoin="miter" stroke-miterlimit="10" stroke-dasharray="" stroke-dashoffset="0" font-family="Sans Serif" font-weight="normal" text-anchor="start" style="mix-blend-mode: normal"><tspan x="0" dy="0">0</tspan></text><text transform="translate(283.27039,161.01132) scale(0.10191,0.10191)" font-size="40" xml:space="preserve" fill="#000000" fill-rule="nonzero" stroke="none" stroke-width="1" stroke-linecap="butt" stroke-linejoin="miter" stroke-miterlimit="10" stroke-dasharray="" stroke-dashoffset="0" font-family="Sans Serif" font-weight="normal" text-anchor="start" style="mix-blend-mode: normal"><tspan x="0" dy="0">#</tspan></text><path d="M291.31805,139.13724v-6.8149h16.79385v6.8149z" fill="#c3bd73" stroke="#000000" stroke-width="0.5"/><path d="M308.3553,138.77215l-0.1217,-6.32812l1.82542,-0.97355v5.47626z" fill="#c3bd73" stroke="#000000" stroke-width="0.5"/><path d="M291.56144,131.95725l2.1905,-1.09525l15.57691,0.1217l-1.58203,1.09525z" fill="#c3bd73" stroke="#000000" stroke-width="0.5"/><path d="M295.5668,188.90938c-0.3272,-0.27268 -0.05452,-0.59988 -0.05452,-0.59988l0.05405,-0.06486c1.07194,-1.24281 0.95678,-3.44618 2.31837,-4.54917c1.6005,-1.29652 3.9367,-2.55882 5.7924,-3.47205c3.65555,-0.7224 8.12028,-2.28039 11.78106,-0.41068c1.68785,0.86205 1.91727,2.86486 3.99572,3.93912c1.09994,0.81884 2.59991,0.31734 3.93177,0.48042c4.43261,0.54275 8.37345,-0.44075 12.54414,-2.552c4.50709,-2.30355 11.92483,-4.07165 13.05708,-10.01737c1.88285,-3.42225 0.89145,-8.60218 -0.5129,-11.93256c-0.67488,-1.60047 -2.31404,-2.52141 -2.65863,-4.29161c-0.53151,-1.10543 -0.54556,-2.0286 -0.96342,-3.04095c-1.87352,-4.5389 -7.79686,0.9971 -9.63629,1.92296c0,0 -0.38096,0.19048 -0.57145,-0.19048c-0.19048,-0.38096 0.19048,-0.57145 0.19048,-0.57145c2.39263,-1.18746 8.56193,-6.80446 10.80316,-1.48969c0.47551,1.12761 0.3985,1.89546 0.98758,3.10604c0.27813,1.7009 1.95574,2.67162 2.63131,4.21905c1.5303,3.50529 2.44019,8.93127 0.53321,12.55288c-1.17194,6.24664 -8.82618,8.03147 -13.4714,10.49118c-4.29805,2.17579 -12.86337,5.04916 -17.3073,2.04141c-1.91195,-0.99263 -2.5173,-3.20296 -3.93695,-3.90649c-3.46611,-1.71767 -7.66754,-0.24631 -11.12252,0.45659c-1.7871,0.88605 -3.97143,2.10358 -5.53524,3.33114c-1.22786,0.96384 -1.23121,3.23984 -2.19579,4.42907l-0.05405,0.06486c0,0 -0.27269,0.3272 -0.59989,0.05452z" fill="#817e5c" stroke="none" stroke-width="0.5"/><path d="M333.37912,153.86206c0,-0.94094 0.76278,-1.70372 1.70372,-1.70372c0.94094,0 1.70372,0.76278 1.70372,1.70372c0,0.94094 -0.76278,1.70372 -1.70372,1.70372c-0.94094,0 -1.70372,-0.76278 -1.70372,-1.70372z" fill="#000000" stroke="none" stroke-width="0.5"/><g><path d="M312.94427,198.14362c0,0 -4.61194,0 -18.85689,0c-14.24495,0 -17.12292,0 -17.12292,0l-0.65012,-11.21019c0,0 13.89728,-0.0606 18.64003,-0.0606c6.07706,0 17.80535,0.10895 17.80535,0.10895z" fill="#726f51" stroke="none" stroke-width="NaN"/><path d="M310.38868,185.08173c5.17518,0 9.37049,3.55966 9.37049,7.95072c0,4.39106 -4.19532,7.95071 -9.37049,7.95071c-5.17518,0 -9.37049,-3.55965 -9.37049,-7.95071c0,-4.39106 4.19532,-7.95072 9.37049,-7.95072z" fill="#817e5c" stroke="#000000" stroke-width="0.5"/><path d="M277.44999,185.08173c5.17518,0 9.37049,3.55966 9.37049,7.95072c0,4.39106 -4.19532,7.95071 -9.37049,7.95071c-5.17518,0 -9.37049,-3.55965 -9.37049,-7.95071c0,-4.39106 4.19532,-7.95072 9.37049,-7.95072z" fill="#817e5c" stroke="#000000" stroke-width="0.5"/><path d="M309.49796,189.40794c0,-0.47047 0.3814,-0.85186 0.85186,-0.85186c0.47047,0 0.85186,0.3814 0.85186,0.85186c0,0.47047 -0.3814,0.85186 -0.85186,0.85186c-0.47047,0 -0.85186,-0.3814 -0.85186,-0.85186z" fill="#000000" stroke="none" stroke-width="0.5"/><path d="M314.39617,193.66726c0,-0.47047 0.3814,-0.85186 0.85186,-0.85186c0.47047,0 0.85186,0.3814 0.85186,0.85186c0,0.47047 -0.3814,0.85186 -0.85186,0.85186c-0.47047,0 -0.85186,-0.3814 -0.85186,-0.85186z" fill="#000000" stroke="none" stroke-width="0.5"/><path d="M308.64609,197.07471c0,-0.47047 0.3814,-0.85186 0.85186,-0.85186c0.47047,0 0.85186,0.3814 0.85186,0.85186c0,0.47047 -0.3814,0.85186 -0.85186,0.85186c-0.47047,0 -0.85186,-0.3814 -0.85186,-0.85186z" fill="#000000" stroke="none" stroke-width="0.5"/><path d="M303.32195,192.81539c0,-0.47047 0.3814,-0.85186 0.85186,-0.85186c0.47047,0 0.85186,0.3814 0.85186,0.85186c0,0.47047 -0.3814,0.85186 -0.85186,0.85186c-0.47047,0 -0.85186,-0.3814 -0.85186,-0.85186z" fill="#000000" stroke="none" stroke-width="0.5"/><path d="M309.28498,193.66726c0,-0.47047 0.3814,-0.85186 0.85186,-0.85186c0.47047,0 0.85186,0.3814 0.85186,0.85186c0,0.47047 -0.3814,0.85186 -0.85186,0.85186c-0.47047,0 -0.85186,-0.3814 -0.85186,-0.85186z" fill="#000000" stroke="none" stroke-width="0.5"/><path d="M305.66458,190.25981c0,-0.47047 0.3814,-0.85186 0.85186,-0.85186c0.47047,0 0.85186,0.3814 0.85186,0.85186c0,0.47047 -0.3814,0.85186 -0.85186,0.85186c-0.47047,0 -0.85186,-0.3814 -0.85186,-0.85186z" fill="#000000" stroke="none" stroke-width="0.5"/><path d="M305.45161,195.58395c0,-0.47047 0.3814,-0.85186 0.85186,-0.85186c0.47047,0 0.85186,0.3814 0.85186,0.85186c0,0.47047 -0.3814,0.85186 -0.85186,0.85186c-0.47047,0 -0.85186,-0.3814 -0.85186,-0.85186z" fill="#000000" stroke="none" stroke-width="0.5"/><path d="M312.90541,190.8987c0,-0.47047 0.3814,-0.85186 0.85186,-0.85186c0.47047,0 0.85186,0.3814 0.85186,0.85186c0,0.47047 -0.3814,0.85186 -0.85186,0.85186c-0.47047,0 -0.85186,-0.3814 -0.85186,-0.85186z" fill="#000000" stroke="none" stroke-width="0.5"/><path d="M312.47948,197.28767c0,-0.47047 0.3814,-0.85186 0.85186,-0.85186c0.47047,0 0.85186,0.3814 0.85186,0.85186c0,0.47047 -0.3814,0.85186 -0.85186,0.85186c-0.47047,0 -0.85186,-0.3814 -0.85186,-0.85186z" fill="#000000" stroke="none" stroke-width="0.5"/><path d="M272.44193,193.24132c0,-0.47047 0.3814,-0.85186 0.85186,-0.85186c0.47047,0 0.85186,0.3814 0.85186,0.85186c0,0.47047 -0.3814,0.85186 -0.85186,0.85186c-0.47047,0 -0.85186,-0.3814 -0.85186,-0.85186z" fill="#000000" stroke="none" stroke-width="0.5"/><path d="M280.96057,193.88022c0,-0.47047 0.3814,-0.85186 0.85186,-0.85186c0.47047,0 0.85186,0.3814 0.85186,0.85186c0,0.47047 -0.3814,0.85186 -0.85186,0.85186c-0.47047,0 -0.85186,-0.3814 -0.85186,-0.85186z" fill="#000000" stroke="none" stroke-width="0.5"/><path d="M276.27532,190.68574c0,-0.47047 0.3814,-0.85186 0.85186,-0.85186c0.47047,0 0.85186,0.3814 0.85186,0.85186c0,0.47047 -0.3814,0.85186 -0.85186,0.85186c-0.47047,0 -0.85186,-0.3814 -0.85186,-0.85186z" fill="#000000" stroke="none" stroke-width="0.5"/><path d="M275.84939,194.30615c0,-0.47047 0.3814,-0.85186 0.85186,-0.85186c0.47047,0 0.85186,0.3814 0.85186,0.85186c0,0.47047 -0.3814,0.85186 -0.85186,0.85186c-0.47047,0 -0.85186,-0.3814 -0.85186,-0.85186z" fill="#000000" stroke="none" stroke-width="0.5"/><path d="M275.63643,197.7136c0,-0.47047 0.3814,-0.85186 0.85186,-0.85186c0.47047,0 0.85186,0.3814 0.85186,0.85186c0,0.47047 -0.3814,0.85186 -0.85186,0.85186c-0.47047,0 -0.85186,-0.3814 -0.85186,-0.85186z" fill="#000000" stroke="none" stroke-width="0.5"/></g></g><text transform="translate(217.70528,172.39427) rotate(32.01181) scale(0.27416,0.27416)" font-size="40" xml:space="preserve" fill="#000000" fill-rule="nonzero" stroke="none" stroke-width="1" stroke-linecap="butt" stroke-linejoin="miter" stroke-miterlimit="10" stroke-dasharray="" stroke-dashoffset="0" font-family="Handwriting" font-weight="normal" text-anchor="start" style="mix-blend-mode: normal"><tspan x="0" dy="0">198</tspan></text><path d="M367.96102,106.23052c0,-17.55332 14.22978,-31.7831 31.78309,-31.7831c17.55332,0 31.78309,14.22977 31.78309,31.7831c0,17.55332 -14.22978,31.78309 -31.78309,31.78309c-17.55333,0 -31.78309,-14.22976 -31.78309,-31.78309z" fill="#444444" stroke="#000000" stroke-width="2" stroke-linecap="butt"/><path d="M388.71586,170.70794c0,0 5.35624,-14.38716 3.90148,-23.40662c-0.94128,-5.8359 -9.15488,-12.84186 -9.15488,-12.84186c0,0 8.68216,4.72806 13.98453,4.72806c5.54391,0 18.58657,-4.72806 18.58657,-4.72806c0,0 -10.7729,7.20113 -11.6859,12.92247c-1.45335,9.10766 4.85647,22.80067 4.85647,22.80067z" fill="#444444" stroke="#000000" stroke-width="2" stroke-linecap="butt"/><path d="M379.06007,178.97482v-15.76021h42.02724v15.76021z" fill="#646464" stroke="#000000" stroke-width="2" stroke-linecap="butt"/><path d="M413.63271,174.32332v-6.30409h2.97692v6.30409z" fill="#000000" stroke="none" stroke-width="0" stroke-linecap="butt"/><path d="M408.72953,174.32334v-6.30408h2.97693v6.30408z" fill="#000000" stroke="none" stroke-width="0" stroke-linecap="butt"/><path d="M403.47612,174.32334v-6.30408h2.97692v6.30408z" fill="#000000" stroke="none" stroke-width="0" stroke-linecap="butt"/><path d="M392.09375,174.32334v-6.30408h2.97693v6.30408z" fill="#ff0000" stroke="none" stroke-width="0" stroke-linecap="butt"/><path d="M420.63724,166.79345h-40.80143" fill="none" stroke="#000000" stroke-width="0.5" stroke-linecap="round"/><path d="M379.48558,175.19889h41.677" fill="none" stroke="#000000" stroke-width="0.5" stroke-linecap="round"/><path d="M412.75713,175.19889v-8.05522" fill="none" stroke="#000000" stroke-width="0.5" stroke-linecap="round"/><path d="M407.15351,175.1989v-8.05523" fill="none" stroke="#000000" stroke-width="0.5" stroke-linecap="round"/><path d="M398.92318,167.31879v7.88011" fill="none" stroke="#000000" stroke-width="0.5" stroke-linecap="round"/><path d="M389.81727,174.84866v-7.70499" fill="none" stroke="#000000" stroke-width="0.5" stroke-linecap="round"/><g stroke-linecap="butt"><g fill="#747474" stroke="#000000" stroke-width="2"><path d="M382.01428,90.19813c3.6259,-6.44909 9.87511,-12.82961 16.3242,-9.20372c6.44909,3.6259 3.96485,30.55511 -2.48424,26.92921c-6.44909,-3.6259 -17.46585,-11.27641 -13.83995,-17.7255z"/><path d="M416.28231,91.03263c6.68226,3.17573 13.47576,8.97331 10.30004,15.65558c-3.17573,6.68226 -30.21184,6.04804 -27.03611,-0.63423c3.17573,-6.68226 10.05383,-18.19709 16.73608,-15.02136z"/><path d="M415.01242,126.42597c-3.77995,6.36001 -10.18081,12.58839 -16.54083,8.80843c-6.36001,-3.77995 -3.22881,-30.64163 3.1312,-26.86167c6.36001,3.77996 17.18958,11.69323 13.40963,18.05325z"/><path d="M384.98869,126.7189c-7.00254,-2.38793 -14.41646,-7.36763 -12.02852,-14.37019c2.38792,-7.00255 29.31823,-9.47502 26.93028,-2.47248c-2.38792,7.00255 -7.89921,19.2306 -14.90177,16.84266z"/></g><path d="M394.82342,104.93336c1.27973,-2.27615 4.16234,-3.08391 6.43849,-1.80419c2.27615,1.27973 3.08391,4.16234 1.80418,6.43849c-1.27973,2.27615 -4.16234,3.0839 -6.43849,1.80417c-2.27615,-1.27973 -3.0839,-4.16234 -1.80418,-6.43848z" fill="#444444" stroke="none" stroke-width="0.5"/></g><g fill="none" stroke="#000000" stroke-width="2" stroke-linecap="round"><path d="M376.4877,125.93078v-39.40053h46.22995v40.97654"/><path d="M371.2343,92.83433h56.21142"/><path d="M430.07242,98.08773h-61.46483"/><path d="M367.03157,103.34114h63.56619"/><path d="M367.03158,109.11988h63.56619"/><path d="M368.08225,113.84794h61.46483"/><path d="M429.02174,119.10135h-59.88881"/><path d="M425.34436,123.82941h-53.58472"/><path d="M422.19232,128.55747h-46.22996"/><path d="M383.31713,134.86156h33.09644"/><path d="M385.94383,135.3869v-57.78744h25.74167v58.83812"/><path d="M398.02666,136.96292v-62.51551"/></g></g></g></svg>