<svg version="1.1" xmlns="http://www.w3.org/2000/svg" xmlns:xlink="http://www.w3.org/1999/xlink" width="563.69444" height="625.35545" viewBox="0,0,563.69444,625.35545"><defs><linearGradient x1="-12.46072" y1="180.00001" x2="492.46075" y2="180.00001" gradientUnits="userSpaceOnUse" id="color-1"><stop offset="0" stop-color="#000000"/><stop offset="1" stop-color="#000000"/></linearGradient><linearGradient x1="344.8041" y1="187.67931" x2="504.87198" y2="187.67931" gradientUnits="userSpaceOnUse" id="color-2"><stop offset="0" stop-color="#000000" stop-opacity="0"/><stop offset="1" stop-color="#000000"/></linearGradient><linearGradient x1="349.19444" y1="264.15623" x2="349.19444" y2="422.15624" gradientUnits="userSpaceOnUse" id="color-3"><stop offset="0" stop-color="#000000" stop-opacity="0"/><stop offset="1" stop-color="#000000"/></linearGradient><radialGradient cx="240" cy="180" r="264" gradientUnits="userSpaceOnUse" id="color-4"><stop offset="0" stop-color="#000000" stop-opacity="0"/><stop offset="1" stop-color="#000000"/></radialGradient></defs><g transform="translate(25,25.34376)"><g data-paper-data="{&quot;isPaintingLayer&quot;:true}" fill-rule="nonzero" stroke-linecap="butt" stroke-linejoin="miter" stroke-miterlimit="10" stroke-dasharray="" stroke-dashoffset="0" style="mix-blend-mode: normal"><path d="M-12.46072,370.59289v-381.18577h504.92147v381.18577z" data-paper-data="{&quot;index&quot;:null}" fill="url(#color-1)" stroke="#000000" stroke-width="2"/><g data-paper-data="{&quot;index&quot;:null}"><g data-paper-data="{&quot;index&quot;:null}" fill="#663f3f" stroke="#000000" stroke-width="0.5"><path d="M298.72683,401.85097l0.507,-5.06914l10.86246,1.08642l-0.50698,5.06914z"/><path d="M292.96966,404.56652l0.507,-5.06916l10.86246,1.0864l-0.50698,5.06916z"/><path d="M305.85993,398.17588l0.50698,-5.06912l10.86248,1.0864l-0.507,5.06916z"/><path d="M305.11746,405.59865l0.50698,-5.06916l10.8625,1.08638l-0.507,5.06916z"/><path d="M293.73009,396.96277l0.50698,-5.06916l10.8625,1.0864l-0.50702,5.06916z"/><path d="M300.37417,410.97548l2.10038,-21.0008l5.79332,0.5794l-2.10038,21.00077z"/></g><g data-paper-data="{&quot;index&quot;:null}" fill="#663f3f" stroke="#000000" stroke-width="0.5"><path d="M441.51682,410.4536l0.21427,-5.08994l10.90701,0.45915l-0.21427,5.08992z"/><path d="M435.92558,413.49612l0.21427,-5.08994l10.90698,0.45913l-0.21425,5.08994z"/><path d="M448.42643,406.37389l0.21427,-5.08992l10.90701,0.45913l-0.21427,5.08994z"/><path d="M448.1127,413.82709l0.21427,-5.08996l10.90701,0.45913l-0.21427,5.08994z"/><path d="M436.24692,405.86121l0.21427,-5.08994l10.90703,0.45913l-0.21427,5.08994z"/><path d="M443.68678,419.46812l0.88768,-21.08688l5.81709,0.24488l-0.88768,21.08686z"/></g><g data-paper-data="{&quot;index&quot;:null}" fill="#663f3f" stroke="#000000" stroke-width="0.5"><path d="M441.51682,570.22107l0.21427,-5.08992l10.90701,0.45915l-0.21427,5.08992z"/><path d="M435.92558,573.26364l0.21427,-5.08994l10.90698,0.45913l-0.21425,5.08994z"/><path d="M448.42643,566.1414l0.21427,-5.08992l10.90701,0.45913l-0.21427,5.08994z"/><path d="M448.1127,573.59458l0.21427,-5.08996l10.90701,0.45913l-0.21427,5.08994z"/><path d="M436.24692,565.62872l0.21427,-5.08994l10.90703,0.45913l-0.21427,5.08996z"/><path d="M443.68678,579.23561l0.88768,-21.0869l5.81709,0.24486l-0.88768,21.08688z"/></g><g data-paper-data="{&quot;index&quot;:null}" fill="#663f3f" stroke="#000000" stroke-width="0.5"><path d="M352.23022,574.42793l-0.038,-5.0943l10.91638,-0.0814l0.038,5.09428z"/><path d="M346.79646,577.74352l-0.03798,-5.0943l10.91633,-0.0814l0.03802,5.0943z"/><path d="M358.92942,570.01109l-0.038,-5.09428l10.91638,-0.0814l0.038,5.0943z"/><path d="M358.98503,577.47069l-0.03798,-5.09432l10.91638,-0.0814l0.038,5.0943z"/><path d="M346.73946,570.10208l-0.038,-5.0943l10.91638,-0.08145l0.03798,5.09432z"/><path d="M354.84381,583.32393l-0.15738,-21.10497l5.82208,-0.04342l0.1574,21.10497z"/></g><g data-paper-data="{&quot;index&quot;:null}" fill="#663f3f" stroke="#000000" stroke-width="0.5"><path d="M364.83767,431.37208l2.82606,-6.71488l14.38905,6.05585l-2.82608,6.71488z"/><path d="M355.82642,432.66087l2.82608,-6.71488l14.38901,6.05583l-2.82604,6.7149z"/><path d="M376.13332,429.35085l2.82604,-6.71486l14.38905,6.05585l-2.82608,6.71488z"/><path d="M371.99509,439.18345l2.82608,-6.7149l14.38905,6.05585l-2.82608,6.71488z"/><path d="M360.06547,422.58851l2.82606,-6.7149l14.3891,6.05583l-2.8261,6.7149z"/><path d="M363.24952,444.53616l11.70799,-27.81885l7.67418,3.22977l-11.70797,27.81885z"/></g><g data-paper-data="{&quot;index&quot;:null}" fill="#663f3f" stroke="#000000" stroke-width="0.5"><path d="M403.78427,439.16312l-2.82608,-6.71488l14.38905,-6.05585l2.82606,6.71488z"/><path d="M412.79554,440.45191l-2.82604,-6.7149l14.38901,-6.05583l2.82608,6.71488z"/><path d="M392.48869,437.14191l-2.82606,-6.71486l14.38905,-6.05585l2.82604,6.71483z"/><path d="M396.62685,446.97447l-2.82608,-6.71488l14.38905,-6.05585l2.82608,6.71492z"/><path d="M408.55647,430.37955l-2.8261,-6.7149l14.3891,-6.05583l2.82606,6.7149z"/><path d="M412.08732,449.50112l-11.70797,-27.81883l7.67418,-3.22979l11.70799,27.81885z"/></g><g data-paper-data="{&quot;index&quot;:null}" fill="#663f3f" stroke="#000000" stroke-width="0.5"><path d="M427.4899,294.0518l-4.48165,-5.74378l12.30813,-9.60355l4.48167,5.74378z"/><path d="M424.21694,302.54598l-4.48165,-5.74378l12.30808,-9.60353l4.48169,5.74376z"/><path d="M431.23845,283.20628l-4.48165,-5.74374l12.30813,-9.60355l4.48165,5.74378z"/><path d="M437.80095,291.61694l-4.48167,-5.74382l12.30813,-9.60358l4.48165,5.74378z"/><path d="M417.49443,293.93033l-4.48165,-5.74378l12.30811,-9.6036l4.48167,5.74382z"/><path d="M438.20471,301.8626l-18.56691,-23.79571l6.56433,-5.12193l18.56691,23.79569z"/></g><g data-paper-data="{&quot;index&quot;:null}" fill="#663f3f" stroke="#000000" stroke-width="0.5"><path d="M339.75727,279.30866l6.04772,-4.06216l8.70468,12.95943l-6.04772,4.06219z"/><path d="M340.22176,288.39977l6.04776,-4.06216l8.70466,12.95941l-6.04772,4.06219z"/><path d="M339.57319,267.83513l6.04772,-4.06219l8.70466,12.95943l-6.0477,4.06216z"/><path d="M330.71755,273.78334l6.04772,-4.06219l8.70466,12.95943l-6.04774,4.06221z"/><path d="M349.29337,282.3065l6.04774,-4.06221l8.70466,12.95945l-6.04772,4.06219z"/><path d="M331.20481,289.44131l25.05491,-16.82903l4.64248,6.91171l-25.05491,16.82905z"/></g><g data-paper-data="{&quot;index&quot;:null}" fill="#663f3f" stroke="#000000" stroke-width="0.5"><path d="M471.91238,46.51453l1.39355,-4.41649l9.46392,2.98619l-1.39355,4.41649z"/><path d="M475.74847,50.8468l1.39357,-4.41649l9.46389,2.98619l-1.39355,4.41649z"/><path d="M467.27079,40.88746l1.39355,-4.41649l9.46392,2.98619l-1.39355,4.41647z"/><path d="M465.23021,47.35449l1.39355,-4.41649l9.46392,2.98619l-1.39355,4.41651z"/><path d="M477.83883,44.22206l1.39355,-4.41651l9.46392,2.98622l-1.39355,4.41649z"/><path d="M471.6819,54.94015l5.77332,-18.29689l5.04743,1.59264l-5.77332,18.29692z"/></g><g data-paper-data="{&quot;index&quot;:null}" fill="#663f3f" stroke="#000000" stroke-width="0.5"><path d="M454.8509,102.20906l2.46844,-3.91845l8.39669,5.28951l-2.46844,3.91845z"/><path d="M457.4624,107.37281l2.46846,-3.91845l8.39667,5.28948l-2.46844,3.91845z"/><path d="M451.78879,95.58853l2.46844,-3.91845l8.39667,5.28951l-2.46844,3.91843z"/><path d="M448.17428,101.32626l2.46844,-3.91845l8.39669,5.28951l-2.46844,3.91845z"/><path d="M461.16505,101.49516l2.46844,-3.91845l8.39667,5.28951l-2.46844,3.91845z"/><path d="M452.49035,110.30057l10.22636,-16.2336l4.47822,2.82107l-10.22636,16.23358z"/></g><path d="M482.58993,79.06021c-3.41834,16.13457 -12.13476,27.95463 -19.46867,26.40083c-7.33391,-1.5538 -10.50807,-15.89305 -7.08972,-32.02762c3.41834,-16.13457 12.13476,-27.95463 19.46865,-26.40083c7.33391,1.5538 10.50809,15.89305 7.08974,32.02762z" fill="#063800" stroke="#000000" stroke-width="0.5"/><g fill="#663f3f" stroke="#000000" stroke-width="0.5"><path d="M346.33856,109.66755l-2.46844,-3.91845l8.39669,-5.28951l2.46844,3.91845z"/><path d="M343.72706,114.8313l-2.46844,-3.91845l8.39669,-5.28948l2.46844,3.91845z"/><path d="M349.40072,103.04698l-2.46844,-3.91843l8.39667,-5.28951l2.46844,3.91845z"/><path d="M353.01518,108.78475l-2.46844,-3.91845l8.39669,-5.28951l2.46844,3.91845z"/><path d="M340.02441,108.95363l-2.46844,-3.91845l8.39667,-5.28951l2.46844,3.91845z"/><path d="M352.61756,115.29063l-10.22636,-16.23358l4.47822,-2.82107l10.22638,16.2336z"/></g><g fill="#663f3f" stroke="#000000" stroke-width="0.5"><path d="M380.22164,244.69713l0.8957,-10.52435l22.55221,1.91938l-0.8957,10.52435z"/><path d="M368.36969,250.50309l0.8957,-10.52435l22.55221,1.91938l-0.89568,10.52435z"/><path d="M394.89659,236.85984l0.89568,-10.52435l22.55221,1.91938l-0.8957,10.52435z"/><path d="M393.585,252.27053l0.8957,-10.52438l22.55221,1.91938l-0.89568,10.52438z"/><path d="M369.71325,234.71656l0.8957,-10.52435l22.55221,1.91936l-0.8957,10.52438z"/><path d="M383.91631,263.56262l3.71079,-43.60096l12.02785,1.02365l-3.71079,43.60096z"/></g><path d="M485.16875,161.46413c0,39.53064 -35.43407,71.57654 -77.36051,71.57654c-27.30001,0 -47.12656,-8.87354 -57.50778,-30.68577c-1.85249,-3.89229 2.1956,-17.29623 0.52177,-21.33024c-3.35169,-8.07774 -16.75954,-4.5791 -16.75954,-13.77655c0,-17.15297 -1.96196,-33.17798 8.2462,-48.27998c13.31751,-19.70201 41.76543,-36.31045 65.49932,-36.31045c41.92644,0 77.36051,39.27587 77.36051,78.80649z" fill="#063800" stroke="#929292" stroke-width="1"/><path d="M426.60538,305.25157c0.33036,55.30196 -5.29209,126.02006 -35.5509,127.11711c-30.93193,1.12145 -33.52489,-67.73375 -33.85525,-123.03569c-0.33036,-55.30196 11.09714,-65.5337 32.65892,-65.6625c21.56178,-0.12882 36.41689,6.27913 36.74724,61.58109z" fill="#063800" stroke="#929292" stroke-width="1"/><path d="M333.69307,359.53266c-7.73886,32.28174 -17.39546,43.22518 -27.81165,40.49634c-10.41619,-2.72884 -16.92455,-16.65059 -9.1857,-48.93233c4.09561,-17.08441 14.25282,-43.84022 21.72962,-57.35309c6.65094,-12.0203 10.57732,-11.90175 15.48096,-10.61708c5.848,1.53206 11.83958,2.23835 10.79565,19.69097c-0.81547,13.63308 -7.6149,42.55757 -11.00888,56.71519z" fill="#063800" stroke="#929292" stroke-width="1"/><path d="M429.62411,304.78075c2.51956,-17.30131 8.52978,-16.777 14.56702,-17.09042c5.06233,-0.26279 8.93106,0.41792 13.00424,13.53779c4.57899,14.749 9.09512,43.00932 9.6385,60.56939c1.02673,33.18052 -8.17144,45.49181 -18.92466,46.05005c-10.75323,0.55823 -17.9881,-12.11715 -19.01481,-45.29767c-0.45028,-14.55179 -1.23845,-44.25426 0.72969,-57.76914z" data-paper-data="{&quot;index&quot;:null}" fill="#063800" stroke="#929292" stroke-width="1"/><path d="M381.68243,518.12712c-1.94419,38.02423 -10.53333,52.39184 -22.85111,51.50318c-12.31778,-0.88866 -22.58073,-15.21856 -20.63654,-53.24279c1.02892,-20.12351 6.8607,-52.42513 12.45228,-69.23195c4.97394,-14.95041 9.42596,-15.64156 15.22483,-15.2232c6.91564,0.49893 13.81967,0.03663 16.30895,19.9342c1.9445,15.54298 0.35424,49.58447 -0.49841,66.26055z" fill="#063800" stroke="#929292" stroke-width="1"/><path d="M403.35437,454.94371c-1.11447,-20.02169 5.76074,-20.80333 12.47521,-22.53273c5.63019,-1.45014 10.13398,-1.56748 17.70504,12.25041c8.51117,15.53365 20.03369,46.26859 24.64996,65.88247c8.72264,37.06127 1.19201,52.99753 -10.76748,56.07783c-11.95946,3.08031 -22.98288,-9.51673 -31.70554,-46.578c-3.82544,-16.25375 -11.48662,-49.46008 -12.35719,-65.09999z" data-paper-data="{&quot;index&quot;:null}" fill="#063800" stroke="#929292" stroke-width="1"/><g data-paper-data="{&quot;index&quot;:null}" fill="#663f3f" stroke="#000000" stroke-width="0.5"><path d="M309.02385,63.14369l-3.80731,-2.63662l5.64993,-8.15851l3.80731,2.63662z"/><path d="M308.64647,68.9179l-3.80731,-2.63662l5.64993,-8.15851l3.80733,2.63662z"/><path d="M309.24456,55.85262l-3.80731,-2.63662l5.64993,-8.15851l3.80731,2.63662z"/><path d="M314.81964,59.71342l-3.80731,-2.63662l5.64993,-8.15853l3.80731,2.63664z"/><path d="M302.93548,64.96299l-3.80731,-2.63662l5.64993,-8.15853l3.80731,2.63664z"/><path d="M317.00502,65.85412l-15.77315,-10.92319l3.01331,-4.3512l15.77315,10.92317z"/></g><path d="M339.39249,70.55459c9.55159,13.44531 12.34036,27.86449 6.22885,32.20612c-6.11151,4.34164 -18.80897,-3.03836 -28.36056,-16.48366c-9.55159,-13.44531 -12.34036,-27.86446 -6.22885,-32.2061c6.11151,-4.34164 18.80897,3.03836 28.36056,16.48366z" fill="#063800" stroke="#000000" stroke-width="0.5"/><path d="M336.99856,72.74674c6.8612,9.65815 8.86443,20.01588 4.47436,23.1346c-4.39007,3.11872 -13.511,-2.18254 -20.3722,-11.84069c-6.8612,-9.65815 -8.86443,-20.01586 -4.47436,-23.13458c4.39007,-3.11872 13.51103,2.18252 20.3722,11.84067z" fill="#0a6100" stroke="#000000" stroke-width="0.5"/><path d="M473.69756,53.78085c5.27129,1.10126 7.58041,11.39509 5.15763,22.9919c-2.4228,11.59681 -8.66005,20.10513 -13.93133,19.00387c-5.27129,-1.10126 -7.58045,-11.39512 -5.15765,-22.99192c2.4228,-11.59681 8.66009,-20.10511 13.93135,-19.00385z" data-paper-data="{&quot;index&quot;:null}" fill="#0a6100" stroke="#000000" stroke-width="0.5"/><path d="M495.17419,14.98537c-0.23466,16.49104 -6.50156,29.77319 -13.99749,29.66655c-7.49593,-0.10667 -13.38234,-13.56178 -13.14768,-30.0528c0.23466,-16.49104 6.50156,-29.77319 13.99749,-29.66652c7.49593,0.10667 13.38234,13.56176 13.14768,30.0528z" fill="#063800" stroke="#000000" stroke-width="0.5"/><path d="M480.76698,-6.68083c5.38501,-0.02802 9.80039,9.55317 9.86203,21.40019c0.06164,11.84702 -4.25377,21.47366 -9.63878,21.5017c-5.38501,0.02802 -9.80041,-9.55319 -9.86205,-21.40024c-0.06164,-11.84702 4.25382,-21.47363 9.63882,-21.50166z" data-paper-data="{&quot;index&quot;:null}" fill="#0a6100" stroke="#000000" stroke-width="0.5"/><path d="M382.91279,147.63426c0,6.88792 -5.17913,12.47167 -11.56792,12.47167c-6.38879,0 -11.56792,-5.58375 -11.56792,-12.47167c0,-6.88792 5.17913,-12.47167 11.56792,-12.47167c6.38879,0 11.56792,5.58375 11.56792,12.47167z" fill="#000000" stroke="#000000" stroke-width="2"/><path d="M453.04326,153.41821c0,6.88792 -5.17913,12.47167 -11.56792,12.47167c-6.38879,0 -11.56792,-5.58377 -11.56792,-12.47167c0,-6.8879 5.17913,-12.47167 11.56792,-12.47167c6.38879,0 11.56792,5.58377 11.56792,12.47167z" fill="#000000" stroke="#000000" stroke-width="2"/><path d="M370.16911,145.79724c-1.91712,1.91712 -3.83427,0 -3.83427,0l-1.30447,-1.43958c-1.1087,-1.95608 -2.10051,-3.99722 -2.82087,-6.12715c0,0 -0.85736,-2.57209 1.71474,-3.42947c2.57209,-0.85736 3.42947,1.71474 3.42947,1.71474c0.58881,1.79831 1.43917,3.5125 2.38469,5.15158l0.43072,0.29561c0,0 1.91712,1.91712 0,3.83427z" fill="#663f3f" stroke="none" stroke-width="0.5"/><path d="M375.63679,148.1874c-2.57209,-0.85736 -1.71474,-3.42947 -1.71474,-3.42947l1.13338,-3.1708c1.42413,-1.48025 2.81272,-3.00029 4.09338,-4.60628c0,0 1.6937,-2.11713 3.8108,-0.42343c2.11713,1.6937 0.42343,3.8108 0.42343,3.8108c-1.14945,1.43264 -2.38244,2.80554 -3.71497,4.06967l-0.60181,2.03477c0,0 -0.85736,2.57209 -3.42947,1.71474z" fill="#663f3f" stroke="none" stroke-width="0.5"/><path d="M366.48805,151.94079c0.17853,-0.79992 0.75702,-2.09598 2.63154,-2.09598c2.71123,0 2.71123,2.71123 2.71123,2.71123l-0.59411,2.12749c-1.87672,2.34589 -3.07734,3.50536 -3.84817,6.42569c0,0 -0.74483,2.6069 -3.35176,1.86207c-2.6069,-0.74483 -1.86207,-3.35176 -1.86207,-3.35176c1.00585,-3.33798 2.29576,-5.14 4.31333,-7.67877z" fill="#663f3f" stroke="none" stroke-width="0.5"/><path d="M373.54648,150.13103c2.42499,-1.21251 3.6375,1.21251 3.6375,1.21251l0.12591,0.3864c2.14072,2.67592 2.06073,3.60234 5.4812,4.26898c0,0 2.63029,0.65757 1.97271,3.28786c-0.65757,2.63029 -3.28786,1.97271 -3.28786,1.97271c-4.67703,-1.32976 -5.49469,-2.51015 -8.40031,-6.14216l-0.74168,-1.34878c0,0 -1.21251,-2.42499 1.21251,-3.6375z" fill="#663f3f" stroke="none" stroke-width="0.5"/><path d="M376.73818,151.54525c-0.05305,0.2947 -0.11346,0.47594 -0.11346,0.47594l-5.23504,3.70203c-2.09188,-1.20593 -5.87424,-1.23684 -6.27564,-3.61783c-1.83006,-10.85549 5.92296,-8.07921 10.46835,-7.59262c0,0 3.70534,0.82341 2.88193,4.52876c-0.2996,1.34822 -0.98075,2.09685 -1.72612,2.50375z" fill="#7a0000" stroke="none" stroke-width="0.5"/><path d="M437.16076,166.09032c-0.26023,0.78088 -0.91091,1.7571 -2.53778,1.7571c-2.71123,0 -2.71123,-2.71123 -2.71123,-2.71123l1.01754,-2.55092c3.22838,-2.57437 4.6702,-5.88593 7.39418,-8.7252c-0.34211,-0.2567 -0.69271,-0.50153 -1.05272,-0.73288c-4.44302,-2.85501 -6.97834,-2.70833 -8.95507,-8.3897c0,0 -0.85736,-2.57209 1.71474,-3.42947c2.57209,-0.85736 3.42947,1.71474 3.42947,1.71474c1.38184,4.41734 3.10924,3.24777 6.66163,5.49181c0.75294,0.47564 1.47064,0.99919 2.15925,1.56041c1.68751,-1.71992 3.1143,-3.51161 4.4015,-6.10598c0,0 1.21251,-2.42499 3.6375,-1.21251c2.42499,1.21251 1.21251,3.6375 1.21251,3.6375c-1.54057,3.06074 -3.2756,5.33228 -5.3613,7.4848c1.38759,1.56581 2.68494,3.22324 3.96961,4.84291c0.76609,0.27744 1.67793,0.93793 1.67793,2.51028c0,2.71123 -2.71123,2.71123 -2.71123,2.71123l-2.55092,-1.01754c-1.40435,-1.75545 -2.7973,-3.619 -4.3173,-5.3456c-2.6959,2.58615 -4.25015,5.88734 -7.07829,8.51023z" fill="#663f3f" stroke="none" stroke-width="0.5"/><path d="M439.82854,146.59135c1.88175,0 2.83061,0.93288 3.30907,1.8737c0.09181,-0.02358 0.1866,-0.04522 0.28451,-0.06479c3.72202,-0.7444 4.46642,2.97761 4.46642,2.97761l0.85222,4.26112c0.05832,0.26446 0.08908,0.53928 0.08908,0.82126c0,2.09633 -1.6994,3.79573 -3.79573,3.79573c-0.63753,0 -1.23834,-0.15716 -1.76579,-0.43488l-3.40208,-1.70105l0.08793,-0.17584c-0.36907,-0.15172 -0.72811,-0.32795 -1.07441,-0.53518c-1.45424,-0.87013 -1.6308,-2.97125 -2.4462,-4.45685l-0.40072,-2.56509c0,0 0,-3.79573 3.79573,-3.79573z" fill="#7a0000" stroke="none" stroke-width="0.5"/><path d="M367.27589,169.90795c0,-0.54225 0.54225,-0.54225 0.54225,-0.54225h0.6507c1.31174,0.06637 1.87721,-0.94835 2.48501,-2.07238c1.28189,-5.13232 -5.93237,-7.99456 -3.52452,-12.90219c0.52706,-1.07423 2.19599,-2.24013 3.04196,-3.08608c0,0 0.38343,-0.38343 0.76685,0c0.38343,0.38343 0,0.76685 0,0.76685c-6.6086,6.6086 2.5712,8.24104 0.72659,15.61416c-0.86757,1.60147 -1.62188,2.70058 -3.49588,2.76413h-0.6507c0,0 -0.54225,0 -0.54225,-0.54225z" fill="#04ff00" stroke="none" stroke-width="0.5"/><path d="M289.68434,83.70544c-0.38343,0.38343 -0.76685,0 -0.76685,0l-0.53537,-0.57472c-1.25905,-2.7539 -2.96828,-6.58198 -1.29857,-10.0341c2.40174,-4.33752 5.70435,-6.92032 7.32898,-12.02284c0.30678,-0.96351 -1.7497,-4.93748 -1.7497,-6.59927c0,-9.17034 9.31241,-6.53242 12.30598,-0.89319c0,0 0.24249,0.48501 -0.24249,0.7275c-0.48501,0.24249 -0.7275,-0.24249 -0.7275,-0.24249c-2.29229,-5.01389 -10.25147,-7.3212 -10.25147,0.4082c0,2.20211 2.0819,5.09399 1.72068,6.84844c-1.12011,5.44025 -5.2322,7.85789 -7.42012,12.2698c-1.55896,2.988 0.09747,6.77977 1.30421,9.05298l0.33222,0.29288c0,0 0.38343,0.38343 0,0.76685z" fill="#04ff00" stroke="none" stroke-width="0.5"/><path d="M342.24048,190.90272c-0.34604,-0.41749 0.07145,-0.76353 0.07145,-0.76353l0.21935,-0.1818c0.84102,-0.69661 1.69671,-1.29725 2.47601,-2.0637c4.44809,-3.70396 -0.82968,-4.80593 -2.41651,-8.84202c-0.74379,-1.89183 -0.48945,-6.38029 2.04485,-5.46428c0,0 0.48501,0.24249 0.24249,0.7275c-0.24249,0.48501 -0.7275,0.24249 -0.7275,0.24249c-0.87603,-0.78094 -0.88931,3.3284 -0.55793,4.07926c1.87715,4.25332 7.2637,5.79492 2.14194,10.06143c-0.79255,0.77582 -1.65906,1.38733 -2.51132,2.09426l-0.21935,0.1818c0,0 -0.41749,0.34604 -0.76353,-0.07145z" fill="#04ff00" stroke="none" stroke-width="0.5"/><path d="M346.6725,200.005c0.15853,0.03238 0.43189,0.14402 0.43189,0.52902c0,0.54225 -0.54225,0.54225 -0.54225,0.54225l-0.97604,-0.54225c0,-1.48068 -0.71429,-5.45125 0.62269,-6.48447c1.32941,-1.02738 3.27233,0.33313 3.79696,1.79178c0.08075,-0.41187 0.22833,-0.81474 0.40937,-1.18917c0,0 0.24249,-0.48501 0.7275,-0.24249c0.48501,0.24249 0.24249,0.7275 0.24249,0.7275c-0.2565,0.49175 -0.39105,1.06265 -0.39105,1.61726l-0.07932,0.09962l0.03657,0.01828l-0.42855,0.8571c-0.08695,0.18341 -0.27379,0.31025 -0.49026,0.31025c-0.25807,0 -0.47401,-0.18026 -0.5288,-0.42174l-0.20287,-0.81142c-2.26158,-3.78642 -2.6014,-0.37265 -2.62836,3.19847z" fill="#04ff00" stroke="none" stroke-width="0.5"/><path d="M351.76767,191.53274c-0.54225,0 -0.54225,-0.54225 -0.54225,-0.54225l0.05724,-0.1913c-2.50108,-5.00216 -2.74049,-10.76715 -5.20557,-15.6167c0,0 -0.24249,-0.48501 0.24249,-0.7275c0.48501,-0.24249 0.7275,0.24249 0.7275,0.24249c2.38608,4.86827 2.72414,10.65384 5.20557,15.6167l0.05724,0.67629c0,0 0,0.54225 -0.54225,0.54225z" fill="#1c00ff" stroke="none" stroke-width="0.5"/><path d="M287.52486,87.05463c-0.26223,-0.47462 0.21239,-0.73685 0.21239,-0.73685l0.31739,-0.17536c1.46394,-0.80799 2.87182,-1.76282 4.45711,-2.28503c4.76741,-3.14449 0.85267,-9.86952 -0.66479,-13.15828c-0.7758,-1.68135 -0.48555,-4.83252 -0.48555,-6.68106c0,-3.90008 2.3291,-7.87346 6.25933,-8.98312c2.15647,-0.60886 5.49387,1.36165 7.05432,0.47288c0,0 0.48501,-0.24249 0.7275,0.24249c0.24249,0.48501 -0.24249,0.7275 -0.24249,0.7275c-2.1117,0.96492 -4.77747,-0.9947 -7.26098,-0.39471c-3.49647,0.84469 -5.4532,4.60198 -5.4532,7.93498c0,5.95252 7.2209,16.22545 0.54379,20.81285c-1.57011,0.51811 -2.96162,1.4594 -4.41059,2.26078l-0.31739,0.17536c0,0 -0.47462,0.26223 -0.73685,-0.21239z" fill="#1c00ff" stroke="none" stroke-width="0.5"/><path d="M378.47183,171.00025c-0.48501,0.24249 -0.7275,-0.24249 -0.7275,-0.24249l-0.46937,-0.95834c-0.02323,-0.29563 -0.04648,-0.59127 -0.06971,-0.8869c-4.08125,-3.88652 -2.22991,-12.44835 -4.66649,-17.24183c0,0 -0.24249,-0.48501 0.24249,-0.7275c0.48501,-0.24249 0.7275,0.24249 0.7275,0.24249c2.44412,4.98669 0.70416,13.12263 4.67557,17.26047c0.04392,0.34992 0.08784,0.69985 0.13177,1.04977l0.39823,0.77684c0,0 0.24249,0.48501 -0.24249,0.7275z" fill="#1c00ff" stroke="none" stroke-width="0.5"/><path d="M439.81631,174.52774c-0.54212,-0.01219 -0.5299,-0.55431 -0.5299,-0.55431l0.03922,-1.03422c0.58135,-1.06332 1.32447,-1.79857 1.90548,-2.85065c2.51626,-2.5085 -1.02793,-8.55609 -0.19514,-12.278c0.28763,-1.28554 2.05869,-2.85174 1.34414,-3.97089c0,0 -0.24249,-0.48501 0.24249,-0.7275c0.48501,-0.24249 0.7275,0.24249 0.7275,0.24249c0.85113,1.98679 -0.84081,2.80799 -1.25864,4.70505c-0.89013,4.04125 2.93149,9.74673 0.00636,12.68074c-0.51403,0.93154 -1.20071,1.56926 -1.72571,2.48349l-0.00145,0.77389c0,0 -0.01219,0.54212 -0.55431,0.5299z" fill="#1c00ff" stroke="none" stroke-width="0.5"/><path d="M337.8862,187.45505c-0.54225,0 -0.54225,-0.54225 -0.54225,-0.54225l0.00028,-0.45158c0.20577,-5.05584 1.78362,-10.70969 1.73491,-15.59891c0,0 0,-0.54225 0.54225,-0.54225c0.54225,0 0.54225,0.54225 0.54225,0.54225c-0.04123,5.00216 -1.61572,10.47807 -1.73547,15.63449l0.00028,0.41601c0,0 0,0.54225 -0.54225,0.54225z" fill="#000000" stroke="none" stroke-width="0.5"/><path d="M346.75345,214.72701c-0.48501,-0.24249 -0.24249,-0.7275 -0.24249,-0.7275l0.41653,-0.82944c1.5027,-4.64009 -0.78005,-14.10969 4.84024,-14.2194c0,0 0.54225,0 0.54225,0.54225c0,0.54225 -0.54225,0.54225 -0.54225,0.54225c-4.21165,-0.06158 -2.58934,9.58247 -3.8357,13.54363l-0.45106,0.90575c0,0 -0.24249,0.48501 -0.7275,0.24249z" fill="#000000" stroke="none" stroke-width="0.5"/><path d="M289.71744,88.31078c-0.34715,0.41658 -0.7637,0.06943 -0.7637,0.06943l-0.46826,-0.39022c-0.32567,-0.29362 -0.65137,-0.58723 -0.97704,-0.88085c-0.12112,-3.1146 0.41371,-11.04652 2.83901,-13.34573c2.19172,-2.07776 4.62198,-2.20419 6.54489,-4.77841c1.40433,-1.7582 0.38447,-4.5029 -0.63334,-6.23855c-2.6392,-4.50045 -4.8992,-7.89114 -4.89659,-13.17657c0.12593,-3.15117 5.26211,-3.91463 7.80813,-2.77567c3.69552,1.6532 4.45568,5.03055 5.81674,8.43323c0,0 0.20139,0.50347 -0.30207,0.70486c-0.50347,0.20139 -0.70486,-0.30207 -0.70486,-0.30207c-1.29024,-3.22561 -1.83733,-6.23863 -5.26051,-7.84958c-1.59288,-0.74962 -6.40293,-0.46553 -6.27295,1.79032c-0.00284,5.79273 9.04897,14.8466 5.31306,20.06473c-1.97243,2.61836 -4.47037,2.8284 -6.65768,4.90644c-2.20636,2.09613 -2.44087,9.26153 -2.6117,12.107c0.22974,0.16925 0.45948,0.33847 0.68922,0.50772l0.46826,0.39022c0,0 0.41658,0.34715 0.06943,0.7637z" fill="#000000" stroke="none" stroke-width="0.5"/><path d="M377.35697,171.57805c-0.54222,-0.00473 -0.53752,-0.54695 -0.53752,-0.54695l0.00957,-1.08939c0.10756,-2.4064 1.504,-4.39326 2.27809,-6.72446c1.30326,-3.89396 0.51863,-7.77174 -2.51904,-10.70865c-1.54245,-1.49129 -3.85229,-1.34837 -4.91694,-3.35392c0,0 -0.24249,-0.48501 0.24249,-0.7275c0.48501,-0.24249 0.7275,0.24249 0.7275,0.24249c0.77077,1.68587 3.35935,1.79032 4.69612,3.05478c3.34954,3.16839 4.20742,7.59117 2.79871,11.83574c-0.74821,2.23542 -2.12402,4.15779 -2.2228,6.41022l-0.00922,1.07011c0,0 -0.00473,0.54222 -0.54695,0.53752z" fill="#000000" stroke="none" stroke-width="0.5"/><path d="M448.07062,173.74706c-0.54225,0 -0.54225,-0.54225 -0.54225,-0.54225v-0.4338c0.02351,-1.60817 1.09629,-4.44217 1.79165,-5.88027c2.63707,-5.35698 1.43502,-13.09835 -5.15358,-13.09835c0,0 -0.54225,0 -0.54225,-0.54225c0,-0.54225 0.54225,-0.54225 0.54225,-0.54225c7.43403,0 9.09504,8.6202 6.12515,14.66467c-0.62432,1.19698 -1.7056,4.02199 -1.67873,5.39845v0.4338c0,0 0,0.54225 -0.54225,0.54225z" fill="#000000" stroke="none" stroke-width="0.5"/><path d="M362.04966,174.59903c-0.52663,-0.12921 -0.39745,-0.65584 -0.39745,-0.65584l0.00126,-0.00508c1.17754,-4.3183 5.70443,-6.52383 3.92858,-11.80453c-1.08586,-2.37487 -5.74434,-10.11309 -1.2122,-12.49178c1.57093,-0.8245 3.89504,-0.4043 5.61735,-0.4043c0,0 0.54225,0 0.54225,0.54225c0,0.54225 -0.54225,0.54225 -0.54225,0.54225c-1.17186,0 -4.89117,-0.64293 -5.62212,0.62634c-2.21928,3.85368 0.70741,7.90942 2.21892,10.77023c1.92968,5.83164 -2.9075,7.79946 -3.87728,12.47796l-0.00126,0.00508c0,0 -0.12918,0.52663 -0.65581,0.39745z" fill="#420000" stroke="none" stroke-width="0.5"/><path d="M432.5624,179.27797c0,0.54225 -0.54225,0.54225 -0.54225,0.54225l-0.89332,-0.25438c-3.32523,-5.3633 6.42677,-9.10857 6.42328,-14.87805c-0.01304,-4.21809 -2.9398,-6.38894 -3.46417,-10.27796c-0.56988,-4.22631 3.25489,-3.81171 5.63411,-2.02729c0,0 0.4338,0.32535 0.10845,0.75915c-0.32535,0.4338 -0.75915,0.10845 -0.75915,0.10845c-7.1752,-5.38141 -0.44419,8.96281 -0.43475,11.43544c0.00321,5.27595 -9.24541,10.114 -6.58873,14.30451l-0.02572,-0.25436c0,0 0.54225,0 0.54225,0.54225z" fill="#420000" stroke="none" stroke-width="0.5"/><path d="M291.52017,89.43156c-0.38343,-0.38341 0,-0.76685 0,-0.76685l0.20148,-0.20148c2.54155,-2.54155 2.20688,-4.53255 2.25633,-7.96927c-3.10052,-6.22961 -3.37713,-14.81348 0.19371,-21.38969c1.86489,-7.06027 10.80476,-10.70039 12.5789,-1.82967c0,0 0.10635,0.53171 -0.42538,0.63805c-0.53171,0.10635 -0.63805,-0.42536 -0.63805,-0.42536c-1.55712,-7.78566 -9.07313,-4.11246 -10.50459,2.00972c-3.53907,6.5581 -3.10169,14.55919 -0.14782,20.7534c0.04327,3.76779 0.25273,6.18068 -2.54626,8.97967l-0.20148,0.20148c0,0 -0.38343,0.38341 -0.76687,0z" fill="#420000" stroke="none" stroke-width="0.5"/><path d="M344.34277,196.14568c-0.38343,0.38343 -0.76687,0 -0.76687,0l-0.54051,-0.58528c-0.7958,-1.71673 -0.91972,-3.55651 -0.91972,-5.4375c0,-6.22306 -0.86759,-11.89997 -0.86759,-17.78569c0,0 0,-0.54225 0.54225,-0.54225c0.54225,0 0.54225,0.54225 0.54225,0.54225c0,5.8798 0.86759,11.56204 0.86759,17.78569c0,1.69934 0.06819,3.43272 0.8155,4.97364l0.32708,0.28232c0,0 0.38343,0.38341 0,0.76685z" fill="#420000" stroke="none" stroke-width="0.5"/><path d="M351.76767,215.82538c-0.54225,0 -0.54225,-0.54225 -0.54225,-0.54225v-0.2169c0,-0.6092 0.00262,-1.21843 0.01451,-1.8275c-2.0906,-4.00781 -3.29859,-6.9721 -1.72378,-11.56894c0.60738,-1.77293 -0.39551,-3.99983 1.81772,-4.2808c0,0 0.54225,0 0.54225,0.54225c0,0.54225 -0.54225,0.54225 -0.54225,0.54225c-0.7029,-0.23058 -0.4585,2.57337 -0.78504,3.52755c-1.54816,4.52351 -0.18501,6.99379 1.7466,10.98852c0.01011,0.69217 0.01449,1.38444 0.01449,2.07667v0.2169c0,0 0,0.54225 -0.54225,0.54225z" fill="#420000" stroke="none" stroke-width="0.5"/><path d="M439.09397,174.95737c-0.45117,-0.30079 -0.15038,-0.75197 -0.15038,-0.75197l0.34272,-0.3499c0.00011,-1.70203 -0.40688,-3.27346 -0.44751,-4.92405c-1.67183,-3.55553 -3.36642,-9.07727 -2.12689,-13.23585c0.62389,-2.09309 3.3831,-4.01553 4.49865,-1.74935c0,0 0.17148,0.51442 -0.34294,0.6859c-0.51442,0.17146 -0.6859,-0.34296 -0.6859,-0.34296c-0.02611,-1.40893 -2.41371,1.75193 -2.41371,3.29892c0.00002,4.25152 0.38144,7.33041 2.12578,11.09217c0.0631,1.73833 0.47689,3.38665 0.477,5.17522l-0.52485,0.95147c0,0 -0.30079,0.45119 -0.75197,0.1504z" fill="#04ff00" stroke="none" stroke-width="0.5"/><path d="M378.22934,589.96815c0,8.14571 -6.51906,9.54354 -16.70119,9.54354c-10.18213,0 -17.56879,-1.39782 -17.56879,-9.54354c0,-8.14571 6.95286,-11.27873 17.13499,-11.27873c10.18213,0 17.13499,3.13301 17.13499,11.27873z" fill="#063800" stroke="#929292" stroke-width="1"/><path d="M466.29017,582.59359c0,8.14571 -3.48248,6.07316 -13.66461,6.07316c-10.18213,0 -15.92331,2.0442 -15.8336,-6.94076c0.10763,-10.7775 4.35008,-7.80835 14.53221,-7.80835c10.18213,0 14.966,0.53023 14.966,8.67594z" fill="#063800" stroke="#929292" stroke-width="1"/><path d="M353.69418,598.69528c-0.48501,-0.24251 -0.24251,-0.7275 -0.24251,-0.7275l0.39107,-0.74969c-0.00466,-0.25555 -0.00933,-0.5111 -0.01399,-0.76663c0.26312,-2.489 3.13638,-3.7551 3.48437,-5.74033c0.78114,-4.45612 -0.79539,-6.57723 -2.56005,-10.04403c0,0 -0.24249,-0.48501 0.24251,-0.7275c0.48501,-0.24251 0.7275,0.24249 0.7275,0.24249c1.68908,3.45181 3.77254,6.33667 2.64551,10.77823c-0.50919,2.00679 -3.31115,3.17117 -3.45639,5.53842c-0.00466,0.32283 -0.00933,0.64571 -0.01399,0.96854l-0.47655,0.9855c0,0 -0.24249,0.48499 -0.7275,0.24249z" fill="#000000" stroke="none" stroke-width="0.5"/><path d="M366.39175,580.16628l0.54376,-0.37981c6.2013,0.12873 12.92518,4.6371 9.00596,11.44281c-1.33408,0.46709 -6.57827,-2.99504 -9.2619,-6.2639c1.0859,4.59452 3.18876,8.55285 -2.00638,12.81112l-0.37571,0.38341c0,0 -0.38343,0.38343 -0.76687,0c-0.38343,-0.38343 0,-0.76685 0,-0.76685l0.49188,-0.48418c5.65732,-3.67116 2.30758,-9.06174 1.32564,-14.03126c-0.24388,-0.58599 -0.33402,-1.12948 -0.22141,-1.59928c-0.00967,-0.14055 -0.01635,-0.28054 -0.01974,-0.41994c0,0 0,-0.54225 0.54225,-0.54225c0.04893,0 0.09346,0.0044 0.13396,0.01245c0.05835,-0.04273 0.1206,-0.0839 0.18686,-0.12339c0,0 0.20935,-0.10468 0.42174,-0.03893z" fill="#000000" stroke="none" stroke-width="0.5"/><path d="M444.6507,587.74877c-0.38343,-0.38343 0,-0.76685 0,-0.76685l0.33222,-0.29288c1.88847,-3.55746 7.30545,-9.82997 11.65737,-10.70035c0,0 0.53171,-0.10635 0.63805,0.42538c0.10635,0.53171 -0.42536,0.63805 -0.42536,0.63805c-3.8183,0.76366 -9.41943,6.88334 -10.90007,10.12192l-0.53537,0.57472c0,0 -0.38343,0.38343 -0.76685,0z" fill="#000000" stroke="none" stroke-width="0.5"/><path d="M483.25865,55.49361c0.38343,-0.38341 0.76685,0 0.76685,0l0.59261,0.81723c-0.04763,1.21086 1.04307,2.14304 1.28888,3.35447c0.65408,3.22342 -0.42128,8.33886 -0.42128,11.82844c0,7.44925 -5.63936,12.8281 -5.63936,20.17157c-0.15382,4.43154 -5.96445,4.09938 -8.38745,1.63275c-2.38092,-2.42382 0.47837,-9.60121 1.88166,-11.57388c2.82664,-6.71843 -3.65637,-7.76972 -6.21024,-12.11435c-0.76331,-1.29853 -0.11903,-5.27187 0.10042,-6.71436c1.70337,-6.8215 10.62328,-6.2649 16.32793,-6.25933c-0.01347,-0.10509 -0.02208,-0.21332 -0.02505,-0.3253l-0.27496,-0.05036c0,0 -0.38343,-0.38343 0,-0.76687z" fill="#000000" stroke="none" stroke-width="0.5"/><path d="M487.11237,-3.22783c0.54225,0 0.54225,0.54225 0.54225,0.54225v0.73015c0.47015,0.47451 0.5963,1.08172 0.1402,1.83889c0.45616,2.86321 1.90044,5.50434 2.4528,8.39025c0.60543,3.16312 -0.86766,6.31173 -0.85781,9.42919c-0.11749,1.6722 -2.32394,2.87679 -3.60629,1.15266c-0.6464,-0.86907 -0.07574,-2.97639 -0.81615,-3.83414c-2.62996,-3.04682 -9.59108,-4.84168 -9.66223,-9.57711c0.08108,-3.17527 1.83854,-7.79798 5.60948,-8.65762c1.21862,-0.2778 3.93957,-0.14571 5.6555,0.57717v-0.04943c0,0 0,-0.54225 0.54225,-0.54225z" fill="#000000" stroke="none" stroke-width="0.5"/><path d="M325.22409,55.81137c0.14944,-0.2416 0.46577,-0.2416 0.46577,-0.2416l0.41183,0.02761c0.2511,0.08383 0.50225,0.16771 0.75335,0.25154c4.38359,2.18621 9.57954,8.55288 11.83776,13.00839c3.27994,5.11902 4.80168,10.08657 7.5009,15.48502c0.73982,2.3722 4.09288,7.52215 1.35466,10.20274c-1.44248,1.41212 -5.2596,0.66896 -7.15759,0.66896c-3.26884,-0.08641 -4.45249,-5.94584 -5.32093,-8.28767c-0.75815,-2.04442 -5.21507,-3.46066 -7.01405,-4.08422c-1.66873,-1.62863 -4.26941,-2.56949 -5.04931,-4.86874c-1.16295,-3.42849 2.67406,-7.01244 -0.13209,-9.69242c-3.08475,-3.92198 -5.02689,-12.4369 2.3335,-12.47015c0,0 0.00581,0 0.01622,0.00059z" fill="#000000" stroke="none" stroke-width="0.5"/><path d="M412.01039,325.52949c0.21341,35.72502 -3.41869,81.40884 -22.96585,82.11753c-19.982,0.72444 -21.65704,-43.75593 -21.87045,-79.48093c-0.21341,-35.72502 7.16874,-42.3347 21.09764,-42.41793c13.9289,-0.0832 23.52528,4.05631 23.73868,39.78133z" fill="#109d00" stroke="#929292" stroke-width="1"/><path d="M403.00471,253.60719c5.70101,-0.14521 9.88823,6.29618 8.3617,11.73955c-1.03044,5.16839 -1.07619,11.1708 -8.3214,9.7102c-3.24023,-1.10859 -6.56556,-1.93296 -8.60964,-3.98306c-0.88015,0.61679 -1.95196,0.97875 -3.10831,0.97875c-1.88834,0 -3.55122,-0.96524 -4.52218,-2.42924c-1.10195,0.38968 -2.18822,0.05054 -3.22439,0.64046c-2.97997,1.69662 -6.68095,4.09593 -10.40888,4.66039c-3.93734,-3.44381 -3.16932,-9.10905 -1.38577,-13.55141c0.82554,-5.09039 3.34187,-11.5351 8.66666,-7.27526c2.22644,2.29858 5.86526,5.1926 7.6717,8.15667c0.89744,-0.65796 2.00477,-1.04654 3.20285,-1.04654c1.08061,0 2.08739,0.31611 2.93292,0.86087c3.02337,-2.70115 5.46925,-5.99313 8.74472,-8.46139z" fill="#109d00" stroke="none" stroke-width="0.5"/><path d="M374.85917,263.30451c0.38343,-0.38343 0.76687,0 0.76687,0l0.0051,0.03568c3.62145,2.03323 7.00784,0.95474 10.92831,1.59908c0,0 0.53487,0.08915 0.44573,0.62402c-0.08915,0.53487 -0.62402,0.44573 -0.62402,0.44573c-4.07238,-0.6893 -7.46294,0.33606 -11.2719,-1.71818l-0.25008,-0.21948c0,0 -0.38343,-0.38343 0,-0.76687z" fill="#063800" stroke="none" stroke-width="0.5"/><path d="M406.66097,264.58105c0,0.54225 -0.54225,0.54225 -0.54225,0.54225l-0.4808,-0.02327c-2.27047,1.61088 -4.55819,0.52656 -6.76787,1.85982c0,0 -0.46497,0.27897 -0.74396,-0.18599c-0.27897,-0.46497 0.18599,-0.74396 0.18599,-0.74396c2.32878,-1.39032 4.65456,-0.45787 7.01155,-1.96781l0.79509,-0.02325c0,0 0.54225,0 0.54225,0.54225z" fill="#063800" stroke="none" stroke-width="0.5"/><path d="M394.52955,260.09413c0.53171,-0.10635 0.63807,0.42536 0.63807,0.42536l0.11563,0.58977c0.03256,0.0855 0.07103,0.16903 0.11454,0.25021c0.00121,0 0.00241,-0.00002 0.00362,-0.00002c0.54225,0 0.54225,0.54225 0.54225,0.54225c0,0.05498 0.00017,0.10947 0.00054,0.16348c0.07895,0.09899 0.26052,0.38491 0.01369,0.68069c0.05258,1.56618 0.23503,2.72863 0.27559,3.9179c0.86718,-0.25824 1.87826,-0.26878 2.76164,-0.44547c0,0 0.53171,-0.10635 0.63805,0.42536c0.10635,0.53173 -0.42538,0.63805 -0.42538,0.63805c-0.8289,0.1658 -2.22588,0.11968 -2.9857,0.51023c-0.05646,0.95487 -0.24551,2.0038 -0.68902,3.33989l-0.25859,0.33953c0,0 -0.38341,0.38341 -0.76685,0c-0.38343,-0.38341 0,-0.76687 0,-0.76687l-0.00341,0.08437c0.38764,-1.15767 0.57812,-2.06288 0.65386,-2.86371c-0.09522,-0.07943 -0.17135,-0.20649 -0.17135,-0.40966c0,-0.23171 0.09901,-0.36443 0.21243,-0.44041c0.0044,-1.386 -0.28407,-2.59933 -0.333,-4.59738c-0.25559,-0.32168 -0.46694,-0.6821 -0.62248,-1.05946l-0.13953,-0.68612c0,0 -0.10635,-0.53171 0.42536,-0.63805z" fill="#063800" stroke="none" stroke-width="0.5"/><path d="M386.85373,270.32315c-0.38343,0.38341 -0.76687,0 -0.76687,0l-0.40345,-0.53227c-0.70214,-3.58043 0.3478,-5.09846 1.70537,-7.8765c0,0 0.24251,-0.48501 0.7275,-0.24251c0.48501,0.24251 0.24251,0.7275 0.24251,0.7275c-1.32683,2.6051 -2.31904,3.72278 -1.61193,7.1788l0.10689,-0.02191c0,0 0.38343,0.38343 0,0.76687z" fill="#063800" stroke="none" stroke-width="0.5"/><path d="M339.96493,290.57908c0.96227,-2.61916 3.29486,-2.88568 5.38577,-0.01742c1.33603,1.83275 0.96995,4.0375 0.96995,6.1733c0,6.78008 -3.35137,14.56817 -3.03658,21.25606c-0.04262,3.55152 -2.01805,5.82407 -3.06714,8.85543c-1.31141,3.78924 0.4757,6.88677 -1.61581,10.69553c-2.82155,4.10481 -3.4114,-1.40605 -4.99758,-2.94468c-1.5774,-1.53009 -3.83344,-1.92506 -5.46643,-2.92939c-1.7721,-1.08989 -2.50047,-5.94233 -3.27964,-7.93498c-0.02412,-2.92802 -0.60059,-6.91785 0.46529,-9.6367c1.41763,-3.61611 7.1031,-5.01532 7.97853,-9.04569c0.63065,-2.79621 -0.84011,-5.48845 -0.19662,-8.22462c0.67547,-2.87213 4.13537,-4.8592 6.86026,-6.24685z" fill="#000000" stroke="none" stroke-width="0.5"/><path d="M306.13886,351.6934c-0.51687,-0.16393 -0.35294,-0.6808 -0.35294,-0.6808l0.33493,-0.8548c6.88215,-6.88217 8.90803,-3.77065 12.42222,3.49693c0.0688,4.70605 6.05728,17.59169 -1.96267,19.70979c-2.66495,0.69045 -7.75347,4.08726 -10.51134,3.02771c-3.47172,-1.33382 -1.65056,-8.20146 -2.49407,-11.06029c-0.63449,-6.26154 2.47833,-10.92787 5.31213,-16.2541c-0.60103,0.49804 -1.26333,1.11078 -1.99939,1.84683l-0.06804,0.41579c0,0 -0.16393,0.51687 -0.6808,0.35294z" fill="#000000" stroke="none" stroke-width="0.5"/><path d="M417.6642,106.71558c0.03702,-0.01852 0.07262,-0.0328 0.10682,-0.04336c4.87569,-4.15938 12.18515,-1.82744 18.8879,-1.82744c2.5724,0 6.25811,-0.64816 8.68701,0.3512c3.92753,1.61598 5.41594,8.085 8.33125,11.02986c2.12986,1.05003 5.01394,0.84122 6.94078,2.16901c5.02398,3.46203 3.50187,8.39818 1.51677,13.33944c0.01915,1.93094 -0.61029,2.23254 -1.33289,3.79223c-3.69938,7.98493 -9.87839,-2.68423 -14.52594,-3.34707c-6.78053,-1.52929 -18.18448,1.49454 -18.18448,-8.78984c0,-0.93182 0.40113,-3.10712 0.00831,-3.92177c-2.03499,-4.2202 -9.56731,-4.71798 -9.9702,-10.68375c-0.12593,-0.21137 -0.24434,-0.43137 -0.35812,-0.65145c-0.23406,0.24238 -0.46032,0.50373 -0.67826,0.78532c-0.02208,0.28696 -0.04414,0.57389 -0.06622,0.86087l0.00267,0.37998c0,0 0,0.54225 -0.54225,0.54225c-0.54225,0 -0.54225,-0.54225 -0.54225,-0.54225l0.00269,-0.48759c0.04457,-0.38135 0.08915,-0.7627 0.13372,-1.14405c0.40833,-0.56955 0.84285,-1.0684 1.30085,-1.50447c0.0341,-0.11131 0.11483,-0.2236 0.28186,-0.30709z" fill="#000000" stroke="none" stroke-width="0.5"/><path d="M483.2015,175.74519c-1.64687,3.08989 -5.90396,8.16612 -5.96094,11.0458c-2.97754,6.60643 -6.84968,12.49559 -10.04616,18.75529c-4.09314,5.29638 -9.96914,2.87707 -11.32814,-3.52681c-0.35691,-1.68183 -0.47095,-5.52478 0.98615,-6.32153c0.99821,-3.772 4.71503,-7.20808 6.90681,-10.3671c1.94178,-2.79871 2.54236,-5.59128 4.93492,-7.98384c1.85169,-1.84654 2.89518,-4.95429 5.79746,-5.68294c3.4424,-0.86425 4.98053,2.10016 7.89572,2.85263c0.06889,-0.13326 0.20441,-0.26436 0.47102,-0.26436c0.37808,0 0.49253,0.2636 0.52719,0.42323c0.1114,0.00696 0.22482,0.01056 0.3404,0.01056c0,0 0.54225,0 0.54225,0.54225c0,0.54225 -0.54225,0.54225 -0.54225,0.54225c-0.17946,0 -0.35413,-0.00878 -0.52442,-0.02542z" fill="#000000" stroke="none" stroke-width="0.5"/><path d="M386.19605,177.17102c-0.03282,0.04924 -0.06743,0.08951 -0.10307,0.1222c2.62504,2.38669 7.91916,3.05452 11.01502,3.68524c5.45283,-0.01642 8.47403,0.27214 13.01791,-2.72897c5.09313,-2.05661 11.29634,-2.30858 11.16032,5.00314c1.92842,4.05718 -5.83199,8.94828 -8.42684,10.55893c-4.14283,0.10346 -7.85574,-0.43148 -11.74636,-1.54052c-1.53321,-0.43705 -4.56053,-0.04154 -5.58698,-1.61828c-3.80193,-0.39684 -12.93115,-4.8895 -12.9572,-9.28962c0,-1.01548 -0.88551,-6.00957 0.13146,-6.67518c0.36445,-0.23855 2.30667,1.25177 2.79916,1.37655l0.54619,0.35456c0,0 0.45117,0.30077 0.1504,0.75197z" fill="#000000" stroke="none" stroke-width="0.5"/><path d="M441.58479,574.18268c2.44666,2.39473 2.61645,10.01727 -0.81688,11.01927c-2.2898,0.66829 -2.43978,-2.8543 -2.42209,-4.02564c-1.44535,-2.89069 -0.24308,-5.60169 1.76623,-7.49402l0.3702,-0.01642c0.10934,-0.03937 0.21954,-0.03132 0.30247,-0.01343l0.25785,-0.01143c0,0 0.54186,0 0.54225,0.54166z" fill="#000000" stroke="none" stroke-width="0.5"/><path d="M369.61493,463.44572c0.81938,0.03609 1.62457,0.13285 2.44781,0.34023c9.32421,0.0852 6.16905,11.26239 1.82479,15.6965c-2.26778,7.08799 -0.76483,13.59683 -1.59384,21.05799c-0.41124,3.67491 -5.59342,12.57749 -10.83981,11.67891c-2.56307,-0.43898 -0.06084,-2.97437 0.62469,-3.94962c0.06568,-1.22884 -3.05591,-2.49414 -4.13073,-3.2874c-2.79545,-2.06314 -11.21711,-10.16612 -6.89098,-13.79774c5.15841,-2.52576 16.51427,-5.73497 11.05946,-13.95812c-2.42742,-6.19734 -0.70067,-14.52908 6.98817,-14.52908c0,0 0.54225,0 0.54225,0.54225c0,0.07988 -0.01176,0.14801 -0.03182,0.20608z" fill="#000000" stroke="none" stroke-width="0.5"/><path d="M346.50814,488.20082c-0.05399,0.53956 -0.59354,0.48557 -0.59354,0.48557l-0.34326,-0.03436c-7.14805,-0.75275 -6.67592,-7.02309 -4.83747,-12.52149c-0.0449,-6.39686 5.34924,-11.85095 5.43422,-17.4064c1.62359,-2.88892 2.50158,-6.72889 3.24923,-9.74367c0.20679,-0.83382 0.93136,-3.93103 2.27065,-3.16592c0.21065,0.12034 0.34396,0.25186 0.42306,0.38834c0.03436,-0.02759 0.07472,-0.05353 0.12201,-0.07717c0.48501,-0.24251 0.7275,0.24251 0.7275,0.24251c1.03983,2.16311 3.12323,6.41213 2.57322,9.04302c-0.65688,3.14223 -3.60047,2.70668 -3.60047,6.38239c0,3.35251 2.1183,10.42326 1.04322,13.22142c-0.84712,2.20486 -3.14703,4.28989 -4.81701,5.9599c-1.92814,1.91767 -3.46346,3.93677 -4.50509,6.16495c0.57506,0.21198 1.24608,0.35981 2.02492,0.43302l0.34326,0.03436c0,0 0.53956,0.05399 0.48557,0.59354zM352.10557,447.07361c-0.17037,0.47494 -0.41382,0.84204 0.39955,0.79888c-0.14198,-0.2932 -0.27713,-0.56192 -0.39955,-0.79888z" fill="#000000" stroke="none" stroke-width="0.5"/><path d="M408.30198,283.69309c0.79164,-0.00894 1.58299,-0.00935 2.37482,-0.00935c3.39435,0.00059 9.17685,1.06239 11.70769,3.71218c1.77636,1.85986 1.80941,5.31614 2.56444,7.58813c0.04555,7.61993 0.00698,15.24116 0.00698,22.86122c0,5.01934 -1.98165,9.34408 -2.53455,14.16465c-0.18801,1.63908 0.47058,3.16303 -0.66774,4.48245c-1.75605,1.87559 -2.52316,4.38107 -4.59771,6.00065c-3.9656,3.09592 -10.2749,3.66665 -10.2749,-2.59638c0,-4.05522 4.77444,-9.06146 2.94049,-13.15123c-0.41766,-0.93138 -4.0054,-1.87071 -4.95067,-2.37122c-2.2926,-4.2855 -2.98676,-9.35505 -5.46823,-13.42743c-0.42623,-0.69948 -4.27321,-1.98686 -5.2815,-2.73292c-4.11828,-3.12635 -0.97702,-16.1065 -0.97702,-21.09584c0,-6.73529 11.00092,-7.52664 15.02407,-3.63689c0,0 0.0837,0.08372 0.1338,0.21202z" fill="#000000" stroke="none" stroke-width="0.5"/><path d="M382.28252,338.62264c0.31233,-0.13708 0.58083,0.13142 0.58083,0.13142c5.4216,5.42765 10.15918,8.20788 5.6208,16.32871c-0.45059,7.94968 3.40125,12.4615 1.72671,20.41198c-3.84173,5.87227 -10.22879,9.95892 -13.76673,15.60531c-1.60551,3.15429 -5.23355,3.8021 -8.13791,5.61464c-0.57754,0.36044 -2.939,2.16055 -3.71114,1.86134c-1.59592,-0.61842 -0.37079,-4.69084 -0.37079,-5.93688c0,-7.30521 -0.02679,-14.72338 -3.34022,-21.37915c-1.95387,-6.87556 -0.37389,-14.42742 1.63166,-20.88128c0.92783,-2.96739 2.46753,-8.21371 5.21923,-9.89498c2.29331,-1.40121 7.30582,-0.88408 10.12422,-1.82353c1.14108,-0.37536 1.97892,-0.42614 3.17477,-0.42644h0.72301c0,0 0.43447,0.00002 0.52559,0.3889z" fill="#000000" stroke="none" stroke-width="0.5"/><path d="M381.41736,525.79295c0.38343,0.38341 0,0.76685 0,0.76685l-0.20267,-0.02193c0,0.23145 -0.0051,0.46128 -0.01406,0.68998c0.10548,0.17623 0.20093,0.32992 0.28448,0.45525c0,0 0.30077,0.45117 -0.1504,0.75197c-0.07789,0.05193 -0.15131,0.08145 -0.21946,0.09474c-0.107,1.24869 -0.26208,2.4877 -0.26208,3.79206c0,6.17868 -0.93416,13.74948 -5.82525,18.28241c0.1265,2.68768 -1.74441,13.64216 -5.47738,14.42651c-1.48356,0.3117 -3.23834,-2.92982 -4.07464,-3.77063c-1.9679,-2.08008 -4.49874,-7.03587 -3.76805,-9.90166c0.83671,-3.28165 3.7705,-4.66017 1.71684,-8.44412c-1.84566,-7.18819 -0.20018,-12.87792 3.8013,-18.83166c1.68905,-2.43156 6.54821,-4.74004 9.75501,-3.06705c0.97186,0.50702 2.44354,3.10317 3.51768,4.99461l0.15179,-0.21731c0,0 0.38343,-0.38341 0.76685,0z" fill="#000000" stroke="none" stroke-width="0.5"/><path d="M408.84733,481.5095c0.0334,-0.0334 0.06678,-0.06097 0.0999,-0.08348c-0.14942,-2.18397 -0.25874,-4.38374 -0.25874,-6.58231c0,-5.72005 -1.06309,-13.3215 5.42268,-14.45547c-0.00007,-0.0015 -0.00015,-0.00297 -0.00022,-0.00445c0,0 0,-0.54225 0.54225,-0.54225c0.37847,0 0.49279,0.26416 0.52732,0.42373c0.22909,-0.01388 0.46603,-0.02095 0.71117,-0.02095l0.54708,-0.60545c0,0 0.38343,-0.38341 0.76685,0c0.38343,0.38341 0,0.76685 0,0.76685l-0.89891,0.84055c-0.27114,0 -0.53142,0.00883 -0.78127,0.02614c0.81049,1.07692 2.88152,2.14168 3.71168,2.63265c3.41375,2.01889 8.24215,3.92801 8.24926,8.40816c0,7.4578 0.8748,14.31472 1.67899,21.51333c0.62018,5.98087 0.68069,16.6551 -3.48712,21.29858c0.00577,2.30184 -2.38222,8.15526 -5.55814,5.70719c-1.58457,-1.22142 -4.26748,-7.07944 -5.2129,-8.84367c-3.23585,-4.85634 -3.49701,-11.38221 -5.12902,-17.18774c-0.0079,-1.21387 -0.05288,-2.44594 -0.1204,-3.69261c-0.02091,0.00182 -0.04275,0.0028 -0.06553,0.0028c-0.54225,0 -0.54225,-0.54225 -0.54225,-0.54225c0,-2.57214 0,-5.14425 0,-7.71636c-0.01486,-0.19762 -0.02952,-0.39541 -0.0439,-0.59333l-0.15877,0.01718c0,0 -0.38343,-0.38341 0,-0.76685z" fill="#000000" stroke="none" stroke-width="0.5"/><path d="M449.17045,513.2217c-0.02056,-0.13027 0.00839,-0.28646 0.16456,-0.44265c0.38343,-0.38341 0.76687,0 0.76687,0l-0.02193,0.20267c7.10755,0.04622 7.28304,11.39778 9.56519,15.96207c0.0921,7.67574 -1.79297,14.26338 -1.79297,21.81445c0,5.916 -3.80683,16.01057 -10.68926,12.30965c-1.26211,-2.81766 -5.84095,-5.02645 -7.00086,-8.89905c-0.84348,-2.81612 0.31014,-6.46993 0.35272,-9.31916c2.22631,-4.45267 3.65203,-13.99959 1.12722,-18.79231c-2.45633,-4.94108 1.2289,-13.2065 7.52846,-12.83569z" fill="#000000" stroke="none" stroke-width="0.5"/><path d="M461.85097,333.92726c0.04232,-0.1605 0.16489,-0.39298 0.51993,-0.39298c0.54225,0 0.54225,0.54225 0.54225,0.54225c0,1.08449 0,2.53049 0,3.61498c0,6.46625 -1.30942,15.87539 0.716,21.9645c-0.04971,6.93323 1.45298,13.98434 1.45298,21.41522c0,7.16132 -5.96426,11.06686 -7.03864,17.70374c-4.71358,1.78317 -9.31694,15.06027 -14.52832,7.22188c-5.95367,-5.92133 2.48208,-12.1979 3.51864,-18.22486c3.13488,-6.09969 3.15631,-13.6888 6.61907,-19.87097c1.9907,-3.55289 3.50001,-7.72237 2.40428,-12.01894c-0.69223,-2.71436 -2.90447,-4.62389 -2.90447,-7.34564c0,-6.40538 1.65153,-12.81459 8.3637,-14.62448c0,0 0.16584,-0.04145 0.33457,0.01529z" fill="#000000" stroke="none" stroke-width="0.5"/><path d="M436.05633,314.59162c5.09894,-0.02529 8.78192,-2.61007 8.78192,4.87879c0.04147,6.92063 5.99109,12.71245 -0.02789,19.14364c-0.81777,1.10404 -3.7348,4.41139 -5.18015,4.53505c-1.36674,0.11691 -1.36136,-1.29521 -1.91957,-2.03162c-2.44488,-3.22546 -4.29088,-6.63003 -5.94055,-10.35966c-4.29004,-6.41413 1.09432,-9.47188 2.96795,-15.45023c-0.01386,-0.05058 -0.02178,-0.1081 -0.02178,-0.1735c0,-0.22004 0.0893,-0.35079 0.19543,-0.42848c0.06557,-0.24891 0.12472,-0.50288 0.17662,-0.76236c0,0 0.10635,-0.53173 0.63805,-0.42538c0.53171,0.10635 0.42538,0.63805 0.42538,0.63805c-0.02939,0.14699 -0.06127,0.29221 -0.09546,0.43571z" fill="#000000" stroke="none" stroke-width="0.5"/><path d="M395.88198,191.31478c-0.54225,0 -0.54225,-0.54225 -0.54225,-0.54225v-0.4338c0,-0.95099 -0.28025,-1.89795 -0.58203,-2.84627c-2.60673,-0.45521 -5.27795,-1.35863 -7.54653,-2.74876c-0.23594,0.51778 -0.37176,0.9603 -0.33049,1.25706v0.86759c0,0 0,0.54225 -0.54225,0.54225c-0.54225,0 -0.54225,-0.54225 -0.54225,-0.54225v-0.86759c0.03993,-0.56838 0.24713,-1.18676 0.54465,-1.82891c-1.67057,-1.17704 -3.06237,-2.64959 -3.95777,-4.43555c0,0 -0.24249,-0.48501 0.24249,-0.7275c0.48501,-0.24249 0.7275,0.24249 0.7275,0.24249c0.79042,1.58544 2.01169,2.89972 3.48172,3.9615c0.66469,-1.19181 1.50133,-2.41935 2.05522,-3.5277c0,0 0.24249,-0.48501 0.7275,-0.24249c0.48501,0.24249 0.24249,0.7275 0.24249,0.7275c-0.43076,0.86107 -1.43392,2.32828 -2.15894,3.62238c2.00577,1.24376 4.36621,2.07511 6.69288,2.5339c-0.52318,-1.80173 -0.74275,-3.61639 1.10458,-5.48081c0,0 0.38343,-0.38343 0.76685,0c0.38343,0.38343 0,0.76685 0,0.76685c-1.59676,1.57993 -1.35286,3.24107 -0.8305,4.89503c1.12581,0.16985 2.22976,0.25245 3.26675,0.25245c1.11486,0.00666 2.23243,0.17892 3.3539,0.40562c0.05236,-1.76814 0.22492,-3.55085 0.22492,-5.06894c0,0 0,-0.54225 0.54225,-0.54225c0.54225,0 0.54225,0.54225 0.54225,0.54225c0,1.57666 -0.19616,3.45598 -0.23735,5.29833c2.57693,0.57328 5.17639,1.24667 7.81269,0.68087c0.77034,-0.16532 1.49328,-0.49854 2.18324,-0.92496c-2.34292,-2.55366 -4.31053,-5.57642 -2.97745,-8.33335c0,0 0.24249,-0.48501 0.7275,-0.24249c0.48501,0.24249 0.24249,0.7275 0.24249,0.7275c-1.14943,2.20352 0.71728,4.93288 2.88341,7.2502c1.60442,-1.19086 3.05265,-2.73769 4.54791,-3.58818c0.23642,-0.23894 0.47284,-0.47789 0.70924,-0.71683l0.10075,-0.10075c0,0 0.38343,-0.38343 0.76685,0c0.38343,0.38343 0,0.76685 0,0.76685l-0.10075,0.10075c-0.27481,0.27229 -0.54964,0.54459 -0.82445,0.81686c-1.50254,0.7984 -2.93056,2.25136 -4.49206,3.45509c1.24493,1.25537 2.49197,2.3463 3.24827,3.1026l0.4338,0.4338c0,0 0.38343,0.38343 0,0.76685c-0.38343,0.38343 -0.76685,0 -0.76685,0l-0.4338,-0.4338c-0.87228,-0.87228 -2.11903,-1.98699 -3.34495,-3.24485c-0.83014,0.55643 -1.70543,1.00394 -2.65401,1.22018c-2.73028,0.62241 -5.41095,-0.09665 -8.06598,-0.68364c0.02403,1.4037 0.18087,2.74644 0.63274,3.87123l0.04227,1.03864c0,0 0.01779,0.54196 -0.52416,0.55975c-0.54196,0.01779 -0.55975,-0.52416 -0.55975,-0.52416l-0.01978,-0.8517c-0.49889,-1.25255 -0.64749,-2.75947 -0.65391,-4.32236c-1.11644,-0.22078 -2.22894,-0.38246 -3.33924,-0.37467c-0.92325,0 -1.89146,-0.06266 -2.87844,-0.19013c0.31318,0.9082 0.601,1.80796 0.601,2.68447v0.4338c0,0 0,0.54225 -0.54225,0.54225z" fill="#ffffff" stroke="none" stroke-width="0.5"/><path d="M323.52673,79.54266c-2.42499,-1.21251 -1.21251,-3.6375 -1.21251,-3.6375l0.25188,-0.39992c0.28919,-1.0122 0.5784,-2.02438 0.86759,-3.03658c0,0 0.18933,-0.66269 0.71121,-1.22437c0.00889,-0.12248 0.02815,-0.24783 0.0598,-0.37534c-1.82477,-2.19371 -3.54644,-4.52843 -4.92707,-7.28788c0,0 -1.21251,-2.42499 1.21251,-3.6375c2.42499,-1.21251 3.6375,1.21251 3.6375,1.21251c1.26903,2.5398 2.79801,4.68802 4.42846,6.69037c0.87601,-1.24615 1.87901,-2.40968 2.94193,-3.49083l0.4338,-0.4338c0,0 1.91712,-1.91712 3.83427,0c1.91712,1.91712 0,3.83427 0,3.83427l-0.4338,0.4338c-1.18661,1.16128 -2.28976,2.46217 -3.09391,3.91671c1.63459,1.85314 3.25556,3.73797 4.72049,5.87524c0.49329,-0.49329 0.98661,-0.98661 1.4799,-1.4799l1.30139,-1.30139c0,0 1.91712,-1.91712 3.83427,0c1.91712,1.91712 0,3.83427 0,3.83427c-0.72299,0.72299 -2.74739,2.74739 -3.47038,3.47038c0,0 -0.04898,0.04898 -0.1391,0.12344c2.01568,3.16045 4.02627,6.345 6.11721,9.46942l0.52884,0.45438c0,0 1.91712,1.91712 0,3.83427c-1.91712,1.91712 -3.83427,0 -3.83427,0l-0.4503,-0.47811c-0.08405,0.0822 -0.17614,0.16374 -0.27685,0.24429c-2.11713,1.6937 -3.8108,-0.42343 -3.8108,-0.42343c-2.13257,-2.82072 -2.05815,-6.04768 -3.29491,-8.96754c-1.40093,-0.10548 -2.50477,-1.27558 -2.50477,-2.70349c0,-0.32264 0.05635,-0.63213 0.15977,-0.91915c-1.55462,-2.08565 -3.16744,-4.23937 -4.77515,-6.29767c-0.0146,0.0511 -0.02919,0.1022 -0.04379,0.1533l-0.61571,1.33527c0,0 -1.21251,2.42499 -3.6375,1.21251z" fill="#663f3f" stroke="none" stroke-width="0.5"/><path d="M421.36757,114.29408c0,-2.71123 2.71123,-2.71123 2.71123,-2.71123h1.30139c9.11866,0.35426 7.77803,6.71401 7.51864,13.57406l0.21673,-0.21616c4.64202,-3.67773 10.72371,-9.97593 13.26469,-15.24279c0,0 1.21251,-2.42499 3.6375,-1.21251c1.79933,0.89967 1.59603,2.46687 1.37134,3.2157c0.74932,0.11506 1.39752,0.53689 1.81236,1.13323l1.75345,2.45484c1.03619,0.3768 2.51579,0.26594 3.26654,0.8145c0.10639,0.03418 0.21562,0.07503 0.32773,0.12309c2.49201,1.06801 1.424,3.56002 1.424,3.56002c-1.08744,2.3558 -2.62888,4.00007 -4.33882,5.42116c0.2451,0.29539 0.36764,0.54049 0.36764,0.54049c2.10088,4.57491 1.65628,6.75702 -1.03671,10.95856l-0.86759,1.30139c0,0 -1.50393,2.25588 -3.75981,0.75197c-2.25588,-1.50393 -0.75197,-3.75981 -0.75197,-3.75981l0.86759,-1.30139c1.67713,-2.37645 2.17471,-2.85946 0.8643,-5.23196c-1.36624,1.04883 -2.69677,2.19645 -3.86585,3.65782l-1.24953,1.66823c0,0 -1.62674,2.16899 -3.79573,0.54225c-0.8102,-0.60766 -1.09078,-1.29098 -1.12436,-1.90864c-2.45664,0.52602 -4.8078,0.70895 -5.92485,0.7157c0,0 -1.63051,0 -2.36263,-1.26445c-0.63987,0.08585 -1.39858,-0.07234 -2.1573,-0.83105c-0.49926,-0.49926 -0.73847,-0.99849 -0.81925,-1.46389c-2.57764,-0.08756 -2.57764,-2.709 -2.57764,-2.709c0,-2.44523 0.94928,-5.63041 0.69362,-7.71443c-1.18843,-0.123 -2.14894,-1.01368 -2.37721,-2.16762c-0.12005,-0.00054 -0.24564,0.0038 -0.37695,0.01317h-1.30139c0,0 -2.71123,0 -2.71123,-2.71123z" fill="#663f3f" stroke="none" stroke-width="0.5"/><path d="M479.57415,186.5111c-0.85736,2.57209 -3.42947,1.71474 -3.42947,1.71474l-0.82745,-0.32192c-4.30127,-0.72589 -5.86598,-2.19382 -9.1606,-4.93913c0,0 -2.08283,-1.73569 -0.34715,-3.81852c1.73569,-2.08283 3.81852,-0.34715 3.81852,-0.34715c2.49301,2.07767 3.28996,3.41505 6.4561,3.73682l1.77534,0.54567c0,0 2.57209,0.85736 1.71474,3.42947z" fill="#663f3f" stroke="none" stroke-width="0.5"/><path d="M473.18477,199.30398c-1.50393,2.25588 -3.75981,0.75197 -3.75981,0.75197l-1.14262,-0.76947c-3.15657,-1.82989 -5.33753,-4.06184 -8.15691,-6.31006c0,0 -2.11713,-1.6937 -0.42343,-3.8108c1.6937,-2.11713 3.8108,-0.42343 3.8108,-0.42343c2.57914,2.06932 4.55856,4.2077 7.45979,5.83626l1.46016,0.96572c0,0 2.25588,1.50393 0.75197,3.75981z" fill="#663f3f" stroke="none" stroke-width="0.5"/><path d="M467.64043,208.39312c-1.91712,1.91712 -3.83427,0 -3.83427,0l-0.86759,-0.86759c-2.9262,-2.93455 -6.12036,-4.22187 -9.32011,-6.74077c0,0 -2.11713,-1.6937 -0.42343,-3.8108c1.6937,-2.11713 3.8108,-0.42343 3.8108,-0.42343c3.25096,2.65566 6.68677,4.06848 9.76697,7.14074l0.86759,0.86759c0,0 1.91712,1.91712 0,3.83427z" fill="#663f3f" stroke="none" stroke-width="0.5"/><path d="M361.06975,384.07257c0,-2.53481 2.36986,-2.69976 2.67829,-2.7105c2.97455,-1.12527 4.83918,-3.4714 7.63535,-4.55092c3.95124,-1.52545 9.86015,-1.31844 14.13782,-1.92953c0,0 0.10543,-0.01505 0.2775,-0.01833l-0.40907,-1.68604c-0.28546,-2.01594 -0.60534,-3.97749 -0.91078,-5.922c-6.30565,0.11211 -13.94044,2.0685 -19.95304,3.80752l-0.39992,0.25188c0,0 -2.42499,1.21251 -3.6375,-1.21251c-1.21251,-2.42499 1.21251,-3.6375 1.21251,-3.6375l1.33527,-0.61571c6.53971,-1.84861 13.88763,-3.50489 20.6779,-3.9189c-0.31079,-2.53949 -0.52064,-5.10827 -0.52064,-7.78948c0,0 0,-0.58335 0.2706,-1.20888c-6.33984,-0.17718 -11.29933,-1.7877 -17.46366,-2.61408l-0.05036,0.02724c0,0 -2.71123,0 -2.71123,-2.71123c0,-2.71123 2.71123,-2.71123 2.71123,-2.71123l0.81723,0.02724c6.40239,0.95934 11.03535,2.55984 17.73743,2.57541c-0.00328,-0.5422 -0.00655,-1.08441 -0.0098,-1.62663c0,0 0,-2.71123 2.71123,-2.71123c2.71123,0 2.71123,2.71123 2.71123,2.71123c-0.00677,0.90178 -0.01353,1.80353 -0.02032,2.70531l0.80695,3.14408c0,0 0.65757,2.63029 -1.97271,3.28786c-0.03594,0.00898 -0.07151,0.01735 -0.10674,0.02514c0.11116,5.9854 1.27734,11.40665 2.13315,17.34963l0.38009,1.46105c0,0 0.65757,2.63029 -1.97271,3.28786c-0.20011,0.05004 -0.38881,0.08103 -0.56665,0.09559c0.32507,2.6182 -2.31027,2.99468 -2.31027,2.99468c-3.82269,0.54611 -9.25756,0.17137 -12.75761,1.54085c-2.85161,1.11575 -5.20266,3.76061 -8.45831,4.85423l-1.29115,0.13914c0,0 -2.71123,0 -2.71123,-2.71123z" fill="#663f3f" stroke="none" stroke-width="0.5"/><path d="M424.18725,288.63718c0,2.71123 -2.71123,2.71123 -2.71123,2.71123l-0.81723,-0.02724c-6.52542,-0.93639 -12.51724,-1.27415 -19.13744,-1.27415c0,0 -0.06301,0 -0.16983,-0.00961c0.37543,3.08781 0.08641,6.18857 -0.37578,9.32523c8.23252,-1.14535 15.71745,-0.85658 23.97066,-0.85658l2.70071,0.48644c0,0 2.65859,0.53173 2.12686,3.1903c-0.53173,2.65859 -3.1903,2.12686 -3.1903,2.12686l-1.63726,-0.38116c-8.10917,0 -15.38316,-0.31698 -23.47541,0.84035c0,0 -0.64245,0.09177 -1.34362,-0.12879c-0.09092,0.57582 -0.17855,1.15325 -0.26,1.73241l-0.4592,2.31728c0,0 -0.53173,2.65859 -3.1903,2.12686c-2.65859,-0.53173 -2.12686,-3.1903 -2.12686,-3.1903l0.2316,-1.14598c-0.18621,0.03299 -0.38894,0.05097 -0.60962,0.05097c-2.71123,0 -2.71123,-2.71123 -2.71123,-2.71123l0.28624,-2.9477c2.02503,-3.74812 2.32446,-9.63871 2.31654,-13.9704c0,0 0,-1.25717 0.85606,-2.05937c0.04514,-0.71969 0.38857,-1.53998 1.51026,-2.10081c2.42499,-1.21251 3.6375,1.21251 3.6375,1.21251c0.16738,0.35268 0.32183,0.70535 0.46405,1.05801c0.70744,-0.38775 1.4489,-0.38775 1.4489,-0.38775c6.86436,0 13.12946,0.36547 19.90431,1.32863l0.05036,-0.02724c0,0 2.71123,0 2.71123,2.71123z" fill="#663f3f" stroke="none" stroke-width="0.5"/><path d="M426.65089,313.80766c0.85736,2.57209 -1.71474,3.42947 -1.71474,3.42947l-1.77534,0.54567c-5.73606,0.77327 -13.07033,-1.76039 -18.258,1.04241c0,0 -2.42499,1.21251 -3.6375,-1.21251c-1.21251,-2.42499 1.21251,-3.6375 1.21251,-3.6375c6.43963,-3.05625 13.17249,-0.52704 19.91615,-1.56037l0.82745,-0.32192c0,0 2.57209,-0.85736 3.42947,1.71474z" fill="#663f3f" stroke="none" stroke-width="0.5"/><path d="M424.59378,327.7293c0.38343,2.68399 -2.30056,3.0674 -2.30056,3.0674l-3.42001,0.46104c-2.03653,-0.28874 -4.13166,-0.29166 -6.17068,-0.02093c0,0 -2.6903,0.33628 -3.02658,-2.354c-0.33628,-2.6903 2.354,-3.02658 2.354,-3.02658c2.2652,-0.26885 4.58543,-0.34595 6.84324,-0.02093l2.65315,-0.40655c0,0 2.68399,-0.38343 3.0674,2.30056z" fill="#663f3f" stroke="none" stroke-width="0.5"/><path d="M418.54788,342.42804c0,2.71123 -2.71123,2.71123 -2.71123,2.71123l-2.0801,-0.28624c-0.74854,-0.54656 -2.03201,-0.54656 -2.78058,0c0,0 -2.42499,1.21251 -3.6375,-1.21251c-1.21251,-2.42499 1.21251,-3.6375 1.21251,-3.6375c2.34832,-0.97719 5.28224,-0.97719 7.63056,0l-0.34491,-0.28624c0,0 2.71123,0 2.71123,2.71123z" fill="#663f3f" stroke="none" stroke-width="0.5"/><path d="M364.18728,395.14127c-0.65757,-2.63029 1.97271,-3.28786 1.97271,-3.28786l1.18025,-0.22852c2.59721,-1.28001 4.67187,-2.9924 7.08313,-4.60265c0,0 2.25588,-1.50393 3.75981,0.75197c1.50393,2.25588 -0.75197,3.75981 -0.75197,3.75981c-2.60877,1.73599 -4.86146,3.52204 -7.66598,4.94089l-2.29012,0.63907c0,0 -2.63029,0.65757 -3.28786,-1.97271z" fill="#663f3f" stroke="none" stroke-width="0.5"/><path d="M353.4783,465.45293c0,2.71123 -2.71123,2.71123 -2.71123,2.71123l-2.0801,-0.28624c-0.86759,-0.4338 -1.73519,-0.86759 -2.60278,-1.30139c0,0 -2.42499,-1.21251 -1.21251,-3.6375c1.21251,-2.42499 3.6375,-1.21251 3.6375,-1.21251c0.86759,0.4338 1.73519,0.86759 2.60278,1.30139l-0.34491,-0.28624c0,0 2.71123,0 2.71123,2.71123z" fill="#663f3f" stroke="none" stroke-width="0.5"/><path d="M354.41936,453.48854c-1.91712,1.91712 -3.83427,0 -3.83427,0l-2.60278,-2.60278c0,0 -1.91712,-1.91712 0,-3.83427c1.91712,-1.91712 3.83427,0 3.83427,0l2.60278,2.60278c0,0 1.91712,1.91712 0,3.83427z" fill="#663f3f" stroke="none" stroke-width="0.5"/><path d="M350.58926,480.54694c-1.21251,2.42499 -3.6375,1.21251 -3.6375,1.21251l-2.75112,-1.38143c-1.20797,-0.88486 -2.78313,-1.44621 -4.27852,-1.36893c0,0 -2.71123,0 -2.71123,-2.71123c0,-2.71123 2.71123,-2.71123 2.71123,-2.71123c2.43514,0.07411 4.93392,0.81075 7.00021,2.10144l2.45445,1.22136c0,0 2.42499,1.21251 1.21251,3.6375z" fill="#663f3f" stroke="none" stroke-width="0.5"/><path d="M368.98653,508.5073c-0.83985,0 -1.41954,-0.26015 -1.81967,-0.61929c-0.79463,-0.0883 -1.58928,-0.17658 -2.38391,-0.26488c0,0 -0.06292,-0.00698 -0.16849,-0.02846l0.4372,1.24821c0,0 0.85736,2.57209 -1.71474,3.42947c-2.57209,0.85736 -3.42947,-1.71474 -3.42947,-1.71474l-0.97173,-3.02587c-0.00881,-0.87211 -0.001,-1.72697 0.02223,-2.56788c-0.39237,0.29975 -0.93462,0.50687 -1.68398,0.50687c-2.71123,0 -2.71123,-2.71123 -2.71123,-2.71123l0.13914,-2.59255c0.33398,-0.98442 0.65807,-1.97376 0.97446,-2.96713l-2.65143,-0.25746c-0.86759,-0.4338 -1.73519,-0.86759 -2.60278,-1.30139c0,0 -2.42499,-1.21251 -1.21251,-3.6375c1.21251,-2.42499 3.6375,-1.21251 3.6375,-1.21251c0.86759,0.4338 1.73519,0.86759 2.60278,1.30139l0.52268,-0.28624c0,0 0.6166,0 1.2617,0.29405c0.60105,-2.03757 1.18533,-4.08542 1.77076,-6.136c0,0 0.72798,-2.54791 3.26343,-1.88622c0.37155,-1.7132 0.66826,-3.41405 0.95251,-5.10432c-0.20677,-0.05472 -0.42428,-0.13662 -0.65254,-0.25076c-2.42499,-1.21251 -1.21251,-3.6375 -1.21251,-3.6375c0.48115,-0.95631 0.85903,-1.91775 1.18745,-2.8815c-0.87506,-0.4497 -1.4737,-1.36143 -1.4737,-2.41295c0,-1.49738 1.21385,-2.71123 2.71123,-2.71123c0.11296,0 0.22429,0.0069 0.33363,0.02032c0.31936,-0.95685 0.6836,-1.91099 1.14555,-2.85957l-0.28624,-0.52268c0,0 0,-2.71123 2.71123,-2.71123c0.98611,0 1.61355,0.35866 2.0128,0.81508c0.40263,-0.0103 0.85888,0.08383 1.3687,0.33875c0.3797,0.18985 0.67022,0.40944 0.8902,0.64477c0.22614,-1.26899 1.3351,-2.23239 2.66909,-2.23239c1.31187,0 2.4061,0.93171 2.65712,2.16953c1.47231,0.02893 2.6569,1.23149 2.6569,2.71069c0,1.49738 -1.21385,2.71123 -2.71123,2.71123c-1.31187,0 -2.4061,-0.93171 -2.65712,-2.16953c-0.82322,-0.01618 -1.55651,-0.39927 -2.04305,-0.99251c-0.08708,0.47108 -0.24939,0.79569 -0.24939,0.79569c-0.88312,1.75523 -1.53705,3.52547 -2.04991,5.30935c1.98165,0.59168 3.90532,1.44407 5.676,2.51984c0.75843,0.12378 2.29952,0.62677 2.29952,2.67082c0,2.71123 -2.71123,2.71123 -2.71123,2.71123l-1.93773,-0.45536c-1.3739,-0.93987 -2.91577,-1.66986 -4.51373,-2.14701c-0.42002,2.37061 -0.74659,4.7624 -1.1778,7.17229c0.16252,0.10231 0.2552,0.17955 0.2552,0.17955c0.86759,0.72299 1.73519,1.446 2.60278,2.16899l0.42306,-0.05548c0,0 2.57209,0.85736 1.71474,3.42947c-0.85736,2.57209 -3.42947,1.71474 -3.42947,1.71474l-2.17972,-0.92308c-0.21777,-0.18146 -0.43553,-0.36294 -0.65328,-0.54439c-0.36098,1.63943 -0.69781,3.23218 -0.99665,4.81717c0.19458,0.1129 0.30754,0.20323 0.30754,0.20323c1.14969,0.95479 2.50915,1.70161 3.93545,2.1478l1.74543,-0.13914c0,0 2.71123,0 2.71123,2.71123c0,2.71123 -2.71123,2.71123 -2.71123,2.71123l-3.46014,-0.13914c-1.18765,-0.41321 -2.3427,-0.94852 -3.43544,-1.58711c-0.075,0.66245 -0.14088,1.33163 -0.19666,2.01011c0.49733,-0.09342 0.88469,-0.05039 0.88469,-0.05039c1.30139,0.14461 2.60278,0.28919 3.90417,0.4338l2.41183,3.12844c0,0 0,2.71123 -2.71123,2.71123z" fill="#663f3f" stroke="none" stroke-width="0.5"/><path d="M382.87221,531.94664c0.74483,2.6069 -1.86207,3.35176 -1.86207,3.35176l-3.40535,0.9457c-3.82019,0.02935 -6.84335,-0.00948 -10.57717,-0.92234c0,0 -0.06544,-0.01635 -0.17309,-0.05422c-0.11335,0.383 -0.23722,0.76259 -0.37324,1.13781l0.41751,2.40968c0,0 0.15868,1.11076 -0.44267,2.00523c3.15859,-0.07808 5.9856,0.90687 9.47122,0.87254h2.16899c0,0 2.71123,0 2.71123,2.71123c0,2.71123 -2.71123,2.71123 -2.71123,2.71123h-2.16899c-3.82646,-0.02939 -7.40589,-1.85789 -11.03773,-0.66061c0.79207,0.58892 1.06454,1.5425 1.06454,1.5425c0.26138,0.94121 0.47312,1.90029 0.63148,2.86846c3.44196,0.47837 6.57229,0.48141 9.99931,1.31926l1.73519,0.4338c0,0 2.63029,0.65757 1.97271,3.28786c-0.65757,2.63029 -3.28786,1.97271 -3.28786,1.97271l-1.73519,-0.4338c-2.86853,-0.73624 -5.56824,-0.77854 -8.43653,-1.09085c-0.19302,0.80292 -0.78749,2.03939 -2.61844,2.03939c-2.71123,0 -2.71123,-2.71123 -2.71123,-2.71123v-0.86759c0.01768,-1.79416 -0.25414,-3.60785 -0.76327,-5.32833c0,0 -0.66954,-2.34342 1.48281,-3.2214c-0.40877,-0.27741 -0.77706,-0.72646 -1.0142,-1.43784c-0.68991,-2.06973 0.84085,-3.02916 1.46511,-3.32497c-0.96485,-0.67234 -1.14319,-1.92075 -1.14319,-1.92075l-0.45009,-3.66348c0.58775,-1.88643 1.04584,-3.82223 1.31768,-5.77931c0,0 0.38343,-2.68399 3.0674,-2.30056c1.64576,0.23512 2.13821,1.33521 2.27295,2.15109c0.35905,0.01035 0.604,0.07158 0.604,0.07158c3.02443,0.77626 5.41639,0.78237 8.50991,0.81285l2.66781,-0.78949c0,0 2.6069,-0.74483 3.35176,1.86207z" fill="#663f3f" stroke="none" stroke-width="0.5"/><path d="M379.05141,522.37788c0.33628,2.6903 -2.354,3.02658 -2.354,3.02658l-3.47038,0.4338c0,0 -2.6903,0.33628 -3.02658,-2.354c-0.33628,-2.6903 2.354,-3.02658 2.354,-3.02658l3.47038,-0.4338c0,0 2.6903,-0.33628 3.02658,2.354z" fill="#663f3f" stroke="none" stroke-width="0.5"/><path d="M407.84637,486.89092c-1.91712,-1.91712 0,-3.83427 0,-3.83427l0.66761,-0.64417c3.21032,-3.97608 7.42873,-6.7806 10.27236,-11.08896c0,0 0.26624,-0.39938 0.74275,-0.75001c-0.52212,-0.64603 -1.08274,-1.2812 -1.70539,-1.90209c0,0 -0.80294,-0.80294 -0.84992,-1.88917c-1.96059,0.86152 -3.78831,1.52148 -5.5166,2.95676l-1.07796,1.10141c0,0 -1.91712,1.91712 -3.83427,0c-1.91712,-1.91712 0,-3.83427 0,-3.83427l1.52482,-1.50137c2.56528,-1.99831 4.98689,-2.76862 7.85574,-4.21206c0,0 2.42499,-1.21251 3.6375,1.21251c0.28108,0.56214 0.36667,1.05914 0.33233,1.49096c1.02146,0.09986 1.76258,0.84098 1.76258,0.84098c2.92251,2.93006 4.59552,6.19083 7.14074,9.33317l0.97526,3.33096c0,0 0.53173,2.65859 -2.12686,3.1903c-2.65859,0.53173 -3.1903,-2.12686 -3.1903,-2.12686l0.10767,-1.00702c-0.65041,-0.82126 -1.23773,-1.644 -1.80336,-2.46217c-2.95008,4.0236 -6.93655,6.81539 -10.01291,10.70431l-1.06757,1.09102c0,0 -1.91712,1.91712 -3.83427,0z" fill="#663f3f" stroke="none" stroke-width="0.5"/><path d="M411.93196,502.23954c-2.08283,-1.73569 -0.34715,-3.81852 -0.34715,-3.81852l2.15174,-2.58187c3.13982,-3.88166 10.14788,-7.03903 11.20568,-11.61017c0,0 0.74483,-2.6069 3.35176,-1.86207c2.6069,0.74483 1.86207,3.35176 1.86207,3.35176c-2.01948,6.3334 -8.19751,8.45453 -12.21937,13.55007l-2.18623,2.62369c0,0 -1.73569,2.08283 -3.81852,0.34715z" fill="#663f3f" stroke="none" stroke-width="0.5"/><path d="M414.78712,516.38913c-1.91712,-1.91712 0,-3.83427 0,-3.83427l0.65722,-0.63378c4.01241,-3.17763 6.69724,-5.86127 9.9877,-9.9877c0,0 1.6937,-2.11713 3.8108,-0.42343c2.11713,1.6937 0.42343,3.8108 0.42343,3.8108c-3.48981,4.34962 -6.5899,7.39648 -10.83456,10.83456l-0.21037,0.23382c0,0 -1.91712,1.91712 -3.83427,0z" fill="#663f3f" stroke="none" stroke-width="0.5"/><path d="M457.91496,537.78859c1.49738,0 2.71123,1.21385 2.71123,2.71123c0,1.49738 -1.21385,2.71123 -2.71123,2.71123c-0.09403,0 -0.18694,-0.00479 -0.27852,-0.01414l-2.41315,3.19828c-1.11241,0.55316 -2.30951,0.96685 -3.51554,1.35809c-0.01035,0.93804 -0.02631,1.87737 -0.04525,2.81773c1.36457,-0.45486 2.72915,-0.90972 4.09372,-1.36457l2.15875,-0.13914c0,0 2.71123,0 2.71123,2.71123c0,2.71123 -2.71123,2.71123 -2.71123,2.71123l-0.44403,-0.13914c-1.73519,0.5784 -3.47038,1.15679 -5.20557,1.73519c0,0 -0.30084,0.10027 -0.73106,0.12936c-0.02108,0.97875 -0.03969,1.95801 -0.05286,2.93741l0.76346,2.1797c0,0 0.85736,2.57209 -1.71474,3.42947c-2.57209,0.85736 -3.42947,-1.71474 -3.42947,-1.71474l-0.39469,-1.22901c-0.03937,0.00688 -0.07941,0.01323 -0.12016,0.01904c-2.68399,0.38343 -3.0674,-2.30056 -3.0674,-2.30056c-0.29598,-2.10329 -0.29301,-4.09285 -0.12658,-6.02117c-0.34103,0.37276 -0.5902,0.79819 -0.6905,1.28955c0,0 -0.85736,2.57209 -3.42947,1.71474c-2.57209,-0.85736 -1.71474,-3.42947 -1.71474,-3.42947c0.58868,-1.48992 1.63711,-2.76518 2.88796,-3.85114c-0.28219,-1.28207 0.63701,-2.25692 0.93616,-2.53429c-0.01844,-0.08685 -0.03271,-0.17523 -0.0426,-0.26494l-0.40439,-3.23513c-2.01004,-6.05574 -2.26807,-12.85371 -0.52884,-18.90683l-0.01733,-0.12138l-0.77383,-0.11055l0.42816,-2.99713c0.10654,-0.84146 0.59875,-1.56267 1.29393,-1.98091c-0.11552,-0.81463 0.0316,-1.97642 1.48458,-2.7029c2.42499,-1.21251 3.6375,1.21251 3.6375,1.21251c0.71134,1.43053 1.32965,2.87293 1.86654,4.32598c1.49278,-1.51215 3.28742,-2.79253 5.26222,-3.51658l-0.19217,-0.21263c0,0 1.91712,-1.91712 3.83427,0c1.91712,1.91712 0,3.83427 0,3.83427l-1.92736,1.52256c-1.4191,0.39291 -2.64855,1.4668 -3.54631,2.63397c0,0 -0.73752,0.88501 -1.82793,1.02051c0.30515,1.25938 0.5612,2.52539 0.7753,3.79729c1.63383,-1.23365 3.3934,-2.10142 5.49884,-3.30454l2.66961,-1.33597c0,0 2.42499,-1.21251 3.6375,1.21251c1.21251,2.42499 -1.21251,3.6375 -1.21251,3.6375l-2.53596,1.26682c-2.58031,1.47446 -4.76685,2.16122 -6.53676,4.50884c0,0 -0.27824,0.3478 -0.75014,0.6487c0.10348,1.47196 0.16847,2.94984 0.20562,4.43247c0.37352,-0.16302 0.74672,-0.33656 1.11907,-0.5239l0.18903,-1.13891c0,0 0.966,-1.60999 2.63005,-1.34653c0.47961,-0.76361 1.32933,-1.27118 2.29761,-1.27118z" fill="#663f3f" stroke="none" stroke-width="0.5"/><path d="M465.39798,372.05639c0,2.71123 -2.71123,2.71123 -2.71123,2.71123l-1.68482,-0.02724c-1.74835,-0.26791 -3.55794,-0.26791 -5.30632,0c0,0 -0.16178,0.02312 -0.41157,0.01826c-0.6639,3.17882 -1.14106,6.36112 -1.52857,9.55278c0.39734,0.17671 0.64764,0.37695 0.64764,0.37695c1.73662,1.98393 3.83269,0.19757 6.23742,-0.4898l1.61242,-0.10433c0,0 2.71123,0 2.71123,2.71123c0,2.71123 -2.71123,2.71123 -2.71123,2.71123l-0.12276,-0.10433c-3.96792,1.13319 -6.00783,2.08405 -9.00403,0.7332c-0.25507,2.60051 -0.49,5.20951 -0.75663,7.83017c0.69169,0 1.38338,0 2.07507,0h0.86759c0,0 2.71123,0 2.71123,2.71123c0,2.71123 -2.71123,2.71123 -2.71123,2.71123c-0.90471,0 -2.50249,0 -3.5544,0c-0.08492,0.66915 -0.17415,1.3392 -0.26859,2.01019l-0.4875,2.00933c0,0 -0.65757,2.63029 -3.28786,1.97271c-2.63029,-0.65757 -1.97271,-3.28786 -1.97271,-3.28786l0.38009,-1.46105c0.10238,-0.70466 0.19894,-1.40826 0.29067,-2.1109c-0.50362,0 -1.00723,0 -1.51085,0l-0.44403,0.29466c0,0 -2.57209,0.85736 -3.42947,-1.71474h0.00002c-0.85736,-2.57209 1.71474,-3.42947 1.71474,-3.42947l2.15875,-0.57294c0.71355,0 1.42708,0 2.14064,0c1.03192,-9.85887 1.58876,-19.55566 4.3622,-29.267c0,0 0.74483,-2.6069 3.35176,-1.86207c2.25601,0.64458 2.00187,2.68369 1.89257,3.22094c1.70695,-0.11287 3.4309,-0.05544 5.12056,0.17235l0.91796,-0.02724c0,0 2.71123,0 2.71123,2.71123z" fill="#663f3f" stroke="none" stroke-width="0.5"/><path d="M464.96416,357.30728c0,2.71123 -2.71123,2.71123 -2.71123,2.71123c-1.0122,0 -2.45818,0 -3.47038,0c0,0 -2.71123,0 -2.71123,-2.71123c0,-2.71123 2.71123,-2.71123 2.71123,-2.71123c1.0122,0 2.02438,0 3.03658,0h0.4338c0,0 2.71123,0 2.71123,2.71123z" fill="#663f3f" stroke="none" stroke-width="0.5"/><path d="M466.26558,339.0878c0,2.71123 -2.71123,2.71123 -2.71123,2.71123l-0.52268,-0.28624c-1.73519,0.86759 -3.47038,1.73519 -5.20557,2.60278c0,0 -2.42499,1.21251 -3.6375,-1.21251c-1.21251,-2.42499 1.21251,-3.6375 1.21251,-3.6375c1.73519,-0.86759 3.47038,-1.73519 5.20557,-2.60278l2.9477,-0.28624c0,0 2.71123,0 2.71123,2.71123z" fill="#663f3f" stroke="none" stroke-width="0.5"/><path d="M443.17609,313.13404c2.57209,-0.85736 3.42947,1.71474 3.42947,1.71474l-0.02119,0.46507c3.04183,3.90485 3.61182,5.69107 1.60928,10.28076c0,0 -0.04453,0.08906 -0.13361,0.22453c0.45497,2.37721 0.41983,4.59793 0.41983,7.2389l0.35285,1.07762c0,0 0.13407,0.53626 0.039,1.18503c0.71947,1.00042 0.3948,2.2991 0.3948,2.2991l-4.27659,3.50261c-2.47329,-1.24441 -3.20014,-2.21369 -5.73849,-1.15429c0,0 -2.57209,0.85736 -3.42947,-1.71474c-0.85736,-2.57209 1.71474,-3.42947 1.71474,-3.42947c2.4842,-0.72277 4.12509,-0.75967 5.84104,-0.27681l-0.32034,-1.48907c0,-1.40457 0.05251,-2.66286 -0.0059,-3.89958l-0.23093,-0.0105c-4.25518,-1.30885 -7.63403,-1.69326 -11.92381,-0.42378c0,0 -2.6069,0.74483 -3.35176,-1.86207c-0.74483,-2.6069 1.86207,-3.35176 1.86207,-3.35176c4.66367,-1.29514 8.49948,-1.18615 12.91772,-0.1104c0.20345,-0.62144 0.6831,-1.24474 1.71883,-1.58998c0.00367,-0.00121 0.00731,-0.00243 0.01095,-0.00364c0.34413,-1.10011 -0.40141,-1.53601 -1.7045,-3.10512l-0.88879,-2.13771c0,0 -0.85736,-2.57209 1.71474,-3.42947z" fill="#663f3f" stroke="none" stroke-width="0.5"/><path d="M301.63954,362.55623c0,-1.49738 1.21385,-2.71123 2.71123,-2.71123c0.55045,0 1.06256,0.16404 1.49016,0.44588c0.53364,-1.04103 1.09911,-2.06815 1.69151,-3.09c-0.91904,-0.43397 -1.55492,-1.36924 -1.55492,-2.45299c0,-1.49738 1.21385,-2.71123 2.71123,-2.71123c0.63068,0 1.21103,0.21534 1.67162,0.57647c0.9678,-1.49935 1.97736,-3.01526 3.01326,-4.57474c0,0 1.50393,-2.25588 3.75981,-0.75197c2.25588,1.50393 0.75197,3.75981 0.75197,3.75981c-1.35087,2.01976 -2.66273,3.94634 -3.88927,5.85759c1.59058,0.57394 3.0509,1.57408 3.68159,3.00841l1.76707,0.6528c0,0 2.42499,1.21251 1.21251,3.6375c-1.21251,2.42499 -3.6375,1.21251 -3.6375,1.21251l-3.43849,-1.94998c-0.15183,-0.81779 -1.07152,-1.94456 -1.85596,-1.66795c0,0 -0.25303,0 -0.6045,-0.0773c-0.96639,1.78369 -1.82789,3.60947 -2.54849,5.53779c2.16343,0.10964 4.35348,0.45458 6.33877,1.27118c0.56778,0.04713 2.56205,0.37814 2.56205,2.7034c0,2.71123 -2.71123,2.71123 -2.71123,2.71123l-1.6463,-0.28624c-1.70608,-0.92175 -3.78946,-1.053 -5.72825,-1.01515c0,0 -0.14235,0 -0.36181,-0.03262c-0.1661,0.80289 -0.30826,1.62737 -0.4246,2.47657l0.02724,0.05036c0,0 0,2.71123 -2.71123,2.71123c-2.71123,0 -2.71123,-2.71123 -2.71123,-2.71123l0.02724,-0.81723c0.49071,-3.32245 1.32119,-6.32253 2.40901,-9.14525c-1.15364,-0.3116 -2.00247,-1.36551 -2.00247,-2.61766z" fill="#663f3f" stroke="none" stroke-width="0.5"/><path d="M345.74342,304.17556c-1.91712,1.91712 -3.83427,0 -3.83427,0l-0.21037,-0.23382c-1.21322,-1.01856 -2.72507,-1.70871 -4.2567,-2.11298c0,0 -0.10949,-0.03128 -0.2772,-0.10348c-0.59927,1.3459 -1.15507,2.72494 -1.6704,4.12619c0.88067,0.47971 1.28029,1.41212 1.28029,1.41212c0.92123,3.01201 1.30842,2.3032 4.44874,2.26095h0.4338c0,0 2.71123,0 2.71123,2.71123c0,2.71123 -2.71123,2.71123 -2.71123,2.71123h-0.4338c-4.12676,-0.04162 -6.02544,-0.37376 -7.77454,-2.71442c-0.4366,1.57026 -0.83053,3.14746 -1.18563,4.71748c0.65603,0.17972 1.1103,0.54314 1.1103,0.54314c2.26637,1.88212 3.55996,2.0616 6.49809,2.46972l2.00933,0.4875c0,0 2.63029,0.65757 1.97271,3.28786c-0.65757,2.63029 -3.28786,1.97271 -3.28786,1.97271l-1.46105,-0.38009c-3.31937,-0.48542 -5.45251,-1.05222 -7.96315,-2.75891c-0.25813,1.48103 -0.48429,2.93945 -0.68195,4.36253l-0.25421,0.47514c0.23113,0.05882 0.37341,0.11979 0.37341,0.11979c2.06388,0.90098 4.0618,2.01852 5.83125,3.41149l2.16899,1.73519c0,0 2.11713,1.6937 0.42343,3.8108c-1.6937,2.11713 -3.8108,0.42343 -3.8108,0.42343l-2.16899,-1.73519c-1.36746,-1.11705 -2.95114,-1.97976 -4.57988,-2.66167c0,0 -1.36032,-0.583 -1.64012,-1.89255c-0.42252,-0.02646 -0.89154,-0.17456 -1.39856,-0.51255c-2.25588,-1.50393 -0.75197,-3.75981 -0.75197,-3.75981l0.4395,-0.18089c0.27383,-1.87255 0.59014,-3.78601 0.95576,-5.72072c-1.07549,-0.35975 -1.8506,-1.37525 -1.8506,-2.57179c0,-1.49738 1.21385,-2.71123 2.71123,-2.71123c0.08559,0 0.17027,0.00397 0.25381,0.01173c2.30359,-9.79718 5.99827,-19.68285 11.94437,-27.19099c0,0 1.6937,-2.11713 3.8108,-0.42343c2.11713,1.6937 0.42343,3.8108 0.42343,3.8108c-1.36002,1.67908 -2.59276,3.51532 -3.7097,5.46663c1.95079,0.66104 3.83282,1.61303 5.45526,2.8689l0.65722,0.63378c0,0 1.91712,1.91712 0,3.83427z" fill="#663f3f" stroke="none" stroke-width="0.5"/><path d="M485.50019,84.88051c-1.21251,2.42499 -3.6375,1.21251 -3.6375,1.21251l-1.26751,-0.68568c-2.02438,-0.5784 -4.04878,-1.15679 -6.07316,-1.73519c0,0 -2.6069,-0.74483 -1.86207,-3.35176c0.74483,-2.6069 3.35176,-1.86207 3.35176,-1.86207c2.02438,0.5784 4.04878,1.15679 6.07316,1.73519l2.20287,1.04951c0,0 2.42499,1.21251 1.21251,3.6375z" fill="#663f3f" stroke="none" stroke-width="0.5"/><path d="M479.78678,94.69489c-1.91712,1.91712 -3.83427,0 -3.83427,0l-0.21037,-0.23382c-0.89568,-0.84426 -2.28414,-1.2288 -3.51187,-1.14108c0,0 -2.71123,0 -2.71123,-2.71123c0,-2.71123 2.71123,-2.71123 2.71123,-2.71123c2.42545,0.09422 4.94249,0.89306 6.89926,2.3293l0.65722,0.63378c0,0 1.91712,1.91712 0,3.83427z" fill="#663f3f" stroke="none" stroke-width="0.5"/><path d="M480.90623,55.79653c0.56257,0 1.0851,0.17133 1.51829,0.46466c0.43319,-0.29333 0.95572,-0.46466 1.51829,-0.46466c1.49738,0 2.71123,1.21385 2.71123,2.71123c0,1.49738 -1.21385,2.71123 -2.71123,2.71123c-0.56257,0 -1.0851,-0.17133 -1.51829,-0.46466c-0.43319,0.29333 -0.95572,0.46466 -1.51829,0.46466c-1.16347,0 -2.15578,-0.73286 -2.54047,-1.76213c-0.27676,1.92762 -0.55758,3.66318 -0.95487,5.32881c0.52665,0.31181 0.8407,0.70436 0.8407,0.70436c1.23116,2.20436 3.98332,1.25714 6.50845,1.61249l2.90917,3.20667c0,0 1.21251,2.42499 -1.21251,3.6375c-2.42499,1.21251 -3.6375,-1.21251 -3.6375,-1.21251l1.17399,-0.26371c-3.99221,-0.57999 -5.93957,-0.09565 -8.50943,-2.1884c-0.27056,0.56316 -0.56893,1.13395 -0.89946,1.71714l-0.15753,1.04762c0,0 -0.65757,2.63029 -3.28786,1.97271c-2.63029,-0.65757 -1.97271,-3.28786 -1.97271,-3.28786l0.71006,-2.42276c0.27451,-0.47585 0.52069,-0.93945 0.74255,-1.39509c-0.76084,-0.25362 -1.52165,-0.50722 -2.28249,-0.76084l-0.87783,0.13914c0,0 -2.71123,0 -2.71123,-2.71123c0,-2.71123 2.71123,-2.71123 2.71123,-2.71123l2.59255,0.13914c0.75958,0.25319 1.51916,0.50639 2.27874,0.75958c0.2693,-1.3023 0.46724,-2.67288 0.68685,-4.21026c0,0 0.38343,-2.68399 3.0674,-2.30056c1.35906,0.19415 1.93163,0.97817 2.16575,1.70491c0.25238,-1.23602 1.34579,-2.16595 2.65638,-2.16595z" fill="#663f3f" stroke="none" stroke-width="0.5"/><path d="M491.13957,13.78115c-1.21251,2.42499 -3.6375,1.21251 -3.6375,1.21251l-2.53103,-1.26682c-0.98795,-0.42297 -1.9759,-0.84597 -2.96383,-1.26894c0,0 -0.13053,-0.05594 -0.31901,-0.17209l-0.09214,0.19395c0,0 -1.21251,2.42499 -3.6375,1.21251c-2.42499,-1.21251 -1.21251,-3.6375 -1.21251,-3.6375l0.2867,-0.51247c0.47726,-1.43064 0.98982,-2.83777 1.42327,-4.25416c-1.36522,-0.1407 -2.42998,-1.29441 -2.42998,-2.69683c0,-1.49738 1.21385,-2.71123 2.71123,-2.71123c0.22429,0 0.44223,0.02724 0.6507,0.07858c0.03191,-0.00785 0.06401,-0.01514 0.09635,-0.02186c0.01152,-0.27026 0.01579,-0.54214 0.0121,-0.81586c0,0 0,-2.71123 2.71123,-2.71123c2.71123,0 2.71123,2.71123 2.71123,2.71123c-0.00386,0.38248 -0.01789,0.76042 -0.04121,1.13449c0.08706,0.04785 0.1353,0.08001 0.1353,0.08001c0.86759,0.5784 1.73519,1.15679 2.60278,1.73519l1.67198,0.60617c0,0 2.51733,1.00693 1.5104,3.52423c-1.00693,2.51733 -3.52423,1.5104 -3.52423,1.5104l-2.66599,-1.12902c-0.25917,-0.17278 -0.51837,-0.34558 -0.77754,-0.51837c-0.11398,0.40942 -0.23412,0.81823 -0.35897,1.22749c0.40118,0.06633 0.67187,0.18235 0.67187,0.18235c1.03645,0.44462 2.07288,0.88922 3.10933,1.33384l2.67453,1.33597c0,0 2.42499,1.21251 1.21251,3.6375z" fill="#663f3f" stroke="none" stroke-width="0.5"/><path d="M313.70135,420.94112c-0.59621,9.08447 -7.38501,8.35949 -14.13682,7.57121c-6.75181,-0.78827 -11.56002,-1.40754 -10.31366,-10.42584c1.48953,-10.7778 6.51741,-13.56506 13.26923,-12.77678c6.75181,0.78827 11.80319,6.15502 11.18125,15.63141z" fill="#063800" stroke="#000000" stroke-width="0"/><path d="M446.34127,412.5648c6.78789,-0.36472 11.63171,2.7314 12.44464,13.58121c0.68022,9.07857 -4.15727,9.39607 -10.94516,9.76078c-6.78789,0.36472 -13.60872,0.66393 -13.63592,-8.44007c-0.02837,-9.49673 5.34857,-14.53724 12.13645,-14.90195z" data-paper-data="{&quot;index&quot;:null}" fill="#063800" stroke="#000000" stroke-width="0"/><path d="M291.77061,446.08388c-2.71123,0 -2.71123,-2.71123 -2.71123,-2.71123l0.13914,-3.46014c1.66235,-4.91516 0.59556,-9.8496 2.16899,-14.74911c0,0 0.85736,-2.57209 3.42947,-1.71474c2.57209,0.85736 1.71474,3.42947 1.71474,3.42947c-1.65476,4.72433 -0.54797,9.82598 -2.16899,14.74911l0.13914,1.74543c0,0 0,2.71123 -2.71123,2.71123z" fill="#063800" stroke="none" stroke-width="0.5"/><path d="M304.57454,447.73812c-2.63029,0.65757 -3.28786,-1.97271 -3.28786,-1.97271l-0.51474,-2.39276c0,-5.42984 0.12456,-10.80897 -0.42035,-16.21452c0,0 -0.26978,-2.69778 2.42801,-2.96756c2.69778,-0.26978 2.96756,2.42801 2.96756,2.42801c0.55472,5.58943 0.44724,11.14121 0.44724,16.75407l0.35285,1.07762c0,0 0.65757,2.63029 -1.97271,3.28786z" fill="#063800" stroke="none" stroke-width="0.5"/><path d="M316.72086,444.26774c-2.63029,0.65757 -3.28786,-1.97271 -3.28786,-1.97271l-0.86759,-3.47038c-1.0694,-4.37411 -0.52192,-7.13423 -3.39101,-10.6764c0,0 -1.6937,-2.11713 0.42343,-3.8108c2.11713,-1.6937 3.8108,0.42343 3.8108,0.42343c3.43741,4.34042 3.11462,7.67298 4.41734,12.74865l0.86759,3.47038c0,0 0.65757,2.63029 -1.97271,3.28786z" fill="#063800" stroke="none" stroke-width="0.5"/><path d="M282.66091,435.23895c-2.71123,0 -2.71123,-2.71123 -2.71123,-2.71123v-0.86759c0.04748,-7.87079 2.46755,-12.79702 8.3501,-17.69953c0,0 2.08283,-1.73569 3.81852,0.34715c1.73569,2.08283 -0.34715,3.81852 -0.34715,3.81852c-4.61723,3.84737 -6.44686,7.16286 -6.39901,13.53387v0.86759c0,0 0,2.71123 -2.71123,2.71123z" fill="#063800" stroke="none" stroke-width="0.5"/><path d="M462.20677,437.29951v-0.86759c0.04785,-6.37101 -1.78178,-9.6865 -6.39901,-13.53387c0,0 -2.08283,-1.73571 -0.34715,-3.81852c1.73569,-2.08281 3.81852,-0.34712 3.81852,-0.34712c5.88253,4.90252 8.30262,9.82874 8.3501,17.69953v0.86759c0,0 0,2.71123 -2.71123,2.71123c-2.71123,0 -2.71123,-2.71123 -2.71123,-2.71123z" data-paper-data="{&quot;index&quot;:null}" fill="#063800" stroke="none" stroke-width="0.5"/><path d="M453.90036,449.87961l0.13912,-1.74543c-1.62101,-4.92312 -0.51422,-10.02477 -2.16899,-14.74911c0,0 -0.85738,-2.57211 1.71474,-3.42947c2.57211,-0.85738 3.42947,1.71474 3.42947,1.71474c1.5734,4.8995 0.50663,9.83397 2.16899,14.74911l0.13912,3.46014c0,0 0,2.71123 -2.71123,2.71123c-2.71123,0 -2.71123,-2.71123 -2.71123,-2.71123z" data-paper-data="{&quot;index&quot;:null}" fill="#063800" stroke="none" stroke-width="0.5"/><path d="M443.13644,452.25864l0.35285,-1.07762c0,-5.61286 -0.10745,-11.16464 0.44727,-16.75407c0,0 0.26978,-2.69778 2.96754,-2.42801c2.69776,0.26978 2.42801,2.96756 2.42801,2.96756c-0.54489,5.40555 -0.42033,10.78468 -0.42033,16.21452l-0.51474,2.39274c0,0 -0.65757,2.63029 -3.28786,1.97271c-2.63029,-0.65757 -1.97271,-3.28786 -1.97271,-3.28786z" data-paper-data="{&quot;index&quot;:null}" fill="#063800" stroke="none" stroke-width="0.5"/><path d="M432.67208,447.92066l0.86759,-3.47038c1.30274,-5.07567 0.97995,-8.40825 4.41734,-12.74865c0,0 1.6937,-2.11713 3.81082,-0.42343c2.11713,1.6937 0.42343,3.81082 0.42343,3.81082c-2.86907,3.54217 -2.3216,6.30229 -3.39099,10.6764l-0.86759,3.47038c0,0 -0.65757,2.63029 -3.28786,1.97271c-2.63029,-0.65757 -1.97271,-3.28786 -1.97271,-3.28786z" data-paper-data="{&quot;index&quot;:null}" fill="#063800" stroke="none" stroke-width="0.5"/><path d="M310.42391,417.83084c0,5.00233 -3.98146,9.05753 -8.89284,9.05753c-4.91139,0 -8.89284,-4.0552 -8.89284,-9.05753c0,-5.00233 3.98146,-9.05753 8.89284,-9.05753c4.91139,0 8.89284,4.0552 8.89284,9.05753z" fill="#109d00" stroke="#000000" stroke-width="0"/><path d="M454.8784,425.20539c0,5.00233 -3.98146,9.05753 -8.89284,9.05753c-4.91137,0 -8.89284,-4.0552 -8.89284,-9.05753c0,-5.00233 3.98148,-9.05753 8.89284,-9.05753c4.91137,0 8.89284,4.0552 8.89284,9.05753z" fill="#109d00" stroke="#000000" stroke-width="0"/></g><path d="M344.8041,400.70239v-426.04615h160.06789v426.04615z" fill="url(#color-2)" stroke="#000000" stroke-width="0"/><path d="M159.69444,422.15624v-158h379v158z" fill="url(#color-3)" stroke="#000000" stroke-width="0"/><path d="M-24,373.5v-387h528v387z" fill="url(#color-4)" stroke="#000000" stroke-width="2"/></g></g></svg>