<svg version="1.1" xmlns="http://www.w3.org/2000/svg" xmlns:xlink="http://www.w3.org/1999/xlink" width="292.51675" height="28.31088" viewBox="0,0,292.51675,28.31088"><g transform="translate(-231.80672,-165.73421)"><g data-paper-data="{&quot;isPaintingLayer&quot;:true}" fill-rule="nonzero" stroke-linecap="butt" stroke-linejoin="miter" stroke-miterlimit="10" stroke-dasharray="" stroke-dashoffset="0" style="mix-blend-mode: normal"><path d="M232.80672,192.62821v-17.90328l14.06686,-7.35313l0.3197,20.14119z" fill="#717171" stroke="#000000" stroke-width="2"/><path d="M236.14005,187.8755v-10.98997l8.63497,-4.51373l0.19625,12.36371z" fill="#000000" stroke="#000000" stroke-width="0"/><path d="M236.14005,176.95242l-1,-0.91305l8.63497,-4.59065l1.04241,1.05602z" fill="#171717" stroke="#000000" stroke-width="0"/><path d="M235.14005,186.95242l0.15385,-10.98997l0.94266,1.02472l-0.03452,10.90218z" fill="#212121" stroke="#000000" stroke-width="0"/><path d="M519.32347,188.49285c0,-1.38071 1.11929,-2.5 2.5,-2.5c1.38071,0 2.5,1.11929 2.5,2.5c0,1.38071 -1.11929,2.5 -2.5,2.5c-1.38071,0 -2.5,-1.11929 -2.5,-2.5z" fill="none" stroke="none" stroke-width="0.5"/></g></g></svg>