<svg version="1.1" xmlns="http://www.w3.org/2000/svg" xmlns:xlink="http://www.w3.org/1999/xlink" width="629" height="295.85611" viewBox="0,0,629,295.85611"><defs><linearGradient x1="282.94435" y1="109.66483" x2="282.94435" y2="205.96595" gradientUnits="userSpaceOnUse" id="color-1"><stop offset="0" stop-color="#000000"/><stop offset="1" stop-color="#bbbbbb"/></linearGradient><linearGradient x1="104.31434" y1="255.43253" x2="120.18601" y2="297.04061" gradientUnits="userSpaceOnUse" id="color-2"><stop offset="0" stop-color="#000000"/><stop offset="1" stop-color="#000000" stop-opacity="0"/></linearGradient><linearGradient x1="366.1471" y1="254.36252" x2="350.27543" y2="295.9706" gradientUnits="userSpaceOnUse" id="color-3"><stop offset="0" stop-color="#000000"/><stop offset="1" stop-color="#000000" stop-opacity="0"/></linearGradient><linearGradient x1="194.94435" y1="110.19984" x2="194.94435" y2="204.36093" gradientUnits="userSpaceOnUse" id="color-4"><stop offset="0" stop-color="#000000"/><stop offset="1" stop-color="#bbbbbb"/></linearGradient><linearGradient x1="241.02279" y1="245.11907" x2="241.02279" y2="272.40439" gradientUnits="userSpaceOnUse" id="color-5"><stop offset="0" stop-color="#000000"/><stop offset="1" stop-color="#000000" stop-opacity="0"/></linearGradient><linearGradient x1="374.14135" y1="152.93896" x2="405.64135" y2="152.93896" gradientUnits="userSpaceOnUse" id="color-6"><stop offset="0" stop-color="#000000"/><stop offset="1" stop-color="#000000" stop-opacity="0"/></linearGradient><linearGradient x1="338.29334" y1="152.94843" x2="373.29334" y2="152.94843" gradientUnits="userSpaceOnUse" id="color-7"><stop offset="0" stop-color="#000000" stop-opacity="0"/><stop offset="1" stop-color="#000000"/></linearGradient><linearGradient x1="95.88577" y1="144.38834" x2="140.38577" y2="144.38834" gradientUnits="userSpaceOnUse" id="color-8"><stop offset="0" stop-color="#000000"/><stop offset="1" stop-color="#000000" stop-opacity="0"/></linearGradient><linearGradient x1="59.88577" y1="150.00591" x2="97.38577" y2="150.00591" gradientUnits="userSpaceOnUse" id="color-9"><stop offset="0" stop-color="#000000" stop-opacity="0"/><stop offset="1" stop-color="#000000"/></linearGradient><linearGradient x1="250" y1="31.30989" x2="250" y2="175.76158" gradientUnits="userSpaceOnUse" id="color-10"><stop offset="0" stop-color="#000000"/><stop offset="1" stop-color="#000000" stop-opacity="0"/></linearGradient></defs><g transform="translate(64.5,-31.3099)"><g data-paper-data="{&quot;isPaintingLayer&quot;:true}" fill-rule="nonzero" stroke-linejoin="miter" stroke-miterlimit="10" stroke-dasharray="" stroke-dashoffset="0" style="mix-blend-mode: normal"><path d="M-7.34161,321.1241l9.58803,-21.8775l57.71758,-38.84872l-5.66461,-53.28823l-53.66411,26.95282l-8.97689,-175.17268h496l-7.11869,176.34883l-52.63724,-26.24473l-6.16773,50.90253l58.86415,40.33621l8.05951,19.82149l-115.00519,-74.20675l-65.08666,0.08893l-1.32889,-137.31894l-133.67226,-0.61155l0.00137,138.11223l-75.00096,0.10522z" fill="#69421e" stroke="#000000" stroke-width="2" stroke-linecap="butt"/><g data-paper-data="{&quot;index&quot;:null}"><path d="M-0.61423,302.97096l2.5,-69.0158l53,-27.28532l6.5,53.50062z" fill="#8c8c8c" stroke="none" stroke-width="0" stroke-linecap="butt"/><path d="M60.78856,260.62099h-58.5" fill="none" stroke="#000000" stroke-width="2" stroke-linecap="round"/><path d="M26.78856,221.65001v39.59046l-26,16.58519" fill="none" stroke="#000000" stroke-width="2" stroke-linecap="round"/></g><path d="M261.19435,202.22091l0.5,-57.24566l44.5,-35.84542l0.5,135.89159z" fill="url(#color-1)" stroke="none" stroke-width="0" stroke-linecap="butt"/><path d="M174.88229,245.82086l42.5,-42.26549l44.5,-0.53501l44.5,42.8005z" fill="#d6c2be" stroke="none" stroke-width="0" stroke-linecap="butt"/><path d="M96.93726,246.50072v-187.54245h277v187.54246h-67.78701l0.17749,-136.49551l-131.17749,0.31091v136.18461z" fill="#aca65e" stroke="#000000" stroke-width="2" stroke-linecap="butt"/><path d="M-9.89807,321.69011l107.37027,-75.76817h276.36377l117.16596,74.70019z" fill="#d6c2be" stroke="#000000" stroke-width="2" stroke-linecap="butt"/><path d="M312.76631,179.4836v-42.73429h38.33001v42.7343z" fill="#ffffff" stroke="#000000" stroke-width="2" stroke-linecap="butt"/><path d="M326.96413,236.54029v-42.17071h34.75844v42.17072z" fill="#ffffff" stroke="#000000" stroke-width="2" stroke-linecap="butt"/><path d="M103.98312,157.36028v-32.05072h19.165v32.05072z" fill="#ffffff" stroke="#000000" stroke-width="2" stroke-linecap="butt"/><path d="M104.13719,238.07269v-42.73429h22.75844v42.7343z" fill="#ffffff" stroke="#000000" stroke-width="2" stroke-linecap="butt"/><path d="M125.65408,121.27651v-42.73429h20.36282v42.7343z" fill="#ffffff" stroke="#000000" stroke-width="2" stroke-linecap="butt"/><path d="M172.38261,102.65558l-19.38598,-22.37644l7.81955,-4.52856l19.38598,22.37644z" fill="#000000" stroke="#000000" stroke-width="2" stroke-linecap="butt"/><path d="M304.09662,97.23802l19.38599,-20.15734l7.81956,4.07945l-19.38598,20.15734z" data-paper-data="{&quot;index&quot;:null}" fill="#000000" stroke="#000000" stroke-width="2" stroke-linecap="butt"/><path d="M331.8538,150.13375v-49.41154h27.54969v49.41154z" fill="#ffffff" stroke="#000000" stroke-width="2" stroke-linecap="butt"/><path d="M128.0497,194.34148v-25.37349h16.76937v25.37349z" fill="#ffffff" stroke="#000000" stroke-width="2" stroke-linecap="butt"/><path d="M385.99284,178.2366l2.77066,-95.06614l65.69695,13.90794l-2.83609,102.96843z" fill="#00fbff" stroke="#000000" stroke-width="2" stroke-linecap="butt"/><g stroke-linecap="butt"><path d="M223.78128,103.05495l17.5,-24.99083l17.10188,24.99083z" fill="#ff0000" stroke="#000000" stroke-width="2"/><text transform="translate(237.62176,100.90229) scale(0.68248,0.54084)" font-size="40" xml:space="preserve" fill="#000000" fill-rule="nonzero" stroke="none" stroke-width="1" stroke-linecap="butt" stroke-linejoin="miter" stroke-miterlimit="10" stroke-dasharray="" stroke-dashoffset="0" font-family="Sans Serif" font-weight="normal" text-anchor="start" style="mix-blend-mode: normal"><tspan x="0" dy="0">!</tspan></text></g><path d="M147.15025,247.45241l-81,73.83086" fill="none" stroke="#000000" stroke-width="2" stroke-linecap="round"/><g stroke="none" stroke-width="0" stroke-linecap="butt"><path d="M234.21103,76.84738v-44.32185h13.54279v44.32185z" fill="#ab6115"/><path d="M258.37953,83.65944c0,6.45955 -33.24139,6.45955 -33.24139,0c0,-6.45955 7.44134,-11.69604 16.62069,-11.69604c9.17935,0 16.6207,5.2365 16.6207,11.69604z" fill="#844a10"/></g><g stroke-linecap="butt"><g data-paper-data="{&quot;index&quot;:null}" fill="#663f3f" stroke="#000000" stroke-width="0.5"><path d="M437.08511,130.94756l0.99416,-1.1488l2.30065,2.27949l-0.99416,1.14881z"/><path d="M437.59634,132.82583l0.99416,-1.14881l2.30065,2.27949l-0.99416,1.14881z"/><path d="M436.51852,128.55718l0.99416,-1.1488l2.30065,2.27949l-0.99416,1.14881z"/><path d="M435.06277,130.23936l0.99417,-1.14881l2.30065,2.27949l-0.99416,1.14881z"/><path d="M439.08759,131.10262l0.99417,-1.14881l2.30065,2.2795l-0.99416,1.14881z"/><path d="M435.88215,133.48986l4.11868,-4.75934l1.22701,1.21573l-4.11868,4.75934z"/></g><g fill="#663f3f" stroke="#000000" stroke-width="0.5"><path d="M409.27476,124.30738l-0.30048,-1.53231l3.06868,-0.68896l0.30048,1.53231z"/><path d="M407.93358,125.63693l-0.30048,-1.53231l3.06868,-0.68896l0.30049,1.53231z"/><path d="M410.90956,122.56912l-0.30049,-1.53231l3.06868,-0.68895l0.30048,1.53231z"/><path d="M411.34955,124.81287l-0.30049,-1.53231l3.06868,-0.68896l0.30049,1.53231z"/><path d="M407.48285,123.33847l-0.30048,-1.53231l3.06868,-0.68897l0.30049,1.53231z"/><path d="M410.51662,126.82818l-1.24484,-6.34815l1.63663,-0.36744l1.24484,6.34815z"/></g><path d="M441.60755,149.56781c-2.98168,11.52432 -14.69154,18.45426 -26.11454,15.07047c-11.423,-3.38379 -17.02739,-15.95325 -14.04571,-27.47756c1.0261,-3.9659 1.62935,-7.77661 4.2426,-10.62207c4.98045,-5.42302 13.6541,-7.96065 21.14606,-5.74133c11.423,3.3838 17.75327,17.24619 14.77159,28.77049z" fill="#00c3c5" stroke="#929292" stroke-width="1"/><path d="M414.95523,137.64871c-0.76887,2.20696 -2.74265,3.45739 -4.40856,2.7929c-1.66592,-0.66449 -2.39311,-2.99225 -1.62425,-5.19923c0.76887,-2.20696 2.74265,-3.4574 4.40856,-2.79291c1.66592,0.66449 2.39311,2.99227 1.62425,5.19924z" fill="#000000" stroke="none" stroke-width="0"/><path d="M433.44069,145.50734c-0.76887,2.20696 -2.74265,3.45739 -4.40856,2.7929c-1.66592,-0.66449 -2.39311,-2.99226 -1.62425,-5.19924c0.76887,-2.20696 2.74265,-3.45739 4.40856,-2.7929c1.66592,0.66449 2.39311,2.99227 1.62425,5.19924z" fill="#000000" stroke="none" stroke-width="0"/><path d="M409.27955,135.65781c0.40659,-1.57149 1.92679,-2.49276 3.39547,-2.05771c1.46867,0.43506 2.32966,2.06169 1.92307,3.6332c-0.40659,1.57149 -1.92679,2.49276 -3.39547,2.05771c-1.46867,-0.43506 -2.32966,-2.06169 -1.92307,-3.6332z" fill="#fff1f1" stroke="none" stroke-width="0"/><path d="M427.91276,143.56019c0.40659,-1.57149 1.92679,-2.49277 3.39547,-2.05771c1.46867,0.43506 2.32966,2.06169 1.92307,3.6332c-0.40659,1.57149 -1.92679,2.49277 -3.39547,2.05771c-1.46867,-0.43506 -2.32966,-2.06169 -1.92307,-3.6332z" fill="#fff1f1" stroke="none" stroke-width="0"/><path d="M411.0115,136.34105c0.11294,-0.43653 0.53522,-0.69243 0.94319,-0.57159c0.40797,0.12085 0.64713,0.57269 0.53419,1.00922c-0.11294,0.43653 -0.53522,0.69244 -0.94319,0.57159c-0.40797,-0.12085 -0.64713,-0.57269 -0.53419,-1.00923z" fill="#000000" stroke="none" stroke-width="0.5"/><path d="M429.45606,144.35775c0.11294,-0.43653 0.53522,-0.69243 0.94319,-0.57159c0.40797,0.12085 0.64713,0.57269 0.53419,1.00922c-0.11294,0.43653 -0.53522,0.69244 -0.94319,0.57159c-0.40797,-0.12085 -0.64713,-0.57269 -0.53419,-1.00923z" fill="#000000" stroke="none" stroke-width="0.5"/><path d="M429.47698,153.17398c0.14744,0.80481 -0.60472,0.96257 -0.60472,0.96257l-0.54058,0.09991c-2.77017,1.15211 -5.81343,1.59884 -8.54415,2.77048c-4.00584,1.07987 -6.47704,-3.21149 -8.72284,-5.98786c-1.22577,-1.51536 -2.57064,-3.08798 -2.49207,-5.19202c0,0 0.05566,-0.81798 0.82011,-0.75841c0.76445,0.05955 0.70878,0.87753 0.70878,0.87753c-0.18293,1.48117 1.27712,2.95165 2.12695,4.00527c1.58383,1.96364 4.08475,6.52956 7.07412,5.49946c2.74614,-1.1284 5.71371,-1.57819 8.46988,-2.74168l0.80492,-0.18231c0,0 0.75215,-0.15776 0.89959,0.64706z" fill="#000000" stroke="none" stroke-width="0.5"/><path d="M406.05159,119.75723c0,0 -2.63472,-6.28933 -0.29393,-7.57001c2.34079,-1.28069 5.79756,5.17734 5.79756,5.17734c0,0 1.11185,3.10248 -1.22894,4.38318c-2.34079,1.28069 -4.27469,-1.99051 -4.27469,-1.99051z" fill="#00c3c5" stroke="#000000" stroke-width="0"/><path d="M439.67693,130.10178c-1.39199,-2.38643 1.05267,-4.43538 1.05267,-4.43538c0,0 6.0685,-3.63641 7.46049,-1.24996c1.39199,2.38643 -3.8904,6.33049 -3.8904,6.33049c0,0 -3.23077,1.74129 -4.62277,-0.64515z" data-paper-data="{&quot;index&quot;:null}" fill="#00c3c5" stroke="#000000" stroke-width="0"/><path d="M407.3435,119.54413c0,0 -1.54992,-3.6998 -0.17291,-4.45319c1.37701,-0.75339 3.41051,3.04566 3.41051,3.04566c0,0 0.65407,1.82509 -0.72295,2.57848c-1.37701,0.75339 -2.51466,-1.17096 -2.51466,-1.17096z" fill="#00a5a8" stroke="#000000" stroke-width="0"/><path d="M440.72246,129.5175c-0.81887,-1.40386 0.61926,-2.60919 0.61926,-2.60919c0,0 3.5699,-2.13918 4.38876,-0.73531c0.81887,1.40386 -2.2886,3.72403 -2.2886,3.72403c0,0 -1.90055,1.02434 -2.71942,-0.37953z" data-paper-data="{&quot;index&quot;:null}" fill="#00a5a8" stroke="#000000" stroke-width="0"/><path d="M422.4728,145.96771c-0.41254,0.94364 -1.83364,1.16466 -3.17412,0.4937c-1.34047,-0.67096 -2.09271,-1.97985 -1.68016,-2.9235c0.41254,-0.94364 1.83364,-1.16467 3.17412,-0.49371c1.34047,0.67096 2.09271,1.97986 1.68016,2.9235z" fill="#00b1b4" stroke="none" stroke-width="0"/><path d="M419.10878,144.39018c0.11294,-0.43653 0.53522,-0.69243 0.94319,-0.57159c0.40797,0.12085 0.64713,0.57269 0.53419,1.00922c-0.11294,0.43653 -0.53522,0.69244 -0.94319,0.57159c-0.40797,-0.12085 -0.64713,-0.57269 -0.53419,-1.00923z" fill="#000000" stroke="none" stroke-width="0.5"/></g><path d="M323.15025,247.45241l81,73.83086" data-paper-data="{&quot;index&quot;:null}" fill="none" stroke="#000000" stroke-width="2" stroke-linecap="round"/><path d="M251.69887,200.99357l28.45138,44.31883l36,74.90088" data-paper-data="{&quot;index&quot;:null}" fill="none" stroke="#000000" stroke-width="2" stroke-linecap="round"/><path d="M45.15025,285.97286h390" fill="none" stroke="#000000" stroke-width="2" stroke-linecap="round"/><path d="M82.15025,258.15254h311" fill="none" stroke="#000000" stroke-width="2" stroke-linecap="round"/><path d="M171.61608,320.61142l-181.87167,0.65742l106.13985,-74.42695l78.37167,-2.26243z" fill="url(#color-2)" stroke="none" stroke-width="0" stroke-linecap="butt"/><path d="M307.2055,246.18448l67.37167,-0.41259l118.63985,75.49696l-194.87167,-1.72743z" data-paper-data="{&quot;index&quot;:null}" fill="url(#color-3)" stroke="none" stroke-width="0" stroke-linecap="butt"/><path d="M359.30381,202.48527c-0.44721,0.95705 -1.34164,0.47852 -1.34164,0.47852l-1,-0.53501c-2.17917,-1.18318 -3.11691,-0.78629 -5.31025,-0.18648c-1.3118,0.34124 -2.77173,-0.08095 -4.01279,0.27083c-1.44066,0.40835 -1.95954,1.10213 -3.57669,0.49717c-1.40161,-0.52433 -3.73816,-3.20081 -4.92685,-3.14388c-1.15035,0.0551 -2.04945,1.03008 -3.06655,1.51141c-1.41376,0.66905 -2.90232,0.93619 -4.38494,1.39025c0,0 -0.96152,0.29396 -1.23625,-0.73489c-0.27472,-1.02884 0.68681,-1.3228 0.68681,-1.3228c2.2558,-0.68849 5.82975,-3.03123 8.04851,-2.9834c1.91174,0.0412 3.74688,2.4652 5.57316,3.2762c1.07542,0.47757 1.38082,-0.30569 2.4233,-0.57286c1.30134,-0.3335 2.66253,0.10263 3.98722,-0.26417c2.63155,-0.6846 4.10668,-1.01667 6.68975,0.34852l1,0.53501c0,0 0.89442,0.47853 0.44721,1.43557z" fill="#000000" stroke="none" stroke-width="0.5" stroke-linecap="butt"/><path d="M356.8038,212.38289c-0.44721,0.95704 -1.34164,0.47852 -1.34164,0.47852l-0.65278,-0.36855c-1.03544,-1.05576 -3.09829,-0.23158 -4.65,-1.39101c-2.43122,1.78628 -6.17836,3.18444 -9.06972,3.7275c-1.11331,0.2091 -1.90137,0.61355 -2.98343,-0.16107c-1.14614,-0.82048 -1.36273,-3.44492 -2.76308,-3.88885c-1.36852,-0.43383 -3.73722,0.05491 -5.18377,0.05491c0,0 -1,0 -1,-1.07001c0,-1.07001 1,-1.07001 1,-1.07001c1.61013,0 4.30888,-0.51391 5.81623,0.0549c1.3732,0.51819 2.61895,4.34107 3.70756,4.22545c3.63043,-0.38558 7.14996,-2.52987 10.47621,-4.01284c2.06064,0.91934 4.1454,0.60889 5.85,1.81902l0.34722,0.16646c0,0 0.89443,0.47853 0.44721,1.43558z" fill="#000000" stroke="none" stroke-width="0.5" stroke-linecap="butt"/><path d="M359.40938,225.54702c0,1.07001 -1,1.07001 -1,1.07001l-0.50747,-0.03194c-1.26301,0.33785 -2.87141,1.15797 -4.03074,-0.11208c-0.52447,-0.57456 -0.49003,-2.83581 -1.05044,-3.66424c-2.1183,0.45564 -4.21594,0.66827 -6.16084,1.79207c-1.46296,0.84533 -2.74804,3.7619 -4.52647,3.88836c-0.17906,0.01273 -2.96719,-2.27432 -3.0367,-2.32511c-2.52639,-1.84592 -5.74203,-4.23038 -8.74014,-2.60257c0,0 -0.89443,0.47853 -1.34164,-0.47852c-0.44722,-0.95705 0.44721,-1.43557 0.44721,-1.43557c3.29186,-1.73979 6.23914,-0.22772 9.17463,1.70235c1.06104,0.69762 2.34046,1.4742 3.25532,2.38515c0.15744,0.15677 0.08236,0.66025 0.29321,0.61495c0.89374,-0.19203 2.50319,-3.0309 3.47354,-3.60173c2.43617,-1.43313 5.11408,-1.82964 7.83915,-1.95298c1.38144,1.38203 1.85201,2.48867 1.94957,4.36085c0.03823,0.73361 1.30309,-0.46886 1.96926,-0.64707l0.99254,-0.03195c0,0 1,0.00001 1,1.07002z" fill="#000000" stroke="none" stroke-width="0.5" stroke-linecap="butt"/><path d="M358.3038,232.71313c-0.44721,0.95704 -1.34164,0.47852 -1.34164,0.47852l-0.29532,-0.18648c-1.13986,-0.30596 -2.20268,-0.50613 -3.37965,-0.51107c-2.31991,-0.60348 -3.70054,0.74622 -5.91619,0.54223c-0.85455,-0.07868 -1.60408,-0.8196 -2.46163,-0.80173c-1.95535,0.04075 -3.64009,0.29573 -5.56771,-0.00246c-1.69436,-0.2621 -4.1063,1.32692 -5.93229,1.33998c0,0 -1,0 -1,-1.07001c0,-1.07001 1,-1.07002 1,-1.07002c2.01545,0.01841 4.10087,-1.51869 6.06771,-1.33506c2.65899,0.24827 5.29923,0.45402 7.97067,0.80084c2.10576,0.27337 3.72534,-1.18083 6.0838,-0.52778c1.25132,-0.00569 2.40945,0.23604 3.62036,0.55894l0.70468,0.34852c0,0 0.89443,0.47852 0.44721,1.43557z" fill="#000000" stroke="none" stroke-width="0.5" stroke-linecap="butt"/><path d="M348.19903,167.15618c-0.7071,0.75661 -1.41422,0 -1.41422,0l-0.03543,-0.25356c-3.36471,-0.93168 -7.03551,0.52151 -10.25,-0.2675c-1.08115,-0.29566 -1.95553,-1.02406 -2.98721,-1.33419c-2.31974,-0.69735 -5.46119,1.11207 -8,0.53501c-2.58751,-0.58812 -5.84991,-0.47729 -8.52771,0.26417c0,0 -0.97015,0.25952 -1.21268,-0.77854c-0.24254,-1.03807 0.7276,-1.29758 0.7276,-1.29758c2.95624,-0.76899 6.61193,-0.98779 9.47229,-0.27083c2.59827,0.65126 5.4828,-1.16195 8,-0.535c1.05393,0.26251 1.934,1.0602 3.01278,1.34085c1.2048,0.36372 1.80348,-0.29017 3.00746,-0.29945c2.21536,-0.01708 5.06058,-0.00064 7.24254,0.56695l0.96457,0.81646c0,0 0.7071,0.75662 0,1.51323z" fill="#000000" stroke="none" stroke-width="0.5" stroke-linecap="butt"/><path d="M347.49192,172.81964c0,1.07001 -1,1.07001 -1,1.07001l-0.87782,-0.00802c-2.50293,0.66954 -4.51491,0.77697 -7.01088,-0.00233c-2.76829,0.00651 -6.04368,2.29072 -8.72042,1.87647c-1.4401,-0.22286 -1.64511,-1.62391 -2.87063,-1.89476c-0.9296,-0.20546 -2.06513,0.29286 -3.02025,0.29613c-2.05465,0.00703 -4.08767,-0.27106 -6.12403,-0.54327c0,0 -0.99228,-0.13272 -0.86825,-1.19447c0.12404,-1.06175 1.11631,-0.92903 1.11631,-0.92903c2.13345,0.28551 4.58102,0.835 6.75378,0.53476c0.86354,-0.11933 1.75345,-0.45607 2.60194,-0.24689c0.98861,0.24373 1.76255,1.77823 2.62936,1.85028c2.71762,0.22588 5.92378,-1.87297 8.77959,-1.86857c2.40976,0.72304 4.05115,0.64983 6.48911,-0.00233l1.12218,-0.00802c0,0 1,0 1,1.07001z" fill="#000000" stroke="none" stroke-width="0.5" stroke-linecap="butt"/><path d="M356.99192,129.3661c0,1.07001 -1,1.07002 -1,1.07002l-0.50746,-0.03196c-2.3361,0.563 -3.54638,-0.76672 -5.68165,-1.32487c-1.3705,-0.35824 -2.68277,1.0652 -4.0371,1.08901c-1.63347,0.02872 -4.17871,-0.09334 -5.57428,-0.97892c-0.51912,-0.32942 -0.84636,-1.02193 -1.42926,-1.18943c-0.79802,-0.22931 -1.99637,0.58832 -2.77771,0.7992c0,0 -0.97015,0.25952 -1.21268,-0.77856c-0.24253,-1.03808 0.72761,-1.29758 0.72761,-1.29758c1.24415,-0.32945 2.38523,-1.15178 3.72229,-0.80584c0.80776,0.209 1.3812,0.98928 2.07074,1.48561c0.93988,0.67653 3.29614,0.59749 4.42572,0.6261c1.56321,0.03959 2.7357,-1.43651 4.4629,-1.05101c1.7058,0.38073 3.01899,1.90972 4.81835,1.35017l0.99254,-0.03194c0,0 1,0 1,1.07001z" fill="#000000" stroke="none" stroke-width="0.5" stroke-linecap="butt"/><path d="M355.94903,136.81029c-0.70711,0.75662 -1.41422,0 -1.41422,0l-0.42557,-0.57056c-3.08176,0.30603 -5.51615,-0.72048 -8.34707,-1.55219c-1.18126,-0.34705 -2.99441,0.68596 -4.17171,0.82592c-1.79655,0.21357 -3.85224,-0.10942 -5.59108,-0.56175c0,0 -0.97014,-0.25952 -0.7276,-1.29758c0.24253,-1.03807 1.21268,-0.77854 1.21268,-0.77854c1.49947,0.4152 3.35162,0.69343 4.90892,0.50826c1.57424,-0.18717 3.21415,-1.18664 4.82829,-0.7791c1.04588,0.26407 1.79387,1.1833 2.89243,1.3169c1.87763,0.22835 3.87373,0.23103 5.7605,0.34094l1.07443,1.03446c0,0 0.7071,0.75662 0,1.51323z" fill="#000000" stroke="none" stroke-width="0.5" stroke-linecap="butt"/><path d="M355.19061,140.67209c-0.31623,1.01511 -1.26491,0.67674 -1.26491,0.67674l-0.43377,-0.21259c-1.9225,-0.00647 -4.68994,-1.59468 -6.52025,-1.09864c-2.83633,0.76869 -6.26198,2.10425 -9.22229,1.33419c0,0 -0.97014,-0.25952 -0.72761,-1.29758c0.24253,-1.03807 1.21268,-0.77854 1.21268,-0.77854c2.63989,0.73098 5.73314,-0.79747 8.27771,-1.34083c2.26879,-0.48448 4.68356,1.05051 6.97975,1.04139l1.06623,0.32241c0,0 0.94869,0.33837 0.63245,1.35347z" fill="#000000" stroke="none" stroke-width="0.5" stroke-linecap="butt"/><path d="M356.49192,144.88128c0,1.07001 -1,1.07001 -1,1.07001h-0.25c-1.67823,-0.0098 -2.86932,-0.83121 -4.38273,-1.07948c-1.11187,-0.1824 -2.27218,1.36957 -3.40882,1.34606c-0.87323,-0.01808 -1.46584,-1.03888 -2.27467,-1.3915c-1.71328,-0.7469 -4.99627,0.6421 -6.56238,1.3159c0,0 -0.92848,0.39739 -1.29987,-0.59609c-0.37139,-0.99347 0.55709,-1.39087 0.55709,-1.39087c2.12459,-0.90506 5.62733,-2.23937 7.93762,-1.35913c0.65987,0.25141 1.02565,1.3186 1.72533,1.28352c1.3144,-0.06589 2.00482,-1.47887 3.59118,-1.32897c1.42455,0.13461 2.55787,1.07163 4.11727,1.06055h0.25c0,0 1,0 1,1.07001z" fill="#000000" stroke="none" stroke-width="0.5" stroke-linecap="butt"/><path d="M121.35287,147.54551c0,1.07001 -1,1.07002 -1,1.07002h-0.5c-1.66846,-0.01523 -3.04444,0.99044 -4.72185,0.14088c-0.57858,-0.29304 -0.68129,-1.32278 -1.29507,-1.51723c-0.5419,-0.17167 -1.05008,0.49093 -1.61088,0.56582c-2.0333,0.27151 -4.14945,-0.03382 -6.11472,-0.55893c0,0 -0.97014,-0.25952 -0.7276,-1.29758c0.24253,-1.03807 1.21267,-0.77854 1.21267,-0.77854c1.73005,0.46335 3.59425,0.75113 5.38529,0.51107c0.65267,-0.08748 1.79287,-0.68452 2.38912,-0.5042c0.74606,0.22564 1.02773,1.28891 1.70493,1.69281c0.89171,0.53183 2.78605,-0.38703 3.77814,-0.39411h0.5c0,0 1,0 1,1.07001z" fill="#000000" stroke="none" stroke-width="0.5" stroke-linecap="butt"/><path d="M120.85287,153.69807c0,1.07001 -1,1.07002 -1,1.07002h-0.5c-4.29463,0 -8.53145,-0.8359 -12.86043,-1.34405c0,0 -0.99388,-0.11816 -0.88345,-1.18162c0.11043,-1.06348 1.10431,-0.9453 1.10431,-0.9453c4.26052,0.51251 8.41398,1.33096 12.63957,1.33096h0.5c0,0 1,0.00001 1,1.07002z" fill="#000000" stroke="none" stroke-width="0.5" stroke-linecap="butt"/><path d="M141.60287,182.77803c0,1.07001 -1,1.07002 -1,1.07002l-0.00747,-0.03195c-0.85345,0.22201 -2.65188,1.47662 -3.40271,1.35564c-0.76672,-0.12354 -1.03028,-1.2989 -1.7225,-1.67266c-0.48404,-0.26135 -1.05139,0.3544 -1.59353,0.34866c-0.94401,-0.01 -2.2259,-0.55013 -3.09001,-0.85712c0,0 -0.94868,-0.33836 -0.63245,-1.35347c0.31623,-1.0151 1.26491,-0.67673 1.26491,-0.67673c1.58663,0.56831 3.44424,-0.02786 4.81646,0.56154c0.59474,0.25546 0.64015,1.46562 1.2775,1.53738c0.18622,0.02096 2.14517,-1.19575 2.59728,-1.31939l0.49253,-0.03194c0,0 1,0 1,1.07001z" fill="#000000" stroke="none" stroke-width="0.5" stroke-linecap="butt"/><path d="M141.49729,189.67663c-0.44721,0.95705 -1.34164,0.47852 -1.34164,0.47852l-0.05279,-0.15453c-2.16621,-0.01547 -2.38168,-0.95411 -3.9927,-2.01141c-1.05707,-0.69375 -3.53661,0.13889 -4.7573,0.13889c0,0 -1,-0.00001 -1,-1.07002c0,-1.07001 1,-1.07001 1,-1.07001c1.77991,0 4.10116,-0.82807 5.7427,0.13889c1.52612,0.89897 1.1418,1.75068 3.0073,1.73363l0.94721,0.38046c0,0 0.89443,0.47852 0.44721,1.43557z" fill="#000000" stroke="none" stroke-width="0.5" stroke-linecap="butt"/><path d="M139.99029,176.10397c0.27407,0.04451 0.86258,0.23566 0.86258,1.05651c0,1.07001 -1,1.07002 -1,1.07002l-0.95711,-0.31341c-1.66256,-1.94941 -5.95037,-2.03645 -8.28543,-2.66108c0,0 -0.97014,-0.25952 -0.7276,-1.29758c0.24254,-1.03807 1.21267,-0.77854 1.21267,-0.77854c2.79063,0.7465 6.59107,0.92104 8.89489,2.9241z" fill="#000000" stroke="none" stroke-width="0.5" stroke-linecap="butt"/><path d="M122.57301,218.36394c0.24253,1.03807 -0.72761,1.29758 -0.72761,1.29758l-1.12035,0.29144c-1.94848,0.01138 -3.17609,0.1645 -4.75486,-0.87595c-0.3957,-0.26077 -0.85069,0.40521 -1.29278,0.55855c-1.20579,0.41823 -4.80942,1.3269 -6.07454,1.12793c-0.65886,-0.10362 -1.47924,-0.20053 -1.85749,-0.787c-0.33368,-0.51736 0.09156,-1.25337 0.13735,-1.88004c0,0 0.24253,-1.03806 1.21267,-0.77855c0.97015,0.25952 0.72761,1.29758 0.72761,1.29758c-0.34859,0.2499 2.99476,-0.67723 4.18132,-0.78932c0.74391,-0.07027 1.38336,-0.64014 2.11879,-0.77909c0.81867,-0.15467 1.61674,0.4621 2.36244,0.85533c0.54328,0.28651 2.33865,-0.0781 2.99514,-0.07343l0.87964,-0.24358c0,0 0.97015,-0.25952 1.21268,0.77855z" fill="#000000" stroke="none" stroke-width="0.5" stroke-linecap="butt"/><path d="M122.10287,223.97351c0,1.07001 -1,1.07001 -1,1.07001h-0.75c-1.10652,-0.01831 -2.37743,-0.7179 -3.37781,-0.54302c-2.57785,0.45065 -5.26616,0.91952 -7.86472,0.24356c0,0 -0.97014,-0.25951 -0.7276,-1.29758c0.24253,-1.03807 1.21267,-0.77855 1.21267,-0.77855c2.39154,0.66221 4.76611,-0.04272 7.13529,-0.29143c1.41858,-0.14891 2.21038,0.55881 3.62218,0.52699h0.75c0,0 1,0 1,1.07001z" fill="#000000" stroke="none" stroke-width="0.5" stroke-linecap="butt"/><path d="M123.57301,231.45562c-0.24254,1.03807 -1.21268,0.77856 -1.21268,0.77856l-0.87964,-0.24357c-1.0833,0 -2.63299,-0.8716 -3.64806,-0.55561c-2.88782,0.89897 -5.31455,1.13892 -8.40864,0.54638c0,0 -0.98387,-0.19141 -0.80498,-1.24417c0.17888,-1.05275 1.16275,-0.86134 1.16275,-0.86134c2.92322,0.57861 4.90135,0.1229 7.59136,-0.52364c1.44212,-0.34661 2.9045,0.5144 4.35194,0.5144l1.12035,0.29143c0,0 0.97015,0.25951 0.72761,1.29758z" fill="#000000" stroke="none" stroke-width="0.5" stroke-linecap="butt"/><path d="M143.57301,108.80984c0.24254,1.03808 -0.72761,1.29757 -0.72761,1.29757l-1.12035,0.29143c-1.87436,0.01338 -4.40413,0.37183 -6.11488,-0.66588c-0.58169,-0.35283 -0.77757,-1.26036 -1.38998,-1.54758c-1.18456,-0.55555 -3.58387,0.60729 -4.86732,0.61646c0,0 -1,0 -1,-1.07001c0,-1.07001 1,-1.07001 1,-1.07001c1.72792,0.01578 3.93258,-1.22566 5.63269,-0.45355c0.68653,0.31179 0.96472,1.26233 1.61001,1.66245c1.26632,0.78518 3.49647,0.39144 4.88512,0.40413l0.87964,-0.24357c0,0 0.97015,-0.25951 1.21268,0.77855z" fill="#000000" stroke="none" stroke-width="0.5" stroke-linecap="butt"/><path d="M142.4973,116.23544c-0.44721,0.95705 -1.34164,0.47853 -1.34164,0.47853l-0.5,-0.2675c-1.45302,-0.83679 -3.07425,-0.48382 -4.67497,-0.69756c-1.56103,-0.20845 -2.68009,-1.16362 -4.10757,-1.62562c-0.75346,-0.24385 -2.31986,0.64636 -3.07413,0.81035c0,0 -0.98059,0.20985 -1.1767,-0.83939c-0.19612,-1.04923 0.78446,-1.25907 0.78446,-1.25907c1.31186,-0.27557 2.55101,-1.12251 3.92587,-0.79466c1.36959,0.3266 2.42996,1.38839 3.89243,1.58441c1.90431,0.25523 3.54036,-0.00045 5.32503,0.90745l0.5,0.2675c0,0 0.89443,0.47853 0.44721,1.43557z" fill="#000000" stroke="none" stroke-width="0.5" stroke-linecap="butt"/><path d="M167.45052,103.47851l15.21457,-10.35438l-2.76885,13.31708z" fill="#000000" stroke="#000000" stroke-width="2" stroke-linecap="butt"/><path d="M303.46938,107.51122l-2.76885,-13.31708l15.21456,10.35437z" data-paper-data="{&quot;index&quot;:null}" fill="#000000" stroke="#000000" stroke-width="2" stroke-linecap="butt"/><path d="M216.78936,202.68159v-57.78067h45.5v57.78068z" fill="#000000" stroke="none" stroke-width="0" stroke-linecap="butt"/><path d="M174.69435,245.55642l-0.5,-135.35658l42.5,35.31041l-0.5,58.31568z" fill="url(#color-4)" stroke="none" stroke-width="0" stroke-linecap="butt"/><path d="M216.69435,146.58026l-43,-36.91544l133,0.53501l-46,37.45044z" fill="#0b0b0b" stroke="none" stroke-width="0" stroke-linecap="butt"/><path d="M263.69435,204.89594v-27.28531l9.5,-6.42008l-0.5,42.26549z" fill="#0b0b0b" stroke="none" stroke-width="0" stroke-linecap="butt"/><path d="M277.19435,218.27111v-48.68557l19,-10.16511l0.5,78.11091z" fill="#0b0b0b" stroke="none" stroke-width="0" stroke-linecap="butt"/><path d="M185.19435,235.92631l0.5,-78.11091l19,10.16512v48.68557z" data-paper-data="{&quot;index&quot;:null}" fill="#0b0b0b" stroke="none" stroke-width="0" stroke-linecap="butt"/><path d="M208.19435,211.85103v-40.66048l7,5.35007v28.35533z" data-paper-data="{&quot;index&quot;:null}" fill="#0b0b0b" stroke="none" stroke-width="0" stroke-linecap="butt"/><path d="M185.69435,204.36093l-10.5,-12.84015l41,-6.95508" fill="none" stroke="#000000" stroke-width="2" stroke-linecap="round"/><path d="M296.69435,189.38077l10.5,17.1202l-45.5,-14.44517" fill="none" stroke="#000000" stroke-width="2" stroke-linecap="round"/><path d="M261.69435,183.49569l45.5,8.5601l-10.5,10.70012" fill="none" stroke="#000000" stroke-width="2" stroke-linecap="round"/><path d="M216.19435,195.26584l-41.5,12.30514l10.5,-18.19021" fill="none" stroke="#000000" stroke-width="2" stroke-linecap="round"/><path d="M308.19435,192.0558v15.51518" fill="none" stroke="#000000" stroke-width="2" stroke-linecap="round"/><path d="M173.69435,207.57098v-16.58519" fill="none" stroke="#000000" stroke-width="2" stroke-linecap="round"/><path d="M205.19435,187.77575l3,8.5601" fill="none" stroke="#000000" stroke-width="2" stroke-linecap="round"/><path d="M208.19435,186.70573l-3.5,11.77014" fill="none" stroke="#000000" stroke-width="2" stroke-linecap="round"/><path d="M276.19435,196.33585l-2,-10.16512" fill="none" stroke="#000000" stroke-width="2" stroke-linecap="round"/><path d="M277.19435,186.17073l-4.5,10.16512" fill="none" stroke="#000000" stroke-width="2" stroke-linecap="round"/><path d="M177.65782,198.16954c-0.01182,0.05616 -0.0237,0.11139 -0.03567,0.16571c0.01334,-0.01713 0.02668,-0.03431 0.03999,-0.05151c0.01988,-0.02566 0.01729,-0.06448 -0.00432,-0.11421zM174.57367,202.36304c-0.05568,0.03324 -0.11245,0.06682 -0.17034,0.10079l-0.26853,-0.98856h-0.34879v-1.28402c0,-1.82318 0.04529,-3.45713 0.25683,-5.14821l-0.03741,0.008l-0.19595,-1.04835c-0.01537,-0.07455 -0.02347,-0.15202 -0.02347,-0.2315c0,-0.59095 0.44772,-1.07002 1,-1.07002c0.37065,0 0.6942,0.21576 0.86693,0.53631l0.51355,0.91585c0.97782,0.73758 2.93174,1.8494 3.3434,3.06042c0.82479,2.42639 -2.98906,5.22554 -3.7954,7.44094c0,0 -0.3714,0.99348 -1.29987,0.59609c-0.92847,-0.39739 -0.55708,-1.39086 -0.55708,-1.39086c0.20582,-0.53937 0.44781,-1.03309 0.71613,-1.49687z" fill="#ff0000" stroke="none" stroke-width="0.5" stroke-linecap="butt"/><path d="M184.20544,192.48299c0,0 -0.19612,-1.04923 0.78447,-1.25907c0.98058,-0.20984 1.1767,0.83938 1.1767,0.83938c0.42569,2.33014 0.41941,4.68154 0.41941,7.05793c0,0.5921 0.05637,2.61626 -0.29289,2.89663c-2.01682,1.6191 -4.2272,-2.06704 -4.49244,-3.78404c-0.22565,-1.46073 0.91333,-2.84735 1.55548,-3.98971l0.04497,-0.03282l-0.01512,-0.01214l0.59302,-0.84605c0.08593,-0.12539 0.19676,-0.23003 0.32471,-0.30554c-0.02959,-0.18865 -0.06226,-0.37686 -0.09831,-0.56459z" fill="#ff0000" stroke="none" stroke-width="0.5" stroke-linecap="butt"/><path d="M177.61604,193.18102c-0.22134,0.10342 -0.44071,0.20635 -0.65864,0.29961c0,0 -0.92848,0.39739 -1.29987,-0.59608c-0.37139,-0.99347 0.55708,-1.39088 0.55708,-1.39088c1.17892,-0.50457 6.18743,-2.50842 7.19946,-0.6764c1.2513,2.26515 -2.94341,6.174 -4.8978,4.3905c-0.85746,-0.78248 -1.07121,-1.48297 -0.90024,-2.02675z" fill="#ff0000" stroke="none" stroke-width="0.5" stroke-linecap="butt"/><path d="M181.76866,203.20842c0.09506,0.01381 0.18586,0.03369 0.27131,0.06004c-0.18464,-0.11225 -0.3363,-0.19164 -0.27199,-0.09285zM181.61059,200.79462c1.51559,0.17523 3.3396,2.24063 2.65471,3.75831c-0.48411,1.07279 -3.41304,1.47826 -5.51829,1.70484l-0.63241,0.406c-0.15336,0.10238 -0.33452,0.16153 -0.52859,0.16153c-0.55229,0 -1,-0.47906 -1,-1.07002c0,-0.24478 0.07682,-0.47036 0.20607,-0.65065l0.59393,-0.84736l0.05056,0.04056l0.04233,-0.15518c1.3447,-1.01084 1.51614,-3.15695 2.50711,-4.59345c0,0 0.6,-0.85601 1.4,-0.21401c0.69921,0.56113 0.32896,1.28573 0.22457,1.4594z" fill="#ff0000" stroke="none" stroke-width="0.5" stroke-linecap="butt"/><path d="M305.85357,194.20582c0.08862,-0.26449 0.29128,-0.53264 0.73633,-0.62788c0.98058,-0.20985 1.1767,0.83938 1.1767,0.83938c0.43077,2.30614 -0.44082,4.75831 0.01455,6.73849l-0.02984,0.10544h0.0347v1.07001c0,0.59095 -0.44772,1.07002 -1,1.07002c-0.27614,0 -0.52614,-0.11977 -0.7071,-0.3134l-0.8,-0.85601l0.16622,-0.17786c-1.52136,-1.32062 -3.12616,-3.30459 -2.37826,-5.06629c0.13108,-0.30879 1.0579,-0.8276 1.92201,-1.15016l-0.00287,-0.56836c0,0 0,-0.97332 0.86756,-1.06336z" fill="#ff0000" stroke="none" stroke-width="0.5" stroke-linecap="butt"/><path d="M300.15413,199.28445c0.44703,-0.3238 0.97012,-0.49337 1.65309,-0.35073c0.87327,0.18239 2.14049,1.84975 2.64576,3.4343c0.84792,0.72206 1.41099,1.65519 0.7611,2.70315c-0.40162,0.64762 -1.42033,0.47842 -2.1443,0.41522c-0.94693,-0.08267 -2.40103,-0.74068 -3.6441,-1.44135l-0.03579,0.19146l-0.98183,-0.21012c-0.15678,-0.03013 -0.30086,-0.09935 -0.42314,-0.19791c-0.22499,-0.03854 -0.46455,-0.17656 -0.6564,-0.5187c-0.5145,-0.91753 0.343,-1.46804 0.343,-1.46804c0.53194,-0.32928 0.95006,-0.85987 1.36596,-1.38145c-0.37097,0.33217 -0.76294,0.64342 -1.14901,0.93227l-0.71582,0.95741c-0.18309,0.24922 -0.4674,0.4093 -0.78664,0.4093c-0.55228,0 -1,-0.47906 -1,-1.07001v-0.99088c-0.39374,-2.15179 0.39472,-3.52254 0.60419,-5.52702c0.10873,-1.04045 -0.40173,-2.4175 -0.40419,-3.54021c0,0 0,-1.07001 1,-1.07001c1,0 1,1.07001 1,1.07001c-0.00092,0.36221 0.04321,0.73802 0.1028,1.11807c0.09389,-0.03124 0.19371,-0.04806 0.2972,-0.04806c0.22876,0 0.43959,0.08219 0.60808,0.22048l0.79192,0.63553l-0.06088,0.08685l0.14559,0.06765c-0.14216,-0.51931 -0.29481,-0.9708 -0.48471,-1.2245c0,0 -0.6,-0.85601 0.2,-1.49802c0.8,-0.64201 1.4,0.214 1.4,0.214c0.05514,0.0821 0.13539,0.20971 0.22968,0.36965c1.46665,-1.04513 4.30415,-0.66286 4.56781,1.26652c0.09962,0.72902 -0.62029,1.78549 -1.55599,2.63961c-0.14315,0.35372 -0.41912,0.5492 -0.76077,0.61429c-0.7003,0.49626 -1.42927,0.82823 -1.98383,0.81775c0.00491,0.8553 -0.36829,1.64997 -0.92878,2.37351z" fill="#ff0000" stroke="none" stroke-width="0.5" stroke-linecap="butt"/><path d="M204.98602,194.62718c-1,0 -1,-1.07002 -1,-1.07002v-1.07001c0.00326,-0.6466 -0.05894,-1.29681 -0.18058,-1.93018c0,0 -0.19611,-1.04923 0.78447,-1.25907c0.98058,-0.20984 1.1767,0.83938 1.1767,0.83938c0.14114,0.77257 0.21615,1.56271 0.21941,2.34988v1.07001c0,0 0,1.07002 -1,1.07002z" fill="#ff0000" stroke="none" stroke-width="0.5" stroke-linecap="butt"/><path d="M205.58602,195.91118c0,-0.59095 0.44771,-1.07001 1,-1.07001c0.55229,0 1,0.47906 1,1.07001c0,0.59095 -0.44771,1.07002 -1,1.07002c-0.55229,0 -1,-0.47907 -1,-1.07002z" fill="#ff0000" stroke="none" stroke-width="0.5" stroke-linecap="butt"/><path d="M208.18602,193.77116c-1,0 -1,-1.07001 -1,-1.07001v-1.07001c0,0 0,-1.07001 1,-1.07001c1,0 1,1.07001 1,1.07001v1.07001c0,0 0,1.07001 -1,1.07001z" fill="#ff0000" stroke="none" stroke-width="0.5" stroke-linecap="butt"/><path d="M205.58602,187.35108c0,-0.59095 0.44771,-1.07001 1,-1.07001c0.55229,0 1,0.47906 1,1.07001c0,0.59095 -0.44771,1.07002 -1,1.07002c-0.55229,0 -1,-0.47907 -1,-1.07002z" fill="#ff0000" stroke="none" stroke-width="0.5" stroke-linecap="butt"/><path d="M273.98602,195.69719c0,-0.59095 0.44772,-1.07001 1,-1.07001c0.55228,0 1,0.47906 1,1.07001c0,0.59095 -0.44772,1.07001 -1,1.07001c-0.55228,0 -1,-0.47907 -1,-1.07001z" fill="#ff0000" stroke="none" stroke-width="0.5" stroke-linecap="butt"/><path d="M277.18602,195.26919c-1,0 -1,-1.07001 -1,-1.07001v-0.428c0,-1.45404 -0.19402,-2.83625 -0.2,-4.28005c0,0 0,-1.07001 1,-1.07001c1,0 1,1.07001 1,1.07001c-0.00724,1.4335 0.2,2.83049 0.2,4.28005v0.428c0,0 0,1.07001 -1,1.07001z" fill="#ff0000" stroke="none" stroke-width="0.5" stroke-linecap="butt"/><path d="M272.98602,194.19916c-1,0 -1,-1.07001 -1,-1.07001l0.01942,-0.00417c-0.3488,-1.90926 -0.14688,-3.87096 0.2,-5.76975c0,0 0.19612,-1.04923 1.1767,-0.83938c0.98058,0.20985 0.78446,1.25907 0.78446,1.25907c-0.3072,1.59955 -0.50887,3.32214 -0.2,4.93037l0.01942,0.42386c0,0 0,1.07001 -1,1.07001z" fill="#ff0000" stroke="none" stroke-width="0.5" stroke-linecap="butt"/><path d="M238.50742,321.11396v-75.61422v-43.15717" fill="none" stroke="#000000" stroke-width="2" stroke-linecap="round"/><path d="M165.03221,321.5428l26.33333,-75.97089l32.66667,-42.795" fill="none" stroke="#000000" stroke-width="2" stroke-linecap="round"/><path d="M286.69887,227.38722h-92.33333" fill="none" stroke="#000000" stroke-width="2" stroke-linecap="round"/><path d="M273.03221,213.12039h-65.66667" fill="none" stroke="#000000" stroke-width="2" stroke-linecap="round"/><path d="M263.36554,204.56029h-48" fill="none" stroke="#000000" stroke-width="2" stroke-linecap="round"/><path d="M171.46221,244.84881v-136.11017h138.16596v136.11017z" fill="#000000" stroke="#000000" stroke-width="2" stroke-linecap="butt"/><path d="M351.23099,114.81637c-0.03947,-0.02788 -0.07874,-0.05555 -0.11746,-0.08296c0.02253,0.08965 0.04407,0.17336 0.06615,0.24271c0.01662,0.05221 0.03341,0.10392 0.0503,0.15517c0.00067,-0.05715 0.00101,-0.11496 0.00101,-0.17347zM349.56502,116.04533c0.00162,0.4941 0.00499,0.94355 -0.00238,1.35968c0.0018,0.22065 0.00169,0.46368 0.00168,0.73652c0.18679,-0.26637 0.34155,-0.51653 0.33333,-0.68702c-0.01853,-0.38449 -0.16005,-0.87761 -0.33264,-1.40918zM347.40904,116.68517c0.0102,-0.52339 0.05781,-0.90972 0.15529,-1.01401v-1.00399c-0.29705,0.17311 -0.55565,0.39744 -0.74279,0.70012c-0.09678,0.15653 0.22954,0.74962 0.5875,1.31788zM345.3485,113.93797c1.46859,-1.8498 5.73398,-3.53217 7.25626,-2.23346c0.92004,0.78492 1.58568,3.60021 2.24999,4.72659c0.04511,1.45081 0.49859,4.18908 -0.58332,5.34673c-0.95648,1.02344 -5.37963,1.52211 -6.70711,1.38341c-0.57462,-0.06004 -1.28346,0.10631 -1.70711,-0.31339c-0.38451,-0.38093 -0.15747,-1.11006 -0.27998,-1.65522c-0.4814,-2.14217 -1.30488,-4.2423 -1.9616,-6.2531c0,0 -0.31623,-1.0151 0.63246,-1.35347c0.57714,-0.20585 0.92021,0.08922 1.1004,0.35192zM350.35042,120.62216c0.15202,-0.0044 0.31229,-0.00884 0.47545,-0.01443l-0.12378,-0.39733c-0.10972,0.14221 -0.22719,0.28134 -0.35167,0.41177zM351.0336,119.73987c-0.01232,0.01905 -0.02479,0.03816 -0.03742,0.05731l0.04475,-0.01596c-0.00251,-0.01381 -0.00495,-0.0276 -0.00733,-0.04136z" fill="#9966ff" stroke="none" stroke-width="0.5" stroke-linecap="butt"/><path d="M354.56432,116.3845c0,1.07001 -1,1.07001 -1,1.07001l-0.35044,-0.05491c-0.56694,0.20221 -1.13972,0.46088 -1.71687,0.74035c0.37448,1.00191 0.73788,2.01329 1.0544,3.06654l0.01291,1.24141c0,0 0,1.07001 -1,1.07001c-1,0 -1,-1.07001 -1,-1.07001l0.01291,-0.89862c-0.27949,-0.85577 -0.5829,-1.68672 -0.89261,-2.51053c-1.36418,0.66294 -2.74383,1.23708 -4.1203,1.26911c0,0 -1,0 -1,-1.07001c0,-1.07001 1,-1.07001 1,-1.07001c1.03405,0.03843 2.21722,-0.43946 3.40144,-1.02811c-0.35779,-0.95337 -0.70584,-1.91541 -1.01679,-2.91357c0,0 -0.31623,-1.0151 0.63246,-1.35347c0.94868,-0.33837 1.26491,0.67674 1.26491,0.67674c0.2825,0.90682 0.59722,1.78402 0.92095,2.65263c0.6362,-0.33056 1.24935,-0.63122 1.81414,-0.83267l0.98289,-0.05492c0,0 1,0.00001 1,1.07001z" fill="#000000" stroke="none" stroke-width="0.5" stroke-linecap="butt"/><path d="M341.79208,109.01627c-0.44721,0.95705 -1.34164,0.47852 -1.34164,0.47852l-0.77048,-0.4214c-0.19997,0.72459 -0.36047,1.54061 -0.46133,2.38397c0.18918,-0.06625 0.34569,-0.06625 0.34569,-0.06625c1.94822,0 3.78744,0.74426 5.66667,0.71335h1c0,0 1,0.00001 1,1.07001c0,1.07001 -1,1.07001 -1,1.07001h-1c-1.92208,-0.02289 -3.7013,-0.71334 -5.66667,-0.71334c0,0 -0.22618,0 -0.46341,-0.1151c0.00067,0.23327 0.00703,0.46488 0.01949,0.69351c2.09313,1.00332 3.81884,2.43766 5.58244,3.82826c0.49429,0.38974 3.77146,-0.12662 4.52814,-0.12662h0.66667c0,0 1,0.00001 1,1.07002c0,1.07001 -1,1.07001 -1,1.07001h-0.66667c-1.34985,0 -4.29235,0.56079 -5.47186,-0.12662c-0.4335,-0.25264 -0.55455,-0.88151 -0.90192,-1.2568c-0.68425,-0.73927 -2.02465,-1.46734 -3.31675,-2.04488c0.00556,0.03116 0.01097,0.06744 0.01517,0.10765c0.88423,0.62461 1.38054,4.3521 1.66245,5.28928l0.01291,1.24141c0,0 0,1.07001 -1,1.07001c-1,0 -1,-1.07001 -1,-1.07001l0.01291,-0.89862c-0.04717,-0.14506 -0.25206,-0.81127 -0.44822,-1.56347c-0.09666,0.89517 -0.23136,1.76695 -0.23136,2.10542c0,0 0,1.07001 -1,1.07001c-1,0 -1,-1.07001 -1,-1.07001c0,-1.41621 -0.17504,-4.87427 0.95287,-6.07679c-0.09227,-0.35492 -0.16686,-0.72143 -0.22511,-1.0963c-0.01479,-0.00513 -0.02945,-0.01022 -0.04399,-0.01524c0,0 -0.94868,-0.33837 -0.63246,-1.35347c0.11386,-0.3655 0.30972,-0.55553 0.51377,-0.64907c-0.02714,-1.99165 0.30346,-4.05362 0.81957,-5.77101l-0.05132,-0.01831c0,0 0,-0.02468 0.0035,-0.06654c-0.32214,-0.26825 -0.56924,-0.51059 -0.61604,-0.65621c-0.66424,-2.06696 2.37446,-5.0941 4.23566,-4.22473c0.47604,0.22236 0.83151,0.55842 1.07613,0.94296c0.14277,0.13358 0.25964,0.33192 0.2919,0.62642c0.20234,0.63684 0.15811,1.30802 -0.09818,1.78162c0.30233,0.53697 -0.06091,1.12 -0.06091,1.12l-0.65806,1.0562c-0.04536,0.07515 -0.09928,0.14383 -0.16028,0.20446c-0.01344,0.12457 -0.05049,0.26046 -0.11928,0.40769z" fill="#757575" stroke="none" stroke-width="0.5" stroke-linecap="butt"/><path d="M338.56432,104.97104c0,-0.59095 0.44772,-1.07001 1,-1.07001c0.55228,0 1,0.47906 1,1.07001c0,0.59095 -0.44772,1.07001 -1,1.07001c-0.55228,0 -1,-0.47907 -1,-1.07001z" fill="#000000" stroke="none" stroke-width="0.5" stroke-linecap="butt"/><path d="M340.89766,106.04105c0,-0.59095 0.44772,-1.07001 1,-1.07001c0.55228,0 1,0.47907 1,1.07001c0,0.59095 -0.44772,1.07001 -1,1.07001c-0.55228,0 -1,-0.47906 -1,-1.07001z" fill="#000000" stroke="none" stroke-width="0.5" stroke-linecap="butt"/><path d="M341.84634,108.51945c-0.31623,1.0151 -1.26491,0.67674 -1.26491,0.67674c-0.33333,-0.11889 -1.66667,-0.59446 -2,-0.71335c0,0 -0.94868,-0.33837 -0.63246,-1.35347c0.31623,-1.0151 1.26491,-0.67674 1.26491,-0.67674c0.33333,0.11889 0.66667,0.23778 1,0.35667l1,0.35667c0,0 0.94868,0.33837 0.63246,1.35347z" fill="#000000" stroke="none" stroke-width="0.5" stroke-linecap="butt"/><path d="M314.74199,146.95145c0,-1.07001 1,-1.07001 1,-1.07001l-0.22137,0.1797c1.33333,-0.95112 2.66667,-1.90224 4,-2.85337c0,0 0.07638,-0.05449 0.19827,-0.10568c-0.00729,-0.37273 0.03918,-0.71923 0.1008,-1.05997c-0.23508,0.00665 -0.47103,-0.03368 -0.70083,-0.12999c-2.79325,-1.17064 -1.66577,-3.02301 0.0968,-3.69359c-0.1586,-0.27853 -0.32345,-0.78785 0.15255,-1.29717c0.70711,-0.75662 1.41421,0 1.41421,0l0.18093,0.22298c0.46372,0.41879 1.19385,0.64237 1.39117,1.25638c0.21128,0.65745 0.06358,1.40434 -0.29372,2.04988c-0.06642,0.73147 -0.33697,1.50581 -0.36479,2.22614c3.0847,0.10142 6.42287,1.60857 8.21135,4.39448l0.16795,0.9502c0,0 0,1.07002 -1,1.07002c-1,0 -1,-1.07002 -1,-1.07002l0.16795,0.23687c-1.24144,-2.07839 -3.86073,-3.23329 -6.14667,-3.42003c0.38151,1.48194 0.75871,2.74354 0.48044,4.37689c0.81527,0.39928 1.20726,1.9741 1.44697,2.74795c0.6332,2.04413 0.71798,4.6047 0.71798,6.75844l0.22776,0.23481c0,0 0.44721,0.95705 -0.44721,1.43558c-0.89443,0.47852 -1.34164,-0.47852 -1.34164,-0.47852l-0.43891,-1.19187c0,-1.6911 -0.0613,-3.52325 -0.32042,-5.17866c-0.05659,-0.36153 -0.18303,-0.70375 -0.31114,-1.04596c-0.04353,1.99713 -1.0351,5.08318 -1.0351,6.58129c0,0 0,1.07001 -1,1.07001c-1,0 -1,-1.07001 -1,-1.07001c0,-2.63768 0.51362,-5.11758 1.01291,-7.66148c0.09833,-0.50101 -0.17684,-1.17833 0.17585,-1.52427c0.04721,-0.04631 0.09665,-0.0915 0.14804,-0.13531c0.01054,-0.17097 0.04785,-0.29075 0.04785,-0.29075c0.53706,-1.64443 0.11226,-2.81165 -0.29059,-4.14946c-1.17979,0.84159 -2.35957,1.68318 -3.53936,2.52477l-0.88803,0.17971c0,0 -1,0 -1,-1.07001z" fill="#00fff3" stroke="none" stroke-width="0.5" stroke-linecap="butt"/><path d="M348.96975,155.99007c-0.44721,0.95705 -1.34164,0.47852 -1.34164,0.47852l-0.21945,-0.24371c-1.22745,0 -2.13616,-0.00555 -3.31623,-0.41158c0,0 -0.12716,-0.04536 -0.27285,-0.15267c-0.13119,0.51226 -0.27834,1.02159 -0.43518,1.52877c0.48275,0.57076 0.92483,1.4258 1.30627,2.62048l0.33333,1.07002c0,0 0.31623,1.0151 -0.63246,1.35347c-0.94868,0.33837 -1.26491,-0.67674 -1.26491,-0.67674l-0.33333,-1.07002c-1.1518,-3.81918 -2.28568,-2.06725 -3.88593,0.61185c0,0 -0.5547,0.89031 -1.38675,0.29677c-0.83205,-0.59354 -0.27735,-1.48384 -0.27735,-1.48384c1.32136,-2.05828 2.88043,-3.60433 4.32018,-3.64697c0.07735,-0.2535 0.15315,-0.50913 0.22566,-0.76648c-0.98405,0.2589 -1.90515,0.37027 -3.04712,0.37027h-1c0,0 -1,0 -1,-1.07001c0,-1.07001 1,-1.07002 1,-1.07002h1c1.38229,0 2.27767,-0.16574 3.56769,-0.6174c0.06911,-0.50672 0.10626,-1.01522 0.09897,-1.52262v-0.35666c0,0 0,-1.07001 1,-1.07001c1,0 1,1.07001 1,1.07001v0.35666c-0.00755,0.72556 -0.07502,1.44191 -0.18655,2.15101c0.27192,-0.03841 0.50278,0.04392 0.50278,0.04392c0.95925,0.35869 1.66978,0.30177 2.68377,0.30177l1.11388,0.46964c0,0 0.89443,0.47852 0.44721,1.43557z" fill="#cebc97" stroke="none" stroke-width="0.5" stroke-linecap="butt"/><path d="M112.16271,196.37642l0.3674,0.39579c-0.06292,0.56522 0.14175,1.24964 -0.18876,1.69566c-0.15785,0.21303 -0.44828,0.40001 -0.81124,0.54518v0.61253c0,1.08365 0.04625,2.15085 0.10429,3.21132c1.69944,0.0298 3.45144,0.48829 5.05589,1.08254l0.83982,-0.01381c0,0 1,0 1,1.07001c0,1.07001 -1,1.07001 -1,1.07001l-1.16018,-0.01382c-1.46329,-0.50539 -3.06561,-1.02039 -4.61252,-1.05468c0.0492,0.89139 0.09024,1.78266 0.10238,2.67963c0.68823,1.29196 1.00101,3.20013 1.28567,4.11391l0.33333,1.07001c0,0 0.31623,1.0151 -0.63246,1.35347c-0.94868,0.33837 -1.26491,-0.67674 -1.26491,-0.67674l-0.33333,-1.07002c-0.05472,-0.17567 -0.35034,-1.21813 -0.60079,-2.19727c-0.0961,1.20051 -0.40876,2.60087 -0.50184,2.91062c0,0 -0.31623,1.0151 -1.26491,0.67674c-0.94868,-0.33837 -0.63246,-1.35346 -0.63246,-1.35346c0.43407,-1.32908 -0.31778,-5.33141 1.16814,-5.96874c0.14211,-0.06096 0.27828,-0.10471 0.40881,-0.13268c-0.02364,-0.60352 -0.05598,-1.20646 -0.09061,-1.81015c-0.74161,0.22907 -1.48591,0.44198 -2.22142,0.70495l-0.27579,0.45485c0,0 -0.70711,0.75662 -1.41421,0c-0.70711,-0.75662 0,-1.51323 0,-1.51323l1.05755,-0.97182c0.90429,-0.32181 1.82133,-0.5691 2.72984,-0.86469c-0.04628,-0.91213 -0.08028,-1.82961 -0.08028,-2.75693v-0.2985c-0.9154,-0.04909 -1.74052,-0.38188 -1.94587,-1.1376c-0.61403,-2.25974 2.34185,-3.15539 3.61254,-3.20062c0,0 1,0 1,1.07001c0,0.11848 -0.01226,0.22385 -0.03407,0.31754z" fill="#cc0000" stroke="none" stroke-width="0.5" stroke-linecap="butt"/><path d="M105.93691,209.13379c-1,0 -1,-1.07001 -1,-1.07001v-0.35667c0.00875,-0.60885 -0.09428,-1.22684 -0.28202,-1.80166c0,0 -0.31623,-1.0151 0.63246,-1.35347c0.94868,-0.33837 1.26491,0.67674 1.26491,0.67674c0.23959,0.79725 0.37594,1.641 0.38465,2.47839v0.35667c0,0 0,1.07001 -1,1.07001z" fill="#272727" stroke="none" stroke-width="0.5" stroke-linecap="butt"/><path d="M107.89727,197.00697c0,-0.59095 0.44772,-1.07001 1,-1.07001c0.55228,0 1,0.47906 1,1.07001c0,0.59095 -0.44772,1.07002 -1,1.07002c-0.55228,0 -1,-0.47907 -1,-1.07002z" fill="#000000" stroke="none" stroke-width="0.5" stroke-linecap="butt"/><path d="M110.56394,197.00697c0,-0.59095 0.44772,-1.07001 1,-1.07001c0.55228,0 1,0.47906 1,1.07001c0,0.59095 -0.44772,1.07002 -1,1.07002c-0.55228,0 -1,-0.47907 -1,-1.07002z" fill="#000000" stroke="none" stroke-width="0.5" stroke-linecap="butt"/><path d="M317.44644,139.59738c0,-0.59095 0.44772,-1.07001 1,-1.07001c0.55228,0 1,0.47907 1,1.07001c0,0.59095 -0.44772,1.07001 -1,1.07001c-0.55228,0 -1,-0.47907 -1,-1.07001z" fill="#000000" stroke="none" stroke-width="0.5" stroke-linecap="butt"/><path d="M320.11311,138.17069c0,-0.59095 0.44772,-1.07001 1,-1.07001c0.55228,0 1,0.47906 1,1.07001c0,0.59095 -0.44772,1.07002 -1,1.07002c-0.55228,0 -1,-0.47907 -1,-1.07002z" fill="#000000" stroke="none" stroke-width="0.5" stroke-linecap="butt"/><path d="M132.20258,79.71883c0.94868,-0.33837 1.26491,0.67674 1.26491,0.67674c0.11797,0.39257 0.37423,1.65127 0.45996,2.87568c0.82129,0.96026 1.72244,2.15029 2.09862,3.18672c0.0955,-0.01728 0.1594,-0.01728 0.1594,-0.01728c2.38847,0.02844 4.063,1.41884 5.70711,3.16676l0.66667,0.71335c0,0 0.70711,0.75662 0,1.51322c-0.70711,0.75661 -1.41421,0 -1.41421,0l-0.66667,-0.71335c-1.18291,-1.27513 -2.44804,-2.51232 -4.17282,-2.54c0.04044,1.5692 -0.0885,3.46968 -0.11529,4.88618c1.90522,0.78808 2.32174,5.23705 2.32856,6.88399v0.71334c0,0 0,1.07001 -1,1.07001c-1,0 -1,-1.07001 -1,-1.07001v-0.71334c0.00448,-0.88825 -0.16141,-1.77038 -0.31391,-2.64352c-0.88647,-5.07528 -2.60154,2.35112 -3.45833,4.19205c0,0 -0.44721,0.95705 -1.34164,0.47852c-0.89443,-0.47852 -0.44721,-1.43557 -0.44721,-1.43557c0.91334,-1.94594 1.67916,-3.79429 2.66278,-5.69832c0.22829,-0.44191 0.211,-1.10498 0.56516,-1.4086c0.00463,-1.24014 0.09672,-2.81117 0.10804,-4.24293c-1.32137,0.50527 -2.65824,0.91206 -4.00221,1.37612l-0.88465,0.64243c0,0 -0.83205,0.59354 -1.38675,-0.29676c-0.5547,-0.8903 0.27735,-1.48384 0.27735,-1.48384l1.11535,-0.78424c1.60094,-0.58523 3.21373,-1.04685 4.78816,-1.69773c-0.00216,-0.01757 -0.00437,-0.03504 -0.00662,-0.05241c-0.0476,-0.36708 -0.3489,-0.87611 -0.74128,-1.40543c-0.04013,0.02783 -0.08309,0.05024 -0.12904,0.06678c-1.05647,0.38035 -1.65362,0.01246 -2.03971,-0.58502c-0.37015,0.02723 -0.84518,-0.15717 -1.47259,-0.67178c-1.2805,-1.05029 0.34625,-3.69913 0.87506,-4.56019c0,0 0.52834,-0.84799 1.32721,-0.33705c0.05651,-0.03135 0.11917,-0.05975 0.18862,-0.08452z" fill="#008a1f" stroke="none" stroke-width="0.5" stroke-linecap="butt"/><path d="M120.51881,136.01791c0,1.07001 -1,1.07001 -1,1.07001h-0.33333c-1.56512,-0.02575 -2.65024,0.18058 -4.00942,-0.05997c0.00222,0.08766 0.00404,0.176 0.00546,0.26508c0.27341,0.24577 0.55758,0.57935 0.85461,1.0157c0.25201,0.37022 0.28758,0.8628 0.43137,1.29418l0.42509,0.2951c0,0 0.70711,0.75661 0,1.51322c-0.70711,0.75662 -1.41421,0 -1.41421,0l-0.90824,-1.13159c-0.90549,-3.25499 -2.53592,1.16498 -4.16328,2.33529c0,0 -0.83205,0.59354 -1.38675,-0.29676c-0.5547,-0.89031 0.27735,-1.48384 0.27735,-1.48384c1.38803,-0.9807 2.54581,-3.23271 3.87268,-3.91115c-0.00733,-0.20125 -0.0173,-0.39772 -0.02997,-0.59046c-1.08442,0.54359 -2.13811,0.99728 -3.30511,1.41361l0.05755,0.09819c0,0 -0.70711,0.75662 -1.41421,0c-0.70711,-0.75662 0,-1.51322 0,-1.51322l0.72421,-0.61516c1.29548,-0.46194 2.42841,-0.96494 3.64884,-1.60824c-0.07487,-0.38276 -0.16279,-0.7681 -0.2642,-1.16626c-0.21666,0.13164 -0.42259,0.21303 -0.60234,0.21343c-2.13748,0.00466 -2.76974,-1.4345 -1.50651,-3.24384c0.3614,-0.51763 1.07625,-0.64103 1.74364,-0.66692c0.04806,-0.13145 0.12942,-0.26727 0.25636,-0.4031c0.70711,-0.75662 1.41421,0 1.41421,0l0.66667,2.22657c-0.08473,0.09008 -0.19351,0.21135 -0.31959,0.35036c0.38077,1.19949 0.62665,2.27924 0.772,3.39333c1.56954,0.45424 2.40766,0.15745 4.17381,0.13641h0.33333c0,0 1,0 1,1.07001z" fill="#d2c900" stroke="none" stroke-width="0.5" stroke-linecap="butt"/><path d="M109.51881,131.38119c0,-0.59095 0.44772,-1.07001 1,-1.07001c0.55228,0 1,0.47906 1,1.07001c0,0.59095 -0.44772,1.07001 -1,1.07001c-0.55228,0 -1,-0.47907 -1,-1.07001z" fill="#000000" stroke="none" stroke-width="0.5" stroke-linecap="butt"/><path d="M112.51881,129.59784c0,-0.59095 0.44772,-1.07002 1,-1.07002c0.55228,0 1,0.47907 1,1.07002c0,0.59095 -0.44772,1.07001 -1,1.07001c-0.55228,0 -1,-0.47906 -1,-1.07001z" fill="#000000" stroke="none" stroke-width="0.5" stroke-linecap="butt"/><path d="M129.18547,83.23063c0,-0.59095 0.44772,-1.07001 1,-1.07001c0.55228,0 1,0.47907 1,1.07001c0,0.59095 -0.44772,1.07001 -1,1.07001c-0.55228,0 -1,-0.47906 -1,-1.07001z" fill="#000000" stroke="none" stroke-width="0.5" stroke-linecap="butt"/><path d="M131.85214,81.44727c0,-0.59095 0.44772,-1.07001 1,-1.07001c0.55228,0 1,0.47906 1,1.07001c0,0.59095 -0.44772,1.07001 -1,1.07001c-0.55228,0 -1,-0.47907 -1,-1.07001z" fill="#000000" stroke="none" stroke-width="0.5" stroke-linecap="butt"/><path d="M173.27279,272.40439l-0.5,-27.28532l135,-1.07001l-2,27.28531z" fill="url(#color-5)" stroke="none" stroke-width="0" stroke-linecap="butt"/><path d="M1.11136,300.82559v-65.06264l53.62636,-27.66603l6.15442,52.71418z" data-paper-data="{&quot;index&quot;:null}" fill="#000000" stroke="#000000" stroke-width="2" stroke-linecap="butt"/><g><path d="M421.38577,260.17046l6.5,-53.50062l53,27.28532l2.5,69.01581z" fill="#8c8c8c" stroke="none" stroke-width="0" stroke-linecap="butt"/><path d="M421.98298,260.62099h58.5" fill="none" stroke="#000000" stroke-width="2" stroke-linecap="round"/><path d="M481.98298,277.82567l-26,-16.58519v-39.59046" fill="none" stroke="#000000" stroke-width="2" stroke-linecap="round"/></g><path d="M422.4447,260.50779l6.09956,-52.24421l53.14825,27.41937v64.48258z" fill="#000000" stroke="#000000" stroke-width="2" stroke-linecap="butt"/><path d="M374.14135,246.83255v-187.78719h31.5l-5,204.37239z" fill="url(#color-6)" stroke="none" stroke-width="0" stroke-linecap="butt"/><path d="M338.29334,247.10955v-188.32219h35v188.3222z" fill="url(#color-7)" stroke="none" stroke-width="0" stroke-linecap="butt"/><path d="M95.88577,246.03954v-203.30237h44.5v203.30237z" fill="url(#color-8)" stroke="none" stroke-width="0" stroke-linecap="butt"/><path d="M66.38577,267.97479l-6.5,-215.07251h37.5v194.20727z" fill="url(#color-9)" stroke="none" stroke-width="0" stroke-linecap="butt"/><g fill="#663f3f" stroke="#000000" stroke-width="0.5" stroke-linecap="butt"><path d="M208.9916,314.36669l0.09529,-3.51526l7.06196,-0.00745l-0.09529,3.51526z"/><path d="M205.39935,316.63024l0.09529,-3.51526l7.06196,-0.00745l-0.09529,3.51528z"/><path d="M213.42815,311.34904l0.09529,-3.51526l7.06196,-0.00745l-0.09529,3.51526z"/><path d="M213.28862,316.49639l0.09528,-3.51526l7.06195,-0.00745l-0.09529,3.51526z"/><path d="M205.54227,311.35733l0.09529,-3.51526l7.06196,-0.00743l-0.09529,3.51526z"/><path d="M210.47262,320.51669l0.39477,-14.56325l3.76638,-0.00398l-0.39478,14.56326z"/></g><g fill="#663f3f" stroke="#000000" stroke-width="0.5" stroke-linecap="butt"><path d="M252.3337,313.45457l-0.94829,-3.38628l6.74403,-2.09507l0.9483,3.38628z"/><path d="M249.57132,316.679l-0.9483,-3.38629l6.74403,-2.09507l0.9483,3.38629z"/><path d="M255.6797,309.26008l-0.9483,-3.38628l6.74403,-2.09506l0.9483,3.38629z"/><path d="M257.06828,314.21857l-0.9483,-3.38627l6.74403,-2.09507l0.9483,3.38628z"/><path d="M248.14885,311.59959l-0.94829,-3.38628l6.74403,-2.09507l0.9483,3.38628z"/><path d="M255.56683,318.89172l-3.92867,-14.02889l3.59682,-1.11736l3.92867,14.02889z"/></g><g fill="#663f3f" stroke="#000000" stroke-width="0.5" stroke-linecap="butt"><path d="M208.70214,177.55823l3.51876,-3.99509l8.56093,7.54023l-3.51877,3.99509z"/><path d="M202.15962,176.3564l3.51877,-3.9951l8.56092,7.54023l-3.51877,3.9951z"/><path d="M216.99746,178.78369l3.51877,-3.9951l8.56092,7.54022l-3.51877,3.9951z"/><path d="M211.845,184.63362l3.51876,-3.9951l8.56092,7.54023l-3.51877,3.9951z"/><path d="M207.43776,170.36375l3.51876,-3.99509l8.56093,7.54023l-3.51877,3.99509z"/><path d="M204.54183,186.30906l14.57777,-16.55111l4.56581,4.02145l-14.57775,16.55112z"/></g><g fill="#663f3f" stroke="#000000" stroke-width="0.5" stroke-linecap="butt"><path d="M251.7548,183.49982l-2.68518,-4.59699l9.85072,-5.75395l2.68517,4.59699z"/><path d="M248.55562,189.33199l-2.68517,-4.59698l9.8507,-5.75395l2.68518,4.59699z"/><path d="M255.52783,176.01126l-2.68518,-4.59699l9.85071,-5.75395l2.68517,4.59699z"/><path d="M259.45969,182.74257l-2.68518,-4.59699l9.85071,-5.75395l2.68518,4.59699z"/><path d="M244.52787,182.43652l-2.68518,-4.59699l9.85071,-5.75396l2.68517,4.59701z"/><path d="M258.75235,190.20198l-11.1243,-19.04469l5.25372,-3.06877l11.1243,19.0447z"/></g><g fill="#663f3f" stroke="#000000" stroke-width="0.5" stroke-linecap="butt"><path d="M239.96525,248.85355l-1.71949,-3.39756l7.28048,-3.68463l1.7195,3.39756z"/><path d="M237.43042,252.88002l-1.7195,-3.39756l7.28048,-3.68463l1.71949,3.39756z"/><path d="M242.98104,243.66917l-1.7195,-3.39756l7.28048,-3.68463l1.7195,3.39756z"/><path d="M245.49887,248.64417l-1.71949,-3.39756l7.28048,-3.68463l1.7195,3.39756z"/><path d="M234.85118,247.78369l-1.7195,-3.39756l7.28048,-3.68463l1.7195,3.39756z"/><path d="M244.67316,253.93955l-7.12361,-14.0756l3.88293,-1.96512l7.12361,14.0756z"/></g><g fill="#663f3f" stroke="#000000" stroke-width="0.5" stroke-linecap="butt"><path d="M218.40916,242.75262l1.2244,-3.60567l7.72646,2.6237l-1.2244,3.60567z"/><path d="M213.75882,243.75872l1.2244,-3.60567l7.72645,2.62369l-1.2244,3.60568z"/><path d="M224.22329,241.28001l1.22439,-3.60567l7.72646,2.62369l-1.2244,3.60567z"/><path d="M222.43044,246.55972l1.2244,-3.60567l7.72644,2.6237l-1.22439,3.60567z"/><path d="M215.59542,238.3502l1.2244,-3.60567l7.72644,2.6237l-1.2244,3.60567z"/><path d="M218.06932,249.67477l5.07249,-14.93782l4.12078,1.39931l-5.07248,14.93782z"/></g><g fill="#663f3f" stroke="#000000" stroke-width="0.5" stroke-linecap="butt"><path d="M248.31167,92.76804l1.78069,-1.23133l2.63857,3.81579l-1.78069,1.23134z"/><path d="M245.84764,91.65172l1.78069,-1.23133l2.63857,3.81578l-1.78069,1.23133z"/><path d="M251.4651,94.06567l1.78069,-1.23133l2.63857,3.81577l-1.78069,1.23133z"/><path d="M248.85765,95.86869l1.7807,-1.23134l2.63857,3.81578l-1.7807,1.23133z"/><path d="M248.51867,89.80473l1.78069,-1.23133l2.63857,3.81578l-1.78069,1.23133z"/><path d="M245.81112,95.81322l7.37716,-5.10124l1.40723,2.03507l-7.37716,5.10124z"/></g><g fill="#663f3f" stroke="#000000" stroke-width="0.5" stroke-linecap="butt"><path d="M206.45537,89.51134l-1.42905,-1.62631l3.48495,-3.06223l1.42905,1.62631z"/><path d="M205.63157,92.08794l-1.42905,-1.62631l3.48496,-3.06223l1.42905,1.62631z"/><path d="M207.37953,86.22897l-1.42905,-1.62631l3.48496,-3.06223l1.42904,1.62631z"/><path d="M209.47207,88.61036l-1.42904,-1.62631l3.48496,-3.06223l1.42905,1.62631z"/><path d="M203.48801,89.64847l-1.42905,-1.62631l3.48496,-3.06223l1.42905,1.62631z"/><path d="M209.76936,91.64286l-5.92032,-6.73759l1.85864,-1.63319l5.92033,6.73758z"/></g><g fill="#663f3f" stroke="#000000" stroke-width="0.5" stroke-linecap="butt"><path d="M226.96656,154.7408l0.01981,-7.23092l15.49484,0.04247l-0.01982,7.23092z"/><path d="M219.2064,159.36802l0.01981,-7.23092l15.49483,0.04247l-0.01981,7.23092z"/><path d="M236.53869,148.56906l0.0198,-7.23092l15.49484,0.04247l-0.01982,7.23092z"/><path d="M236.50967,159.1572l0.01982,-7.23092l15.49484,0.04247l-0.0198,7.23092z"/><path d="M219.23612,148.52165l0.01981,-7.23092l15.49484,0.04245l-0.01981,7.23093z"/><path d="M230.54734,167.40482l0.0821,-29.95668l8.26391,0.02265l-0.0821,29.95667z"/></g><path d="M274.77314,108.27511c1.61697,19.63571 -13.33615,36.89288 -33.39871,38.545c-20.06257,1.65212 -37.63729,-12.92646 -39.25425,-32.56216c-1.61697,-19.63571 13.33615,-36.89289 33.39871,-38.54501c8.65927,-0.71307 12.45398,23.74795 19.10328,28.1837c8.75638,5.84138 19.23192,-6.78221 20.15099,4.37846z" fill="#c50000" stroke="#000000" stroke-width="0.5" stroke-linecap="butt"/><path d="M219.76184,103.0613c2.55861,-0.2107 4.84155,2.15359 5.09906,5.28079c0.25752,3.1272 -1.60789,5.8331 -4.16651,6.0438c-2.55861,0.2107 -4.84155,-2.15359 -5.09906,-5.28079c-0.25752,-3.1272 1.60789,-5.8331 4.16651,-6.0438z" fill="#000000" stroke="#000000" stroke-width="0.5" stroke-linecap="butt"/><path d="M217.9636,123.26659c-0.25797,-0.01181 -0.24617,-0.26979 -0.24617,-0.26979l0.02261,-0.38829c0.16942,-0.57483 -0.12964,-1.12175 -0.57567,-1.50693c-0.11295,-1.0086 -0.81751,-1.92308 -0.67486,-3.00529c0.15114,-1.1466 1.06406,-1.61538 1.4679,-2.56116c0.24579,-0.57567 -0.20951,-2.21205 -0.26355,-2.86824c0,0 -0.02119,-0.25737 0.23618,-0.27857c0.25737,-0.0212 0.27857,0.23618 0.27857,0.23618c0.06483,0.78723 0.5086,2.37332 0.22817,3.10292c-0.35579,0.92566 -1.28203,1.37168 -1.43654,2.44587c-0.13836,0.96192 0.58203,1.7937 0.62349,2.69214c0.5698,0.47385 0.76818,1.15317 0.61807,1.86564l-0.0084,0.28935c0,0 -0.01182,0.25798 -0.26979,0.24617z" fill="#420000" stroke="none" stroke-width="0.5" stroke-linecap="butt"/><path d="M223.03999,124.09448c-0.25737,0.0212 -0.27857,-0.23618 -0.27857,-0.23618l-0.02544,-0.30885c-0.11844,-1.43827 1.04944,-2.21403 1.66741,-3.51656c2.31761,-2.21741 -1.55693,-5.21104 -1.76789,-7.77291c0,0 -0.02119,-0.25737 0.23618,-0.27857c0.25737,-0.0212 0.27857,0.23618 0.27857,0.23618c0.23842,2.89536 4.15806,5.41018 1.67765,8.10951c-0.55363,1.18357 -1.679,1.94334 -1.57716,3.17997l0.02543,0.30885c0,0 0.02119,0.25737 -0.23618,0.27857z" fill="#000000" stroke="none" stroke-width="0.5" stroke-linecap="butt"/><path d="M220.30474,122.43551c-0.2311,0.11527 -0.34636,-0.11583 -0.34636,-0.11583l-0.01776,-0.03561c-0.08272,-0.16932 -0.16544,-0.33866 -0.24817,-0.50798c-0.12722,-1.40344 -0.53386,-3.34723 0.06591,-4.64756c0.45965,-0.99657 1.61133,-1.96991 0.75062,-3.33377c0,0 -0.13407,-0.22072 0.08667,-0.35478c0.22073,-0.13407 0.35479,0.08667 0.35479,0.08667c0.9383,1.59207 -0.18048,2.67705 -0.73191,3.83645c-0.54483,1.14555 -0.11994,3.0113 -0.02861,4.27402c0.07096,0.1388 0.14194,0.27762 0.21291,0.41641l0.01776,0.03561c0,0 0.11527,0.2311 -0.11583,0.34636z" fill="#04ff00" stroke="none" stroke-width="0.5" stroke-linecap="butt"/><path d="M221.85301,122.89661c-0.0212,-0.25737 0.23618,-0.27857 0.23618,-0.27857l0.19332,0.12732c0.44155,-1.08109 1.27492,-1.83891 1.63269,-2.82932c0.86036,-2.13219 0.33725,-2.77804 -0.9758,-4.43538c-0.61251,-0.77313 -1.92573,-1.10547 -1.45381,-2.41267c0,0 0.09614,-0.23968 0.33583,-0.14355c0.23969,0.09615 0.14354,0.33583 0.14354,0.33583c-0.44969,0.9663 1.95657,2.55828 2.52685,3.25588c0.96806,1.18422 0.39277,2.3626 -0.09724,3.59217c-0.4161,0.96831 -1.20466,1.7388 -1.63269,2.82932l-0.63028,0.19515c0,0 -0.25737,0.02119 -0.27857,-0.23618z" fill="#1c00ff" stroke="none" stroke-width="0.5" stroke-linecap="butt"/><path d="M216.61285,127.34753c-0.8794,-2.4726 0.23783,-5.12794 2.49541,-5.93089c2.25758,-0.80294 4.80063,0.55058 5.68003,3.02318c0.8794,2.47261 -0.23783,5.12794 -2.49541,5.93089c-2.25758,0.80294 -4.80063,-0.55058 -5.68003,-3.02318z" fill="#000000" stroke="#000000" stroke-width="0" stroke-linecap="butt"/><path d="M221.82938,129.53209c0.02809,0.34115 -0.31787,0.64807 -0.77274,0.68553c-0.45486,0.03746 -0.84637,-0.20874 -0.87447,-0.54988c-0.02809,-0.34115 0.31787,-0.64807 0.77274,-0.68553c0.45486,-0.03746 0.84637,0.20874 0.87447,0.54988z" fill="#ff0000" stroke="none" stroke-width="0" stroke-linecap="butt"/><path d="M249.5378,109.29619c-0.8794,-2.4726 0.23783,-5.12795 2.49541,-5.93089c1.13815,-0.4048 1.66089,1.45353 2.69438,2.01198c1.01653,0.54927 2.5496,-0.21486 2.98566,1.0112c0.8794,2.47261 -0.23783,5.12794 -2.49541,5.93089c-2.25758,0.80294 -4.80063,-0.55058 -5.68003,-3.02318z" fill="#000000" stroke="#000000" stroke-width="0.5" stroke-linecap="butt"/><path d="M254.23055,108.60574c0.02809,0.34115 -0.31787,0.64807 -0.77274,0.68553c-0.45486,0.03746 -0.84637,-0.20874 -0.87447,-0.54988c-0.02809,-0.34115 0.31787,-0.64807 0.77274,-0.68553c0.45486,-0.03746 0.84637,0.20874 0.87447,0.54988z" fill="#ff0000" stroke="none" stroke-width="0" stroke-linecap="butt"/><path d="M253.82596,128.35842l-11.1089,9.59749l-14.54227,-0.3651l-3.43929,-9.34801z" fill="#000000" stroke="#3e0000" stroke-width="0.5" stroke-linecap="round"/><path d="M206.48014,79.48557c4.33652,3.90892 2.6769,3.80825 0.45181,6.27674c-2.22509,2.46848 -3.44076,3.57378 -7.77727,-0.33514c-4.33652,-3.90892 -6.91393,-7.70209 -4.68885,-10.17057c2.22509,-2.46848 7.6778,0.32005 12.01431,4.22897z" fill="#ff0000" stroke="#000000" stroke-width="0.5" stroke-linecap="butt"/><path d="M206.38124,81.05854c2.83893,2.55899 1.75244,2.4931 0.29577,4.1091c-1.45666,1.616 -2.25252,2.3396 -5.09145,-0.2194c-2.83893,-2.55899 -4.52624,-5.04222 -3.06957,-6.65823c1.45666,-1.616 5.02632,0.20953 7.86526,2.76853z" fill="#d00000" stroke="#000000" stroke-width="0.5" stroke-linecap="butt"/><path d="M263.41815,97.27743c-0.25276,0.05297 -0.30573,-0.19979 -0.30573,-0.19979l-0.00906,-0.04328c-0.11049,-0.79029 -1.18558,-2.04448 -1.84217,-2.75056c-1.17439,-1.86386 -2.47967,-2.01394 -4.5866,-1.60719c-1.07827,0.20817 -2.94981,1.72573 -3.23506,0.24209c0,0 -0.02119,-0.25737 0.23618,-0.27857c0.25737,-0.0212 0.27857,0.23618 0.27857,0.23618c-0.07308,0.51625 1.9581,-0.57706 2.62181,-0.70672c2.25956,-0.44141 3.83024,-0.22736 5.09479,1.79969c0.78386,0.84231 1.69047,1.988 1.93799,2.95915l0.00906,0.04326c0,0 0.05297,0.25277 -0.19979,0.30573z" fill="#04ff00" stroke="none" stroke-width="0.5" stroke-linecap="butt"/><path d="M263.45409,99.29321c-0.18833,0.1767 -0.36504,-0.01163 -0.36504,-0.01163l-0.36443,-0.42788c-0.25373,-1.02235 -1.61161,-1.6741 -1.82217,-2.9045c-0.81726,-0.86438 -1.83474,-3.58782 -2.97261,-3.93825c-0.98787,-0.30424 -2.96558,0.26394 -4.01793,0.35059c0,0 -0.25737,0.02119 -0.27857,-0.23618c-0.0212,-0.25737 0.23618,-0.27857 0.23618,-0.27857c1.11428,-0.09176 3.16568,-0.67402 4.21814,-0.32763c1.32829,0.43718 2.37698,3.17987 3.27741,4.20033c0.25168,1.27268 1.48368,1.88652 1.85415,2.98542l0.24648,0.22325c0,0 0.1767,0.18832 -0.01163,0.36503z" fill="#1c00ff" stroke="none" stroke-width="0.5" stroke-linecap="butt"/><path d="M264.11311,99.81352c0.02111,0.25738 -0.23629,0.27849 -0.23629,0.27849l-0.28948,0.02374c-2.94878,0.23256 -3.58788,-2.10219 -4.46675,-4.32402c-0.18042,-2.05914 -1.65004,-5.47318 -4.47602,-4.23627c-0.46068,0.20164 -0.74876,0.78331 -1.24739,0.84851c0,0 -0.25737,0.02119 -0.27857,-0.23618c-0.0212,-0.25737 0.23618,-0.27857 0.23618,-0.27857c0.66775,-0.00326 0.82024,-0.79342 1.65949,-0.90828c2.99953,-0.4105 4.41246,2.11944 4.60907,4.69245c0.80308,1.98798 1.25371,4.13899 3.9233,3.92749l0.28798,-0.02361c0,0 0.25738,-0.02111 0.27848,0.23629z" fill="#000000" stroke="none" stroke-width="0.5" stroke-linecap="butt"/><path d="M258.06561,100.54544c-0.22339,0.12957 -0.35295,-0.09382 -0.35295,-0.09382l-0.10303,-0.17763c-1.47722,-2.54919 4.25579,-5.51253 1.95603,-8.18834c-0.74562,-2.01504 -2.65407,-2.05611 -4.74211,-1.33416c-0.65471,0.22637 -2.11988,0.58251 -1.46303,1.53955c0,0 0.13406,0.22073 -0.08667,0.35479c-0.22073,0.13406 -0.35479,-0.08667 -0.35479,-0.08667c-0.77678,-1.39161 0.66577,-1.94053 1.73885,-2.29689c2.23318,-0.74166 4.55291,-0.70827 5.35574,1.56634c2.39585,2.96101 -3.31608,5.84573 -1.95726,8.18623l0.10303,0.17763c0,0 0.12957,0.22339 -0.09382,0.35296z" fill="#420000" stroke="none" stroke-width="0.5" stroke-linecap="butt"/><path d="M250.64807,190.93747c-1.23259,34.84837 -6.61645,56.89384 -18.87466,56.46027c-12.25821,-0.43357 -14.7995,-27.70696 -13.56691,-62.55532c1.23259,-34.84837 6.25208,-33.44863 18.51031,-33.01507c12.25821,0.43357 15.16386,4.26176 13.93127,39.11012z" fill="#c50000" stroke="#000000" stroke-width="2" stroke-linecap="butt"/><path d="M243.73827,214.67036c-0.48006,17.25113 -7.76906,20.19901 -10.0502,20.13553c-2.28114,-0.06348 -10.43909,-7.32926 -9.95903,-24.5804c0.48006,-17.25113 7.6419,-21.74327 9.92304,-21.67979c2.28114,0.06348 10.56625,8.87351 10.08618,26.12464z" fill="#8b0000" stroke="none" stroke-width="0" stroke-linecap="butt"/><path d="M231.43256,175.06466c-0.08194,-0.99502 0.65826,-1.86806 1.65328,-1.95c0.99502,-0.08194 1.86806,0.65826 1.95,1.65328c0.08194,0.99502 -0.65826,1.86806 -1.65328,1.95c-0.99502,0.08194 -1.86806,-0.65826 -1.95,-1.65328z" fill="#000000" stroke="none" stroke-width="0.5" stroke-linecap="butt"/><path d="M232.21383,165.67192c-0.08194,-0.99502 0.65826,-1.86807 1.65328,-1.95c0.99502,-0.08194 1.86806,0.65826 1.95,1.65328c0.08194,0.99502 -0.65826,1.86806 -1.65328,1.95c-0.99502,0.08194 -1.86806,-0.65825 -1.95,-1.65328z" fill="#000000" stroke="none" stroke-width="0.5" stroke-linecap="butt"/><path d="M209.13982,207.82718c-5.82409,16.89444 -14.98728,29.05885 -20.46656,27.16995c-5.47928,-1.88889 -5.19975,-17.11579 0.62434,-34.01024c5.82409,-16.89444 14.98728,-29.05885 20.46656,-27.16995c5.47928,1.88889 5.19975,17.1158 -0.62434,34.01024z" fill="#c50000" stroke="#000000" stroke-width="2" stroke-linecap="butt"/><path d="M278.4095,207.907c2.91958,17.63003 0.65114,32.68962 -5.0667,33.63652c-5.71786,0.9469 -12.71988,-12.57748 -15.63947,-30.20751c-2.91958,-17.63003 -0.65114,-32.68961 5.0667,-33.6365c5.71786,-0.9469 12.71988,12.57746 15.63946,30.2075z" fill="#c50000" stroke="#000000" stroke-width="2" stroke-linecap="butt"/><path d="M258.61235,275.87259c2.91958,17.63003 0.65115,32.68962 -5.0667,33.63652c-5.71786,0.9469 -12.71988,-12.57746 -15.63947,-30.2075c-2.91958,-17.63003 -0.65114,-32.68961 5.0667,-33.63651c5.71786,-0.9469 12.71988,12.57746 15.63947,30.20751z" fill="#c50000" stroke="#000000" stroke-width="2" stroke-linecap="butt"/><path d="M225.58262,278.2782c-0.93997,17.84542 -6.39382,32.06484 -12.18151,31.75999c-5.78771,-0.30485 -9.71757,-15.01855 -8.77761,-32.86395c0.93997,-17.84542 6.39382,-32.06485 12.18151,-31.75999c5.78771,0.30485 9.71757,15.01855 8.77761,32.86395z" fill="#c50000" stroke="#000000" stroke-width="2" stroke-linecap="butt"/><path d="M220.93513,321.34856c0.2107,2.55861 -2.04208,4.31411 -8.15433,4.81745c-6.11225,0.50333 -7.63474,-1.45952 -7.84544,-4.01814c-0.2107,-2.55861 0.97019,-4.74409 7.08244,-5.24742c6.11225,-0.50333 8.70663,1.8895 8.91733,4.44812z" fill="#c50000" stroke="#000000" stroke-width="2" stroke-linecap="butt"/><path d="M266.87542,319.1202c0.2107,2.55861 -1.8402,2.57001 -7.95246,3.07335c-6.11225,0.50333 -5.79172,-0.05656 -6.00242,-2.61518c-0.2107,-2.55861 -1.07471,-4.40296 5.03755,-4.90629c6.11225,-0.50333 8.70663,1.8895 8.91733,4.44812z" fill="#c50000" stroke="#000000" stroke-width="2" stroke-linecap="butt"/><path d="M211.18944,325.35802c-0.25581,-0.03541 -0.22039,-0.29123 -0.22039,-0.29123l0.06629,-0.3525c1.37729,-2.35717 -0.75836,-4.42134 -2.10291,-6.00987c0,0 -0.16684,-0.19713 0.03027,-0.36397c0.19713,-0.16684 0.36395,0.03028 0.36395,0.03028c1.54605,1.82657 3.56844,3.9446 2.1605,6.59383l-0.00649,0.17307c0,0 -0.03541,0.25581 -0.29122,0.22038z" fill="#000000" stroke="none" stroke-width="0.5" stroke-linecap="butt"/><path d="M215.53565,325.00633c-0.25737,0.0212 -0.27857,-0.23618 -0.27857,-0.23618l0.00265,-0.28662c0.04809,-0.12278 0.09619,-0.24554 0.14428,-0.36832c0.79586,-3.25567 -1.7033,-3.76923 -1.9556,-6.62428c0,0 -0.02119,-0.25737 0.23618,-0.27857c0.25737,-0.0212 0.27857,0.23618 0.27857,0.23618c0.09746,1.2946 1.44124,1.86763 1.78684,2.90279c0.53613,1.60585 0.55094,2.26269 0.14655,3.91935c-0.05188,0.13351 -0.10376,0.26703 -0.15564,0.40056l0.03092,0.05655c0,0 0.02119,0.25737 -0.23618,0.27857z" fill="#000000" stroke="none" stroke-width="0.5" stroke-linecap="butt"/><path d="M259.80885,320.31071c-0.25087,-0.06127 -0.1896,-0.31215 -0.1896,-0.31215l0.00664,-0.02714c0.31816,-1.29563 2.66738,-3.48006 2.05833,-4.43654c0,0 -0.13406,-0.22072 0.08667,-0.35479c0.22073,-0.13407 0.35479,0.08667 0.35479,0.08667c0.8579,1.46331 -1.60345,3.20272 -1.99804,4.82722l-0.00664,0.02714c0,0 -0.06129,0.25087 -0.31215,0.1896z" fill="#000000" stroke="none" stroke-width="0.5" stroke-linecap="butt"/><path d="M214.28061,260.59504c0.16701,-0.19697 0.36399,-0.02998 0.36399,-0.02998l0.23944,0.22037c0.54625,0.93175 1.33729,1.72668 1.8144,2.86168c0.26219,2.96695 4.46893,3.94571 2.81818,7.75559c-0.85634,0.91472 -3.013,1.5977 -3.98795,0.48017c-0.50743,-0.58164 -0.47766,-1.6585 -1.16691,-2.16534c-0.96298,-0.70812 -1.97925,-0.79647 -2.82289,-1.87717c-0.54723,-1.82389 -0.04603,-7.34211 2.87082,-6.80033c0,0 0.01016,0.00249 0.02592,0.0085l-0.12501,-0.08954c0,0 -0.19698,-0.16701 -0.02997,-0.36398z" fill="#000000" stroke="none" stroke-width="0.5" stroke-linecap="butt"/><path d="M223.27826,281.4643l0.12869,-0.0106c1.11389,-0.06738 1.24587,0.96926 1.31715,1.83495c0.16858,2.04717 -0.4743,3.68042 -0.30585,5.72588c0.17294,2.10013 0.53207,4.08864 -0.43944,5.81197c0.06525,1.17957 -3.00704,6.00039 -4.25212,4.5369c0,0 -0.0355,-0.05844 -0.03989,-0.13343l-0.20211,-0.08782c-0.29001,-0.47751 -0.7942,-0.61561 -1.1565,-1.01126c-0.98017,-1.0704 -0.46853,-3.11623 -0.57298,-4.38473c-0.06551,-1.12954 -0.96321,-1.65266 -1.39946,-2.54957c-0.77099,-1.58514 0.76097,-2.30403 1.28268,-3.43652c0.34418,-0.74713 -0.71614,-1.53382 -0.687,-2.30336c0.26713,-1.48738 3.13276,-4.06822 4.6978,-4.20996c0.39385,-0.03568 0.90924,0.20736 1.39558,0.41755c0.03102,-0.18332 0.23346,-0.19998 0.23346,-0.19998z" fill="#000000" stroke="none" stroke-width="0.5" stroke-linecap="butt"/><path d="M248.99952,192.62382c-0.1786,-0.09892 -0.13779,-0.26084 -0.11286,-0.32432c-0.64558,-0.22523 -1.2874,-0.52398 -1.47794,-0.32856c-0.18323,0.18792 0.36674,0.63643 -0.20606,0.99031c0.3712,2.51083 -0.35436,5.77361 -1.57279,8.11293c0.07976,0.09563 0.15778,0.21471 0.23616,0.36222l-0.1122,0.10284l0.05173,0.04385l-0.31491,0.37142c-0.04274,0.05041 -0.10471,0.08453 -0.17578,0.09038c-0.14214,0.0117 -0.26687,-0.09403 -0.27857,-0.23618l-0.04239,-0.51476l0.13608,-0.0112c0.00048,-0.01062 0.00103,-0.02124 0.00165,-0.03182c-0.32577,-0.12686 -0.74501,0.00666 -1.08852,0.03495c-1.21087,0.09971 -3.84332,1.02999 -4.92872,0.53992c-1.18988,-0.53724 -2.78528,-2.98821 -2.89553,-4.30069c-0.18907,-2.2959 0.25341,-4.01124 2.06894,-5.56376c0.97379,-0.83273 2.9929,-0.67211 3.5308,-2.03958c-0.17426,-1.78512 -3.10726,-8.36445 1.33699,-6.69065c0.09994,-0.04362 0.20756,-0.00047 0.20756,-0.00047c0.615,0.26198 1.33726,-0.22516 1.92269,0.02577c0.65295,0.27987 0.78817,1.9385 1.34641,2.11588c1.2024,0.38206 1.57861,-2.30687 2.6732,-0.61488c0.47102,0.80342 0.44109,1.5338 1.15947,2.08291l0.1045,0.34738c0,0 0.01707,0.2074 -0.16559,0.26517c0.46729,1.26317 0.7239,2.59762 -0.22191,3.81301c-0.18377,0.33525 -0.43922,0.58026 -0.6255,0.88788c0.14126,0.03633 0.23518,0.03069 0.25786,-0.0457l0.12484,-0.32014c0,0 0.09615,-0.23969 0.33583,-0.14355c0.23969,0.09615 0.14353,0.33583 0.14353,0.33583l-0.16181,0.39445c-0.19373,0.17254 -0.51124,0.16201 -0.86673,0.07725l-0.03938,0.07111c0,0 -0.12514,0.22591 -0.35105,0.10077z" fill="#000000" stroke="none" stroke-width="0.5" stroke-linecap="butt"/><path d="M198.2254,184.39478c0.14311,0.0574 0.1665,0.16597 0.16211,0.24416c0.9961,-0.13697 2.22356,-0.33677 2.99191,0.17116c1.13002,0.74697 0.63309,1.947 1.03227,2.98603c0.19904,0.51805 1.01706,0.97299 1.36957,1.40694c1.71095,1.57781 0.8272,2.89232 -1.24946,3.06333c-0.35702,0.0294 -1.62498,0.30385 -1.80041,-0.22298c-0.04299,-0.12912 0.05369,-0.31575 0.22487,-0.52498c-1.21283,0.46197 -2.58906,0.70951 -3.09668,0.39281c-0.46424,-0.28964 -0.62167,-1.5805 -0.81433,-1.65183c-0.30172,-0.11171 -0.97299,0.46454 -1.18335,0.59035c-0.14438,0.02954 -0.28876,0.05909 -0.43315,0.08864c-0.04537,0.10375 -0.16074,0.14289 -0.16074,0.14289c-0.05594,0.01866 -0.10921,0.03503 -0.15992,0.04917c-0.02375,0.01135 -0.0699,0.0296 -0.12365,0.03123c-2.13384,0.47856 1.01467,-3.60872 1.53713,-4.55196c0.33864,-0.5996 0.56126,-1.15865 1.00481,-1.65022c0.00152,-0.22749 0.23741,-0.24691 0.23741,-0.24691c0.00445,-0.00036 0.0089,-0.00074 0.01336,-0.00112c0.03849,-0.03398 0.07846,-0.06756 0.12003,-0.10076l-0.00762,-0.0724c0,0 0.09614,-0.23968 0.33583,-0.14355z" fill="#000000" stroke="none" stroke-width="0.5" stroke-linecap="butt"/><path d="M210.37035,174.90265c0.14019,-0.01154 0.21031,0.05955 0.2451,0.1267c0.03413,-0.00111 0.07264,0.00532 0.11581,0.02263c0.18212,0.07305 0.17035,0.22897 0.15419,0.29965c1.32488,1.39542 1.09978,3.16552 1.81776,4.84535c0.12197,1.30362 1.12935,3.26013 0.3397,4.40716c0.0063,0.13798 -0.0976,0.25729 -0.23631,0.26897c-0.0267,0.02415 -0.05457,0.04775 -0.08365,0.07081c0,0 -0.20239,0.16041 -0.36279,-0.04198c-0.00053,-0.00068 -0.00107,-0.00134 -0.00159,-0.00201c-0.03208,0.01142 -0.05579,0.01444 -0.05579,0.01444l-0.12838,0.00639c-2.01417,0.84668 -4.90255,-0.1081 -4.30685,-2.59979c0.32122,-1.27602 -0.4137,-2.64865 -0.16452,-3.91066c0.21897,-1.10897 1.92211,-1.85982 2.55881,-2.94181c-0.00999,-0.00857 -0.02006,-0.01715 -0.03021,-0.0257l-0.09743,-0.26158c0,0 -0.02119,-0.25737 0.23618,-0.27857z" fill="#000000" stroke="none" stroke-width="0.5" stroke-linecap="butt"/><path d="M269.2262,202.27919l0.20526,0.15476c1.3953,0.81851 3.16629,1.07131 3.91607,2.87964c0.5311,1.62174 -0.64305,5.66852 -1.79335,6.9567c-0.61943,0.69369 -2.61758,0.4183 -3.4534,0.40366c-1.72168,-0.05803 -2.11567,-2.54161 -3.45542,-3.47959c-0.97906,-0.68546 -3.2087,-0.87768 -4.40746,-1.42141c-1.45526,-1.51911 -3.88922,-5.28349 -1.74104,-7.4384c0.38828,-0.38951 2.08205,-0.13233 2.59987,-0.13225c1.97467,0.00028 6.89454,0.04704 8.12945,2.07687z" fill="#000000" stroke="none" stroke-width="0.5" stroke-linecap="butt"/><path d="M275.87015,238.23278c0.25087,0.06129 0.1896,0.31215 0.1896,0.31215l-0.01485,0.05808c0.07745,0.0159 0.18483,0.06739 0.1982,0.22977c0.0212,0.25737 -0.23618,0.27857 -0.23618,0.27857l-0.16107,-0.04254c-0.03611,0.05832 -0.07222,0.11665 -0.10835,0.17498c-1.43252,2.56485 -3.42884,2.69623 -5.82931,1.34052c-2.41611,-0.63017 -3.83068,-3.77216 -4.92898,-5.79456c-0.43973,-1.6845 -1.9317,-3.22133 -1.46541,-5.22223c0,0 0.06129,-0.25087 0.31215,-0.1896c0.03118,0.00763 0.05753,0.01817 0.07978,0.0308c0.04033,-0.01457 0.07212,-0.0172 0.07212,-0.0172c0.41613,-0.03427 1.9255,-0.37128 2.24721,-0.10917c0.51186,0.41707 0.368,2.12946 1.19173,2.4559c0.49498,0.19616 1.32974,-0.39964 1.75804,-0.35518c0.82509,0.08565 1.11113,0.95867 1.37363,1.57337c0.97005,2.81565 3.53393,3.19027 5.14832,5.28794c0.04396,-0.02093 0.10071,-0.02937 0.17335,-0.01162zM276.03488,238.73407l-0.01564,-0.03057l-0.00096,0.00379c0.00556,0.0089 0.01109,0.01783 0.01662,0.02678z" fill="#000000" stroke="none" stroke-width="0.5" stroke-linecap="butt"/><path d="M195.56134,208.31526c0.00507,-0.00508 0.01043,-0.01016 0.01613,-0.0152c0.19318,-0.17138 0.36457,0.02181 0.36457,0.02181c1.96669,2.21689 2.24232,4.72558 4.56115,6.76116c0.13657,1.19302 -0.7896,5.16157 -2.93703,3.10993c-0.66479,-0.63514 -1.15397,-3.44093 -1.2676,-4.15749c-0.63209,-1.10445 -1.40957,-2.6095 -2.18085,-3.72632c-0.16898,-0.24469 -0.90164,-0.8287 -0.80793,-1.17874c0.16722,-0.62452 1.37282,-0.36909 1.80439,-0.6439l0.09453,-0.132c0,0 0.16063,-0.18945 0.35263,-0.03924z" fill="#000000" stroke="none" stroke-width="0.5" stroke-linecap="butt"/><path d="M200.58098,86.79495c-0.20239,0.1604 -0.36279,-0.04199 -0.36279,-0.04199l-0.19277,-0.24325c-0.45731,-0.58228 -1.09811,-1.02957 -1.59523,-1.59019c-1.09597,-1.39419 -3.93126,-2.92366 -4.15128,-4.73113c0,0 -0.01619,-0.19662 0.15157,-0.26031c0.00019,-0.0005 0.00039,-0.00096 0.00058,-0.00145c0.09615,-0.23968 0.33583,-0.14354 0.33583,-0.14354c2.15971,0.91998 6.2476,0.31536 6.47554,3.55852c-0.4332,1.10337 -0.56348,1.36295 -0.4744,2.63029l-0.159,0.41494c0,0 -0.00267,0.00665 -0.00824,0.01732l0.0222,0.02801c0,0 0.16041,0.2024 -0.04199,0.36279z" fill="#000000" stroke="none" stroke-width="0.5" stroke-linecap="butt"/><path d="M262.7649,109.64549c0.19698,0.16701 0.02998,0.364 0.02998,0.364l-0.09706,-0.00249c-0.00277,0.02232 0.16539,0.06118 0.45103,0.11117c-0.54573,-0.59667 -0.75312,-1.25137 0.23146,-1.95388c0,0 0.22073,-0.13405 0.35479,0.08667c0.13407,0.22073 -0.08667,0.35478 -0.08667,0.35478c-0.28744,0.11892 -0.22725,1.06865 -0.05233,1.58544c1.66486,0.25807 5.12978,0.68435 5.8903,0.82583c0.59449,0.31104 2.20623,0.88433 2.24567,1.72651c0.02549,0.54407 -1.4337,3.31459 -1.99955,3.50418c-0.7273,0.24366 -3.03841,-0.83087 -3.79213,-1.09423c-0.39043,-0.13811 -1.27417,-0.46236 -1.48208,-0.8605c-0.45731,-0.87578 0.73461,-1.32119 0.65763,-2.2111c-0.03012,-0.34817 -0.53721,-0.742 -1.07995,-1.17621c-1.01445,-0.19166 -1.77919,-0.45927 -1.85293,-0.85627l0.21785,-0.37392c0,0 0.16701,-0.19698 0.36399,-0.02998z" fill="#000000" stroke="none" stroke-width="0.5" stroke-linecap="butt"/><path d="M211.19933,134.75001c-0.73935,-0.62685 -1.60704,-1.20591 -2.19767,-1.96139c-0.96945,-2.22219 -2.55114,-3.85408 -3.78086,-5.86327c-0.29632,-0.6935 -2.08597,-3.29267 -1.79339,-4.49641c-0.01747,-0.1049 0.04309,-0.18075 0.08704,-0.22064c0.09735,-0.16693 0.25889,-0.28917 0.50107,-0.35155c0,0 0.05874,-0.00485 0.12243,0.01817c0.43269,-0.15247 0.80133,-0.18629 1.29161,-0.21383c1.93644,1.03548 9.21405,1.9986 6.31383,5.76181c-0.40031,1.68881 0.87047,1.50399 0.88028,2.48804c0.01551,1.55622 0.12352,3.81686 -0.97279,5.14359c0,0 -0.16701,0.19698 -0.36398,0.02997c-0.14079,-0.11936 -0.09565,-0.25403 -0.05842,-0.32117z" fill="#000000" stroke="none" stroke-width="0.5" stroke-linecap="butt"/><path d="M222.51832,233.13952c-0.16701,0.19697 -0.36398,0.02997 -0.36398,0.02997l-0.05098,-0.04981c-0.00293,-0.00162 -0.00584,-0.00324 -0.00875,-0.00486c-0.11503,-0.00347 -0.1752,-0.06798 -0.20643,-0.12885c-1.28371,-0.89549 -0.68841,-2.45296 -1.57635,-3.57336c-0.25773,-2.22306 -0.80607,-4.40924 -0.9972,-6.73014c-0.07162,-0.8697 -0.58246,-3.49719 -0.18681,-4.73738c-0.00864,0.00535 -0.01735,0.0108 -0.0261,0.01637c0,0 -0.22073,0.13407 -0.35479,-0.08667c-0.13406,-0.22072 0.08667,-0.35479 0.08667,-0.35479c2.78886,-1.63504 2.03674,3.00618 2.44877,4.2893c0.33342,1.0383 0.98213,1.35354 1.08162,2.56168c0.07303,1.4528 -1.78211,2.46629 -1.05347,4.15076c0.51389,1.188 3.068,3.05135 1.00393,4.1087l0.00488,0.01799c0.01128,0.00654 0.0227,0.01301 0.03428,0.01942l0.13474,0.10765c0,0 0.19698,0.16701 0.02998,0.36399z" fill="#000000" stroke="none" stroke-width="0.5" stroke-linecap="butt"/><path d="M224.83469,183.03073l0.29947,-0.18189c0.24331,-0.14776 0.48412,-0.2997 0.72353,-0.45372c2.13352,-1.68959 8.48657,-1.09504 6.85441,2.8359c-3.09397,1.87913 1.60635,5.15003 -1.82287,7.23278c-1.55345,3.87264 -6.04998,2.54554 -6.4154,-1.20966c-0.05495,-0.66721 -0.48599,-2.28254 -0.20156,-2.87819c0.30184,-0.63212 1.0714,-1.10919 1.19475,-1.92733c0.16881,-1.11947 -0.85809,-1.96835 -0.95683,-3.14389c0,0 -0.02119,-0.25737 0.23618,-0.27857c0.03322,-0.00273 0.0625,-0.00082 0.0883,0.00456z" fill="#000000" stroke="none" stroke-width="0.5" stroke-linecap="butt"/><path d="M213.66045,268.50988l1.50796,-6.86136" fill="none" stroke="#663f3f" stroke-width="2" stroke-linecap="round"/><path d="M217.44845,265.73628l-1.94549,4.69485" fill="none" stroke="#663f3f" stroke-width="2" stroke-linecap="round"/><path d="M214.57643,263.8998c-0.05852,-0.71073 0.47019,-1.33433 1.18091,-1.39286c0.71073,-0.05852 1.33433,0.47019 1.39286,1.18092c0.02073,0.25172 -0.03221,0.49249 -0.14079,0.70112c0.17505,0.41164 0.08365,0.84193 0.08365,0.84193c-0.2801,1.31867 -0.56018,2.63736 -0.84028,3.95603l-0.10561,0.4348c0,0 -0.30641,1.25435 -1.56077,0.94794c-1.25436,-0.30641 -0.94795,-1.56077 -0.94795,-1.56077l0.08819,-0.35853c0.2801,-1.31867 0.56018,-2.63736 0.84028,-3.95603c0,0 0.03297,-0.15522 0.13021,-0.34529c-0.06542,-0.13734 -0.10749,-0.28865 -0.12072,-0.44926z" fill="#663f3f" stroke="none" stroke-width="0.5" stroke-linecap="butt"/><path d="M224.75323,184.43468c0.48073,-1.19841 1.67914,-0.71769 1.67914,-0.71769l0.79922,0.5039c0.0586,0.09312 0.12978,0.182 0.2105,0.26406c0.252,-0.90327 0.58501,-1.81233 1.00305,-2.73619c0,0 0.53233,-1.17641 1.70874,-0.64407c1.17641,0.53233 0.64407,1.70874 0.64407,1.70874c-0.51412,1.13616 -0.88159,2.2396 -1.10952,3.33767c0.00358,0.08283 0.00041,0.17145 -0.01055,0.26629c-0.02033,0.1756 -0.06191,0.32437 -0.11854,0.45037c-0.33362,2.18471 -0.12009,4.37168 0.58413,6.77678l0.05637,0.37901c0,0 0.10597,1.28689 -1.18091,1.39286c-1.28689,0.10597 -1.39286,-1.18092 -1.39286,-1.18092l0.03517,0.12164c-0.18639,-0.66009 -0.34233,-1.30815 -0.46657,-1.94694c-0.74648,0.0464 -1.50985,-0.06158 -2.1887,-0.32451l-0.51185,-0.14659c0,0 -1.2342,-0.37955 -0.85465,-1.61374c0.37955,-1.2342 1.61374,-0.85466 1.61374,-0.85466l0.81743,0.26219c0.22815,0.13897 0.51635,0.20403 0.80096,0.19653c-0.05897,-0.94461 -0.04041,-1.87618 0.06009,-2.80456c-0.60374,-0.29079 -1.15912,-0.69627 -1.60934,-1.17404l0.14859,0.16306c0,0 -1.19841,-0.48073 -0.71769,-1.67914z" fill="#663f3f" stroke="none" stroke-width="0.5" stroke-linecap="butt"/><path d="M243.74717,201.50394c-0.72116,1.07109 -1.79224,0.34993 -1.79224,0.34993l-0.9306,-0.67595c-0.52441,-0.59221 -1.07708,-1.1597 -1.64529,-1.71035c-0.03407,0.02749 -0.06815,0.0548 -0.10224,0.08192l-1.5564,0.57403c0,0 -1.23325,0.38262 -1.61587,-0.85064c-0.38262,-1.23325 0.85064,-1.61587 0.85064,-1.61587l0.71762,-0.13147c2.44859,-1.93219 5.02363,-5.14326 5.35875,-8.39823c0.17167,-1.66738 -0.66136,-3.25763 -0.81109,-4.89086c0,0 -0.10597,-1.28689 1.18091,-1.39286c1.28689,-0.10597 1.39286,1.18091 1.39286,1.18091c0.07234,1.03534 0.3951,2.02054 0.61862,3.02761c0.10298,0.08174 0.16107,0.14721 0.16107,0.14721c0.81476,0.93751 1.30175,1.37157 2.52406,1.61974l1.09889,-0.10422c0,0 1.28689,-0.10597 1.39286,1.18091c0.10597,1.28689 -1.18091,1.39286 -1.18091,1.39286l-1.47489,0.10772c-1.0482,-0.22777 -1.81895,-0.49643 -2.51412,-0.92436c-0.27084,1.2241 -0.75838,2.42177 -1.39205,3.55457c0.00931,0.02621 0.01361,0.0412 0.01361,0.0412c0.3543,1.35064 0.59669,1.61182 1.83719,2.26381l0.63434,0.02796c0,0 1.27417,0.20931 1.06486,1.48347c-0.20931,1.27417 -1.48347,1.06486 -1.48347,1.06486l-1.46706,-0.31723c-1.12848,-0.64768 -1.81769,-1.21313 -2.32342,-2.04024c-0.32846,0.40396 -0.67153,0.79265 -1.02465,1.16359c0.57789,0.56494 1.14037,1.1462 1.67702,1.75011l0.44106,0.24758c0,0 1.0711,0.72116 0.34993,1.79224z" fill="#663f3f" stroke="none" stroke-width="0.5" stroke-linecap="butt"/><path d="M213.30673,183.9744c0.05852,0.71073 -0.47018,1.33433 -1.18091,1.39286c-0.25184,0.02074 -0.49274,-0.03226 -0.70144,-0.14095c-0.72335,0.43498 -1.58963,0.58816 -2.53958,0.22889c-0.49281,-0.18638 -0.72863,-0.72767 -1.01328,-1.20149c-0.17007,-0.04696 -0.35,-0.13962 -0.53524,-0.29668c-0.98489,-0.83503 -0.14987,-1.81993 -0.14987,-1.81993l0.65519,-0.76835c0.82808,-1.11083 1.81134,-1.93929 2.53258,-3.11267c0,0 0.68735,-1.09309 1.78045,-0.40573c1.09309,0.68735 0.40574,1.78045 0.40574,1.78045c-0.06433,0.10056 -0.13004,0.19868 -0.1969,0.29472c1.45701,0.00918 1.52141,1.83609 0.72137,3.42434c0.12323,0.17929 0.20277,0.3922 0.2219,0.62456z" fill="#663f3f" stroke="none" stroke-width="0.5" stroke-linecap="butt"/><path d="M203.13272,192.58589c-0.11816,0.00973 -0.23393,0.00323 -0.34509,-0.01765l-0.09581,0.12975c0,0 -0.76767,1.03826 -1.80593,0.2706c-0.13942,-0.10308 -0.24628,-0.21104 -0.3268,-0.32072c-0.05332,-0.00775 -0.10855,-0.01848 -0.16575,-0.03245c-0.29908,-0.07306 -0.50941,-0.2 -0.65634,-0.35098c-0.2636,0.15478 -0.62349,0.22489 -1.09402,0.03614c-1.19841,-0.48073 -0.71769,-1.67914 -0.71769,-1.67914l0.17637,-0.41291c0.68227,-1.22633 1.49298,-2.31972 2.16955,-3.54725c0,0 0.62567,-1.12953 1.7552,-0.50387c0.70838,0.39238 0.72644,0.98294 0.6414,1.36878c0.05339,0.01797 0.10823,0.03955 0.16455,0.06503c0.5136,0.23241 0.7015,0.58757 0.7502,0.91401c0.08439,0.03406 0.17168,0.07861 0.26173,0.13523c0.52448,0.3298 0.63907,0.75301 0.61636,1.10407c0.25325,0.21377 0.42468,0.52438 0.45403,0.88076c0.04581,0.55625 -0.2681,1.05914 -0.74746,1.27953c-0.19959,0.37489 -0.57979,0.64363 -1.0345,0.68107z" fill="#663f3f" stroke="none" stroke-width="0.5" stroke-linecap="butt"/><path d="M195.97114,214.92175c-1.19841,-0.48073 -0.71769,-1.67914 -0.71769,-1.67914l0.21282,-0.4746c0.22912,-0.36436 0.45824,-0.72873 0.68735,-1.09309c0,0 0.68735,-1.09309 1.78045,-0.40574c1.09309,0.68735 0.40573,1.78045 0.40573,1.78045c-0.22912,0.36436 -0.45823,0.72873 -0.68735,1.09309l-0.00217,0.06136c0,0 -0.48073,1.19841 -1.67914,0.71769z" fill="#663f3f" stroke="none" stroke-width="0.5" stroke-linecap="butt"/><path d="M267.43857,200.1501c1.10363,-0.6703 1.77393,0.43334 1.77393,0.43334l0.12397,0.30186c0.9668,-0.06277 1.25648,0.94629 1.25648,0.94629c0.84225,2.98278 0.76068,6.72877 0.4185,9.80212l-0.48305,1.47794c0,0 -0.42582,1.219 -1.64483,0.79319c-0.46655,-0.16297 -0.69216,-0.44213 -0.79293,-0.72468c-0.16043,0.09291 -0.34347,0.15255 -0.54051,0.16878c-0.49304,0.0406 -0.94416,-0.2014 -1.19378,-0.59073l-0.72448,-1.08377l0.00706,-0.00472l-0.0224,-0.01877c-0.33688,-0.57965 -0.58728,-1.19612 -0.76241,-1.83631c-0.11823,0.02039 -0.25039,0.02646 -0.39809,0.01417c-1.28679,-0.10704 -1.17976,-1.39382 -1.17976,-1.39382l0.06502,-0.56972c-0.21314,-2.58833 -0.61187,-4.07496 -1.63089,-6.4523c0,0 -0.50748,-1.18734 0.67985,-1.69482c1.18734,-0.50748 1.69482,0.67985 1.69482,0.67985c0.0095,0.02231 0.01897,0.04457 0.02839,0.06678c0.66234,-0.54429 1.46555,-0.0392 1.46555,-0.0392c0.05306,0.03355 0.10613,0.06711 0.15919,0.10066c0.19881,-0.16951 0.45077,-0.28045 0.73103,-0.30353c0.24833,-0.02045 0.48602,0.03079 0.6927,0.13644c0.07659,-0.0729 0.16802,-0.14307 0.27664,-0.20905zM265.16739,203.21446c-0.01761,-0.01102 -0.03519,-0.02203 -0.0528,-0.03305c0.0105,0.03499 0.02088,0.06995 0.03116,0.1049c0.00717,-0.02398 0.01438,-0.04794 0.02164,-0.07186z" fill="#663f3f" stroke="none" stroke-width="0.5" stroke-linecap="butt"/><path d="M274.74654,257.8529c-0.1695,0.19484 -0.36433,0.02535 -0.36433,0.02535l-0.16854,-0.14663c-3.1325,-2.90035 2.38242,-6.74808 2.17343,-9.20281c-0.27085,-2.92693 -2.86397,-4.33651 -3.59745,-7.05543c-0.17997,-0.03602 -0.37071,-0.09247 -0.57279,-0.17156c-0.15348,0.18298 -0.3884,0.33725 -0.74503,0.41197c-1.2638,0.26477 -1.52858,-0.99902 -1.52858,-0.99902l-0.2233,-1.07121c-0.3483,-2.10622 -0.26319,-5.71221 -1.48637,-7.38878c0,0 -0.7176,-1.07348 0.35587,-1.79107c1.07348,-0.7176 1.79108,0.35587 1.79108,0.35587c0.68807,1.08708 1.04625,2.44256 1.28223,3.85492c0.25925,-0.29836 0.76614,-0.66671 1.52507,-0.29235h-0.00001c0.94575,0.46652 0.7381,1.32442 0.63021,1.62326c0.11205,-0.0386 0.23974,-0.06568 0.38522,-0.07766c1.28689,-0.10597 1.39286,1.18091 1.39286,1.18091c0.08383,1.47935 -0.3048,4.34683 -2.26426,4.41278c0.76718,2.62572 3.2972,4.01924 3.56973,6.96169c0.17325,2.0347 -5.14108,6.64419 -2.34891,8.85883l0.16854,0.14662c0,0 0.19484,0.1695 0.02534,0.36433z" fill="#663f3f" stroke="none" stroke-width="0.5" stroke-linecap="butt"/><path d="M204.07459,125.35677c-0.10597,-1.28689 1.18091,-1.39286 1.18091,-1.39286l1.28395,-0.08058c1.75852,0.20354 3.48698,0.71943 5.23411,0.7152c0,0 1.29119,0.01097 1.28022,1.30217c-0.01097,1.2912 -1.30217,1.28022 -1.30217,1.28022c-1.87083,-0.03161 -3.63933,-0.51581 -5.5091,-0.73222l-0.77507,0.08898c0,0 -1.28689,0.10597 -1.39286,-1.18091z" fill="#663f3f" stroke="none" stroke-width="0.5" stroke-linecap="butt"/><path d="M206.99342,129.83931c0.62567,-1.12953 1.7552,-0.50387 1.7552,-0.50387l0.72119,0.40431c0.61543,0.29723 1.31552,0.46178 1.99894,0.45615c0,0 1.29105,0.0226 1.26845,1.31365c-0.0226,1.29105 -1.31365,1.26845 -1.31365,1.26845c-1.03113,-0.03573 -2.07139,-0.27591 -3.01839,-0.68542l-0.90785,-0.49804c0,0 -1.12953,-0.62567 -0.50387,-1.7552z" fill="#663f3f" stroke="none" stroke-width="0.5" stroke-linecap="butt"/><path d="M272.53762,113.52233c-0.48073,1.19841 -1.67914,0.71769 -1.67914,0.71769l0.19015,-0.01487c-2.06507,-0.03884 -3.64953,0.24247 -5.60275,-0.60217c0,0 -1.17641,-0.53233 -0.64407,-1.70874c0.53233,-1.17641 1.70874,-0.64407 1.70874,-0.64407c1.49362,0.72137 2.94689,0.34617 4.58331,0.37289l0.7261,0.20012c0,0 1.19841,0.48073 0.71769,1.67914z" fill="#663f3f" stroke="none" stroke-width="0.5" stroke-linecap="butt"/><path d="M196.98421,81.73438c-0.05852,-0.71073 0.47018,-1.33433 1.18091,-1.39286c0.3741,-0.03081 0.72408,0.10109 0.98019,0.33659c0.33148,0.06973 0.56868,0.2451 0.56868,0.2451c0.36789,0.27202 0.7358,0.54402 1.10369,0.81604l0.48522,0.40765c0,0 0.98489,0.83503 0.14987,1.81993c-0.83503,0.98489 -1.81993,0.14987 -1.81993,0.14987l-0.35049,-0.30091c-0.36789,-0.27202 -0.7358,-0.54402 -1.10369,-0.81604c0,0 -0.04519,-0.03342 -0.10975,-0.09572c-0.57472,-0.09062 -1.03483,-0.56406 -1.08471,-1.16965z" fill="#663f3f" stroke="none" stroke-width="0.5" stroke-linecap="butt"/><path d="M218.95045,109.33588c-0.05852,-0.71073 0.47018,-1.33433 1.18091,-1.39286c0.71073,-0.05852 1.33433,0.47018 1.39286,1.18091c0.05852,0.71073 -0.47018,1.33433 -1.18091,1.39286c-0.71073,0.05852 -1.33433,-0.47018 -1.39286,-1.18091z" fill="#590000" stroke="none" stroke-width="0.5" stroke-linecap="butt"/><path d="M220.58485,107.17319c0.00467,-0.00207 0.00939,-0.00413 0.01416,-0.00616c0.7124,-0.30449 1.01689,0.40791 1.01689,0.40791c0.07313,0.17111 0.68588,1.58894 0.69431,1.68258c0.25366,2.81553 -4.00947,2.8708 -4.24998,0.28123c-0.07873,-0.84766 0.62698,-1.50307 1.09413,-2.06495l0.66192,-0.37186c0,0 0.43339,-0.18523 0.76857,0.07127zM220.34195,108.47911l-0.00571,-0.00327c-0.83165,0.95607 -0.10842,2.06891 0.4852,1.28062c0.09467,-0.12571 -0.26356,-0.85542 -0.4795,-1.27737z" fill="#7a0000" stroke="none" stroke-width="0.5" stroke-linecap="butt"/><path d="M216.25573,103.71836c0.6933,-0.3458 1.03909,0.34749 1.03909,0.34749l0.18028,0.43605c1.02852,1.1165 1.72959,2.02656 1.75207,3.54723c0,0 -0.03268,0.77406 -0.80673,0.74138c-0.77406,-0.03268 -0.74138,-0.80673 -0.74138,-0.80673c0.13212,-0.85018 -0.68056,-1.75351 -1.33038,-2.41787l-0.44045,-0.80845c0,0 -0.3458,-0.6933 0.34749,-1.03909z" fill="#663f3f" stroke="none" stroke-width="0.5" stroke-linecap="butt"/><path d="M224.1683,104.66403c0.59095,0.50102 0.08992,1.09196 0.08992,1.09196l-0.29513,0.34076c-0.63505,0.59985 -1.09091,0.98954 -1.50755,1.76218c0,0 -0.3754,0.67772 -1.05311,0.30233c-0.67772,-0.3754 -0.30233,-1.05311 -0.30233,-1.05311c0.51179,-0.90521 1.05125,-1.43151 1.79901,-2.13782l0.17724,-0.21638c0,0 0.50102,-0.59095 1.09195,-0.08992z" fill="#663f3f" stroke="none" stroke-width="0.5" stroke-linecap="butt"/><path d="M224.528,111.18399c0.23207,0.0485 0.55122,0.20387 0.59114,0.68859c0.06359,0.77213 -0.70855,0.83572 -0.70855,0.83572l-0.75548,-0.22955c-0.55725,-0.65529 -1.27877,-0.74188 -1.9953,-1.32636c0,0 -0.59094,-0.50102 -0.08992,-1.09196c0.50102,-0.59095 1.09195,-0.08992 1.09195,-0.08992c0.6608,0.59307 1.22585,0.68326 1.86616,1.21346z" fill="#663f3f" stroke="none" stroke-width="0.5" stroke-linecap="butt"/><path d="M217.12089,114.24694c-0.59095,-0.50102 -0.08992,-1.09195 -0.08992,-1.09195l0.42065,-0.48882c0.31488,-0.46675 0.60546,-0.95031 0.87786,-1.44305c0,0 0.3754,-0.67772 1.05311,-0.30233c0.67772,0.3754 0.30233,1.05311 0.30233,1.05311c-0.29492,0.53148 -0.60896,1.05318 -0.94802,1.55766l-0.52408,0.62547c0,0 -0.50102,0.59094 -1.09196,0.08992z" fill="#663f3f" stroke="none" stroke-width="0.5" stroke-linecap="butt"/><path d="M219.48058,122.06696c-0.25737,0.0212 -0.27857,-0.23618 -0.27857,-0.23618l-0.0106,-0.12868c-0.05476,-0.66493 0.15104,-1.22108 0.11103,-1.88254c0.70187,-1.7497 0.92134,-4.05612 0.81001,-5.89695c0.61108,-1.61543 0.39251,-3.01602 0.24932,-4.75476c0,0 -0.02119,-0.25738 0.23618,-0.27857c0.25737,-0.0212 0.27857,0.23618 0.27857,0.23618c0.14171,1.72081 0.43822,3.28985 -0.25336,4.87416c0.20548,1.75004 -0.14408,4.23684 -0.81001,5.89696c0.07308,0.62245 -0.15803,1.14351 -0.107,1.76313l0.0106,0.12869c0,0 0.02119,0.25737 -0.23618,0.27857z" fill="#663f3f" stroke="none" stroke-width="0.5" stroke-linecap="butt"/><path d="M195.80506,236.91614c-0.82159,1.64332 -4.75538,0.97378 -8.78637,-1.49545c-4.03099,-2.46924 -6.63273,-5.80313 -5.81113,-7.44645c0.82159,-1.64332 4.75538,-0.97378 8.78637,1.49545c4.03099,2.46924 6.63273,5.80313 5.81113,7.44645z" fill="#000000" stroke="none" stroke-width="0" stroke-linecap="butt"/><path d="M179.23907,252.89298c0.02979,0.25652 -0.22674,0.28631 -0.22674,0.28631l-0.28944,0.03361c-0.32998,0.03825 -0.65908,0.08546 -0.9863,0.14274c-3.45669,1.17012 -7.33901,-0.80034 -7.65786,-4.72943c-0.20063,-2.47238 0.02292,-6.17429 1.50735,-7.74064c0.24173,-0.25507 -0.14817,-0.8094 0.10932,-1.04856c0.21483,-0.19953 1.2345,-0.19675 1.56226,-0.28471c2.80248,-2.99518 6.84595,-1.79684 9.9453,-0.72157c2.63095,-0.50012 2.29939,-1.72 4.04182,-3.38511c0.62067,-0.59314 1.92282,-1.01402 1.79371,-2.00776c0,0 -0.02119,-0.25738 0.23618,-0.27857c0.25737,-0.0212 0.27857,0.23618 0.27857,0.23618c0.06467,1.28652 -1.11357,1.67787 -1.95745,2.42904c-1.88867,1.68119 -1.50765,3.0563 -4.43053,3.52134c-3.20407,-1.00475 -6.73985,-2.24793 -9.64214,0.64949c-0.22428,0.06765 -1.34517,0.11449 -1.484,0.22717c-0.25642,0.20812 0.14271,0.7231 -0.05268,0.98935c-1.24099,1.69101 -1.60137,4.80382 -1.39292,7.37254c0.29201,3.59841 3.83114,5.40562 7.0127,4.27142c0.35067,-0.06239 0.70328,-0.11485 1.05707,-0.156l0.28944,-0.03361c0,0 0.25652,-0.02978 0.28631,0.22674z" fill="#929292" stroke="#929292" stroke-width="1" stroke-linecap="butt"/><path d="M277.70381,258.20121c-0.25737,0.02121 -0.27858,-0.23617 -0.27858,-0.23617l-0.02521,-0.30594c-0.26356,-3.19419 -2.89495,-4.76976 -2.59853,-8.09488c1.18461,-2.82758 2.45072,-5.77176 -0.20781,-8.02576c0,0 -0.19698,-0.16701 -0.02997,-0.36398c0.16701,-0.19698 0.36399,-0.02998 0.36399,-0.02998c2.82375,2.39407 1.67406,5.54791 0.37509,8.54405c-0.24775,3.18251 2.35253,4.78389 2.61197,7.92807l0.02521,0.306c0,0 0.02121,0.25737 -0.23618,0.27858z" fill="#1c00ff" stroke="none" stroke-width="0.5" stroke-linecap="butt"/><path d="M272.4065,256.79766c-0.25732,0.02192 -0.27923,-0.23541 -0.27923,-0.23541l0.02445,-0.13135c-1.25508,-1.82898 -0.76883,-4.1401 -0.27425,-6.1183c-0.09368,-1.74224 1.77204,-3.03218 1.94414,-4.67653c0.11663,-1.11437 -0.64171,-2.78614 -1.08093,-3.8131c0,0 -0.10151,-0.23747 0.13596,-0.33897c0.23747,-0.1015 0.33897,0.13596 0.33897,0.13596c0.473,1.10733 1.24579,2.86171 1.1197,4.06978c-0.17006,1.62932 -2.10856,2.98007 -1.9431,4.66545c-0.43297,1.81448 -1.04729,4.10588 0.1812,5.77746l0.0685,0.38574c0,0 0.02192,0.25732 -0.2354,0.27923z" fill="#000000" stroke="none" stroke-width="0.5" stroke-linecap="butt"/><path d="M272.34572,255.61511c-0.15122,-0.20934 0.05814,-0.36056 0.05814,-0.36056l0.21271,-0.15364c2.09842,-1.50527 4.55326,-4.424 1.65443,-6.32682c-1.35915,-0.89541 -4.68618,-2.56226 -3.54051,-4.78003c0.43604,-0.84407 1.36177,-1.39236 1.74847,-2.37327c0,0 0.09614,-0.23968 0.33583,-0.14354c0.23968,0.09614 0.14354,0.33583 0.14354,0.33583c-0.58119,1.4276 -2.21764,2.05132 -1.73943,3.77768c0.32859,1.1862 2.3691,2.11895 3.33563,2.7516c3.26511,2.14553 0.72775,5.45967 -1.63554,7.17723l-0.21271,0.15364c0,0 -0.20935,0.15121 -0.36056,-0.05814z" fill="#420000" stroke="none" stroke-width="0.5" stroke-linecap="butt"/><path d="M274.06557,255.27691c-0.09915,0.23845 -0.3376,0.1393 -0.3376,0.1393l-0.07761,-0.03227c-3.89492,-1.644 -1.71891,-3.91473 -0.25555,-6.17557c0.59943,-0.88333 1.5631,-1.11195 1.97476,-2.20836c0.64151,-1.70858 -1.62114,-3.76019 -2.79038,-4.75152c0,0 -0.19698,-0.16701 -0.02998,-0.36399c0.16701,-0.19698 0.36398,-0.02997 0.36398,-0.02997c1.37434,1.16521 3.64721,3.34585 2.94155,5.32263c-0.41336,1.15797 -1.44488,1.40826 -2.02941,2.31657c-1.3256,1.96156 -3.52067,3.96557 0.02333,5.41329l0.07761,0.03227c0,0 0.23845,0.09915 0.1393,0.3376z" fill="#04ff00" stroke="none" stroke-width="0.5" stroke-linecap="butt"/><path d="M254.6419,105.85715c-0.46894,1.14961 -4.95199,0.58219 -5.35787,0.03296c-0.19278,-0.26086 1.42277,-2.68091 2.81968,-2.83819c1.5442,-0.17386 2.881,1.96483 2.53819,2.80523z" fill="#8b0000" stroke="none" stroke-width="0.5" stroke-linecap="butt"/><path d="M242.05789,115.12483c-0.22473,2.44286 -2.14114,2.81135 -4.69763,2.57617c-2.55648,-0.23519 -4.78495,-0.985 -4.56023,-3.42785c0.22473,-2.44286 2.47936,-4.23254 5.03584,-3.99735c2.55648,0.23519 4.44674,2.40618 4.222,4.84903z" fill="#8b0000" stroke="none" stroke-width="0" stroke-linecap="butt"/><path d="M239.90876,115.35595c-0.1216,1.32178 -1.15853,1.52115 -2.54177,1.3939c-1.38325,-0.12725 -2.58902,-0.53296 -2.46742,-1.85473c0.1216,-1.32178 1.34152,-2.29013 2.72477,-2.16287c1.38325,0.12725 2.40602,1.30193 2.28442,2.6237z" fill="#000000" stroke="none" stroke-width="0" stroke-linecap="butt"/><path d="M-64.5,175.76158v-144.45168h629v144.45169z" fill="url(#color-10)" stroke="none" stroke-width="0" stroke-linecap="butt"/></g></g></svg>