<svg version="1.1" xmlns="http://www.w3.org/2000/svg" xmlns:xlink="http://www.w3.org/1999/xlink" width="651.54391" height="527.03283" viewBox="0,0,651.54391,527.03283"><g transform="translate(85.77196,83.51641)"><g data-paper-data="{&quot;isPaintingLayer&quot;:true}" fill-rule="nonzero" stroke="none" stroke-linecap="butt" stroke-linejoin="miter" stroke-miterlimit="10" stroke-dasharray="" stroke-dashoffset="0" style="mix-blend-mode: normal"><path d="M65,404v-448h350v448z" fill="#313131" stroke-width="0"/><path d="M-11.30557,382.6315v-386h86v386z" fill="#000000" stroke-width="NaN"/><path d="M405.69443,427.6315v-434h87v434z" fill="#000000" stroke-width="0"/><g fill="#8c0000" stroke-width="0"><path d="M-85.77196,443.51638v-527.03279h325.73256c0,0 0,79.77255 0,137.17291c0,16.04341 -73.97934,-34.71315 -73.97934,-10.10748c0,16.37844 1.29467,35.42307 3.54148,56.14188c2.35059,21.67595 -71.38409,-9.68484 -67.34147,14.51997c3.30573,19.79281 7.19764,39.92866 11.41421,62.26414c3.64953,19.33191 -77.45529,-15.6027 -73.48891,4.25427c4.29993,21.52694 7.43043,45.26704 9.69021,69.4091c8.76722,93.66358 4.42848,193.37796 4.42848,193.37796z"/><path d="M423.44092,443.51638c0,0 -4.41107,-99.71438 4.5023,-193.37795c2.29745,-24.14209 5.48014,-47.88218 9.85175,-69.4091c4.03249,-19.85696 -78.42439,15.07764 -74.71403,-4.25428c4.28685,-22.33549 8.24364,-42.47134 11.60449,-62.26414c4.11001,-24.2048 -70.85389,7.15598 -68.46411,-14.51997c2.28425,-20.71881 3.60051,-39.76347 3.60051,-56.14188c0,-24.60567 -75.21263,26.15089 -75.21263,10.10748c0,-57.40037 0,-137.17291 0,-137.17291h331.16275v527.03279z" data-paper-data="{&quot;index&quot;:null}"/></g><path d="M-38.52853,439.68977v-519.37955h557.05706v519.37955z" fill-opacity="0.62745" fill="#000000" stroke-width="0"/></g></g></svg>