<svg version="1.1" xmlns="http://www.w3.org/2000/svg" xmlns:xlink="http://www.w3.org/1999/xlink" width="49.92207" height="49.50522" viewBox="0,0,49.92207,49.50522"><g transform="translate(-215.5,-154.99478)"><g data-paper-data="{&quot;isPaintingLayer&quot;:true}" fill-rule="nonzero" stroke="none" stroke-width="0" stroke-linecap="butt" stroke-linejoin="miter" stroke-miterlimit="10" stroke-dasharray="" stroke-dashoffset="0" style="mix-blend-mode: normal"><path d="M240.92207,204.5c-13.53098,0 -24.5,-10.96902 -24.5,-24.5c0,-13.53098 10.96902,-24.5 24.5,-24.5c13.53098,0 24.5,10.96902 24.5,24.5c0,13.53098 -10.96902,24.5 -24.5,24.5z" data-paper-data="{&quot;index&quot;:null}" fill="#ffffff"/><g data-paper-data="{&quot;index&quot;:null}" fill="#000000"><g><g><g><path d="M228.57486,158.49478l7,-3.5h5v24.83334z"/><path d="M219.82979,166.8111l4.4774,-6.41895l4.3925,-2.38871l11.86394,21.81609z"/></g><path d="M216.35971,179.8686l0.18743,-7.82399l3.67586,-6.4173l20.60594,13.63457z"/></g><path d="M219.09464,191.31782l-3.55516,-6.97215l-0.03948,-4.99984l24.83257,-0.19607z"/></g><path d="M227.71362,201.99661l-6.46802,-6.73954l-2.4371,-4.36584l21.68368,-12.10425z"/></g></g></g></svg>