<svg version="1.1" xmlns="http://www.w3.org/2000/svg" xmlns:xlink="http://www.w3.org/1999/xlink" width="563.69445" height="684.32229" viewBox="0,0,563.69445,684.32229"><defs><linearGradient x1="-12.46071" y1="180.00004" x2="492.46076" y2="180.00004" gradientUnits="userSpaceOnUse" id="color-1"><stop offset="0" stop-color="#000000"/><stop offset="1" stop-color="#000000"/></linearGradient><linearGradient x1="349.19445" y1="264.15626" x2="349.19445" y2="422.15626" gradientUnits="userSpaceOnUse" id="color-2"><stop offset="0" stop-color="#000000" stop-opacity="0"/><stop offset="1" stop-color="#000000"/></linearGradient><linearGradient x1="333.69444" y1="195.65626" x2="501.69445" y2="195.65626" gradientUnits="userSpaceOnUse" id="color-3"><stop offset="0" stop-color="#000000" stop-opacity="0"/><stop offset="1" stop-color="#000000"/></linearGradient><radialGradient cx="240" cy="180" r="264" gradientUnits="userSpaceOnUse" id="color-4"><stop offset="0" stop-color="#000000" stop-opacity="0"/><stop offset="1" stop-color="#000000"/></radialGradient></defs><g transform="translate(25,14.5)"><g data-paper-data="{&quot;isPaintingLayer&quot;:true}" fill-rule="nonzero" stroke-linecap="butt" stroke-linejoin="miter" stroke-miterlimit="10" stroke-dasharray="" stroke-dashoffset="0" style="mix-blend-mode: normal"><path d="M-12.46071,370.59293v-381.18577h504.92147v381.18577z" data-paper-data="{&quot;index&quot;:null}" fill="url(#color-1)" stroke="#000000" stroke-width="2"/><g><path d="M397.24238,326.0515c0,19.32414 -0.91065,43.37709 -2.4575,64.80647c-1.7907,24.80764 -6.22378,46.50516 -9.29401,59.77445c-4.49724,19.43691 -9.68234,10.24637 -15.98952,10.24637c-5.76119,0 -8.69756,3.37131 -13.00345,-13.13081c-6.40613,-24.55128 -12.94783,-77.16511 -12.94783,-121.6965c0,-38.69074 6.71634,-98.03493 11.74081,-122.6227c4.6455,-22.73311 7.32507,-12.20459 14.21046,-12.20459c7.06843,0 8.1076,-8.58477 12.7878,15.22944c2.88456,14.6775 8.83359,41.19269 11.70109,68.20834c1.91377,18.03035 3.25215,36.28361 3.25215,51.3895z" fill="#7a7a7a" stroke="none" stroke-width="0"/><path d="M372.58506,204.41344c-62.52888,0 -60.76484,-47.67727 -60.76484,-106.63313c0,-11.55138 0.38713,-28.65 17.24564,-37.65222c12.75153,-6.80914 25.85805,-7.20649 43.51925,-7.20649c18.5563,0 34.49093,6.48603 45.697,19.14026c10.91144,12.32151 11.10065,25.45381 11.10065,37.5031c0,0 5.73117,94.84848 -56.7977,94.84848z" fill="#7a7a7a" stroke="#929292" stroke-width="1"/><path d="M346.73349,165.25529v-44.34078h9.29046v44.34078z" fill="#440000" stroke="none" stroke-width="0"/><path d="M381.52265,164.9941v-44.34078h9.29046v44.34078z" fill="#440000" stroke="none" stroke-width="0"/><path d="M410.12882,154.44387c0,24.73159 1.96146,32.11171 -41.98128,32.11171c-43.94276,0 -43.67046,-7.80241 -43.67046,-32.53399c0,-24.73159 0.15001,8.42842 44.09275,8.42842c43.94276,0 41.559,-32.73772 41.559,-8.00614z" fill="#000000" stroke="#929292" stroke-width="0"/><path d="M362.83918,117.2732c0,7.90758 -1.98396,10.25399 -12.89099,10.25399c-10.90703,0 -12.63697,-2.60039 -12.63697,-10.508c0,-7.90758 1.98396,-16.60392 12.89096,-16.60392c10.90703,0 12.63697,8.95035 12.63697,16.85793z" fill="#000000" stroke="none" stroke-width="0"/><path d="M398.11665,116.05256c0,7.90758 -1.98396,10.25399 -12.89099,10.25399c-10.90703,0 -12.63697,-2.60039 -12.63697,-10.508c0,-7.90758 1.98396,-16.60392 12.89096,-16.60392c10.90703,0 12.63697,8.95035 12.63697,16.85793z" fill="#000000" stroke="none" stroke-width="0"/><path d="M401.99808,141.9045c0,-4.49942 3.64749,-8.14691 8.14691,-8.14691c4.49942,0 8.14688,3.64749 8.14688,8.14691c0,4.49942 -3.64749,8.14688 -8.14688,8.14688c-4.49942,0 -8.14691,-3.64749 -8.14691,-8.14688z" fill="#883e3e" stroke="none" stroke-width="0"/><path d="M317.13599,140.68389c0,-4.49942 3.64749,-8.14691 8.14691,-8.14691c4.49942,0 8.14688,3.64749 8.14688,8.14691c0,4.49942 -3.64749,8.14688 -8.14688,8.14688c-4.49942,0 -8.14691,-3.64749 -8.14691,-8.14688z" fill="#883e3e" stroke="none" stroke-width="0"/><path d="M346.39245,500.85444c2.65562,-24.09907 6.72547,-47.67197 8.7876,-60.73114c3.34584,-21.18849 3.41249,-13.48092 6.7124,-13.30115c3.21445,0.17511 4.97866,-9.17702 6.03926,11.28137c1.14713,22.12745 1.38983,75.39591 -0.49621,110.01409c-2.17074,39.84401 -7.78951,86.75333 -11.97701,108.55742c-2.81462,14.65558 -4.02116,11.56445 -6.71078,11.41793c-2.94453,-0.16043 -5.8132,7.93081 -6.96527,-9.57454c-0.78649,-11.95066 -1.79841,-31.47705 -1.42512,-53.71899c0.32244,-19.21305 1.06982,-40.75734 2.01179,-58.04744c0.73635,-13.51585 2.25098,-29.81374 4.02334,-45.89754z" fill="#7a7a7a" stroke="none" stroke-width="0"/><path d="M402.5262,546.75199c0.94198,17.29009 1.68932,38.83439 2.01179,58.04744c0.37328,22.24195 -0.63863,41.76831 -1.42515,53.71899c-1.15207,17.50535 -4.02074,9.41414 -6.96527,9.57454c-2.68962,0.14652 -3.89616,3.23763 -6.71078,-11.41793c-4.1875,-21.80409 -9.80627,-68.71338 -11.97704,-108.55739c-1.88605,-34.61818 -1.64334,-87.88661 -0.49621,-110.01409c1.06058,-20.4584 2.82481,-11.10626 6.03926,-11.2814c3.29992,-0.17977 3.36659,-7.88734 6.7124,13.30112c2.06213,13.05917 6.13199,36.63207 8.78763,60.73114c1.77236,16.0838 3.28699,32.38169 4.02334,45.89754z" data-paper-data="{&quot;index&quot;:null}" fill="#7a7a7a" stroke="none" stroke-width="0"/><path d="M307.14946,328.17152c4.2487,-12.85182 9.97678,-28.18495 15.89755,-43.24397c8.87136,-22.56361 18.96995,-44.24918 24.37866,-56.31319c8.7756,-19.57382 6.82235,-12.11756 9.96014,-11.08024c3.05654,1.01046 7.20733,-7.55376 2.8756,12.4689c-4.68511,21.65617 -18.39484,73.13074 -29.27705,106.0481c-12.52496,37.88647 -30.22712,81.68927 -39.97624,101.6369c-6.55282,13.40775 -6.90815,10.10861 -9.46563,9.26313c-2.79988,-0.92561 -7.68651,6.13254 -4.21609,-11.06399c2.36925,-11.73987 6.50398,-30.85028 12.68648,-52.21894c5.34055,-18.45872 11.70148,-39.05615 17.13659,-55.49677z" fill="#7a7a7a" stroke="none" stroke-width="0"/><path d="M431.33281,329.36463c5.43511,16.44061 11.79601,37.03808 17.13659,55.49677c6.18249,21.36868 10.31723,40.47907 12.68648,52.21894c3.47045,17.19653 -1.41622,10.13838 -4.21607,11.06396c-2.55748,0.84549 -2.91281,4.14462 -9.46566,-9.26313c-9.74909,-19.94764 -27.45128,-63.75044 -39.97624,-101.6369c-10.88221,-32.91736 -24.59193,-84.39193 -29.27705,-106.0481c-4.33174,-20.02266 -0.18095,-11.45847 2.87557,-12.4689c3.13779,-1.03732 1.18454,-8.49358 9.96014,11.08024c5.4087,12.06401 15.50729,33.74961 24.37866,56.31319c5.9208,15.05902 11.64888,30.39215 15.89755,43.24394z" data-paper-data="{&quot;index&quot;:null}" fill="#7a7a7a" stroke="none" stroke-width="0"/><path d="M372.83746,246.77146c0,2.30637 -1.3355,4.17606 -2.98292,4.17606c-1.64742,0 -2.98292,-1.86968 -2.98292,-4.17606c0,-2.30637 1.3355,-4.17606 2.98292,-4.17606c1.64742,0 2.98292,1.86968 2.98292,4.17606z" fill="#343434" stroke="none" stroke-width="0"/><path d="M374.03062,300.46374c0,2.30637 -1.3355,4.17609 -2.98289,4.17609c-1.64742,0 -2.98292,-1.86971 -2.98292,-4.17609c0,-2.30637 1.3355,-4.17606 2.98292,-4.17606c1.64742,0 2.98289,1.86968 2.98289,4.17606z" fill="#343434" stroke="none" stroke-width="0"/><path d="M373.73233,346.10219c0,2.30637 -1.3355,4.17609 -2.98289,4.17609c-1.64742,0 -2.98292,-1.86971 -2.98292,-4.17609c0,-2.30637 1.3355,-4.17606 2.98292,-4.17606c1.64742,0 2.98289,1.86968 2.98289,4.17606z" fill="#343434" stroke="none" stroke-width="0"/><path d="M271.75336,446.06611c1.21433,-1.88906 2.76897,-4.11558 4.34327,-6.29009c2.35883,-3.25815 4.87848,-6.32446 6.24659,-8.03897c2.21977,-2.78176 1.59744,-1.66462 2.05867,-1.36814c0.44928,0.2888 1.47049,-0.91542 -0.05386,2.1223c-1.64867,3.28554 -5.98097,10.98852 -9.0912,15.82697c-3.57975,5.56885 -8.23608,11.87405 -10.62769,14.6756c-1.60752,1.88306 -1.52812,1.33829 -1.90403,1.09665c-0.41156,-0.26454 -1.48867,0.66728 -0.21964,-1.95202c0.86637,-1.78816 2.32131,-4.68749 4.19867,-7.86489c1.62173,-2.74471 3.49585,-5.79084 5.04927,-8.20741z" fill="#7a7a7a" stroke="none" stroke-width="0"/><path d="M277.08424,457.29195c0.45249,-2.19964 1.10095,-4.83666 1.78643,-7.43222c1.02713,-3.88905 2.27337,-7.65706 2.93219,-9.74923c1.06895,-3.39454 0.89074,-2.12822 1.42777,-2.01774c0.52313,0.1076 1.04209,-1.38361 0.7141,1.99926c-0.35475,3.65885 -1.62207,12.40519 -2.78103,18.03912c-1.33391,6.48441 -3.40693,14.04347 -4.62908,17.51836c-0.82148,2.33563 -0.94359,1.79882 -1.38132,1.70878c-0.47921,-0.09856 -1.14844,1.15866 -0.90791,-1.74192c0.16422,-1.98019 0.47734,-5.20894 1.08437,-8.84928c0.52438,-3.1446 1.17569,-6.66128 1.75452,-9.47515z" fill="#7a7a7a" stroke="none" stroke-width="0"/><path d="M286.24465,453.7001c-0.26188,-2.23038 -0.47522,-4.93759 -0.64036,-7.61705c-0.24742,-4.01477 -0.24876,-7.98352 -0.28101,-10.17674c-0.05229,-3.55848 0.17659,-2.30031 0.72113,-2.36428c0.53044,-0.06229 0.55437,-1.64105 1.30635,1.67347c0.81335,3.58489 2.35959,12.28625 3.03033,17.99891c0.772,6.57501 1.18016,14.40255 1.11226,18.08546c-0.04565,2.47548 -0.33032,2.00426 -0.77415,2.05638c-0.48591,0.05707 -0.72602,1.46094 -1.40946,-1.36822c-0.46659,-1.93141 -1.18426,-5.09494 -1.75228,-8.74156c-0.49066,-3.15002 -0.97782,-6.69317 -1.31283,-9.54634z" fill="#7a7a7a" stroke="none" stroke-width="0"/><path d="M467.78658,447.85583c1.55341,2.41657 3.42754,5.4627 5.04927,8.20741c1.87736,3.17743 3.3323,6.07673 4.19867,7.86489c1.26902,2.61929 0.19192,1.68748 -0.21964,1.95202c-0.37591,0.24164 -0.29653,0.78641 -1.90403,-1.09665c-2.39161,-2.80155 -7.04794,-9.10675 -10.62769,-14.6756c-3.11026,-4.83848 -7.44253,-12.54143 -9.0912,-15.827c-1.52435,-3.03772 -0.50314,-1.83347 -0.05386,-2.12227c0.46123,-0.29648 -0.1611,-1.41362 2.05864,1.36814c1.36811,1.71451 3.88776,4.78082 6.24659,8.03897c1.57427,2.17451 3.12894,4.40103 4.34327,6.29009z" data-paper-data="{&quot;index&quot;:null}" fill="#7a7a7a" stroke="none" stroke-width="0"/><path d="M462.45572,459.08167c0.57883,2.81384 1.23013,6.33055 1.75452,9.47512c0.60705,3.64034 0.92017,6.86909 1.08437,8.84928c0.24053,2.90058 -0.4287,1.64337 -0.90791,1.74192c-0.43772,0.09004 -0.55984,0.62685 -1.38132,-1.70878c-1.22215,-3.47489 -3.29517,-11.03395 -4.62908,-17.51833c-1.15897,-5.63393 -2.42629,-14.38027 -2.78103,-18.03912c-0.328,-3.38289 0.19097,-1.89166 0.7141,-1.99926c0.53706,-0.11045 0.35882,-1.37677 1.42777,2.01777c0.65882,2.09217 1.90506,5.86016 2.93216,9.74921c0.68548,2.59556 1.33394,5.23259 1.78643,7.43222z" data-paper-data="{&quot;index&quot;:null}" fill="#7a7a7a" stroke="none" stroke-width="0"/><path d="M453.29534,455.48986c-0.33501,2.85318 -0.82215,6.39633 -1.31283,9.54637c-0.56802,3.64665 -1.28569,6.81012 -1.75226,8.74156c-0.68344,2.82917 -0.92355,1.42529 -1.40946,1.36822c-0.44384,-0.05213 -0.7285,0.4191 -0.77415,-2.05638c-0.0679,-3.68292 0.34025,-11.51042 1.11228,-18.08543c0.67074,-5.71266 2.21697,-14.41402 3.03033,-17.99891c0.75198,-3.31452 0.77594,-1.73575 1.30638,-1.67347c0.54454,0.06394 0.7734,-1.1942 0.72113,2.36428c-0.03225,2.19322 -0.03359,6.16197 -0.28101,10.17674c-0.16514,2.67946 -0.3785,5.38667 -0.64036,7.61705z" data-paper-data="{&quot;index&quot;:null}" fill="#7a7a7a" stroke="none" stroke-width="0"/></g><path d="M349.5613,113.56338c0,-0.69036 0.55964,-1.25 1.25,-1.25c0.69036,0 1.25,0.55964 1.25,1.25c0,0.69036 -0.55964,1.25 -1.25,1.25c-0.69036,0 -1.25,-0.55964 -1.25,-1.25z" fill="#ffffff" stroke="none" stroke-width="0.5"/><path d="M384.5613,113.56338c0,-0.69036 0.55964,-1.25 1.25,-1.25c0.69036,0 1.25,0.55964 1.25,1.25c0,0.69036 -0.55964,1.25 -1.25,1.25c-0.69036,0 -1.25,-0.55964 -1.25,-1.25z" fill="#ffffff" stroke="none" stroke-width="0.5"/><path d="M159.69445,422.15626v-158h379v158z" fill="url(#color-2)" stroke="#000000" stroke-width="0"/><path d="M333.69444,405.65626v-420h168v420z" fill="url(#color-3)" stroke="#000000" stroke-width="0"/><path d="M-24,373.5v-387h528v387z" fill="url(#color-4)" stroke="#000000" stroke-width="2"/></g></g></svg>