<svg version="1.1" xmlns="http://www.w3.org/2000/svg" xmlns:xlink="http://www.w3.org/1999/xlink" width="563.69444" height="642.27055" viewBox="0,0,563.69444,642.27055"><defs><linearGradient x1="-12.46072" y1="180.00002" x2="492.46075" y2="180.00002" gradientUnits="userSpaceOnUse" id="color-1"><stop offset="0" stop-color="#000000"/><stop offset="1" stop-color="#000000"/></linearGradient><linearGradient x1="333.69444" y1="194.65624" x2="501.69444" y2="194.65624" gradientUnits="userSpaceOnUse" id="color-2"><stop offset="0" stop-color="#000000" stop-opacity="0"/><stop offset="1" stop-color="#000000"/></linearGradient><linearGradient x1="349.19444" y1="264.15623" x2="349.19444" y2="422.15624" gradientUnits="userSpaceOnUse" id="color-3"><stop offset="0" stop-color="#000000" stop-opacity="0"/><stop offset="1" stop-color="#000000"/></linearGradient><radialGradient cx="240" cy="180" r="264" gradientUnits="userSpaceOnUse" id="color-4"><stop offset="0" stop-color="#000000" stop-opacity="0"/><stop offset="1" stop-color="#000000"/></radialGradient></defs><g transform="translate(25,20.75233)"><g data-paper-data="{&quot;isPaintingLayer&quot;:true}" fill-rule="nonzero" stroke-linecap="butt" stroke-linejoin="miter" stroke-miterlimit="10" stroke-dasharray="" stroke-dashoffset="0" style="mix-blend-mode: normal"><path d="M-12.46072,370.59291v-381.18577h504.92147v381.18577z" data-paper-data="{&quot;index&quot;:null}" fill="url(#color-1)" stroke="#000000" stroke-width="2"/><g><path d="M331.3575,211.67766l-13.01838,-37.9231h140.37209c0,0 3.76967,13.19885 2.04287,19.59816c-0.89648,3.32229 -11.66515,16.06088 -11.66515,16.06088z" fill="#000000" stroke="none" stroke-width="0"/><path d="M427.83393,179.80321c0,5.64567 -0.87737,27.99724 -10.2823,39.7726c-6.86225,8.59184 -22.01809,8.18442 -26.14856,8.18442c-4.03241,0 -18.43427,0.32089 -26.58939,-8.81645c-9.57655,-10.73 -12.72303,-31.5386 -12.72303,-37.28815c0,-18.18779 18.16913,-19.75911 39.31243,-19.75911c21.14327,0 36.43088,-0.28108 36.43088,17.9067z" fill="#980002" stroke="none" stroke-width="0"/><path d="M404.55322,194.91286c-0.1492,3.86963 0.89696,6.74848 -5.61579,7.37633c-1.13425,0.10933 -6.24001,0.40556 -7.45308,0.35879c-2.97365,-0.11467 -9.43384,-0.64546 -11.7215,-1.57312c-4.00405,-1.62365 -2.30376,-3.28108 -2.19225,-6.17261c0.17519,-4.54355 5.76812,-4.1031 13.94653,-3.78774c8.17842,0.31538 13.21128,-0.74524 13.03606,3.79833z" fill="#300001" stroke="none" stroke-width="0"/><g data-paper-data="{&quot;index&quot;:null}" fill="#663f3f" stroke="#000000" stroke-width="0.5"><path d="M305.11408,404.09879l1.877,-4.97547l10.66174,4.02214l-1.87698,4.97549z"/><path d="M298.57655,405.28627l1.87702,-4.97549l10.66174,4.02214l-1.877,4.97549z"/><path d="M313.29773,402.31436l1.87696,-4.97544l10.66176,4.02211l-1.87702,4.97549z"/><path d="M310.54915,409.59995l1.877,-4.97549l10.6618,4.02209l-1.87702,4.97549z"/><path d="M301.39198,397.82298l1.877,-4.97549l10.6618,4.02214l-1.87702,4.97549z"/><path d="M304.31709,413.74439l7.77614,-20.61276l5.68629,2.14511l-7.77612,20.61274z"/></g><g data-paper-data="{&quot;index&quot;:null}" fill="#663f3f" stroke="#000000" stroke-width="0.5"><path d="M428.59905,423.67254l0.22367,-5.31306l11.38513,0.47928l-0.22367,5.31304z"/><path d="M422.76271,426.84844l0.22367,-5.31306l11.3851,0.47926l-0.22364,5.31306z"/><path d="M435.81159,419.41399l0.22367,-5.31304l11.38513,0.47926l-0.22367,5.31306z"/><path d="M435.48407,427.19391l0.22367,-5.31308l11.38513,0.47926l-0.22367,5.31306z"/><path d="M423.09814,418.87884l0.22367,-5.31306l11.38515,0.47926l-0.22367,5.31306z"/><path d="M430.86413,433.08223l0.92659,-22.01125l6.07209,0.25561l-0.92659,22.01123z"/></g><g data-paper-data="{&quot;index&quot;:null}" fill="#663f3f" stroke="#000000" stroke-width="0.5"><path d="M428.59905,590.44362l0.22367,-5.31304l11.38513,0.47928l-0.22367,5.31304z"/><path d="M422.76271,593.61954l0.22367,-5.31306l11.3851,0.47926l-0.22364,5.31306z"/><path d="M435.81159,586.18509l0.22367,-5.31304l11.38513,0.47926l-0.22367,5.31306z"/><path d="M435.48407,593.96501l0.22367,-5.31308l11.38513,0.47926l-0.22367,5.31306z"/><path d="M423.09814,585.64993l0.22367,-5.31306l11.38515,0.47926l-0.22367,5.31308z"/><path d="M430.86413,599.8533l0.92659,-22.01127l6.07209,0.25559l-0.92659,22.01125z"/></g><g data-paper-data="{&quot;index&quot;:null}" fill="#663f3f" stroke="#000000" stroke-width="0.5"><path d="M335.3985,594.83486l-0.03967,-5.31761l11.39491,-0.08497l0.03967,5.31759z"/><path d="M329.72654,598.29581l-0.03964,-5.31761l11.39486,-0.08497l0.03969,5.31761z"/><path d="M342.39136,590.22443l-0.03967,-5.31759l11.39491,-0.08497l0.03967,5.31761z"/><path d="M342.44941,598.01103l-0.03964,-5.31763l11.39491,-0.08497l0.03967,5.31761z"/><path d="M329.66702,590.31937l-0.03967,-5.31761l11.39491,-0.08502l0.03964,5.31763z"/><path d="M338.12663,604.12084l-0.16428,-22.03013l6.0773,-0.04533l0.1643,22.03013z"/></g><g data-paper-data="{&quot;index&quot;:null}" fill="#663f3f" stroke="#000000" stroke-width="0.5"><path d="M348.55861,445.50801l2.94994,-7.00923l15.01981,6.32132l-2.94996,7.00923z"/><path d="M339.15234,446.85329l2.94996,-7.00923l15.01977,6.32129l-2.94992,7.00925z"/><path d="M360.34941,443.39817l2.94992,-7.00921l15.01981,6.32132l-2.94996,7.00923z"/><path d="M356.02976,453.66179l2.94996,-7.00925l15.01981,6.32132l-2.94996,7.00923z"/><path d="M343.57719,436.3394l2.94994,-7.00925l15.01986,6.32129l-2.94999,7.00925z"/><path d="M346.90084,459.24915l12.22122,-29.03832l8.01058,3.37135l-12.2212,29.03832z"/></g><g data-paper-data="{&quot;index&quot;:null}" fill="#663f3f" stroke="#000000" stroke-width="0.5"><path d="M389.21245,453.64058l-2.94996,-7.00923l15.01981,-6.32132l2.94994,7.00923z"/><path d="M398.61876,454.98586l-2.94992,-7.00925l15.01977,-6.32129l2.94996,7.00923z"/><path d="M377.42174,451.53076l-2.94994,-7.00921l15.01981,-6.32132l2.94992,7.00919z"/><path d="M381.7413,461.79434l-2.94996,-7.00923l15.01981,-6.32132l2.94996,7.00928z"/><path d="M394.19387,444.47197l-2.94999,-7.00925l15.01986,-6.32129l2.94994,7.00925z"/><path d="M397.87948,464.43175l-12.2212,-29.0383l8.01058,-3.37138l12.22122,29.03832z"/></g><g data-paper-data="{&quot;index&quot;:null}" fill="#663f3f" stroke="#000000" stroke-width="0.5"><path d="M413.95724,302.16814l-4.6781,-5.99556l12.84767,-10.02454l4.67813,5.99556z"/><path d="M410.54081,311.03467l-4.6781,-5.99556l12.84762,-10.02451l4.67815,5.99554z"/><path d="M417.87011,290.8472l-4.6781,-5.99552l12.84767,-10.02454l4.6781,5.99556z"/><path d="M424.72027,299.62654l-4.67813,-5.99561l12.84767,-10.02456l4.6781,5.99556z"/><path d="M403.52363,302.04135l-4.6781,-5.99556l12.84765,-10.02458l4.67813,5.99561z"/><path d="M425.14177,310.32133l-19.38081,-24.83882l6.85208,-5.34646l19.38081,24.8388z"/></g><g data-paper-data="{&quot;index&quot;:null}" fill="#663f3f" stroke="#000000" stroke-width="0.5"><path d="M322.19075,278.19177l4.89043,-5.82365l12.47933,10.47952l-4.89043,5.82368z"/><path d="M325.2865,287.17533l4.89047,-5.82368l12.47931,10.47952l-4.89043,5.82368z"/><path d="M318.687,266.73766l4.89043,-5.82368l12.47931,10.47955l-4.89041,5.82365z"/><path d="M311.52596,275.26522l4.89043,-5.82368l12.47931,10.47955l-4.89045,5.82372z"/><path d="M332.62223,278.4398l4.89045,-5.82372l12.47931,10.47957l-4.89043,5.82368z"/><path d="M316.54426,290.8284l20.26045,-24.12668l6.65563,5.5891l-20.26042,24.1267z"/></g><g data-paper-data="{&quot;index&quot;:null}" fill="#663f3f" stroke="#000000" stroke-width="0.5"><path d="M460.32701,43.7798l1.45464,-4.61009l9.87878,3.1171l-1.45464,4.61009z"/><path d="M464.33128,48.30198l1.45466,-4.61009l9.87875,3.1171l-1.45464,4.61009z"/><path d="M455.48198,37.90607l1.45464,-4.61009l9.87878,3.1171l-1.45464,4.61007z"/><path d="M453.35192,44.65658l1.45464,-4.61009l9.87878,3.1171l-1.45464,4.61011z"/><path d="M466.51328,41.38682l1.45464,-4.61011l9.87878,3.11712l-1.45464,4.61009z"/><path d="M460.08648,52.57477l6.0264,-19.09896l5.26869,1.66246l-6.0264,19.09898z"/></g><g data-paper-data="{&quot;index&quot;:null}" fill="#663f3f" stroke="#000000" stroke-width="0.5"><path d="M442.51764,101.91576l2.57664,-4.09022l8.76477,5.52138l-2.57664,4.09022z"/><path d="M445.24362,107.30587l2.57667,-4.09022l8.76474,5.52135l-2.57664,4.09022z"/><path d="M439.3213,95.00502l2.57664,-4.09022l8.76474,5.52138l-2.57664,4.09019z"/><path d="M435.54835,100.99426l2.57664,-4.09022l8.76477,5.52138l-2.57664,4.09022z"/><path d="M449.10859,101.17057l2.57664,-4.09022l8.76474,5.52138l-2.57664,4.09022z"/><path d="M440.05364,110.36197l10.67464,-16.94522l4.67453,2.94473l-10.67464,16.9452z"/></g><path d="M471.47267,77.75215c-3.56819,16.84184 -12.6667,29.18005 -20.3221,27.55814c-7.6554,-1.62191 -10.9687,-16.58974 -7.40051,-33.43158c3.56819,-16.84184 12.6667,-29.18005 20.32207,-27.55814c7.6554,1.62191 10.96872,16.58974 7.40053,33.43158z" fill="#a9a600" stroke="#000000" stroke-width="0.5"/><g fill="#663f3f" stroke="#000000" stroke-width="0.5"><path d="M329.24857,109.7012l-2.57664,-4.09022l8.76477,-5.52138l2.57664,4.09022z"/><path d="M326.52259,115.09131l-2.57664,-4.09022l8.76477,-5.52135l2.57664,4.09022z"/><path d="M332.44496,102.79044l-2.57664,-4.09019l8.76474,-5.52138l2.57664,4.09022z"/><path d="M336.21787,108.77971l-2.57664,-4.09022l8.76477,-5.52138l2.57664,4.09022z"/><path d="M322.65763,108.95599l-2.57664,-4.09022l8.76474,-5.52138l2.57664,4.09022z"/><path d="M335.80279,115.57077l-10.67464,-16.9452l4.67453,-2.94473l10.67466,16.94522z"/></g><g fill="#663f3f" stroke="#000000" stroke-width="0.5"><path d="M364.61693,250.64995l0.93497,-10.9857l23.54081,2.00352l-0.93497,10.9857z"/><path d="M352.24544,256.71042l0.93497,-10.9857l23.54081,2.00352l-0.93495,10.9857z"/><path d="M379.93519,242.46909l0.93495,-10.9857l23.54081,2.00352l-0.93497,10.9857z"/><path d="M378.56611,258.55534l0.93497,-10.98572l23.54081,2.00352l-0.93495,10.98572z"/><path d="M353.64789,240.23187l0.93497,-10.9857l23.54081,2.00349l-0.93497,10.98572z"/><path d="M368.47358,270.34243l3.87345,-45.51225l12.55511,1.06853l-3.87345,45.51225z"/></g><path d="M384.35655,191.38995c-28.49673,0 -67.922,-11.98345 -67.922,-21.58409c0,-17.90489 -2.04796,-34.63238 8.60768,-50.39639c13.9013,-20.56567 43.59627,-37.90216 68.37056,-37.90216c33.93493,0 66.61468,26.15023 76.02299,62.7278c2.72517,10.59488 -3.76154,33.4722 -3.76154,42.73993c0,0 -37.55336,4.41491 -81.31769,4.41491z" fill="#a9a600" stroke="#929292" stroke-width="1"/><path d="M413.03396,313.85887c0.34484,57.72619 -5.52407,131.54429 -37.10931,132.68943c-32.28787,1.17061 -34.99449,-70.70293 -35.33933,-128.4291c-0.34484,-57.72619 11.5836,-68.40644 34.09056,-68.54088c22.50697,-0.13446 38.01326,6.55438 38.3581,64.28057z" fill="#a9a600" stroke="#929292" stroke-width="1"/><path d="M333.68605,354.73379c0.28253,34.65044 -6.74667,48.16649 -17.98549,48.02283c-11.23882,-0.14365 -21.33502,-12.6096 -21.61755,-47.26004c-0.14954,-18.33798 3.40826,-47.99883 7.5827,-63.5694c3.71334,-13.8507 7.72083,-14.71853 13.01175,-14.65088c6.30984,0.08065 12.55737,-0.71137 15.89109,17.23178c2.60411,14.01627 2.99362,45.02926 3.11753,60.22572z" fill="#a9a600" stroke="#929292" stroke-width="1"/><path d="M416.18501,313.36741c2.63001,-18.05973 8.90369,-17.51244 15.20558,-17.83959c5.28424,-0.27431 9.32256,0.43624 13.5743,14.13124c4.77971,15.39554 9.49382,44.89468 10.06101,63.22452c1.07174,34.63502 -8.52964,47.486 -19.75425,48.0687c-11.22461,0.5827 -18.77662,-12.64832 -19.84834,-47.28334c-0.47002,-15.18969 -1.29274,-46.19419 0.76168,-60.30152z" data-paper-data="{&quot;index&quot;:null}" fill="#a9a600" stroke="#929292" stroke-width="1"/><path d="M366.14178,536.06607c-2.02942,39.69107 -10.99507,54.68849 -23.85282,53.76088c-12.85774,-0.92761 -23.57058,-15.88568 -21.54116,-55.57675c1.07403,-21.00564 7.16144,-54.72324 12.99814,-72.26681c5.19198,-15.60578 9.83916,-16.32722 15.89223,-15.89053c7.21879,0.5208 14.42547,0.03824 17.02387,20.80803c2.02974,16.22432 0.36977,51.75806 -0.52026,69.16515z" fill="#a9a600" stroke="#929292" stroke-width="1"/><path d="M388.76373,470.11293c-1.16332,-20.89937 6.01327,-21.71527 13.02207,-23.52048c5.87699,-1.51371 10.57821,-1.6362 18.48116,12.78742c8.88426,16.21458 20.91189,48.29683 25.73052,68.77051c9.10501,38.68589 1.24426,55.32073 -11.23948,58.53607c-12.48372,3.21534 -23.99036,-9.93391 -33.09539,-48.6198c-3.99313,-16.96625 -11.99015,-51.62822 -12.89888,-67.95372z" data-paper-data="{&quot;index&quot;:null}" fill="#a9a600" stroke="#929292" stroke-width="1"/><path d="M321.99799,68.87369c9.97029,14.0347 12.88131,29.08596 6.5019,33.61792c-6.37941,4.53196 -19.63348,-3.17155 -29.60377,-17.20624c-9.97029,-14.0347 -12.88131,-29.08593 -6.5019,-33.61789c6.37941,-4.53196 19.63348,3.17155 29.60377,17.20624z" fill="#a9a600" stroke="#000000" stroke-width="0.5"/><path d="M319.49914,71.16193c7.16197,10.08152 9.25301,20.8933 4.6705,24.14873c-4.58251,3.25543 -14.10327,-2.27822 -21.26524,-12.35974c-7.16197,-10.08152 -9.25301,-20.89328 -4.6705,-24.14871c4.58251,-3.25543 14.1033,2.27819 21.26524,12.35972z" fill="#cbc700" stroke="#000000" stroke-width="0.5"/><path d="M462.19047,51.36465c5.50236,1.14953 7.91271,11.89461 5.38372,23.99978c-2.52901,12.10517 -9.03967,20.98646 -14.54203,19.83693c-5.50236,-1.14953 -7.91275,-11.89463 -5.38375,-23.9998c2.52901,-12.10517 9.03971,-20.98644 14.54205,-19.83691z" data-paper-data="{&quot;index&quot;:null}" fill="#cbc700" stroke="#000000" stroke-width="0.5"/><path d="M484.60857,10.86852c-0.24495,17.21394 -6.78656,31.07834 -14.61108,30.96701c-7.82452,-0.11135 -13.96897,-14.15628 -13.72402,-31.3702c0.24495,-17.21394 6.78656,-31.07834 14.61108,-30.96699c7.82452,0.11135 13.96897,14.15625 13.72402,31.3702z" fill="#a9a600" stroke="#000000" stroke-width="0.5"/><path d="M469.56979,-11.74744c5.62106,-0.02925 10.23,9.97194 10.29435,22.33829c0.06434,12.36635 -4.44024,22.41498 -10.06131,22.44425c-5.62106,0.02925 -10.23002,-9.97197 -10.29437,-22.33834c-0.06434,-12.36635 4.44029,-22.41495 10.06135,-22.44421z" data-paper-data="{&quot;index&quot;:null}" fill="#cbc700" stroke="#000000" stroke-width="0.5"/><path d="M367.42607,149.33223c0,7.18986 -5.40616,13.01838 -12.07501,13.01838c-6.66885,0 -12.07501,-5.82852 -12.07501,-13.01838c0,-7.18986 5.40616,-13.01838 12.07501,-13.01838c6.66885,0 12.07501,5.82852 12.07501,13.01838z" fill="#ffffff" stroke="#ffffff" stroke-width="2"/><path d="M440.63077,155.36972c0,7.18986 -5.40616,13.01838 -12.07501,13.01838c-6.66885,0 -12.07501,-5.82854 -12.07501,-13.01838c0,-7.18984 5.40616,-13.01838 12.07501,-13.01838c6.66885,0 12.07501,5.82854 12.07501,13.01838z" fill="#ffffff" stroke="#ffffff" stroke-width="2"/><path d="M362.53732,611.05633c0,8.50279 -6.80483,9.96189 -17.43331,9.96189c-10.62848,0 -18.33893,-1.4591 -18.33893,-9.96189c0,-8.50279 7.25764,-11.77314 17.88612,-11.77314c10.62848,0 17.88612,3.27035 17.88612,11.77314z" fill="#a9a600" stroke="#929292" stroke-width="1"/><path d="M454.45837,603.35848c0,8.50279 -3.63514,6.33938 -14.26362,6.33938c-10.62848,0 -16.62132,2.13381 -16.52768,-7.24501c0.11234,-11.24994 4.54077,-8.15064 15.16924,-8.15064c10.62848,0 15.62206,0.55347 15.62206,9.05626z" fill="#a9a600" stroke="#929292" stroke-width="1"/><path d="M397.79919,335.02569c0.22276,37.29107 -3.56855,84.97748 -23.97259,85.71724c-20.85793,0.7562 -22.6064,-45.67402 -22.82917,-82.96507c-0.22276,-37.29107 7.48299,-44.19049 22.02248,-44.27736c14.53949,-0.08685 24.55653,4.23412 24.7793,41.52519z" fill="#cbc700" stroke="#929292" stroke-width="1"/><path d="M388.39872,259.9506c5.95092,-0.15158 10.3217,6.57218 8.72825,12.25417c-1.07561,5.39495 -1.12336,11.66048 -8.68618,10.13586c-3.38227,-1.15719 -6.85337,-2.01769 -8.98705,-4.15766c-0.91874,0.64383 -2.03752,1.02166 -3.24456,1.02166c-1.97112,0 -3.70689,-1.00755 -4.72042,-2.53573c-1.15026,0.40676 -2.28415,0.05275 -3.36574,0.66853c-3.1106,1.771 -6.97382,4.27548 -10.86516,4.86469c-4.10994,-3.59477 -3.30825,-9.50835 -1.44651,-14.14545c0.86173,-5.31354 3.48836,-12.04076 9.04657,-7.59418c2.32404,2.39934 6.12237,5.42022 8.008,8.51422c0.93678,-0.6868 2.09265,-1.09241 3.34326,-1.09241c1.12798,0 2.17889,0.32996 3.06149,0.89861c3.1559,-2.81955 5.709,-6.25584 9.12806,-8.8323z" fill="#cbc700" stroke="none" stroke-width="0.5"/><path d="M359.01939,270.07301c0.40024,-0.40024 0.80048,0 0.80048,0l0.00532,0.03724c3.7802,2.12236 7.31504,0.9966 11.40736,1.66918c0,0 0.55832,0.09305 0.46527,0.65137c-0.09305,0.55832 -0.65137,0.46527 -0.65137,0.46527c-4.2509,-0.71952 -7.79008,0.35079 -11.76601,-1.7935l-0.26105,-0.2291c0,0 -0.40024,-0.40024 0,-0.80048z" fill="#063800" stroke="none" stroke-width="0.5"/><path d="M392.21526,271.40548c0,0.56602 -0.56602,0.56602 -0.56602,0.56602l-0.50188,-0.02429c-2.37,1.6815 -4.758,0.54965 -7.06454,1.94135c0,0 -0.48535,0.2912 -0.77657,-0.19414c-0.2912,-0.48535 0.19414,-0.77657 0.19414,-0.77657c2.43086,-1.45127 4.85859,-0.47794 7.31891,-2.05407l0.82994,-0.02427c0,0 0.56602,0 0.56602,0.56602z" fill="#063800" stroke="none" stroke-width="0.5"/><path d="M379.55207,266.7219c0.55501,-0.11101 0.66604,0.44401 0.66604,0.44401l0.1207,0.61562c0.03398,0.08925 0.07415,0.17644 0.11957,0.26118c0.00127,0 0.00251,-0.00002 0.00378,-0.00002c0.56602,0 0.56602,0.56602 0.56602,0.56602c0,0.05739 0.00018,0.11427 0.00057,0.17064c0.08241,0.10333 0.27194,0.40178 0.01429,0.71053c0.05488,1.63484 0.24533,2.84824 0.28767,4.08965c0.9052,-0.26956 1.96059,-0.28056 2.8827,-0.46499c0,0 0.55501,-0.11101 0.66602,0.44401c0.11101,0.55504 -0.44403,0.66602 -0.44403,0.66602c-0.86524,0.17307 -2.32345,0.12493 -3.11658,0.5326c-0.05893,0.99673 -0.25627,2.09163 -0.71923,3.4863l-0.26992,0.35442c0,0 -0.40022,0.40022 -0.80046,0c-0.40024,-0.40022 0,-0.80048 0,-0.80048l-0.00355,0.08807c0.40463,-1.20842 0.60346,-2.15331 0.68253,-2.98925c-0.09939,-0.08291 -0.17886,-0.21554 -0.17886,-0.42761c0,-0.24187 0.10335,-0.38041 0.22174,-0.45972c0.0046,-1.44676 -0.29652,-2.71328 -0.3476,-4.79891c-0.2668,-0.33578 -0.48741,-0.712 -0.64976,-1.10591l-0.14565,-0.71619c0,0 -0.11101,-0.55501 0.44401,-0.66602z" fill="#063800" stroke="none" stroke-width="0.5"/><path d="M371.53976,277.39932c-0.40024,0.40022 -0.80048,0 -0.80048,0l-0.42114,-0.5556c-0.73292,-3.73738 0.36304,-5.32196 1.78012,-8.22177c0,0 0.25315,-0.50627 0.75939,-0.25315c0.50627,0.25315 0.25315,0.75939 0.25315,0.75939c-1.385,2.7193 -2.42069,3.88597 -1.68259,7.49349l0.11157,-0.02287c0,0 0.40024,0.40024 0,0.80048z" fill="#063800" stroke="none" stroke-width="0.5"/><path d="M433.63499,425.87629c7.08544,-0.3807 12.1416,2.85114 12.99017,14.17656c0.71003,9.47654 -4.33951,9.80796 -11.42495,10.18866c-7.08544,0.3807 -14.20527,0.69303 -14.23366,-8.81005c-0.02961,-9.91303 5.58303,-15.17449 12.66847,-15.5552z" data-paper-data="{&quot;index&quot;:null}" fill="#a9a600" stroke="#000000" stroke-width="0"/><path d="M450.19597,451.69527v-0.90563c0.04995,-6.65029 -1.85988,-10.11111 -6.67952,-14.12714c0,0 -2.17414,-1.8118 -0.36236,-3.98591c1.81177,-2.17411 3.98591,-0.36234 3.98591,-0.36234c6.1404,5.11742 8.66657,10.25959 8.71613,18.47541v0.90563c0,0 0,2.83008 -2.83008,2.83008c-2.83008,0 -2.83008,-2.83008 -2.83008,-2.83008z" data-paper-data="{&quot;index&quot;:null}" fill="#a9a600" stroke="none" stroke-width="0.5"/><path d="M441.52548,464.82683l0.14522,-1.82194c-1.69207,-5.13893 -0.53676,-10.46422 -2.26407,-15.39565c0,0 -0.89496,-2.68487 1.7899,-3.57981c2.68487,-0.89496 3.57981,1.7899 3.57981,1.7899c1.64238,5.11428 0.52884,10.26505 2.26407,15.39565l0.14522,3.61182c0,0 0,2.83008 -2.83008,2.83008c-2.83008,0 -2.83008,-2.83008 -2.83008,-2.83008z" data-paper-data="{&quot;index&quot;:null}" fill="#a9a600" stroke="none" stroke-width="0.5"/><path d="M430.28965,467.31015l0.36832,-1.12486c0,-5.8589 -0.11216,-11.65405 0.46687,-17.48851c0,0 0.2816,-2.81605 3.09763,-2.53444c2.81602,0.2816 2.53444,3.09765 2.53444,3.09765c-0.56878,5.64251 -0.43875,11.25743 -0.43875,16.9253l-0.53731,2.49763c0,0 -0.6864,2.74559 -3.43198,2.05919c-2.74559,-0.6864 -2.05919,-3.43198 -2.05919,-3.43198z" data-paper-data="{&quot;index&quot;:null}" fill="#a9a600" stroke="none" stroke-width="0.5"/><path d="M419.36662,462.78202l0.90563,-3.62251c1.35984,-5.29816 1.0229,-8.77683 4.61097,-13.3075c0,0 1.76794,-2.20993 3.97787,-0.44199c2.20993,1.76794 0.44199,3.97787 0.44199,3.97787c-2.99484,3.69745 -2.42337,6.57856 -3.53964,11.14441l-0.90563,3.62251c0,0 -0.6864,2.74559 -3.43198,2.05919c-2.74559,-0.6864 -2.05919,-3.43198 -2.05919,-3.43198z" data-paper-data="{&quot;index&quot;:null}" fill="#a9a600" stroke="none" stroke-width="0.5"/><path d="M442.54633,439.071c0,5.22162 -4.15599,9.45458 -9.28267,9.45458c-5.12666,0 -9.28267,-4.23297 -9.28267,-9.45458c0,-5.22162 4.15601,-9.45458 9.28267,-9.45458c5.12666,0 9.28267,4.23297 9.28267,9.45458z" fill="#cbc700" stroke="#000000" stroke-width="0"/><path d="M352.06409,149.72006c0,-1.2504 1.01364,-2.26407 2.26407,-2.26407c1.25042,0 2.26407,1.01367 2.26407,2.26407c0,1.2504 -1.01364,2.26407 -2.26407,2.26407c-1.25042,0 -2.26407,-1.01367 -2.26407,-2.26407z" fill="#000000" stroke="none" stroke-width="0.5"/><path d="M425.5227,157.51049c0,-1.64826 1.33618,-2.98445 2.98445,-2.98445c1.64826,0 2.98445,1.33618 2.98445,2.98445c0,1.64826 -1.33618,2.98445 -2.98445,2.98445c-1.64826,0 -2.98445,-1.33618 -2.98445,-2.98445z" fill="#000000" stroke="none" stroke-width="0.5"/><path d="M446.05463,217.09679c-0.95421,8.82648 -33.76429,18.73535 -64.34614,15.4292c-30.58187,-3.30615 -56.86392,-17.66972 -55.9097,-26.49621c0.28865,-2.66992 -12.95462,-30.2992 -8.70454,-32.0779c4.47973,-1.87478 12.97672,19.28312 25.44824,23.85427c14.81245,5.42916 31.04082,12.82471 42.62149,14.07665c10.90356,1.17876 33.44825,-0.59092 50.76142,-5.65389c14.55104,-4.25522 23.63864,-22.64213 27.84613,-21.15835c4.82744,1.70237 -17.38884,28.99161 -17.7169,32.02623z" fill="#a9a600" stroke="#929292" stroke-width="1"/><path d="M336.296,196.4433l1.53522,-3.77508l5.45291,2.21754l-1.53522,3.77508z" fill="#ffffff" stroke="none" stroke-width="0"/><path d="M345.67641,200.99387l1.23174,-3.88471l5.61126,1.77917l-1.23174,3.88471z" fill="#ffffff" stroke="none" stroke-width="0"/><path d="M370.83269,209.54701l1.23174,-3.88471l5.61126,1.77917l-1.23174,3.88471z" fill="#ffffff" stroke="none" stroke-width="0"/><path d="M383.60678,211.99619l0.0621,-4.07484l5.88589,0.0897l-0.0621,4.07484z" fill="#ffffff" stroke="none" stroke-width="0"/><path d="M356.99674,204.51574l1.23174,-3.88471l5.61126,1.77917l-1.23174,3.88473z" fill="#ffffff" stroke="none" stroke-width="0"/><path d="M397.6943,212.75087l0.0621,-4.07484l5.88589,0.0897l-0.0621,4.07484z" fill="#ffffff" stroke="none" stroke-width="0"/><path d="M411.66813,211.47427l-0.64358,-4.02417l5.81269,-0.92963l0.64358,4.02417z" fill="#ffffff" stroke="none" stroke-width="0"/><path d="M422.83224,209.77917l-1.1655,-3.90511l5.64072,-1.68351l1.1655,3.90511z" fill="#ffffff" stroke="none" stroke-width="0"/><path d="M433.90101,207.26354l-1.1655,-3.90511l5.64072,-1.68349l1.1655,3.90511z" fill="#ffffff" stroke="none" stroke-width="0"/><path d="M381.79691,194.81494l0.16399,-4.07201l5.88182,0.23684l-0.16399,4.07201z" fill="#ffffff" stroke="none" stroke-width="0"/><path d="M397.89693,195.0665l0.16399,-4.07201l5.88182,0.23684l-0.16399,4.07201z" fill="#ffffff" stroke="none" stroke-width="0"/><path d="M415.03917,194.45556l0.16399,-4.07204l5.88182,0.23684l-0.16399,4.07201z" fill="#ffffff" stroke="none" stroke-width="0"/><path d="M366.11646,193.41853l0.34785,-4.06047l5.86511,0.50244l-0.34785,4.06042z" fill="#ffffff" stroke="none" stroke-width="0"/><path d="M348.20136,189.45184l1.19774,-3.89535l5.62661,1.73006l-1.19774,3.89533z" fill="#ffffff" stroke="none" stroke-width="0"/><path d="M434.55451,194.29004l-0.63412,-4.02569l5.81489,-0.91593l0.6341,4.02567z" fill="#ffffff" stroke="none" stroke-width="0"/><path d="M415.44401,179.57909c0,10.79905 -10.72676,7.92423 -22.76195,7.92423c-12.03519,0 -23.73226,0.20343 -23.73226,-7.92423c0,-4.85407 1.5846,-15.78654 7.50914,-20.41864c3.99556,-3.12391 11.05224,-1.73686 15.8997,-1.73686c4.51271,0 12.07587,-0.75835 15.72416,1.69323c6.08151,4.08664 7.36123,13.71243 7.36123,20.46227z" fill="#817f00" stroke="#000000" stroke-width="0"/><path d="M398.19022,160.71944c0,2.76877 -2.51386,5.0133 -5.61488,5.0133c-3.101,0 -5.61488,-2.24453 -5.61488,-5.0133c0,-2.76877 2.51386,-5.0133 5.61488,-5.0133c3.101,0 5.61488,2.24453 5.61488,5.0133z" fill="#3d3c00" stroke="none" stroke-width="0"/><path d="M412.67388,454.76491l1.24458,-3.01318c1.85078,-4.40248 2.00379,-7.45004 5.68115,-10.90521c0,0 1.80908,-1.68306 3.49214,0.126c1.68306,1.80908 -0.12602,3.49214 -0.12602,3.49214c-3.05862,2.81122 -2.93278,5.37263 -4.4797,9.17368l-1.2446,3.01318c0,0 -0.9433,2.28376 -3.22706,1.34046c-2.28376,-0.9433 -1.34046,-3.22706 -1.34046,-3.22706z" data-paper-data="{&quot;index&quot;:null}" fill="#a9a600" stroke="none" stroke-width="0.5"/><g><path d="M318.96072,423.7571c-2.13096,9.26109 -9.0051,7.38072 -15.83055,5.4413c-6.82546,-1.93942 -11.67647,-3.38023 -8.88664,-12.46461c3.33413,-10.85676 8.98017,-12.88937 15.80563,-10.94995c6.82546,1.93942 11.13445,8.31261 8.91157,17.97324z" fill="#a9a600" stroke="#000000" stroke-width="0"/><path d="M292.16584,446.00296c-2.79365,-0.45263 -2.34102,-3.24629 -2.34102,-3.24629l0.72101,-3.54211c2.53344,-4.78705 2.25802,-10.0496 4.69721,-14.83536c0,0 1.31282,-2.50716 3.82,-1.19434c2.50716,1.31282 1.19434,3.82 1.19434,3.82c-2.49378,4.59171 -2.20502,10.03321 -4.69721,14.83536l-0.14802,1.82171c0,0 -0.45263,2.79365 -3.24629,2.34102z" fill="#a9a600" stroke="none" stroke-width="0.5"/><path d="M302.17254,449.79054c-2.82003,0.23845 -3.05848,-2.58158 -3.05848,-2.58158l-0.13093,-2.55144c0.90649,-5.59491 1.93286,-11.11677 2.27382,-16.77759c0,0 0.17241,-2.82483 2.99724,-2.65244c2.82483,0.17241 2.65244,2.99724 2.65244,2.99724c-0.36155,5.85198 -1.39912,11.55457 -2.33615,17.33806l0.18368,1.16928c0,0 0.23845,2.82003 -2.58158,3.05848z" fill="#a9a600" stroke="none" stroke-width="0.5"/><path d="M313.40597,448.14931c-2.82003,0.23845 -3.05848,-2.58158 -3.05848,-2.58158l-0.31459,-3.7207c-0.37167,-4.68562 0.65323,-7.43823 -1.71172,-11.56707c0,0 -1.39174,-2.46423 1.07251,-3.85595c2.46423,-1.39174 3.85595,1.07251 3.85595,1.07251c2.81729,5.04624 1.92833,8.42622 2.4233,13.87365l0.31459,3.7207c0,0 0.23845,2.82003 -2.58158,3.05848z" fill="#a9a600" stroke="none" stroke-width="0.5"/><path d="M284.58971,433.30752c-2.79365,-0.45263 -2.34102,-3.24629 -2.34102,-3.24629l0.14483,-0.89399c1.3629,-8.10214 4.67896,-12.77411 11.5588,-16.84359c0,0 2.43591,-1.44074 3.87665,0.99517c1.44074,2.43591 -0.99517,3.87665 -0.99517,3.87665c-5.39991,3.19351 -7.83863,6.30434 -8.85295,12.87701l-0.14483,0.89399c0,0 -0.45263,2.79365 -3.24629,2.34102z" fill="#a9a600" stroke="none" stroke-width="0.5"/><path d="M316.10291,420.00509c-0.83512,5.1544 -5.61461,8.66818 -10.6753,7.84827c-5.06071,-0.81993 -8.48619,-5.66309 -7.65107,-10.81748c0.83512,-5.1544 5.61461,-8.66818 10.6753,-7.84827c5.06071,0.81993 8.48619,5.66309 7.65107,10.81748z" fill="#cbc700" stroke="#000000" stroke-width="0"/><path d="M324.46741,440.15933c0,0 0.49189,2.42146 -1.92955,2.91333c-2.42146,0.49189 -2.91335,-1.92955 -2.91335,-1.92955l-0.64899,-3.19485c-0.79602,-4.02585 -0.18549,-6.51657 -2.65385,-9.85808c0,0 -1.45607,-1.99632 0.54023,-3.45238c1.99632,-1.45607 3.45241,0.54025 3.45241,0.54025c2.95336,4.09133 2.52416,7.11236 3.50416,11.78643l0.64899,3.19485z" data-paper-data="{&quot;index&quot;:null}" fill="#a9a600" stroke="none" stroke-width="0.5"/></g></g><path d="M333.69444,405.65624v-422h168v422z" fill="url(#color-2)" stroke="#000000" stroke-width="0"/><path d="M159.69444,422.15624v-158h379v158z" fill="url(#color-3)" stroke="#000000" stroke-width="0"/><path d="M-24,373.5v-387h528v387z" fill="url(#color-4)" stroke="#000000" stroke-width="2"/></g></g></svg>