<svg version="1.1" xmlns="http://www.w3.org/2000/svg" xmlns:xlink="http://www.w3.org/1999/xlink" width="563.69444" height="662.85775" viewBox="0,0,563.69444,662.85775"><defs><linearGradient x1="-12.46072" y1="180.00002" x2="492.46075" y2="180.00002" gradientUnits="userSpaceOnUse" id="color-1"><stop offset="0" stop-color="#000000"/><stop offset="1" stop-color="#000000"/></linearGradient><linearGradient x1="333.69444" y1="224.65624" x2="501.69444" y2="224.65624" gradientUnits="userSpaceOnUse" id="color-2"><stop offset="0" stop-color="#000000" stop-opacity="0"/><stop offset="1" stop-color="#000000"/></linearGradient><linearGradient x1="349.19444" y1="264.15623" x2="349.19444" y2="422.15624" gradientUnits="userSpaceOnUse" id="color-3"><stop offset="0" stop-color="#000000" stop-opacity="0"/><stop offset="1" stop-color="#000000"/></linearGradient><radialGradient cx="240" cy="180" r="264" gradientUnits="userSpaceOnUse" id="color-4"><stop offset="0" stop-color="#000000" stop-opacity="0"/><stop offset="1" stop-color="#000000"/></radialGradient></defs><g transform="translate(25,14.5)"><g data-paper-data="{&quot;isPaintingLayer&quot;:true}" fill-rule="nonzero" stroke-linecap="butt" stroke-linejoin="miter" stroke-miterlimit="10" stroke-dasharray="" stroke-dashoffset="0" style="mix-blend-mode: normal"><path d="M-12.46072,370.59291v-381.18577h504.92147v381.18577z" data-paper-data="{&quot;index&quot;:null}" fill="url(#color-1)" stroke="#000000" stroke-width="2"/><g><g data-paper-data="{&quot;index&quot;:null}" fill="#663f3f" stroke="#000000" stroke-width="0.5"><path d="M409.66966,492.63098l-4.92867,-5.79089l12.40903,-10.56147l4.92867,5.79089z"/><path d="M419.04257,491.07297l-4.92864,-5.79089l12.40903,-10.56144l4.92867,5.79089z"/><path d="M397.79283,494.18022l-4.92867,-5.79086l12.40903,-10.56147l4.92867,5.79089z"/><path d="M405.00983,502.65975l-4.92867,-5.79092l12.40903,-10.56144l4.9287,5.79089z"/><path d="M411.64962,482.38661l-4.92867,-5.79089l12.40906,-10.56144l4.92867,5.79089z"/><path d="M421.19027,500.30067l-20.41884,-23.99085l6.61817,-5.63275l20.41884,23.99082z"/></g><g fill="#663f3f" stroke="#000000" stroke-width="0.5"><path d="M368.4955,479.58854l4.9287,-5.79089l12.40903,10.56147l-4.92867,5.79089z"/><path d="M359.12256,478.03052l4.92867,-5.79089l12.40903,10.56144l-4.92864,5.79089z"/><path d="M380.37233,481.13779l4.92867,-5.79089l12.40903,10.56147l-4.92867,5.79086z"/><path d="M373.15533,489.61731l4.9287,-5.79089l12.40903,10.56144l-4.92867,5.79092z"/><path d="M366.51554,469.34417l4.92867,-5.79089l12.40906,10.56144l-4.92867,5.79089z"/><path d="M362.76576,492.18688l20.41884,-23.99082l6.61817,5.63275l-20.41884,23.99085z"/></g><g data-paper-data="{&quot;index&quot;:null}" fill="#663f3f" stroke="#000000" stroke-width="0.5"><path d="M440.92292,298.74771l-7.40043,-8.69503l18.63225,-15.85809l7.40043,8.69506z"/><path d="M454.99641,296.40834l-7.4004,-8.69506l18.63222,-15.85806l7.40043,8.69503z"/><path d="M423.08981,301.07391l-7.40043,-8.69503l18.63225,-15.85806l7.4004,8.69506z"/><path d="M433.92614,313.80596l-7.40043,-8.69506l18.63225,-15.85806l7.40043,8.69503z"/><path d="M443.89583,283.36573l-7.40043,-8.69506l18.63225,-15.85806l7.40043,8.69503z"/><path d="M458.22117,310.26379l-30.65895,-36.02235l9.93721,-8.45763l30.65898,36.02235z"/></g><g fill="#663f3f" stroke="#000000" stroke-width="0.5"><path d="M344.71809,274.34093l8.43718,-7.69309l16.48521,18.07971l-8.43718,7.69309z"/><path d="M331.05157,270.24668l8.43718,-7.69309l16.48521,18.07971l-8.43715,7.69312z"/><path d="M362.11587,278.89599l8.43718,-7.69312l16.48521,18.07971l-8.43718,7.69312z"/><path d="M349.76137,290.16091l8.43721,-7.69312l16.48524,18.07971l-8.43718,7.69315z"/><path d="M343.7073,258.70697l8.43718,-7.69312l16.48524,18.07971l-8.43721,7.69312z"/><path d="M333.79952,292.02248l34.95413,-31.87147l8.79212,9.6425l-34.95413,31.87147z"/></g><g data-paper-data="{&quot;index&quot;:null}" fill="#663f3f" stroke="#000000" stroke-width="0.5"><path d="M448.5606,109.1956l2.26642,-4.38652l9.39968,4.85662l-2.26642,4.38652z"/><path d="M451.80345,114.44378l2.26642,-4.38652l9.39968,4.85662l-2.26642,4.38652z"/><path d="M444.70679,102.44081l2.26642,-4.38652l9.39968,4.85662l-2.26642,4.38652z"/><path d="M441.38807,108.86391l2.26645,-4.38652l9.39968,4.85662l-2.26642,4.38652z"/><path d="M455.20312,107.86405l2.26645,-4.38652l9.39968,4.85665l-2.26642,4.38652z"/><path d="M446.78761,118.0052l9.38953,-18.17272l5.01316,2.59022l-9.3895,18.17272z"/></g><g fill="#663f3f" stroke="#000000" stroke-width="0.5"><path d="M352.53421,114.05222l-2.26642,-4.38652l9.39968,-4.85662l2.26642,4.38652z"/><path d="M349.29136,119.30043l-2.26642,-4.38652l9.39968,-4.85662l2.26645,4.38652z"/><path d="M356.38803,107.29742l-2.26645,-4.38652l9.39968,-4.85662l2.26642,4.38652z"/><path d="M359.70674,113.72053l-2.26645,-4.38652l9.39968,-4.85662l2.26645,4.38652z"/><path d="M345.89167,112.72069l-2.26642,-4.38652l9.39968,-4.85665l2.26645,4.38652z"/><path d="M358.69372,120.59542l-9.3895,-18.17272l5.01316,-2.59019l9.3895,18.17272z"/></g><g fill="#663f3f" stroke="#000000" stroke-width="0.5"><path d="M383.13309,245.59634l0.85443,-10.03945l21.51317,1.83095l-0.85443,10.03945z"/><path d="M371.82726,251.13479l0.85443,-10.03945l21.51317,1.83095l-0.85443,10.03945z"/><path d="M397.13189,238.12014l0.85443,-10.03945l21.51317,1.83095l-0.85443,10.03945z"/><path d="M395.88078,252.82078l0.85443,-10.03948l21.51317,1.83095l-0.85443,10.03948z"/><path d="M373.10888,236.07561l0.85443,-10.03945l21.51317,1.83092l-0.85443,10.03948z"/><path d="M386.65759,263.59259l3.53983,-41.59213l11.47369,0.97649l-3.53983,41.59213z"/></g><path d="M478.93445,161.71513c0,37.70935 -32.24973,69.31332 -72.24446,69.31332c-39.99474,0 -68.79603,-33.15575 -68.79603,-70.8651c0,-12.97705 -1.2445,-25.10174 4.85966,-36.1024c11.63359,-20.96563 37.70518,-36.48691 63.93641,-36.48691c39.99474,0 72.24446,36.43177 72.24446,74.14109z" fill="#00c3c5" stroke="#929292" stroke-width="1"/><path d="M382.2324,149.48532c-0.64346,7.39968 -6.01011,12.97699 -11.98675,12.45726c-5.97667,-0.5197 -10.30007,-6.93962 -9.65664,-14.3393c0.64346,-7.39968 6.01011,-12.97699 11.98675,-12.45726c5.97667,0.5197 10.30007,6.93965 9.65664,14.3393z" fill="#000000" stroke="none" stroke-width="0"/><path d="M448.95935,156.72704c-0.64346,7.39968 -6.01011,12.97699 -11.98675,12.45726c-5.97667,-0.5197 -10.30007,-6.93962 -9.65664,-14.3393c0.64346,-7.39968 6.01011,-12.97699 11.98675,-12.45726c5.97667,0.5197 10.30007,6.93965 9.65664,14.3393z" fill="#000000" stroke="none" stroke-width="0"/><path d="M362.09993,148.54434c0,-5.14219 4.16856,-9.31075 9.31075,-9.31075c5.14219,0 9.31075,4.16856 9.31075,9.31075c0,5.14219 -4.16856,9.31075 -9.31075,9.31075c-5.14219,0 -9.31075,-4.16856 -9.31075,-9.31075z" fill="#fff1f1" stroke="none" stroke-width="0"/><path d="M429.34419,155.78604c0,-5.14219 4.16856,-9.31075 9.31075,-9.31075c5.14219,0 9.31075,4.16856 9.31075,9.31075c0,5.14219 -4.16856,9.31075 -9.31075,9.31075c-5.14219,0 -9.31075,-4.16856 -9.31075,-9.31075z" fill="#fff1f1" stroke="none" stroke-width="0"/><path d="M368.30708,149.0616c0,-1.4284 1.15792,-2.58632 2.58632,-2.58632c1.4284,0 2.58632,1.15792 2.58632,2.58632c0,1.4284 -1.15792,2.58632 -2.58632,2.58632c-1.4284,0 -2.58632,-1.15792 -2.58632,-2.58632z" fill="#000000" stroke="none" stroke-width="0.5"/><path d="M435.03407,156.82055c0,-1.4284 1.15792,-2.58632 2.58632,-2.58632c1.4284,0 2.58632,1.15792 2.58632,2.58632c0,1.4284 -1.15792,2.58632 -2.58632,2.58632c-1.4284,0 -2.58632,-1.15792 -2.58632,-2.58632z" fill="#000000" stroke="none" stroke-width="0.5"/><path d="M442.51998,183.59615c1.15664,2.31326 -1.15664,3.4699 -1.15664,3.4699l-1.6739,0.79033c-8.03925,5.99549 -17.56007,10.09301 -25.45456,16.11237c-12.11843,6.88841 -23.76548,-3.92913 -33.40482,-10.34527c-5.26122,-3.50196 -10.95792,-7.07073 -12.47275,-13.53611c0,0 -0.50723,-2.5361 2.02887,-3.04329c2.5361,-0.50723 3.04329,2.02887 3.04329,2.02887c0.65135,4.66629 6.63669,7.82093 10.28683,10.25801c6.80282,4.54199 18.77754,16.16727 27.63227,10.34527c7.98104,-5.90182 17.25315,-9.94052 25.23726,-15.95798l2.4642,-1.27874c0,0 2.31326,-1.15664 3.4699,1.15664z" fill="#000000" stroke="none" stroke-width="0.5"/><path d="M338.22401,103.12506c0,0 -13.85988,-16.74259 -7.32519,-22.7423c6.53472,-5.99969 23.20984,10.51556 23.20984,10.51556c0,0 6.22613,8.42813 -0.30856,14.42784c-6.53472,5.99969 -15.57609,-2.2011 -15.57609,-2.2011z" fill="#00c3c5" stroke="#000000" stroke-width="0"/><path d="M456.27756,104.29167c-6.53469,-5.99969 -0.30859,-14.42784 -0.30859,-14.42784c0,0 16.67515,-16.51528 23.20984,-10.51556c6.53469,5.99969 -7.32519,22.7423 -7.32519,22.7423c0,0 -9.04137,8.20079 -15.57609,2.2011z" data-paper-data="{&quot;index&quot;:null}" fill="#00c3c5" stroke="#000000" stroke-width="0"/><path d="M342.246,101.31429c0,0 -8.15333,-9.84912 -4.30917,-13.37856c3.84416,-3.52944 13.65359,6.18597 13.65359,6.18597c0,0 3.66264,4.95799 -0.18152,8.48743c-3.84416,3.52944 -9.1629,-1.29484 -9.1629,-1.29484z" fill="#00a5a8" stroke="#000000" stroke-width="0"/><path d="M459.18602,101.57459c-3.84416,-3.52944 -0.18152,-8.48743 -0.18152,-8.48743c0,0 9.80943,-9.71541 13.65359,-6.18597c3.84416,3.52944 -4.30917,13.37856 -4.30917,13.37856c0,0 -5.31874,4.82426 -9.1629,1.29484z" data-paper-data="{&quot;index&quot;:null}" fill="#00a5a8" stroke="#000000" stroke-width="0"/><path d="M413.67908,168.00057c-0.54763,3.23931 -4.98306,5.19051 -9.90685,4.35812c-4.92375,-0.8324 -8.47133,-4.13316 -7.9237,-7.3725c0.54763,-3.23931 4.98306,-5.19051 9.90685,-4.35812c4.92375,0.8324 8.47133,4.13316 7.9237,7.3725z" fill="#00b1b4" stroke="none" stroke-width="0"/><path d="M401.41194,166.23473c0,-1.4284 1.15792,-2.58632 2.58632,-2.58632c1.4284,0 2.58632,1.15792 2.58632,2.58632c0,1.4284 -1.15792,2.58632 -2.58632,2.58632c-1.4284,0 -2.58632,-1.15792 -2.58632,-2.58632z" fill="#000000" stroke="none" stroke-width="0.5"/><path d="M443.55024,327.30994c0,71.52544 -26.43737,168.95616 -49.86812,168.95616c-23.43075,0 -43.16942,-106.36233 -43.16942,-177.88777c0,-71.52544 22.71587,-77.40723 46.14662,-77.40723c23.43075,0 46.89092,14.81339 46.89092,86.33883z" fill="#00c3c5" stroke="none" stroke-width="0"/><path d="M429.40853,358.49916c0,51.38989 -18.99481,121.39231 -35.82945,121.39231c-16.83461,0 -31.01654,-76.41963 -31.01654,-127.80952c0,-51.38989 16.32099,-55.61584 33.1556,-55.61584c16.83461,0 33.69037,10.6432 33.69037,62.03305z" data-paper-data="{&quot;index&quot;:null}" fill="#00a5a8" stroke="none" stroke-width="0"/><path d="M390.70486,272.65347c0,-2.05534 1.66616,-3.7215 3.7215,-3.7215c2.05534,0 3.7215,1.66616 3.7215,3.7215c0,2.05534 -1.66616,3.7215 -3.7215,3.7215c-2.05534,0 -3.7215,-1.66616 -3.7215,-3.7215z" fill="#000000" stroke="none" stroke-width="0.5"/><path d="M347.93513,311.5772c0,40.28445 -0.94916,94.0494 -19.35181,94.77423c-18.37064,0.72358 -19.35181,-52.505 -19.35181,-92.78942c0,-40.28445 5.92365,-42.17703 19.35181,-42.17703c13.42816,0 19.35181,-0.09223 19.35181,40.19222z" fill="#00c3c5" stroke="none" stroke-width="0"/><path d="M486.87119,319.51641c0,40.28445 -0.94916,94.0494 -19.35181,94.77423c-18.37064,0.72358 -19.35181,-52.505 -19.35181,-92.78942c0,-40.28445 5.92365,-42.17703 19.35181,-42.17703c13.42816,0 19.35181,-0.09223 19.35181,40.19222z" fill="#00c3c5" stroke="none" stroke-width="0"/><path d="M383.46853,528.35046c0.28435,46.79982 -0.28533,109.2662 -18.6825,110.22009c-18.36519,0.95223 -19.72205,-60.87933 -20.00637,-107.67914c-0.28435,-46.79982 5.62584,-49.03447 19.05373,-49.11605c13.42789,-0.08158 19.3508,-0.22472 19.63515,46.5751z" fill="#00c3c5" stroke="none" stroke-width="0"/><path d="M449.00956,524.77418c4.48462,46.58534 9.52514,108.85061 -8.71212,111.45224c-18.20556,2.5971 -25.10781,-58.86293 -29.59243,-105.44827c-4.48462,-46.58534 1.20112,-49.34154 14.56747,-50.62829c13.36635,-1.28675 19.25249,-1.96102 23.73711,44.62432z" fill="#00c3c5" stroke="none" stroke-width="0"/><path d="M358.57603,638.9073l-0.10256,-0.06934l-0.01358,0.04076l-1.25965,-0.41987c-0.30412,-0.09354 -0.52524,-0.37671 -0.52524,-0.71152c0,-0.11298 0.02519,-0.2201 0.07023,-0.316c-2.18631,-2.61083 -2.8554,-7.46893 -4.09023,-9.78865c-2.74167,-5.73555 -1.80121,-14.36041 -4.72842,-19.85939l-0.08735,-0.84291c0,0 0,-0.05225 0.01313,-0.13052c-0.1992,0.02727 -0.7694,0.0443 -0.9341,-0.61449c-0.20069,-0.80277 0.60205,-1.00344 0.60205,-1.00344c2.83894,-0.66802 5.71203,-4.11958 8.62468,-4.27571c1.40286,-0.07517 0.86943,4.79874 1.84601,3.78885c3.39082,-3.50658 4.3212,1.84086 6.91443,-0.98444c0.71899,-0.51321 2.79574,-2.26392 3.83824,-1.66384c1.26918,0.73055 -0.10563,5.17991 0.54932,5.52866c0.89411,0.47611 1.34784,-1.79677 2.35288,-1.92324c1.18115,-0.14865 2.04093,3.35275 2.68689,2.35276c2.7351,-4.23418 5.92162,3.18769 5.87405,5.82796c2.63834,5.27667 -5.24127,20.4097 -8.95593,24.16904c-1.56303,1.54549 -2.54819,1.79576 -3.57794,1.58738c-0.04659,0.03817 -0.09789,0.0708 -0.15291,0.09688l-0.83621,0.41812l-0.14082,-0.28164c-1.99368,0.75552 -4.25546,0.16473 -6.38181,-0.5286l-0.27334,-0.23091c-0.3826,0.01831 -0.76124,-0.02179 -1.13524,-0.16068c-0.00301,-0.0011 -0.00601,-0.00223 -0.00902,-0.00336c-0.05538,-0.0008 -0.1112,-0.0014 -0.1675,-0.00179z" fill="#000000" stroke="none" stroke-width="0.5"/><path d="M446.20316,635.92602c0.25175,0.11936 0.42586,0.37581 0.42586,0.67294c0,0.29712 -0.17411,0.55361 -0.42586,0.67294l-0.83621,0.41809c-2.59192,1.23896 -5.37691,0.0315 -7.98852,0.07857c0,0 -0.7443,0 -0.7443,-0.7443c0,-0.08286 0.0092,-0.15645 0.0256,-0.22186c-0.49722,0.14529 -0.99986,0.21067 -1.52019,0.10125c-4.05941,-0.85365 -5.73236,-7.59374 -7.69598,-10.245c-3.55915,-5.26744 -3.90353,-13.93658 -7.61121,-18.94262l-0.21096,-0.82073c0,0 -0.00771,-0.05168 -0.00631,-0.131c-0.19298,0.05645 -0.75439,0.15752 -1.01463,-0.46971c-0.31713,-0.76431 0.44718,-1.08141 0.44718,-1.08141c2.70907,-1.08022 5.04055,-4.91846 7.89816,-5.50327c1.37633,-0.28167 1.56898,4.61758 2.3856,3.47445c2.83543,-3.96915 4.54577,1.1821 6.69305,-1.99541c0.63525,-0.61384 2.4305,-2.65221 3.55025,-2.21277c1.3632,0.535 0.661,5.13868 1.36028,5.38683c0.95464,0.33878 1.06751,-1.97624 2.04284,-2.24984c1.14622,-0.32157 2.51398,3.01436 3.00507,1.92988c2.0794,-4.59189 6.32765,2.27765 6.67078,4.89595c3.38913,4.82887 -2.1677,20.96015 -5.28605,25.22714c-0.56424,0.75356 -1.05875,1.25647 -1.52221,1.58101zM442.72546,636.85024c-0.0713,-0.01381 -0.14305,-0.0284 -0.21516,-0.04362c-0.0254,0.01697 -0.05222,0.03367 -0.08056,0.05005c0.09908,-0.00018 0.19769,-0.00223 0.29573,-0.00643z" fill="#000000" stroke="none" stroke-width="0.5"/><path d="M322.42433,407.96161l-0.10256,-0.06934l-0.01361,0.04079l-1.25965,-0.4199c-0.30412,-0.09354 -0.52524,-0.37671 -0.52524,-0.71152c0,-0.11298 0.02519,-0.2201 0.07023,-0.316c-2.18631,-2.61083 -2.8554,-7.46893 -4.09023,-9.78865c-2.74167,-5.73555 -1.80121,-14.36041 -4.72842,-19.85939l-0.08735,-0.84291c0,0 0,-0.05225 0.01313,-0.13052c-0.1992,0.02727 -0.7694,0.0443 -0.9341,-0.61449c-0.20069,-0.80277 0.60205,-1.00344 0.60205,-1.00344c2.83894,-0.66802 5.71203,-4.11958 8.62468,-4.27571c1.40286,-0.07517 0.86943,4.79874 1.84601,3.78885c3.39082,-3.50658 4.3212,1.84086 6.91443,-0.98444c0.71899,-0.51321 2.79574,-2.26392 3.83824,-1.66384c1.26918,0.73055 -0.10563,5.17994 0.54932,5.52869c0.89411,0.47611 1.34784,-1.79677 2.35288,-1.92324c1.18115,-0.14865 2.04093,3.35275 2.68689,2.35276c2.7351,-4.23418 5.92162,3.18769 5.87405,5.82796c2.63834,5.27667 -5.24127,20.4097 -8.95593,24.16904c-1.56303,1.54549 -2.54819,1.79576 -3.57794,1.58738c-0.04659,0.03817 -0.09789,0.0708 -0.15291,0.09688l-0.83621,0.41809l-0.14082,-0.28164c-1.99368,0.75552 -4.25543,0.16473 -6.38181,-0.5286l-0.27334,-0.23091c-0.3826,0.01831 -0.76124,-0.02179 -1.13524,-0.16068c-0.00301,-0.0011 -0.00601,-0.00223 -0.00902,-0.00336c-0.05538,-0.0008 -0.1112,-0.0014 -0.1675,-0.00179z" fill="#000000" stroke="none" stroke-width="0.5"/><path d="M461.92746,416.46789l-0.10256,-0.06934l-0.01361,0.04076l-1.25965,-0.41987c-0.30412,-0.09354 -0.52524,-0.37671 -0.52524,-0.71152c0,-0.11298 0.02519,-0.2201 0.07023,-0.316c-2.18631,-2.61083 -2.8554,-7.46893 -4.09023,-9.78865c-2.74167,-5.73555 -1.80121,-14.36041 -4.72842,-19.85939l-0.08735,-0.84291c0,0 0,-0.05225 0.01313,-0.13052c-0.1992,0.02727 -0.7694,0.0443 -0.9341,-0.61449c-0.20069,-0.80277 0.60205,-1.00344 0.60205,-1.00344c2.83894,-0.66802 5.71203,-4.11958 8.62468,-4.27571c1.40286,-0.07517 0.86943,4.79874 1.84601,3.78885c3.39082,-3.50658 4.3212,1.84086 6.91443,-0.98444c0.71899,-0.51321 2.79574,-2.26392 3.83824,-1.66384c1.26918,0.73055 -0.10563,5.17991 0.54932,5.52866c0.89411,0.47611 1.34784,-1.79677 2.35288,-1.92324c1.18115,-0.14865 2.04093,3.35275 2.68689,2.35276c2.7351,-4.23418 5.92162,3.18769 5.87405,5.82796c2.63834,5.27667 -5.24127,20.4097 -8.95593,24.16904c-1.56303,1.54549 -2.54819,1.79576 -3.57794,1.58738c-0.04659,0.03817 -0.09789,0.0708 -0.15291,0.09688l-0.83621,0.41812l-0.14082,-0.28164c-1.99368,0.75552 -4.25543,0.16473 -6.38181,-0.5286l-0.27334,-0.23091c-0.3826,0.01831 -0.76124,-0.02179 -1.13524,-0.16068c-0.00301,-0.0011 -0.00601,-0.00223 -0.00902,-0.00333c-0.05538,-0.0008 -0.1112,-0.0014 -0.1675,-0.00179z" fill="#000000" stroke="none" stroke-width="0.5"/><g fill="#663f3f" stroke="#000000" stroke-width="0.5"><path d="M353.80147,635.78135l-0.36125,-4.45106l18.86566,-0.39135l0.36128,4.45103z"/><path d="M354.63347,642.84102l-0.32928,-4.45106l17.1964,-0.39138l0.32931,4.45106z"/><path d="M353.37617,627.70035l-0.36125,-4.45106l18.86566,-0.39135l0.36128,4.45106z"/><path d="M353.80147,620.04468l-0.36125,-4.45106l18.86566,-0.39135l0.36128,4.45106z"/><path d="M352.95088,614.09027l-0.36125,-4.45106l18.86566,-0.39135l0.36128,4.45106z"/><path d="M360.91745,648.07796l-0.63584,-43.25281l4.27484,-0.48963l0.63584,43.25284z"/></g><g fill="#663f3f" stroke="#000000" stroke-width="0.5"><path d="M429.08217,632.37884l-0.36128,-4.45106l18.86569,-0.39138l0.36128,4.45106z"/><path d="M429.91412,639.43852l-0.32928,-4.45106l17.1964,-0.39138l0.32931,4.45106z"/><path d="M428.65685,624.29788l-0.36128,-4.45106l18.86566,-0.39135l0.36131,4.45106z"/><path d="M429.08217,616.64217l-0.36128,-4.45106l18.86569,-0.39135l0.36128,4.45106z"/><path d="M428.23149,610.6878l-0.36125,-4.45106l18.86566,-0.39135l0.36128,4.45106z"/><path d="M436.19813,644.67548l-0.63584,-43.25281l4.27484,-0.48963l0.63584,43.25284z"/></g><g fill="#663f3f" stroke="#000000" stroke-width="0.5"><path d="M316.79913,404.36777l-0.36128,-4.45103l18.86569,-0.39138l0.36128,4.45106z"/><path d="M317.63109,411.42743l-0.32928,-4.45106l17.1964,-0.39138l0.32931,4.45106z"/><path d="M316.37381,396.28679l-0.36128,-4.45106l18.86566,-0.39135l0.36131,4.45106z"/><path d="M316.79913,388.63112l-0.36128,-4.45106l18.86569,-0.39135l0.36128,4.45103z"/><path d="M315.94849,382.67671l-0.36128,-4.45106l18.86566,-0.39135l0.36131,4.45103z"/><path d="M323.9151,416.66439l-0.63584,-43.25281l4.27484,-0.48963l0.63584,43.25284z"/></g><g fill="#663f3f" stroke="#000000" stroke-width="0.5"><path d="M458.58352,405.06375l-0.36128,-4.45106l18.86569,-0.39135l0.36128,4.45106z"/><path d="M459.00885,397.40809l-0.36125,-4.45106l18.86566,-0.39135l0.36128,4.45106z"/><path d="M458.1582,391.45368l-0.36128,-4.45106l18.86569,-0.39135l0.36128,4.45106z"/><path d="M466.1248,406.22484l-0.63584,-24.25142l4.27484,-0.27453l0.63584,24.25142z"/></g><path d="M466.14859,418.08154l-3.21853,-3.09569l13.87593,-12.7877l3.21856,3.09566z" fill="#663f3f" stroke="#000000" stroke-width="0.5"/><path d="M471.44747,422.81999l-3.1946,-3.11689l12.62521,-11.68215l3.19463,3.11686z" fill="#663f3f" stroke="#000000" stroke-width="0.5"/><path d="M482.40703,424.09566l-16.53779,-17.7493l3.02111,-3.03686l16.53779,17.7493z" fill="#663f3f" stroke="#000000" stroke-width="0.5"/><path d="M492.97618,432.07438l-12.48218,-3.3718l4.21473,-15.60271l12.48218,3.3718z" fill="#663f3f" stroke="#000000" stroke-width="0.5"/><path d="M484.96522,433.46593c0,0 -1.24602,-2.87639 -0.3168,-5.5231c1.53079,-4.36014 6.07885,-17.3143 6.07885,-17.3143l4.54413,1.59539c0,0 -4.50748,12.83858 -6.03967,17.20274c-0.94124,2.68088 -3.8174,4.44761 -3.8174,4.44761z" fill="#565656" stroke="none" stroke-width="0"/><path d="M497.17707,411.41183c-0.71393,2.03349 -2.97348,3.09182 -5.04683,2.3639c-2.07335,-0.72793 -3.17539,-2.96651 -2.46146,-5c0.71393,-2.03349 2.97348,-3.09182 5.04683,-2.3639c2.07335,0.72793 3.17539,2.96651 2.46146,5z" fill="#2b2b2b" stroke="none" stroke-width="0"/><path d="M494.92902,426.4948l-9.76442,-2.75001l0.90114,-3.32095l9.76442,2.75004z" fill="#663f3f" stroke="#000000" stroke-width="0.5"/><path d="M496.57234,422.13589l-9.78186,-2.6874l0.87988,-3.32666l9.78183,2.6874z" fill="#663f3f" stroke="#000000" stroke-width="0.5"/><path d="M493.66046,431.50976l-9.83882,-2.47069l0.80617,-3.34527l9.83885,2.47069z" fill="#663f3f" stroke="#000000" stroke-width="0.5"/><path d="M495.26752,418.8253l-10.3938,-0.53203l0.202,-4.24832l10.3938,0.53203z" fill="#663f3f" stroke="#000000" stroke-width="0.5"/><path d="M315.73341,425.4572l2.66793,-12.65135l15.81415,3.33488l-2.6679,12.65132z" data-paper-data="{&quot;index&quot;:null}" fill="#663f3f" stroke="#000000" stroke-width="0.5"/><path d="M322.32209,427.29035l1.98692,-9.94781l3.36778,0.70619l-1.98692,9.94781z" data-paper-data="{&quot;index&quot;:null}" fill="#663f3f" stroke="#000000" stroke-width="0.5"/><path d="M317.69703,426.75205l2.05064,-9.93486l3.3632,0.72775l-2.05064,9.93489z" data-paper-data="{&quot;index&quot;:null}" fill="#663f3f" stroke="#000000" stroke-width="0.5"/><path d="M327.38735,428.34326l2.26955,-9.88717l3.34631,0.80185l-2.26955,9.88714z" data-paper-data="{&quot;index&quot;:null}" fill="#663f3f" stroke="#000000" stroke-width="0.5"/><path d="M314.82775,423.06287l4.24873,-9.50067l3.87623,1.75036l-4.24873,9.50067z" data-paper-data="{&quot;index&quot;:null}" fill="#663f3f" stroke="#000000" stroke-width="0.5"/></g><path d="M333.69444,405.65624v-362h168v362z" fill="url(#color-2)" stroke="#000000" stroke-width="0"/><path d="M159.69444,422.15624v-158h379v158z" fill="url(#color-3)" stroke="#000000" stroke-width="0"/><path d="M-24,373.5v-387h528v387z" fill="url(#color-4)" stroke="#000000" stroke-width="2"/></g></g></svg>