<svg version="1.1" xmlns="http://www.w3.org/2000/svg" xmlns:xlink="http://www.w3.org/1999/xlink" width="489.86799" height="92.50903" viewBox="0,0,489.86799,92.50903"><g transform="translate(9.27033,-268.6472)"><g data-paper-data="{&quot;isPaintingLayer&quot;:true}" fill-rule="nonzero" stroke-linecap="butt" stroke-linejoin="miter" stroke-miterlimit="10" stroke-dasharray="" stroke-dashoffset="0" style="mix-blend-mode: normal"><path d="M-4.30557,358.65623l63,-85l353.5,-2.5l63.5,87.5z" fill="#9c9c9c" stroke="#000000" stroke-width="5"/><path d="M206.81246,356.8923c-2.23607,1.11803 -3.3541,-1.11803 -3.3541,-1.11803l0.4455,-0.74633c-1.17459,-0.41503 -2.48397,-0.55897 -3.52376,-1.24508c-3.34226,-2.20541 -2.71361,-3.15791 -5.27064,-5.19327c-2.51589,-2.0026 -4.72113,-3.69955 -7,-6c-3.58545,-2.37342 -7.34188,-4.54139 -10.8768,-6.90525c-2.80763,-1.8775 -5.08816,-5.03668 -7.85255,-6.90148c-3.05962,-2.06395 -7.70968,-2.31373 -10.91742,-3.95113c-2.26738,-1.15739 -3.55537,-3.80066 -5.84268,-4.91816c-2.5301,-1.23611 -5.66063,-1.54086 -7.69334,-3.48958c-0.86757,-0.83172 -1.1502,-2.15013 -2,-3c-0.84104,-0.8411 -2.13287,-1.13142 -2.97301,-1.97342c-2.60731,-2.61305 -3.06241,-6.68522 -7.25922,-6.29435c0,0 -2.5,0 -2.5,-2.5c0,-0.02478 0.00025,-0.04931 0.00073,-0.0736c-2.08529,0.1074 -4.15003,0.21589 -6.10492,0.54206c-2.44026,0.40715 -4.94867,0.74623 -7.21616,1.73572c-0.93541,0.4082 -1.27263,1.73331 -2.22294,2.10551c-1.10486,0.43274 -2.38688,-0.04338 -3.55625,0.15802c-3.16221,0.54464 -6.03925,2.24716 -8.676,3.92501c-7.90621,0.17951 -15.81634,0.10727 -23.72446,0.10727c-3.28248,0 -7.34778,-0.5091 -10.59954,-0.03228c-1.04294,0.15293 -1.96009,0.82768 -3,1c-0.92942,0.15401 -1.92076,-0.29526 -2.82607,-0.0346c-1.43252,0.41246 -2.54285,1.68544 -4,2c-2.86387,0.61824 -6.02404,-1.02765 -8.78933,-0.05958c-1.15385,0.40394 -1.7922,1.7175 -2.88652,2.26246c-2.34455,1.16755 -6.64125,2.12539 -9.29219,2.78936c0,0 -2.42536,0.60634 -3.0317,-1.81902c-0.60634,-2.42536 1.81902,-3.0317 1.81902,-3.0317c1.90357,-0.47497 6.50797,-1.52612 8.19464,-2.37292c1.32504,-0.66525 2.21501,-2.12186 3.62665,-2.57526c3.50477,-1.12569 5.73724,0.73734 9.21067,-0.05958c1.45296,-0.33336 2.56585,-1.59326 4,-2c1.01789,-0.28868 2.13044,0.14027 3.17393,-0.0346c1.0396,-0.17421 1.95602,-0.85438 3,-1c3.54233,-0.49412 7.81448,-0.03228 11.40046,-0.03228c7.42222,0 14.85717,-0.13567 22.27554,0.10727c2.73396,-1.92918 5.95108,-3.53268 9.324,-4.07499c0.80593,-0.12958 1.68885,0.46859 2.44375,0.15802c0.80072,-0.32942 0.98096,-1.55407 1.77706,-1.89449c2.78016,-1.1888 5.80172,-1.76477 8.78384,-2.26428c4.84538,-0.81161 10.71643,-0.02219 15.40378,-1.84644c2.64697,-1.03016 4.58724,-3.36719 7.39237,-4.11211c1.79186,-0.47583 3.85888,0.04128 5.50128,-0.81877c3.48594,-1.82544 6.6014,-4.6675 10.69792,-5.22193c1.65161,-0.22353 3.35483,0.2668 5,0c1.62172,-0.26299 3.0583,-1.26253 4.67245,-1.56857c1.75253,-0.33228 3.56071,-0.22 5.34106,-0.33c5.29282,-0.2113 9.86215,-1.2493 14.98649,-2.10143c2.11801,-0.35221 4.42554,0.05011 6.38907,-0.81857c1.19006,-0.52649 2.02317,-1.79599 3.28692,-2.10644c1.85338,-0.4553 3.81607,-0.08818 5.72446,-0.10727c6.74853,-0.0675 14.80124,1.34791 21.20943,-0.87171l0.0228,-0.39606c0,0 1.76777,-1.76777 3.53553,0c1.76777,1.76777 0,3.53553 0,3.53553l-1.9772,1.60394c-7.03032,2.27287 -15.43013,1.21341 -22.79057,1.12829c-1.42553,-0.01649 -2.89432,-0.46031 -4.27554,-0.10727c-1.06849,0.27311 -1.69494,1.4697 -2.71308,1.89356c-2.37018,0.98671 -5.07866,0.75841 -7.61093,1.18143c-5.2967,0.88483 -10.05868,1.93972 -15.5433,2.16003c-1.54744,0.08209 -3.12123,-0.0497 -4.64232,0.24626c-1.65932,0.32285 -3.1458,1.32276 -4.81438,1.59371c-1.64512,0.26714 -3.34389,-0.18733 -5,0c-3.53748,0.40013 -6.27621,3.31888 -9.30208,4.77807c-1.98318,0.95637 -4.35695,0.67089 -6.49872,1.18123c-2.54668,0.60681 -4.35346,2.99976 -6.80182,3.92673c-0.67183,0.25436 -1.3599,0.46323 -2.06028,0.63616c1.87946,1.78717 3.14311,4.35994 5.00322,6.21574c0.8596,0.85761 2.16835,1.16801 3.02699,2.02658c0.84987,0.8498 1.17364,2.12732 2,3c1.55574,1.64294 4.29083,1.4828 6.30666,2.51042c2.3709,1.20863 3.76426,3.9177 6.15732,5.08184c3.32847,1.6192 7.88875,1.94013 11.08258,4.04887c2.87593,1.89885 5.25395,5.17601 8.14745,7.09852c3.63043,2.41215 7.45821,4.63572 11.1232,7.09475c2.32925,2.31089 4.46193,3.96007 7,6c2.71788,2.18445 3.74287,4.50598 7.2056,5.56165l2.4455,3.25367c0,0 1.11803,2.23607 -1.11803,3.3541z" fill="#ffffff" stroke="none" stroke-width="0.5"/><path d="M328.81246,357.8923c-2.23607,1.11803 -3.3541,-1.11803 -3.3541,-1.11803l-1.26393,-3.11803c0.0781,-6.28948 -3.47207,-8.97013 -6.22734,-14.19914c-2.22502,-4.22269 -2.08183,-5.88116 -2.74753,-10.4473c0,0 -0.07202,-0.50414 0.07648,-1.08985c-1.79268,0.63007 -3.67414,1.05927 -5.36986,1.91179c-0.85937,0.43205 -1.1684,1.64886 -2.0521,2.02869c-3.04062,1.3069 -5.32223,0.66672 -8.0855,2.04367c-1.19171,0.59384 -2.07726,1.82481 -3.36969,2.14488c-0.50881,0.12601 -7.07273,0.10727 -8.72446,0.10727c-5,0 -10,0 -15,0c-2.33333,0 -4.66782,0.07344 -7,0c-0.68371,-0.02153 -1.41893,-0.46975 -2.04329,-0.1903c-0.86055,0.38516 -1.12462,1.64985 -2,2c-0.92848,0.37139 -2.05558,-0.32873 -3,0c-1.48086,0.51545 -2.079,2.35052 -3.18894,3.45807c-1.94283,1.93864 -4.12982,3.62408 -6.32384,5.27308c-2.65292,1.75612 -4.38912,3.56781 -6.67616,5.72692c-0.91862,0.86723 -1.6249,2.10723 -2.81106,2.54193c-0.52746,0.1933 -4.38699,0.15875 -5.9286,0.15208l0.47189,1.53822c0,0 0,2.5 -2.5,2.5c-2.5,0 -2.5,-2.5 -2.5,-2.5l0.47189,-4.46178c1.54255,-0.66865 2.98882,-1.63074 4.62765,-2.00594c1.12014,-0.25645 2.33736,0.4685 3.44375,0.15802c1.50968,-0.42365 2.07792,-2.35161 3.18894,-3.45807c1.61236,-1.60573 3.43423,-3.00524 5.32384,-4.27308c2.91757,-2.18307 5.07382,-4.27014 7.67616,-6.72692c0.91862,-0.86723 1.65364,-2.03564 2.81106,-2.54193c0.91618,-0.40077 2.07152,0.37139 3,0c0.87538,-0.35015 1.11512,-1.67463 2,-2c0.69174,-0.25435 7.27797,-0.1903 7.95671,-0.1903c6,0 12,0 18,0c2.42544,0 4.92424,0.70238 7.27554,0.10727c1.0401,-0.26325 1.66771,-1.3813 2.63031,-1.85512c2.4382,-1.20015 5.42171,-0.87413 7.9145,-1.95633c0.84738,-0.36787 1.12082,-1.55982 1.9479,-1.97131c2.76054,-1.37344 5.88471,-1.90881 8.65736,-3.25762c2.03896,-0.02267 4.05181,-0.52688 6.03436,-1.00375c1.77346,-0.42657 4.70752,0.18592 5.246,-1.55683c0.36148,-1.16993 -0.46535,-2.86753 0.48349,-3.64155c1.65638,-1.35122 4.11751,-1.15215 6.16116,-1.77893c2.78008,-0.85264 5.35233,-2.34837 8.1766,-3.0407c0.94209,-0.23094 1.97651,0.28303 2.9099,0.01908c1.46095,-0.41314 2.60974,-1.67293 4.09249,-1.99929c1.73086,-0.38098 3.55335,0.10912 5.31639,-0.07167c2.65206,-0.27195 5.237,-1.02408 7.88251,-1.35374c1.70526,-0.2125 3.4008,-0.53126 5.11613,-0.63465c1.12031,-0.06753 2.31869,0.53012 3.36477,0.12346c1.43253,-0.55688 2.27223,-2.12309 3.6303,-2.84274c2.13858,-1.13325 3.15792,-1.42564 4.24648,-1.2745c-0.25183,-0.66527 -0.51728,-1.3231 -0.96041,-1.85654c-0.68393,-0.82333 -1.89187,-1.03193 -2.71078,-1.72115c-2.99837,-2.52356 -7.22511,-6.18772 -9.44313,-9.47158c-0.86722,-1.28394 -1.2788,-2.83267 -2.09852,-4.14745c-0.92948,-1.49082 -2.36615,-2.65816 -3.13072,-4.2399c-1.48213,-3.06623 -1.22516,-4.98752 -1.24266,-8.07443c0,0 0,-2.5 2.5,-2.5c2.5,0 2.5,2.5 2.5,2.5c-0.03305,4.75506 1.09845,5.65149 3.62663,9.68567c0.76048,1.21348 1.11557,2.65538 1.90148,3.85255c1.3588,2.06986 3.5266,3.47653 5.2752,5.22954c1.09538,1.09814 2.09919,2.29513 3.28167,3.29888c1.01688,0.86318 2.43375,1.25548 3.28922,2.27885c0.88903,1.06351 0.79329,2.77617 1.76381,3.76587c0.64944,0.66227 1.87766,0.29029 2.67632,0.76201c0.81179,0.47947 1.19155,1.51493 2,2c0.90388,0.54233 2.09846,0.45379 3,1c1.80588,1.09411 3.10289,2.92439 4.94049,3.96435c5.12655,2.9013 10.48556,5.50151 16.13741,7.10519c4.79243,1.0037 8.22538,3.71816 12.33565,6.3322c0.66354,0.422 1.19616,1.11457 1.95521,1.32001c1.05376,0.2852 2.26669,-0.3265 3.27363,0.09517c2.06724,0.86569 2.5723,3.24876 4.76775,3.91697c0.85368,0.25983 1.79602,-0.2231 2.676,-0.07499c6.65338,1.11987 13.79591,4.52899 19.09954,8.46772l-0.5,-0.5c0,0 2.5,0 2.5,2.5c0,2.5 -2.5,2.5 -2.5,2.5l-2.5,-0.5c-4.61633,-3.50168 -11.06823,-6.57008 -16.90046,-7.53228c-1.0935,-0.18041 -2.27884,0.2937 -3.324,-0.07499c-1.43888,-0.50757 -2.65764,-1.5207 -3.86051,-2.45937c-0.55857,-0.43588 -0.70789,-1.37606 -1.37174,-1.62366c-0.85201,-0.31778 -1.8553,0.3562 -2.72637,0.09517c-5.24416,-1.57149 -8.58329,-6.61113 -14.09391,-7.60058c-6.11,-1.75624 -11.94994,-4.45665 -17.47783,-7.64202c-1.86917,-1.07708 -3.20433,-2.93465 -5.05951,-4.03565c-0.90648,-0.53797 -2.09612,-0.45767 -3,-1c-0.53872,-0.32323 -0.88987,-0.8862 -1.30256,-1.37085c-0.00373,0.01156 -0.00753,0.02316 -0.01141,0.03479c-0.79057,2.37171 -3.16228,1.58114 -3.16228,1.58114c-0.73648,-0.29057 -1.4183,-0.84098 -2.20943,-0.87171c-2.43736,-0.09466 -3.9176,3.03674 -6.20943,3.87171c-1.45224,0.52909 -3.09419,0.00445 -4.63523,0.12346c-1.61009,0.12434 -3.20431,0.40475 -4.80665,0.6057c-2.68446,0.33666 -5.30826,1.09976 -8.00052,1.36707c-1.55358,0.15425 -3.16007,-0.37483 -4.68353,-0.03358c-1.48455,0.33253 -2.63713,1.58996 -4.10177,2.00145c-0.99166,0.2786 -2.08864,-0.22192 -3.0901,0.01908c-1.48848,0.3582 -2.81583,1.20512 -4.24778,1.74677c-1.17714,0.44527 -2.33993,0.97383 -3.57562,1.21253c-1.19432,0.23071 -2.68029,-0.55915 -3.64464,0.18223c-0.63812,0.49057 0.65143,1.67846 0.2893,2.39729c-0.6708,1.33153 -1.78863,2.52833 -3.11438,3.21048c-2.12726,1.09455 -6.1173,1.87145 -9.27584,2.13337c0.47033,0.60374 0.57107,1.30889 0.57107,1.30889c0.51683,3.70263 0.41346,5.47515 2.21048,8.80321c1.24566,2.30695 3.37657,4.07233 4.54435,6.41966c1.59355,3.20319 2.23698,6.62044 2.2703,10.13069l0.73607,0.88197c0,0 1.11803,2.23607 -1.11803,3.3541z" fill="#ffffff" stroke="none" stroke-width="0.5"/></g></g></svg>