<svg version="1.1" xmlns="http://www.w3.org/2000/svg" xmlns:xlink="http://www.w3.org/1999/xlink" width="22.13383" height="18.48111" viewBox="0,0,22.13383,18.48111"><defs><linearGradient x1="239.9315" y1="184.48152" x2="239.9315" y2="188.86651" gradientUnits="userSpaceOnUse" id="color-1"><stop offset="0" stop-color="#000000" stop-opacity="0"/><stop offset="1" stop-color="#000000"/></linearGradient><linearGradient x1="243.51898" y1="179.9523" x2="251.06691" y2="179.9523" gradientUnits="userSpaceOnUse" id="color-2"><stop offset="0" stop-color="#000000" stop-opacity="0"/><stop offset="1" stop-color="#000000"/></linearGradient></defs><g transform="translate(-228.93309,-170.4187)"><g data-paper-data="{&quot;isPaintingLayer&quot;:true}" fill-rule="nonzero" stroke-linecap="butt" stroke-linejoin="miter" stroke-miterlimit="10" stroke-dasharray="" stroke-dashoffset="0" style="mix-blend-mode: normal"><path d="M229.02596,188.89981v-17.79963h21.97388v17.79963z" fill="#000000" stroke="none" stroke-width="0"/><path d="M247.72802,176.47974l0.22872,-0.44267l0.94857,0.49011l-0.22872,0.44267z" fill="#663f3f" stroke="#000000" stroke-width="0.5"/><path d="M248.05528,177.00937l0.22872,-0.44267l0.94857,0.49011l-0.22872,0.44267z" fill="#663f3f" stroke="#000000" stroke-width="0.5"/><path d="M247.33911,175.79808l0.22872,-0.44267l0.94857,0.49011l-0.22871,0.44267z" fill="#663f3f" stroke="#000000" stroke-width="0.5"/><path d="M247.0042,176.44628l0.22872,-0.44267l0.94857,0.49011l-0.22872,0.44267z" fill="#663f3f" stroke="#000000" stroke-width="0.5"/><path d="M248.39835,176.34537l0.22872,-0.44267l0.94857,0.49011l-0.22872,0.44267z" fill="#663f3f" stroke="#000000" stroke-width="0.5"/><path d="M247.5491,177.36877l0.94755,-1.83391l0.5059,0.26139l-0.94755,1.83391z" fill="#663f3f" stroke="#000000" stroke-width="0.5"/><path d="M238.03748,176.96985l-0.22871,-0.44267l0.94857,-0.49011l0.22872,0.44267z" fill="#663f3f" stroke="#000000" stroke-width="0.5"/><path d="M237.71022,177.49948l-0.22872,-0.44267l0.94857,-0.49011l0.22872,0.44267z" fill="#663f3f" stroke="#000000" stroke-width="0.5"/><path d="M238.42639,176.28819l-0.22872,-0.44267l0.94857,-0.49011l0.22872,0.44267z" fill="#663f3f" stroke="#000000" stroke-width="0.5"/><path d="M238.7613,176.93638l-0.22872,-0.44267l0.94857,-0.49011l0.22872,0.44267z" fill="#663f3f" stroke="#000000" stroke-width="0.5"/><path d="M237.36715,176.83548l-0.22872,-0.44267l0.94857,-0.49011l0.22872,0.44267z" fill="#663f3f" stroke="#000000" stroke-width="0.5"/><path d="M238.65907,177.63016l-0.94754,-1.83391l0.5059,-0.26139l0.94754,1.83391z" fill="#663f3f" stroke="#000000" stroke-width="0.5"/><path d="M250.79321,181.77977c0,3.80546 -3.25449,6.99478 -7.29058,6.99478c-4.03608,0 -6.94258,-3.34593 -6.94258,-7.15138c0,-1.30959 -0.12559,-2.53315 0.49041,-3.64329c1.17401,-2.11576 3.80503,-3.68209 6.45217,-3.68209c4.03608,0 7.29058,3.67653 7.29058,7.48198z" fill="#00c3c5" stroke="#929292" stroke-width="0"/><path d="M241.03448,180.5456c-0.06494,0.74674 -0.60651,1.30958 -1.20965,1.25713c-0.60314,-0.05245 -1.03944,-0.70032 -0.9745,-1.44706c0.06494,-0.74674 0.60651,-1.30958 1.20965,-1.25713c0.60314,0.05245 1.03944,0.70032 0.97451,1.44706z" fill="#000000" stroke="none" stroke-width="0"/><path d="M247.76826,181.2764c-0.06494,0.74674 -0.60651,1.30958 -1.20965,1.25713c-0.60314,-0.05245 -1.03944,-0.70031 -0.9745,-1.44706c0.06494,-0.74674 0.60651,-1.30958 1.20965,-1.25713c0.60314,0.05245 1.03944,0.70032 0.97451,1.44706z" fill="#000000" stroke="none" stroke-width="0"/><path d="M239.00281,180.45064c0,-0.51893 0.42067,-0.9396 0.9396,-0.9396c0.51893,0 0.9396,0.42067 0.9396,0.9396c0,0.51893 -0.42067,0.9396 -0.9396,0.9396c-0.51893,0 -0.9396,-0.42067 -0.9396,-0.9396z" fill="#fff1f1" stroke="none" stroke-width="0"/><path d="M245.78879,181.18144c0,-0.51893 0.42067,-0.9396 0.9396,-0.9396c0.51893,0 0.9396,0.42067 0.9396,0.9396c0,0.51893 -0.42067,0.9396 -0.9396,0.9396c-0.51893,0 -0.9396,-0.42067 -0.9396,-0.9396z" fill="#fff1f1" stroke="none" stroke-width="0"/><path d="M239.62921,180.50284c0,-0.14415 0.11685,-0.261 0.261,-0.261c0.14415,0 0.261,0.11685 0.261,0.261c0,0.14415 -0.11685,0.261 -0.261,0.261c-0.14415,0 -0.261,-0.11685 -0.261,-0.261z" fill="#000000" stroke="none" stroke-width="0.5"/><path d="M246.36299,181.28584c0,-0.14415 0.11685,-0.261 0.261,-0.261c0.14415,0 0.261,0.11685 0.261,0.261c0,0.14415 -0.11685,0.261 -0.261,0.261c-0.14415,0 -0.261,-0.11685 -0.261,-0.261z" fill="#000000" stroke="none" stroke-width="0.5"/><path d="M247.11843,183.98791c0.11672,0.23344 -0.11672,0.35017 -0.11672,0.35017l-0.16892,0.07976c-0.81129,0.60504 -1.77208,1.01854 -2.56876,1.62599c-1.22294,0.69515 -2.3983,-0.39651 -3.37106,-1.044c-0.53094,-0.3534 -1.10582,-0.71355 -1.25869,-1.366c0,0 -0.05119,-0.25593 0.20474,-0.30711c0.25593,-0.05119 0.30711,0.20474 0.30711,0.20474c0.06573,0.4709 0.66975,0.78925 1.0381,1.03519c0.68651,0.45836 1.89494,1.63153 2.78852,1.044c0.80541,-0.59559 1.74111,-1.00315 2.54683,-1.6104l0.24867,-0.12904c0,0 0.23344,-0.11672 0.35017,0.11672z" fill="#000000" stroke="none" stroke-width="0.5"/><path d="M236.59336,175.86714c0,0 -1.39867,-1.68959 -0.73922,-2.29505c0.65945,-0.60546 2.34223,1.06118 2.34223,1.06118c0,0 0.62831,0.85053 -0.03114,1.45599c-0.65945,0.60546 -1.57187,-0.22212 -1.57187,-0.22212z" fill="#00c3c5" stroke="#000000" stroke-width="0"/><path d="M248.50678,175.98486c-0.65945,-0.60546 -0.03114,-1.45599 -0.03114,-1.45599c0,0 1.68278,-1.66665 2.34223,-1.06118c0.65945,0.60546 -0.73923,2.29505 -0.73923,2.29505c0,0 -0.91241,0.82759 -1.57187,0.22212z" data-paper-data="{&quot;index&quot;:null}" fill="#00c3c5" stroke="#000000" stroke-width="0"/><path d="M236.99924,175.6844c0,0 -0.8228,-0.99393 -0.43486,-1.3501c0.38793,-0.35617 1.37786,0.62426 1.37786,0.62426c0,0 0.36962,0.50034 -0.01832,0.85651c-0.38793,0.35617 -0.92468,-0.13067 -0.92468,-0.13067z" fill="#00a5a8" stroke="#000000" stroke-width="0"/><path d="M248.80029,175.71067c-0.38793,-0.35617 -0.01832,-0.85651 -0.01832,-0.85651c0,0 0.98992,-0.98043 1.37786,-0.62426c0.38793,0.35617 -0.43486,1.3501 -0.43486,1.3501c0,0 -0.53674,0.48684 -0.92468,0.13067z" data-paper-data="{&quot;index&quot;:null}" fill="#00a5a8" stroke="#000000" stroke-width="0"/><path d="M244.20794,182.41407c-0.05526,0.3269 -0.50287,0.5238 -0.99975,0.4398c-0.49688,-0.084 -0.85489,-0.4171 -0.79962,-0.744c0.05526,-0.3269 0.50287,-0.5238 0.99975,-0.4398c0.49688,0.084 0.85489,0.4171 0.79962,0.744z" fill="#00b1b4" stroke="none" stroke-width="0"/><path d="M242.96999,182.23587c0,-0.14415 0.11685,-0.261 0.261,-0.261c0.14415,0 0.261,0.11685 0.261,0.261c0,0.14415 -0.11685,0.261 -0.261,0.261c-0.14415,0 -0.261,-0.11685 -0.261,-0.261z" fill="#000000" stroke="none" stroke-width="0.5"/><text transform="translate(229.22179,173.50464) scale(0.067,0.067)" font-size="40" xml:space="preserve" fill="#ffffff" fill-rule="nonzero" stroke="none" stroke-width="1" stroke-linecap="butt" stroke-linejoin="miter" stroke-miterlimit="10" stroke-dasharray="" stroke-dashoffset="0" font-family="&quot;ヒラギノ角ゴ Pro W3&quot;, &quot;Hiragino Kaku Gothic Pro&quot;, Osaka, &quot;メイリオ&quot;, Meiryo, &quot;ＭＳ Ｐゴシック&quot;, &quot;MS PGothic&quot;" font-weight="normal" text-anchor="start" style="mix-blend-mode: normal"><tspan x="0" dy="0">Six</tspan><tspan x="0" dy="46.150000000000006px">Nights</tspan><tspan x="0" dy="46.150000000000006px">At</tspan><tspan x="0" dy="46.150000000000006px">Guerphi's</tspan></text><path d="M228.93309,188.86651v-4.38499h21.99683v4.38499z" fill="url(#color-1)" stroke="none" stroke-width="0"/><path d="M243.51898,188.67058v-17.43655h7.54793v17.43655z" fill="url(#color-2)" stroke="none" stroke-width="0"/></g></g></svg>