<svg version="1.1" xmlns="http://www.w3.org/2000/svg" xmlns:xlink="http://www.w3.org/1999/xlink" width="89.64094" height="284.09887" viewBox="0,0,89.64094,284.09887"><g transform="translate(-200.22159,-38.07557)"><g data-paper-data="{&quot;isPaintingLayer&quot;:true}" fill-rule="nonzero" stroke-linecap="butt" stroke-linejoin="miter" stroke-miterlimit="10" stroke-dasharray="" stroke-dashoffset="0" style="mix-blend-mode: normal"><g><g data-paper-data="{&quot;index&quot;:null}" fill="#663f3f" stroke="#000000" stroke-width="0.5"><path d="M210.33282,225.86477l0.82904,-2.19758l4.70911,1.77651l-0.82903,2.19759z"/><path d="M207.4453,226.38926l0.82905,-2.19759l4.70911,1.77651l-0.82904,2.19759z"/><path d="M213.9474,225.07662l0.82902,-2.19757l4.70912,1.7765l-0.82905,2.19759z"/><path d="M212.7334,228.29454l0.82904,-2.19759l4.70914,1.77649l-0.82905,2.19759z"/><path d="M208.68883,223.09285l0.82904,-2.19759l4.70914,1.77651l-0.82905,2.19759z"/><path d="M209.9808,230.12507l3.43459,-9.10431l2.51154,0.94746l-3.43458,9.1043z"/></g><g data-paper-data="{&quot;index&quot;:null}" fill="#663f3f" stroke="#000000" stroke-width="0.5"><path d="M264.87406,234.51017l0.09879,-2.34669l5.02862,0.21169l-0.09879,2.34668z"/><path d="M262.29625,235.91291l0.09879,-2.34669l5.02861,0.21168l-0.09878,2.34669z"/><path d="M268.05972,232.62924l0.09879,-2.34668l5.02862,0.21168l-0.09879,2.34669z"/><path d="M267.91506,236.0655l0.09879,-2.3467l5.02862,0.21168l-0.09879,2.34669z"/><path d="M262.4444,232.39287l0.09879,-2.34669l5.02863,0.21168l-0.09879,2.34669z"/><path d="M265.87451,238.66627l0.40926,-9.722l2.68194,0.1129l-0.40926,9.72199z"/></g><g data-paper-data="{&quot;index&quot;:null}" fill="#663f3f" stroke="#000000" stroke-width="0.5"><path d="M264.87406,308.17016l0.09879,-2.34668l5.02862,0.21169l-0.09879,2.34668z"/><path d="M262.29625,309.57291l0.09879,-2.34669l5.02861,0.21168l-0.09878,2.34669z"/><path d="M268.05972,306.28924l0.09879,-2.34668l5.02862,0.21168l-0.09879,2.34669z"/><path d="M267.91506,309.7255l0.09879,-2.3467l5.02862,0.21168l-0.09879,2.34669z"/><path d="M262.4444,306.05287l0.09879,-2.34669l5.02863,0.21168l-0.09879,2.3467z"/><path d="M265.87451,312.32626l0.40926,-9.72201l2.68194,0.11289l-0.40926,9.722z"/></g><g data-paper-data="{&quot;index&quot;:null}" fill="#663f3f" stroke="#000000" stroke-width="0.5"><path d="M223.70894,310.1097l-0.01752,-2.3487l5.03294,-0.03753l0.01752,2.34869z"/><path d="M221.20373,311.63834l-0.01751,-2.3487l5.03292,-0.03753l0.01753,2.3487z"/><path d="M226.79757,308.07335l-0.01752,-2.34869l5.03294,-0.03753l0.01752,2.3487z"/><path d="M226.82321,311.51256l-0.01751,-2.34871l5.03294,-0.03753l0.01752,2.3487z"/><path d="M221.17744,308.11528l-0.01752,-2.3487l5.03294,-0.03755l0.01751,2.34871z"/><path d="M224.91391,314.21116l-0.07256,-9.73034l2.68424,-0.02002l0.07257,9.73034z"/></g><g data-paper-data="{&quot;index&quot;:null}" fill="#663f3f" stroke="#000000" stroke-width="0.5"><path d="M229.52154,244.15453l1.30294,-3.09586l6.634,2.79202l-1.30295,3.09586z"/><path d="M225.36695,244.74872l1.30295,-3.09586l6.63398,2.79201l-1.30293,3.09587z"/><path d="M234.72934,243.22265l1.30293,-3.09585l6.634,2.79202l-1.30295,3.09586z"/><path d="M232.82142,247.75592l1.30295,-3.09587l6.634,2.79202l-1.30295,3.09586z"/><path d="M227.32133,240.10491l1.30294,-3.09587l6.63402,2.79201l-1.30296,3.09587z"/><path d="M228.78933,250.22376l5.39791,-12.82574l3.53814,1.48907l-5.3979,12.82574z"/></g><g data-paper-data="{&quot;index&quot;:null}" fill="#663f3f" stroke="#000000" stroke-width="0.5"><path d="M247.47766,247.74655l-1.30295,-3.09586l6.634,-2.79202l1.30294,3.09586z"/><path d="M251.63227,248.34074l-1.30293,-3.09587l6.63398,-2.79201l1.30295,3.09586z"/><path d="M242.2699,246.81468l-1.30294,-3.09585l6.634,-2.79202l1.30293,3.09584z"/><path d="M244.17778,251.34793l-1.30295,-3.09586l6.634,-2.79202l1.30295,3.09588z"/><path d="M249.67787,243.69693l-1.30296,-3.09587l6.63402,-2.79201l1.30294,3.09587z"/><path d="M251.30574,252.51283l-5.3979,-12.82573l3.53814,-1.48908l5.39791,12.82574z"/></g><path d="M237.28773,284.15251c-0.89636,17.53088 -4.85634,24.15499 -10.53539,23.74528c-5.67905,-0.40971 -10.41073,-7.01644 -9.51437,-24.54732c0.47438,-9.27784 3.16309,-24.17034 5.74106,-31.91904c2.29321,-6.89281 4.34579,-7.21146 7.01933,-7.01858c3.18842,0.23003 6.37149,0.01689 7.51916,9.19056c0.8965,7.16601 0.16332,22.86067 -0.22979,30.54909z" fill="#a9a600" stroke="#929292" stroke-width="1"/><path d="M247.27947,255.02211c-0.51382,-9.2309 2.65596,-9.59127 5.75163,-10.3886c2.59577,-0.66858 4.67222,-0.72268 8.16282,5.64799c3.92403,7.16171 9.23643,21.3319 11.36474,30.37478c4.02153,17.08691 0.54957,24.43424 -4.96429,25.8544c-5.51385,1.42016 -10.59614,-4.38764 -14.61768,-21.47455c-1.7637,-7.49371 -5.29585,-22.80332 -5.69722,-30.01402z" data-paper-data="{&quot;index&quot;:null}" fill="#a9a600" stroke="#929292" stroke-width="1"/><path d="M235.6957,317.27445c0,3.75554 -3.00558,4.4 -7.7,4.4c-4.69442,0 -8.1,-0.64446 -8.1,-4.4c0,-3.75554 3.20558,-5.2 7.9,-5.2c4.69442,0 7.9,1.44446 7.9,5.2z" fill="#a9a600" stroke="#929292" stroke-width="1"/><path d="M276.29569,313.87444c0,3.75554 -1.60558,2.8 -6.3,2.8c-4.69442,0 -7.34136,0.94247 -7.3,-3.2c0.04962,-4.96891 2.00558,-3.6 6.7,-3.6c4.69442,0 6.9,0.24446 6.9,4z" fill="#a9a600" stroke="#929292" stroke-width="1"/><path d="M267.09835,235.48353c3.12952,-0.16815 5.36274,1.2593 5.73754,6.26155c0.31361,4.18563 -1.91669,4.33201 -5.04621,4.50016c-3.12952,0.16815 -6.27423,0.3061 -6.28677,-3.89125c-0.01308,-4.37842 2.46593,-6.70232 5.59545,-6.87047z" data-paper-data="{&quot;index&quot;:null}" fill="#a9a600" stroke="#000000" stroke-width="0"/><path d="M274.41306,246.88734v-0.4c0.02206,-2.93732 -0.82148,-4.46591 -2.95023,-6.23972c0,0 -0.96028,-0.80024 -0.16005,-1.76051c0.80023,-0.96027 1.76051,-0.16004 1.76051,-0.16004c2.71211,2.26028 3.82788,4.53149 3.84977,8.16028v0.4c0,0 0,1.25 -1.25,1.25c-1.25,0 -1.25,-1.25 -1.25,-1.25z" data-paper-data="{&quot;index&quot;:null}" fill="#a9a600" stroke="none" stroke-width="0.5"/><path d="M270.58345,252.68733l0.06414,-0.80472c-0.74736,-2.26978 -0.23708,-4.62187 -1,-6.8c0,0 -0.39529,-1.18586 0.79057,-1.58114c1.18586,-0.39529 1.58114,0.79057 1.58114,0.79057c0.72541,2.25889 0.23358,4.5339 1,6.8l0.06414,1.59528c0,0 0,1.25 -1.25,1.25c-1.25,0 -1.25,-1.25 -1.25,-1.25z" data-paper-data="{&quot;index&quot;:null}" fill="#a9a600" stroke="none" stroke-width="0.5"/><path d="M265.62077,253.78417l0.16268,-0.49683c0,-2.58778 -0.04954,-5.1474 0.20621,-7.72438c0,0 0.12438,-1.2438 1.36817,-1.11942c1.24379,0.12438 1.11942,1.36818 1.11942,1.36818c-0.25122,2.4922 -0.19379,4.97222 -0.19379,7.47562l-0.23732,1.10316c0,0 -0.30317,1.21268 -1.51585,0.90951c-1.21268,-0.30317 -0.90951,-1.51585 -0.90951,-1.51585z" data-paper-data="{&quot;index&quot;:null}" fill="#a9a600" stroke="none" stroke-width="0.5"/><path d="M260.79625,251.78417l0.4,-1.6c0.60062,-2.34011 0.4518,-3.87658 2.03659,-5.8777c0,0 0.78087,-0.97609 1.75696,-0.19522c0.97609,0.78087 0.19522,1.75696 0.19522,1.75696c-1.32277,1.6331 -1.07036,2.90564 -1.5634,4.9223l-0.4,1.6c0,0 -0.30317,1.21268 -1.51585,0.90951c-1.21268,-0.30317 -0.90951,-1.51585 -0.90951,-1.51585z" data-paper-data="{&quot;index&quot;:null}" fill="#a9a600" stroke="none" stroke-width="0.5"/><path d="M271.03434,241.31141c0,2.3063 -1.83563,4.17593 -4.1,4.17593c-2.26436,0 -4.1,-1.86963 -4.1,-4.17593c0,-2.3063 1.83564,-4.17593 4.1,-4.17593c2.26436,0 4.1,1.86963 4.1,4.17593z" fill="#cbc700" stroke="#000000" stroke-width="0"/><path d="M257.84018,248.24315l0.54971,-1.33087c0.81746,-1.9445 0.88504,-3.29056 2.50927,-4.81665c0,0 0.79904,-0.74338 1.54242,0.05565c0.74338,0.79904 -0.05566,1.54242 -0.05566,1.54242c-1.35094,1.24167 -1.29536,2.373 -1.97861,4.05186l-0.54972,1.33087c0,0 -0.41664,1.0087 -1.42534,0.59206c-1.0087,-0.41664 -0.59206,-1.42534 -0.59206,-1.42534z" data-paper-data="{&quot;index&quot;:null}" fill="#a9a600" stroke="none" stroke-width="0.5"/><g><path d="M216.44865,234.54752c-0.94121,4.09047 -3.9774,3.25994 -6.99209,2.40333c-3.01469,-0.85661 -5.1573,-1.49299 -3.92508,-5.50541c1.47263,-4.79525 3.96639,-5.69302 6.98108,-4.83641c3.01469,0.85661 4.9179,3.67154 3.93609,7.93848z" fill="#a9a600" stroke="#000000" stroke-width="0"/><path d="M204.6138,244.37314c-1.23391,-0.19992 -1.03399,-1.43383 -1.03399,-1.43383l0.31846,-1.56449c1.11898,-2.11436 0.99733,-4.43874 2.07468,-6.55253c0,0 0.57985,-1.10737 1.68723,-0.52752c1.10737,0.57985 0.52752,1.68723 0.52752,1.68723c-1.10146,2.02808 -0.97392,4.4315 -2.07468,6.55253l-0.06538,0.80462c0,0 -0.19992,1.23391 -1.43383,1.03399z" fill="#a9a600" stroke="none" stroke-width="0.5"/><path d="M209.03359,246.04605c-1.24556,0.10532 -1.35088,-1.14024 -1.35088,-1.14024l-0.05783,-1.12693c0.40038,-2.47118 0.85371,-4.91009 1.00431,-7.41038c0,0 0.07615,-1.24768 1.32383,-1.17154c1.24768,0.07615 1.17154,1.32383 1.17154,1.32383c-0.15969,2.58472 -0.61797,5.10346 -1.03184,7.65793l0.08113,0.51645c0,0 0.10532,1.24556 -1.14024,1.35088z" fill="#a9a600" stroke="none" stroke-width="0.5"/><path d="M213.99521,245.32115c-1.24556,0.10532 -1.35088,-1.14024 -1.35088,-1.14024l-0.13895,-1.64337c-0.16416,-2.06956 0.28852,-3.28534 -0.75604,-5.10898c0,0 -0.61471,-1.08841 0.47371,-1.70311c1.08841,-0.61471 1.70311,0.47371 1.70311,0.47371c1.24435,2.22884 0.85171,3.72172 1.07033,6.12776l0.13895,1.64337c0,0 0.10532,1.24556 -1.14024,1.35088z" fill="#a9a600" stroke="none" stroke-width="0.5"/><path d="M201.26755,238.76578c-1.23391,-0.19992 -1.03399,-1.43383 -1.03399,-1.43383l0.06397,-0.39486c0.60197,-3.57858 2.06662,-5.64211 5.10533,-7.43953c0,0 1.0759,-0.63635 1.71225,0.43955c0.63635,1.0759 -0.43955,1.71225 -0.43955,1.71225c-2.38505,1.41052 -3.46219,2.78452 -3.9102,5.68756l-0.06397,0.39486c0,0 -0.19992,1.23391 -1.43383,1.03399z" fill="#a9a600" stroke="none" stroke-width="0.5"/><path d="M215.1864,232.89032c-0.36886,2.27661 -2.47988,3.82859 -4.7151,3.46645c-2.23523,-0.36215 -3.74821,-2.50129 -3.37935,-4.7779c0.36886,-2.27661 2.47988,-3.82859 4.7151,-3.46645c2.23523,0.36215 3.74821,2.50129 3.37935,4.7779z" fill="#cbc700" stroke="#000000" stroke-width="0"/><path d="M218.88086,241.79211c0,0 0.21726,1.06952 -0.85225,1.28677c-1.06952,0.21726 -1.28678,-0.85225 -1.28678,-0.85225l-0.28665,-1.41111c-0.35159,-1.77815 -0.08193,-2.87826 -1.17216,-4.35415c0,0 -0.64312,-0.88174 0.23861,-1.52486c0.88174,-0.64312 1.52487,0.23862 1.52487,0.23862c1.30445,1.80707 1.11488,3.14141 1.54773,5.20587l0.28665,1.41111z" data-paper-data="{&quot;index&quot;:null}" fill="#a9a600" stroke="none" stroke-width="0.5"/></g><path d="M221.9241,140.87558l-5.75,-16.75h62c0,0 1.665,5.82971 0.9023,8.65618c-0.39596,1.4674 -5.1523,7.09382 -5.1523,7.09382z" fill="#000000" stroke="none" stroke-width="0"/><path d="M264.53612,126.79717c0,2.4936 -0.38752,12.36591 -4.54152,17.56689c-3.03094,3.79487 -9.72502,3.61492 -11.54938,3.61492c-1.78105,0 -8.14211,0.14173 -11.74409,-3.89408c-4.2298,-4.73926 -5.61955,-13.93007 -5.61955,-16.46955c0,-8.03324 8.025,-8.72727 17.36364,-8.72727c9.33863,0 16.09091,-0.12415 16.09091,7.90909z" fill="#980002" stroke="none" stroke-width="0"/><path d="M254.25342,133.47085c-0.0659,1.70915 0.39617,2.98069 -2.4804,3.258c-0.50098,0.04829 -2.75611,0.17913 -3.2919,0.15847c-1.31341,-0.05065 -4.16677,-0.28509 -5.17719,-0.69482c-1.76852,-0.71714 -1.01753,-1.4492 -0.96828,-2.72634c0.07738,-2.00681 2.54768,-1.81227 6.15995,-1.67298c3.61227,0.1393 5.8352,-0.32916 5.75781,1.67766z" fill="#300001" stroke="none" stroke-width="0"/><path d="M258.40702,180.84371l-2.06624,-2.64814l5.6746,-4.42767l2.06625,2.64814z" fill="#663f3f" stroke="#000000" stroke-width="0.5"/><path d="M256.89804,184.75991l-2.06624,-2.64814l5.67458,-4.42766l2.06626,2.64813z" fill="#663f3f" stroke="#000000" stroke-width="0.5"/><path d="M260.13527,175.84344l-2.06624,-2.64812l5.6746,-4.42767l2.06624,2.64814z" fill="#663f3f" stroke="#000000" stroke-width="0.5"/><path d="M263.16087,179.72113l-2.06625,-2.64816l5.6746,-4.42768l2.06624,2.64814z" fill="#663f3f" stroke="#000000" stroke-width="0.5"/><path d="M253.79867,180.78771l-2.06624,-2.64814l5.67459,-4.42769l2.06625,2.64816z" fill="#663f3f" stroke="#000000" stroke-width="0.5"/><path d="M263.34704,184.44484l-8.56018,-10.97089l3.02645,-2.36144l8.56018,10.97088z" fill="#663f3f" stroke="#000000" stroke-width="0.5"/><path d="M217.8753,170.25375l2.16002,-2.57221l5.51191,4.62863l-2.16002,2.57222z" fill="#663f3f" stroke="#000000" stroke-width="0.5"/><path d="M219.24264,174.22164l2.16004,-2.57222l5.5119,4.62863l-2.16002,2.57222z" fill="#663f3f" stroke="#000000" stroke-width="0.5"/><path d="M216.32775,165.19466l2.16002,-2.57222l5.5119,4.62864l-2.16001,2.57221z" fill="#663f3f" stroke="#000000" stroke-width="0.5"/><path d="M213.16484,168.96114l2.16002,-2.57222l5.5119,4.62864l-2.16003,2.57224z" fill="#663f3f" stroke="#000000" stroke-width="0.5"/><path d="M222.48271,170.3633l2.16003,-2.57224l5.5119,4.62865l-2.16002,2.57222z" fill="#663f3f" stroke="#000000" stroke-width="0.5"/><path d="M215.38134,175.83514l8.9487,-10.65635l2.93968,2.46861l-8.94869,10.65636z" fill="#663f3f" stroke="#000000" stroke-width="0.5"/><path d="M278.88777,66.71791l0.64249,-2.0362l4.36329,1.37677l-0.64249,2.0362z" fill="#663f3f" stroke="#000000" stroke-width="0.5"/><path d="M280.65639,68.71528l0.6425,-2.0362l4.36328,1.37677l-0.64249,2.0362z" fill="#663f3f" stroke="#000000" stroke-width="0.5"/><path d="M276.7478,64.12358l0.64249,-2.0362l4.36329,1.37677l-0.64249,2.03619z" fill="#663f3f" stroke="#000000" stroke-width="0.5"/><path d="M275.80699,67.10517l0.64249,-2.0362l4.36329,1.37677l-0.64249,2.03621z" fill="#663f3f" stroke="#000000" stroke-width="0.5"/><path d="M281.62014,65.66097l0.64249,-2.03621l4.36329,1.37678l-0.64249,2.0362z" fill="#663f3f" stroke="#000000" stroke-width="0.5"/><path d="M278.78153,70.6025l2.66176,-8.43569l2.32709,0.73428l-2.66176,8.4357z" fill="#663f3f" stroke="#000000" stroke-width="0.5"/><path d="M271.02167,92.39559l1.13806,-1.80658l3.87125,2.4387l-1.13806,1.80658z" fill="#663f3f" stroke="#000000" stroke-width="0.5"/><path d="M272.22569,94.77631l1.13807,-1.80658l3.87124,2.43869l-1.13806,1.80658z" fill="#663f3f" stroke="#000000" stroke-width="0.5"/><path d="M269.6099,89.34323l1.13806,-1.80658l3.87124,2.4387l-1.13806,1.80657z" fill="#663f3f" stroke="#000000" stroke-width="0.5"/><path d="M267.94345,91.98858l1.13806,-1.80658l3.87125,2.4387l-1.13806,1.80658z" fill="#663f3f" stroke="#000000" stroke-width="0.5"/><path d="M273.93278,92.06645l1.13806,-1.80658l3.87124,2.4387l-1.13806,1.80658z" fill="#663f3f" stroke="#000000" stroke-width="0.5"/><path d="M269.93336,96.12614l4.71481,-7.48442l2.06466,1.30064l-4.71481,7.48441z" fill="#663f3f" stroke="#000000" stroke-width="0.5"/><path d="M283.81062,81.72293c-1.57601,7.43876 -5.59467,12.88834 -8.97593,12.17197c-3.38126,-0.71637 -4.84469,-7.32741 -3.26868,-14.76617c1.57601,-7.43876 5.59467,-12.88834 8.97592,-12.17197c3.38126,0.71637 4.8447,7.32741 3.26869,14.76617z" fill="#a9a600" stroke="#000000" stroke-width="0.5"/><path d="M220.99262,95.83429l-1.13806,-1.80658l3.87125,-2.4387l1.13806,1.80658z" fill="#663f3f" stroke="#000000" stroke-width="0.5"/><path d="M219.7886,98.21501l-1.13806,-1.80658l3.87125,-2.43869l1.13806,1.80658z" fill="#663f3f" stroke="#000000" stroke-width="0.5"/><path d="M222.40441,92.78192l-1.13806,-1.80657l3.87124,-2.4387l1.13806,1.80658z" fill="#663f3f" stroke="#000000" stroke-width="0.5"/><path d="M224.07084,95.42728l-1.13806,-1.80658l3.87125,-2.4387l1.13806,1.80658z" fill="#663f3f" stroke="#000000" stroke-width="0.5"/><path d="M218.08151,95.50514l-1.13806,-1.80658l3.87124,-2.4387l1.13806,1.80658z" fill="#663f3f" stroke="#000000" stroke-width="0.5"/><path d="M223.88751,98.42678l-4.71481,-7.48441l2.06466,-1.30064l4.71482,7.48442z" fill="#663f3f" stroke="#000000" stroke-width="0.5"/><path d="M236.61423,158.08899l0.41296,-4.8522l10.39758,0.88492l-0.41296,4.8522z" fill="#663f3f" stroke="#000000" stroke-width="0.5"/><path d="M231.14995,160.7658l0.41296,-4.8522l10.39758,0.88492l-0.41295,4.8522z" fill="#663f3f" stroke="#000000" stroke-width="0.5"/><path d="M243.38005,154.47564l0.41295,-4.8522l10.39758,0.88492l-0.41296,4.8522z" fill="#663f3f" stroke="#000000" stroke-width="0.5"/><path d="M242.77535,161.58067l0.41296,-4.85221l10.39758,0.88492l-0.41295,4.85221z" fill="#663f3f" stroke="#000000" stroke-width="0.5"/><path d="M231.76939,153.4875l0.41296,-4.8522l10.39758,0.88491l-0.41296,4.85221z" fill="#663f3f" stroke="#000000" stroke-width="0.5"/><path d="M238.31765,166.78683l1.71084,-20.102l5.54538,0.47195l-1.71084,20.102z" fill="#663f3f" stroke="#000000" stroke-width="0.5"/><path d="M245.33289,131.91484c-12.58653,0 -30.00001,-5.29289 -30.00001,-9.53333c0,-7.90829 -0.90455,-15.29654 3.80187,-22.25924c6.13997,-9.08351 19.25574,-16.74075 30.19813,-16.74075c14.98849,0 29.42259,11.55012 33.57808,27.70582c1.20366,4.67958 -1.66141,14.78411 -1.66141,18.87751c0,0 -16.58669,1.94999 -35.91666,1.94999z" fill="#a9a600" stroke="#929292" stroke-width="1"/><path d="M257.99922,186.00731c0.15231,25.49669 -2.43989,58.10091 -16.39056,58.6067c-14.26101,0.51704 -15.45648,-31.2283 -15.60879,-56.72498c-0.15231,-25.49669 5.11628,-30.21398 15.05723,-30.27336c9.94095,-0.05939 16.78982,2.89496 16.94213,28.39165z" fill="#a9a600" stroke="#929292" stroke-width="1"/><path d="M222.95258,204.06108c0.12479,15.30452 -2.97989,21.27433 -7.94389,21.21088c-4.964,-0.06345 -9.42332,-5.56945 -9.54811,-20.87397c-0.06605,-8.09958 1.50537,-21.20028 3.34915,-28.07754c1.64012,-6.11762 3.41016,-6.50093 5.74707,-6.47105c2.78695,0.03562 5.54638,-0.3142 7.01883,7.61099c1.15019,6.19075 1.32223,19.88867 1.37696,26.60069z" fill="#a9a600" stroke="#929292" stroke-width="1"/><path d="M259.39099,185.79024c1.16163,-7.97668 3.93261,-7.73495 6.71605,-7.87945c2.33396,-0.12116 4.11762,0.19268 5.99554,6.24153c2.11112,6.79995 4.19326,19.82923 4.44378,27.92521c0.47337,15.29771 -3.7674,20.97377 -8.72512,21.23114c-4.95772,0.25737 -8.29332,-5.58655 -8.76668,-20.88426c-0.2076,-6.70903 -0.57098,-20.4032 0.33642,-26.63417z" data-paper-data="{&quot;index&quot;:null}" fill="#a9a600" stroke="#929292" stroke-width="1"/><path d="M217.79016,77.80146c4.40371,6.19889 5.68946,12.84678 2.87178,14.84847c-2.81768,2.00169 -8.67178,-1.40082 -13.07549,-7.59971c-4.40371,-6.19889 -5.68946,-12.84677 -2.87178,-14.84846c2.81768,-2.00169 8.67178,1.40082 13.07549,7.59971z" fill="#a9a600" stroke="#000000" stroke-width="0.5"/><path d="M216.68646,78.81214c3.16332,4.45284 4.0869,9.22822 2.06288,10.66609c-2.02402,1.43787 -6.22918,-1.00625 -9.3925,-5.45909c-3.16332,-4.45284 -4.0869,-9.22821 -2.06288,-10.66608c2.02402,-1.43787 6.22919,1.00624 9.3925,5.45908z" fill="#cbc700" stroke="#000000" stroke-width="0.5"/><path d="M279.71083,70.06801c2.4303,0.50773 3.49491,5.25365 2.3779,10.6003c-1.11702,5.34665 -3.99267,9.26937 -6.42297,8.76164c-2.4303,-0.50773 -3.49493,-5.25366 -2.37791,-10.60031c1.11702,-5.34665 3.99269,-9.26936 6.42298,-8.76163z" data-paper-data="{&quot;index&quot;:null}" fill="#cbc700" stroke="#000000" stroke-width="0.5"/><path d="M289.61253,52.18155c-0.10819,7.60311 -2.99751,13.72678 -6.45347,13.67761c-3.45596,-0.04918 -6.16986,-6.25259 -6.06167,-13.85569c0.10819,-7.60311 2.99751,-13.72678 6.45347,-13.6776c3.45596,0.04918 6.16986,6.25258 6.06167,13.85569z" fill="#a9a600" stroke="#000000" stroke-width="0.5"/><path d="M282.97015,42.19246c2.48273,-0.01292 4.51842,4.40444 4.54684,9.86645c0.02842,5.46201 -1.96118,9.90032 -4.44391,9.91325c-2.48273,0.01292 -4.51843,-4.40445 -4.54685,-9.86647c-0.02842,-5.46201 1.9612,-9.90031 4.44393,-9.91323z" data-paper-data="{&quot;index&quot;:null}" fill="#cbc700" stroke="#000000" stroke-width="0.5"/><path d="M237.85498,113.33865c0,3.17564 -2.38781,5.75 -5.33333,5.75c-2.94552,0 -5.33333,-2.57436 -5.33333,-5.75c0,-3.17564 2.38781,-5.75 5.33333,-5.75c2.94552,0 5.33333,2.57436 5.33333,5.75z" fill="#ffffff" stroke="#ffffff" stroke-width="2"/><path d="M270.18827,116.00531c0,3.17564 -2.38781,5.75 -5.33333,5.75c-2.94552,0 -5.33333,-2.57437 -5.33333,-5.75c0,-3.17563 2.38781,-5.75 5.33333,-5.75c2.94552,0 5.33333,2.57437 5.33333,5.75z" fill="#ffffff" stroke="#ffffff" stroke-width="2"/><path d="M251.27028,195.35634c0.09839,16.47084 -1.57617,37.53313 -10.58829,37.85987c-9.2126,0.334 -9.98487,-20.17345 -10.08326,-36.64428c-0.09839,-16.47084 3.30511,-19.5182 9.72696,-19.55657c6.42185,-0.03836 10.84621,1.87014 10.9446,18.34098z" fill="#cbc700" stroke="#929292" stroke-width="1"/><path d="M247.11825,162.19693c2.62842,-0.06695 4.55892,2.90282 3.85512,5.41246c-0.47508,2.38286 -0.49617,5.15024 -3.83654,4.47684c-1.49389,-0.51111 -3.02702,-0.89118 -3.96943,-1.83637c-0.40579,0.28437 -0.89994,0.45125 -1.43307,0.45125c-0.87061,0 -1.63727,-0.44502 -2.08493,-1.11999c-0.50805,0.17966 -1.00887,0.0233 -1.48659,0.29528c-1.3739,0.78222 -3.08022,1.88841 -4.79896,2.14865c-1.81529,-1.58775 -1.4612,-4.19968 -0.6389,-6.24781c0.38061,-2.3469 1.54075,-5.3182 3.99572,-3.35422c1.02649,1.05975 2.70415,2.39402 3.537,3.76059c0.41376,-0.30335 0.92429,-0.4825 1.47666,-0.4825c0.49821,0 0.96238,0.14574 1.35221,0.3969c1.39391,-1.24535 2.52157,-2.7631 4.03171,-3.90108z" fill="#cbc700" stroke="none" stroke-width="0.5"/><path d="M234.14189,166.66783c0.17678,-0.17678 0.35356,0 0.35356,0l0.00235,0.01645c1.66965,0.93741 3.23093,0.44018 5.03844,0.73725c0,0 0.2466,0.0411 0.2055,0.2877c-0.0411,0.2466 -0.2877,0.2055 -0.2877,0.2055c-1.87755,-0.3178 -3.44075,0.15494 -5.19685,-0.79216l-0.1153,-0.10119c0,0 -0.17678,-0.17678 0,-0.35356z" fill="#063800" stroke="none" stroke-width="0.5"/><path d="M248.80395,167.25636c0,0.25 -0.25,0.25 -0.25,0.25l-0.22167,-0.01073c-1.04679,0.74269 -2.10153,0.24277 -3.12029,0.85746c0,0 -0.21437,0.12862 -0.343,-0.08575c-0.12862,-0.21437 0.08575,-0.343 0.08575,-0.343c1.07367,-0.641 2.14596,-0.2111 3.23264,-0.90725l0.36657,-0.01072c0,0 0.25,0 0.25,0.25z" fill="#063800" stroke="none" stroke-width="0.5"/><path d="M243.21083,165.1877c0.24514,-0.04903 0.29418,0.19611 0.29418,0.19611l0.05331,0.27191c0.01501,0.03942 0.03275,0.07793 0.05281,0.11536c0.00056,0 0.00111,-0.00001 0.00167,-0.00001c0.25,0 0.25,0.25 0.25,0.25c0,0.02535 0.00008,0.05047 0.00025,0.07537c0.0364,0.04564 0.12011,0.17746 0.00631,0.31383c0.02424,0.72208 0.10836,1.25802 0.12706,1.80633c0.39981,-0.11906 0.86596,-0.12392 1.27324,-0.20538c0,0 0.24514,-0.04903 0.29417,0.19611c0.04903,0.24515 -0.19612,0.29417 -0.19612,0.29417c-0.38216,0.07644 -1.02623,0.05518 -1.37654,0.23524c-0.02603,0.44024 -0.11319,0.92384 -0.31767,1.53984l-0.11922,0.15654c0,0 -0.17677,0.17677 -0.35355,0c-0.17678,-0.17677 0,-0.35356 0,-0.35356l-0.00157,0.0389c0.17872,-0.53374 0.26654,-0.95108 0.30146,-1.3203c-0.0439,-0.03662 -0.079,-0.0952 -0.079,-0.18887c0,-0.10683 0.04565,-0.16802 0.09794,-0.20305c0.00203,-0.63901 -0.13097,-1.19841 -0.15353,-2.1196c-0.11784,-0.14831 -0.21528,-0.31448 -0.28699,-0.48846l-0.06433,-0.31633c0,0 -0.04903,-0.24514 0.19611,-0.29417z" fill="#063800" stroke="none" stroke-width="0.5"/><path d="M239.67193,169.90374c-0.17678,0.17677 -0.35356,0 -0.35356,0l-0.18601,-0.2454c-0.32372,-1.65074 0.16035,-2.35062 0.78625,-3.63142c0,0 0.11181,-0.22361 0.33541,-0.11181c0.22361,0.11181 0.11181,0.33541 0.11181,0.33541c-0.61173,1.20107 -1.06918,1.71637 -0.74317,3.30975l0.04928,-0.0101c0,0 0.17678,0.17678 0,0.35356z" fill="#063800" stroke="none" stroke-width="0.5"/><path d="M231.06985,113.50995c0,-0.55228 0.44771,-1 1,-1c0.55229,0 1,0.44772 1,1c0,0.55228 -0.44771,1 -1,1c-0.55229,0 -1,-0.44772 -1,-1z" fill="#000000" stroke="none" stroke-width="0.5"/><path d="M263.51529,116.95085c0,-0.72801 0.59017,-1.31818 1.31818,-1.31818c0.72801,0 1.31818,0.59017 1.31818,1.31818c0,0.72801 -0.59017,1.31818 -1.31818,1.31818c-0.72801,0 -1.31818,-0.59017 -1.31818,-1.31818z" fill="#000000" stroke="none" stroke-width="0.5"/><path d="M272.5839,143.26912c-0.42146,3.89851 -14.91312,8.27509 -28.42061,6.81482c-13.5075,-1.46027 -25.11584,-7.80442 -24.69438,-11.70293c0.12749,-1.17926 -5.72184,-13.38265 -3.84465,-14.16827c1.97862,-0.82806 5.7316,8.51703 11.24006,10.53603c6.54241,2.39797 13.71021,5.66446 18.8252,6.21742c4.81592,0.52064 14.77353,-0.261 22.42047,-2.49723c6.42695,-1.87946 10.44079,-10.00065 12.29917,-9.34529c2.1322,0.75191 -7.68036,12.80511 -7.82526,14.14545z" fill="#a9a600" stroke="#929292" stroke-width="1"/><path d="M224.10535,134.14682l0.67808,-1.66739l2.40846,0.97945l-0.67808,1.66739z" fill="#ffffff" stroke="none" stroke-width="0"/><path d="M228.24852,136.15673l0.54404,-1.71581l2.4784,0.78583l-0.54404,1.71581z" fill="#ffffff" stroke="none" stroke-width="0"/><path d="M239.35963,139.93451l0.54404,-1.71581l2.4784,0.78583l-0.54404,1.71581z" fill="#ffffff" stroke="none" stroke-width="0"/><path d="M245.00173,141.01627l0.02743,-1.79979l2.5997,0.03962l-0.02743,1.79979z" fill="#ffffff" stroke="none" stroke-width="0"/><path d="M233.24852,137.71228l0.54404,-1.71581l2.4784,0.78583l-0.54404,1.71582z" fill="#ffffff" stroke="none" stroke-width="0"/><path d="M251.22395,141.3496l0.02743,-1.79979l2.5997,0.03962l-0.02743,1.79979z" fill="#ffffff" stroke="none" stroke-width="0"/><path d="M257.39596,140.78575l-0.28426,-1.77741l2.56737,-0.4106l0.28426,1.77741z" fill="#ffffff" stroke="none" stroke-width="0"/><path d="M262.32696,140.03705l-0.51478,-1.72482l2.49141,-0.74358l0.51478,1.72482z" fill="#ffffff" stroke="none" stroke-width="0"/><path d="M267.21585,138.92594l-0.51478,-1.72482l2.49141,-0.74357l0.51478,1.72482z" fill="#ffffff" stroke="none" stroke-width="0"/><path d="M244.20234,133.4276l0.07243,-1.79854l2.5979,0.10461l-0.07243,1.79854z" fill="#ffffff" stroke="none" stroke-width="0"/><path d="M251.31345,133.53871l0.07243,-1.79854l2.5979,0.10461l-0.07243,1.79854z" fill="#ffffff" stroke="none" stroke-width="0"/><path d="M258.88489,133.26887l0.07243,-1.79855l2.5979,0.10461l-0.07243,1.79854z" fill="#ffffff" stroke="none" stroke-width="0"/><path d="M237.27655,132.81083l0.15364,-1.79344l2.59052,0.22192l-0.15364,1.79342z" fill="#ffffff" stroke="none" stroke-width="0"/><path d="M229.36375,131.05881l0.52902,-1.72051l2.48518,0.76414l-0.52902,1.7205z" fill="#ffffff" stroke="none" stroke-width="0"/><path d="M267.50449,133.19576l-0.28008,-1.77808l2.56834,-0.40455l0.28007,1.77807z" fill="#ffffff" stroke="none" stroke-width="0"/><path d="M259.0637,126.69818c0,4.76976 -4.73783,3.5 -10.05357,3.5c-5.31574,0 -10.48214,0.08985 -10.48214,-3.5c0,-2.14396 0.69989,-6.97265 3.31666,-9.01857c1.76477,-1.37978 4.88159,-0.76714 7.02263,-0.76714c1.99319,0 5.33371,-0.33495 6.9451,0.74787c2.6861,1.805 3.25133,6.05655 3.25133,9.03784z" fill="#817f00" stroke="#000000" stroke-width="0"/><path d="M251.44299,118.36819c0,1.22292 -1.11033,2.21429 -2.48,2.21429c-1.36966,0 -2.48,-0.99137 -2.48,-2.21429c0,-1.22292 1.11033,-2.21429 2.48,-2.21429c1.36966,0 2.48,0.99137 2.48,2.21429z" fill="#3d3c00" stroke="none" stroke-width="0"/></g></g></g></svg>