<svg version="1.1" xmlns="http://www.w3.org/2000/svg" xmlns:xlink="http://www.w3.org/1999/xlink" width="517.25304" height="339.16617" viewBox="0,0,517.25304,339.16617"><g transform="translate(15.99183,16.22133)"><g data-paper-data="{&quot;isPaintingLayer&quot;:true}" fill-rule="nonzero" stroke-linejoin="miter" stroke-miterlimit="10" stroke-dasharray="" stroke-dashoffset="0" style="mix-blend-mode: normal"><path d="M-9.64463,304.26307c-2.96435,-2.96435 -0.60616,-12.489 -0.5,-16.98485c0.11386,-4.82195 -0.42207,-10.76629 0.80781,-15.71292c0.6632,-2.66742 3.09133,-8.30197 2.86604,-11.622c-0.39005,-5.74799 -1.84245,-11.37579 -2.59882,-17.08714c-0.77149,-5.82552 -1.77464,-26.5062 -1.42599,-33.4853c0.4592,-9.19218 2.27341,-19.05574 3.42114,-28.16511c0.31063,-2.46543 0.45399,-4.96191 0.98525,-7.38938c0.03733,-0.31661 0.09314,-0.62756 0.16634,-0.93174c0.18615,-0.77359 0.48471,-1.5034 0.87743,-2.17118c-2.05936,-6.83409 -7.60859,-32.61737 -8.12591,-34.98736c-1.83052,-8.3861 -4.03344,-23.69599 -2.02033,-32.93769c1.36189,-6.2521 4.95305,-1.261 6.64636,-4.67876c0.92975,-1.87659 0.51528,-4.15717 0.82361,-6.22863c1.05975,-7.1199 2.23486,-14.22331 3.19625,-21.35716c1.63393,-12.12432 2.90849,-22.11348 2.78707,-34.04201c-0.02208,-2.1695 -1.37435,-4.85664 -1.39592,-7.27164c-0.05877,-6.57873 -0.0892,-13.15858 0,-19.73697c0.00554,-0.40836 0.64599,-0.99908 0.28572,-1.19142c-0.15748,-0.05756 -0.31265,-0.11993 -0.46532,-0.18694c-2.81911,-1.23719 -4.78813,-4.05322 -4.78813,-7.32913c0,-2.82583 1.46513,-5.30946 3.6772,-6.73268c0.26045,-0.21644 0.54766,-0.40263 0.8677,-0.55171c4.67432,-2.17736 14.57141,0.28976 18.95558,0.44538c3.65468,0.12973 7.31422,0.04355 10.97095,0c2.91174,-0.03468 5.78101,-0.79984 8.69202,-0.87395c2.9925,-0.07619 5.96829,0.53842 8.96141,0.58371c4.0421,0.06116 8.44426,0.60969 12.64371,1.41634c0.00578,-0.00948 0.01156,-0.01896 0.01734,-0.02844c0.48031,-1.60001 1.44801,-2.98917 2.73066,-3.99504c1.35904,-1.06578 3.07165,-1.70125 4.93268,-1.70125c3.92883,0 7.19618,2.83212 7.87187,6.56618c0.10019,0.31006 0.16165,0.63794 0.17798,0.98661c0.43022,9.18859 -10.72902,14.16486 -10.04984,23.46237c0.33067,4.52675 1.86899,8.88351 2,13.48485c0.37022,13.00258 2.24107,25.76421 2.5,38.70178c0.05573,2.78475 1.34666,5.50629 1.5,8.29822c0.20781,3.78374 0.22036,7.42412 0.89516,11.16323c1.09798,6.08401 4.68089,10.04414 5.60484,15.83677c0.60892,3.81759 1.10642,7.7391 1.45107,11.61655c0.01952,0.21962 -0.19463,0.54632 -0.00658,0.66143c3.10476,1.90038 8.68506,4.31884 12.2885,4.117c6.21257,-0.34799 12.41839,1.82227 18.72635,1.10503c4.64648,-0.52833 8.97437,-2.64806 13.52128,-3.74094c3.79882,-0.91307 7.99279,-0.10943 11.81619,-1.09697c4.60222,-1.18869 11.50564,-3.33078 15.72872,-5.39456c4.20178,-2.05337 8.03247,-5.02577 12.52725,-6.31738c1.19577,-0.34361 6.25166,0.91274 7.51576,1.04984c4.48397,0.48634 8.78121,0.38665 13.31967,0c3.56656,-0.30385 7.01761,-1.41942 10.50685,-2.21811c2.31191,-0.5292 5.77642,-0.23098 7.7164,-0.28189c2.03977,-0.05353 5.24333,-2.43827 7.10846,-3.30423c0.41537,-0.19285 6.20864,-2.54865 6.60836,-4.02943c4.10454,-15.20513 -0.12868,-37.86313 -2.82828,-52.2778c-0.27861,-1.48763 -3.46786,-3.22263 -3.8,-3.48854c-2.63556,-2.11007 -4.31453,-4.90327 -5.85542,-7.82229c-2.02862,-3.84297 -3.00867,-12.27384 -5.32078,-15.22754c-0.91115,-1.16398 -2.20282,-1.73482 -3.18066,-2.69332c-2.05286,-2.01226 -4.01332,-4.11868 -6.09798,-6.09798c-4.39752,-4.17527 -15.70383,-9.95408 -10.85396,-17.16767c1.01627,-1.51158 1.51554,-3.53626 3.03108,-4.54663c0.9715,-0.64767 2.3303,0.16036 3.4974,0.1943c0.91301,0.02655 1.86159,-0.08723 2.7805,-0.0622c1.69365,-2.84132 3.38476,-5.00578 6.99033,-4.50543c7.52856,1.04474 15.11658,0.79572 22.72429,1.53285c5.71381,0.55363 11.55673,1.83593 17.33263,1.46715c6.16593,-0.39368 18.18189,-1.54874 24.23905,-2.84226c3.52196,-0.75212 7.03263,-2.4938 10.70403,-2.65774c4.5732,-0.20422 9.21102,1.18048 13.69507,0.80256c3.036,-0.25588 6.14082,-0.60678 9.19698,-0.64883c5.54699,-0.07632 9.16219,0.8816 14.60446,1.98534c0.57704,0.11703 1.66617,0.22068 2.79681,0.36621c0.67288,0.02425 1.32458,0.1316 1.94513,0.3121c1.03667,0.30153 1.98643,0.8072 2.80287,1.47059c3.17843,-0.7509 6.81074,-1.10661 7.82844,0.67437c2.35793,1.39161 3.93973,3.95834 3.93973,6.89453c0,2.60343 -1.24359,4.91641 -3.16915,6.3773c-0.24629,0.23843 -0.5209,0.44835 -0.83085,0.6227c-3.15005,1.77193 -7.46388,1.87834 -10.75524,3.45163c-6.59686,3.15333 -12.46469,8.69082 -18.77364,12.47619c-8.17103,4.90262 -15.45902,5.03572 -20.54607,14.35681c-5.25934,9.63678 -2.16307,22.08034 -0.92506,32.21538c0.54079,4.42719 -1.69803,10.84983 -2.87832,15.11108c-2.38477,8.60979 1.12643,20.99586 7.12755,27.32444c4.69039,4.94632 12.57146,6.21331 18.58159,9.54131c0.61379,0.33987 3.54056,2.59126 4.43326,2.46093c0.14735,-0.02151 15.09212,-5.15867 18.51685,-4.39762c10.25112,2.27803 21.28198,3.38423 31.65936,6.19871c7.16825,1.94412 13.41458,7.28709 20.57404,8.99984c9.3387,2.23409 26.21475,-2.48483 35.9798,-3.11223c3.70794,-0.23823 7.45014,-2.17695 10.85452,-3.47963c2.34332,-0.89667 8.87913,-1.24924 10.93707,-3.86113c4.84577,-6.15015 5.97576,-22.00088 6.87746,-26.39327c1.29681,-6.31699 1.85305,-8.84321 2.44567,-13.70764c0.99632,-8.17816 4.98345,-16.91044 7.27597,-24.58613c0.71361,-2.38928 -1.1292,-4.85765 -1.67883,-7.2899c-1.38423,-6.12556 -4.02985,-13.12333 -6.22111,-19.05593c-2.3487,-6.35888 -6.29084,-11.19796 -8.79623,-17.3887c-0.93741,-2.31632 -8.43162,-3.49632 -9.39685,-6.39202c-2.38514,-7.15542 -0.89443,-10.13684 6.26099,-12.52198c0.81848,-0.27283 1.53694,-0.30706 2.18735,-0.18305c0.13856,-0.17792 0.28722,-0.34567 0.44795,-0.50127c0.24629,-0.23843 0.5209,-0.44835 0.83085,-0.6227c0.32228,-0.18129 0.69055,-0.33007 1.09009,-0.45431c0.90185,-0.35231 1.8833,-0.54569 2.90991,-0.54569c0.0001,0 0.00019,0 0.00029,0c1.11901,-0.13228 2.23321,-0.22334 3.13891,-0.38355c4.65284,-0.82302 9.3016,-1.66907 13.95448,-2.49187c2.31644,-0.40963 4.83658,-0.85325 7.18204,-1.09173c0.8446,-0.08587 4.3347,-0.50982 6.22429,-0.53285c8.11159,-0.09888 27.63649,0.31195 30.27817,10.87868c1.11366,4.45464 -0.02696,9.50027 -0.13558,14.05094c-0.13329,5.58416 1.34112,11.45616 1.35741,17.07038c0.0321,11.06466 -0.24747,22.12854 -0.5,33.19037c-0.5995,26.26052 1.19452,53.14135 3,79.30963c0.69153,10.02285 3.7681,26.30766 1.55418,35.2833c-0.25343,1.02744 -0.39978,2.06397 -0.56736,3.05237c0.00442,0.00773 0.00881,0.01548 0.01318,0.02325c0.20773,0.36928 0.39094,0.82497 0.55208,1.35406c0.17244,0.49221 0.29812,1.0064 0.37172,1.53723c1.54456,8.01731 0.02401,25.57432 0.08451,27.90945c0.19919,7.68764 1.1574,19.17028 2.82532,27.51788c0.79349,3.97126 2.9577,8.22054 3.05752,12.36618c0.14744,6.12321 -3.93316,6.87273 -6.22712,12.37567c-1.09649,2.63035 -0.56752,5.75524 -1.16403,8.43952c-2.07821,9.35193 -0.83428,20.75177 -5.5,29.5c-0.81794,1.53363 -1.51332,1.58597 -2.84031,1.95712c0.96183,2.98166 1.66785,5.97447 2.82137,9.10876c0.51359,1.39551 1.52008,2.92505 1.04984,4.33576c-0.84984,2.54951 -2.06844,5.50635 -4.47214,6.7082c-10.00299,5.00149 -12.26255,-7.1954 -13.73313,-13.07771c-1.08436,-4.33744 -4.76742,-7.08255 -6,-11c-1.73194,-5.50457 -1.33674,-10.00133 -1.84458,-15.73535c-0.11537,-1.30262 -2.06136,-3.4431 -2.85994,-4.7264c-3.10359,-4.98733 -6.48286,-10.1944 -8.99322,-15.46461c-2.37385,-4.98364 -3.74529,-12.51506 -8.09931,-16.15785c-2.60148,-2.17652 -4.53603,-5.95809 -7.26768,-7.6593c-5.0102,-3.12025 -10.16418,-5.59461 -12.33558,-11.05711c-2.62281,-6.5981 -6.18347,-13.83965 -9.46229,-19.92458c-1.31361,-2.43784 -3.03635,-4.64666 -4.27428,-7.1238c-0.16278,-0.26091 -0.31095,-0.53188 -0.44335,-0.81176c-0.08701,-0.15327 -0.17525,-0.30877 -0.26124,-0.46561c-6.02134,-0.54051 -13.63936,-2.72546 -18.67036,-2.49991c-6.15823,0.27609 -11.76239,2.50322 -17.76383,3.34465c-3.71263,0.52053 -7.59715,-0.24108 -11.34314,0.51283c-2.76859,0.5572 -4.89192,1.3152 -7.79577,1.12219c-5.32834,-0.35416 -10.86771,0.21815 -15.95985,-1.3902c-13.0048,-4.10757 -13.02994,-5.08 -23.85596,-2.82833c-11.9696,2.48952 -24.1039,1.85533 -36.28004,3.20715c-9.69263,1.07609 -20.29367,5.58156 -29.78139,5.58156c-3.37791,0 -8.41976,-2.90048 -11.75253,-2.35035c-8.08293,1.33421 -16.12603,3.68532 -24.23133,5.14515c-8.06531,1.45263 -14.07039,0.16812 -22.06893,0.18308c-3.67823,0.00688 -7.15738,0.79882 -10.81519,0.36342c-5.5207,-0.65714 -12.86935,-2.60659 -18.4372,-1.70305c-5.24127,0.85054 -11.93038,-0.52119 -17.24761,-1.1881c-1.36368,-0.17104 -3.02817,-0.02817 -4,-1c-0.6899,-0.6899 -1.29055,-1.34633 -1.80196,-1.97795c-2.52704,0.22486 -5.17865,0.0278 -7.24266,0.0278c-1.02571,0 -2.76635,-1.08934 -3.83916,-0.54984c-3.85616,1.93917 -6.22632,5.99394 -9.57446,8.71796c-2.86708,2.33263 -21.77106,17.59132 -23.42533,19.03181c-2.17249,1.89174 -3.51791,4.6181 -5.48204,6.66983c-4.2007,4.38804 -4.13159,11.88073 -7.96935,16.73726c-4.75164,6.01299 -10.55555,11.85255 -15.9146,17.4146c-0.61569,0.63901 -1.25599,2.97017 -1.58684,3.50626c-1.9306,3.12821 -4.85331,6.05459 -7.49856,8.57915c-2.6801,2.55781 -5.9747,5.59617 -9.04089,7.70309c-1.77506,1.21973 -4.95677,1.87206 -6.51925,3.35705c-4.48078,4.25856 -9.10213,9.54062 -14.0426,13.1015c-4.97657,3.58691 -13.07331,6.88133 -18.80501,9.49199c-0.50895,0.23181 -3.14733,1.60514 -5.52037,2.51121c-0.36929,0.16309 -0.75325,0.29906 -1.14934,0.40539c-0.66307,0.17799 -1.36015,0.27291 -2.0794,0.27291c-4.41828,0 -8,-3.58172 -8,-8c0,-1.25742 0.2901,-2.44708 0.80702,-3.50571c0.124,-0.33975 0.27973,-0.66462 0.48478,-0.96643c0.30832,-0.45382 0.68761,-0.86857 1.11807,-1.25067c0.06212,-0.06069 0.12523,-0.12038 0.18929,-0.17904c-0.66878,-0.53203 -1.36502,-1.16511 -2.09916,-1.89925zM284.58623,128.9433l-5.30053,0.26751c-2.04707,0.90528 -3.80551,2.59334 -6.00601,3.003c-0.98409,0.18321 -2.03905,-0.26981 -3.003,0c-3.79081,1.06103 -6.92706,3.57285 -10.53831,4.9982c-1.4722,0.58107 -3.32505,0.44609 -4.5045,1.5015c-0.18337,0.16408 -0.36428,0.33057 -0.54293,0.49928l-0.10238,-0.20475l-2.80923,1.40462c-3.38246,1.60344 -5.72163,5.04913 -5.72163,9.04116c0,0.86864 0.11075,1.71141 0.31891,2.51497c-2.14643,-1.19032 -4.54475,-2.8201 -6.0394,-3.23845c-0.96395,-0.26981 -2.02644,0.21985 -3.003,0c-0.58059,-0.1307 -0.92496,-0.77748 -1.4737,-1.00781c-2.48523,-1.04316 -5.00501,-2.002 -7.50751,-3.003c-4.03456,-1.61383 -7.91556,-3.62974 -12.03982,-4.9982c-0.95007,-0.31524 -2.01891,0.18321 -3.003,0c-2.53945,-0.47276 -6.48336,-3.88811 -9.00901,-4.5045c-1.71865,-0.41944 -3.53369,-0.17834 -5.30053,-0.26751c0,0 -10,0 -10,10c0,10 10,10 10,10c1.15287,-0.43716 3.71018,1.56415 4.53687,1.94727c1.71217,0.79349 3.36035,1.78108 5.17761,2.28972c0.96395,0.26981 2.05398,-0.31838 3.003,0c1.62183,0.5441 2.91471,1.81176 4.4767,2.50931c3.86335,1.72529 8.06241,2.97625 12.01201,4.5045c1.53945,0.59567 2.93662,1.57269 4.53231,1.9952c0.96766,0.25622 2.01891,-0.18321 3.003,0c1.45024,0.26999 2.49298,1.59451 3.8314,2.21479c1.71217,0.79349 3.36035,1.78108 5.17761,2.28972c0.96395,0.26981 2.01891,-0.18321 3.003,0c2.2005,0.40966 3.85054,2.3997 6.00601,3.003c0.96395,0.26981 2.002,0 3.003,0c0.27613,0.23776 0.4671,0.66594 0.8284,0.71328c4.22283,0.55336 9.07682,3.24889 12.73245,1.06374c3.56166,-2.12898 3.6752,-7.49972 4.74269,-11.50951c0.72804,-2.73471 -1.04466,-5.56785 -1.76901,-8.30354c-0.38898,-1.46908 0.16816,-3.1643 -0.49369,-4.53231c-0.04972,-0.10277 -0.1007,-0.20477 -0.15288,-0.30604c0.69386,-0.5103 1.39373,-0.99571 2.22063,-1.14965c3.38556,-0.63028 5.97059,-0.38679 9.00901,-3.003l0.70547,0.26751c0,0 10,0 10,-10c0,-10 -10,-10 -10,-10zM241.04268,127.92227c5.52285,0 10,-4.47715 10,-10c0,-5.52285 -4.47715,-10 -10,-10c-5.52285,0 -10,4.47715 -10,10c0,5.52285 4.47715,10 10,10z" fill="#418a00" stroke="none" stroke-width="0.5" stroke-linecap="butt"/><path d="M83.69443,237.65623l-83,-237" fill="none" stroke="#000000" stroke-width="2" stroke-linecap="round"/><path d="M482.69443,-7.34377l-72,205" fill="none" stroke="#000000" stroke-width="2" stroke-linecap="round"/><path d="M3.69443,11.65623l-8,25" fill="none" stroke="#000000" stroke-width="2" stroke-linecap="round"/><path d="M479.69443,10.65623l14,28" fill="none" stroke="#000000" stroke-width="2" stroke-linecap="round"/></g></g></svg>