<svg version="1.1" xmlns="http://www.w3.org/2000/svg" xmlns:xlink="http://www.w3.org/1999/xlink" width="50.76637" height="50.41709" viewBox="0,0,50.76637,50.41709"><g transform="translate(-215.77145,-154.99478)"><g data-paper-data="{&quot;isPaintingLayer&quot;:true}" fill-rule="nonzero" stroke="none" stroke-width="0" stroke-linecap="butt" stroke-linejoin="miter" stroke-miterlimit="10" stroke-dasharray="" stroke-dashoffset="0" style="mix-blend-mode: normal"><path d="M241.19352,204.5c-13.53098,0 -24.5,-10.96902 -24.5,-24.5c0,-13.53098 10.96902,-24.5 24.5,-24.5c13.53098,0 24.5,10.96902 24.5,24.5c0,13.53098 -10.96902,24.5 -24.5,24.5z" data-paper-data="{&quot;index&quot;:null}" fill="#ffffff"/><path d="M228.84631,158.49478l7,-3.5h5v24.83334z" data-paper-data="{&quot;index&quot;:null}" fill="#000000"/><path d="M220.10124,166.8111l4.4774,-6.41895l4.3925,-2.38871l11.86394,21.81609z" data-paper-data="{&quot;index&quot;:null}" fill="#000000"/><path d="M216.63116,179.8686l0.18743,-7.82399l3.67586,-6.4173l20.60594,13.63457z" data-paper-data="{&quot;index&quot;:null}" fill="#000000"/><path d="M219.36609,191.31782l-3.55516,-6.97215l-0.03948,-4.99984l24.83257,-0.19607z" data-paper-data="{&quot;index&quot;:null}" fill="#000000"/><path d="M227.98507,201.99661l-6.46802,-6.73954l-2.4371,-4.36584l21.68368,-12.10425z" data-paper-data="{&quot;index&quot;:null}" fill="#000000"/><path d="M241.16967,205.20052l-8.94668,-1.35252l-5.26951,-2.9355l13.92409,-22.20525z" data-paper-data="{&quot;index&quot;:null}" fill="#000000"/><path d="M240.77298,180.03766l-0.43788,-24.82967l5.12978,-0.08592l7.4434,2.7792z" data-paper-data="{&quot;index&quot;:null}" fill="#000000"/><path d="M240.78434,180.02888l11.7872,-22.41674l4.54863,2.71288l4.7068,6.34106z" data-paper-data="{&quot;index&quot;:null}" fill="#000000"/><path d="M240.50232,179.47588l20.90036,-13.98665l3.88442,6.35319l1.13025,8.21961z" data-paper-data="{&quot;index&quot;:null}" fill="#000000"/><path d="M241.00959,179.35524l25.48057,-0.23068l0.04766,4.99978l-3.5245,7.03221z" data-paper-data="{&quot;index&quot;:null}" fill="#000000"/><path d="M240.83943,178.99526l22.45992,11.72985l-2.42337,4.40707l-6.51706,6.84969z" data-paper-data="{&quot;index&quot;:null}" fill="#000000"/><path d="M240.72114,178.91749l14.67703,21.9627l-5.35452,3.02562l-9.15504,1.50606z" data-paper-data="{&quot;index&quot;:null}" fill="#000000"/></g></g></svg>