<svg version="1.1" xmlns="http://www.w3.org/2000/svg" xmlns:xlink="http://www.w3.org/1999/xlink" width="291.66284" height="28.31088" viewBox="0,0,291.66284,28.31088"><g transform="translate(43.46956,-165.73421)"><g data-paper-data="{&quot;isPaintingLayer&quot;:true}" fill-rule="nonzero" stroke-linecap="butt" stroke-linejoin="miter" stroke-miterlimit="10" stroke-dasharray="" stroke-dashoffset="0" style="mix-blend-mode: normal"><path d="M232.80672,187.51299l0.3197,-20.14119l14.06686,7.35313v17.90328z" data-paper-data="{&quot;index&quot;:null}" fill="#717171" stroke="#000000" stroke-width="2"/><path d="M235.02873,184.7355l0.19625,-12.36371l8.63497,4.51373v10.98997z" data-paper-data="{&quot;index&quot;:null}" fill="#000000" stroke="#000000" stroke-width="0"/><path d="M235.18257,172.50474l1.04241,-1.05602l8.63497,4.59065l-1,0.91305z" data-paper-data="{&quot;index&quot;:null}" fill="#171717" stroke="#000000" stroke-width="0"/><path d="M243.79796,187.88934l-0.03452,-10.90218l0.94266,-1.02472l0.15385,10.98997z" data-paper-data="{&quot;index&quot;:null}" fill="#212121" stroke="#000000" stroke-width="0"/><path d="M-40.96956,190.99285c-1.38071,0 -2.5,-1.11929 -2.5,-2.5c0,-1.38071 1.11929,-2.5 2.5,-2.5c1.38071,0 2.5,1.11929 2.5,2.5c0,1.38071 -1.11929,2.5 -2.5,2.5z" data-paper-data="{&quot;index&quot;:null}" fill="none" stroke="none" stroke-width="0.5"/></g></g></svg>