<svg version="1.1" xmlns="http://www.w3.org/2000/svg" xmlns:xlink="http://www.w3.org/1999/xlink" width="818.5" height="543.59129" viewBox="0,0,818.5,543.59129"><g transform="translate(194.80558,93.69807)"><g data-paper-data="{&quot;isPaintingLayer&quot;:true}" fill-rule="nonzero" stroke="#000000" stroke-linejoin="miter" stroke-miterlimit="10" stroke-dasharray="" stroke-dashoffset="0" style="mix-blend-mode: normal"><path d="M-6.49999,368v-376h493v376zM197.2623,185.37712l0.59839,-1.19678l1.39754,-3.66855l1.39754,-8.90933l-1.7734,-6.98275l0.22701,-0.71345l0.39063,-3.90625v-0.02954l0.04611,-0.29394l0.56327,-1.77027l0.39063,-3.90625v-0.40454l0.15576,-0.993l-0.15576,-0.61332v-10.98913l-0.03637,-0.36368l0.17122,-1.36976l-0.47257,-1.64371l-0.05291,-0.5291l-1.0288,-3.23337l-0.93754,-3.26101l-0.24947,-0.46958l-0.51857,-1.62979l-0.90227,-1.04473l-0.17147,-0.32277l-0.80956,-1.21434l-0.27462,-0.82385l-0.72524,-1.61784l-0.63116,-1.65681l-1,-2l-2.09631,-3.31916l-0.06075,-0.06244l-0.04002,-0.07738l-2.48592,-3.03835l-0.53695,-0.53695l-3.79738,-5.31633l-1.35973,-1.55057l-1.30594,-1.59614l-5.74369,-5.74369l-1.93398,-2.57864l-0.43489,-0.47326l-0.78909,-1.32634l-1.30105,-0.94822l-0.13122,-0.1428l-2.93904,-2.09485l-2.91675,-2.12577l-0.17697,-0.07933l-1.31099,-0.93443l-1.50781,-0.32917l-0.5865,-0.26291l-0.36291,-0.12097l-0.04278,-0.03695l-0.95783,-0.30476l-0.36183,-0.18092l-3.66855,-1.39754l-1.83527,-0.28789l-1.77027,-0.56327l-3.90625,-0.39062h-0.40454l-0.993,-0.15576l-0.61332,0.15576h-1.05774l-0.23576,-0.13544l-1.85096,0.13544h-2.84467l-3.90625,0.39063l-0.4218,0.13421l-2.30108,0.16837l-2.83227,1.46497l-3.0386,0.96683l-1.74617,1.50805l-0.39315,0.20336l-1.67326,1.36903l-2.86776,1.43388l-3.31916,2.09631l-0.06244,0.06075l-0.07738,0.04002l-3.03835,2.48592l-5,5l-1.1227,1.37219l-1.19963,1.30548l-1.93061,2.57415l-0.9369,0.6246l-1.90357,1.56364l-1.9066,1.55994l-3,3l-2.48592,3.03835l-0.04002,0.07738l-0.06075,0.06244l-2.09631,3.31916l-0.30394,0.60787l-3.13664,4.70496l-0.72932,1.37283l-0.83011,1.31434l-0.10071,0.20143l-0.41361,0.47891l-0.30476,0.95783l-0.18092,0.36183l-1.39754,3.66855l-0.28789,1.83527l-0.56327,1.77027l-0.39062,3.90625v0.40454l-0.15576,0.993l0.15576,0.61332v27.43752l-0.18885,1.08754l0.41988,1.77434l0.1596,1.59598l0.85096,2.67445l0.6463,2.73114l0.68427,1.45065l0.55284,1.73751l0.72148,0.8354l0.28538,0.47563l0.10992,0.70077l1.39754,3.66855l0.18092,0.36183l0.30476,0.95783l0.41361,0.47891l0.44568,0.89135l0.25749,1.64152l1.39754,3.66855l0.18092,0.36183l0.30476,0.95783l0.41361,0.47891l1.10071,2.20143l0.6759,1.07017l0.02787,0.07257l0.70267,1.08412l0.68987,1.0923l0.05421,0.05572l0.68843,1.06215l2.57605,3.22006l0.2695,0.42671l0.71303,1.71128l3.54172,3.446l3.446,3.54172l1.31772,0.54905l2.01838,1.6514l0.07738,0.04002l0.06244,0.06075l3.31916,2.09631l0.20143,0.10071l0.47891,0.41361l0.95783,0.30476l0.36183,0.18092l3.66855,1.39754l1.83527,0.28789l1.77027,0.56327l3.90625,0.39063h0.40454l0.993,0.15576l0.61332,-0.15576h10.48701l1.99033,0.75822l1.83527,0.28789l1.77027,0.56327l3.90625,0.39063h0.40454l0.993,0.15576l0.61332,-0.15576h0.05774l0.23576,0.13544l1.85096,-0.13544h2.84467l3.90625,-0.39062l0.4218,-0.13421l2.30108,-0.16837l2.83227,-1.46497l3.0386,-0.96683l1.74617,-1.50805l0.39315,-0.20336l3.03835,-2.48592l2.01148,-2.01148l1.4046,-1.21306l0.07094,-0.26248l1.51298,-1.51298l1.1227,-1.37219l1.19963,-1.30548l3,-4l2.03125,-3.35937l0.02868,-0.08226l0.05131,-0.0704l0.55767,-1.24402l0.49469,-0.60462l0.04002,-0.07738l0.06075,-0.06244l2.09631,-3.31916l0.43388,-0.86776l1.36903,-1.67326l0.20336,-0.39315l1.50805,-1.74617l0.96683,-3.0386l1.46497,-2.83227l0.16837,-2.30108l0.13421,-0.4218zM354.40571,88.28292c-7.32909,-2.06207 -17.21188,-2.15366 -23.3465,3.33521c-0.3565,0.31897 -0.70351,0.64391 -1.04096,0.97449c-10.35824,1.93357 -19.00611,7.90706 -23.1,18.36637c-1.94382,4.96619 -1.32409,13.39055 -1.41823,18.20174c-0.01955,0.99913 -1.41589,1.45165 -1.875,2.33927c-1.79139,3.46336 -4.62664,10.66024 -5.45546,14.00614c-0.18385,0.7422 0.38301,1.48707 0.45501,2.2483c0.28778,3.04267 -0.03787,6.11289 -0.12456,9.16792c-0.30565,10.77238 -2.02288,20.17752 1.82024,30.61981c4.97276,13.51168 8.59087,27.45783 28.17976,27.45783c0.84027,0 1.6555,-0.02895 2.44636,-0.08597c4.94223,2.28538 10.11744,3.77051 15.15609,4.24173c6.54963,0.61253 14.69318,-2.74418 21.26742,-6.91817c1.51435,0.14732 3.05878,0.17982 4.62398,0.09287c4.15514,-0.23084 7.94413,-2.82316 11.33141,-5.24077c1.17379,-0.83777 3.06365,-1.23018 4.15016,-2.12655c8.50884,-7.0198 18.00753,-18.71075 19.15943,-30.2297c0.83664,-8.3664 -0.41702,-15.33265 -2.13485,-23.23556c-0.55276,-2.54296 0.05197,-5.59125 -0.6932,-8.127c-1.07178,-3.64719 -2.64355,-8.09136 -3.7721,-11.63822c-0.78296,-2.46073 -3.48675,-4.02498 -4.75102,-6.34342c-1.12713,-2.06695 -1.52028,-4.70791 -2.67244,-6.8772c-3.48431,-6.56025 -11.73156,-14.83436 -17.13581,-19.47518c-2.81421,-2.41666 -6.16301,-4.35456 -9.778,-5.73176c-3.15701,-2.12638 -6.80851,-3.76081 -11.29173,-5.02219zM335.50001,243.75l-7.68683,2.85446c-0.04723,-0.55155 -1.28698,-0.52318 -1.86302,-0.32883c-1.60336,0.54096 -2.93728,1.68105 -4.40593,2.52158c-2.90254,0.51879 -4.39094,0.64633 -7.42627,2.19844c-2.25464,1.1529 -3.88822,3.27853 -6.05815,4.58389c-0.35759,0.21511 -0.86726,-0.06861 -1.24767,0.10295c-2.21936,1.00091 -4.44966,2.02848 -6.47483,3.37981c-0.49639,0.33123 -4.54773,4.26353 -5.49936,5.27566c-1.20956,1.28647 -2.63,2.42044 -3.56475,3.91854c-0.95023,1.52292 -1.11714,3.43706 -2,5c-1.02174,1.80879 -2.97283,2.90588 -4.53956,4.27007c-0.60314,0.52517 -1.45773,0.72086 -2.02871,1.28083c-0.12579,0.12336 0.41488,0.51575 0.24522,0.46824c-3.31369,-0.92792 -7.73862,-0.52562 -11.45014,-0.52562c-2.4157,0 -3.51813,0.38454 -5.57505,-0.51147c-4.31928,-1.07982 -7.29847,-2.91322 -11.61048,-4.16083c-1.12055,-0.32421 -2.3902,0.25902 -3.49791,-0.10667c-5.11371,-1.68818 -9.88957,-4.30192 -15,-6c-0.99041,-0.32909 -2.12309,0.24685 -3.13086,-0.02447c-3.11719,-0.83922 -6.27781,-1.82411 -9.01805,-3.53064c-1.91233,-1.19093 -3.38125,-3.01837 -5.31355,-4.1766c-1.35112,-0.80987 -2.97311,-1.048 -4.42445,-1.66039c-2.97393,-1.25485 -5.8481,-2.74292 -8.84611,-3.93911c-5.95001,-2.37403 -21.20474,-7.71391 -26.76201,-8.75364c-2.90274,-0.54308 -5.91002,0.17247 -8.85929,0.02199c-1.45317,-0.07414 -2.69952,-1.09585 -4.08844,-1.52955c-3.18411,-0.99427 -6.53975,-1.52235 -9.87379,-1.62863c0,0 -12.25,0 -12.25,12.25c0,12.25 12.25,12.25 12.25,12.25c3.10823,-0.47376 6.94749,2.51361 10.03777,2.84182c3.02987,0.32179 6.13968,-0.50477 9.14071,0.02199c2.71912,0.47728 18.51013,6.15233 21.23799,7.24636c3.09819,1.24255 6.06548,2.79423 9.15389,4.06089c0.49706,0.20386 1.12815,0.04217 1.57555,0.33961c1.67892,1.11615 2.94469,2.80809 4.68645,3.8234c2.59875,1.51488 15.5547,6.07672 16.98195,6.46936c0.92215,0.25369 1.9621,-0.32778 2.86914,-0.02447c5.10717,1.70787 9.8964,4.28151 15,6c0.79114,0.26639 1.69789,-0.33054 2.50209,-0.10667c0.81676,0.22737 1.35183,1.05096 2.1266,1.39522c2.54034,1.12879 5.57794,1.7727 8.26292,2.44395c6.70673,1.9993 13.47314,1.48853 20.42495,1.48853c2.93653,0 8.52661,0.06945 10.54986,-0.52562c1.27909,-0.3762 8.54016,-4.82724 10.21651,-6.25094c1.0797,-0.91697 8.62927,-8.47413 9.46044,-9.72993c0.99074,-1.49688 1.22422,-3.38124 2,-5c1.48632,-3.10139 6.74182,-3.84102 9.2134,-5.32304c1.49118,-0.89415 2.34412,-2.73027 3.94185,-3.41611c2.08781,-0.89622 4.38687,-1.18527 6.57373,-1.80156c0.53136,-0.49281 0.90565,-1.252 1.59407,-1.47842c1.31661,-0.43303 2.89865,0.21359 4.13802,-0.40685c1.00617,-0.50371 1.90661,-1.17493 2.772,-1.90168c3.50208,-1.20857 7.79013,-4.16818 7.79013,-11.41584c0,-12.25 -12.25,-12.25 -12.25,-12.25zM241.50001,232.25h1c1.22178,-0.03895 2.51477,-0.04207 3.82355,-0.09624c9.20384,6.40553 18.54211,8.66156 21.98196,-13.4237c0.49989,-3.20953 -3.53999,-4.70376 -6.9057,-6.4985c-0.02847,-0.16781 -0.05988,-0.335 -0.0943,-0.5015c-2.07894,-10.05724 -17.7765,-15.75269 -25.46757,-7.39212c-1.61914,1.76008 -2.46781,4.03373 -2.82556,6.4988c-2.09999,1.80029 -3.76238,4.65058 -3.76238,9.16326c0,12.25 12.25,12.25 12.25,12.25z" fill="#458a00" stroke-width="0" stroke-linecap="butt"/><path d="M-121.96032,76.98852v-170.68659h715.49549v170.68659z" fill="#458a00" stroke-width="0" stroke-linecap="butt"/><path d="M419.26256,449.60678v-540h180.27863v540z" fill="#458a00" stroke-width="0" stroke-linecap="butt"/><path d="M-117.61229,445.34817v-533.59639h189.07249v533.59639z" fill="#458a00" stroke-width="0" stroke-linecap="butt"/><path d="M-116.77349,448.10528v-130.87652h716.31467v130.87652z" fill="#458a00" stroke-width="0" stroke-linecap="butt"/><path d="M138.69443,446.89322l-168,-538.39322" fill="none" stroke-width="2" stroke-linecap="round"/><path d="M512.69443,-87.5l-200,536.39322" fill="none" stroke-width="2" stroke-linecap="round"/><path d="M-193.80557,316.65623l212.5,-253h437l167,240" fill="none" stroke-width="2" stroke-linecap="round"/></g></g></svg>