<svg version="1.1" xmlns="http://www.w3.org/2000/svg" xmlns:xlink="http://www.w3.org/1999/xlink" width="488.25271" height="180.79217" viewBox="0,0,488.25271,180.79217"><g transform="translate(11.0781,10.79593)"><g data-paper-data="{&quot;isPaintingLayer&quot;:true}" fill="#418a00" fill-rule="nonzero" stroke="none" stroke-width="0.5" stroke-linecap="butt" stroke-linejoin="miter" stroke-miterlimit="10" stroke-dasharray="" stroke-dashoffset="0" style="mix-blend-mode: normal"><path d="M20.1736,12.16407c1.44097,7.0487 -1.34236,14.24499 -2,21.15209c-0.23035,2.41939 -0.10915,5.06622 -1.25,7.34791c-1.29995,2.59989 -2.96613,4.9337 -4.32802,7.54458c-0.75275,1.4431 -2.18362,3.52423 -3.95429,5.58098c-1.20969,2.59023 -3.76905,8.00714 -5.49556,8.58264c-6.92741,2.30914 -11.0633,-0.27723 -12.04093,-4.57744c-5.56531,-5.4837 1.21078,-15.93249 1.68216,-23.26911c0.40261,-6.2663 -2.80052,-13.0188 -1.64582,-19.21462c0.25652,-1.37645 0.88031,-4.76361 2.0047,-7.67391c-1.57522,-1.21297 -2.59968,-2.57122 -2.21882,-3.9677c-0.16543,-0.64087 -0.25343,-1.31287 -0.25343,-2.00542c0,-4.41828 3.58172,-8 8,-8c1.03637,-0.8024 2.64058,0.1565 4.14949,1.15892c0.19799,0.12035 0.39035,0.24905 0.57657,0.38562c0.86926,0.58122 1.67564,1.10062 2.28297,1.20546c0.86507,0.14933 1.65328,0.29679 2.37308,0.44877c9.92929,-1.48149 10.46133,7.19792 12.11789,15.30123z"/><path d="M468.64331,-9.5386c0.64967,-0.07468 2.96529,-0.66261 3.51509,-0.19528c6.42545,5.46164 3.38778,10.36079 1.93662,17.20102c-0.17286,0.81479 -0.3276,1.63327 -0.47295,2.45364c1.0539,3.13655 1.87941,6.18767 2.17364,9.77045c0.2464,3.00043 -0.72821,6.58828 -0.1696,9.38137c0.38128,1.90638 1.56982,15.93583 1,18.5c-0.068,0.306 -0.14239,0.61189 -0.22264,0.91756c0.87037,1.86943 1.03592,4.30108 0.33264,7.08688c-0.96523,3.82346 -4.06159,7.13893 -7.66003,9.44666c-0.76921,1.77974 -1.34797,3.46349 -1.57167,5.02053c-0.68399,4.76088 -2.51535,9.80995 -2.8783,14.52837c-0.33786,4.39213 0.65518,8.89487 -1.81146,11.87382c0.31275,0.43809 0.56173,0.84697 0.59083,1.1026c0.17485,1.53596 -1.29734,6.53657 -1.69443,8.12492c-1.79717,7.18869 -8.13612,21.30305 -14.69856,25.47915c-3.9194,2.49416 -7.28273,5.31537 -10.85685,8.24315c-1.04764,0.85819 -4.20359,1.84235 -4.70755,3.08607c-1.45789,3.59792 -2.56344,7.38015 -4.1465,10.98304c-2.04784,4.6607 -6.34185,12.496 -10.87232,14.76123c-0.05102,0.02551 -0.10331,0.0525 -0.15679,0.0808c-0.60856,0.47479 -1.28756,0.86348 -2.01871,1.14776c-0.89861,0.3494 -1.87598,0.5411 -2.89813,0.5411c-0.8026,0 -1.5776,-0.11819 -2.30854,-0.33812c-0.38872,0.05804 -0.78658,0.08812 -1.19146,0.08812c-2.60343,0 -4.91641,-1.24359 -6.3773,-3.16915c-0.23843,-0.24629 -0.44835,-0.5209 -0.6227,-0.83085c-3.69249,-6.5643 2.54394,-14.33213 3.75,-20.67041c0.54328,-2.85512 0.71996,-5.22136 2.18553,-7.93441c1.31339,-2.43131 1.0795,-5.67525 2.31447,-8.14518c1.99888,-3.99775 5.68187,-8.62618 5.75,-13.27709c0.06177,-4.21684 3.14367,-8.14781 3.5,-11.98194c0.14686,-1.58024 -0.40534,-3.36088 0.48885,-4.84231c-0.08899,-0.68899 -0.0995,-1.41849 -0.21837,-2.07229c-0.36088,-1.98486 0.70664,-3.89465 0.75,-5.79822c0.07451,-3.27135 -0.65302,-6.87943 -0.08184,-10.08341c0.95969,-5.38331 2.99688,-11.79462 2.3207,-17.27311c-0.18126,-1.46863 -1.9489,-5.69657 -1.5387,-7.54247c1.14403,-5.14812 1.05041,-10.58042 2.2052,-15.87172c1.32885,-6.08885 2.38818,-12.66122 4.08351,-18.62136c0.66247,-2.329 1.85574,-4.70885 2.26114,-7.10037c0.41372,-2.44059 -0.34875,-4.24794 0.57219,-6.93047c1.65521,-4.82133 2.7278,-10.96534 7.42781,-13.52887c2.24001,-1.22177 5.08213,-0.46888 7.34205,-1.59884c1.44414,-0.72207 7.41638,-3.91019 8.92993,-2.90116h3.20604c0.92677,-0.61784 2.22868,-0.41091 3.56291,0.26493c1.05131,-0.1492 2.17552,-0.04367 3.28955,0.25581c0.70974,0.05089 1.39385,0.19437 2.04031,0.41842c1.18671,-0.14966 2.4472,0.08749 3.64642,-0.05035zM459.48204,39.64617c0.09343,0.0431 0.18524,0.08625 0.27545,0.12948c-0.00716,-0.15965 -0.01373,-0.31933 -0.01973,-0.47904c-0.08595,0.11602 -0.17147,0.23241 -0.25661,0.34915c0.0003,0.00014 0.00059,0.00027 0.00089,0.00041z"/></g></g></svg>