<svg version="1.1" xmlns="http://www.w3.org/2000/svg" xmlns:xlink="http://www.w3.org/1999/xlink" width="553.33333" height="431.22073" viewBox="0,0,553.33333,431.22073"><g transform="translate(36.66666,35.61036)"><g data-paper-data="{&quot;isPaintingLayer&quot;:true}" fill-rule="nonzero" stroke-linejoin="miter" stroke-miterlimit="10" stroke-dasharray="" stroke-dashoffset="0" style="mix-blend-mode: normal"><path d="M242.30559,178.65626h-1l241,-180v360z" data-paper-data="{&quot;index&quot;:null}" fill="#949494" stroke="#000000" stroke-width="0" stroke-linecap="butt"/><path d="M0.30558,359.65626l237,-181h3l241,181z" data-paper-data="{&quot;index&quot;:null}" fill="#8c8c8c" stroke="#000000" stroke-width="2" stroke-linecap="butt"/><path d="M237.30558,179.65627l-237,-182h480l-241,182z" data-paper-data="{&quot;index&quot;:null}" fill="#6f6f6f" stroke="#000000" stroke-width="2" stroke-linecap="butt"/><path d="M-3.69442,361.65626l3,-364l236,182v0z" data-paper-data="{&quot;index&quot;:null}" fill="#888888" stroke="#000000" stroke-width="0" stroke-linecap="butt"/><path d="M406.30558,54.65626v248h-332v-248z" data-paper-data="{&quot;index&quot;:null}" fill="none" stroke="#000000" stroke-width="2" stroke-linecap="round"/><path d="M315.30558,234.65627h-150v-109h144v109h44" data-paper-data="{&quot;index&quot;:null}" fill="none" stroke="#000000" stroke-width="2" stroke-linecap="round"/><path d="M309.30558,234.65626l1,-108l63,-49l-1,200z" data-paper-data="{&quot;index&quot;:null}" fill="#5a5a5a" stroke="#000000" stroke-width="0" stroke-linecap="butt"/><path d="M308.30558,128.65625h64" data-paper-data="{&quot;index&quot;:null}" fill="none" stroke="#000000" stroke-width="2" stroke-linecap="round"/><path d="M371.30558,235.65626h-62" data-paper-data="{&quot;index&quot;:null}" fill="none" stroke="#000000" stroke-width="2" stroke-linecap="round"/><path d="M336.44683,235.17513c0,0 -11.12858,-0.32264 -13.17918,-1.35711c-3.94984,-1.99255 -8.83056,-9.74603 -8.83056,-9.74603l62.53371,-69.76735l13.04894,23.36455z" data-paper-data="{&quot;index&quot;:null}" fill="#000000" stroke="none" stroke-width="0" stroke-linecap="butt"/><path d="M331.19875,211.42006c-9.03964,-8.10239 -2.08953,-15.57538 7.32949,-26.08395c9.41903,-10.50859 18.29409,-18.83895 27.33373,-10.73656c2.85763,2.56134 11.79815,13.39512 12.86493,22.93489c0.90843,8.12379 -5.66688,15.13881 -7.46326,17.14299c-1.84007,2.05292 -8.38928,9.76713 -15.7166,9.35025c-10.04232,-0.57134 -21.54228,-10.09256 -24.34828,-12.60763z" data-paper-data="{&quot;index&quot;:null}" fill="#980002" stroke="none" stroke-width="0" stroke-linecap="butt"/><path d="M349.07972,206.58025c-2.33629,-1.93701 0.43293,-3.96594 3.91954,-8.17125c3.48663,-4.20531 5.75928,-7.1813 8.09555,-5.24429c1.48681,1.23271 3.06804,1.126 2.09128,3.83939c-0.55806,1.55026 -3.17217,4.99755 -4.43989,6.52659c-0.51715,0.62375 -2.93893,3.02943 -3.49856,3.54447c-3.21338,2.95725 -4.17817,1.15481 -6.16791,-0.4949z" data-paper-data="{&quot;index&quot;:null}" fill="#300001" stroke="none" stroke-width="0" stroke-linecap="butt"/><path d="M246.26599,173.27177l-2.93932,-1.33075l2.8516,-6.29854l2.93932,1.33075z" data-paper-data="{&quot;index&quot;:null}" fill="#663f3f" stroke="#000000" stroke-width="0.5" stroke-linecap="butt"/><path d="M246.72974,177.27652l-2.93932,-1.33075l2.85159,-6.29853l2.93933,1.33074z" data-paper-data="{&quot;index&quot;:null}" fill="#663f3f" stroke="#000000" stroke-width="0.5" stroke-linecap="butt"/><path d="M245.50501,168.24703l-2.9393,-1.33074l2.8516,-6.29854l2.93932,1.33075z" data-paper-data="{&quot;index&quot;:null}" fill="#663f3f" stroke="#000000" stroke-width="0.5" stroke-linecap="butt"/><path d="M249.80907,170.19563l-2.93933,-1.33076l2.8516,-6.29854l2.93932,1.33075z" data-paper-data="{&quot;index&quot;:null}" fill="#663f3f" stroke="#000000" stroke-width="0.5" stroke-linecap="butt"/><path d="M242.32074,175.28041l-2.93932,-1.33075l2.85159,-6.29855l2.93933,1.33076z" data-paper-data="{&quot;index&quot;:null}" fill="#663f3f" stroke="#000000" stroke-width="0.5" stroke-linecap="butt"/><path d="M252.07516,174.13095l-12.1772,-5.51309l1.52085,-3.35923l12.17718,5.51308z" data-paper-data="{&quot;index&quot;:null}" fill="#663f3f" stroke="#000000" stroke-width="0.5" stroke-linecap="butt"/><path d="M284.78562,190.83632l-3.18076,-0.5415l1.16035,-6.81593l3.18076,0.5415z" data-paper-data="{&quot;index&quot;:null}" fill="#663f3f" stroke="#000000" stroke-width="0.5" stroke-linecap="butt"/><path d="M286.2502,194.59239l-3.18076,-0.5415l1.16036,-6.81591l3.18077,0.54148z" data-paper-data="{&quot;index&quot;:null}" fill="#663f3f" stroke="#000000" stroke-width="0.5" stroke-linecap="butt"/><path d="M282.77479,186.16902l-3.18075,-0.54149l1.16034,-6.81592l3.18076,0.5415z" data-paper-data="{&quot;index&quot;:null}" fill="#663f3f" stroke="#000000" stroke-width="0.5" stroke-linecap="butt"/><path d="M287.43234,186.96194l-3.18076,-0.5415l1.16035,-6.81593l3.18076,0.5415z" data-paper-data="{&quot;index&quot;:null}" fill="#663f3f" stroke="#000000" stroke-width="0.5" stroke-linecap="butt"/><path d="M281.47909,193.78015l-3.18076,-0.5415l1.16034,-6.81592l3.18076,0.5415z" data-paper-data="{&quot;index&quot;:null}" fill="#663f3f" stroke="#000000" stroke-width="0.5" stroke-linecap="butt"/><path d="M290.62271,190.19355l-13.17745,-2.24336l0.61885,-3.63516l13.17746,2.24337z" data-paper-data="{&quot;index&quot;:null}" fill="#663f3f" stroke="#000000" stroke-width="0.5" stroke-linecap="butt"/><path d="M247.71797,169.07552c2.60424,-4.52739 12.7898,-3.55301 22.75006,2.17633c9.96026,5.72934 15.9235,14.04406 13.31925,18.57146c-2.60425,4.5274 -12.78981,3.55302 -22.75007,-2.17632c-9.96026,-5.72934 -15.92349,-14.04407 -13.31924,-18.57147z" data-paper-data="{&quot;index&quot;:null}" fill="#a9a600" stroke="#000000" stroke-width="0.5" stroke-linecap="butt"/><path d="M333.6264,133.08855l-0.88505,-3.10277l6.64879,-1.89655l0.88505,3.10277z" data-paper-data="{&quot;index&quot;:null}" fill="#663f3f" stroke="#000000" stroke-width="0.5" stroke-linecap="butt"/><path d="M337.51977,134.13491l-0.88505,-3.10277l6.64878,-1.89656l0.88505,3.10277z" data-paper-data="{&quot;index&quot;:null}" fill="#663f3f" stroke="#000000" stroke-width="0.5" stroke-linecap="butt"/><path d="M328.7677,131.59857l-0.88505,-3.10277l6.64878,-1.89654l0.88504,3.10276z" data-paper-data="{&quot;index&quot;:null}" fill="#663f3f" stroke="#000000" stroke-width="0.5" stroke-linecap="butt"/><path d="M330.06368,136.14189l-0.88505,-3.10277l6.64879,-1.89655l0.88505,3.10277z" data-paper-data="{&quot;index&quot;:null}" fill="#663f3f" stroke="#000000" stroke-width="0.5" stroke-linecap="butt"/><path d="M336.19219,129.48075l-0.88505,-3.10277l6.64878,-1.89654l0.88505,3.10277z" data-paper-data="{&quot;index&quot;:null}" fill="#663f3f" stroke="#000000" stroke-width="0.5" stroke-linecap="butt"/><path d="M336.72663,138.07588l-3.66666,-12.85434l3.54602,-1.01148l3.66666,12.85432z" data-paper-data="{&quot;index&quot;:null}" fill="#663f3f" stroke="#000000" stroke-width="0.5" stroke-linecap="butt"/><path d="M374.19167,228.12299l-5.8766,-4.42927l9.4913,-12.59272l5.87659,4.42928z" data-paper-data="{&quot;index&quot;:null}" fill="#663f3f" stroke="#000000" stroke-width="0.5" stroke-linecap="butt"/><path d="M384.79034,214.06111l-5.87661,-4.42928l9.49131,-12.59271l5.8766,4.42927z" data-paper-data="{&quot;index&quot;:null}" fill="#663f3f" stroke="#000000" stroke-width="0.5" stroke-linecap="butt"/><path d="M397.58044,228.96695l-24.34594,-18.34987l5.06204,-6.71612l24.34594,18.34987z" data-paper-data="{&quot;index&quot;:null}" fill="#663f3f" stroke="#000000" stroke-width="0.5" stroke-linecap="butt"/><path d="M356.32609,194.97276c-19.49636,21.75162 -38.42012,38.44951 -38.42012,38.44951c-4.60622,-4.12864 -18.86637,-11.09614 -22.91819,-17.17046c-13.98842,-20.97086 -12.42718,-48.86281 2.69033,-65.72905c11.03658,-12.31325 32.8818,-19.34901 49.29611,-17.09649c12.58192,1.7266 19.98343,10.19632 28.88247,18.17269c4.77169,4.27694 -6.83571,29.21043 -19.53059,43.3738z" data-paper-data="{&quot;index&quot;:null}" fill="#a9a600" stroke="#929292" stroke-width="1" stroke-linecap="butt"/><path d="M323.21325,109.40029c-2.53386,-11.20765 -0.45815,-21.22695 4.63625,-22.37871c5.0944,-1.15175 11.2783,7.00018 13.81217,18.20784c2.53386,11.20765 0.45815,21.22695 -4.63625,22.37871c-5.09439,1.15175 -11.27831,-7.00019 -13.81218,-18.20785z" data-paper-data="{&quot;index&quot;:null}" fill="#a9a600" stroke="#000000" stroke-width="0.5" stroke-linecap="butt"/><path d="M328.79409,93.10242c3.65945,-0.82734 8.10155,5.02842 9.92169,13.07921c1.82014,8.05079 0.3291,15.24793 -3.33035,16.07527c-3.65945,0.82734 -8.10156,-5.02843 -9.9217,-13.07922c-1.82015,-8.05078 -0.32909,-15.24792 3.33036,-16.07526z" data-paper-data="{&quot;index&quot;:null}" fill="#cbc700" stroke="#000000" stroke-width="0.5" stroke-linecap="butt"/><path d="M268.3948,172.88774c7.14311,4.13571 11.40981,10.1205 9.52993,13.36737c-1.87989,3.24687 -9.19445,2.5263 -16.33756,-1.60942c-7.1431,-4.13572 -11.40981,-10.12048 -9.52993,-13.36735c1.87988,-3.24686 9.19445,-2.52632 16.33756,1.6094z" data-paper-data="{&quot;index&quot;:null}" fill="#cbc700" stroke="#000000" stroke-width="0.5" stroke-linecap="butt"/><path d="M221.94304,164.38009c-8.66475,-7.54682 -12.90805,-16.85751 -9.47768,-20.79604c3.43037,-3.93853 13.2354,-1.01344 21.90015,6.53338c8.66474,7.54681 12.90805,16.85751 9.47768,20.79604c-3.43038,3.93852 -13.23541,1.01343 -21.90016,-6.53339z" data-paper-data="{&quot;index&quot;:null}" fill="#a9a600" stroke="#000000" stroke-width="0.5" stroke-linecap="butt"/><path d="M217.40206,146.83049c2.51864,-2.78074 9.51972,-0.54311 15.63734,4.9979c6.11764,5.54102 9.03519,12.28715 6.51655,15.06788c-2.51865,2.78073 -9.51972,0.54307 -15.63734,-4.99794c-6.11763,-5.54101 -9.03518,-12.28712 -6.51654,-15.06785z" data-paper-data="{&quot;index&quot;:null}" fill="#cbc700" stroke="#000000" stroke-width="0.5" stroke-linecap="butt"/><path d="M341.87385,156.02092c2.97088,-3.31453 8.27612,-3.40497 11.8496,-0.20199c3.57349,3.20298 4.062,8.48646 1.09112,11.80099c-2.97088,3.31453 -8.27612,3.40497 -11.8496,0.20199c-3.57349,-3.20298 -4.062,-8.48646 -1.09112,-11.80099z" data-paper-data="{&quot;index&quot;:null}" fill="#ffffff" stroke="#ffffff" stroke-width="2" stroke-linecap="butt"/><path d="M312.26297,195.09455c2.97088,-3.31453 8.27613,-3.40496 11.8496,-0.20199c3.57347,3.20297 4.062,8.48646 1.09112,11.80099c-2.97088,3.31453 -8.27612,3.40497 -11.8496,0.20199c-3.57347,-3.20297 -4.062,-8.48646 -1.09112,-11.80099z" data-paper-data="{&quot;index&quot;:null}" fill="#ffffff" stroke="#ffffff" stroke-width="2" stroke-linecap="butt"/><path d="M350.11794,162.49342c-0.55705,0.62148 -1.51242,0.6737 -2.13389,0.11667c-0.62147,-0.55704 -0.67371,-1.51241 -0.11667,-2.13389c0.55705,-0.62148 1.51242,-0.6737 2.13389,-0.11667c0.62147,0.55704 0.67371,1.51241 0.11667,2.13389z" data-paper-data="{&quot;index&quot;:null}" fill="#000000" stroke="none" stroke-width="0.5" stroke-linecap="butt"/><path d="M321.3023,203.1531c-0.73428,0.81921 -1.99364,0.88807 -2.81285,0.15379c-0.81921,-0.73428 -0.88807,-1.99364 -0.15379,-2.81285c0.73428,-0.81921 1.99364,-0.88807 2.81285,-0.15379c0.81921,0.73428 0.88807,1.99364 0.15379,2.81285z" data-paper-data="{&quot;index&quot;:null}" fill="#000000" stroke="none" stroke-width="0.5" stroke-linecap="butt"/><path d="M317.80704,231.62818c1.13691,-2.7522 14.32392,0.92221 22.92111,-4.41427c10.22915,-6.34946 21.15204,-16.76619 25.42355,-22.71057c4.53679,-6.31352 8.09058,-17.67391 11.99092,-27.45456c3.28394,-8.23494 -3.44661,-21.88363 -0.51916,-23.27494c2.77739,-1.31998 10.60994,17.57059 12.06552,18.61654c4.812,3.45781 0.24267,22.9192 -11.73789,39.59176c-11.98055,16.67254 -31.52184,28.56546 -36.33384,25.10765c-1.6544,-1.18882 -25.11466,-2.30391 -23.81021,-5.46161z" data-paper-data="{&quot;index&quot;:null}" fill="#a9a600" stroke="#929292" stroke-width="1" stroke-linecap="butt"/><path d="M378.92094,177.03511l-2.5602,-0.91871l1.32704,-3.69807l2.5602,0.91871z" data-paper-data="{&quot;index&quot;:null}" fill="#ffffff" stroke="none" stroke-width="0" stroke-linecap="butt"/><path d="M376.71539,183.60796l-2.47949,-1.11838l1.61546,-3.58149l2.47949,1.11838z" data-paper-data="{&quot;index&quot;:null}" fill="#ffffff" stroke="none" stroke-width="0" stroke-linecap="butt"/><path d="M369.75969,199.92136l-2.47949,-1.11838l1.61546,-3.58149l2.47949,1.11838z" data-paper-data="{&quot;index&quot;:null}" fill="#ffffff" stroke="none" stroke-width="0" stroke-linecap="butt"/><path d="M364.32427,206.74523l-2.05293,-1.78442l2.5775,-2.96535l2.05293,1.78442z" data-paper-data="{&quot;index&quot;:null}" fill="#ffffff" stroke="none" stroke-width="0" stroke-linecap="butt"/><path d="M373.42279,190.80331l-2.4795,-1.11839l1.61546,-3.58149l2.47949,1.11838z" data-paper-data="{&quot;index&quot;:null}" fill="#ffffff" stroke="none" stroke-width="0" stroke-linecap="butt"/><path d="M358.42357,214.08318l-2.05293,-1.78442l2.5775,-2.96535l2.05293,1.78442z" data-paper-data="{&quot;index&quot;:null}" fill="#ffffff" stroke="none" stroke-width="0" stroke-linecap="butt"/><path d="M351.08994,219.96924l-1.71338,-2.11258l3.05151,-2.47487l1.71338,2.11258z" data-paper-data="{&quot;index&quot;:null}" fill="#ffffff" stroke="none" stroke-width="0" stroke-linecap="butt"/><path d="M344.97591,224.34152l-1.42169,-2.31894l3.34959,-2.05355l1.42169,2.31894z" data-paper-data="{&quot;index&quot;:null}" fill="#ffffff" stroke="none" stroke-width="0" stroke-linecap="butt"/><path d="M338.79464,228.72222l-1.42169,-2.31894l3.34958,-2.05356l1.42169,2.31894z" data-paper-data="{&quot;index&quot;:null}" fill="#ffffff" stroke="none" stroke-width="0" stroke-linecap="butt"/><path d="M356.66611,198.25523l-2.09691,-1.73252l2.50255,-3.02887l2.09691,1.73252z" data-paper-data="{&quot;index&quot;:null}" fill="#ffffff" stroke="none" stroke-width="0" stroke-linecap="butt"/><path d="M349.61882,206.36929l-2.09691,-1.73252l2.50255,-3.02887l2.09691,1.73252z" data-paper-data="{&quot;index&quot;:null}" fill="#ffffff" stroke="none" stroke-width="0" stroke-linecap="butt"/><path d="M341.67854,214.6171l-2.09691,-1.73252l2.50255,-3.02887l2.09693,1.73253z" data-paper-data="{&quot;index&quot;:null}" fill="#ffffff" stroke="none" stroke-width="0" stroke-linecap="butt"/><path d="M363.09691,189.9497l-2.17306,-1.63597l2.3631,-3.13889l2.17308,1.63599z" data-paper-data="{&quot;index&quot;:null}" fill="#ffffff" stroke="none" stroke-width="0" stroke-linecap="butt"/><path d="M369.82273,179.70684l-2.46962,-1.14002l1.6467,-3.56724l2.46963,1.14003z" data-paper-data="{&quot;index&quot;:null}" fill="#ffffff" stroke="none" stroke-width="0" stroke-linecap="butt"/><path d="M332.35936,223.69601l-1.71835,-2.10853l3.04568,-2.48207l1.71835,2.10855z" data-paper-data="{&quot;index&quot;:null}" fill="#ffffff" stroke="none" stroke-width="0" stroke-linecap="butt"/><path d="M336.60688,205.16222c-3.35479,-3.00696 -7.56887,-7.93115 -6.89078,-12.7743c0.40678,-2.90541 4.15297,-6.32659 6.16332,-8.56949c2.15947,-2.40927 4.61373,-6.53448 7.94633,-7.12868c4.94152,-0.88107 11.08107,3.20161 13.49362,5.36403c4.03959,3.62075 -1.27239,9.34378 -6.63389,15.32547c-5.3615,5.98169 -8.71128,12.59377 -14.07859,7.78295z" data-paper-data="{&quot;index&quot;:null}" fill="#817f00" stroke="#000000" stroke-width="0" stroke-linecap="butt"/><path d="M334.92928,183.16103c1.38146,-1.54126 3.61691,-1.79079 4.99304,-0.55734c1.37613,1.23344 1.3718,3.48279 -0.00965,5.02404c-1.38146,1.54126 -3.61691,1.79079 -4.99304,0.55734c-1.37613,-1.23344 -1.3718,-3.48279 0.00965,-5.02404z" data-paper-data="{&quot;index&quot;:null}" fill="#3d3c00" stroke="none" stroke-width="0" stroke-linecap="butt"/><path d="M372.79356,257.13906v-127h30v127z" data-paper-data="{&quot;index&quot;:null}" fill="#949494" stroke="none" stroke-width="0" stroke-linecap="butt"/><path d="M-36.66666,395.61038v-431.22073h553.33333v431.22073z" data-paper-data="{&quot;index&quot;:null}" fill-opacity="0.62745" fill="#000000" stroke="none" stroke-width="0" stroke-linecap="butt"/></g></g></svg>