<svg version="1.1" xmlns="http://www.w3.org/2000/svg" xmlns:xlink="http://www.w3.org/1999/xlink" width="125.23398" height="72.38081" viewBox="0,0,125.23398,72.38081"><g transform="translate(-190.84456,-150.90941)"><g data-paper-data="{&quot;isPaintingLayer&quot;:true}" fill-rule="nonzero" stroke-linejoin="miter" stroke-miterlimit="10" stroke-dasharray="" stroke-dashoffset="0" style="mix-blend-mode: normal"><path d="M194.88141,222.29021v-53.09081h85.71174v53.09081z" fill="#646464" stroke="#000000" stroke-width="2" stroke-linecap="butt"/><path d="M282.2023,220.62502v-51.93717l30.82474,-14.87897v44.63796z" fill="#242424" stroke="#000000" stroke-width="2" stroke-linecap="butt"/><path d="M198.27171,167.76162l57.79372,-15.85016l55.63638,0.84852l-32.2438,15.00164z" fill="#383838" stroke="#000000" stroke-width="2" stroke-linecap="butt"/><path d="M199.12717,219.74779v-47.81112h77.18802v47.81112z" fill="#555555" stroke="#000000" stroke-width="1" stroke-linecap="butt"/><path d="M201.97801,193.74225c0,-2.25612 1.82894,-4.08504 4.08504,-4.08504c2.25612,0 4.08504,1.82894 4.08504,4.08504c0,2.25612 -1.82894,4.08504 -4.08504,4.08504c-2.25612,0 -4.08504,-1.82894 -4.08504,-4.08504z" fill="#888888" stroke="none" stroke-width="0" stroke-linecap="butt"/><path d="M202.98894,204.72187v-9.96869h5.90736v9.96869z" fill="#888888" stroke="none" stroke-width="0" stroke-linecap="butt"/><path d="M211.42436,195.94728c0,-1.94806 1.57921,-3.52727 3.52727,-3.52727c1.94806,0 3.52727,1.57922 3.52727,3.52727c0,1.94806 -1.57922,3.52727 -3.52727,3.52727c-1.94806,0 -3.52727,-1.57922 -3.52727,-3.52727z" fill="#888888" stroke="none" stroke-width="0" stroke-linecap="butt"/><path d="M221.22745,207.54258c-2.10793,-3.08521 -3.39219,-23.7119 0,-28.27801c0.99363,-1.33747 27.84038,-1.2842 28.88844,0c3.0792,3.77303 1.8859,26.56881 0,28.27801c-2.85351,2.58611 -26.36256,3.69692 -28.88844,0z" fill="#888888" stroke="none" stroke-width="0" stroke-linecap="butt"/><path d="M249.50461,192.43528c-0.71412,0.27124 -2.5604,0.24854 -3.47628,0.21648c-0.97426,-0.03411 -2.54429,0.10871 -3.26108,-0.24797c-1.06767,-0.53129 -0.99448,-2.83712 -0.20581,-3.29835c0.8153,-0.4768 2.25817,-0.34634 3.49102,-0.30318c1.30228,0.04558 2.92941,-0.33481 3.7142,0.24883c0.67684,0.50337 0.91497,2.93713 -0.26204,3.38418z" fill="#636363" stroke="none" stroke-width="0" stroke-linecap="butt"/><path d="M249.70247,198.30174c-0.71412,0.27124 -2.56041,0.24855 -3.47629,0.21649c-0.97426,-0.03411 -2.54428,0.10871 -3.26108,-0.24797c-1.06767,-0.53129 -0.99448,-2.83712 -0.20581,-3.29835c0.8153,-0.4768 2.25818,-0.34634 3.49103,-0.30318c1.30228,0.04558 2.9294,-0.33481 3.71419,0.24883c0.67684,0.50337 0.91498,2.93712 -0.26203,3.38417z" fill="#636363" stroke="none" stroke-width="0" stroke-linecap="butt"/><path d="M239.03869,192.10692c-0.71412,0.27124 -2.56041,0.24855 -3.47629,0.21649c-0.97426,-0.03411 -2.54428,0.1087 -3.26108,-0.24798c-1.06767,-0.53129 -0.99449,-2.83713 -0.20582,-3.29835c0.8153,-0.4768 2.25818,-0.34633 3.49104,-0.30317c1.30228,0.04558 2.9294,-0.33482 3.71419,0.24882c0.67684,0.50337 0.91498,2.93713 -0.26203,3.38419z" fill="#636363" stroke="none" stroke-width="0" stroke-linecap="butt"/><path d="M239.09393,198.88714c-0.71412,0.27124 -2.5604,0.24855 -3.47628,0.21648c-0.97426,-0.03411 -2.54429,0.10871 -3.26108,-0.24797c-1.06767,-0.53129 -0.99448,-2.83713 -0.20581,-3.29835c0.8153,-0.4768 2.25817,-0.34633 3.49102,-0.30317c1.30228,0.04558 2.9294,-0.33482 3.71419,0.24882c0.67684,0.50337 0.91498,2.93713 -0.26203,3.38419z" fill="#636363" stroke="none" stroke-width="0" stroke-linecap="butt"/><path d="M228.65574,192.56895c-0.71412,0.27124 -2.56041,0.24855 -3.47629,0.21649c-0.97426,-0.03411 -2.54429,0.10871 -3.26109,-0.24797c-1.06767,-0.53129 -0.99448,-2.83713 -0.20581,-3.29835c0.8153,-0.4768 2.25817,-0.34634 3.49102,-0.30318c1.30228,0.04558 2.92941,-0.33481 3.7142,0.24883c0.67684,0.50337 0.91498,2.93713 -0.26203,3.38419z" fill="#636363" stroke="none" stroke-width="0" stroke-linecap="butt"/><path d="M228.95491,198.70148c-0.71412,0.27124 -2.56041,0.24854 -3.47629,0.21648c-0.97426,-0.03411 -2.54429,0.10871 -3.26109,-0.24797c-1.06767,-0.53129 -0.99448,-2.83712 -0.20581,-3.29835c0.8153,-0.4768 2.25817,-0.34634 3.49102,-0.30318c1.30228,0.04558 2.92941,-0.33481 3.7142,0.24883c0.67684,0.50337 0.91498,2.93713 -0.26203,3.38418z" fill="#636363" stroke="none" stroke-width="0" stroke-linecap="butt"/><path d="M228.30888,185.55405c-0.71412,0.27124 -2.5604,0.24855 -3.47628,0.21649c-0.97426,-0.03411 -2.54429,0.10871 -3.26109,-0.24797c-1.06767,-0.53129 -0.99447,-2.83714 -0.2058,-3.29836c0.8153,-0.4768 2.25817,-0.34633 3.49102,-0.30317c1.30228,0.04558 2.9294,-0.33482 3.71419,0.24882c0.67684,0.50337 0.91498,2.93713 -0.26203,3.38419z" fill="#636363" stroke="none" stroke-width="0" stroke-linecap="butt"/><path d="M249.2828,185.71665c-0.71412,0.27124 -2.5604,0.24855 -3.47628,0.21649c-0.97426,-0.03411 -2.54429,0.1087 -3.26108,-0.24798c-1.06767,-0.53129 -0.99448,-2.83713 -0.20581,-3.29835c0.8153,-0.4768 2.25817,-0.34633 3.49102,-0.30317c1.30228,0.04558 2.9294,-0.33482 3.71419,0.24882c0.67684,0.50337 0.91498,2.93713 -0.26203,3.38419z" fill="#636363" stroke="none" stroke-width="0" stroke-linecap="butt"/><path d="M239.05712,185.96832c-0.71412,0.27124 -2.5604,0.24854 -3.47628,0.21648c-0.97426,-0.03411 -2.54429,0.10871 -3.26109,-0.24797c-1.06767,-0.53129 -0.99448,-2.83713 -0.20581,-3.29835c0.8153,-0.4768 2.25817,-0.34633 3.49102,-0.30317c1.30228,0.04558 2.92941,-0.33482 3.7142,0.24882c0.67684,0.50337 0.91497,2.93713 -0.26204,3.38419z" fill="#636363" stroke="none" stroke-width="0" stroke-linecap="butt"/><text transform="translate(224.11609,185.26263) rotate(2.00094) scale(0.08683,0.10301) skewX(-0.00455)" font-size="40" xml:space="preserve" fill="#000000" fill-rule="nonzero" stroke="none" stroke-width="1" stroke-linecap="butt" stroke-linejoin="miter" stroke-miterlimit="10" stroke-dasharray="" stroke-dashoffset="0" font-family="Sans Serif" font-weight="normal" text-anchor="start" style="mix-blend-mode: normal"><tspan x="0" dy="0">1</tspan></text><text transform="translate(234.84168,185.89656) rotate(2.00094) scale(0.08683,0.10301) skewX(-0.00455)" font-size="40" xml:space="preserve" fill="#000000" fill-rule="nonzero" stroke="none" stroke-width="1" stroke-linecap="butt" stroke-linejoin="miter" stroke-miterlimit="10" stroke-dasharray="" stroke-dashoffset="0" font-family="Sans Serif" font-weight="normal" text-anchor="start" style="mix-blend-mode: normal"><tspan x="0" dy="0">2</tspan></text><text transform="translate(244.94762,185.56107) rotate(2.00094) scale(0.08683,0.10301) skewX(-0.00455)" font-size="40" xml:space="preserve" fill="#000000" fill-rule="nonzero" stroke="none" stroke-width="1" stroke-linecap="butt" stroke-linejoin="miter" stroke-miterlimit="10" stroke-dasharray="" stroke-dashoffset="0" font-family="Sans Serif" font-weight="normal" text-anchor="start" style="mix-blend-mode: normal"><tspan x="0" dy="0">3</tspan></text><text transform="translate(245.36845,192.20994) rotate(2.00094) scale(0.08683,0.10301) skewX(-0.00455)" font-size="40" xml:space="preserve" fill="#000000" fill-rule="nonzero" stroke="none" stroke-width="1" stroke-linecap="butt" stroke-linejoin="miter" stroke-miterlimit="10" stroke-dasharray="" stroke-dashoffset="0" font-family="Sans Serif" font-weight="normal" text-anchor="start" style="mix-blend-mode: normal"><tspan x="0" dy="0">6</tspan></text><text transform="translate(224.08233,192.15405) rotate(2.00094) scale(0.08683,0.10301) skewX(-0.00455)" font-size="40" xml:space="preserve" fill="#000000" fill-rule="nonzero" stroke="none" stroke-width="1" stroke-linecap="butt" stroke-linejoin="miter" stroke-miterlimit="10" stroke-dasharray="" stroke-dashoffset="0" font-family="Sans Serif" font-weight="normal" text-anchor="start" style="mix-blend-mode: normal"><tspan x="0" dy="0">4</tspan></text><text transform="translate(234.78491,191.66713) rotate(2.00094) scale(0.08683,0.10301) skewX(-0.00455)" font-size="40" xml:space="preserve" fill="#000000" fill-rule="nonzero" stroke="none" stroke-width="1" stroke-linecap="butt" stroke-linejoin="miter" stroke-miterlimit="10" stroke-dasharray="" stroke-dashoffset="0" font-family="Sans Serif" font-weight="normal" text-anchor="start" style="mix-blend-mode: normal"><tspan x="0" dy="0">5</tspan></text><text transform="translate(224.27733,198.43808) rotate(2.00094) scale(0.08683,0.10301) skewX(-0.00455)" font-size="40" xml:space="preserve" fill="#000000" fill-rule="nonzero" stroke="none" stroke-width="1" stroke-linecap="butt" stroke-linejoin="miter" stroke-miterlimit="10" stroke-dasharray="" stroke-dashoffset="0" font-family="Sans Serif" font-weight="normal" text-anchor="start" style="mix-blend-mode: normal"><tspan x="0" dy="0">7</tspan></text><text transform="translate(234.75116,198.55856) rotate(2.00094) scale(0.08683,0.10301) skewX(-0.00455)" font-size="40" xml:space="preserve" fill="#000000" fill-rule="nonzero" stroke="none" stroke-width="1" stroke-linecap="butt" stroke-linejoin="miter" stroke-miterlimit="10" stroke-dasharray="" stroke-dashoffset="0" font-family="Sans Serif" font-weight="normal" text-anchor="start" style="mix-blend-mode: normal"><tspan x="0" dy="0">8</tspan></text><text transform="translate(245.35013,198.06801) rotate(2.00094) scale(0.08683,0.10301) skewX(-0.00455)" font-size="40" xml:space="preserve" fill="#000000" fill-rule="nonzero" stroke="none" stroke-width="1" stroke-linecap="butt" stroke-linejoin="miter" stroke-miterlimit="10" stroke-dasharray="" stroke-dashoffset="0" font-family="Sans Serif" font-weight="normal" text-anchor="start" style="mix-blend-mode: normal"><tspan x="0" dy="0">9</tspan></text><path d="M239.01556,204.60602c-0.71412,0.27124 -2.5604,0.24854 -3.47628,0.21648c-0.97426,-0.03411 -2.54429,0.10871 -3.26109,-0.24797c-1.06767,-0.53129 -0.99448,-2.83712 -0.20581,-3.29835c0.8153,-0.4768 2.25817,-0.34633 3.49102,-0.30317c1.30228,0.04558 2.9294,-0.33482 3.71419,0.24882c0.67684,0.50337 0.91498,2.93713 -0.26203,3.38418z" fill="#636363" stroke="none" stroke-width="0" stroke-linecap="butt"/><path d="M229.20669,204.52763c-0.71412,0.27124 -2.5604,0.24854 -3.47628,0.21648c-0.97426,-0.03411 -2.54429,0.10871 -3.26109,-0.24797c-1.06767,-0.53129 -0.99448,-2.83712 -0.20581,-3.29835c0.8153,-0.4768 2.25817,-0.34633 3.49102,-0.30317c1.30228,0.04558 2.9294,-0.33482 3.71419,0.24882c0.67684,0.50337 0.91498,2.93713 -0.26203,3.38418z" fill="#000000" stroke="none" stroke-width="0" stroke-linecap="butt"/><path d="M249.42519,204.52235c-0.71412,0.27124 -2.5604,0.24854 -3.47628,0.21648c-0.97426,-0.03411 -2.54429,0.10871 -3.26108,-0.24797c-1.06767,-0.53129 -0.99448,-2.83712 -0.20581,-3.29835c0.8153,-0.4768 2.25817,-0.34633 3.49102,-0.30317c1.30228,0.04558 2.9294,-0.33482 3.71419,0.24882c0.67684,0.50337 0.91498,2.93713 -0.26203,3.38418z" fill="#636363" stroke="none" stroke-width="0" stroke-linecap="butt"/><text transform="translate(234.56969,204.36954) rotate(2.00094) scale(0.08683,0.10301) skewX(-0.00455)" font-size="40" xml:space="preserve" fill="#000000" fill-rule="nonzero" stroke="none" stroke-width="1" stroke-linecap="butt" stroke-linejoin="miter" stroke-miterlimit="10" stroke-dasharray="" stroke-dashoffset="0" font-family="Sans Serif" font-weight="normal" text-anchor="start" style="mix-blend-mode: normal"><tspan x="0" dy="0">0</tspan></text><path d="M228.92104,204.99766c-0.61438,0.45396 -2.39823,0.93055 -3.28875,1.14693c-0.94729,0.23018 -2.42047,0.79156 -3.20694,0.64163c-1.17146,-0.22332 -1.72349,-2.4633 -1.08862,-3.12031c0.6563,-0.6792 2.08082,-0.94311 3.27955,-1.23439c1.26623,-0.30769 2.73023,-1.11324 3.64345,-0.76314c0.78761,0.30195 1.67395,2.58105 0.66133,3.32927z" fill="#636363" stroke="none" stroke-width="0" stroke-linecap="butt"/><text transform="translate(222.23033,206.00336) rotate(-16.18613) scale(0.05476,0.06497) skewX(0.00356)" font-size="40" xml:space="preserve" fill="#000000" fill-rule="nonzero" stroke="none" stroke-width="1" stroke-linecap="butt" stroke-linejoin="miter" stroke-miterlimit="10" stroke-dasharray="" stroke-dashoffset="0" font-family="Sans Serif" font-weight="normal" text-anchor="start" style="mix-blend-mode: normal"><tspan x="0" dy="0">ENTER</tspan></text><path d="M225.12869,200.79041c0.25461,0.25461 0,0.50921 0,0.50921l-0.0226,-0.00354c-0.40509,0.79013 -1.07957,1.40767 -1.94556,1.629c0,0 -0.34932,0.08733 -0.43664,-0.26199c-0.08733,-0.34932 0.26199,-0.43664 0.26199,-0.43664c0.64987,-0.158 1.18582,-0.65173 1.47611,-1.25242l0.15749,-0.18362c0,0 0.25461,-0.25461 0.50921,0z" fill="#ff0000" stroke="none" stroke-width="0.5" stroke-linecap="butt"/><path d="M229.19348,200.78575c0.34932,0.08733 0.26199,0.43664 0.26199,0.43664l-0.12603,0.45025c-0.10962,0.11578 -0.21924,0.23156 -0.32886,0.34733c0,0 -0.25461,0.25461 -0.50921,0c-0.25461,-0.25461 0,-0.50921 0,-0.50921c0.07047,-0.06431 0.14094,-0.12862 0.21141,-0.19293l0.05406,-0.2701c0,0 0.08733,-0.34932 0.43664,-0.26199z" fill="#1dff00" stroke="none" stroke-width="0.5" stroke-linecap="butt"/><path d="M226.27666,201.38613c-0.07813,0.15626 -0.19416,0.19879 -0.29293,0.20117c-0.02157,0.08829 -0.03234,0.17879 -0.02924,0.26811c0,0 0,0.36007 -0.36007,0.36007c-0.36007,0 -0.36007,-0.36007 -0.36007,-0.36007c0.00658,-0.30258 0.08815,-0.60805 0.2181,-0.88138l0.66317,-0.07098c0,0 0.32205,0.16103 0.16103,0.48308z" fill="#ffb800" stroke="none" stroke-width="0.5" stroke-linecap="butt"/><path d="M227.83001,200.61032c0.25461,0.25461 0,0.50921 0,0.50921c-0.09004,0.09004 -0.45022,0.45022 -0.54026,0.54027c0,0 -0.25461,0.25461 -0.50921,0c-0.25461,-0.25461 0,-0.50921 0,-0.50921c0.09004,-0.09004 0.18009,-0.18009 0.27013,-0.27013l0.27013,-0.27013c0,0 0.25461,-0.25461 0.50921,0z" fill="#0010ff" stroke="none" stroke-width="0.5" stroke-linecap="butt"/><path d="M242.75895,202.90399c0,-0.7732 0.6268,-1.4 1.4,-1.4c0.7732,0 1.4,0.6268 1.4,1.4c0,0.7732 -0.6268,1.4 -1.4,1.4c-0.7732,0 -1.4,-0.6268 -1.4,-1.4z" fill="none" stroke="#000000" stroke-width="0.5" stroke-linecap="butt"/><path d="M245.75895,202.70399h3.5v1.2" fill="none" stroke="#000000" stroke-width="0.5" stroke-linecap="round"/><path d="M247.65895,202.90399v0.7" fill="none" stroke="#000000" stroke-width="0.5" stroke-linecap="round"/></g></g></svg>