<svg version="1.1" xmlns="http://www.w3.org/2000/svg" xmlns:xlink="http://www.w3.org/1999/xlink" width="507.3402" height="385.87721" viewBox="0,0,507.3402,385.87721"><g transform="translate(12.30557,12.91152)"><g data-paper-data="{&quot;isPaintingLayer&quot;:true}" fill-rule="nonzero" stroke-linejoin="miter" stroke-miterlimit="10" stroke-dasharray="" stroke-dashoffset="0" style="mix-blend-mode: normal"><path d="M-9.95718,114.75898c-0.22651,-0.74084 -0.34838,-1.52737 -0.34838,-2.34237c0,-0.0027 0,-0.00539 0,-0.00809c-0.11608,-1.85825 0.04551,-3.7791 0,-5.31808c-0.18024,-6.09485 -0.67119,-10.78112 -0.4103,-16.53265c0.46638,-10.28155 0.36045,-15.03165 0.36045,-28.19397c0,-4.99912 2.48379,-14.87355 2.04984,-19.46237c-0.58799,-6.21787 -2.27924,-12.79352 -2.5,-18.98485c-0.08908,-2.49841 -0.03836,-5.00029 0,-7.5c0.03782,-2.46461 0.40493,-6.32116 1.47669,-9.81763c-0.06922,-0.09907 -0.12261,-0.20197 -0.15821,-0.30879l-2.66569,-5.96208c1.61067,-2.26623 2.31085,-5.77723 4.53307,-7.21179c0.28002,-0.18076 0.5842,-0.32856 0.91742,-0.43674c4.95167,-1.60758 11.50476,1.02362 16.55145,0.64853c11.60303,-0.86239 23.48251,-3.05609 35.01513,-4.43974c18.54844,-2.22539 29.70072,-1.91236 52.12023,-1.52593c4.9383,0.08512 13.33236,-0.44809 19.13842,-0.00147c4.3646,0.33574 8.7206,1.38249 13.12329,1.46715c6.44368,0.12391 12.89076,0.11423 19.33462,0c4.47928,-0.07941 9.22379,-1.34485 13.70666,-0.76114c19.32609,2.51644 36.81284,10.74707 57.02685,7.33935c17.80204,-3.0011 35.84658,-3.74969 54.01662,-4.56649c1.6497,-0.07416 3.48777,-0.30331 5.26493,-0.3223c0.57474,-0.52678 1.2267,-0.97067 1.93694,-1.31273c0.28002,-0.18076 0.5842,-0.32856 0.91742,-0.43674c5.0209,-1.63005 11.42596,1.79187 16.29303,2.14853c7.49283,0.54908 15.04503,0.23334 22.51495,1.03604c5.60071,0.60184 11.79694,2.64026 17.43356,3.55071c12.82638,2.07178 26.41493,1.07595 39.17,-0.06127c4.08101,-0.36386 8.17292,-0.60002 12.25244,-0.9802c0.79192,-0.0738 4.1942,-0.21344 5.43484,-0.54528c3.77597,-1.00997 14.49595,-7.17589 20.03854,-4.46151c5.60558,0.75269 11.47277,4.58138 16.94042,4.38551c7.07328,-0.2534 14.32512,-1.83773 21.31917,-1.924c7.23078,-0.08918 12.06829,0.84155 18.48485,1c5.71712,0.14118 20.91681,-3.19932 23.17057,4.92229c1.96713,7.08871 -2.05527,6.71769 -3.40845,12.13503c-1.21038,4.84564 -0.22445,14.79084 -0.24697,15.94268c-0.02413,1.23452 -1.04444,2.98257 -0.96292,4.11215c1.2816,17.75901 -0.14363,35.58682 0.46292,53.17747c0.55129,15.98771 2.90969,31.11784 2.5,47.0086c-0.08554,3.31786 -0.43158,6.70773 -0.5,10.00902c-0.116,5.59672 -0.1204,11.19713 0,16.79376c0.03373,1.56809 0.48726,3.66977 0.5,5.399c0.04267,5.79181 2.02945,17.16056 -4.0045,20.93341c-0.00291,0.08745 -0.00722,0.17454 -0.01292,0.26125c0.23691,6.04266 -1.89591,14.54909 -2.02632,15.83404c-0.81722,8.05227 -1.56013,16.11869 -1.93629,24.20358c-0.45744,9.83192 0.66479,19.62286 -0.04354,29.54375c-0.15856,2.22073 -0.82693,7.17569 -0.97644,9.95497c-0.47341,8.80048 2.85758,15.48483 4.1881,23.68385c0.34474,2.12439 1.03575,6.52376 -0.6881,8.24761c-0.42767,0.42767 -0.84247,0.82104 -1.24648,1.18012c0.36471,0.32867 0.73829,0.68497 1.12224,1.06892c0.97183,0.97183 0.85612,2.63318 1,4c0.41794,3.97043 -0.12329,9.25979 0,13.33341c0.11609,3.83584 0.24246,7.67252 0.47928,11.5028c0.37106,6.00134 -0.12024,11.04177 -0.97928,16.87864c-0.39831,2.70639 0.92235,6.08039 1,8.78516c0.05671,1.97522 0.46039,7.80307 -1.2918,9.47214c-5.73586,5.46377 -10.31908,3.43416 -17.27818,3.00753c-1.43051,-0.0877 -2.85937,-0.20005 -4.28857,-0.30746c-1.44648,1.43869 -3.44014,2.32779 -5.64145,2.32779c-1.0079,0.78035 -2.65709,-0.02198 -4.24458,-1.21763c-0.62874,-0.39431 -1.19875,-0.87363 -1.69392,-1.42184c-1.2879,-1.17875 -2.32167,-2.32201 -2.60527,-2.59059c-7.02417,-6.65213 -14.69276,-12.32224 -21.80796,-18.82359c-5.6746,-5.18505 -10.38071,-10.84008 -15.45912,-16.17948c-4.32787,-4.55029 -10.9132,-9.37253 -16.00782,-13.77182c-12.23952,-10.56904 -25.57947,-17.71214 -39.8327,-24.64189c-2.04776,-0.99559 -3.81329,-3.52727 -5.83169,-4.09202c-12.04003,-3.36879 -24.07955,-8.20168 -36.24578,-10.94172c-1.11211,-0.25047 -10.25256,-2.38046 -13.84268,-1.81942c-7.59485,1.18688 -14.86057,6.6277 -22.4285,7c-13.01054,0.64004 -26.01762,-3.29447 -38.94308,-4.5c-6.50951,-0.60713 -13.39442,1.76722 -20.05692,1.5c-12.07514,-0.48431 -24.37078,-2.74506 -36.49806,-3c-9.30867,-0.19569 -21.32197,1.19143 -31.00194,0.5c-0.86603,-0.06186 -1.65445,-0.20425 -2.3667,-0.41602c-0.47821,0.10103 -0.97219,0.15935 -1.47774,0.17076c-0.96062,0.10136 -1.92372,0.19258 -2.88589,0.50208c-3.24463,1.04369 -6.39953,2.40095 -9.41308,3.99326c-4.65959,2.46205 -11.13624,2.70038 -14.82627,6.76158c-3.11571,3.42912 -2.85392,7.2902 -4.70571,11.39652c-2.84874,6.31702 -7.53844,11.77008 -9.74749,18.41081c-2.08159,6.25757 -4.44129,12.45323 -6.44531,18.78126c-1.05076,3.31795 -0.5198,4.29936 -2.8395,7.2349c-0.96204,1.21744 -3.2069,1.22488 -4.34981,2.38912c-1.47408,1.50159 -3.22989,3.49158 -4.59694,4.97217c-4.11107,4.45249 -8.44645,12.43485 -14.34428,14.64986c-12.11615,4.55039 -27.22139,4.66068 -39.8673,3.36658c-5.77759,-0.59124 -17.29251,-3.27988 -22.87922,-1.90187c-0.61266,0.15112 -1.28579,0.31582 -1.99742,0.48022c0.14002,0.5927 0.21412,1.21088 0.21412,1.84636c0,0.19531 -0.007,0.38899 -0.02076,0.5808c-0.30271,5.10694 -3.70256,7.33576 -7.29159,7.39006c-0.22665,0.0193 -0.456,0.02914 -0.68765,0.02914c-2.52028,0 -4.76836,-1.16542 -6.23473,-2.98676c-0.61911,-0.70237 -1.10985,-1.51837 -1.42069,-2.43553c-1.04922,-3.0959 -1.45626,-6.27279 -1.62484,-9.48203c-0.52665,-0.60531 -0.8982,-1.17342 -0.71975,-1.97644c0.14746,-0.66356 0.34315,-1.53606 0.59886,-2.49868c-0.0211,-1.98621 -0.02272,-3.97614 -0.09886,-5.95847c-0.37566,-9.78136 -2.64397,-19.8599 -2,-29.6621c0.19037,-2.89766 1.64012,-5.63951 2,-8.38854c0.76334,-5.83102 -0.6138,-11.74576 -0.98462,-17.61483c-0.64187,-10.15928 -1.35359,-20.31406 -1.99824,-30.47316c-0.41652,-6.564 -3.03399,-22.24572 0.48286,-28.02347c0.28147,-0.46242 0.62665,-0.87946 1.01999,-1.25496c0.00066,-0.00933 0.00133,-0.01866 0.00202,-0.02799c0.01234,-1.06755 0.08207,-2.15988 -0.02201,-3.33345c-0.53295,-6.00912 -0.81136,-12.04072 -1,-18.07048c-0.252,-8.05513 -0.1771,-15.86593 0,-23.99806c0.06466,-2.9691 1.49461,-5.97895 1.43383,-8.9613c-0.13257,-6.50447 -0.9858,-13.1099 -1.43383,-19.5387c-0.3397,-4.87441 2.41067,-10.14619 1.5,-14.92866c-0.71392,-3.74922 -2.13812,-7.34582 -2.76114,-11.13106c-0.54832,-3.33143 -0.9238,-10.45916 0.65964,-15.99295c-0.23623,-0.45857 -0.41522,-0.9523 -0.55011,-1.46911zM385.84492,144.76496l-0.04041,-0.18182l-0.11467,-0.14678l-1.80124,-4.05279l-2.69406,-4.4901l-2.97202,-4.67032l-0.68264,-0.68264l-1.39205,-0.83523l-5.51493,-2.75746l-3.28392,-1.40739l-0.19152,-0.14556l-0.23483,-0.05218l-2,-1l-0.97641,-0.83692l-1.10274,-0.66164l-1.3816,-1.3816l-0.53925,-0.11983l-1.83746,-0.91873l-3.91188,-1.73861l-7.55915,-2.36224l-0.19538,-0.11922l-0.2274,-0.02599l-6.64169,-2.49063h-2.54932l-0.16573,-0.04143l-0.16731,0.0345l-12,-0.5l-0.1633,-0.04813l-0.16802,0.02743l-11.66839,-0.97237h-4.1824l-1.04456,0.26114h-0.98485l-0.95544,0.23886h-1.51515l-1.04456,0.26114h-0.19507l-0.17629,0.08351l-7.01161,1.40232l-3.12449,1.0415l-3.09309,1.93318l-2.90213,1.93476l-0.47607,0.17003l-0.38382,0.32899l-1.3548,0.6774l-1.32294,0.9922l-2.40242,1.92193l-0.61687,0.28273l-0.49555,0.46358l-4.5,2.5l-0.17213,0.04618l-0.13531,0.11598l-7.3695,3.68475l-0.05279,0.23754l-1.43377,2.86754l-2.42481,5.33458l-1.62614,3.6588l-0.17071,0.85353v6.20784l-0.12261,0.49043l0.06083,0.50185l-0.43822,3.50578v2.32021l0.48791,10.73397l0.49437,7.4156l-0.04832,0.26798l0.06604,0.26417v3.51515l1.72881,6.91524l3.81579,13.35526l2.67963,6.12486l1.38581,1.38581l2.11696,0.23522l6.84298,0.48878l0.48706,0.1594l0.5119,-0.02438l7.5,1.5l0.10917,0.05171l0.12078,-0.0022l5.96857,1.37736l10.45684,0.95062l0.46245,0.16132l0.4895,-0.01659l6.8778,1.47382l5.25518,0.95549l9.72625,1.45894l3.90761,0.43418h6.34654l9.25062,-0.48687l7.30301,-0.45644l5.85787,-1.35182l0.12078,0.0022l0.10917,-0.05171l2.41656,-0.48331l3.71495,-0.82554l0.12566,-0.20943l1.65208,-4.95623l2.94157,-10.78577l0.11121,-0.19824l0.01743,-0.22664l0.5,-1.5l0.03875,-0.06089l0.0068,-0.07185l3,-8.5l0.12538,-0.1896l0.03393,-0.22476l4.94458,-11.86699l1.4494,-3.86508l0.24254,-0.35168l0.09267,-0.41704l0.18169,-0.36338l-0.0107,-0.05793l0.48442,-7.75073v-2.95202l-0.08947,-0.2684l-0.09863,-1.28222l-0.3119,-1.24761v-0.47291l-0.54984,-2.4743l1.45864,-2.18796l0.09121,-0.36483l0.24556,-0.14032l1.56572,-2.34858zM217.13919,147.84411l-0.16139,-0.26898l-0.25581,-0.18154l-3,-3.5l-0.20065,-0.4013l-0.33511,-0.29833l-7.32794,-10.74764l-0.30383,-0.37978l-0.38979,0.04032l-3.5,-0.5l-0.041,-0.0167l-0.04409,0.00408l-6.5,-1l-0.42626,-0.17903l-0.46222,-0.00983l-4.82063,-1.31472l-4.70274,-0.42752l-7.40384,-0.49359l-0.38249,-0.12317l-0.40055,0.03204l-2.34691,-0.39115h-16.8379l-0.55862,-0.13965l-0.57275,0.05925l-7,-1l-0.21051,-0.08576l-0.22705,0.01081l-10.06353,-2.01271l-0.64995,0.27855l-2.90625,1.81641l-3.82072,3.39619l-1.83377,1.83377l-0.78302,0.46981l-0.63385,0.65732l-8,5l-0.68504,0.22218l-0.58383,0.42165l-9.2266,3.69064l-3.14781,2.09854l-2.32079,2.32079l-1.45121,3.48291l-0.2137,1.92333l0.38899,1.55598v0.22291l0.04984,0.2243l-0.04984,0.07477v0.97802l-0.13965,0.55862l0.05925,0.57275l-0.5,3.5l-0.02602,0.06386l0.00594,0.0687l-1.89953,11.87203v3.07189l0.68129,3.40643l1.13762,2.65446l2.46402,5.42085l0.07718,0.42018l0.22936,0.36042l1,3l0.04867,0.63269l0.25302,0.58194l0.35783,2.14699l0.67883,1.69708l0.20411,1.49681l0.02448,0.03672l0.28146,0.78808l0.48996,0.6784l0.25283,0.63206l0.16811,0.18492l1.05126,0.85414l0.75725,1.00966l2.38769,1.70549l0.97825,0.65217l0.55452,0.27726l0.55211,0.47323l0.67018,0.28218l1.82236,1.36677l0.04985,0.03323h0.03564l4.1695,-0.8339l6.94642,-1.48852l0.05635,0.00191l0.05095,-0.02414l7.5,-1.5l0.13229,0.0063l0.12145,-0.05281l3,-0.5l0.66651,0.05332l0.64868,-0.16217h4.20784l1.61963,-0.32393l0.09139,-0.08177l2.06345,0.15873l2.0672,0.09844l0.08054,0.09247l0.16817,0.05606h1.13324l2.93717,-0.4196l0.57275,0.05925l0.55862,-0.13965h0.51515l1.04456,-0.26114h0.98485l0.95544,-0.23886h1.43146l6.43717,-0.9196l0.57275,0.05925l0.55862,-0.13965h0.62182l2.68134,-0.59585l1.65225,-0.82613l0.04458,-0.07802l0.22291,-0.05573l0.19938,-0.09969l1.79441,-0.39876l1.7833,-0.44582h0.22291l0.2243,-0.04984l0.07477,0.04984h1.40948l2.93717,-0.4196l0.57275,0.05925l0.55862,-0.13965h1.3379l2.21966,-0.36994l2.18683,-0.43737l1.51725,-0.37931l0.4978,-0.16593l1.74299,-1.39439l0.32182,-0.1475l0.23814,-0.26195l5.81524,-3.87683l1.36753,-1.02564l0.59798,-0.59798l1.10274,-0.66164l0.97641,-0.83692l1.7252,-0.8626l2.23655,-1.34193l0.61971,-0.18861l0.52513,-0.37926l1.7266,-0.69064l3.80692,-2.53795l1.00629,-0.35939l0.36683,-0.23344l0.40762,-0.40762l0.68326,-0.40996l0.53599,-0.58959l0.76872,-0.51248l0.51248,-0.76872l0.16819,-0.1529l0.08821,-0.20949l0.72107,-0.96142l0.08947,-0.2684l0.08947,-0.14059v-0.32959l0.23886,-0.95544v-0.98485l0.26114,-1.04456v-9.99317l-0.04984,-0.07477l0.04984,-0.2243v-0.22291l0.44582,-1.7833l0.39876,-1.79441l0.09969,-0.19938l0.00155,-0.00621l0.39876,-1.79441l0.09969,-0.19938l0.05573,-0.22291l0.07802,-0.04458l0.18906,-0.37811c0.16867,-0.35581 0.36282,-0.69719 0.5801,-1.02178l-1.84717,-1.05553l-0.39543,-1.58172zM278.58023,222.03639l-5.97364,1.05573c-1.35908,1.17022 -3.58758,0.30053 -5.3329,0.71328c-2.57858,0.60981 -6.43957,4.02616 -9.00901,4.5045c-0.98409,0.18321 -2.03535,-0.25622 -3.003,0c-2.60549,0.68988 -4.92845,2.22007 -7.50751,3.003c-5.24624,1.59262 -11.73543,0.9669 -15.76752,4.68197c-1.07313,0.98876 -1.83011,2.01371 -2.33652,3.05888c-2.64673,-1.49949 -5.7396,-2.73977 -8.15932,-3.94964c-1.97844,-0.98922 -6.55316,-3.3357 -8.18061,-3.79122c-0.96395,-0.26981 -2.02644,0.21985 -3.003,0c-0.58059,-0.1307 -0.92496,-0.77748 -1.4737,-1.00781c-1.45937,-0.61256 -3.03231,-0.92043 -4.5045,-1.5015c-3.39564,-1.34024 -6.2128,-3.56591 -9.31808,-5.41631c-4.93831,-2.94269 -10.41898,-5.23109 -15.56215,-7.80268c0,0 -8.94427,-4.47214 -13.41641,4.47214c-4.47214,8.94427 4.47214,13.41641 4.47214,13.41641c4.76217,2.38108 9.91502,4.45896 14.46788,7.21234c6.49003,3.92489 13.31228,8.12575 20.73976,10.0924c0.96766,0.25622 2.01891,-0.18321 3.003,0c1.7195,0.32012 5.15638,2.87728 6.8344,3.71629c1.001,0.5005 1.94073,1.14925 3.003,1.5015c0.17371,0.0576 0.28056,-0.50675 0.40407,-0.3717c1.24627,1.36268 1.77921,3.41344 3.31526,4.43844c1.24592,0.8314 2.95565,0.48819 4.43348,0.73229c1.001,1.001 1.71889,2.40712 3.003,3.003c1.37852,0.63969 3.04972,0.15988 4.53231,0.49369c3.8349,0.86344 8.02216,4.65292 11.46581,2.75735c4.38548,-2.41401 6.94668,-7.68144 8.33922,-12.48984c0.38004,-1.31224 -0.06644,-2.61382 -0.71697,-3.90549c2.26257,-0.50286 4.22424,-2.3599 6.52801,-2.87853c0.97656,-0.21985 2.03905,0.26981 3.003,0c1.81726,-0.50864 3.46544,-1.49623 5.17761,-2.28972c1.33842,-0.62028 2.36926,-2.01922 3.8314,-2.21479c1.48825,-0.19906 3.04331,0.34556 4.5045,0c1.12182,-0.2653 2.16111,-0.77609 3.1935,-1.30742c2.52307,-0.30436 9.01348,-1.87026 9.01348,-9.92657c0,-10 -10,-10 -10,-10zM235.0367,216.51086c5.52285,0 10,-4.47715 10,-10c0,-5.52285 -4.47715,-10 -10,-10c-5.52285,0 -10,4.47715 -10,10c0,5.52285 4.47715,10 10,10z" fill="#418a00" stroke="none" stroke-width="0.5" stroke-linecap="butt"/><path d="M-4.30557,0.65623l136,281" fill="none" stroke="#000000" stroke-width="2" stroke-linecap="round"/><path d="M484.69443,-5.34377l-108,302" fill="none" stroke="#000000" stroke-width="2" stroke-linecap="round"/><path d="M491.69443,86.65623l-28,-38h-445l-30,26" fill="none" stroke="#000000" stroke-width="2" stroke-linecap="round"/></g></g></svg>