<svg version="1.1" xmlns="http://www.w3.org/2000/svg" xmlns:xlink="http://www.w3.org/1999/xlink" width="485.73818" height="243.00799" viewBox="0,0,485.73818,243.00799"><g transform="translate(2.14047,-120.14824)"><g data-paper-data="{&quot;isPaintingLayer&quot;:true}" fill-rule="nonzero" stroke-linecap="butt" stroke-linejoin="miter" stroke-miterlimit="10" stroke-dasharray="" stroke-dashoffset="0" style="mix-blend-mode: normal"><path d="M0.69443,360.65623l30,-238l414.5,1.5l35.5,236.5z" fill="#9c9c9c" stroke="#000000" stroke-width="5"/><path d="M174.47435,360.03147c-2.37523,0.77992 -3.15515,-1.59531 -3.15515,-1.59531l-1.07752,-3.28602c-1.13429,-4.43887 -1.65402,-5.70995 -2.04096,-10.31667c-0.06849,-0.81541 0.36783,-1.67922 0.10098,-2.45276c-0.34938,-1.01278 -1.38457,-1.66259 -1.85306,-2.62608c-1.54419,-3.17577 -1.2216,-3.65317 -1.24517,-6.88591c-0.7081,-4.05114 -0.99473,-8.33132 -2.75483,-12.11409c-0.56235,-1.2086 -1.77459,-2.09395 -2.14694,-3.37392c-0.36629,-1.25912 0.46925,-2.70156 0.02102,-3.93389c-0.98767,-2.71541 -4.06666,-4.33881 -5.02102,-7.06611c-0.33147,-0.94724 0.33038,-2.06417 -0.0032,-3.01067c-0.997,-2.82886 -3.45695,-4.92461 -4.83626,-7.58805c-1.28194,-2.47543 -2.02543,-5.56493 -3.32232,-8.00728c-0.78877,-1.48543 -2.00515,-2.72042 -2.76274,-4.222c-2.98973,-5.92581 -4.03508,-12.80219 -6.91348,-18.76784c-2.34137,-4.85261 -5.89867,-8.85509 -8.52643,-13.54372c-2.54848,-4.62601 -3.07898,-8.49064 -4.8863,-13.32765c-1.66264,-4.44979 -4.18118,-9.07822 -6.26389,-13.3565c-0.77809,-1.59834 -1.97989,-3.00124 -2.54439,-4.6869c-0.53459,-1.59637 -0.20354,-3.39315 -0.70015,-5.00174c-1.97539,-6.39846 -6.21789,-12.13937 -9.10407,-18.13482c-2.7281,-5.66708 -4.19165,-11.26824 -8.30947,-16.0237c-3.269,1.36998 -6.75146,1.79963 -9.84957,3.87978c-1.56745,1.56745 -2.45925,3.78605 -4.20544,5.15156c-0.71971,0.56281 -1.91278,0.08897 -2.67662,0.59026c-3.16479,2.07697 -6.23157,6.39654 -8.93514,9.09259c-4.04146,4.03022 -8.71601,6.87774 -13.42324,10.08878c-1.48773,1.01485 -2.84506,2.25934 -4.47194,3.03167c-1.50555,0.71473 -3.28289,0.70015 -4.80739,1.3735c-1.20238,0.53107 -2.02585,1.78733 -3.27503,2.19637c-1.70192,0.55728 -3.58233,0.26144 -5.33622,0.62332c-6.31278,1.30253 -12.56021,4.07194 -18.59957,6.26807c0,0 -2.34948,0.85436 -3.20384,-1.49513c-0.85436,-2.34948 1.49513,-3.20384 1.49513,-3.20384c6.26576,-2.27846 12.75163,-5.13806 19.30598,-6.46761c1.51199,-0.30671 3.14307,0.06271 4.60958,-0.41638c1.11447,-0.36408 1.8016,-1.55348 2.8736,-2.02824c1.52398,-0.67494 3.29745,-0.6689 4.80785,-1.37371c2.88564,-1.34655 5.22089,-3.64765 7.85627,-5.43508c1.92611,-1.30637 4.02899,-2.37195 5.8161,-3.86285c4.56815,-3.81098 8.01548,-9.47604 12.95313,-12.81289c0.62904,-0.4251 1.65005,0.12358 2.25231,-0.33868c0.76371,-0.58618 0.85282,-1.74191 1.44618,-2.50005c0.68229,-0.87179 1.56559,-1.56559 2.34838,-2.34838c1.1622,-0.77081 2.22485,-1.71842 3.48659,-2.31243c2.74994,-1.29463 6.00548,-1.38596 8.67498,-2.82345c0.17598,-0.133 0.35082,-0.23412 0.52274,-0.30864c1.79514,-1.17292 3.69242,-3.57451 5.53229,-4.71439c3.5569,-2.20366 4.96331,-2.10055 8.5401,-4.27897c5.40615,-3.29258 10.3042,-7.70472 15.2433,-11.56212c1.12403,-0.87786 2.26946,-1.77557 3.57359,-2.35293c2.28917,-1.01345 4.48369,-0.3753 6.20206,-2.43893c1.04522,-1.25522 1.43819,-2.97433 2.50372,-4.21235c1.01656,-1.18112 2.46882,-1.90532 3.64321,-2.92964c2.67529,-2.33344 4.58852,-5.99601 7.20062,-8.1609c0.90036,-0.74621 2.20101,-0.7909 3.30151,-1.18634c1.87374,-1.42259 3.73292,-2.88585 5.3925,-4.55332l1,-1c0,0 1.76777,-1.76777 3.53553,0c1.76777,1.76777 0,3.53553 0,3.53553l-1,1c-2.02254,2.0141 -4.31607,3.74474 -6.6075,5.44668c-4.32205,1.3032 -6.08545,5.70391 -9.49787,8.65276c-1.02582,0.88646 -2.3317,1.46418 -3.21184,2.49543c-1.10356,1.29304 -1.48354,3.11778 -2.64124,4.36258c-3.04358,3.27258 -6.9666,2.52398 -10.22435,5.20814c-4.99105,4.11229 -10.24229,8.57329 -15.81243,11.96574c-2.67384,1.62849 -5.73585,2.55565 -8.40417,4.19316c-1.39825,0.85809 -2.53101,2.09232 -3.73596,3.22141c4.0596,5.0218 5.77304,10.70246 8.62357,16.60905c3.00694,6.2307 7.2993,12.15689 9.36806,18.80945c0.48991,1.57542 0.1519,3.33734 0.6688,4.90411c0.48743,1.47744 1.60372,2.67061 2.29075,4.06646c2.16141,4.39138 4.74676,9.22818 6.45665,13.80444c1.75176,4.68831 2.09662,8.23336 4.57336,12.64949c2.61556,4.75536 6.24821,8.78983 8.61714,13.7147c2.87105,5.96876 3.91022,12.86008 6.91269,18.76627c0.74839,1.47216 1.94913,2.68039 2.72058,4.1406c1.36537,2.58439 2.02378,5.50064 3.36818,8.096c1.51332,2.92145 4.02387,5.32557 5.16374,8.41195c0.34522,0.93473 -0.3001,2.03815 -0.0032,2.98933c0.84783,2.7162 3.95799,4.27793 4.97898,6.93389c0.48633,1.26513 -0.34448,2.76093 0.02102,4.06611c0.28891,1.03166 1.40554,1.65267 1.85306,2.62608c2.01865,4.39085 2.45045,9.19045 3.24517,13.88591c-0.0196,2.37159 -0.3323,3.0045 0.75483,5.11409c0.61064,1.18494 1.73516,2.10608 2.14694,3.37392c0.3654,1.12504 -0.00927,2.3695 0.10098,3.54724c0.40404,4.31609 0.77459,5.0651 1.85333,9.2704l1.02819,3.1269c0,0 0.77992,2.37523 -1.59531,3.15515z" fill="#ffffff" stroke="none" stroke-width="0.5"/><path d="M213.32272,352.4468c-0.79057,-2.37171 1.58114,-3.16228 1.58114,-3.16228l2.22211,-0.57507c1.15355,-2.23494 3.0265,-4.03833 4.80069,-5.82099c5.58337,-5.61003 12.5282,-10.61213 20.76777,-10.73223c0,0 1.03954,0 1.77795,0.67034c0.83119,-0.95755 1.59406,-1.88851 2.23528,-2.68782c3.44703,-4.29688 5.07058,-10.11098 8.47964,-14.48413c3.01404,-3.86643 7.25576,-7.31503 10.71193,-10.80278c2.19481,-2.32214 3.91293,-5.05456 5.76681,-7.65699c1.782,-2.50154 4.29566,-4.43761 6.00047,-6.99238c2.62737,-3.93732 5.06251,-8.64964 7.36887,-12.81333c0.41232,-0.74436 4.29412,-8.7111 4.63094,-9.19467c0.8083,-1.16045 2.17648,-1.8503 3,-3c2.76864,-3.86522 5.04532,-8.77837 7.42649,-12.90365c3.47966,-6.02837 5.2319,-12.67653 8.39943,-18.81794c1.29718,-2.51506 3.09983,-4.73539 4.65399,-7.10031c3.46371,-5.80698 6.45622,-11.92576 10.61485,-17.3013c1.30278,-1.68401 2.61565,-3.36219 3.84239,-5.10236c0.83941,-1.19072 2.2678,-2.0266 2.74047,-3.40465c0.52205,-1.52203 -0.35204,-3.2773 0.08278,-4.82651c0.08372,-0.29827 4.90623,-9.02757 5.19164,-9.47431c5.79006,-9.06283 14.02344,-16.49451 20.56433,-25.06192c-0.30354,-0.145 -0.60091,-0.30192 -0.88983,-0.4751c-0.82935,-0.49711 -1.25628,-1.50481 -2.0602,-2.04206c-4.63673,-3.09864 -9.96622,-6.03608 -14.79304,-8.86583c-3.17221,-1.85973 -6.26938,-3.4215 -8.86481,-6.11673c-3.40394,-3.53483 -6.61446,-8.28815 -9.3714,-12.34672c-1.39585,-2.05487 -2.80177,-4.2822 -4.89572,-5.6187c0,0 -2.08013,-1.38675 -0.69338,-3.46688c1.38675,-2.08013 3.46688,-0.69338 3.46688,-0.69338c6.61199,4.5494 9.39426,12.76815 14.96892,18.53091c2.33143,2.4101 5.05312,3.72586 7.89915,5.38694c4.96527,2.89797 10.42902,5.95614 15.20696,9.13417c0.76495,0.50881 1.15363,1.48256 1.9398,1.95794c2.12237,1.28334 4.747,1.59056 6.84972,2.90585c3.88683,2.43129 6.45142,5.46933 10.84708,6.91853c2.00746,1.32208 3.85604,2.91316 6,4c2.4483,1.24111 5.14002,0.91048 7.69946,1.89204c4.1163,1.57863 7.77729,4.54387 12.04198,5.99903c1.24651,0.42532 8.66723,2.24708 9.71731,2.6572c4.63645,1.81079 8.61731,5.41871 13.1577,7.24262c1.58394,0.63628 3.44992,0.39469 4.99855,1.11266c2.11323,0.97973 3.48677,3.63274 5.80116,3.89577c3.22321,0.36632 6.50363,-0.36101 9.7318,-0.04136c4.8578,0.48102 9.87946,1.95948 14.66978,2.93216l4.11355,0.05584c1.36704,0.0159 2.47032,1.12902 2.47032,2.49983c0,0.57191 -0.19204,1.09897 -0.51515,1.5202l-2.98485,3.9798l-0.23849,-0.17887c-0.59408,0.87353 -1.24886,1.69863 -1.99374,2.44664l-1,1c0,0 -1.76777,1.76777 -3.53553,0c-1.76777,-1.76777 0,-3.53553 0,-3.53553l1,-1c0.59201,-0.5892 1.23986,-1.12741 1.92633,-1.61331l-0.15856,-0.11892l0.10525,-0.14033c-4.68794,-0.95061 -9.60897,-2.40223 -14.35159,-2.87184c-2.47069,-0.24465 -7.95026,0.33094 -10.2682,-0.04136c-3.99824,-0.64217 -3.03405,-2.4808 -6.87089,-4.25055c-1.47687,-0.68121 -3.26565,-0.40282 -4.77252,-1.01481c-4.53331,-1.8411 -8.48274,-5.41643 -13.10389,-7.22124c-3.08194,-1.20367 -6.44785,-1.53299 -9.57797,-2.60515c-4.29901,-1.47254 -8.01167,-4.453 -12.15222,-6.03981c-2.60407,-0.99798 -5.60664,-0.83276 -8.10635,-2.06912c-0.41309,-0.20432 -5.34968,-3.56008 -6,-4c-4.4769,-1.50796 -7.23392,-4.59758 -11.15292,-7.08147c-0.45206,-0.28652 -0.92686,-0.52965 -1.41534,-0.74679c-6.62314,8.96035 -15.29611,16.592 -21.25729,25.97528c-1.6439,2.5876 -3.73253,5.04639 -4.52121,8.00883c-0.44364,1.66637 0.39545,3.54782 -0.19015,5.16976c-1.22747,3.39972 -5.20124,7.14052 -7.43135,10.01357c-4.02799,5.18926 -6.89615,11.1707 -10.244,16.78523c-1.49291,2.2729 -3.24523,4.39397 -4.48717,6.81316c-2.58981,5.04475 -4.27431,10.40551 -6.69359,15.51384c6.45024,4.43266 13.30531,8.49585 18.7947,14.07056c0.9654,0.98041 2.21768,1.76007 2.85897,2.97742c0.58364,1.10791 2.28483,8.57706 2.81908,10.05003c0.885,2.43999 2.05599,4.7713 3.2494,7.0762c1.46962,2.83837 2.82649,5.75955 4.64101,8.39083c2.27609,3.30062 5.50575,6.08011 8.06159,9.15278c2.95444,3.55188 5.52496,7.70373 8.28109,11.42471c0.84984,2.54951 2.66661,4.6667 4,7c0.49427,0.86492 0.40327,1.98956 0.91218,2.84594c0.42589,0.71667 1.2856,1.07865 1.80673,1.72936c0.70049,0.87468 1.04313,2.02372 1.83441,2.81721c0.92445,0.92702 2.49146,1.16187 3.219,2.25028c3.033,4.53743 1.74414,10.9534 5.781,14.74972l0.73223,2.76777c0,0 0,2.5 -2.5,2.5c-2.5,0 -2.5,-2.5 -2.5,-2.5l0.64918,0.68068c-3.22747,-3.40785 -3.68544,-6.69497 -4.96171,-11.21593c-0.37295,-1.32111 -0.39136,-2.81964 -1.17423,-3.94726c-0.6246,-0.89965 -2.00546,-0.97639 -2.781,-1.74972c-0.90867,-0.90608 -1.3644,-2.18042 -2.16559,-3.18279c-0.65702,-0.822 -1.64866,-1.37022 -2.19327,-2.27064c-0.57557,-0.9516 -0.53607,-2.18845 -1.08782,-3.15406c-1.33328,-2.33336 -3.15016,-4.45049 -4,-7c-2.61344,-3.43411 -4.96634,-7.27869 -7.71891,-10.57529c-2.61865,-3.13622 -5.89673,-5.98742 -8.22555,-9.36407c-0.10987,-0.15931 -4.92159,-8.8018 -5.07185,-9.09231c-1.28452,-2.48355 -2.53487,-5.00001 -3.48825,-7.62852c-1.08686,-2.99653 -1.00057,-6.40288 -2.44327,-9.24525c-0.4292,-0.84559 -1.39308,-1.28738 -2.06996,-1.95152c-2.11629,-2.07646 -4.36765,-4.04569 -6.82783,-5.70035c-3.62891,-2.44073 -7.21191,-4.94177 -10.79389,-7.44898c-2.25988,4.0285 -4.48537,8.6124 -7.11794,12.3078c-0.82055,1.15182 -2.18485,1.84435 -3,3c-1.86467,2.64356 -2.7458,5.864 -4.31333,8.69387c-2.36095,4.26224 -4.88872,9.14426 -7.58648,13.17013c-2.55602,3.81435 -3.63974,3.66768 -6.09991,7.13561c-1.98656,2.80031 -3.88111,5.69748 -6.22539,8.20596c-3.33035,3.36137 -7.46048,6.678 -10.36694,10.40533c-3.40269,4.36372 -5.01475,10.12824 -8.44929,14.4448c-2.42427,3.04685 -6.38866,7.48762 -9.67244,9.60914c-0.88539,0.57201 -2.13107,0.40329 -3,1c-1.21622,0.83519 -2.05473,2.11778 -3.08209,3.17667l-2.46447,2.46447c0,0 -1.76777,1.76777 -3.53553,0c-1.76777,-1.76777 0,-3.53553 0,-3.53553l2.46447,-2.46447c1.32966,-1.29813 2.46684,-2.82844 3.98897,-3.89439c0.86342,-0.60466 2.10403,-0.44472 3,-1c0.52147,-0.32319 1.06205,-0.72309 1.6101,-1.17683c-8.0614,1.31467 -15.58609,8.87844 -19.72731,15.25023l-3.77789,1.42493c0,0 -2.37171,0.79057 -3.16228,-1.58114z" fill="#ffffff" stroke="none" stroke-width="0.5"/></g></g></svg>