<svg version="1.1" xmlns="http://www.w3.org/2000/svg" xmlns:xlink="http://www.w3.org/1999/xlink" width="761.77234" height="570.82719" viewBox="0,0,761.77234,570.82719"><defs><linearGradient x1="223.4866" y1="165.99628" x2="313.17482" y2="165.99628" gradientUnits="userSpaceOnUse" id="color-1"><stop offset="0" stop-color="#000000"/><stop offset="1" stop-color="#393939"/></linearGradient></defs><g transform="translate(140.88617,105.4136)"><g data-paper-data="{&quot;isPaintingLayer&quot;:true}" fill-rule="nonzero" stroke-linejoin="miter" stroke-miterlimit="10" stroke-dasharray="" stroke-dashoffset="0" style="mix-blend-mode: normal"><path d="M50.3358,395.20337l-1,-489.70337l553.30657,2.22186l-4.96733,478.84244z" fill="#4f4f4f" stroke="none" stroke-width="0" stroke-linecap="butt"/><path d="M51.26301,399.17188v-490.53135" fill="none" stroke="#000000" stroke-width="2" stroke-linecap="round"/><path d="M223.4866,255.6845v-179.37644h89.68823v179.37644z" fill="url(#color-1)" stroke="none" stroke-width="0" stroke-linecap="butt"/><path d="M-121.73729,360.86509l-1,-452.0643l172.43959,-2l1,475.70337l-170.25092,63.89888z" fill="#404040" stroke="none" stroke-width="0" stroke-linecap="butt"/><path d="M609.27343,451.87004l-737.79744,-13.12643l180.604,-186.44241l563.3918,5.97584z" fill="#5c5c5c" stroke="none" stroke-width="0" stroke-linecap="butt"/><path d="M-130.37557,437.64246l182.81248,-182.81248l546.85673,3.96851" fill="none" stroke="#000000" stroke-width="2" stroke-linecap="round"/><path d="M222.6929,255.6845v-179.37644l80.95751,11.90552v179.37644z" fill="#999999" stroke="none" stroke-width="0" stroke-linecap="butt"/><path d="M284.34539,179.6198c2.19453,0 3.97353,1.779 3.97353,3.97353c0,2.19453 -1.779,3.97353 -3.97353,3.97353c-2.19453,0 -3.97353,-1.779 -3.97353,-3.97353c0,-2.19453 1.779,-3.97353 3.97353,-3.97353z" fill="#000000" stroke="none" stroke-width="0" stroke-linecap="butt"/><path d="M-140.88617,465.41358v-570.82718h761.77234v570.82719z" data-paper-data="{&quot;index&quot;:null}" fill-opacity="0.62745" fill="#000000" stroke="none" stroke-width="0" stroke-linecap="butt"/></g></g></svg>