<svg version="1.1" xmlns="http://www.w3.org/2000/svg" xmlns:xlink="http://www.w3.org/1999/xlink" width="895.11288" height="565.0189" viewBox="0,0,895.11288,565.0189"><g transform="translate(209.05794,101.42781)"><g data-paper-data="{&quot;isPaintingLayer&quot;:true}" fill-rule="nonzero" stroke-linecap="butt" stroke-linejoin="miter" stroke-miterlimit="10" stroke-dasharray="" stroke-dashoffset="0" style="mix-blend-mode: normal"><path d="M686.05494,463.59109l-895.11288,-1.42026l263.76443,-316.09167l544.06246,-2.08152z" fill="#5c5c5c" stroke="none" stroke-width="0"/><path d="M-175.87181,421.41876l56.73068,-159.43509l113.67199,-123.4385l4.08546,-210.84219l62.88212,-17.77761l-5.39171,238.3616z" fill="#393939" stroke="none" stroke-width="0"/><path d="M-121.29794,265.33034l3.9905,-65.84329l59.31326,-56.86466l55.86703,-5.98575z" fill="#463b5b" stroke="none" stroke-width="NaN"/><path d="M56.03968,147.61298l-1.66667,-237.03311l546.61638,-1.94792l-1.66667,236.6477z" fill="#181818" stroke="none" stroke-width="0"/><path d="M-56.80557,144.53274l-64.19443,-204.65623l119.19443,-3l-4,202.65623z" fill="#7f7396" stroke="none" stroke-width="0"/><path d="M284.19443,147.35644v-158h79v158z" fill="#999999" stroke="none" stroke-width="0"/><path d="M342.69443,80.35644c1.933,0 3.5,1.567 3.5,3.5c0,1.933 -1.567,3.5 -3.5,3.5c-1.933,0 -3.5,-1.567 -3.5,-3.5c0,-1.933 1.567,-3.5 3.5,-3.5z" fill="#000000" stroke="none" stroke-width="0"/><path d="M289.43433,30.15624v-22h67v22z" fill="#737373" stroke="#000000" stroke-width="0.5"/><text transform="translate(290.43433,26.86513) scale(0.42903,0.42903)" font-size="40" xml:space="preserve" fill="#000000" fill-rule="nonzero" stroke="none" stroke-width="1" stroke-linecap="butt" stroke-linejoin="miter" stroke-miterlimit="10" stroke-dasharray="" stroke-dashoffset="0" font-family="Pixel" font-weight="normal" text-anchor="start" style="mix-blend-mode: normal"><tspan x="0" dy="0">kitchen</tspan></text><g fill="#3c966d" stroke="none"><path d="M159.01147,242.17054c0,8.28427 -9.84974,15 -22,15c-12.15027,0 -22,-6.71573 -22,-15c0,-8.28427 9.84973,-15 22,-15c12.15026,0 22,6.71573 22,15z" stroke-width="NaN"/><path d="M198.01148,153.17054c0,14.35941 -25.96749,26 -58,26c-32.03251,0 -58,-11.64059 -58,-26c0,-14.35941 25.96748,-26 58,-26c32.03251,0 58,11.64059 58,26z" stroke-width="0"/><path d="M124.01148,236.17054v-65h27v65z" stroke-width="0"/><g><path d="M390.01148,269.17054c0,8.28427 -9.84974,15 -22,15c-12.15026,0 -22,-6.71573 -22,-15c0,-8.28427 9.84974,-15 22,-15c12.15026,0 22,6.71573 22,15z" stroke-width="NaN"/><path d="M429.01148,180.17054c0,14.35941 -25.96749,26 -58,26c-32.03251,0 -58,-11.64059 -58,-26c0,-14.35941 25.96749,-26 58,-26c32.03251,0 58,11.64059 58,26z" stroke-width="0"/><path d="M355.01148,263.17054v-65h27v65z" stroke-width="0"/></g><g><path d="M160.01147,383.17054c0,8.28427 -9.84974,15 -22,15c-12.15027,0 -22,-6.71573 -22,-15c0,-8.28427 9.84973,-15 22,-15c12.15026,0 22,6.71573 22,15z" stroke-width="NaN"/><path d="M199.01148,294.17054c0,14.3594 -25.96749,26 -58,26c-32.03251,0 -58,-11.6406 -58,-26c0,-14.3594 25.96748,-26 58,-26c32.03251,0 58,11.6406 58,26z" stroke-width="0"/><path d="M125.01148,377.17054v-65h27v65z" stroke-width="0"/></g><g><path d="M410.01148,408.17054c0,8.28427 -9.84974,15 -22,15c-12.15026,0 -22,-6.71573 -22,-15c0,-8.28427 9.84974,-15 22,-15c12.15026,0 22,6.71573 22,15z" stroke-width="NaN"/><path d="M449.01148,319.17054c0,14.3594 -25.96749,26 -58,26c-32.03251,0 -58,-11.6406 -58,-26c0,-14.3594 25.96749,-26 58,-26c32.03251,0 58,11.6406 58,26z" stroke-width="0"/><path d="M375.01148,402.17054v-65h27v65z" stroke-width="0"/></g><g><path d="M602.01148,278.17054c0,8.28427 -9.84974,15 -22,15c-12.15026,0 -22,-6.71573 -22,-15c0,-8.28427 9.84974,-15 22,-15c12.15026,0 22,6.71573 22,15z" stroke-width="NaN"/><path d="M641.01148,189.17054c0,14.35941 -25.96749,26 -58,26c-32.03251,0 -58,-11.64059 -58,-26c0,-14.35941 25.96749,-26 58,-26c32.03251,0 58,11.64059 58,26z" stroke-width="0"/><path d="M567.01148,272.17054v-65h27v65z" stroke-width="0"/></g><g><path d="M585.01148,424.17054c0,8.28427 -9.84974,15 -22,15c-12.15026,0 -22,-6.71573 -22,-15c0,-8.28427 9.84974,-15 22,-15c12.15026,0 22,6.71573 22,15z" stroke-width="NaN"/><path d="M624.01148,335.17054c0,14.3594 -25.96749,26 -58,26c-32.03251,0 -58,-11.6406 -58,-26c0,-14.3594 25.96749,-26 58,-26c32.03251,0 58,11.6406 58,26z" stroke-width="0"/><path d="M550.01148,418.17054v-65h27v65z" stroke-width="0"/></g></g><g><g><g><path d="M267.30101,127.8959l-1.10727,-2.40406l5.63763,-2.16812l1.10725,2.40406z" fill="#663f3f" stroke="#000000" stroke-width="0.5"/><path d="M282.08462,174.81729l0.08396,-1.82229l4.27337,0.16439l-0.08396,1.82229z" fill="#663f3f" stroke="#000000" stroke-width="0.5"/><path d="M284.66888,176.02507l0.08396,-1.82231l4.27337,0.16438l-0.08396,1.8223z" fill="#663f3f" stroke="#000000" stroke-width="0.5"/><path d="M279.89398,175.90658l0.08395,-1.8223l4.27335,0.16438l-0.08394,1.8223z" fill="#663f3f" stroke="#000000" stroke-width="0.5"/><path d="M284.79182,173.35668l0.08396,-1.82229l4.27337,0.16438l-0.08396,1.8223z" fill="#663f3f" stroke="#000000" stroke-width="0.5"/><path d="M280.01988,172.97899l0.08395,-1.8223l4.27338,0.16438l-0.08396,1.82231z" fill="#663f3f" stroke="#000000" stroke-width="0.5"/><path d="M270.83162,128.35731l-1.10723,-2.40407l5.63761,-2.16811l1.10726,2.40407z" fill="#663f3f" stroke="#000000" stroke-width="0.5"/><path d="M264.49674,130.69251l-1.10726,-2.40406l5.63763,-2.16812l1.10726,2.40408z" fill="#663f3f" stroke="#000000" stroke-width="0.5"/><path d="M262.8754,127.17226l-1.10725,-2.40405l5.63763,-2.16812l1.10724,2.40405z" fill="#663f3f" stroke="#000000" stroke-width="0.5"/><path d="M269.17076,124.75121l-1.10726,-2.40407l5.63765,-2.16811l1.10724,2.40407z" fill="#663f3f" stroke="#000000" stroke-width="0.5"/><path d="M282.93481,178.04467l0.34779,-7.54954l2.27914,0.08767l-0.34779,7.54952z" fill="#663f3f" stroke="#000000" stroke-width="0.5"/><path d="M270.55414,131.59711l-4.58719,-9.9597l3.00675,-1.15633l4.58719,9.95971z" fill="#663f3f" stroke="#000000" stroke-width="0.5"/><path d="M267.13259,133.54567c-0.43665,-7.16817 2.25705,-7.44801 4.88779,-8.06717c2.20591,-0.51918 3.97049,-0.56119 6.93684,4.38589c3.33468,5.56136 7.8492,16.56509 9.65785,23.58725c3.41753,13.26868 0.46703,18.97418 -4.2187,20.07699c-4.68572,1.10281 -9.0047,-3.40718 -12.42223,-16.67586c-1.49881,-5.81917 -4.50045,-17.7077 -4.84154,-23.3071z" data-paper-data="{&quot;index&quot;:null}" fill="#d87700" stroke="#929292" stroke-width="1"/><path d="M291.79082,179.24689c0,2.91633 -1.36444,2.17431 -5.35379,2.17431c-3.98936,0 -6.23875,0.73186 -6.20361,-2.48493c0.04217,-3.85856 1.70436,-2.79555 5.69372,-2.79555c3.98936,0 5.86368,0.18984 5.86368,3.10617z" fill="#d87700" stroke="#929292" stroke-width="1"/></g><path d="M271.53375,136.11409c-0.77654,0 -0.77654,-0.77654 -0.77654,-0.77654l0.08198,0.15314c-0.58118,-1.17664 -1.37508,-2.33935 -1.43967,-3.62064c-0.67482,-0.47598 -1.21015,-1.11919 -1.66649,-2.00928c0,0 -0.34728,-0.69457 0.34728,-1.04184c0.69456,-0.34727 1.04184,0.34728 1.04184,0.34728c0.6103,1.26287 1.42527,1.7724 2.75106,2.10693c0.05502,-0.07092 0.1103,-0.14166 0.16586,-0.21223c-0.63702,0.12483 -0.85375,-0.52532 -0.85375,-0.52532l-0.07868,-0.36205c-0.51983,-0.70066 -0.91085,-1.49483 -1.25734,-2.29551c0,0 -0.30589,-0.71376 0.40787,-1.01964c0.71375,-0.3059 1.01964,0.40786 1.01964,0.40786c0.2924,0.68983 0.61899,1.37891 1.07229,1.97546l0.30959,0.80276c0,0 0.02785,0.08357 0.03666,0.2038c1.00459,-1.21544 2.06984,-2.3892 3.10735,-3.57576c0,0 0.51135,-0.58441 1.09576,-0.07305c0.58441,0.51135 0.07305,1.09577 0.07305,1.09577c-1.33851,1.52861 -2.7375,3.03719 -3.96506,4.64823l-0.42473,0.6858c0,0 -0.4096,0.65973 -1.06932,0.25013c-0.07969,-0.04948 -0.14378,-0.10261 -0.19486,-0.15777c0.29055,0.6007 0.68307,1.2258 0.91076,1.67451l0.08197,0.54142c0,0 0,0.77654 -0.77654,0.77654zM271.13682,132.67989c-0.00509,-0.00152 -0.01017,-0.00305 -0.01524,-0.00457c0.00564,0.0146 0.01138,0.02925 0.01723,0.04394c-0.00104,-0.01323 -0.00168,-0.02636 -0.00198,-0.03937z" fill="#000000" stroke="none" stroke-width="0.5"/><path d="M272.5576,128.91695c-0.56826,-0.52923 -0.03902,-1.0975 -0.03902,-1.0975l0.32689,-0.35003c0.33691,-0.39306 0.67382,-0.78612 1.01073,-1.17919c0,0 0.50537,-0.58959 1.09496,-0.08423c0.58959,0.50536 0.08423,1.09496 0.08423,1.09496c-0.33691,0.39306 -0.67382,0.78613 -1.01073,1.17919l-0.36954,0.39777c0,0 -0.52923,0.56826 -1.0975,0.03903z" fill="#000000" stroke="none" stroke-width="0.5"/><path d="M274.48825,139.35067c0.64612,0.43075 0.21537,1.07687 0.21537,1.07687l-0.88678,1.29607c-3.7314,2.07931 -5.5359,-3.40689 -6.69266,-6.2918c0,0 -0.2884,-0.721 0.4326,-1.0094c0.721,-0.2884 1.0094,0.4326 1.0094,0.4326c0.63847,1.60029 1.48143,2.89914 2.29588,4.39199c0.48387,0.88692 0.65686,2.23175 1.88302,1.35259l0.66629,-1.03355c0,0 0.43075,-0.64612 1.07686,-0.21537z" fill="#000000" stroke="none" stroke-width="0.5"/><path d="M277.55774,143.07977c-0.75335,-0.18834 -0.56502,-0.9417 -0.56502,-0.9417l0.19414,-0.77654c0.03836,-0.15007 0.08023,-0.29723 0.12556,-0.44181c-0.51865,0.9318 -1.07615,1.87747 -1.58967,2.91878l-0.54368,0.44146c0.6621,0.52657 1.34242,1.03106 2.13776,1.42872l0.20603,0.42652c0.02209,-0.01316 0.04543,-0.02593 0.0701,-0.03825c0.32713,-0.16357 0.57721,-0.09601 0.75027,0.02123c0.09879,-0.4546 0.41344,-0.78186 0.62051,-1.35539c0.86416,-2.39351 1.69439,-4.55204 1.69439,-7.09563c0,0 0,-0.77654 0.77654,-0.77654c0.77654,0 0.77654,0.77654 0.77654,0.77654c0,0.6274 -0.04004,1.27396 -0.11925,1.92835c0.04597,-0.03527 0.09906,-0.06856 0.16024,-0.09915c0.69456,-0.34727 1.04184,0.34727 1.04184,0.34727c0.43489,0.91474 0.39668,1.54364 0.64121,2.48856l0.02319,0.38248c0,0 0,0.77654 -0.77654,0.77654c-0.77654,0 -0.77654,-0.77654 -0.77654,-0.77654l0.02319,-0.0058c-0.19234,-0.79117 -0.13428,-1.40177 -0.48886,-2.10406c-0.51428,2.84751 -1.75099,5.73224 -3.64096,7.7392l-0.92822,-1.06237c-0.10289,0.05637 -0.23395,0.09227 -0.40093,0.09227c-0.44433,0 -0.63442,-0.25424 -0.71574,-0.47177c-1.59762,-0.8978 -2.76165,-2.19218 -4.34303,-3.13332c0,0 -0.66587,-0.39954 -0.26635,-1.06541c0.39953,-0.66587 1.0654,-0.26635 1.0654,-0.26635c0.43682,0.26396 0.84114,0.55437 1.2315,0.85498c0.04327,-0.03839 0.07371,-0.05868 0.07371,-0.05868l0.31859,-0.08943c0.35591,-0.7038 0.73539,-1.36061 1.10712,-1.9999c-0.02464,-0.00627 -0.04988,-0.01368 -0.07573,-0.02229c-0.73669,-0.24556 -0.49113,-0.98226 -0.49113,-0.98226l0.16937,-0.48914c0.60149,-2.91215 2.12041,-5.17224 2.12041,-8.19551c0,0 0,-0.77654 0.77654,-0.77654c0.77654,0 0.77654,0.77654 0.77654,0.77654c0,0.82659 -0.10695,1.59483 -0.27535,2.33259c0.02609,-0.00196 0.05313,-0.00297 0.08121,-0.00297c0.77654,0 0.77654,0.77654 0.77654,0.77654c0,1.48274 -0.308,2.73771 -0.77778,3.90922c0.11181,-0.16496 0.22877,-0.32887 0.35068,-0.49245c0,0 0.46593,-0.62123 1.08716,-0.1553c0.62123,0.46592 0.1553,1.08715 0.1553,1.08715c-0.65831,0.87141 -1.16203,1.76358 -1.42096,2.82858l-0.19413,0.77654c0,0 -0.18834,0.75335 -0.9417,0.56502zM277.11814,137.88476c0.09296,-0.24283 0.1778,-0.49001 0.25296,-0.74298c-0.08614,0.2457 -0.17108,0.49297 -0.25296,0.74298z" fill="#000000" stroke="none" stroke-width="0.5"/><path d="M278.63202,154.16402c-1.84332,-0.82818 -3.30748,-1.10942 -4.61334,-2.82973c0,0 -0.46592,-0.62123 0.15531,-1.08715c0.10604,-0.07952 0.20756,-0.12739 0.30299,-0.15205c-2.18232,-0.95995 -4.93187,-2.77966 -5.07872,-4.46837c0,0 0,-0.77654 0.77654,-0.77654c0.77654,0 0.77654,0.77654 0.77654,0.77654c-0.20082,0.78489 4.38781,3.28323 5.43,3.51762l-0.14735,-0.13533c0,0 0.69456,-0.34727 1.04183,0.34728c0.34728,0.69456 -0.34728,1.04183 -0.34728,1.04183l-0.92389,0.25294c-0.22247,-0.05944 -0.46944,-0.13857 -0.73348,-0.23508c0.90445,1.21533 1.88765,1.37969 3.04555,1.9459c0.03431,-0.28463 0.23919,-0.48951 0.23919,-0.48951l0.48322,-0.46079c0.73567,-1.93872 1.83691,-3.85698 1.81309,-5.97898c0,0 0,-0.77654 0.77654,-0.77654c0.77654,0 0.77654,0.77654 0.77654,0.77654c-0.01278,1.50624 -0.44835,2.91432 -0.99584,4.29137c0.77537,-1.50457 1.67295,-2.95868 2.97051,-4.25806c0,0 0.5491,-0.5491 1.09819,0c0.5491,0.5491 0,1.09819 0,1.09819c-3.07174,3.06714 -3.81059,7.08289 -6.17812,10.4934l-0.53622,1.05451c-0.02879,0.00317 -0.05804,0.00647 -0.08775,0.00988l-0.03379,0.06759c-0.12451,0.26266 -0.39208,0.4443 -0.70209,0.4443c-0.27423,0 -0.51525,-0.14214 -0.65342,-0.35676c-0.58995,0.04854 -1.18728,0.05842 -1.66049,-0.05228c-2.63307,-0.61597 -4.15837,-3.82308 -5.66961,-5.70645c0,0 -0.48511,-0.60638 0.12127,-1.09148c0.60638,-0.48511 1.09148,0.12127 1.09148,0.12127c1.18984,1.49143 2.67678,4.73055 4.81369,5.16512c0.50677,0.10306 0.97753,-0.03687 1.46499,0.00926c0.07476,-0.14737 0.22068,-0.34628 0.47996,-0.407c0.02202,-0.03113 0.0439,-0.06231 0.06565,-0.09354l0.002,-0.01203c0,0 0.06597,-0.16494 0.2137,-0.30549c0.40562,-0.61208 0.76531,-1.24058 1.10004,-1.87765zM280.02871,152.58363l-0.01433,0.0148c0.00169,0.0015 0.00338,0.00301 0.00507,0.00454c0.00309,-0.00645 0.00618,-0.0129 0.00927,-0.01934z" fill="#000000" stroke="none" stroke-width="0.5"/><path d="M272.73956,136.80865c-0.69456,-0.34727 -0.34727,-1.04184 -0.34727,-1.04184l0.12723,-0.19328c0.34346,-1.66288 1.34015,-2.69456 1.98906,-4.23043c0,0 0.30589,-0.71376 1.01964,-0.40787c0.71375,0.30589 0.40787,1.01964 0.40787,1.01964c-0.61168,1.40985 -1.60448,2.41683 -1.89364,3.92324l-0.26103,0.58326c0,0 -0.34728,0.69456 -1.04184,0.34727z" fill="#000000" stroke="none" stroke-width="0.5"/><path d="M281.64778,158.41624c-0.1011,-0.44853 0.12323,-0.69134 0.32306,-0.8148c0.86948,-2.92846 2.88659,-5.44836 3.97835,-8.36468c0,0 0.27266,-0.7271 0.99976,-0.45444c0.7271,0.27266 0.45443,0.99976 0.45443,0.99976c-1.11449,2.96716 -3.30598,5.59426 -4.03899,8.60539l-0.78834,0.61557c0,0 -0.75754,0.17074 -0.92829,-0.58679z" fill="#000000" stroke="none" stroke-width="0.5"/><path d="M280.07536,163.50989c-0.02274,0.77621 -0.79895,0.75346 -0.79895,0.75346l-0.56716,-0.10798c-2.34514,-1.343 -4.73611,-2.98278 -6.10251,-5.33047c0,0 -0.38527,-0.67422 0.28895,-1.05949c0.67422,-0.38528 1.0595,0.28895 1.0595,0.28895c1.17084,2.09528 3.45261,3.5713 5.52461,4.75256l-0.15789,-0.09599c0,0 0.7762,0.02275 0.75346,0.79896z" fill="#000000" stroke="none" stroke-width="0.5"/><path d="M285.0595,161.58827c-0.43075,-0.64612 0.21537,-1.07686 0.21537,-1.07686l0.46405,-0.29125c1.25779,-1.25141 1.88966,-2.18984 2.3195,-3.91021c0,0 0.18834,-0.75335 0.94169,-0.56502c0.75335,0.18834 0.56502,0.94169 0.56502,0.94169c-0.50138,2.00439 -1.28843,3.18572 -2.72802,4.63173l-0.70075,0.48529c0,0 -0.64613,0.43075 -1.07687,-0.21537z" fill="#000000" stroke="none" stroke-width="0.5"/><path d="M283.376,170.67015c0,0.77654 -0.77654,0.77654 -0.77654,0.77654h-0.5824c-3.6455,-0.02434 -6.90552,-2.45071 -6.98886,-6.21232c0,0 0,-0.77654 0.77654,-0.77654c0.77654,0 0.77654,0.77654 0.77654,0.77654c-0.08744,2.86891 2.73102,4.68233 5.43579,4.65924h0.5824c0,0 0.77654,0 0.77654,0.77654z" fill="#000000" stroke="none" stroke-width="0.5"/><path d="M285.12322,165.4285c0.77654,0 0.77654,0.77654 0.77654,0.77654l-0.05554,0.48253c-0.07954,0.17866 -0.16589,0.34316 -0.25844,0.49423c2.42585,-0.62216 3.39052,-2.61214 3.82349,-4.81761c0,0 0.15229,-0.76146 0.91375,-0.60917c0.76146,0.1523 0.60917,0.91376 0.60917,0.91376c-0.5494,2.68909 -1.82573,4.99585 -4.56441,5.89861c-0.1022,0.18264 -0.29572,0.35556 -0.66215,0.35556c-0.77654,0 -0.77654,-0.77654 -0.77654,-0.77654l0.29323,-0.47235c-1.67785,1.87987 -4.69757,0.65107 -6.6024,-0.86262c0,0 -0.60638,-0.48511 -0.12127,-1.09148c0.4851,-0.60638 1.09148,-0.12128 1.09148,-0.12128c1.16748,0.94113 4.11196,2.66275 4.81209,0.51212l-0.05554,0.09426c0,0 0,-0.77654 0.77654,-0.77654z" fill="#000000" stroke="none" stroke-width="0.5"/><path d="M283.84625,163.13986c0.34728,-0.69456 1.04184,-0.34727 1.04184,-0.34727l0.041,0.11216c1.24935,0 1.61615,-0.04172 2.64024,-0.81537c0,0 0.62123,-0.46592 1.08716,0.15531c0.46593,0.62123 -0.15531,1.08716 -0.15531,1.08716c-1.25864,0.93805 -2.03665,1.12598 -3.57209,1.12598l-0.73555,-0.27612c0,0 -0.69456,-0.34727 -0.34728,-1.04183z" fill="#000000" stroke="none" stroke-width="0.5"/><path d="M283.18186,161.93407c0,0.77654 -0.77654,0.77654 -0.77654,0.77654l-0.57661,-0.02319c-1.57762,-0.40993 -2.18505,-1.25752 -3.27278,-2.33974c0,0 -0.5491,-0.5491 0,-1.09819c0.5491,-0.5491 1.09819,0 1.09819,0c0.87941,0.88333 1.27564,1.62898 2.55127,1.93122l0.19993,-0.02319c0,0 0.77654,0 0.77654,0.77654z" fill="#000000" stroke="none" stroke-width="0.5"/><path d="M285.55248,157.38698c-0.69456,-0.34727 -0.34728,-1.04184 -0.34728,-1.04184l0.13533,-0.22933c0.11486,-0.44385 0.17487,-0.90629 0.17095,-1.36474c0,0 0,-0.77654 0.77654,-0.77654c0.77654,0 0.77654,0.77654 0.77654,0.77654c-0.0039,0.58496 -0.07914,1.173 -0.21733,1.74142l-0.25293,0.54721c0,0 -0.34727,0.69457 -1.04183,0.34728z" fill="#000000" stroke="none" stroke-width="0.5"/></g><g><g><path d="M248.05696,177.16467l-0.01484,-1.82386l4.26538,-0.02914l0.01484,1.82386z" fill="#663f3f" stroke="#000000" stroke-width="0.5"/><path d="M245.93381,178.35172l-0.01484,-1.82386l4.26536,-0.02914l0.01486,1.82386z" fill="#663f3f" stroke="#000000" stroke-width="0.5"/><path d="M250.67455,175.58336l-0.01485,-1.82386l4.26538,-0.02914l0.01485,1.82386z" fill="#663f3f" stroke="#000000" stroke-width="0.5"/><path d="M250.69627,178.25405l-0.01484,-1.82387l4.26538,-0.02914l0.01485,1.82387z" fill="#663f3f" stroke="#000000" stroke-width="0.5"/><path d="M245.91153,175.61592l-0.01485,-1.82386l4.26537,-0.02916l0.01484,1.82387z" fill="#663f3f" stroke="#000000" stroke-width="0.5"/><path d="M249.07816,180.34962l-0.0615,-7.556l2.27487,-0.01555l0.0615,7.556z" fill="#663f3f" stroke="#000000" stroke-width="0.5"/><path d="M252.98308,125.9478l1.10423,-2.40406l5.62225,2.16812l-1.10424,2.40406z" fill="#663f3f" stroke="#000000" stroke-width="0.5"/><path d="M249.4621,126.40921l1.10424,-2.40406l5.62224,2.16811l-1.10423,2.40407z" fill="#663f3f" stroke="#000000" stroke-width="0.5"/><path d="M257.39664,125.22416l1.10423,-2.40405l5.62225,2.16812l-1.10424,2.40406z" fill="#663f3f" stroke="#000000" stroke-width="0.5"/><path d="M255.7797,128.74443l1.10424,-2.40407l5.62225,2.16811l-1.10424,2.40406z" fill="#663f3f" stroke="#000000" stroke-width="0.5"/><path d="M251.11842,122.80311l1.10424,-2.40407l5.62227,2.16811l-1.10425,2.40407z" fill="#663f3f" stroke="#000000" stroke-width="0.5"/><path d="M252.36254,130.6608l4.57468,-9.9597l2.99854,1.15632l-4.57467,9.95971z" fill="#663f3f" stroke="#000000" stroke-width="0.5"/><path d="M259.56486,157.00786c-0.75966,13.61344 -4.1157,18.75733 -8.92865,18.43918c-4.81295,-0.31815 -8.823,-5.44856 -8.06335,-19.062c0.40203,-7.20462 2.68069,-18.76925 4.8655,-24.78643c1.94348,-5.35255 3.68301,-5.59999 5.94882,-5.45021c2.70216,0.17863 5.39979,0.01311 6.37243,7.13684c0.75977,5.5647 0.13841,17.75224 -0.19475,23.72261z" fill="#d87700" stroke="#929292" stroke-width="1"/><path d="M258.21563,182.72839c0,2.91633 -2.5472,3.41678 -6.52568,3.41678c-3.97848,0 -6.86468,-0.50045 -6.86468,-3.41678c0,-2.91633 2.7167,-4.03801 6.69518,-4.03801c3.97848,0 6.69518,1.12168 6.69518,4.03801z" fill="#d87700" stroke="#929292" stroke-width="1"/></g><path d="M250.76129,134.96965c-0.57937,0 -0.72648,-0.43226 -0.76383,-0.65177c-1.04057,-1.17148 -1.55522,-2.61699 -1.56579,-4.20161c0,0 0,-0.77654 0.77654,-0.77654c0.77654,0 0.77654,0.77654 0.77654,0.77654c-0.01067,1.25102 0.42439,2.45784 1.32564,3.33361l0.22744,0.74323c0,0 0,0.77654 -0.77654,0.77654z" fill="#000000" stroke="none" stroke-width="0.5"/><path d="M252.8543,137.16886c-0.64612,-0.43075 -0.21537,-1.07686 -0.21537,-1.07686l0.38827,-0.58241c1.32874,-1.97033 3.54424,-2.98911 4.6108,-5.15818c0,0 0.34728,-0.69457 1.04184,-0.34728c0.69456,0.34727 0.34727,1.04184 0.34727,1.04184c-1.15212,2.27343 -3.35695,3.27138 -4.70768,5.32512l-0.38827,0.5824c0,0 -0.43075,0.64612 -1.07687,0.21538z" fill="#000000" stroke="none" stroke-width="0.5"/><path d="M255.06557,131.05364c-0.13461,-0.13461 -0.20323,-0.26923 -0.23011,-0.39575c-0.02216,0.08859 -0.06373,0.18297 -0.13105,0.28231c-0.43564,0.64283 -1.07847,0.20718 -1.07847,0.20718l-0.82698,-0.65632c-0.25685,-0.44949 -0.51369,-0.89897 -0.77054,-1.34846c0,0 -0.38528,-0.67422 0.28895,-1.05949c0.67423,-0.38527 1.05949,0.28895 1.05949,0.28895c0.25685,0.44949 0.51369,0.89897 0.77054,1.34846l0.34982,0.14121c0,0 0.27766,0.18817 0.34434,0.49966c0.05836,-0.2403 0.224,-0.40593 0.224,-0.40593l0.33099,-0.32428c0.55269,-0.68583 1.18266,-1.31579 1.86849,-1.86849c0,0 0.60638,-0.48511 1.09148,0.12127c0.4851,0.60638 -0.12127,1.09148 -0.12127,1.09148c-0.60048,0.47636 -1.14959,1.02546 -1.62595,1.62595l-0.44555,0.45226c0,0 -0.5491,0.5491 -1.09819,0z" fill="#000000" stroke="none" stroke-width="0.5"/><path d="M252.50851,146.03536c-0.77654,0 -0.77654,-0.77654 -0.77654,-0.77654l0.17999,0.10886c-0.13595,-0.16364 -0.27355,-0.32374 -0.41254,-0.48078c-0.15811,-0.00442 -0.3344,-0.06752 -0.51068,-0.2438c-0.19782,-0.19782 -0.2531,-0.39565 -0.24287,-0.5678c-1.0616,-1.09471 -2.17723,-2.06894 -3.25155,-3.12077c0,0 -0.5491,-0.5491 0,-1.09819c0.29076,-0.29076 0.58152,-0.27359 0.79075,-0.19308c-0.78162,-1.34982 -1.38983,-2.79766 -1.77156,-4.31114c0,0 -0.18834,-0.75335 0.56502,-0.9417c0.75335,-0.18834 0.94169,0.56502 0.94169,0.56502c0.68928,2.78528 2.25775,5.34089 4.24697,7.38808c0.1393,0.02686 0.34726,0.0968 0.48558,0.27901c1.32698,-0.35158 2.86556,-0.64406 3.90619,-1.27066c0.65459,-0.39415 1.34068,-2.95544 1.78427,-3.69559c0,0 0.39953,-0.66587 1.0654,-0.26635c0.66588,0.39953 0.26636,1.0654 0.26636,1.0654c-0.57454,0.95644 -1.19469,3.41175 -2.09844,4.06982c-1.14634,0.8347 -3.18584,1.20231 -4.72582,1.64601c0.05172,0.06026 0.10317,0.12101 0.15435,0.18225l0.17998,0.8854c0,0 0,0.77654 -0.77654,0.77654z" fill="#000000" stroke="none" stroke-width="0.5"/><path d="M254.90185,140.83619c-0.43075,0.64612 -1.07687,0.21537 -1.07687,0.21537l-1.22638,-0.82213c-0.53136,-0.53651 -1.02256,-1.1344 -1.36705,-1.80634c0,0 -0.34728,-0.69456 0.34727,-1.04184c0.69456,-0.34727 1.04184,0.34727 1.04184,0.34727c0.2346,0.48543 0.5787,0.92126 0.96257,1.29983l1.10324,0.73095c0,0 0.64612,0.43075 0.21537,1.07687z" fill="#000000" stroke="none" stroke-width="0.5"/><path d="M254.68499,139.74105c-0.69456,-0.34727 -0.34728,-1.04184 -0.34728,-1.04184l0.38827,-0.77654c0.22462,-0.44269 0.40633,-0.91178 0.52361,-1.39414c0,0 0.18834,-0.75335 0.9417,-0.56502c0.75335,0.18834 0.56502,0.9417 0.56502,0.9417c-0.15089,0.59041 -0.37133,1.16564 -0.64121,1.71202l-0.38827,0.77654c0,0 -0.34728,0.69456 -1.04184,0.34728z" fill="#000000" stroke="none" stroke-width="0.5"/><path d="M251.17336,148.46204c-0.48532,0.6062 -1.09152,0.12087 -1.09152,0.12087l-1.00003,-0.80065c-0.62441,-0.51476 -1.89098,-1.52182 -2.42923,-2.11852c-0.52203,-0.57872 -0.92617,-1.90512 -1.70955,-1.9812c0,0 -0.75335,-0.18834 -0.56502,-0.94169c0.18834,-0.75335 0.9417,-0.56502 0.9417,-0.56502c1.78517,0.568 3.18462,3.11847 4.74131,4.40093l0.99146,0.79375c0,0 0.6062,0.48532 0.12087,1.09152z" fill="#000000" stroke="none" stroke-width="0.5"/><path d="M253.51249,147.55514c-0.5491,-0.5491 0,-1.0982 0,-1.0982l0.38827,-0.38827c0.88975,-0.88704 1.5981,-1.75244 2.57572,-2.57121c0,0 0.59656,-0.49712 1.09369,0.09943c0.49712,0.59655 -0.09943,1.09368 -0.09943,1.09368c-0.94088,0.77973 -1.619,1.62117 -2.47179,2.4763l-0.38827,0.38827c0,0 -0.5491,0.5491 -1.09819,0z" fill="#000000" stroke="none" stroke-width="0.5"/><path d="M251.53783,150.88874c0,-0.77654 0.77654,-0.77654 0.77654,-0.77654l-0.05143,0.03985c2.87813,-0.95758 4.09381,-1.87054 5.83666,-4.19434c0,0 0.46592,-0.62124 1.08715,-0.15531c0.62123,0.46592 0.15531,1.08716 0.15531,1.08716c-0.54095,0.72126 -1.2231,2.08725 -1.86496,2.64903c-1.1356,0.99392 -3.31844,1.61782 -4.72303,2.08685l-0.4397,0.03985c0,0 -0.77654,0 -0.77654,-0.77654z" fill="#000000" stroke="none" stroke-width="0.5"/><path d="M251.21328,153.26083c-0.43075,0.64612 -1.07686,0.21538 -1.07686,0.21538l-0.70076,-0.48529c-1.4952,-1.4952 -2.78325,-3.17907 -4.27098,-4.65924c0,0 -0.5491,-0.5491 0,-1.0982c0.5491,-0.5491 1.0982,0 1.0982,0c1.48333,1.48994 2.77432,3.1626 4.27097,4.65925l0.46406,0.29125c0,0 0.64612,0.43075 0.21537,1.07687z" fill="#000000" stroke="none" stroke-width="0.5"/><path d="M249.79062,155.93625c0,-0.77654 0.77654,-0.77654 0.77654,-0.77654l0.89415,0.00378c1.22494,-0.19433 1.74766,-1.32594 2.77239,-2.01904c0.86431,-0.5846 1.832,-1.00191 2.71662,-1.55528c0,0 0.65851,-0.41156 1.07007,0.24694c0.41156,0.6585 -0.24694,1.07008 -0.24694,1.07008c-1.89942,1.18615 -4.05595,3.33465 -6.1591,3.80283l-1.04719,0.00378c0,0 -0.77654,0 -0.77654,-0.77654z" fill="#000000" stroke="none" stroke-width="0.5"/><path d="M249.32734,158.98711c-0.33297,0.70154 -1.0345,0.36857 -1.0345,0.36857l-0.42685,-0.20565c-2.58531,-1.01646 -3.57579,-3.2373 -4.95358,-5.53214c0,0 -0.39954,-0.66587 0.26635,-1.0654c0.66587,-0.39953 1.06541,0.26636 1.06541,0.26636c1.13224,1.88832 2.02413,4.12353 4.16714,4.87699l0.54746,0.25678c0,0 0.70154,0.33296 0.36857,1.0345z" fill="#000000" stroke="none" stroke-width="0.5"/><path d="M252.26462,162.57208c0.2094,-0.08125 0.50118,-0.09958 0.79298,0.19222c0.5491,0.5491 0,1.09819 0,1.09819l-1.14275,0.31092c-0.32356,-0.19413 -0.64712,-0.38827 -0.97067,-0.5824c0,0 -0.22894,-0.13737 -0.33779,-0.38525c-0.10662,0.06513 -0.2458,0.10765 -0.42748,0.10765c-0.77654,0 -0.77654,-0.77654 -0.77654,-0.77654l0.42926,-0.8887c2.55635,-1.27818 5.94216,-2.46226 7.95186,-4.51378c0,0 0.5491,-0.5491 1.09819,0c0.5491,0.5491 0,1.09819 0,1.09819c-1.84335,1.81336 -4.52204,2.99143 -6.96001,4.13373c0.11432,0.06859 0.22865,0.13718 0.34296,0.20578z" fill="#000000" stroke="none" stroke-width="0.5"/><path d="M253.47918,168.94331c0.77654,0 0.77654,0.77654 0.77654,0.77654l-0.02319,0.38248c-1.22123,4.57083 -6.90063,0.61314 -9.44845,-0.6586c0,0 -0.69456,-0.34727 -0.34727,-1.04183c0.34727,-0.69456 1.04183,-0.34727 1.04183,-0.34727c1.49087,0.74662 6.64581,4.34488 7.24717,1.67103l-0.02319,-0.0058c0,0 0,-0.66302 0.61265,-0.76378c-0.48319,0.04117 -0.7248,-0.44203 -0.7248,-0.44203l0.15314,-0.041c-0.69168,-0.34584 -1.40212,-0.68874 -2.11374,-1.04176c-0.83671,0.37574 -1.66636,0.75498 -2.46352,1.15392l-0.78548,0.15555c0,0 -0.76812,0.11404 -0.88215,-0.65408c-0.11404,-0.76812 0.65408,-0.88215 0.65408,-0.88215l0.31899,-0.00842c0.4575,-0.22853 0.92555,-0.45058 1.39934,-0.6692c-2.61333,-1.41073 -5.04136,-3.11183 -6.37569,-5.77824c0,0 -0.34728,-0.69457 0.34727,-1.04184c0.69456,-0.34727 1.04184,0.34728 1.04184,0.34728c1.34279,2.68796 4.03723,4.29828 6.77067,5.66752c1.37248,-0.61357 2.74289,-1.23034 3.99911,-1.9218c1.65499,-0.91095 2.72623,-2.40954 4.5546,-3.14878c0,0 0.721,-0.2884 1.0094,0.4326c0.2884,0.721 -0.4326,1.0094 -0.4326,1.0094c-1.76432,0.69689 -2.76885,2.17727 -4.37562,3.06355c-0.93388,0.51512 -1.93043,0.98873 -2.94399,1.44998c0.32859,0.15945 0.65339,0.31805 0.97202,0.47737l0.54142,0.73555c0,0 0.34728,0.69457 -0.34728,1.04184c-0.09087,0.04543 -0.1758,0.07304 -0.25478,0.08669c0.03231,-0.00309 0.06616,-0.00471 0.10163,-0.00471z" fill="#000000" stroke="none" stroke-width="0.5"/><path d="M248.78664,162.11527c-0.5491,0.5491 -1.09819,0 -1.09819,0c-0.19413,-0.19413 -0.58241,-0.58241 -0.77654,-0.77654c0,0 -0.5491,-0.5491 0,-1.09819c0.5491,-0.5491 1.09819,0 1.09819,0c0.19413,0.19413 0.38828,0.38827 0.58241,0.5824l0.19413,0.19413c0,0 0.5491,0.5491 0,1.09819z" fill="#000000" stroke="none" stroke-width="0.5"/><path d="M250.40633,160.36806c-0.5491,-0.5491 0,-1.0982 0,-1.0982l0.38827,-0.38827c0.45702,-0.44745 0.99161,-0.82433 1.56076,-1.11613c0,0 0.69457,-0.34728 1.04184,0.34727c0.34727,0.69456 -0.34728,1.04184 -0.34728,1.04184c-0.42655,0.20613 -0.82698,0.48545 -1.15713,0.82521l-0.38827,0.38827c0,0 -0.5491,0.5491 -1.09819,0z" fill="#000000" stroke="none" stroke-width="0.5"/><path d="M246.87859,154.96558c0,-0.42887 0.34768,-0.77654 0.77655,-0.77654c0.42887,0 0.77654,0.34767 0.77654,0.77654c0,0.42887 -0.34767,0.77654 -0.77654,0.77654c-0.42887,0 -0.77655,-0.34767 -0.77655,-0.77654z" fill="#000000" stroke="none" stroke-width="0.5"/></g><g><g><path d="M253.21297,51.56976l-4.16382,-9.60726h35.26046c0,0 0.94691,3.71133 0.51315,5.51073c-0.22519,0.93418 -9.99854,7.11594 -9.99854,7.11594z" fill="#000000" stroke="none" stroke-width="0"/><path d="M279.74427,24.62802l0.64723,-1.02744l2.20165,1.38693l-0.64723,1.02744z" fill="#663f3f" stroke="#000000" stroke-width="0.5"/><path d="M280.42902,25.98197l0.64724,-1.02744l2.20164,1.38693l-0.64723,1.02743z" fill="#663f3f" stroke="#000000" stroke-width="0.5"/><path d="M278.94138,22.89209l0.64723,-1.02744l2.20164,1.38694l-0.64723,1.02743z" fill="#663f3f" stroke="#000000" stroke-width="0.5"/><path d="M277.99363,24.39655l0.64723,-1.02744l2.20165,1.38694l-0.64723,1.02743z" fill="#663f3f" stroke="#000000" stroke-width="0.5"/><path d="M281.39987,24.44083l0.64723,-1.02743l2.20164,1.38693l-0.64723,1.02743z" fill="#663f3f" stroke="#000000" stroke-width="0.5"/><path d="M279.12533,26.74964l2.68139,-4.25651l1.17421,0.7397l-2.6814,4.25652z" fill="#663f3f" stroke="#000000" stroke-width="0.5"/><path d="M251.2919,26.58367l-0.64724,-1.02744l2.20165,-1.38693l0.64723,1.02743z" fill="#663f3f" stroke="#000000" stroke-width="0.5"/><path d="M250.60715,27.93762l-0.64723,-1.02744l2.20165,-1.38692l0.64723,1.02743z" fill="#663f3f" stroke="#000000" stroke-width="0.5"/><path d="M252.09481,24.84773l-0.64723,-1.02742l2.20164,-1.38694l0.64723,1.02744z" fill="#663f3f" stroke="#000000" stroke-width="0.5"/><path d="M253.04254,26.35219l-0.64723,-1.02743l2.20164,-1.38694l0.64723,1.02744z" fill="#663f3f" stroke="#000000" stroke-width="0.5"/><path d="M249.6363,26.39647l-0.64723,-1.02744l2.20164,-1.38693l0.64723,1.02743z" fill="#663f3f" stroke="#000000" stroke-width="0.5"/><path d="M252.93827,28.05806l-2.68139,-4.25651l1.17421,-0.7397l2.68139,4.25652z" fill="#663f3f" stroke="#000000" stroke-width="0.5"/><path d="M260.17617,61.98898l0.23485,-2.75953l5.91328,0.50327l-0.23485,2.75953z" fill="#663f3f" stroke="#000000" stroke-width="0.5"/><path d="M257.06854,63.51132l0.23486,-2.75953l5.91328,0.50327l-0.23485,2.75953z" fill="#663f3f" stroke="#000000" stroke-width="0.5"/><path d="M264.02401,59.934l0.23485,-2.75953l5.91328,0.50327l-0.23486,2.75953z" fill="#663f3f" stroke="#000000" stroke-width="0.5"/><path d="M263.68011,63.97476l0.23486,-2.75954l5.91328,0.50327l-0.23485,2.75953z" fill="#663f3f" stroke="#000000" stroke-width="0.5"/><path d="M257.42082,59.37203l0.23486,-2.75953l5.91328,0.50326l-0.23485,2.75954z" fill="#663f3f" stroke="#000000" stroke-width="0.5"/><path d="M261.14493,66.93559l0.97298,-11.43235l3.15375,0.26841l-0.97298,11.43235z" fill="#663f3f" stroke="#000000" stroke-width="0.5"/><path d="M265.13462,47.10329c-7.15817,0 -17.06152,-3.01015 -17.06152,-5.42177c0,-4.49757 -0.51443,-8.69941 2.16219,-12.65921c3.49191,-5.16595 10.95107,-9.52075 17.17419,-9.52075c8.52421,0 16.73313,6.56875 19.09643,15.75677c0.68455,2.66136 -0.94488,8.40798 -0.94488,10.73596c0,0 -9.43313,1.109 -20.42642,1.109z" fill="#d87700" stroke="#929292" stroke-width="1"/><path d="M260.88181,36.53869c0,1.80604 -1.35799,3.27012 -3.03315,3.27012c-1.67517,0 -3.03315,-1.46408 -3.03315,-3.27012c0,-1.80604 1.35799,-3.27012 3.03315,-3.27012c1.67517,0 3.03315,1.46408 3.03315,3.27013z" fill="#fff68e" stroke="#fff68e" stroke-width="2"/><path d="M279.2703,38.05527c0,1.80604 -1.35799,3.27012 -3.03315,3.27012c-1.67517,0 -3.03315,-1.46409 -3.03315,-3.27012c0,-1.80603 1.35799,-3.27012 3.03315,-3.27012c1.67517,0 3.03315,1.46409 3.03315,3.27012z" fill="#fff68e" stroke="#fff68e" stroke-width="2"/><path d="M257.02299,36.63611c0,-0.31408 0.25462,-0.56871 0.56871,-0.56871c0.3141,0 0.56871,0.25463 0.56871,0.56871c0,0.31408 -0.25462,0.56872 -0.56871,0.56872c-0.3141,0 -0.56871,-0.25463 -0.56871,-0.56872z" fill="#000000" stroke="none" stroke-width="0.5"/><path d="M275.47526,38.59301c0,-0.41403 0.33564,-0.74967 0.74968,-0.74967c0.41403,0 0.74967,0.33564 0.74967,0.74967c0,0.41403 -0.33563,0.74968 -0.74967,0.74968c-0.41403,0 -0.74968,-0.33564 -0.74968,-0.74968z" fill="#000000" stroke="none" stroke-width="0.5"/><path d="M280.63274,53.56066c-1.8646,1.64843 -8.48135,4.70619 -16.16329,3.87571c-7.68194,-0.83048 -12.6589,-4.68225 -14.04412,-6.65566c-0.73995,-1.64561 -3.25411,-7.61095 -2.18652,-8.05774c1.12527,-0.47093 3.82838,6.79367 6.96113,7.94191c3.72078,1.36377 7.39101,2.16529 10.29999,2.47977c2.7389,0.2961 8.88942,-0.31092 13.23837,-1.5827c3.00516,-1.80009 5.28789,-6.41875 6.34479,-6.04604c1.21262,0.42762 -3.31176,7.03875 -4.45036,8.04476z" fill="#d87700" stroke="#929292" stroke-width="1"/><path d="M272.94357,44.13649c0,2.71265 -2.69449,1.99051 -5.71764,1.99051c-3.02315,0 -5.96137,0.05109 -5.96137,-1.99051c0,-1.21931 0.39804,-3.96547 1.88624,-5.12901c1.00365,-0.7847 2.77625,-0.43628 3.99389,-0.43628c1.13356,0 3.03337,-0.19049 3.94979,0.42533c1.52763,1.02653 1.84909,3.44446 1.84909,5.13998z" fill="#ba6600" stroke="#000000" stroke-width="0"/><path d="M268.55836,39.7723c0,0.8231 -0.74732,1.49036 -1.66918,1.49036c-0.92186,0 -1.66918,-0.66726 -1.66918,-1.49036c0,-0.8231 0.74732,-1.49034 1.66918,-1.49034c0.92186,0 1.66918,0.66725 1.66918,1.49034z" fill="#bdc29f" stroke="none" stroke-width="0"/><path d="M257.11851,51.39815c0,0 0.36405,-1.50506 0.96746,-1.37794c0.62805,0.13233 0.16847,1.64694 0.16847,1.64694z" fill="#ffffff" stroke="none" stroke-width="0"/><path d="M254.71758,50.44842c0,0 0.47844,-1.4727 1.07031,-1.29966c0.61606,0.18011 0.04164,1.65501 0.04164,1.65501z" fill="#ffffff" stroke="none" stroke-width="0"/><path d="M252.72857,48.63217c0,0 1.09706,-1.09279 1.54502,-0.66901c0.46626,0.44109 -0.71724,1.4921 -0.71724,1.4921z" fill="#ffffff" stroke="none" stroke-width="0"/><path d="M259.64101,51.82164c0,0 0.33976,-3.39773 0.94513,-3.1337c0.6301,0.2748 0.19498,3.69749 0.19498,3.69749z" fill="#ffffff" stroke="none" stroke-width="0"/><path d="M262.11526,52.81759c0,0 0.24295,-1.52929 0.85456,-1.45066c0.6366,0.08185 0.29919,1.62827 0.29919,1.62827z" fill="#ffffff" stroke="none" stroke-width="0"/><path d="M264.79316,53.29676c0,0 0.07506,-1.54665 0.69159,-1.53505c0.64173,0.01206 0.47464,1.58603 0.47464,1.58603z" fill="#ffffff" stroke="none" stroke-width="0"/><path d="M267.99207,53.44963c0,0 -0.14416,-1.54174 0.46783,-1.61735c0.637,-0.0787 0.6939,1.50309 0.6939,1.50309z" fill="#ffffff" stroke="none" stroke-width="0"/><path d="M270.83203,53.16594c0,0 -0.28771,-3.73343 0.31453,-4.05858c0.62685,-0.33843 0.83144,3.51284 0.83144,3.51284z" fill="#ffffff" stroke="none" stroke-width="0"/><path d="M273.40555,52.67055c0,0 -0.23838,-1.53001 0.36783,-1.64298c0.63098,-0.11758 0.78473,1.45774 0.78473,1.45774z" fill="#ffffff" stroke="none" stroke-width="0"/><path d="M275.90729,52.30403c0,0 -0.35415,-1.50743 0.24171,-1.66621c0.6202,-0.16527 0.89341,1.39377 0.89341,1.39377z" fill="#ffffff" stroke="none" stroke-width="0"/><path d="M278.4037,51.83607c0,0 -0.71301,-1.37455 -0.1743,-1.67461c0.56073,-0.31233 1.20793,1.13211 1.20793,1.13211z" fill="#ffffff" stroke="none" stroke-width="0"/><path d="M280.58355,50.51555c0,0 -1.13721,-1.05097 -0.7323,-1.51605c0.42145,-0.4841 1.52047,0.65495 1.52047,0.65495z" fill="#ffffff" stroke="none" stroke-width="0"/><path d="M251.31769,46.77597c0,0 1.1742,-1.00946 1.5899,-0.554c0.43268,0.47408 -0.82465,1.43553 -0.82465,1.43553z" fill="#ffffff" stroke="none" stroke-width="0"/><path d="M281.98747,48.77845c0,0 -1.25507,-0.90695 -0.90888,-1.41725c0.36033,-0.53115 1.58805,0.46782 1.58805,0.46782z" fill="#ffffff" stroke="none" stroke-width="0"/><path d="M285.37426,20.35414c-0.57342,2.7065 -2.03555,4.68927 -3.26578,4.42862c-1.23023,-0.26065 -1.76268,-2.66598 -1.18927,-5.37249c0.57342,-2.7065 2.03555,-4.68927 3.26578,-4.42862c1.23023,0.26065 1.76268,2.66599 1.18927,5.37248z" fill="#d87700" stroke="#000000" stroke-width="0.5"/><path d="M283.88261,16.11365c0.88424,0.18473 1.27157,1.91148 0.86516,3.85679c-0.40641,1.94531 -1.45268,3.37254 -2.33692,3.18782c-0.88424,-0.18473 -1.27158,-1.91148 -0.86517,-3.85679c0.40641,-1.94531 1.45269,-3.37254 2.33692,-3.18781z" data-paper-data="{&quot;index&quot;:null}" fill="#bab9b9" stroke="#000000" stroke-width="0.5"/><path d="M250.86988,19.04436c1.81006,2.54792 2.33853,5.2804 1.18038,6.10315c-1.15815,0.82276 -3.56435,-0.57577 -5.3744,-3.1237c-1.81006,-2.54792 -2.33853,-5.2804 -1.18038,-6.10316c1.15815,-0.82276 3.56435,0.57578 5.3744,3.12371z" fill="#d87700" stroke="#000000" stroke-width="0.5"/><path d="M250.41623,19.45978c1.30022,1.83025 1.67983,3.79307 0.8479,4.38407c-0.83193,0.591 -2.56037,-0.4136 -3.86058,-2.24385c-1.30022,-1.83025 -1.67983,-3.79307 -0.8479,-4.38407c0.83193,-0.591 2.56037,0.41359 3.86058,2.24384z" fill="#bab9b9" stroke="#000000" stroke-width="0.5"/><path d="M279.43486,46.51658c0,0 0.01266,1.54841 -0.60355,1.57175c-0.64139,0.02429 -0.5637,-1.5566 -0.5637,-1.5566z" fill="#ffffff" stroke="none" stroke-width="0"/><path d="M277.25907,46.69257c0,0 0.1014,1.54514 -0.51245,1.60376c-0.63894,0.06102 -0.65201,-1.52173 -0.65201,-1.52173z" fill="#ffffff" stroke="none" stroke-width="0"/><path d="M275.12639,46.69257c0,0 0.1014,1.54514 -0.51246,1.60376c-0.63894,0.06102 -0.652,-1.52173 -0.652,-1.52173z" fill="#ffffff" stroke="none" stroke-width="0"/><path d="M272.9937,46.90584c0,0 0.1014,1.54515 -0.51245,1.60377c-0.63894,0.06102 -0.65201,-1.52173 -0.65201,-1.52173z" fill="#ffffff" stroke="none" stroke-width="0"/><path d="M270.36338,46.97693c0,0 0.1014,3.52926 -0.51245,3.66316c-0.63894,0.13938 -0.65201,-3.47578 -0.65201,-3.47578z" fill="#ffffff" stroke="none" stroke-width="0"/><path d="M267.74869,46.91734c0,0 0.07109,1.54684 -0.54379,1.59342c-0.64001,0.04848 -0.62206,-1.53422 -0.62206,-1.53422z" fill="#ffffff" stroke="none" stroke-width="0"/><path d="M265.1627,46.88057c0,0 -0.01684,1.54837 -0.63338,1.55997c-0.64173,0.01208 -0.53395,-1.56706 -0.53395,-1.56706z" fill="#ffffff" stroke="none" stroke-width="0"/><path d="M262.86229,47.02026c0,0 -0.10975,3.60777 -0.72588,3.54836c-0.6413,-0.06183 -0.43892,-3.72856 -0.43892,-3.72856z" fill="#ffffff" stroke="none" stroke-width="0"/><path d="M260.60839,46.79293c0,0 -0.15517,1.54067 -0.77028,1.49712c-0.64024,-0.04534 -0.39174,-1.60851 -0.39174,-1.60851z" fill="#ffffff" stroke="none" stroke-width="0"/><path d="M258.378,46.26568c0,0 -0.25662,1.52706 -0.8675,1.44296c-0.63585,-0.08753 -0.28463,-1.63088 -0.28463,-1.63088z" fill="#ffffff" stroke="none" stroke-width="0"/><path d="M256.32218,45.85505c0,0 -0.45397,1.48043 -1.04863,1.31722c-0.61895,-0.16987 -0.06906,-1.6541 -0.06906,-1.6541z" fill="#ffffff" stroke="none" stroke-width="0"/><path d="M254.62791,45.58718c0,0 -0.48985,1.46894 -1.08037,1.29131c-0.61464,-0.18489 -0.02879,-1.65528 -0.02879,-1.65528z" fill="#ffffff" stroke="none" stroke-width="0"/></g><g fill="#000000" stroke="none" stroke-width="0.5"><path d="M265.84726,35.00397c-0.69456,-0.34728 -0.34728,-1.04183 -0.34728,-1.04183l0.13533,-0.22933c0.44491,-1.58941 1.91488,-2.55711 2.82513,-3.93097c0,0 0.43075,-0.64612 1.07687,-0.21538c0.06455,0.04303 0.11836,0.08823 0.16292,0.1347c0.0251,-0.13288 0.07073,-0.22413 0.07073,-0.22413l0.11215,-0.04099c0,-1.15592 -0.12071,-2.62892 0.48906,-3.6829c0.91852,-1.58764 3.06047,-2.11755 4.13136,-3.57775c0,0 0.46592,-0.62123 1.08715,-0.15531c0.62123,0.46592 0.15531,1.08716 0.15531,1.08716c-1.00907,1.3222 -3.23228,1.99674 -4.02233,3.41111c-0.45017,0.80591 -0.28748,2.04246 -0.28748,2.9177l-0.27611,0.73554c0,0 -0.34728,0.69457 -1.04184,0.34728c-0.10289,-0.05144 -0.18291,-0.1105 -0.24459,-0.1738c-0.0387,0.17488 -0.12097,0.29826 -0.12097,0.29826c-0.69356,1.03461 -2.37104,2.2488 -2.61066,3.44616l-0.25293,0.54722c0,0 -0.34727,0.69456 -1.04183,0.34727z"/><path d="M272.01858,35.08595c-0.77654,0 -0.77654,-0.77654 -0.77654,-0.77654l0.08198,-0.54141c0.28269,-0.52524 0.20064,-2.18075 0.4823,-2.47467c0.71733,-0.74856 3.60311,-0.67219 4.57795,-1.00314c1.44425,-0.49031 2.86351,-2.24943 3.74917,-3.43558c0,0 0.46593,-0.62123 1.08716,-0.15531c0.62123,0.46592 0.1553,1.08716 0.1553,1.08716c-1.07785,1.43144 -2.67096,3.31756 -4.4045,3.94155c-0.87891,0.31637 -1.80339,0.51258 -2.72944,0.63505c-0.40893,0.05408 -0.90159,-0.32859 -1.23456,-0.0851c-0.33603,0.24572 0.25523,0.83508 0.15524,1.23917c-0.08382,0.33872 -0.29965,0.63028 -0.44948,0.94541l0.08198,-0.15315c0,0 0,0.77654 -0.77654,0.77654z"/><path d="M279.39572,34.89182c0,-0.77654 0.77654,-0.77654 0.77654,-0.77654l-0.15314,0.08198c1.667,-0.82339 2.50933,-1.73209 4.0246,-2.68921c0,0 0.66587,-0.39953 1.0654,0.26635c0.39953,0.66587 -0.26636,1.0654 -0.26636,1.0654c-1.43195,0.79456 -2.54403,1.94229 -4.12908,2.74657l-0.54141,0.08198c0,0 -0.77654,0 -0.77654,-0.77654z"/><path d="M278.84663,41.45911c-0.5491,-0.5491 0,-1.09819 0,-1.09819l0.19414,-0.19413c1.69547,-1.67413 3.95373,-3.22899 5.9424,-4.56213c0,0 0.64613,-0.43075 1.07687,0.21538c0.43075,0.64612 -0.21537,1.07686 -0.21537,1.07686c-1.89053,1.25258 -4.12345,2.76037 -5.7057,4.36809l-0.19413,0.19413c0,0 -0.54911,0.5491 -1.0982,0z"/><path d="M275.9346,43.85534c0.5491,-0.5491 1.0982,0 1.0982,0l-0.44923,0.21637c1.24492,-0.49377 2.64793,-0.20495 3.76968,-0.60977c1.77483,-0.6405 3.07391,-1.55122 4.26015,-3.03703c0,0 0.4851,-0.60637 1.09148,-0.12127c0.60638,0.4851 0.12127,1.09148 0.12127,1.09148c-1.35109,1.68566 -2.99008,2.91456 -5.05834,3.56356c-1.19485,0.37494 -2.35606,0.04963 -3.60745,0.55504l-1.22577,-0.56018c0,0 -0.5491,-0.5491 0,-1.09819z"/><path d="M270.46551,55.08188c0,-0.77654 0.77654,-0.77654 0.77654,-0.77654h0.38827c2.86365,0.01902 5.03388,-2.13548 7.95954,-2.13548c0,0 0.77654,0 0.77654,0.77654c0,0.77654 -0.77654,0.77654 -0.77654,0.77654c-2.86401,0 -5.0351,2.11953 -7.95954,2.13549h-0.38827c0,0 -0.77654,0 -0.77654,-0.77654z"/><path d="M274.12276,29.08494c-0.06,0.22994 -0.23498,0.56523 -0.74523,0.56523c-0.77654,0 -0.77654,-0.77654 -0.77654,-0.77654l0.31061,-0.81536c0.71468,-0.52595 1.90272,-1.43367 2.04219,-2.28501c0,0 0.18834,-0.75335 0.94169,-0.56501c0.75335,0.18834 0.56502,0.94169 0.56502,0.94169c-0.36012,1.21936 -1.32497,2.13945 -2.33775,2.93501z"/><path d="M267.63547,43.97518c-0.34728,-0.69456 0.34727,-1.04184 0.34727,-1.04184l1.03909,-0.46561c0.29834,0.06403 0.58002,0.17041 0.85465,0.28412c-0.03246,-0.1885 0.00645,-0.41611 0.23406,-0.64372c0.5491,-0.5491 1.09819,0 1.09819,0l0.33048,0.41407c0.74514,-0.0654 1.47879,-0.05911 2.22659,-0.05911c0,0 0.77654,0.00001 0.77654,0.77654c0,0.77654 -0.77654,0.77654 -0.77654,0.77654c-0.45533,0 -0.90723,-0.00349 -1.35901,-0.01204c0.00004,0.00399 0.00007,0.008 0.00007,0.01204c0,0.77654 -0.77654,0.77654 -0.77654,0.77654c-1.06639,-0.03054 -1.47169,-0.43883 -2.43902,-0.78117l-0.51399,0.31092c0,0 -0.69456,0.34728 -1.04184,-0.34727z"/><path d="M268.94574,42.04151c-0.5491,-0.5491 0,-1.09819 0,-1.09819l0.45576,-0.41591c0.27443,-1.37136 0.94745,-2.53337 1.28134,-3.88258c0,0 0.18834,-0.75335 0.94169,-0.56502c0.75335,0.18834 0.56502,0.94169 0.56502,0.94169c-0.37036,1.46843 -1.02711,2.80836 -1.43655,4.2711l-0.70905,0.7489c0,0 -0.54911,0.5491 -1.0982,0z"/><path d="M269.81429,34.57212c0.10514,0.2109 0.17032,0.53984 -0.15864,0.86879c-0.5491,0.5491 -1.09819,0 -1.09819,0l-0.33959,-1.09051c0.5842,-1.1684 0.81327,-2.36461 1.69854,-3.30798c0,0 0.54911,-0.5491 1.0982,0c0.5491,0.5491 0,1.09819 0,1.09819c-0.59668,0.53377 -0.86214,1.57305 -1.20031,2.4315z"/><path d="M265.64544,27.67551c-0.5491,-0.5491 0,-1.09819 0,-1.09819l0.50153,-0.48736c1.0899,-2.22675 2.82698,-3.81183 4.54598,-5.53083c0,0 0.5491,-0.5491 1.09819,0c0.5491,0.5491 0,1.09819 0,1.09819c-1.67812,1.67812 -3.28781,3.18819 -4.38424,5.34074l-0.66327,0.67745c0,0 -0.5491,0.5491 -1.09819,0z"/></g><g data-paper-data="{&quot;index&quot;:null}" fill="#000000" stroke="none" stroke-width="0.5"><path d="M267.24824,34.07428l-0.25294,-0.54721c-0.23961,-1.19736 -1.91708,-2.41155 -2.61066,-3.44616c0,0 -0.08225,-0.12338 -0.12096,-0.29826c-0.06168,0.0633 -0.1417,0.12236 -0.24459,0.1738c-0.69456,0.34727 -1.04184,-0.34728 -1.04184,-0.34728l-0.27612,-0.73554c0,-0.87524 0.1627,-2.11178 -0.28747,-2.9177c-0.79003,-1.41437 -3.01324,-2.08891 -4.02233,-3.41111c0,0 -0.46592,-0.62124 0.15531,-1.08716c0.62123,-0.46592 1.08715,0.15531 1.08715,0.15531c1.07089,1.4602 3.21283,1.99012 4.13135,3.57776c0.60977,1.05398 0.48907,2.52698 0.48907,3.6829l0.11216,0.04099c0,0 0.04561,0.09125 0.07072,0.22413c0.04456,-0.04648 0.09837,-0.09166 0.16292,-0.1347c0.64612,-0.43075 1.07687,0.21537 1.07687,0.21537c0.91026,1.37385 2.38022,2.34156 2.82513,3.93097l0.13533,0.22933c0,0 0.34728,0.69456 -0.34728,1.04183c-0.69456,0.34728 -1.04184,-0.34728 -1.04184,-0.34728z"/><path d="M261.3422,33.72701l0.08198,0.15314c-0.14983,-0.31513 -0.36566,-0.60668 -0.44948,-0.94541c-0.09999,-0.40411 0.49126,-0.99346 0.15524,-1.23918c-0.33297,-0.24348 -0.82561,0.13918 -1.23455,0.0851c-0.92606,-0.12246 -1.85054,-0.31867 -2.72945,-0.63504c-1.73354,-0.62399 -3.32666,-2.51012 -4.4045,-3.94156c0,0 -0.46592,-0.62124 0.1553,-1.08716c0.62123,-0.46592 1.08716,0.15531 1.08716,0.15531c0.88565,1.18614 2.30491,2.94527 3.74917,3.43558c0.97484,0.33095 3.86061,0.25457 4.57795,1.00314c0.28166,0.29392 0.19961,1.94943 0.4823,2.47466l0.08198,0.54141c0,0 0,0.77654 -0.77654,0.77654c-0.77654,0 -0.77654,-0.77654 -0.77654,-0.77654z"/><path d="M253.96507,35.08595l-0.54142,-0.08198c-1.58505,-0.80429 -2.69714,-1.95202 -4.12909,-2.74657c0,0 -0.66587,-0.39952 -0.26635,-1.0654c0.39953,-0.66587 1.0654,-0.26635 1.0654,-0.26635c1.51526,0.95713 2.3576,1.86583 4.0246,2.68921l-0.15315,-0.08197c0,0 0.77654,0 0.77654,0.77654c0,0.77654 -0.77654,0.77654 -0.77654,0.77654z"/><path d="M254.19252,40.8767l-0.19414,-0.19414c-1.58226,-1.60773 -3.81517,-3.11551 -5.7057,-4.36808c0,0 -0.64612,-0.43075 -0.21537,-1.07687c0.43075,-0.64612 1.07687,-0.21537 1.07687,-0.21537c1.98866,1.33315 4.24694,2.88801 5.94241,4.56214l0.19413,0.19413c0,0 0.5491,0.5491 0,1.09819c-0.5491,0.5491 -1.0982,0 -1.0982,0z"/><path d="M258.20273,44.37114l-1.22577,0.56017c-1.2514,-0.50541 -2.4126,-0.18011 -3.60745,-0.55504c-2.06824,-0.649 -3.70724,-1.87789 -5.05833,-3.56356c0,0 -0.48511,-0.60638 0.12127,-1.09148c0.60638,-0.4851 1.09148,0.12128 1.09148,0.12128c1.18625,1.48582 2.48533,2.39653 4.26015,3.03703c1.12175,0.40482 2.52477,0.116 3.76969,0.60977l-0.44923,-0.21637c0,0 0.5491,-0.5491 1.0982,0c0.5491,0.5491 0,1.0982 0,1.0982z"/><path d="M262.89528,55.27601h-0.38827c-2.92444,-0.01597 -5.09552,-2.13549 -7.95954,-2.13549c0,0 -0.77654,0 -0.77654,-0.77654c0,-0.77654 0.77654,-0.77654 0.77654,-0.77654c2.92565,0 5.09589,2.15451 7.95954,2.13548h0.38827c0,0 0.77654,0 0.77654,0.77654c0,0.77654 -0.77654,0.77654 -0.77654,0.77654z"/><path d="M257.67682,25.56754c0,0 -0.18834,-0.75335 0.56502,-0.94169c0.75336,-0.18833 0.94169,0.56502 0.94169,0.56502c0.13946,0.85133 1.32751,1.75904 2.04219,2.28499l0.31062,0.81536c0,0 0,0.77654 -0.77654,0.77654c-0.51025,0 -0.68523,-0.33527 -0.74523,-0.56522c-1.01277,-0.79556 -1.97763,-1.71565 -2.33775,-2.935z"/><path d="M265.46003,43.74006l-0.51399,-0.31093c-0.96733,0.34234 -1.37264,0.75064 -2.43903,0.78118c0,0 -0.77654,0 -0.77654,-0.77654c0,-0.00403 0.00002,-0.00805 0.00007,-0.01203c-0.45178,0.00855 -0.90369,0.01203 -1.35901,0.01203c0,0 -0.77654,0 -0.77654,-0.77654c0,-0.77654 0.77654,-0.77654 0.77654,-0.77654c0.74779,0 1.48145,-0.00629 2.22659,0.05911l0.33047,-0.41407c0,0 0.5491,-0.5491 1.0982,0c0.22761,0.22761 0.26653,0.45522 0.23406,0.64372c0.27463,-0.11371 0.55631,-0.22011 0.85465,-0.28413l1.03909,0.46561c0,0 0.69456,0.34728 0.34728,1.04184c-0.34728,0.69456 -1.04184,0.34728 -1.04184,0.34728z"/><path d="M264.09341,41.45911l-0.70905,-0.7489c-0.40945,-1.46274 -1.06619,-2.80268 -1.43656,-4.2711c0,0 -0.18834,-0.75335 0.56502,-0.94169c0.75336,-0.18834 0.9417,0.56502 0.9417,0.56502c0.33388,1.3492 1.00691,2.51121 1.28134,3.88258l0.45576,0.41591c0,0 0.5491,0.5491 0,1.09819c-0.5491,0.5491 -1.0982,0 -1.0982,0z"/><path d="M263.12273,31.55822c0,0 -0.5491,-0.54911 0,-1.0982c0.5491,-0.54909 1.0982,0 1.0982,0c0.88527,0.94337 1.11434,2.13958 1.69854,3.30798l-0.33959,1.09051c0,0 -0.5491,0.54909 -1.0982,0c-0.32895,-0.32895 -0.26377,-0.6579 -0.15862,-0.8688c-0.33817,-0.85845 -0.60363,-1.89773 -1.20032,-2.4315z"/><path d="M267.39371,27.09311l-0.66327,-0.67746c-1.09643,-2.15254 -2.70613,-3.66262 -4.38425,-5.34073c0,0 -0.5491,-0.5491 0,-1.09819c0.5491,-0.54909 1.0982,0 1.0982,0c1.719,1.719 3.45607,3.30408 4.54597,5.53083l0.50154,0.48736c0,0 0.5491,0.5491 0,1.09819c-0.5491,0.54909 -1.09819,0 -1.09819,0z"/></g></g><g><g><path d="M239.32326,125.52148c0,0 0.10971,0.84517 -0.84372,0.92166c-0.95344,0.07649 -1.06315,-0.76866 -1.06315,-0.76866l-0.14475,-1.1151c-0.17398,-1.40434 0.14524,-2.23153 -0.69868,-3.46539c0,0 -0.49699,-0.73644 0.32403,-1.15812c0.82103,-0.42168 1.31802,0.31476 1.31802,0.31476c1.00664,1.50813 0.73995,2.5232 0.96353,4.15575l0.14475,1.1151z" data-paper-data="{&quot;index&quot;:null}" fill="#bdc29f" stroke="none" stroke-width="0.5"/><path d="M234.7766,127.83137c-1.09924,-0.02506 -1.09761,-0.99673 -1.09761,-0.99673l0.00217,-1.28199c0.01221,-1.61353 0.5005,-2.51448 -0.27719,-4.0132c0,0 -0.45651,-0.89374 0.54345,-1.2758c0.99996,-0.38206 1.45647,0.5117 1.45647,0.5117c0.92218,1.82897 0.46561,2.94921 0.47574,4.82746l-0.00217,1.28199c0,0 -0.00164,0.97166 -1.10088,0.9466z" fill="#bdc29f" stroke="none" stroke-width="0.5"/><path d="M230.35596,128.16073c-1.09924,-0.02507 -1.0976,-0.99672 -1.0976,-0.99672l0.0343,-0.87592c0.53712,-1.87568 1.1182,-3.7219 1.43867,-5.64143c0,0 0.16079,-0.95779 1.24821,-0.79229c1.08741,0.1655 0.92663,1.12329 0.92663,1.12329c-0.3348,1.984 -0.92623,3.89149 -1.48146,5.83039l0.03214,0.40609c0,0 -0.00164,0.97166 -1.10088,0.94659z" fill="#bdc29f" stroke="none" stroke-width="0.5"/><path d="M226.62855,126.29679c-1.06602,-0.25999 -0.79782,-1.19655 -0.79782,-1.19655l0.39699,-1.18192c1.13982,-1.53848 1.20849,-3.34533 2.31179,-4.88693c0,0 0.59153,-0.80629 1.51805,-0.26349c0.9265,0.5428 0.33497,1.3491 0.33497,1.3491c-1.11796,1.4733 -1.18744,3.34174 -2.31179,4.88693l-0.11795,0.61628c0,0 -0.26819,0.93657 -1.33421,0.67659z" fill="#bdc29f" stroke="none" stroke-width="0.5"/><path d="M224.13837,121.48378c-1.06602,-0.25999 -0.79782,-1.19655 -0.79782,-1.19655l0.08582,-0.29971c0.79725,-2.71433 2.23609,-4.18398 5.03399,-5.31342c0,0 0.99063,-0.39986 1.46705,0.48607c0.47642,0.88593 -0.51422,1.28578 -0.51422,1.28578c-2.19602,0.88629 -3.24336,1.85614 -3.85477,4.06153l-0.08582,0.29971c0,0 -0.26819,0.93656 -1.33422,0.67658z" fill="#bdc29f" stroke="none" stroke-width="0.5"/><path d="M233.0348,112.48104l0.89206,-1.62758l3.99194,1.77553l-0.89205,1.62759z" fill="#663f3f" stroke="#000000" stroke-width="0.5"/><path d="M230.46536,112.63959l0.89207,-1.62759l3.99195,1.77553l-0.89207,1.62759z" fill="#663f3f" stroke="#000000" stroke-width="0.5"/><path d="M236.26115,112.18086l0.89204,-1.62757l3.99196,1.77552l-0.89207,1.62759z" fill="#663f3f" stroke="#000000" stroke-width="0.5"/><path d="M234.95487,114.56413l0.89207,-1.62759l3.99197,1.77552l-0.89208,1.62759z" fill="#663f3f" stroke="#000000" stroke-width="0.5"/><path d="M231.80343,110.19818l0.89207,-1.62759l3.99197,1.77553l-0.89207,1.62759z" fill="#663f3f" stroke="#000000" stroke-width="0.5"/><path d="M232.40515,115.74361l3.69569,-6.74289l2.12905,0.94694l-3.69568,6.74289z" fill="#663f3f" stroke="#000000" stroke-width="0.5"/><path d="M237.73852,119.71445c-1.13306,3.08096 -3.7306,2.17954 -6.30734,1.25981c-2.57674,-0.91974 -4.406,-1.59471 -3.02385,-4.59047c1.65181,-3.58024 3.90441,-4.06094 6.48114,-3.1412c2.57674,0.91974 4.03199,3.25799 2.85005,6.47186z" fill="#d87700" stroke="#000000" stroke-width="0"/><path d="M236.75755,118.32575c-0.49483,1.72799 -2.46142,2.74703 -4.39251,2.27609c-1.93109,-0.47096 -3.0954,-2.25357 -2.60057,-3.98156c0.49483,-1.72799 2.46143,-2.74703 4.39251,-2.27609c1.93109,0.47096 3.0954,2.25357 2.60056,3.98156z" fill="#cbc700" stroke="#000000" stroke-width="0"/><path d="M243.83624,70.14557l2.08645,-1.80336l4.48027,4.04848l-2.08645,1.80336z" fill="#663f3f" stroke="#000000" stroke-width="0.5"/><path d="M244.73506,73.32912l2.08647,-1.80336l4.48026,4.04847l-2.08644,1.80336z" fill="#663f3f" stroke="#000000" stroke-width="0.5"/><path d="M242.86181,66.10326l2.08645,-1.80336l4.48026,4.04848l-2.08644,1.80336z" fill="#663f3f" stroke="#000000" stroke-width="0.5"/><path d="M239.80663,68.74393l2.08644,-1.80337l4.48026,4.04848l-2.08647,1.80339z" fill="#663f3f" stroke="#000000" stroke-width="0.5"/><path d="M247.86477,70.62407l2.08646,-1.80339l4.48026,4.04848l-2.08645,1.80337z" fill="#663f3f" stroke="#000000" stroke-width="0.5"/><path d="M241.23031,74.2461l8.6439,-7.47109l2.38947,2.15919l-8.6439,7.47109z" fill="#663f3f" stroke="#000000" stroke-width="0.5"/><path d="M245.73563,96.70828c-1.04462,11.83909 -4.21492,16.18761 -8.55936,15.71427c-4.34444,-0.47334 -7.83632,-5.10993 -6.79169,-16.94903c0.55284,-6.26558 2.91744,-16.25642 5.05141,-21.41406c1.89826,-4.58794 3.47799,-4.7329 5.52322,-4.51006c2.43911,0.26575 4.88316,0.23125 5.57569,6.48226c0.54095,4.88296 -0.34114,15.4844 -0.79927,20.6766z" fill="#d87700" stroke="#929292" stroke-width="1"/></g><path d="M239.0556,79.41807c-0.5491,0.5491 -1.0982,0 -1.0982,0l-0.4065,-0.59094c-0.40005,-2.00129 -1.04672,-3.83846 -1.54497,-5.788c0,0 -0.18834,-0.75335 0.56502,-0.94169c0.75335,-0.18834 0.94169,0.56502 0.94169,0.56502c0.47803,1.96613 1.15762,3.84335 1.56119,5.8601l-0.01823,-0.20267c0,0 0.5491,0.5491 0,1.09819z" fill="#000000" stroke="none" stroke-width="0.5"/><path d="M236.95341,88.38159c-0.73728,0 -0.77455,-0.70002 -0.77644,-0.77079c-1.35313,-2.52098 -2.12289,-6.8474 -2.13559,-9.71251c0,0 0,-0.77654 0.77654,-0.77654c0.77654,0 0.77654,0.77654 0.77654,0.77654c-0.01146,2.12117 0.67855,4.56471 1.31691,6.54271c0.37534,1.16298 0.0566,1.55622 0.70791,2.57039l0.11066,0.59367c0,0 0,0.77654 -0.77654,0.77654z" fill="#000000" stroke="none" stroke-width="0.5"/><path d="M235.36703,96.6961c-0.5491,0.5491 -1.09819,0 -1.09819,0l-0.58854,-0.73374c-0.41887,-1.54328 -1.23973,-3.16367 -1.55948,-4.68445c-0.37155,-1.76713 -0.02077,-4.19042 -0.02077,-6.00247c0,0 0,-0.77654 0.77654,-0.77654c0.77654,0 0.77654,0.77654 0.77654,0.77654c0,1.66402 -0.37643,4.02265 -0.02077,5.64565c0.3297,1.50453 1.12943,3.10016 1.54668,4.63403l0.188,0.04279c0,0 0.5491,0.5491 0,1.09819z" fill="#000000" stroke="none" stroke-width="0.5"/><path d="M234.39635,105.23804c-0.5491,0.5491 -1.0982,0 -1.0982,0l-0.26627,-0.27731c-2.74161,-3.66085 -2.38962,-7.35137 -2.86845,-11.64001c0,0 -0.08576,-0.77179 0.68604,-0.85755c0.77179,-0.08576 0.85755,0.68603 0.85755,0.68603c0.44103,3.98783 0.01611,7.48338 2.56734,10.87967l0.12201,0.11096c0,0 0.5491,0.5491 0,1.09819z" fill="#000000" stroke="none" stroke-width="0.5"/><path d="M235.17289,109.89729c-0.5491,0.5491 -1.09819,0 -1.09819,0l-0.36604,-0.45484c-0.77913,-1.95157 -2.13175,-2.71868 -2.91202,-4.65924c0,0 -0.2884,-0.721 0.4326,-1.0094c0.721,-0.2884 1.00941,0.4326 1.00941,0.4326c0.73807,1.85388 2.11222,2.66335 2.91203,4.65924l0.02223,-0.06656c0,0 0.5491,0.5491 0,1.09819z" fill="#000000" stroke="none" stroke-width="0.5"/><path d="M241.54894,80.27039c-0.43075,-0.64612 0.21538,-1.07687 0.21538,-1.07687l0.36703,-0.1729c1.03928,-1.55888 2.07224,-2.87011 3.39732,-4.19519c0,0 0.5491,-0.5491 1.09819,0c0.5491,0.5491 0,1.09819 0,1.09819c-1.25369,1.25369 -2.21942,2.48266 -3.20328,3.95848l-0.79778,0.60365c0,0 -0.64612,0.43075 -1.07686,-0.21537z" fill="#000000" stroke="none" stroke-width="0.5"/><path d="M240.7724,88.22993c-0.43075,-0.64612 0.21537,-1.07687 0.21537,-1.07687l0.54722,-0.36338c1.983,-1.40758 3.97945,-4.87365 4.3592,-7.27184c0,0 0.12766,-0.76597 0.89363,-0.63831c0.76597,0.12766 0.63831,0.89363 0.63831,0.89363c-0.49933,2.8777 -2.65649,6.46594 -4.95929,8.25898l-0.61758,0.41316c0,0 -0.64612,0.43074 -1.07686,-0.21538z" fill="#000000" stroke="none" stroke-width="0.5"/><path d="M238.58848,96.30014c-0.34727,-0.69456 0.34727,-1.04183 0.34727,-1.04183l0.26962,-0.12081c1.00462,-0.75186 2.09632,-1.46373 3.11804,-2.14422c0.73454,-0.48922 2.22383,-0.83723 2.69033,-1.69399c0.39954,-0.73377 0.6077,-2.07369 0.93266,-2.83532c0,0 0.3059,-0.71376 1.01965,-0.40787c0.71375,0.3059 0.40786,1.01964 0.40786,1.01964c-0.33603,0.78029 -0.57745,2.25262 -1.00869,2.98874c-1.12033,1.91239 -4.46566,2.99065 -6.22801,4.31547l-0.50692,0.26747c0,0 -0.69456,0.34727 -1.04184,-0.34728z" fill="#000000" stroke="none" stroke-width="0.5"/><path d="M236.75928,104.49481c0,-0.61607 0.48877,-0.74338 0.69076,-0.76969c1.9515,-3.62548 5.1847,-6.83918 7.8532,-9.84125c0,0 0.5159,-0.5804 1.09629,-0.0645c0.5804,0.51591 0.06449,1.0963 0.06449,1.0963c-2.66421,2.99724 -6.03889,6.26333 -7.84537,9.9264l-1.08283,0.42927c0,0 -0.77654,0 -0.77654,-0.77654z" fill="#000000" stroke="none" stroke-width="0.5"/><path d="M238.20021,108.91892c-0.34727,-0.69456 0.34727,-1.04184 0.34727,-1.04184l0.18645,-0.04867c2.16671,-2.05142 4.97553,-2.11993 5.41029,-5.77305c0,0 0.10982,-0.76873 0.87856,-0.65891c0.76873,0.10982 0.65891,0.87855 0.65891,0.87855c-0.27494,1.71169 -1.48875,4.36328 -3.15289,5.2506c-0.88483,0.4718 -2.00607,0.64424 -2.69666,1.40101l-0.59009,0.3396c0,0 -0.69456,0.34728 -1.04183,-0.34727z" fill="#000000" stroke="none" stroke-width="0.5"/><path d="M240.0364,85.07549c-0.18834,0.75335 -0.9417,0.56502 -0.9417,0.56502l-1.07411,-0.34176c-0.83836,-1.4536 -1.29364,-2.13742 -1.05661,-3.83956c0,0 0.12767,-0.76597 0.89364,-0.63831c0.76597,0.12766 0.63831,0.89363 0.63831,0.89363c-0.23331,1.11883 0.1447,1.35812 0.49647,2.37277l0.47898,0.04651c0,0 0.75335,0.18834 0.56501,0.9417z" fill="#000000" stroke="none" stroke-width="0.5"/><path d="M240.21124,86.50395c-0.64612,-0.43075 -0.21537,-1.07686 -0.21537,-1.07686l0.33983,-0.49894c0.40777,-0.815 0.78682,-1.64465 1.14561,-2.48238c0,0 0.30589,-0.71376 1.01964,-0.40787c0.71375,0.3059 0.40786,1.01964 0.40786,1.01964c-0.37116,0.86551 -0.76306,1.72272 -1.184,2.56514l-0.43671,0.66588c0,0 -0.43075,0.64612 -1.07687,0.21537z" fill="#000000" stroke="none" stroke-width="0.5"/><path d="M237.21126,90.94782c-0.43075,0.64612 -1.07686,0.21538 -1.07686,0.21538l-0.81754,-0.63486c-0.40391,-0.70646 -0.67361,-1.52733 -0.69307,-2.34088c0,0 0,-0.77654 0.77654,-0.77654c0.77654,0 0.77654,0.77654 0.77654,0.77654c-0.01982,0.53709 0.18131,1.0896 0.47174,1.54182l0.34728,0.14168c0,0 0.64612,0.43075 0.21537,1.07686z" fill="#000000" stroke="none" stroke-width="0.5"/><path d="M238.53981,92.61926c-0.5491,-0.5491 0,-1.09819 0,-1.09819l0.59094,-0.40649c1.63899,-0.31461 2.87111,-1.58033 3.77715,-2.96958c0,0 0.43075,-0.64612 1.07686,-0.21538c0.64612,0.43075 0.21537,1.07687 0.21537,1.07687c-1.17646,1.73349 -2.68562,3.20156 -4.7648,3.63101l0.20267,-0.01823c0,0 -0.5491,0.5491 -1.09819,0z" fill="#000000" stroke="none" stroke-width="0.5"/><path d="M235.71874,100.55188c-0.08605,0.21197 -0.2781,0.4485 -0.70667,0.4485c-0.56321,0 -0.71794,-0.40848 -0.76045,-0.63292l-0.37106,-0.37107c-0.5839,-0.64892 -0.77872,-1.61806 -0.80985,-2.49045c0,0 0,-0.77654 0.77654,-0.77654c0.77654,0 0.77654,0.77654 0.77654,0.77654c-0.02662,0.47819 -0.01937,1.09351 0.35496,1.39226l0.19379,0.19379c1.38277,-0.65564 2.78412,-1.27139 4.17743,-1.90471c0,0 0.70694,-0.32133 1.02827,0.3856c0.32134,0.70694 -0.3856,1.02828 -0.3856,1.02828c-1.42572,0.64805 -2.86022,1.27714 -4.2739,1.95072z" fill="#000000" stroke="none" stroke-width="0.5"/><path d="M237.34749,105.48867l0.74777,-0.18636c0.37879,-0.12646 0.75756,-0.25293 1.13635,-0.37938c0,0 0.73669,-0.24556 0.98226,0.49113c0.24556,0.73669 -0.49113,0.98225 -0.49113,0.98225c-0.39775,0.13238 -0.79551,0.26477 -1.19326,0.39715l-0.80531,0.20191c0,0 -0.1225,0.03063 -0.28105,0.01778c-0.03479,0.05504 -0.07913,0.11064 -0.13473,0.16624c-0.5491,0.5491 -1.09819,0 -1.09819,0l0.1094,-0.00654c-0.38827,-0.12942 -0.77654,-0.25885 -1.16481,-0.38827c0,0 -0.73669,-0.24556 -0.49113,-0.98225c0.24556,-0.73669 0.98226,-0.49113 0.98226,-0.49113c0.38827,0.12942 0.77654,0.25885 1.16481,0.38827l0.09204,0.0706c0.17633,-0.2143 0.44474,-0.2814 0.44474,-0.2814z" fill="#000000" stroke="none" stroke-width="0.5"/><path d="M241.74308,75.13792l0.33983,-0.49893c0.12942,-0.25884 0.25884,-0.5177 0.38827,-0.77654c0,0 0.34728,-0.69456 1.04184,-0.34727c0.69456,0.34727 0.34727,1.04184 0.34727,1.04184c-0.12942,0.25884 -0.25885,0.5177 -0.38827,0.77654l-0.43671,0.66588c0,0 -0.34256,0.51384 -0.87493,0.31957c0.06358,0.21679 0.11593,0.65965 -0.39459,0.91491c-0.69456,0.34727 -1.04183,-0.34727 -1.04183,-0.34727l-0.38827,-0.77654c0,0 -0.34728,-0.69456 0.34727,-1.04184c0.51994,-0.25997 0.84526,0.06388 0.97598,0.24316c0.0391,-0.10595 0.08413,-0.17348 0.08413,-0.17348z" fill="#000000" stroke="none" stroke-width="0.5"/></g><g><g><path d="M300.13937,121.44012l-0.05699,-0.30534c-0.40056,-2.24558 -1.30534,-3.2842 -3.29171,-4.31466c0,0 -0.89606,-0.46489 -0.38119,-1.31957c0.51488,-0.85467 1.41094,-0.38979 1.41094,-0.38979c2.53077,1.31312 3.76305,2.87726 4.29794,5.64399l0.05699,0.30535c0,0 0.17811,0.9542 -0.83988,1.14421c-1.01799,0.19001 -1.1961,-0.76418 -1.1961,-0.76418z" data-paper-data="{&quot;index&quot;:null}" fill="#bdc29f" stroke="none" stroke-width="0.5"/><path d="M297.847,126.44973l-0.06243,-0.62404c-0.93205,-1.61904 -0.85163,-3.4921 -1.78329,-5.03882c0,0 -0.49089,-0.84514 0.41854,-1.32715c0.90943,-0.48202 1.40031,0.36313 1.40031,0.36313c0.91263,1.61407 0.83625,3.42548 1.7833,5.03882l0.27954,1.20802c0,0 0.17811,0.9542 -0.83988,1.14421c-1.01799,0.19001 -1.1961,-0.76418 -1.1961,-0.76418z" data-paper-data="{&quot;index&quot;:null}" fill="#bdc29f" stroke="none" stroke-width="0.5"/><path d="M293.96173,128.04139l0.06169,-0.40399c-0.36872,-1.9754 -0.77378,-3.92177 -0.93269,-5.9278c0,0 -0.07593,-0.96836 0.95472,-1.06249c1.03066,-0.09413 1.10659,0.87423 1.10659,0.87423c0.15051,1.94062 0.55065,3.82504 0.90736,5.73602l-0.03609,0.87818c0,0 -0.07412,0.97179 -1.10489,0.9247c-1.0308,-0.04709 -0.95668,-1.01888 -0.95668,-1.01888z" data-paper-data="{&quot;index&quot;:null}" fill="#bdc29f" stroke="none" stroke-width="0.5"/><path d="M289.74772,127.24807l0.09778,-1.28217c0.15571,-1.87763 -0.18441,-3.0279 0.82108,-4.79637c0,0 0.49685,-0.86381 1.40303,-0.41611c0.90618,0.4477 0.40932,1.31151 0.40932,1.31151c-0.84456,1.44772 -0.45767,2.38074 -0.57186,3.99512l-0.09777,1.28217c0,0 -0.07411,0.97179 -1.10489,0.9247c-1.0308,-0.04709 -0.95668,-1.01887 -0.95668,-1.01887z" data-paper-data="{&quot;index&quot;:null}" fill="#bdc29f" stroke="none" stroke-width="0.5"/><path d="M286.83579,124.99437l0.25805,-1.09949c0.38866,-1.60861 0.25191,-2.64641 1.35721,-4.05826c0,0 0.54481,-0.68892 1.26406,-0.19199c0.71925,0.49694 0.17444,1.18587 0.17444,1.18587c-0.92327,1.1532 -0.7168,2.00836 -1.03401,3.39378l-0.25806,1.09949c0,0 -0.19559,0.83334 -1.07643,0.66863c-0.88084,-0.16471 -0.68526,-0.99804 -0.68526,-0.99804z" data-paper-data="{&quot;index&quot;:null}" fill="#bdc29f" stroke="none" stroke-width="0.5"/><path d="M290.60733,113.44197l-0.25392,-1.80638l4.12541,-0.60282l0.25393,1.80638z" fill="#663f3f" stroke="#000000" stroke-width="0.5"/><path d="M288.70786,114.90463l-0.25392,-1.80638l4.12541,-0.60282l0.25392,1.80639z" fill="#663f3f" stroke="#000000" stroke-width="0.5"/><path d="M292.93369,111.5219l-0.25392,-1.80638l4.12541,-0.60283l0.25392,1.80639z" fill="#663f3f" stroke="#000000" stroke-width="0.5"/><path d="M293.3055,114.16698l-0.25392,-1.80638l4.12541,-0.60283l0.25392,1.80638z" fill="#663f3f" stroke="#000000" stroke-width="0.5"/><path d="M288.32696,112.19506l-0.25392,-1.80638l4.12542,-0.60283l0.25392,1.80639z" fill="#663f3f" stroke="#000000" stroke-width="0.5"/><path d="M292.01428,116.46248l-1.05196,-7.48356l2.20023,-0.3215l1.05195,7.48355z" fill="#663f3f" stroke="#000000" stroke-width="0.5"/><path d="M292.55746,113.84688c2.52469,-0.60408 4.54679,0.14609 5.56477,3.90762c0.85179,3.14745 -0.94367,3.59822 -3.46837,4.20231c-2.52469,0.60408 -5.06605,1.18742 -5.67432,-2.01474c-0.63452,-3.34031 1.05324,-5.49111 3.57792,-6.0952z" data-paper-data="{&quot;index&quot;:null}" fill="#d87700" stroke="#000000" stroke-width="0"/><path d="M296.59328,117.69731c0.32862,1.76053 -0.8999,3.46676 -2.74397,3.81097c-1.84407,0.34421 -3.60539,-0.80395 -3.934,-2.56448c-0.32862,-1.76053 0.89991,-3.46676 2.74397,-3.81097c1.84407,-0.34421 3.60539,0.80394 3.934,2.56447z" fill="#cbc700" stroke="#000000" stroke-width="0"/><path d="M277.6939,73.45841l-2.06005,-1.70738l3.99045,-4.2425l2.06005,1.70738z" fill="#663f3f" stroke="#000000" stroke-width="0.5"/><path d="M277.02301,76.67725l-2.06005,-1.70738l3.99043,-4.24249l2.06006,1.70737z" fill="#663f3f" stroke="#000000" stroke-width="0.5"/><path d="M278.3889,69.37871l-2.06005,-1.70736l3.99045,-4.2425l2.06005,1.70738z" fill="#663f3f" stroke="#000000" stroke-width="0.5"/><path d="M281.40542,71.87884l-2.06006,-1.70739l3.99045,-4.24251l2.06005,1.70738z" fill="#663f3f" stroke="#000000" stroke-width="0.5"/><path d="M274.17215,74.26903l-2.06005,-1.70738l3.99044,-4.24251l2.06006,1.70739z" fill="#663f3f" stroke="#000000" stroke-width="0.5"/><path d="M282.23011,75.45641l-8.53451,-7.07345l2.12822,-2.26268l8.53451,7.07344z" fill="#663f3f" stroke="#000000" stroke-width="0.5"/><path d="M279.20005,77.0848c-0.19056,-6.26564 2.10055,-6.50232 4.34676,-7.03575c1.88349,-0.44728 3.3808,-0.47884 5.77204,3.85312c2.68818,4.86988 6.24034,14.49934 7.59793,20.64137c2.56522,11.60564 -0.07965,16.58316 -4.08049,17.53325c-4.00084,0.9501 -7.54999,-3.00385 -10.11521,-14.60949c-1.12502,-5.08983 -3.37219,-15.48812 -3.52103,-20.38251z" data-paper-data="{&quot;index&quot;:null}" fill="#d87700" stroke="#929292" stroke-width="1"/></g><path d="M284.62862,79.45483c-0.51137,0.58438 -1.09576,0.07301 -1.09576,0.07301l-0.61984,-0.54239c-1.64438,-1.43895 -2.40204,-2.55344 -2.86967,-4.72406c0,0 -0.16068,-0.75974 0.59905,-0.92042c0.75973,-0.16068 0.92042,0.59906 0.92042,0.59906c0.38514,1.86062 0.97773,2.65574 2.37295,3.87665l0.61983,0.54239c0,0 0.58438,0.51138 0.07301,1.09576z" fill="#000000" stroke="none" stroke-width="0.5"/><path d="M285.29845,79.01337c-0.39269,-0.66993 0.27725,-1.06261 0.27725,-1.06261l0.05108,0.15008c0.81444,-1.94192 1.6005,-3.84981 0.90698,-5.94429c0,0 -0.238,-0.73916 0.50117,-0.97718c0.73917,-0.238 0.97717,0.50116 0.97717,0.50116c0.78614,2.49701 0.02178,4.69654 -0.95309,7.02098l-0.69793,0.58911c0,0 -0.66994,0.39269 -1.06262,-0.27725z" fill="#000000" stroke="none" stroke-width="0.5"/><path d="M284.98672,84.32849c0.05163,0.77483 -0.7232,0.82645 -0.7232,0.82645l-1.14412,-0.15172c-1.37324,-1.20168 -2.4124,-2.49165 -3.33517,-4.06593c0,0 -0.39268,-0.66994 0.27725,-1.06262c0.66994,-0.39269 1.06262,0.27725 1.06262,0.27725c0.83711,1.42813 1.77236,2.59246 3.01806,3.68252l0.01812,-0.22916c0,0 0.77482,-0.05163 0.82645,0.7232z" fill="#000000" stroke="none" stroke-width="0.5"/><path d="M287.53082,81.62963c-0.77483,0.05163 -0.82645,-0.7232 -0.82645,-0.7232l0.04581,-0.54566c0.22386,-0.53375 0.44771,-1.06751 0.67157,-1.60128c0,0 0.30034,-0.71611 1.01645,-0.41577c0.71611,0.30034 0.41577,1.01644 0.41577,1.01644c-0.1743,0.4156 -0.34861,0.83121 -0.52292,1.24682c0.64796,-1.17539 1.37671,-2.29423 2.21156,-3.38726c0,0 0.47137,-0.61711 1.08848,-0.14574c0.61711,0.47137 0.14574,1.08848 0.14574,1.08848c-1.40109,1.83414 -2.48144,3.73589 -3.38793,5.89826l-0.31252,0.41765c0,0 -0.51137,0.58438 -1.09576,0.07301c-0.58438,-0.51138 -0.07301,-1.09576 -0.07301,-1.09576l0.04908,0.00442c0.27366,-0.65221 0.56315,-1.28359 0.87182,-1.8982c-0.08238,0.03566 -0.18058,0.05998 -0.29768,0.06777z" fill="#000000" stroke="none" stroke-width="0.5"/><path d="M290.32486,93.77893c-0.42359,0.65084 -1.07443,0.22724 -1.07443,0.22724l-0.85861,-0.56116c-0.81939,-0.73265 -1.87124,-1.31106 -2.80878,-1.91841c0,0 -0.46798,-0.30459 -0.35199,-0.79404c-0.00788,0.00084 -0.01214,0.00113 -0.01214,0.00113l-0.92228,0.04741c-1.98327,-0.6202 -3.58892,-1.34076 -3.79107,-3.62468c0,0 -0.05163,-0.77482 0.7232,-0.82645c0.77483,-0.05163 0.82645,0.7232 0.82645,0.7232c0.04577,1.43817 1.24093,1.7792 2.43309,2.18672l0.62736,-0.05584c0,0 0.77483,-0.05163 0.82645,0.7232c0.00439,0.06601 0.0028,0.12676 -0.00381,0.18269c0.26946,-0.00979 0.49193,0.135 0.49193,0.135c0.97642,0.63815 2.02481,1.23069 2.89892,1.98174l0.76847,0.49783c0,0 0.65083,0.42359 0.22724,1.07443z" fill="#000000" stroke="none" stroke-width="0.5"/><path d="M289.31418,89.64149c-0.39269,-0.66993 0.27725,-1.06262 0.27725,-1.06262l0.12991,0.0067c1.20533,-1.73086 1.9234,-3.01393 1.26719,-5.0519c0,0 -0.238,-0.73916 0.50117,-0.97718c0.73917,-0.238 0.97717,0.50116 0.97717,0.50116c0.81585,2.53378 0.00784,4.29109 -1.47096,6.41535l-0.6191,0.44573c0,0 -0.66994,0.39269 -1.06262,-0.27725z" fill="#000000" stroke="none" stroke-width="0.5"/><path d="M288.3696,97.139c0.05163,0.77483 -0.7232,0.82645 -0.7232,0.82645l-0.38317,0.00229c-3.62449,-0.65453 -4.81678,-2.1223 -5.05326,-5.67162c0,0 -0.05163,-0.77482 0.7232,-0.82645c0.77483,-0.05163 0.82645,0.7232 0.82645,0.7232c0.19194,2.88089 0.81991,3.71326 3.7793,4.24644l0.00424,-0.02352c0,0 0.77483,-0.05163 0.82645,0.7232z" fill="#000000" stroke="none" stroke-width="0.5"/><path d="M292.45033,97.06167c-0.05163,-0.77483 0.7232,-0.82645 0.7232,-0.82645l0.72616,-0.00844c1.64403,-1.56905 1.15545,-2.70841 0.54939,-4.55736c0,0 -0.238,-0.73916 0.50117,-0.97718c0.73917,-0.238 0.97717,0.50117 0.97717,0.50117c0.85752,2.72355 1.02096,4.45696 -1.43975,6.47084l-1.21089,0.12062c0,0 -0.77482,0.05163 -0.82645,-0.7232z" fill="#000000" stroke="none" stroke-width="0.5"/><path d="M293.80203,107.63015c0.47275,0.61606 -0.14331,1.0888 -0.14331,1.0888l-0.79004,0.54924c-0.98037,0.29471 -1.70817,0.13164 -2.70455,0.20343c0,0 -0.77483,0.05163 -0.82645,-0.7232c-0.01952,-0.29292 0.07909,-0.4825 0.20929,-0.60498c-3.26893,-0.43834 -5.55522,-3.83906 -5.7877,-7.19509c0,0 -0.05163,-0.77483 0.7232,-0.82645c0.77483,-0.05163 0.82645,0.7232 0.82645,0.7232c0.19626,3.0826 2.62491,6.58648 6.06031,5.64287l-0.20101,0.03166c0,0 0.51138,-0.58438 1.09577,-0.07301c0.58438,0.51138 0.07301,1.09576 0.07301,1.09576l-0.47158,0.3729c0.17295,-0.0227 0.34781,-0.06164 0.52726,-0.12543l0.32056,-0.30302c0,0 0.61605,-0.47275 1.0888,0.14331z" fill="#000000" stroke="none" stroke-width="0.5"/><path d="M293.58314,104.8022c0.51137,-0.58438 1.09576,-0.07301 1.09576,-0.07301l0.57712,0.50762c0.40998,0.86568 1.43124,-2.98777 1.36526,-3.97803c0,0 -0.05163,-0.77482 0.7232,-0.82645c0.77483,-0.05163 0.82645,0.7232 0.82645,0.7232c0.13073,1.96211 -0.18905,3.18323 -1.3782,4.82178c-0.30503,0.4203 -0.52203,1.06545 -1.03114,1.1679c-0.51987,0.10461 -0.96193,-0.44671 -1.44289,-0.67006l-0.66255,-0.57718c0,0 -0.58438,-0.51138 -0.07301,-1.09576z" fill="#000000" stroke="none" stroke-width="0.5"/><path d="M292.7626,102.91675c-0.06615,-0.04305 -0.1212,-0.08846 -0.16673,-0.13528c-0.1268,0.50506 -0.70108,0.54332 -0.70108,0.54332l-0.38741,0.02581c-2.37314,0.0909 -2.28616,-1.01351 -3.81716,-2.3084c0,0 -0.58438,-0.51138 -0.07301,-1.09576c0.51137,-0.58438 1.09576,-0.07301 1.09576,-0.07301c1.14385,1.02678 1.07192,2.10613 2.69117,1.92754l0.38741,-0.02581c0,0 0.41259,-0.02749 0.65568,0.25874c0.03908,-0.11616 0.08814,-0.19155 0.08814,-0.19155l0.50853,-0.77945c0.61203,-1.19476 1.13739,-1.94335 2.03748,-2.97572c0,0 0.51138,-0.58438 1.09576,-0.07301c0.58438,0.51138 0.07301,1.09576 0.07301,1.09576c-0.86595,0.98563 -1.27699,1.59134 -1.86267,2.73197l-0.55045,0.84763c0,0 -0.4236,0.65083 -1.07443,0.22723z" fill="#000000" stroke="none" stroke-width="0.5"/><path d="M290.60384,92.70969c-0.02247,-0.33734 0.1117,-0.5376 0.2704,-0.6562c0.03137,-0.3055 0.0367,-0.61421 0.01376,-0.91926c0,0 -0.05163,-0.77482 0.7232,-0.82645c0.77483,-0.05163 0.82645,0.7232 0.82645,0.7232c0.03499,0.58392 -0.00097,1.17566 -0.10107,1.75202l-0.90629,0.64988c0,0 -0.77483,0.05163 -0.82645,-0.7232z" fill="#000000" stroke="none" stroke-width="0.5"/><path d="M288.77545,88.0452c-0.42359,0.65084 -1.07443,0.22724 -1.07443,0.22724l-0.75338,-0.49408c-0.68669,-0.28508 -1.38821,-0.53366 -2.08963,-0.7803c0,0 -0.73251,-0.25776 -0.47474,-0.99027c0.25777,-0.73251 0.99027,-0.47474 0.99027,-0.47474c0.77375,0.27248 1.54541,0.55336 2.30096,0.87283l0.8737,0.5649c0,0 0.65083,0.4236 0.22724,1.07443z" fill="#000000" stroke="none" stroke-width="0.5"/><path d="M289.45474,87.14385c-0.77483,0.05163 -0.82645,-0.7232 -0.82645,-0.7232l-0.0281,-0.77057c0.04736,-0.26258 0.09472,-0.52515 0.14209,-0.78773c0,0 0.13783,-0.76421 0.90204,-0.62638c0.76421,0.13783 0.62637,0.90205 0.62637,0.90205c-0.04736,0.26258 -0.09472,0.52515 -0.14209,0.78773l0.04933,0.39166c0,0 0.05163,0.77482 -0.7232,0.82645z" fill="#000000" stroke="none" stroke-width="0.5"/><path d="M286.09036,81.68452c-0.30034,0.71611 -1.01644,0.41578 -1.01644,0.41578l-0.86373,-0.36565c-0.49219,-0.32034 -1.00864,-0.61042 -1.55108,-0.83542c0,0 -0.71611,-0.30034 -0.41577,-1.01645c0.30034,-0.71611 1.01644,-0.41577 1.01644,-0.41577c0.5836,0.24706 1.14614,0.54945 1.67728,0.89514l0.73753,0.30591c0,0 0.71611,0.30034 0.41577,1.01645z" fill="#000000" stroke="none" stroke-width="0.5"/><path d="M284.23304,75.29798c-0.61606,0.47275 -1.0888,-0.14331 -1.0888,-0.14331l-0.5849,-0.97643c-0.02581,-0.38741 -0.05163,-0.77482 -0.07744,-1.16223c0,0 -0.05163,-0.77482 0.7232,-0.82645c0.77483,-0.05163 0.82644,0.7232 0.82644,0.7232c0.02581,0.38741 0.05163,0.77482 0.07744,1.16223l0.26736,0.13418c0,0 0.47275,0.61605 -0.14331,1.0888z" fill="#000000" stroke="none" stroke-width="0.5"/></g><g><g><g stroke="#929292" stroke-width="1"><path d="M277.98973,82.19123c0.14261,19.79922 -2.28436,45.11772 -15.34574,45.51049c-13.35193,0.40151 -14.47119,-24.25004 -14.61379,-44.04925c-0.14261,-19.79922 4.79014,-23.46239 14.0974,-23.5085c9.30726,-0.04612 15.71953,2.24806 15.86214,22.04727z" fill="#d87700"/><path d="M271.50635,89.45113c0.09141,12.79027 -1.46427,29.146 -9.8365,29.39973c-8.55848,0.25937 -9.27593,-15.6655 -9.36733,-28.45578c-0.09141,-12.79027 3.07044,-15.15668 9.03633,-15.18647c5.96589,-0.02979 10.07612,1.45224 10.16752,14.24252z" fill="#bdc29f"/></g><g fill="#000000" stroke="none" stroke-width="0.5"><path d="M267.54939,72.22021c-1.13004,-0.28252 -0.84752,-1.41253 -0.84752,-1.41253l0.21913,-0.86238c0.90356,-2.71067 2.30989,-4.55541 4.07817,-6.76577c0,0 0.72765,-0.90957 1.63722,-0.18191c0.90956,0.72765 0.18191,1.63721 0.18191,1.63721c-1.60477,2.00596 -2.87151,3.60002 -3.68723,6.04716l-0.16915,0.6907c0,0 -0.28251,1.13004 -1.41254,0.84752z"/><path d="M267.11685,80.8681c-1.04184,-0.52092 -0.52092,-1.56276 -0.52092,-1.56276l0.26678,-0.51347c2.21278,-3.30702 5.35929,-6.4191 7.11035,-9.96983c0,0 0.52093,-1.04184 1.56277,-0.52092c1.04184,0.52092 0.52092,1.56275 0.52092,1.56275c-1.84827,3.65488 -4.98156,6.79775 -7.25565,10.22023l-0.12148,0.26307c0,0 -0.52092,1.04184 -1.56276,0.52093z"/><path d="M266.16235,87.3587c-0.93185,-0.69889 -0.23297,-1.63074 -0.23297,-1.63074l0.86813,-1.04684c3.06774,-2.04157 6.75875,-4.42834 9.05505,-7.32973c0,0 0.72765,-0.90957 1.63721,-0.18191c0.90956,0.72765 0.18192,1.63721 0.18192,1.63721c-2.49333,3.08912 -6.29234,5.61615 -9.58193,7.8128l-0.29668,0.50625c0,0 -0.69888,0.93185 -1.63073,0.23296z"/><path d="M265.51407,93.47897c0.04527,0.28057 -0.01598,0.61754 -0.35295,0.95452c-0.82364,0.82364 -1.64729,0 -1.64729,0l-0.33967,-1.6639c1.25221,-1.87829 3.28285,-4.87891 5.5127,-5.6936c2.37588,-0.86804 5.6224,-0.08065 7.44577,-2.05519c0,0 0.82364,-0.82364 1.64729,0c0.82364,0.82364 0,1.64729 0,1.64729c-2.39809,2.28064 -5.25198,1.65617 -8.20474,2.56151c-0.68508,0.21005 -1.06337,1.11485 -1.51498,1.52809c-1.1637,1.06483 -1.75911,1.62146 -2.54611,2.72128z"/><path d="M263.17266,102.34593c-1.16481,0 -1.16481,-1.16481 -1.16481,-1.16481l0.05978,-0.75662c0.43277,-1.2887 0.96903,-3.14148 2.22317,-3.91228c0.95477,-0.5868 2.24973,-0.44192 3.26401,-0.86145c1.89351,-0.7832 3.52484,-2.986 5.00585,-4.13142c1.26376,-0.97741 2.55041,-0.98661 3.7661,-2.22759c0,0 0.82364,-0.82364 1.64729,0c0.82364,0.82364 0,1.64729 0,1.64729c-1.22479,1.20486 -2.85058,1.47264 -3.99931,2.43166c-1.56571,1.30715 -3.44913,3.51963 -5.47746,4.41053c-0.92423,0.40595 -2.05465,0.22222 -2.94831,0.69163c-0.68995,0.36241 -1.06038,2.05024 -1.27126,2.68832l0.05978,0.01993c0,0 0,1.16481 -1.16481,1.16481z"/><path d="M264.4845,105.11093c-0.82364,-0.82364 0,-1.64729 0,-1.64729l0.19414,-0.19414c3.24831,-3.12592 8.64349,-3.95106 10.84751,-8.43335c0,0 0.52092,-1.04184 1.56276,-0.52092c1.04184,0.52092 0.52092,1.56275 0.52092,1.56275c-1.4337,2.82904 -4.33199,5.00976 -7.00488,6.66625c-1.69218,1.0487 -2.97034,0.98992 -4.27901,2.37256l-0.19414,0.19414c0,0 -0.82365,0.82364 -1.64729,0z"/><path d="M277.50388,102.25756c0.28251,1.13003 -0.84752,1.41255 -0.84752,1.41255l-0.6002,0.13473c-1.69619,0.72624 -2.79854,1.82865 -4.3673,2.67046c-1.26442,0.67849 -2.22778,0.4814 -3.40496,1.30493c0,0 -0.96918,0.64612 -1.6153,-0.32306c-0.64612,-0.96918 0.32306,-1.61531 0.32306,-1.61531c1.26455,-0.81452 2.36748,-0.73299 3.58391,-1.41296c1.60023,-0.8945 2.81055,-2.01362 4.56291,-2.76532l0.95288,-0.25354c0,0 1.13003,-0.28251 1.41255,0.84752z"/><path d="M265.4854,114.21661c-0.99882,-0.59928 -0.39953,-1.59811 -0.39953,-1.59811l0.75757,-1.19504c0.78415,-0.75899 1.80916,-1.22827 2.77192,-1.74215c1.62971,-0.86987 2.54145,-2.77398 4.17742,-3.54532c0.96545,-0.4552 2.09234,-0.42408 3.13425,-0.65587c0,0 1.13708,-0.25269 1.38976,0.88438c0.25268,1.13707 -0.88439,1.38976 -0.88439,1.38976c-0.89083,0.19774 -1.84978,0.15251 -2.68981,0.50894c-1.43308,0.60807 -2.50185,2.64308 -3.97625,3.44355c-0.77721,0.42195 -1.66509,0.72419 -2.2756,1.36401l-0.40723,0.74631c0,0 -0.59928,0.99881 -1.5981,0.39953z"/><path d="M265.27384,120.96058c-1.14219,-0.22844 -0.91375,-1.37064 -0.91375,-1.37064l0.29449,-1.26316c1.19932,-2.37162 2.74704,-2.54826 4.53241,-4.22652c0.17967,-0.1689 1.79853,-2.44953 2.1836,-2.75898c1.12656,-0.90536 3.20264,-1.72172 4.41635,-2.42993c0,0 1.00614,-0.58692 1.59305,0.41922c0.58691,1.00614 -0.41922,1.59305 -0.41922,1.59305c-1.10548,0.64468 -3.07722,1.39632 -4.12559,2.22931c-0.8859,0.7039 -1.25799,1.90713 -2.08738,2.67679c-1.65535,1.53611 -2.98112,1.45348 -4.00953,3.53889l-0.09378,0.6782c0,0 -0.22843,1.14219 -1.37063,0.91376z"/><path d="M263.51383,124.91301c-0.82364,-0.82364 0,-1.64729 0,-1.64729l0.691,-0.60646c1.12552,-0.55048 2.68737,-0.64235 3.67132,-1.41708c1.97489,-1.55495 3.79236,-3.53105 4.9321,-5.82741c0,0 0.52092,-1.04184 1.56276,-0.52092c1.04184,0.52092 0.52092,1.56275 0.52092,1.56275c-1.26551,2.51488 -3.28933,4.95916 -5.5512,6.59724c-1.36478,0.98839 -2.68486,0.96416 -4.09408,1.68909l-0.08554,0.17008c0,0 -0.82365,0.82364 -1.64729,0z"/></g><g data-paper-data="{&quot;index&quot;:null}" fill="#000000" stroke="none" stroke-width="0.5"><path d="M257.21415,71.17855l-0.16914,-0.6907c-0.81571,-2.44714 -2.08246,-4.04119 -3.68723,-6.04715c0,0 -0.72766,-0.90957 0.18191,-1.63722c0.90956,-0.72765 1.63721,0.18191 1.63721,0.18191c1.76828,2.21036 3.17461,4.0551 4.07817,6.76577l0.21914,0.86238c0,0 0.2825,1.13003 -0.84753,1.41254c-1.13004,0.28252 -1.41255,-0.84753 -1.41255,-0.84753z"/><path d="M257.49647,80.15304l-0.12147,-0.26307c-2.2741,-3.42248 -5.40738,-6.56535 -7.25565,-10.22023c0,0 -0.52092,-1.04184 0.52092,-1.56276c1.04184,-0.52092 1.56277,0.52092 1.56277,0.52092c1.75105,3.55074 4.89756,6.66282 7.11034,9.96983l0.2668,0.51347c0,0 0.52092,1.04184 -0.52092,1.56276c-1.04184,0.52092 -1.56277,-0.52092 -1.56277,-0.52092z"/><path d="M258.38301,86.9316l-0.29668,-0.50625c-3.28959,-2.19666 -7.0886,-4.72368 -9.58193,-7.8128c0,0 -0.72766,-0.90956 0.18191,-1.63721c0.90956,-0.72765 1.63721,0.18192 1.63721,0.18192c2.2963,2.90139 5.98729,5.28817 9.05504,7.32974l0.86813,1.04683c0,0 0.69889,0.93185 -0.23296,1.63073c-0.93185,0.69889 -1.63074,-0.23296 -1.63074,-0.23296z"/><path d="M258.11591,90.56356c-0.45162,-0.41325 -0.82989,-1.31804 -1.51497,-1.52809c-2.95276,-0.90534 -5.80666,-0.28086 -8.20475,-2.56151c0,0 -0.82364,-0.82364 0,-1.64729c0.82364,-0.82364 1.64729,0 1.64729,0c1.82337,1.97454 5.06989,1.18715 7.44577,2.05519c2.22985,0.81469 4.26049,3.81531 5.51269,5.69361l-0.33967,1.6639c0,0 -0.82364,0.82364 -1.64729,0c-0.33697,-0.33697 -0.39822,-0.67396 -0.35295,-0.95453c-0.78701,-1.09982 -1.38241,-1.65645 -2.54611,-2.72128z"/><path d="M261.83861,100.98699l0.05978,-0.01993c-0.21089,-0.63809 -0.5813,-2.32591 -1.27125,-2.68832c-0.89366,-0.46941 -2.02408,-0.28569 -2.94831,-0.69163c-2.02833,-0.8909 -3.91176,-3.10339 -5.47746,-4.41053c-1.14873,-0.95902 -2.77452,-1.22679 -3.99931,-2.43166c0,0 -0.82364,-0.82365 0,-1.64729c0.82364,-0.82364 1.64729,0 1.64729,0c1.21568,1.24098 2.50232,1.25017 3.7661,2.22759c1.481,1.14542 3.11233,3.34822 5.00584,4.13142c1.01428,0.41953 2.30924,0.27465 3.26401,0.86145c1.25414,0.7708 1.7904,2.62358 2.22318,3.91228l0.05977,0.75662c0,0 0,1.16481 -1.16481,1.16481c-1.16481,0 -1.16481,-1.16481 -1.16481,-1.16481z"/><path d="M260.04429,104.9168l-0.19414,-0.19413c-1.30867,-1.38264 -2.58683,-1.32386 -4.27902,-2.37257c-2.67289,-1.65648 -5.57118,-3.8372 -7.00487,-6.66624c0,0 -0.52093,-1.04184 0.52092,-1.56276c1.04184,-0.52092 1.56276,0.52092 1.56276,0.52092c2.20401,4.48229 7.59919,5.30744 10.84751,8.43336l0.19413,0.19413c0,0 0.82364,0.82364 0,1.64729c-0.82364,0.82364 -1.64729,0 -1.64729,0z"/><path d="M250.08475,101.21591l0.95288,0.25353c1.75236,0.75171 2.96269,1.87083 4.56292,2.76532c1.21643,0.67997 2.31936,0.59844 3.5839,1.41296c0,0 0.96918,0.64612 0.32306,1.6153c-0.64612,0.96918 -1.6153,0.32306 -1.6153,0.32306c-1.17717,-0.82354 -2.14053,-0.62644 -3.40495,-1.30493c-1.56876,-0.84181 -2.67111,-1.94422 -4.3673,-2.67046l-0.6002,-0.13474c0,0 -1.13003,-0.28251 -0.84753,-1.41254c0.28251,-1.13004 1.41254,-0.84752 1.41254,-0.84752z"/><path d="M259.09259,113.62294l-0.40724,-0.74631c-0.61051,-0.63983 -1.49839,-0.94206 -2.2756,-1.36401c-1.4744,-0.80046 -2.54317,-2.83548 -3.97625,-3.44355c-0.84002,-0.35643 -1.79898,-0.31118 -2.68981,-0.50893c0,0 -1.13708,-0.25269 -0.88439,-1.38976c0.25268,-1.13707 1.38976,-0.88438 1.38976,-0.88438c1.04191,0.2318 2.1688,0.20067 3.13425,0.65587c1.63596,0.77134 2.54771,2.67545 4.17742,3.54532c0.96274,0.51387 1.98776,0.98316 2.77192,1.74215l0.75757,1.19504c0,0 0.5993,0.99882 -0.39953,1.59811c-0.99882,0.59929 -1.59811,-0.39953 -1.59811,-0.39953z"/><path d="M259.53161,119.85269l-0.09379,-0.67819c-1.02841,-2.0854 -2.35418,-2.00278 -4.00952,-3.53888c-0.82939,-0.76966 -1.20149,-1.97292 -2.08738,-2.6768c-1.04837,-0.83299 -3.02013,-1.58464 -4.1256,-2.22931c0,0 -1.00613,-0.58692 -0.41922,-1.59306c0.58692,-1.00614 1.59305,-0.41922 1.59305,-0.41922c1.21372,0.70821 3.28979,1.52457 4.41635,2.42993c0.38506,0.30945 2.0039,2.59009 2.18359,2.75899c1.78537,1.67826 3.3331,1.85491 4.53242,4.22652l0.29449,1.26315c0,0 0.22844,1.14219 -0.91375,1.37064c-1.14219,0.22844 -1.37063,-0.91376 -1.37063,-0.91376z"/><path d="M261.01497,124.71887l-0.08555,-0.17007c-1.40922,-0.72493 -2.72929,-0.70069 -4.09407,-1.68908c-2.26186,-1.63808 -4.2857,-4.08236 -5.5512,-6.59724c0,0 -0.52093,-1.04184 0.52092,-1.56276c1.04184,-0.52092 1.56277,0.52092 1.56277,0.52092c1.13974,2.29637 2.95721,4.27246 4.9321,5.82741c0.98396,0.77473 2.54581,0.8666 3.67133,1.41708l0.691,0.60646c0,0 0.82364,0.82364 0,1.64729c-0.82364,0.82364 -1.64729,0 -1.64729,0z"/></g></g><path d="M261.34115,64.42013c0,-1.07218 0.86918,-1.94136 1.94135,-1.94136c1.07218,0 1.94135,0.86918 1.94135,1.94136c0,1.07218 -0.86917,1.94135 -1.94135,1.94135c-1.07218,0 -1.94135,-0.86917 -1.94135,-1.94135z" fill="#ff0000" stroke="none" stroke-width="0.5"/><path d="M260.56461,82.28056l1.94135,-17.08389l1.35895,0.19414l0.97067,16.88976l-2.32962,3.68857z" fill="#ff0000" stroke="none" stroke-width="NaN"/></g></g><path d="M-121.12222,461.42781v-562.85562h722.24443v562.85562z" data-paper-data="{&quot;index&quot;:null}" fill-opacity="0.62745" fill="#000000" stroke="none" stroke-width="0"/></g></g></svg>