<svg version="1.1" xmlns="http://www.w3.org/2000/svg" xmlns:xlink="http://www.w3.org/1999/xlink" width="522" height="373.99999" viewBox="0,0,522,373.99999"><g transform="translate(22.30557,10.17188)"><g data-paper-data="{&quot;isPaintingLayer&quot;:true}" fill-rule="nonzero" stroke-linejoin="miter" stroke-miterlimit="10" stroke-dasharray="" stroke-dashoffset="0" style="mix-blend-mode: normal"><path d="M483.8078,312.65623c0.41834,0.74371 0.64554,1.42761 0.77118,2.09249c0.14953,0.61129 0.22882,1.25014 0.22882,1.90751c0,0.30915 -0.01754,0.6142 -0.05167,0.91421c0.00836,0.32891 0.02238,0.66654 0.05167,1.01725c0.45049,5.39486 2.42203,10.66911 2.5,16.06854c0.05796,4.01345 1.83823,9.16177 -1,12c-0.69186,0.69186 -1.45158,1.41015 -2.26775,2.04392c0.15239,0.18477 0.30655,0.36822 0.46258,0.55025l1.42803,2.85605c0.5853,1.11171 0.91656,2.378 0.91656,3.72166c0,3.17872 -1.85392,5.92443 -4.53948,7.21487c-0.97088,0.51982 -2.05906,0.79286 -3.1976,0.78089c-0.0873,0.00282 -0.17495,0.00424 -0.26293,0.00424c-3.19362,0 -5.95017,-1.87134 -7.23293,-4.57731c-5.00132,-6.94668 -8.98357,-14.65992 -13.8088,-21.77637c-4.68567,-6.91063 -12.75951,-12.41878 -16.31143,-19.99497c-1.46666,-3.12836 -2.29272,-6.86275 -3.76278,-9.9389c-5.34833,-11.19156 -12.0441,-22.27844 -18.9306,-32.5803c-3.39066,-5.07225 -7.91947,-7.92374 -12.11031,-11.9753c-2.85,-2.75528 -5.48974,-7.04616 -8.47763,-9.39219c-3.22381,-2.53128 -6.94212,-5.7086 -10.39833,-7.78927c-3.96443,-2.38663 -8.15658,-2.01672 -12.53612,-2.63075c-6.97224,-0.97754 -12.51523,-1.5842 -20.21211,-1.84949c-5.61278,-0.19345 -11.29101,0.36288 -16.84105,-0.49609c-10.60456,-1.64125 -21.61035,-8.30636 -31.22882,-11.82634c-5.80311,-2.12371 -12.8803,-2.66024 -18.88446,-4.02215c-2.65666,-0.6026 -5.15645,0.11449 -7.74006,-0.72975c-0.03519,-0.00488 -0.07043,-0.00992 -0.10572,-0.01513c-1.95547,-0.28868 -4.55915,-2.83272 -5.57428,-4.32799c-0.68881,-1.01461 -0.46554,-3.171 -1.68796,-3.26892c-8.12909,-0.65117 -20.62476,2.24387 -28.16435,3.12943c-8.48517,0.99663 -17.09305,-0.36269 -25.67787,0.52399c-10.1858,1.05203 -20.98654,4.31054 -30.93095,4.98886c-9.78282,0.6673 -21.00255,-2.09018 -31.04555,-3.45107c-3.76739,-0.51051 -7.56584,0.78406 -11.36149,1.00073c-5.70717,0.3258 -12.18117,-0.0515 -18.13405,0.49927c-2.07806,0.19226 -5.75255,7.0254 -6.29918,8.6827c-2.5292,7.66819 -5.82673,21.55454 -11.14318,27.6173c-2.92067,3.33066 -5.96848,6.63219 -8.70356,10.19566c-2.17577,2.83477 -2.49673,7.41732 -4.04102,10.58205c-4.40511,9.0274 -8.28391,17.38469 -13.49856,25.57915c-1.16368,1.82864 -3.11925,3.01323 -4.59798,4.59798c-7.88649,8.45194 -16.04187,12.61591 -25.27264,19.04632c-5.61037,3.90834 -10.25424,11.08457 -14.73256,16.15859c-3.37432,3.82317 -5.08148,9.53481 -10.43236,11.31843c-5.36046,1.78682 -10.33927,-0.82055 -15.88381,0.42936c-2.12652,0.47938 -3.84986,1.16212 -5.62392,1.82892c-1.30372,0.92188 -2.8954,1.46354 -4.61359,1.46354c-0.15974,0.03712 -0.41646,0.07035 -0.54988,-0.0186c-3.56228,-0.24183 -6.48461,-2.81559 -7.25263,-6.20692c-1.06986,0.07776 -2.2884,0.43852 -3.60745,-0.23816c-4.28091,-2.19611 -4.88222,-10.61276 -5.37251,-14.63927c-1.6765,-13.76824 2.25604,-26.13906 3.89944,-40.00366c1.72912,-14.58771 0.9495,-29.50465 1.4452,-44.22521c0.26054,-7.73702 0.413,-15.19007 -0.90197,-23.05775c-1.50199,-8.98664 -3.58214,-17.68755 -3.48416,-26.81193c-2.47298,-0.39255 -4.31979,-2.38788 -6.23453,-6.21736c-0.61464,-1.22927 0.03259,-2.76618 0.31623,-4.11096c1.14834,-5.44444 4.64062,-10.74908 6.76134,-15.70246c0.23114,-0.53988 6.9933,-15.30732 7.7284,-19.36603c0.7668,-4.23375 -0.47652,-8.59973 -0.40027,-12.90168c0.12054,-6.80018 2.46476,-14.4917 4.27012,-21.0613c1.16045,-4.22279 2.7117,-8.3288 4.14041,-12.46852c0.16699,-0.48385 1.21257,-2.23419 1.13752,-2.45484c-1.95603,-5.75125 -5.60932,-10.9357 -6.87838,-16.87643c-3.22662,-15.10443 -10.5649,-30.04863 -9.13075,-45.42713c1.57069,-16.84256 3.26229,-33.67385 5,-50.5c0.18711,-1.81175 1.59596,-6.42225 3.2066,-6.74438l5.25448,-1.96739c0.74956,0.60623 1.65971,1.11691 2.59335,1.6138c0.65265,-0.1795 1.3387,-0.27838 2.04675,-0.28529c1.65892,-0.11188 3.36241,0.01345 4.76889,0.04692c6.93196,0.16495 14.39453,0.56787 21.30325,0.99547c17.18755,1.06378 35.81116,2.05809 52.92104,4.00955c14.38657,1.64085 28.71714,3.86353 43.15537,4.96039c11.60458,0.88159 23.26726,1.29994 34.90058,0.96946c8.79757,-0.24992 17.79125,-4.28791 26.53052,-4.48218c13.80438,-0.30687 27.97992,-2.70474 41.72429,-0.96715c8.16692,1.03248 16.17137,4.48556 24.38022,5.64462c3.45585,0.48795 7.52281,-1.31617 10.96115,-1.96543c1.65149,-0.31185 3.28713,-1.79336 4.88156,-1.26189c2.10711,0.70237 3.723,1.45645 4.89333,2.3536c0.59952,-0.05855 1.18592,-0.12611 1.74768,-0.21701c15.40372,-2.49249 27.1235,-1.64375 42.97982,-0.05142c25.99418,2.6104 53.28595,-0.00732 79.24732,-1.52202c23.97035,-1.39854 48.15691,-2.58336 72.12646,-4.27351c0.6247,-0.15662 1.27853,-0.23979 1.95179,-0.23979c0.27776,0 0.55221,0.01416 0.82268,0.04178c2.2899,-0.16542 4.57767,-0.3357 6.86292,-0.51149c0.23101,-0.02006 0.46483,-0.03029 0.70104,-0.03029c3.91615,0 7.17509,2.81388 7.86525,6.53007c0.96535,2.67955 0.31274,5.70151 -3.34015,8.14253c-0.38174,0.2551 -0.82194,0.47023 -1.30329,0.65217c-0.78116,0.34409 -1.62779,0.56689 -2.51602,0.64453c0.43394,10.09954 -1.89054,20.77461 -1.59241,30.6317c0.32618,10.78484 -0.75169,21.50813 -0.5,32.53612c0.08116,3.55598 0.3828,9.95795 0.5,13.20079c0.07876,2.17924 1.16443,4.33611 0.95107,6.54555c-0.7236,7.49323 -2.99236,24.55538 -3.45107,33.9493c-0.06632,1.35816 0.26847,6.49028 -0.0804,9.29861c-0.51333,4.13212 -1.62827,8.19849 -1.82381,12.35778c-0.16944,3.60424 1.24799,8.41018 1.90421,12.13267c0.18939,1.07432 1.64736,6.27006 1.9603,9.08215c0.37051,3.32941 0.66964,6.66637 1,10c0.22023,2.22233 0.42812,5.55719 0.21136,8.99504c1.90914,0.40586 3.56645,1.4927 4.70564,2.99423c0.23843,0.24629 0.44835,0.5209 0.6227,0.83085c0.17438,0.31 0.3253,0.67859 0.4556,1.09339c0.34243,0.8777 0.53434,1.83072 0.54402,2.82735c0.48931,4.37174 0.00907,10.1704 0.00038,11.07926c-0.09384,9.82326 -4.4852,26.77703 -5.60289,33.2888c-0.57961,3.37683 -1.01244,6.77764 -1.45362,10.17533c-1.60401,12.35302 0.18443,25.40967 1.03284,37.84846c0.51475,7.5468 -0.21552,14.97171 -0.40692,22.54462c0.1603,0.18958 0.30472,0.39493 0.43059,0.6187zM397.19443,109.2054h-9.5l-0.22677,-0.05669l-0.22963,0.04366l-35,-2l-0.63177,-0.19685l-0.66153,0.0162l-28.75053,-6.44409l-18.66421,-2.94698l-10.91647,-1.48861l-0.62899,-0.2516l-0.67631,-0.03921l-8,-2.5l-0.06625,-0.04042l-0.07738,-0.00595l-1.06352,-0.35451l-0.74439,0.86845l-1.38588,1.73235l-0.12098,0.24195l-0.83692,0.97641l-0.66164,1.10274l-0.85575,0.85575l-4.05832,6.49331l-1.65378,4.6306l0.84082,6.30618l-0.0604,0.53499l0.13058,0.52232v4l-0.05513,0.22052l0.04281,0.22324l-0.48002,8.64044l0.48251,13.99282l0.3533,4.94623l0.46907,0.78179l0.66016,0.52813l8.41244,4.67358l0.09992,0.09348l0.1309,0.03984l16.95033,10.1702l6.01443,2.40577l5.72828,0.81833l15.64565,0.94822l1.01679,0.32068l1.06265,0.08648l4.00467,1.35462l0.08256,-0.02252l0.19273,0.11564l0.24934,0.08434l1.53197,0.98444l0.17984,0.1079l7.87289,1.65745l0.05115,0.02487l0.05686,-0.00135l19.31182,4.34516l10.11381,0.45972h2.31828l0.49043,0.12261l0.50185,-0.06083l4,0.5l0.27843,0.10778l0.29822,-0.0142l1.72323,0.34465h0.11118l24.22021,-3.63303l-2.34643,-4.9275l-0.07389,-0.36557l-0.20997,-0.30825l-3.5,-9.5l-0.12703,-1.17147l-0.35242,-1.1244l-0.4953,-8.42003l-0.06835,-0.10253l0.4462,-2.00792l0.38083,-2.02134l0.10322,-0.06731l1.53247,-3.06493l2.08713,-9.18335v-2.65927l-0.40331,-3.62981l-1.90618,-8.57783l0.00825,-0.31357l-0.11835,-0.2905l-0.36438,-2.55065l-0.64384,-1.6096l-0.07435,-0.54527l-0.25897,-0.48557l-0.5,-2v-0.57402l-0.67154,-1.34307l-0.45689,-0.68534c-0.52021,0.10632 -1.0588,0.16215 -1.61043,0.16215zM187.26843,98.7054l-0.07477,0.04984l-0.2243,-0.04984h-0.22291l-1.7833,-0.44582l-0.24379,-0.05418h-2.47291l-1.24761,-0.3119l-1.28222,-0.09863l-0.2684,-0.08947h-1.70178l-0.64868,-0.16217l-0.66651,0.05332l-3,-0.5l-0.12145,-0.05281l-0.13229,0.0063l-4.22323,-0.84465h-1.70784l-0.77302,-0.19326l-0.79591,0.0379l-2.5,-0.5l-0.72758,-0.34465h-0.20349l-0.95544,-0.23886h-0.98485l-1.69005,-0.42251l-2.03177,-0.33863h-4.83984l-3.50578,0.43822l-0.50185,-0.06083l-0.49043,0.12261h-9l-0.39409,-0.09852l-0.40194,0.05882l-4.60298,-0.4603h-0.92879l-0.2346,0.1564l-0.47607,0.17003l-0.38382,0.32899l-2,1l-0.5621,0.12491l-0.48579,0.30914l-0.96063,0.32021l-0.49148,0.24574l-0.5621,0.12491l-0.48579,0.30914l-0.48363,0.16121l-0.60859,0.40572l-0.47607,0.17003l-0.38382,0.32899l-0.83884,0.41942l-0.08202,0.08202l-1.57623,0.94574l-1.5508,0.98688l-0.21147,0.07049l-0.19703,0.11822l-0.08669,-0.02364l-0.09128,0.03043l-0.88923,0.53354l-0.97641,0.83692l-2.17142,1.08571l-0.24944,0.41573l-0.08202,0.08202l-0.29619,0.59239l-2.39403,5.74566l-0.02483,0.03337l-0.00662,0.04106l-1.5,3.5l-0.44783,0.58925l-0.24893,0.697l-0.23135,0.34702l-0.16392,0.65566l-0.4146,0.77738l-0.19112,0.86005l-0.74574,1.49148l-1.32021,3.96063l-0.30914,0.48579l-0.12491,0.5621l-0.65542,1.31084v1.86793l1.36298,7.26921l-0.04464,0.74767l0.18166,0.72664v0.01515l0.22881,0.91524l0.75912,2.65692l1.93405,3.8681l0.07802,0.04458l0.05573,0.22291l0.09969,0.19938l0.39876,1.79441l0.00155,0.00621l1.42971,2.85941l1.81567,2.90507l1.35575,1.35575l0.81201,1.35335l0.53114,0.30351l0.24931,0.99724l0.52887,0.88144l-0.00769,0.02818l0.47646,0.59558l0.1475,0.32182l0.26195,0.23814l0.73204,1.09805l2.68562,3.13322l0.35317,0.70633h1.07278l0.67027,0.16757l0.68899,-0.05125l14.5,2.5l0.10023,0.04425l0.10944,-0.00521l4.78226,0.95645l6.61294,0.94471l4.634,0.4634l9.80137,0.49007l0.01035,0.00314l0.01062,-0.00207l9.5,0.5l0.56165,0.17224l0.58681,-0.02794l1.5552,0.31104l0.09257,-0.02057l1.7833,-0.44582h0.22291l0.2243,-0.04984l0.07477,0.04984h24.6798l0.2684,-0.08947l0.31276,-0.02406l0.27678,-0.14762l0.90288,-0.22572l0.53741,-0.89568v-19.61746l0.3119,-1.24761l0.09863,-1.28222l0.5,-1.5l0.18225,-0.2864l0.05405,-0.33514l1.44506,-3.37182l-0.34171,-1.87939l-3.75487,-10.3259l-2.98596,-7.96255l-0.01725,-0.15097l-0.08158,-0.1282l-0.82021,-2.46063l-0.14644,-0.29287l-1.75313,-3.06797l-2.84716,-4.27074l-0.17003,-0.47607l-0.32899,-0.38382l-2.5,-5l-0.12491,-0.5621l-0.30914,-0.48579l-0.82021,-2.46063l-0.023,-0.046l-0.28432,-0.42647l-0.43986,-0.43986l-0.42375,-0.70625c-0.90445,0.35467 -1.88918,0.5494 -2.91939,0.5494zM268.06971,175.48984h-1.5015c-2.05173,0 -6.81104,-0.05045 -8.30354,0.26751c-1.09459,0.23319 -1.9411,1.14815 -3.003,1.5015c-1.64589,0.54767 -7.54416,-0.3575 -9.00901,0c-4.19236,1.02316 -6.66084,3.63246 -10.93632,4.31192c-4.376,0.69544 -6.50194,-5.63923 -11.85524,2.85401c-1.09216,1.73276 -1.46506,3.71017 -1.54922,5.7858c-0.35451,-0.15491 -0.70995,-0.30398 -1.06639,-0.44602c-4.89614,-1.95122 -10.14702,-2.54598 -15.01502,-4.5045c-5.99026,-2.41005 -10.61629,-5.07716 -17.34035,-5.26571c0,0 -10,0 -10,10c0,10 10,10 10,10c3.483,-0.32098 6.58531,2.50734 9.68668,3.7433c4.89614,1.95122 10.14702,2.54598 15.01502,4.5045c3.87949,1.56083 7.62373,3.83999 11.36671,5.71148c4.55392,2.27696 10.48203,5.70547 15.73545,2.56524c3.01847,-1.80429 5.31583,-11.04427 4.97162,-16.90777c0.2499,-0.07775 0.49926,-0.15706 0.74804,-0.23791c1.74754,-0.56788 3.06959,-2.13657 4.83407,-2.64936c1.80281,-0.52393 7.36498,0.35025 9.00901,0c1.09459,-0.23319 1.9411,-1.14815 3.003,-1.5015c1.17598,-0.3913 2.46911,0.26751 3.70848,0.26751h1.5015c0,0 10,0 10,-10c0,-10 -10,-10 -10,-10zM239.54118,169.96432c5.52285,0 10,-4.47715 10,-10c0,-5.52285 -4.47715,-10 -10,-10c-5.52285,0 -10,4.47715 -10,10c0,5.52285 4.47715,10 10,10zM468.95996,325.83158c0.38473,0.45062 0.76052,0.90317 1.12506,1.35834c-0.02671,-0.1245 -0.05345,-0.249 -0.08015,-0.37351c-0.34021,-0.30407 -0.68811,-0.63235 -1.04491,-0.98484z" fill="#418a00" stroke="none" stroke-width="0.5" stroke-linecap="butt"/><path d="M122.69443,226.65623l-123,-228" fill="none" stroke="#000000" stroke-width="2" stroke-linecap="round"/><path d="M480.69443,1.65623l-86,248" fill="none" stroke="#000000" stroke-width="2" stroke-linecap="round"/><path d="M498.69443,64.65623l-30,-32h-451l-39,46" fill="none" stroke="#000000" stroke-width="2" stroke-linecap="round"/></g></g></svg>