<svg version="1.1" xmlns="http://www.w3.org/2000/svg" xmlns:xlink="http://www.w3.org/1999/xlink" width="895.11288" height="565.01888" viewBox="0,0,895.11288,565.01888"><g transform="translate(209.05794,101.4278)"><g data-paper-data="{&quot;isPaintingLayer&quot;:true}" fill-rule="nonzero" stroke-linecap="butt" stroke-linejoin="miter" stroke-miterlimit="10" stroke-dasharray="" stroke-dashoffset="0" style="mix-blend-mode: normal"><path d="M686.05494,463.59108l-895.11288,-1.42026l263.76443,-316.09167l544.06246,-2.08152z" fill="#5c5c5c" stroke="none" stroke-width="0"/><path d="M-175.87181,421.41875l56.73068,-159.43509l113.67199,-123.4385l4.08546,-210.84219l62.88212,-17.77761l-5.39171,238.3616z" fill="#393939" stroke="none" stroke-width="0"/><path d="M-121.29794,265.33033l3.9905,-65.84329l59.31326,-56.86466l55.86703,-5.98575z" fill="#463b5b" stroke="none" stroke-width="NaN"/><path d="M56.03968,147.61297l-1.66667,-237.03311l546.61638,-1.94792l-1.66667,236.6477z" fill="#181818" stroke="none" stroke-width="0"/><path d="M-56.80557,144.53273l-64.19443,-204.65623l119.19443,-3l-4,202.65623z" fill="#7f7396" stroke="none" stroke-width="0"/><path d="M284.19443,147.35643v-158h79v158z" fill="#999999" stroke="none" stroke-width="0"/><path d="M342.69443,80.35643c1.933,0 3.5,1.567 3.5,3.5c0,1.933 -1.567,3.5 -3.5,3.5c-1.933,0 -3.5,-1.567 -3.5,-3.5c0,-1.933 1.567,-3.5 3.5,-3.5z" fill="#000000" stroke="none" stroke-width="0"/><path d="M289.43433,30.15623v-22h67v22z" fill="#737373" stroke="#000000" stroke-width="0.5"/><text transform="translate(290.43433,26.86512) scale(0.42903,0.42903)" font-size="40" xml:space="preserve" fill="#000000" fill-rule="nonzero" stroke="none" stroke-width="1" stroke-linecap="butt" stroke-linejoin="miter" stroke-miterlimit="10" stroke-dasharray="" stroke-dashoffset="0" font-family="Pixel" font-weight="normal" text-anchor="start" style="mix-blend-mode: normal"><tspan x="0" dy="0">kitchen</tspan></text><path d="M159.01147,242.17053c0,8.28427 -9.84974,15 -22,15c-12.15027,0 -22,-6.71573 -22,-15c0,-8.28427 9.84973,-15 22,-15c12.15026,0 22,6.71573 22,15z" fill="#3c966d" stroke="none" stroke-width="NaN"/><path d="M198.01148,153.17053c0,14.35941 -25.96749,26 -58,26c-32.03251,0 -58,-11.64059 -58,-26c0,-14.35941 25.96748,-26 58,-26c32.03251,0 58,11.64059 58,26z" fill="#3c966d" stroke="none" stroke-width="0"/><path d="M124.01148,236.17053v-65h27v65z" fill="#3c966d" stroke="none" stroke-width="0"/><g fill="#3c966d" stroke="none"><path d="M390.01148,269.17053c0,8.28427 -9.84974,15 -22,15c-12.15026,0 -22,-6.71573 -22,-15c0,-8.28427 9.84974,-15 22,-15c12.15026,0 22,6.71573 22,15z" stroke-width="NaN"/><path d="M429.01148,180.17053c0,14.35941 -25.96749,26 -58,26c-32.03251,0 -58,-11.64059 -58,-26c0,-14.35941 25.96749,-26 58,-26c32.03251,0 58,11.64059 58,26z" stroke-width="0"/><path d="M355.01148,263.17053v-65h27v65z" stroke-width="0"/></g><g fill="#3c966d" stroke="none"><path d="M160.01147,383.17053c0,8.28427 -9.84974,15 -22,15c-12.15027,0 -22,-6.71573 -22,-15c0,-8.28427 9.84973,-15 22,-15c12.15026,0 22,6.71573 22,15z" stroke-width="NaN"/><path d="M199.01148,294.17053c0,14.3594 -25.96749,26 -58,26c-32.03251,0 -58,-11.6406 -58,-26c0,-14.3594 25.96748,-26 58,-26c32.03251,0 58,11.6406 58,26z" stroke-width="0"/><path d="M125.01148,377.17053v-65h27v65z" stroke-width="0"/></g><g fill="#3c966d" stroke="none"><path d="M410.01148,408.17053c0,8.28427 -9.84974,15 -22,15c-12.15026,0 -22,-6.71573 -22,-15c0,-8.28427 9.84974,-15 22,-15c12.15026,0 22,6.71573 22,15z" stroke-width="NaN"/><path d="M449.01148,319.17053c0,14.3594 -25.96749,26 -58,26c-32.03251,0 -58,-11.6406 -58,-26c0,-14.3594 25.96749,-26 58,-26c32.03251,0 58,11.6406 58,26z" stroke-width="0"/><path d="M375.01148,402.17053v-65h27v65z" stroke-width="0"/></g><g fill="#3c966d" stroke="none"><path d="M602.01148,278.17053c0,8.28427 -9.84974,15 -22,15c-12.15026,0 -22,-6.71573 -22,-15c0,-8.28427 9.84974,-15 22,-15c12.15026,0 22,6.71573 22,15z" stroke-width="NaN"/><path d="M641.01148,189.17053c0,14.35941 -25.96749,26 -58,26c-32.03251,0 -58,-11.64059 -58,-26c0,-14.35941 25.96749,-26 58,-26c32.03251,0 58,11.64059 58,26z" stroke-width="0"/><path d="M567.01148,272.17053v-65h27v65z" stroke-width="0"/></g><g fill="#3c966d" stroke="none"><path d="M585.01148,424.17053c0,8.28427 -9.84974,15 -22,15c-12.15026,0 -22,-6.71573 -22,-15c0,-8.28427 9.84974,-15 22,-15c12.15026,0 22,6.71573 22,15z" stroke-width="NaN"/><path d="M624.01148,335.17053c0,14.3594 -25.96749,26 -58,26c-32.03251,0 -58,-11.6406 -58,-26c0,-14.3594 25.96749,-26 58,-26c32.03251,0 58,11.6406 58,26z" stroke-width="0"/><path d="M550.01148,418.17053v-65h27v65z" stroke-width="0"/></g><path d="M-121.12221,461.42781v-562.85561h722.24443v562.85561z" data-paper-data="{&quot;index&quot;:null}" fill-opacity="0.62745" fill="#000000" stroke="none" stroke-width="0"/></g></g></svg>