<svg version="1.1" xmlns="http://www.w3.org/2000/svg" xmlns:xlink="http://www.w3.org/1999/xlink" width="764" height="519.37955" viewBox="0,0,764,519.37955"><g transform="translate(148.30558,79.68979)"><g data-paper-data="{&quot;isPaintingLayer&quot;:true}" fill-rule="nonzero" stroke-linecap="butt" stroke-linejoin="miter" stroke-miterlimit="10" stroke-dasharray="" stroke-dashoffset="0" style="mix-blend-mode: normal"><path d="M100.5,361v-362h279v362z" fill="#424242" stroke="none" stroke-width="NaN"/><path d="M-147.30557,359.65625v-362h253v362z" fill="#232323" stroke="#000000" stroke-width="2"/><path d="M361.69443,361.65625v-362h253v362z" fill="#232323" stroke="#000000" stroke-width="2"/><g fill="#663f3f" stroke="#000000" stroke-width="0.5"><path d="M110.43757,-52.27939l0.14918,-5.5034l11.05602,-0.01166l-0.14918,5.5034z"/><path d="M104.81363,-48.73564l0.14918,-5.5034l11.05601,-0.01166l-0.14918,5.50343z"/><path d="M117.38331,-57.00375l0.14918,-5.5034l11.05601,-0.01166l-0.14918,5.5034z"/><path d="M117.16486,-48.94519l0.14917,-5.5034l11.05599,-0.01166l-0.14918,5.5034z"/><path d="M105.03739,-56.99076l0.14918,-5.5034l11.05601,-0.01164l-0.14918,5.5034z"/><path d="M112.75621,-42.65112l0.61804,-22.79983l5.89654,-0.00624l-0.61805,22.79984z"/></g><g fill="#663f3f" stroke="#000000" stroke-width="0.5"><path d="M178.29279,-53.70738l-1.48461,-5.30146l10.55827,-3.27998l1.48464,5.30147z"/><path d="M173.96807,-48.6593l-1.48464,-5.30149l10.55827,-3.27998l1.48464,5.30149z"/><path d="M183.53119,-60.27416l-1.48464,-5.30147l10.55827,-3.27997l1.48464,5.30149z"/><path d="M185.70511,-52.51129l-1.48464,-5.30145l10.55827,-3.27998l1.48464,5.30147z"/><path d="M171.7411,-56.61149l-1.48462,-5.30147l10.55827,-3.27998l1.48464,5.30146z"/><path d="M183.35448,-45.19512l-6.15061,-21.96325l5.63108,-1.74931l6.15061,21.96325z"/></g><path d="M129.13604,-41.34878c0.32986,4.0057 -3.19703,6.75406 -12.7662,7.54206c-9.56917,0.788 -11.95274,-2.28499 -12.2826,-6.29069c-0.32986,-4.0057 1.5189,-7.42722 11.08807,-8.21523c9.56917,-0.788 13.63087,2.95815 13.96073,6.96386z" fill="#c50000" stroke="#000000" stroke-width="2"/><path d="M201.0589,-44.83742c0.32986,4.0057 -2.88097,4.02354 -12.45016,4.81156c-9.56917,0.788 -9.06736,-0.08855 -9.39722,-4.09425c-0.32986,-4.0057 -1.68254,-6.89316 7.88665,-7.68116c9.56917,-0.788 13.63087,2.95815 13.96073,6.96386z" fill="#c50000" stroke="#000000" stroke-width="2"/><path d="M113.87845,-35.07167c-0.40049,-0.05544 -0.34503,-0.45594 -0.34503,-0.45594l0.10379,-0.55186c2.15625,-3.69032 -1.18726,-6.92194 -3.29226,-9.40889c0,0 -0.26121,-0.30861 0.04739,-0.56982c0.30861,-0.26121 0.5698,0.04741 0.5698,0.04741c2.42045,2.85963 5.58666,6.17555 3.38242,10.32311l-0.01017,0.27095c0,0 -0.05544,0.40049 -0.45593,0.34502z" fill="#000000" stroke="none" stroke-width="0.5"/><path d="M120.68276,-35.62226c-0.40294,0.03319 -0.43613,-0.36976 -0.43613,-0.36976l0.00414,-0.44873c0.07529,-0.19222 0.15059,-0.38442 0.22587,-0.57664c1.24597,-5.09699 -2.66664,-5.901 -3.06164,-10.3708c0,0 -0.03318,-0.40294 0.36976,-0.43613c0.40294,-0.03319 0.43613,0.36976 0.43613,0.36976c0.15259,2.02679 2.25637,2.92391 2.79743,4.54453c0.83936,2.51407 0.86254,3.5424 0.22944,6.13602c-0.08122,0.20902 -0.16245,0.41806 -0.24367,0.6271l0.0484,0.08853c0,0 0.03318,0.40294 -0.36976,0.43613z" fill="#000000" stroke="none" stroke-width="0.5"/><path d="M189.99567,-42.9736c-0.39276,-0.09593 -0.29683,-0.4887 -0.29683,-0.4887l0.01039,-0.0425c0.49811,-2.02841 4.17598,-5.44829 3.22247,-6.94573c0,0 -0.20988,-0.34555 0.13568,-0.55544c0.34556,-0.2099 0.55544,0.13569 0.55544,0.13569c1.3431,2.29092 -2.51032,5.01409 -3.12808,7.55737l-0.01039,0.04248c0,0 -0.09595,0.39276 -0.4887,0.29683z" fill="#000000" stroke="none" stroke-width="0.5"/><g data-paper-data="{&quot;index&quot;:null}" fill="#663f3f" stroke="#000000" stroke-width="0.5"><path d="M184.0654,238.49644l1.13508,-3.00882l6.44749,2.43231l-1.13507,3.00883z"/><path d="M180.11194,239.21455l1.1351,-3.00883l6.44749,2.43231l-1.13508,3.00883z"/><path d="M189.01431,237.41734l1.13505,-3.00881l6.4475,2.4323l-1.1351,3.00883z"/><path d="M187.35216,241.82316l1.13508,-3.00883l6.44753,2.43228l-1.1351,3.00883z"/><path d="M181.81453,234.70126l1.13508,-3.00883l6.44753,2.43231l-1.1351,3.00883z"/><path d="M183.58343,244.32944l4.70248,-12.46518l3.43868,1.29722l-4.70246,12.46517z"/></g><g data-paper-data="{&quot;index&quot;:null}" fill="#663f3f" stroke="#000000" stroke-width="0.5"><path d="M258.74065,250.33331l0.13526,-3.21298l6.88495,0.28984l-0.13526,3.21296z"/><path d="M255.21123,252.25387l0.13526,-3.21298l6.88493,0.28982l-0.13524,3.21298z"/><path d="M263.1023,247.75803l0.13526,-3.21296l6.88495,0.28982l-0.13526,3.21298z"/><path d="M262.90424,252.46279l0.13526,-3.21299l6.88495,0.28982l-0.13526,3.21298z"/><path d="M255.41407,247.4344l0.13526,-3.21298l6.88496,0.28982l-0.13526,3.21298z"/><path d="M260.11041,256.02364l0.56034,-13.3109l3.67198,0.15458l-0.56034,13.31088z"/></g><g data-paper-data="{&quot;index&quot;:null}" fill="#663f3f" stroke="#000000" stroke-width="0.5"><path d="M258.74065,351.18503l0.13526,-3.21296l6.88495,0.28984l-0.13526,3.21296z"/><path d="M255.21123,353.10561l0.13526,-3.21298l6.88493,0.28982l-0.13524,3.21298z"/><path d="M263.1023,348.60976l0.13526,-3.21296l6.88495,0.28982l-0.13526,3.21298z"/><path d="M262.90424,353.31453l0.13526,-3.21299l6.88495,0.28982l-0.13526,3.21298z"/><path d="M255.41407,348.28614l0.13526,-3.21298l6.88496,0.28982l-0.13526,3.21299z"/><path d="M260.11041,356.87536l0.56034,-13.31091l3.67198,0.15456l-0.56034,13.3109z"/></g><g data-paper-data="{&quot;index&quot;:null}" fill="#663f3f" stroke="#000000" stroke-width="0.5"><path d="M202.37934,353.84055l-0.02399,-3.21573l6.89086,-0.05138l0.02399,3.21571z"/><path d="M198.94933,355.93349l-0.02397,-3.21573l6.89083,-0.05138l0.024,3.21573z"/><path d="M206.60814,351.05248l-0.02399,-3.21571l6.89086,-0.05138l0.02399,3.21573z"/><path d="M206.64325,355.76128l-0.02397,-3.21574l6.89086,-0.05138l0.02399,3.21573z"/><path d="M198.91333,351.10989l-0.02399,-3.21573l6.89086,-0.05141l0.02397,3.21574z"/><path d="M204.02913,359.45608l-0.09935,-13.32231l3.67513,-0.02741l0.09936,13.32231z"/></g><g data-paper-data="{&quot;index&quot;:null}" fill="#663f3f" stroke="#000000" stroke-width="0.5"><path d="M210.33767,263.5379l1.78392,-4.2387l9.08295,3.8227l-1.78394,4.2387z"/><path d="M204.64941,264.35144l1.78394,-4.2387l9.08293,3.82269l-1.78391,4.23872z"/><path d="M217.46794,262.26202l1.78391,-4.23869l9.08295,3.8227l-1.78394,4.2387z"/><path d="M214.85571,268.46875l1.78394,-4.23872l9.08295,3.8227l-1.78394,4.2387z"/><path d="M207.32525,257.99336l1.78392,-4.23872l9.08298,3.82269l-1.78395,4.23872z"/><path d="M209.33517,271.8476l7.39056,-17.56039l4.84425,2.03876l-7.39055,17.56039z"/></g><g data-paper-data="{&quot;index&quot;:null}" fill="#663f3f" stroke="#000000" stroke-width="0.5"><path d="M234.92233,268.45592l-1.78394,-4.2387l9.08295,-3.8227l1.78392,4.2387z"/><path d="M240.61062,269.26946l-1.78391,-4.23872l9.08293,-3.82269l1.78394,4.2387z"/><path d="M227.79211,267.18005l-1.78392,-4.23869l9.08295,-3.8227l1.78391,4.23868z"/><path d="M230.40429,273.38676l-1.78394,-4.2387l9.08295,-3.8227l1.78394,4.23873z"/><path d="M237.93475,262.91138l-1.78395,-4.23872l9.08298,-3.82269l1.78392,4.23872z"/><path d="M240.16355,274.98168l-7.39055,-17.56037l4.84425,-2.03878l7.39056,17.56039z"/></g><path d="M220.97077,318.30122c-1.22725,24.00244 -6.64907,33.07185 -14.42455,32.5109c-7.77548,-0.56096 -14.25387,-9.60657 -13.02662,-33.60901c0.6495,-12.70277 4.33075,-33.09287 7.86038,-43.70202c3.13975,-9.4373 5.95005,-9.87358 9.61053,-9.6095c4.36543,0.31495 8.72354,0.02312 10.29487,12.58327c1.22744,9.81136 0.22361,31.29973 -0.31462,41.82635z" fill="#a9a600" stroke="#929292" stroke-width="1"/><path d="M234.65098,278.41727c-0.7035,-12.63851 3.63641,-13.13191 7.87486,-14.22357c3.554,-0.91539 6.39698,-0.98946 11.17614,7.73296c5.37259,9.80547 12.64608,29.20661 15.56006,41.58769c5.50609,23.39458 0.75244,33.45419 -6.79687,35.3986c-7.5493,1.94441 -14.50773,-6.00735 -20.01383,-29.40192c-2.41477,-10.26003 -7.25082,-31.22121 -7.80036,-41.09376z" data-paper-data="{&quot;index&quot;:null}" fill="#a9a600" stroke="#929292" stroke-width="1"/><path d="M218.79104,363.65019c0,5.14191 -4.1151,6.02427 -10.54247,6.02427c-6.42737,0 -11.09013,-0.88236 -11.09013,-6.02427c0,-5.14191 4.38893,-7.11959 10.8163,-7.11959c6.42737,0 10.8163,1.97769 10.8163,7.11959z" fill="#a9a600" stroke="#929292" stroke-width="1"/><path d="M274.37859,358.99506c0,5.14191 -2.19828,3.83363 -8.62566,3.83363c-6.42737,0 -10.05144,1.29038 -9.99481,-4.38129c0.06794,-6.80319 2.74594,-4.92895 9.17332,-4.92895c6.42737,0 9.44715,0.3347 9.44715,5.47661z" fill="#a9a600" stroke="#929292" stroke-width="1"/><path d="M261.78604,251.66598c4.28479,-0.23022 7.34241,1.72417 7.85556,8.57301c0.42938,5.73076 -2.62424,5.93118 -6.90903,6.1614c-4.28479,0.23022 -8.59037,0.4191 -8.60754,-5.32771c-0.01791,-5.99472 3.37623,-9.17649 7.66102,-9.40672z" data-paper-data="{&quot;index&quot;:null}" fill="#a9a600" stroke="#000000" stroke-width="0"/><path d="M271.80099,267.27953v-0.54766c0.0302,-4.02164 -1.12473,-6.11451 -4.03931,-8.54313c0,0 -1.31477,-1.09565 -0.21913,-2.41041c1.09564,-1.31476 2.41041,-0.21912 2.41041,-0.21912c3.71329,3.09467 5.24095,6.2043 5.27092,11.17266v0.54766c0,0 0,1.71144 -1.71144,1.71144c-1.71144,0 -1.71144,-1.71144 -1.71144,-1.71144z" data-paper-data="{&quot;index&quot;:null}" fill="#a9a600" stroke="none" stroke-width="0.5"/><path d="M266.55767,275.2206l0.08782,-1.10178c-1.02325,-3.10767 -0.3246,-6.32804 -1.36915,-9.31023c0,0 -0.54121,-1.62362 1.08241,-2.16482c1.62362,-0.54121 2.16482,1.08241 2.16482,1.08241c0.9932,3.09276 0.31981,6.2076 1.36915,9.31023l0.08782,2.18418c0,0 0,1.71144 -1.71144,1.71144c-1.71144,0 -1.71144,-1.71144 -1.71144,-1.71144z" data-paper-data="{&quot;index&quot;:null}" fill="#a9a600" stroke="none" stroke-width="0.5"/><path d="M259.763,276.72234l0.22273,-0.68024c0,-3.54306 -0.06783,-7.04757 0.28233,-10.57585c0,0 0.1703,-1.70295 1.87323,-1.53266c1.70294,0.1703 1.53266,1.87325 1.53266,1.87325c-0.34396,3.4122 -0.26533,6.80772 -0.26533,10.23526l-0.32493,1.51039c0,0 -0.41509,1.66034 -2.07543,1.24526c-1.66034,-0.41509 -1.24526,-2.07543 -1.24526,-2.07543z" data-paper-data="{&quot;index&quot;:null}" fill="#a9a600" stroke="none" stroke-width="0.5"/><path d="M253.1575,273.98404l0.54766,-2.19064c0.82234,-3.20397 0.61858,-5.30763 2.7884,-8.04746c0,0 1.06913,-1.33642 2.40555,-0.26729c1.33642,1.06913 0.26729,2.40555 0.26729,2.40555c-1.81107,2.23596 -1.46549,3.97826 -2.14053,6.73938l-0.54766,2.19064c0,0 -0.41509,1.66034 -2.07543,1.24526c-1.66034,-0.41509 -1.24526,-2.07543 -1.24526,-2.07543z" data-paper-data="{&quot;index&quot;:null}" fill="#a9a600" stroke="none" stroke-width="0.5"/><path d="M267.17501,259.64524c0,3.15768 -2.51326,5.71748 -5.61352,5.71748c-3.10025,0 -5.61352,-2.55981 -5.61352,-5.71748c0,-3.15768 2.51327,-5.71748 5.61352,-5.71748c3.10025,0 5.61352,2.55981 5.61352,5.71748z" fill="#cbc700" stroke="#000000" stroke-width="0"/><path d="M249.11019,269.13584l0.75264,-1.82216c1.11923,-2.66232 1.21175,-4.50528 3.43557,-6.59473c0,0 1.09401,-1.0178 2.11181,0.07619c1.0178,1.09401 -0.07621,2.11181 -0.07621,2.11181c-1.84964,1.70003 -1.77354,3.249 -2.70902,5.54761l-0.75265,1.82216c0,0 -0.57044,1.38106 -1.95151,0.81062c-1.38106,-0.57044 -0.81062,-1.95151 -0.81062,-1.95151z" data-paper-data="{&quot;index&quot;:null}" fill="#a9a600" stroke="none" stroke-width="0.5"/><g><path d="M192.4389,250.38444c-1.28866,5.60048 -5.44567,4.46335 -9.57323,3.29052c-4.12757,-1.17283 -7.06113,-2.04413 -5.37403,-7.53774c2.01625,-6.56543 5.43059,-7.79461 9.55816,-6.62178c4.12757,1.17283 6.73335,5.0269 5.38911,10.86899z" fill="#a9a600" stroke="#000000" stroke-width="0"/><path d="M176.23519,263.83721c-1.68941,-0.27372 -1.41569,-1.96313 -1.41569,-1.96313l0.43602,-2.14202c1.53205,-2.89488 1.3655,-6.07731 2.84055,-8.97141c0,0 0.7939,-1.51616 2.31007,-0.72226c1.51616,0.7939 0.72226,2.31007 0.72226,2.31007c-1.50807,2.77675 -1.33344,6.0674 -2.84055,8.97141l-0.08952,1.10165c0,0 -0.27372,1.68941 -1.96313,1.41569z" fill="#a9a600" stroke="none" stroke-width="0.5"/><path d="M182.28655,266.12768c-1.70536,0.1442 -1.84956,-1.56116 -1.84956,-1.56116l-0.07918,-1.54294c0.54818,-3.38342 1.16886,-6.72266 1.37505,-10.14594c0,0 0.10426,-1.70826 1.81252,-1.60402c1.70826,0.10426 1.60402,1.81252 1.60402,1.81252c-0.21864,3.53887 -0.84609,6.98741 -1.41275,10.48487l0.11108,0.7071c0,0 0.1442,1.70536 -1.56116,1.84956z" fill="#a9a600" stroke="none" stroke-width="0.5"/><path d="M189.07977,265.13518c-1.70536,0.1442 -1.84956,-1.56116 -1.84956,-1.56116l-0.19024,-2.25002c-0.22476,-2.83354 0.39503,-4.49813 -1.03513,-6.99497c0,0 -0.84163,-1.4902 0.64858,-2.33182c1.4902,-0.84163 2.33182,0.64858 2.33182,0.64858c1.7037,3.05162 1.16612,5.0956 1.46544,8.38983l0.19024,2.25002c0,0 0.1442,1.70536 -1.56116,1.84956z" fill="#a9a600" stroke="none" stroke-width="0.5"/><path d="M171.65366,256.15988c-1.68941,-0.27372 -1.41569,-1.96313 -1.41569,-1.96313l0.08758,-0.54062c0.82419,-4.89962 2.82952,-7.72491 6.98997,-10.18585c0,0 1.47307,-0.87126 2.34433,0.60181c0.87126,1.47307 -0.60181,2.34433 -0.60181,2.34433c-3.2655,1.93122 -4.74026,3.81243 -5.35366,7.78713l-0.08758,0.54062c0,0 -0.27372,1.68941 -1.96313,1.41569z" fill="#a9a600" stroke="none" stroke-width="0.5"/><path d="M190.71069,248.11549c-0.50503,3.11703 -3.39533,5.24192 -6.45569,4.7461c-3.06037,-0.49584 -5.13187,-3.42465 -4.62684,-6.54167c0.50503,-3.11703 3.39533,-5.24192 6.45569,-4.7461c3.06037,0.49584 5.13187,3.42465 4.62684,6.54167z" fill="#cbc700" stroke="#000000" stroke-width="0"/><path d="M195.76896,260.30339c0,0 0.29746,1.46434 -1.16686,1.76178c-1.46434,0.29746 -1.7618,-1.16686 -1.7618,-1.16686l-0.39247,-1.93202c-0.48138,-2.43456 -0.11217,-3.94078 -1.60487,-5.96149c0,0 -0.88053,-1.20724 0.32669,-2.08777c1.20724,-0.88053 2.08778,0.32671 2.08778,0.32671c1.78599,2.47415 1.52644,4.30107 2.11908,7.12763l0.39247,1.93202z" data-paper-data="{&quot;index&quot;:null}" fill="#a9a600" stroke="none" stroke-width="0.5"/></g><path d="M199.93562,122.13332l-7.87262,-22.9333h84.88742c0,0 2.27964,7.98176 1.23539,11.85163c-0.54213,2.00909 -7.05428,9.71252 -7.05428,9.71252z" fill="#000000" stroke="none" stroke-width="0"/><path d="M258.27795,102.85784c0,3.41412 -0.53057,16.93081 -6.21803,24.05174c-4.14982,5.19575 -13.31503,4.94937 -15.81286,4.94937c-2.43853,0 -11.14779,0.19405 -16.07944,-5.33159c-5.79124,-6.48877 -7.69402,-19.07238 -7.69402,-22.54932c0,-10.99873 10.98744,-11.94896 23.77346,-11.94896c12.786,0 22.0309,-0.16998 22.0309,10.82875z" fill="#980002" stroke="none" stroke-width="0"/><path d="M244.19937,111.99512c-0.09023,2.34009 0.54242,4.08102 -3.39604,4.4607c-0.68592,0.06612 -3.77353,0.24526 -4.50711,0.21697c-1.79826,-0.06935 -5.70494,-0.39033 -7.08836,-0.95131c-2.42137,-0.98187 -1.39315,-1.98418 -1.32572,-3.73277c0.10594,-2.74763 3.48816,-2.48127 8.43391,-2.29056c4.94575,0.19072 7.98928,-0.45067 7.88332,2.29697z" fill="#300001" stroke="none" stroke-width="0"/><path d="M249.88628,176.85577l-2.829,-3.62571l7.76939,-6.06215l2.82901,3.62571z" fill="#663f3f" stroke="#000000" stroke-width="0.5"/><path d="M247.82026,182.21764l-2.829,-3.62571l7.76936,-6.06214l2.82902,3.62569z" fill="#663f3f" stroke="#000000" stroke-width="0.5"/><path d="M252.25252,170.00964l-2.829,-3.62568l7.76939,-6.06215l2.829,3.62571z" fill="#663f3f" stroke="#000000" stroke-width="0.5"/><path d="M256.39503,175.31878l-2.82901,-3.62573l7.76939,-6.06217l2.829,3.62571z" fill="#663f3f" stroke="#000000" stroke-width="0.5"/><path d="M243.57675,176.77909l-2.829,-3.62571l7.76938,-6.06218l2.82901,3.62573z" fill="#663f3f" stroke="#000000" stroke-width="0.5"/><path d="M256.64992,181.78626l-11.72019,-15.02082l4.14367,-3.23317l11.72019,15.0208z" fill="#663f3f" stroke="#000000" stroke-width="0.5"/><path d="M194.3922,162.3565l2.9574,-3.52175l7.54664,6.3373l-2.9574,3.52176z" fill="#663f3f" stroke="#000000" stroke-width="0.5"/><path d="M196.2643,167.78914l2.95742,-3.52176l7.54663,6.3373l-2.9574,3.52176z" fill="#663f3f" stroke="#000000" stroke-width="0.5"/><path d="M192.27337,155.42984l2.9574,-3.52176l7.54663,6.33731l-2.95738,3.52175z" fill="#663f3f" stroke="#000000" stroke-width="0.5"/><path d="M187.94286,160.58672l2.9574,-3.52176l7.54663,6.33731l-2.95741,3.52179z" fill="#663f3f" stroke="#000000" stroke-width="0.5"/><path d="M200.70044,162.50649l2.95741,-3.52179l7.54663,6.33733l-2.9574,3.52176z" fill="#663f3f" stroke="#000000" stroke-width="0.5"/><path d="M190.97759,169.99827l12.25213,-14.59016l4.02487,3.3799l-12.25212,14.59018z" fill="#663f3f" stroke="#000000" stroke-width="0.5"/><path d="M277.92754,20.6002l0.87967,-2.78787l5.97401,1.88501l-0.87967,2.78787z" fill="#663f3f" stroke="#000000" stroke-width="0.5"/><path d="M280.34905,23.3349l0.87968,-2.78787l5.97399,1.88501l-0.87967,2.78787z" fill="#663f3f" stroke="#000000" stroke-width="0.5"/><path d="M274.9976,17.04817l0.87967,-2.78787l5.97401,1.88501l-0.87967,2.78785z" fill="#663f3f" stroke="#000000" stroke-width="0.5"/><path d="M273.70949,21.13042l0.87967,-2.78787l5.97401,1.88501l-0.87967,2.78788z" fill="#663f3f" stroke="#000000" stroke-width="0.5"/><path d="M281.66857,19.15309l0.87967,-2.78788l5.97401,1.88502l-0.87967,2.78787z" fill="#663f3f" stroke="#000000" stroke-width="0.5"/><path d="M277.78209,25.91879l3.64435,-11.54974l3.18614,1.00534l-3.64435,11.54976z" fill="#663f3f" stroke="#000000" stroke-width="0.5"/><path d="M267.15766,55.75684l1.55818,-2.47348l5.30033,3.33895l-1.55818,2.47348z" fill="#663f3f" stroke="#000000" stroke-width="0.5"/><path d="M268.80614,59.01641l1.55819,-2.47348l5.30032,3.33894l-1.55818,2.47348z" fill="#663f3f" stroke="#000000" stroke-width="0.5"/><path d="M265.22473,51.5777l1.55818,-2.47348l5.30032,3.33895l-1.55818,2.47347z" fill="#663f3f" stroke="#000000" stroke-width="0.5"/><path d="M262.94311,55.19959l1.55818,-2.47348l5.30033,3.33895l-1.55818,2.47348z" fill="#663f3f" stroke="#000000" stroke-width="0.5"/><path d="M271.14341,55.3062l1.55818,-2.47348l5.30032,3.33895l-1.55818,2.47348z" fill="#663f3f" stroke="#000000" stroke-width="0.5"/><path d="M265.6676,60.86453l6.45529,-10.24731l2.82683,1.78077l-6.45529,10.24729z" fill="#663f3f" stroke="#000000" stroke-width="0.5"/><path d="M284.66767,41.14435c-2.1578,10.18479 -7.65995,17.6461 -12.28941,16.66528c-4.62946,-0.98082 -6.63312,-10.03234 -4.47532,-20.21713c2.1578,-10.18479 7.65995,-17.6461 12.2894,-16.66528c4.62946,0.98082 6.63313,10.03234 4.47533,20.21713z" fill="#a9a600" stroke="#000000" stroke-width="0.5"/><path d="M198.66028,60.46495l-1.55818,-2.47348l5.30033,-3.33895l1.55818,2.47348z" fill="#663f3f" stroke="#000000" stroke-width="0.5"/><path d="M197.0118,63.72452l-1.55818,-2.47348l5.30033,-3.33894l1.55818,2.47348z" fill="#663f3f" stroke="#000000" stroke-width="0.5"/><path d="M200.59324,56.28579l-1.55818,-2.47347l5.30032,-3.33895l1.55818,2.47348z" fill="#663f3f" stroke="#000000" stroke-width="0.5"/><path d="M202.87484,59.90769l-1.55818,-2.47348l5.30033,-3.33895l1.55818,2.47348z" fill="#663f3f" stroke="#000000" stroke-width="0.5"/><path d="M194.67453,60.01429l-1.55818,-2.47348l5.30032,-3.33895l1.55818,2.47348z" fill="#663f3f" stroke="#000000" stroke-width="0.5"/><path d="M202.62383,64.01446l-6.45529,-10.24729l2.82683,-1.78077l6.45531,10.24731z" fill="#663f3f" stroke="#000000" stroke-width="0.5"/><path d="M220.04864,145.70109l0.56541,-6.6434l14.23587,1.21159l-0.56541,6.6434z" fill="#663f3f" stroke="#000000" stroke-width="0.5"/><path d="M212.56721,149.36605l0.56541,-6.6434l14.23587,1.21159l-0.56539,6.6434z" fill="#663f3f" stroke="#000000" stroke-width="0.5"/><path d="M229.31208,140.75387l0.56539,-6.6434l14.23587,1.21159l-0.56541,6.6434z" fill="#663f3f" stroke="#000000" stroke-width="0.5"/><path d="M228.48415,150.48174l0.56541,-6.64341l14.23587,1.21159l-0.56539,6.64341z" fill="#663f3f" stroke="#000000" stroke-width="0.5"/><path d="M213.41532,139.40096l0.56541,-6.6434l14.23587,1.21158l-0.56541,6.64341z" fill="#663f3f" stroke="#000000" stroke-width="0.5"/><path d="M222.38088,157.60976l2.3424,-27.52269l7.59247,0.64617l-2.3424,27.52269z" fill="#663f3f" stroke="#000000" stroke-width="0.5"/><path d="M231.98581,109.8647c-17.23287,0 -41.07457,-7.24677 -41.07457,-13.05258c0,-10.82765 -1.23847,-20.94329 5.20534,-30.47628c8.40655,-12.43671 26.36403,-22.92063 41.34583,-22.92063c20.52152,0 40.284,15.81387 45.9735,37.93348c1.64799,6.40706 -2.27472,20.24169 -2.27472,25.84618c0,0 -22.7097,2.66983 -49.17537,2.66983z" fill="#a9a600" stroke="#929292" stroke-width="1"/><path d="M249.32794,183.92552c0.20854,34.90884 -3.34058,79.54898 -22.44117,80.24148c-19.52549,0.70791 -21.16227,-42.75629 -21.37081,-77.66512c-0.20854,-34.90884 7.00497,-41.36753 20.61564,-41.44883c13.61067,-0.08131 22.98782,3.96364 23.19635,38.87248z" fill="#a9a600" stroke="#929292" stroke-width="1"/><path d="M201.34377,208.64387c0.17086,20.95421 -4.07992,29.12779 -10.87639,29.04092c-6.79647,-0.08687 -12.90196,-7.62542 -13.07281,-28.57964c-0.09043,-11.08956 2.06108,-29.02641 4.5855,-38.44242c2.24557,-8.37595 4.66903,-8.90076 7.86861,-8.85985c3.81576,0.04877 7.59384,-0.43019 9.60985,10.4206c1.57478,8.47608 1.81033,27.23061 1.88527,36.42039z" fill="#a9a600" stroke="#929292" stroke-width="1"/><path d="M251.23349,183.62832c1.59045,-10.92129 5.38434,-10.59032 9.19529,-10.78816c3.19555,-0.16589 5.63765,0.26381 8.20881,8.5456c2.89044,9.31017 5.74121,27.14923 6.08421,38.23386c0.64812,20.94489 -5.15814,28.71628 -11.94602,29.06866c-6.78787,0.35238 -11.35482,-7.64884 -12.00292,-28.59373c-0.28424,-9.18568 -0.78176,-27.93508 0.46061,-36.46623z" data-paper-data="{&quot;index&quot;:null}" fill="#a9a600" stroke="#929292" stroke-width="1"/><path d="M194.27563,35.77526c6.02935,8.48722 7.78974,17.58919 3.9319,20.32981c-3.85783,2.74062 -11.87298,-1.91794 -17.90233,-10.40516c-6.02935,-8.48722 -7.78974,-17.58918 -3.9319,-20.3298c3.85783,-2.74062 11.87298,1.91794 17.90233,10.40516z" fill="#a9a600" stroke="#000000" stroke-width="0.5"/><path d="M192.7645,37.15904c4.33107,6.09661 5.59559,12.63484 2.8244,14.6035c-2.77119,1.96866 -8.52869,-1.37771 -12.85976,-7.47432c-4.33107,-6.09661 -5.59559,-12.63482 -2.8244,-14.60348c2.77119,-1.96866 8.52871,1.3777 12.85976,7.47431z" fill="#cbc700" stroke="#000000" stroke-width="0.5"/><path d="M279.05444,25.18699c3.32745,0.69516 4.78506,7.19305 3.25571,14.51342c-1.52937,7.32038 -5.46657,12.69118 -8.79402,11.99602c-3.32745,-0.69516 -4.78509,-7.19306 -3.25572,-14.51344c1.52937,-7.32038 5.4666,-12.69116 8.79404,-11.996z" data-paper-data="{&quot;index&quot;:null}" fill="#cbc700" stroke="#000000" stroke-width="0.5"/><path d="M292.61137,0.69771c-0.14813,10.40981 -4.10405,18.79405 -8.83578,18.72673c-4.73173,-0.06733 -8.44748,-8.56075 -8.29935,-18.97055c0.14813,-10.40981 4.10405,-18.79405 8.83578,-18.72671c4.73173,0.06733 8.44748,8.56073 8.29935,18.97055z" fill="#a9a600" stroke="#000000" stroke-width="0.5"/><path d="M283.51694,-12.97887c3.39923,-0.01769 6.1864,6.03035 6.22532,13.50867c0.03891,7.47832 -2.68515,13.55504 -6.08439,13.57275c-3.39923,0.01769 -6.18642,-6.03036 -6.22533,-13.5087c-0.03891,-7.47832 2.68518,-13.55503 6.08442,-13.57272z" data-paper-data="{&quot;index&quot;:null}" fill="#cbc700" stroke="#000000" stroke-width="0.5"/><path d="M221.74742,84.43108c0,4.34793 -3.26927,7.87262 -7.30214,7.87262c-4.03286,0 -7.30214,-3.52469 -7.30214,-7.87262c0,-4.34793 3.26927,-7.87262 7.30214,-7.87262c4.03286,0 7.30214,3.52469 7.30214,7.87262z" fill="#ffffff" stroke="#ffffff" stroke-width="2"/><path d="M266.01661,88.08214c0,4.34793 -3.26927,7.87262 -7.30214,7.87262c-4.03286,0 -7.30214,-3.5247 -7.30214,-7.87262c0,-4.34792 3.26927,-7.87262 7.30214,-7.87262c4.03286,0 7.30214,3.5247 7.30214,7.87262z" fill="#ffffff" stroke="#ffffff" stroke-width="2"/><path d="M240.115,196.72576c0.13471,22.55108 -2.15802,51.38856 -14.49698,51.83592c-12.61345,0.4573 -13.6708,-27.62052 -13.80552,-50.17159c-0.13471,-22.55108 4.5252,-26.72338 13.31769,-26.77592c8.79249,-0.05252 14.85011,2.56051 14.98482,25.11159z" fill="#cbc700" stroke="#929292" stroke-width="1"/><path d="M234.43024,151.32549c3.59871,-0.09166 6.24185,3.9744 5.27825,7.41048c-0.65046,3.2625 -0.67933,7.05146 -5.25281,6.12947c-2.04536,-0.69979 -4.14445,-1.22016 -5.43475,-2.51427c-0.55559,0.38935 -1.23215,0.61783 -1.96209,0.61783c-1.192,0 -2.24167,-0.6093 -2.85459,-1.53344c-0.6956,0.24598 -1.3813,0.0319 -2.03537,0.40428c-1.88108,1.07098 -4.21729,2.58552 -6.57051,2.94183c-2.48541,-2.17387 -2.0006,-5.75 -0.87475,-8.5542c0.52111,-3.21326 2.10952,-7.28142 5.47075,-4.59244c1.40542,1.45096 3.70239,3.27778 4.84269,5.14882c0.5665,-0.41533 1.26549,-0.66062 2.02177,-0.66062c0.68213,0 1.31764,0.19954 1.85138,0.54342c1.90847,-1.70507 3.45241,-3.7831 5.52002,-5.34117z" fill="#cbc700" stroke="none" stroke-width="0.5"/><path d="M216.66363,157.44683c0.24204,-0.24204 0.48408,0 0.48408,0l0.00322,0.02252c2.286,1.28346 4.42363,0.60267 6.89839,1.00941c0,0 0.33763,0.05627 0.28136,0.39391c-0.05627,0.33763 -0.39391,0.28136 -0.39391,0.28136c-2.57065,-0.43512 -4.71091,0.21214 -7.11528,-1.08459l-0.15786,-0.13854c0,0 -0.24204,-0.24204 0,-0.48408z" fill="#063800" stroke="none" stroke-width="0.5"/><path d="M236.73822,158.25262c0,0.34229 -0.34229,0.34229 -0.34229,0.34229l-0.3035,-0.01469c-1.43321,1.01686 -2.87731,0.33239 -4.27215,1.17399c0,0 -0.29351,0.1761 -0.46962,-0.1174c-0.1761,-0.29351 0.1174,-0.46962 0.1174,-0.46962c1.47002,-0.87763 2.93815,-0.28903 4.42598,-1.24216l0.50189,-0.01468c0,0 0.34229,0 0.34229,0.34229z" fill="#063800" stroke="none" stroke-width="0.5"/><path d="M229.08039,155.42031c0.33563,-0.06713 0.40278,0.2685 0.40278,0.2685l0.07299,0.37229c0.02055,0.05397 0.04484,0.1067 0.0723,0.15795c0.00077,0 0.00152,-0.00001 0.00229,-0.00001c0.34229,0 0.34229,0.34229 0.34229,0.34229c0,0.03471 0.00011,0.0691 0.00034,0.10319c0.04984,0.06249 0.16445,0.24297 0.00864,0.42968c0.03319,0.98864 0.14836,1.72242 0.17396,2.47314c0.5474,-0.16301 1.18563,-0.16967 1.74326,-0.2812c0,0 0.33563,-0.06713 0.40276,0.2685c0.06713,0.33565 -0.26852,0.40276 -0.26852,0.40276c-0.52324,0.10466 -1.40506,0.07555 -1.88469,0.32208c-0.03564,0.60276 -0.15497,1.26488 -0.43494,2.10828l-0.16323,0.21433c0,0 -0.24202,0.24202 -0.48406,0c-0.24204,-0.24202 0,-0.48408 0,-0.48408l-0.00215,0.05326c0.24469,-0.73077 0.36493,-1.30217 0.41274,-1.80769c-0.06011,-0.05014 -0.10816,-0.13034 -0.10816,-0.25859c0,-0.14627 0.0625,-0.23004 0.13409,-0.27801c0.00278,-0.8749 -0.17932,-1.64081 -0.21021,-2.90205c-0.16134,-0.20306 -0.29475,-0.43057 -0.39293,-0.66878l-0.08808,-0.4331c0,0 -0.06713,-0.33563 0.2685,-0.40276z" fill="#063800" stroke="none" stroke-width="0.5"/><path d="M224.2351,161.87728c-0.24204,0.24202 -0.48408,0 -0.48408,0l-0.25468,-0.33599c-0.44322,-2.26011 0.21954,-3.21836 1.0765,-4.97197c0,0 0.15308,-0.30616 0.45923,-0.15308c0.30616,0.15308 0.15308,0.45923 0.15308,0.45923c-0.83755,1.64445 -1.46387,2.34997 -1.01751,4.53155l0.06747,-0.01383c0,0 0.24204,0.24204 0,0.48408z" fill="#063800" stroke="none" stroke-width="0.5"/><path d="M212.45754,84.66561c0,-0.75616 0.61298,-1.36915 1.36915,-1.36915c0.75617,0 1.36915,0.613 1.36915,1.36915c0,0.75616 -0.61298,1.36915 -1.36915,1.36915c-0.75617,0 -1.36915,-0.613 -1.36915,-1.36915z" fill="#000000" stroke="none" stroke-width="0.5"/><path d="M256.88028,89.37673c0,-0.99676 0.80803,-1.80479 1.80479,-1.80479c0.99676,0 1.80479,0.80803 1.80479,1.80479c0,0.99676 -0.80803,1.80479 -1.80479,1.80479c-0.99676,0 -1.80479,-0.80803 -1.80479,-1.80479z" fill="#000000" stroke="none" stroke-width="0.5"/><path d="M269.29659,125.41044c-0.57704,5.33765 -20.41833,11.32986 -38.91214,9.33052c-18.49382,-1.99933 -34.3874,-10.68544 -33.81036,-16.02309c0.17455,-1.61459 -7.83407,-18.32288 -5.26391,-19.39852c2.70903,-1.13374 7.84743,11.66111 15.38935,14.42543c8.95755,3.28319 18.77136,7.75551 25.77456,8.51259c6.59373,0.71284 20.22721,-0.35735 30.69703,-3.41909c8.79947,-2.57327 14.29503,-13.69241 16.83943,-12.79512c2.91931,1.02948 -10.51558,17.53214 -10.71397,19.36727z" fill="#a9a600" stroke="#929292" stroke-width="1"/><path d="M202.92208,112.92062l0.92839,-2.28291l3.29755,1.34102l-0.92839,2.28291z" fill="#ffffff" stroke="none" stroke-width="0"/><path d="M208.59471,115.6725l0.74487,-2.3492l3.39331,1.07592l-0.74487,2.3492z" fill="#ffffff" stroke="none" stroke-width="0"/><path d="M223.80751,120.84485l0.74487,-2.3492l3.39331,1.07592l-0.74487,2.3492z" fill="#ffffff" stroke="none" stroke-width="0"/><path d="M231.53241,122.32595l0.03756,-2.46419l3.55938,0.05425l-0.03756,2.46419z" fill="#ffffff" stroke="none" stroke-width="0"/><path d="M215.44047,117.80228l0.74487,-2.3492l3.39331,1.07592l-0.74487,2.34922z" fill="#ffffff" stroke="none" stroke-width="0"/><path d="M240.05157,122.78233l0.03756,-2.46419l3.55938,0.05425l-0.03756,2.46419z" fill="#ffffff" stroke="none" stroke-width="0"/><path d="M248.50199,122.01033l-0.3892,-2.43354l3.51512,-0.56217l0.3892,2.43354z" fill="#ffffff" stroke="none" stroke-width="0"/><path d="M255.25328,120.98525l-0.70481,-2.36154l3.41112,-1.01807l0.70481,2.36154z" fill="#ffffff" stroke="none" stroke-width="0"/><path d="M261.94691,119.46397l-0.70481,-2.36154l3.41112,-1.01806l0.70481,2.36154z" fill="#ffffff" stroke="none" stroke-width="0"/><path d="M230.43792,111.9359l0.09917,-2.46247l3.55692,0.14323l-0.09917,2.46247z" fill="#ffffff" stroke="none" stroke-width="0"/><path d="M240.17411,112.08803l0.09917,-2.46247l3.55692,0.14323l-0.09917,2.46247z" fill="#ffffff" stroke="none" stroke-width="0"/><path d="M250.54056,111.71858l0.09917,-2.46249l3.55692,0.14323l-0.09917,2.46247z" fill="#ffffff" stroke="none" stroke-width="0"/><path d="M220.95546,111.09145l0.21036,-2.45549l3.54682,0.30384l-0.21036,2.45546z" fill="#ffffff" stroke="none" stroke-width="0"/><path d="M210.12163,108.69267l0.72431,-2.35564l3.40259,1.04622l-0.72431,2.35563z" fill="#ffffff" stroke="none" stroke-width="0"/><path d="M262.3421,111.61848l-0.38347,-2.43446l3.51645,-0.55389l0.38346,2.43445z" fill="#ffffff" stroke="none" stroke-width="0"/><path d="M250.78538,102.7223c0,6.53053 -6.48681,4.79203 -13.76487,4.79203c-7.27806,0 -14.35164,0.12302 -14.35164,-4.79203c0,-2.93541 0.95826,-9.54662 4.54101,-12.34779c2.41624,-1.88913 6.68364,-1.05033 9.61505,-1.05033c2.72898,0 7.30266,-0.4586 9.5089,1.02395c3.67768,2.47132 4.45156,8.29234 4.45156,12.37418z" fill="#817f00" stroke="#000000" stroke-width="0"/><path d="M240.35147,91.31728c0,1.67436 -1.52021,3.0317 -3.3955,3.0317c-1.87527,0 -3.3955,-1.35734 -3.3955,-3.0317c0,-1.67436 1.52021,-3.0317 3.3955,-3.0317c1.87527,0 3.3955,1.35734 3.3955,3.0317z" fill="#3d3c00" stroke="none" stroke-width="0"/><path d="M-31.65113,369.58079v-443.07355h273.84156c0,0 0,67.06434 0,115.32051c0,13.48761 -62.19402,-29.18315 -62.19402,-8.4973c0,13.76926 1.08842,29.77998 2.9773,47.19817c1.97613,18.22285 -60.01221,-8.14199 -56.6136,12.20686c2.77911,16.63971 6.05102,33.5678 9.59586,52.34512c3.06814,16.25223 -65.11623,-13.1171 -61.78172,3.57654c3.61493,18.09758 6.24672,38.05575 8.14651,58.35185c7.37055,78.74245 3.723,162.57178 3.723,162.57178z" fill="#8c0000" stroke="none" stroke-width="0"/><path d="M396.44131,369.58079c0,0 -3.70836,-83.82933 3.78506,-162.57177c1.93145,-20.29612 4.60712,-40.25428 8.28231,-58.35185c3.39009,-16.69364 -65.93095,12.67569 -62.81167,-3.57655c3.60393,-18.77732 6.93038,-35.70542 9.75583,-52.34512c3.45526,-20.34884 -59.56647,6.01599 -57.5574,-12.20686c1.92036,-17.41819 3.02693,-33.42893 3.02693,-47.19817c0,-20.68585 -63.23084,21.98491 -63.23084,8.4973c0,-48.25617 0,-115.32051 0,-115.32051h278.40669v443.07355z" data-paper-data="{&quot;index&quot;:null}" fill="#8c0000" stroke="none" stroke-width="0"/><path d="M-38.52853,439.68977v-519.37955h557.05706v519.37955z" fill-opacity="0.62745" fill="#000000" stroke="none" stroke-width="0"/></g></g></svg>